<svg xmlns="http://www.w3.org/2000/svg" viewBox="0 0 640 512"><!--! Font Awesome Pro 6.6.0 by @fontawesome - https://fontawesome.com License - https://fontawesome.com/license (Commercial License) Copyright 2024 Fonticons, Inc. --><defs><style>.fa-secondary{opacity:.4}</style></defs><path class="fa-secondary" d="M352 176c0-79.5 64.5-144 144-144s144 64.5 144 144l0 160c0 79.5-64.5 144-144 144s-144-64.5-144-144l0-160zm64 0l0 160c0 44.2 35.8 80 80 80s80-35.8 80-80l0-160c0-44.2-35.8-80-80-80s-80 35.8-80 80z"/><path class="fa-primary" d="M0 176C0 96.5 64.5 32 144 32s144 64.5 144 144l0 160c0 79.5-64.5 144-144 144S0 415.5 0 336L0 176zM144 96c-44.2 0-80 35.8-80 80l0 160c0 44.2 35.8 80 80 80s80-35.8 80-80l0-160c0-44.2-35.8-80-80-80z"/></svg>