<svg xmlns="http://www.w3.org/2000/svg" viewBox="0 0 512 512"><!--! Font Awesome Pro 6.6.0 by @fontawesome - https://fontawesome.com License - https://fontawesome.com/license (Commercial License) Copyright 2024 Fonticons, Inc. --><defs><style>.fa-secondary{opacity:.4}</style></defs><path class="fa-secondary" d="M32 288c0 50.3 16.6 96.8 44.6 134.2L57.4 441.4 34.7 464 80 509.3l22.6-22.6 19.2-19.2c37.4 28 83.8 44.6 134.1 44.6s96.8-16.6 134.2-44.6l19.2 19.2L432 509.3 477.3 464l-22.6-22.6-19.2-19.2c28-37.4 44.6-83.8 44.6-134.2C480 164.3 379.7 64 256 64S32 164.3 32 288zM232 160l48 0 0 24 0 94.1 41 41 17 17L304 369.9l-17-17-48-48-7-7 0-9.9 0-104 0-24z"/><path class="fa-primary" d="M160.9 25.5L14.9 147.2C5.5 132.3 0 114.7 0 95.8C0 42.9 42.9 0 95.8 0c25.1 0 48 9.7 65.1 25.5zm190.3 0C368.2 9.7 391.1 0 416.2 0C469.1 0 512 42.9 512 95.8c0 18.9-5.5 36.5-14.9 51.4L351.1 25.5zM280 184l0 94.1 41 41 17 17L304 369.9l-17-17-48-48-7-7 0-9.9 0-104 0-24 48 0 0 24z"/></svg>