<svg xmlns="http://www.w3.org/2000/svg" viewBox="0 0 512 512"><!--! Font Awesome Pro 6.6.0 by @fontawesome - https://fontawesome.com License - https://fontawesome.com/license (Commercial License) Copyright 2024 Fonticons, Inc. --><defs><style>.fa-secondary{opacity:.4}</style></defs><path class="fa-secondary" d="M0 160L40 512l432 0 40-352L0 160zM72 344c0-75.1 82.4-136 184-136s184 60.9 184 136s-82.4 136-184 136S72 419.1 72 344z"/><path class="fa-primary" d="M32 0L56 0 456 0l24 0 0 48-24 0L56 48 32 48 32 0zM16 80l24 0 432 0 24 0 0 48-24 0L40 128l-24 0 0-48zM440 344c0 75.1-82.4 136-184 136S72 419.1 72 344s82.4-136 184-136s184 60.9 184 136zm-152 8c0-13.3-14.3-24-32-24s-32 10.7-32 24s14.3 24 32 24s32-10.7 32-24z"/></svg>