<svg xmlns="http://www.w3.org/2000/svg" viewBox="0 0 640 512"><!--! Font Awesome Pro 6.6.0 by @fontawesome - https://fontawesome.com License - https://fontawesome.com/license (Commercial License) Copyright 2024 Fonticons, Inc. --><defs><style>.fa-secondary{opacity:.4}</style></defs><path class="fa-secondary" d="M96 32l0 19.8L153 96l391 0 0-64L96 32zm0 139.6L96 224l66.5 0L96 171.6zM96 288l0 64 228.9 0-81.2-64L96 288zm0 128l0 64 391.4 0-81.2-64L96 416zM235.4 160l82.4 64L544 224l0-64-308.6 0zM400.3 288l82.4 64 61.3 0 0-64-143.7 0z"/><path class="fa-primary" d="M29.4 .1l19 14.7L620.9 459.3l19 14.7-29.4 37.9-19-14.7L18.9 52.7 0 38 29.4 .1z"/></svg>