<svg xmlns="http://www.w3.org/2000/svg" viewBox="0 0 640 512"><!--! Font Awesome Pro 6.6.0 by @fontawesome - https://fontawesome.com License - https://fontawesome.com/license (Commercial License) Copyright 2024 Fonticons, Inc. --><defs><style>.fa-secondary{opacity:.4}</style></defs><path class="fa-secondary" d="M46.7 512l2.1-3.7L128.9 368l47.1 0c2.8 0 5.6-.1 8.4-.3L101.9 512l-55.3 0zm80 0l2.2-3.8L212.4 362c10.2-3.5 19.7-8.4 28.4-14.6c4.3-3.1 8.4-6.4 12.2-10.1c1.9-1.8 3.8-3.7 5.6-5.6c.9-1 1.8-2 2.6-3s1.7-2 2.5-3.1c3.3 7.7 7.5 14.8 12.6 21.3L181.9 512l-55.3 0zm79.8 0l2.2-3.9 78.2-136.9 .3-.4 4.7-7.9c12.5 10.1 27.6 17 44.1 19.8l-7.5 12.6L261.7 512l-55.3 0zM390.2 376.1c15.1-6.6 28.2-16.9 38.1-29.8L473 391l3.6 3.6 1.8 4.8L521.1 512l-51.3 0-34.4-90.7-45.2-45.2zm44.1-38.7c4.3-7.2 7.7-15 10.1-23.2c1.2-4.1 2.1-8.4 2.7-12.7c.3-2.2 .5-4.4 .7-6.6c.1-1.1 .1-2.2 .2-3.3s.1-2.2 .1-3.4l5.9 4.3 112 80 6.5 4.7 2.4 7.7 40 127.2-50.3 0-33-105.1-97.2-69.4z"/><path class="fa-primary" d="M512 0L498.4 0l-7 11.7L458.6 66.4C415.9 76.1 384 114.3 384 160c0 14.8 3.3 28.8 9.3 41.3c-12.5-6-26.5-9.3-41.3-9.3c-27 0-51.4 11.1-68.8 29.1C268 167.6 218.9 128 160.7 128C72 128 0 200 0 288.7L0 368l176 0c35.5 0 67.2-16.5 87.7-42.3C278.3 360 312.4 384 352 384c53 0 96-43 96-96c0-14.8-3.3-28.8-9.3-41.3c12.5 6 26.5 9.3 41.3 9.3l128 0 0-64c0-59.2-40.1-108.9-94.6-123.6L525.6 48 584 48l24 0 0-48L584 0 512 0zm0 136a24 24 0 1 1 0 48 24 24 0 1 1 0-48z"/></svg>