<svg xmlns="http://www.w3.org/2000/svg" viewBox="0 0 512 512"><!--! Font Awesome Pro 6.6.0 by @fontawesome - https://fontawesome.com License - https://fontawesome.com/license (Commercial License) Copyright 2024 Fonticons, Inc. --><defs><style>.fa-secondary{opacity:.4}</style></defs><path class="fa-secondary" d="M0 32l32 0 64 0 0 64L64 96l0 352 384 0 0-352-32 0 0-64 64 0 32 0 0 32 0 416 0 32-32 0L32 512 0 512l0-32L0 64 0 32z"/><path class="fa-primary" d="M256 2.7l22.6 22.6 96 96L397.3 144 352 189.3l-22.6-22.6L288 125.3 288 320l0 32-64 0 0-32 0-194.7-41.4 41.4L160 189.3 114.7 144l22.6-22.6 96-96L256 2.7z"/></svg>