<svg xmlns="http://www.w3.org/2000/svg" viewBox="0 0 512 512"><!--! Font Awesome Pro 6.6.0 by @fontawesome - https://fontawesome.com License - https://fontawesome.com/license (Commercial License) Copyright 2024 Fonticons, Inc. --><defs><style>.fa-secondary{opacity:.4}</style></defs><path class="fa-secondary" d="M0 320l0 32L0 480l0 32 32 0 128 0 32 0 0-64-32 0-50.7 0L214.6 342.6 237.3 320 192 274.7l-22.6 22.6L64 402.7 64 352l0-32L0 320z"/><path class="fa-primary" d="M320 0l32 0L480 0l32 0 0 32 0 128 0 32-64 0 0-32 0-50.7L342.6 214.6 320 237.3 274.7 192l22.6-22.6L402.7 64 352 64l-32 0 0-64z"/></svg>