<svg xmlns="http://www.w3.org/2000/svg" viewBox="0 0 576 512"><!--! Font Awesome Pro 6.6.0 by @fontawesome - https://fontawesome.com License - https://fontawesome.com/license (Commercial License) Copyright 2024 Fonticons, Inc. --><defs><style>.fa-secondary{opacity:.4}</style></defs><path class="fa-secondary" d="M288 32l0 64 32 0 224 0 32 0 0-64-32 0L320 32l-32 0zm0 128l0 64 32 0 160 0 32 0 0-64-32 0-160 0-32 0zm0 128l0 64 32 0 96 0 32 0 0-64-32 0-96 0-32 0zm0 128l0 64 32 0 32 0 32 0 0-64-32 0-32 0-32 0z"/><path class="fa-primary" d="M128 479.6l23.7-26 80-88 21.5-23.7-47.4-43.1-21.5 23.7L160 349.2 160 64l0-32L96 32l0 32 0 285.2L71.7 322.5 50.2 298.8 2.8 341.8l21.5 23.7 80 88 23.7 26z"/></svg>