<svg xmlns="http://www.w3.org/2000/svg" viewBox="0 0 448 512"><!--! Font Awesome Pro 6.6.0 by @fontawesome - https://fontawesome.com License - https://fontawesome.com/license (Commercial License) Copyright 2024 Fonticons, Inc. --><defs><style>.fa-secondary{opacity:.4}</style></defs><path class="fa-secondary" d="M0 34.7l0 64 64 0 0-64-64 0zm96 0l0 64 64 0 0-64-64 0zm96 0l0 64 64 0 0-64-64 0zm96 0l0 64 64 0 0-64-64 0zm96 0l0 64 64 0 0-64-64 0z"/><path class="fa-primary" d="M224 480l22.6-22.6 128-128 22.6-22.6L352 261.5l-22.6 22.6L256 357.5l0-162.7 0-32-64 0 0 32 0 162.7-73.4-73.4L96 261.5 50.7 306.7l22.6 22.6 128 128L224 480z"/></svg>