<svg xmlns="http://www.w3.org/2000/svg" viewBox="0 0 512 512"><!--! Font Awesome Pro 6.6.0 by @fontawesome - https://fontawesome.com License - https://fontawesome.com/license (Commercial License) Copyright 2024 Fonticons, Inc. --><defs><style>.fa-secondary{opacity:.4}</style></defs><path class="fa-secondary" d="M2.7 464L48 509.3l22.6-22.6L160 397.3l0 34.7 0 32 64 0 0-32 0-112 0-32-32 0L80 288l-32 0 0 64 32 0 34.7 0L25.4 441.4 2.7 464zM288 48l0 32 0 112 0 32 32 0 112 0 32 0 0-64-32 0-34.7 0 89.4-89.4L509.3 48 464 2.7 441.4 25.4 352 114.7 352 80l0-32-64 0z"/><path class="fa-primary" d="M48 2.7L70.6 25.4 160 114.7 160 80l0-32 64 0 0 32 0 112 0 32-32 0L80 224l-32 0 0-64 32 0 34.7 0L25.4 70.6 2.7 48 48 2.7zM288 288l32 0 112 0 32 0 0 64-32 0-34.7 0 89.4 89.4L509.3 464 464 509.3l-22.6-22.6L352 397.3l0 34.7 0 32-64 0 0-32 0-112 0-32z"/></svg>