<svg xmlns="http://www.w3.org/2000/svg" viewBox="0 0 576 512"><!--! Font Awesome Pro 6.6.0 by @fontawesome - https://fontawesome.com License - https://fontawesome.com/license (Commercial License) Copyright 2024 Fonticons, Inc. --><defs><style>.fa-secondary{opacity:.4}</style></defs><path class="fa-secondary" d="M292.8 480l70.4 0 14.7-32 76.3 0 14.7 32 70.4 0-6.1-13.3-88-192L436.5 256l-41.1 0-8.6 18.7-88 192L292.8 480zM320 32l0 64 32 0 52 0-73 63.9L320 169.5l0 14.5 0 8 0 32 32 0 128 0 32 0 0-64-32 0-52 0 73-63.9L512 86.5 512 72l0-8 0-32-32 0L352 32l-32 0zm79.9 368L416 364.8 432.1 400l-32.3 0z"/><path class="fa-primary" d="M160 32.6l23.6 25.7 88 96L293.2 178 246 221.2l-21.6-23.6L192 162.3 192 448l0 32-64 0 0-32 0-285.7L95.6 197.6 74 221.2 26.8 178l21.6-23.6 88-96L160 32.6z"/></svg>