<svg xmlns="http://www.w3.org/2000/svg" viewBox="0 0 448 512"><!--! Font Awesome Pro 6.6.0 by @fontawesome - https://fontawesome.com License - https://fontawesome.com/license (Commercial License) Copyright 2024 Fonticons, Inc. --><defs><style>.fa-secondary{opacity:.4}</style></defs><path class="fa-secondary" d="M0 320l0 32L0 480l0 32 32 0 384 0 32 0 0-32 0-128 0-32-64 0 0 32 0 96L64 448l0-96 0-32L0 320z"/><path class="fa-primary" d="M224 2.7l22.6 22.6 128 128L397.3 176 352 221.3l-22.6-22.6L256 125.3 256 320l0 32-64 0 0-32 0-194.7-73.4 73.4L96 221.3 50.7 176l22.6-22.6 128-128L224 2.7z"/></svg>