<svg xmlns="http://www.w3.org/2000/svg" viewBox="0 0 512 512"><!--! Font Awesome Pro 6.6.0 by @fontawesome - https://fontawesome.com License - https://fontawesome.com/license (Commercial License) Copyright 2024 Fonticons, Inc. --><defs><style>.fa-secondary{opacity:.4}</style></defs><path class="fa-secondary" d="M256.1 223.9c0 21.3 0 42.7 0 64l130.6 0-41.4 41.4-22.6 22.6 45.3 45.3 22.6-22.6 96-96 22.6-22.6-22.6-22.6-96-96-22.6-22.6-45.3 45.3 22.6 22.6 41.4 41.4-130.6 0z"/><path class="fa-primary" d="M25.4 233.3L2.8 255.9l22.6 22.6 96 96 22.6 22.6 45.3-45.3-22.6-22.6-41.4-41.4 130.7 0 0-64-130.7 0 41.4-41.4 22.6-22.6-45.3-45.3-22.6 22.6-96 96z"/></svg>