<svg xmlns="http://www.w3.org/2000/svg" viewBox="0 0 448 512"><!--! Font Awesome Pro 6.6.0 by @fontawesome - https://fontawesome.com License - https://fontawesome.com/license (Commercial License) Copyright 2024 Fonticons, Inc. --><defs><style>.fa-secondary{opacity:.4}</style></defs><path class="fa-secondary" d="M0 352l0 32 0 96 0 32 64 0 0-32 0-64 178.7 0-25.4 25.4L194.7 464 240 509.3l22.6-22.6 80-80L365.3 384l-22.6-22.6-80-80L240 258.7 194.7 304l22.6 22.6L242.7 352 32 352 0 352z"/><path class="fa-primary" d="M320 2.7l22.6 22.6 80 80L445.3 128l-22.6 22.6-80 80L320 253.3 274.7 208l22.6-22.6L322.7 160 64 160l0 96 0 32L0 288l0-32L0 128 0 96l32 0 290.7 0L297.4 70.6 274.7 48 320 2.7z"/></svg>