<svg xmlns="http://www.w3.org/2000/svg" viewBox="0 0 512 512"><!--! Font Awesome Pro 6.6.0 by @fontawesome - https://fontawesome.com License - https://fontawesome.com/license (Commercial License) Copyright 2024 Fonticons, Inc. --><defs><style>.fa-secondary{opacity:.4}</style></defs><path class="fa-secondary" d="M0 256C0 397.4 114.6 512 256 512s256-114.6 256-256l-64 0c0 106-86 192-192 192S64 362 64 256L0 256z"/><path class="fa-primary" d="M413.3 208l-22.6 22.6-112 112L256 365.3l-22.6-22.6-112-112L98.7 208 144 162.7l22.6 22.6L224 242.7 224 32l0-32 64 0 0 32 0 210.7 57.4-57.4L368 162.7 413.3 208z"/></svg>