<svg xmlns="http://www.w3.org/2000/svg" viewBox="0 0 512 512"><!--! Font Awesome Pro 6.6.0 by @fontawesome - https://fontawesome.com License - https://fontawesome.com/license (Commercial License) Copyright 2024 Fonticons, Inc. --><defs><style>.fa-secondary{opacity:.4}</style></defs><path class="fa-secondary" d="M32 32l0 32 0 128 0 32 64 0 0-32 0-50.7L210.7 256 256 210.7 141.3 96 192 96l32 0 0-64-32 0L64 32 32 32zM256 301.3L370.7 416 320 416l-32 0 0 64 32 0 128 0 32 0 0-32 0-128 0-32-64 0 0 32 0 50.7L301.3 256 256 301.3z"/><path class="fa-primary" d="M288 32l32 0 128 0 32 0 0 32 0 128 0 32-64 0 0-32 0-50.7L141.3 416l50.7 0 32 0 0 64-32 0L64 480l-32 0 0-32 0-128 0-32 64 0 0 32 0 50.7L370.7 96 320 96l-32 0 0-64z"/></svg>