<svg xmlns="http://www.w3.org/2000/svg" viewBox="0 0 512 512"><!--! Font Awesome Pro 6.6.0 by @fontawesome - https://fontawesome.com License - https://fontawesome.com/license (Commercial License) Copyright 2024 Fonticons, Inc. --><defs><style>.fa-secondary{opacity:.4}</style></defs><path class="fa-secondary" d="M0 192C0 320 88 384 88 384s33.2-106.3 136-125.2l0-133.7C121.2 106.3 88 0 88 0S0 64 0 192zm288-66.8l0 133.7C390.8 277.7 424 384 424 384s73.7-53.6 86.2-160.9L448 192l62.2-31.1C497.7 53.6 424 0 424 0s-33.2 106.3-136 125.2z"/><path class="fa-primary" d="M288 64l0-32-64 0 0 32 0 416 0 32 64 0 0-32 0-416z"/></svg>