<svg xmlns="http://www.w3.org/2000/svg" viewBox="0 0 512 512"><!--! Font Awesome Pro 6.6.0 by @fontawesome - https://fontawesome.com License - https://fontawesome.com/license (Commercial License) Copyright 2024 Fonticons, Inc. --><defs><style>.fa-secondary{opacity:.4}</style></defs><path class="fa-secondary" d="M.1 250.4C15.5 254.1 31.5 256 48 256c11.8 0 23.4-1 34.6-2.9c-1.8-10.5-3.5-21-5.3-31.6C67.8 223.2 58 224 48 224c-15.6 0-30.8-2-45.2-5.9C19.2 107.1 107.1 19.2 218.1 2.8C222 17.2 224 32.4 224 48c0 10-.8 19.8-2.4 29.4c10.5 1.8 21 3.5 31.6 5.3C255 71.4 256 59.8 256 48c0-16.5-1.9-32.5-5.6-47.9c1.8 0 3.7-.1 5.5-.1C397.4 0 512 114.6 512 256c0 1.9 0 3.7-.1 5.6c-15.4-3.6-31.4-5.6-47.9-5.6c-11.8 0-23.4 1-34.6 2.9c1.8 10.5 3.5 21 5.3 31.6c9.5-1.6 19.3-2.4 29.4-2.4c15.6 0 30.8 2 45.2 5.9C492.8 404.9 404.9 492.8 293.9 509.2c-1.9-7.2-3.4-14.6-4.4-22.3c-.2-1.9-.4-3.7-.7-5.7c-.2-1.7-.3-3.5-.4-5.1l0-.7c-.1-1.7-.2-3.4-.3-5.2l0-.5c-.1-1.9-.1-3.6-.1-5.4c0-.1 0-.3 0-.4c0-.2 0-.5 0-.7c0-1 0-1.9 0-2.9c0-.1 0-.4 0-.8c0-.9 0-1.8 .1-2.7c.1-2.5 .3-5.1 .5-7.8c.4-4.9 1-9.8 1.8-14.6l-31.6-5.3c-.9 5.7-1.7 11.4-2.1 17.1l0 .6c-.1 1.2-.2 2.3-.2 3.4c0 .3 0 .5 0 .8c-.1 1.2-.1 2.3-.2 3.4c0 .4 0 .7 0 1.1c0 1.2-.1 2.4-.1 3.3c0 .2 0 .5 0 .7c0 1.3 0 2.4 0 3.6c0 .2 0 .5 0 .7c0 6.2 .3 12.3 .8 18.4c.2 1.9 .4 3.9 .6 5.8c.9 8 2.3 16 4.2 23.7c-1.8 0-3.7 .1-5.6 .1C114.6 512 0 397.4 0 256c0-1.9 0-3.7 .1-5.6zm109.8-37.6l11.3 30c57.3-21.5 102.6-67.6 123-125.4c-10.1-3.6-20.1-7.1-30.2-10.7c-17.3 48.9-55.6 87.9-104.1 106.1zm158 181.9L298 405.3c17.3-48.9 55.6-87.9 104.1-106.1c-3.7-10-7.5-20-11.3-30c-57.3 21.5-102.6 67.6-123 125.4z"/><path class="fa-primary" d="M48 224c10 0 19.8-.8 29.4-2.4l5.3 31.6C71.4 255 59.8 256 48 256c-16.5 0-32.6-1.9-47.9-5.6c.2-11 1.2-21.7 2.7-32.3C17.2 222 32.4 224 48 224zM250.5 .1C254.1 15.4 256 31.5 256 48c0 11.8-1 23.4-2.9 34.6l-31.6-5.3C223.2 67.8 224 58 224 48c0-15.6-2-30.8-5.9-45.2c10.6-1.6 21.4-2.5 32.3-2.7zM511.9 261.6c-.2 11-1.2 21.7-2.7 32.3C494.8 290 479.6 288 464 288c-10 0-19.8 .8-29.4 2.4l-5.3-31.6c11.3-1.9 22.9-2.9 34.6-2.9c16.5 0 32.6 1.9 47.9 5.6zM293.9 509.2c-10.6 1.6-21.4 2.5-32.3 2.7c-3.6-15.4-5.6-31.4-5.6-47.9c0-11.8 1-23.4 2.9-34.6l31.6 5.3c-1.6 9.5-2.4 19.3-2.4 29.4c0 15.6 2 30.8 5.9 45.2zm-184-296.4c48.5-18.2 86.8-57.2 104.1-106.1l30.2 10.7c-20.4 57.8-65.7 103.9-123 125.4l-11.3-30zm292.2 86.4c-48.5 18.2-86.8 57.2-104.1 106.1l-30.2-10.7c20.4-57.8 65.7-103.9 123-125.4l11.3 30z"/></svg>