<svg xmlns="http://www.w3.org/2000/svg" viewBox="0 0 576 512"><!--! Font Awesome Pro 6.6.0 by @fontawesome - https://fontawesome.com License - https://fontawesome.com/license (Commercial License) Copyright 2024 Fonticons, Inc. --><defs><style>.fa-secondary{opacity:.4}</style></defs><path class="fa-secondary" d="M196.1 159.7c8.2 3.9 16.3 7.8 24.5 11.7c6.4 3.1 13.5 4.7 20.6 4.7l93.5 0c7.1 0 14.2-1.6 20.6-4.7l24.5-11.7L352 48 320 80l-64 0L224 48 196.1 159.7z"/><path class="fa-primary" d="M334.8 176H241.2c-7.1 0-14.2-1.6-20.6-4.7L96 112C34.1 184.3 0 276.3 0 371.5V400l96-48 48 80 64-64 80 112 80-112 64 64 48-80 96 48V371.5c0-95.2-34.1-187.2-96-259.5L355.4 171.3c-6.4 3.1-13.5 4.7-20.6 4.7z"/></svg>