<svg xmlns="http://www.w3.org/2000/svg" viewBox="0 0 640 512"><!--! Font Awesome Pro 6.6.0 by @fontawesome - https://fontawesome.com License - https://fontawesome.com/license (Commercial License) Copyright 2024 Fonticons, Inc. --><defs><style>.fa-secondary{opacity:.4}</style></defs><path class="fa-secondary" d="M256 208A80 80 0 1 1 96 208a80 80 0 1 1 160 0zm32-80l32 0 224 0c53 0 96 43 96 96l0 64 0 32-32 0-288 0-32 0 0-32 0-128 0-32z"/><path class="fa-primary" d="M64 32l0 32 0 256 544 0 32 0 0 32 0 96 0 32-64 0 0-32 0-32L64 416l0 32 0 32L0 480l0-32 0-64 0-64L0 64 0 32l64 0z"/></svg>