<svg xmlns="http://www.w3.org/2000/svg" viewBox="0 0 512 512"><!--! Font Awesome Pro 6.6.0 by @fontawesome - https://fontawesome.com License - https://fontawesome.com/license (Commercial License) Copyright 2024 Fonticons, Inc. --><defs><style>.fa-secondary{opacity:.4}</style></defs><path class="fa-secondary" d="M96 32l0 64 96 0 0-64L96 32zM224 96l0 160 64 0 0-160-64 0zm96-64l0 64 96 0 0-64-96 0z"/><path class="fa-primary" d="M192 480l0-224 32 0 0-160-32 0L64 96 48 256 0 336 0 480l192 0zm128 0l192 0 0-144-48-80L448 96 320 96l-32 0 0 160 32 0 0 224z"/></svg>