<svg xmlns="http://www.w3.org/2000/svg" viewBox="0 0 512 512"><!--! Font Awesome Pro 6.6.0 by @fontawesome - https://fontawesome.com License - https://fontawesome.com/license (Commercial License) Copyright 2024 Fonticons, Inc. --><defs><style>.fa-secondary{opacity:.4}</style></defs><path class="fa-secondary" d="M0 224L0 384l512 0 0-160-106.7 0L384 288l64 0 0 32-74.7 0-238.2 0L64 320l0-32 64 0c-4.7-21.3-9.5-42.7-14.2-64L0 224z"/><path class="fa-primary" d="M64 0L208 0c40 0 52 24 64 48s24 48 64 48l112 0L373.3 320l-238.2 0L64 0zM512 384l0 128L0 512 0 384l512 0z"/></svg>