<svg xmlns="http://www.w3.org/2000/svg" viewBox="0 0 640 512"><!--! Font Awesome Pro 6.6.0 by @fontawesome - https://fontawesome.com License - https://fontawesome.com/license (Commercial License) Copyright 2024 Fonticons, Inc. --><defs><style>.fa-secondary{opacity:.4}</style></defs><path class="fa-secondary" d="M0 304c0 34.2 21.4 63.4 51.6 74.8C49.3 385.4 48 392.6 48 400c0 35.3 28.7 64 64 64c5.6 0 11.1-.7 16.3-2.1c2.9 28.2 26.8 50.1 55.7 50.1l56 0 0-56 0-400 0-56L184 0c-28.9 0-52.7 21.9-55.7 49.9C100.6 56.9 80 82.1 80 112c0 6 .8 11.9 2.4 17.4C53.6 135.7 32 161.3 32 192c0 15 5.1 28.8 13.8 39.7C18.7 244.5 0 272.1 0 304zM272 0l0 56 0 400 0 56 56 0c5.7 0 11.2-.8 16.3-2.4C325.1 490 304 458.7 304 416c0-79.5 64.5-144 144-144l32 0 0-32c-4.3-3.2-8.9-6-13.8-8.3C474.9 220.8 480 207 480 192c0-30.7-21.6-56.3-50.4-62.6c1.6-5.5 2.4-11.4 2.4-17.4c0-29.9-20.6-55.1-48.3-62.1C380.6 21.9 356.9 0 328 0L272 0z"/><path class="fa-primary" d="M640 352L528 240l-16 0 0 64-64 0c-61.9 0-112 50.1-112 112c0 64 64 96 64 96l0-48c0-35.3 28.7-64 64-64l48 0 0 64 16 0L640 352z"/></svg>