<svg xmlns="http://www.w3.org/2000/svg" viewBox="0 0 512 512"><!--! Font Awesome Pro 6.6.0 by @fontawesome - https://fontawesome.com License - https://fontawesome.com/license (Commercial License) Copyright 2024 Fonticons, Inc. --><defs><style>.fa-secondary{opacity:.4}</style></defs><path class="fa-secondary" d="M0 224l0 64 32 0 48 0 32 0 0-64-32 0-48 0L0 224zM50.7 96l22.6 22.6 32 32L128 173.3 173.3 128l-22.6-22.6-32-32L96 50.7 50.7 96zm0 320L96 461.3l22.6-22.6 32-32L173.3 384 128 338.7l-22.6 22.6-32 32L50.7 416zM224 0l0 32 0 48 0 32 64 0 0-32 0-48 0-32L224 0zm0 400l0 32 0 48 0 32 64 0 0-32 0-48 0-32-64 0zM338.7 128L384 173.3l22.6-22.6 32-32L461.3 96 416 50.7 393.4 73.4l-32 32L338.7 128zm0 256l22.6 22.6 32 32L416 461.3 461.3 416l-22.6-22.6-32-32L384 338.7 338.7 384zM400 224l0 64 32 0 48 0 32 0 0-64-32 0-48 0-32 0z"/><path class="fa-primary" d="M160 256a96 96 0 1 1 192 0 96 96 0 1 1 -192 0z"/></svg>