<svg xmlns="http://www.w3.org/2000/svg" viewBox="0 0 512 512"><!--! Font Awesome Pro 6.6.0 by @fontawesome - https://fontawesome.com License - https://fontawesome.com/license (Commercial License) Copyright 2024 Fonticons, Inc. --><defs><style>.fa-secondary{opacity:.4}</style></defs><path class="fa-secondary" d="M0 256C0 397.4 114.6 512 256 512s256-114.6 256-256c0-29.6-5-58-14.3-84.5l-43.1 43.1-9.3 9.3c1.8 10.4 2.7 21.1 2.7 32.1c0 106-86 192-192 192S64 362 64 256S150 64 256 64c10.9 0 21.6 .9 32.1 2.7l9.3-9.3 43.1-43.1C314 5 285.6 0 256 0C114.6 0 0 114.6 0 256zm112 0c0 79.5 64.5 144 144 144s144-64.5 144-144c0-13.1-1.7-25.7-5-37.7l-28.6-4.8-31.2 31.2c.5 3.7 .8 7.5 .8 11.3c0 44.2-35.8 80-80 80s-80-35.8-80-80s35.8-80 80-80c3.8 0 7.6 .3 11.3 .8l31.2-31.2L293.7 117c-12-3.3-24.7-5-37.7-5c-79.5 0-144 64.5-144 144z"/><path class="fa-primary" d="M331.2 146.9L320 80 400 0l32 80 80 32-80 80-66.9-11.2L265 281 231 247 331.2 146.9z"/></svg>