<svg xmlns="http://www.w3.org/2000/svg" viewBox="0 0 512 512"><!--! Font Awesome Pro 6.6.0 by @fontawesome - https://fontawesome.com License - https://fontawesome.com/license (Commercial License) Copyright 2024 Fonticons, Inc. --><defs><style>.fa-secondary{opacity:.4}</style></defs><path class="fa-secondary" d="M0 0L51.8 86.8l42.4 71 24.7 41.4L75.3 220l-19.7 9.4L0 256l55.6 26.6 63.2 30.2-23.3 66L75 437l58.1-20.5 66-23.3 30.2 63.2L256 512l26.6-55.6 30.2-63.2 66 23.3L437 437l-20.5-58.2-23.3-66 63.2-30.2L512 256l-55.6-26.6-63.2-30.2 23.3-66L437 75 378.9 95.5l-66 23.3L282.6 55.6 256 0 229.4 55.6 220 75.3l-20.8 43.5L157.8 94.1l-71-42.4L0 0zM111.3 256c9.4-4.5 18.8-9 28.3-13.5c15.8-7.6 31.7-15.1 47.5-22.7c-9-15.1-18-30.1-27-45.2c-7.2-12-14.3-24-21.5-36c12 7.2 24 14.3 36 21.5c15.1 9 30.1 18 45.2 27c7.6-15.8 15.1-31.6 22.7-47.5c4.5-9.4 9-18.8 13.5-28.3c4.5 9.4 9 18.8 13.5 28.3c6.2 13 12.4 25.9 18.6 38.9c13.6-4.8 27.1-9.6 40.7-14.4c9.9-3.5 19.7-7 29.5-10.4c-3.5 9.9-7 19.7-10.4 29.5c-4.8 13.6-9.6 27.1-14.4 40.7c13 6.2 25.9 12.4 38.9 18.6c9.4 4.5 18.8 9 28.3 13.5c-9.4 4.5-18.8 9-28.3 13.5c-13 6.2-25.9 12.4-38.9 18.6c4.8 13.6 9.6 27.1 14.4 40.7c3.5 9.9 7 19.7 10.4 29.5c-9.9-3.5-19.7-7-29.5-10.4c-13.6-4.8-27.1-9.6-40.7-14.4c-6.2 13-12.4 25.9-18.6 38.9c-4.5 9.4-9 18.8-13.5 28.3l-13.5-28.3-18.6-38.9c-13.6 4.8-27.1 9.6-40.7 14.4c-9.8 3.5-19.7 7-29.5 10.4c3.5-9.9 7-19.7 10.4-29.5c4.8-13.6 9.6-27.1 14.4-40.7l-38.9-18.6c-9.4-4.5-18.8-9-28.3-13.5z"/><path class="fa-primary" d="M328.8 164.1l29.5-10.4-10.4 29.5-14.4 40.7 38.9 18.6L400.7 256l-28.3 13.5-38.9 18.6 14.4 40.7 10.4 29.5-29.5-10.4-40.7-14.4-18.6 38.9L256 400.7l-13.5-28.3-18.6-38.9-40.7 14.4-29.5 10.4 10.4-29.5 14.4-40.7-38.9-18.6L111.3 256l28.3-13.5L187 219.8l-27-45.2-21.5-36 36 21.5 45.2 27 22.7-47.5L256 111.3l13.5 28.3 18.6 38.9 40.7-14.4z"/></svg>