<svg xmlns="http://www.w3.org/2000/svg" viewBox="0 0 512 512"><!--! Font Awesome Pro 6.6.0 by @fontawesome - https://fontawesome.com License - https://fontawesome.com/license (Commercial License) Copyright 2024 Fonticons, Inc. --><defs><style>.fa-secondary{opacity:.4}</style></defs><path class="fa-secondary" d="M0 96l0 48L0 272l0 48 48 0 64 0 48 0 0-96-48 0-16 0 0-80 0-48L0 96zM352 352l0 96 48 0 64 0 48 0 0-48 0-128 0-48-96 0 0 48 0 80-16 0-48 0z"/><path class="fa-primary" d="M160 96c0-53 43-96 96-96s96 43 96 96l0 416-192 0 0-416zm80 64a16 16 0 1 0 -32 0 16 16 0 1 0 32 0zm48 240a16 16 0 1 0 0-32 16 16 0 1 0 0 32z"/></svg>