<svg xmlns="http://www.w3.org/2000/svg" viewBox="0 0 576 512"><!--! Font Awesome Pro 6.6.0 by @fontawesome - https://fontawesome.com License - https://fontawesome.com/license (Commercial License) Copyright 2024 Fonticons, Inc. --><defs><style>.fa-secondary{opacity:.4}</style></defs><path class="fa-secondary" d="M0 64l0 96 448 0 0-96-96 0 0-64L288 0l0 64L160 64l0-64L96 0l0 64L0 64zM0 192L0 512l330.8 0C285.6 480.1 256 427.5 256 368c0-91.8 70.3-167.2 160-175.3l0-.7L0 192z"/><path class="fa-primary" d="M432 512a144 144 0 1 0 0-288 144 144 0 1 0 0 288zm64-128l-128 0-16 0 0-32 16 0 128 0 16 0 0 32-16 0z"/></svg>