<svg xmlns="http://www.w3.org/2000/svg" viewBox="0 0 448 512"><!--! Font Awesome Pro 6.6.0 by @fontawesome - https://fontawesome.com License - https://fontawesome.com/license (Commercial License) Copyright 2024 Fonticons, Inc. --><defs><style>.fa-secondary{opacity:.4}</style></defs><path class="fa-secondary" d="M0 192l448 0 0 320L0 512 0 192zM102.1 336l17 17 64 64 17 17 17-17L329 305l17-17L312 254.1l-17 17-95 95-47-47-17-17L102.1 336z"/><path class="fa-primary" d="M160 0L96 0l0 64L0 64 0 192l448 0 0-128-96 0 0-64L288 0l0 64L160 64l0-64zM329 305l17-17L312 254.1l-17 17-95 95-47-47-17-17L102.1 336l17 17 64 64 17 17 17-17L329 305z"/></svg>