<svg xmlns="http://www.w3.org/2000/svg" viewBox="0 0 512 512"><!--! Font Awesome Pro 6.6.0 by @fontawesome - https://fontawesome.com License - https://fontawesome.com/license (Commercial License) Copyright 2024 Fonticons, Inc. --><defs><style>.fa-secondary{opacity:.4}</style></defs><path class="fa-secondary" d="M0 0L0 24 0 136l0 24 48 0 0-24 0-88 88 0 24 0 0-48L136 0 24 0 0 0zM0 352l0 24L0 488l0 24 24 0 112 0 24 0 0-48-24 0-88 0 0-88 0-24L0 352zM352 0l0 48 24 0 88 0 0 88 0 24 48 0 0-24 0-112 0-24L488 0 376 0 352 0zm0 464l0 48 24 0 112 0 24 0 0-24 0-112 0-24-48 0 0 24 0 88-88 0-24 0z"/><path class="fa-primary" d="M192 96l-12 32-84 0 0 256 320 0 0-256-84 0L320 96 192 96zm64 96a64 64 0 1 1 0 128 64 64 0 1 1 0-128z"/></svg>