<svg xmlns="http://www.w3.org/2000/svg" viewBox="0 0 576 512"><!--! Font Awesome Pro 6.6.0 by @fontawesome - https://fontawesome.com License - https://fontawesome.com/license (Commercial License) Copyright 2024 Fonticons, Inc. --><defs><style>.fa-secondary{opacity:.4}</style></defs><path class="fa-secondary" d="M0 352l0 96 0 32 32 0 512 0 32 0 0-32 0-96L0 352zm96 48l16 0 352 0 16 0 0 32-16 0-352 0-16 0 0-32zM224 192a64 64 0 1 0 128 0 64 64 0 1 0 -128 0z"/><path class="fa-primary" d="M64 32l32 0 384 0 32 0 0 32 0 182.3 58.6 87.9 5.4 8.1 0 9.7L0 352l0-9.7 5.4-8.1L64 246.3 64 64l0-32zM288 256a64 64 0 1 0 0-128 64 64 0 1 0 0 128zM384 96l0 64 64 0 0-64-64 0z"/></svg>