<svg xmlns="http://www.w3.org/2000/svg" viewBox="0 0 640 512"><!--! Font Awesome Pro 6.6.0 by @fontawesome - https://fontawesome.com License - https://fontawesome.com/license (Commercial License) Copyright 2024 Fonticons, Inc. --><defs><style>.fa-secondary{opacity:.4}</style></defs><path class="fa-secondary" d="M288 64l352 0 0 384-352 0 0-96 0-32 0-96 0-32 0-128z"/><path class="fa-primary" d="M0 224l0 96 128 0 0-96L0 224zM0 352l0 96 128 0 0-96L0 352zm160 96l128 0 0-96-128 0 0 96zM288 320l0-96-128 0 0 96 128 0zm0-128l0-128L160 64l0 128 128 0zM33.1 192l94.9 0s0 0 0 0l0-32s0 0 0 0l0-62.9C113.6 111.3 93.8 120 72 120c-6.2 0-12.2-.7-18-2c1.3 5.8 2 11.8 2 18c0 21.8-8.7 41.6-22.9 56z"/></svg>