<svg xmlns="http://www.w3.org/2000/svg" viewBox="0 0 640 512"><!--! Font Awesome Pro 6.6.0 by @fontawesome - https://fontawesome.com License - https://fontawesome.com/license (Commercial License) Copyright 2024 Fonticons, Inc. --><defs><style>.fa-secondary{opacity:.4}</style></defs><path class="fa-secondary" d="M0 38.4L0 96C0 202.7 0 309.3 0 416l48 0 0 64 80 0 0-64 64 0 0-160 39.2 0 10.7-32L208 224l0-128 112 0 0 32 64 0 0-64 0-25.6S299 0 192 0S0 38.4 0 38.4zM104 304a24 24 0 1 1 -48 0 24 24 0 1 1 48 0zM64 96l112 0 0 128L64 224 64 96z"/><path class="fa-primary" d="M320 160l-23.1 0-7.3 21.9L254.3 288 224 288l0 160s0 0 0 0l0 64 80 0 0-64 256 0 0 64 80 0 0-64s0 0 0 0l0-160-30.3 0L574.4 181.9 567.1 160 544 160l-224 0zM542.3 288l-220.5 0 21.3-64 177.9 0 21.3 64zM280 368a24 24 0 1 1 48 0 24 24 0 1 1 -48 0zm280-24a24 24 0 1 1 0 48 24 24 0 1 1 0-48z"/></svg>