<svg xmlns="http://www.w3.org/2000/svg" viewBox="0 0 384 512"><!--! Font Awesome Pro 6.6.0 by @fontawesome - https://fontawesome.com License - https://fontawesome.com/license (Commercial License) Copyright 2024 Fonticons, Inc. --><defs><style>.fa-secondary{opacity:.4}</style></defs><path class="fa-secondary" d="M0 0L0 512l384 0L384 0 0 0zM80 264c0-28.9 21.9-52.7 50.1-55.7c-1.4-5.2-2.1-10.7-2.1-16.3c0-35.3 28.7-64 64-64s64 28.7 64 64c0 5.6-.7 11.1-2.1 16.3c28.2 2.9 50.1 26.8 50.1 55.7c0 30.9-25.1 56-56 56c-15.7 0-29.8-6.4-40-16.8l0 32.8 16 0 16 0 0 32-16 0-16 0-32 0-16 0-16 0 0-32 16 0 16 0 0-32.8c-10.2 10.4-24.3 16.8-40 16.8c-30.9 0-56-25.1-56-56z"/><path class="fa-primary" d="M253.9 208.3c1.4-5.2 2.1-10.7 2.1-16.3c0-35.3-28.7-64-64-64s-64 28.7-64 64c0 5.6 .7 11.1 2.1 16.3C101.9 211.3 80 235.1 80 264c0 30.9 25.1 56 56 56c15.7 0 29.8-6.4 40-16.8l0 32.8-16 0-16 0 0 32 16 0 16 0 32 0 16 0 16 0 0-32-16 0-16 0 0-32.8c10.2 10.4 24.3 16.8 40 16.8c30.9 0 56-25.1 56-56c0-28.9-21.9-52.7-50.1-55.7z"/></svg>