<svg xmlns="http://www.w3.org/2000/svg" viewBox="0 0 576 512"><!--! Font Awesome Pro 6.6.0 by @fontawesome - https://fontawesome.com License - https://fontawesome.com/license (Commercial License) Copyright 2024 Fonticons, Inc. --><defs><style>.fa-secondary{opacity:.4}</style></defs><path class="fa-secondary" d="M122 32l48.8 256L312 288c0-36.7 0-73.4 0-110.1c-7.7 7.7-15.4 15.4-23 23c-5.7 5.7-11.3 11.3-17 17c-11.3-11.3-22.6-22.6-33.9-33.9l17-17 64-64c5.7-5.7 11.3-11.3 17-17c5.7 5.7 11.3 11.3 17 17l64 64c5.7 5.7 11.3 11.3 17 17L400 217.9l-17-17c-7.7-7.7-15.3-15.4-23-23c0 36.7 0 73.4 0 110.1l136 0L576 32 122 32z"/><path class="fa-primary" d="M24 0L0 0 0 48l24 0 52.1 0 60.3 316.5 3.7 19.5 19.9 0 328 0 24 0 0-48-24 0-308.1 0L119.6 19.5 115.9 0 96 0 24 0zM176 512a48 48 0 1 0 0-96 48 48 0 1 0 0 96zm336-48a48 48 0 1 0 -96 0 48 48 0 1 0 96 0zM312 177.9L312 288l48 0 0-110.1 23 23 17 17L433.9 184l-17-17-64-64-17-17-17 17-64 64-17 17L272 217.9l17-17 23-23z"/></svg>