<svg xmlns="http://www.w3.org/2000/svg" viewBox="0 0 640 512"><!--! Font Awesome Pro 6.6.0 by @fontawesome - https://fontawesome.com License - https://fontawesome.com/license (Commercial License) Copyright 2024 Fonticons, Inc. --><defs><style>.fa-secondary{opacity:.4}</style></defs><path class="fa-secondary" d="M128 0l64 0 0 64 48 0 0-64 64 0 0 64 32 0 0-64 64 0 0 64 48 0 0-64 64 0 0 112 0 64 0 48-48 0-16 0-256 0-16 0-48 0 0-48 0-64L128 0z"/><path class="fa-primary" d="M0 160l64 0 0 64 512 0 0-64 64 0 0 64 0 64 0 224-256 0 0-128c0-35.3-28.7-64-64-64s-64 28.7-64 64l0 128L0 512 0 288l0-64 0-64z"/></svg>