<svg xmlns="http://www.w3.org/2000/svg" viewBox="0 0 576 512"><!--! Font Awesome Pro 6.6.0 by @fontawesome - https://fontawesome.com License - https://fontawesome.com/license (Commercial License) Copyright 2024 Fonticons, Inc. --><defs><style>.fa-secondary{opacity:.4}</style></defs><path class="fa-secondary" d="M171.8 261.9c17.4 8.7 34.8 17.4 52.2 26.1c0-23.4 0-46.9 0-70.3c-19.9 11.5-37.6 26.6-52.2 44.2zM241 209c15.7 15.7 31.4 31.4 47 47c4.2-21 8.4-42 12.6-63c-21.1 2.1-41.1 7.6-59.6 16z"/><path class="fa-primary" d="M337.1 192L320 192c-6.5 0-13 .3-19.4 1L288 256l-47-47c-5.8 2.6-11.5 5.5-17 8.7l0 70.3-52.2-26.1c-4.2 5.1-8.1 10.4-11.8 15.9l0-21.8 0-64c0-53-43-96-96-96L32 96l0 64 32 0c17.7 0 32 14.3 32 32l0 288 0 32 32 0 208 0 32 0 0-64-32 0-56 0L416 339.2 416 480l0 32 64 0 0-32 0-192 0-32 0-4c-10.2 2.6-21 4-32 4c-47.4 0-88.7-25.7-110.9-64zm194.3-16.4c8-14 12.6-30.3 12.6-47.6l0-82.7L544 0 512 32 480 64s0 0 0 0l-64 0s0 0 0 0L384 32 352 0l0 45.3 0 82.7s0 0 0 0c0 18.6 5.3 36 14.5 50.8c2.9 4.7 6.3 9.1 9.9 13.2c0 0 0 0 0 0c17.6 19.6 43.1 32 71.6 32c11.2 0 22-1.9 32-5.5c0 0 0 0 0 0c21.8-7.7 40-23.1 51.4-42.9zM400 128a16 16 0 1 1 32 0 16 16 0 1 1 -32 0zm80-16a16 16 0 1 1 0 32 16 16 0 1 1 0-32z"/></svg>