<svg xmlns="http://www.w3.org/2000/svg" viewBox="0 0 512 512"><!--! Font Awesome Pro 6.6.0 by @fontawesome - https://fontawesome.com License - https://fontawesome.com/license (Commercial License) Copyright 2024 Fonticons, Inc. --><defs><style>.fa-secondary{opacity:.4}</style></defs><path class="fa-secondary" d="M32 320l0 160 64 0 0-160-64 0zm128-96l0 256 64 0 0-256-64 0zm128 64l0 192 64 0 0-192-64 0zm128-64l0 256 64 0 0-256-64 0z"/><path class="fa-primary" d="M500 89L340 217l-19.4 15.5-19.8-14.9L192.6 136.5 52 249 12 199 172 71l19.4-15.5 19.8 14.9 108.2 81.1L460 39l40 50z"/></svg>