<svg xmlns="http://www.w3.org/2000/svg" viewBox="0 0 512 512"><!--! Font Awesome Pro 6.6.0 by @fontawesome - https://fontawesome.com License - https://fontawesome.com/license (Commercial License) Copyright 2024 Fonticons, Inc. --><defs><style>.fa-secondary{opacity:.4}</style></defs><path class="fa-secondary" d="M0 32L0 64 0 448l0 32 32 0 448 0 32 0 0-64-32 0L64 416 64 64l0-32L0 32z"/><path class="fa-primary" d="M352 64l128 0 0 128-16 16-41.4-41.4-112 112L288 301.3l-22.6-22.6L208 221.3l-65.4 65.4L97.4 241.4l88-88L208 130.7l22.6 22.6L288 210.7l89.4-89.4L336 80l16-16zm0 320l-16-16 41.4-41.4-34.7-34.7 45.3-45.3 34.7 34.7L464 240l16 16 0 128-128 0z"/></svg>