<svg xmlns="http://www.w3.org/2000/svg" viewBox="0 0 448 512"><!--! Font Awesome Pro 6.6.0 by @fontawesome - https://fontawesome.com License - https://fontawesome.com/license (Commercial License) Copyright 2024 Fonticons, Inc. --><defs><style>.fa-secondary{opacity:.4}</style></defs><path class="fa-secondary" d="M448 32L0 32 0 480l448 0 0-448zM384 96l0 320L64 416 64 96l320 0z"/><path class="fa-primary" d="M192 96l-64 0 0 64-64 0 0 64 64 0 0 64-64 0 0 64 64 0 0 64 64 0 0-64 64 0 0 64 64 0 0-64 64 0 0-64-64 0 0-64 64 0 0-64-64 0 0-64-64 0 0 64-64 0 0-64zm0 128l-64 0 0-64 64 0 0 64zm64 0l0 64 64 0 0 64-64 0 0-64-64 0 0 64-64 0 0-64 64 0 0-64 64 0zm0 0l0-64 64 0 0 64-64 0z"/></svg>