<svg xmlns="http://www.w3.org/2000/svg" viewBox="0 0 576 512"><!--! Font Awesome Pro 6.6.0 by @fontawesome - https://fontawesome.com License - https://fontawesome.com/license (Commercial License) Copyright 2024 Fonticons, Inc. --><defs><style>.fa-secondary{opacity:.4}</style></defs><path class="fa-secondary" d="M16 294.4l51.2 38.4 19.2-25.6L96 294.4 96 480l0 32 64 0 0-32 0-96 32 0 0 96 0 32 64 0 0-32 0-185.6 9.6 12.8 19.2 25.6L336 294.4l-19.2-25.6-72.1-96L235.1 160l-16 0-86.2 0-16 0-9.6 12.8-72.1 96L16 294.4zM112 64a64 64 0 1 0 128 0A64 64 0 1 0 112 64z"/><path class="fa-primary" d="M448 0l16 0 0 128 16 0 0 141.3 16-5.3 0-72 48 0 0 112-64 21.3 0 26.7 64 0 0 48-60 0 28 112-96 0 0-112-48 0 0-208 32 0 0-64 16 0 0-96-16 0 0-32 16 0 32 0z"/></svg>