<svg xmlns="http://www.w3.org/2000/svg" viewBox="0 0 512 512"><!--! Font Awesome Pro 6.6.0 by @fontawesome - https://fontawesome.com License - https://fontawesome.com/license (Commercial License) Copyright 2024 Fonticons, Inc. --><defs><style>.fa-secondary{opacity:.4}</style></defs><path class="fa-secondary" d="M0 256a256 256 0 1 0 512 0A256 256 0 1 0 0 256zm448 0A192 192 0 1 1 64 256a192 192 0 1 1 384 0zm-224 0a32 32 0 1 0 64 0 32 32 0 1 0 -64 0z"/><path class="fa-primary" d="M200 256c0-20.7 11.3-38.8 28-48.5l-52-90.1C128.2 145.1 96 196.8 96 256l104 0zm28 48.5l-52 90.1c23.5 13.6 50.9 21.4 80 21.4s56.5-7.8 80-21.4l-52-90.1c-8.2 4.8-17.8 7.5-28 7.5s-19.8-2.7-28-7.5zM312 256l104 0c0-59.2-32.2-110.9-80-138.6l-52 90.1c16.7 9.7 28 27.8 28 48.5z"/></svg>