<svg xmlns="http://www.w3.org/2000/svg" viewBox="0 0 640 512"><!--! Font Awesome Pro 6.6.0 by @fontawesome - https://fontawesome.com License - https://fontawesome.com/license (Commercial License) Copyright 2024 Fonticons, Inc. --><defs><style>.fa-secondary{opacity:.4}</style></defs><path class="fa-secondary" d="M0 256C0 397.4 114.6 512 256 512c39.5 0 77-9 110.4-25C337.6 455.7 320 413.9 320 368c0-15.7 2.1-30.9 5.9-45.4c-16.1-21-41.4-34.6-69.9-34.6c-30.4 0-57.3 15.5-73.1 38.9l-34.4-34.4c24.9-32 63.7-52.6 107.4-52.6c34.9 0 66.7 13.1 90.7 34.7c8.9-14.2 19.8-27.1 32.2-38.2C345.7 208.7 302.8 192 256 192c-57.1 0-108.4 24.9-143.5 64.5l-34-34C122.4 174.3 185.7 144 256 144c63.6 0 121.4 24.7 164.3 65.1C443.2 198.1 468.9 192 496 192c2.7 0 5.3 .1 8 .2C475.6 81.7 375.4 0 256 0C114.6 0 0 114.6 0 256zM288 368a32 32 0 1 1 -64 0 32 32 0 1 1 64 0z"/><path class="fa-primary" d="M496 512a144 144 0 1 0 0-288 144 144 0 1 0 0 288zm86.9-145.2C564.3 338.6 532.3 320 496 320s-68.3 18.6-86.9 46.8l-25.6-19.2c24.5-36 65.7-59.6 112.5-59.6s88.1 23.6 112.5 59.6l-25.6 19.2zM560 384l-25.6 19.2C525.6 391.5 511.7 384 496 384s-29.6 7.5-38.4 19.2L432 384c14.6-19.4 37.8-32 64-32s49.4 12.6 64 32zm-84 48a20 20 0 1 1 40 0 20 20 0 1 1 -40 0z"/></svg>