<svg xmlns="http://www.w3.org/2000/svg" viewBox="0 0 512 512"><!--! Font Awesome Pro 6.6.0 by @fontawesome - https://fontawesome.com License - https://fontawesome.com/license (Commercial License) Copyright 2024 Fonticons, Inc. --><defs><style>.fa-secondary{opacity:.4}</style></defs><path class="fa-secondary" d="M0 256a256 256 0 1 0 512 0A256 256 0 1 0 0 256zm144 64.3c0-22.9 10.9-44.5 29.4-58.1l21.9-16.1-7.3-7.7c-12.8-13.4-20-31.2-20-49.8l0-36.7 0-24 24 0 96 0 24 0 0 24 0 35.7c0 20.4-9.7 39.6-26.2 51.6l-18 13.2 28.6 29.9 27.7-40.1 13.7-19.7 39.5 27.3-13.7 19.7-33.3 48.1 60.9 63.6c.8 .8 1.5 1.7 2.2 2.6l-66.1 0-24.8-25.9-10.8 15.6L284.6 384 272 384l-16 0-88 0-24 0 0-24 0-39.7zm48 0l0 15.7 67.4 0 9.2-13.3-39.8-41.5-27 19.8c-6.2 4.5-9.8 11.7-9.8 19.4zM216 176l0 12.7c0 6.2 2.4 12.1 6.7 16.6l11.7 12.2 23.1-16.9c4.1-3 6.5-7.8 6.5-12.9l0-11.7-48 0z"/><path class="fa-primary" d="M192 128l-24 0 0 24 0 36.7c0 18.6 7.2 36.4 20 49.8l7.3 7.7-21.9 16.1c-18.5 13.6-29.4 35.1-29.4 58.1l0 39.7 0 24 24 0 88 0 16 0 12.6 0 7.2-10.3 10.8-15.6L327.4 384l66.1 0c-.7-.9-1.4-1.8-2.2-2.6l-60.9-63.6 33.3-48.1 13.7-19.7-39.5-27.3-13.7 19.7-27.7 40.1-28.6-29.9 18-13.2c16.4-12.1 26.2-31.2 26.2-51.6l0-35.7 0-24-24 0-96 0zm65.5 72.6l-23.1 16.9-11.7-12.2c-4.3-4.5-6.7-10.4-6.7-16.6l0-12.7 48 0 0 11.7c0 5.1-2.4 9.9-6.5 12.9zM201.8 301l27-19.8 39.8 41.5L259.4 336 192 336l0-15.7c0-7.6 3.6-14.8 9.8-19.4z"/></svg>