<svg xmlns="http://www.w3.org/2000/svg" viewBox="0 0 512 512"><!--! Font Awesome Pro 6.6.0 by @fontawesome - https://fontawesome.com License - https://fontawesome.com/license (Commercial License) Copyright 2024 Fonticons, Inc. --><defs><style>.fa-secondary{opacity:.4}</style></defs><path class="fa-secondary" d="M0 256a256 256 0 1 0 512 0A256 256 0 1 0 0 256zm112-56c0-39.8 32.2-72 72-72s72 32.2 72 72l0 24-48 0 0-24c0-13.3-10.7-24-24-24s-24 10.7-24 24l0 112c0 13.3 10.7 24 24 24s24-10.7 24-24l0-8-24 0 0-48 24 0 24 0 24 0 0 24 0 32c0 39.8-32.2 72-72 72s-72-32.2-72-72l0-112zm176-72l24 0 64 0 24 0 0 48-24 0-40 0 0 64 24 0 24 0 0 48-24 0-24 0 0 72 0 24-48 0 0-24 0-72 0-48 0-88 0-24z"/><path class="fa-primary" d="M112 200c0-39.8 32.2-72 72-72s72 32.2 72 72l0 24-48 0 0-24c0-13.3-10.7-24-24-24s-24 10.7-24 24l0 112c0 13.3 10.7 24 24 24s24-10.7 24-24l0-8-24 0 0-48 24 0 24 0 24 0 0 24 0 32c0 39.8-32.2 72-72 72s-72-32.2-72-72l0-112zm176-72l24 0 64 0 24 0 0 48-24 0-40 0 0 64 24 0 24 0 0 48-24 0-24 0 0 72 0 24-48 0 0-24 0-72 0-48 0-88 0-24z"/></svg>