<svg xmlns="http://www.w3.org/2000/svg" viewBox="0 0 512 512"><!--! Font Awesome Pro 6.6.0 by @fontawesome - https://fontawesome.com License - https://fontawesome.com/license (Commercial License) Copyright 2024 Fonticons, Inc. --><defs><style>.fa-secondary{opacity:.4}</style></defs><path class="fa-secondary" d="M0 256a256 256 0 1 0 512 0A256 256 0 1 0 0 256zM160 128l48 0 0 24 0 83.8L222.1 220l82.5-92 64.5 0-1 1.1L270.3 238.3 362 376.7l4.8 7.3-57.6 0L237.1 275.2 208 307.7l0 52.3 0 24-48 0 0-24 0-61.5L160 152l0-24z"/><path class="fa-primary" d="M304.6 128l64.5 0-1 1.1L270.3 238.3 362 376.7l4.8 7.3-57.6 0L237.1 275.2 208 307.7l0 52.3 0 24-48 0 0-24 0-61.5L160 152l0-24 48 0 0 24 0 83.8L222.1 220l82.5-92z"/></svg>