<svg xmlns="http://www.w3.org/2000/svg" viewBox="0 0 512 512"><!--! Font Awesome Pro 6.6.0 by @fontawesome - https://fontawesome.com License - https://fontawesome.com/license (Commercial License) Copyright 2024 Fonticons, Inc. --><defs><style>.fa-secondary{opacity:.4}</style></defs><path class="fa-secondary" d="M0 256a256 256 0 1 0 512 0A256 256 0 1 0 0 256zM120.6 144l59.5 0L256 247.4 331.8 144l59.5 0C354.2 194.6 317.1 245.2 280 295.9c0 26.7 0 53.4 0 80.1c0 8 0 16 0 24l-48 0c0-8 0-16 0-24c0-26.7 0-53.4 0-80.1C194.9 245.2 157.8 194.6 120.6 144z"/><path class="fa-primary" d="M120.6 144L232 295.9l0 80.1 0 24 48 0 0-24 0-80.1L391.4 144l-59.5 0L256 247.4 180.2 144l-59.5 0z"/></svg>