<svg xmlns="http://www.w3.org/2000/svg" viewBox="0 0 512 512"><!--! Font Awesome Pro 6.6.0 by @fontawesome - https://fontawesome.com License - https://fontawesome.com/license (Commercial License) Copyright 2024 Fonticons, Inc. --><defs><style>.fa-secondary{opacity:.4}</style></defs><path class="fa-secondary" d="M0 256a256 256 0 1 0 512 0A256 256 0 1 0 0 256zm144-24l24 0 176 0 24 0 0 48-24 0-176 0-24 0 0-48zm80-104l64 0 0 64-64 0 0-64zm0 192l64 0 0 64-64 0 0-64z"/><path class="fa-primary" d="M224 128l64 0 0 64-64 0 0-64zM144 232l24 0 176 0 24 0 0 48-24 0-176 0-24 0 0-48zm144 88l0 64-64 0 0-64 64 0z"/></svg>