<svg xmlns="http://www.w3.org/2000/svg" viewBox="0 0 512 512"><!--! Font Awesome Pro 6.6.0 by @fontawesome - https://fontawesome.com License - https://fontawesome.com/license (Commercial License) Copyright 2024 Fonticons, Inc. --><defs><style>.fa-secondary{opacity:.4}</style></defs><path class="fa-secondary" d="M0 256a256 256 0 1 0 512 0A256 256 0 1 0 0 256zm110.1-8c5.7-5.7 11.3-11.3 17-17c37.3-37.3 74.7-74.7 112-112l17-17 17 17c37.3 37.3 74.7 74.7 112 112c5.7 5.7 11.3 11.3 17 17c-11.3 11.3-22.6 22.6-33.9 33.9c-5.7-5.7-11.3-11.3-17-17c-23.7-23.7-47.4-47.4-71-71c0 60.7 0 121.4 0 182.1c0 8 0 16 0 24l-48 0c0-8 0-16 0-24c0-60.7 0-121.4 0-182.1c-23.7 23.7-47.4 47.4-71 71c-5.7 5.7-11.3 11.3-17 17L110.1 248z"/><path class="fa-primary" d="M256 102.1l17 17L385 231l17 17L368 281.9l-17-17-71-71L280 376l0 24-48 0 0-24 0-182.1-71 71-17 17L110.1 248l17-17L239 119l17-17z"/></svg>