<svg xmlns="http://www.w3.org/2000/svg" viewBox="0 0 512 512"><!--! Font Awesome Pro 6.6.0 by @fontawesome - https://fontawesome.com License - https://fontawesome.com/license (Commercial License) Copyright 2024 Fonticons, Inc. --><defs><style>.fa-secondary{opacity:.4}</style></defs><path class="fa-secondary" d="M0 256a256 256 0 1 0 512 0A256 256 0 1 0 0 256zM144 128l48 0 0 24 0 80 128 0 0-80 0-24 48 0 0 24 0 104 0 104 0 24-48 0 0-24 0-80-128 0 0 80 0 24-48 0 0-24 0-80 0-48 0-80 0-24z"/><path class="fa-primary" d="M368 128l0 24 0 104 0 104 0 24-48 0 0-24 0-80-128 0 0 80 0 24-48 0 0-24 0-80 0-48 0-80 0-24 48 0 0 24 0 80 128 0 0-80 0-24 48 0z"/></svg>