<svg xmlns="http://www.w3.org/2000/svg" viewBox="0 0 640 512"><!--! Font Awesome Pro 6.6.0 by @fontawesome - https://fontawesome.com License - https://fontawesome.com/license (Commercial License) Copyright 2024 Fonticons, Inc. --><defs><style>.fa-secondary{opacity:.4}</style></defs><path class="fa-secondary" d="M0 96l64 0 48 0 64 0 48 0 64 0 0-96L480 0l0 192 160 0 0 320-160 0-128 0-64 0L0 512 0 192 0 96zm64 64l0 64 64 0 0-64-64 0zm0 96l0 64 64 0 0-64-64 0zm0 96l0 64 64 0 0-64-64 0zM192 160l0 64 64 0 0-64-64 0zm0 96l0 64 64 0 0-64-64 0zm0 96l0 64 64 0 0-64-64 0zM352 64l0 64 64 0 0-64-64 0zm0 96l0 64 64 0 0-64-64 0zm0 96l0 64 64 0 0-64-64 0zm160 0l0 64 64 0 0-64-64 0zm0 96l0 64 64 0 0-64-64 0z"/><path class="fa-primary" d="M112 24l0-24L64 0l0 24 0 72 48 0 0-72zm112 0l0-24L176 0l0 24 0 72 48 0 0-72zM192 224l64 0 0-64-64 0 0 64zm384 32l-64 0 0 64 64 0 0-64zM64 416l64 0 0-64-64 0 0 64zm192-64l-64 0 0 64 64 0 0-64zm320 0l-64 0 0 64 64 0 0-64zM128 160l-64 0 0 64 64 0 0-64zm64 96l0 64 64 0 0-64-64 0zm-64 64l0-64-64 0 0 64 64 0z"/></svg>