<svg xmlns="http://www.w3.org/2000/svg" viewBox="0 0 512 512"><!--! Font Awesome Pro 6.6.0 by @fontawesome - https://fontawesome.com License - https://fontawesome.com/license (Commercial License) Copyright 2024 Fonticons, Inc. --><defs><style>.fa-secondary{opacity:.4}</style></defs><path class="fa-secondary" d="M0 160l6.1 0 67.9 0 92.1 0 67.9 0 92.1 0 67.9 0L512 160l0 320L0 480 0 160zm208 72l0 176 136-88L208 232z"/><path class="fa-primary" d="M361.9 32l-1 1-127 127 92.1 0 1-1 127-127-92.1 0zM512 160l0-118.1L393.9 160 512 160zM294.1 32l-92.1 0-1 1L73.9 160l92.1 0 1-1 127-127zM0 32L0 160l6.1 0 1-1 127-127L0 32zM344 320L208 232l0 176 136-88z"/></svg>