<svg xmlns="http://www.w3.org/2000/svg" viewBox="0 0 384 512"><!--! Font Awesome Pro 6.6.0 by @fontawesome - https://fontawesome.com License - https://fontawesome.com/license (Commercial License) Copyright 2024 Fonticons, Inc. --><defs><style>.fa-secondary{opacity:.4}</style></defs><path class="fa-secondary" d="M0 64l80 0 0 72 0 24 112 0 88 0 24 0 0-72 0-24 80 0 0 448L0 512 0 64z"/><path class="fa-primary" d="M304 64l-33.6 0C263 27.5 230.7 0 192 0s-71 27.5-78.4 64L80 64l0 96 112 0 112 0 0-96zM192 56a24 24 0 1 1 0 48 24 24 0 1 1 0-48z"/></svg>