<svg xmlns="http://www.w3.org/2000/svg" viewBox="0 0 512 512"><!--! Font Awesome Pro 6.6.0 by @fontawesome - https://fontawesome.com License - https://fontawesome.com/license (Commercial License) Copyright 2024 Fonticons, Inc. --><defs><style>.fa-secondary{opacity:.4}</style></defs><path class="fa-secondary" d="M0 256a256 256 0 1 0 512 0A256 256 0 1 0 0 256zm126.7 57.3l20-13.3 96-64L280 211.2l0 44.8 0 136 0 24-48 0 0-24 0-91.2L173.3 340l-20 13.3-26.6-39.9z"/><path class="fa-primary" d="M232 416l0-24 0-91.2L173.3 340l-20 13.3-26.6-39.9 20-13.3 96-64L280 211.2l0 44.8 0 136 0 24-48 0z"/></svg>