<svg xmlns="http://www.w3.org/2000/svg" viewBox="0 0 640 512"><!--! Font Awesome Pro 6.6.0 by @fontawesome - https://fontawesome.com License - https://fontawesome.com/license (Commercial License) Copyright 2024 Fonticons, Inc. --><defs><style>.fa-secondary{opacity:.4}</style></defs><path class="fa-secondary" d="M209.8 84.8C222.3 35 267.1 0 318.5 0L320 0c61.9 0 112 50.1 112 112l0 6.3c0 36.5-17.8 70.8-47.8 91.8l-8.3 5.8L626.3 389.7l13.7 9.5 0 16.7 0 64 0 32-32 0L32 512 0 512l0-32 0-64 0-16.7 13.7-9.5L301.6 189.8l.1-.1 45.8-32c12.8-9 20.5-23.7 20.5-39.3l0-6.3c0-26.5-21.5-48-48-48l-1.5 0c-22 0-41.2 15-46.6 36.4l-.9 3.4-7.8 31-62.1-15.5 7.8-31 .9-3.4zM320 255L64 432.7 64 448l512 0 0-15.3L320 255z"/><path class="fa-primary" d=""/></svg>