<svg xmlns="http://www.w3.org/2000/svg" viewBox="0 0 512 512"><!--! Font Awesome Pro 6.6.0 by @fontawesome - https://fontawesome.com License - https://fontawesome.com/license (Commercial License) Copyright 2024 Fonticons, Inc. --><defs><style>.fa-secondary{opacity:.4}</style></defs><path class="fa-secondary" d="M0 400a48 48 0 1 0 96 0A48 48 0 1 0 0 400zm144-16l0 32 28.1 18.7-6.6 33.1 22.6 22.6 33.1-6.6L240 512l32 0 18.7-28.1 33.1 6.6 22.6-22.6-6.6-33.1L368 416l0-32-28.1-18.7 6.6-33.1-22.6-22.6-33.1 6.6L272 288l-32 0-18.7 28.1-33.1-6.6-22.6 22.6 6.6 33.1L144 384zm272 16a48 48 0 1 0 96 0 48 48 0 1 0 -96 0z"/><path class="fa-primary" d="M0 320l96 0 36.4 0 10.5-10.5 22.6-22.6 12.1-12.1 16.8 3.4 12.1 2.4 6.9-10.3 9.5-14.2 17.1 0 32 0 17.1 0 9.5 14.2 6.9 10.3 12.1-2.4 16.8-3.4 12.1 12.1 22.6 22.6L379.6 320l36.4 0 96 0 0-96c0-53-43-96-96-96l0-16c0-44.2-35.8-80-80-80c-24.3 0-46.1 10.9-60.8 28C256.5 24.3 219.1 0 176 0C114.1 0 64 50.1 64 112l0 21.5C26.7 146.6 0 182.2 0 224l0 96z"/></svg>