<svg xmlns="http://www.w3.org/2000/svg" viewBox="0 0 512 512"><!--! Font Awesome Pro 6.6.0 by @fontawesome - https://fontawesome.com License - https://fontawesome.com/license (Commercial License) Copyright 2024 Fonticons, Inc. --><defs><style>.fa-secondary{opacity:.4}</style></defs><path class="fa-secondary" d="M0 352c0 82.5 50 150.4 114.1 159.1l21.2-63.7c-15.6-62.5-31.2-125-46.9-187.5c-.4-1.5-.8-3-1.1-4.5c.5-1.5 1-2.9 1.5-4.4c6.3-19 12.7-38 19-57C46.7 206.1 0 272.2 0 352zm120.7-95.4l46.9 187.5 1.1 4.5-1.5 4.4-19 57C209.3 497.9 256 431.8 256 352c0-82.5-50-150.4-114.1-159.1c-7.1 21.2-14.2 42.5-21.2 63.7zM243.4 46.4c-35.3 51.7-21.8 132.2 34.6 189c58.7 59 142.8 71.3 193.8 30.3c-9.4-18.8-18.8-37.7-28.3-56.5c-55.2-33.1-110.5-66.3-165.7-99.4c-1.3-.8-2.7-1.6-4-2.4c-.7-1.4-1.4-2.8-2.1-4.2c-9.5-18.9-18.9-37.9-28.4-56.8zm23.5-24.6c10.5 21 21 41.9 31.4 62.9c55.2 33.1 110.5 66.3 165.7 99.4c1.3 .8 2.7 1.6 4 2.4c.7 1.4 1.4 2.8 2.1 4.2c8.2 16.4 16.4 32.8 24.6 49.2c32.5-51.8 18.4-130-36.8-185.6c-57.6-58-139.8-70.9-191-32.5z"/><path class="fa-primary" d="M271.8 103.2L243.4 46.4c3.5-5.2 7.6-10.1 12.1-14.7c3.6-3.6 7.4-6.9 11.4-9.9l31.4 62.9 165.7 99.4 4 2.4 2.1 4.2L494.8 240c-4.1 6.5-8.8 12.5-14.3 18c-2.7 2.8-5.6 5.3-8.6 7.7l-28.3-56.5L277.9 109.8l-4-2.4-2.1-4.2zM88.8 250.9l19-57c6.6-1.3 13.3-2 20.2-2c4.7 0 9.3 .3 13.9 .9l-21.2 63.7 46.9 187.5 1.1 4.5-1.5 4.4-19 57c-6.6 1.3-13.3 2-20.2 2c-4.7 0-9.3-.3-13.9-.9l21.2-63.7L88.5 259.9l-1.1-4.5 1.5-4.4z"/></svg>