<svg xmlns="http://www.w3.org/2000/svg" viewBox="0 0 512 512"><!--! Font Awesome Pro 6.6.0 by @fontawesome - https://fontawesome.com License - https://fontawesome.com/license (Commercial License) Copyright 2024 Fonticons, Inc. --><defs><style>.fa-secondary{opacity:.4}</style></defs><path class="fa-secondary" d="M0 240c0 49.6 21.3 95.1 56.9 130.8L16 480l150.4-45.1c27.9 8.5 58.1 13.1 89.6 13.1c141.4 0 256-93.1 256-208S397.4 32 256 32S0 125.1 0 240zm182.7 72.7c4.2-12.7 8.4-25.3 12.6-38c6.3 2.1 12.7 4.2 19 6.3c2 .7 4.2 1.4 6.4 2.1c9.5 3.2 20.2 6.9 26.2 7.9c12.8 2 22.7 .7 28.8-1.9c5.5-2.3 7.4-5.3 8-8.8c.7-4 .1-5.9-.2-6.7c-.4-.9-1.3-2.2-3.7-4c-5.9-4.3-15.3-7.5-29.3-11.7c-.7-.2-1.5-.4-2.2-.7c-11.7-3.5-27-8.1-38.6-16c-6.6-4.5-13.2-10.7-17.3-19.5c-4.2-9-5.2-18.8-3.4-29c3.2-18.3 16.2-30.9 31.1-37.7c5-2.3 10.4-4 16-5.1l0-6 0-20 40 0 0 20 0 6.3c6.6 1.2 16.7 3.2 21.1 4.4l19.3 5.1-10.3 38.7-19.3-5.1c-3.8-1-17.4-3.7-21.7-4.3c-12.2-1.9-22.2-.3-28.6 2.6c-6.3 2.9-7.9 6.2-8.2 8.1c-.6 3.4 0 4.7 .1 5c.3 .5 1 1.8 3.6 3.5c6.1 4.2 15.7 7.2 29.9 11.4l.8 .2c12.1 3.7 28.3 8.5 40.4 17.4c6.7 4.9 13 11.4 16.9 20.5c2.6 6.1 3.9 12.5 3.9 19.2c0 3.4-.3 6.8-.9 10.2c-3.3 19-15.9 32-31.6 38.7c-4.9 2.1-10.1 3.6-15.4 4.6l0 5.5 0 20-40 0 0-20 0-6.4c-9.5-2.2-22-6.4-29.9-9.1c-1.7-.6-3.2-1.1-4.4-1.5l-19-6.3z"/><path class="fa-primary" d="M276 124l0 20 0 6.3c6.6 1.2 16.7 3.2 21.1 4.4l19.3 5.1-10.3 38.7-19.3-5.1c-3.8-1-17.4-3.7-21.7-4.3c-12.2-1.9-22.2-.3-28.6 2.6c-6.3 2.9-7.9 6.2-8.2 8.1c-.6 3.4 0 4.7 .1 5c.3 .5 1 1.8 3.6 3.5c6.1 4.2 15.7 7.2 29.9 11.4l.8 .2s0 0 0 0s0 0 0 0c12.1 3.7 28.3 8.5 40.4 17.4c6.7 4.9 13 11.4 16.9 20.5c4 9.1 4.8 19.1 3 29.4c-3.3 19-15.9 32-31.6 38.7c-4.9 2.1-10.1 3.6-15.4 4.6l0 5.5 0 20-40 0 0-20 0-6.4c-9.5-2.2-22-6.4-29.9-9.1c0 0 0 0 0 0c-1.7-.6-3.2-1.1-4.4-1.5l-19-6.3 12.6-38 19 6.3c2 .7 4.2 1.4 6.4 2.1c9.5 3.2 20.2 6.9 26.2 7.9c12.8 2 22.7 .7 28.8-1.9c5.5-2.3 7.4-5.3 8-8.8c.7-4 .1-5.9-.2-6.7c-.4-.9-1.3-2.2-3.7-4c-5.9-4.3-15.3-7.5-29.3-11.7l-2.2-.7c-11.7-3.5-27-8.1-38.6-16c-6.6-4.5-13.2-10.7-17.3-19.5c-4.2-9-5.2-18.8-3.4-29c3.2-18.3 16.2-30.9 31.1-37.7c5-2.3 10.4-4 16-5.1l0-6 0-20 40 0z"/></svg>