<svg xmlns="http://www.w3.org/2000/svg" viewBox="0 0 512 512"><!--! Font Awesome Pro 6.6.0 by @fontawesome - https://fontawesome.com License - https://fontawesome.com/license (Commercial License) Copyright 2024 Fonticons, Inc. --><defs><style>.fa-secondary{opacity:.4}</style></defs><path class="fa-secondary" d="M0 288l0 64 32 0 64 0 0 64 0 32 64 0 0-32 0-96 0-32-32 0-96 0L0 288zM352 64l0 32 0 96 0 32 32 0 96 0 32 0 0-64-32 0-64 0 0-64 0-32-64 0z"/><path class="fa-primary" d="M160 96l0-32L96 64l0 32 0 64-64 0L0 160l0 64 32 0 96 0 32 0 0-32 0-96zM352 416l0 32 64 0 0-32 0-64 64 0 32 0 0-64-32 0-96 0-32 0 0 32 0 96z"/></svg>