<svg xmlns="http://www.w3.org/2000/svg" viewBox="0 0 512 512"><!--! Font Awesome Pro 6.6.0 by @fontawesome - https://fontawesome.com License - https://fontawesome.com/license (Commercial License) Copyright 2024 Fonticons, Inc. --><defs><style>.fa-secondary{opacity:.4}</style></defs><path class="fa-secondary" d="M0 224l33.9 2.6c-.6 4.8-1.1 9.7-1.4 14.6c-.2 2.5-.3 4.9-.4 7.4s-.1 5-.1 7.4c0 10 .7 19.8 1.9 29.4L0 288l0-64zM52.4 97.6L97.6 52.4l22.1 25.8c-15.6 12-29.6 26-41.6 41.6L52.4 97.6zm0 316.8l25.8-22.1c12 15.6 26 29.6 41.6 41.6L97.6 459.6 52.4 414.4zM96 256c0-8.3 .6-16.5 1.9-24.5l64.1 4.9c-.7 3.2-1.1 6.4-1.5 9.6c-.2 1.6-.3 3.3-.4 4.9c0 .8-.1 1.7-.1 2.5s0 1.7 0 2.5c0 6.7 .7 13.2 2 19.5l-64.1 4.9c-1.2-8-1.9-16.2-1.9-24.5zm30.9-94.5c9.7-13.2 21.4-24.9 34.6-34.6l41.9 48.8c-11 7.2-20.4 16.6-27.6 27.6l-48.8-41.9zm0 189l48.8-41.9c7.2 11 16.6 20.4 27.6 27.6l-41.9 48.8c-13.2-9.7-24.9-21.4-34.6-34.6zM224 0l64 0-2.6 33.9c-4.8-.6-9.7-1.1-14.6-1.4c-2.5-.2-4.9-.3-7.4-.4s-5-.1-7.4-.1c-10 0-19.8 .7-29.4 1.9L224 0zm0 512l2.6-33.9c4.8 .6 9.7 1.1 14.6 1.4c2.4 .2 4.9 .3 7.4 .4s4.9 .1 7.4 .1c10 0 19.8-.7 29.4-1.9L288 512l-64 0zm7.5-414.1c8-1.2 16.2-1.9 24.5-1.9s16.5 .6 24.5 1.9L275.5 162c-3.2-.7-6.4-1.1-9.6-1.5c-1.6-.2-3.3-.3-4.9-.4c-.8 0-1.7-.1-2.5-.1s-1.7 0-2.5 0c-6.7 0-13.2 .7-19.5 2l-4.9-64.1zm0 316.3l4.9-64.1c3.2 .7 6.4 1.2 9.6 1.5c1.6 .2 3.3 .3 4.9 .4c.8 0 1.7 .1 2.5 .1s1.7 0 2.5 0c6.7 0 13.2-.7 19.5-2l4.9 64.1c-8 1.2-16.2 1.9-24.5 1.9s-16.5-.6-24.5-1.9zm77.1-238.4l41.9-48.8c13.2 9.7 24.9 21.4 34.6 34.6l-48.8 41.9c-7.2-11-16.6-20.4-27.6-27.6zm0 160.6c11-7.2 20.4-16.6 27.6-27.6l48.8 41.9c-9.7 13.2-21.4 24.9-34.6 34.6l-41.9-48.8zM350 236.5l64.1-4.9c1.2 8 1.9 16.2 1.9 24.5s-.6 16.5-1.9 24.5L350 275.5c.7-3.2 1.2-6.4 1.5-9.6c.2-1.6 .3-3.3 .4-4.9c0-.8 .1-1.7 .1-2.5s0-1.7 0-2.5c0-6.7-.7-13.2-2-19.5zM392.2 78.2l22.1-25.8 45.3 45.3-25.8 22.1c-12-15.6-26-29.6-41.6-41.6zm0 355.6c15.6-12 29.6-26 41.6-41.6l25.8 22.1-45.3 45.3-22.1-25.8zm85.8-207.2L512 224l0 64-33.9-2.6c.6-4.8 1.1-9.7 1.4-14.6c.2-2.4 .3-4.9 .4-7.4s.1-4.9 .1-7.4c0-10-.7-19.8-1.9-29.4z"/><path class="fa-primary" d="M256 96a160 160 0 1 1 0 320 160 160 0 1 1 0-320zm0 384a224 224 0 1 0 0-448 224 224 0 1 0 0 448zm96-224a96 96 0 1 0 -192 0 96 96 0 1 0 192 0zm-96-32a32 32 0 1 1 0 64 32 32 0 1 1 0-64z"/></svg>