<svg xmlns="http://www.w3.org/2000/svg" viewBox="0 0 576 512"><!--! Font Awesome Pro 6.6.0 by @fontawesome - https://fontawesome.com License - https://fontawesome.com/license (Commercial License) Copyright 2024 Fonticons, Inc. --><defs><style>.fa-secondary{opacity:.4}</style></defs><path class="fa-secondary" d="M0 256l0 64 64 0 0-64L0 256zM64 64l0 64 64 0 0-64L64 64zm0 384l0 64 64 0 0-64-64 0zM256 0l0 64 64 0 0-64L256 0zM448 64l0 64 64 0 0-64-64 0zm0 384l0 64 64 0 0-64-64 0zm64-192l0 64 64 0 0-64-64 0z"/><path class="fa-primary" d="M417.1 382.8c46.2-62.6 41-151.3-15.7-208c-62.5-62.5-163.8-62.5-226.3 0s-62.5 163.8 0 226.3c56.7 56.7 145.4 62 208 15.7L271.3 304.9l-17-17 33.9-33.9 17 17L417.1 382.8z"/></svg>