<svg xmlns="http://www.w3.org/2000/svg" viewBox="0 0 576 512"><!--! Font Awesome Pro 6.6.0 by @fontawesome - https://fontawesome.com License - https://fontawesome.com/license (Commercial License) Copyright 2024 Fonticons, Inc. --><defs><style>.fa-secondary{opacity:.4}</style></defs><path class="fa-secondary" d="M0 256l0 64 64 0 0-64L0 256zM64 64l0 64 64 0 0-64L64 64zm0 384l0 64 64 0 0-64-64 0zM256 0l0 64 64 0 0-64L256 0zM448 64l0 64 64 0 0-64-64 0zm0 384l0 64 64 0 0-64-64 0zm64-192l0 64 64 0 0-64-64 0z"/><path class="fa-primary" d="M383.2 158.5c-62.6-46.2-151.3-41-208 15.7c-62.5 62.5-62.5 163.8 0 226.3s163.8 62.5 226.3 0c56.7-56.7 61.9-145.4 15.7-208L305.2 304.3l-17 17-33.9-33.9 17-17L383.2 158.5z"/></svg>