<svg xmlns="http://www.w3.org/2000/svg" viewBox="0 0 512 512"><!--! Font Awesome Pro 6.6.0 by @fontawesome - https://fontawesome.com License - https://fontawesome.com/license (Commercial License) Copyright 2024 Fonticons, Inc. --><defs><style>.fa-secondary{opacity:.4}</style></defs><path class="fa-secondary" d="M27.8 113.2L220.9 1.8 117.3 166.9 27.8 113.2zM149.4 176L256 6.1 362.6 176l-213.2 0zM291.1 1.8L484.2 113.2l-89.5 53.7L291.1 1.8z"/><path class="fa-primary" d="M240 512L17.9 416.8 240 446l0 66zm254.1-95.2L272 512l0-66 222.1-29.2zM496 143.5l0 184.9L411.7 194 496 143.5zM16 328.4l0-184.9L100.3 194 16 328.4zM155.6 208l200.9 0L256 383.8 155.6 208zM276 413.2L388.2 216.8 493.5 384.6 276 413.2zM18.5 384.6L123.8 216.8 236 413.2 18.5 384.6z"/></svg>