<svg xmlns="http://www.w3.org/2000/svg" viewBox="0 0 384 512"><!--! Font Awesome Pro 6.6.0 by @fontawesome - https://fontawesome.com License - https://fontawesome.com/license (Commercial License) Copyright 2024 Fonticons, Inc. --><defs><style>.fa-secondary{opacity:.4}</style></defs><path class="fa-secondary" d="M0 320C0 426 86 512 192 512s192-86 192-192S192 0 192 0S0 214 0 320zm64 0l32 0 0 16c0 44.2 35.8 80 80 80l16 0 0 32-16 0c-61.9 0-112-50.1-112-112l0-16z"/><path class="fa-primary" d="M96 320l0 16c0 44.2 35.8 80 80 80l16 0 0 32-16 0c-61.9 0-112-50.1-112-112l0-16 32 0z"/></svg>