<svg xmlns="http://www.w3.org/2000/svg" viewBox="0 0 384 512"><!--! Font Awesome Pro 6.6.0 by @fontawesome - https://fontawesome.com License - https://fontawesome.com/license (Commercial License) Copyright 2024 Fonticons, Inc. --><defs><style>.fa-secondary{opacity:.4}</style></defs><path class="fa-secondary" d="M0 192L0 368c0 79.5 64.5 144 144 144s144-64.5 144-144c0-3.2-.1-6.4-.3-9.5C345.3 325.3 384 263.2 384 192C384 86 298 0 192 0S0 86 0 192zM70.2 324.9c6.1-5.1 12.3-10.2 18.4-15.4c13.1-10.9 26.2-21.9 39.4-32.8c0-2 0-4 0-5.9c-11.6-5.8-23.2-11.6-34.7-17.4c-4.4-2.2-8.8-4.4-13.3-6.6c0-4.9 0-9.9 0-14.8c0-13.3 0-26.7 0-40.1c0-1.9 0-2.4 0-2.9c0-.9 .1-1.9 .1-2.8c.1-1.9 .2-3.8 .4-5.7c.4-3.8 1-7.5 1.7-11.1c1.5-7.3 3.7-14.3 6.5-21c5.7-13.4 13.9-25.5 24-35.6C133.1 92.5 161.1 80 192 80c61.9 0 112 50.1 112 112c0 2.7 0 5.3 0 8c0 8 0 16 0 24l-48 0c0-8 0-16 0-24c0-2.7 0-5.3 0-8c0-35.3-28.7-64-64-64c-17.7 0-33.7 7.2-45.3 18.7c-5.8 5.8-10.5 12.7-13.7 20.3c-1.6 3.8-2.9 7.8-3.7 12c-.4 2.1-.8 4.2-1 6.4c-.1 1.1-.2 2.1-.2 3.2c-.1 1.1-.1 2.2-.1 3.3c0 8.4 0 16.8 0 25.2c11.6 5.8 23.2 11.6 34.7 17.4c4.4 2.2 8.8 4.4 13.3 6.6c0 4.9 0 9.9 0 14.8c0 10.7 0 21.3 0 32c0 3.7 0 7.5 0 11.2l-8.6 7.2c-16 13.3-32 26.7-48 40c-6.1 5.1-12.3 10.2-18.4 15.4L70.2 324.9z"/><path class="fa-primary" d="M192 128c-35.3 0-64 28.7-64 64l0 25.2 34.7 17.4 13.3 6.6 0 14.8 0 32 0 11.2-8.6 7.2-48 40-18.4 15.4L70.2 324.9l18.4-15.4L128 276.8l0-5.9L93.3 253.5 80 246.8 80 232l0-40c0-61.9 50.1-112 112-112s112 50.1 112 112l0 8 0 24-48 0 0-24 0-8c0-35.3-28.7-64-64-64z"/></svg>