<svg xmlns="http://www.w3.org/2000/svg" viewBox="0 0 192 512"><!--! Font Awesome Pro 6.6.0 by @fontawesome - https://fontawesome.com License - https://fontawesome.com/license (Commercial License) Copyright 2024 Fonticons, Inc. --><defs><style>.fa-secondary{opacity:.4}</style></defs><path class="fa-secondary" d="M32 192l0 48 0 32 0 48 48 0 32 0 48 0 0-48 0-32 0-48-48 0-32 0-48 0zm48 48l32 0 0 32-32 0 0-32z"/><path class="fa-primary" d="M80 80l0 32 32 0 0-32L80 80zM32 32l48 0 32 0 48 0 0 48 0 32 0 48-48 0-32 0-48 0 0-48 0-32 0-48zM80 400l0 32 32 0 0-32-32 0zM32 352l48 0 32 0 48 0 0 48 0 32 0 48-48 0-32 0-48 0 0-48 0-32 0-48z"/></svg>