<svg xmlns="http://www.w3.org/2000/svg" viewBox="0 0 640 512"><!--! Font Awesome Pro 6.6.0 by @fontawesome - https://fontawesome.com License - https://fontawesome.com/license (Commercial License) Copyright 2024 Fonticons, Inc. --><defs><style>.fa-secondary{opacity:.4}</style></defs><path class="fa-secondary" d="M0 136l0 24L0 352l0 24 48 0 0-24 0-72 48 0 0-48-48 0 0-72 0-24L0 136zM184 64l0 48 24 0 72 0 0 32 48 0 0-32 72 0 24 0 0-48-24 0L208 64l-24 0zM544 192l0 256 96 0 0-256-96 0z"/><path class="fa-primary" d="M96 144l64 0 48 0 224 0 80 64 0 240-288 0-51.2-64L96 384l0-240zm128 80l-64 0 0 64 64 0 0-64zm96 0l-64 0 0 64 64 0 0-64zm32 0l0 64 64 0 0-64-64 0z"/></svg>