<svg xmlns="http://www.w3.org/2000/svg" viewBox="0 0 512 512"><!--! Font Awesome Pro 6.6.0 by @fontawesome - https://fontawesome.com License - https://fontawesome.com/license (Commercial License) Copyright 2024 Fonticons, Inc. --><defs><style>.fa-secondary{opacity:.4}</style></defs><path class="fa-secondary" d="M0 256a256 256 0 1 0 512 0A256 256 0 1 0 0 256zm96.8 32l318.4 0c-8 80.9-76.2 144-159.2 144s-151.2-63.1-159.2-144zM120 216c0-40 28-80 56-80s56 40 56 80c0 0-28-32-56-32s-56 32-56 32zm160 0c0-40 28-80 56-80s56 40 56 80c0 0-28-32-56-32s-56 32-56 32z"/><path class="fa-primary" d="M120 216c0-40 28-80 56-80s56 40 56 80c0 0-28-32-56-32s-56 32-56 32zm160 0c0-40 28-80 56-80s56 40 56 80c0 0-28-32-56-32s-56 32-56 32z"/></svg>