<svg xmlns="http://www.w3.org/2000/svg" viewBox="0 0 640 512"><!--! Font Awesome Pro 6.6.0 by @fontawesome - https://fontawesome.com License - https://fontawesome.com/license (Commercial License) Copyright 2024 Fonticons, Inc. --><defs><style>.fa-secondary{opacity:.4}</style></defs><path class="fa-secondary" d="M64 256c0-24.8 3.5-48.8 10.1-71.5c16.2-55.9 51-103.9 97.2-136.9C213.2 17.6 264.6 0 320 0s106.8 17.6 148.7 47.6c46.2 33 81 81 97.2 136.9c6.6 22.7 10.1 46.7 10.1 71.5c0 141.4-114.6 256-256 256S64 397.4 64 256zm107.8-21.9c5.1 1.7 10.1 3.4 15.2 5.1c10.3 3.4 20.5 6.8 30.7 10.2c-2.9 2.9-5.2 6.3-6.8 10.2c-.8 1.9-1.4 3.9-1.9 6c-.2 1-.4 2.1-.5 3.2c-.1 .6-.1 1.1-.1 1.6c0 .5 0 1 0 1.3l0 .4 0 .4c0 .3 0 .8 0 1.3c0 .5 .1 1.1 .1 1.6c.1 1.1 .3 2.1 .5 3.2c.4 2.1 1.1 4.1 1.9 6c1.6 3.8 4 7.3 6.9 10.2c5.8 5.8 13.8 9.4 22.6 9.4c17.7 0 32-14.3 32-32c0-1.5-.1-3-.3-4.4c3.6 1.2 7.3 2.4 10.9 3.6l15.2 5.1c3.4-10.1 6.7-20.2 10.1-30.4c-5.1-1.7-10.1-3.4-15.2-5.1c-32-10.7-64-21.3-96-32c-5.1-1.7-10.1-3.4-15.2-5.1c-3.4 10.1-6.7 20.2-10.1 30.4zm53.6 167.1l23.8 21.4 10.7-11.9c11.7-13 31.6-26.7 60.1-26.7s48.4 13.7 60.1 26.7l10.7 11.9 23.8-21.4-10.7-11.9C387.8 371.4 359.7 352 320 352s-67.8 19.4-83.9 37.3l-10.7 11.9zM331.8 245.9l10.1 30.4 15.2-5.1 11.7-3.9c-.1 .8-.2 1.6-.3 2.3s-.1 1.5-.1 2.2c0 .2 0 .3 0 .7c0 .2 0 .6 0 1.1c0 .5 .1 1 .1 1.5c.1 1.1 .3 2.2 .5 3.3c.4 2.1 1.1 4.1 1.9 6c1.6 3.8 4 7.3 6.9 10.2c5.8 5.8 13.8 9.4 22.6 9.4c17.7 0 32-14.3 32-32c0-8.9-3.6-17-9.5-22.8c10.1-3.4 20.1-6.7 30.2-10.1l15.2-5.1c-3.4-10.1-6.7-20.2-10.1-30.4l-15.2 5.1-96 32-15.2 5.1z"/><path class="fa-primary" d="M0 0C0 80.1 55.6 160.1 74.1 184.5c16.2-55.9 51-103.9 97.2-136.9C57.1 42.8 0 0 0 0zM640 0s-57.1 42.8-171.3 47.6c46.2 33 81 81 97.2 136.9C584.4 160.1 640 80.1 640 0zM240.4 304c17.7 0 32-14.3 32-32c0-1.5-.1-3-.3-4.4l10.9 3.6 15.2 5.1 10.1-30.4-15.2-5.1-96-32-15.2-5.1-10.1 30.4 15.2 5.1 30.7 10.2c-5.8 5.8-9.3 13.8-9.3 22.6c0 17.7 14.3 32 32 32zm192-32c0-8.9-3.6-17-9.5-22.8l30.2-10.1 15.2-5.1-10.1-30.4-15.2 5.1-96 32-15.2 5.1 10.1 30.4 15.2-5.1 11.7-3.9c-.2 1.5-.3 3.1-.3 4.7c0 17.7 14.3 32 32 32s32-14.3 32-32z"/></svg>