<svg xmlns="http://www.w3.org/2000/svg" viewBox="0 0 512 512"><!--! Font Awesome Pro 6.6.0 by @fontawesome - https://fontawesome.com License - https://fontawesome.com/license (Commercial License) Copyright 2024 Fonticons, Inc. --><defs><style>.fa-secondary{opacity:.4}</style></defs><path class="fa-secondary" d="M0 256C0 397.4 114.6 512 256 512c108 0 200.4-66.9 238-161.5c-4.5 1-9.2 1.5-14 1.5l-128 0-16 0 0-32 16 0 128 0c17.7 0 32-14.3 32-32s-14.3-32-32-32l-192 0-16 0 0-32 16 0 192 0c11.2 0 21.7 2.9 30.9 7.9C498.8 101.8 389.3 0 256 0C114.6 0 0 114.6 0 256zm208.4-80a32 32 0 1 1 -64 0 32 32 0 1 1 64 0zM153.6 387.2l9.6-12.8C180.7 351.1 208.6 336 240 336c13.6 0 26.6 2.8 38.4 8l14.7 6.4-12.8 29.3-14.7-6.4c-7.8-3.4-16.5-5.3-25.6-5.3c-20.9 0-39.5 10-51.2 25.6l-9.6 12.8-25.6-19.2zM368.4 176a32 32 0 1 1 -64 0 32 32 0 1 1 64 0z"/><path class="fa-primary" d="M176.4 208a32 32 0 1 0 0-64 32 32 0 1 0 0 64zm160 0a32 32 0 1 0 0-64 32 32 0 1 0 0 64z"/></svg>