<svg xmlns="http://www.w3.org/2000/svg" viewBox="0 0 512 512"><!--! Font Awesome Pro 6.6.0 by @fontawesome - https://fontawesome.com License - https://fontawesome.com/license (Commercial License) Copyright 2024 Fonticons, Inc. --><defs><style>.fa-secondary{opacity:.4}</style></defs><path class="fa-secondary" d="M0 256a256 256 0 1 0 512 0A256 256 0 1 0 0 256zm89.4-80.8c3.9-3.6 7.8-7.3 11.7-10.9c20.1-18.7 45.5-31.5 73.7-35.2c5.6-.7 11.4-1.1 17.2-1.1l16 0c0 10.7 0 21.3 0 32l-16 0c-4.4 0-8.8 .3-13 .9c-21.2 2.8-40.6 12.4-56.1 26.8l-11.7 10.9L89.4 175.2zm55.2 77.5c.1-1.1 .3-2.1 .5-3.2c.4-2.1 1.1-4.1 1.9-6c1.6-3.8 4-7.3 6.9-10.2c5.8-5.8 13.8-9.4 22.6-9.4c17.7 0 32 14.3 32 32s-14.3 32-32 32c-8.8 0-16.8-3.6-22.6-9.4c-2.9-2.9-5.2-6.3-6.9-10.2c-.8-1.9-1.4-3.9-1.9-6c-.2-1-.4-2.1-.5-3.2c-.1-.5-.1-1.1-.1-1.6s0-1 0-1.8c0-.4 0-.9 0-1.5s.1-1.1 .1-1.6zM304 384a48 48 0 1 1 -96 0 48 48 0 1 1 96 0zm0-256l16 0c5.8 0 11.6 .4 17.2 1.1c28.2 3.7 53.7 16.4 73.7 35.2l11.7 10.9-21.8 23.4-11.7-10.9c-15.5-14.5-34.8-24-56.1-26.8c-4.3-.6-8.6-.9-13-.9l-16 0c0-10.7 0-21.3 0-32zm.5 124.7c.1-1.1 .3-2.1 .5-3.2c.4-2.1 1.1-4.1 1.9-6c1.6-3.8 4-7.3 6.9-10.2c5.8-5.8 13.8-9.4 22.6-9.4c17.7 0 32 14.3 32 32s-14.3 32-32 32c-8.8 0-16.8-3.6-22.6-9.4c-2.9-2.9-5.2-6.3-6.9-10.2c-.8-1.9-1.4-3.9-1.9-6c-.2-1-.4-2.1-.5-3.2c-.1-.5-.1-1.1-.1-1.6s0-1 0-1.8c0-.4 0-.9 0-1.5s.1-1.1 .1-1.6z"/><path class="fa-primary" d="M192 160c-4.4 0-8.8 .3-13 .9c-21.2 2.8-40.6 12.4-56.1 26.8l-11.7 10.9L89.4 175.2l11.7-10.9c20.1-18.7 45.5-31.5 73.7-35.2c5.6-.7 11.4-1.1 17.2-1.1l16 0 0 32-16 0zm-15.6 64a32 32 0 1 1 0 64 32 32 0 1 1 0-64zm160 0a32 32 0 1 1 0 64 32 32 0 1 1 0-64zM333 160.9c-4.3-.6-8.6-.9-13-.9l-16 0 0-32 16 0c5.8 0 11.6 .4 17.2 1.1c28.2 3.7 53.7 16.4 73.7 35.2l11.7 10.9-21.8 23.4-11.7-10.9c-15.5-14.5-34.8-24-56.1-26.8z"/></svg>