<svg xmlns="http://www.w3.org/2000/svg" viewBox="0 0 576 512"><!--! Font Awesome Pro 6.6.0 by @fontawesome - https://fontawesome.com License - https://fontawesome.com/license (Commercial License) Copyright 2024 Fonticons, Inc. --><defs><style>.fa-secondary{opacity:.4}</style></defs><path class="fa-secondary" d="M32 256l16-21.3 25.6 34.1L112 320c10.4 13.8 16 30.7 16 48c0 24.6-11.1 46.5-28.5 61.2c28.9 31.4 65.6 55.6 107 69.5C197.3 484 192 466.6 192 448l0-31.3c-10.2-7.2-16-15.7-16-24.7c0-26.5 50.1-48 112-48s112 21.5 112 48c0 9-5.8 17.5-16 24.7l0 31.3c0 18.6-5.3 36-14.5 50.8C470.9 464.7 544 368.9 544 256C544 114.6 429.4 0 288 0S32 114.6 32 256zm77.6-61.2l15.8-2.6 2.5-.4c26.3-4.4 50.6-16.9 69.5-35.7l7.4-7.4L216 137.4 238.6 160l-11.3 11.3-7.4 7.4c-23.6 23.6-53.9 39.2-86.8 44.7c-.8 .1-1.7 .3-2.5 .4l-15.8 2.6-5.3-31.6zm130 77.2a32 32 0 1 1 -64 0 32 32 0 1 1 64 0zm160 0a32 32 0 1 1 -64 0 32 32 0 1 1 64 0zM337.4 160L360 137.4l11.3 11.3 7.4 7.4c18.9 18.9 43.2 31.4 69.5 35.7l2.5 .4 15.8 2.6-5.3 31.6-15.8-2.6c-.8-.1-1.7-.3-2.5-.4c-32.9-5.5-63.3-21.1-86.8-44.7l-7.4-7.4L337.4 160z"/><path class="fa-primary" d="M238.6 160L216 137.4l-11.3 11.3-7.4 7.4c-18.9 18.9-43.2 31.4-69.5 35.7l-2.5 .4-15.8 2.6 5.3 31.6 15.8-2.6 2.5-.4c32.9-5.5 63.3-21.1 86.8-44.7l7.4-7.4L238.6 160zm-63 112a32 32 0 1 0 64 0 32 32 0 1 0 -64 0zm192 32a32 32 0 1 0 0-64 32 32 0 1 0 0 64zM288 512c35.3 0 64-28.7 64-64l0-64-48 0 0 24-32 0 0-24-48 0 0 64c0 35.3 28.7 64 64 64zM48 288L9.6 339.2C3.4 347.5 0 357.6 0 368c0 26.5 21.5 48 48 48s48-21.5 48-48c0-10.4-3.4-20.5-9.6-28.8L48 288zM348.7 171.3l7.4 7.4c23.6 23.6 53.9 39.2 86.8 44.7l2.5 .4 15.8 2.6 5.3-31.6-15.8-2.6-2.5-.4c-26.3-4.4-50.6-16.9-69.5-35.7l-7.4-7.4L360 137.4 337.4 160l11.3 11.3z"/></svg>