<svg xmlns="http://www.w3.org/2000/svg" viewBox="0 0 576 512"><!--! Font Awesome Pro 6.6.0 by @fontawesome - https://fontawesome.com License - https://fontawesome.com/license (Commercial License) Copyright 2024 Fonticons, Inc. --><defs><style>.fa-secondary{opacity:.4}</style></defs><path class="fa-secondary" d="M32 256c0 28.6 4.7 56.1 13.3 81.8c4.9-1.5 9.9-2.4 15-2.7c1.2-1.4 2.4-2.7 3.7-4c23.3-23.3 60.1-24.9 85.3-4.7l56.5-33.9L220 284l38.2 38.2-8.6 14.3L215.8 393c20.2 25.1 18.6 62-4.7 85.3c-1.3 1.3-2.6 2.5-4 3.7c-.3 5.4-1.3 10.8-3 16C230.4 507 258.6 512 288 512c28.7 0 56.3-4.7 82-13.4c-1.6-5.1-2.6-10.5-2.9-15.8c-1.4-1.2-2.7-2.4-4-3.7c-23.3-23.3-24.9-60.1-4.7-85.3l-33.9-56.5-8.2-13.7 38.4-38.4 13.7 8.2L425 327.3c25.1-20.2 62-18.6 85.3 4.7c1.3 1.3 2.5 2.6 3.7 4c5.5 .3 11 1.3 16.3 3.1c8.9-26.1 13.8-54 13.8-83.1C544 114.6 429.4 0 288 0S32 114.6 32 256zm96-32l16 0 96 0 16 0 0 32-16 0-96 0-16 0 0-32zm11.8-85.9l10.1-30.4 15.2 5.1c41.3 13.8 74.2 39.9 86.3 51.9L262.6 176 240 198.6l-11.3-11.3c-9.3-9.3-38.2-32.3-73.7-44.1l-15.2-5.1zM313.4 176l11.3-11.3c12-12 45-38.1 86.3-51.9l15.2-5.1 5.1 15.2 5.1 15.2-15.2 5.1c-35.5 11.8-64.4 34.8-73.7 44.1L336 198.6c-3.8-3.8-7.5-7.5-11.3-11.3L313.4 176zm6.6 48l16 0 96 0 16 0 0 32-16 0-96 0-16 0 0-32zm57.1 216.7c.6 2.9 1.7 5.7 3.1 8.4c.7 1.3 1.5 2.6 2.5 3.9c.5 .6 .9 1.2 1.5 1.8s1 1.2 1.6 1.7c-4.5-4.5-7.4-10-8.6-15.8zM433.8 370c1.3-5.6 4.2-10.9 8.5-15.3c-3.8 3.8-6.4 8.2-7.9 13c-.2 .8-.5 1.6-.6 2.4zm62.6 1.1c4.9-2.4 10.3-3.4 15.7-3.1c-1.7-.1-3.4-.1-5.1 .1c-1.8 .2-3.6 .5-5.4 1c-.9 .2-1.8 .5-2.6 .9s-1.7 .7-2.6 1.1z"/><path class="fa-primary" d="M41.4 421.7c-12.5-12.5-12.5-32.8 0-45.3c9.9-9.9 24.6-11.9 36.5-6.2c1.2-6 4.1-11.7 8.8-16.4c12.5-12.5 32.8-12.5 45.3 0c4.4 4.4 7.2 9.7 8.5 15.3L222.2 320l-49.1 81.8c5.6 1.3 10.9 4.2 15.3 8.5c12.5 12.5 12.5 32.8 0 45.3c-4.7 4.7-10.4 7.6-16.4 8.8c5.7 11.9 3.6 26.6-6.2 36.5c-12.5 12.5-32.8 12.5-45.3 0c-2.1-2.1-3.8-4.3-5.2-6.7c-18.8 14.5-45.9 13.1-63.1-4.2s-18.6-44.3-4.2-63.1c-2.4-1.4-4.7-3.1-6.7-5.2zm491.5 .9c-2.1 2.1-4.3 3.8-6.7 5.2c14.5 18.8 13.1 45.9-4.2 63.1s-44.3 18.6-63.1 4.2c-1.4 2.4-3.1 4.7-5.2 6.7c-12.5 12.5-32.8 12.5-45.3 0c-9.9-9.9-11.9-24.6-6.2-36.5c-6-1.2-11.7-4.1-16.4-8.8c-12.5-12.5-12.5-32.8 0-45.3c4.4-4.4 9.7-7.2 15.3-8.5L352 320.9 433.8 370c1.3-5.6 4.2-10.9 8.5-15.3c12.5-12.5 32.8-12.5 45.3 0c4.7 4.7 7.6 10.4 8.8 16.4c11.9-5.7 26.6-3.6 36.5 6.2c12.5 12.5 12.5 32.8 0 45.3z"/></svg>