<svg xmlns="http://www.w3.org/2000/svg" viewBox="0 0 512 512"><!--! Font Awesome Pro 6.6.0 by @fontawesome - https://fontawesome.com License - https://fontawesome.com/license (Commercial License) Copyright 2024 Fonticons, Inc. --><defs><style>.fa-secondary{opacity:.4}</style></defs><path class="fa-secondary" d="M0 256a256 256 0 1 0 512 0A256 256 0 1 0 0 256zm81.5-89.5l16.6-2.2 38.1-5 16.6-34.7 7.2-15.1c2.4 5 4.8 10.1 7.2 15.1l16.6 34.7c12.7 1.7 25.4 3.4 38.1 5c5.5 .7 11.1 1.5 16.6 2.2c-4.1 3.8-8.1 7.7-12.2 11.5c-9.3 8.8-18.6 17.7-27.9 26.5l7 37.8 3.1 16.5c-4.9-2.7-9.8-5.3-14.7-8c-11.3-6.1-22.5-12.2-33.8-18.3c-11.3 6.1-22.5 12.2-33.8 18.3c-4.9 2.7-9.8 5.3-14.7 8c1-5.5 2-11 3.1-16.5l7-37.8c-9.3-8.8-18.6-17.7-27.9-26.5c-4.1-3.8-8.1-7.7-12.2-11.5zM96 302.8c46.2 18.3 101.2 29 160.2 29s114.1-10.6 160.2-29C400.3 376.7 334.7 432 256.3 432s-144-55.3-160.2-129.2zM273.5 166.5l16.6-2.2c12.7-1.7 25.4-3.4 38.1-5l16.6-34.7 7.2-15.1 7.2 15.1 16.6 34.7 38.1 5 16.6 2.2L418.4 178l-27.9 26.5 7 37.8 3.1 16.5-14.7-8L352 232.5l-33.8 18.3-14.7 8c1-5.5 2-11 3.1-16.5l7-37.8c-9.3-8.8-18.6-17.7-27.9-26.5c-4.1-3.8-8.1-7.7-12.2-11.5z"/><path class="fa-primary" d="M167.2 124.6L160 109.4l-7.2 15.1-16.6 34.7-38.1 5-16.6 2.2L93.6 178l27.9 26.5-7 37.8-3.1 16.5 14.7-8L160 232.5l33.8 18.3 14.7 8-3.1-16.5-7-37.8L226.4 178l12.2-11.5-16.6-2.2-38.1-5-16.6-34.7zm192 0L352 109.4l-7.2 15.1-16.6 34.7-38.1 5-16.6 2.2L285.6 178l27.9 26.5-7 37.8-3.1 16.5 14.7-8L352 232.5l33.8 18.3 14.7 8-3.1-16.5-7-37.8L418.4 178l12.2-11.5-16.6-2.2-38.1-5-16.6-34.7z"/></svg>