<svg xmlns="http://www.w3.org/2000/svg" viewBox="0 0 512 512"><!--! Font Awesome Pro 6.6.0 by @fontawesome - https://fontawesome.com License - https://fontawesome.com/license (Commercial License) Copyright 2024 Fonticons, Inc. --><defs><style>.fa-secondary{opacity:.4}</style></defs><path class="fa-secondary" d="M24 352l40 0 0 160 112 0 0-64-32 0 0-32 0-160 0-32 32 0 16 0c-10-13.4-16-30-16-48c0-5.5 .6-10.8 1.6-16L32 160 24 352zM64 64a64 64 0 1 0 128 0A64 64 0 1 0 64 64zm256 0a64 64 0 1 0 128 0A64 64 0 1 0 320 64zm0 160l16 0 32 0 0 32 0 160 0 32-32 0 0 64 112 0 0-128 64 0L448 160l-113.6 0c1 5.2 1.6 10.5 1.6 16c0 18-6 34.6-16 48z"/><path class="fa-primary" d="M208 176a48 48 0 1 1 96 0 48 48 0 1 1 -96 0zm128 80l0 160-32 0 0 96-96 0 0-96-32 0 0-160 160 0z"/></svg>