<svg xmlns="http://www.w3.org/2000/svg" viewBox="0 0 640 512"><!--! Font Awesome Pro 6.6.0 by @fontawesome - https://fontawesome.com License - https://fontawesome.com/license (Commercial License) Copyright 2024 Fonticons, Inc. --><defs><style>.fa-secondary{opacity:.4}</style></defs><path class="fa-secondary" d="M128 0l0 256 384 0 0-96-160 0L352 0 128 0zm0 368l0 144 384 0 0-144-384 0zM384 0l0 128 128 0L384 0z"/><path class="fa-primary" d="M32 288l24 0 112 0 24 0 0 48-24 0L56 336l-24 0 0-48zm224 0l24 0 80 0 24 0 0 48-24 0-80 0-24 0 0-48zm192 0l24 0 112 0 24 0 0 48-24 0-112 0-24 0 0-48z"/></svg>