<svg xmlns="http://www.w3.org/2000/svg" viewBox="0 0 512 512"><!--! Font Awesome Pro 6.6.0 by @fontawesome - https://fontawesome.com License - https://fontawesome.com/license (Commercial License) Copyright 2024 Fonticons, Inc. --><defs><style>.fa-secondary{opacity:.4}</style></defs><path class="fa-secondary" d="M0 0L224 0l0 160 160 0 0 144-272 0 0 208L0 512 0 0z"/><path class="fa-primary" d="M384 160L224 0l0 160 160 0zM160 352l0 16 0 64 0 64 0 16 16 0 64 0 16 0 0-32-16 0-48 0 0-32 32 0 16 0 0-32-16 0-32 0 0-32 48 0 16 0 0-32-16 0-64 0-16 0zm144 0l-16 0 0 16 0 80 0 48 0 16 32 0 0-16 0-32 16 0c30.9 0 56-25.1 56-56s-25.1-56-56-56l-32 0zm32 80l-16 0 0-48 16 0c13.3 0 24 10.7 24 24s-10.7 24-24 24zm117.7-80c-25.2 0-45.7 20.4-45.7 45.7c0 17.3 9.8 33.1 25.2 40.8l31.2 15.6c4.6 2.3 7.6 7 7.6 12.2c0 7.5-6.1 13.7-13.7 13.7L424 480l-16 0 0 32 16 0 34.3 0c25.2 0 45.7-20.4 45.7-45.7c0-17.3-9.8-33.1-25.2-40.8l-31.2-15.6c-4.6-2.3-7.6-7-7.6-12.2c0-7.5 6.1-13.7 13.7-13.7l26.3 0 16 0 0-32-16 0-26.3 0z"/></svg>