<svg xmlns="http://www.w3.org/2000/svg" viewBox="0 0 384 512"><!--! Font Awesome Pro 6.6.0 by @fontawesome - https://fontawesome.com License - https://fontawesome.com/license (Commercial License) Copyright 2024 Fonticons, Inc. --><defs><style>.fa-secondary{opacity:.4}</style></defs><path class="fa-secondary" d="M0 0L224 0c0 53.3 0 106.7 0 160l160 0 0 352L0 512 0 0zM94.1 256c5.7 5.7 11.3 11.3 17 17l47 47c-15.7 15.7-31.3 31.4-47 47c-5.7 5.7-11.3 11.3-17 17c11.3 11.3 22.6 22.6 33.9 33.9c5.7-5.7 11.3-11.3 17-17c15.7-15.7 31.4-31.4 47-47l47 47 17 17c11.3-11.3 22.6-22.6 33.9-33.9c-5.7-5.7-11.3-11.3-17-17c-15.7-15.7-31.4-31.4-47-47l47-47c5.7-5.7 11.3-11.3 17-17c-11.3-11.3-22.6-22.6-33.9-33.9c-5.7 5.7-11.3 11.3-17 17c-15.7 15.7-31.4 31.4-47 47c-15.7-15.7-31.4-31.4-47-47c-5.7-5.7-11.3-11.3-17-17c-11.3 11.3-22.6 22.6-33.9 33.9z"/><path class="fa-primary" d="M384 160l-160 0L224 0 384 160zm-94.1 96l-17 17-47 47 47 47 17 17L256 417.9l-17-17-47-47-47 47-17 17L94.1 384l17-17 47-47-47-47-17-17L128 222.1l17 17 47 47 47-47 17-17L289.9 256z"/></svg>