<svg xmlns="http://www.w3.org/2000/svg" viewBox="0 0 384 512"><!--! Font Awesome Pro 6.6.0 by @fontawesome - https://fontawesome.com License - https://fontawesome.com/license (Commercial License) Copyright 2024 Fonticons, Inc. --><defs><style>.fa-secondary{opacity:.4}</style></defs><path class="fa-secondary" d="M0 0L224 0c0 53.3 0 106.7 0 160l160 0 0 352L0 512 0 0zM64 256l0 16 0 128 0 16 16 0 96 0 16 0 0-16 0-128 0-16-16 0-96 0-16 0zm32 32l64 0 0 96-64 0 0-96zm128-32l0 32 16 0 16 0 0 96-16 0-16 0 0 32 16 0 32 0 32 0 16 0 0-32-16 0-16 0 0-112 0-16-16 0-32 0-16 0z"/><path class="fa-primary" d="M384 160L224 0l0 160 160 0zM80 256l-16 0 0 16 0 128 0 16 16 0 96 0 16 0 0-16 0-128 0-16-16 0-96 0zM96 384l0-96 64 0 0 96-64 0zM240 256l-16 0 0 32 16 0 16 0 0 96-16 0-16 0 0 32 16 0 32 0 32 0 16 0 0-32-16 0-16 0 0-112 0-16-16 0-32 0z"/></svg>