<svg xmlns="http://www.w3.org/2000/svg" viewBox="0 0 512 512"><!--! Font Awesome Pro 6.6.0 by @fontawesome - https://fontawesome.com License - https://fontawesome.com/license (Commercial License) Copyright 2024 Fonticons, Inc. --><defs><style>.fa-secondary{opacity:.4}</style></defs><path class="fa-secondary" d="M0 0L224 0l0 160 160 0 0 144-272 0 0 208L0 512 0 0z"/><path class="fa-primary" d="M384 160L224 0l0 160 160 0zM200 352c-22.1 0-40 17.9-40 40l0 80c0 22.1 17.9 40 40 40l16 0c22.1 0 40-17.9 40-40l0-8 0-16-32 0 0 16 0 8c0 4.4-3.6 8-8 8l-16 0c-4.4 0-8-3.6-8-8l0-80c0-4.4 3.6-8 8-8l16 0c4.4 0 8 3.6 8 8l0 8 0 16 32 0 0-16 0-8c0-22.1-17.9-40-40-40l-16 0zm232 0l-16 0 0 16 0 128 0 16 16 0 32 0c26.5 0 48-21.5 48-48l0-64c0-26.5-21.5-48-48-48l-32 0zm16 32l16 0c8.8 0 16 7.2 16 16l0 64c0 8.8-7.2 16-16 16l-16 0 0-96zm-160 8l0 56 0 48 0 16 32 0 0-16 0-32 32 0 0 32 0 16 32 0 0-16 0-48 0-56c0-22.1-17.9-40-40-40l-16 0c-22.1 0-40 17.9-40 40zm32 40l0-40c0-4.4 3.6-8 8-8l16 0c4.4 0 8 3.6 8 8l0 40-32 0z"/></svg>