<svg xmlns="http://www.w3.org/2000/svg" viewBox="0 0 512 512"><!--! Font Awesome Pro 6.6.0 by @fontawesome - https://fontawesome.com License - https://fontawesome.com/license (Commercial License) Copyright 2024 Fonticons, Inc. --><defs><style>.fa-secondary{opacity:.4}</style></defs><path class="fa-secondary" d="M106.5 288L240 421.5 373.5 288l-267 0z"/><path class="fa-primary" d="M0 272l45.3 45.3L194.7 466.7 240 512l45.3-45.3L466.7 285.3 512 240l-45.3-45.3L317.3 45.3 272 0 226.7 45.3l-60.1 60.1-80-80L64 2.7 18.7 48 41.4 70.6l80 80L45.3 226.7 0 272zm166.6-76.1l18.7 18.7L208 237.3 253.3 192l-22.6-22.6-18.7-18.7L272 90.5 421.5 240 240 421.5 90.5 272l76.1-76.1z"/></svg>