<svg xmlns="http://www.w3.org/2000/svg" viewBox="0 0 512 512"><!--! Font Awesome Pro 6.6.0 by @fontawesome - https://fontawesome.com License - https://fontawesome.com/license (Commercial License) Copyright 2024 Fonticons, Inc. --><defs><style>.fa-secondary{opacity:.4}</style></defs><path class="fa-secondary" d="M160 32l192 0 0 448-192 0 0-448z"/><path class="fa-primary" d="M160 32l-48 0 0 64L48 96l0-64L0 32 0 480l48 0 0-64 64 0 0 64 48 0 0-448zM352 480l48 0 0-64 64 0 0 64 48 0 0-448-48 0 0 64-64 0 0-64-48 0 0 448zM112 160l0 64-64 0 0-64 64 0zm288 0l64 0 0 64-64 0 0-64zM112 288l0 64-64 0 0-64 64 0zm288 0l64 0 0 64-64 0 0-64z"/></svg>