<svg xmlns="http://www.w3.org/2000/svg" viewBox="0 0 576 512"><!--! Font Awesome Pro 6.6.0 by @fontawesome - https://fontawesome.com License - https://fontawesome.com/license (Commercial License) Copyright 2024 Fonticons, Inc. --><defs><style>.fa-secondary{opacity:.4}</style></defs><path class="fa-secondary" d="M0 96l0 24L0 456l0 24 24 0 432 0 24 0 0-48-24 0L48 432l0-312 0-24L0 96zM256 80l0 112 160 0 0-112L256 80zm0 144l0 112 160 0 0-112-160 0z"/><path class="fa-primary" d="M96 32l480 0 0 352L96 384 96 32zm56 48l0 48 48 0 0-48-48 0zm368 0l-48 0 0 48 48 0 0-48zM152 184l0 48 48 0 0-48-48 0zm368 0l-48 0 0 48 48 0 0-48zM152 288l0 48 48 0 0-48-48 0zm368 0l-48 0 0 48 48 0 0-48zM256 80l0 112 160 0 0-112L256 80zM416 224l-160 0 0 112 160 0 0-112z"/></svg>