<svg xmlns="http://www.w3.org/2000/svg" viewBox="0 0 448 512"><!--! Font Awesome Pro 6.6.0 by @fontawesome - https://fontawesome.com License - https://fontawesome.com/license (Commercial License) Copyright 2024 Fonticons, Inc. --><defs><style>.fa-secondary{opacity:.4}</style></defs><path class="fa-secondary" d="M0 276.5C0 144 176 0 176 0s64.5 59.3 88.6 89.4c11-14.4 47.4-42.9 47.4-42.9s136 113.4 136 229.9C448 404.2 348.2 512 224 512C98.4 512 0 404.1 0 276.5zm112 30.3C112 375.4 162.6 416 225.7 416c25.3 0 47.7-7 68.8-21c27.1-18.9 41.5-50.1 41.5-82.2c0-17.7-4.4-35.8-13.4-52.2c-2.8-5.6-5.6-11.2-9.8-16.8l-50.6 58.8s-81.4-103.6-87.1-110.6C133.1 243.8 112 273.2 112 306.8z"/><path class="fa-primary" d="M294.5 395c-21.1 14-43.5 21-68.8 21C162.6 416 112 375.4 112 306.8c0-33.6 21.1-63 63.2-114.8c5.6 7 87.1 110.6 87.1 110.6l50.6-58.8c4.2 5.6 7 11.2 9.8 16.8c25.3 46.2 14 105-28.1 134.4z"/></svg>