<svg xmlns="http://www.w3.org/2000/svg" viewBox="0 0 512 512"><!--! Font Awesome Pro 6.6.0 by @fontawesome - https://fontawesome.com License - https://fontawesome.com/license (Commercial License) Copyright 2024 Fonticons, Inc. --><defs><style>.fa-secondary{opacity:.4}</style></defs><path class="fa-secondary" d="M0 32L0 480l512 0 0-384L272 96 224 32 0 32zM158.1 224c11.3-11.3 22.6-22.6 33.9-33.9l17 17 47 47 47-47 17-17L353.9 224c-5.7 5.7-11.3 11.3-17 17c-15.7 15.7-31.3 31.3-47 47c15.7 15.7 31.3 31.4 47 47l17 17L320 385.9c-5.7-5.7-11.3-11.3-17-17c-15.7-15.7-31.4-31.4-47-47c-15.7 15.7-31.3 31.4-47 47c-5.7 5.7-11.3 11.3-17 17c-11.3-11.3-22.6-22.6-33.9-33.9l17-17 47-47-47-47-17-17z"/><path class="fa-primary" d="M337 241l17-17L320 190.1l-17 17-47 47-47-47-17-17L158.1 224l17 17 47 47-47 47-17 17L192 385.9l17-17 47-47 47 47 17 17L353.9 352l-17-17-47-47 47-47z"/></svg>