<svg xmlns="http://www.w3.org/2000/svg" viewBox="0 0 448 512"><!--! Font Awesome Pro 6.6.0 by @fontawesome - https://fontawesome.com License - https://fontawesome.com/license (Commercial License) Copyright 2024 Fonticons, Inc. --><defs><style>.fa-secondary{opacity:.4}</style></defs><path class="fa-secondary" d="M0 32L0 480l448 0 0-448L0 32zM64 96l80 0 80 0 80 0 80 0 0 80 0 80 0 80 0 80-80 0-80 0-80 0-80 0 0-80 0-80 0-80 0-80z"/><path class="fa-primary" d="M64 256l0 80h80V256H64zM384 416l0-80H304v80h80zm-240 0h80V336H144v80zM64 96l0 80h80V96H64zm160 80H144v80h80V176zm0 80v80h80V256H224zm160 0V176H304v80h80zM304 96H224v80h80V96z"/></svg>