<svg xmlns="http://www.w3.org/2000/svg" viewBox="0 0 512 512"><!--! Font Awesome Pro 6.6.0 by @fontawesome - https://fontawesome.com License - https://fontawesome.com/license (Commercial License) Copyright 2024 Fonticons, Inc. --><defs><style>.fa-secondary{opacity:.4}</style></defs><path class="fa-secondary" d="M512 256A256 256 0 1 1 0 256a256 256 0 1 1 512 0zM64 256a32 32 0 1 0 64 0 32 32 0 1 0 -64 0zm48-112a32 32 0 1 0 64 0 32 32 0 1 0 -64 0zm80 208c0 35.3 28.7 64 64 64c17.7 0 33.7-7.2 45.3-18.7c5.8-5.8 10.5-12.7 13.7-20.3c1.6-3.8 2.9-7.8 3.7-12c.4-2.1 .8-4.2 1-6.3c.1-1.1 .2-2.2 .2-3.2c.1-1.1 .1-2.2 .1-3.3c0-.9 0-1.8-.1-2.7s-.1-1.8-.2-2.7c-.2-1.8-.4-3.6-.7-5.4c39.2-24.3 78.4-48.5 117.5-72.8c6.8-4.2 13.6-8.4 20.4-12.6L431.8 215l-20.4 12.6L293.8 300.4C283.2 292.6 270.1 288 256 288c-35.3 0-64 28.7-64 64zM224 96a32 32 0 1 0 64 0 32 32 0 1 0 -64 0zm112 48a32 32 0 1 0 64 0 32 32 0 1 0 -64 0z"/><path class="fa-primary" d="M411.4 227.6L431.8 215 457 255.8l-20.4 12.6L319.1 341.2c.6 3.5 .9 7.1 .9 10.8c0 35.3-28.7 64-64 64s-64-28.7-64-64s28.7-64 64-64c14.1 0 27.2 4.6 37.8 12.4l117.5-72.8z"/></svg>