<svg xmlns="http://www.w3.org/2000/svg" viewBox="0 0 512 512"><!--! Font Awesome Pro 6.6.0 by @fontawesome - https://fontawesome.com License - https://fontawesome.com/license (Commercial License) Copyright 2024 Fonticons, Inc. --><defs><style>.fa-secondary{opacity:.4}</style></defs><path class="fa-secondary" d="M-1.3 208L0 304l55.3 7c4.5 16.6 11.1 32.4 19.4 47.1l-35 45L107.6 471l44.6-34.7c14.8 8.5 30.7 15.3 47.5 20l7 55.7 96 0 6.9-55c17.2-4.6 33.6-11.3 48.7-19.9L401.8 471l67.9-67.9L436.2 360c8.9-15.3 15.8-31.8 20.6-49.3l54-6.7 0-96-54-6.7c-4.7-17.4-11.7-34-20.6-49.3l33.5-43.1L401.8 41 358.3 74.9c-15.2-8.6-31.5-15.3-48.7-19.9L302.7 0l-96 0-7 55.7c-16.8 4.7-32.7 11.5-47.5 20L107.6 41 39.7 108.9l35 45c-8.3 14.7-14.8 30.4-19.4 47L-1.3 208zm114.7 48l11.3-11.3c13.3-13.3 26.7-26.7 40-40c3.8-3.8 7.5-7.5 11.3-11.3c7.5 7.5 15.1 15.1 22.6 22.6c-3.8 3.8-7.5 7.5-11.3 11.3c-9.6 9.6-19.1 19.1-28.7 28.7c9.6 9.6 19.1 19.1 28.7 28.7c3.8 3.8 7.5 7.5 11.3 11.3c-7.5 7.5-15.1 15.1-22.6 22.6c-3.8-3.8-7.5-7.5-11.3-11.3c-13.3-13.3-26.7-26.7-40-40c-3.8-3.8-7.5-7.5-11.3-11.3zM221.6 365.2l2.6-15.8 32-192c.9-5.3 1.8-10.5 2.6-15.8c10.5 1.8 21 3.5 31.6 5.3c-.9 5.3-1.8 10.5-2.6 15.8c-10.7 64-21.3 128-32 192c-.9 5.3-1.8 10.5-2.6 15.8c-10.5-1.8-21-3.5-31.6-5.3zM313.4 216c7.5-7.5 15.1-15.1 22.6-22.6c3.8 3.8 7.5 7.5 11.3 11.3c13.3 13.3 26.7 26.7 40 40c3.8 3.8 7.5 7.5 11.3 11.3c-3.8 3.8-7.5 7.5-11.3 11.3c-13.3 13.3-26.7 26.7-40 40c-3.8 3.8-7.5 7.5-11.3 11.3L313.4 296l11.3-11.3c9.6-9.6 19.1-19.1 28.7-28.7c-9.6-9.6-19.1-19.1-28.7-28.7c-3.8-3.8-7.5-7.5-11.3-11.3z"/><path class="fa-primary" d="M290.4 146.8l-2.6 15.8-32 192-2.6 15.8-31.6-5.3 2.6-15.8 32-192 2.6-15.8 31.6 5.3zM198.6 216l-11.3 11.3L158.6 256l28.7 28.7L198.6 296 176 318.6l-11.3-11.3-40-40L113.4 256l11.3-11.3 40-40L176 193.4 198.6 216zM336 193.4l11.3 11.3 40 40L398.6 256l-11.3 11.3-40 40L336 318.6 313.4 296l11.3-11.3L353.4 256l-28.7-28.7L313.4 216 336 193.4z"/></svg>