<svg xmlns="http://www.w3.org/2000/svg" viewBox="0 0 576 512"><!--! Font Awesome Pro 6.6.0 by @fontawesome - https://fontawesome.com License - https://fontawesome.com/license (Commercial License) Copyright 2024 Fonticons, Inc. --><defs><style>.fa-secondary{opacity:.4}</style></defs><path class="fa-secondary" d="M0 128L0 320l576 0 0-192-105.6 0c-14.6 28.5-44.2 48-78.4 48l-59.4 0 53.9 64.6 15.4 18.4-36.9 30.7-15.4-18.4L288 197.5l-61.6 73.9-15.4 18.4-36.9-30.7 15.4-18.4L243.4 176 184 176c-1.1 0-2.1 0-3.2-.1s-2.1-.1-3.2-.2c-2.1-.1-4.2-.4-6.2-.7c-4.1-.6-8.1-1.5-12-2.6c-7.8-2.3-15.2-5.6-21.9-9.8c-13.5-8.4-24.6-20.4-31.8-34.7L0 128zM0 416l0 96 576 0 0-96L0 416z"/><path class="fa-primary" d="M186.2 48L184 48c-22.1 0-40 17.9-40 40s17.9 40 40 40l73.3 0L222.5 68.8C214.9 55.9 201.1 48 186.2 48zm57.3 128L184 176c-48.6 0-88-39.4-88-88s39.4-88 88-88l2.2 0c31.9 0 61.5 16.9 77.7 44.4l24.1 41 24.1-41C328.3 16.9 357.9 0 389.8 0L392 0c48.6 0 88 39.4 88 88s-39.4 88-88 88l-59.4 0 53.9 64.6 15.4 18.4-36.9 30.7-15.4-18.4L288 197.5l-61.6 73.9-15.4 18.4-36.9-30.7 15.4-18.4L243.4 176zM392 128c22.1 0 40-17.9 40-40s-17.9-40-40-40l-2.2 0c-14.9 0-28.8 7.9-36.3 20.8L318.7 128l1.3 0 72 0zM576 416L0 416l0-96 576 0 0 96z"/></svg>