<svg xmlns="http://www.w3.org/2000/svg" viewBox="0 0 512 512"><!--! Font Awesome Pro 6.6.0 by @fontawesome - https://fontawesome.com License - https://fontawesome.com/license (Commercial License) Copyright 2024 Fonticons, Inc. --><defs><style>.fa-secondary{opacity:.4}</style></defs><path class="fa-secondary" d="M96 352l0 160 32 0 0-160-32 0zm32-128l0 128 32 0 0-128-32 0zm32-96l0 96 32 0 0-96-32 0zm160 0l0 96 32 0 0-96-32 0zm32 96l0 128 32 0 0-128-32 0zm32 128l0 160 32 0 0-160-32 0z"/><path class="fa-primary" d="M144 0l0 24 0 8 40 0 0-8 0-24 48 0 0 24 0 8 48 0 0-8 0-24 48 0 0 24 0 8 40 0 0-8 0-24 48 0 0 24 0 8 0 32 0 24 0 40 32 0 0 96 32 0 0 128 32 0 0 160-96 0 0-160-32 0 0-128-32 0 0-96-32 0 0 96 32 0 0 128 32 0 0 160-80 0 0-48c0-26.5-21.5-48-48-48s-48 21.5-48 48l0 48-80 0 0-160 32 0 0-128 32 0 0-96-32 0 0 96-32 0 0 128-32 0 0 160L0 512 0 352l32 0 0-128 32 0 0-96 32 0 0-40 0-24 0-32 0-8L96 0l48 0zM256 272c-17.7 0-32 14.3-32 32l0 48 64 0 0-48c0-17.7-14.3-32-32-32zm-32-80l0 32 64 0 0-32c0-17.7-14.3-32-32-32s-32 14.3-32 32z"/></svg>