<svg xmlns="http://www.w3.org/2000/svg" viewBox="0 0 448 512"><!--! Font Awesome Pro 6.6.0 by @fontawesome - https://fontawesome.com License - https://fontawesome.com/license (Commercial License) Copyright 2024 Fonticons, Inc. --><defs><style>.fa-secondary{opacity:.4}</style></defs><path class="fa-secondary" d="M0 160a32 32 0 1 0 64 0A32 32 0 1 0 0 160zM0 352a32 32 0 1 0 64 0A32 32 0 1 0 0 352zM96 64a32 32 0 1 0 64 0A32 32 0 1 0 96 64zm0 192a32 32 0 1 0 64 0 32 32 0 1 0 -64 0zm0 192a32 32 0 1 0 64 0 32 32 0 1 0 -64 0zm96-288a32 32 0 1 0 64 0 32 32 0 1 0 -64 0zm0 192a32 32 0 1 0 64 0 32 32 0 1 0 -64 0zM288 64a32 32 0 1 0 64 0 32 32 0 1 0 -64 0zm0 192a32 32 0 1 0 64 0 32 32 0 1 0 -64 0zm0 192a32 32 0 1 0 64 0 32 32 0 1 0 -64 0zm96-288a32 32 0 1 0 64 0 32 32 0 1 0 -64 0zm0 192a32 32 0 1 0 64 0 32 32 0 1 0 -64 0z"/><path class="fa-primary" d="M64 64A32 32 0 1 1 0 64a32 32 0 1 1 64 0zm0 192A32 32 0 1 1 0 256a32 32 0 1 1 64 0zM32 480a32 32 0 1 1 0-64 32 32 0 1 1 0 64zM160 160a32 32 0 1 1 -64 0 32 32 0 1 1 64 0zM128 384a32 32 0 1 1 0-64 32 32 0 1 1 0 64zM256 64a32 32 0 1 1 -64 0 32 32 0 1 1 64 0zM224 288a32 32 0 1 1 0-64 32 32 0 1 1 0 64zm32 160a32 32 0 1 1 -64 0 32 32 0 1 1 64 0zm64-256a32 32 0 1 1 0-64 32 32 0 1 1 0 64zm32 160a32 32 0 1 1 -64 0 32 32 0 1 1 64 0zM416 96a32 32 0 1 1 0-64 32 32 0 1 1 0 64zm32 160a32 32 0 1 1 -64 0 32 32 0 1 1 64 0zM416 480a32 32 0 1 1 0-64 32 32 0 1 1 0 64z"/></svg>