<svg xmlns="http://www.w3.org/2000/svg" viewBox="0 0 448 512"><!--! Font Awesome Pro 6.6.0 by @fontawesome - https://fontawesome.com License - https://fontawesome.com/license (Commercial License) Copyright 2024 Fonticons, Inc. --><defs><style>.fa-secondary{opacity:.4}</style></defs><path class="fa-secondary" d="M0 256a64 64 0 1 0 128 0A64 64 0 1 0 0 256zM160 96a64 64 0 1 0 128 0A64 64 0 1 0 160 96zm0 320a64 64 0 1 0 128 0 64 64 0 1 0 -128 0zM320 256a64 64 0 1 0 128 0 64 64 0 1 0 -128 0z"/><path class="fa-primary" d="M128 96A64 64 0 1 1 0 96a64 64 0 1 1 128 0zm0 320A64 64 0 1 1 0 416a64 64 0 1 1 128 0zm96-96a64 64 0 1 1 0-128 64 64 0 1 1 0 128zM448 96A64 64 0 1 1 320 96a64 64 0 1 1 128 0zM384 480a64 64 0 1 1 0-128 64 64 0 1 1 0 128z"/></svg>