<svg xmlns="http://www.w3.org/2000/svg" viewBox="0 0 448 512"><!--! Font Awesome Pro 6.6.0 by @fontawesome - https://fontawesome.com License - https://fontawesome.com/license (Commercial License) Copyright 2024 Fonticons, Inc. --><defs><style>.fa-secondary{opacity:.4}</style></defs><path class="fa-secondary" d="M0 128l0 64 64 0 0-64L0 128zM0 320l0 64 64 0 0-64L0 320zM96 32l0 64 64 0 0-64L96 32zm0 192l0 64 64 0 0-64-64 0zm0 192l0 64 64 0 0-64-64 0zm96-288l0 64 64 0 0-64-64 0zm0 192l0 64 64 0 0-64-64 0zM288 32l0 64 64 0 0-64-64 0zm0 192l0 64 64 0 0-64-64 0zm0 192l0 64 64 0 0-64-64 0zm96-288l0 64 64 0 0-64-64 0zm0 192l0 64 64 0 0-64-64 0z"/><path class="fa-primary" d="M0 32l64 0 0 64L0 96 0 32zM0 224l64 0 0 64L0 288l0-64zM64 416l0 64L0 480l0-64 64 0zM96 128l64 0 0 64-64 0 0-64zm64 192l0 64-64 0 0-64 64 0zM192 32l64 0 0 64-64 0 0-64zm64 192l0 64-64 0 0-64 64 0zM192 416l64 0 0 64-64 0 0-64zM352 128l0 64-64 0 0-64 64 0zM288 320l64 0 0 64-64 0 0-64zM448 32l0 64-64 0 0-64 64 0zM384 224l64 0 0 64-64 0 0-64zm64 192l0 64-64 0 0-64 64 0z"/></svg>