<svg xmlns="http://www.w3.org/2000/svg" viewBox="0 0 512 512"><!--! Font Awesome Pro 6.6.0 by @fontawesome - https://fontawesome.com License - https://fontawesome.com/license (Commercial License) Copyright 2024 Fonticons, Inc. --><defs><style>.fa-secondary{opacity:.4}</style></defs><path class="fa-secondary" d="M28.8 283.6C-16 328.4-7.6 409.4 47.5 464.5C78.8 495.8 118.4 512 155 512c27.9 0 54-9.4 73.4-28.8c17.9-17.9 27.4-41.7 28.6-67.3c.9-17 15-32.3 31.6-36.1c15-3.4 28.6-10.5 39.6-21.4c16-16 23.7-37.7 23.7-61c0-23-7.5-47.6-22.2-70c-24.6 24.6-49.3 49.3-73.9 73.9c0 .9 .1 1.8 .1 2.7c0 26.5-21.5 48-48 48s-48-21.5-48-48s21.5-48 48-48c.9 0 1.8 0 2.7 .1c24.6-24.6 49.3-49.3 73.9-73.9c-22.4-14.6-47-22.2-70-22.2c-23.3 0-45 7.8-61 23.7c-11 11-18 24.6-21.4 39.6c-3.7 16.6-19.1 30.7-36.1 31.6c-25.6 1.3-49.3 10.7-67.3 28.6z"/><path class="fa-primary" d="M367.1 99.7L376 64 448 0l64 64-64 72-35.7 8.9L255.9 301.3c-1.3-24.4-20.9-43.9-45.3-45.3L367.1 99.7z"/></svg>