<svg xmlns="http://www.w3.org/2000/svg" viewBox="0 0 512 512"><!--! Font Awesome Pro 6.6.0 by @fontawesome - https://fontawesome.com License - https://fontawesome.com/license (Commercial License) Copyright 2024 Fonticons, Inc. --><defs><style>.fa-secondary{opacity:.4}</style></defs><path class="fa-secondary" d="M0 288l0 48L95.4 441c41.1 45.2 99.4 71 160.6 71s119.4-25.8 160.6-71L512 336l0-48-96 0 0-256-80 0 0 192-40 0L296 0 216 0l0 224-40 0 0-192L96 32l0 256L0 288zm160 64s48-64 96-64s96 64 96 64s-48 64-96 64s-96-64-96-64z"/><path class="fa-primary" d="M224 352a32 32 0 1 1 64 0 32 32 0 1 1 -64 0z"/></svg>