<svg xmlns="http://www.w3.org/2000/svg" viewBox="0 0 640 512"><!--! Font Awesome Pro 6.6.0 by @fontawesome - https://fontawesome.com License - https://fontawesome.com/license (Commercial License) Copyright 2024 Fonticons, Inc. --><defs><style>.fa-secondary{opacity:.4}</style></defs><path class="fa-secondary" d="M0 64l0 40 0 24 0 32 0 64L0 352l0 13.3 9.4 9.4 128 128 9.4 9.4 13.3 0 96 0 32 0 0-32 0-32 0-32 0-64 0-13.3-9.4-9.4-64-64L192 242.7l-9.4-9.4L160 210.7 114.7 256l22.6 22.6 9.4 9.4 22.6 22.6L205.8 347l-41.7 27.8L80 290.7 80 224l0-80 0-32 0-8 0-40L0 64zM352 338.7l0 13.3 0 64 0 32 0 32 0 32 32 0 96 0 13.3 0 9.4-9.4 128-128 9.4-9.4 0-13.3 0-128 0-64 0-32 0-24 0-40-80 0 0 40 0 8 0 32 0 80 0 66.7-84.1 84.1L434.2 347l36.4-36.4L493.3 288l9.4-9.4L525.3 256 480 210.7l-22.6 22.6-9.4 9.4-22.6 22.6-64 64-9.4 9.4z"/><path class="fa-primary" d="M280 40a40 40 0 1 1 80 0 40 40 0 1 1 -80 0zm1.7 56l8.8 0 59.1 0 8.8 0 6.7 5.7 50.5 42.7 18.3 15.5-31 36.7L384.5 181l-19.8-16.7L375.8 253l3 23.8-47.6 6-3-23.8-4.4-35-7.6 0-4.4 35-3 23.8-47.6-6 3-23.8 11.1-88.8L255.5 181l-18.3 15.5-31-36.7 18.3-15.5L275 101.7l6.7-5.7z"/></svg>