<svg xmlns="http://www.w3.org/2000/svg" viewBox="0 0 384 512"><!--! Font Awesome Pro 6.6.0 by @fontawesome - https://fontawesome.com License - https://fontawesome.com/license (Commercial License) Copyright 2024 Fonticons, Inc. --><defs><style>.fa-secondary{opacity:.4}</style></defs><path class="fa-secondary" d="M0 149c0-33.9 13.5-66.5 37.5-90.5L49.1 46.9C79.1 16.9 119.8 0 162.3 0L224 0c88.4 0 160 71.6 160 160l-96 0 0 32-64 0 0-48 0-16-16 0L96 128l-16 0 0 32 16 0 96 0 0 32 0 48L0 240l0-91zM32 272l64 0 0 240-64 0 0-240z"/><path class="fa-primary" d="M384 320l-64 0 0-128 64 0 0 128zM224 352l0-128 64 0 0 128-64 0zm-96 32l0-112 64 0 0 112-64 0z"/></svg>