<svg xmlns="http://www.w3.org/2000/svg" viewBox="0 0 384 512"><!--! Font Awesome Pro 6.6.0 by @fontawesome - https://fontawesome.com License - https://fontawesome.com/license (Commercial License) Copyright 2024 Fonticons, Inc. --><defs><style>.fa-secondary{opacity:.4}</style></defs><path class="fa-secondary" d="M0 272l0 91c0 33.9 13.5 66.5 37.5 90.5l11.6 11.6c30 30 70.7 46.9 113.1 46.9l61.7 0c88.4 0 160-71.6 160-160l-96 0 0-32-64 0 0 48 0 16-16 0L96 384l-16 0 0-32 16 0 96 0 0-32 0-48L0 272zM32 0l0 240 64 0L96 0 32 0z"/><path class="fa-primary" d="M128 128l64 0 0 112-64 0 0-112zm96 32l64 0 0 128-64 0 0-128zm160 32l0 128-64 0 0-128 64 0z"/></svg>