<svg xmlns="http://www.w3.org/2000/svg" viewBox="0 0 576 512"><!--! Font Awesome Pro 6.6.0 by @fontawesome - https://fontawesome.com License - https://fontawesome.com/license (Commercial License) Copyright 2024 Fonticons, Inc. --><defs><style>.fa-secondary{opacity:.4}</style></defs><path class="fa-secondary" d="M0 384L0 512l32 0 192 0 160 0 12.4 0 10.2-7 128-88 33-22.7-45.3-65.9-33 22.7-94.5 65L256 416l0-32 32 0 64 0 32 0 0-64-32 0-64 0-64 0-64 0-11.2 0-8.8 7L68.8 384 0 384z"/><path class="fa-primary" d="M312 8l0 24 0 2.9c6.4 1.2 14.3 2.8 18.2 3.9L353.4 45 341 91.4l-23.2-6.2c-3.7-1-17-3.6-21.3-4.3c-11.6-1.8-20.8-.3-26.4 2.3c-5.5 2.5-5.9 4.8-5.9 5.1c0 0 0 0 0 0c-.3 1.5-.2 2.3-.2 2.7c.2 .2 .7 .9 2.2 1.9c5.5 3.7 14.4 6.6 28.8 10.9l1 .3c12 3.6 28.7 8.7 41.4 17.9c7.1 5.2 14 12.3 18.2 22.1c4.3 9.9 5.1 20.7 3.2 31.7c-3.6 20.6-17.3 34.5-34 41.7c-4.2 1.8-8.5 3.2-13 4.2l0 2.2 0 24-48 0 0-24 0-3.2c-9.3-2.4-20.3-6.1-27.3-8.5c0 0 0 0 0 0s0 0 0 0c-1.7-.6-3.1-1.1-4.2-1.4l-22.8-7.6 15.2-45.5 22.8 7.6c2.1 .7 4.3 1.5 6.6 2.2c9.5 3.2 19.7 6.7 25.4 7.6c12.3 1.9 21.4 .6 26.6-1.6c4.4-1.9 5.3-3.8 5.6-5.8c.3-1.8 .3-2.9 .2-3.5c-.1-.6-.2-.8-.2-.9c0 0 0 0 0 0c0-.1-.4-.9-2.4-2.4c-5.2-3.8-14-6.8-28.1-11.1l-2.3-.7c-11.6-3.5-27.5-8.2-39.6-16.5c-7-4.8-14.1-11.5-18.7-21.1c-4.6-9.8-5.6-20.5-3.7-31.4c3.5-20 17.6-33.5 33.4-40.7c4.3-2 8.9-3.5 13.6-4.7l0-2.8 0-24 48 0zM264.1 91.2s0 0 0-.1c0 .1 0 .1 0 .1z"/></svg>