<svg xmlns="http://www.w3.org/2000/svg" viewBox="0 0 640 512"><!--! Font Awesome Pro 6.6.0 by @fontawesome - https://fontawesome.com License - https://fontawesome.com/license (Commercial License) Copyright 2024 Fonticons, Inc. --><defs><style>.fa-secondary{opacity:.4}</style></defs><path class="fa-secondary" d="M0 128L0 352l156.2 0 73.9 67.4 35.4 32.4 47.7-52.2 22.3 20.5 35.4 32.4 34.2-37.3L40.6 128 0 128zm163.6-23.7c14.5 11.3 29.1 22.6 43.6 33.9L298.8 64 224 64l-60.4 40.3zm69.6 54c21.2 16.4 42.4 32.9 63.5 49.3l77.4-60.2 12.6-9.8 19.6 25.3-12.6 9.8-20.9 16.2L550.2 352l89.8 0 0-224-48 0-76 0-4 0-1.4 0-4.3-3.3L426.6 64l-76.9 0L233.2 158.3zm89.6 69.6C384.9 276.1 447 324.2 509 372.4l6.8-7.4-35.4-32.4-134.2-123-23.4 18.2z"/><path class="fa-primary" d="M29.4 .1l19 14.7L620.9 459.3l19 14.7-29.4 37.9-19-14.7L19 52.7 0 38 29.4 .1z"/></svg>