<svg xmlns="http://www.w3.org/2000/svg" viewBox="0 0 640 512"><!--! Font Awesome Pro 6.6.0 by @fontawesome - https://fontawesome.com License - https://fontawesome.com/license (Commercial License) Copyright 2024 Fonticons, Inc. --><defs><style>.fa-secondary{opacity:.4}</style></defs><path class="fa-secondary" d="M8 104c0 13.3 10.7 24 24 24s24-10.7 24-24c0-19.7-12.8-38.9-20.1-50c-1.6-2.4-3-4.5-3.9-6c-.9 1.6-2.3 3.6-3.9 6C20.8 65.1 8 84.3 8 104zm80 0c0 13.3 10.7 24 24 24s24-10.7 24-24c0-19.7-12.8-38.9-20.1-50c-1.6-2.4-3-4.5-3.9-6c-.9 1.6-2.3 3.6-3.9 6C100.8 65.1 88 84.3 88 104zm64 0c0 13.3 10.7 24 24 24s24-10.7 24-24c0-19.7-12.8-38.9-20.1-50c-1.6-2.4-3-4.5-3.9-6c-.9 1.6-2.3 3.6-3.9 6C164.8 65.1 152 84.3 152 104zm64 0c0 13.3 10.7 24 24 24s24-10.7 24-24c0-19.7-12.8-38.9-20.1-50c-1.6-2.4-3-4.5-3.9-6c-.9 1.6-2.3 3.6-3.9 6C228.8 65.1 216 84.3 216 104zm80-48c0 13.3 10.7 24 24 24s24-10.7 24-24c0-19.7-12.8-38.9-20.1-50c-1.6-2.4-3-4.5-3.9-6c-.9 1.6-2.3 3.6-3.9 6C308.8 17.1 296 36.3 296 56zm80 48c0 13.3 10.7 24 24 24s24-10.7 24-24c0-19.7-12.8-38.9-20.1-50c-1.6-2.4-3-4.5-3.9-6c-.9 1.6-2.3 3.6-3.9 6C388.8 65.1 376 84.3 376 104zm64 0c0 13.3 10.7 24 24 24s24-10.7 24-24c0-19.7-12.8-38.9-20.1-50c-1.6-2.4-3-4.5-3.9-6c-.9 1.6-2.3 3.6-3.9 6C452.8 65.1 440 84.3 440 104zm64 0c0 13.3 10.7 24 24 24s24-10.7 24-24c0-19.7-12.8-38.9-20.1-50c-1.6-2.4-3-4.5-3.9-6c-.9 1.6-2.3 3.6-3.9 6C516.8 65.1 504 84.3 504 104zm80 0c0 13.3 10.7 24 24 24s24-10.7 24-24c0-19.7-12.8-38.9-20.1-50c-1.6-2.4-3-4.5-3.9-6c-.9 1.6-2.3 3.6-3.9 6C596.8 65.1 584 84.3 584 104z"/><path class="fa-primary" d="M352 144l0-32-64 0 0 32 0 176L96 320c-17.7 0-32-14.3-32-32l0-96 0-32L0 160l0 32 0 96c0 53 43 96 96 96l192 0 0 64-128 0-32 0 0 64 32 0 160 0 160 0 32 0 0-64-32 0-128 0 0-64 192 0c53 0 96-43 96-96l0-96 0-32-64 0 0 32 0 96c0 17.7-14.3 32-32 32l-192 0 0-176zM128 176l0-16-32 0 0 16 0 96 0 16 32 0 0-16 0-96zm64 0l0-16-32 0 0 16 0 96 0 16 32 0 0-16 0-96zm64 0l0-16-32 0 0 16 0 96 0 16 32 0 0-16 0-96zm160 0l0-16-32 0 0 16 0 96 0 16 32 0 0-16 0-96zm64 0l0-16-32 0 0 16 0 96 0 16 32 0 0-16 0-96zm64 0l0-16-32 0 0 16 0 96 0 16 32 0 0-16 0-96z"/></svg>