<svg xmlns="http://www.w3.org/2000/svg" viewBox="0 0 640 512"><!--! Font Awesome Pro 6.6.0 by @fontawesome - https://fontawesome.com License - https://fontawesome.com/license (Commercial License) Copyright 2024 Fonticons, Inc. --><defs><style>.fa-secondary{opacity:.4}</style></defs><path class="fa-secondary" d="M0 366.2L0 448l32 0 0-81.8c0-17.4 4-34.5 11.8-50.1l7.8-15.7C75.1 253.6 123 224 175.4 224c28.4 0 56.1 8.7 79.3 25L522.4 436.4C533.2 444 546 448 559.1 448l.9 0c2.5 0 5-.1 7.5-.3c40.7-3.8 72.5-38 72.5-79.7l0-8.1c0-12.7-2.7-25.2-7.8-36.8c-18.1-40.8-54-71-97.4-81.8l-32.1-8c1 5.1 1.9 10.1 2.9 15.2l3.7 19.5 17.7 4.4c33.8 8.4 61.7 32 75.9 63.8c3.3 7.5 5.1 15.6 5.1 23.8l0 8.1c0 26.5-21.5 48-48 48l-.9 0c-6.6 0-13-2-18.3-5.8L273 222.8c-28.6-20-62.7-30.8-97.7-30.8c-11.4 0-22.5 1.1-33.4 3.3C91 205.5 46.8 238.6 23 286.1l-7.8 15.7c-10 20-15.2 42-15.2 64.4z"/><path class="fa-primary" d="M141.9 195.3L160 96 400 32l64 0 38.7 201.2 2.9 15.2 3.7 19.5 17.7 4.4c33.8 8.4 61.7 32 75.9 63.8c3.3 7.5 5.1 15.6 5.1 23.8l0 8.1c0 26.5-21.5 48-48 48l-.9 0c-6.6 0-13-2-18.3-5.8L273 222.8c-28.6-20-62.7-30.8-97.7-30.8c-11.4 0-22.5 1.1-33.4 3.3zM32 448l0-81.8c0-17.4 4-34.5 11.8-50.1l7.8-15.7C75.1 253.6 123 224 175.4 224c28.4 0 56.1 8.7 79.3 25L522.4 436.4C533.2 444 546 448 559.1 448L544 448 96 448l-64 0zm528 0c2.5 0 5-.1 7.5-.3l.5 .3-8 0z"/></svg>