<svg xmlns="http://www.w3.org/2000/svg" viewBox="0 0 512 512"><!--! Font Awesome Pro 6.6.0 by @fontawesome - https://fontawesome.com License - https://fontawesome.com/license (Commercial License) Copyright 2024 Fonticons, Inc. --><defs><style>.fa-secondary{opacity:.4}</style></defs><path class="fa-secondary" d="M0 288L0 392l0 24 48 0 0-24 0-104C48 173.1 141.1 80 256 80s208 93.1 208 208l0 104 0 24 48 0 0-24 0-104C512 146.6 397.4 32 256 32S0 146.6 0 288z"/><path class="fa-primary" d="M192 288L80 288l0 192 112 0 0-192zm128 0l0 192 112 0 0-192-112 0z"/></svg>