<svg xmlns="http://www.w3.org/2000/svg" viewBox="0 0 512 512"><!--! Font Awesome Pro 6.6.0 by @fontawesome - https://fontawesome.com License - https://fontawesome.com/license (Commercial License) Copyright 2024 Fonticons, Inc. --><defs><style>.fa-secondary{opacity:.4}</style></defs><path class="fa-secondary" d="M224.3 0C100.4 0 0 100.4 0 224.3c0 58.7 23 115 64 156.9L64 480l0 32 32 0 192 0 32 0 0-32 0-32 96 0 32 0 0-32 0-96 32 0 32 0 0-32 0-16 0-11.2-7-8.8-57.3-71.7C441.6 79.7 358.1 0 256 0L224.3 0zm0 0L256 0l0 32 0 74.8c37.8 18 64 56.5 64 101.2c0 61.9-50.1 112-112 112s-112-50.1-112-112c0-44.7 26.2-83.2 64-101.2L160 32l0-22.6C180.4 3.3 202 0 224.3 0z"/><path class="fa-primary" d="M224.3 0L256 0l0 32 0 74.8c37.8 18 64 56.5 64 101.2c0 61.9-50.1 112-112 112s-112-50.1-112-112c0-44.7 26.2-83.2 64-101.2L160 32l0-22.6C180.4 3.3 202 0 224.3 0zM272 208a64 64 0 1 0 -128 0 64 64 0 1 0 128 0zm-96 0a32 32 0 1 1 64 0 32 32 0 1 1 -64 0z"/></svg>