<svg xmlns="http://www.w3.org/2000/svg" viewBox="0 0 640 512"><!--! Font Awesome Pro 6.6.0 by @fontawesome - https://fontawesome.com License - https://fontawesome.com/license (Commercial License) Copyright 2024 Fonticons, Inc. --><defs><style>.fa-secondary{opacity:.4}</style></defs><path class="fa-secondary" d="M0 224.3C0 100.4 100.4 0 224.3 0L256 0C358.1 0 441.6 79.7 447.7 180.3L505 252l7 8.8 0 11.2 0 16 0 32-32 0-32 0 0 32L320 368l0 40 128 8 0 64-128 0 0 32-32 0-32 0L96 512l-32 0 0-32 0-98.8C23 339.3 0 283 0 224.3zM320 192a32 32 0 1 0 64 0 32 32 0 1 0 -64 0z"/><path class="fa-primary" d="M592 288a24 24 0 1 1 48 0 24 24 0 1 1 -48 0zm-40 24a24 24 0 1 1 0 48 24 24 0 1 1 0-48zm-64 48a24 24 0 1 1 0 48 24 24 0 1 1 0-48zm128 0a24 24 0 1 1 0 48 24 24 0 1 1 0-48zM592 480a24 24 0 1 1 48 0 24 24 0 1 1 -48 0zm-40-72a24 24 0 1 1 0 48 24 24 0 1 1 0-48z"/></svg>