<svg xmlns="http://www.w3.org/2000/svg" viewBox="0 0 576 512"><!--! Font Awesome Pro 6.6.0 by @fontawesome - https://fontawesome.com License - https://fontawesome.com/license (Commercial License) Copyright 2024 Fonticons, Inc. --><defs><style>.fa-secondary{opacity:.4}</style></defs><path class="fa-secondary" d="M0 167.8c0 36 14.3 70.5 39.8 96L64 288 256 480l23.7-23.7c-15.1-26-23.7-56.1-23.7-88.3c0-97.2 78.8-176 176-176c26.4 0 51.4 5.8 73.8 16.2c4-13 6.2-26.6 6.2-40.4C512 92.8 451.2 32 376.2 32c-36 0-70.5 14.3-96 39.8L256 96 231.8 71.8c-25.5-25.5-60-39.8-96-39.8C60.8 32 0 92.8 0 167.8z"/><path class="fa-primary" d="M288 368a144 144 0 1 1 288 0 144 144 0 1 1 -288 0zm214.6-48L480 297.4l-11.3 11.3L432 345.4l-36.7-36.7L384 297.4 361.4 320l11.3 11.3L409.4 368l-36.7 36.7L361.4 416 384 438.6l11.3-11.3L432 390.6l36.7 36.7L480 438.6 502.6 416l-11.3-11.3L454.6 368l36.7-36.7L502.6 320z"/></svg>