<svg xmlns="http://www.w3.org/2000/svg" viewBox="0 0 640 512"><!--! Font Awesome Pro 6.6.0 by @fontawesome - https://fontawesome.com License - https://fontawesome.com/license (Commercial License) Copyright 2024 Fonticons, Inc. --><defs><style>.fa-secondary{opacity:.4}</style></defs><path class="fa-secondary" d="M128 0l0 64 192 0 0 64 64 0 0-64 192 0 0-64L128 0zm96 448l0 64 384 0 32 0 0-32 0-64-64 0 0 32-352 0z"/><path class="fa-primary" d="M384 384l-96 0L192 256 32 192 0 64l64 0 48 64 272 0 32 0c88.4 0 160 71.6 160 160l0 64 0 32-32 0-160 0zm0-64l128 0 0-32c0-53-43-96-96-96l-32 0 0 128z"/></svg>