<svg xmlns="http://www.w3.org/2000/svg" viewBox="0 0 512 512"><!--! Font Awesome Pro 6.6.0 by @fontawesome - https://fontawesome.com License - https://fontawesome.com/license (Commercial License) Copyright 2024 Fonticons, Inc. --><defs><style>.fa-secondary{opacity:.4}</style></defs><path class="fa-secondary" d="M0 256L128 32l256 0L512 256 384 480l-256 0L0 256zm158.1-64c5.7 5.7 11.3 11.3 17 17c15.7 15.7 31.4 31.4 47 47c-15.7 15.7-31.4 31.4-47 47c-5.7 5.7-11.3 11.3-17 17c11.3 11.3 22.6 22.6 33.9 33.9l17-17c15.7-15.7 31.4-31.4 47-47l47 47 17 17L353.9 320c-5.7-5.7-11.3-11.3-17-17c-15.7-15.7-31.4-31.4-47-47c15.7-15.7 31.4-31.4 47-47c5.7-5.7 11.3-11.3 17-17c-11.3-11.3-22.6-22.6-33.9-33.9c-5.7 5.7-11.3 11.3-17 17c-15.7 15.7-31.4 31.4-47 47c-15.7-15.7-31.4-31.4-47-47c-5.7-5.7-11.3-11.3-17-17c-11.3 11.3-22.6 22.6-33.9 33.9z"/><path class="fa-primary" d="M337 209l17-17L320 158.1l-17 17-47 47-47-47-17-17L158.1 192l17 17 47 47-47 47-17 17L192 353.9l17-17 47-47 47 47 17 17L353.9 320l-17-17-47-47 47-47z"/></svg>