<svg xmlns="http://www.w3.org/2000/svg" viewBox="0 0 640 512"><!--! Font Awesome Pro 6.6.0 by @fontawesome - https://fontawesome.com License - https://fontawesome.com/license (Commercial License) Copyright 2024 Fonticons, Inc. --><defs><style>.fa-secondary{opacity:.4}</style></defs><path class="fa-secondary" d="M0 96l0 96 80 0 16 0 0 32-16 0L0 224l0 64 80 0 16 0 0 32-16 0L0 320 0 512l160 0 0-416L0 96zm480 0l0 416 160 0 0-192-80 0-16 0 0-32 16 0 80 0 0-64-80 0-16 0 0-32 16 0 80 0 0-96L480 96z"/><path class="fa-primary" d="M480 0L160 0l0 512 112 0 0-128 96 0 0 128 112 0L480 0zM344 64l0 40 40 0 0 48-40 0 0 40-48 0 0-40-40 0 0-48 40 0 0-40 48 0zM560 224l80 0 0-32-80 0-16 0 0 32 16 0zm0 96l80 0 0-32-80 0-16 0 0 32 16 0zM0 224l80 0 16 0 0-32-16 0L0 192l0 32zm0 96l80 0 16 0 0-32-16 0L0 288l0 32z"/></svg>