<svg xmlns="http://www.w3.org/2000/svg" viewBox="0 0 576 512"><!--! Font Awesome Pro 6.6.0 by @fontawesome - https://fontawesome.com License - https://fontawesome.com/license (Commercial License) Copyright 2024 Fonticons, Inc. --><defs><style>.fa-secondary{opacity:.4}</style></defs><path class="fa-secondary" d="M0 64l224 0 0 64-32 0 0 32 32 0 128 0 32 0 0-32-32 0 0-64 224 0 0 448L0 512 0 64zM176 448l224 0-32-64-160 0-32 64zm48-160a64 64 0 1 0 128 0 64 64 0 1 0 -128 0z"/><path class="fa-primary" d="M352 0L224 0l0 128 128 0L352 0zm0 288a64 64 0 1 0 -128 0 64 64 0 1 0 128 0zm16 96l-160 0-32 64 224 0-32-64z"/></svg>