<svg xmlns="http://www.w3.org/2000/svg" viewBox="0 0 384 512"><!--! Font Awesome Pro 6.6.0 by @fontawesome - https://fontawesome.com License - https://fontawesome.com/license (Commercial License) Copyright 2024 Fonticons, Inc. --><defs><style>.fa-secondary{opacity:.4}</style></defs><path class="fa-secondary" d="M0 0L0 512l384 0L384 0 0 0zM80 384l32-96 160 0 32 96L80 384zM256 192a64 64 0 1 1 -128 0 64 64 0 1 1 128 0z"/><path class="fa-primary" d="M192 256a64 64 0 1 0 0-128 64 64 0 1 0 0 128zM304 384l-32-96-160 0L80 384l224 0z"/></svg>