<svg xmlns="http://www.w3.org/2000/svg" viewBox="0 0 512 512"><!--! Font Awesome Pro 6.6.0 by @fontawesome - https://fontawesome.com License - https://fontawesome.com/license (Commercial License) Copyright 2024 Fonticons, Inc. --><defs><style>.fa-secondary{opacity:.4}</style></defs><path class="fa-secondary" d="M0 398.1L0 408l0 80 0 24 24 0 80 0 24 0 0-24 0-40 40 0 24 0 0-24 0-40 40 0 9.9 0 7-7c11.1-11.1 22.2-22.2 33.3-33.3c-38-38-76-76-113.9-113.9C114.6 283.5 60.8 337.2 7 391l-7 7z"/><path class="fa-primary" d="M168.3 229.7L282.3 343.7s0 0 0 0c16.9 5.4 35 8.3 53.7 8.3c97.2 0 176-78.8 176-176S433.2 0 336 0S160 78.8 160 176c0 18.7 2.9 36.8 8.3 53.7c0 0 0 0 0 0zM336 136a40 40 0 1 1 80 0 40 40 0 1 1 -80 0z"/></svg>