<svg xmlns="http://www.w3.org/2000/svg" viewBox="0 0 640 512"><!--! Font Awesome Pro 6.6.0 by @fontawesome - https://fontawesome.com License - https://fontawesome.com/license (Commercial License) Copyright 2024 Fonticons, Inc. --><defs><style>.fa-secondary{opacity:.4}</style></defs><path class="fa-secondary" d="M64 512l512 0L512 384l-384 0L64 512zM192 288l0 64 256 0 0-64-256 0z"/><path class="fa-primary" d="M344 0l0 24 0 144 0 24-48 0 0-24 0-144 0-24 48 0zM49.9 118.6l19.7 13.7 104 72 19.7 13.7-27.3 39.5-19.7-13.7-104-72L22.6 158.1l27.3-39.5zm567.5 39.5l-19.7 13.7-104 72-19.7 13.7-27.3-39.5 19.7-13.7 104-72 19.7-13.7 27.3 39.5z"/></svg>