<svg xmlns="http://www.w3.org/2000/svg" viewBox="0 0 640 512"><!--! Font Awesome Pro 6.6.0 by @fontawesome - https://fontawesome.com License - https://fontawesome.com/license (Commercial License) Copyright 2024 Fonticons, Inc. --><defs><style>.fa-secondary{opacity:.4}</style></defs><path class="fa-secondary" d="M0 384l0 48 48 48 544 0 48-48 0-48L0 384zM64 32l0 32 0 288 64 0 0-256 168 0 0-64L96 32 64 32zm280 0l0 64 168 0 0 256 64 0 0-288 0-32-32 0L344 32z"/><path class="fa-primary" d="M296 96L128 96l0 256 384 0 0-256L344 96l0 110.1 39-39 17-17L433.9 184l-17 17-80 80-17 17-17-17-80-80-17-17L240 150.1l17 17 39 39L296 96z"/></svg>