<svg xmlns="http://www.w3.org/2000/svg" viewBox="0 0 512 512"><!--! Font Awesome Pro 6.6.0 by @fontawesome - https://fontawesome.com License - https://fontawesome.com/license (Commercial License) Copyright 2024 Fonticons, Inc. --><defs><style>.fa-secondary{opacity:.4}</style></defs><path class="fa-secondary" d="M0 256C0 196.9 20.3 142.5 53.9 99.2c1.1 1.1 2.3 2.3 3.4 3.4c37.3 37.3 74.7 74.7 112 112c-5.9 12.6-9.4 26.6-9.4 41.4s3.5 28.8 9.4 41.4l-112 112c-1.1 1.1-2.3 2.3-3.4 3.4C20.3 369.5 0 315.1 0 256zM99.2 53.9C142.5 20.3 196.9 0 256 0s113.5 20.3 156.8 53.9c-1.1 1.1-2.3 2.3-3.4 3.4c-37.3 37.3-74.6 74.7-112 112c-12.6-5.9-26.6-9.4-41.4-9.4s-28.8 3.5-41.4 9.4C177.3 132 140 94.7 102.6 57.4c-1.1-1.1-2.3-2.3-3.4-3.4zm0 404.1c1.1-1.1 2.3-2.3 3.4-3.4c37.3-37.3 74.6-74.7 112-112c12.6 5.9 26.5 9.4 41.4 9.4s28.8-3.5 41.4-9.4c37.3 37.4 74.6 74.7 112 112c1.1 1.1 2.3 2.3 3.4 3.4C369.5 491.7 315.1 512 256 512s-113.5-20.3-156.8-53.9zM342.6 214.6l112-112c1.1-1.1 2.3-2.3 3.4-3.4C491.7 142.5 512 196.9 512 256s-20.3 113.5-53.9 156.8c-1.1-1.1-2.3-2.3-3.4-3.4c-37.3-37.3-74.7-74.7-112-112c5.9-12.6 9.4-26.6 9.4-41.4s-3.5-28.8-9.4-41.4z"/><path class="fa-primary" d="M80 34.7L34.7 80l22.6 22.6 112 112c9.5-19.8 25.5-35.8 45.3-45.3l-112-112L80 34.7zm89.4 262.6l-112 112L34.7 432 80 477.3l22.6-22.6 112-112c-19.8-9.5-35.8-25.5-45.3-45.3zm128 45.3l112 112L432 477.3 477.3 432l-22.6-22.6-112-112c-9.5 19.8-25.5 35.8-45.3 45.3zm45.3-128l112-112L477.3 80 432 34.7 409.4 57.4l-112 112c19.8 9.5 35.8 25.5 45.3 45.3z"/></svg>