<svg xmlns="http://www.w3.org/2000/svg" viewBox="0 0 640 512"><!--! Font Awesome Pro 6.6.0 by @fontawesome - https://fontawesome.com License - https://fontawesome.com/license (Commercial License) Copyright 2024 Fonticons, Inc. --><defs><style>.fa-secondary{opacity:.4}</style></defs><path class="fa-secondary" d="M152.4 229.8c5.4 16.8 13.2 32.4 23 46.6c5 7.2 10.2 14.3 15.4 21.4c19.8 27.1 39.7 54.4 49.2 86.2l108.1 0L152.4 229.8zm8-128l52.7 40.9C227.3 97.1 269.8 64 320 64l0 32c-40.2 0-73.4 29.6-79.1 68.2L436.2 315.9c4.3-6.1 8.7-12.1 13.1-18.1c5.2-7.1 10.4-14.2 15.4-21.4c19.8-28.5 31.4-63 31.4-100.3C496 78.8 417.2 0 320 0C249.3 0 188.4 41.7 160.4 101.7zM240 416l0 96 160 0 0-87.1L388.7 416 240 416z"/><path class="fa-primary" d="M29.4 .1l19 14.7L620.9 459.3l19 14.7-29.4 37.9-19-14.7L19 52.7 0 38 29.4 .1z"/></svg>