<svg xmlns="http://www.w3.org/2000/svg" viewBox="0 0 384 512"><!--! Font Awesome Pro 6.6.0 by @fontawesome - https://fontawesome.com License - https://fontawesome.com/license (Commercial License) Copyright 2024 Fonticons, Inc. --><defs><style>.fa-secondary{opacity:.4}</style></defs><path class="fa-secondary" d="M16 176c0 37.3 11.6 71.9 31.4 100.3c5 7.2 10.2 14.3 15.4 21.4c19.8 27.1 39.7 54.4 49.2 86.2l160 0c9.6-31.9 29.5-59.1 49.2-86.2c5.2-7.1 10.4-14.2 15.4-21.4c19.8-28.5 31.4-63 31.4-100.3C368 78.8 289.2 0 192 0S16 78.8 16 176zM168 64l48 0 0 24 0 112 0 24-48 0 0-24 0-112 0-24zm0 192l48 0 0 48-48 0 0-48z"/><path class="fa-primary" d="M112 384V512H272V384H112z"/></svg>