<svg xmlns="http://www.w3.org/2000/svg" viewBox="0 0 384 512"><!--! Font Awesome Pro 6.6.0 by @fontawesome - https://fontawesome.com License - https://fontawesome.com/license (Commercial License) Copyright 2024 Fonticons, Inc. --><defs><style>.fa-secondary{opacity:.4}</style></defs><path class="fa-secondary" d="M96 96l0 160 192 0 0-160L96 96z"/><path class="fa-primary" d="M0 0L384 0l0 512L0 512 0 0zM96 416l192 0 0-320L96 96l0 320zM208 48a16 16 0 1 0 -32 0 16 16 0 1 0 32 0zm0 416a16 16 0 1 0 -32 0 16 16 0 1 0 32 0z"/></svg>