<svg xmlns="http://www.w3.org/2000/svg" viewBox="0 0 512 512"><!--! Font Awesome Pro 6.6.0 by @fontawesome - https://fontawesome.com License - https://fontawesome.com/license (Commercial License) Copyright 2024 Fonticons, Inc. --><defs><style>.fa-secondary{opacity:.4}</style></defs><path class="fa-secondary" d="M160 64l32 0 288 0 32 0 0 64-32 0-288 0-32 0 0-64zM288 224l32 0 160 0 32 0 0 64-32 0-160 0-32 0 0-64zm0 160l32 0 160 0 32 0 0 64-32 0-160 0-32 0 0-64z"/><path class="fa-primary" d="M96 48L0 48l0 96 24 0 0 112 0 160 0 24 24 0 80 0 0 24 96 0 0-96-96 0 0 24-56 0 0-112 56 0 0 24 96 0 0-96-96 0 0 24-56 0 0-88 24 0 0-96z"/></svg>