<svg xmlns="http://www.w3.org/2000/svg" viewBox="0 0 512 512"><!--! Font Awesome Pro 6.6.0 by @fontawesome - https://fontawesome.com License - https://fontawesome.com/license (Commercial License) Copyright 2024 Fonticons, Inc. --><defs><style>.fa-secondary{opacity:.4}</style></defs><path class="fa-secondary" d="M160 384l0 64 32 0 288 0 32 0 0-64-32 0-288 0-32 0zM224 64l0 64 32 0 224 0 32 0 0-64-32 0L256 64l-32 0zm0 160l0 64 32 0 224 0 32 0 0-64-32 0-224 0-32 0z"/><path class="fa-primary" d="M153.8 72.1l16.1-17.8L134.2 22.1 118.2 39.9 63.1 101.1 41 79l-17-17L-9.9 96 7 113l40 40 17.9 17.9 16.9-18.8 72-80zm0 160l16.1-17.8-35.7-32.1-16.1 17.8L63.1 261.1 41 239l-17-17L-9.9 256 7 273l40 40 17.9 17.9 16.9-18.8 72-80zM48 464a48 48 0 1 0 0-96 48 48 0 1 0 0 96z"/></svg>