<svg xmlns="http://www.w3.org/2000/svg" viewBox="0 0 384 512"><!--! Font Awesome Pro 6.6.0 by @fontawesome - https://fontawesome.com License - https://fontawesome.com/license (Commercial License) Copyright 2024 Fonticons, Inc. --><defs><style>.fa-secondary{opacity:.4}</style></defs><path class="fa-secondary" d="M0 192C0 304 192 512 192 512s192-208 192-320C384 86 298 0 192 0S0 86 0 192zm94.1-64c11.3-11.3 22.6-22.6 33.9-33.9c5.7 5.7 11.3 11.3 17 17c15.7 15.7 31.3 31.3 47 47c15.7-15.7 31.3-31.3 47-47c5.7-5.7 11.3-11.3 17-17c11.3 11.3 22.6 22.6 33.9 33.9c-5.7 5.7-11.3 11.3-17 17c-15.7 15.7-31.3 31.3-47 47c15.7 15.7 31.4 31.4 47 47c5.7 5.7 11.3 11.3 17 17c-11.3 11.3-22.6 22.6-33.9 33.9l-17-17-47-47c-15.7 15.7-31.3 31.4-47 47l-17 17c-11.3-11.3-22.6-22.6-33.9-33.9c5.7-5.7 11.3-11.3 17-17c15.7-15.7 31.4-31.4 47-47c-15.7-15.7-31.3-31.3-47-47c-5.7-5.7-11.3-11.3-17-17z"/><path class="fa-primary" d="M273 145l17-17L256 94.1l-17 17-47 47-47-47-17-17L94.1 128l17 17 47 47-47 47-17 17L128 289.9l17-17 47-47 47 47 17 17L289.9 256l-17-17-47-47 47-47z"/></svg>