<svg xmlns="http://www.w3.org/2000/svg" viewBox="0 0 576 512"><!--! Font Awesome Pro 6.6.0 by @fontawesome - https://fontawesome.com License - https://fontawesome.com/license (Commercial License) Copyright 2024 Fonticons, Inc. --><defs><style>.fa-secondary{opacity:.4}</style></defs><path class="fa-secondary" d="M288 144l0 48 64 0 0-48c0-44.2 35.8-80 80-80s80 35.8 80 80l0 48 0 32 64 0 0-32 0-48C576 64.5 511.5 0 432 0S288 64.5 288 144z"/><path class="fa-primary" d="M448 192L0 192 0 512l448 0 0-320zM256 384l-64 0-32 0 0-64 32 0 64 0 32 0 0 64-32 0z"/></svg>