<svg xmlns="http://www.w3.org/2000/svg" viewBox="0 0 512 512"><!--! Font Awesome Pro 6.6.0 by @fontawesome - https://fontawesome.com License - https://fontawesome.com/license (Commercial License) Copyright 2024 Fonticons, Inc. --><defs><style>.fa-secondary{opacity:.4}</style></defs><path class="fa-secondary" d="M0 208a208 208 0 1 0 416 0A208 208 0 1 0 0 208zm104-16l48 0 0 24 0 64 0 24-48 0 0-24 0-64 0-24zm80-96l48 0 0 24 0 160 0 24-48 0 0-24 0-160 0-24zm80 64l48 0 0 24 0 96 0 24-48 0 0-24 0-96 0-24z"/><path class="fa-primary" d="M104 216l0-24 48 0 0 24 0 64 0 24-48 0 0-24 0-64zm80-96l0-24 48 0 0 24 0 160 0 24-48 0 0-24 0-160zm80 64l0-24 48 0 0 24 0 96 0 24-48 0 0-24 0-96zM441.4 486.6L330.7 376C348 363.3 363.3 348 376 330.7L486.6 441.4 509.3 464 464 509.3l-22.6-22.6z"/></svg>