<svg xmlns="http://www.w3.org/2000/svg" viewBox="0 0 576 512"><!--! Font Awesome Pro 6.6.0 by @fontawesome - https://fontawesome.com License - https://fontawesome.com/license (Commercial License) Copyright 2024 Fonticons, Inc. --><defs><style>.fa-secondary{opacity:.4}</style></defs><path class="fa-secondary" d="M144 64c79.5 0 144 64.5 144 144l0 240 288 0 0-240c0-79.5-64.5-144-144-144L144 64zM384 192l16 0 64 0 32 0 16 0 0 16 0 64 0 16-16 0-32 0-16 0 0-16 0-48-48 0-16 0 0-32z"/><path class="fa-primary" d="M0 208C0 128.5 64.5 64 144 64s144 64.5 144 144l0 240L0 448 0 208zm64-16l0 32 16 0 128 0 16 0 0-32-16 0L80 192l-16 0zm336 0l64 0 32 0 16 0 0 16 0 64 0 16-16 0-32 0-16 0 0-16 0-48-48 0-16 0 0-32 16 0z"/></svg>