<svg xmlns="http://www.w3.org/2000/svg" viewBox="0 0 512 512"><!--! Font Awesome Pro 6.6.0 by @fontawesome - https://fontawesome.com License - https://fontawesome.com/license (Commercial License) Copyright 2024 Fonticons, Inc. --><defs><style>.fa-secondary{opacity:.4}</style></defs><path class="fa-secondary" d="M0 0L512 0l0 416-208 0L160 512l0-96L0 416 0 0zM150.1 192L184 225.9l17-17 31-31L232 296l0 24 48 0 0-24 0-118.1 31 31 17 17L361.9 192l-17-17-72-72-17-17-17 17-72 72-17 17z"/><path class="fa-primary" d="M280 320l0-24 0-118.1 31 31 17 17L361.9 192l-17-17-72-72-17-17-17 17-72 72-17 17L184 225.9l17-17 31-31L232 296l0 24 48 0z"/></svg>