<svg xmlns="http://www.w3.org/2000/svg" viewBox="0 0 512 512"><!--! Font Awesome Pro 6.6.0 by @fontawesome - https://fontawesome.com License - https://fontawesome.com/license (Commercial License) Copyright 2024 Fonticons, Inc. --><defs><style>.fa-secondary{opacity:.4}</style></defs><path class="fa-secondary" d="M0 309C0 421.1 90.9 512 203 512c72.4 0 139.4-38.6 175.7-101.3L496 208l-59.9 4.6L512 0 299.4 75.9 304 16 101.3 133.4C38.6 169.7 0 236.6 0 309zm320 11A128 128 0 1 1 64 320a128 128 0 1 1 256 0z"/><path class="fa-primary" d="M64 320a128 128 0 1 1 256 0A128 128 0 1 1 64 320zm128-32a32 32 0 1 0 -64 0 32 32 0 1 0 64 0zm16 96a16 16 0 1 0 0-32 16 16 0 1 0 0 32z"/></svg>