<svg xmlns="http://www.w3.org/2000/svg" viewBox="0 0 512 512"><!--! Font Awesome Pro 6.6.0 by @fontawesome - https://fontawesome.com License - https://fontawesome.com/license (Commercial License) Copyright 2024 Fonticons, Inc. --><defs><style>.fa-secondary{opacity:.4}</style></defs><path class="fa-secondary" d="M96 384l0 32 16 0 192 0 16 0 0-32-16 0-192 0-16 0zM160 0l0 32 96 0 0-32L160 0z"/><path class="fa-primary" d="M128 32l160 0 0 288-32 0 0 32-96 0 0-32-32 0 0-288zM512 320c0 49.2-18.5 94-48.9 128l16.9 0 32 0 0 64-32 0-160 0L32 512 0 512l0-64 32 0 288 0c70.7 0 128-57.3 128-128s-57.3-128-128-128l0-64c106 0 192 86 192 192z"/></svg>