<svg xmlns="http://www.w3.org/2000/svg" viewBox="0 0 640 512"><!--! Font Awesome Pro 6.6.0 by @fontawesome - https://fontawesome.com License - https://fontawesome.com/license (Commercial License) Copyright 2024 Fonticons, Inc. --><defs><style>.fa-secondary{opacity:.4}</style></defs><path class="fa-secondary" d="M0 96l0 24L0 456l0 24 24 0 496 0 24 0 0-48-24 0L48 432l0-312 0-24L0 96zm160 64l0 96c35.3 0 64 28.7 64 64l288 0c0-35.3 28.7-64 64-64l0-96c-35.3 0-64-28.7-64-64L224 96c0 35.3-28.7 64-64 64zm288 48a80 80 0 1 1 -160 0 80 80 0 1 1 160 0z"/><path class="fa-primary" d="M640 32L96 32l0 352 544 0 0-352zM512 96c0 35.3 28.7 64 64 64l0 96c-35.3 0-64 28.7-64 64l-288 0c0-35.3-28.7-64-64-64l0-96c35.3 0 64-28.7 64-64l288 0z"/></svg>