<svg xmlns="http://www.w3.org/2000/svg" viewBox="0 0 640 512"><!--! Font Awesome Pro 6.6.0 by @fontawesome - https://fontawesome.com License - https://fontawesome.com/license (Commercial License) Copyright 2024 Fonticons, Inc. --><defs><style>.fa-secondary{opacity:.4}</style></defs><path class="fa-secondary" d="M0 96l0 24L0 456l0 24 24 0 496 0 24 0 0-48-24 0L48 432l0-312 0-24L0 96zM288 208a80 80 0 1 0 160 0 80 80 0 1 0 -160 0z"/><path class="fa-primary" d="M640 32L96 32l0 352 544 0 0-352zM368 128a80 80 0 1 1 0 160 80 80 0 1 1 0-160z"/></svg>