<svg xmlns="http://www.w3.org/2000/svg" viewBox="0 0 576 512"><!--! Font Awesome Pro 6.6.0 by @fontawesome - https://fontawesome.com License - https://fontawesome.com/license (Commercial License) Copyright 2024 Fonticons, Inc. --><defs><style>.fa-secondary{opacity:.4}</style></defs><path class="fa-secondary" d="M96 176l0 112 128 0 0-112-48-48 0-64-32 0 0 64L96 176z"/><path class="fa-primary" d="M144 64l0 64L96 176l0 112 128 0 0-112-48-48 0-64 208 0 32 0 32 0c70.7 0 128 57.3 128 128s-57.3 128-128 128l-32 0 0 128L32 448 32 64l112 0zM416 256l32 0c35.3 0 64-28.7 64-64s-28.7-64-64-64l-32 0 0 128z"/></svg>