<svg xmlns="http://www.w3.org/2000/svg" viewBox="0 0 640 512"><!--! Font Awesome Pro 6.6.0 by @fontawesome - https://fontawesome.com License - https://fontawesome.com/license (Commercial License) Copyright 2024 Fonticons, Inc. --><defs><style>.fa-secondary{opacity:.4}</style></defs><path class="fa-secondary" d="M160 432c0 44.2 50.1 80 112 80s112-35.8 112-80l0-33.5-64-50.4 0 11.6c-14.5-4.9-30.8-7.7-48-7.7c-61.9 0-112 35.8-112 80zM320 51.8l0 25 0 64 0 84.9 64 49.7 0-109.6 103.8-25.9 24.2-6.1 0-25 0-64 0-41-39.8 9.9-128 32L320 51.8z"/><path class="fa-primary" d="M29.4 .1l19 14.7L620.9 459.3l19 14.7-29.4 37.9-19-14.7L18.9 52.7 0 38 29.4 .1z"/></svg>