<svg xmlns="http://www.w3.org/2000/svg" viewBox="0 0 512 512"><!--! Font Awesome Pro 6.6.0 by @fontawesome - https://fontawesome.com License - https://fontawesome.com/license (Commercial License) Copyright 2024 Fonticons, Inc. --><defs><style>.fa-secondary{opacity:.4}</style></defs><path class="fa-secondary" d="M96 32l0 64 0 384 416 0 0-448L96 32zm64 64l160 0 0 128-160 0 0-128zm0 192l16 0 256 0 16 0 0 32-16 0-256 0-16 0 0-32zm0 96l16 0 256 0 16 0 0 32-16 0-256 0-16 0 0-32zM368 96l16 0 48 0 16 0 0 32-16 0-48 0-16 0 0-32zm0 96l16 0 48 0 16 0 0 32-16 0-48 0-16 0 0-32z"/><path class="fa-primary" d="M0 96L0 480l96 0L96 96 0 96zm384 0l-16 0 0 32 16 0 48 0 16 0 0-32-16 0-48 0zm0 96l-16 0 0 32 16 0 48 0 16 0 0-32-16 0-48 0zM176 288l-16 0 0 32 16 0 256 0 16 0 0-32-16 0-256 0zm0 96l-16 0 0 32 16 0 256 0 16 0 0-32-16 0-256 0z"/></svg>