<svg xmlns="http://www.w3.org/2000/svg" viewBox="0 0 512 512"><!--! Font Awesome Pro 6.6.0 by @fontawesome - https://fontawesome.com License - https://fontawesome.com/license (Commercial License) Copyright 2024 Fonticons, Inc. --><defs><style>.fa-secondary{opacity:.4}</style></defs><path class="fa-secondary" d="M96 32l384 0 0 288-96 96L96 416 96 32zm96 160l0 64 64 0 0 64 64 0 0-64 64 0 0-64-64 0 0-64-64 0 0 64-64 0z"/><path class="fa-primary" d="M296 464l24 0 0 48-24 0L24 512 0 512l0-24L0 152l0-24 48 0 0 24 0 312 248 0zM256 128l64 0 0 64 64 0 0 64-64 0 0 64-64 0 0-64-64 0 0-64 64 0 0-64z"/></svg>