<svg xmlns="http://www.w3.org/2000/svg" viewBox="0 0 512 512"><!--! Font Awesome Pro 6.6.0 by @fontawesome - https://fontawesome.com License - https://fontawesome.com/license (Commercial License) Copyright 2024 Fonticons, Inc. --><defs><style>.fa-secondary{opacity:.4}</style></defs><path class="fa-secondary" d="M0 160L160 0 352 0 512 160l0 192L352 512l-192 0L0 352 0 160zm126.1 96c.3 .3 .6 .6 1 1c5.3 5.3 10.7 10.7 16 16c21.3 21.3 42.7 42.7 64 64l17 17 17-17c42.7-42.7 85.3-85.3 128-128c5.3-5.3 10.7-10.7 16-16c.3-.3 .6-.6 1-1L352 158.1l-1 1c-5.3 5.3-10.7 10.7-16 16c-37 37-74 74-111 111c-15.7-15.7-31.4-31.3-47-47c-5.3-5.3-10.7-10.7-16-16c-.3-.3-.6-.6-1-1L126.1 256z"/><path class="fa-primary" d="M385 193L241 337l-17 17-17-17-80-80L161 223l63 63L351 159 385 193z"/></svg>