<svg xmlns="http://www.w3.org/2000/svg" viewBox="0 0 640 512"><!--! Font Awesome Pro 6.6.0 by @fontawesome - https://fontawesome.com License - https://fontawesome.com/license (Commercial License) Copyright 2024 Fonticons, Inc. --><defs><style>.fa-secondary{opacity:.4}</style></defs><path class="fa-secondary" d="M160 64l0 64 64 0 0 32 64 0 0-32 64 0 0-64L160 64zM544 400c0 26.5 21.5 48 48 48s48-16 48-48s-48-96-48-96s-48 64-48 96z"/><path class="fa-primary" d="M96 208l0 86.1L48 272.8 48 208l48 0zM0 304l96 42.7L96 416l288 0 48 0L640 192l-32-32L448 192l-64-32-240 0-48 0-48 0L0 160l0 48 0 96z"/></svg>