<svg xmlns="http://www.w3.org/2000/svg" viewBox="0 0 512 512"><!--! Font Awesome Pro 6.6.0 by @fontawesome - https://fontawesome.com License - https://fontawesome.com/license (Commercial License) Copyright 2024 Fonticons, Inc. --><defs><style>.fa-secondary{opacity:.4}</style></defs><path class="fa-secondary" d="M224 128l192 0 96 96 0 288-288 0 0-384z"/><path class="fa-primary" d="M160 0c-23.7 0-44.4 12.9-55.4 32L0 32 0 448l192 0 0-320 0-32 32 0 96 0 0-64L215.4 32C204.4 12.9 183.7 0 160 0zm0 40a24 24 0 1 1 0 48 24 24 0 1 1 0-48z"/></svg>