<svg xmlns="http://www.w3.org/2000/svg" viewBox="0 0 512 512"><!--! Font Awesome Pro 6.6.0 by @fontawesome - https://fontawesome.com License - https://fontawesome.com/license (Commercial License) Copyright 2024 Fonticons, Inc. --><defs><style>.fa-secondary{opacity:.4}</style></defs><path class="fa-secondary" d="M0 128L105.4 233.4l128-128L195.3 67.3l-56 56L128 134.6 105.4 112l11.3-11.3 56-56L128 0 0 128zM278.6 406.6L384 512 512 384l-44.7-44.7-56 56L400 406.6 377.4 384l11.3-11.3 56-56-38.1-38.1-128 128z"/><path class="fa-primary" d="M0 512L32 352 292.7 91.3l128 128L160 480 0 512zM443.3 196.7l-128-128L384 0 512 128l-68.7 68.7z"/></svg>