<svg xmlns="http://www.w3.org/2000/svg" viewBox="0 0 640 512"><!--! Font Awesome Pro 6.6.0 by @fontawesome - https://fontawesome.com License - https://fontawesome.com/license (Commercial License) Copyright 2024 Fonticons, Inc. --><defs><style>.fa-secondary{opacity:.4}</style></defs><path class="fa-secondary" d="M64 512l160-32L340.1 363.9 196.9 251.1 96 352 64 512zM191.9 126.2c12.7 9.9 25.5 19.8 38.2 29.7L288 97.9l31 31-54 54c48 37.3 96.1 74.6 144.1 111.9L447 257l33-33 1-1L305 47l-17-17L271 47l-79.2 79.2zM375.6 72.4l128 128L576 128 448 0 375.6 72.4z"/><path class="fa-primary" d="M29.4 .1l19 14.7L620.9 459.3l19 14.7-29.4 37.9-19-14.7L19 52.7 0 38 29.4 .1z"/></svg>