<svg xmlns="http://www.w3.org/2000/svg" viewBox="0 0 512 512"><!--! Font Awesome Pro 6.6.0 by @fontawesome - https://fontawesome.com License - https://fontawesome.com/license (Commercial License) Copyright 2024 Fonticons, Inc. --><defs><style>.fa-secondary{opacity:.4}</style></defs><path class="fa-secondary" d="M0 64l32 0 160 0 32 0 0 64-32 0L64 128l0 320 320 0 0-128 0-32 64 0 0 32 0 160 0 32-32 0L32 512 0 512l0-32L0 96 0 64z"/><path class="fa-primary" d="M128 384l16-112L340.7 75.3l96 96L240 368 128 384zM459.3 148.7l-96-96L416 0l96 96-52.7 52.7z"/></svg>