<svg xmlns="http://www.w3.org/2000/svg" viewBox="0 0 512 512"><!--! Font Awesome Pro 6.6.0 by @fontawesome - https://fontawesome.com License - https://fontawesome.com/license (Commercial License) Copyright 2024 Fonticons, Inc. --><defs><style>.fa-secondary{opacity:.4}</style></defs><path class="fa-secondary" d="M368 64L432 0l80 80-64 64c-6-6-12-12-17.9-17.9c-14.7-14.7-29.4-29.4-44.1-44.1C380 76 374 70 368 64z"/><path class="fa-primary" d="M248 14.1l17 17 52 52 1.1-1.1L352 48l33.9 33.9 44.1 44.1L464 160l-33.9 33.9L176 448 64 480s0 0 0 0L32 512 0 480l32-32L64 336 283 117l-35-35L137 193l-17 17L86.1 176l17-17L231 31l17-17zM149.6 405.6l-43.2-43.2L89.1 422.9l60.5-17.3z"/></svg>