<svg xmlns="http://www.w3.org/2000/svg" viewBox="0 0 640 512"><!--! Font Awesome Pro 6.6.0 by @fontawesome - https://fontawesome.com License - https://fontawesome.com/license (Commercial License) Copyright 2024 Fonticons, Inc. --><defs><style>.fa-secondary{opacity:.4}</style></defs><path class="fa-secondary" d="M112 48a48 48 0 1 0 96 0 48 48 0 1 0 -96 0zm320 0a48 48 0 1 0 96 0 48 48 0 1 0 -96 0z"/><path class="fa-primary" d="M91.4 128l17.5 0 102.2 0 17.5 0 9.4 14.8 81.7 128-53.9 34.4-42-65.8L272 384l-40 0 0 96 0 32-64 0 0-32 0-96-16 0 0 96 0 32-64 0 0-32 0-96-40 0L96.2 239.4l-42 65.8L.2 270.8 82 142.8 91.4 128zm320 0l17.5 0 102.2 0 17.5 0 9.4 14.8 81.7 128-53.9 34.4-42-65.8L592 384l-40 0 0 96 0 32-64 0 0-32 0-96-16 0 0 96 0 32-64 0 0-32 0-96-40 0 48.2-144.6-42 65.8-53.9-34.4 81.7-128 9.4-14.8z"/></svg>