<svg xmlns="http://www.w3.org/2000/svg" viewBox="0 0 512 512"><!--! Font Awesome Pro 6.6.0 by @fontawesome - https://fontawesome.com License - https://fontawesome.com/license (Commercial License) Copyright 2024 Fonticons, Inc. --><defs><style>.fa-secondary{opacity:.4}</style></defs><path class="fa-secondary" d="M64 64a64 64 0 1 0 128 0A64 64 0 1 0 64 64zm256 0a64 64 0 1 0 128 0A64 64 0 1 0 320 64z"/><path class="fa-primary" d="M64 160l128 0 64 224-64 0 0 128L64 512l0-128L0 384 64 160zM256 384l64-224 128 0 64 224-64 0 0 128-128 0 0-128-64 0z"/></svg>