<svg xmlns="http://www.w3.org/2000/svg" viewBox="0 0 576 512"><!--! Font Awesome Pro 6.6.0 by @fontawesome - https://fontawesome.com License - https://fontawesome.com/license (Commercial License) Copyright 2024 Fonticons, Inc. --><defs><style>.fa-secondary{opacity:.4}</style></defs><path class="fa-secondary" d="M.2 270.8l53.9 34.4 33.8-53L88 480l0 32 64 0 0-32 0-128 16 0 0 128 0 32 64 0 0-32 0-227.8 33.8 53 2.3-1.4c8.4-21.4 20.8-40.7 36.3-57L238 142.8 228.6 128l-17.5 0-102.2 0-17.5 0-9.4 14.8L.2 270.8zM112 48a48 48 0 1 0 96 0 48 48 0 1 0 -96 0z"/><path class="fa-primary" d="M432 512a144 144 0 1 0 0-288 144 144 0 1 0 0 288zm67.3-164.7l-72 72L416 430.6l-11.3-11.3-40-40L353.4 368 376 345.4l11.3 11.3L416 385.4l60.7-60.7L488 313.4 510.6 336l-11.3 11.3z"/></svg>