<svg xmlns="http://www.w3.org/2000/svg" viewBox="0 0 512 512"><!--! Font Awesome Pro 6.6.0 by @fontawesome - https://fontawesome.com License - https://fontawesome.com/license (Commercial License) Copyright 2024 Fonticons, Inc. --><defs><style>.fa-secondary{opacity:.4}</style></defs><path class="fa-secondary" d="M272 432l96 80 16 0 0-56 104 0 24 0 0-48-24 0-104 0 0-56-16 0-96 80zm16-112l192 0L448 192l-128 0L288 320zM320 96a64 64 0 1 0 128 0A64 64 0 1 0 320 96z"/><path class="fa-primary" d="M200 0L56 14.1l0 32 144 0L200 0zM189.5 78.1l-122.9 0C64.9 83.8 64 89.8 64 96c0 35.3 28.7 64 64 64s64-28.7 64-64c0-6.2-.9-12.2-2.5-17.9zM192 192L83.8 192 217.8 295 192 192zM32 320l165.8 0L58.7 213.1 32 320zm96 136l0 56 16 0 96-80-96-80-16 0 0 56L24 408 0 408l0 48 24 0 104 0z"/></svg>