<svg xmlns="http://www.w3.org/2000/svg" viewBox="0 0 512 512"><!--! Font Awesome Pro 6.6.0 by @fontawesome - https://fontawesome.com License - https://fontawesome.com/license (Commercial License) Copyright 2024 Fonticons, Inc. --><defs><style>.fa-secondary{opacity:.4}</style></defs><path class="fa-secondary" d="M160 32l0 448 352 0 0-448L160 32zm64 64l224 0 0 160-224 0 0-160zm96 272a48 48 0 1 1 -96 0 48 48 0 1 1 96 0zm32-48l16 0 64 0 16 0 0 32-16 0-64 0-16 0 0-32zm0 64l16 0 64 0 16 0 0 32-16 0-64 0-16 0 0-32z"/><path class="fa-primary" d="M128 32L0 32 0 480l128 0 0-448zM368 320l-16 0 0 32 16 0 64 0 16 0 0-32-16 0-64 0zm0 64l-16 0 0 32 16 0 64 0 16 0 0-32-16 0-64 0z"/></svg>