<svg xmlns="http://www.w3.org/2000/svg" viewBox="0 0 576 512"><!--! Font Awesome Pro 6.6.0 by @fontawesome - https://fontawesome.com License - https://fontawesome.com/license (Commercial License) Copyright 2024 Fonticons, Inc. --><defs><style>.fa-secondary{opacity:.4}</style></defs><path class="fa-secondary" d="M32 32L176 0l80 144-83.8 67c36.1 68.4 92.3 124.6 160.8 160.8L400 288l144 80L512 512l-32 0C232.6 512 32 311.4 32 64l0-32z"/><path class="fa-primary" d="M424 200l0 24 48 0 0-24 0-64 64 0 24 0 0-48-24 0-64 0 0-64 0-24L424 0l0 24 0 64-64 0-24 0 0 48 24 0 64 0 0 64z"/></svg>