<svg xmlns="http://www.w3.org/2000/svg" viewBox="0 0 640 512"><!--! Font Awesome Pro 6.6.0 by @fontawesome - https://fontawesome.com License - https://fontawesome.com/license (Commercial License) Copyright 2024 Fonticons, Inc. --><defs><style>.fa-secondary{opacity:.4}</style></defs><path class="fa-secondary" d="M32 128L64 256 32 384l64 0 48-64 102.9 0L192 512l96 0 74.5-130.4L40.6 128 32 128zM192 0l46.4 162.3L441.5 320l72.8 0c34.2 0 93.7-28 93.7-64c0-35-59.5-64-93.7-64l-116.6 0L288 0 192 0z"/><path class="fa-primary" d="M29.4 .1l19 14.7L620.9 459.3l19 14.7-29.4 37.9-19-14.7L19 52.7 0 38 29.4 .1z"/></svg>