<svg xmlns="http://www.w3.org/2000/svg" viewBox="0 0 640 512"><!--! Font Awesome Pro 6.6.0 by @fontawesome - https://fontawesome.com License - https://fontawesome.com/license (Commercial License) Copyright 2024 Fonticons, Inc. --><defs><style>.fa-secondary{opacity:.4}</style></defs><path class="fa-secondary" d="M0 448l32 0 576 0 32 0 0 64-32 0L32 512 0 512l0-64z"/><path class="fa-primary" d="M381 114.9L160 32 64 80 234.6 189.7 136 240 64 208 0 240 96 352l160 0L535.6 212.2c46.5-23.3 82.5-63.3 100.8-112C645.9 75 627.2 48 600.2 48l-57.4 0c-20.2 0-40.2 4.8-58.2 14L381 114.9z"/></svg>