<svg xmlns="http://www.w3.org/2000/svg" viewBox="0 0 384 512"><!--! Font Awesome Pro 6.6.0 by @fontawesome - https://fontawesome.com License - https://fontawesome.com/license (Commercial License) Copyright 2024 Fonticons, Inc. --><defs><style>.fa-secondary{opacity:.4}</style></defs><path class="fa-secondary" d="M32 96l320 0 0 416L32 512l0-96 112 0 16 0 0-32-16 0L32 384l0-64 112 0 16 0 0-32-16 0L32 288l0-64 112 0 16 0 0-32-16 0L32 192l0-96z"/><path class="fa-primary" d="M384 0L0 0 0 96l384 0 0-96zM144 192L32 192l0 32 112 0 16 0 0-32-16 0zm0 96L32 288l0 32 112 0 16 0 0-32-16 0zm0 96L32 384l0 32 112 0 16 0 0-32-16 0z"/></svg>