<svg xmlns="http://www.w3.org/2000/svg" viewBox="0 0 576 512"><!--! Font Awesome Pro 6.6.0 by @fontawesome - https://fontawesome.com License - https://fontawesome.com/license (Commercial License) Copyright 2024 Fonticons, Inc. --><defs><style>.fa-secondary{opacity:.4}</style></defs><path class="fa-secondary" d="M0 0L0 96l384 0 0-96L0 0zM32 128l0 64 112 0 16 0 0 32-16 0L32 224l0 64 112 0 16 0 0 32-16 0L32 320l0 64 112 0 16 0 0 32-16 0L32 416l0 96 298.8 0C285.6 480.1 256 427.5 256 368c0-68.4 39-127.7 96-156.8l0-83.2L32 128z"/><path class="fa-primary" d="M319.5 278.1C299.8 302.8 288 334 288 368c0 79.5 64.5 144 144 144c34 0 65.2-11.8 89.9-31.5L319.5 278.1zm225 179.8C564.2 433.2 576 402 576 368c0-79.5-64.5-144-144-144c-34 0-65.2 11.8-89.9 31.5L544.5 457.9z"/></svg>