<svg xmlns="http://www.w3.org/2000/svg" viewBox="0 0 512 512"><!--! Font Awesome Pro 6.6.0 by @fontawesome - https://fontawesome.com License - https://fontawesome.com/license (Commercial License) Copyright 2024 Fonticons, Inc. --><defs><style>.fa-secondary{opacity:.4}</style></defs><path class="fa-secondary" d="M0 32l512 0 0 448L0 480 0 32zM94.1 176l17 17 63 63-63 63-17 17c11.3 11.3 22.6 22.6 33.9 33.9c5.7-5.7 11.3-11.3 17-17c26.7-26.7 53.3-53.3 80-80c5.7-5.7 11.3-11.3 17-17l-17-17-80-80-17-17c-11.3 11.3-22.6 22.6-33.9 33.9zM224 336c0 16 0 32 0 48l24 0 144 0 24 0 0-48-24 0-144 0-24 0z"/><path class="fa-primary" d="M111 193l-17-17L128 142.1l17 17 80 80 17 17-17 17-80 80-17 17L94.1 336l17-17 63-63-63-63zM248 336l144 0 24 0 0 48-24 0-144 0-24 0 0-48 24 0z"/></svg>