<svg xmlns="http://www.w3.org/2000/svg" viewBox="0 0 640 512"><!--! Font Awesome Pro 6.6.0 by @fontawesome - https://fontawesome.com License - https://fontawesome.com/license (Commercial License) Copyright 2024 Fonticons, Inc. --><defs><style>.fa-secondary{opacity:.4}</style></defs><path class="fa-secondary" d="M0 96l0 64 32 0 40 0 0 64L0 224l0 96c53 0 96 43 96 96l0 96 96 0 0-96c0-53 43-96 96-96l0-96-40 0 0-64 40 0 0-64L32 96 0 96zm120 64l80 0 0 64-80 0 0-64z"/><path class="fa-primary" d="M640 0L320 0l0 512 320 0L640 0zM504 224l0 64 0 24-48 0 0-24 0-64 0-24 48 0 0 24zm0 136l0 24 0 64 0 24-48 0 0-24 0-64 0-24 48 0zm0-296l0 64 0 24-48 0 0-24 0-64 0-24 48 0 0 24z"/></svg>