<svg xmlns="http://www.w3.org/2000/svg" viewBox="0 0 384 512"><!--! Font Awesome Pro 6.6.0 by @fontawesome - https://fontawesome.com License - https://fontawesome.com/license (Commercial License) Copyright 2024 Fonticons, Inc. --><defs><style>.fa-secondary{opacity:.4}</style></defs><path class="fa-secondary" d="M0 352l0 64 64 0 0-64L0 352zm128 0l0 64 192 0 0-64-192 0z"/><path class="fa-primary" d="M64 32l32 0 144 0c79.5 0 144 64.5 144 144s-64.5 144-144 144l-112 0 0 160-64 0 0-160L0 320l0-64 64 0L64 64l0-32zm64 224l112 0c44.2 0 80-35.8 80-80s-35.8-80-80-80L128 96l0 160z"/></svg>