<svg xmlns="http://www.w3.org/2000/svg" viewBox="0 0 256 512"><!--! Font Awesome Pro 6.6.0 by @fontawesome - https://fontawesome.com License - https://fontawesome.com/license (Commercial License) Copyright 2024 Fonticons, Inc. --><defs><style>.fa-secondary{opacity:.4}</style></defs><path class="fa-secondary" d="M0 0L256 0l0 96-80 0-16 0 0 32 16 0 80 0 0 64-80 0-16 0 0 32 16 0 80 0 0 64-80 0-16 0 0 32 16 0 80 0 0 64-80 0-16 0 0 32 16 0 80 0 0 96L0 512 0 0z"/><path class="fa-primary" d="M176 96l-16 0 0 32 16 0 80 0 0-32-80 0zm-16 96l0 32 16 0 80 0 0-32-80 0-16 0zm16 96l-16 0 0 32 16 0 80 0 0-32-80 0zm0 96l-16 0 0 32 16 0 80 0 0-32-80 0z"/></svg>