<svg xmlns="http://www.w3.org/2000/svg" viewBox="0 0 576 512"><!--! Font Awesome Pro 6.6.0 by @fontawesome - https://fontawesome.com License - https://fontawesome.com/license (Commercial License) Copyright 2024 Fonticons, Inc. --><defs><style>.fa-secondary{opacity:.4}</style></defs><path class="fa-secondary" d="M0 32L0 96l0 96c22 0 43.4 2.5 64 7.1L64 96l448 0 0 320-231.1 0c4.7 20.6 7.1 42 7.1 64l224 0 64 0 0-64 0-320 0-64-64 0L64 32 0 32z"/><path class="fa-primary" d="M208 480c0-114.9-93.1-208-208-208l0-48c141.4 0 256 114.6 256 256l-48 0zM0 448a32 32 0 1 1 64 0A32 32 0 1 1 0 448zm0-80l0-48c88.4 0 160 71.6 160 160l-48 0c0-61.9-50.1-112-112-112z"/></svg>