<svg xmlns="http://www.w3.org/2000/svg" viewBox="0 0 576 512"><!--! Font Awesome Pro 6.6.0 by @fontawesome - https://fontawesome.com License - https://fontawesome.com/license (Commercial License) Copyright 2024 Fonticons, Inc. --><defs><style>.fa-secondary{opacity:.4}</style></defs><path class="fa-secondary" d="M64 32l352 0c35.3 0 64 28.7 64 64l0 256-192 0 0 48c0 44.2-35.8 80-80 80s-80-35.8-80-80l0-240 0-64c0-35.3-28.7-64-64-64z"/><path class="fa-primary" d="M128 96l0 64L0 160 0 96C0 60.7 28.7 32 64 32s64 28.7 64 64zM288 400l0-48 288 0 0 32c0 53-43 96-96 96l-272 0c44.2 0 80-35.8 80-80z"/></svg>