<svg xmlns="http://www.w3.org/2000/svg" viewBox="0 0 256 512"><!--! Font Awesome Pro 6.6.0 by @fontawesome - https://fontawesome.com License - https://fontawesome.com/license (Commercial License) Copyright 2024 Fonticons, Inc. --><defs><style>.fa-secondary{opacity:.4}</style></defs><path class="fa-secondary" d="M-8.5 476.2l30.4 10.1c2.6 .8 5.7 1.9 9.2 3.1c18.6 6.3 48.5 16.6 67.3 19.6c12 1.9 23.8 2.9 35.4 2.9c22.1 0 43.4-3.6 62-11.6c29.4-12.6 52.5-36.5 58.5-71.4c1.1-6.6 1.7-13.1 1.7-19.4c0-12.1-2.2-23.7-6.8-34.6c-6.3-15-16.4-26.4-27.6-35.2c-1-.8-2-1.6-3.1-2.3c-22.1-16.2-51.6-25.3-75.3-32.4c-.7-.2-1.5-.4-2.2-.7l-1.4-.4c-27.4-8.2-47.9-14.5-61.7-23.8c-6.2-4.2-9.3-7.9-11-11.3c-1.5-3-2.9-7.7-2.1-15.7c1.8-9.1 7-16 17.3-21.2c11.5-5.9 29.3-9.3 52.5-7.4l24.6 2c-10.5-4.5-23.2-8.7-38.4-13.4c-1.2-.4-2.5-.8-3.7-1.2c-5.9-1.9-11.9-3.8-18.1-5.8s-12.6-4.3-18.9-6.9c-12.8-5.1-25.5-11.1-36.6-18.7C22.1 194.2 6.5 215.3 1.7 243c-.1 .6-.2 1.1-.2 1.7c-2.3 19.3 .4 37.1 8.4 53c7.9 15.6 19.8 27 32.3 35.5c22.4 15.2 51.9 24 75.4 31c1.2 .4 2.5 .7 3.7 1.1c27.2 8.2 46.9 14.6 59.4 23.8c5.5 4 8.2 7.6 9.5 10.9c1.3 3.2 2.6 8.6 .9 18.1c-1.7 10.1-7.7 18-20.7 23.5c-14 6-35.4 8.5-62 4.4c-12.8-2.1-35.1-9.7-54.1-16.2c-4.3-1.5-8.5-2.9-12.3-4.2L11.7 415.5-8.5 476.2z"/><path class="fa-primary" d="M86 70.6C73.7 76.2 67.1 84.4 64.9 96c-.9 9.2 .6 14.8 2.3 18.5c1.9 4 5.3 8.1 11.4 12.4c13.7 9.8 34.1 16.4 61.5 25l1.4 .5c24.1 7.6 54.9 17.3 77.7 35c12.4 9.6 23.5 22.2 30.2 39c6.7 16.8 8.1 35.3 4.8 55.1c-4.1 24.9-16.1 44.3-32.7 58.2c-1-.8-2-1.6-3.1-2.3c-22.1-16.2-51.6-25.3-75.3-32.4l15.5-3.9c20.8-5.2 30.1-15.9 32.4-30c1.7-10.6 .5-16.9-1.1-20.9c-1.6-4-4.5-8-10-12.2c-12.5-9.7-32-16.4-59.2-25l-3.7-1.2s0 0 0 0c-23.6-7.4-53.1-16.7-75.6-32.8c-12.6-9-24.3-20.9-32-36.9C1.8 126-.8 107.8 1.4 88.1c.1-.5 .1-1.1 .2-1.6c5.8-35.5 28.2-60.7 58-74.1C88.3-.6 123-2.7 157.7 3c9.9 1.6 39.8 7.7 50.9 10.8l30.8 8.7L222.1 84.1l-30.8-8.7c-8-2.2-35.3-7.9-44.1-9.3c-26.4-4.4-47.5-1.7-61.2 4.5z"/></svg>