<svg xmlns="http://www.w3.org/2000/svg" viewBox="0 0 640 512"><!--! Font Awesome Pro 6.6.0 by @fontawesome - https://fontawesome.com License - https://fontawesome.com/license (Commercial License) Copyright 2024 Fonticons, Inc. --><defs><style>.fa-secondary{opacity:.4}</style></defs><path class="fa-secondary" d="M0 0L64 0 192 0l64 0 0 64 0 32 0 96 0 64-64 0-32 0-96 0L0 256l0-64L0 64 0 0zM64 64l0 128 128 0 0-128L64 64zM384 256l64 0 32 0 96 0 64 0 0 64 0 128 0 64-64 0-128 0-64 0 0-64 0-32 0-96 0-64zm64 64l0 128 128 0 0-128-128 0z"/><path class="fa-primary" d="M160 416l0-160 96 0 0-160 224 0 0 160-96 0 0 160-224 0z"/></svg>