<svg xmlns="http://www.w3.org/2000/svg" viewBox="0 0 512 512"><!--! Font Awesome Pro 6.6.0 by @fontawesome - https://fontawesome.com License - https://fontawesome.com/license (Commercial License) Copyright 2024 Fonticons, Inc. --><defs><style>.fa-secondary{opacity:.4}</style></defs><path class="fa-secondary" d="M16 133.1c0 49.1 9.5 115.6 37.9 180.9c32.7 75.2 91 150 189.4 192.6L256 512l12.7-5.5c98.4-42.6 156.7-117.3 189.4-192.6c32.4-74.7 40.2-151 37.3-200.9l-1.2-20.5L475.1 85 267.6 4.5 256 0 244.4 4.5 36.9 85 17.8 92.5 16.6 113c-.4 6.3-.6 13-.6 20.1zM232 128c16 0 32 0 48 0c0 8 0 16 0 24c0 37.3 0 74.7 0 112c0 8 0 16 0 24c-16 0-32 0-48 0c0-8 0-16 0-24c0-37.3 0-74.7 0-112c0-8 0-16 0-24zm0 192l48 0c0 16 0 32 0 48l-48 0c0-16 0-32 0-48z"/><path class="fa-primary" d="M280 152l0-24-48 0 0 24 0 112 0 24 48 0 0-24 0-112zm0 168l-48 0 0 48 48 0 0-48z"/></svg>