<svg xmlns="http://www.w3.org/2000/svg" viewBox="0 0 640 512"><!--! Font Awesome Pro 6.6.0 by @fontawesome - https://fontawesome.com License - https://fontawesome.com/license (Commercial License) Copyright 2024 Fonticons, Inc. --><defs><style>.fa-secondary{opacity:.4}</style></defs><path class="fa-secondary" d="M80.9 159.7c2.9 45.2 13.5 100.1 37 154.2c32.7 75.3 91 150 189.4 192.6L320 512l12.7-5.5c40.8-17.7 74.8-40.9 102.8-67.3L80.9 159.7zm45.3-84.5L496.8 363c9.8-16.1 18.2-32.6 25.3-49C550.5 248.7 560 182.1 560 133c0-7.1-.2-13.8-.6-20.1l-1.2-20.5L539.1 85 331.6 4.5 320 0 308.4 4.5 126.2 75.2z"/><path class="fa-primary" d="M29.4 .1l19 14.7L620.9 459.3l19 14.7-29.4 37.9-19-14.7L18.9 52.7 0 38 29.4 .1z"/></svg>