<svg xmlns="http://www.w3.org/2000/svg" viewBox="0 0 576 512"><!--! Font Awesome Pro 6.6.0 by @fontawesome - https://fontawesome.com License - https://fontawesome.com/license (Commercial License) Copyright 2024 Fonticons, Inc. --><defs><style>.fa-secondary{opacity:.4}</style></defs><path class="fa-secondary" d="M0 448l0 64c31.9 0 60.6-9.9 80.4-18.9c5.8-2.7 11.1-5.3 15.6-7.7c4.5 2.4 9.7 5.1 15.6 7.7c19.8 9 48.5 18.9 80.4 18.9s60.6-9.9 80.4-18.9c5.8-2.7 11.1-5.3 15.6-7.7c4.5 2.4 9.7 5.1 15.6 7.7c19.8 9 48.5 18.9 80.4 18.9s60.6-9.9 80.4-18.9c5.8-2.7 11.1-5.3 15.6-7.7c4.5 2.4 9.7 5.1 15.6 7.7c19.8 9 48.6 18.9 80.4 18.9l0-64c-19.3 0-38.6-6.1-54-13.1c-15.6-7.1-28.2-16.3-42-26.2c-13.9 9.9-26.4 19.1-42 26.2c-15.4 7-34.6 13.1-54 13.1s-38.6-6.1-54-13.1c-15.6-7.1-28.2-16.3-42-26.2c-13.9 9.9-26.4 19.1-42 26.2c-15.4 7-34.7 13.1-54 13.1s-38.6-6.1-54-13.1c-15.6-7.1-28.2-16.3-42-26.2c-13.9 9.9-26.4 19.1-42 26.2C38.6 441.9 19.3 448 0 448z"/><path class="fa-primary" d="M384 0L192 0l0 64-64 0L96 64l0 32 0 144L0 272 134.6 395.3c5.5 3.6 10.9 6.6 16.7 9.3c13.1 6 27.7 10.3 40.7 10.3s27.6-4.3 40.7-10.3c12-5.5 21.7-12.5 35.5-22.5c0 0 0 0 0 0l1.1-.8L288 368l19.7 14.2s0 0 0 0c13.9 10 23.6 17 35.5 22.5c13.1 6 27.7 10.3 40.7 10.3s27.6-4.3 40.7-10.3c5.9-2.7 11.2-5.7 16.7-9.3L576 272l-96-32 0-144 0-32-32 0-64 0 0-64zM288 176L160 218.7l0-90.7 256 0 0 90.7L288 176z"/></svg>