<svg xmlns="http://www.w3.org/2000/svg" viewBox="0 0 640 512"><!--! Font Awesome Pro 6.6.0 by @fontawesome - https://fontawesome.com License - https://fontawesome.com/license (Commercial License) Copyright 2024 Fonticons, Inc. --><defs><style>.fa-secondary{opacity:.4}</style></defs><path class="fa-secondary" d="M0 144L88 256l72-58.9L160 512l320 0 0-314.9L552 256l88-112L464 0 432 0c0 61.9-50.1 112-112 112S208 61.9 208 0L176 0 0 144z"/><path class="fa-primary" d="M208 0c0 61.9 50.1 112 112 112s112-50.1 112-112L400 0c0 44.2-35.8 80-80 80s-80-35.8-80-80L208 0z"/></svg>