<svg xmlns="http://www.w3.org/2000/svg" viewBox="0 0 512 512"><!--! Font Awesome Pro 6.6.0 by @fontawesome - https://fontawesome.com License - https://fontawesome.com/license (Commercial License) Copyright 2024 Fonticons, Inc. --><defs><style>.fa-secondary{opacity:.4}</style></defs><path class="fa-secondary" d="M0 512l12.8-64L480 448l32 0 0 64L0 512zM44.8 288C61.9 202.7 78.9 117.4 96 32l128 0c-17.1 85.3-34.1 170.7-51.2 256l-128 0z"/><path class="fa-primary" d="M12.8 448L480 448l0-96L326.4 288 272 288l-16 0 0-32 16 0 60.8 0 12.8-64L288 192l-16 0 0-32 16 0 64 0L384 0 320 0l-6.4 32L224 32 172.8 288l-128 0-32 160z"/></svg>