<svg xmlns="http://www.w3.org/2000/svg" viewBox="0 0 512 512"><!--! Font Awesome Pro 6.6.0 by @fontawesome - https://fontawesome.com License - https://fontawesome.com/license (Commercial License) Copyright 2024 Fonticons, Inc. --><defs><style>.fa-secondary{opacity:.4}</style></defs><path class="fa-secondary" d="M224 160.2l0 39.6c7.2 7.2 14.3 14.3 21.5 21.5c2.2 2.2 4.4 4.4 6.6 6.6c10.7 10.7 21.3 21.3 32 32c2.2 2.2 4.4 4.4 6.6 6.6L312.2 288l39.6 0C432 288 512 192 512 96c0-53-43-96-96-96C320 0 224 80 224 160.2z"/><path class="fa-primary" d="M245.5 221.3l6.6 6.6 32 32 6.6 6.6L70.6 486.6 48 509.3 2.7 464l22.6-22.6L245.5 221.3z"/></svg>