<svg xmlns="http://www.w3.org/2000/svg" viewBox="0 0 512 512"><!--! Font Awesome Pro 6.6.0 by @fontawesome - https://fontawesome.com License - https://fontawesome.com/license (Commercial License) Copyright 2024 Fonticons, Inc. --><defs><style>.fa-secondary{opacity:.4}</style></defs><path class="fa-secondary" d="M80 336a80 80 0 1 0 160 0A80 80 0 1 0 80 336zM288 48l32 16 16 32 16-32 32-16L352 32 336 0 320 32 288 48zm64 96l32 16 16 32 16-32 32-16-32-16L400 96l-16 32-32 16zm64-96l32 16 16 32 16-32 32-16L480 32 464 0 448 32 416 48zm0 192l32 16 16 32 16-32 32-16-32-16-16-32-16 32-32 16z"/><path class="fa-primary" d="M224 0l0 128L96 128 96 0 224 0zM0 256c0-53 43-96 96-96l128 0c53 0 96 43 96 96l0 256L0 512 0 256zm240 80A80 80 0 1 0 80 336a80 80 0 1 0 160 0z"/></svg>