<svg xmlns="http://www.w3.org/2000/svg" viewBox="0 0 448 512"><!--! Font Awesome Pro 6.6.0 by @fontawesome - https://fontawesome.com License - https://fontawesome.com/license (Commercial License) Copyright 2024 Fonticons, Inc. --><defs><style>.fa-secondary{opacity:.4}</style></defs><path class="fa-secondary" d="M0 32L0 480l448 0 0-448L0 32zM62.1 256c5.7-5.7 11.3-11.3 17-17l64-64c5.7-5.7 11.3-11.3 17-17L193.9 192c-5.7 5.7-11.3 11.3-17 17c-15.7 15.7-31.4 31.4-47 47l47 47 17 17c-11.3 11.3-22.6 22.6-33.9 33.9c-5.7-5.7-11.3-11.3-17-17c-21.3-21.3-42.7-42.7-64-64l-17-17zm192-64c11.3-11.3 22.6-22.6 33.9-33.9l17 17c21.3 21.3 42.7 42.7 64 64c5.7 5.7 11.3 11.3 17 17c-5.7 5.7-11.3 11.3-17 17c-21.3 21.3-42.7 42.7-64 64c-5.7 5.7-11.3 11.3-17 17c-11.3-11.3-22.6-22.6-33.9-33.9c5.7-5.7 11.3-11.3 17-17c15.7-15.7 31.4-31.4 47-47c-15.7-15.7-31.4-31.4-47-47l-17-17z"/><path class="fa-primary" d="M193.9 192l-17 17-47 47 47 47 17 17L160 353.9l-17-17L79 273l-17-17 17-17 64-64 17-17L193.9 192zM288 158.1l17 17 64 64 17 17-17 17-64 64-17 17L254.1 320l17-17 47-47-47-47-17-17L288 158.1z"/></svg>