<svg xmlns="http://www.w3.org/2000/svg" viewBox="0 0 448 512"><!--! Font Awesome Pro 6.6.0 by @fontawesome - https://fontawesome.com License - https://fontawesome.com/license (Commercial License) Copyright 2024 Fonticons, Inc. --><defs><style>.fa-secondary{opacity:.4}</style></defs><path class="fa-secondary" d="M0 32L0 480l448 0 0-448L0 32zm128 96l24 0 104 0c44.2 0 80 35.8 80 80l0 24-3.7 0c-8.4 26.7-30.4 47.4-57.9 53.9L337.1 384l-57 0-61.3-96L176 288l0 72 0 24-48 0 0-24 0-96 0-112 0-24zm48 48l0 64 56 0 24 0c17.7 0 32-14.3 32-32s-14.3-32-32-32l-80 0z"/><path class="fa-primary" d="M152 128l-24 0 0 24 0 112 0 96 0 24 48 0 0-24 0-72 42.9 0 61.3 96 57 0-62.7-98.1c27.5-6.5 49.5-27.2 57.9-53.9l3.7 0 0-24c0-44.2-35.8-80-80-80l-104 0zm80 112l-56 0 0-64 80 0c17.7 0 32 14.3 32 32s-14.3 32-32 32l-24 0z"/></svg>