<svg xmlns="http://www.w3.org/2000/svg" viewBox="0 0 448 512"><!--! Font Awesome Pro 6.6.0 by @fontawesome - https://fontawesome.com License - https://fontawesome.com/license (Commercial License) Copyright 2024 Fonticons, Inc. --><defs><style>.fa-secondary{opacity:.4}</style></defs><path class="fa-secondary" d="M0 32L0 480l448 0 0-448L0 32zM96 224l64 0 0 64-64 0 0-64zm96 0l64 0 0 64-64 0 0-64zm96 0l64 0 0 64-64 0 0-64z"/><path class="fa-primary" d="M352 288l-64 0 0-64 64 0 0 64zm-96 0l-64 0 0-64 64 0 0 64zM96 288l0-64 64 0 0 64-64 0z"/></svg>