<svg xmlns="http://www.w3.org/2000/svg" viewBox="0 0 448 512"><!--! Font Awesome Pro 6.6.0 by @fontawesome - https://fontawesome.com License - https://fontawesome.com/license (Commercial License) Copyright 2024 Fonticons, Inc. --><defs><style>.fa-secondary{opacity:.4}</style></defs><path class="fa-secondary" d="M0 32L0 480l448 0 0-448L0 32zM112 160l48 0 0 24 0 102.1L295 151l17-17L345.9 168l-17 17-135 135 94.1 0 24 0 0 48-24 0-152 0-24 0 0-24 0-160 0-24z"/><path class="fa-primary" d="M112 368l24 0 152 0 24 0 0-48-24 0-94.1 0L329 185l17-17L312 134.1l-17 17-135 135L160 184l0-24-48 0 0 24 0 160 0 24z"/></svg>