<svg xmlns="http://www.w3.org/2000/svg" viewBox="0 0 448 512"><!--! Font Awesome Pro 6.6.0 by @fontawesome - https://fontawesome.com License - https://fontawesome.com/license (Commercial License) Copyright 2024 Fonticons, Inc. --><defs><style>.fa-secondary{opacity:.4}</style></defs><path class="fa-secondary" d="M0 32L0 480l448 0 0-448L0 32zM94.1 256L128 222.1l1 1 16 16 47 47L303 175l16-16 1-1L353.9 192c-.3 .3-.6 .6-1 1l-16 16L209 337l-17 17-17-17-64-64c-5.3-5.3-10.7-10.7-16-16l-1-1z"/><path class="fa-primary" d="M353 193L209 337l-17 17-17-17L95 257 129 223l63 63L319 159 353 193z"/></svg>