<svg xmlns="http://www.w3.org/2000/svg" viewBox="0 0 448 512"><!--! Font Awesome Pro 6.6.0 by @fontawesome - https://fontawesome.com License - https://fontawesome.com/license (Commercial License) Copyright 2024 Fonticons, Inc. --><defs><style>.fa-secondary{opacity:.4}</style></defs><path class="fa-secondary" d="M0 32L0 480l448 0 0-448L0 32zM96 256c0-70.7 57.3-128 128-128s128 57.3 128 128c0 28.1-9 54-24.4 75.1L369.9 384l-61.5 0-15.9-19.9C272.7 376.7 249.2 384 224 384c-70.7 0-128-57.3-128-128zm48 0c0 44.2 35.8 80 80 80c13.9 0 26.9-3.5 38.3-9.7L206.1 256l61.5 0 28.3 35.3c5.3-10.7 8.2-22.6 8.2-35.3c0-44.2-35.8-80-80-80s-80 35.8-80 80z"/><path class="fa-primary" d="M144 256c0 44.2 35.8 80 80 80c13.9 0 26.9-3.5 38.3-9.7L206.1 256l61.5 0 28.3 35.3c5.3-10.7 8.2-22.6 8.2-35.3c0-44.2-35.8-80-80-80s-80 35.8-80 80zM292.6 364.1C272.7 376.7 249.2 384 224 384c-70.7 0-128-57.3-128-128s57.3-128 128-128s128 57.3 128 128c0 28.1-9 54-24.4 75.1L369.9 384l-61.5 0-15.9-19.9z"/></svg>