<svg xmlns="http://www.w3.org/2000/svg" viewBox="0 0 448 512"><!--! Font Awesome Pro 6.6.0 by @fontawesome - https://fontawesome.com License - https://fontawesome.com/license (Commercial License) Copyright 2024 Fonticons, Inc. --><defs><style>.fa-secondary{opacity:.4}</style></defs><path class="fa-secondary" d="M0 32L0 480l448 0 0-448L0 32zM64 262.8l10.7-10.4C115.9 212.1 169.9 192 224 192s108.1 20.1 149.3 60.4L384 262.8 346.7 320 272 299.2l5.6-49.1c-34.9-10.5-72.3-10.5-107.2 0l5.6 49.1L101.3 320 64 262.8z"/><path class="fa-primary" d="M384 262.8L346.7 320 272 299.2l5.6-49.1c-34.9-10.5-72.3-10.5-107.2 0l5.6 49.1L101.3 320 64 262.8l10.7-10.4c82.5-80.5 216.2-80.5 298.7 0L384 262.8z"/></svg>