<svg xmlns="http://www.w3.org/2000/svg" viewBox="0 0 512 512"><!--! Font Awesome Pro 6.6.0 by @fontawesome - https://fontawesome.com License - https://fontawesome.com/license (Commercial License) Copyright 2024 Fonticons, Inc. --><defs><style>.fa-secondary{opacity:.4}</style></defs><path class="fa-secondary" d="M96 96l32 0 0 32 0 352-32 0L96 96zm288 0l32 0 0 384-32 0 0-352 0-32z"/><path class="fa-primary" d="M152 0L128 0l0 24 0 72 0 32 0 352 256 0 0-352 0-32 0-72 0-24L360 0 152 0zM336 96L176 96l0-48 160 0 0 48zM0 96L0 480l96 0L96 96 0 96zM512 480l0-384-96 0 0 384 96 0z"/></svg>