<svg xmlns="http://www.w3.org/2000/svg" viewBox="0 0 512 512"><!--! Font Awesome Pro 6.6.0 by @fontawesome - https://fontawesome.com License - https://fontawesome.com/license (Commercial License) Copyright 2024 Fonticons, Inc. --><defs><style>.fa-secondary{opacity:.4}</style></defs><path class="fa-secondary" d="M64 160l0 64 80 0 0 64-80 0 0 64 80 0 0 64 64 0 0-64 96 0 0 64 64 0 0-64 80 0 0-64-80 0 0-64 80 0 0-64-80 0 0-64-64 0 0 64-96 0 0-64-64 0 0 64-80 0zm144 64l96 0 0 64-96 0 0-64z"/><path class="fa-primary" d="M512 32L0 32 0 480l512 0 0-448zM448 96l0 320L64 416 64 96l384 0z"/></svg>