<svg xmlns="http://www.w3.org/2000/svg" viewBox="0 0 640 512"><!--! Font Awesome Pro 6.6.0 by @fontawesome - https://fontawesome.com License - https://fontawesome.com/license (Commercial License) Copyright 2024 Fonticons, Inc. --><defs><style>.fa-secondary{opacity:.4}</style></defs><path class="fa-secondary" d="M320 160c0 88.4 71.6 160 160 160c38.4 0 73.7-13.5 101.3-36.1L356.1 58.7C333.5 86.3 320 121.6 320 160zM378.7 36.1L603.9 261.3C626.5 233.7 640 198.4 640 160C640 71.6 568.4 0 480 0c-38.4 0-73.7 13.5-101.3 36.1z"/><path class="fa-primary" d="M319.2 368L.8 368C8.8 448.9 77 512 160 512s151.2-63.1 159.2-144zm0-32c-8-80.9-76.2-144-159.2-144S8.8 255.1 .8 336l318.4 0z"/></svg>