<svg xmlns="http://www.w3.org/2000/svg" viewBox="0 0 320 512"><!--! Font Awesome Pro 6.6.0 by @fontawesome - https://fontawesome.com License - https://fontawesome.com/license (Commercial License) Copyright 2024 Fonticons, Inc. --><defs><style>.fa-secondary{opacity:.4}</style></defs><path class="fa-secondary" d="M16 368c0 79.5 64.5 144 144 144s144-64.5 144-144c0-34.3-12-65.8-32-90.5L272 64l0-64L208 0 112 0 48 0l0 64 0 213.5C28 302.2 16 333.7 16 368zm64 0c0-19.1 6.6-36.5 17.8-50.3L112 300.2l0-22.7L112 64l96 0 0 213.5 0 22.7 14.2 17.6C233.4 331.5 240 348.9 240 368c0 44.2-35.8 80-80 80s-80-35.8-80-80z"/><path class="fa-primary" d="M112 368a48 48 0 1 1 96 0 48 48 0 1 1 -96 0z"/></svg>