<svg xmlns="http://www.w3.org/2000/svg" viewBox="0 0 512 512"><!--! Font Awesome Pro 6.6.0 by @fontawesome - https://fontawesome.com License - https://fontawesome.com/license (Commercial License) Copyright 2024 Fonticons, Inc. --><defs><style>.fa-secondary{opacity:.4}</style></defs><path class="fa-secondary" d="M160 102.3l0 25.7 0 64 0 96 0 23.1 18 14.4 7.9 6.4c34.2 27.3 54 68.7 54 112.4l0 35.7 96 0 0-35.7c0-38.1-9-75.1-25.8-108.3L464 336l48 0 0-96-16 0 0-80-24 0 0-72-24 0 0-56-48 0L280 32l-14.5 0-12.1 8.1-72 48L160 102.3z"/><path class="fa-primary" d="M0 384H128V96H0V384z"/></svg>