<svg xmlns="http://www.w3.org/2000/svg" viewBox="0 0 640 512"><!--! Font Awesome Pro 6.6.0 by @fontawesome - https://fontawesome.com License - https://fontawesome.com/license (Commercial License) Copyright 2024 Fonticons, Inc. --><defs><style>.fa-secondary{opacity:.4}</style></defs><path class="fa-secondary" d="M96 32l0 352 544 0 0-128c-26.5 0-48-21.5-48-48s21.5-48 48-48l0-128L96 32zm96 120l32 0 18.3 32 47.2 0L256 96l48 0 58.7 88 61.3 0c13.3 0 24 10.7 24 24s-10.7 24-24 24l-61.3 0L304 320l-48 0 33.5-88-47.2 0L224 264l-32 0 16-56-16-56zm352-40a16 16 0 1 1 -32 0 16 16 0 1 1 32 0zm0 64a16 16 0 1 1 -32 0 16 16 0 1 1 32 0zm0 64a16 16 0 1 1 -32 0 16 16 0 1 1 32 0zm0 64a16 16 0 1 1 -32 0 16 16 0 1 1 32 0z"/><path class="fa-primary" d="M48 120l0-24L0 96l0 24L0 456l0 24 24 0 496 0 24 0 0-48-24 0L48 432l0-312zm241.5 64l-47.2 0L224 152l-32 0 16 56-16 56 32 0 18.3-32 47.2 0L256 320l48 0 58.7-88 61.3 0c13.3 0 24-10.7 24-24s-10.7-24-24-24l-61.3 0L304 96l-48 0 33.5 88z"/></svg>