<svg xmlns="http://www.w3.org/2000/svg" viewBox="0 0 448 512"><!--! Font Awesome Pro 6.6.0 by @fontawesome - https://fontawesome.com License - https://fontawesome.com/license (Commercial License) Copyright 2024 Fonticons, Inc. --><defs><style>.fa-secondary{opacity:.4}</style></defs><path class="fa-secondary" d="M-1 128l41 0 88 0 192 0 88 0 41 0L439 167.8 401 320l31 0 0 64-32 0-32 0L80 384l-32 0-32 0 0-64 31 0L9 167.8-1 128zm82 64L111 312.2 113 320l15 0 0-128-47 0zm95 0l0 128 96 0 0-128-96 0zm144 0l0 128 15 0 1.9-7.8L367 192l-47 0z"/><path class="fa-primary" d="M160 0l24 0 40 0 40 0 24 0 0 48-24 0-16 0 0 48 72 0 0 32-192 0 0-32 72 0 0-48-16 0-24 0 0-48zM368 384l0 128L80 512l0-128 288 0z"/></svg>