<svg xmlns="http://www.w3.org/2000/svg" viewBox="0 0 448 512"><!--! Font Awesome Pro 6.6.0 by @fontawesome - https://fontawesome.com License - https://fontawesome.com/license (Commercial License) Copyright 2024 Fonticons, Inc. --><defs><style>.fa-secondary{opacity:.4}</style></defs><path class="fa-secondary" d="M0 416l0 32 192 0 0-224 0-32 64 0 0 32 0 224 192 0 0-32-80-96 56 0 0-32-80-80 48 0 0-32L224 0 56 176l0 32 48 0L24 288l0 32 56 0L0 416z"/><path class="fa-primary" d="M256 192l0 32 0 256 0 32-64 0 0-32 0-256 0-32 64 0z"/></svg>