<svg xmlns="http://www.w3.org/2000/svg" viewBox="0 0 640 512"><!--! Font Awesome Pro 6.6.0 by @fontawesome - https://fontawesome.com License - https://fontawesome.com/license (Commercial License) Copyright 2024 Fonticons, Inc. --><defs><style>.fa-secondary{opacity:.4}</style></defs><path class="fa-secondary" d="M32 288l135.4 0 28.2-75.2 7.8-20.8L64 192 32 288zM83.2 96a64 64 0 1 0 128 0 64 64 0 1 0 -128 0zm94.4 256l288 0-24-64-24-64-12.3 0-170.7 0-9.1 0-24 64-24 64zm64-240a80 80 0 1 0 160 0 80 80 0 1 0 -160 0zM435.2 96a64 64 0 1 0 128 0 64 64 0 1 0 -128 0zm4.6 96l7.8 20.8L475.8 288 608 288l-32-96-136.2 0z"/><path class="fa-primary" d="M0 416l32 0 576 0 32 0 0 64-32 0L32 480 0 480l0-64z"/></svg>