<svg xmlns="http://www.w3.org/2000/svg" viewBox="0 0 448 512"><!--! Font Awesome Pro 6.6.0 by @fontawesome - https://fontawesome.com License - https://fontawesome.com/license (Commercial License) Copyright 2024 Fonticons, Inc. --><defs><style>.fa-secondary{opacity:.4}</style></defs><path class="fa-secondary" d="M128 157.3C128 232 224 288 224 288s96-56 96-130.7c0-51.5-43-93.3-96-93.3s-96 41.8-96 93.3z"/><path class="fa-primary" d="M327.3 282.2C362 252.9 384 209 384 160C384 71.6 312.4 0 224 0S64 71.6 64 160c0 49 22 92.9 56.7 122.2L118 304l-54 0L0 512l448 0L384 304l-54 0-2.7-21.8zM160 384l0 16 0 64 0 16-32 0 0-16 0-64 0-16 32 0zm160 0l0 16 0 64 0 16-32 0 0-16 0-64 0-16 32 0zM128 157.3c0-51.5 43-93.3 96-93.3s96 41.8 96 93.3C320 232 224 288 224 288s-96-56-96-130.7z"/></svg>