<svg xmlns="http://www.w3.org/2000/svg" viewBox="0 0 640 512"><!--! Font Awesome Pro 6.6.0 by @fontawesome - https://fontawesome.com License - https://fontawesome.com/license (Commercial License) Copyright 2024 Fonticons, Inc. --><defs><style>.fa-secondary{opacity:.4}</style></defs><path class="fa-secondary" d="M0 512l448 0-8.3-27.1L320 365.3l0-61.3L64 304 0 512zM96 128a128 128 0 1 0 256 0A128 128 0 1 0 96 128z"/><path class="fa-primary" d="M640 384L512 512 352 352l0-96 32-32 96 0L640 384zM432 328a24 24 0 1 0 0-48 24 24 0 1 0 0 48z"/></svg>