<svg xmlns="http://www.w3.org/2000/svg" viewBox="0 0 448 512"><!--! Font Awesome Pro 6.6.0 by @fontawesome - https://fontawesome.com License - https://fontawesome.com/license (Commercial License) Copyright 2024 Fonticons, Inc. --><defs><style>.fa-secondary{opacity:.4}</style></defs><path class="fa-secondary" d="M96 128c0 70.7 57.3 128 128 128s128-57.3 128-128c0-11.1-1.4-21.8-4-32l-60 0L256 64c-16 16-32 32-48 48L97 112c-.7 5.2-1 10.6-1 16z"/><path class="fa-primary" d="M256 64l32 32 60 0C333.8 40.8 283.6 0 224 0C158.7 0 104.9 48.9 97 112l111 0 48-48zm24 448l168 0L384 320l-71.8 0L272.2 483.1 238.9 359.2 272 304l-48 0-48 0 33.1 55.2L175.8 483.1 135.8 320 64 320 0 512l168 0 14.9 0 82.3 0 14.9 0z"/></svg>