<svg xmlns="http://www.w3.org/2000/svg" viewBox="0 0 448 512"><!--! Font Awesome Pro 6.6.0 by @fontawesome - https://fontawesome.com License - https://fontawesome.com/license (Commercial License) Copyright 2024 Fonticons, Inc. --><defs><style>.fa-secondary{opacity:.4}</style></defs><path class="fa-secondary" d="M0 160c0 47.6 34.6 87.1 80 94.7c5.2 .9 10.5 1.3 16 1.3l32 0c5.5 0 10.8-.5 16-1.3c45.4-7.6 80-47.1 80-94.7L192 0 160 0l0 160-16 0L128 0 96 0 80 160l-16 0L64 0 32 0 0 160zm288 16l0 176 96 0 64 0L448 0C416 0 288 32 288 176z"/><path class="fa-primary" d="M96 256c-5.5 0-10.8-.5-16-1.3L80 272l0 208 0 32 64 0 0-32 0-208 0-17.3c-5.2 .9-10.5 1.3-16 1.3l-32 0zM448 384l0-32-64 0 0 32 0 96 0 32 64 0 0-32 0-96z"/></svg>