<svg xmlns="http://www.w3.org/2000/svg" viewBox="0 0 576 512"><!--! Font Awesome Pro 6.6.0 by @fontawesome - https://fontawesome.com License - https://fontawesome.com/license (Commercial License) Copyright 2024 Fonticons, Inc. --><defs><style>.fa-secondary{opacity:.4}</style></defs><path class="fa-secondary" d="M0 64L0 448l384 0 0-133L384 197l0-133L0 64zM96 232l24 0 48 0 0-48 0-24 48 0 0 24 0 48 48 0 24 0 0 48-24 0-48 0 0 48 0 24-48 0 0-24 0-48-48 0-24 0 0-48z"/><path class="fa-primary" d="M576 448l0-384L384 197 384 315 576 448zM216 184l0-24-48 0 0 24 0 48-48 0-24 0 0 48 24 0 48 0 0 48 0 24 48 0 0-24 0-48 48 0 24 0 0-48-24 0-48 0 0-48z"/></svg>