<svg xmlns="http://www.w3.org/2000/svg" viewBox="0 0 448 512"><!--! Font Awesome Pro 6.6.0 by @fontawesome - https://fontawesome.com License - https://fontawesome.com/license (Commercial License) Copyright 2024 Fonticons, Inc. --><defs><style>.fa-secondary{opacity:.4}</style></defs><path class="fa-secondary" d="M448 448.1A64 64 0 1 1 320 448a64 64 0 1 1 128 .1z"/><path class="fa-primary" d="M118.7 0L144 0 384 0l32 0 0 32 0 360.6c-9.4-5.4-20.3-8.6-32-8.6s-22.6 3.1-32 8.6L352 224l-220.5 0L71.1 479.4l-7.4 31.1L1.5 495.8l7.4-31.1 104-440L118.7 0zM352 64L169.3 64l-22.7 96L352 160l0-96z"/></svg>