<svg xmlns="http://www.w3.org/2000/svg" viewBox="0 0 576 512"><!--! Font Awesome Pro 6.6.0 by @fontawesome - https://fontawesome.com License - https://fontawesome.com/license (Commercial License) Copyright 2024 Fonticons, Inc. --><defs><style>.fa-secondary{opacity:.4}</style></defs><path class="fa-secondary" d="M0 240l0 64c31.9 0 60.6-9.9 80.4-18.9c5.8-2.7 11.1-5.3 15.6-7.7c4.5 2.4 9.7 5.1 15.6 7.7c19.8 9 48.5 18.9 80.4 18.9s60.6-9.9 80.4-18.9c5.8-2.7 11.1-5.3 15.6-7.7c4.5 2.4 9.7 5.1 15.6 7.7c19.8 9 48.5 18.9 80.4 18.9s60.6-9.9 80.4-18.9c5.8-2.7 11.1-5.3 15.6-7.7c4.5 2.4 9.7 5.1 15.6 7.7c19.8 9 48.5 18.9 80.4 18.9l0-64c-19.3 0-38.6-6.1-54-13.1c-15.6-7.1-28.2-16.3-42-26.2c-13.9 9.9-26.4 19.1-42 26.2c-15.4 7-34.7 13.1-54 13.1s-38.6-6.1-54-13.1c-15.6-7.1-28.2-16.3-42-26.2c-13.9 9.9-26.4 19.1-42 26.2c-15.4 7-34.7 13.1-54 13.1s-38.6-6.1-54-13.1c-15.6-7.1-28.2-16.3-42-26.2c-13.9 9.9-26.4 19.1-42 26.2C38.6 233.9 19.3 240 0 240z"/><path class="fa-primary" d="M272.4 141.1c5.8-2.7 11.1-5.3 15.6-7.7c4.5 2.4 9.7 5.1 15.6 7.7c19.8 9 48.5 18.9 80.4 18.9s60.6-9.9 80.4-18.9c5.8-2.7 11.1-5.3 15.6-7.7c4.5 2.4 9.7 5.1 15.6 7.7c19.8 9 48.5 18.9 80.4 18.9l0-64c-19.3 0-38.6-6.1-54-13.1c-14.9-6.8-26.9-15.4-40-24.7c-.7-.5-1.4-1-2.1-1.5c-.7 .5-1.4 1-2.1 1.5c-13.1 9.3-25.1 17.9-40 24.7c-15.4 7-34.7 13.1-54 13.1s-38.6-6.1-54-13.1c-14.9-6.8-26.9-15.4-40-24.7c-.7-.5-1.4-1-2.1-1.5c-.7 .5-1.4 1-2.1 1.5c-13.1 9.3-25.1 17.9-40 24.7c-15.4 7-34.7 13.1-54 13.1s-38.6-6.1-54-13.1c-14.9-6.8-26.9-15.4-40-24.7c-.7-.5-1.4-1-2.1-1.5c-.7 .5-1.4 1-2.1 1.5C80.8 67.5 68.8 76.1 54 82.9C38.6 89.9 19.3 96 0 96l0 64c31.9 0 60.6-9.9 80.4-18.9c5.8-2.7 11.1-5.3 15.6-7.7c4.5 2.4 9.7 5.1 15.6 7.7c19.8 9 48.5 18.9 80.4 18.9s60.6-9.9 80.4-18.9zm0 288c5.8-2.7 11.1-5.3 15.6-7.7c4.5 2.4 9.7 5.1 15.6 7.7c19.8 9 48.5 18.9 80.4 18.9s60.6-9.9 80.4-18.9c5.8-2.7 11.1-5.3 15.6-7.7c4.5 2.4 9.7 5.1 15.6 7.7c19.8 9 48.5 18.9 80.4 18.9l0-64c-19.3 0-38.6-6.1-54-13.1c-14.9-6.8-26.9-15.4-40-24.7c-.7-.5-1.4-1-2.1-1.5c-.7 .5-1.4 1-2.1 1.5c-13.1 9.3-25.1 17.9-40 24.7c-15.4 7-34.7 13.1-54 13.1s-38.6-6.1-54-13.1c-14.9-6.8-26.9-15.4-40-24.7c-.7-.5-1.4-1-2.1-1.5c-.7 .5-1.4 1-2.1 1.5c-13.1 9.3-25.1 17.9-40 24.7c-15.4 7-34.7 13.1-54 13.1s-38.6-6.1-54-13.1c-14.9-6.8-26.9-15.4-40-24.7c-.7-.5-1.4-1-2.1-1.5c-.7 .5-1.4 1-2.1 1.5c-13.1 9.3-25.1 17.9-40 24.7C38.6 377.9 19.3 384 0 384l0 64c31.9 0 60.6-9.9 80.4-18.9c5.8-2.7 11.1-5.3 15.6-7.7c4.5 2.4 9.7 5.1 15.6 7.7c19.8 9 48.5 18.9 80.4 18.9s60.6-9.9 80.4-18.9z"/></svg>