<svg xmlns="http://www.w3.org/2000/svg" viewBox="0 0 640 512"><!--! Font Awesome Pro 6.6.0 by @fontawesome - https://fontawesome.com License - https://fontawesome.com/license (Commercial License) Copyright 2024 Fonticons, Inc. --><defs><style>.fa-secondary{opacity:.4}</style></defs><path class="fa-secondary" d="M0 317.6C0 407.3 72.7 480 162.4 480L640 480l0-352-129.9 0c-91.7 0-180.3 32.8-249.9 92.4l-103.8 89c-8 6.8-18.1 10.6-28.6 10.6l-1.1 0c-18.3 0-34.5-11.7-40.3-29c-4-12-2.4-25.2 4.3-35.9l36.6-58.6L208 208l80-80L184 104 160 0 80 80l12 84L43.6 212.4C15.7 240.3 0 278.2 0 317.6zM424 304a24 24 0 1 1 -48 0 24 24 0 1 1 48 0z"/><path class="fa-primary" d="M400 280a24 24 0 1 0 0 48 24 24 0 1 0 0-48z"/></svg>