<svg xmlns="http://www.w3.org/2000/svg" viewBox="0 0 640 512"><!--! Font Awesome Pro 6.6.0 by @fontawesome - https://fontawesome.com License - https://fontawesome.com/license (Commercial License) Copyright 2024 Fonticons, Inc. --><defs><style>.fa-secondary{opacity:.4}</style></defs><path class="fa-secondary" d="M2.7 464L48 509.3l22.6-22.6 52.9-52.9 12.2 12.2c37.5 37.5 98.3 37.5 135.8 0l22.6-22.6-22.6-22.6c-21.8-21.8-49.6-34.1-78.1-36.9l31.9-31.9 12.2 12.2c22.5 22.5 53.3 31.5 82.5 27c0-1 0-2.1 0-3.1c0-33.1 9.1-64.1 25-90.5c-15.5-8.7-32.5-13.8-49.8-15.5l31.9-31.9 12.2 12.2c6 6 12.6 11.1 19.7 15.2c27.5-34 67.3-57.5 112.6-63.8c-4.1-3.8-8.4-7.3-12.9-10.5L489 153l17-17L472 102.1l-17 17-43.4 43.4c-20.6-4.4-42-3.7-62.3 2.1c6.1-21.3 6.6-43.8 1.4-65.3L393 57l17-17L376 6.1 359 23 329.1 52.9c-3.7-5-7.8-9.8-12.4-14.3L294.1 16 271.5 38.6c-37.5 37.5-37.5 98.3 0 135.8l10.4 10.4-30.5 30.5c-3.4-27.3-15.5-53.8-36.5-74.8l-22.6-22.6-22.6 22.6c-37.5 37.5-37.5 98.3 0 135.8l10.4 10.4-30.5 30.5c-3.4-27.3-15.5-53.8-36.5-74.8L90.5 219.6 67.9 242.3c-37.5 37.5-37.5 98.3 0 135.8l10.4 10.4L25.4 441.4 2.7 464zM366 112L400 145.9l17-17 72-72 17-17L472 6.1 455 23 383 95l-17 17z"/><path class="fa-primary" d="M352 368a144 144 0 1 1 288 0 144 144 0 1 1 -288 0zm160 48l-32 0 0 32 32 0 0-32zm0-128l0-16-32 0 0 16 0 80 0 16 32 0 0-16 0-80z"/></svg>