<svg xmlns="http://www.w3.org/2000/svg" viewBox="0 0 512 512"><!--! Font Awesome Pro 6.6.0 by @fontawesome - https://fontawesome.com License - https://fontawesome.com/license (Commercial License) Copyright 2024 Fonticons, Inc. --><defs><style>.fa-secondary{opacity:.4}</style></defs><path class="fa-secondary" d="M0 352c0 88.4 71.6 160 160 160s160-71.6 160-160l-48 0c0 61.9-50.1 112-112 112S48 413.9 48 352s50.1-112 112-112c5.3 0 10.5 .4 15.6 1.1c-3.3-16.3-6.5-32.6-9.8-49c-1.9-.1-3.8-.1-5.8-.1C71.6 192 0 263.6 0 352z"/><path class="fa-primary" d="M144 48a48 48 0 1 1 96 0 48 48 0 1 1 -96 0zm9 80l39 0 32 0 26.2 0 5.1 25.7 4.5 22.3 76.2 0 32 0 0 64-32 0-63.4 0 9.6 48L384 288l22.2 0 7.8 20.8 37.1 99 10.7-3.6 30.3-10.2 20.5 60.6-30.3 10.2-40 13.5-29.3 9.9-10.9-29L361.8 352l-105.2 0c-.4 0-.8 0-1.3 0L224 352l-26.2 0-5.1-25.7-32-160L153 128z"/></svg>