<svg xmlns="http://www.w3.org/2000/svg" viewBox="0 0 640 512"><!--! Font Awesome Pro 6.6.0 by @fontawesome - https://fontawesome.com License - https://fontawesome.com/license (Commercial License) Copyright 2024 Fonticons, Inc. --><defs><style>.fa-secondary{opacity:.4}</style></defs><path class="fa-secondary" d=""/><path class="fa-primary" d="M54.2 202.9C123.2 136.7 216.8 96 320 96s196.8 40.7 265.8 106.9l44.3-46.2C549.7 79.5 440.4 32 320 32S90.3 79.5 9.8 156.7l44.3 46.2zM320 256c56.8 0 108.6 21.1 148.2 56l42.4-48C459.8 219.2 393 192 320 192s-139.8 27.2-190.5 72l42.4 48c39.5-34.9 91.3-56 148.2-56zm64 160a64 64 0 1 0 -128 0 64 64 0 1 0 128 0z"/></svg>