<svg xmlns="http://www.w3.org/2000/svg" viewBox="0 0 320 512"><!--! Font Awesome Pro 6.6.0 by @fontawesome - https://fontawesome.com License - https://fontawesome.com/license (Commercial License) Copyright 2024 Fonticons, Inc. --><defs><style>.fa-secondary{opacity:.4}</style></defs><path class="fa-secondary" d="M16 224l32 0 58 0c7.3 13.4 14.7 26.8 22 40.2l0 23.8-80 0-32 0 0-64zm0 96l32 0 80 0 0 64-80 0-32 0 0-64zm176-55.8L214 224l58 0 32 0 0 64-32 0-80 0 0-23.8zm0 55.8l80 0 32 0 0 64-32 0-80 0 0-64z"/><path class="fa-primary" d="M.7 32L128 264.2 128 448l0 32 64 0 0-32 0-183.8L319.3 32l-73 0L160 189.4 73.7 32 .7 32z"/></svg>