<svg xmlns="http://www.w3.org/2000/svg" viewBox="0 0 320 512"><!--! Font Awesome Pro 6.6.0 by @fontawesome - https://fontawesome.com License - https://fontawesome.com/license (Commercial License) Copyright 2024 Fonticons, Inc. --><path d="M32 192c0 70.7 57.3 128 128 128c69.7 0 126.3-55.7 128-124.9c0-1 0-2 0-3.1c0-70.7-57.3-128-128-128S32 121.3 32 192zM193.2 348.5c-10.7 2.3-21.8 3.5-33.2 3.5C71.6 352 0 280.4 0 192S71.6 32 160 32s160 71.6 160 160c0 2 0 3.9-.1 5.9c-1.4 37.9-15.9 74.2-41.1 102.6L124 474.6c-5.9 6.6-16 7.2-22.6 1.3s-7.2-16-1.3-22.6l93.2-104.8z"/></svg>