<svg xmlns="http://www.w3.org/2000/svg" viewBox="0 0 640 512"><!--! Font Awesome Pro 6.6.0 by @fontawesome - https://fontawesome.com License - https://fontawesome.com/license (Commercial License) Copyright 2024 Fonticons, Inc. --><path d="M32 16c0 8.8 7.2 16 16 16l416 0c8.8 0 16-7.2 16-16s-7.2-16-16-16L48 0C39.2 0 32 7.2 32 16zM16 80c0 8.8 7.2 16 16 16l448 0c8.8 0 16-7.2 16-16s-7.2-16-16-16L32 64c-8.8 0-16 7.2-16 16zm43.8 48C26.9 128 1.1 156.3 4 189.1l24.7 272C31.4 489.9 55.6 512 84.5 512l310.3 0c-12.9-9.1-24.5-19.9-34.6-32L84.5 480c-12.4 0-22.8-9.5-23.9-21.8l-24.7-272C34.6 172.1 45.7 160 59.8 160l392.4 0c14.1 0 25.2 12.1 23.9 26.2l-.6 7c6.7-.8 13.6-1.2 20.5-1.2c3.9 0 7.8 .1 11.7 .4l.3-3.3c3-32.8-22.8-61.1-55.8-61.1L59.8 128zM256 192c-88.4 0-160 57.3-160 128s71.6 128 160 128c27.6 0 53.6-5.6 76.2-15.4c-3.9-9.9-6.9-20.2-9-30.8C304.4 410.6 281.7 416 256 416c-77.7 0-128-49.3-128-96s50.3-96 128-96c43.3 0 78 15.3 100.3 36.9c6.5-8.5 13.8-16.4 21.8-23.6C348.8 209.6 305 192 256 192zm0 152c13.3 0 24-9 24-20s-10.7-20-24-20s-24 9-24 20s10.7 20 24 20zm128 24a112 112 0 1 1 224 0 112 112 0 1 1 -224 0zm256 0a144 144 0 1 0 -288 0 144 144 0 1 0 288 0zM512 304c0-8.8-7.2-16-16-16s-16 7.2-16 16l0 48-48 0c-8.8 0-16 7.2-16 16s7.2 16 16 16l48 0 0 48c0 8.8 7.2 16 16 16s16-7.2 16-16l0-48 48 0c8.8 0 16-7.2 16-16s-7.2-16-16-16l-48 0 0-48z"/></svg>