<svg xmlns="http://www.w3.org/2000/svg" viewBox="0 0 448 512"><!--! Font Awesome Pro 6.6.0 by @fontawesome - https://fontawesome.com License - https://fontawesome.com/license (Commercial License) Copyright 2024 Fonticons, Inc. --><path d="M16 48C7.2 48 0 55.2 0 64s7.2 16 16 16l256 0c8.8 0 16-7.2 16-16s-7.2-16-16-16L16 48zm0 128c-8.8 0-16 7.2-16 16s7.2 16 16 16l416 0c8.8 0 16-7.2 16-16s-7.2-16-16-16L16 176zM0 320c0 8.8 7.2 16 16 16l256 0c8.8 0 16-7.2 16-16s-7.2-16-16-16L16 304c-8.8 0-16 7.2-16 16zM16 432c-8.8 0-16 7.2-16 16s7.2 16 16 16l416 0c8.8 0 16-7.2 16-16s-7.2-16-16-16L16 432z"/></svg>