<svg xmlns="http://www.w3.org/2000/svg" viewBox="0 0 512 512"><!--! Font Awesome Pro 6.6.0 by @fontawesome - https://fontawesome.com License - https://fontawesome.com/license (Commercial License) Copyright 2024 Fonticons, Inc. --><path d="M15.2 272C6.4 271.5-.4 264 0 255.2l.4-8C5.1 153.5 82.4 80 176.2 80l214.4 0L333.2 27.8c-6.5-5.9-7-16.1-1.1-22.6s16.1-7 22.6-1.1l88 80c3.3 3 5.2 7.3 5.2 11.8s-1.9 8.8-5.2 11.8l-88 80c-6.5 5.9-16.7 5.5-22.6-1.1s-5.5-16.7 1.1-22.6L390.6 112l-214.4 0c-76.7 0-140 60.2-143.8 136.8l-.4 8c-.4 8.8-8 15.6-16.8 15.2zm481.6-32c8.8 .4 15.6 8 15.2 16.8l-.4 8c-4.7 93.7-82 167.2-175.8 167.2l-214.4 0 57.4 52.2c6.5 5.9 7 16.1 1.1 22.6s-16.1 7-22.6 1.1l-88-80c-3.3-3-5.2-7.3-5.2-11.8s1.9-8.8 5.2-11.8l88-80c6.5-5.9 16.7-5.5 22.6 1.1s5.5 16.7-1.1 22.6L121.4 400l214.4 0c76.7 0 140-60.2 143.8-136.8l.4-8c.4-8.8 8-15.6 16.8-15.2z"/></svg>