<svg xmlns="http://www.w3.org/2000/svg" viewBox="0 0 640 512"><!--! Font Awesome Pro 6.6.0 by @fontawesome - https://fontawesome.com License - https://fontawesome.com/license (Commercial License) Copyright 2024 Fonticons, Inc. --><path d="M116.7 68.7c6.2-6.2 16.4-6.2 22.6 0l88 88c6.2 6.2 6.2 16.4 0 22.6s-16.4 6.2-22.6 0L144 118.6 144 336c0 26.5 21.5 48 48 48l144 0c8.8 0 16 7.2 16 16s-7.2 16-16 16l-144 0c-44.2 0-80-35.8-80-80l0-217.4L51.3 179.3c-6.2 6.2-16.4 6.2-22.6 0s-6.2-16.4 0-22.6l88-88zM528 393.4l60.7-60.7c6.2-6.2 16.4-6.2 22.6 0s6.2 16.4 0 22.6l-88 88c-6.2 6.2-16.4 6.2-22.6 0l-88-88c-6.2-6.2-6.2-16.4 0-22.6s16.4-6.2 22.6 0L496 393.4 496 176c0-26.5-21.5-48-48-48l-144 0c-8.8 0-16-7.2-16-16s7.2-16 16-16l144 0c44.2 0 80 35.8 80 80l0 217.4z"/></svg>