<svg xmlns="http://www.w3.org/2000/svg" viewBox="0 0 448 512"><!--! Font Awesome Pro 6.6.0 by @fontawesome - https://fontawesome.com License - https://fontawesome.com/license (Commercial License) Copyright 2024 Fonticons, Inc. --><path d="M443.3 139.3c6.2-6.2 6.2-16.4 0-22.6l-96-96c-6.2-6.2-16.4-6.2-22.6 0s-6.2 16.4 0 22.6L393.4 112 16 112c-8.8 0-16 7.2-16 16s7.2 16 16 16l377.4 0-68.7 68.7c-6.2 6.2-6.2 16.4 0 22.6s16.4 6.2 22.6 0l96-96zm-342.6 352c6.2 6.2 16.4 6.2 22.6 0s6.2-16.4 0-22.6L54.6 400 432 400c8.8 0 16-7.2 16-16s-7.2-16-16-16L54.6 368l68.7-68.7c6.2-6.2 6.2-16.4 0-22.6s-16.4-6.2-22.6 0l-96 96c-6.2 6.2-6.2 16.4 0 22.6l96 96z"/></svg>