<svg xmlns="http://www.w3.org/2000/svg" viewBox="0 0 512 512"><!--! Font Awesome Pro 6.6.0 by @fontawesome - https://fontawesome.com License - https://fontawesome.com/license (Commercial License) Copyright 2024 Fonticons, Inc. --><path d="M347.3 267.3c6.2-6.2 6.2-16.4 0-22.6l-128-128c-6.2-6.2-16.4-6.2-22.6 0s-6.2 16.4 0 22.6L297.4 240 16 240c-8.8 0-16 7.2-16 16s7.2 16 16 16l281.4 0L196.7 372.7c-6.2 6.2-6.2 16.4 0 22.6s16.4 6.2 22.6 0l128-128zM336 448c-8.8 0-16 7.2-16 16s7.2 16 16 16l96 0c44.2 0 80-35.8 80-80l0-288c0-44.2-35.8-80-80-80l-96 0c-8.8 0-16 7.2-16 16s7.2 16 16 16l96 0c26.5 0 48 21.5 48 48l0 288c0 26.5-21.5 48-48 48l-96 0z"/></svg>