<svg xmlns="http://www.w3.org/2000/svg" viewBox="0 0 512 512"><!--! Font Awesome Pro 6.6.0 by @fontawesome - https://fontawesome.com License - https://fontawesome.com/license (Commercial License) Copyright 2024 Fonticons, Inc. --><path d="M267.3 4.7c-6.2-6.2-16.4-6.2-22.6 0l-72 72c-6.2 6.2-6.2 16.4 0 22.6s16.4 6.2 22.6 0L240 54.6 240 240 54.6 240l44.7-44.7c6.2-6.2 6.2-16.4 0-22.6s-16.4-6.2-22.6 0l-72 72c-6.2 6.2-6.2 16.4 0 22.6l72 72c6.2 6.2 16.4 6.2 22.6 0s6.2-16.4 0-22.6L54.6 272 240 272l0 185.4-44.7-44.7c-6.2-6.2-16.4-6.2-22.6 0s-6.2 16.4 0 22.6l72 72c6.2 6.2 16.4 6.2 22.6 0l72-72c6.2-6.2 6.2-16.4 0-22.6s-16.4-6.2-22.6 0L272 457.4 272 272l185.4 0-44.7 44.7c-6.2 6.2-6.2 16.4 0 22.6s16.4 6.2 22.6 0l72-72c6.2-6.2 6.2-16.4 0-22.6l-72-72c-6.2-6.2-16.4-6.2-22.6 0s-6.2 16.4 0 22.6L457.4 240 272 240l0-185.4 44.7 44.7c6.2 6.2 16.4 6.2 22.6 0s6.2-16.4 0-22.6l-72-72z"/></svg>