<svg xmlns="http://www.w3.org/2000/svg" viewBox="0 0 512 512"><!--! Font Awesome Pro 6.6.0 by @fontawesome - https://fontawesome.com License - https://fontawesome.com/license (Commercial License) Copyright 2024 Fonticons, Inc. --><path d="M0 255.2C-.4 264 6.4 271.5 15.2 272s16.3-6.4 16.8-15.2l.4-8C36.2 172.2 99.5 112 176.2 112l214.4 0-57.4 52.2c-6.5 5.9-7 16.1-1.1 22.6s16.1 7 22.6 1.1l88-80c3.3-3 5.2-7.3 5.2-11.8s-1.9-8.8-5.2-11.8l-88-80c-6.5-5.9-16.7-5.5-22.6 1.1s-5.5 16.7 1.1 22.6L390.6 80 176.2 80C82.4 80 5.1 153.5 .4 247.2l-.4 8zm512 1.6c.4-8.8-6.4-16.3-15.2-16.8s-16.3 6.4-16.8 15.2l-.4 8C475.8 339.8 412.5 400 335.8 400l-214.4 0 57.4-52.2c6.5-5.9 7-16.1 1.1-22.6s-16.1-7-22.6-1.1l-88 80c-3.3 3-5.2 7.3-5.2 11.8s1.9 8.8 5.2 11.8l88 80c6.5 5.9 16.7 5.5 22.6-1.1s5.5-16.7-1.1-22.6L121.4 432l214.4 0c93.8 0 171.1-73.5 175.8-167.2l.4-8zM288 208c0-6.1-3.4-11.6-8.8-14.3s-11.9-2.1-16.8 1.5l-32 24c-7.1 5.3-8.5 15.3-3.2 22.4s15.3 8.5 22.4 3.2L256 240l0 64c0 8.8 7.2 16 16 16s16-7.2 16-16l0-96z"/></svg>