<svg xmlns="http://www.w3.org/2000/svg" viewBox="0 0 640 512"><!--! Font Awesome Pro 6.6.0 by @fontawesome - https://fontawesome.com License - https://fontawesome.com/license (Commercial License) Copyright 2024 Fonticons, Inc. --><path d="M16 64c8.8 0 16 7.2 16 16l0 352c0 8.8-7.2 16-16 16s-16-7.2-16-16L0 80c0-8.8 7.2-16 16-16zm203.3 84.7c6.2 6.2 6.2 16.4 0 22.6L150.6 240l338.7 0-68.7-68.7c-6.2-6.2-6.2-16.4 0-22.6s16.4-6.2 22.6 0l96 96c6.2 6.2 6.2 16.4 0 22.6l-96 96c-6.2 6.2-16.4 6.2-22.6 0s-6.2-16.4 0-22.6L489.4 272l-338.7 0 68.7 68.7c6.2 6.2 6.2 16.4 0 22.6s-16.4 6.2-22.6 0l-96-96c-6.2-6.2-6.2-16.4 0-22.6l96-96c6.2-6.2 16.4-6.2 22.6 0zM640 80l0 352c0 8.8-7.2 16-16 16s-16-7.2-16-16l0-352c0-8.8 7.2-16 16-16s16 7.2 16 16z"/></svg>