<svg xmlns="http://www.w3.org/2000/svg" viewBox="0 0 576 512"><!--! Font Awesome Pro 6.6.0 by @fontawesome - https://fontawesome.com License - https://fontawesome.com/license (Commercial License) Copyright 2024 Fonticons, Inc. --><path d="M448 48l0 144 32 0c8.8 0 16 7.2 16 16s-7.2 16-16 16l-48 0-48 0c-8.8 0-16-7.2-16-16s7.2-16 16-16l32 0 0-121.8-26.9 9c-8.4 2.8-17.4-1.7-20.2-10.1s1.7-17.4 10.1-20.2l48-16c4.9-1.6 10.2-.8 14.4 2.2s6.6 7.8 6.6 13zM171.3 475.3c-6.2 6.2-16.4 6.2-22.6 0l-96-96c-6.2-6.2-6.2-16.4 0-22.6s16.4-6.2 22.6 0L144 425.4 144 48c0-8.8 7.2-16 16-16s16 7.2 16 16l0 377.4 68.7-68.7c6.2-6.2 16.4-6.2 22.6 0s6.2 16.4 0 22.6l-96 96zM428 288a52 52 0 1 0 0 104 52 52 0 1 0 0-104zm-84 52c0-46.4 37.6-84 84-84s84 37.6 84 84c0 1.3 0 2.7-.1 4c0 0 .1 0 .1 0c0 21.2-7.6 41.8-21.5 57.9l-62.4 72.5c-5.8 6.7-15.9 7.5-22.6 1.7s-7.5-15.9-1.7-22.6L429.3 424c-.4 0-.9 0-1.3 0c-46.4 0-84-37.6-84-84z"/></svg>