<svg xmlns="http://www.w3.org/2000/svg" viewBox="0 0 576 512"><!--! Font Awesome Pro 6.6.0 by @fontawesome - https://fontawesome.com License - https://fontawesome.com/license (Commercial License) Copyright 2024 Fonticons, Inc. --><path d="M267.3 379.3l-96 96c-6.2 6.2-16.4 6.2-22.6 0l-96-96c-6.2-6.2-6.2-16.4 0-22.6s16.4-6.2 22.6 0L144 425.4 144 48c0-8.8 7.2-16 16-16s16 7.2 16 16l0 377.4 68.7-68.7c6.2-6.2 16.4-6.2 22.6 0s6.2 16.4 0 22.6zM352 32l128 0c6.2 0 11.8 3.5 14.4 9.1s1.9 12.1-1.9 16.9L385.3 192l94.7 0c8.8 0 16 7.2 16 16s-7.2 16-16 16l-128 0c-6.2 0-11.8-3.5-14.4-9.1s-1.9-12.1 1.9-16.9L446.7 64 352 64c-8.8 0-16-7.2-16-16s7.2-16 16-16zm64 256c6.1 0 11.6 3.4 14.3 8.8l63.9 127.7c.1 .2 .2 .4 .3 .6l15.8 31.7c4 7.9 .7 17.5-7.2 21.5s-17.5 .7-21.5-7.2L470.1 448l-108.2 0-11.6 23.2c-4 7.9-13.6 11.1-21.5 7.2s-11.1-13.6-7.2-21.5l15.8-31.7c.1-.2 .2-.4 .3-.6l63.9-127.7c2.7-5.4 8.2-8.8 14.3-8.8zM377.9 416l76.2 0L416 339.8 377.9 416z"/></svg>