<svg xmlns="http://www.w3.org/2000/svg" viewBox="0 0 384 512"><!--! Font Awesome Pro 6.6.0 by @fontawesome - https://fontawesome.com License - https://fontawesome.com/license (Commercial License) Copyright 2024 Fonticons, Inc. --><path d="M166.5 7.2c15.7-9.5 35.3-9.5 51 0l16.4 10c2.8 1.7 6 2.6 9.3 2.5l19.2-.5c18.3-.4 35.4 9.4 44.2 25.5l9.2 16.8c1.6 2.9 3.9 5.2 6.8 6.8l16.8 9.2c16.1 8.8 25.9 25.8 25.5 44.2l-.5 19.2c-.1 3.3 .8 6.5 2.5 9.3l10 16.4c9.5 15.7 9.5 35.3 0 51l-10 16.4c-1.7 2.8-2.6 6-2.5 9.3l.5 19.2c.4 18.3-9.4 35.4-25.5 44.2l-16.8 9.2c-2.9 1.6-5.2 3.9-6.8 6.8l-9.2 16.8c-8.8 16.1-25.8 25.9-44.2 25.5l-19.2-.5c-3.3-.1-6.5 .8-9.3 2.5l-16.4 10c-15.7 9.5-35.3 9.5-51 0l-16.4-10c-2.8-1.7-6-2.6-9.3-2.5l-19.2 .5c-18.3 .4-35.4-9.4-44.2-25.5l-9.2-16.8c-1.6-2.9-3.9-5.2-6.8-6.8l-16.8-9.2c-16.1-8.8-25.9-25.8-25.5-44.2l.5-19.2c.1-3.3-.8-6.5-2.5-9.3l-10-16.4c-9.5-15.7-9.5-35.3 0-51l10-16.4 13.7 8.3-13.7-8.3c1.7-2.8 2.6-6 2.5-9.3l-.5-19.2c-.4-18.3 9.4-35.4 25.5-44.2l16.8-9.2c2.9-1.6 5.2-3.9 6.8-6.8l9.2-16.8c8.8-16.1 25.8-25.9 44.2-25.5l19.2 .5c3.3 .1 6.5-.8 9.3-2.5l16.4-10zm34.4 27.3c-5.4-3.3-12.3-3.3-17.7 0l-16.4 10c-8 4.9-17.3 7.4-26.7 7.1l-19.2-.5c-6.4-.2-12.3 3.3-15.3 8.9L96.4 76.9c-4.5 8.2-11.3 15-19.5 19.5L60 105.6c-5.6 3.1-9 9-8.9 15.3l.5 19.2c.2 9.4-2.3 18.6-7.1 26.7l-10 16.4c-3.3 5.4-3.3 12.3 0 17.7l10 16.4c4.9 8 7.4 17.3 7.1 26.7l-.5 19.2c-.2 6.4 3.3 12.3 8.9 15.3l16.8 9.2c8.2 4.5 15 11.3 19.5 19.5l9.2 16.8c3.1 5.6 9 9 15.3 8.9l19.2-.5c9.4-.2 18.6 2.3 26.7 7.1l16.4 10c5.4 3.3 12.3 3.3 17.7 0l16.4-10c8-4.9 17.3-7.4 26.7-7.1l19.2 .5c6.4 .2 12.3-3.3 15.3-8.9l9.2-16.8c4.5-8.2 11.3-15 19.5-19.5l16.8-9.2c5.6-3.1 9-9 8.9-15.3l-.5-19.2c-.2-9.4 2.3-18.6 7.1-26.7l10-16.4c3.3-5.4 3.3-12.3 0-17.7l-10-16.4c-4.9-8-7.4-17.3-7.1-26.7l.5-19.2c.2-6.4-3.3-12.3-8.9-15.3l-16.8-9.2c-8.2-4.5-15-11.3-19.5-19.5L278.4 60c-3.1-5.6-9-9-15.3-8.9l-19.2 .5c-9.4 .2-18.6-2.3-26.7-7.1l-16.4-10zM192 136a56 56 0 1 0 0 112 56 56 0 1 0 0-112zm88 56a88 88 0 1 1 -176 0 88 88 0 1 1 176 0zM88 390c9.7 4.3 20.3 6.6 31.3 6.8l-16.6 72 83-35.6c4-1.7 8.6-1.7 12.6 0l83 35.6-16.6-72c10.9-.2 21.5-2.5 31.3-6.8l23.6 102.4c1.4 5.9-.7 12-5.3 15.9s-11 4.8-16.6 2.4L192 465.4 86.3 510.7c-5.5 2.4-11.9 1.4-16.6-2.4s-6.7-10-5.3-15.9L88 390z"/></svg>