<svg xmlns="http://www.w3.org/2000/svg" viewBox="0 0 512 512"><!--! Font Awesome Pro 6.6.0 by @fontawesome - https://fontawesome.com License - https://fontawesome.com/license (Commercial License) Copyright 2024 Fonticons, Inc. --><path d="M37.6 256L256 414.1l0-316.2L37.6 256zM258 64c16.6 0 30 13.5 30 30l0 103.4L464.3 69.7C469.5 66 475.6 64 482 64c16.6 0 30 13.5 30 30L512 418c0 16.6-13.4 30-30 30c-6.3 0-12.5-2-17.6-5.7L288 314.6 288 418c0 16.6-13.5 30-30 30c-6.3 0-12.5-2-17.6-5.7L9.9 275.4C3.7 270.9 0 263.7 0 256s3.7-14.9 9.9-19.4L240.3 69.7C245.5 66 251.6 64 258 64zm30 211.1l192 139 0-316.2-192 139 0 38.2z"/></svg>