<svg xmlns="http://www.w3.org/2000/svg" viewBox="0 0 576 512"><!--! Font Awesome Pro 6.6.0 by @fontawesome - https://fontawesome.com License - https://fontawesome.com/license (Commercial License) Copyright 2024 Fonticons, Inc. --><path d="M48 32c-8.8 0-16 7.2-16 16l0 96c0 8.8-7.2 16-16 16s-16-7.2-16-16L0 48C0 21.5 21.5 0 48 0l96 0c8.8 0 16 7.2 16 16s-7.2 16-16 16L48 32zm96 96c8.8 0 16 7.2 16 16l0 224c0 8.8-7.2 16-16 16s-16-7.2-16-16l0-224c0-8.8 7.2-16 16-16zm48 16c0-8.8 7.2-16 16-16s16 7.2 16 16l0 224c0 8.8-7.2 16-16 16s-16-7.2-16-16l0-224zm224 0c0-8.8 7.2-16 16-16s16 7.2 16 16l0 224c0 8.8-7.2 16-16 16s-16-7.2-16-16l0-224zM272 128c8.8 0 16 7.2 16 16l0 224c0 8.8-7.2 16-16 16s-16-7.2-16-16l0-224c0-8.8 7.2-16 16-16zm64 16c0-8.8 7.2-16 16-16s16 7.2 16 16l0 224c0 8.8-7.2 16-16 16s-16-7.2-16-16l0-224zM544 48c0-8.8-7.2-16-16-16l-96 0c-8.8 0-16-7.2-16-16s7.2-16 16-16l96 0c26.5 0 48 21.5 48 48l0 96c0 8.8-7.2 16-16 16s-16-7.2-16-16l0-96zM48 480l96 0c8.8 0 16 7.2 16 16s-7.2 16-16 16l-96 0c-26.5 0-48-21.5-48-48l0-96c0-8.8 7.2-16 16-16s16 7.2 16 16l0 96c0 8.8 7.2 16 16 16zm496-16l0-96c0-8.8 7.2-16 16-16s16 7.2 16 16l0 96c0 26.5-21.5 48-48 48l-96 0c-8.8 0-16-7.2-16-16s7.2-16 16-16l96 0c8.8 0 16-7.2 16-16z"/></svg>