<svg xmlns="http://www.w3.org/2000/svg" viewBox="0 0 448 512"><!--! Font Awesome Pro 6.6.0 by @fontawesome - https://fontawesome.com License - https://fontawesome.com/license (Commercial License) Copyright 2024 Fonticons, Inc. --><path d="M0 80c0-8.8 7.2-16 16-16l416 0c8.8 0 16 7.2 16 16s-7.2 16-16 16L16 96C7.2 96 0 88.8 0 80zM64 240c0-8.8 7.2-16 16-16l288 0c8.8 0 16 7.2 16 16s-7.2 16-16 16L80 256c-8.8 0-16-7.2-16-16zM288 400c0 8.8-7.2 16-16 16l-96 0c-8.8 0-16-7.2-16-16s7.2-16 16-16l96 0c8.8 0 16 7.2 16 16z"/></svg>