<svg xmlns="http://www.w3.org/2000/svg" viewBox="0 0 512 512"><!--! Font Awesome Pro 6.6.0 by @fontawesome - https://fontawesome.com License - https://fontawesome.com/license (Commercial License) Copyright 2024 Fonticons, Inc. --><path d="M256.6 480c-.4-5.3-.6-10.6-.6-16c0-5.8 .2-11.6 .7-17.3c.7-8.8 8.5-15.4 17.3-14.6s15.4 8.5 14.6 17.3c-.4 4.8-.6 9.7-.6 14.7c0 4.6 .2 9.1 .5 13.7c97.7-14.2 174.9-91.5 189.1-189.1c-4.5-.3-9.1-.5-13.7-.5c-4.9 0-9.8 .2-14.7 .6c-8.8 .7-16.5-5.8-17.3-14.6s5.8-16.5 14.6-17.3c5.7-.5 11.5-.7 17.3-.7c5.4 0 10.7 .2 16 .6l0-.6C480 132.3 379.7 32 256 32l-.6 0c.4 5.3 .6 10.6 .6 16c0 5.8-.2 11.6-.7 17.3c-.7 8.8-8.5 15.4-17.3 14.6s-15.4-8.5-14.6-17.3c.4-4.8 .6-9.7 .6-14.7c0-4.6-.2-9.1-.5-13.7C125.8 48.6 48.6 125.8 34.3 223.5c4.5 .3 9.1 .5 13.7 .5c4.9 0 9.8-.2 14.7-.6c8.8-.7 16.5 5.8 17.3 14.6s-5.8 16.5-14.6 17.3c-5.7 .5-11.5 .7-17.3 .7c-5.4 0-10.7-.2-16-.6l0 .6c0 123.7 100.3 224 224 224l.6 0zM0 256a256 256 0 1 1 512 0A256 256 0 1 1 0 256zm121.3-48c38.3-17.6 69.2-48.5 86.7-86.7c3.7-8 13.2-11.6 21.2-7.9s11.6 13.2 7.9 21.2c-20.8 45.2-57.2 81.7-102.5 102.5c-8 3.7-17.5 .2-21.2-7.9s-.2-17.5 7.9-21.2zM390.7 304c-38.3 17.6-69.2 48.5-86.7 86.7c-3.7 8-13.2 11.6-21.2 7.9s-11.6-13.2-7.9-21.2c20.8-45.2 57.2-81.7 102.5-102.5c8-3.7 17.5-.2 21.2 7.9s.2 17.5-7.9 21.2z"/></svg>