<svg xmlns="http://www.w3.org/2000/svg" viewBox="0 0 576 512"><!--! Font Awesome Pro 6.6.0 by @fontawesome - https://fontawesome.com License - https://fontawesome.com/license (Commercial License) Copyright 2024 Fonticons, Inc. --><path d="M366.3 187.7c8.9 4.5 19.3 4.6 28.3 .4l71.8-34.2c3.1-1.5 6.8-.7 9 1.9C519.7 207.5 544 273.2 544 341.2l0 7L507.6 330c-22.4-11.2-49.7-3.3-62.6 18.2l-19.3 32.2-22.1-22.1c-20.5-20.5-54.3-18.3-72 4.7L288 419.5l-43.5-56.6c-17.7-23-51.5-25.2-72-4.7l-22.1 22.1-19.3-32.2c-12.9-21.5-40.2-29.5-62.6-18.2L32 348.2l0-7c0-68 24.3-133.7 68.6-185.4c2.2-2.6 5.9-3.4 9-1.9l71.8 34.2c9 4.3 19.4 4.1 28.3-.4s15.1-12.9 16.9-22.6L240.3 92l15.3 10.2c9.6 6.4 20.9 9.8 32.4 9.8s22.8-3.4 32.4-9.8L335.7 92l13.7 73.1c1.8 9.8 8.1 18.1 16.9 22.6zM358.2 77s0 0 0 0l-9.9-14.9L358.2 77s0 0 0 0zm16.6 49.7L362.2 59.5c-1.3-6.7-7.1-11.5-13.9-11.5c-2.8 0-5.5 .8-7.8 2.4L302.7 75.6c-4.3 2.9-9.4 4.4-14.7 4.4s-10.3-1.5-14.7-4.4L235.6 50.4c-2.3-1.5-5-2.4-7.8-2.4c-6.8 0-12.6 4.8-13.9 11.5l-12.6 67.2-6.1 32.5L165.3 145 123.4 125c-16.2-7.7-35.5-3.6-47.1 10C27.1 192.4 0 265.6 0 341.2l0 37.6c0 9.7 10.2 16 18.9 11.7l63.8-31.9c7.5-3.7 16.6-1.1 20.9 6.1l29.8 49.7c5.4 8.9 17.7 10.4 25 3.1l36.6-36.6c6.8-6.8 18.1-6.1 24 1.6l56.2 73.1c6.4 8.3 19 8.3 25.4 0l56.2-73.1c5.9-7.7 17.2-8.4 24-1.6l36.6 36.6c7.4 7.4 19.7 5.8 25-3.1l29.8-49.7c4.3-7.2 13.4-9.8 20.9-6.1l63.8 31.9c8.7 4.3 18.9-2 18.9-11.7l0-37.6c0-75.6-27.1-148.8-76.3-206.2c-11.6-13.6-30.9-17.7-47.1-10L410.7 145l-29.9 14.2-6.1-32.5z"/></svg>