<svg xmlns="http://www.w3.org/2000/svg" viewBox="0 0 640 512"><!--! Font Awesome Pro 6.6.0 by @fontawesome - https://fontawesome.com License - https://fontawesome.com/license (Commercial License) Copyright 2024 Fonticons, Inc. --><path d="M32 48c0-8.8-7.2-16-16-16S0 39.2 0 48L0 208 0 336l0 64 0 64c0 8.8 7.2 16 16 16s16-7.2 16-16l0-48 576 0 0 48c0 8.8 7.2 16 16 16s16-7.2 16-16l0-64 0-64 0-32c0-61.9-50.1-112-112-112L32 192 32 48zM608 320L32 320l0-96 496 0c44.2 0 80 35.8 80 80l0 16zM32 352l576 0 0 32L32 384l0-32z"/></svg>