<svg xmlns="http://www.w3.org/2000/svg" viewBox="0 0 576 512"><!--! Font Awesome Pro 6.6.0 by @fontawesome - https://fontawesome.com License - https://fontawesome.com/license (Commercial License) Copyright 2024 Fonticons, Inc. --><path d="M219.3 4.7c-6.2-6.2-16.4-6.2-22.6 0s-6.2 16.4 0 22.6l31.5 31.5C215.6 73 208 91.6 208 112c0 3 .2 6 .5 8.9C185.7 105 157 96 128 96C63 96 0 140.9 0 208c0 61.9 53.6 104.9 112.9 111.2c-.6-5.1-.9-10.2-.9-15.2c0-5.7 .3-11.4 .8-17C66.7 280.9 32 247.6 32 208c0-43.8 42.5-80 96-80c40.8 0 75.2 21.1 89.3 50.5C173.5 203.3 144 250.2 144 304c0 83.8 103.6 179.7 129.9 202.8c3.9 3.4 8.9 5.2 14.1 5.2s10.2-1.8 14.1-5.2C328.4 483.7 432 387.8 432 304c0-53.8-29.5-100.7-73.3-125.5c14-29.5 48.5-50.5 89.3-50.5c53.5 0 96 36.2 96 80c0 39.6-34.7 72.9-80.8 79c.5 5.6 .8 11.3 .8 17c0 5-.3 10.1-.9 15.2C522.4 312.9 576 269.9 576 208c0-67.1-63-112-128-112c-29 0-57.7 9-80.5 24.9c.3-2.9 .5-5.9 .5-8.9c0-20.4-7.6-39-20.2-53.2l31.5-31.5c6.2-6.2 6.2-16.4 0-22.6s-16.4-6.2-22.6 0L321.9 39.5C311.6 34.7 300.1 32 288 32s-23.6 2.7-33.9 7.5L219.3 4.7zM288 64a48 48 0 1 1 0 96 48 48 0 1 1 0-96zM177.1 288c1.6-11.3 4.9-22.1 9.6-32l202.4 0c4.7 9.9 8 20.7 9.6 32l-221.7 0zm32.5-64c20.2-19.8 47.9-32 78.4-32s58.2 12.2 78.4 32l-156.8 0zm188.7 96c-2 10.2-5.7 20.9-10.9 32l-198.9 0c-5.2-11.1-8.9-21.8-10.9-32l220.7 0zm-29 64c-5.4 8.1-11.3 16.3-17.6 24.5c-2 2.6-4 5.1-6 7.5l-115.4 0c-2-2.5-4-5-6-7.5c-6.4-8.1-12.3-16.3-17.6-24.5l162.7 0zm-52.1 64c-11.4 11.8-21.7 21.6-29.2 28.5c-7.6-6.9-17.9-16.6-29.2-28.5l58.5 0z"/></svg>