<svg xmlns="http://www.w3.org/2000/svg" viewBox="0 0 512 512"><!--! Font Awesome Pro 6.6.0 by @fontawesome - https://fontawesome.com License - https://fontawesome.com/license (Commercial License) Copyright 2024 Fonticons, Inc. --><path d="M208 0c-26.3 0-50.2 10.6-67.6 27.8c0 0 0 0 0 0s0 0 0 0c0 0-.1 .1-.2 .1c-.2 .1-.4 .2-.8 .2c-.7 .1-1.3-.1-1.6-.3C125.7 20.3 111.3 16 96 16C51.8 16 16 51.8 16 96s35.8 80 80 80c15.3 0 29.7-4.3 41.9-11.8c.3-.2 .8-.4 1.6-.3c.3 0 .6 .1 .8 .2c.1 0 .1 .1 .2 .1c0 0 0 0 0 0s0 0 0 0C157.8 181.4 181.7 192 208 192s50.2-10.6 67.6-27.8c0 0 0 0 0 0s0 0 0 0l.1 0 .1 0c.2-.1 .4-.2 .8-.2c.7-.1 1.3 .1 1.6 .3c12.2 7.5 26.6 11.8 41.9 11.8c44.2 0 80-35.8 80-80s-35.8-80-80-80c-15.3 0-29.7 4.3-41.9 11.8c-.3 .2-.8 .4-1.6 .3c-.3 0-.6-.1-.8-.2c-.1 0-.1-.1-.2-.1c0 0 0 0 0 0s0 0 0 0C258.2 10.6 234.3 0 208 0zM163 50.5C174.5 39.1 190.4 32 208 32s33.5 7.1 45 18.5c11.3 11.2 29 12.4 41.8 4.5c7.3-4.5 15.9-7.1 25.1-7.1c26.5 0 48 21.5 48 48s-21.5 48-48 48c-9.2 0-17.8-2.6-25.1-7.1c-12.8-7.9-30.5-6.7-41.8 4.5c-11.6 11.5-27.5 18.5-45 18.5s-33.5-7.1-45-18.5c-11.3-11.2-29-12.4-41.8-4.5c-7.3 4.5-15.9 7.1-25.1 7.1c-26.5 0-48-21.5-48-48s21.5-48 48-48c9.2 0 17.8 2.6 25.1 7.1c12.8 7.9 30.5 6.7 41.8-4.5zM32 187.9L32 448c0 35.3 28.7 64 64 64l224 0c35.3 0 64-28.7 64-64l0-13.5 80.1-35c29.1-12.7 47.9-41.5 47.9-73.3l0-54.1c0-44.2-35.8-80-80-80l-48 0 0-4.1c-9.7 6.7-20.4 12-32 15.4l0 220.3c0 .2 0 .5 0 .7l0 23.6c0 17.7-14.3 32-32 32L96 480c-17.7 0-32-14.3-32-32l0-244.6c-11.6-3.4-22.3-8.7-32-15.4zM208 224c-8.8 0-16 7.2-16 16l0 160c0 8.8 7.2 16 16 16s16-7.2 16-16l0-160c0-8.8-7.2-16-16-16zm224 0c26.5 0 48 21.5 48 48l0 54.1c0 19.1-11.3 36.3-28.8 44L384 399.5 384 224l48 0zM160 240c0-8.8-7.2-16-16-16s-16 7.2-16 16l0 160c0 8.8 7.2 16 16 16s16-7.2 16-16l0-160zm128 0c0-8.8-7.2-16-16-16s-16 7.2-16 16l0 160c0 8.8 7.2 16 16 16s16-7.2 16-16l0-160z"/></svg>