<svg xmlns="http://www.w3.org/2000/svg" viewBox="0 0 448 512"><!--! Font Awesome Pro 6.6.0 by @fontawesome - https://fontawesome.com License - https://fontawesome.com/license (Commercial License) Copyright 2024 Fonticons, Inc. --><path d="M208 16c0-8.8 7.2-16 16-16s16 7.2 16 16l0 16.8c80.9 8 144 76.2 144 159.2l0 29.1c0 43.7 17.4 85.6 48.3 116.6l2.8 2.8c8.3 8.3 13 19.6 13 31.3c0 24.5-19.8 44.3-44.3 44.3L44.3 416C19.8 416 0 396.2 0 371.7c0-11.7 4.7-23 13-31.3l2.8-2.8C46.6 306.7 64 264.8 64 221.1L64 192c0-83 63.1-151.2 144-159.2L208 16zm16 48C153.3 64 96 121.3 96 192l0 29.1c0 52.2-20.7 102.3-57.7 139.2L35.6 363c-2.3 2.3-3.6 5.4-3.6 8.7c0 6.8 5.5 12.3 12.3 12.3l359.4 0c6.8 0 12.3-5.5 12.3-12.3c0-3.3-1.3-6.4-3.6-8.7l-2.8-2.8c-36.9-36.9-57.7-87-57.7-139.2l0-29.1c0-70.7-57.3-128-128-128zM193.8 458.7c4.4 12.4 16.3 21.3 30.2 21.3s25.8-8.9 30.2-21.3c2.9-8.3 12.1-12.7 20.4-9.8s12.7 12.1 9.8 20.4C275.6 494.2 251.9 512 224 512s-51.6-17.8-60.4-42.7c-2.9-8.3 1.4-17.5 9.8-20.4s17.5 1.4 20.4 9.8zM200 304a24 24 0 1 1 48 0 24 24 0 1 1 -48 0zm40-176l0 112c0 8.8-7.2 16-16 16s-16-7.2-16-16l0-112c0-8.8 7.2-16 16-16s16 7.2 16 16z"/></svg>