<svg xmlns="http://www.w3.org/2000/svg" viewBox="0 0 640 512"><!--! Font Awesome Pro 6.6.0 by @fontawesome - https://fontawesome.com License - https://fontawesome.com/license (Commercial License) Copyright 2024 Fonticons, Inc. --><path d="M320 16c0-5.1-2.5-10-6.6-13s-9.5-3.8-14.4-2.2l-48 16c-8.4 2.8-12.9 11.9-10.1 20.2s11.9 12.9 20.2 10.1l26.9-9L288 192l-48 0c-8.8 0-16 7.2-16 16s7.2 16 16 16l64 0 64 0c8.8 0 16-7.2 16-16s-7.2-16-16-16l-48 0 0-176zM96 304c0-5.1-2.5-10-6.6-13s-9.5-3.8-14.4-2.2l-48 16c-8.4 2.8-12.9 11.9-10.1 20.2s11.9 12.9 20.2 10.1l26.9-9L64 480l-48 0c-8.8 0-16 7.2-16 16s7.2 16 16 16l64 0 64 0c8.8 0 16-7.2 16-16s-7.2-16-16-16l-48 0 0-176zM0 80l0 64c0 44.2 35.8 80 80 80l32 0c44.2 0 80-35.8 80-80l0-64c0-44.2-35.8-80-80-80L80 0C35.8 0 0 35.8 0 80zM80 32l32 0c26.5 0 48 21.5 48 48l0 64c0 26.5-21.5 48-48 48l-32 0c-26.5 0-48-21.5-48-48l0-64c0-26.5 21.5-48 48-48zM272 288c-44.2 0-80 35.8-80 80l0 64c0 44.2 35.8 80 80 80l32 0c24 0 45.6-10.6 60.2-27.3c-7.4-8.3-14-17.3-19.7-27C336 471.1 321.1 480 304 480l-32 0c-26.5 0-48-21.5-48-48l0-64c0-26.5 21.5-48 48-48l32 0c7.6 0 14.9 1.8 21.3 5c2.6-10.5 6.2-20.7 10.7-30.3c-9.8-4.3-20.6-6.6-32-6.6l-32 0zm224-32a112 112 0 1 1 0 224 112 112 0 1 1 0-224zm0 256a144 144 0 1 0 0-288 144 144 0 1 0 0 288zm67.3-187.3c-6.2-6.2-16.4-6.2-22.6 0L480 385.4l-28.7-28.7c-6.2-6.2-16.4-6.2-22.6 0s-6.2 16.4 0 22.6l40 40c6.2 6.2 16.4 6.2 22.6 0l72-72c6.2-6.2 6.2-16.4 0-22.6z"/></svg>