<svg xmlns="http://www.w3.org/2000/svg" viewBox="0 0 640 512"><!--! Font Awesome Pro 6.6.0 by @fontawesome - https://fontawesome.com License - https://fontawesome.com/license (Commercial License) Copyright 2024 Fonticons, Inc. --><path d="M32 96c0-35.3 28.7-64 64-64l256 0c35.3 0 64 28.7 64 64l0 41c9.4-6.9 20.9-9.8 32-8.8L448 96c0-53-43-96-96-96L96 0C43 0 0 43 0 96L0 352c0 53 43 96 96 96l218.4 0c-5.9-10.1-10.9-20.9-14.9-32L96 416c-35.3 0-64-28.7-64-64s28.7-64 64-64l205.8 0c4.4-10.9 9.7-21.6 15.5-32L96 256c-24.6 0-47 9.2-64 24.4L32 96zM288 350.1c0-4.6 .3-9.3 .8-14.1L96 336c-8.8 0-16 7.2-16 16s7.2 16 16 16l192.8 0c-.5-5.9-.8-11.9-.8-17.9zm159.1-157l47.4 49.8c3.1 3.2 7.4 5 11.9 5s8.7-2 11.7-5.4l21-23.7c16.6 15.9 33.7 37.3 46.7 60.7c13.7 24.6 22.2 50 22.2 72.6c0 33.5-12.7 63.9-33.6 86.6c1-5.2 1.6-10.7 1.6-16.2c0-57.4-63.8-110.5-87.4-128.2c-5.2-3.9-12.1-3.9-17.3 0C447.8 312.1 384 365.2 384 422.6c0 5.7 .6 11.2 1.6 16.6c-21-22.8-33.6-53.3-33.6-87c0-28.4 12.4-58.2 31.4-86.7c18.4-27.5 42-52.6 63.7-72.3zM480 480c-2.4 0-4.7-.1-7-.2c-33.7-3.2-57-29.4-57-57.3c0-17.4 10.1-37.7 27.4-58.5c12.1-14.5 25.8-27 36.6-35.8c10.7 8.8 24.5 21.3 36.6 35.8c17.3 20.7 27.4 41.1 27.4 58.5c0 27.8-23.2 54-56.9 57.3c-2.4 .1-4.7 .2-7.1 .2zM320 352.2c0 85.6 65.7 155 150.9 159.6c3 .3 6 .4 9.1 .4c3.1 0 6.2-.1 9.2-.4C573.6 507 640 437.7 640 352.2c0-30-11-60.9-26.2-88.1c-15.2-27.4-35.3-52.3-55-70.6c-11.2-10.4-28.5-10.4-39.7-.1c-.4 .4-.8 .7-1.1 1.2l-12.3 13.8-37.9-39.9c-.3-.3-.5-.5-.8-.8c-11.1-10.1-28.1-10.1-39.3-.1c-23.4 21.1-50 48.9-70.9 80.2C336 278.8 320 314.8 320 352.2z"/></svg>