<svg xmlns="http://www.w3.org/2000/svg" viewBox="0 0 448 512"><!--! Font Awesome Pro 6.6.0 by @fontawesome - https://fontawesome.com License - https://fontawesome.com/license (Commercial License) Copyright 2024 Fonticons, Inc. --><path d="M384 64c17.7 0 32 14.3 32 32l0 320c0 17.7-14.3 32-32 32L64 448c-17.7 0-32-14.3-32-32L32 96c0-17.7 14.3-32 32-32l320 0zM64 32C28.7 32 0 60.7 0 96L0 416c0 35.3 28.7 64 64 64l320 0c35.3 0 64-28.7 64-64l0-320c0-35.3-28.7-64-64-64L64 32zm48 88a24 24 0 1 0 -48 0 24 24 0 1 0 48 0zm248 24a24 24 0 1 0 0-48 24 24 0 1 0 0 48zM112 392a24 24 0 1 0 -48 0 24 24 0 1 0 48 0zm248 24a24 24 0 1 0 0-48 24 24 0 1 0 0 48z"/></svg>