<svg xmlns="http://www.w3.org/2000/svg" viewBox="0 0 448 512"><!--! Font Awesome Pro 6.6.0 by @fontawesome - https://fontawesome.com License - https://fontawesome.com/license (Commercial License) Copyright 2024 Fonticons, Inc. --><path d="M16 80C7.2 80 0 87.2 0 96s7.2 16 16 16l416 0c8.8 0 16-7.2 16-16s-7.2-16-16-16L16 80zM144 240c-8.8 0-16 7.2-16 16s7.2 16 16 16l288 0c8.8 0 16-7.2 16-16s-7.2-16-16-16l-288 0zM128 416c0 8.8 7.2 16 16 16l288 0c8.8 0 16-7.2 16-16s-7.2-16-16-16l-288 0c-8.8 0-16 7.2-16 16zM0 432c0 8.8 7.2 16 16 16s16-7.2 16-16l0-192c0-8.8-7.2-16-16-16s-16 7.2-16 16L0 432z"/></svg>