<svg xmlns="http://www.w3.org/2000/svg" viewBox="0 0 576 512"><!--! Font Awesome Pro 6.6.0 by @fontawesome - https://fontawesome.com License - https://fontawesome.com/license (Commercial License) Copyright 2024 Fonticons, Inc. --><path d="M291.4 0c-6.1 0-12 2.2-16.5 6.3L8.7 242.9C3.2 247.8 0 254.8 0 262.2C0 276.4 11.6 288 25.8 288l111.5 0L69.2 478.7C63.4 494.9 75.4 512 92.6 512c6.1 0 11.9-2.2 16.5-6.2L374.9 271.3c5.8-5.1 9.1-12.5 9.1-20.3c0-14.9-12.1-27-27-27l-110.3 0L314.8 33.3C320.6 17.1 308.6 0 291.4 0zM42.1 256L275.3 48.7l-66.4 186c-1.8 4.9-1 10.3 2 14.6s7.9 6.8 13.1 6.8l119.8 0L108.6 463.6l66.5-186.2c1.8-4.9 1-10.3-2-14.6s-7.9-6.8-13.1-6.8L42.1 256zM464 288c-6.1 0-11.6 3.4-14.3 8.8l-96 192c-4 7.9-.7 17.5 7.2 21.5s17.5 .7 21.5-7.2L401.9 464l124.2 0 19.6 39.2c4 7.9 13.6 11.1 21.5 7.2s11.1-13.6 7.2-21.5l-96-192c-2.7-5.4-8.2-8.8-14.3-8.8zm0 51.8L510.1 432l-92.2 0L464 339.8z"/></svg>