<svg xmlns="http://www.w3.org/2000/svg" viewBox="0 0 448 512"><!--! Font Awesome Pro 6.6.0 by @fontawesome - https://fontawesome.com License - https://fontawesome.com/license (Commercial License) Copyright 2024 Fonticons, Inc. --><path d="M0 64C0 28.7 28.7 0 64 0L400 0c26.5 0 48 21.5 48 48l0 320c0 20.9-13.4 38.7-32 45.3l0 66.7 16 0c8.8 0 16 7.2 16 16s-7.2 16-16 16L64 512c-35.3 0-64-28.7-64-64c0 0 0 0 0 0L0 64zM64 416c-17.7 0-32 14.3-32 32s14.3 32 32 32l320 0 0-64L64 416zM32 392.6c9.4-5.4 20.3-8.6 32-8.6l336 0c8.8 0 16-7.2 16-16l0-320c0-8.8-7.2-16-16-16L64 32C46.3 32 32 46.3 32 64l0 328.6zM240 96c-38.9 0-64 24.6-64 48c0 14.1 8.4 28 24.2 37.5c4.8 2.9 7.8 8.1 7.8 13.7l0 12.8 64 0 0-12.8c0-5.6 2.9-10.8 7.8-13.7C295.6 172 304 158.1 304 144c0-23.4-25.1-48-64-48zm-96 48c0-47.3 46.5-80 96-80s96 32.7 96 80c0 24.6-13 45.6-32 59.7l0 12.3c0 13.3-10.7 24-24 24l-80 0c-13.3 0-24-10.7-24-24l0-12.3c-19-14.1-32-35.1-32-59.7zm56 0a16 16 0 1 1 32 0 16 16 0 1 1 -32 0zm64-16a16 16 0 1 1 0 32 16 16 0 1 1 0-32zM129.2 249.8c3.4-8.2 12.8-12 20.9-8.6L240 278.7l89.8-37.4c8.2-3.4 17.5 .5 20.9 8.6s-.5 17.5-8.6 20.9L281.6 296l60.6 25.2c8.2 3.4 12 12.8 8.6 20.9s-12.8 12-20.9 8.6L240 313.3l-89.8 37.4c-8.2 3.4-17.5-.5-20.9-8.6s.5-17.5 8.6-20.9L198.4 296l-60.6-25.2c-8.2-3.4-12-12.8-8.6-20.9z"/></svg>