<svg xmlns="http://www.w3.org/2000/svg" viewBox="0 0 576 512"><!--! Font Awesome Pro 6.6.0 by @fontawesome - https://fontawesome.com License - https://fontawesome.com/license (Commercial License) Copyright 2024 Fonticons, Inc. --><path d="M240 64l102.4 0c12.6 0 24.1 7.4 29.2 19l34.2 77L240 160l0-96zm0 128l112 0 64 0 16 0 16 0 0-2.4c0-9-1.9-17.8-5.5-26L400.9 70c-10.3-23.1-33.2-38-58.5-38L105.6 32C80.3 32 57.4 46.9 47.1 70L5.5 163.6c-3.6 8.2-5.5 17-5.5 26L0 416c0 35.3 28.7 64 64 64l232.2 0c-8.1-9.8-15.2-20.6-21-32L64 448c-17.7 0-32-14.3-32-32l0-224 176 0 32 0zm-32-32L42.1 160 76.3 83c5.1-11.6 16.6-19 29.2-19L208 64l0 96zm224 96a112 112 0 1 1 0 224 112 112 0 1 1 0-224zm0 256a144 144 0 1 0 0-288 144 144 0 1 0 0 288zm67.3-187.3c-6.2-6.2-16.4-6.2-22.6 0L416 385.4l-28.7-28.7c-6.2-6.2-16.4-6.2-22.6 0s-6.2 16.4 0 22.6l40 40c6.2 6.2 16.4 6.2 22.6 0l72-72c6.2-6.2 6.2-16.4 0-22.6z"/></svg>