<svg xmlns="http://www.w3.org/2000/svg" viewBox="0 0 256 512"><!--! Font Awesome Pro 6.6.0 by @fontawesome - https://fontawesome.com License - https://fontawesome.com/license (Commercial License) Copyright 2024 Fonticons, Inc. --><path d="M64 112c0-44.2 35.8-80 80-80l64 0c8.8 0 16 7.2 16 16s-7.2 16-16 16l-64 0c-26.5 0-48 21.5-48 48l0 53.5c0 21.2-8.4 41.6-23.4 56.6L38.6 256l33.9 33.9c15 15 23.4 35.4 23.4 56.6L96 400c0 26.5 21.5 48 48 48l64 0c8.8 0 16 7.2 16 16s-7.2 16-16 16l-64 0c-44.2 0-80-35.8-80-80l0-53.5c0-12.7-5.1-24.9-14.1-33.9L4.7 267.3c-3-3-4.7-7.1-4.7-11.3s1.7-8.3 4.7-11.3l45.3-45.3c9-9 14.1-21.2 14.1-33.9L64 112z"/></svg>