<svg xmlns="http://www.w3.org/2000/svg" viewBox="0 0 640 512"><!--! Font Awesome Pro 6.6.0 by @fontawesome - https://fontawesome.com License - https://fontawesome.com/license (Commercial License) Copyright 2024 Fonticons, Inc. --><path d="M64 64a32 32 0 1 1 0 64 32 32 0 1 1 0-64zm0 96A64 64 0 1 0 64 32a64 64 0 1 0 0 128zm160 64a32 32 0 1 1 0 64 32 32 0 1 1 0-64zm0 96a64 64 0 1 0 0-128 64 64 0 1 0 0 128zM32 416a32 32 0 1 1 64 0 32 32 0 1 1 -64 0zm96 0A64 64 0 1 0 0 416a64 64 0 1 0 128 0zm64 0a32 32 0 1 1 64 0 32 32 0 1 1 -64 0zm96 0a64 64 0 1 0 -128 0 64 64 0 1 0 128 0zM32 256a32 32 0 1 1 64 0 32 32 0 1 1 -64 0zm96 0A64 64 0 1 0 0 256a64 64 0 1 0 128 0zM192 96a32 32 0 1 1 64 0 32 32 0 1 1 -64 0zm96 0A64 64 0 1 0 160 96a64 64 0 1 0 128 0zM416 64a32 32 0 1 1 0 64 32 32 0 1 1 0-64zm0 96a64 64 0 1 0 0-128 64 64 0 1 0 0 128zM544 96a32 32 0 1 1 64 0 32 32 0 1 1 -64 0zm96 0A64 64 0 1 0 512 96a64 64 0 1 0 128 0zM576 224a32 32 0 1 1 0 64 32 32 0 1 1 0-64zm0 96a64 64 0 1 0 0-128 64 64 0 1 0 0 128zm-32 96a32 32 0 1 1 64 0 32 32 0 1 1 -64 0zm96 0a64 64 0 1 0 -128 0 64 64 0 1 0 128 0zM416 224a32 32 0 1 1 0 64 32 32 0 1 1 0-64zm0 96a64 64 0 1 0 0-128 64 64 0 1 0 0 128zm-32 96a32 32 0 1 1 64 0 32 32 0 1 1 -64 0zm96 0a64 64 0 1 0 -128 0 64 64 0 1 0 128 0zM240 96a16 16 0 1 0 -32 0 16 16 0 1 0 32 0zM64 112a16 16 0 1 0 0-32 16 16 0 1 0 0 32zM80 256a16 16 0 1 0 -32 0 16 16 0 1 0 32 0zM416 112a16 16 0 1 0 0-32 16 16 0 1 0 0 32z"/></svg>