<svg xmlns="http://www.w3.org/2000/svg" viewBox="0 0 512 512"><!--! Font Awesome Pro 6.6.0 by @fontawesome - https://fontawesome.com License - https://fontawesome.com/license (Commercial License) Copyright 2024 Fonticons, Inc. --><path d="M96 256l0 176c0 8.8 7.2 16 16 16l288 0c8.8 0 16-7.2 16-16l0-176c0-17.7 14.3-32 32-32s32-14.3 32-32c0-44.3-32.4-76.2-84.6-98.6C344.1 71.4 284.5 64 256 64s-88.1 7.4-139.4 29.4C64.4 115.8 32 147.7 32 192c0 17.7 14.3 32 32 32s32 14.3 32 32zm352 0l0 32 0 144c0 26.5-21.5 48-48 48l-288 0c-26.5 0-48-21.5-48-48l0-144 0-32c-35.3 0-64-28.7-64-64C0 64 192 32 256 32s256 32 256 160c0 35.3-28.7 64-64 64zM193.9 276.7c-6.2 6.2-6.2 16.4 0 22.6l50.7 50.7c6.2 6.2 16.4 6.2 22.6 0l50.7-50.7c6.2-6.2 6.2-16.4 0-22.6l-50.7-50.7c-6.2-6.2-16.4-6.2-22.6 0l-50.7 50.7zm96-73.4l50.7 50.7c18.7 18.7 18.7 49.1 0 67.9l-50.7 50.7c-18.7 18.7-49.1 18.7-67.9 0l-50.7-50.7c-18.7-18.7-18.7-49.1 0-67.9l50.7-50.7c18.7-18.7 49.1-18.7 67.9 0z"/></svg>