<svg xmlns="http://www.w3.org/2000/svg" viewBox="0 0 576 512"><!--! Font Awesome Pro 6.6.0 by @fontawesome - https://fontawesome.com License - https://fontawesome.com/license (Commercial License) Copyright 2024 Fonticons, Inc. --><path d="M544 96L32 96l0 80.1c53.3 1.9 96 45.7 96 99.5l0 85.5c-9.9-5.7-21-8.6-32-8.6l0-76.9C96 238.2 65.8 208 28.4 208C12.7 208 0 195.3 0 179.6L0 96C0 78.3 14.3 64 32 64l512 0c17.7 0 32 14.3 32 32l0 83.6c0 15.7-12.7 28.4-28.4 28.4c-37.3 0-67.6 30.2-67.6 67.6l0 76.9c-11 0-22.1 2.8-32 8.6l0-85.5c0-53.8 42.7-97.6 96-99.5L544 96zM192 384.5s0 0 0 0L192 272c0-53 43-96 96-96s96 43 96 96l0 112.5c-10.4 0-21.3-2.2-32-6.1L352 272c0-35.3-28.7-64-64-64s-64 28.7-64 64l0 106.4c-10.3 3.8-21.1 6.1-32 6.1zm0 63.5c20.9 0 41.6-9.9 58.2-21.2c9.8-6.7 18-14 25.9-21.9c6.6-6.5 17.2-6.5 23.7 0c7.9 7.9 16.2 15.2 26 21.9C342.3 438 363.1 448 384 448s41.6-9.9 58.2-21.2c9.8-6.7 18-14 25.9-21.9c6.6-6.5 17.2-6.6 23.7 0c7.9 7.9 16.2 15.2 26 21.9c12.8 8.7 28.1 16.6 44.1 19.8c7.7 1.5 14.1 7.8 14.1 15.7c0 9.8-8 17.9-17.7 16.2c-23.1-4-43.6-15-58.5-25.2c-7.9-5.4-14.7-10.8-19.8-15.3c-5.1 4.5-11.8 9.9-19.8 15.3C441.5 465.9 414.3 480 384 480s-57.6-14.1-76.2-26.8c-7.9-5.4-14.7-10.8-19.8-15.3c-5.1 4.5-11.8 9.9-19.8 15.3C249.5 465.9 222.3 480 192 480s-57.6-14.1-76.2-26.8c-7.9-5.4-14.6-10.8-19.8-15.3c-5.1 4.5-11.8 9.9-19.8 15.3c-14.9 10.2-35.4 21.2-58.5 25.2C8 480.1 0 472 0 462.2c0-7.9 6.4-14.1 14.1-15.7c15.9-3.1 31.3-11.1 44-19.8c9.8-6.7 18-14 25.9-21.9c6.6-6.5 17.2-6.6 23.8 0c7.9 7.9 16.2 15.2 25.9 21.9C150.3 438 171.1 448 192 448z"/></svg>