<svg xmlns="http://www.w3.org/2000/svg" viewBox="0 0 512 512"><!--! Font Awesome Pro 6.6.0 by @fontawesome - https://fontawesome.com License - https://fontawesome.com/license (Commercial License) Copyright 2024 Fonticons, Inc. --><path d="M256 0c-37.2 0-69.5 21.2-85.4 52.1C162.2 49.4 153.3 48 144 48c-48.6 0-88 39.4-88 88c0 10.7 1.9 20.9 5.4 30.4C25.5 180.3 0 215.2 0 256c0 53 43 96 96 96l8 0s47.7 54.5 80.2 138.3c5 12.8 17.1 21.7 30.9 21.7l81.9 0c13.8 0 25.9-8.9 30.9-21.7C360.3 406.5 408 352 408 352l8 0c53 0 96-43 96-96c0-40.8-25.5-75.7-61.4-89.6c3.5-9.5 5.4-19.7 5.4-30.4c0-48.6-39.4-88-88-88c-9.3 0-18.2 1.4-26.6 4.1C325.5 21.2 293.2 0 256 0zm19.2 352l-2 4.9L256 400l-17.2-43.1-2-4.9 38.4 0zm-72.9 0l24 59.9C231.1 424 242.9 432 256 432s24.9-8 29.7-20.1l24-59.9 57.7 0c-4.1 5.6-8.9 12.3-13.9 20c-16.9 25.5-38.2 62.1-55.4 106.7c-.2 .6-.6 1-.9 1.2c-.1 .1-.2 .1-.2 .1l-81.8 0c0 0-.1 0-.2-.1c-.3-.2-.6-.6-.9-1.2c-17.3-44.6-38.5-81.2-55.4-106.7c-5.1-7.7-9.8-14.4-13.9-20l57.7 0zM194.6 77.8C202.5 51.3 227 32 256 32s53.5 19.3 61.4 45.8c1.4 4.7 4.8 8.5 9.3 10.3s9.6 1.5 13.9-.9C348.7 82.6 358 80 368 80c30.9 0 56 25.1 56 56c0 11.8-3.6 22.7-9.8 31.7c-3.1 4.6-3.7 10.4-1.5 15.5s6.9 8.6 12.4 9.4c31 4.4 54.9 31.1 54.9 63.4c0 35.3-28.7 64-64 64L96 320c-35.3 0-64-28.7-64-64c0-32.3 23.9-59 54.9-63.4c5.5-.8 10.2-4.3 12.4-9.4s1.7-10.9-1.5-15.5c-6.2-9-9.8-19.9-9.8-31.7c0-30.9 25.1-56 56-56c10 0 19.3 2.6 27.4 7.2c4.2 2.4 9.3 2.7 13.9 .9s8-5.6 9.3-10.3z"/></svg>