<svg xmlns="http://www.w3.org/2000/svg" viewBox="0 0 640 512"><!--! Font Awesome Pro 6.6.0 by @fontawesome - https://fontawesome.com License - https://fontawesome.com/license (Commercial License) Copyright 2024 Fonticons, Inc. --><path d="M560 304c8.8 0 16-7.2 16-16s-7.2-16-16-16l-80 0 0-8c0-22.9-7.4-44.2-20-61.4l79.3-79.3c6.2-6.2 6.2-16.4 0-22.6s-16.4-6.2-22.6 0L437.4 180c-17.2-12.6-38.4-20-61.4-20l-74.3 0 40.5 32 33.8 0c39.8 0 72 32.2 72 72l0 11.5L484.1 304l75.9 0zM411.4 409.7c-19.7 20.1-46 33.7-75.4 37.4l0-96.8-32-25.3L304 447c-63.1-7.9-112-61.7-112-127l0-32 0-24c0-8.5 1.5-16.6 4.2-24.2l-26.1-20.6C163.6 232.8 160 248 160 264l0 8-80 0c-8.8 0-16 7.2-16 16s7.2 16 16 16l80 0 0 16c0 30.2 8.4 58.4 22.9 82.5l-82.2 82.2c-6.2 6.2-6.2 16.4 0 22.6s16.4 6.2 22.6 0l79-79C231.5 460.1 273.4 480 320 480c46 0 87.4-19.4 116.6-50.4l-25.2-19.9zM224 98.7L261.2 128l126.4 0c15.7 0 28.4-12.7 28.4-28.4l0-3.6c0-53-43-96-96-96s-96 43-96 96l0 2.7zM320 32c35.3 0 64 28.7 64 64L256 96c0-35.3 28.7-64 64-64zM25.9 3.4C19-2 8.9-.8 3.4 6.1S-.8 23.1 6.1 28.6l608 480c6.9 5.5 17 4.3 22.5-2.6s4.3-17-2.6-22.5L25.9 3.4z"/></svg>