<svg xmlns="http://www.w3.org/2000/svg" viewBox="0 0 640 512"><!--! Font Awesome Pro 6.6.0 by @fontawesome - https://fontawesome.com License - https://fontawesome.com/license (Commercial License) Copyright 2024 Fonticons, Inc. --><path d="M320 32L64 32C46.3 32 32 46.3 32 64l0 384c0 17.7 14.3 32 32 32l64 0 0-64c0-35.3 28.7-64 64-64s64 28.7 64 64l0 64 35.3 0c3.4 11.9 9.2 22.7 16.8 32L256 512l-32 0-64 0-32 0-64 0c-35.3 0-64-28.7-64-64L0 64C0 28.7 28.7 0 64 0L320 0c35.3 0 64 28.7 64 64l-8 0c-8.3 0-16.4 1.2-24 3.3l0-3.3c0-17.7-14.3-32-32-32zM306.3 98.3c-6.7 8.7-11.9 18.8-15 29.7l-3.3 0-32 0 0 32 32 0 0 32-40 0c-13.3 0-24-10.7-24-24l0-48c0-13.3 10.7-24 24-24l48 0c3.7 0 7.2 .8 10.3 2.3zM288 224l0 32-32 0 0 32 32 0 0 32-40 0c-13.3 0-24-10.7-24-24l0-48c0-13.3 10.7-24 24-24l40 0zM192 384c-17.7 0-32 14.3-32 32l0 64 64 0 0-64c0-17.7-14.3-32-32-32zM88 96l48 0c13.3 0 24 10.7 24 24l0 48c0 13.3-10.7 24-24 24l-48 0c-13.3 0-24-10.7-24-24l0-48c0-13.3 10.7-24 24-24zm8 64l32 0 0-32-32 0 0 32zm-8 64l48 0c13.3 0 24 10.7 24 24l0 48c0 13.3-10.7 24-24 24l-48 0c-13.3 0-24-10.7-24-24l0-48c0-13.3 10.7-24 24-24zm8 64l32 0 0-32-32 0 0 32zM384 128c-17.7 0-32 14.3-32 32l0 288c0 17.7 14.3 32 32 32l192 0c17.7 0 32-14.3 32-32l0-288c0-17.7-14.3-32-32-32l-192 0zm-64 32c0-35.3 28.7-64 64-64l192 0c35.3 0 64 28.7 64 64l0 288c0 35.3-28.7 64-64 64l-192 0c-35.3 0-64-28.7-64-64l0-288zm56 48a24 24 0 1 1 48 0 24 24 0 1 1 -48 0zm24 72a24 24 0 1 1 0 48 24 24 0 1 1 0-48zM376 400a24 24 0 1 1 48 0 24 24 0 1 1 -48 0zm88-208l96 0c8.8 0 16 7.2 16 16s-7.2 16-16 16l-96 0c-8.8 0-16-7.2-16-16s7.2-16 16-16zM448 304c0-8.8 7.2-16 16-16l96 0c8.8 0 16 7.2 16 16s-7.2 16-16 16l-96 0c-8.8 0-16-7.2-16-16zm16 80l96 0c8.8 0 16 7.2 16 16s-7.2 16-16 16l-96 0c-8.8 0-16-7.2-16-16s7.2-16 16-16z"/></svg>