<svg xmlns="http://www.w3.org/2000/svg" viewBox="0 0 384 512"><!--! Font Awesome Pro 6.6.0 by @fontawesome - https://fontawesome.com License - https://fontawesome.com/license (Commercial License) Copyright 2024 Fonticons, Inc. --><path d="M64 32C46.3 32 32 46.3 32 64l0 384c0 17.7 14.3 32 32 32l64 0 0-64c0-35.3 28.7-64 64-64s64 28.7 64 64l0 64 64 0c17.7 0 32-14.3 32-32l0-384c0-17.7-14.3-32-32-32L64 32zM224 416c0-17.7-14.3-32-32-32s-32 14.3-32 32l0 64 64 0 0-64zm-96 96l-64 0c-35.3 0-64-28.7-64-64L0 64C0 28.7 28.7 0 64 0L320 0c35.3 0 64 28.7 64 64l0 384c0 35.3-28.7 64-64 64l-64 0-32 0-64 0-32 0zM248 224l48 0c13.3 0 24 10.7 24 24l0 48c0 13.3-10.7 24-24 24l-48 0c-13.3 0-24-10.7-24-24l0-48c0-13.3 10.7-24 24-24zm8 64l32 0 0-32-32 0 0 32zM64 248c0-13.3 10.7-24 24-24l48 0c13.3 0 24 10.7 24 24l0 48c0 13.3-10.7 24-24 24l-48 0c-13.3 0-24-10.7-24-24l0-48zm32 8l0 32 32 0 0-32-32 0zM237.3 71.1l34.7 52L272 80c0-8.8 7.2-16 16-16s16 7.2 16 16l0 96c0 7.1-4.6 13.3-11.4 15.3s-14-.6-17.9-6.4l-34.7-52 0 43.2c0 8.8-7.2 16-16 16s-16-7.2-16-16l0-96c0-7.1 4.6-13.3 11.4-15.3s14 .6 17.9 6.4zM112 80l0 64c0 8.8 7.2 16 16 16s16-7.2 16-16l0-64c0-8.8 7.2-16 16-16s16 7.2 16 16l0 64c0 26.5-21.5 48-48 48s-48-21.5-48-48l0-64c0-8.8 7.2-16 16-16s16 7.2 16 16z"/></svg>