<svg xmlns="http://www.w3.org/2000/svg" viewBox="0 0 448 512"><!--! Font Awesome Pro 6.6.0 by @fontawesome - https://fontawesome.com License - https://fontawesome.com/license (Commercial License) Copyright 2024 Fonticons, Inc. --><path d="M82.5 70.9c-1.6 2.6-2.5 5.7-2.5 8.8C80 88.8 87.4 96 96 96s16-7.2 16-16.3c0-3.2-.9-6.3-2.5-8.8L96 49.7 82.5 70.9zm-27-17.1L86.2 5.4C88.3 2 92 0 96 0s7.7 2 9.8 5.4l30.7 48.3c4.9 7.7 7.5 16.8 7.5 26c0 26.5-21.5 48.3-48 48.3s-48-21.8-48-48.3c0-9.2 2.6-18.2 7.5-26zM384 256l-16 0 0 16c0 8.8-7.2 16-16 16s-16-7.2-16-16l0-16-96 0 0 16c0 8.8-7.2 16-16 16s-16-7.2-16-16l0-16-96 0 0 16c0 8.8-7.2 16-16 16s-16-7.2-16-16l0-16-16 0c-17.7 0-32 14.3-32 32l0 80c13.3 0 26.1-6 36.3-13.1c2.2-1.5 4.7-3.9 7.4-6.4C81.9 342.7 89 336 96 336s14.1 6.7 20.3 12.5c2.7 2.5 5.2 4.9 7.4 6.4c10.2 7.1 23 13.1 36.3 13.1s26.1-6 36.3-13.1c2.2-1.5 4.7-3.9 7.4-6.4C209.9 342.7 217 336 224 336s14.1 6.7 20.3 12.5c2.7 2.5 5.2 4.9 7.4 6.4c10.2 7.1 23 13.1 36.3 13.1s26.1-6 36.3-13.1c2.2-1.5 4.7-3.9 7.4-6.4c6-5.7 13-12.3 19.8-12.4c7.2-.2 15.1 6.8 21.8 12.5c2.8 2.4 5.3 4.6 7.5 6c10.3 6.7 22.7 12.4 35.2 13.3l0-79.9c0-17.7-14.3-32-32-32zM32 400l0 80 384 0 0-80.1c-21.1-.9-39.8-10.2-52.6-18.5c-4.1-2.7-7.8-5.4-10.9-7.8c-2.8 2.4-6.1 5-9.8 7.5C329.8 390 310.6 400 288 400s-41.8-10-54.6-18.9c-3.5-2.4-6.7-4.9-9.4-7.2c-2.7 2.3-5.9 4.7-9.4 7.2C201.8 390 182.6 400 160 400s-41.8-10-54.6-18.9c-3.5-2.4-6.7-4.9-9.4-7.2c-2.7 2.3-5.9 4.7-9.4 7.2C73.8 390 54.6 400 32 400zM64 224l16 0 0-48c0-8.8 7.2-16 16-16s16 7.2 16 16l0 48 96 0 0-48c0-8.8 7.2-16 16-16s16 7.2 16 16l0 48 96 0 0-48c0-8.8 7.2-16 16-16s16 7.2 16 16l0 48 16 0c35.3 0 64 28.7 64 64l0 192c0 17.7-14.3 32-32 32L32 512c-17.7 0-32-14.3-32-32L0 288c0-35.3 28.7-64 64-64zM224 49.7L210.5 70.9c-1.6 2.6-2.5 5.7-2.5 8.8c0 9.1 7.4 16.3 16 16.3s16-7.2 16-16.3c0-3.2-.9-6.3-2.5-8.8L224 49.7zM214.2 5.4C216.3 2 220 0 224 0s7.7 2 9.8 5.4l30.7 48.3c4.9 7.7 7.5 16.8 7.5 26c0 26.5-21.5 48.3-48 48.3s-48-21.8-48-48.3c0-9.2 2.6-18.2 7.5-26L214.2 5.4zM338.5 70.9c-1.6 2.6-2.5 5.7-2.5 8.8c0 9.1 7.4 16.3 16 16.3s16-7.2 16-16.3c0-3.2-.9-6.3-2.5-8.8L352 49.7 338.5 70.9zm-27-17.1L342.2 5.4C344.3 2 348 0 352 0s7.7 2 9.8 5.4l30.7 48.3c4.9 7.7 7.5 16.8 7.5 26c0 26.5-21.5 48.3-48 48.3s-48-21.8-48-48.3c0-9.2 2.6-18.2 7.5-26z"/></svg>