<svg xmlns="http://www.w3.org/2000/svg" viewBox="0 0 512 512"><!--! Font Awesome Pro 6.6.0 by @fontawesome - https://fontawesome.com License - https://fontawesome.com/license (Commercial License) Copyright 2024 Fonticons, Inc. --><path d="M0 48l0 96c0 8.8 7.2 16 16 16s16-7.2 16-16l0-96c0-8.8 7.2-16 16-16l96 0c8.8 0 16-7.2 16-16s-7.2-16-16-16L48 0C21.5 0 0 21.5 0 48zM216.6 96c-16.7 0-31.6 10.3-37.5 26l-2.3 6L152 128c-30.9 0-56 25.1-56 56l0 144c0 30.9 25.1 56 56 56l208 0c30.9 0 56-25.1 56-56l0-144c0-30.9-25.1-56-56-56l-24.9 0-2.3-6C327 106.3 312 96 295.4 96l-78.7 0zm-7.5 37.2c1.2-3.1 4.2-5.2 7.5-5.2l78.7 0c3.3 0 6.3 2.1 7.5 5.2l6.2 16.4c2.3 6.2 8.3 10.4 15 10.4l36 0c13.3 0 24 10.7 24 24l0 144c0 13.3-10.7 24-24 24l-208 0c-13.3 0-24-10.7-24-24l0-144c0-13.3 10.7-24 24-24l36 0c6.7 0 12.6-4.1 15-10.4l6.2-16.4zM224 256a32 32 0 1 1 64 0 32 32 0 1 1 -64 0zm96 0a64 64 0 1 0 -128 0 64 64 0 1 0 128 0zM464 0L368 0c-8.8 0-16 7.2-16 16s7.2 16 16 16l96 0c8.8 0 16 7.2 16 16l0 96c0 8.8 7.2 16 16 16s16-7.2 16-16l0-96c0-26.5-21.5-48-48-48zM0 464c0 26.5 21.5 48 48 48l96 0c8.8 0 16-7.2 16-16s-7.2-16-16-16l-96 0c-8.8 0-16-7.2-16-16l0-96c0-8.8-7.2-16-16-16s-16 7.2-16 16l0 96zm464 48c26.5 0 48-21.5 48-48l0-96c0-8.8-7.2-16-16-16s-16 7.2-16 16l0 96c0 8.8-7.2 16-16 16l-96 0c-8.8 0-16 7.2-16 16s7.2 16 16 16l96 0z"/></svg>