<svg xmlns="http://www.w3.org/2000/svg" viewBox="0 0 640 512"><!--! Font Awesome Pro 6.6.0 by @fontawesome - https://fontawesome.com License - https://fontawesome.com/license (Commercial License) Copyright 2024 Fonticons, Inc. --><path d="M155.5 74.7c2.3-6.4 8.3-10.7 15.1-10.7L320 64l16 0 16 0 224 0c35.3 0 64 28.7 64 64l0 256c0 35.3-28.7 64-64 64l-224 0-16 0-16 0L64 448c-35.3 0-64-28.7-64-64L0 234.5c0-6.8 4.3-12.8 10.7-15.1C41.8 208.5 64 178.8 64 144c0-8.8 7.2-16 16-16c34.8 0 64.5-22.2 75.5-53.3zM192 96l0 96 128 0 0-96L192 96zm-32 30.4c-17 17.4-39.7 29.2-65 32.6c-1.6 11.7-4.9 22.8-9.8 33l74.8 0 0-65.6zm-96 96c-9.2 9.4-20 17.1-32 22.8L32 320l128 0 0-96-96 0 0-1.6zM32 352l0 32c0 17.7 14.3 32 32 32l96 0 0-64L32 352zm160 64l128 0 0-64-128 0 0 64zm128-96l0-96-128 0 0 96 128 0zm32 96l224 0c17.7 0 32-14.3 32-32l0-256c0-17.7-14.3-32-32-32L352 96l0 320z"/></svg>