<svg xmlns="http://www.w3.org/2000/svg" viewBox="0 0 640 512"><!--! Font Awesome Pro 6.6.0 by @fontawesome - https://fontawesome.com License - https://fontawesome.com/license (Commercial License) Copyright 2024 Fonticons, Inc. --><path d="M480 0c44.1 0 90.4 4.2 132.6 18.1C629 23.5 640 38.8 640 56c0 20.1-7 52-15.6 84c-9.1 33.8-21.4 73-34.7 110.4c-13.2 37.2-27.9 73.6-41.6 101.3c-13.4 27-32.9 64.3-68.1 64.3s-54.6-37.3-68.1-64.3c-13.8-27.7-28.4-64.1-41.6-101.3C357 213 344.7 173.8 335.6 140C327 108 320 76.1 320 56c0-17.2 11.4-32.6 27.8-38.1C390 4.4 436 0 480 0zM602.6 48.4C564.9 36.1 522.3 32 480 32c-42.1 0-84.4 4.2-122.2 16.3C354.2 49.6 352 53 352 56c0 13.3 4.4 36.2 11.3 63.4c1.2-.2 2.6-.3 4.1-.5c6.2-.8 15.2-1.8 26.2-2.8c22-2 52.6-4.1 86.4-4.1s64.3 2 86.4 4.1c11 1 20 2 26.2 2.8c1.6 .2 2.9 .4 4.1 .5C603.6 92.2 608 69.3 608 56c0-3.4-2.2-6.5-5.4-7.6zM371.8 150.6c8.1 28.2 18.1 59.3 28.7 89.1l1.3 3.7c21.1-1.8 48.4-3.4 78.2-3.4s57.1 1.6 78.2 3.4l1.3-3.7c10.6-29.8 20.6-60.9 28.7-89.1c-5.9-.7-14.4-1.7-24.8-2.6c-21.4-2-50.9-3.9-83.4-3.9s-62.1 2-83.4 3.9c-10.4 1-18.9 1.9-24.8 2.6zm68.8 186.9c6.9 13.8 13.5 26.4 21.5 35.7c7.6 8.8 13.1 10.9 17.9 10.9s10.4-2.1 17.9-10.9c8-9.2 14.6-21.8 21.5-35.7c8.8-17.6 18.1-39.3 27.2-62.9c-19-1.4-41.9-2.5-66.6-2.5s-47.6 1.1-66.6 2.5c9.1 23.6 18.4 45.3 27.2 62.9zM85.1 203.3c31.2-31.2 67-61 106.6-81c15.4-7.7 34-4.7 46.2 7.5c14.2 14.2 31.8 41.8 48.3 70.4c17.5 30.3 36.5 66.8 53.6 102.6c16.9 35.7 32.4 71.8 42.2 101c9.6 28.6 22.2 68.7-2.7 93.6s-65 12.2-93.6 2.7c-29.3-9.8-65.4-25.2-101-42.2c-35.9-17-72.3-36.1-102.6-53.5c-28.7-16.5-56.2-34.2-70.4-48.3c-12.2-12.2-15-31.2-7.3-46.6c20.3-39.4 49.7-75 80.8-106.2zM206 150.9c-35.4 17.9-68.4 45.2-98.3 75.1C78 255.7 51 288.6 32.9 323.9c-1.7 3.4-.8 7.4 1.4 9.5c9.4 9.4 28.8 22.5 52.8 36.8c.7-1 1.6-2.1 2.6-3.3c3.8-4.9 9.5-12 16.5-20.5c14.2-17 34.3-40 58.2-63.9s46.9-44 63.9-58.2c8.5-7.1 15.6-12.7 20.5-16.5c1.2-1 2.3-1.8 3.3-2.6c-14.3-24.1-27.4-43.4-36.8-52.8c-2.4-2.4-6.1-3-9.2-1.5zm-91 235.4c25.7 14.2 54.7 29.1 83.3 42.7l3.5 1.7c13.7-16.2 31.9-36.6 52.9-57.7s41.5-39.2 57.7-52.9l-1.7-3.5c-13.6-28.6-28.5-57.6-42.7-83.3c-4.7 3.7-11.4 9-19.4 15.7c-16.5 13.7-38.7 33.2-61.8 56.2s-42.5 45.3-56.2 61.8c-6.7 8.1-12 14.7-15.7 19.4zm180.8 83.5c14.7 4.9 28.2 9.1 40.4 10c11.6 .9 17-1.6 20.4-5s5.8-8.8 5-20.4c-.9-12.2-5.1-25.7-10-40.4c-6.3-18.6-15.1-40.6-25.3-63.7c-14.4 12.4-31.4 27.8-48.9 45.3s-32.9 34.5-45.3 48.9c23.1 10.2 45.1 19 63.7 25.3z"/></svg>