<svg xmlns="http://www.w3.org/2000/svg" viewBox="0 0 512 512"><!--! Font Awesome Pro 6.6.0 by @fontawesome - https://fontawesome.com License - https://fontawesome.com/license (Commercial License) Copyright 2024 Fonticons, Inc. --><path d="M269.3 7.1c-3-4.4-8-7.1-13.3-7.1s-10.3 2.7-13.3 7.1c-14.2 21.2-33.8 60-48 104.1c-10.3 31.7-18.1 67.2-18.7 101.4C124.5 176.5 61.4 156.8 27.1 150c-5.2-1-10.7 .6-14.4 4.4s-5.4 9.2-4.4 14.5c7.1 35.4 28.1 101.4 66.7 153.5c-21.4 8.8-40.3 19.5-52.8 26.6c0 0 0 0 0 0c-2.2 1.2-4.2 2.4-6 3.4c-5.1 2.8-8.2 8.2-8.2 14s3.2 11.2 8.2 14c14.1 7.8 41.4 22.7 72.2 33.1c20.7 7 44.6 12.7 67.8 11.8l-12.7 33c-2.3 6.1-.8 13 4 17.4s11.7 5.6 17.6 2.9l75-34.2 0 51.7c0 8.8 7.2 16 16 16s16-7.2 16-16l0-51.7 75 34.2c5.9 2.7 12.9 1.6 17.6-2.9s6.3-11.3 4-17.4l-12.7-33c23.2 .9 47.1-4.8 67.8-11.8c30.7-10.5 58.1-25.3 72.2-33.1c5.1-2.8 8.2-8.2 8.2-14s-3.2-11.2-8.2-14c-13-7.2-35.1-18.7-60.8-27.3c40-52.5 61.5-120.2 68.7-156.1c1.1-5.2-.6-10.7-4.4-14.5s-9.2-5.4-14.4-4.4c-34.3 6.8-97.4 26.5-148.9 62.6c-.6-34.2-8.4-69.8-18.7-101.4c-14.2-44-33.8-82.9-48-104.1zM272 409.1l0-73.1c0-8.8-7.2-16-16-16s-16 7.2-16 16l0 73.1-52.5 24 8.8-22.8c2.3-5.8 .9-12.4-3.5-16.9s-10.9-6-16.8-3.9c-20.8 7.4-48.7 3.3-77.2-6.4c-14.9-5-29-11.3-41-17.2c14.3-7.5 31.1-15.5 48.7-21c5.2-1.6 9.2-5.8 10.7-11s.1-10.9-3.5-14.9C79.1 280.5 57 226.4 45.9 187.5c41 11.6 98.7 35.2 137.7 72.3c5 4.8 12.5 5.8 18.6 2.5s9.4-10.1 8.2-16.9c-6.6-37.5 1.2-82.7 14.8-124.5c9.2-28.3 20.6-54.1 30.9-73.5c10.3 19.4 21.7 45.1 30.9 73.5c13.5 41.8 21.4 87 14.8 124.5c-1.2 6.8 2.1 13.6 8.2 16.9s13.6 2.2 18.6-2.5c39-37.1 96.7-60.7 137.7-72.3C454.6 227.7 431.4 284 395 322.7c-3.9 4.2-5.3 10.2-3.6 15.7s6.2 9.7 11.8 10.9c17.9 4 35.2 10.6 49.8 17.2c-11.8 5.7-25.4 11.7-39.7 16.6c-28.5 9.7-56.4 13.8-77.2 6.4c-5.9-2.1-12.5-.6-16.8 3.9s-5.7 11.1-3.5 16.9l8.8 22.8-52.5-24z"/></svg>