<svg xmlns="http://www.w3.org/2000/svg" viewBox="0 0 576 512"><!--! Font Awesome Pro 6.6.0 by @fontawesome - https://fontawesome.com License - https://fontawesome.com/license (Commercial License) Copyright 2024 Fonticons, Inc. --><path d="M32 240l160 0 0-96c0-44.2-35.8-80-80-80s-80 35.8-80 80l0 96zM0 256L0 144C0 82.1 50.1 32 112 32s112 50.1 112 112l0 24.2c3-32.2 19.3-63 47.3-83c50.7-36.2 120.5-23.6 156 28.1L555.7 300.6c35.5 51.7 23.2 123-27.5 159.2s-120.5 23.6-156-28.1L243.8 244.4c-11.5-16.8-18-35.7-19.8-54.8l0 66.4 0 112c0 61.9-50.1 112-112 112S0 429.9 0 368L0 256zm192 16L32 272l0 96c0 44.2 35.8 80 80 80s80-35.8 80-80l0-96zM398.6 413.6c25.5 37.1 75.1 45.8 111 20.1c36.3-26 45.5-77.6 19.7-115.1l-52.7-76.8-2.2 1.6L344.4 334.6l54.2 79.1zm57.5-196.4l2.5-1.7-57.7-84.2c-25.5-37.1-75.1-45.8-111-20.1c-36.3 26-45.5 77.6-19.7 115.1l56.1 81.8 129.8-90.9z"/></svg>