<svg xmlns="http://www.w3.org/2000/svg" viewBox="0 0 384 512"><!--! Font Awesome Pro 6.6.0 by @fontawesome - https://fontawesome.com License - https://fontawesome.com/license (Commercial License) Copyright 2024 Fonticons, Inc. --><path d="M320 32c17.7 0 32 14.3 32 32l0 384c0 17.7-14.3 32-32 32L64 480c-17.7 0-32-14.3-32-32L32 64c0-17.7 14.3-32 32-32l256 0zM64 0C28.7 0 0 28.7 0 64L0 448c0 35.3 28.7 64 64 64l256 0c35.3 0 64-28.7 64-64l0-384c0-35.3-28.7-64-64-64L64 0zM208 331.9c7.5 2.7 15.6 4.1 24 4.1c39.8 0 72-32.2 72-72c0-28.3-16.3-52.7-40-64.5c-.3-39.5-32.4-71.5-72-71.5s-71.7 32-72 71.5C96.3 211.3 80 235.7 80 264c0 39.8 32.2 72 72 72c8.4 0 16.5-1.4 24-4.1l0 20.1-16 0c-8.8 0-16 7.2-16 16s7.2 16 16 16l64 0c8.8 0 16-7.2 16-16s-7.2-16-16-16l-16 0 0-20.1zM152 200c0-22.1 17.9-40 40-40s40 17.9 40 40c0 2.5-.2 4.9-.6 7.2c-1.5 8.1 3.5 16 11.4 18.3c16.9 4.7 29.2 20.2 29.2 38.5c0 22.1-17.9 40-40 40c-11.2 0-21.3-4.6-28.6-12c-3-3.1-7.1-4.8-11.4-4.8s-8.4 1.7-11.4 4.8c-7.3 7.4-17.4 12-28.6 12c-22.1 0-40-17.9-40-40c0-18.3 12.3-33.8 29.2-38.5c8-2.2 12.9-10.1 11.4-18.3c-.4-2.3-.6-4.7-.6-7.2z"/></svg>