<svg xmlns="http://www.w3.org/2000/svg" viewBox="0 0 320 512"><!--! Font Awesome Pro 6.6.0 by @fontawesome - https://fontawesome.com License - https://fontawesome.com/license (Commercial License) Copyright 2024 Fonticons, Inc. --><path d="M154.4 162.2c1.4-1.3 3.5-2.2 5.6-2.2s4.2 .8 5.6 2.2L285.8 275.7c1.4 1.3 2.2 3.2 2.2 5.2c0 3.9-3.2 7.1-7.1 7.1L39.1 288c-3.9 0-7.1-3.2-7.1-7.1c0-2 .8-3.8 2.2-5.2L154.4 162.2zm-22-23.3L12.3 252.4C4.4 259.8 0 270.1 0 280.9C0 302.5 17.5 320 39.1 320l241.7 0c21.6 0 39.1-17.5 39.1-39.1c0-10.8-4.4-21.1-12.3-28.4L187.6 138.9c-7.4-7-17.3-10.9-27.6-10.9s-20.1 3.9-27.6 10.9z"/></svg>