<svg xmlns="http://www.w3.org/2000/svg" viewBox="0 0 576 512"><!--! Font Awesome Pro 6.6.0 by @fontawesome - https://fontawesome.com License - https://fontawesome.com/license (Commercial License) Copyright 2024 Fonticons, Inc. --><path d="M16 0C7.2 0 0 7.2 0 16s7.2 16 16 16l37.9 0c7.6 0 14.2 5.3 15.7 12.8l58.9 288c6.1 29.8 32.3 51.2 62.7 51.2L496 384c8.8 0 16-7.2 16-16s-7.2-16-16-16l-304.8 0c-15.2 0-28.3-10.7-31.4-25.6L152 288l314.6 0c29.4 0 55-20 62.1-48.5L575.5 51.9c2.1-8.6-3.1-17.3-11.6-19.4s-17.3 3.1-19.4 11.6L497.6 231.8C494 246 481.2 256 466.5 256l-321.1 0L100.9 38.4C96.3 16 76.7 0 53.9 0L16 0zM168 456a24 24 0 1 1 48 0 24 24 0 1 1 -48 0zm80 0a56 56 0 1 0 -112 0 56 56 0 1 0 112 0zm200-24a24 24 0 1 1 0 48 24 24 0 1 1 0-48zm0 80a56 56 0 1 0 0-112 56 56 0 1 0 0 112zM240 128c0 8.8 7.2 16 16 16l48 0 0 48c0 8.8 7.2 16 16 16s16-7.2 16-16l0-48 48 0c8.8 0 16-7.2 16-16s-7.2-16-16-16l-48 0 0-48c0-8.8-7.2-16-16-16s-16 7.2-16 16l0 48-48 0c-8.8 0-16 7.2-16 16z"/></svg>