<svg xmlns="http://www.w3.org/2000/svg" viewBox="0 0 512 512"><!--! Font Awesome Pro 6.6.0 by @fontawesome - https://fontawesome.com License - https://fontawesome.com/license (Commercial License) Copyright 2024 Fonticons, Inc. --><path d="M16 32c8.8 0 16 7.2 16 16l0 352c0 26.5 21.5 48 48 48l416 0c8.8 0 16 7.2 16 16s-7.2 16-16 16L80 480c-44.2 0-80-35.8-80-80L0 48c0-8.8 7.2-16 16-16zM176 323.2a19.2 19.2 0 1 0 0-38.4 19.2 19.2 0 1 0 0 38.4zm0-67.2a48 48 0 1 1 0 96 48 48 0 1 1 0-96zm208 32a32 32 0 1 0 -64 0 32 32 0 1 0 64 0zm-96 0a64 64 0 1 1 128 0 64 64 0 1 1 -128 0zm-48-92.8a19.2 19.2 0 1 0 0-38.4 19.2 19.2 0 1 0 0 38.4zm0-67.2a48 48 0 1 1 0 96 48 48 0 1 1 0-96zm176 0a32 32 0 1 0 -64 0 32 32 0 1 0 64 0zm-96 0a64 64 0 1 1 128 0 64 64 0 1 1 -128 0z"/></svg>