<svg xmlns="http://www.w3.org/2000/svg" viewBox="0 0 512 512"><!--! Font Awesome Pro 6.6.0 by @fontawesome - https://fontawesome.com License - https://fontawesome.com/license (Commercial License) Copyright 2024 Fonticons, Inc. --><path d="M269.8 87.7c-6.2-10.6-21.5-10.6-27.6 0L181.3 192l149.3 0L269.8 87.7zM106.7 320l298.7 0-56-96-186.7 0-56 96zM88 352L46 423.9C39.8 434.6 47.5 448 59.9 448l392.3 0c12.3 0 20-13.4 13.8-24.1L424 352 88 352zM214.5 71.6c18.5-31.8 64.4-31.8 82.9 0L493.6 407.8c18.7 32-4.4 72.2-41.5 72.2L59.9 480c-37 0-60.1-40.2-41.5-72.2L214.5 71.6z"/></svg>