<svg xmlns="http://www.w3.org/2000/svg" viewBox="0 0 512 512"><!--! Font Awesome Pro 6.6.0 by @fontawesome - https://fontawesome.com License - https://fontawesome.com/license (Commercial License) Copyright 2024 Fonticons, Inc. --><path d="M480 240.2l0 15.8-66.7 0c-6.6-18.6-24.4-32-45.3-32s-38.7 13.4-45.3 32L32 256c0-9.3 4.6-18 12.4-23.1l148.7-99.2c-.7 3.3-1.1 6.7-1.1 10.3c0 26.5 21.5 48 48 48s48-21.5 48-48c0-23.6-17-43.2-39.4-47.2l44.1-29.4L274.9 40.7l17.8 26.6c3.3-2.2 7.2-3.4 11.1-3.4C401.1 64 480 142.9 480 240.2zM322.7 288c6.6 18.6 24.4 32 45.3 32s38.7-13.4 45.3-32l66.7 0 0 128c0 17.7-14.3 32-32 32L64 448c-17.7 0-32-14.3-32-32l0-128 290.7 0zm-19-256c-10.3 0-20.3 3-28.9 8.7L26.6 206.2C10 217.3 0 236 0 256L0 416c0 35.3 28.7 64 64 64l384 0c35.3 0 64-28.7 64-64l0-160 0-15.8C512 125.2 418.8 32 303.8 32zM160 368a16 16 0 1 1 32 0 16 16 0 1 1 -32 0zm64 0a48 48 0 1 0 -96 0 48 48 0 1 0 96 0zm16-240a16 16 0 1 1 0 32 16 16 0 1 1 0-32zM352 272a16 16 0 1 1 32 0 16 16 0 1 1 -32 0z"/></svg>