<svg xmlns="http://www.w3.org/2000/svg" viewBox="0 0 512 512"><!--! Font Awesome Pro 6.6.0 by @fontawesome - https://fontawesome.com License - https://fontawesome.com/license (Commercial License) Copyright 2024 Fonticons, Inc. --><path d="M480 256A224 224 0 1 0 32 256a224 224 0 1 0 448 0zM0 256a256 256 0 1 1 512 0A256 256 0 1 1 0 256zM244.7 100.7c6.2-6.2 16.4-6.2 22.6 0l96 96c4.6 4.6 5.9 11.5 3.5 17.4s-8.3 9.9-14.8 9.9l-192 0c-6.5 0-12.3-3.9-14.8-9.9s-1.1-12.9 3.5-17.4l96-96zM198.6 192l114.7 0L256 134.6 198.6 192zM148.7 315.3c-6.2-6.2-6.2-16.4 0-22.6s16.4-6.2 22.6 0L256 377.4l84.7-84.7c6.2-6.2 16.4-6.2 22.6 0s6.2 16.4 0 22.6l-96 96c-6.2 6.2-16.4 6.2-22.6 0l-96-96z"/></svg>