<svg xmlns="http://www.w3.org/2000/svg" viewBox="0 0 512 512"><!--! Font Awesome Pro 6.6.0 by @fontawesome - https://fontawesome.com License - https://fontawesome.com/license (Commercial License) Copyright 2024 Fonticons, Inc. --><path d="M32 256a224 224 0 1 1 448 0A224 224 0 1 1 32 256zm480 0A256 256 0 1 0 0 256a256 256 0 1 0 512 0zm-400 0c0 9.2 3.5 18 9.7 24.7l84 91c7.2 7.8 17.4 12.3 28.1 12.3c21.1 0 38.3-17.1 38.3-38.3l0-25.7 80 0c26.5 0 48-21.5 48-48l0-32c0-26.5-21.5-48-48-48l-80 0 0-25.7c0-21.1-17.1-38.3-38.3-38.3c-10.7 0-20.9 4.5-28.1 12.3l-84 91c-6.2 6.7-9.7 15.6-9.7 24.7zm33.2 3c-.8-.8-1.2-1.9-1.2-3s.4-2.2 1.2-3l84-91c1.2-1.3 2.9-2 4.6-2c3.5 0 6.3 2.8 6.3 6.3l0 41.7c0 8.8 7.2 16 16 16l96 0c8.8 0 16 7.2 16 16l0 32c0 8.8-7.2 16-16 16l-96 0c-8.8 0-16 7.2-16 16l0 41.7c0 3.5-2.8 6.3-6.3 6.3c-1.7 0-3.4-.7-4.6-2l-84-91z"/></svg>