<svg xmlns="http://www.w3.org/2000/svg" viewBox="0 0 512 512"><!--! Font Awesome Pro 6.6.0 by @fontawesome - https://fontawesome.com License - https://fontawesome.com/license (Commercial License) Copyright 2024 Fonticons, Inc. --><path d="M480 256A224 224 0 1 0 32 256a224 224 0 1 0 448 0zM0 256a256 256 0 1 1 512 0A256 256 0 1 1 0 256zM272 120l0 23c13.5 1 26.6 4.6 39.6 8.3c1.5 .4 3.1 .9 4.6 1.3c8.5 2.4 13.5 11.2 11.2 19.7s-11.2 13.5-19.7 11.2c-2.4-.7-4.8-1.4-7.2-2.1c-7.5-2.2-15.2-4.4-22.9-5.5c-19.1-2.8-36.6-.4-49.3 5.1c-12.9 5.6-18.6 13.1-19.8 19.5c-1.8 9.8 2.1 16.5 10.2 21.7c10.6 6.8 26.5 11.3 45.8 16.8l.3 .1c17.7 5 38.9 11.1 54.3 21.7c19 13 27.8 33.8 23.6 56.5c-4 21.6-18.9 36-37.8 43.6c-9.9 4-21.1 6.3-33.1 6.9l0 24.2c0 8.8-7.2 16-16 16s-16-7.2-16-16l0-25.9c-8.1-1.3-21.8-5.2-32.4-8.4c-6.9-2.1-13.8-4.3-20.7-6.5c-8.4-2.8-12.9-11.8-10.2-20.2s11.8-12.9 20.2-10.2c6.6 2.2 13.2 4.3 19.9 6.3c11.2 3.4 22.7 6.6 28.1 7.4c19.8 2.9 36.5 1.3 48-3.4c11.2-4.5 16.8-11.3 18.3-19.7c1.9-10.5-1.5-18.4-10.2-24.4c-12-8.2-26.8-12.3-40.9-16.2c-2.3-.6-4.7-1.3-6.9-1.9c-17.1-4.8-37-10.5-51.7-19.9c-8.1-5.2-15.7-12.1-20.5-21.7c-4.9-9.8-6.2-20.8-4-32.8c3.8-20.7 20-35.1 38.6-43.1c7.4-3.2 15.6-5.6 24.3-7.1l0-24.5c0-8.8 7.2-16 16-16s16 7.2 16 16z"/></svg>