<svg xmlns="http://www.w3.org/2000/svg" viewBox="0 0 512 512"><!--! Font Awesome Pro 6.6.0 by @fontawesome - https://fontawesome.com License - https://fontawesome.com/license (Commercial License) Copyright 2024 Fonticons, Inc. --><path d="M480 256A224 224 0 1 0 32 256a224 224 0 1 0 448 0zM0 256a256 256 0 1 1 512 0A256 256 0 1 1 0 256zm168.7-86.2c6.5-24.6 28.7-41.8 54.2-41.8l57.1 0c35.5 0 64 29 64 64.3c0 24-13.4 46.2-34.9 57.2L272 268.3l0 19.7c0 8.8-7.2 16-16 16s-16-7.2-16-16l0-29.5c0-6 3.4-11.5 8.7-14.3l45.8-23.4c10.7-5.4 17.5-16.6 17.5-28.7c0-17.8-14.4-32.3-32-32.3l-57.1 0c-10.9 0-20.5 7.4-23.2 17.9l-.2 .7c-2.2 8.5-11 13.7-19.5 11.4s-13.7-11-11.4-19.5l.2-.7zM232 352a24 24 0 1 1 48 0 24 24 0 1 1 -48 0z"/></svg>