<svg xmlns="http://www.w3.org/2000/svg" viewBox="0 0 512 512"><!--! Font Awesome Pro 6.6.0 by @fontawesome - https://fontawesome.com License - https://fontawesome.com/license (Commercial License) Copyright 2024 Fonticons, Inc. --><path d="M480 256A224 224 0 1 0 32 256a224 224 0 1 0 448 0zM0 256a256 256 0 1 1 512 0A256 256 0 1 1 0 256zm144-69.7l0 130 .7-.1c12.3-2.1 29.3-4.2 47.3-4.2c18.4 0 35.4 5.9 48 11.8l0-137.5c-2.4-1-5.3-2.1-8.5-3.2c-10.8-3.7-25-7.2-39.5-7.2s-28.7 3.5-39.5 7.2c-3.2 1.1-6.1 2.2-8.5 3.2zM246 364.5l-.1-.1c-.2-.1-.4-.3-.8-.6c-.7-.5-1.8-1.3-3.3-2.3c-2.9-2-7.2-4.6-12.5-7.3C218.7 348.8 205.3 344 192 344c-15.7 0-30.8 1.9-42 3.8c-5.6 1-10.1 1.9-13.3 2.6c-1.6 .4-2.8 .6-3.6 .8l-.9 .2-.2 0s0 0 0 0s0 0 0 0c-4.8 1.3-9.9 .2-13.8-2.8s-6.2-7.7-6.2-12.7l0-160c0-5.9 3.3-11.4 8.5-14.1L128 176c-7.5-14.1-7.5-14.1-7.5-14.1s0 0 0 0s0 0 0 0s0 0 0 0l.1-.1 .4-.2c.3-.2 .7-.4 1.2-.6c1.1-.5 2.5-1.2 4.4-2.1c3.7-1.7 9-3.9 15.5-6c12.7-4.3 30.6-8.8 49.8-8.8s37.1 4.5 49.8 8.8c5.7 1.9 10.6 3.9 14.2 5.5c3.6-1.6 8.5-3.5 14.2-5.5c12.7-4.3 30.6-8.8 49.8-8.8s37.1 4.5 49.8 8.8c6.4 2.2 11.7 4.4 15.5 6c1.9 .8 3.4 1.5 4.4 2.1c.5 .3 .9 .5 1.2 .6l.4 .2 .1 .1c0 0 0 0 0 0s0 0 0 0s0 0 0 0L384 176l7.5-14.1c5.2 2.8 8.5 8.2 8.5 14.1l0 160c0 5-2.3 9.6-6.2 12.7s-9 4.1-13.8 2.8c0 0 0 0 0 0s0 0 0 0l-.2 0-.9-.2c-.8-.2-2-.5-3.6-.8c-3.1-.7-7.7-1.6-13.3-2.6c-11.2-1.9-26.3-3.8-42-3.8c-13.3 0-26.7 4.8-37.4 10.3c-5.2 2.7-9.5 5.3-12.5 7.3c-1.5 1-2.6 1.8-3.3 2.3c-.4 .3-.6 .5-.8 .6l-.1 .1c-.3 .3-.7 .5-1 .8c-.3 .2-.6 .4-.9 .5c-2.3 1.4-5 2.1-7.6 2.2c-.4 0-.8 0-1.3 0c-2.7-.1-5.3-1-7.7-2.4c-.5-.3-1-.7-1.5-1zm26-40.7c12.6-6 29.6-11.8 48-11.8c18.1 0 35 2.1 47.3 4.2l.7 .1 0-130c-2.4-1-5.3-2.1-8.5-3.2c-10.8-3.7-25-7.2-39.5-7.2s-28.7 3.5-39.5 7.2c-3.2 1.1-6.1 2.2-8.5 3.2l0 137.5z"/></svg>