<svg xmlns="http://www.w3.org/2000/svg" viewBox="0 0 640 512"><!--! Font Awesome Pro 6.6.0 by @fontawesome - https://fontawesome.com License - https://fontawesome.com/license (Commercial License) Copyright 2024 Fonticons, Inc. --><path d="M212.2 85.8C220.4 36.3 263.2 0 313.4 0C370.1 0 416 45.9 416 102.6l0 8.1c0 36.1-17.6 70-47.2 90.7l-20.7 14.5L612.5 396.8C629.7 408.5 640 428 640 448.9c0 34.9-28.3 63.1-63.1 63.1L63.1 512C28.3 512 0 483.7 0 448.9c0-20.8 10.3-40.3 27.5-52.1L310.9 202.8l39.5-27.7c21-14.7 33.6-38.8 33.6-64.5l0-8.1c0-39-31.6-70.6-70.6-70.6c-34.5 0-64 25-69.7 59l-3.9 23.6c-1.5 8.7-9.7 14.6-18.4 13.2s-14.6-9.7-13.2-18.4l3.9-23.6zM320 235.4L45.6 423.2C37.1 429 32 438.6 32 448.9C32 466.1 45.9 480 63.1 480l513.7 0c17.2 0 31.1-13.9 31.1-31.1c0-10.3-5.1-19.9-13.6-25.7L320 235.4z"/></svg>