<svg xmlns="http://www.w3.org/2000/svg" viewBox="0 0 640 512"><!--! Font Awesome Pro 6.6.0 by @fontawesome - https://fontawesome.com License - https://fontawesome.com/license (Commercial License) Copyright 2024 Fonticons, Inc. --><path d="M460.6 35.9c-30 32-48.4 75-48.4 122.4c0 90.8 67.6 165.8 155.1 177.2c-21.5 10.8-45.8 16.9-71.5 16.9c-24.6 0-47.9-5.6-68.7-15.5c17.7 11 32.1 26.8 41.3 45.6c8.9 1.3 18.1 1.9 27.4 1.9c52 0 99.1-20.7 133.6-54.4c5-4.9 6.3-12.5 3.1-18.7s-10.1-9.7-17-8.5c-8.1 1.4-16.5 2.1-25.1 2.1c-80.7 0-146.2-65.6-146.2-146.6c0-54.8 30-102.6 74.4-127.8c6.1-3.5 9.2-10.5 7.7-17.3S519 1.3 512 .7c-5.4-.5-10.8-.7-16.3-.7C389.8 0 304 86.1 304 192.2c0 10.8 .9 21.5 2.6 31.8c11.8 .3 23.2 2.4 33.9 6.1c-2.9-12.2-4.5-24.8-4.5-37.9C336 115.8 389.3 52 460.6 35.9zM112 320c0-35.3 28.7-64 64-64c29.1 0 53.7 19.4 61.4 46c1.7 5.8 6.5 10.2 12.5 11.3s12-1.3 15.7-6.1c8.8-11.7 22.7-19.2 38.4-19.2c26.5 0 48 21.5 48 48c0 8.8-2.3 16.9-6.4 24c-2.9 5-2.9 11.1 0 16s8.1 8 13.9 8l8.3 0c0 0 0 0 0 0l.2 0c26.5 0 48 21.5 48 48s-21.5 48-48 48c-.6 0-1.2 0-1.8 0l-.3 0-.2 0-266.6 0c-.2 0-.4 0-.6 0c-.8 0-1.6 0-2.3 0c-35.3 0-64-28.7-64-64s28.7-64 64-64c.4 0 .8 0 1.3 0c4.9 .1 9.5-2 12.6-5.8s4.4-8.7 3.4-13.4c-.8-4.1-1.3-8.4-1.3-12.8zm64-96c-53 0-96 43-96 96l0 1.3C34.6 328.9 0 368.4 0 416c0 53 43 96 96 96c1.1 0 2.1 0 3.2-.1l266.1 0c.9 0 1.8 0 2.7 0c44.2 0 80-35.8 80-80c0-39.4-28.4-72.1-65.8-78.7c1.2-5.6 1.9-11.3 1.9-17.2c0-44.2-35.8-80-80-80c-17 0-32.8 5.3-45.8 14.4C241.4 242.6 210.9 224 176 224z"/></svg>