<svg xmlns="http://www.w3.org/2000/svg" viewBox="0 0 576 512"><!--! Font Awesome Pro 6.6.0 by @fontawesome - https://fontawesome.com License - https://fontawesome.com/license (Commercial License) Copyright 2024 Fonticons, Inc. --><path d="M387.7 101.7c7.9-27.6 28-50.1 54.2-61.6c-12.8 19-20.3 41.8-20.3 66.3c0 53.9 35.9 99.2 85.1 114.2c-8.2 2.2-16.7 3.4-25.6 3.4c-4.2 0-8.3-.3-12.4-.8c4.9 10.2 8.3 21.2 10 32.8c.8 0 1.6 0 2.4 0c34.9 0 66.7-13.8 89.9-36.1c5.1-4.9 6.4-12.5 3.2-18.7s-10.1-9.7-17-8.6c-4.9 .8-10 1.3-15.2 1.3c-49 0-88.4-39.3-88.4-87.4c0-32.6 18-61.1 44.9-76.1c6.1-3.4 9.3-10.5 7.8-17.4s-7.3-12-14.3-12.6c-3.6-.3-7.3-.5-10.9-.5C427.1 0 380.6 33 361.4 79.9c9.8 5.9 18.7 13.3 26.3 21.8zM112 160c0-35.3 28.7-64 64-64c29.1 0 53.7 19.4 61.4 46c1.7 5.8 6.5 10.2 12.5 11.3s12-1.3 15.7-6.1c8.8-11.7 22.7-19.2 38.4-19.2c26.5 0 48 21.5 48 48c0 8.8-2.3 16.9-6.4 24c-2.9 5-2.9 11.1 0 16s8.1 8 13.9 8l8.3 0c0 0 0 0 0 0l.2 0c26.5 0 48 21.5 48 48s-21.5 48-48 48c-.6 0-1.2 0-1.8 0l-.3 0-.2 0-22.5 0c5.7 8.5 9 18.7 9 29.7c0 .8 0 1.5-.1 2.3l13.3 0c.9 0 1.8 0 2.7 0c44.2 0 80-35.8 80-80c0-39.3-28.4-72.1-65.8-78.7c1.2-5.6 1.9-11.3 1.9-17.2c0-44.2-35.8-80-80-80c-17 0-32.8 5.3-45.8 14.4C241.4 82.6 210.9 64 176 64c-53 0-96 43-96 96l0 1.3C34.6 168.9 0 208.4 0 256c0 46.9 33.6 85.9 78 94.3c.9-1 1.8-1.9 2.7-2.8l29.1-27.6-10.9 0c-.2 0-.4 0-.6 0c-.8 0-1.6 0-2.3 0c-35.3 0-64-28.7-64-64s28.7-64 64-64c.4 0 .8 0 1.3 0c4.9 .1 9.5-2 12.6-5.8s4.4-8.7 3.4-13.4c-.8-4.1-1.3-8.4-1.3-12.8zm31.7 216l85.1-80.6-19.4 41.9c-2.3 5-1.9 10.7 1 15.3s8 7.4 13.5 7.4l48.3 0-85.1 80.6 19.4-41.9c2.3-5 1.9-10.7-1-15.3s-8-7.4-13.5-7.4l-48.3 0zM265.6 224c-5.1 0-10.1 2-13.8 5.5L102.7 370.7c-4.3 4.1-6.7 9.7-6.7 15.7c0 11.9 9.7 21.6 21.6 21.6l49.4 0-34.8 75.5c-6.1 13.3 3.6 28.5 18.2 28.5c5.1 0 10.1-2 13.8-5.5L313.3 365.3c4.3-4.1 6.7-9.7 6.7-15.7c0-11.9-9.7-21.6-21.6-21.6L249 328l34.8-75.5c6.1-13.3-3.6-28.5-18.2-28.5z"/></svg>