<svg xmlns="http://www.w3.org/2000/svg" viewBox="0 0 640 512"><!--! Font Awesome Pro 6.6.0 by @fontawesome - https://fontawesome.com License - https://fontawesome.com/license (Commercial License) Copyright 2024 Fonticons, Inc. --><path d="M25.9 3.4C19-2 8.9-.8 3.4 6.1S-.8 23.1 6.1 28.6l608 480c6.9 5.5 17 4.3 22.5-2.6s4.3-17-2.6-22.5L25.9 3.4zM640 352c0-49.1-27.7-91.8-68.3-113.2c2.8-9.8 4.3-20.1 4.3-30.8c0-61.9-50.1-112-112-112c-17.2 0-33.5 3.9-48 10.8C384.1 61.5 331.5 32 272 32c-35.5 0-68.6 10.5-96.2 28.6l26.8 21.2C223.2 70.5 246.8 64 272 64c48.7 0 91.7 24.1 117.8 61.2c9 12.7 25.8 17.2 39.9 10.5c10.3-4.9 21.9-7.7 34.3-7.7c44.2 0 80 35.8 80 80c0 7.7-1.1 15-3 22c-4.1 14.5 2.5 30 15.8 37.1C587.3 283.2 608 315.2 608 352c0 15.1-3.5 29.4-9.7 42.2l25.6 20.2C634.1 395.9 640 374.6 640 352zM101.3 164.9c-2.9 11.3-4.6 23.1-5.1 35.2C40.2 219.9 0 273.2 0 336c0 79.5 64.5 144 144 144l356.4 0-40.5-32L144 448C82.1 448 32 397.9 32 336c0-48.8 31.2-90.3 74.8-105.7c12.3-4.3 20.8-15.7 21.3-28.8c.2-4.9 .7-9.7 1.4-14.4l-28.2-22.2z"/></svg>