<svg xmlns="http://www.w3.org/2000/svg" viewBox="0 0 640 512"><!--! Font Awesome Pro 6.6.0 by @fontawesome - https://fontawesome.com License - https://fontawesome.com/license (Commercial License) Copyright 2024 Fonticons, Inc. --><path d="M303.8 13.4c-.9-5.4-4.5-10-9.6-12.1s-10.9-1.5-15.4 1.6L208 52.5 137.2 2.9c-4.5-3.2-10.3-3.8-15.4-1.6s-8.7 6.7-9.6 12.1L98.1 98.1 13.4 112.2c-5.4 .9-10 4.5-12.1 9.6s-1.5 10.9 1.6 15.4L52.5 208 2.9 278.8c-3.2 4.5-3.8 10.3-1.6 15.4s6.7 8.7 12.1 9.6l84.7 14.1 14.1 84.7c.9 5.4 4.5 10 9.6 12.1s10.9 1.5 15.4-1.6l56-39.2c-7.2-7.9-13.4-16.7-18.4-26.2l-35.2 24.6-11.8-71c-1.1-6.7-6.4-12-13.2-13.2l-71-11.8 41.4-59.2c3.9-5.5 3.9-12.8 0-18.4L43.7 139.6l71-11.8c6.7-1.1 12-6.4 13.2-13.2l11.8-71 59.2 41.4c5.5 3.9 12.8 3.9 18.4 0l59.2-41.4 8.5 51c8.8-7.5 18.7-13.9 29.3-18.8L303.8 13.4zM208 120c-48.6 0-88 39.4-88 88c0 31 16 58.2 40.1 73.9c.6-12.5 2.9-24.5 6.8-35.7c-9.3-10-15-23.4-15-38.1c0-30.9 25.1-56 56-56c13.2 0 25.4 4.6 35 12.3c2.4-11 6.3-21.4 11.3-31.1C240.8 124.8 225 120 208 120zm96 72c0-35.3 28.7-64 64-64c29.1 0 53.7 19.4 61.4 46c1.7 5.8 6.5 10.2 12.5 11.3s12-1.3 15.7-6.1c8.8-11.7 22.7-19.2 38.4-19.2c26.5 0 48 21.5 48 48c0 8.8-2.3 16.9-6.4 24c-2.9 5-2.9 11.1 0 16s8.1 8 13.9 8l8.3 0c0 0 0 0 0 0l.2 0c26.5 0 48 21.5 48 48s-21.5 48-48 48c-.6 0-1.2 0-1.8 0l-.3 0-.2 0-13.6 0c-.5 11.8-4.9 23-12.4 32l25.7 0c.9 0 1.8 0 2.7 0c44.2 0 80-35.8 80-80c0-39.3-28.4-72.1-65.8-78.7c1.2-5.6 1.9-11.3 1.9-17.2c0-44.2-35.8-80-80-80c-17 0-32.8 5.3-45.8 14.4C433.4 114.6 402.9 96 368 96c-53 0-96 43-96 96l0 1.3c-45.4 7.6-80 47.1-80 94.7c0 42 27 77.7 64.6 90.7c1.6-10.9 6.5-21.1 14.1-29.1C243.7 342 224 317.3 224 288c0-35.3 28.7-64 64-64c.4 0 .8 0 1.3 0c4.9 .1 9.5-2 12.6-5.8s4.4-8.7 3.4-13.4c-.8-4.1-1.3-8.4-1.3-12.8zm31.7 184l85.1-80.6-19.4 41.9c-2.3 5-1.9 10.7 1 15.3s8 7.4 13.5 7.4l48.3 0-85.1 80.6 19.4-41.9c2.3-5 1.9-10.7-1-15.3s-8-7.4-13.5-7.4l-48.3 0zM457.6 224c-5.1 0-10.1 2-13.8 5.5L294.7 370.7c-4.3 4.1-6.7 9.7-6.7 15.7c0 11.9 9.7 21.6 21.6 21.6l49.4 0-34.9 75.5c-6.1 13.3 3.6 28.5 18.2 28.5c5.1 0 10.1-2 13.8-5.5L505.3 365.3c4.3-4.1 6.7-9.7 6.7-15.7c0-11.9-9.7-21.6-21.6-21.6L441 328l34.8-75.5c6.1-13.3-3.6-28.5-18.2-28.5z"/></svg>