<svg xmlns="http://www.w3.org/2000/svg" viewBox="0 0 640 512"><!--! Font Awesome Pro 6.6.0 by @fontawesome - https://fontawesome.com License - https://fontawesome.com/license (Commercial License) Copyright 2024 Fonticons, Inc. --><path d="M208 32C105.7 32 32 101.2 32 176c0 37.1 18 68.2 45.1 96.6c4.8 5 5.8 12.5 2.5 18.6c-10.9 20.2-22.7 40.8-37.6 59.9c31.3-3 63.2-13.2 91.5-26c6-2.7 11.9-5.6 18-8.7c3.2-1.6 6.8-2.1 10.2-1.4c15.6 3.1 30.9 5 46.3 5c102.3 0 176-69.2 176-144s-73.7-144-176-144zM0 176C0 78.9 93.1 0 208 0S416 78.9 416 176s-93.1 176-208 176c-16.1 0-31.7-1.8-47-4.6c-4.6 2.3-9.4 4.6-14.3 6.8C110.5 370.7 67 384 24 384c-9.6 0-18.2-5.7-22-14.5c-3.8-8.7-2-18.9 4.4-25.8l.1-.1s0 0 0 0C22 326.6 34.3 307.1 46 286C19.8 256.1 0 220.2 0 176zm441.8-47.8C552.2 132.5 640 209.6 640 304c0 44.2-19.8 80.1-46 110c11.7 21 24 40.6 39.5 57.5c0 0 0 0 0 0l.1 .1c6.5 7 8.2 17.1 4.4 25.8c-3.8 8.8-12.5 14.5-22 14.5c-43 0-86.5-13.3-122.7-29.7c-4.9-2.2-9.6-4.5-14.3-6.8c-15.3 2.8-30.9 4.6-47 4.6c-82.1 0-153-40.2-186.8-98.5c11.5-1.6 22.8-3.9 33.8-6.8C308.4 417.3 363.8 448 432 448c15.3 0 30.6-1.9 46.3-5c3.5-.7 7.1-.2 10.2 1.4c6.1 3.1 12 6 18 8.7c28.4 12.9 60.2 23.1 91.5 26c-14.9-19-26.8-39.7-37.6-59.9c-3.3-6.1-2.3-13.6 2.5-18.6C590 372.2 608 341.1 608 304c0-71-66.4-137-160.6-143.5c-.9-11.1-2.8-21.9-5.6-32.3zM224 83.6l0 13.8c7.2 1.1 14.1 2.7 20.5 4.4c8.5 2.2 13.7 11 11.4 19.5s-11 13.7-19.5 11.4c-10-2.6-19.7-4.5-28.6-4.7c-7.4-.1-15.2 1.6-20.5 4.7c-4.8 2.8-6.5 5.8-6.4 9.8c0 2.3 .6 4.4 5.7 7.4c6 3.6 14.5 6.2 25.9 9.6l.5 .2s0 0 0 0c10.1 3 22.9 6.8 33 13.1c11.2 7 21 18.2 21.2 35.5c.2 18-9.1 30.9-21.5 38.5c-6.7 4.1-14.2 6.7-21.7 8l0 13.7c0 8.8-7.2 16-16 16s-16-7.2-16-16l0-14.3c-9.7-1.9-18.8-5-26.7-7.7c0 0 0 0 0 0s0 0 0 0c-1.9-.7-3.8-1.3-5.5-1.9c-8.4-2.8-13-11.8-10.2-20.2s11.8-13 20.2-10.2c2.2 .7 4.4 1.5 6.5 2.2c0 0 0 0 0 0c12.2 4.1 21.9 7.4 32.3 7.7c8 .3 15.6-1.5 20.5-4.5c4.2-2.6 6.3-5.7 6.2-10.8c0-3.2-1.1-5.6-6.1-8.7c-5.9-3.7-14.5-6.4-25.7-9.8l-1.5-.4s0 0 0 0c-9.8-2.9-22-6.6-31.6-12.3c-11-6.6-21.2-17.4-21.3-34.7c-.1-18.1 10.2-30.5 22.3-37.6c6.5-3.8 13.7-6.2 20.8-7.6l0-13.9c0-8.8 7.2-16 16-16s16 7.2 16 16z"/></svg>