<svg xmlns="http://www.w3.org/2000/svg" viewBox="0 0 640 512"><!--! Font Awesome Pro 6.6.0 by @fontawesome - https://fontawesome.com License - https://fontawesome.com/license (Commercial License) Copyright 2024 Fonticons, Inc. --><path d="M304 32c8.8 0 16 7.2 16 16l0 192c0 8.8-7.2 16-16 16l-192 0c-8.8 0-16-7.2-16-16L96 48c0-8.8 7.2-16 16-16l192 0zM112 0C85.5 0 64 21.5 64 48l0 192c0 26.5 21.5 48 48 48l192 0c26.5 0 48-21.5 48-48l0-192c0-26.5-21.5-48-48-48L112 0zM528 96c8.8 0 16 7.2 16 16l0 128c0 8.8-7.2 16-16 16l-96 0c-8.8 0-16-7.2-16-16l0-128c0-8.8 7.2-16 16-16l96 0zM432 64c-26.5 0-48 21.5-48 48l0 128c0 26.5 21.5 48 48 48l96 0c26.5 0 48-21.5 48-48l0-128c0-26.5-21.5-48-48-48l-96 0zM608 416c0 35.3-28.7 64-64 64L96 480c-35.3 0-64-28.7-64-64s28.7-64 64-64l448 0c35.3 0 64 28.7 64 64zM96 320c-53 0-96 43-96 96s43 96 96 96l448 0c53 0 96-43 96-96s-43-96-96-96L96 320zm56 96a24 24 0 1 0 -48 0 24 24 0 1 0 48 0zm168 24a24 24 0 1 0 0-48 24 24 0 1 0 0 48zm216-24a24 24 0 1 0 -48 0 24 24 0 1 0 48 0z"/></svg>