<svg xmlns="http://www.w3.org/2000/svg" viewBox="0 0 384 512"><!--! Font Awesome Pro 6.6.0 by @fontawesome - https://fontawesome.com License - https://fontawesome.com/license (Commercial License) Copyright 2024 Fonticons, Inc. --><path d="M202.4 36.4C207.8 15 227 0 249 0l23 0c8.8 0 16 7.2 16 16s-7.2 16-16 16l-23 0c-7.3 0-13.7 5-15.5 12.1l-21 83.9L368 128c8.8 0 16 7.2 16 16s-7.2 16-16 16l-175.6 0c-.2 0-.5 0-.7 0L16 160c-8.8 0-16-7.2-16-16s7.2-16 16-16l163.5 0 22.9-91.6zM60.3 468l-23-276 32.1 0L83.9 365.1c29-3.7 48.3-10.6 62.3-18.6c17.1-9.8 27.6-22 39.1-36.1l2-2.5c10.8-13.4 23.2-28.6 42.5-41c19.3-12.3 44.4-21.2 80.6-24.9l4.2-50 32.1 0-23 276c-2.1 24.9-22.9 44-47.8 44l-167.7 0c-25 0-45.8-19.1-47.8-44zM307.7 274.5c-29 3.6-47.5 10.9-60.7 19.4c-14.8 9.5-24.2 21.1-35.5 35l-1.4 1.7c-11.8 14.5-25.4 30.7-48 43.7C143.4 385 119.4 392.9 86.5 397l5.7 68.3c.7 8.3 7.6 14.7 15.9 14.7l167.7 0c8.3 0 15.3-6.4 15.9-14.7l15.9-190.9z"/></svg>