<svg xmlns="http://www.w3.org/2000/svg" viewBox="0 0 640 512"><!--! Font Awesome Pro 6.6.0 by @fontawesome - https://fontawesome.com License - https://fontawesome.com/license (Commercial License) Copyright 2024 Fonticons, Inc. --><path d="M64 32l448 0c17.7 0 32 14.3 32 32l0 134.6c11.2 3.2 21.9 7.4 32 12.6L576 64c0-35.3-28.7-64-64-64L64 0C28.7 0 0 28.7 0 64L0 352c0 35.3 28.7 64 64 64l149.1 0-10.7 64L144 480c-8.8 0-16 7.2-16 16s7.2 16 16 16l72 0 144 0 34.8 0c-12.9-9.1-24.5-19.9-34.6-32l-19.1 0L288 480l-53.1 0 10.7-64 42.4 0 38.6 0c-2.9-10.3-4.9-21-5.9-32l-88.5 0c-.2 0-.4 0-.6 0L64 384c-17.7 0-32-14.3-32-32L32 64c0-17.7 14.3-32 32-32zM480 192.7l0-80.7c0-8.8-7.2-16-16-16l-96 0c-8.8 0-16 7.2-16 16s7.2 16 16 16l57.4 0L304 249.4l-68.7-68.7c-6.2-6.2-16.4-6.2-22.6 0l-112 112c-6.2 6.2-6.2 16.4 0 22.6s16.4 6.2 22.6 0L224 214.6l68.7 68.7c3 3 7.1 4.7 11.3 4.7s8.3-1.7 11.3-4.7L448 150.6l0 48c10.3-2.9 21-4.9 32-5.9zM496 256a112 112 0 1 1 0 224 112 112 0 1 1 0-224zm0 256a144 144 0 1 0 0-288 144 144 0 1 0 0 288zM470.6 342.6a35.9 35.9 0 1 1 50.7 50.7 35.9 35.9 0 1 1 -50.7-50.7zM531.3 426l9.3 9.3c6.2 6.2 16.4 6.2 22.6 0s6.2-16.4 0-22.6l-9.3-9.3c13.2-21.6 13.2-49.1 0-70.7l9.3-9.3c6.2-6.2 6.2-16.4 0-22.6s-16.4-6.2-22.6 0l-9.3 9.3c-21.6-13.2-49.1-13.2-70.7 0l-9.3-9.3c-6.2-6.2-16.4-6.2-22.6 0s-6.2 16.4 0 22.6l9.3 9.3c-13.2 21.6-13.2 49.1 0 70.7l-9.3 9.3c-6.2 6.2-6.2 16.4 0 22.6s16.4 6.2 22.6 0l9.3-9.3c21.6 13.2 49.1 13.2 70.7 0z"/></svg>