<svg xmlns="http://www.w3.org/2000/svg" viewBox="0 0 512 512"><!--! Font Awesome Pro 6.6.0 by @fontawesome - https://fontawesome.com License - https://fontawesome.com/license (Commercial License) Copyright 2024 Fonticons, Inc. --><path d="M32 208c0-29.2 19-60.4 59.9-86C132.4 96.7 190.3 80 256 80c3.1 0 6.2 0 9.3 .1l-20.6 20.6c-6.2 6.2-6.2 16.4 0 22.6s16.4 6.2 22.6 0l39.8-39.8c44.4 6.1 83.3 20 112.9 38.5C461 147.6 480 178.8 480 208l0 15c-.6 8.5-3.7 16.5-8.8 23.2c-5.3 6.8-12.4 11.9-20.6 14.5l-.3 .1-.3 .1c-6.6 2.5-12.6 6-17.9 10.5c-.1-3.9-1.7-7.8-4.7-10.8l-32-32c-6.2-6.2-16.4-6.2-22.6 0s-6.2 16.4 0 22.6l32 32c3.6 3.6 8.6 5.1 13.3 4.6c-7.7 9.5-17.5 17.2-28.7 22.3c-12.6 5.9-26.6 8.3-40.4 7.2l-.6 0-.6 0c-15.9-.2-31.7 2.9-46.4 9c0 0 0 0 0 0l-.1 0c-14.2 6.1-29.6 9.1-45 9c0 0 0 0 0 0l-.3 0c-15.5 .1-30.8-2.9-45.1-9l-.1 0c-14.7-6.1-30.5-9.2-46.4-9l-.6 0-.6 0c-13.9 1.1-27.8-1.4-40.4-7.2c-12.5-5.8-23.4-14.8-31.5-26.1c-7-10.6-17.2-18.8-29.1-23.2l-.4-.1-.4-.1c-8.2-2.6-15.3-7.7-20.6-14.5c-5.2-6.7-8.2-14.8-8.8-23.2L32 208zm0 73.4c5.9 4.1 12.3 7.3 19.2 9.6c5.5 2.1 10.2 6 13.4 10.9l.2 .3 .2 .3c11.3 15.9 26.6 28.5 44.2 36.7c17.5 8.1 36.7 11.6 55.9 10.2c11.4 0 22.7 2.2 33.2 6.6c18.2 7.7 37.9 11.6 57.7 11.5c19.8 .2 39.4-3.7 57.6-11.5c10.5-4.4 21.8-6.6 33.2-6.6c19.2 1.5 38.4-2 55.9-10.1c17.7-8.2 32.9-20.8 44.2-36.6l.2-.3 .2-.3c3.2-5 7.9-8.8 13.4-10.9c6.9-2.3 13.3-5.5 19.2-9.6l0 22.5c0 29.2-19 60.4-59.9 86c-40.5 25.3-98.4 42-164.1 42s-123.6-16.7-164.1-42C51 364.4 32 333.2 32 304l0-22.6zM256 48C114.6 48 0 119.6 0 208l0 96c0 88.4 114.6 160 256 160s256-71.6 256-160l0-96c0-88.4-114.6-160-256-160zM208 191.9c0 0 0-.1 .1-.3c.1-.3 .4-.9 1.1-1.7c1.5-1.7 4.2-4 8.7-6.2c8.9-4.5 22.4-7.7 38.1-7.7s29.2 3.2 38.1 7.7c4.5 2.2 7.2 4.5 8.7 6.2c.7 .8 1 1.4 1.1 1.7c.1 .2 .1 .3 .1 .3s0 .1 0 .1l0 .1c0 0 0 .1-.1 .3c-.1 .3-.4 .9-1.1 1.7c-1.5 1.7-4.2 4-8.7 6.2c-8.9 4.5-22.4 7.7-38.1 7.7s-29.2-3.2-38.1-7.7c-4.5-2.2-7.2-4.5-8.7-6.2c-.7-.8-1-1.4-1.1-1.7c-.1-.2-.1-.3-.1-.3c0 0 0 0 0-.1s0 0 0 0l0-.1zm-4.4-36.9C190.3 161.7 176 173.8 176 192s14.3 30.3 27.6 36.9c14.2 7.1 32.8 11.1 52.4 11.1s38.2-3.9 52.4-11.1c13.3-6.6 27.6-18.8 27.6-36.9s-14.3-30.3-27.6-36.9C294.2 147.9 275.6 144 256 144s-38.2 3.9-52.4 11.1zm-32.3-15.7c6.2-6.2 6.2-16.4 0-22.6s-16.4-6.2-22.6 0l-32 32c-6.2 6.2-6.2 16.4 0 22.6s16.4 6.2 22.6 0l32-32zm224-6.6c-6.2-6.2-16.4-6.2-22.6 0s-6.2 16.4 0 22.6l32 32c6.2 6.2 16.4 6.2 22.6 0s6.2-16.4 0-22.6l-32-32zM64 192c-8.8 0-16 7.2-16 16s7.2 16 16 16l32 0c8.8 0 16-7.2 16-16s-7.2-16-16-16l-32 0zm91.3 52.7c-6.2-6.2-16.4-6.2-22.6 0s-6.2 16.4 0 22.6l32 32c6.2 6.2 16.4 6.2 22.6 0s6.2-16.4 0-22.6l-32-32zm176 38.6c6.2-6.2 6.2-16.4 0-22.6s-16.4-6.2-22.6 0l-32 32c-6.2 6.2-6.2 16.4 0 22.6s16.4 6.2 22.6 0l32-32z"/></svg>