<svg xmlns="http://www.w3.org/2000/svg" viewBox="0 0 640 512"><!--! Font Awesome Pro 6.6.0 by @fontawesome - https://fontawesome.com License - https://fontawesome.com/license (Commercial License) Copyright 2024 Fonticons, Inc. --><path d="M288.8 10.9C291 4.4 297.1 0 304 0L432 0l16 0 35.8 0c32.7 0 63.8 14.3 85 39.1l56 65.4c9.7 11.4 15.1 25.8 15.1 40.8c0 34.6-28.1 62.7-62.7 62.7l-22.8 0c-21.2 0-41.6-8.4-56.6-23.4l-8.6-8.6-9.4 0 0 12c0 17.6 8.3 34.2 22.4 44.8l90.7 68C622.6 323 640 357.7 640 394.7c0 62-48 112.7-108.9 117c-1 .2-2 .3-3.1 .3l-5.3 0L440 512 48.4 512c-24.7 .2-45.9-18.5-48.2-43.6c-2.4-26.4 17-49.8 43.4-52.2l378.3-35-29-34.9C366.4 314.7 352 274.8 352 233.7l0-45.4s0 0 0 0l0-.3s0 0 0 0l0-34.1-55.2-27.6c-5-2.5-8.3-7.4-8.8-12.9s1.9-10.9 6.3-14.2L341.3 64 294.4 28.8c-5.5-4.1-7.8-11.3-5.6-17.9zM525.9 480c.4-.1 .8-.1 1.3-.1c45-2.3 80.8-39.6 80.8-85.2c0-26.9-12.6-52.2-34.1-68.3l-90.7-68C461 241.8 448 215.7 448 188l0-28c0-8.8 7.2-16 16-16l32 0c4.2 0 8.3 1.7 11.3 4.7l13.3 13.3c9 9 21.2 14.1 33.9 14.1l22.8 0c17 0 30.7-13.8 30.7-30.7c0-7.3-2.6-14.4-7.4-20l-56-65.4C529.4 42.2 507.2 32 483.8 32L448 32l-16 0-80 0 25.6 19.2c4 3 6.4 7.8 6.4 12.8s-2.4 9.8-6.4 12.8l-43.3 32.5 40.8 20.4c5.4 2.7 8.8 8.3 8.8 14.3l0 44s0 0 0 0l0 .3s0 0 0 0l0 45.4c0 33.7 11.8 66.3 33.4 92.2L459 375.8c3.2 3.9 5 8.8 5 13.9c0 11.2-8.5 20.6-19.7 21.6L46.5 448.1c-8.8 .8-15.3 8.6-14.5 17.4c.8 8.4 7.8 14.6 16.1 14.5l.2 0s0 0 0 0L440 480l82.7 0 3.2 0zM320 199.4l0 34.2c0 1.4 0 2.8 0 4.3L171.7 139c-6.1-4-14.1-3.5-19.5 1.4L63 219.7l127.6-11.6c6.7-.6 13.1 3 15.9 9.1s1.6 13.3-3.2 18.1L150.6 288l176.6 0c3 11 6.8 21.7 11.5 32L112 320c-6.5 0-12.3-3.9-14.8-9.9s-1.1-12.9 3.5-17.4l48.8-48.8-132 12c-6.9 .6-13.4-3.2-16.1-9.6S.2 232.6 5.4 228L130.9 116.5c16.3-14.5 40.4-16.2 58.5-4.1l130.6 87zM495.2 57.7l32 16c7.9 4 11.1 13.6 7.2 21.5s-13.6 11.1-21.5 7.2l-32-16c-7.9-4-11.1-13.6-7.2-21.5s13.6-11.1 21.5-7.2z"/></svg>