<svg xmlns="http://www.w3.org/2000/svg" viewBox="0 0 512 512"><!--! Font Awesome Pro 6.6.0 by @fontawesome - https://fontawesome.com License - https://fontawesome.com/license (Commercial License) Copyright 2024 Fonticons, Inc. --><path d="M350 8.2c-4.3 7.7-1.5 17.5 6.2 21.8C430.1 71 480 149.7 480 240c0 8.8 7.2 16 16 16s16-7.2 16-16C512 137.6 455.4 48.4 371.8 2C364.1-2.3 354.3 .5 350 8.2zM96 240c0-79.5 64.5-144 144-144s144 64.5 144 144c0 41.9-17.9 79.7-46.5 106c-10.1 9.2-17.5 22.6-17.5 38c0 53-43 96-96 96l-16 0c-8.8 0-16 7.2-16 16s7.2 16 16 16l16 0c70.7 0 128-57.3 128-128c0-4.8 2.4-10.1 7.1-14.4C394.1 337.4 416 291.3 416 240c0-97.2-78.8-176-176-176S64 142.8 64 240c0 8.8 7.2 16 16 16s16-7.2 16-16zm64 136a24 24 0 1 0 0-48 24 24 0 1 0 0 48zM32 504a24 24 0 1 0 0-48 24 24 0 1 0 0 48zM52.7 372.7c-6.2 6.2-6.2 16.4 0 22.6l64 64c6.2 6.2 16.4 6.2 22.6 0s6.2-16.4 0-22.6l-64-64c-6.2-6.2-16.4-6.2-22.6 0zM160 240c0-44.2 35.8-80 80-80s80 35.8 80 80c0 8.8 7.2 16 16 16s16-7.2 16-16c0-61.9-50.1-112-112-112s-112 50.1-112 112c0 8.8 7.2 16 16 16s16-7.2 16-16z"/></svg>