<svg xmlns="http://www.w3.org/2000/svg" viewBox="0 0 512 512"><!--! Font Awesome Pro 6.6.0 by @fontawesome - https://fontawesome.com License - https://fontawesome.com/license (Commercial License) Copyright 2024 Fonticons, Inc. --><path d="M507.3 27.3l-64 64c-6.2 6.2-16.4 6.2-22.6 0s-6.2-16.4 0-22.6l64-64c6.2-6.2 16.4-6.2 22.6 0s6.2 16.4 0 22.6zm-320 320l-160 160c-6.2 6.2-16.4 6.2-22.6 0s-6.2-16.4 0-22.6l160-160c6.2-6.2 16.4-6.2 22.6 0s6.2 16.4 0 22.6zM240 96C160.5 96 96 160.5 96 240c0 8.8-7.2 16-16 16s-16-7.2-16-16c0-97.2 78.8-176 176-176s176 78.8 176 176c0 51.3-21.9 97.4-56.9 129.6c-4.8 4.4-7.1 9.7-7.1 14.4c0 70.7-57.3 128-128 128l-16 0c-8.8 0-16-7.2-16-16s7.2-16 16-16l16 0c53 0 96-43 96-96c0-15.4 7.4-28.7 17.5-38c28.6-26.3 46.5-64.1 46.5-106c0-79.5-64.5-144-144-144zm0 64c-44.2 0-80 35.8-80 80c0 8.8-7.2 16-16 16s-16-7.2-16-16c0-61.9 50.1-112 112-112s112 50.1 112 112c0 8.8-7.2 16-16 16s-16-7.2-16-16c0-44.2-35.8-80-80-80z"/></svg>