<svg xmlns="http://www.w3.org/2000/svg" viewBox="0 0 512 512"><!--! Font Awesome Pro 6.6.0 by @fontawesome - https://fontawesome.com License - https://fontawesome.com/license (Commercial License) Copyright 2024 Fonticons, Inc. --><path d="M392 32L120 32c-13.3 0-24 10.7-24 24l0 166.5L77.5 207.2c-4.2-3.4-8.7-6.3-13.5-8.6L64 56C64 25.1 89.1 0 120 0L392 0c30.9 0 56 25.1 56 56l0 142.6c-4.8 2.3-9.3 5.2-13.4 8.6L416 222.5 416 56c0-13.3-10.7-24-24-24zM35 256c-1.6 0-3 1.3-3 3l0 189c0 17.7 14.3 32 32 32l384 0c17.7 0 32-14.3 32-32l0-189c0-1.6-1.3-3-3-3c-.7 0-1.3 .2-1.9 .7L294.5 405.1C283.7 414 270 418.9 256 418.9s-27.7-4.9-38.5-13.8L36.8 256.7c-.5-.4-1.2-.7-1.9-.7zM0 259c0-19.3 15.6-35 35-35c8.1 0 15.9 2.8 22.2 7.9L237.8 380.3c5.1 4.2 11.6 6.5 18.2 6.5s13.1-2.3 18.2-6.5L454.9 231.9c6.3-5.1 14.1-7.9 22.2-7.9c19.3 0 35 15.6 35 35l0 189c0 35.3-28.7 64-64 64L64 512c-35.3 0-64-28.7-64-64L0 259zM272 88l0 17.3c8.5 1.2 16.7 3.1 24.1 5.1c8.5 2.3 13.6 11 11.3 19.6s-11 13.6-19.6 11.3c-11.1-3-22-5.2-32.1-5.3c-8.4-.1-17.4 1.8-23.6 5.5c-5.7 3.4-8.1 7.3-8.1 12.8c0 3.7 1.3 6.5 7.3 10.1c6.9 4.1 16.6 7.1 29.2 10.9l.5 .1s0 0 0 0s0 0 0 0c11.3 3.4 25.3 7.6 36.3 14.6c12.1 7.6 22.4 19.7 22.7 38.2c.3 19.3-9.6 33.3-22.9 41.6c-7.7 4.8-16.4 7.6-25.1 9.1l0 17.1c0 8.8-7.2 16-16 16s-16-7.2-16-16l0-17.8c-11.2-2.1-21.7-5.7-30.9-8.9c0 0 0 0 0 0c-2.1-.7-4.2-1.4-6.2-2.1c-8.4-2.8-12.9-11.9-10.1-20.2s11.9-12.9 20.2-10.1c2.5 .8 4.8 1.6 7.1 2.4c0 0 0 0 0 0s0 0 0 0s0 0 0 0c13.6 4.6 24.6 8.4 36.3 8.7c9.1 .3 17.9-1.7 23.7-5.3c5.1-3.2 7.9-7.3 7.8-14c-.1-4.6-1.8-7.8-7.7-11.6c-6.8-4.3-16.5-7.4-29-11.2l-1.6-.5s0 0 0 0s0 0 0 0c-11-3.3-24.3-7.3-34.8-13.7c-12-7.2-22.6-18.9-22.7-37.3c-.1-19.4 10.8-32.8 23.8-40.5c7.5-4.4 15.8-7.2 24.1-8.7L240 88c0-8.8 7.2-16 16-16s16 7.2 16 16z"/></svg>