<svg xmlns="http://www.w3.org/2000/svg" viewBox="0 0 640 512"><!--! Font Awesome Pro 6.6.0 by @fontawesome - https://fontawesome.com License - https://fontawesome.com/license (Commercial License) Copyright 2024 Fonticons, Inc. --><path d="M128 0C110.3 0 96 14.3 96 32l0 128-48 0c-26.5 0-48 21.5-48 48l0 64c0 26.5 21.5 48 48 48l288 0c26.5 0 48-21.5 48-48l0-48 0-16 0-18.7c0-11.6-3.2-23-9.1-32.9L295 23.3C286.4 8.8 270.7 0 253.9 0L128 0zM339.8 160.2c-1.3-.1-2.5-.2-3.8-.2l-208 0 0-128 125.9 0c5.6 0 10.8 2.9 13.7 7.8l72.2 120.4zM32 272l0-64c0-8.8 7.2-16 16-16l288 0c8.8 0 16 7.2 16 16l0 16 0 48c0 8.8-7.2 16-16 16L48 288c-8.8 0-16-7.2-16-16zM336 384c26.5 0 48 21.5 48 48s-21.5 48-48 48L80 480c-26.5 0-48-21.5-48-48s21.5-48 48-48l256 0zM80 352c-44.2 0-80 35.8-80 80s35.8 80 80 80l256 0c44.2 0 80-35.8 80-80s-35.8-80-80-80L80 352zM480.6 476.7L608 349.3l0 2.7 0 32 0 48c0 26.5-21.5 48-48 48l-78.1 0c-1.1 0-1.9-.9-1.9-1.9c0-.5 .2-1 .6-1.4zm-22.6-22.6c-6.4 6.4-9.9 15-9.9 24c0 18.7 15.2 33.9 33.9 33.9l78.1 0c44.2 0 80-35.8 80-80l0-48 0-32 0-32 0-2.7 0-45.3 0-144 0-70.9 0-10.5C640 20.9 619.1 0 593.4 0c-11.2 0-22.1 4-30.5 11.4L416 138.7l0 42.3L583.8 35.6c2.7-2.3 6.1-3.6 9.6-3.6c8.1 0 14.6 6.5 14.6 14.6l0 38.7L586.8 104 416 254.7l0 42.7L576 156.2 608 128l0 42.7L608 304 457.9 454.1zM112 456a24 24 0 1 0 0-48 24 24 0 1 0 0 48zm120-24a24 24 0 1 0 -48 0 24 24 0 1 0 48 0zm72 24a24 24 0 1 0 0-48 24 24 0 1 0 0 48z"/></svg>