<svg xmlns="http://www.w3.org/2000/svg" viewBox="0 0 512 512"><!--! Font Awesome Pro 6.6.0 by @fontawesome - https://fontawesome.com License - https://fontawesome.com/license (Commercial License) Copyright 2024 Fonticons, Inc. --><path d="M480 256A224 224 0 1 0 32 256a224 224 0 1 0 448 0zM0 256a256 256 0 1 1 512 0A256 256 0 1 1 0 256zm251.8 48l8.4 0c50.7 0 91.8 41.1 91.8 91.8c0 11.2-9 20.2-20.2 20.2l-151.6 0c-11.2 0-20.2-9-20.2-20.2c0-50.7 41.1-91.8 91.8-91.8zm8.4 32l-8.4 0c-29 0-53.2 20.6-58.6 48l125.7 0c-5.5-27.4-29.6-48-58.6-48zM136.4 224a24 24 0 1 1 48 0 24 24 0 1 1 -48 0zm216-24a24 24 0 1 1 0 48 24 24 0 1 1 0-48zM176 112c-4.4 0-8.8 .3-13 .9c-21.2 2.8-40.6 12.4-56.1 26.8c-6.5 6-16.6 5.7-22.6-.8s-5.7-16.6 .8-22.6c20.1-18.7 45.5-31.5 73.7-35.2c5.6-.7 11.4-1.1 17.2-1.1c8.8 0 16 7.2 16 16s-7.2 16-16 16zm173 .9c-4.3-.6-8.6-.9-13-.9c-8.8 0-16-7.2-16-16s7.2-16 16-16c5.8 0 11.6 .4 17.2 1.1c28.2 3.7 53.7 16.4 73.7 35.2c6.5 6 6.8 16.2 .8 22.6s-16.2 6.8-22.6 .8c-15.5-14.5-34.8-24-56.1-26.8zM160 176a48 48 0 1 0 0 96 48 48 0 1 0 0-96zm80 48A80 80 0 1 1 80 224a80 80 0 1 1 160 0zm64 0a48 48 0 1 0 96 0 48 48 0 1 0 -96 0zm48 80a80 80 0 1 1 0-160 80 80 0 1 1 0 160z"/></svg>