<svg xmlns="http://www.w3.org/2000/svg" viewBox="0 0 512 512"><!--! Font Awesome Pro 6.6.0 by @fontawesome - https://fontawesome.com License - https://fontawesome.com/license (Commercial License) Copyright 2024 Fonticons, Inc. --><path d="M384 439.8L384 272c0-8.8-7.2-16-16-16s-16 7.2-16 16l0 186.4c-29.1 13.8-61.6 21.6-96 21.6s-66.9-7.7-96-21.6L160 272c0-8.8-7.2-16-16-16s-16 7.2-16 16l0 167.8C70 399.4 32 332.1 32 256C32 132.3 132.3 32 256 32s224 100.3 224 224c0 76.1-38 143.4-96 183.8zM256 512A256 256 0 1 0 256 0a256 256 0 1 0 0 512zM195.2 233.6c5.3 7.1 15.3 8.5 22.4 3.2s8.5-15.3 3.2-22.4c-30.4-40.5-91.2-40.5-121.6 0c-5.3 7.1-3.9 17.1 3.2 22.4s17.1 3.9 22.4-3.2c17.6-23.5 52.8-23.5 70.4 0zm121.6 0c17.6-23.5 52.8-23.5 70.4 0c5.3 7.1 15.3 8.5 22.4 3.2s8.5-15.3 3.2-22.4c-30.4-40.5-91.2-40.5-121.6 0c-5.3 7.1-3.9 17.1 3.2 22.4s17.1 3.9 22.4-3.2zM288 352c0 17.7-14.3 32-32 32s-32-14.3-32-32l0-24c0-17.7 14.3-32 32-32s32 14.3 32 32l0 24zm-32-88c-35.3 0-64 28.7-64 64l0 24c0 35.3 28.7 64 64 64s64-28.7 64-64l0-24c0-35.3-28.7-64-64-64z"/></svg>