<svg xmlns="http://www.w3.org/2000/svg" viewBox="0 0 512 512"><!--! Font Awesome Pro 6.6.0 by @fontawesome - https://fontawesome.com License - https://fontawesome.com/license (Commercial License) Copyright 2024 Fonticons, Inc. --><path d="M256 32C132.3 32 32 132.3 32 256c0 8.8-7.2 16-16 16s-16-7.2-16-16C0 114.6 114.6 0 256 0S512 114.6 512 256s-114.6 256-256 256c-8.8 0-16-7.2-16-16s7.2-16 16-16c123.7 0 224-100.3 224-224S379.7 32 256 32zm39.1 306.7c5.4-3.6 12.4-3.6 17.8 0l40.3 26.8 23.7-11.8c7.9-4 17.5-.7 21.5 7.2s.7 17.5-7.2 21.5l-32 16c-5.1 2.6-11.3 2.2-16-1L304 371.2l-39.1 26.1c-7.4 4.9-17.3 2.9-22.2-4.4s-2.9-17.3 4.4-22.2l48-32zM136.5 190.3c-7.9-4-11.1-13.6-7.2-21.5s13.6-11.1 21.5-7.2l64 32c5.4 2.7 8.8 8.3 8.8 14.3s-3.4 11.6-8.8 14.3l-64 32c-7.9 4-17.5 .7-21.5-7.2s-.7-17.5 7.2-21.5L171.9 208l-35.4-17.7zm246.2-21.5c4 7.9 .7 17.5-7.2 21.5L340.2 208l35.4 17.7c7.9 4 11.1 13.6 7.2 21.5s-13.6 11.1-21.5 7.2l-64-32c-5.4-2.7-8.8-8.3-8.8-14.3s3.4-11.6 8.8-14.3l64-32c7.9-4 17.5-.7 21.5 7.2zM223.8 306.6l-32 192c-1.1 6.7-6.3 11.9-13 13.1s-13.4-1.9-16.7-7.8l-26-45.5L51.9 479.5c-5.5 1.4-11.2-.2-15.2-4.2s-5.6-9.7-4.2-15.2l21.1-84.2-45.5-26c-5.9-3.4-9-10-7.8-16.7s6.4-11.9 13.1-13l192-32c5.1-.8 10.3 .8 13.9 4.5s5.3 8.8 4.5 13.9zM79.9 354.1c6.2 3.6 9.3 10.8 7.6 17.8L70 442l70.1-17.5c7-1.7 14.2 1.4 17.8 7.6l9.7 17 20.9-125.6L62.9 344.4l17 9.7z"/></svg>