<svg xmlns="http://www.w3.org/2000/svg" viewBox="0 0 576 512"><!--! Font Awesome Pro 6.6.0 by @fontawesome - https://fontawesome.com License - https://fontawesome.com/license (Commercial License) Copyright 2024 Fonticons, Inc. --><path d="M288 32C174.4 32 80.6 116.5 66 226.1c-1.2 8.8-9.2 14.9-18 13.7s-14.9-9.2-13.7-18C50.9 96.6 158.2 0 288 0C429.4 0 544 114.6 544 256s-114.6 256-256 256c-57.6 0-110.8-19.1-153.6-51.2c-7.1-5.3-8.5-15.3-3.2-22.4s15.3-8.5 22.4-3.2C191 463.3 237.5 480 288 480c123.7 0 224-100.3 224-224S411.7 32 288 32zM64 317.5c-5.3 7.2-10.8 15.1-15.8 23c-5.4 8.5-9.8 16.4-12.8 23.1c-2.6 5.8-3.2 8.8-3.4 9.5l0 .1C32 385.5 43.7 400 64 400s32-14.5 32-26.7c0 .1 0 .1 0-.1c-.1-.7-.8-3.7-3.4-9.6c-3-6.7-7.4-14.5-12.8-23.1c-5-7.9-10.5-15.8-15.8-23zm-8.6-41.4c4.3-5.5 12.8-5.5 17.1 0c17.6 21.7 55.5 72.2 55.5 97.2c0 32.5-28.7 58.7-64 58.7s-64-26.2-64-58.7c0-25 38.1-75.5 55.5-97.2zM348.1 410.7c-11.7-13-31.6-26.7-60.1-26.7s-48.4 13.7-60.1 26.7c-5.9 6.6-16 7.1-22.6 1.2s-7.1-16-1.2-22.6C220.2 371.4 248.3 352 288 352s67.8 19.4 83.9 37.3c5.9 6.6 5.4 16.7-1.2 22.6s-16.7 5.4-22.6-1.2zM391.6 272a24 24 0 1 1 -48 0 24 24 0 1 1 48 0zm-184-24a24 24 0 1 1 0 48 24 24 0 1 1 0-48zm3.7-99.3c6.2 6.2 6.2 16.4 0 22.6l-7.4 7.4c-23.6 23.6-53.9 39.2-86.8 44.7l-2.5 .4c-8.7 1.5-17-4.4-18.4-13.2s4.4-17 13.2-18.4l2.5-.4c26.3-4.4 50.6-16.9 69.5-35.7l7.4-7.4c6.2-6.2 16.4-6.2 22.6 0zm153.4 22.6c-6.2-6.2-6.2-16.4 0-22.6s16.4-6.2 22.6 0l7.4 7.4c18.9 18.9 43.2 31.4 69.5 35.7l2.5 .4c8.7 1.5 14.6 9.7 13.2 18.4s-9.7 14.6-18.4 13.2l-2.5-.4c-32.9-5.5-63.3-21.1-86.8-44.7l-7.4-7.4z"/></svg>