<svg xmlns="http://www.w3.org/2000/svg" viewBox="0 0 512 512"><!--! Font Awesome Pro 6.6.0 by @fontawesome - https://fontawesome.com License - https://fontawesome.com/license (Commercial License) Copyright 2024 Fonticons, Inc. --><path d="M480 256A224 224 0 1 0 32 256a224 224 0 1 0 448 0zM0 256a256 256 0 1 1 512 0A256 256 0 1 1 0 256zm260.2 80l-8.4 0c-29 0-53.2 20.6-58.6 48l125.7 0c-5.5-27.4-29.6-48-58.6-48zm-8.4-32l8.4 0c50.7 0 91.8 41.1 91.8 91.8c0 11.2-9 20.2-20.2 20.2l-151.6 0c-11.2 0-20.2-9-20.2-20.2c0-50.7 41.1-91.8 91.8-91.8zM100.7 132.7c6.2-6.2 16.4-6.2 22.6 0L160 169.4l36.7-36.7c6.2-6.2 16.4-6.2 22.6 0s6.2 16.4 0 22.6L182.6 192l36.7 36.7c6.2 6.2 6.2 16.4 0 22.6s-16.4 6.2-22.6 0L160 214.6l-36.7 36.7c-6.2 6.2-16.4 6.2-22.6 0s-6.2-16.4 0-22.6L137.4 192l-36.7-36.7c-6.2-6.2-6.2-16.4 0-22.6zm192 0c6.2-6.2 16.4-6.2 22.6 0L352 169.4l36.7-36.7c6.2-6.2 16.4-6.2 22.6 0s6.2 16.4 0 22.6L374.6 192l36.7 36.7c6.2 6.2 6.2 16.4 0 22.6s-16.4 6.2-22.6 0L352 214.6l-36.7 36.7c-6.2 6.2-16.4 6.2-22.6 0s-6.2-16.4 0-22.6L329.4 192l-36.7-36.7c-6.2-6.2-6.2-16.4 0-22.6z"/></svg>