<svg xmlns="http://www.w3.org/2000/svg" viewBox="0 0 512 512"><!--! Font Awesome Pro 6.6.0 by @fontawesome - https://fontawesome.com License - https://fontawesome.com/license (Commercial License) Copyright 2024 Fonticons, Inc. --><path d="M480 256A224 224 0 1 0 32 256a224 224 0 1 0 448 0zM0 256a256 256 0 1 1 512 0A256 256 0 1 1 0 256zm256 98.1c-31.2 0-61.4-2.9-89.9-8.3c22.6 23.6 54.5 38.3 89.9 38.3s67.3-14.7 89.9-38.3c-28.5 5.4-58.7 8.3-89.9 8.3zm142.8-30.7c-24.1 54.6-79 92.7-142.8 92.7s-118.7-38.1-142.8-92.7c-5.2-11.7 6.8-22.4 19.1-18.7c37.3 11.1 79.3 17.4 123.8 17.4s86.4-6.3 123.8-17.4c12.3-3.7 24.2 7 19.1 18.7zM195.1 144.6c-9.3-2.5-18.8 3-21.3 12.3l-4.3 16.1c-2.3 8.5-11.1 13.6-19.6 11.3l-16.1-4.3c-9.3-2.5-18.8 3-21.3 12.3s3 18.8 12.3 21.3L190 230.9l17.4-65c2.5-9.3-3-18.8-12.3-21.3zm-52.2 4c7.1-26.3 34.1-42 60.4-34.9s42 34.1 34.9 60.4l-17.4 65c-4.6 17.1-22.1 27.2-39.2 22.6l-65.1-17.4c-26.3-7.1-42-34.1-34.9-60.4s34.1-42 60.4-34.9l.7 .2 .2-.6zm226.1 0l.2 .6 .7-.2c26.3-7.1 53.4 8.6 60.4 34.9s-8.6 53.4-34.9 60.4l-65.1 17.4c-17.1 4.6-34.6-5.6-39.2-22.6l-17.4-65c-7.1-26.3 8.6-53.4 34.9-60.4s53.4 8.6 60.4 34.9zm-52.2-4c-9.3 2.5-14.8 12-12.3 21.3l17.4 65 65.1-17.4c9.3-2.5 14.8-12 12.3-21.3s-12-14.8-21.3-12.3L362 184.2c-8.5 2.3-17.3-2.8-19.6-11.3l-4.3-16.1c-2.5-9.3-12-14.8-21.3-12.3z"/></svg>