<svg xmlns="http://www.w3.org/2000/svg" viewBox="0 0 512 512"><!--! Font Awesome Pro 6.6.0 by @fontawesome - https://fontawesome.com License - https://fontawesome.com/license (Commercial License) Copyright 2024 Fonticons, Inc. --><path d="M32 256C32 132.3 132.3 32 256 32s224 100.3 224 224c0 79.8-41.7 149.8-104.5 189.5c-7.5 4.7-9.7 14.6-5 22.1s14.6 9.7 22.1 5C464.3 427.3 512 347.2 512 256C512 114.6 397.4 0 256 0S0 114.6 0 256c0 91.2 47.7 171.3 119.5 216.6c7.5 4.7 17.4 2.5 22.1-5s2.5-17.4-5-22.1C73.7 405.8 32 335.8 32 256zm96 32c-17.1 0-33.2 14.3-31 33.7c4.8 43.9 27.4 82.4 60.3 108.2l4.3 3.4C169.7 478 208.9 512 256 512s86.3-34 94.5-78.7l4.3-3.4c32.9-25.8 55.4-64.3 60.3-108.2c2.1-19.4-13.9-33.7-31-33.7l-32 0-32 0-128 0-32 0-32 0zm160 32l32 0 0 32 0 64c0 35.3-28.7 64-64 64s-64-28.7-64-64l0-64 0-32 32 0 64 0zm-159 0l31 0 0 68.7c-16.6-18.8-27.8-42.5-31-68.7zm254 0c-3.3 26.1-14.4 49.9-31 68.7l0-68.7 31 0zM192 104c0-8.8-7.2-16-16-16s-16 7.2-16 16l0 9.3c-5.7 1.2-11.6 3.3-17 7.1c-7.5 5.4-12.6 13.5-14.4 23.6c-1.3 7.3-.7 14.5 2.2 21.2c2.9 6.6 7.6 11.3 12.4 14.6c8.4 5.8 19.3 9 27.2 11.2l1.1 .3c9.6 2.7 15.4 4.6 18.8 7c2.6 1.8 2.2 6.4-.6 8c0 0 0 0 0 0c-1.2 .7-3.8 1.6-8.8 1.5c-10.1-.2-22.5-3.9-32-7.1c-8.4-2.8-17.4 1.7-20.2 10.1s1.7 17.4 10.1 20.2c5.1 1.7 12.6 4.2 21.1 6l0 10.8c0 8.8 7.2 16 16 16s16-7.2 16-16l0-8.9c4.8-.9 9.8-2.5 14.4-5.2c9.1-5.5 15-14.4 17-25.9c1.3-7.3 .7-14.5-2.2-21.2c-2.9-6.6-7.6-11.3-12.4-14.6c-7.1-5-15.5-7.2-23.9-9.4c-8.2-2.2-16.4-4.3-23.3-9.1c-2.4-1.7-2.4-5.3 .2-7.2c1-.7 3.1-1.7 7.1-2.1c8.2-.9 18.7 1 27 3.2c8.5 2.3 17.3-2.8 19.6-11.3s-2.8-17.3-11.3-19.6c-3.4-.9-7.5-1.9-12.1-2.7l0-9.8zM336 88c-8.8 0-16 7.2-16 16l0 9.3c-5.7 1.2-11.6 3.3-17 7.1c-7.5 5.4-12.6 13.5-14.4 23.6c-1.3 7.3-.7 14.5 2.2 21.2c2.9 6.6 7.6 11.3 12.4 14.6c8.4 5.8 19.4 9 27.2 11.2l1.1 .3c9.5 2.7 15.4 4.6 18.8 7c2.6 1.8 2.2 6.4-.6 8c0 0 0 0 0 0c-1.2 .7-3.8 1.6-8.8 1.5c-10.1-.2-22.5-3.9-32-7.1c-8.4-2.8-17.4 1.7-20.2 10.1s1.7 17.4 10.1 20.2c5.1 1.7 12.6 4.2 21.1 6l0 10.8c0 8.8 7.2 16 16 16s16-7.2 16-16l0-8.9c4.8-.9 9.8-2.5 14.4-5.2c9.1-5.5 15-14.4 17-25.9c1.3-7.3 .7-14.5-2.2-21.2c-2.9-6.6-7.6-11.3-12.4-14.6c-7.1-5-15.5-7.2-23.9-9.4c-8.2-2.2-16.4-4.3-23.3-9.1c-2.4-1.7-2.4-5.3 .2-7.2c1-.7 3.1-1.7 7.1-2.1c8.2-.9 18.7 1 27 3.2c8.5 2.3 17.3-2.8 19.6-11.3s-2.8-17.3-11.3-19.6c-3.4-.9-7.5-1.9-12.1-2.7l0-9.8c0-8.8-7.2-16-16-16zM267.2 347.6c0-6.4-5.4-11.6-12-11.6s-12 5.2-12 11.6l0 6.8c-4.3 .8-8.7 2.4-12.7 5.2c-5.6 4-9.5 9.8-10.8 17.2c-.9 5.3-.5 10.6 1.7 15.4c2.2 4.8 5.7 8.2 9.3 10.6c6.3 4.2 14.5 6.5 20.4 8.1l.8 .2c7.2 2 11.5 3.3 14.1 5.1c1.9 1.3 1.6 4.6-.4 5.8c0 0 0 0 0 0c-.9 .5-2.8 1.1-6.6 1.1c-7.6-.1-16.9-2.9-24-5.2c-6.3-2-13.1 1.3-15.2 7.4s1.3 12.7 7.6 14.7c3.8 1.2 9.5 3 15.8 4.4l0 7.8c0 6.4 5.4 11.6 12 11.6s12-5.2 12-11.6l0-6.5c3.6-.6 7.3-1.8 10.8-3.8c6.8-4 11.2-10.5 12.7-18.9c.9-5.3 .5-10.6-1.7-15.4c-2.2-4.8-5.7-8.2-9.3-10.6c-5.4-3.6-11.7-5.2-17.9-6.8c-6.2-1.6-12.3-3.2-17.5-6.6c-1.8-1.2-1.8-3.9 .2-5.2c.7-.5 2.3-1.2 5.3-1.5c6.1-.6 14 .7 20.2 2.3c6.4 1.7 13-2 14.7-8.3s-2.1-12.6-8.5-14.2c-2.5-.7-5.7-1.4-9.1-2l0-7.2z"/></svg>