<svg xmlns="http://www.w3.org/2000/svg" viewBox="0 0 512 512"><!--! Font Awesome Pro 6.6.0 by @fontawesome - https://fontawesome.com License - https://fontawesome.com/license (Commercial License) Copyright 2024 Fonticons, Inc. --><path d="M32 256C32 132.3 132.3 32 256 32s224 100.3 224 224c0 79.8-41.7 149.8-104.5 189.5c-7.5 4.7-9.7 14.6-5 22.1s14.6 9.7 22.1 5C464.3 427.3 512 347.2 512 256C512 114.6 397.4 0 256 0S0 114.6 0 256c0 91.2 47.7 171.3 119.5 216.6c7.5 4.7 17.4 2.5 22.1-5s2.5-17.4-5-22.1C73.7 405.8 32 335.8 32 256zm272-64c-26.5 0-48-21.5-48-48c0-3.9 .5-7.7 1.4-11.4C261 143.9 271.5 152 284 152c15.5 0 28-12.5 28-28c0-12.5-8.1-23-19.4-26.6c3.6-.9 7.5-1.4 11.4-1.4c26.5 0 48 21.5 48 48s-21.5 48-48 48zm0 32a80 80 0 1 0 0-160 80 80 0 1 0 0 160zM144 184a40 40 0 1 1 0 80 40 40 0 1 1 0-80zm0 112a72 72 0 1 0 0-144 72 72 0 1 0 0 144zm24-72a24 24 0 1 0 -48 0 24 24 0 1 0 48 0zm-4.5 166.7c-2.3 6.2-3.5 12.9-3.5 19.9l0 5.4c0 53 43 96 96 96s96-43 96-96l0-5.4c0-2.3-.1-4.6-.4-6.9c57.3-37.6 82-108 64.4-173.2c-3.7-13.7-19.6-18.7-31.8-11.6L159.8 348.5c-12.3 7.1-15.8 23.4-5.8 33.4c3.1 3.1 6.2 6 9.5 8.8zm175.4-17c-10.8-13.2-27.1-21.6-45.5-21.6l-2 0c-13.3 0-25.6 4.6-35.4 12.5c-9.7-7.9-22.1-12.5-35.4-12.5l-2 0c-.3 0-.6 0-.9 0l170.5-98.4c6.9 46-11.6 92.6-49.3 120.1zM291.4 384l2 0c14.7 0 26.6 11.9 26.6 26.6l0 5.4c0 35.3-28.7 64-64 64s-64-28.7-64-64l0-5.4c0-14.7 11.9-26.6 26.6-26.6l2 0c6.7 0 12.8 2.7 17.2 7.2l.2 .3c1.6 1.7 3 3.6 4.1 5.8c.9 1.8 1.6 3.7 2 5.7c2.8 12.6 20.8 12.6 23.6 0c.4-2 1.1-3.9 2-5.7c1.1-2.1 2.5-4.1 4.1-5.8l.2-.3c4.4-4.5 10.6-7.2 17.2-7.2z"/></svg>