<svg xmlns="http://www.w3.org/2000/svg" viewBox="0 0 512 512"><!--! Font Awesome Pro 6.6.0 by @fontawesome - https://fontawesome.com License - https://fontawesome.com/license (Commercial License) Copyright 2024 Fonticons, Inc. --><path d="M480 256A224 224 0 1 0 32 256a224 224 0 1 0 448 0zM0 256a256 256 0 1 1 512 0A256 256 0 1 1 0 256zm164.1 69.5C182 346.2 212.6 368 256 368s74-21.8 91.9-42.5c5.8-6.7 15.9-7.4 22.6-1.6s7.4 15.9 1.6 22.6C349.8 372.1 311.1 400 256 400s-93.8-27.9-116.1-53.5c-5.8-6.7-5.1-16.8 1.6-22.6s16.8-5.1 22.6 1.6zm-7.6-131c-6.2 7.2-10.8 16.8-12.9 25.4c-2.1 8.6-10.8 13.8-19.4 11.6s-13.8-10.8-11.6-19.4c3.2-12.7 9.8-27.1 19.9-38.6C142.4 161.9 157.2 152 176 152s33.6 9.9 43.7 21.5c10 11.5 16.7 25.9 19.9 38.6c2.1 8.6-3.1 17.3-11.6 19.4s-17.3-3.1-19.4-11.6c-2.1-8.6-6.7-18.2-12.9-25.4c-6.2-7.1-12.8-10.5-19.5-10.5s-13.4 3.4-19.5 10.5zm147.1 25.4c-2.1 8.6-10.8 13.8-19.4 11.6s-13.8-10.8-11.6-19.4c3.2-12.7 9.8-27.1 19.9-38.6C302.4 161.9 317.2 152 336 152s33.6 9.9 43.7 21.5c10 11.5 16.7 25.9 19.9 38.6c2.1 8.6-3.1 17.3-11.6 19.4s-17.3-3.1-19.4-11.6c-2.1-8.6-6.7-18.2-12.9-25.4c-6.2-7.1-12.8-10.5-19.5-10.5s-13.4 3.4-19.5 10.5c-6.2 7.2-10.8 16.8-12.9 25.4z"/></svg>