<svg xmlns="http://www.w3.org/2000/svg" viewBox="0 0 512 512"><!--! Font Awesome Pro 6.6.0 by @fontawesome - https://fontawesome.com License - https://fontawesome.com/license (Commercial License) Copyright 2024 Fonticons, Inc. --><path d="M480 256A224 224 0 1 0 32 256a224 224 0 1 0 448 0zM0 256a256 256 0 1 1 512 0A256 256 0 1 1 0 256zM308.9 429.8c-16.2-6.1-34-9.4-52.9-9.4c-18.8 0-36.7 3.4-52.9 9.4c-11.2 4.2-23.6 2.3-32.4-4.5c-4.5-3.5-8.4-8.6-10-15.1c-1.6-6.7-.5-13.5 2.7-19.5C180.9 358 215.9 336 256 336c40.1 0 75.2 22.1 92.5 54.7c3.2 6 4.3 12.8 2.7 19.5c-1.6 6.5-5.5 11.6-10 15.1c-8.8 6.8-21.2 8.7-32.4 4.5zM256 368c-24.9 0-46.7 12.1-59.6 30.2c18.5-6.4 38.6-9.8 59.6-9.8c21 0 41.1 3.5 59.6 9.9C302.7 380 280.9 368 256 368zM152.4 272a24 24 0 1 1 48 0 24 24 0 1 1 -48 0zm184-24a24 24 0 1 1 0 48 24 24 0 1 1 0-48zM192 160c-4.4 0-8.8 .3-13 .9c-21.2 2.8-40.6 12.4-56.1 26.8c-6.5 6-16.6 5.7-22.6-.8s-5.7-16.6 .8-22.6c20.1-18.7 45.5-31.5 73.7-35.2c5.6-.7 11.4-1.1 17.2-1.1c8.8 0 16 7.2 16 16s-7.2 16-16 16zm141 .9c-4.3-.6-8.6-.9-13-.9c-8.8 0-16-7.2-16-16s7.2-16 16-16c5.8 0 11.6 .4 17.2 1.1c28.2 3.7 53.7 16.4 73.7 35.2c6.5 6 6.8 16.2 .8 22.6s-16.2 6.8-22.6 .8c-15.5-14.5-34.8-24-56.1-26.8z"/></svg>