<svg xmlns="http://www.w3.org/2000/svg" viewBox="0 0 576 512"><!--! Font Awesome Pro 6.6.0 by @fontawesome - https://fontawesome.com License - https://fontawesome.com/license (Commercial License) Copyright 2024 Fonticons, Inc. --><path d="M288 32C174.4 32 80.6 116.5 66 226.1c-1.2 8.8-9.2 14.9-18 13.7s-14.9-9.2-13.7-18C50.9 96.6 158.2 0 288 0C429.4 0 544 114.6 544 256c0 83.8-40.2 158.1-102.4 204.8C398.8 492.9 345.6 512 288 512s-110.8-19.1-153.6-51.2c-7.1-5.3-8.5-15.3-3.2-22.4s15.3-8.5 22.4-3.2c15.6 11.8 32.9 21.5 51.3 28.9c-8.1-13.9-12.8-30.1-12.9-47.3c-10.2-7.2-16-15.7-16-24.7c0-26.5 50.1-48 112-48s112 21.5 112 48c0 9-5.8 17.5-16 24.7c-.1 17.2-4.8 33.4-12.9 47.3c18.4-7.4 35.7-17.1 51.3-28.9C476.8 394.3 512 329.3 512 256C512 132.3 411.7 32 288 32zM64 317.5c-5.3 7.2-10.8 15.1-15.8 23c-5.4 8.5-9.8 16.4-12.8 23.1c-2.6 5.8-3.2 8.8-3.4 9.5l0 .1C32 385.5 43.7 400 64 400s32-14.5 32-26.7c0 .1 0 .1 0-.1c-.1-.7-.8-3.7-3.4-9.6c-3-6.7-7.4-14.5-12.8-23.1c-5-7.9-10.5-15.8-15.8-23zm-8.6-41.4c4.3-5.5 12.8-5.5 17.1 0c17.6 21.7 55.5 72.2 55.5 97.2c0 32.5-28.7 58.7-64 58.7s-64-26.2-64-58.7c0-25 38.1-75.5 55.5-97.2zM367.6 248a24 24 0 1 1 0 48 24 24 0 1 1 0-48zm-136 24a24 24 0 1 1 -48 0 24 24 0 1 1 48 0zM211.3 171.3l-7.4 7.4c-23.6 23.6-53.9 39.2-86.8 44.7l-2.5 .4c-8.7 1.5-17-4.4-18.4-13.2s4.4-17 13.2-18.4l2.5-.4c26.3-4.4 50.6-16.9 69.5-35.7l7.4-7.4c6.2-6.2 16.4-6.2 22.6 0s6.2 16.4 0 22.6zm153.4-22.6c6.2-6.2 16.4-6.2 22.6 0l7.4 7.4c18.9 18.9 43.2 31.4 69.5 35.7l2.5 .4c8.7 1.5 14.6 9.7 13.2 18.4s-9.7 14.6-18.4 13.2l-2.5-.4c-32.9-5.5-63.3-21.1-86.8-44.7l-7.4-7.4c-6.2-6.2-6.2-16.4 0-22.6zM224 417.6c0 34.5 27.9 62.4 62.4 62.4l3.2 0c34.5 0 62.4-27.9 62.4-62.4l0-14.6c0-14.9-12.1-27-27-27l-2.5 0c-10.9 0-20.4 7.4-23 18c-3 12-20 12-23 0c-2.6-10.6-12.1-18-23-18l-2.5 0c-14.9 0-27 12.1-27 27l0 14.6z"/></svg>