<svg xmlns="http://www.w3.org/2000/svg" viewBox="0 0 512 512"><!--! Font Awesome Pro 6.6.0 by @fontawesome - https://fontawesome.com License - https://fontawesome.com/license (Commercial License) Copyright 2024 Fonticons, Inc. --><path d="M272 48a16 16 0 1 0 -32 0 16 16 0 1 0 32 0zM211.8 66.7c-20.4 4.8-39.6 12.9-56.9 23.7c3.3 6.5 5.2 13.9 5.2 21.7c0 7.4-1.7 14.4-4.7 20.7l68.2 68.2c5.1-3 10.6-5.3 16.5-6.8l0-100.7c-12.7-4.5-23-14.2-28.2-26.6zM272 194c5.9 1.5 11.4 3.8 16.5 6.8l68.2-68.2c-3-6.3-4.7-13.3-4.7-20.7c0-7.8 1.9-15.2 5.2-21.7c-17.3-10.8-36.5-18.8-56.9-23.7C295 79 284.7 88.8 272 93.3L272 194zm39.1 29.5c3 5.1 5.3 10.6 6.8 16.5l100.7 0c4.3-12.1 13.3-22 24.9-27.5c-4.5-20.5-12.2-39.8-22.7-57.3c-6.3 3.1-13.4 4.8-20.9 4.8c-7.4 0-14.4-1.7-20.7-4.7l-68.2 68.2zM418.7 272L318 272c-4.6 17.9-16.7 32.7-32.8 41l81.4 176.3c2.3 5 1.9 10.7-1 15.3s-8 7.4-13.5 7.4l-192 0c-5.5 0-10.5-2.8-13.5-7.4s-3.3-10.4-1-15.3L226.8 313c-16.1-8.2-28.2-23.1-32.8-41L93.3 272c-4.2 11.8-12.8 21.5-23.9 27c4.9 20.4 13.1 39.5 24 56.8c5.7-2.4 12-3.7 18.6-3.7c26.5 0 48 21.5 48 48s-21.5 48-48 48s-48-21.5-48-48c0-8.1 2-15.7 5.5-22.3c-14.9-22.4-26-47.7-32.1-74.8C16 298 0 278.9 0 256c0-22.5 15.5-41.4 36.3-46.6C42 181.2 53 154.8 68.1 131.5c-2.7-6-4.1-12.6-4.1-19.5c0-26.5 21.5-48 48-48c6.7 0 13 1.4 18.8 3.8c23.6-15.9 50.4-27.5 79.2-33.5C215.9 14.5 234.3 0 256 0s40.1 14.5 46 34.3c28.8 6 55.6 17.6 79.2 33.5C387 65.4 393.3 64 400 64c26.5 0 48 21.5 48 48c0 6.9-1.5 13.6-4.1 19.5c15.2 23.3 26.1 49.7 31.8 77.9c20.9 5.2 36.3 24.1 36.3 46.6c0 22.9-16 42-37.4 46.8c-6.1 27.1-17.1 52.4-32.1 74.8c3.5 6.7 5.5 14.3 5.5 22.3c0 26.5-21.5 48-48 48s-48-21.5-48-48s21.5-48 48-48c6.6 0 12.9 1.3 18.6 3.7c10.9-17.3 19.1-36.4 24-56.8c-11.1-5.5-19.7-15.2-23.9-27zM194 240c1.5-5.9 3.8-11.4 6.8-16.5l-68.2-68.2c-6.3 3-13.3 4.7-20.7 4.7c-7.5 0-14.6-1.7-20.9-4.8C80.6 172.7 72.9 192 68.4 212.5C79.9 218 89 227.9 93.3 240L194 240zm254 16a16 16 0 1 0 32 0 16 16 0 1 0 -32 0zM64 256a16 16 0 1 0 -32 0 16 16 0 1 0 32 0zm64-144a16 16 0 1 0 -32 0 16 16 0 1 0 32 0zm272 16a16 16 0 1 0 0-32 16 16 0 1 0 0 32zm16 272a16 16 0 1 0 -32 0 16 16 0 1 0 32 0zM112 416a16 16 0 1 0 0-32 16 16 0 1 0 0 32zm144-89.8L185 480l142 0L256 326.2zm0-38.2a32 32 0 1 0 0-64 32 32 0 1 0 0 64z"/></svg>