<svg xmlns="http://www.w3.org/2000/svg" viewBox="0 0 512 512"><!--! Font Awesome Pro 6.6.0 by @fontawesome - https://fontawesome.com License - https://fontawesome.com/license (Commercial License) Copyright 2024 Fonticons, Inc. --><path d="M64 480l16 0 0 32-16 0c-35.3 0-64-28.7-64-64L0 64C0 28.7 28.7 0 64 0L220.1 0c12.7 0 24.9 5.1 33.9 14.1L369.9 129.9c9 9 14.1 21.2 14.1 33.9L384 304l-32 0 0-112-112 0c-26.5 0-48-21.5-48-48l0-112L64 32C46.3 32 32 46.3 32 64l0 384c0 17.7 14.3 32 32 32zM351.5 160c-.7-2.8-2.1-5.4-4.2-7.4L231.4 36.7c-2.1-2.1-4.6-3.5-7.4-4.2L224 144c0 8.8 7.2 16 16 16l111.5 0zM157.7 359.8L192 416.9l34.3-57.1c3.7-6.2 11.1-9.1 18-7.2s11.7 8.2 11.7 15.4l0 128c0 8.8-7.2 16-16 16s-16-7.2-16-16l0-70.2-18.3 30.5c-2.9 4.8-8.1 7.8-13.7 7.8s-10.8-3-13.7-7.8L160 425.8l0 70.2c0 8.8-7.2 16-16 16s-16-7.2-16-16l0-128c0-7.2 4.8-13.5 11.7-15.4s14.3 1 18 7.2zM448 368l0 31.6c0 23 5.5 45.6 16 66c10.5-20.3 16-42.9 16-66l0-31.6c0-8.8 7.2-16 16-16s16 7.2 16 16l0 31.6c0 34.7-10.3 68.7-29.6 97.6l-5.1 7.7c-3 4.5-8 7.1-13.3 7.1s-10.3-2.7-13.3-7.1l-5.1-7.7c-19.3-28.9-29.6-62.9-29.6-97.6l0-31.6c0-8.8 7.2-16 16-16s16 7.2 16 16zM288 392c0-22.1 17.9-40 40-40l16 0c22.1 0 40 17.9 40 40l0 80c0 22.1-17.9 40-40 40l-16 0c-22.1 0-40-17.9-40-40l0-80zm40-8c-4.4 0-8 3.6-8 8l0 80c0 4.4 3.6 8 8 8l16 0c4.4 0 8-3.6 8-8l0-80c0-4.4-3.6-8-8-8l-16 0z"/></svg>