<svg xmlns="http://www.w3.org/2000/svg" viewBox="0 0 576 512"><!--! Font Awesome Pro 6.6.0 by @fontawesome - https://fontawesome.com License - https://fontawesome.com/license (Commercial License) Copyright 2024 Fonticons, Inc. --><path d="M384 192l-32 0-32 0-80 0c-26.5 0-48-21.5-48-48l0-112L64 32C46.3 32 32 46.3 32 64l0 384c0 17.7 14.3 32 32 32l256 0c0 11.4 3 22.2 8.3 31.5c-2.7 .3-5.5 .5-8.3 .5L64 512c-35.3 0-64-28.7-64-64L0 64C0 28.7 28.7 0 64 0L220.1 0c12.7 0 24.9 5.1 33.9 14.1L369.9 129.9c9 9 14.1 21.2 14.1 33.9l0 28.1zM240 160l111.5 0c-.7-2.8-2.1-5.4-4.2-7.4L231.4 36.7c-2.1-2.1-4.6-3.5-7.4-4.2L224 144c0 8.8 7.2 16 16 16zm224 64c-26.5 0-48 21.5-48 48l0 48 96 0 0-48c0-26.5-21.5-48-48-48zm-80 48c0-44.2 35.8-80 80-80s80 35.8 80 80l0 48c17.7 0 32 14.3 32 32l0 128c0 17.7-14.3 32-32 32l-160 0c-17.7 0-32-14.3-32-32l0-128c0-17.7 14.3-32 32-32l0-48zm0 80l0 128 160 0 0-128-160 0z"/></svg>