<svg xmlns="http://www.w3.org/2000/svg" viewBox="0 0 640 512"><!--! Font Awesome Pro 6.6.0 by @fontawesome - https://fontawesome.com License - https://fontawesome.com/license (Commercial License) Copyright 2024 Fonticons, Inc. --><path d="M349.4 93.5c9.6-.1 18.7-4.5 24.7-12.1c3.9-4.9 7.8-9.6 11.6-14c16.4 17.8 30.9 39.4 41.8 60.5C441 154 448 179.4 448 192.2c0 25.3-7.4 48.9-20.1 68.8c7.4 5.8 14.3 12.1 20.7 18.9c2.7-1.8 5.5-3.5 8.4-5.2c14.6-24.1 23-52.4 23-82.5c0-20.2-9.6-50.9-24.2-79C441.1 84.7 420.2 54.7 395.5 32c-5.6-5.1-14.4-5.2-20 0c-1.8 1.6-3.5 3.3-5.2 5c-7.7 7.7-14.8 16.4-21.2 24.5c-7-8.4-14.1-16.5-21.5-24.4c-10.9-11.6-22.2-22.8-34-33.4c-2.8-2.5-6.3-3.7-9.8-3.8c-3.6 0-7.2 1.2-10 3.7c-33.2 29.7-61.4 63.4-81.4 95.8c-19.7 31.9-32.4 66.2-32.4 92.6c0 30 8.2 58.3 22.7 82.4c3 1.7 5.9 3.5 8.7 5.3c6.3-6.8 13.2-13.1 20.6-18.8c-12.7-19.9-20-43.6-20-68.9c0-17.9 9.4-46.2 27.6-75.8c15.9-25.8 37.9-53.1 64-78.1C298 51.9 311.6 66.5 324.4 82c6.2 7.4 15.3 11.6 25 11.5zM224 194c0 19.2 4.8 36.3 13.5 50.5c9.5-5.1 19.6-9.3 30.1-12.6c-7.1-9.6-11.5-22.2-11.5-38c0-8.3 2.5-16.8 9.1-28.1c4.7-8.1 11.2-17.2 19.8-28.2l20 25.5 20.4 26 6.6 8.5 1.8 2.4 .5 .6 .1 .2c0 0 0 0 0 0c0 0 0 0 0 0s0 0 0 0L347 191l-12.6 9.9c3 3.8 7.4 6 12.2 6.1s9.4-1.9 12.5-5.6l20.7-24.1c6.9 19 3.9 39.8-7 54.8c10.5 3.3 20.5 7.5 30 12.6c16.2-27 17-62.2 1.3-91.1c0 0 0-.1 0-.1c0 0 0 0 0 0s0 0 0 0s0 0 0 0c-1.9-3.9-4.5-9-8.3-14.1c-2.9-3.9-7.4-6.2-12.3-6.4s-9.5 1.9-12.7 5.6l-23.3 27.2-17.5-22.3c-15-19.1-30.5-38.9-32.6-41.5c-3-3.8-7.6-6-12.4-6s-9.4 2.2-12.5 5.9c-14.9 18.4-26.9 33.8-35.1 47.9C229 164.3 224 178.3 224 194zM213.9 364c15-44.2 56.9-76 106.1-76s91.1 31.8 106.1 76c2.1 6.2 7.7 10.5 14.2 10.8s12.6-3.2 15.4-9.1C468.6 338.7 496.1 320 528 320c44.2 0 80 35.8 80 80s-35.8 80-80 80l-123.3 0-169.3 0L112 480c-44.2 0-80-35.8-80-80s35.8-80 80-80c31.9 0 59.4 18.7 72.3 45.7c2.8 5.9 8.9 9.5 15.4 9.1s12.1-4.7 14.2-10.8zM320 256c-52.6 0-98.6 28.2-123.7 70.3C175.8 302.8 145.6 288 112 288C50.1 288 0 338.1 0 400s50.1 112 112 112l123.3 0 169.3 0L528 512c61.9 0 112-50.1 112-112s-50.1-112-112-112c-33.6 0-63.8 14.8-84.3 38.3C418.6 284.2 372.6 256 320 256z"/></svg>