<svg xmlns="http://www.w3.org/2000/svg" viewBox="0 0 576 512"><!--! Font Awesome Pro 6.6.0 by @fontawesome - https://fontawesome.com License - https://fontawesome.com/license (Commercial License) Copyright 2024 Fonticons, Inc. --><path d="M143.4 191.2c21.4-23.6 49.6-47.6 80.7-65.6C255.3 107.5 288.4 96 320 96c51.6 0 108.2 26.5 152.4 61.5c22 17.4 40.2 36.4 52.9 54.3c13 18.4 18.7 33.7 18.7 44.2s-5.7 25.8-18.7 44.2c-12.6 17.9-30.9 36.9-52.9 54.3C428.2 389.5 371.6 416 320 416c-31.6 0-64.7-11.5-95.9-29.6c-31.1-18-59.3-42-80.7-65.6c-5.4-5.9-14.3-7-20.9-2.4L37.6 376.8 62.1 266.4c1.5-6.9 1.5-14 0-20.8L37.6 135.2l84.9 58.4c6.6 4.5 15.5 3.5 20.9-2.4zM320 64c-39.1 0-77.8 14.1-111.9 33.9c-29.8 17.2-56.8 39.3-78.7 61.6L43.7 100.6c-4.4-3-9.6-4.6-14.9-4.6C12 96-.5 111.6 3.2 128L30.8 252.5c.5 2.3 .5 4.7 0 6.9L3.2 384c-3.6 16.4 8.8 32 25.6 32c5.3 0 10.5-1.6 14.9-4.6l-9.1-13.2 9.1 13.2 85.6-58.9c21.9 22.4 49 44.4 78.7 61.6C242.2 433.9 280.9 448 320 448c61.4 0 124.8-30.9 172.3-68.5c23.9-18.9 44.4-40.1 59.2-60.9C565.8 298.2 576 276.2 576 256s-10.2-42.2-24.5-62.6c-14.7-20.8-35.2-42-59.2-60.9C444.8 94.9 381.4 64 320 64zm-4.7 107.3c6.2-6.2 6.2-16.4 0-22.6s-16.4-6.2-22.6 0l-64 64c-6.2 6.2-6.2 16.4 0 22.6s16.4 6.2 22.6 0l64-64zm112 16c6.2-6.2 6.2-16.4 0-22.6s-16.4-6.2-22.6 0l-160 160c-6.2 6.2-6.2 16.4 0 22.6s16.4 6.2 22.6 0l160-160zm16 112c6.2-6.2 6.2-16.4 0-22.6s-16.4-6.2-22.6 0l-64 64c-6.2 6.2-6.2 16.4 0 22.6s16.4 6.2 22.6 0l64-64z"/></svg>