<svg xmlns="http://www.w3.org/2000/svg" viewBox="0 0 448 512"><!--! Font Awesome Pro 6.6.0 by @fontawesome - https://fontawesome.com License - https://fontawesome.com/license (Commercial License) Copyright 2024 Fonticons, Inc. --><path d="M280.4 32c-4 0-7.9 .6-11.7 1.8L204.2 53.6C130.4 76.3 80 144.5 80 221.8L80 288l8 0c22.1 0 40 17.9 40 40l0 144c0 22.1-17.9 40-40 40l-48 0c-22.1 0-40-17.9-40-40L0 328c0-22.1 17.9-40 40-40l8 0 0-66.2C48 130.5 107.6 49.9 194.8 23L259.3 3.2C266.1 1.1 273.2 0 280.4 0C319.9 0 352 32.1 352 71.6l0 64.4c0 8.8-7.2 16-16 16s-16-7.2-16-16l0-64.4C320 49.7 302.3 32 280.4 32zm48.5 145.7c4.5-2.3 9.8-2.3 14.3 0c17.9 8.9 43.7 27.1 65.2 53.4C430 257.5 448 292.9 448 336c0 33.5-15.1 80.9-58.2 115.8l23.5 35.3c3.3 4.9 3.6 11.2 .8 16.4s-8.2 8.5-14.1 8.5l-128 0c-5.9 0-11.3-3.2-14.1-8.5s-2.5-11.5 .8-16.4l23.5-35.3C239.1 416.9 224 369.5 224 336c0-43.1 18-78.5 39.6-104.9c21.5-26.3 47.4-44.4 65.2-53.4zM256 336c0 27.3 13.9 70 56.9 98.7c7.4 4.9 9.3 14.8 4.4 22.2L301.9 480l68.2 0-15.4-23.1c-4.9-7.4-2.9-17.3 4.4-22.2C402.1 406 416 363.3 416 336c0-33.7-14-62.3-32.4-84.7c-15.6-19-33.8-33-47.6-41.1c-13.8 8.1-32 22.1-47.6 41.1C270 273.7 256 302.3 256 336zM88 320l-48 0c-4.4 0-8 3.6-8 8l0 144c0 4.4 3.6 8 8 8l48 0c4.4 0 8-3.6 8-8l0-144c0-4.4-3.6-8-8-8zm272-32a24 24 0 1 1 0 48 24 24 0 1 1 0-48z"/></svg>