<svg xmlns="http://www.w3.org/2000/svg" viewBox="0 0 576 512"><!--! Font Awesome Pro 6.6.0 by @fontawesome - https://fontawesome.com License - https://fontawesome.com/license (Commercial License) Copyright 2024 Fonticons, Inc. --><path d="M256.8 32l59.9 32.9c11.7 6.4 25.1 9 38.4 7.5l51.5-6.1 17.9-17.9c4.6-4.6 10-8.3 15.8-11.1c-6.1-3.9-13.4-5.7-21-4.8l-67.9 8.1c-6.6 .8-13.3-.5-19.2-3.7L272.2 4c-12.8-7-28.7-4.5-38.7 6.1L186.6 59.9c-4.6 4.9-10.5 8.2-17.1 9.5L102.4 82.7c-14.3 2.8-24.9 15-25.7 29.6l-3.8 68.3c-.4 6.7-2.8 13-7 18.2L23.1 252.1c-9.1 11.4-9.4 27.5-.7 39.2l40.9 54.8c4 5.3 6.2 11.8 6.4 18.5l.9 41.2c2.6-4.9 5.9-9.4 9.9-13.3L101.8 371l-.2-7.1c-.3-13.3-4.7-26.3-12.7-37L48 272.1l42.8-53.3c8.4-10.4 13.3-23.2 14-36.5l3.8-68.3 67.1-13.3c13.1-2.6 25-9.2 34.2-19L256.8 32zM426.7 136.7l36.6-36.6c29.7 39.8 48.8 87 48.8 139.9c0 132.5-107.5 240-240 240c-52.9 0-100.1-19.1-139.9-48.8l79.6-79.6 86-86 86-86 43-43zm56.1-63.6c-4.3-5.4-10.6-8.6-17.4-9s-13.5 2.2-18.3 7l-43 43-43 43-86 86-86 86-86 86c-4.8 4.8-7.4 11.5-7 18.3s3.7 13.2 9 17.4C150.8 487.1 207.3 512 272 512c150.2 0 272-121.8 272-272c0-64.7-24.9-121.2-61.2-166.9zM272 416a16 16 0 1 0 0-32 16 16 0 1 0 0 32zm80-16a16 16 0 1 0 -32 0 16 16 0 1 0 32 0zm-48-48a16 16 0 1 0 0-32 16 16 0 1 0 0 32zM232 144c-66.3 0-120 53.7-120 120c0 27.2 9.1 52.3 24.3 72.5l22.9-22.9C149.6 299.4 144 282.4 144 264c0-48.6 39.4-88 88-88c18.4 0 35.4 5.6 49.5 15.3l22.9-22.9C284.3 153.1 259.2 144 232 144z"/></svg>