<svg xmlns="http://www.w3.org/2000/svg" viewBox="0 0 512 512"><!--! Font Awesome Pro 6.6.0 by @fontawesome - https://fontawesome.com License - https://fontawesome.com/license (Commercial License) Copyright 2024 Fonticons, Inc. --><path d="M64 64C46.3 64 32 78.3 32 96l0 320c0 17.7 14.3 32 32 32l384 0c17.7 0 32-14.3 32-32l0-256c0-17.7-14.3-32-32-32l-156.1 0c-17 0-33.3-6.7-45.3-18.7L210.7 73.4c-6-6-14.1-9.4-22.6-9.4L64 64zM0 96C0 60.7 28.7 32 64 32l124.1 0c17 0 33.3 6.7 45.3 18.7l35.9 35.9c6 6 14.1 9.4 22.6 9.4L448 96c35.3 0 64 28.7 64 64l0 256c0 35.3-28.7 64-64 64L64 480c-35.3 0-64-28.7-64-64L0 96z"/></svg>