<svg xmlns="http://www.w3.org/2000/svg" viewBox="0 0 512 512"><!--! Font Awesome Pro 6.6.0 by @fontawesome - https://fontawesome.com License - https://fontawesome.com/license (Commercial License) Copyright 2024 Fonticons, Inc. --><path d="M32 96c0-17.7 14.3-32 32-32l124.1 0c8.5 0 16.6 3.4 22.6 9.4l35.9 35.9c12 12 28.3 18.7 45.3 18.7L448 128c17.7 0 32 14.3 32 32l0 256c0 17.7-14.3 32-32 32L64 448c-17.7 0-32-14.3-32-32L32 96zM64 32C28.7 32 0 60.7 0 96L0 416c0 35.3 28.7 64 64 64l384 0c35.3 0 64-28.7 64-64l0-256c0-35.3-28.7-64-64-64L291.9 96c-8.5 0-16.6-3.4-22.6-9.4L233.4 50.7c-12-12-28.3-18.7-45.3-18.7L64 32zM176 253.3c0-16.2 13.1-29.3 29.3-29.3c7.8 0 15.2 3.1 20.7 8.6l18.7 18.7c6.2 6.2 16.4 6.2 22.6 0l18.7-18.7c5.5-5.5 12.9-8.6 20.7-8.6c16.2 0 29.3 13.1 29.3 29.3c0 7.8-3.1 15.2-8.6 20.7L256 345.4l-71.4-71.4c-5.5-5.5-8.6-12.9-8.6-20.7zM205.3 192c-33.8 0-61.3 27.4-61.3 61.3c0 16.2 6.5 31.8 17.9 43.3l82.7 82.7c6.2 6.2 16.4 6.2 22.6 0l82.7-82.7c11.5-11.5 17.9-27.1 17.9-43.3c0-33.8-27.4-61.3-61.3-61.3c-16.2 0-31.8 6.5-43.3 17.9l-7.4 7.4-7.4-7.4c-11.5-11.5-27.1-17.9-43.3-17.9z"/></svg>