<svg xmlns="http://www.w3.org/2000/svg" viewBox="0 0 448 512"><!--! Font Awesome Pro 6.6.0 by @fontawesome - https://fontawesome.com License - https://fontawesome.com/license (Commercial License) Copyright 2024 Fonticons, Inc. --><path d="M238.7 41.8c-2.5-5.9-8.3-9.8-14.7-9.8s-12.2 3.8-14.7 9.8L37.4 448 16 448c-8.8 0-16 7.2-16 16s7.2 16 16 16l80 0c8.8 0 16-7.2 16-16s-7.2-16-16-16l-23.9 0 40.6-96 222.5 0 40.6 96L352 448c-8.8 0-16 7.2-16 16s7.2 16 16 16l80 0c8.8 0 16-7.2 16-16s-7.2-16-16-16l-21.4 0L238.7 41.8zm83 278.2l-195.4 0L224 89.1 321.7 320z"/></svg>