<svg xmlns="http://www.w3.org/2000/svg" viewBox="0 0 512 512"><!--! Font Awesome Pro 6.6.0 by @fontawesome - https://fontawesome.com License - https://fontawesome.com/license (Commercial License) Copyright 2024 Fonticons, Inc. --><path d="M135.6 2.4c4.7-2.9 10.6-3.2 15.6-.7l224 112c5.4 2.7 8.8 8.3 8.8 14.3s-3.4 11.6-8.8 14.3L160 249.9l0 61.7c29.6-4.9 62.1-7.6 96-7.6c141.4 0 256 46.6 256 104s-114.6 104-256 104S0 465.4 0 408c0-32.8 37.5-62.1 96-81.2l0 33.8c-3.1 1.1-6.1 2.3-9 3.5c-20.9 8.5-35.7 17.8-44.7 26.5C33.3 399.2 32 405.1 32 408s1.3 8.8 10.3 17.4c9.1 8.7 23.8 18 44.7 26.5C128.7 468.8 188.4 480 256 480s127.3-11.2 169-28.1c20.9-8.5 35.7-17.8 44.7-26.5c9-8.6 10.3-14.5 10.3-17.4s-1.3-8.8-10.3-17.4c-9.1-8.7-23.8-18-44.7-26.5C383.3 347.2 323.6 336 256 336c-34.5 0-67 2.9-96 8l0 28.2c17-7.6 39.4-12.2 64-12.2c53 0 96 21.5 96 48s-43 48-96 48s-96-21.5-96-48l0-57.1 0-32.9 0-77.9 0-224c0-5.5 2.9-10.7 7.6-13.6zM160 214.1L332.2 128 160 41.9l0 172.2zM288.4 405.4s0 0-.1 .1c0-.1 0-.1 .1-.1zm-10.8-2.7c-12.1-6-31-10.7-53.6-10.7s-41.5 4.7-53.6 10.7c-4.3 2.1-6.9 4-8.5 5.3c1.6 1.4 4.2 3.2 8.5 5.3c12.1 6 31 10.7 53.6 10.7s41.5-4.7 53.6-10.7c4.3-2.1 6.9-4 8.5-5.3c-1.6-1.4-4.2-3.2-8.5-5.3zm10.8 7.9s0 0-.1-.1l0 .1c0 0 0 0 0 0z"/></svg>