<svg xmlns="http://www.w3.org/2000/svg" viewBox="0 0 448 512"><!--! Font Awesome Pro 6.6.0 by @fontawesome - https://fontawesome.com License - https://fontawesome.com/license (Commercial License) Copyright 2024 Fonticons, Inc. --><path d="M408 64c4.4 0 8 3.6 8 8l0 24c0 106-86 192-192 192S32 202 32 96l0-24c0-4.4 3.6-8 8-8l368 0zM40 32C17.9 32 0 49.9 0 72L0 96c0 92.5 56 171.9 136 206.1l-23.7 52c-5.2-1.4-10.7-2.1-16.4-2.1c-35.3 0-64 28.7-64 64s28.7 64 64 64s64-28.7 64-64l168.6 0 24.8 54.6c3.7 8 13.1 11.6 21.2 7.9s11.6-13.1 7.9-21.2L312 302.1C392 267.9 448 188.5 448 96l0-24c0-22.1-17.9-40-40-40L40 32zM140.4 369.9l26.1-57.3c18.4 4.9 37.7 7.5 57.6 7.5s39.2-2.6 57.6-7.5L314.1 384l-162.6 0c-3-5.2-6.8-10-11.1-14.1zM96 448a32 32 0 1 1 0-64 32 32 0 1 1 0 64z"/></svg>