<svg xmlns="http://www.w3.org/2000/svg" viewBox="0 0 576 512"><!--! Font Awesome Pro 6.6.0 by @fontawesome - https://fontawesome.com License - https://fontawesome.com/license (Commercial License) Copyright 2024 Fonticons, Inc. --><path d="M408 64L40 64c-4.4 0-8 3.6-8 8l0 24c0 106 86 192 192 192c4.7 0 9.4-.2 14-.5c-4.4 10.8-8 21.7-10.5 32.5c-1.2 0-2.4 0-3.6 0c-19.9 0-39.2-2.6-57.6-7.5l-26.1 57.3c4.3 4.2 8.1 8.9 11.1 14.1l75.5 0c1.9 11 4.8 21.7 8.5 32L160 416c0 35.3-28.7 64-64 64s-64-28.7-64-64s28.7-64 64-64c5.7 0 11.1 .7 16.4 2.1l23.7-52C56 267.9 0 188.5 0 96L0 72C0 49.9 17.9 32 40 32l368 0c22.1 0 40 17.9 40 40l0 24c0 24.1-3.8 47.3-10.9 69.1c-8.5-8.6-17.2-17-26.2-25.1c0 0 0 0 0 0c3.3-14.1 5.1-28.8 5.1-44l0-24c0-4.4-3.6-8-8-8zM96 384a32 32 0 1 0 0 64 32 32 0 1 0 0-64zM442.3 240.3c-9 .2-17.6-3.4-23.7-9.9l-19-19.9c-2.5-2.6-5.2-5.7-7.3-8.1c0 0 0 0 0 0l-1.7-1.9c-2.6-3-4.6-5-6.3-6.6c-.4-.3-.7-.6-1-.8c-21.7 19.8-45.5 44.9-63.9 72.5c-19 28.5-31.4 58.3-31.4 86.7c0 33.7 12.7 64.2 33.6 87c-1.1-5.4-1.6-10.9-1.6-16.6c0-57.4 63.8-110.5 87.4-128.2c5.2-3.9 12.1-3.9 17.3 0c23.6 17.7 87.4 70.8 87.4 128.2c0 5.5-.5 10.9-1.6 16.2C531.3 416 544 385.7 544 352.2c0-22.6-8.5-48-22.2-72.6c-13-23.4-30.1-44.9-46.7-60.7l-9.5 10.7c-5.9 6.7-14.4 10.6-23.4 10.8zM416 480c2.4 0 4.8-.1 7.1-.2c33.7-3.3 56.9-29.4 56.9-57.3c0-17.4-10.1-37.7-27.4-58.5c-12.1-14.5-25.8-27-36.6-35.8c-10.7 8.8-24.5 21.3-36.6 35.8c-17.3 20.7-27.4 41.1-27.4 58.5c0 27.9 23.3 54 57 57.3c2.3 .1 4.7 .2 7 .2zM256 352.2c0-37.3 16-73.4 36.8-104.5c20.9-31.3 47.5-59 70.9-80.2c5.7-5.2 13.1-7.7 20.3-7.5c14.1 .3 23.8 11.4 32.7 21.6c1 1.1 1.9 2.2 2.9 3.3c1 1.2 2.1 2.3 3.1 3.4l19 19.9L454 194.5c2.5-2.9 5.7-5 9-6.5c3.8-1.6 7.9-2.4 11.9-2.4c7.2 0 14.3 2.6 19.9 7.8c19.7 18.3 39.8 43.2 55 70.6C565 291.2 576 322.2 576 352.2c0 85.6-66.4 154.9-150.8 159.6c-3 .3-6.1 .4-9.2 .4c-3.1 0-6.1-.1-9.1-.4c-85.2-4.6-150.9-74-150.9-159.6zM381.6 191.7s0 0 .1 0c-.1 0-.1 0-.1 0z"/></svg>