<svg xmlns="http://www.w3.org/2000/svg" viewBox="0 0 448 512"><!--! Font Awesome Pro 6.6.0 by @fontawesome - https://fontawesome.com License - https://fontawesome.com/license (Commercial License) Copyright 2024 Fonticons, Inc. --><path d="M408 384c4.4 0 8-3.6 8-8l0-48c0-4.4-3.6-8-8-8l-48 0c-4.4 0-8 3.6-8 8l0 48c0 4.4 3.6 8 8 8l48 0zm40-8c0 22.1-17.9 40-40 40l-48 0c-22.1 0-40-17.9-40-40l0-48c0-22.1 17.9-40 40-40l48 0c22.1 0 40 17.9 40 40l0 48zM408 192c4.4 0 8-3.6 8-8l0-48c0-4.4-3.6-8-8-8l-48 0c-4.4 0-8 3.6-8 8l0 48c0 4.4 3.6 8 8 8l48 0zm40-8c0 22.1-17.9 40-40 40l-48 0c-22.1 0-40-17.9-40-40l0-48c0-22.1 17.9-40 40-40l48 0c22.1 0 40 17.9 40 40l0 48zM200 384l48 0c4.4 0 8-3.6 8-8l0-48c0-4.4-3.6-8-8-8l-48 0c-4.4 0-8 3.6-8 8l0 48c0 4.4 3.6 8 8 8zm48 32l-48 0c-22.1 0-40-17.9-40-40l0-48c0-22.1 17.9-40 40-40l48 0c22.1 0 40 17.9 40 40l0 48c0 22.1-17.9 40-40 40zm0-224c4.4 0 8-3.6 8-8l0-48c0-4.4-3.6-8-8-8l-48 0c-4.4 0-8 3.6-8 8l0 48c0 4.4 3.6 8 8 8l48 0zm40-8c0 22.1-17.9 40-40 40l-48 0c-22.1 0-40-17.9-40-40l0-48c0-22.1 17.9-40 40-40l48 0c22.1 0 40 17.9 40 40l0 48zM40 384l48 0c4.4 0 8-3.6 8-8l0-48c0-4.4-3.6-8-8-8l-48 0c-4.4 0-8 3.6-8 8l0 48c0 4.4 3.6 8 8 8zm48 32l-48 0c-22.1 0-40-17.9-40-40l0-48c0-22.1 17.9-40 40-40l48 0c22.1 0 40 17.9 40 40l0 48c0 22.1-17.9 40-40 40zm0-224c4.4 0 8-3.6 8-8l0-48c0-4.4-3.6-8-8-8l-48 0c-4.4 0-8 3.6-8 8l0 48c0 4.4 3.6 8 8 8l48 0zm40-8c0 22.1-17.9 40-40 40l-48 0c-22.1 0-40-17.9-40-40l0-48c0-22.1 17.9-40 40-40l48 0c22.1 0 40 17.9 40 40l0 48z"/></svg>