<svg xmlns="http://www.w3.org/2000/svg" viewBox="0 0 512 512"><!--! Font Awesome Pro 6.6.0 by @fontawesome - https://fontawesome.com License - https://fontawesome.com/license (Commercial License) Copyright 2024 Fonticons, Inc. --><path d="M391.1 67.8l52.6-35L473.3 55c7.6 5.7 8.3 16.7 1.7 23.4c-6.1 6.1-15.9 6.1-22 0l-9.7-9.7c-6.2-6.2-16.4-6.2-22.6 0L384 105.4l0-24.2c0-5.3 2.7-10.3 7.1-13.3zM352 136c0 .4 0 .9 .1 1.3l-68.2 68.2c-8-10.2-13.4-20.5-12.1-27.7c1.6-8.9 5.8-16.9 9.9-24.7c8.9-16.7 17.2-32.4-3.3-53.1c-15.9-16.1-41.8-16.1-57.7 0l-29.9 30.2c-9.4 9.5-15 21.1-20.6 32.8c0 0 0 0 0 0c-5.6 11.6-11.1 23.1-20.3 32.3c-16.5 16.7-38.1 23.8-59.8 30.8c-21.8 7.1-43.7 14.3-60.6 31.4c-39.3 39.7-39.3 104 0 143.7l79.9 80.8c39.4 39.9 103.5 39.9 142.9 0c17-17.2 24-39.3 31-61.3c6.9-21.9 13.8-43.7 30.5-60.5c8.7-8.8 19.5-13.8 30.3-18.8c10.9-5.1 21.8-10.1 30.6-19l21.6-21.8c15.8-15.9 15.8-41.7 0-57.6c-16.5-16.7-29.8-12.3-44-7.7c-7.2 2.4-14.7 4.8-22.9 4.6c-5.5-.2-14-4.9-22.8-11.9L432 102.6c18.7 17 47.5 16.5 65.6-1.6c20.5-20.5 18-54.3-5.1-71.6L461 5.7C456 2 450 0 443.8 0c-5.6 0-11.2 1.7-15.9 4.8L373.4 41.2C360 50.1 352 65.1 352 81.1l0 54.9zM238.6 172.1c-3 17.4 4.7 32.7 9.4 40.7c5.7 9.7 13.4 18.9 21 26.7c7.7 7.9 16.4 15.4 25.1 21.2c4.3 2.9 9.1 5.8 14.2 8c4.6 2.1 11.7 4.7 20 4.9c11.4 .3 21.1-2.1 27.9-4.1c2.3-.7 4.9-1.5 6.9-2.2c0 0 0 0 0 0s0 0 0 0l1.8-.6c2.4-.8 4-1.2 5.3-1.5l.3-.1c.5 .4 1.1 .9 1.8 1.7c2.8 2.8 2.8 7.5 0 10.3l-21.6 21.8c-3.8 3.9-9.1 6.7-20.8 12.1l-1.4 .7c-10.1 4.7-25.8 11.9-38.8 25c-22.4 22.7-31.5 51.3-37.9 71.8l-.8 2.4c-7.3 23.1-12.4 37.1-22.7 47.6c-26.3 26.6-68.8 26.6-95.1 0L53.4 377.7c-26.3-26.6-26.3-69.8 0-96.5c10.2-10.4 24-15.5 46.9-23l2.4-.8c20.3-6.6 48.7-15.8 71.1-38.4c13.2-13.3 20.9-29.3 26-40.1l.7-1.5c6-12.4 9.4-18.8 14.1-23.6l29.9-30.2c2.8-2.8 7.2-2.8 9.9 0c1.4 1.4 2.2 2.4 2.7 3.1c-.1 .2-.2 .5-.3 .7c-1 2.6-2.2 4.7-4 8.2c0 0 0 0 0 0s0 0 0 0c-1 1.9-2.2 4.1-3.7 7.1c-3.6 6.9-8.4 17.1-10.5 29.2c0 0 0 0 0 0zm130.9 92.3s0 0 .1 .1c-.1 0-.1-.1-.1-.1zM257.8 128s0 0-.1-.1c0 .1 .1 .1 .1 .1zM148.7 276.7c-6.2 6.2-6.2 16.4 0 22.6l64 64c6.2 6.2 16.4 6.2 22.6 0s6.2-16.4 0-22.6l-64-64c-6.2-6.2-16.4-6.2-22.6 0zm-48 48c-6.2 6.2-6.2 16.4 0 22.6l64 64c6.2 6.2 16.4 6.2 22.6 0s6.2-16.4 0-22.6l-64-64c-6.2-6.2-16.4-6.2-22.6 0z"/></svg>