<svg xmlns="http://www.w3.org/2000/svg" viewBox="0 0 576 512"><!--! Font Awesome Pro 6.6.0 by @fontawesome - https://fontawesome.com License - https://fontawesome.com/license (Commercial License) Copyright 2024 Fonticons, Inc. --><path d="M128 48c0-8.8-7.2-16-16-16s-16 7.2-16 16l0 16C43 64 0 107 0 160c0 47.3 34.3 86.7 79.4 94.6L33 440.2c-2.4 9.6-.2 19.7 5.8 27.5S54.1 480 64 480l104 0c14.7 0 27.5-10 31-24.2L225 352l63 0 0 16c0 8.8 7.2 16 16 16s16-7.2 16-16l0-32 0-32c0-8.8-7.2-16-16-16s-16 7.2-16 16l0 16-55 0 16-64 199 0c35.6 0 66.6-19.3 83.2-48l4.8 0c22.1 0 40-17.9 40-40l0-16c0-22.1-17.9-40-40-40l-4.8 0C514.6 83.3 483.6 64 448 64L128 64l0-16zM112 96l336 0c26.2 0 48.8 15.8 58.7 38.4c2.5 5.8 8.3 9.6 14.7 9.6l14.7 0c4.4 0 8 3.6 8 8l0 16c0 4.4-3.6 8-8 8l-14.7 0c-6.4 0-12.1 3.8-14.7 9.6C496.8 208.2 474.2 224 448 224l-191 0-33 0L96 224c-35.3 0-64-28.7-64-64s28.7-64 64-64l16 0zM96 144c-8.8 0-16 7.2-16 16s7.2 16 16 16l352 0c8.8 0 16-7.2 16-16s-7.2-16-16-16L96 144zM64 448l48-192 104 0L168 448 64 448z"/></svg>