<svg xmlns="http://www.w3.org/2000/svg" viewBox="0 0 640 512"><!--! Font Awesome Pro 6.6.0 by @fontawesome - https://fontawesome.com License - https://fontawesome.com/license (Commercial License) Copyright 2024 Fonticons, Inc. --><path d="M283.7 379.4l11.9-48.2c10.4 4.3 21.3 5.6 31.9 4.4l-4.4 17.7 71.3-35.9c6.9-3.5 15.2-1.6 19.9 4.5L463 385.2 479.3 307c1.6-7.5 8.3-12.9 15.9-12.7l79.8 1.4-50.9-61.5c-4.9-5.9-4.9-14.5 0-20.4l50.9-61.5-79.8 1.4c-7.7 .1-14.4-5.2-15.9-12.7L463 62.8l-30.4 39.5c-5.4-6.3-12.1-11.6-20-15.6l-6.1-3 52.3-68c3.8-5 10.2-7.2 16.2-5.8s10.8 6.2 12.1 12.3l20.8 99.3 101.4-1.8c6.2-.1 12 3.4 14.7 9.1s1.9 12.3-2.1 17.1L557.3 224 622 302.1c4 4.8 4.8 11.5 2.1 17.1s-8.5 9.2-14.7 9.1l-101.4-1.8-20.8 99.3c-1.3 6.1-6 10.9-12.1 12.3s-12.4-.9-16.2-5.8L397 351.8l-90.6 45.7c-5.6 2.8-12.3 2.1-17.2-1.8s-7.1-10.3-5.6-16.4zM72 48L32 128 320 272l64-128L192 48 72 48zM43.4 33.7C48.8 22.8 59.9 16 72 16l120 0c5 0 9.9 1.2 14.3 3.4l192 96c15.8 7.9 22.2 27.1 14.3 42.9l-64 128c-7.9 15.8-27.1 22.2-42.9 14.3l-97.9-48.9s0 0 0 0l-28.6-14.3s0 0 0 0l-28.6-14.3s0 0 0 0L122 208.8s0 0 0 0L17.7 156.6C1.9 148.7-4.5 129.5 3.4 113.7l40-80zM5.1 442.5L107.6 237.4l28.6 14.3L33.7 456.9c-4 7.9-.7 17.5 7.2 21.5s17.5 .7 21.5-7.2L164.9 266l28.6 14.3L90.9 485.5c-11.9 23.7-40.7 33.3-64.4 21.5S-6.8 466.3 5.1 442.5z"/></svg>