<svg xmlns="http://www.w3.org/2000/svg" viewBox="0 0 640 512"><!--! Font Awesome Pro 6.6.0 by @fontawesome - https://fontawesome.com License - https://fontawesome.com/license (Commercial License) Copyright 2024 Fonticons, Inc. --><path d="M342.6 9.4l96 96c12.5 12.5 12.5 32.8 0 45.3l-96 96c-12.5 12.5-32.8 12.5-45.3 0l-96-96c-12.5-12.5-12.5-32.8 0-45.3l96-96c12.5-12.5 32.8-12.5 45.3 0zM224 128l96 96 96-96L320 32l-96 96zM64 64c35.3 0 64 28.7 64 64l0 124.3c0 4.6 .4 9.1 1.3 13.5c2.1-3.2 4.6-6.3 7.4-9.1c21.7-21.7 56.9-21.7 78.6 0L306.6 348c5.1 5.1 9.6 10.6 13.4 16.6c3.8-5.9 8.3-11.5 13.4-16.6l91.3-91.3c21.7-21.7 56.9-21.7 78.6 0c2.8 2.8 5.3 5.9 7.4 9.1c.9-4.4 1.3-8.9 1.3-13.5L512 128c0-35.3 28.7-64 64-64s64 28.7 64 64l0 216.2c0 29.7-11.8 58.2-32.8 79.2l-83.9 83.9c-6.2 6.2-16.4 6.2-22.6 0s-6.2-16.4 0-22.6l83.9-83.9c15-15 23.4-35.4 23.4-56.6L608 128c0-17.7-14.3-32-32-32s-32 14.3-32 32l0 124.3c0 27.1-10.8 53.1-29.9 72.2l-10.8 10.8-44 44-16 16c-6.2 6.2-16.4 6.2-22.6 0s-6.2-16.4 0-22.6l16-16s0 0 0 0l44-44s0 0 0 0c9.2-9.2 9.2-24.2 0-33.4s-24.2-9.2-33.4 0L356 370.6c-12.8 12.8-20 30.2-20 48.3l0 77.1c0 8.8-7.2 16-16 16s-16-7.2-16-16l0-77.1c0-18.1-7.2-35.5-20-48.3l-91.3-91.3c-9.2-9.2-24.2-9.2-33.4 0s-9.2 24.2 0 33.4l44 44 16 16c6.2 6.2 6.2 16.4 0 22.6s-16.4 6.2-22.6 0l-16-16s0 0 0 0l-44-44s0 0 0 0l-10.7-10.8C106.8 305.4 96 279.4 96 252.3L96 128c0-17.7-14.3-32-32-32s-32 14.3-32 32l0 216.2c0 21.2 8.4 41.6 23.4 56.6l83.9 83.9c6.2 6.2 6.2 16.4 0 22.6s-16.4 6.2-22.6 0L32.8 423.4C11.8 402.4 0 373.9 0 344.2L0 128C0 92.7 28.7 64 64 64z"/></svg>