<svg xmlns="http://www.w3.org/2000/svg" viewBox="0 0 640 512"><!--! Font Awesome Pro 6.6.0 by @fontawesome - https://fontawesome.com License - https://fontawesome.com/license (Commercial License) Copyright 2024 Fonticons, Inc. --><path d="M328 0c-24.9 0-46 16.3-53.3 38.8c-7.9-4.3-17-6.8-26.7-6.8c-30.9 0-56 25.1-56 56l0 200.8-32.4-32.4c-21.9-21.9-57.3-21.9-79.2 0s-21.9 57.3 0 79.2L184.2 439.4C230.7 485.9 293.8 512 359.5 512l8.5 0c37.3 0 71.8-11.6 100.3-31.3c-9.6-5.5-17.4-13.7-22.3-23.6C423.5 471.6 396.7 480 368 480l-8.5 0c-57.3 0-112.2-22.8-152.7-63.3L103 313c-9.4-9.4-9.4-24.6 0-33.9s24.6-9.4 33.9 0l59.7 59.7c4.6 4.6 11.5 5.9 17.4 3.5s9.9-8.3 9.9-14.8L224 88c0-13.3 10.7-24 24-24s24 10.7 24 24c0 0 0 0 0 .1L272 240c0 8.8 7.2 16 16 16s16-7.2 16-16l0-160c0 0 0 0 0-.1L304 56c0-13.3 10.7-24 24-24s24 10.7 24 24l0 32c0 0 0 0 0 .1L352 240c0 8.8 7.2 16 16 16s16-7.2 16-16l0-152.1C384 74.7 394.8 64 408 64c13.3 0 24 10.7 24 24l0 64c0 0 0 0 0 .1l0 87.9c0 8.8 7.2 16 16 16s16-7.2 16-16l0-88.1c0-13.2 10.8-23.9 24-23.9c13.3 0 24 10.7 24 24l0 184c0 1.1 0 2.1 0 3.2c7.1-11.9 18.5-20.9 32-24.9L544 152c0-30.9-25.1-56-56-56c-8.6 0-16.7 1.9-24 5.4L464 88c0-30.9-25.1-56-56-56c-9.7 0-18.8 2.5-26.7 6.8C374 16.3 352.9 0 328 0zM96 80c0-8.8-7.2-16-16-16s-16 7.2-16 16l0 48-48 0c-8.8 0-16 7.2-16 16s7.2 16 16 16l48 0 0 32c0 8.8 7.2 16 16 16s16-7.2 16-16l0-32 48 0c8.8 0 16-7.2 16-16s-7.2-16-16-16l-48 0 0-48zM336 304c0-8.8-7.2-16-16-16s-16 7.2-16 16l0 32-32 0c-8.8 0-16 7.2-16 16s7.2 16 16 16l32 0 0 32c0 8.8 7.2 16 16 16s16-7.2 16-16l0-32 32 0c8.8 0 16-7.2 16-16s-7.2-16-16-16l-32 0 0-32zm240 64c0-8.8-7.2-16-16-16s-16 7.2-16 16l0 48-48 0c-8.8 0-16 7.2-16 16s7.2 16 16 16l48 0 0 48c0 8.8 7.2 16 16 16s16-7.2 16-16l0-48 48 0c8.8 0 16-7.2 16-16s-7.2-16-16-16l-48 0 0-48z"/></svg>