<svg xmlns="http://www.w3.org/2000/svg" viewBox="0 0 512 512"><!--! Font Awesome Pro 6.6.0 by @fontawesome - https://fontawesome.com License - https://fontawesome.com/license (Commercial License) Copyright 2024 Fonticons, Inc. --><path d="M210.7 38.8C218 16.3 239.1 0 264 0s46 16.3 53.3 38.8c7.9-4.3 17-6.8 26.7-6.8c30.9 0 56 25.1 56 56l0 13.4c7.3-3.5 15.4-5.4 24-5.4c30.9 0 56 25.1 56 56l0 184c0 97.2-78.8 176-176 176l-8.5 0c-65.8 0-128.9-26.1-175.4-72.6L16.4 335.6c-21.9-21.9-21.9-57.3 0-79.2s57.3-21.9 79.2 0L128 288.8 128 88c0-30.9 25.1-56 56-56c9.7 0 18.8 2.5 26.7 6.8zM208 88c0-13.3-10.7-24-24-24s-24 10.7-24 24l0 239.4c0 6.5-3.9 12.3-9.9 14.8s-12.9 1.1-17.4-3.5L73 279c-9.4-9.4-24.6-9.4-33.9 0s-9.4 24.6 0 33.9L142.8 416.7c40.5 40.5 95.4 63.3 152.7 63.3l8.5 0c79.5 0 144-64.5 144-144l0-184c0-13.3-10.7-24-24-24c-13.2 0-24 10.7-24 23.9l0 88.1c0 8.8-7.2 16-16 16s-16-7.2-16-16l0-87.9c0 0 0 0 0-.1l0-64c0-13.3-10.7-24-24-24c-13.2 0-24 10.7-24 23.9L320 240c0 8.8-7.2 16-16 16s-16-7.2-16-16l0-151.9c0 0 0 0 0-.1l0-32c0-13.3-10.7-24-24-24s-24 10.7-24 24l0 23.9c0 0 0 0 0 .1l0 160c0 8.8-7.2 16-16 16s-16-7.2-16-16l0-151.9c0 0 0 0 0-.1zm32 232a16 16 0 1 1 32 0 16 16 0 1 1 -32 0zm48 48a16 16 0 1 1 32 0 16 16 0 1 1 -32 0zm80-64a16 16 0 1 1 0 32 16 16 0 1 1 0-32zM320 416a16 16 0 1 1 32 0 16 16 0 1 1 -32 0zm-64-16a16 16 0 1 1 0 32 16 16 0 1 1 0-32zm-80-32a16 16 0 1 1 32 0 16 16 0 1 1 -32 0z"/></svg>