<svg xmlns="http://www.w3.org/2000/svg" viewBox="0 0 576 512"><!--! Font Awesome Pro 6.6.0 by @fontawesome - https://fontawesome.com License - https://fontawesome.com/license (Commercial License) Copyright 2024 Fonticons, Inc. --><path d="M304 24l0 17.3c8.5 1.2 16.7 3.1 24.1 5.1c8.5 2.3 13.6 11 11.3 19.6s-11 13.6-19.6 11.3c-11.1-3-22-5.2-32.1-5.3c-8.4-.1-17.3 1.8-23.6 5.5c-5.7 3.4-8.1 7.3-8.1 12.8c0 3.7 1.3 6.5 7.3 10.1c6.9 4.1 16.6 7.1 29.2 10.9l.5 .1s0 0 0 0c11.3 3.4 25.3 7.6 36.3 14.6c12.1 7.6 22.4 19.7 22.7 38.2c.3 19.3-9.6 33.3-22.9 41.6c-7.7 4.8-16.4 7.6-25.1 9.1l0 17.1c0 8.8-7.2 16-16 16s-16-7.2-16-16l0-17.8c-11.2-2.1-21.7-5.7-30.9-8.9c-2.1-.7-4.2-1.4-6.2-2.1c-8.4-2.8-12.9-11.9-10.1-20.2s11.9-12.9 20.2-10.1c2.5 .8 4.8 1.6 7.1 2.4c0 0 0 0 0 0s0 0 0 0c13.6 4.6 24.6 8.4 36.3 8.7c9.1 .3 17.9-1.7 23.7-5.3c5.1-3.2 7.9-7.3 7.8-14c-.1-4.6-1.8-7.8-7.7-11.6c-6.8-4.3-16.5-7.4-29-11.2l-1.6-.5s0 0 0 0c-11-3.3-24.3-7.3-34.8-13.7c-12-7.2-22.6-18.9-22.7-37.3C224 71.1 234.9 57.7 247.9 50c7.5-4.4 15.8-7.2 24.1-8.7L272 24c0-8.8 7.2-16 16-16s16 7.2 16 16zM151 317.4c13.1-8.8 28.6-13.4 44.4-13.4L344 304c30.9 0 56 25.1 56 56c0 8.6-1.9 16.7-5.4 24l5.6 0 94.7-56.4c8.3-4.9 17.8-7.6 27.5-7.6l1.3 0c28.9 0 52.3 23.4 52.3 52.3c0 17.7-9 34.2-23.8 43.8L432.6 493.9c-18.2 11.8-39.4 18.1-61 18.1L16 512c-8.8 0-16-7.2-16-16s7.2-16 16-16l355.5 0c15.5 0 30.6-4.5 43.6-12.9l119.6-77.8c5.8-3.7 9.2-10.2 9.2-17c0-11.2-9.1-20.3-20.3-20.3l-1.3 0c-3.9 0-7.7 1.1-11.1 3l-98.5 58.7c-2.5 1.5-5.3 2.3-8.2 2.3L344 416l-24 0-64 0c-8.8 0-16-7.2-16-16s7.2-16 16-16l64 0 24 0c13.3 0 24-10.7 24-24s-10.7-24-24-24l-148.6 0c-9.5 0-18.7 2.8-26.6 8.1L88.9 397.3l-4 2.7L80 400l-64 0c-8.8 0-16-7.2-16-16s7.2-16 16-16l59.2 0L151 317.4z"/></svg>