<svg xmlns="http://www.w3.org/2000/svg" viewBox="0 0 640 512"><!--! Font Awesome Pro 6.6.0 by @fontawesome - https://fontawesome.com License - https://fontawesome.com/license (Commercial License) Copyright 2024 Fonticons, Inc. --><path d="M160 0c-8.8 0-16 7.2-16 16s7.2 16 16 16l192 0 0 96-208 0L110.4 83.2C101.3 71.1 87.1 64 72 64L44.8 64c-21 0-36.3 19.9-30.9 40.2l22.7 85.1c3.7 14 13.6 25.6 26.9 31.5l124.6 55.4c1.8 .8 3.4 1.9 4.8 3.3l90.4 90.4c9 9 21.3 14.1 34 14.1l.5 0 .5 0 .5 0 .5 0 .4 0 .4 0 .4 0 .4 0 .5 0 .4 0 .4 0 .4 0 .4 0 .4 0 .4 0 .4 0 .4 0 .4 0 .4 0 .4 0 .4 0 .4 0 .4 0 .4 0 .4 0 .4 0 .4 0 .4 0 .4 0 .4 0 .4 0 .4 0 .4 0 .4 0 .4 0 .4 0 .4 0 .4 0 .4 0 .4 0 .4 0 .4 0 .4 0 .4 0 .4 0 .4 0 .4 0 .4 0 .4 0 .4 0 .4 0 .4 0 .4 0 .4 0 .4 0 .4 0 .4 0 .4 0 .4 0 .4 0 .4 0 .4 0 .4 0 .4 0 .4 0 .4 0 .4 0 .4 0 .4 0 .4 0 .4 0 .4 0 .4 0 .4 0 .4 0 .4 0 .4 0 .4 0 .4 0 .4 0 .4 0 .4 0 .4 0 .4 0 .4 0 .4 0 .4 0 .4 0 .4 0 .4 0 .4 0 .4 0 .4 0 .4 0 .4 0 .4 0 .4 0 .4 0 .4 0 .4 0 .4 0 .4 0 .4 0 .4 0 .4 0 .4 0 .4 0 .4 0 .4 0 .4 0 .4 0 .4 0 .4 0 .4 0 .4 0 .4 0 .4 0 .4 0 .4 0 .4 0 .4 0 .4 0 .4 0 .4 0 .4 0 .4 0 .4 0 .4 0 .4 0 .4 0 .4 0 .4 0 .4 0 .4 0 .4 0 .4 0 .4 0 .4 0 .4 0 .4 0 .4 0 .4 0 .4 0 .4 0 .4 0 .4 0 .4 0 .4 0 .4 0 .4 0 .4 0 .4 0 .4 0 .4 0 .4 0 .4 0 .4 0 .4 0 .4 0 .4 0 .4 0 .4 0 .4 0 .4 0 .4 0 .4 0 .4 0 .4 0 .4 0 .4 0 .4 0 .4 0 .4 0 .4 0 .4 0 .4 0 .4 0 .4 0 .4 0 .4 0 .4 0 .4 0 .4 0 .4 0 .4 0 .4 0 .4 0 .4 0 .4 0 .4 0 .4 0 .4 0 .4 0 .4 0 .4 0 .4 0 .4 0 .4 0 .4 0 .4 0 .4 0 .4 0 .4 0 .4 0 .4 0 .4 0 .4 0 .4 0 .4 0 .4 0 .4 0 .4 0 .4 0 .4 0 .4 0 .4 0 .4 0 .4 0 .4 0 .4 0 .4 0 .4 0 .4 0 .4 0 .4 0 .4 0 .4 0 .4 0 .4 0 .4 0 .4 0 .4 0 .4 0 .4 0 .4 0 .4 0 .4 0 .4 0 .4 0 .4 0 .4 0 .4 0 .4 0 .4 0 .4 0 .4 0 .4 0 .4 0 .4 0 .4 0 .4 0 .4 0 .4 0 .4 0 .4 0 .4 0 .4 0 .4 0 .4 0 .4 0 .4 0 .4 0 .4 0 .4 0 .4 0 .4 0 .4 0 .4 0 .4 0 .4 0 .4 0 .4 0 .4 0 .4 0 .4 0 .4 0 .4 0 .4 0 .4 0 .4 0 .4 0 .4 0 .4 0 .4 0 .4 0 .4 0 .4 0 .4 0 .4 0 .4 0 .4 0 .4 0 .4 0 .4 0 .4 0 .4 0 .4 0 .4 0 .4 0 .4 0 .4 0 .4 0 .4 0 .4 0 .4 0 .4 0 .4 0 .4 0 .4 0 .4 0 .4 0 .4 0 .4 0 .4 0 .4 0 .4 0 .4 0 .4 0 .4 0 .4 0 .4 0 .4 0 .4 0 .4 0 .4 0 .4 0 .4 0 .4 0 .4 0 .4 0 .4 0 .4 0 .4 0 .4 0 .4 0 .4 0 .4 0 .4 0 .4 0 .4 0 .4 0 .4 0 .4 0 .4 0 .4 0 .4 0 .4 0 .4 0 .4 0 .4 0 .4 0 .4 0 .4 0 .4 0 .4 0 .4 0 .4 0 .4 0 .4 0 .4 0 .4 0 .4 0 .4 0 .4 0 .4 0 .4 0 .4 0 .4 0 .4 0 .4 0 .4 0 .4 0 .4 0 .4 0 .4 0 .4 0 .4 0 .4 0 .4 0 .4 0 .4 0 .4 0 .4 0 .4 0 .4 0 .4 0 .4 0 .4 0 .4 0 .4 0 .4 0 .4 0 .4 0 .4 0 .4 0 .4 0 .4 0 .4 0 .4 0 .4 0 .4 0 .4 0 .4 0 .4 0 .4 0 .4 0 .4 0 .4 0 .4 0 .4 0 .4 0 .4 0 .4 0 .4 0 .4 0 .4 0 .4 0 .4 0 .4 0 .4 0 .4 0 .4 0 .4 0 .4 0 .4 0 .4 0 .4 0 .4 0 .4 0 .4 0 .4 0 .4 0 .4 0 .4 0 .4 0 .4 0 .4 0 .4 0 .4 0 .4 0 .4 0 .4 0 .4 0 .4 0 .4 0 .4 0 .4 0 .4 0 .4 0 .4 0 .4 0 .4 0 .4 0 .4 0 .4 0 .4 0 .4 0 .4 0 .4 0 .4 0 .4 0 .4 0 .4 0 .4 0 .4 0 .4 0 .4 0 .4 0 .4 0 .4 0 .4 0 .4 0 .4 0 .4 0 .4 0 .4 0 .4 0 .4 0 .4 0 .4 0 .4 0 .4 0 .4 0 .4 0 .4 0 .4 0 .4 0 .4 0 .4 0 .4 0 .4 0 .4 0 .4 0 .4 0 .4 0 .4 0 .4 0 .4 0 .4 0 .4 0 .4 0 .4 0 .4 0 .4 0 .4 0 .4 0 .4 0 .4 0 .4 0 .4 0 .4 0 .4 0c30.9 0 56-25.1 56-56l0-56c0-79.5-64.5-144-144-144l-48 0 0-96 192 0c8.8 0 16-7.2 16-16s-7.2-16-16-16L160 0zM72 96c5 0 9.8 2.4 12.8 6.4l38.4 51.2c3 4 7.8 6.4 12.8 6.4l216 0 0 192-.1 0-.4 0-.4 0-.4 0-.4 0-.4 0-.4 0-.4 0-.4 0-.4 0-.4 0-.4 0-.4 0-.4 0-.4 0-.4 0-.4 0-.4 0-.4 0-.4 0-.4 0-.4 0-.4 0-.4 0-.4 0-.4 0-.4 0-.4 0-.4 0-.4 0-.4 0-.4 0-.4 0-.4 0-.4 0-.4 0-.4 0-.4 0-.4 0-.4 0-.4 0-.4 0-.4 0-.4 0-.4 0-.4 0-.4 0-.4 0-.4 0-.4 0-.4 0-.4 0-.4 0-.4 0-.4 0-.4 0-.4 0-.4 0-.4 0-.4 0-.4 0-.4 0-.4 0-.4 0-.4 0-.4 0-.4 0-.4 0-.4 0-.4 0-.4 0-.4 0-.5 0-.4 0-.4 0-.4 0-.4 0-.5 0-.5 0-.5 0-.5 0c-4.3 0-8.3-1.7-11.3-4.7l-90.4-90.4c-4.2-4.2-9.1-7.5-14.4-9.9L76.5 191.6c-4.4-2-7.7-5.8-9-10.5L44.8 96 72 96zM384.4 352l-.4 0 0-192 48 0c61.9 0 112 50.1 112 112l0 56c0 13.2-10.8 24-24 24l-.4 0-.4 0-.4 0-.4 0-.4 0-.4 0-.4 0-.4 0-.4 0-.4 0-.4 0-.4 0-.4 0-.4 0-.4 0-.4 0-.4 0-.4 0-.4 0-.4 0-.4 0-.4 0-.4 0-.4 0-.4 0-.4 0-.4 0-.4 0-.4 0-.4 0-.4 0-.4 0-.4 0-.4 0-.4 0-.4 0-.4 0-.4 0-.4 0-.4 0-.4 0-.4 0-.4 0-.4 0-.4 0-.4 0-.4 0-.4 0-.4 0-.4 0-.4 0-.4 0-.4 0-.4 0-.4 0-.4 0-.4 0-.4 0-.4 0-.4 0-.4 0-.4 0-.4 0-.4 0-.4 0-.4 0-.4 0-.4 0-.4 0-.4 0-.4 0-.4 0-.4 0-.4 0-.4 0-.4 0-.4 0-.4 0-.4 0-.4 0-.4 0-.4 0-.4 0-.4 0-.4 0-.4 0-.4 0-.4 0-.4 0-.4 0-.4 0-.4 0-.4 0-.4 0-.4 0-.4 0-.4 0-.4 0-.4 0-.4 0-.4 0-.4 0-.4 0-.4 0-.4 0-.4 0-.4 0-.4 0-.4 0-.4 0-.4 0-.4 0-.4 0-.4 0-.4 0-.4 0-.4 0-.4 0-.4 0-.4 0-.4 0-.4 0-.4 0-.4 0-.4 0-.4 0-.4 0-.4 0-.4 0-.4 0-.4 0-.4 0-.4 0-.4 0-.4 0-.4 0-.4 0-.4 0-.4 0-.4 0-.4 0-.4 0-.4 0-.4 0-.4 0-.4 0-.4 0-.4 0-.4 0-.4 0-.4 0-.4 0-.4 0-.4 0-.4 0-.4 0-.4 0-.4 0-.4 0-.4 0-.4 0-.4 0-.4 0-.4 0-.4 0-.4 0-.4 0-.4 0-.4 0-.4 0-.4 0-.4 0-.4 0-.4 0-.4 0-.4 0-.4 0-.4 0-.4 0-.4 0-.4 0-.4 0-.4 0-.4 0-.4 0-.4 0-.4 0-.4 0-.4 0-.4 0-.4 0-.4 0-.4 0-.4 0-.4 0-.4 0-.4 0-.4 0-.4 0-.4 0-.4 0-.4 0-.4 0-.4 0-.4 0-.4 0-.4 0-.4 0-.4 0-.4 0-.4 0-.4 0-.4 0-.4 0-.4 0-.4 0-.4 0-.4 0-.4 0-.4 0-.4 0-.4 0-.4 0-.4 0-.4 0-.4 0-.4 0-.4 0-.4 0-.4 0-.4 0-.4 0-.4 0-.4 0-.4 0-.4 0-.4 0-.4 0-.4 0-.4 0-.4 0-.4 0-.4 0-.4 0-.4 0-.4 0-.4 0-.4 0-.4 0-.4 0-.4 0-.4 0-.4 0-.4 0-.4 0-.4 0-.4 0-.4 0-.4 0-.4 0-.4 0-.4 0-.4 0-.4 0-.4 0-.4 0-.4 0-.4 0-.4 0-.4 0-.4 0-.4 0-.4 0-.4 0-.4 0-.4 0-.4 0-.4 0-.4 0-.4 0-.4 0-.4 0-.4 0-.4 0-.4 0-.4 0-.4 0-.4 0-.4 0-.4 0-.4 0-.4 0-.4 0-.4 0-.4 0-.4 0-.4 0-.4 0-.4 0-.4 0-.4 0-.4 0-.4 0-.4 0-.4 0-.4 0-.4 0-.4 0-.4 0-.4 0-.4 0-.4 0-.4 0-.4 0-.4 0-.4 0-.4 0-.4 0-.4 0-.4 0-.4 0-.4 0-.4 0-.4 0-.4 0-.4 0-.4 0-.4 0-.4 0-.4 0-.4 0-.4 0-.4 0-.4 0-.4 0-.4 0-.4 0-.4 0-.4 0-.4 0-.4 0-.4 0-.4 0-.4 0-.4 0-.4 0-.4 0-.4 0-.4 0-.4 0-.4 0zM635.3 475.3c6.2-6.2 6.2-16.4 0-22.6s-16.4-6.2-22.6 0l-8.6 8.6c-12 12-28.3 18.7-45.3 18.7L240 480c-8.8 0-16 7.2-16 16s7.2 16 16 16l318.9 0c25.5 0 49.9-10.1 67.9-28.1l8.6-8.6z"/></svg>