<svg xmlns="http://www.w3.org/2000/svg" viewBox="0 0 640 512"><!--! Font Awesome Pro 6.6.0 by @fontawesome - https://fontawesome.com License - https://fontawesome.com/license (Commercial License) Copyright 2024 Fonticons, Inc. --><path d="M277.4 4c6-5.3 15.1-5.3 21.2 0L512.5 192.8c-5.4-.5-10.9-.8-16.5-.8c-10.2 0-20.2 .9-29.9 2.5L288 37.3 96 206.7 96 432c0 26.5 21.5 48 48 48l64 0 0-160c0-17.7 14.3-32 32-32l96 0c1 0 2.1 .1 3.1 .1c-5.1 10.1-9.3 20.7-12.5 31.9L240 320l0 160 16 0 80 0 24.2 0c10 12.1 21.7 22.9 34.6 32L144 512c-44.2 0-80-35.8-80-80l0-197L26.6 268C20 273.8 9.8 273.2 4 266.6S-1.2 249.8 5.4 244L277.4 4zM608 368a112 112 0 1 0 -224 0 112 112 0 1 0 224 0zm-256 0a144 144 0 1 1 288 0 144 144 0 1 1 -288 0zm144 32a24 24 0 1 1 0 48 24 24 0 1 1 0-48zm0-112c8.8 0 16 7.2 16 16l0 64c0 8.8-7.2 16-16 16s-16-7.2-16-16l0-64c0-8.8 7.2-16 16-16z"/></svg>