<svg xmlns="http://www.w3.org/2000/svg" viewBox="0 0 576 512"><!--! Font Awesome Pro 6.6.0 by @fontawesome - https://fontawesome.com License - https://fontawesome.com/license (Commercial License) Copyright 2024 Fonticons, Inc. --><path d="M277.4 4c6-5.3 15.1-5.3 21.2 0L384 79.4 384 56c0-13.3 10.7-24 24-24l80 0c13.3 0 24 10.7 24 24l0 136.3L570.6 244c6.6 5.8 7.3 16 1.4 22.6s-16 7.3-22.6 1.4L512 235l0 197c0 44.2-35.8 80-80 80l-288 0c-44.2 0-80-35.8-80-80l0-197L26.6 268C20 273.8 9.8 273.2 4 266.6S-1.2 249.8 5.4 244L277.4 4zM480 164.1L480 64l-64 0 0 43.6 64 56.5zM96 206.7L96 432c0 26.5 21.5 48 48 48l288 0c26.5 0 48-21.5 48-48l0-225.3L288 37.3 96 206.7zM237.3 256c-16.2 0-29.3 13.1-29.3 29.3c0 7.8 3.1 15.2 8.6 20.7L288 377.4l71.4-71.4c5.5-5.5 8.6-12.9 8.6-20.7c0-16.2-13.1-29.3-29.3-29.3c-7.8 0-15.2 3.1-20.7 8.6l-18.7 18.7c-6.2 6.2-16.4 6.2-22.6 0l-18.7-18.7c-5.5-5.5-12.9-8.6-20.7-8.6zM176 285.3c0-33.8 27.4-61.3 61.3-61.3c16.2 0 31.8 6.5 43.3 17.9l7.4 7.4 7.4-7.4c11.5-11.5 27.1-17.9 43.3-17.9c33.8 0 61.3 27.4 61.3 61.3c0 16.2-6.5 31.8-17.9 43.3l-82.7 82.7c-6.2 6.2-16.4 6.2-22.6 0l-82.7-82.7c-11.5-11.5-17.9-27.1-17.9-43.3z"/></svg>