<svg xmlns="http://www.w3.org/2000/svg" viewBox="0 0 640 512"><!--! Font Awesome Pro 6.6.0 by @fontawesome - https://fontawesome.com License - https://fontawesome.com/license (Commercial License) Copyright 2024 Fonticons, Inc. --><path d="M127 1c-4.9-.7-9.9-1-15-1C50.1 0 0 50.1 0 112s50.1 112 112 112c30.6 0 58.4-12.3 78.6-32.2c.7-.6 1.3-1.3 1.9-2c2.9-3 5.7-6.2 8.2-9.5c2.3-3 4.5-6.2 6.5-9.5c3.9-6.2-3.2-13.3-10.4-12c-2.4 .4-4.9 .8-7.5 .9c-1.8 .1-3.6 .2-5.4 .2c-2.2 0-4.3-.1-6.5-.3c-.4 0-.8-.1-1.2-.1C140.2 155.8 112 125.2 112 88c0-20.8 8.8-39.5 22.9-52.7c.3-.3 .6-.5 .9-.8c2.9-2.7 6.1-5.1 9.4-7.2c2.1-1.4 4.3-2.6 6.6-3.7c6.6-3.3 8-13.2 1.1-15.9c-3.6-1.4-7.2-2.6-10.9-3.6c-4-1.1-8.1-2-12.3-2.7c-.9-.1-1.8-.3-2.7-.4zM80 88c0 43.9 27.1 81.4 65.5 96.7C135.3 189.4 124 192 112 192c-44.2 0-80-35.8-80-80c0-38.4 27.1-70.5 63.3-78.2C85.6 49.5 80 68.1 80 88zM410.4 99.9c-6-5.1-14.8-5.1-20.8 0l-224 192c-6.7 5.8-7.5 15.9-1.7 22.6s15.9 7.5 22.6 1.7L224 283.9 224 448c0 35.3 28.7 64 64 64l224 0c35.3 0 64-28.7 64-64l0-164.1 37.6 32.2c6.7 5.7 16.8 5 22.6-1.7s5-16.8-1.7-22.6l-224-192zM544 256.5L544 448c0 17.7-14.3 32-32 32l-224 0c-17.7 0-32-14.3-32-32l0-191.5L400 133.1 544 256.5zM336 304l0 64c0 17.7 14.3 32 32 32l64 0c17.7 0 32-14.3 32-32l0-64c0-17.7-14.3-32-32-32l-64 0c-17.7 0-32 14.3-32 32zm96 0l0 64-64 0 0-64 64 0zM256 0c-8.8 0-16 7.2-16 16l0 32-32 0c-8.8 0-16 7.2-16 16s7.2 16 16 16l32 0 0 32c0 8.8 7.2 16 16 16s16-7.2 16-16l0-32 32 0c8.8 0 16-7.2 16-16s-7.2-16-16-16l-32 0 0-32c0-8.8-7.2-16-16-16zM96 320c-8.8 0-16 7.2-16 16l0 32-32 0c-8.8 0-16 7.2-16 16s7.2 16 16 16l32 0 0 32c0 8.8 7.2 16 16 16s16-7.2 16-16l0-32 32 0c8.8 0 16-7.2 16-16s-7.2-16-16-16l-32 0 0-32c0-8.8-7.2-16-16-16z"/></svg>