<svg xmlns="http://www.w3.org/2000/svg" viewBox="0 0 320 512"><!--! Font Awesome Pro 6.6.0 by @fontawesome - https://fontawesome.com License - https://fontawesome.com/license (Commercial License) Copyright 2024 Fonticons, Inc. --><path d="M48 16c0 8.8 7.2 16 16 16l192 0c8.8 0 16-7.2 16-16s-7.2-16-16-16L64 0C55.2 0 48 7.2 48 16zM256 96c17.7 0 32 14.3 32 32l0 320c0 17.7-14.3 32-32 32L64 480c-17.7 0-32-14.3-32-32l0-320c0-17.7 14.3-32 32-32l192 0zM64 64C28.7 64 0 92.7 0 128L0 448c0 35.3 28.7 64 64 64l192 0c35.3 0 64-28.7 64-64l0-320c0-35.3-28.7-64-64-64L64 64zm80 384c0 8.8 7.2 16 16 16s16-7.2 16-16l0-16 8 0c44.2 0 80-35.8 80-80c0-8.8-7.2-16-16-16l-24 0c-26.2 0-49.4 12.6-64 32c-14.6-19.4-37.8-32-64-32l-24 0c-8.8 0-16 7.2-16 16c0 44.2 35.8 80 80 80l8 0 0 16zm34.7-48c6.6-18.6 24.4-32 45.3-32l5.3 0c-6.6 18.6-24.4 32-45.3 32l-5.3 0zM96 368c20.9 0 38.7 13.4 45.3 32l-5.3 0c-20.9 0-38.7-13.4-45.3-32l5.3 0zm82.7-176c6.6-18.6 24.4-32 45.3-32l5.3 0c-6.6 18.6-24.4 32-45.3 32l-5.3 0zM264 144c0-8.8-7.2-16-16-16l-24 0c-26.2 0-49.4 12.6-64 32c-14.6-19.4-37.8-32-64-32l-24 0c-8.8 0-16 7.2-16 16c0 44.2 35.8 80 80 80l24 0 24 0c44.2 0 80-35.8 80-80zM96 160c20.9 0 38.7 13.4 45.3 32l-5.3 0c-20.9 0-38.7-13.4-45.3-32l5.3 0zm82.7 136c6.6-18.6 24.4-32 45.3-32l5.3 0c-6.6 18.6-24.4 32-45.3 32l-5.3 0zM264 248c0-8.8-7.2-16-16-16l-24 0c-26.2 0-49.4 12.6-64 32c-14.6-19.4-37.8-32-64-32l-24 0c-8.8 0-16 7.2-16 16c0 44.2 35.8 80 80 80l24 0 24 0c44.2 0 80-35.8 80-80zM96 264c20.9 0 38.7 13.4 45.3 32l-5.3 0c-20.9 0-38.7-13.4-45.3-32l5.3 0z"/></svg>