<svg xmlns="http://www.w3.org/2000/svg" viewBox="0 0 640 512"><!--! Font Awesome Pro 6.6.0 by @fontawesome - https://fontawesome.com License - https://fontawesome.com/license (Commercial License) Copyright 2024 Fonticons, Inc. --><path d="M128 64l0-32 64 0 0 32-64 0zM96 64L80 64c-8.8 0-16 7.2-16 16s7.2 16 16 16l16 0 32 0 64 0 32 0 16 0c8.8 0 16-7.2 16-16s-7.2-16-16-16l-16 0 0-40c0-13.3-10.7-24-24-24L120 0C106.7 0 96 10.7 96 24l0 40zm32 96l128 0c53 0 96 43 96 96l0 8s0 0 0 0l0 9.7 0 22.3 0 80 0 20.2 0 11.8s0 0 0 0l0 40c0 17.7-14.3 32-32 32L64 480c-17.7 0-32-14.3-32-32l0-192c0-53 43-96 96-96zm0-32C57.3 128 0 185.3 0 256L0 448c0 35.3 28.7 64 64 64l256 0c35.3 0 64-28.7 64-64l0-192c0-70.7-57.3-128-128-128l-128 0zm128 80c-26.5 0-48 21.5-48 48l0 96c0 26.5 21.5 48 48 48s48-21.5 48-48l0-96c0-26.5-21.5-48-48-48zm-16 48c0-8.8 7.2-16 16-16s16 7.2 16 16l0 96c0 8.8-7.2 16-16 16s-16-7.2-16-16l0-96zM404 494.6c13.2 10.9 30.1 17.4 48.4 17.4L564 512c42 0 76-34 76-76c0-19.5-7.4-37.3-19.5-50.8C632.6 372.3 640 355 640 336c0-18.8-7.2-35.9-19-48.8c11.8-13.2 19-30.6 19-49.7c0-28.9-16.7-55.2-42.9-67.5l-4.7-2.2c-11-5.1-23-7.8-35.1-7.8l-88.5 0c-13.5 0-26.9 3-39.1 8.7l-9.6 4.5c-7.4 3.5-14.1 8.1-19.8 13.7c5.7 11.8 9.9 24.4 12.6 37.7c3.7-9.7 11.1-17.8 20.8-22.3l9.6-4.5c8-3.7 16.7-5.7 25.5-5.7l88.5 0c7.4 0 14.8 1.6 21.5 4.8l4.7 2.2c14.9 7 24.5 22 24.5 38.5c0 10.9-4.1 20.8-10.9 28.4c-11 12.3-10.9 30.9 .3 43.1C604 316.1 608 325.5 608 336c0 10.6-4.1 20.2-10.8 27.3c-11.4 12.1-11.6 30.9-.5 43.3c7 7.8 11.3 18.1 11.3 29.4c0 24.3-19.7 44-44 44l-111.6 0c-15.5 0-29.3-8-37.1-20.4c-1.5 12.5-5.5 24.3-11.3 34.9zM480 104c0-4.4 3.6-8 8-8l48 0c4.4 0 8 3.6 8 8l0 24 32 0 0-24c0-22.1-17.9-40-40-40l-48 0c-22.1 0-40 17.9-40 40l0 24 32 0 0-24z"/></svg>