<svg xmlns="http://www.w3.org/2000/svg" viewBox="0 0 640 512"><!--! Font Awesome Pro 6.6.0 by @fontawesome - https://fontawesome.com License - https://fontawesome.com/license (Commercial License) Copyright 2024 Fonticons, Inc. --><path d="M576 96c17.7 0 32 14.3 32 32l0 256c0 17.7-14.3 32-32 32l-352 0c-17.7 0-32-14.3-32-32l0-256c0-17.7 14.3-32 32-32l352 0zM224 64c-35.3 0-64 28.7-64 64l0 256c0 35.3 28.7 64 64 64l352 0c35.3 0 64-28.7 64-64l0-256c0-35.3-28.7-64-64-64L224 64zm8 88l0 16c0 8.8 7.2 16 16 16l16 0c8.8 0 16-7.2 16-16l0-16c0-8.8-7.2-16-16-16l-16 0c-8.8 0-16 7.2-16 16zm16 80c-8.8 0-16 7.2-16 16l0 16c0 8.8 7.2 16 16 16l16 0c8.8 0 16-7.2 16-16l0-16c0-8.8-7.2-16-16-16l-16 0zM232 344l0 16c0 8.8 7.2 16 16 16l16 0c8.8 0 16-7.2 16-16l0-16c0-8.8-7.2-16-16-16l-16 0c-8.8 0-16 7.2-16 16zM344 136c-8.8 0-16 7.2-16 16l0 16c0 8.8 7.2 16 16 16l16 0c8.8 0 16-7.2 16-16l0-16c0-8.8-7.2-16-16-16l-16 0zM328 248l0 16c0 8.8 7.2 16 16 16l16 0c8.8 0 16-7.2 16-16l0-16c0-8.8-7.2-16-16-16l-16 0c-8.8 0-16 7.2-16 16zM440 136c-8.8 0-16 7.2-16 16l0 16c0 8.8 7.2 16 16 16l16 0c8.8 0 16-7.2 16-16l0-16c0-8.8-7.2-16-16-16l-16 0zM424 248l0 16c0 8.8 7.2 16 16 16l16 0c8.8 0 16-7.2 16-16l0-16c0-8.8-7.2-16-16-16l-16 0c-8.8 0-16 7.2-16 16zM536 136c-8.8 0-16 7.2-16 16l0 16c0 8.8 7.2 16 16 16l16 0c8.8 0 16-7.2 16-16l0-16c0-8.8-7.2-16-16-16l-16 0zM520 248l0 16c0 8.8 7.2 16 16 16l16 0c8.8 0 16-7.2 16-16l0-16c0-8.8-7.2-16-16-16l-16 0c-8.8 0-16 7.2-16 16zm16 80c-8.8 0-16 7.2-16 16l0 16c0 8.8 7.2 16 16 16l16 0c8.8 0 16-7.2 16-16l0-16c0-8.8-7.2-16-16-16l-16 0zM320 352c0 8.8 7.2 16 16 16l128 0c8.8 0 16-7.2 16-16s-7.2-16-16-16l-128 0c-8.8 0-16 7.2-16 16zM107.3 187.3c6.2-6.2 6.2-16.4 0-22.6s-16.4-6.2-22.6 0l-80 80c-6.2 6.2-6.2 16.4 0 22.6l80 80c6.2 6.2 16.4 6.2 22.6 0s6.2-16.4 0-22.6L38.6 256l68.7-68.7z"/></svg>