<svg xmlns="http://www.w3.org/2000/svg" viewBox="0 0 512 512"><!--! Font Awesome Pro 6.6.0 by @fontawesome - https://fontawesome.com License - https://fontawesome.com/license (Commercial License) Copyright 2024 Fonticons, Inc. --><path d="M266.2 3.7c-5.9-4.9-14.6-4.9-20.5 0l-48 40c-5.9 4.9-7.5 13.2-3.8 19.9c0 0 0 0 0 0s0 0 0 0s0 0 0 0l.1 .1 .3 .6c.3 .5 .7 1.3 1.2 2.3c1 2 2.6 5 4.4 8.6c.5 .9 .9 1.9 1.4 2.9C167.1 97.4 144 134 144 176s23.1 78.6 57.3 97.8c-.5 1-1 2-1.4 2.9c-1.8 3.7-3.3 6.6-4.4 8.6c-.5 1-.9 1.8-1.2 2.3l-.3 .6-.1 .1s0 0 0 0s0 0 0 0s0 0 0 0c-3.6 6.7-2 15 3.8 19.9L240 343.5l0 19.1-34.6-23.8-41.1-28.2c-42.8-29.4-68.4-78-68.4-130c0-31.1 9.2-61.6 26.5-87.5l2.8-4.2c4-6 3.5-14-1.3-19.5s-12.7-7-19.2-3.7L112 80c-7.2-14.3-7.2-14.3-7.2-14.3s0 0 0 0s0 0 0 0l-.1 0-.3 .2-1 .5c-.8 .4-2 1.1-3.5 1.9C97 70 93 72.5 88.1 75.7c-9.7 6.4-22.5 16.1-35.4 29C26.9 130.4 0 170.3 0 224c0 53.1 26.4 100.5 51.2 133.6c12.6 16.7 25.1 30.3 34.5 39.7c4.7 4.7 8.7 8.4 11.5 10.9c1.4 1.3 2.5 2.2 3.3 2.9l.9 .8 .3 .2 .1 .1c0 0 0 0 0 0s0 0 0 0L112 400l-10.2 12.3c5.1 4.3 12.4 4.9 18.2 1.6l75.6-43 32.7 22.5-45.8 31.5c-2.1-.6-4.2-.9-6.5-.9c-13.3 0-24 10.7-24 24s10.7 24 24 24c11.9 0 21.8-8.7 23.7-20.1L240 424.1l0 28.1c-9.6 5.5-16 15.9-16 27.7c0 17.7 14.3 32 32 32s32-14.3 32-32c0-11.8-6.4-22.2-16-27.7l0-28.9L312.2 451c1.5 11.8 11.6 21 23.8 21c13.3 0 24-10.7 24-24s-10.7-24-24-24c-2 0-3.9 .2-5.7 .7l-45.5-31.3 32.7-22.5 75.6 43c5.8 3.3 13 2.7 18.2-1.6L401.1 400c10.2 12.3 10.2 12.3 10.2 12.3s0 0 0 0s0 0 0 0l.1-.1 .3-.2 .9-.8c.8-.7 1.9-1.7 3.3-2.9c2.8-2.5 6.7-6.2 11.5-10.9c9.4-9.4 21.9-23 34.5-39.7c24.8-33.1 51.2-80.5 51.2-133.6c0-53.7-26.9-93.6-52.7-119.3c-12.9-12.9-25.8-22.6-35.4-29c-4.8-3.2-8.9-5.7-11.8-7.3c-1.5-.8-2.6-1.5-3.5-1.9l-1-.5-.3-.2-.1 0c0 0 0 0 0 0s0 0 0 0L401.1 80l7.2-14.3c-6.5-3.2-14.3-1.7-19.2 3.7s-5.3 13.4-1.3 19.5l2.8 4.2c17.3 25.9 26.5 56.4 26.5 87.5c0 51.9-25.6 100.6-68.4 130l-41.1 28.2L272 363.3l0-19.8 42.2-35.2c5.9-4.9 7.5-13.2 3.8-19.9c0 0 0 0 0 0s0 0 0 0l-.1-.1-.3-.6c-.3-.5-.7-1.3-1.2-2.3c-1-2-2.6-5-4.4-8.6c-.5-.9-.9-1.9-1.4-2.9C344.9 254.6 368 218 368 176s-23.1-78.6-57.3-97.8c.5-1 1-2 1.4-2.9c1.8-3.7 3.3-6.6 4.4-8.6c.5-1 .9-1.8 1.2-2.3l.3-.6 .1-.1s0 0 0 0s0 0 0 0s0 0 0 0s0 0 0 0c3.6-6.7 2-15-3.8-19.9l-48-40zm31.3 103.9c23 14 38.4 39.4 38.4 68.4s-15.4 54.3-38.4 68.4C288.1 221 280 195 280 176s8.1-45 17.6-68.4zM214.4 244.4c-23-14-38.4-39.4-38.4-68.4s15.4-54.3 38.4-68.4C223.9 131 232 157 232 176s-8.1 45-17.6 68.4zM228.6 61.2l-.5-1.1L256 36.8l27.9 23.3-.5 1.1c-3.9 7.8-9 18.8-14.2 31.3c-4.6 11-9.3 23.7-13.2 36.8c-3.9-13.1-8.7-25.8-13.2-36.8C237.6 80 232.5 69 228.6 61.2zm14.2 198.4c4.6-11 9.3-23.7 13.2-36.8c3.9 13.1 8.7 25.8 13.2 36.8c5.2 12.5 10.3 23.5 14.2 31.3l.5 1.1L256 315.2l-27.9-23.3 .5-1.1c3.9-7.8 9-18.8 14.2-31.3zM70.2 132.7c-4.1 15.6-6.2 31.7-6.2 47.9c0 62.5 30.8 121 82.2 156.4l20 13.8-52.1 29.7c-1.7-1.6-3.7-3.5-5.8-5.7c-8.6-8.6-20.1-21-31.5-36.3C53.6 307.5 32 266.9 32 224c0-39 17.9-69.4 38.2-91.3zM481.1 224c0 42.9-21.6 83.5-44.8 114.4c-11.4 15.3-22.9 27.7-31.5 36.3c-2.1 2.1-4.1 4-5.8 5.7l-52.1-29.7 20-13.8c51.5-35.4 82.2-93.9 82.2-156.4c0-16.3-2.1-32.4-6.2-47.9c20.2 21.9 38.2 52.3 38.2 91.3z"/></svg>