<svg xmlns="http://www.w3.org/2000/svg" viewBox="0 0 512 512"><!--! Font Awesome Pro 6.6.0 by @fontawesome - https://fontawesome.com License - https://fontawesome.com/license (Commercial License) Copyright 2024 Fonticons, Inc. --><path d="M272 32l0 32 64 0 0-32-64 0zm80 64l-80 0 0 32 192 0c8.8 0 16 7.2 16 16s-7.2 16-16 16L48 160c-8.8 0-16-7.2-16-16s7.2-16 16-16l192 0 0-32 0-32 0-40 0-8c0-8.8 7.2-16 16-16l8 0 8 0 80 0c8.8 0 16 7.2 16 16l0 64c0 8.8-7.2 16-16 16zM48 368c0-8.8 7.2-16 16-16l0-160 32 0 0 160 80 0 0-160 32 0 0 160 96 0 0-160 32 0 0 160 80 0 0-160 32 0 0 160c8.8 0 16 7.2 16 16s-7.2 16-16 16L64 384c-8.8 0-16-7.2-16-16zM24 432c0-8.8 7.2-16 16-16l432 0c8.8 0 16 7.2 16 16s-7.2 16-16 16L40 448c-8.8 0-16-7.2-16-16zM0 496c0-8.8 7.2-16 16-16l480 0c8.8 0 16 7.2 16 16s-7.2 16-16 16L16 512c-8.8 0-16-7.2-16-16z"/></svg>