<svg xmlns="http://www.w3.org/2000/svg" viewBox="0 0 640 512"><!--! Font Awesome Pro 6.6.0 by @fontawesome - https://fontawesome.com License - https://fontawesome.com/license (Commercial License) Copyright 2024 Fonticons, Inc. --><path d="M128 64l384 0c17.7 0 32 14.3 32 32l0 256 32 0 0-256c0-35.3-28.7-64-64-64L128 32C92.7 32 64 60.7 64 96l0 256 32 0L96 96c0-17.7 14.3-32 32-32zM33.9 416l572.3 0c-5.5 18.5-22.6 32-42.9 32L76.8 448c-20.3 0-37.4-13.5-42.9-32zM19.2 384C8.6 384 0 392.6 0 403.2C0 445.6 34.4 480 76.8 480l486.4 0c42.4 0 76.8-34.4 76.8-76.8c0-10.6-8.6-19.2-19.2-19.2L19.2 384zM200 128c-22.1 0-40 17.9-40 40l0 32c0 22.1 17.9 40 40 40l16 0c22.1 0 40-17.9 40-40l0-32c0-22.1-17.9-40-40-40l-16 0zm-8 40c0-4.4 3.6-8 8-8l16 0c4.4 0 8 3.6 8 8l0 32c0 4.4-3.6 8-8 8l-16 0c-4.4 0-8-3.6-8-8l0-32zm112-40c-8.8 0-16 7.2-16 16s7.2 16 16 16l0 64c0 8.8 7.2 16 16 16s16-7.2 16-16l0-80c0-8.8-7.2-16-16-16l-16 0zm80 40l0 32c0 22.1 17.9 40 40 40l16 0c22.1 0 40-17.9 40-40l0-32c0-22.1-17.9-40-40-40l-16 0c-22.1 0-40 17.9-40 40zm40-8l16 0c4.4 0 8 3.6 8 8l0 32c0 4.4-3.6 8-8 8l-16 0c-4.4 0-8-3.6-8-8l0-32c0-4.4 3.6-8 8-8zM192 272c-8.8 0-16 7.2-16 16s7.2 16 16 16l0 48 32 0 0-64c0-8.8-7.2-16-16-16l-16 0zm256 16c0-8.8-7.2-16-16-16l-16 0c-8.8 0-16 7.2-16 16s7.2 16 16 16l0 48 32 0 0-64zm-80 24c0-22.1-17.9-40-40-40l-16 0c-22.1 0-40 17.9-40 40l0 40 32 0 0-40c0-4.4 3.6-8 8-8l16 0c4.4 0 8 3.6 8 8l0 40 32 0 0-40z"/></svg>