<svg xmlns="http://www.w3.org/2000/svg" viewBox="0 0 640 512"><!--! Font Awesome Pro 6.6.0 by @fontawesome - https://fontawesome.com License - https://fontawesome.com/license (Commercial License) Copyright 2024 Fonticons, Inc. --><path d="M128 64l384 0c17.7 0 32 14.3 32 32l0 256 32 0 0-256c0-35.3-28.7-64-64-64L128 32C92.7 32 64 60.7 64 96l0 256 32 0L96 96c0-17.7 14.3-32 32-32zM33.9 416l572.3 0c-5.5 18.5-22.6 32-42.9 32L76.8 448c-20.3 0-37.4-13.5-42.9-32zM19.2 384C8.6 384 0 392.6 0 403.2C0 445.6 34.4 480 76.8 480l486.4 0c42.4 0 76.8-34.4 76.8-76.8c0-10.6-8.6-19.2-19.2-19.2L19.2 384zM283.3 171.3c6.2-6.2 6.2-16.4 0-22.6s-16.4-6.2-22.6 0l-64 64c-6.2 6.2-6.2 16.4 0 22.6l64 64c6.2 6.2 16.4 6.2 22.6 0s6.2-16.4 0-22.6L230.6 224l52.7-52.7zm96-22.6c-6.2-6.2-16.4-6.2-22.6 0s-6.2 16.4 0 22.6L409.4 224l-52.7 52.7c-6.2 6.2-6.2 16.4 0 22.6s16.4 6.2 22.6 0l64-64c6.2-6.2 6.2-16.4 0-22.6l-64-64z"/></svg>