<svg xmlns="http://www.w3.org/2000/svg" viewBox="0 0 384 512"><!--! Font Awesome Pro 6.6.0 by @fontawesome - https://fontawesome.com License - https://fontawesome.com/license (Commercial License) Copyright 2024 Fonticons, Inc. --><path d="M144 32c8.8 0 16 7.2 16 16l0 50.7c10.4-1.7 21.1-2.7 32-2.7s21.6 .9 32 2.7L224 48c0-8.8 7.2-16 16-16s16 7.2 16 16l0 58.9c62.8 22.2 110.7 76.2 124.2 142.7c1.8 8.7-3.8 17.1-12.5 18.9s-17.1-3.8-18.9-12.5c-10.5-51.6-45.7-94.1-92.8-114.7L256 272c0 8.8-7.2 16-16 16s-16-7.2-16-16l0-140.8c-10.3-2.1-21-3.2-32-3.2s-21.7 1.1-32 3.2L160 272c0 8.8-7.2 16-16 16s-16-7.2-16-16l0-130.7C71.5 166 32 222.4 32 288c0 88.4 71.6 160 160 160l176 0c8.8 0 16 7.2 16 16s-7.2 16-16 16l-176 0L16 480c-8.8 0-16-7.2-16-16s7.2-16 16-16l69.8 0C34.1 413.6 0 354.8 0 288c0-83.6 53.4-154.7 128-181.1L128 48c0-8.8 7.2-16 16-16z"/></svg>