<svg xmlns="http://www.w3.org/2000/svg" viewBox="0 0 576 512"><!--! Font Awesome Pro 6.6.0 by @fontawesome - https://fontawesome.com License - https://fontawesome.com/license (Commercial License) Copyright 2024 Fonticons, Inc. --><path d="M336 0c8.8 0 16 7.2 16 16l0 48 48 0c8.8 0 16 7.2 16 16s-7.2 16-16 16l-48 0 0 48c0 8.8-7.2 16-16 16s-16-7.2-16-16l0-48-48 0c-8.8 0-16-7.2-16-16s7.2-16 16-16l48 0 0-48c0-8.8 7.2-16 16-16zM0 176C0 85.4 112 10.8 256 1.1l0 32C129.7 42 32 102.6 32 176c0 47.1 40.2 88.9 102.4 115.2c0 0 0 0 0 0c5.5 2.3 11.2 4.5 17 6.6c0 0 0 0 0 0C190.9 311.9 237.8 320 288 320c141.4 0 256-64.5 256-144c0-45.5-37.5-86-96-112.4l0-33.9C525.2 61.2 576 115 576 176c0 97.2-128.9 176-288 176c-22.9 0-45.3-1.6-66.7-4.7c11.9 17.2 18.7 38 18.7 59.7c0 58-47 105-105 105l-87 0c-8.8 0-16-7.2-16-16s7.2-16 16-16l87 0c40.3 0 73-32.7 73-73c0-27.6-15.6-52.9-40.4-65.3l-34.9-17.4C52.9 293 0 238.3 0 176zM512 368l0 48 48 0c8.8 0 16 7.2 16 16s-7.2 16-16 16l-48 0 0 48c0 8.8-7.2 16-16 16s-16-7.2-16-16l0-48-48 0c-8.8 0-16-7.2-16-16s7.2-16 16-16l48 0 0-48c0-8.8 7.2-16 16-16s16 7.2 16 16z"/></svg>