<svg xmlns="http://www.w3.org/2000/svg" viewBox="0 0 576 512"><!--! Font Awesome Pro 6.6.0 by @fontawesome - https://fontawesome.com License - https://fontawesome.com/license (Commercial License) Copyright 2024 Fonticons, Inc. --><path d="M266.2 4.7C273 1.6 280.5 0 288 0s15 1.6 21.8 4.7l217.4 97.5c10.2 4.6 16.8 14.7 16.8 25.9s-6.6 21.3-16.8 25.9L309.8 251.3c-6.9 3.1-14.3 4.7-21.8 4.7s-15-1.6-21.8-4.7L48.8 153.9C38.6 149.3 32 139.2 32 128s6.6-21.3 16.8-25.9L266.2 4.7zM288 32c-3 0-6 .6-8.8 1.9L69.3 128l210 94.1c2.8 1.2 5.7 1.9 8.8 1.9s6-.6 8.8-1.9l210-94.1-210-94.1C294 32.6 291 32 288 32zM48.8 358.1l45.9-20.6 39.1 17.5L69.3 384l210 94.1c2.8 1.2 5.7 1.9 8.8 1.9s6-.6 8.8-1.9l210-94.1-64.5-28.9 39.1-17.5 45.9 20.6c10.2 4.6 16.8 14.7 16.8 25.9s-6.6 21.3-16.8 25.9L309.8 507.3c-6.9 3.1-14.3 4.7-21.8 4.7s-15-1.6-21.8-4.7L48.8 409.9C38.6 405.3 32 395.2 32 384s6.6-21.3 16.8-25.9zM94.7 209.5l39.1 17.5L69.3 256l210 94.1c2.8 1.2 5.7 1.9 8.8 1.9s6-.6 8.8-1.9l210-94.1-64.5-28.9 39.1-17.5 45.9 20.6c10.2 4.6 16.8 14.7 16.8 25.9s-6.6 21.3-16.8 25.9L309.8 379.3c-6.9 3.1-14.3 4.7-21.8 4.7s-15-1.6-21.8-4.7L48.8 281.9C38.6 277.3 32 267.2 32 256s6.6-21.3 16.8-25.9l45.9-20.6z"/></svg>