<svg xmlns="http://www.w3.org/2000/svg" viewBox="0 0 512 512"><!--! Font Awesome Pro 6.6.0 by @fontawesome - https://fontawesome.com License - https://fontawesome.com/license (Commercial License) Copyright 2024 Fonticons, Inc. --><path d="M336.9 7.4C334 2.9 329.1 .1 323.7 0s-10.4 2.4-13.5 6.8L248.6 94.5 248 60.6c-.1-4.9-2.4-9.5-6.3-12.4s-8.9-4-13.7-2.8L179.3 57.9 140.9 13.1c-2.9-3.4-7.1-5.4-11.5-5.6s-8.8 1.5-11.9 4.6L70.1 59 18 52.5c-5.3-.7-10.5 1.3-14 5.3S-.8 67.3 .5 72.4L42.9 234.8 5.7 266.2c-4.1 3.4-6.2 8.7-5.6 14s3.8 10 8.5 12.4L132 357.4 4.7 484.7c-6.2 6.2-6.2 16.4 0 22.6s16.4 6.2 22.6 0L154.6 380l64.7 123.4c2.5 4.7 7.1 7.9 12.4 8.5s10.5-1.5 14-5.6l31.4-37.2 162.4 42.4c5.1 1.3 10.6 0 14.6-3.5s6-8.7 5.3-14l-5.6-44.4c-.6-4.9 1.1-9.8 4.5-13.2l41.4-41.9c3.1-3.2 4.8-7.5 4.6-11.9s-2.2-8.6-5.6-11.5l-44.8-38.4L466.6 284c1.2-4.7 .2-9.8-2.8-13.7s-7.5-6.2-12.4-6.3l-33.9-.6 87.7-61.6c4.7-3.3 7.3-8.9 6.7-14.7s-4.2-10.7-9.5-13.1l-41.1-18.1c-7.6-3.3-11.3-11.9-8.7-19.7L481.2 51c1.9-5.6 .5-11.9-3.6-16.2s-10.3-6-16-4.3L379.9 53.9c-6.8 1.9-14.1-.8-17.9-6.8L336.9 7.4zM178.3 356.3L316.2 218.4c6.2-6.2 6.2-16.4 0-22.6s-16.4-6.2-22.6 0L155.7 333.7 44.5 275.3l19-16.1c9.4-8 13.4-20.6 10.3-32.5L37.4 87.2l36.4 4.6c4.9 .6 9.8-1.1 13.2-4.5L127.8 47l33.7 39.3c4 4.6 10.2 6.6 16.1 5.1l38.7-9.9 1.2 62.6c.1 6.9 4.7 13 11.3 15s13.8-.4 17.8-6.1l76-108.1L335 64.2c11.4 18 33.3 26.3 53.7 20.5l52.5-15-18.9 56.2c-7.9 23.5 3.4 49.2 26.1 59.2l15.2 6.7L359.1 265.4c-5.7 4-8.1 11.2-6.1 17.8s8.1 11.2 15 11.3l62.6 1.2-9.9 38.7c-1.5 5.9 .5 12.2 5.1 16.1L465 384.2l-29.3 29.6c-10.4 10.5-15.4 25.1-13.5 39.7l2.6 21L285.3 438.2c-11.9-3.1-24.6 .9-32.5 10.3l-16.1 19L178.3 356.3z"/></svg>