<svg xmlns="http://www.w3.org/2000/svg" viewBox="0 0 640 512"><!--! Font Awesome Pro 6.6.0 by @fontawesome - https://fontawesome.com License - https://fontawesome.com/license (Commercial License) Copyright 2024 Fonticons, Inc. --><path d="M0 80L0 432c0 8.8 7.2 16 16 16s16-7.2 16-16L32 80c0-8.8-7.2-16-16-16S0 71.2 0 80zM320 216l272 0c8.8 0 16 7.2 16 16l0 48c0 8.8-7.2 16-16 16l-272 0c-17.7 0-32 14.3-32 32l0 49.3c0 3.7-3 6.7-6.7 6.7c-1.9 0-3.7-.8-5-2.2L163.8 256 276.3 130.2c1.3-1.4 3.1-2.2 5-2.2c3.7 0 6.7 3 6.7 6.7l0 49.3c0 17.7 14.3 32 32 32zM128 256c0 5.2 1.9 10.1 5.3 14L252.5 403.1c7.3 8.2 17.8 12.9 28.8 12.9c21.4 0 38.7-17.3 38.7-38.7l0-17.3 0-32 32 0 240 0c26.5 0 48-21.5 48-48l0-48c0-26.5-21.5-48-48-48l-240 0-32 0 0-32 0-17.3c0-21.4-17.3-38.7-38.7-38.7c-11 0-21.5 4.7-28.8 12.9L133.3 242c-3.4 3.8-5.3 8.8-5.3 14z"/></svg>