<svg xmlns="http://www.w3.org/2000/svg" viewBox="0 0 576 512"><!--! Font Awesome Pro 6.6.0 by @fontawesome - https://fontawesome.com License - https://fontawesome.com/license (Commercial License) Copyright 2024 Fonticons, Inc. --><path d="M336 176c0 13.7-1.9 27-5.5 39.5c3.3 1 6.5 2.3 9.5 4l0-.9c0-17.8 10.2-35.6 28-43.3C367.6 78.4 289 0 192 0C94.8 0 16 78.8 16 176c0 37.3 11.6 71.9 31.4 100.3c5 7.2 10.2 14.3 15.4 21.4c0 0 0 0 0 0s0 0 0 0s0 0 0 0c12.3 16.8 24.6 33.7 34.5 51.8c5.9 10.8 9.6 22.5 11.8 34.5l32.4 0c-2.5-16.6-7.3-33.7-16.2-49.9c-10.9-20-25.3-39.7-38-57.1c0 0 0 0 0 0c-4.9-6.7-9.5-13-13.6-19C57.5 234.8 48 206.6 48 176C48 96.5 112.5 32 192 32s144 64.5 144 144zM258.5 443c-5.1-8.8-9.3-17.8-12.8-27l-123 0c-5.9 0-10.7 4.8-10.7 10.7l0 5.3c0 44.2 35.8 80 80 80c35.2 0 65.1-22.8 75.8-54.4c-3.3-4.7-6.4-9.5-9.4-14.6zM192 96c8.8 0 16-7.2 16-16s-7.2-16-16-16C130.1 64 80 114.1 80 176c0 8.8 7.2 16 16 16s16-7.2 16-16c0-44.2 35.8-80 80-80zM146.7 448l90.5 0c-6.6 18.6-24.4 32-45.3 32s-38.7-13.4-45.3-32zM399.3 239.8l33.7 0c3 16.6 13.9 29.5 26.5 36.7c12.9 7.4 30 9.9 45.9 3.6l17.2 30.5c-12.8 11.4-18.5 27.7-18.5 42.4s5.7 31 18.5 42.4L505.3 426c-15.9-6.3-32.9-3.7-45.9 3.6c-12.6 7.2-23.5 20.2-26.5 36.7l-33.7 0c-3.1-16.6-14-29.5-26.6-36.7c-13-7.4-30-9.9-46-3.7l-17.2-30.5c12.8-11.4 18.5-27.7 18.5-42.4s-5.7-31-18.5-42.4l17.2-30.5c15.9 6.3 33 3.7 46-3.7c12.6-7.2 23.6-20.1 26.6-36.7zm43.5-32l-53.4 0c-11.7 0-21.3 9.5-21.3 21.3l0 1.4c0 7.6-4.6 14.4-11.3 18.2c-6.6 3.7-14.7 4.2-21.2 .3l-1.6-1c-10.7-6.3-24.4-2.6-30.5 8.2L277 303.1c-5.7 10.2-2.3 23.1 7.8 29c7.3 4.3 11.2 12.6 11.2 21s-3.9 16.7-11.2 21c-10 5.9-13.5 18.8-7.8 29L303.5 450c6.1 10.8 19.9 14.5 30.5 8.2l1.6-1c6.5-3.9 14.6-3.4 21.2 .3c6.6 3.8 11.3 10.6 11.3 18.2l0 1.4c0 11.7 9.5 21.3 21.3 21.3l53.4 0c11.8 0 21.4-9.6 21.4-21.4l0-1.6c0-7.5 4.6-14.2 11.1-18c6.5-3.7 14.5-4.2 21-.3l1.8 1c10.7 6.3 24.4 2.6 30.5-8.2L555 403.1c5.7-10.2 2.3-23-7.8-29c-7.3-4.3-11.2-12.6-11.2-21s3.9-16.7 11.2-21c10-5.9 13.5-18.8 7.8-29l-26.4-46.9c-6.1-10.8-19.9-14.5-30.5-8.2l-1.8 1c-6.5 3.8-14.5 3.4-21-.3c-6.5-3.7-11.1-10.4-11.1-18l0-1.6c0-11.8-9.6-21.4-21.4-21.4zM416.1 409.1a56 56 0 1 0 0-112 56 56 0 1 0 0 112zm-24-56a24 24 0 1 1 48.1 0 24 24 0 1 1 -48.1 0z"/></svg>