<svg xmlns="http://www.w3.org/2000/svg" viewBox="0 0 640 512"><!--! Font Awesome Pro 6.6.0 by @fontawesome - https://fontawesome.com License - https://fontawesome.com/license (Commercial License) Copyright 2024 Fonticons, Inc. --><path d="M23.2 1.7l64 32c7.9 4 11.1 13.6 7.2 21.5s-13.6 11.1-21.5 7.2l-64-32C.9 26.4-2.3 16.7 1.7 8.8S15.3-2.3 23.2 1.7zm608 28.6l-64 32c-7.9 4-17.5 .7-21.5-7.2s-.7-17.5 7.2-21.5l64-32c7.9-4 17.5-.7 21.5 7.2s.7 17.5-7.2 21.5zM16 160l64 0c8.8 0 16 7.2 16 16s-7.2 16-16 16l-64 0c-8.8 0-16-7.2-16-16s7.2-16 16-16zm544 0l64 0c8.8 0 16 7.2 16 16s-7.2 16-16 16l-64 0c-8.8 0-16-7.2-16-16s7.2-16 16-16zM87.2 318.3l-64 32c-7.9 4-17.5 .7-21.5-7.2s-.7-17.5 7.2-21.5l64-32c7.9-4 17.5-.7 21.5 7.2s.7 17.5-7.2 21.5zm480-28.6l64 32c7.9 4 11.1 13.6 7.2 21.5s-13.6 11.1-21.5 7.2l-64-32c-7.9-4-11.1-13.6-7.2-21.5s13.6-11.1 21.5-7.2zM267.9 4.5C302.5-4.1 336 22 336 57.7c0 3.4-.3 6.8-.9 10l76.8-19.2C446.5 39.9 480 66 480 101.7c0 15.6-6.6 29.9-17.3 40c10.6 9.9 17.3 24 17.3 40c0 15.6-6.6 29.9-17.3 40c10.6 9.9 17.3 24 17.3 40c0 25.1-17.1 47.1-41.5 53.2L368 332.5l0 19.5 16 0c17.7 0 32 14.3 32 32l0 64c0 17.7-14.3 32-32 32l-48 0 0 16c0 8.8-7.2 16-16 16s-16-7.2-16-16l0-16-48 0c-17.7 0-32-14.3-32-32l0-64c0-17.7 14.3-32 32-32l16 0 0-34.5 32-8 0 42.5 32 0 0-32c0-7.3 5-13.7 12.1-15.5l82.6-20.7c10.2-2.5 17.3-11.7 17.3-22.1c0-14.8-13.9-25.7-28.3-22.1l-63.8 15.9-64 16-.1 0-63.7 15.9C193.5 296.1 160 270 160 234.3c0-15.6 6.6-29.9 17.3-40c-10.6-9.9-17.3-24-17.3-40c0-15.6 6.6-29.9 17.3-40c-10.6-9.9-17.3-24-17.3-40c0-25.1 17.1-47.1 41.5-53.2L267.9 4.5zm84 379.5L256 384l0 64 128 0 0-64-31.9 0-.1 0-.1 0zM284.1 240.5l146.6-36.7c10.2-2.5 17.3-11.7 17.3-22.1c0-14.8-13.8-25.6-28.2-22.2L228.1 207.5l-.2 .1-18.6 4.6c-10.2 2.5-17.3 11.7-17.3 22.1c0 14.8 13.9 25.7 28.3 22.1l63.8-15.9zm10.4-129.6l-66.4 16.6c0 0 0 0-.1 0l-18.8 4.7c-10.2 2.5-17.3 11.7-17.3 22.1c0 14.8 13.8 25.6 28.2 22.2l191.7-47.9 .2-.1 18.6-4.6c10.2-2.5 17.3-11.7 17.3-22.1c0-14.8-13.9-25.7-28.3-22.1L294.6 110.9c0 0 0 0-.1 0zM304 57.7c0-14.8-13.9-25.7-28.3-22.1L209.3 52.2C199.1 54.7 192 63.8 192 74.3c0 14.8 13.9 25.7 28.3 22.1c0 0 0 0 0 0l66.4-16.6c0 0 0 0 0 0C296.9 77.3 304 68.2 304 57.7z"/></svg>