<svg xmlns="http://www.w3.org/2000/svg" viewBox="0 0 640 512"><!--! Font Awesome Pro 6.6.0 by @fontawesome - https://fontawesome.com License - https://fontawesome.com/license (Commercial License) Copyright 2024 Fonticons, Inc. --><path d="M591.5 256c50-50 50-131 0-181s-131-50-181 0L387.9 97.6c-6.2 6.2-6.2 16.4 0 22.6s16.4 6.2 22.6 0l22.6-22.6c37.5-37.5 98.3-37.5 135.8 0s37.5 98.3 0 135.8L444.3 357.9c-37.4 37.4-98.1 37.4-135.6 0c-35.6-35.6-37.6-92.6-4.7-130.6l5.3-6.1c5.8-6.7 5.1-16.8-1.6-22.6s-16.8-5.1-22.6 1.6l-5.3 6.1c-43.9 50.7-41.2 126.7 6.2 174.1c49.9 49.9 130.9 49.9 180.8 0L591.5 256zM48.5 256c-50 50-50 131 0 181s131 50 181 0l22.6-22.6c6.2-6.2 6.2-16.4 0-22.6s-16.4-6.2-22.6 0l-22.6 22.6c-37.5 37.5-98.3 37.5-135.8 0s-37.5-98.3 0-135.8L195.7 154.1c37.4-37.4 98.1-37.4 135.6 0c35.6 35.6 37.6 92.6 4.7 130.6l-5.3 6.1c-5.8 6.7-5.1 16.8 1.6 22.6s16.8 5.1 22.6-1.6l5.3-6.1c43.9-50.7 41.2-126.7-6.2-174.1C303.9 81.5 223 81.5 173 131.4L48.5 256z"/></svg>