<svg xmlns="http://www.w3.org/2000/svg" viewBox="0 0 384 512"><!--! Font Awesome Pro 6.6.0 by @fontawesome - https://fontawesome.com License - https://fontawesome.com/license (Commercial License) Copyright 2024 Fonticons, Inc. --><path d="M192 32c-8.8 0-16 7.2-16 16l0 48.7C77.4 104.8 0 187.3 0 288L0 464c0 8.8 7.2 16 16 16s16-7.2 16-16l0-176c0-83 63.1-151.2 144-159.2L176 464c0 8.8 7.2 16 16 16s16-7.2 16-16l0-335.2c80.9 8 144 76.2 144 159.2l0 176c0 8.8 7.2 16 16 16s16-7.2 16-16l0-176c0-100.7-77.4-183.2-176-191.3L208 48c0-8.8-7.2-16-16-16z"/></svg>