<svg xmlns="http://www.w3.org/2000/svg" viewBox="0 0 576 512"><!--! Font Awesome Pro 6.6.0 by @fontawesome - https://fontawesome.com License - https://fontawesome.com/license (Commercial License) Copyright 2024 Fonticons, Inc. --><path d="M560 32c8.8 0 16 7.2 16 16l0 112-32 0 0-112c0-8.8 7.2-16 16-16zM448 480c53 0 96-43 96-96l0-192 32 0 0 192c0 70.7-57.3 128-128 128s-128-57.3-128-128l0-16c0-8.8 7.2-16 16-16s16 7.2 16 16l0 16c0 53 43 96 96 96zM64 96c-17.7 0-32 14.3-32 32l0 96c0 17.7 14.3 32 32 32l79.7 0c14.3 0 26.8-9.5 30.8-23.2l3.4-11.7c13.3-46.4 79-46.4 92.3 0l3.4 11.7c3.9 13.7 16.5 23.2 30.8 23.2l79.7 0c17.7 0 32-14.3 32-32l0-96c0-17.7-14.3-32-32-32L64 96zM0 128C0 92.7 28.7 64 64 64l320 0c35.3 0 64 28.7 64 64l0 96c0 35.3-28.7 64-64 64l-79.7 0c-28.6 0-53.7-18.9-61.5-46.4l-3.4-11.7c-4.4-15.5-26.3-15.5-30.8 0l-3.4 11.7c-7.9 27.5-33 46.4-61.5 46.4L64 288c-35.3 0-64-28.7-64-64l0-96z"/></svg>