<svg xmlns="http://www.w3.org/2000/svg" viewBox="0 0 640 512"><!--! Font Awesome Pro 6.6.0 by @fontawesome - https://fontawesome.com License - https://fontawesome.com/license (Commercial License) Copyright 2024 Fonticons, Inc. --><path d="M371.6 28c1.7 1.2 3.2 2.5 4.5 4c-23 .4-42.7 2.7-59.5 6.3c-26.4-6.7-68.1-10.5-131.4-.1C76.9 56.1 41.9 92.8 32.6 105.7l0 .1c-.1 .8-.2 2.4 .3 5L60.8 274.5c5.4 31.5 19.5 58.8 41.8 76.9c20.8 16.8 46.9 35.3 74 48.2c16.9 8.1 32.9 13.4 47.4 15.5c6.8 10.4 14.5 21.4 23 32.5c-58 4.9-123.3-37.8-165-71.7c-29.7-24-46.8-59-53.2-96.2L.8 116.1c-1.7-9.8-1-19.9 4.7-28C20.5 67 63.6 25.9 179.8 6.9S350.5 12.8 371.6 28zM159 286.9c9.4-7.6 22-15.8 37.8-21.8l-1.7 10.2c-1.5 9-2.5 18.2-2.9 27.5c-4.7 2.8-8.9 5.8-12.4 8.7c-5.7 4.7-11.3 9.9-15.7 15.9c-5 7.2-15.1 9.1-22.5 4.2c-7.4-4.9-9.4-14.8-4.4-22.1c5.9-8.6 13.8-16 21.8-22.6zm-3.9-122.6c3.1-8.2 12.5-12.4 20.9-9.3s12.7 12.3 9.5 20.5c-5.9 15.4-19.8 27.5-37.6 30.4s-35-4-45.7-16.7c-5.7-6.8-4.7-16.8 2.2-22.4s17.2-4.6 22.9 2.1c7.8 9.3 23.5 6.7 27.8-4.6zm230 346.3c-60-9.8-110.5-74.6-140.1-122c-20.1-32.2-24.7-70.7-18.3-107.9L254.6 117c1.7-9.8 5.6-19.1 13.8-24.9C289.5 76.8 344 51.8 460.2 70.9S619.5 131 634.5 152.1c5.8 8.1 6.4 18.2 4.7 28L611.3 343.8c-6.4 37.2-23.5 72.2-53.2 96.2c-43.7 35.4-113.1 80.5-173 70.7zm-58.5-69.5c21.7 21.3 43.5 34.7 63.8 38s45.4-2.4 73-15.6c27.1-13 53.2-31.4 74-48.2c22.3-18.1 36.4-45.4 41.8-76.9l27.9-163.7c.4-2.5 .4-4.2 .3-5l0-.1c-9.4-12.9-44.3-49.7-152.6-67.5s-153.6 5.9-166.7 15.1l0 .1c-.4 .7-1 2.2-1.4 4.8L258.7 285.9c-5.4 31.5-1.1 61.9 14 86.1c14.1 22.6 32.6 48.3 53.9 69.2zm24.7-202.5c-5.7 6.8-16 7.7-22.9 2.1s-7.9-15.6-2.2-22.4c10.7-12.7 27.8-19.6 45.7-16.7s31.7 15 37.6 30.4c3.1 8.2-1.1 17.4-9.5 20.5s-17.8-1.1-20.9-9.3c-2-5.2-6.6-9.2-12.5-10.1s-11.6 1.3-15.2 5.6zm147.8 85.7l.6-.2c3.1-1 6.1-2 9.1-3.1c3.7-1.4 7.3-2.9 10.9-4.5c6.2-2.8 13.5 1.6 12.4 8.3c-.7 4.2-1.7 8.3-2.8 12.3c-1 3.5-2.2 7-3.6 10.4l-.3 .7-.4 .9c-19.7 47-70.6 76.1-123.9 67.4s-91.7-52.5-94.8-103.3c0-.5-.1-1.1-.1-1.6c-.2-3.6-.1-7.3 .1-11c.2-4.1 .7-8.3 1.4-12.5c1.1-6.6 9.5-8.5 14.5-3.9c2.8 2.6 5.8 5.2 8.8 7.7c2.5 2 5 4 7.6 5.9l.5 .4c22 15.9 48 27.2 76.8 31.9s57.1 2.4 83.2-5.6zm-20.7 37.4c-21.9 3.4-44.8 3.4-67.8-.4s-44.6-11.1-64.2-21.3c10.9 22.9 32.8 40.4 60.2 44.9s53.9-5 71.8-23.2zm1.2-102c-5.7 6.8-16 7.7-22.9 2.1s-7.9-15.6-2.2-22.4c10.7-12.7 27.8-19.6 45.7-16.7s31.7 15 37.6 30.4c3.1 8.2-1.1 17.4-9.5 20.5s-17.8-1.1-20.9-9.3c-2-5.2-6.6-9.2-12.6-10.1s-11.6 1.3-15.2 5.6z"/></svg>