<svg xmlns="http://www.w3.org/2000/svg" viewBox="0 0 384 512"><!--! Font Awesome Pro 6.6.0 by @fontawesome - https://fontawesome.com License - https://fontawesome.com/license (Commercial License) Copyright 2024 Fonticons, Inc. --><path d="M64 32C46.3 32 32 46.3 32 64l0 384c0 17.7 14.3 32 32 32l256 0c17.7 0 32-14.3 32-32l0-384c0-17.7-14.3-32-32-32L64 32zM0 64C0 28.7 28.7 0 64 0L320 0c35.3 0 64 28.7 64 64l0 384c0 35.3-28.7 64-64 64L64 512c-35.3 0-64-28.7-64-64L0 64zm80 64l224 0c8.8 0 16 7.2 16 16s-7.2 16-16 16L80 160c-8.8 0-16-7.2-16-16s7.2-16 16-16zm0 96l224 0c8.8 0 16 7.2 16 16s-7.2 16-16 16L80 256c-8.8 0-16-7.2-16-16s7.2-16 16-16zm0 96l128 0c8.8 0 16 7.2 16 16s-7.2 16-16 16L80 352c-8.8 0-16-7.2-16-16s7.2-16 16-16z"/></svg>