<svg xmlns="http://www.w3.org/2000/svg" viewBox="0 0 576 512"><!--! Font Awesome Pro 6.6.0 by @fontawesome - https://fontawesome.com License - https://fontawesome.com/license (Commercial License) Copyright 2024 Fonticons, Inc. --><path d="M512 96c17.7 0 32 14.3 32 32l0 32c-35.3 0-64-28.7-64-64l32 0zM128 96l320 0c0 53 43 96 96 96l0 128c-53 0-96 43-96 96l-320 0c0-53-43-96-96-96l0-128c53 0 96-43 96-96zM32 352c35.3 0 64 28.7 64 64l-32 0c-17.7 0-32-14.3-32-32l0-32zm448 64c0-35.3 28.7-64 64-64l0 32c0 17.7-14.3 32-32 32l-32 0zM96 96c0 35.3-28.7 64-64 64l0-32c0-17.7 14.3-32 32-32l32 0zM64 64C28.7 64 0 92.7 0 128L0 384c0 35.3 28.7 64 64 64l448 0c35.3 0 64-28.7 64-64l0-256c0-35.3-28.7-64-64-64L64 64zM256 208c0 8.8 7.2 16 16 16l0 64-8 0c-8.8 0-16 7.2-16 16s7.2 16 16 16l24 0 24 0c8.8 0 16-7.2 16-16s-7.2-16-16-16l-8 0 0-80c0-8.8-7.2-16-16-16l-16 0c-8.8 0-16 7.2-16 16zm-64 48a96 96 0 1 1 192 0 96 96 0 1 1 -192 0zm224 0a128 128 0 1 0 -256 0 128 128 0 1 0 256 0z"/></svg>