<svg xmlns="http://www.w3.org/2000/svg" viewBox="0 0 640 512"><!--! Font Awesome Pro 6.6.0 by @fontawesome - https://fontawesome.com License - https://fontawesome.com/license (Commercial License) Copyright 2024 Fonticons, Inc. --><path d="M161.7 440.8c-4 7.9-.7 17.5 7.2 21.5s17.5 .7 21.5-7.2l32-64c1.1-2.2 1.7-4.7 1.7-7.2l0-41.4 20-20 0 38c0 24.3 19.7 44 44 44s44-19.7 44-44l0-38 30.9 30.9c3-3.7 6.6-6.9 10.6-9.5c-12.9-8.6-21.5-23.3-21.5-40c0-2.1 .1-4.2 .4-6.2L332 277.4l0-24.7 28.2 24.5c6.1-9.1 15.2-15.9 25.9-19.2l.2-.6-51.8-45.1 86.3 12.9c3.6-.9 7.3-1.3 11.2-1.3c8.9 0 17.2 2.4 24.3 6.6l25.8 3.8c8.2-6.5 18.6-10.5 29.9-10.5c16.7 0 31.4 8.5 40 21.5c2.1-3.1 4.5-6 7.3-8.6c-12.9-16.9-32.2-28.6-54.7-31.4L344.7 181.6l49.6-41.3c5.1-4.2 7-11.1 4.9-17.4L385.3 81.2l29-58.1c4-7.9 .7-17.5-7.2-21.5s-17.5-.7-21.5 7.2l-32 64c-1.9 3.8-2.2 8.2-.9 12.2l12.5 37.6L332 150.5l0-12.6c0-21.5-15.4-39.4-35.8-43.2l0-31c0-4.5-3.7-8.2-8.2-8.2s-8.2 3.7-8.2 8.2l0 31c-20.4 3.8-35.8 21.7-35.8 43.2l0 12.6-33.4-27.8 12.5-37.6c1.3-4 1-8.4-.9-12.2l-32-64c-4-7.9-13.6-11.1-21.5-7.2s-11.1 13.6-7.2 21.5l29 58.1-13.9 41.7c-2.1 6.2-.1 13.1 4.9 17.4l49.6 41.3L71.4 205.5C30.6 210.6 0 245.2 0 286.3c0 72.6 87.8 109 139.2 57.6L244 252.7l0 24.7-47.3 47.3c-3 3-4.7 7.1-4.7 11.3l0 44.2-30.3 60.6zm-43.5-121c-.6 .5-1.1 1-1.6 1.5c-31.2 31.2-84.6 9.1-84.6-35c0-25 18.6-46 43.4-49.1l.8-.1 165.4-24.7L118.2 319.8zM528 272c0-8.8-7.2-16-16-16s-16 7.2-16 16l0 16-48 0 0-16c0-8.8-7.2-16-16-16s-16 7.2-16 16l0 16-16 0c-8.8 0-16 7.2-16 16s7.2 16 16 16l16 0 0 48-16 0c-8.8 0-16 7.2-16 16s7.2 16 16 16l16 0 0 48-16 0c-8.8 0-16 7.2-16 16s7.2 16 16 16l16 0 0 16c0 8.8 7.2 16 16 16s16-7.2 16-16l0-16 48 0 0 16c0 8.8 7.2 16 16 16s16-7.2 16-16l0-16 48 0 0 16c0 8.8 7.2 16 16 16s16-7.2 16-16l0-16 16 0c8.8 0 16-7.2 16-16s-7.2-16-16-16l-16 0 0-48 16 0c8.8 0 16-7.2 16-16s-7.2-16-16-16l-16 0 0-48 16 0c8.8 0 16-7.2 16-16s-7.2-16-16-16l-16 0 0-16c0-8.8-7.2-16-16-16s-16 7.2-16 16l0 16-48 0 0-16zm0 48l48 0 0 48-48 0 0-48zm0 80l48 0 0 48-48 0 0-48zm-80-32l0-48 48 0 0 48-48 0zm0 80l0-48 48 0 0 48-48 0zM272 360.6l0-222.7c0-8.8 7.2-16 16-16s16 7.2 16 16l0 222.7c0 8.8-7.2 16-16 16s-16-7.2-16-16z"/></svg>