<svg xmlns="http://www.w3.org/2000/svg" viewBox="0 0 512 512"><!--! Font Awesome Pro 6.6.0 by @fontawesome - https://fontawesome.com License - https://fontawesome.com/license (Commercial License) Copyright 2024 Fonticons, Inc. --><path d="M130.8 105c17.5 23.6 45.6 39 77.2 39c46.1 0 84.6-32.5 93.9-75.9c41 8.6 77.3 30.1 104.3 60.2c-2-.2-4.1-.3-6.2-.3c-35.3 0-64 28.7-64 64s28.7 64 64 64c22.4 0 42.1-11.5 53.5-28.9c1.6 10.1 2.5 20.5 2.5 31c0 16.5-13.4 29.9-29.9 29.9L288 288l-64 0L85.9 288C69.4 288 56 274.6 56 258.1c0-62.2 29.3-117.6 74.8-153.1zM116.1 75.9C60.3 117.1 24 183.4 24 258.1C24 292.3 51.7 320 85.9 320l105.5 0 32.6 0 64 0 32.6 0 105.5 0c34.2 0 61.9-27.7 61.9-61.9C488 133.2 386.8 32 261.9 32l-11.8 0c-38 0-73.9 9.4-105.3 26c0 0 0 0 0 0c-10 5.3-19.6 11.3-28.6 18c0 0 0 0 0 0zm41.5 11.5c27.5-14.9 59-23.4 92.5-23.4l11.8 0c2.7 0 5.4 .1 8 .2C262.8 91.7 237.8 112 208 112c-20.5 0-38.7-9.6-50.4-24.6zM326.6 352L294 352l18 96-112 0 18-96-32.6 0-16.9 90.1c-1.8 9.4 .7 19 6.8 26.3s15.1 11.6 24.6 11.6l112 0c9.5 0 18.5-4.2 24.6-11.6s8.6-17 6.8-26.3L326.6 352zM128 208a16 16 0 1 1 32 0 16 16 0 1 1 -32 0zm64 0a48 48 0 1 0 -96 0 48 48 0 1 0 96 0zm208-48a32 32 0 1 1 0 64 32 32 0 1 1 0-64z"/></svg>