<svg xmlns="http://www.w3.org/2000/svg" viewBox="0 0 640 512"><!--! Font Awesome Pro 6.6.0 by @fontawesome - https://fontawesome.com License - https://fontawesome.com/license (Commercial License) Copyright 2024 Fonticons, Inc. --><path d="M575.5 376.2c.3-2.7 .5-5.4 .5-8.2l0-231.6c0-.1 0-.3 0-.4c0-.1 0-.2 0-.3L576 23c0-12.7-10.3-23-23-23c-2.3 0-4.6 .3-6.8 1l-311 95.7c-3 .9-5.6 2.7-7.5 5L256 123.9l0-.1L544 35.2l0 89L337 187.9 367.5 212 544 157.7l0 150.7c-17-12.7-39.4-20.4-64-20.4c-5.1 0-10.1 .3-15 1l48 37.9c9.6 4.5 17.2 10.7 22.4 17.7l40.1 31.7zM256 287l-32-25.3 0 110.6c-17-12.7-39.4-20.4-64-20.4c-53 0-96 35.8-96 80s43 80 96 80s96-35.8 96-80l0-145zm-96 97c41.1 0 64 26.7 64 48s-22.9 48-64 48s-64-26.7-64-48s22.9-48 64-48zM25.9 3.4C19-2 8.9-.8 3.4 6.1S-.8 23.1 6.1 28.6l608 480c6.9 5.5 17 4.3 22.5-2.6s4.3-17-2.6-22.5L25.9 3.4z"/></svg>