<svg xmlns="http://www.w3.org/2000/svg" viewBox="0 0 512 512"><!--! Font Awesome Pro 6.6.0 by @fontawesome - https://fontawesome.com License - https://fontawesome.com/license (Commercial License) Copyright 2024 Fonticons, Inc. --><path d="M176 64c8.8 0 16 7.2 16 16l0 176 0 176c0 8.8-7.2 16-16 16l-64 0c-8.8 0-16-7.2-16-16l0-176s0 0 0 0s0 0 0 0L96 80c0-8.8 7.2-16 16-16l64 0zm48 176l0-160c0-26.5-21.5-48-48-48l-64 0C85.5 32 64 53.5 64 80l0 160-48 0c-8.8 0-16 7.2-16 16s7.2 16 16 16l48 0 0 160c0 26.5 21.5 48 48 48l64 0c26.5 0 48-21.5 48-48l0-160 64 0 0 96c0 26.5 21.5 48 48 48l64 0c26.5 0 48-21.5 48-48l0-96 48 0c8.8 0 16-7.2 16-16s-7.2-16-16-16l-48 0 0-96c0-26.5-21.5-48-48-48l-64 0c-26.5 0-48 21.5-48 48l0 96-64 0zm96 16l0-112c0-8.8 7.2-16 16-16l64 0c8.8 0 16 7.2 16 16l0 112 0 112c0 8.8-7.2 16-16 16l-64 0c-8.8 0-16-7.2-16-16l0-112z"/></svg>