<svg xmlns="http://www.w3.org/2000/svg" viewBox="0 0 640 512"><!--! Font Awesome Pro 6.6.0 by @fontawesome - https://fontawesome.com License - https://fontawesome.com/license (Commercial License) Copyright 2024 Fonticons, Inc. --><path d="M522.4 352c4.5-9.4 8.3-19.3 11.5-29.4c.3-.9 .5-1.7 .8-2.6c6-20.3 9.3-41.8 9.3-64s-3.2-43.7-9.3-64c-3.1-10.6-7-20.8-11.6-30.7l-.6-1.3C486.5 84.3 409.4 32 320 32s-166.5 52.3-202.4 128c-4.9 10.2-9 20.9-12.3 32c0 0 0 0 0 0c-6 20.3-9.3 41.8-9.3 64s3.2 43.7 9.3 64c3.1 10.6 7 20.8 11.6 30.7l.6 1.3c36 75.7 113.1 128 202.4 128s166.5-52.3 202.4-128zm34.9 0c-38 93.8-130 160-237.4 160s-199.4-66.2-237.4-160L40 352c-22.1 0-40-17.9-40-40L0 200c0-22.1 17.9-40 40-40l42.6 0C120.6 66.2 212.6 0 320 0S519.4 66.2 557.4 160l42.6 0c22.1 0 40 17.9 40 40l0 112c0 22.1-17.9 40-40 40l-42.6 0zm10.5-160c5.3 20.5 8.1 41.9 8.1 64s-2.8 43.5-8.1 64l32.1 0c4.4 0 8-3.6 8-8l0-112c0-4.4-3.6-8-8-8l-32.1 0zM72.1 192L40 192c-4.4 0-8 3.6-8 8l0 112c0 4.4 3.6 8 8 8l32.1 0c-5.3-20.5-8.1-41.9-8.1-64s2.8-43.5 8.1-64zM417.6 336c-21.5 0-42.2-8.6-57.4-23.8c-4.5-4.5-4.5-11.9 0-16.4l95.6-95.6c4.5-4.5 11.9-4.5 16.5 .1C487.4 215.4 496 236 496 257.3l0 2.4c0 27.4-14.7 52.6-38.4 66.2c-11.5 6.6-24.6 10-37.8 10l-2.1 0zM464 257.3c0-5.8-1.1-11.5-3.1-17l-60.5 60.5c5.5 2 11.3 3.1 17.3 3.1l2.1 0c7.7 0 15.3-2 22-5.8c13.8-7.9 22.3-22.5 22.3-38.4l0-2.4zm-260.7-54l-32 32c-6.2 6.2-16.4 6.2-22.6 0s-6.2-16.4 0-22.6l32-32c6.2-6.2 16.4-6.2 22.6 0s6.2 16.4 0 22.6zM296 224a24 24 0 1 1 48 0 24 24 0 1 1 -48 0zM416 360a24 24 0 1 1 0 48 24 24 0 1 1 0-48zM235.3 299.3c-2.6 2.6-2.6 6.8 0 9.4l6.6 6.6c3 3 7.1 4.7 11.3 4.7l2.7 0 32 0c35.3 0 64 28.7 64 64s-28.7 64-64 64s-64-28.7-64-64l0-32 0-2.7c0-4.2-1.7-8.3-4.7-11.3l-6.6-6.6c-2.6-2.6-6.8-2.6-9.4 0c-6.2 6.2-16.4 6.2-22.6 0s-6.2-16.4 0-22.6l16-16 16-16c6.2-6.2 16.4-6.2 22.6 0s6.2 16.4 0 22.6zM320 384c0-17.7-14.3-32-32-32l-16 0c-8.8 0-16 7.2-16 16l0 16c0 17.7 14.3 32 32 32s32-14.3 32-32zm0-288c-20.9 0-38.7 13.4-45.3 32l90.5 0c-6.6-18.6-24.4-32-45.3-32zm-80 48c0-44.2 35.8-80 80-80s80 35.8 80 80c0 8.8-7.2 16-16 16l-128 0c-8.8 0-16-7.2-16-16z"/></svg>