<svg xmlns="http://www.w3.org/2000/svg" viewBox="0 0 512 512"><!--! Font Awesome Pro 6.6.0 by @fontawesome - https://fontawesome.com License - https://fontawesome.com/license (Commercial License) Copyright 2024 Fonticons, Inc. --><path d="M73.8 100c8.5-6.2 21.9-12.5 39.9-18c13.7-4.2 29.6-7.9 47.2-10.7c-.5 2.8-.8 5.7-.8 8.7c0 26.5 21.5 48 48 48l96 0c26.5 0 48-21.5 48-48c0-3-.3-5.9-.8-8.7c17.5 2.9 33.4 6.5 47.2 10.7c18 5.5 31.3 11.8 39.9 18c8.9 6.5 9.8 10.7 9.8 12c0 1.1-.6 4.3-6.6 9.5c-5.9 5.1-15.5 10.5-29 15.7c-26.7 10.2-65.3 18-110.4 21.2c-25.2 1.8-46.1 22.4-46.1 48.7l0 80.9c0 8.8-7.2 16-16 16s-16-7.2-16-16l0-85.7c0-25.1-20.7-43.9-43.1-46.7c-28.5-3.5-52.9 18.5-52.9 47L128 336c0 8.8-7.2 16-16 16s-16-7.2-16-16l0-169.9c0-19-11.4-33.8-23.4-43c-7.9-6-8.6-9.9-8.6-11.1c0-1.3 .9-5.5 9.8-12zM199.5 66.5C217.3 64.9 236.3 64 256 64s38.7 .9 56.5 2.5C317 69.3 320 74.3 320 80c0 8.8-7.2 16-16 16l-96 0c-8.8 0-16-7.2-16-16c0-5.7 3-10.7 7.5-13.5zm-95.3-15C84.5 57.5 67.5 65 54.9 74.1C42.8 83 32 95.6 32 112c0 15.6 9.8 27.8 21.1 36.5c7.4 5.7 10.9 12.1 10.9 17.6L64 336c0 26.5 21.5 48 48 48s48-21.5 48-48l0-133.5c0-9.5 7.8-16.3 17-15.2c8.9 1.1 15 8.5 15 14.9l0 85.7c0 26.5 21.5 48 48 48s48-21.5 48-48l0-80.9c0-8.5 6.9-16.1 16.4-16.8c47-3.4 88.9-11.6 119.5-23.3c15.2-5.8 28.6-12.9 38.4-21.3C472 137.4 480 126.1 480 112c0-16.4-10.8-29-22.9-37.9c-12.5-9.1-29.6-16.6-49.3-22.7C368.2 39.3 314.6 32 256 32s-112.2 7.3-151.8 19.5zM426.8 210.7c-28.1 9.5-64.7 15.9-106.8 19l0 32.1c64.8-4.6 119.7-16.7 153.9-37.3c4.6 5.8 6.1 11.2 6.1 15.5c0 10.8-8.9 27.7-53.2 42.7c-28.4 9.6-65.4 16-108 19.1c-2.1 12.1-7 23.3-13.9 32.9c71.3-3.8 132.1-16.1 169-38.3c4.6 5.8 6.1 11.2 6.1 15.5c0 10.8-8.9 27.7-53.2 42.7C385.2 368.8 325.1 376 256 376c-25.8 0-50.3-1-73.1-3c-6.2 11.9-15.3 22-26.3 29.4c30.6 3.8 64.1 5.6 99.4 5.6c92.1 0 172.8-12.4 217.9-39.5c4.6 5.8 6.1 11.2 6.1 15.5c0 10.8-8.9 27.7-53.2 42.7C385.2 440.8 325.1 448 256 448s-129.2-7.2-170.8-21.3C40.9 411.7 32 394.8 32 384c0-4.4 1.4-9.7 6.1-15.5l1.1 .6C34.6 359 32 347.8 32 336l0-24 0-72 0-67.4c-8.9-7.1-18.9-17.3-25.3-30.9C2.3 149.8 0 158.5 0 168c0 13.5 4.7 25.5 13.4 36C4.7 214.5 0 226.5 0 240s4.7 25.5 13.4 36C4.7 286.5 0 298.5 0 312s4.7 25.5 13.4 36C4.7 358.5 0 370.5 0 384c0 66.7 114.6 96 256 96s256-29.3 256-96c0-13.5-4.7-25.5-13.4-36c8.7-10.5 13.4-22.5 13.4-36s-4.7-25.5-13.4-36c8.7-10.5 13.4-22.5 13.4-36s-4.7-25.5-13.4-36c8.7-10.5 13.4-22.5 13.4-36c0-9.5-2.3-18.3-6.7-26.3c-5.8 12.1-14.3 21.6-22.2 28.3c-1.2 1-2.5 2.1-3.7 3.1c-2.7 10.6-14.7 24.8-52.6 37.6z"/></svg>