<svg xmlns="http://www.w3.org/2000/svg" viewBox="0 0 448 512"><!--! Font Awesome Pro 6.6.0 by @fontawesome - https://fontawesome.com License - https://fontawesome.com/license (Commercial License) Copyright 2024 Fonticons, Inc. --><path d="M152 64a24 24 0 1 1 0 48 24 24 0 1 1 0-48zm0 80a56 56 0 1 0 0-112 56 56 0 1 0 0 112zm31.2 73.2c7.7-15.5 23.5-25.2 40.8-25.2s33.1 9.8 40.8 25.2l33.8 67.5c8.3 16.5 23.1 25.9 36.8 30c28.1 8.4 48.6 34.4 48.6 65.2c0 37.6-30.4 68-68 68c-14.4 0-27.7-4.5-38.7-12.1c-16-11.1-36.5-14.7-53.3-14.7s-37.3 3.6-53.3 14.7c-11 7.6-24.3 12.1-38.7 12.1c-37.6 0-68-30.4-68-68c0-30.8 20.4-56.8 48.6-65.2c13.7-4.1 28.6-13.5 36.8-30l33.8-67.5zm-62.4 53.2c-3.4 6.9-10 11.5-17.3 13.7C62.1 296.4 32 334.7 32 380c0 55.2 44.8 100 100 100c21.2 0 40.8-6.6 56.9-17.8c17.4-12 52.8-12 70.1 0C275.2 473.4 294.8 480 316 480c55.2 0 100-44.8 100-100c0-45.3-30.1-83.6-71.4-95.9c-7.4-2.2-13.9-6.8-17.3-13.7l-33.8-67.5c-13.2-26.3-40-42.9-69.5-42.9s-56.3 16.6-69.5 42.9l-33.8 67.5zM272 88a24 24 0 1 1 48 0 24 24 0 1 1 -48 0zm80 0A56 56 0 1 0 240 88a56 56 0 1 0 112 0zm40 88a24 24 0 1 1 0 48 24 24 0 1 1 0-48zm0 80a56 56 0 1 0 0-112 56 56 0 1 0 0 112zM32 200a24 24 0 1 1 48 0 24 24 0 1 1 -48 0zm80 0A56 56 0 1 0 0 200a56 56 0 1 0 112 0z"/></svg>