<svg xmlns="http://www.w3.org/2000/svg" viewBox="0 0 512 512"><!--! Font Awesome Pro 6.6.0 by @fontawesome - https://fontawesome.com License - https://fontawesome.com/license (Commercial License) Copyright 2024 Fonticons, Inc. --><path d="M416 32C203.9 32 32 203.9 32 416l0 48c0 8.8 7.2 16 16 16l48 0c212.1 0 384-171.9 384-384l0-48c0-8.8-7.2-16-16-16l-48 0zm0-32l48 0c26.5 0 48 21.5 48 48l0 48c0 229.8-186.2 416-416 416l-48 0c-26.5 0-48-21.5-48-48l0-48C0 186.2 186.2 0 416 0zM368 112a32 32 0 1 0 0 64 32 32 0 1 0 0-64zm64 32a64 64 0 1 1 -128 0 64 64 0 1 1 128 0zM224 256a32 32 0 1 0 64 0 32 32 0 1 0 -64 0zm32 64a64 64 0 1 1 0-128 64 64 0 1 1 0 128zM112 368a32 32 0 1 0 64 0 32 32 0 1 0 -64 0zm32 64a64 64 0 1 1 0-128 64 64 0 1 1 0 128z"/></svg>