<svg xmlns="http://www.w3.org/2000/svg" viewBox="0 0 640 512"><!--! Font Awesome Pro 6.6.0 by @fontawesome - https://fontawesome.com License - https://fontawesome.com/license (Commercial License) Copyright 2024 Fonticons, Inc. --><path d="M25.9 3.4C19-2 8.9-.8 3.4 6.1S-.8 23.1 6.1 28.6l608 480c6.9 5.5 17 4.3 22.5-2.6s4.3-17-2.6-22.5L25.9 3.4zM559 138.8c21.9-21.9 21.9-57.3 0-79.2L516.4 17c-21.9-21.9-57.3-21.9-79.2 0L297.5 156.7l25.3 20L382.4 117 459 193.6l-50.6 50.6 25.3 20L559 138.8zM317.2 335.4l-93.6 93.6c-7.6 7.6-16.9 13.1-27.2 16.1l-92.8 27.3 27.3-92.8c3-10.3 8.6-19.6 16.1-27.2l84.6-84.6-25.3-20-81.9 81.9c-11.4 11.4-19.7 25.4-24.2 40.8l-35.6 121c-1.7 5.6-.1 11.7 4 15.8s10.2 5.7 15.8 4l121-35.6c15.4-4.5 29.4-12.9 40.8-24.2l96.2-96.2-25.3-20zM459.8 39.6c9.4-9.4 24.6-9.4 33.9 0l42.6 42.6c9.4 9.4 9.4 24.6 0 33.9L481.6 171 405 94.4l54.8-54.8z"/></svg>