<svg xmlns="http://www.w3.org/2000/svg" viewBox="0 0 512 512"><!--! Font Awesome Pro 6.6.0 by @fontawesome - https://fontawesome.com License - https://fontawesome.com/license (Commercial License) Copyright 2024 Fonticons, Inc. --><path d="M454.8 45.5c-12.6-12.6-32.9-12.5-45.4 .1L383 72.4l57 57 26.7-26.8c12.5-12.5 12.5-32.8 0-45.2L454.8 45.5zM218.2 239.2c-4.3 4.4-7.3 9.9-8.6 15.9l-12.9 61.7 61.5-12.9c6.1-1.3 11.7-4.3 16.1-8.7L417.4 152 360.5 95.1 218.2 239.2zM386.7 23.1c24.9-25.3 65.7-25.4 90.8-.3l11.9 11.9c25 25 25 65.5 0 90.5L296.9 317.8c-8.8 8.8-20 14.8-32.1 17.4l-85.5 17.9c-5.3 1.1-10.8-.5-14.6-4.3s-5.5-9.3-4.3-14.6l18-85.7c2.5-12 8.5-23.1 17.1-31.8L386.7 23.1zM301.1 52.9C286.5 49.7 271.5 48 256 48C141.1 48 48 141.1 48 256s93.1 208 208 208c8.8 0 16 7.2 16 16s-7.2 16-16 16C123.5 496 16 388.5 16 256S123.5 16 256 16c24.7 0 48.5 3.7 71 10.7L301.1 52.9zM485.5 185.7c6.8 22.2 10.5 45.8 10.5 70.3c0 79.5-64.5 144-144 144c-12.4 0-24.5-1.6-36-4.5c-8.6-2.2-13.7-10.9-11.5-19.5s10.9-13.7 19.5-11.5c8.9 2.3 18.3 3.5 28 3.5c61.9 0 112-50.1 112-112c0-15.1-1.6-29.9-4.7-44.1l26.2-26.2z"/></svg>