<svg xmlns="http://www.w3.org/2000/svg" viewBox="0 0 512 512"><!--! Font Awesome Pro 6.6.0 by @fontawesome - https://fontawesome.com License - https://fontawesome.com/license (Commercial License) Copyright 2024 Fonticons, Inc. --><path d="M184 32a24 24 0 1 1 0 48 24 24 0 1 1 0-48zm0 80A56 56 0 1 0 184 0a56 56 0 1 0 0 112zm-30.4 32c-31.6 0-60.3 18.6-73.1 47.5l-47.1 106c-3.6 8.1 0 17.5 8.1 21.1s17.5 0 21.1-8.1l47.1-106c2.5-5.6 6-10.6 10.3-14.8l0 96c0 17 9 32.7 23.7 41.4L256 393.2 256 496c0 8.8 7.2 16 16 16s16-7.2 16-16l0-102.8c0-11.3-6-21.8-15.8-27.6l-32.2-19 0-156.2c2.1 2.1 4 4.5 5.7 7l77 115.5c4.9 7.4 14.8 9.3 22.2 4.4s9.3-14.8 4.4-22.2l-77-115.5c-14.8-22.3-39.8-35.6-66.6-35.6l-52.2 0zM152 285.7L152 176c.5 0 1.1 0 1.6 0l52.2 0c.8 0 1.5 0 2.3 .1l0 151.7-48.1-28.3c-4.9-2.9-7.9-8.1-7.9-13.8zM96.6 491.8c-2.3 8.5 2.7 17.3 11.2 19.6s17.3-2.7 19.6-11.2l34.2-125.4L133.1 358 96.6 491.8zm354.3 13.3c5 7.3 15 9.1 22.3 4s9.1-15 4-22.3L372.3 335.4c-2.8 3.2-6 6.1-9.7 8.5c-5.7 3.8-11.9 6.2-18.3 7.3L450.8 505.1z"/></svg>