<svg xmlns="http://www.w3.org/2000/svg" viewBox="0 0 576 512"><!--! Font Awesome Pro 6.6.0 by @fontawesome - https://fontawesome.com License - https://fontawesome.com/license (Commercial License) Copyright 2024 Fonticons, Inc. --><path d="M80 80a24 24 0 1 0 0-48 24 24 0 1 0 0 48zM80 0a56 56 0 1 1 0 112A56 56 0 1 1 80 0zM32 223.4c0 .2 0 .4 0 .6l0 55.7c.2 5.1 2.7 9.7 6.9 12.6L80 320.6l0-140.4c-6.2-2.7-13-4.2-20-4.2c-15.5 0-28 12.5-28 28l0 19.4zm0 103L32 496c0 8.8-7.2 16-16 16s-16-7.2-16-16L0 280.2c0-.3 0-.7 0-1L0 204c0-33.1 26.9-60 60-60c27.9 0 53.9 14.2 69 37.6L176.7 256l63.3 0c8.8 0 16 7.2 16 16s-7.2 16-16 16l-63.3 0c-10.9 0-21-5.5-26.9-14.7L112 214.5l0 128.1L146.1 366c8.7 6 13.9 15.8 13.9 26.4L160 496c0 8.8-7.2 16-16 16s-16-7.2-16-16l0-103.6-96-66zM256 32c-8.8 0-16 7.2-16 16l0 176-32 0 0-176c0-26.5 21.5-48 48-48l24 0L528 0c26.5 0 48 21.5 48 48l0 336 0 112c0 8.8-7.2 16-16 16s-16-7.2-16-16l0-56.6c-9.4 5.4-20.3 8.6-32 8.6c-15.1 0-29.1-5.3-40-14c-10.9 8.8-24.9 14-40 14s-29.1-5.3-40-14c-10.9 8.8-24.9 14-40 14c-35.3 0-64-28.7-64-64l0-2.9c0-10.8 2.2-21.6 6.5-31.5L335 255 268.1 32 256 32zm45.5 0l65.8 219.4c1.1 3.6 .9 7.5-.6 10.9l-42.8 99.9c-2.6 6-3.9 12.4-3.9 18.9l0 2.9c0 17.7 14.3 32 32 32c11.1 0 20.9-5.7 26.7-14.3c3-4.5 8-7.1 13.3-7.1s10.4 2.7 13.3 7.1c5.8 8.7 15.6 14.3 26.7 14.3s20.9-5.7 26.7-14.3c3-4.5 8-7.1 13.3-7.1s10.4 2.7 13.3 7.1c5.8 8.7 15.6 14.3 26.7 14.3c17.7 0 32-14.3 32-32l0-336c0-8.8-7.2-16-16-16L301.5 32zM240 320l0 176c0 8.8-7.2 16-16 16s-16-7.2-16-16l0-176 32 0z"/></svg>