<svg xmlns="http://www.w3.org/2000/svg" viewBox="0 0 512 512"><!--! Font Awesome Pro 6.6.0 by @fontawesome - https://fontawesome.com License - https://fontawesome.com/license (Commercial License) Copyright 2024 Fonticons, Inc. --><path d="M256 0c8.8 0 16 7.2 16 16l0 194.8c-1.9 .3-3.7 .6-5.6 1.1L240 218.5 240 16c0-8.8 7.2-16 16-16zM104.8 177.7c7.9-4 17.5-.7 21.5 7.2l42.3 84.5L274.2 243c15.1-3.8 29.8 7.7 29.8 23.3l0 136.5 150.7-59.7c15.3-6 25.3-20.8 25.3-37.2l0-1.9c0-8.8 7.2-16 16-16s16 7.2 16 16l0 1.9c0 29.5-18 56.1-45.5 66.9l-348.6 138c-8.2 3.3-17.5-.8-20.8-9s.8-17.5 9-20.8L272 415.5l0-139-95.7 23.9c-14.6 3.6-29.7-3.3-36.4-16.7L97.7 199.2c-4-7.9-.7-17.5 7.2-21.5zM9.1 161.6c8-3.8 17.5-.5 21.3 7.5L103.3 321c10 20.9 33.5 31.6 55.9 25.5l36.5-10c8.5-2.3 17.3 2.7 19.6 11.2s-2.7 17.3-11.2 19.6l-36.5 10c-37.3 10.2-76.5-7.7-93.2-42.6L1.6 182.9c-3.8-8-.5-17.5 7.5-21.3zM128 88A24 24 0 1 0 80 88a24 24 0 1 0 48 0zM48 88a56 56 0 1 1 112 0A56 56 0 1 1 48 88z"/></svg>