<svg xmlns="http://www.w3.org/2000/svg" viewBox="0 0 640 512"><!--! Font Awesome Pro 6.6.0 by @fontawesome - https://fontawesome.com License - https://fontawesome.com/license (Commercial License) Copyright 2024 Fonticons, Inc. --><path d="M416 56a24 24 0 1 0 -48 0 24 24 0 1 0 48 0zm-80 0a56 56 0 1 1 112 0A56 56 0 1 1 336 56zM130 272c-3.9 0-7.1 2.7-7.8 6.4c-1.2 5.8-5.5 10.5-11.2 12.2c-6.2 1.8-12.1 4.3-17.7 7.3c-5.2 2.9-11.6 2.6-16.5-.7c-3.1-2.1-7.3-1.7-10.1 1l-8.5 8.5c-2.7 2.7-3.1 7-1 10.1c3.3 5 3.6 11.3 .7 16.5c-3 5.6-5.5 11.5-7.3 17.7c-1.7 5.7-6.4 10-12.2 11.2c-3.6 .7-6.4 4-6.4 7.8l0 12c0 3.9 2.7 7.1 6.4 7.8c5.8 1.2 10.5 5.5 12.2 11.2c1.8 6.2 4.3 12.1 7.3 17.7c2.9 5.2 2.6 11.6-.7 16.5c-2.1 3.1-1.7 7.3 1 10.1l8.5 8.5c2.7 2.7 7 3.1 10.1 1c5-3.3 11.3-3.6 16.5-.7c5.6 3 11.5 5.5 17.7 7.3c5.7 1.7 10 6.4 11.2 12.2c.7 3.6 4 6.4 7.8 6.4l12 0c3.9 0 7.1-2.7 7.8-6.4c1.2-5.8 5.5-10.5 11.2-12.2c6.2-1.8 12.1-4.3 17.7-7.3c5.2-2.9 11.6-2.6 16.5 .7c3.1 2.1 7.3 1.7 10.1-1l8.5-8.5c2.7-2.7 3.1-7 1-10.1c-3.3-5-3.6-11.3-.7-16.5c3-5.6 5.5-11.5 7.3-17.7c1.7-5.7 6.4-10 12.2-11.2c3.6-.7 6.4-4 6.4-7.8l0-12c0-3.9-2.7-7.1-6.4-7.8c-5.8-1.2-10.5-5.5-12.2-11.2c-1.8-6.2-4.3-12.1-7.3-17.7c-2.9-5.2-2.6-11.6 .7-16.5c2.1-3.1 1.7-7.3-1-10.1l-8.5-8.5c-2.7-2.7-7-3.1-10.1-1c-5 3.3-11.3 3.6-16.5 .7c-5.6-3-11.5-5.5-17.7-7.3c-5.7-1.7-10-6.4-11.2-12.2c-.7-3.6-4-6.4-7.8-6.4l-12 0zm-36-9.5c6.5-13.3 20.1-22.5 36-22.5l12 0c15.8 0 29.5 9.2 36 22.5c2.9 1.1 5.8 2.3 8.6 3.6c14-4.8 30.1-1.7 41.3 9.5l8.5 8.5c11.2 11.2 14.4 27.3 9.5 41.3c1.3 2.8 2.5 5.7 3.6 8.6c13.3 6.5 22.5 20.1 22.5 36l0 12c0 15.8-9.2 29.5-22.5 36c-1.1 2.9-2.3 5.8-3.6 8.6c4.8 14 1.7 30.1-9.5 41.3l-8.5 8.5c-11.2 11.2-27.3 14.4-41.3 9.5c-2.8 1.3-5.7 2.5-8.6 3.6c-6.5 13.3-20.1 22.5-36 22.5l-12 0c-15.8 0-29.5-9.2-36-22.5c-2.9-1.1-5.8-2.3-8.6-3.6c-14 4.8-30.1 1.7-41.3-9.5l-8.5-8.5c-11.2-11.2-14.4-27.3-9.5-41.3c-1.3-2.8-2.5-5.7-3.6-8.6C9.2 411.5 0 397.8 0 382l0-12c0-15.8 9.2-29.5 22.5-36c1.1-2.9 2.3-5.8 3.6-8.6c-4.8-14-1.7-30.1 9.5-41.3l8.5-8.5c11.2-11.2 27.3-14.4 41.3-9.5c2.8-1.3 5.7-2.5 8.6-3.6zm42 92a21.5 21.5 0 1 0 0 43 21.5 21.5 0 1 0 0-43zM189.5 376a53.5 53.5 0 1 1 -107 0 53.5 53.5 0 1 1 107 0zM498 272c-3.9 0-7.1 2.7-7.8 6.4c-1.2 5.8-5.5 10.5-11.2 12.2c-6.2 1.8-12.1 4.3-17.7 7.3c-5.2 2.9-11.6 2.6-16.5-.7c-3.1-2.1-7.3-1.7-10.1 1l-8.5 8.5c-2.7 2.7-3.1 7-1 10.1c3.3 5 3.6 11.3 .7 16.5c-3 5.6-5.5 11.5-7.3 17.7c-1.7 5.7-6.4 10-12.2 11.2c-3.6 .7-6.4 4-6.4 7.8l0 12c0 3.9 2.7 7.1 6.4 7.8c5.8 1.2 10.5 5.5 12.2 11.2c1.8 6.2 4.3 12.1 7.3 17.7c2.9 5.2 2.6 11.6-.7 16.5c-2.1 3.1-1.7 7.3 1 10.1l8.5 8.5c2.7 2.7 7 3.1 10.1 1c5-3.3 11.3-3.6 16.5-.7c5.6 3 11.5 5.5 17.7 7.3c5.7 1.7 10 6.4 11.2 12.2c.7 3.6 4 6.4 7.8 6.4l12 0c3.9 0 7.1-2.7 7.8-6.4c1.2-5.8 5.5-10.5 11.2-12.2c6.2-1.8 12.1-4.3 17.7-7.3c5.2-2.9 11.6-2.6 16.5 .7c3.1 2.1 7.3 1.7 10.1-1l8.5-8.5c2.7-2.7 3.1-7 1-10.1c-3.3-5-3.6-11.3-.7-16.5c3-5.6 5.5-11.5 7.3-17.7c1.7-5.7 6.4-10 12.2-11.2c3.6-.7 6.4-4 6.4-7.8l0-12c0-3.9-2.7-7.1-6.4-7.8c-5.8-1.2-10.5-5.5-12.2-11.2c-1.8-6.2-4.3-12.1-7.3-17.7c-2.9-5.2-2.6-11.6 .7-16.5c2.1-3.1 1.7-7.3-1-10.1l-8.5-8.5c-2.7-2.7-7-3.1-10.1-1c-5 3.3-11.3 3.6-16.5 .7c-5.6-3-11.5-5.5-17.7-7.3c-5.7-1.7-10-6.4-11.2-12.2c-.7-3.6-4-6.4-7.8-6.4l-12 0zm-36-9.5c6.5-13.3 20.1-22.5 36-22.5l12 0c15.8 0 29.5 9.2 36 22.5c2.9 1.1 5.8 2.3 8.6 3.6c14-4.8 30.1-1.7 41.3 9.5l8.5 8.5c11.2 11.2 14.4 27.3 9.5 41.3c1.3 2.8 2.5 5.7 3.6 8.6c13.3 6.5 22.5 20.1 22.5 36l0 12c0 15.8-9.2 29.5-22.5 36c-1.1 2.9-2.3 5.8-3.6 8.6c4.8 14 1.7 30.1-9.5 41.3l-8.5 8.5c-11.2 11.2-27.3 14.4-41.3 9.5c-2.8 1.3-5.7 2.5-8.6 3.6c-6.5 13.3-20.1 22.5-36 22.5l-12 0c-15.8 0-29.5-9.2-36-22.5c-2.9-1.1-5.8-2.3-8.6-3.6c-14 4.8-30.1 1.7-41.3-9.5l-8.5-8.5c-11.2-11.2-14.4-27.3-9.5-41.3c-1.3-2.8-2.5-5.7-3.6-8.6c-13.3-6.5-22.5-20.1-22.5-36l0-12c0-15.8 9.2-29.5 22.5-36c1.1-2.9 2.3-5.8 3.6-8.6c-4.8-14-1.7-30.1 9.5-41.3l8.5-8.5c11.2-11.2 27.3-14.4 41.3-9.5c2.8-1.3 5.7-2.5 8.6-3.6zm42 92a21.5 21.5 0 1 0 0 43 21.5 21.5 0 1 0 0-43zM557.5 376a53.5 53.5 0 1 1 -107 0 53.5 53.5 0 1 1 107 0zM330.2 166.7c-6-5.4-15-5.5-21.1-.3L250 217.1c-8 6.8-7.3 19.4 1.3 25.3l93.7 64.4c4.3 3 6.9 7.9 6.9 13.2l0 96c0 8.8-7.2 16-16 16s-16-7.2-16-16l0-87.6-86.8-59.7c-26-17.9-28-55.5-4-76l59.1-50.6c18.3-15.7 45.4-15.4 63.3 .8L406.1 192l73.9 0c8.8 0 16 7.2 16 16s-7.2 16-16 16l-80 0c-4 0-7.8-1.5-10.7-4.1l-59.1-53.2zM169.3 166l69.9-63.1-3.7-3.5c-11.8-11-29.9-11.6-42.3-1.3l-49.6 41.2L169.3 166zm104.3-51l-94.4 85.2c-6.4 5.8-16.3 5.4-22.3-.8l-48.3-50.3c-6.4-6.7-5.8-17.5 1.3-23.4l62.8-52.2c24.8-20.6 61.1-19.5 84.7 2.6l16.4 15.4c6.8 6.4 6.7 17.3-.2 23.5z"/></svg>