<svg xmlns="http://www.w3.org/2000/svg" viewBox="0 0 576 512"><!--! Font Awesome Pro 6.6.0 by @fontawesome - https://fontawesome.com License - https://fontawesome.com/license (Commercial License) Copyright 2024 Fonticons, Inc. --><path d="M260.7 192c28.3 0 55.1 10.7 75.3 29.1l0 275.1c-.1 8.7-7.2 15.8-16 15.8c-8.8 0-16-7.2-16-16l0-259.3c-12.7-8.2-27.7-12.7-43.3-12.7l-41.3 0c-15.7 0-30.7 4.6-43.3 12.8L176 496c0 8.8-7.2 16-16 16s-16-7.2-16-16l0-220.2L62.3 439.2c-4 7.9-13.6 11.1-21.5 7.2s-11.1-13.6-7.2-21.5l85.5-170.9c19-37.9 57.8-61.9 100.2-61.9l41.3 0zM288 80a48 48 0 1 0 -96 0 48 48 0 1 0 96 0zM160 80a80 80 0 1 1 160 0A80 80 0 1 1 160 80zM480 336l0 14.2 3.9 17.8 7.1 0 36.9 0c8.8 0 16 7.2 16 16s-7.2 16-16 16l-4.2 0-32.8 0 7.1 32 9.1 41.1 4.3 19.5c1.1 4.7-.1 9.7-3.1 13.5s-7.6 6-12.5 6l-19.9 0L416 512l-16 0c-8.8 0-16-7.2-16-16l0-16 0-86.1-2.7-1.4c-8.1-4.1-13.3-12.4-13.3-21.5l0-4.9 0-140.2 0-4.9c0-9.1 5.1-17.4 13.3-21.5l2.7-1.4 0-38.1c0-17.7 14.3-32 32-32l0-32 0-32 0-32c-8.8 0-16-7.2-16-16s7.2-16 16-16l16 0c8.8 0 16 7.2 16 16l0 16 0 64 0 32c17.7 0 32 14.3 32 32l0 48 0 47 0 1 0 24 0 8 32-8 0-24 0-48c0-8.8 7.2-16 16-16s16 7.2 16 16l0 72 0 12.5c0 6.9-4.4 13-10.9 15.2l-.9 .3L480 325.3l0 10.7zm-27.3 38.9l-1.5-6.9-2.4-10.8-.4-1.7s0 0 0 0c-.3-1.1-.4-2.3-.4-3.5l0-1.8 0-14.2 0-7 0-3.7 0-23.1 0-6.3 0-8 0-32 0-48 0-16 0-32-32 0 0 32 0 6.1 0 9.9c0 6-3.4 11.6-8.8 14.3c0 0 0 0 0 0l-7.2 3.6 0 140.2 7.2 3.6c0 0 0 0 0 0c5.4 2.7 8.8 8.2 8.8 14.3l0 9.9 0 54.1 0 32 27.3 0 4.7 0 28.1 0-7.1-32-9.1-41.1-1.5-6.9-5.6-25.1z"/></svg>