<svg xmlns="http://www.w3.org/2000/svg" viewBox="0 0 512 512"><!--! Font Awesome Pro 6.6.0 by @fontawesome - https://fontawesome.com License - https://fontawesome.com/license (Commercial License) Copyright 2024 Fonticons, Inc. --><path d="M352 56a24 24 0 1 1 48 0 24 24 0 1 1 -48 0zm80 0A56 56 0 1 0 320 56a56 56 0 1 0 112 0zM275.4 116.4c-12.7-3.2-26.1-3.2-38.8 0l-1.5 .4c-12.3 3.1-23.7 9-33.3 17.4L149.5 180c-6.7 5.8-7.3 15.9-1.5 22.6s15.9 7.3 22.6 1.5l52.4-45.8c5.7-5 12.6-8.6 20-10.4l1.5-.4c7.6-1.9 15.6-1.9 23.3 0l16.9 4.2L249.2 257.9c-7.3 21.8 2 45.7 22 57l93.3 52.5L320.9 490.7c-2.9 8.3 1.4 17.5 9.8 20.4s17.5-1.4 20.4-9.8L394.6 378c5.2-14.7-.9-30.9-14.5-38.5l-37.5-21.1c.2-.4 .4-.9 .5-1.3l37.2-111.6L394 253.2c5.9 20.6 24.7 34.8 46.2 34.8l55.9 0c8.8 0 16-7.2 16-16s-7.2-16-16-16l-55.9 0c-7.1 0-13.4-4.7-15.4-11.6l-20.3-71c-4.7-16.5-17.9-29.2-34.5-33.4l-94.5-23.6zm83 53.7L314.3 302.4 286.9 287c-6.7-3.8-9.8-11.7-7.3-19l36.2-108.6 42.7 10.7zM226 314.1L197.3 384 112 384c-8.8 0-16 7.2-16 16s7.2 16 16 16l85.3 0c13 0 24.7-7.8 29.6-19.8l23.3-56.6c-10-6.7-18.2-15.5-24.1-25.4zM16 95.8c-8.8 0-16 7.2-16 16s7.2 16 16 16l128 0c8.8 0 16-7.2 16-16s-7.2-16-16-16l-128 0zm-16 80c0 8.8 7.2 16 16 16l64 0c8.8 0 16-7.2 16-16s-7.2-16-16-16l-64 0c-8.8 0-16 7.2-16 16zm16 48c-8.8 0-16 7.2-16 16s7.2 16 16 16l128 0c8.8 0 16-7.2 16-16s-7.2-16-16-16l-128 0z"/></svg>