<svg xmlns="http://www.w3.org/2000/svg" viewBox="0 0 512 512"><!--! Font Awesome Pro 6.6.0 by @fontawesome - https://fontawesome.com License - https://fontawesome.com/license (Commercial License) Copyright 2024 Fonticons, Inc. --><path d="M221.3 7.1c-4.9-7.4-14.8-9.3-22.2-4.4s-9.3 14.8-4.4 22.2l40.6 61c7.1 10.6 18 17.9 30.5 20.4l37 7.4-83.3 39.2c-16.8 7.9-27.6 24.8-27.6 43.4l0 83.1-88.9 59.2c-4.2 2.8-6.6 7.2-7.1 11.8l-18.9-7.4c-7.5-2.9-14.2-7.8-19.4-14L28.3 293.8c-5.7-6.8-15.7-7.7-22.5-2s-7.7 15.7-2 22.5l29.5 35.4C41.8 360 52.9 368 65.5 372.9L406.9 506.5c9.3 3.6 19.2 5.5 29.2 5.5l43.9 0c8.8 0 16-7.2 16-16s-7.2-16-16-16l-43.9 0c-6 0-11.9-1.1-17.5-3.3l-92.9-36.4c.4-.6 .7-1.3 1-1.9l41-93.8c11.7-26.8 3.8-58.2-19.3-76.2l-38.8-30.2 96.1-54.1 80 68c6.7 5.7 16.8 4.9 22.6-1.8s4.9-16.8-1.8-22.6l-141-119.9c-3.7-3.1-7.6-6-11.6-8.6c-.8-.6-1.6-1.1-2.4-1.5c-11.2-6.9-23.6-11.7-36.6-14.3l-42.6-8.5c-4.2-.8-7.8-3.3-10.2-6.8l-40.6-61zm60.8 209.8l-46.6-36.2 106.8-50.3c.8 .6 1.5 1.2 2.2 1.8l35 29.8-97.5 54.8zM224 212.3l104.7 81.4c11.6 9 15.5 24.7 9.7 38.1l-41 93.8c-.5 1.1-.8 2.2-1 3.3L125.7 362.1l84-56c8.9-5.9 14.2-15.9 14.2-26.6l0-67.2zM424 32a24 24 0 1 1 0 48 24 24 0 1 1 0-48zm0 80A56 56 0 1 0 424 0a56 56 0 1 0 0 112z"/></svg>