<svg xmlns="http://www.w3.org/2000/svg" viewBox="0 0 512 512"><!--! Font Awesome Pro 6.6.0 by @fontawesome - https://fontawesome.com License - https://fontawesome.com/license (Commercial License) Copyright 2024 Fonticons, Inc. --><path d="M176 33.1l0 13.7-88 0 0-1.9 88-11.7zM180.8 .2L76.8 14.1C64.9 15.6 56 25.8 56 37.9l0 16.9c0 13.3 10.7 24 24 24l104 0c13.3 0 24-10.7 24-24L208 24C208 9.5 195.2-1.7 180.8 .2zM352 96.6a32 32 0 1 1 64 0 32 32 0 1 1 -64 0zm96 0a64 64 0 1 0 -128 0 64 64 0 1 0 128 0zM320 256.5c0-17.7 14.3-32 32-32l64 0c17.7 0 32 14.3 32 32l0 31.8-128 0 0-31.8zm-32 0l0 31.8c0 17.7 14.3 32 32 32l128 0c17.7 0 32-14.3 32-32l0-31.8c0-35.3-28.7-64-64-64l-64 0c-35.3 0-64 28.7-64 64zm-171.5-32l43.5 0c17.7 0 32 14.3 32 32l0 13.2-75.5-45.2zm44.2 63.8l-96.8 0 0-31.8c0-8.2 3.1-15.6 8.1-21.3l88.7 53.1zM96 192.5c-35.3 0-64 28.7-64 64l0 31.8c0 17.7 14.3 32 32 32l128 0c17.7 0 32-14.3 32-32l0-31.8c0-35.3-28.7-64-64-64l-64 0zM64 96.6c0 35.3 28.7 63.9 64 63.9s64-28.6 64-63.9l-32 0c0 17.6-14.3 31.9-32 31.9s-32-14.3-32-31.9l-32 0zm82.6 259.6c-6.6-5.9-16.7-5.3-22.6 1.3s-5.3 16.7 1.3 22.6l40.5 35.9L16 416.1c-8.8 0-16 7.2-16 16s7.2 16 16 16l149.9 0-40.5 35.9c-6.6 5.9-7.2 16-1.3 22.6s16 7.2 22.6 1.3l72-63.9c3.4-3 5.4-7.4 5.4-12s-2-8.9-5.4-12l-72-63.9zm218.8 0l-72 63.9c-3.4 3-5.4 7.4-5.4 12s2 8.9 5.4 12l72 63.9c6.6 5.9 16.7 5.3 22.6-1.3s5.3-16.7-1.3-22.6l-40.5-35.9 149.9 0c8.8 0 16-7.2 16-16s-7.2-16-16-16l-149.9 0 40.5-35.9c6.6-5.9 7.2-16 1.3-22.6s-16-7.2-22.6-1.3z"/></svg>