<svg xmlns="http://www.w3.org/2000/svg" viewBox="0 0 640 512"><!--! Font Awesome Pro 6.6.0 by @fontawesome - https://fontawesome.com License - https://fontawesome.com/license (Commercial License) Copyright 2024 Fonticons, Inc. --><path d="M456 56a24 24 0 1 1 48 0 24 24 0 1 1 -48 0zm80 0A56 56 0 1 0 424 56a56 56 0 1 0 112 0zM446.3 263.2c4-7.9 .7-17.5-7.2-21.5s-17.5-.7-21.5 7.2l-64 128c-2.5 5-2.2 10.9 .7 15.6s8.1 7.6 13.6 7.6l48 0 0 96c0 8.8 7.2 16 16 16s16-7.2 16-16l0-96 64 0 0 96c0 8.8 7.2 16 16 16s16-7.2 16-16l0-96 48 0c5.5 0 10.7-2.9 13.6-7.6s3.2-10.6 .7-15.6l-64-128c-4-7.9-13.6-11.1-21.5-7.2s-11.1 13.6-7.2 21.5L566.1 368 528 368l-96 0-38.1 0 52.4-104.8zM480 160c25.5 0 49 14.1 61 36.6l52.9 98.9c4.2 7.8 13.9 10.7 21.7 6.6s10.7-13.9 6.6-21.7l-52.9-98.9C551.7 148.6 517.3 128 480 128s-71.7 20.6-89.3 53.5l-52.9 98.9c-4.2 7.8-1.2 17.5 6.6 21.7s17.5 1.2 21.7-6.6L419 196.6c12-22.5 35.5-36.6 61-36.6zM190.5 17.3C187.9 11.6 182.3 8 176 8s-11.9 3.6-14.5 9.3L129.4 87.2 54.7 68.7c-6.1-1.5-12.5 .7-16.3 5.6s-4.6 11.6-1.8 17.2l34.6 68.6L10.3 206.9c-5 3.8-7.2 10.2-5.8 16.2s6.2 10.8 12.3 12.1L92 251l-1.4 76.8c-.1 6.2 3.4 12 9.1 14.7s12.3 1.9 17.1-2.1l59.2-49 59.2 49c4.8 4 11.5 4.8 17.1 2.1s9.2-8.5 9.1-14.7L260 251l75.2-15.8c6.1-1.3 10.9-6 12.3-12.1s-.9-12.4-5.8-16.2l-60.9-46.8 34.6-68.6c2.8-5.6 2.1-12.3-1.8-17.2s-10.3-7.1-16.3-5.6L222.6 87.2 190.5 17.3zm-37.6 95.2L176 62.3l23.1 50.2c3.2 7 10.9 10.7 18.4 8.9l53.7-13.3-24.9 49.4c-3.5 6.9-1.6 15.2 4.5 19.9l43.8 33.7-54.1 11.3c-7.5 1.6-12.9 8.3-12.7 15.9l1 55.3-42.6-35.2c-5.9-4.9-14.5-4.9-20.4 0l-42.6 35.2 1-55.3c.1-7.7-5.2-14.4-12.7-15.9L57.4 211.1l43.8-33.7c6.1-4.7 8-13 4.5-19.9L80.9 108.1l53.7 13.3c7.5 1.8 15.2-1.9 18.4-8.9z"/></svg>