<svg xmlns="http://www.w3.org/2000/svg" viewBox="0 0 384 512"><!--! Font Awesome Pro 6.6.0 by @fontawesome - https://fontawesome.com License - https://fontawesome.com/license (Commercial License) Copyright 2024 Fonticons, Inc. --><path d="M72.7 32C50.2 32 32 50.2 32 72.7L32 160l-16 0c-8.8 0-16 7.2-16 16s7.2 16 16 16l16 0 0 112 0 160c0 8.8 7.2 16 16 16s16-7.2 16-16l0-144 144 0c74.1 0 135.2-56 143.1-128l16.9 0c8.8 0 16-7.2 16-16s-7.2-16-16-16l-16.9 0c-8-72-69-128-143.1-128L72.7 32zM318.9 160L64 160l0-87.3c0-4.8 3.9-8.7 8.7-8.7L208 64c56.4 0 103.1 41.7 110.9 96zM64 192l254.9 0c-7.8 54.3-54.4 96-110.9 96L64 288l0-96z"/></svg>