<svg xmlns="http://www.w3.org/2000/svg" viewBox="0 0 640 512"><!--! Font Awesome Pro 6.6.0 by @fontawesome - https://fontawesome.com License - https://fontawesome.com/license (Commercial License) Copyright 2024 Fonticons, Inc. --><path d="M544 32L224 32c-17.7 0-32 14.3-32 32l0 169.4L265.4 160c12.5-12.5 32.8-12.5 45.3 0L352 201.4 457.4 96c12.5-12.5 32.8-12.5 45.3 0l53.8 53.8-33.9 11.3L480 118.6 363.3 235.3 278.6 320 384 320l0 32-144 0c0 0 0 0 0 0l-16 0c-35.3 0-64-28.7-64-64l0-16s0 0 0 0l0-208c0-35.3 28.7-64 64-64L544 0c35.3 0 64 28.7 64 64l0 72c-6.7 0-13.5 1.1-20.2 3.3L576 143.2 576 64c0-17.7-14.3-32-32-32zM233.4 320l96-96L288 182.6l-96 96 0 9.4c0 17.7 14.3 32 32 32l9.4 0zM232 96a24 24 0 1 1 48 0 24 24 0 1 1 -48 0zM112 96l16 0 0 32 0 80 0 128 0 48 0 32 180.6 0c-8.3 8.8-15 19.6-18.3 32L128 448l-16 0-16 0-32 0c-35.3 0-64-28.7-64-64L0 160c0-35.3 28.7-64 64-64l32 0 16 0zM32 192l64 0 0-64-32 0c-17.7 0-32 14.3-32 32l0 32zm0 160l0 32c0 17.7 14.3 32 32 32l32 0 0-64-64 0zm64-32l0-96-64 0 0 96 64 0zM640 198.2l0 49.8 0 144c0 1.1-.1 2.2-.3 3.2c.2 1.6 .3 3.2 .3 4.8c0 26.5-28.7 48-64 48s-64-21.5-64-48s28.7-48 64-48c11.7 0 22.6 2.3 32 6.4l0-88.2L448 323.5 448 464c0 26.5-28.7 48-64 48s-64-21.5-64-48s28.7-48 64-48c11.7 0 22.6 2.3 32 6.4L416 312l0-60.5c0-13.8 8.8-26 21.9-30.4l160-53.3c20.7-6.9 42.1 8.5 42.1 30.4zm-32 38.3l0-38.3L448 251.5l0 38.3 160-53.3zm-5.9 171.9c5.5-4.1 5.9-7.4 5.9-8.3s-.4-4.2-5.9-8.3c-5.5-4.1-14.6-7.7-26.1-7.7s-20.5 3.5-26.1 7.7c-5.5 4.1-5.9 7.4-5.9 8.3s.4 4.2 5.9 8.3c5.5 4.1 14.6 7.7 26.1 7.7s20.5-3.5 26.1-7.7zm-192 64c5.5-4.1 5.9-7.4 5.9-8.3s-.4-4.2-5.9-8.3c-5.5-4.1-14.6-7.7-26.1-7.7s-20.5 3.5-26.1 7.7c-5.5 4.1-5.9 7.4-5.9 8.3s.4 4.2 5.9 8.3c5.5 4.1 14.6 7.7 26.1 7.7s20.5-3.5 26.1-7.7z"/></svg>