<svg xmlns="http://www.w3.org/2000/svg" viewBox="0 0 512 512"><!--! Font Awesome Pro 6.6.0 by @fontawesome - https://fontawesome.com License - https://fontawesome.com/license (Commercial License) Copyright 2024 Fonticons, Inc. --><path d="M68.3 166.3c5.9-12.2 3.4-26.8-6.2-36.4l-16-16c-18.7-18.7-18.7-49.1 0-67.9s49.1-18.7 67.9 0l16 16c9.6 9.6 24.2 12.1 36.4 6.2C193.5 55.3 223.8 48 256 48s62.5 7.3 89.7 20.3c12.2 5.9 26.8 3.4 36.4-6.2l16-16c18.7-18.7 49.1-18.7 67.9 0s18.7 49.1 0 67.9l-16 16c-9.6 9.6-12.1 24.2-6.2 36.4c13 27.1 20.3 57.5 20.3 89.7s-7.3 62.5-20.3 89.7c-5.9 12.2-3.4 26.8 6.2 36.4l16 16c18.7 18.7 18.7 49.1 0 67.9s-49.1 18.7-67.9 0l-16-16c-9.6-9.6-24.2-12.1-36.4-6.2c-27.1 13-57.5 20.3-89.7 20.3s-62.5-7.3-89.7-20.3c-12.2-5.9-26.8-3.4-36.4 6.2l-16 16c-18.7 18.7-49.1 18.7-67.9 0s-18.7-49.1 0-67.9l16-16c9.6-9.6 12.1-24.2 6.2-36.4C55.3 318.5 48 288.2 48 256s7.3-62.5 20.3-89.7zM136.6 23.4C105.3-7.8 54.7-7.8 23.4 23.4s-31.2 81.9 0 113.1l16 16C24.4 183.9 16 218.9 16 256s8.4 72.1 23.4 103.5l-16 16c-31.2 31.2-31.2 81.9 0 113.1s81.9 31.2 113.1 0l16-16c31.3 15 66.4 23.4 103.5 23.4s72.1-8.4 103.5-23.4l16 16c31.2 31.2 81.9 31.2 113.1 0s31.2-81.9 0-113.1l-16-16c15-31.3 23.4-66.4 23.4-103.5s-8.4-72.1-23.4-103.5l16-16c31.2-31.2 31.2-81.9 0-113.1s-81.9-31.2-113.1 0l-16 16C328.1 24.4 293.1 16 256 16s-72.1 8.4-103.5 23.4l-16-16zM128 256a128 128 0 1 1 256 0 128 128 0 1 1 -256 0zm288 0A160 160 0 1 0 96 256a160 160 0 1 0 320 0zM96 432a16 16 0 1 0 -32 0 16 16 0 1 0 32 0zm336 16a16 16 0 1 0 0-32 16 16 0 1 0 0 32zM448 80a16 16 0 1 0 -32 0 16 16 0 1 0 32 0zM80 96a16 16 0 1 0 0-32 16 16 0 1 0 0 32z"/></svg>