<svg xmlns="http://www.w3.org/2000/svg" viewBox="0 0 640 512"><!--! Font Awesome Pro 6.6.0 by @fontawesome - https://fontawesome.com License - https://fontawesome.com/license (Commercial License) Copyright 2024 Fonticons, Inc. --><path d="M586.6 32c-35.2 0-68.4 16.6-89.5 44.7L395 212.5c18.2 15.5 22.4 42.4 8.9 62.8L296 439.8C266.5 484.9 216.2 512 162.3 512l-2.3 0C71.6 512 0 440.4 0 352l0-72c0-30.9 25.1-56 56-56l144 0c28.4 0 51.9 21.2 55.5 48.6l49.5-66c14.9-19.9 42.5-25 63.5-12.1l103-137C498.7 21.3 541.3 0 586.6 0L624 0c8.8 0 16 7.2 16 16s-7.2 16-16 16l-37.4 0zm-256 193.8L252.8 329.6c-4.1 5.5-11.3 7.8-17.9 5.6S224 326.9 224 320l0-40c0-13.3-10.7-24-24-24L56 256c-13.3 0-24 10.7-24 24l0 72c0 70.7 57.3 128 128 128l2.3 0c43.1 0 83.4-21.7 107-57.8L377.2 257.8c4.8-7.3 2.8-17.2-4.5-22.1l-20.4-13.6c-7.1-4.7-16.6-3.1-21.7 3.7z"/></svg>