<svg xmlns="http://www.w3.org/2000/svg" viewBox="0 0 640 512"><!--! Font Awesome Pro 6.6.0 by @fontawesome - https://fontawesome.com License - https://fontawesome.com/license (Commercial License) Copyright 2024 Fonticons, Inc. --><path d="M256 0c-13.4 0-25.2 5.7-34.8 13.3c-9.5 7.6-17.6 17.7-24 28.4C184.4 62.7 176 89 176 109.7l0 52.5L24.2 248.9C9.2 257.4 0 273.3 0 290.6l0 56.2c0 21.3 20.3 36.6 40.8 30.8L176 338.9l0 37.1-51.2 38.4c-8.1 6-12.8 15.5-12.8 25.6l0 42c0 16.6 13.4 30 30 30c2.8 0 5.6-.4 8.3-1.2c0 0 0 0 0 0L256 480.6l105.7 30.2s0 0 0 0c2.1 .6 4.2 1 6.3 1.1l0-32.6L260.4 448.6c-2.9-.8-5.9-.8-8.8 0L144 479.4l0-39.4 57.6-43.2c4-3 6.4-7.8 6.4-12.8l0-66.3c0-5-2.4-9.8-6.4-12.8s-9.2-4-14-2.6L32 346.8l0-56.2c0-5.7 3.1-11 8.1-13.9l159.9-91.4c5-2.8 8.1-8.2 8.1-13.9l0-61.7c0-13.5 6.1-34.1 16.6-51.3c5.2-8.5 10.9-15.4 16.7-20C247 33.7 251.9 32 256 32c9.1 0 20.9 8.2 31.8 26.3C298.1 75.5 304 96.1 304 109.7l0 61.7c0 5.7 3.1 11 8.1 13.9l106.9 61.1c2.5-10.7 6.5-20.8 11.9-30.1L336 162.1l0-52.5c0-20.6-8.1-46.8-20.8-67.9C303.1 21.6 282.9 0 256 0zm80 376l0-37.1 48 13.7 0-.6c0-11 2.8-21.4 7.7-30.4l-67.3-19.2c-4.8-1.4-10-.4-14 2.6s-6.4 7.8-6.4 12.8l0 66.3c0 5 2.4 9.8 6.4 12.8L368 440l0-40-32-24zM528 224c26.5 0 48 21.5 48 48l0 48-96 0 0-48c0-26.5 21.5-48 48-48zm-80 48l0 48c-17.7 0-32 14.3-32 32l0 128c0 17.7 14.3 32 32 32l160 0c17.7 0 32-14.3 32-32l0-128c0-17.7-14.3-32-32-32l0-48c0-44.2-35.8-80-80-80s-80 35.8-80 80zm0 80l160 0 0 128-160 0 0-128z"/></svg>