<svg xmlns="http://www.w3.org/2000/svg" viewBox="0 0 512 512"><!--! Font Awesome Pro 6.6.0 by @fontawesome - https://fontawesome.com License - https://fontawesome.com/license (Commercial License) Copyright 2024 Fonticons, Inc. --><path d="M288 96c0-35.3 28.7-64 64-64s64 28.7 64 64l0 33.1c-38.4 5.7-64 32.2-64 73.9c0 27.9 25.3 74.8 66 111.6c3.8 3.5 8.9 5.3 14 5.3s10.2-1.8 14-5.3c40.7-36.8 66-83.7 66-111.6c0-41.7-25.6-68.3-64-73.9L448 96c0-53-43-96-96-96s-96 43-96 96l0 65.6c-20.3-20.7-48.7-33.6-80-33.6c-61.9 0-112 50.1-112 112l0 17.1c-38.4 5.7-64 32.2-64 73.9C0 359 25.3 405.9 66 442.7c3.8 3.5 8.9 5.3 14 5.3s10.2-1.8 14-5.3c40.7-36.8 66-83.7 66-111.6c0-41.7-25.6-68.3-64-73.9L96 240c0-44.2 35.8-80 80-80s80 35.8 80 80l0 40 0 216c0 8.8 7.2 16 16 16s16-7.2 16-16l0-216 0-40 0-144zm128 65.7l0 30.3c0 8.8 7.2 16 16 16s16-7.2 16-16l0-30.3c8.9 2 15.5 5.6 20.1 9.8c6.6 6 11.9 15.8 11.9 31.6c0 5.8-3.3 18.8-13.5 36.5c-8.3 14.5-20.1 30-34.5 44.3c-14.4-14.3-26.2-29.9-34.5-44.3c-10.2-17.7-13.5-30.7-13.5-36.5c0-15.8 5.3-25.6 11.9-31.6c4.6-4.2 11.2-7.8 20.1-9.8zM43.9 299.5c4.6-4.2 11.2-7.8 20.1-9.8l0 30.6c0 8.8 7.2 16 16 16s16-7.2 16-16l0-30.6c8.9 2 15.5 5.6 20.1 9.8c6.6 6 11.9 15.8 11.9 31.6c0 5.8-3.3 18.8-13.5 36.5c-8.3 14.5-20.1 30-34.5 44.3C65.6 397.6 53.8 382 45.5 367.6C35.3 349.8 32 336.9 32 331.1c0-15.8 5.3-25.6 11.9-31.6z"/></svg>