<svg xmlns="http://www.w3.org/2000/svg" viewBox="0 0 448 512"><!--! Font Awesome Pro 6.6.0 by @fontawesome - https://fontawesome.com License - https://fontawesome.com/license (Commercial License) Copyright 2024 Fonticons, Inc. --><path d="M416 224c0 71.3-38.8 133.5-96.5 166.6c-1.4 11.5-3.2 23.4-5 34.8l-.6 3.8C392.8 394.7 448 315.8 448 224C448 100.3 347.7 0 224 0S0 100.3 0 224c0 91.8 55.2 170.6 134.2 205.3l-.6-3.7c-1.9-11.5-3.7-23.5-5.1-35C70.8 357.5 32 295.3 32 224C32 118 118 32 224 32s192 86 192 192zm-48 0c0-79.5-64.5-144-144-144S80 144.5 80 224c0 42.4 18.3 80.5 47.5 106.9c1.6-7.1 4.3-13.9 8.1-20.3c2.1-3.5 4.5-6.7 7-9.7c-19-20.1-30.6-47.1-30.6-76.9c0-61.9 50.1-112 112-112s112 50.1 112 112c0 29.8-11.6 56.8-30.6 76.9c2.5 2.9 4.9 6.1 7 9.7c3.8 6.3 6.4 13.1 8.1 20.3C349.7 304.5 368 266.4 368 224zM224 192a32 32 0 1 1 0 64 32 32 0 1 1 0-64zm0 96a64 64 0 1 0 0-128 64 64 0 1 0 0 128zM209.5 478.2c-3.6-13.6-8.6-37.7-12.7-63c-4.3-26.4-7.3-51.3-7.3-65.7c0-4.3 .9-5.8 1.1-6.1c.2-.3 .7-1.2 2.8-2.3c5.2-2.9 15.3-5.1 30.7-5.1s25.5 2.2 30.7 5.1c2.1 1.1 2.6 2 2.8 2.3c.2 .3 1.1 1.8 1.1 6.1c0 14.3-2.9 39.2-7.3 65.6c-4.1 25.2-9.1 49.4-12.8 63.1c-1 .4-2.5 .8-4.9 1.2c-2.7 .4-5.9 .6-9.7 .6s-7-.2-9.7-.6c-2.3-.4-3.9-.8-4.9-1.2zm-30.6 9.5c5.3 19.8 25.5 24.3 45.1 24.3s39.8-4.6 45.1-24.3c8.1-29.9 21.5-103.9 21.5-138.2c0-36.5-32.4-45.5-66.6-45.5s-66.6 9-66.6 45.5c0 34.4 13.4 108.5 21.5 138.2z"/></svg>