<svg xmlns="http://www.w3.org/2000/svg" viewBox="0 0 512 512"><!--! Font Awesome Pro 6.6.0 by @fontawesome - https://fontawesome.com License - https://fontawesome.com/license (Commercial License) Copyright 2024 Fonticons, Inc. --><path d="M257.2 22.7c53.3 36.8 58 117.1 21.4 183.5l-.4 .7-.5 .7c-.6 .9-.4 2 .3 2.5c.2 .2 .4 .2 .4 .2s.2 0 .2 0s.2 0 .3-.1s.3-.2 .4-.5l.4-.6 .4-.5c47.8-58 123.3-82.4 176.4-44.3c64 45.3 72.1 140.1 25.2 209.7c0 0 0 0 0 0c-83.4 123.2-257.1 185-380.5 96.5l9.3-13-9.3 13c0 0 0 0 0 0C-21.9 382.3-27.4 196.3 56.1 73.1c0 0 0 0 0 0L69.3 82 56.1 73c0 0 0 0 0 0C103.1 2.9 192.9-22.8 257.2 22.7zM238.8 48.8C192.6 16.1 122.2 31.9 82.6 90.9c0 0 0 0 0 .1C5.7 204.5 15 369.3 120.1 444.4c0 0 0 0 0 0C224.2 519 378.6 469.5 455.5 356c39.6-58.7 29.4-132.7-17.2-165.7l-.1-.1c-33.4-24-90.3-12.8-132.7 38.3c-10.7 14.7-31 18.3-46 7.5c-14.7-10.6-18.2-30.8-8.5-45.8C283.1 131.4 273.1 72.4 239 49l-.2-.1s0 0 0 0z"/></svg>