<svg xmlns="http://www.w3.org/2000/svg" viewBox="0 0 448 512"><!--! Font Awesome Pro 6.6.0 by @fontawesome - https://fontawesome.com License - https://fontawesome.com/license (Commercial License) Copyright 2024 Fonticons, Inc. --><path d="M176 0l32 0c26.5 0 48 21.5 48 48l76.1 0c17 0 33.3 6.7 45.3 18.7l33.9 33.9c6.2 6.2 6.2 16.4 0 22.6s-16.4 6.2-22.6 0L354.7 89.4c-6-6-14.1-9.4-22.6-9.4L256 80l0 48-32 0 0-80c0-8.8-7.2-16-16-16l-32 0c-8.8 0-16 7.2-16 16l0 80-32 0 0-80c0-26.5 21.5-48 48-48zM85.6 221.3l-18.7 224C65.3 464 80.1 480 98.8 480l186.4 0c18.7 0 33.4-16 31.9-34.7l-18.7-224c-1.4-16.6-15.2-29.3-31.9-29.3l-149.1 0c-16.6 0-30.5 12.8-31.9 29.3zm-31.9-2.7c2.8-33.2 30.5-58.7 63.8-58.7l149.1 0c33.3 0 61 25.5 63.8 58.7l18.7 224c3.1 37.3-26.3 69.3-63.8 69.3L98.8 512c-37.4 0-66.9-32-63.8-69.3l18.7-224zM208 288l0 32 32 0c8.8 0 16 7.2 16 16s-7.2 16-16 16l-32 0 0 32c0 8.8-7.2 16-16 16s-16-7.2-16-16l0-32-32 0c-8.8 0-16-7.2-16-16s7.2-16 16-16l32 0 0-32c0-8.8 7.2-16 16-16s16 7.2 16 16z"/></svg>