<svg xmlns="http://www.w3.org/2000/svg" viewBox="0 0 512 512"><!--! Font Awesome Pro 6.6.0 by @fontawesome - https://fontawesome.com License - https://fontawesome.com/license (Commercial License) Copyright 2024 Fonticons, Inc. --><path d="M0 255.2C-.4 264 6.4 271.5 15.2 272s16.3-6.4 16.8-15.2l.4-8C36.2 172.2 99.5 112 176.2 112L320 112l0 44.4c0 15.2 12.3 27.6 27.6 27.6c6.8 0 13.4-2.5 18.4-7.1l76.7-69c3.4-3 5.3-7.4 5.3-11.9s-1.9-8.9-5.3-11.9L366 15.1C360.9 10.5 354.4 8 347.6 8C332.3 8 320 20.3 320 35.6L320 80 176.2 80C82.4 80 5.1 153.5 .4 247.2l-.4 8zM408.1 96L352 146.5l0-100.9L408.1 96zM512 256.8c.4-8.8-6.4-16.3-15.2-16.8s-16.3 6.4-16.8 15.2l-.4 8C475.8 339.8 412.5 400 335.8 400L192 400l0-44.4c0-15.2-12.3-27.6-27.6-27.6c-6.8 0-13.4 2.5-18.4 7.1l-76.7 69c-3.4 3-5.3 7.4-5.3 11.9s1.9 8.9 5.3 11.9l76.7 69c5.1 4.6 11.6 7.1 18.4 7.1c15.2 0 27.6-12.3 27.6-27.6l0-44.4 143.8 0c93.8 0 171.1-73.5 175.8-167.2l.4-8zM103.9 416L160 365.5l0 100.9L103.9 416zM288 208c0-6.1-3.4-11.6-8.8-14.3s-11.9-2.1-16.8 1.5l-32 24c-7.1 5.3-8.5 15.3-3.2 22.4s15.3 8.5 22.4 3.2L256 240l0 64c0 8.8 7.2 16 16 16s16-7.2 16-16l0-96z"/></svg>