<svg xmlns="http://www.w3.org/2000/svg" viewBox="0 0 640 512"><!--! Font Awesome Pro 6.6.0 by @fontawesome - https://fontawesome.com License - https://fontawesome.com/license (Commercial License) Copyright 2024 Fonticons, Inc. --><path d="M0 176C0 96.5 64.5 32 144 32l224 0c79.5 0 144 64.5 144 144l0 96 0 64 0 32c0 8.8 7.2 16 16 16s16-7.2 16-16l0-64c0-26.5 21.5-48 48-48s48 21.5 48 48l0 64c0 61.9-50.1 112-112 112c-32.2 0-61.2-13.6-81.7-35.4C440.8 465 422.1 480 400 480l-64 0c-26.5 0-48-21.5-48-48l0-48-128 0 0 48c0 26.5-21.5 48-48 48l-64 0c-26.5 0-48-21.5-48-48L0 272l0-96zM480 288L32 288l0 144c0 8.8 7.2 16 16 16l64 0c8.8 0 16-7.2 16-16l0-64c0-8.8 7.2-16 16-16l160 0c8.8 0 16 7.2 16 16l0 64c0 8.8 7.2 16 16 16l64 0c8.8 0 16-7.2 16-16l0-64c0-8.8 7.2-16 16-16s16 7.2 16 16c0 44.2 35.8 80 80 80s80-35.8 80-80l0-64c0-8.8-7.2-16-16-16s-16 7.2-16 16l0 64c0 26.5-21.5 48-48 48s-48-21.5-48-48l0-32 0-48zm0-32l0-80c0-61.9-50.1-112-112-112L144 64C82.1 64 32 114.1 32 176l0 80 448 0zM160 144l0 16 16 0c8.8 0 16 7.2 16 16s-7.2 16-16 16l-16 0 0 16c0 8.8-7.2 16-16 16s-16-7.2-16-16l0-16-16 0c-8.8 0-16-7.2-16-16s7.2-16 16-16l16 0 0-16c0-8.8 7.2-16 16-16s16 7.2 16 16zm96-16c8.8 0 16 7.2 16 16l0 16 16 0c8.8 0 16 7.2 16 16s-7.2 16-16 16l-16 0 0 16c0 8.8-7.2 16-16 16s-16-7.2-16-16l0-16-16 0c-8.8 0-16-7.2-16-16s7.2-16 16-16l16 0 0-16c0-8.8 7.2-16 16-16zm128 16l0 16 16 0c8.8 0 16 7.2 16 16s-7.2 16-16 16l-16 0 0 16c0 8.8-7.2 16-16 16s-16-7.2-16-16l0-16-16 0c-8.8 0-16-7.2-16-16s7.2-16 16-16l16 0 0-16c0-8.8 7.2-16 16-16s16 7.2 16 16z"/></svg>