<svg xmlns="http://www.w3.org/2000/svg" viewBox="0 0 640 512"><!--! Font Awesome Pro 6.6.0 by @fontawesome - https://fontawesome.com License - https://fontawesome.com/license (Commercial License) Copyright 2024 Fonticons, Inc. --><path d="M205.2 496c-12.4 0-24.4-4.6-33.7-12.8L49.3 374.6C38.3 364.8 32 350.7 32 336s6.3-28.8 17.3-38.6L171.5 188.8c9.3-8.3 21.3-12.8 33.7-12.8c28 0 50.8 22.7 50.8 50.8V240H400c8.8 0 16 7.2 16 16v29.2c0 10.4 8.4 18.8 18.8 18.8c4.6 0 9-1.7 12.5-4.7L569.4 190.7c4.2-3.7 6.6-9.1 6.6-14.7s-2.4-10.9-6.6-14.7L447.3 52.7c-3.4-3.1-7.9-4.7-12.5-4.7C424.4 48 416 56.4 416 66.8V96c0 8.8-7.2 16-16 16H288c-8.8 0-16-7.2-16-16s7.2-16 16-16h96V66.8c0-28 22.7-50.8 50.8-50.8c12.4 0 24.4 4.6 33.7 12.8L590.7 137.4c11 9.8 17.3 23.8 17.3 38.6s-6.3 28.8-17.3 38.6L468.5 323.2c-9.3 8.3-21.3 12.8-33.7 12.8c-28 0-50.8-22.7-50.8-50.8V272H240c-8.8 0-16-7.2-16-16V226.8c0-10.4-8.4-18.8-18.8-18.8c-4.6 0-9 1.7-12.5 4.7L70.6 321.3c-4.2 3.7-6.6 9.1-6.6 14.7s2.4 10.9 6.6 14.7L192.7 459.3c3.4 3.1 7.9 4.7 12.5 4.7c10.4 0 18.8-8.4 18.8-18.8V416c0-8.8 7.2-16 16-16H352c8.8 0 16 7.2 16 16s-7.2 16-16 16H256v13.2c0 28-22.7 50.8-50.8 50.8z"/></svg>