<svg xmlns="http://www.w3.org/2000/svg" viewBox="0 0 512 512"><!--! Font Awesome Pro 6.6.0 by @fontawesome - https://fontawesome.com License - https://fontawesome.com/license (Commercial License) Copyright 2024 Fonticons, Inc. --><path d="M208 0c-8.8 0-16 7.2-16 16s7.2 16 16 16c150.2 0 272 121.8 272 272c0 8.8 7.2 16 16 16s16-7.2 16-16C512 136.1 375.9 0 208 0zm0 96c-8.8 0-16 7.2-16 16s7.2 16 16 16c97.2 0 176 78.8 176 176c0 8.8 7.2 16 16 16s16-7.2 16-16c0-114.9-93.1-208-208-208zM32 304c0-24.5 5-47.7 13.9-68.8L276.8 466.1C255.7 475 232.5 480 208 480c-97.2 0-176-78.8-176-176zm33.5-94.5c-14-14-37.3-12.1-45.7 5.8C7.1 242.2 0 272.3 0 304C0 418.9 93.1 512 208 512c31.7 0 61.8-7.1 88.7-19.8c17.9-8.4 19.8-31.8 5.8-45.7L195.3 339.3l24-24c6.3 3 13.3 4.7 20.7 4.7c26.5 0 48-21.5 48-48s-21.5-48-48-48s-48 21.5-48 48c0 7.4 1.7 14.4 4.7 20.7l-24 24L65.5 209.5zM224 272a16 16 0 1 1 32 0 16 16 0 1 1 -32 0z"/></svg>