<svg xmlns="http://www.w3.org/2000/svg" viewBox="0 0 640 512"><!--! Font Awesome Pro 6.6.0 by @fontawesome - https://fontawesome.com License - https://fontawesome.com/license (Commercial License) Copyright 2024 Fonticons, Inc. --><path d="M527.8 10.9c2.8 8.4-1.7 17.4-10.1 20.2L383.5 75.9c-4.6 24.4-23.1 43.9-46.9 50.1l0 354 192 0c8.8 0 16 7.2 16 16s-7.2 16-16 16l-208 0c-8.8 0-16-7.2-16-16l0-370c-10.3-2.6-19.6-7.8-27.2-14.7L133.7 159.2c-8.4 2.8-17.4-1.7-20.2-10.1s1.7-17.4 10.1-20.2L259.7 83.5c-2-6.1-3-12.7-3-19.5c0-35.3 28.7-64 64-64c28 0 51.8 18 60.5 43L507.6 .8C516-2 525 2.6 527.8 10.9zM440.7 330.3C457.8 343.1 482.9 352 512 352s54.2-8.9 71.3-21.7C600.4 317.5 608 302.2 608 288l-192 0 0-1.6c0 0 0 .1 0 .1l0 1.6c0 14.2 7.6 29.5 24.7 42.3zm71.3-215L426.3 256l171.3 0L512 115.3zM384 288l0-1.6c0-14.7 4-29.1 11.7-41.6l92-151.2C492.8 85.2 502.1 80 512 80s19.2 5.2 24.3 13.7l92 151.2c7.6 12.5 11.7 26.9 11.7 41.6l0 1.6c0 53-57.3 96-128 96s-128-43-128-96zM32 416c0 14.2 7.6 29.5 24.7 42.3C73.8 471.1 98.9 480 128 480s54.2-8.9 71.3-21.7C216.4 445.5 224 430.2 224 416L32 416l0-1.6c0 0 0 .1 0 .1l0 1.6zm10.3-32l171.3 0L128 243.3 42.3 384zM128 512C57.3 512 0 469 0 416l0-1.6c0-14.7 4-29.1 11.7-41.6l92-151.2c5.2-8.5 14.4-13.7 24.3-13.7s19.2 5.2 24.3 13.7l92 151.2c7.6 12.5 11.7 26.9 11.7 41.6l0 1.6c0 53-57.3 96-128 96zM320.7 96a32 32 0 1 0 0-64 32 32 0 1 0 0 64z"/></svg>