<svg xmlns="http://www.w3.org/2000/svg" viewBox="0 0 640 512"><!--! Font Awesome Pro 6.6.0 by @fontawesome - https://fontawesome.com License - https://fontawesome.com/license (Commercial License) Copyright 2024 Fonticons, Inc. --><path d="M311.1 2.7c5.4-3.6 12.4-3.6 17.8 0L468.8 96 576 96c35.3 0 64 28.7 64 64l0 106.8c-9.1-12.9-19.9-24.5-32-34.6l0-72.2c0-17.7-14.3-32-32-32l-112 0c-3.2 0-6.2-.9-8.9-2.7L320 35.2 184.9 125.3c-2.6 1.8-5.7 2.7-8.9 2.7L64 128c-17.7 0-32 14.3-32 32l0 288c0 17.7 14.3 32 32 32l192 0 0-96c0-35.3 28.7-64 64-64c2.2 0 4.4 .1 6.5 .3c-2.9 10.2-4.8 20.8-5.8 31.7l-.7 0c-17.7 0-32 14.3-32 32l0 96 32 0 32 0 8.2 0c10 12.1 21.7 22.9 34.6 32L384 512l-32 0-64 0-32 0L64 512c-35.3 0-64-28.7-64-64L0 160c0-35.3 28.7-64 64-64l107.2 0 140-93.3zM416 192c0 7-.7 13.8-2.2 20.3c-31.3 16.5-57 42.2-73.5 73.5c-6.5 1.4-13.3 2.2-20.3 2.2c-53 0-96-43-96-96s43-96 96-96s96 43 96 96zM128 160l32 0c17.7 0 32 14.3 32 32l0 64c0 17.7-14.3 32-32 32l-32 0c-17.7 0-32-14.3-32-32l0-64c0-17.7 14.3-32 32-32zm0 32l0 64 32 0 0-64-32 0zM96 352c0-17.7 14.3-32 32-32l32 0c17.7 0 32 14.3 32 32l0 64c0 17.7-14.3 32-32 32l-32 0c-17.7 0-32-14.3-32-32l0-64zm64 0l-32 0 0 64 32 0 0-64zm160-96a64 64 0 1 0 0-128 64 64 0 1 0 0 128zm16-96l0 16 8 0c8.8 0 16 7.2 16 16s-7.2 16-16 16l-24 0c-8.8 0-16-7.2-16-16l0-32c0-8.8 7.2-16 16-16s16 7.2 16 16zM608 368a112 112 0 1 0 -224 0 112 112 0 1 0 224 0zm-256 0a144 144 0 1 1 288 0 144 144 0 1 1 -288 0zm166.6 0l36.7 36.7c6.2 6.2 6.2 16.4 0 22.6s-16.4 6.2-22.6 0L496 390.6l-36.7 36.7c-6.2 6.2-16.4 6.2-22.6 0s-6.2-16.4 0-22.6L473.4 368l-36.7-36.7c-6.2-6.2-6.2-16.4 0-22.6s16.4-6.2 22.6 0L496 345.4l36.7-36.7c6.2-6.2 16.4-6.2 22.6 0s6.2 16.4 0 22.6L518.6 368z"/></svg>