<svg xmlns="http://www.w3.org/2000/svg" viewBox="0 0 640 512"><!--! Font Awesome Pro 6.6.0 by @fontawesome - https://fontawesome.com License - https://fontawesome.com/license (Commercial License) Copyright 2024 Fonticons, Inc. --><path d="M328.9 2.7c-5.4-3.6-12.4-3.6-17.8 0L171.2 96 64 96C28.7 96 0 124.7 0 160L0 448c0 35.3 28.7 64 64 64l192 0 32 0 64 0 32 0 192 0c35.3 0 64-28.7 64-64l0-288c0-35.3-28.7-64-64-64L468.8 96 328.9 2.7zM384 384c0-35.3-28.7-64-64-64s-64 28.7-64 64l0 96L64 480c-17.7 0-32-14.3-32-32l0-288c0-17.7 14.3-32 32-32l112 0c3.2 0 6.2-.9 8.9-2.7L320 35.2l135.1 90.1c2.6 1.8 5.7 2.7 8.9 2.7l112 0c17.7 0 32 14.3 32 32l0 288c0 17.7-14.3 32-32 32l-192 0 0-96zm-32 96l-64 0 0-96c0-17.7 14.3-32 32-32s32 14.3 32 32l0 96zM96 192l0 64c0 17.7 14.3 32 32 32l32 0c17.7 0 32-14.3 32-32l0-64c0-17.7-14.3-32-32-32l-32 0c-17.7 0-32 14.3-32 32zm64 0l0 64-32 0 0-64 32 0zm320-32c-17.7 0-32 14.3-32 32l0 64c0 17.7 14.3 32 32 32l32 0c17.7 0 32-14.3 32-32l0-64c0-17.7-14.3-32-32-32l-32 0zm0 32l32 0 0 64-32 0 0-64zM96 352l0 64c0 17.7 14.3 32 32 32l32 0c17.7 0 32-14.3 32-32l0-64c0-17.7-14.3-32-32-32l-32 0c-17.7 0-32 14.3-32 32zm64 0l0 64-32 0 0-64 32 0zm320-32c-17.7 0-32 14.3-32 32l0 64c0 17.7 14.3 32 32 32l32 0c17.7 0 32-14.3 32-32l0-64c0-17.7-14.3-32-32-32l-32 0zm0 32l32 0 0 64-32 0 0-64zM320 128a64 64 0 1 1 0 128 64 64 0 1 1 0-128zm0 160a96 96 0 1 0 0-192 96 96 0 1 0 0 192zm16-128c0-8.8-7.2-16-16-16s-16 7.2-16 16l0 32c0 8.8 7.2 16 16 16l24 0c8.8 0 16-7.2 16-16s-7.2-16-16-16l-8 0 0-16z"/></svg>