<svg xmlns="http://www.w3.org/2000/svg" viewBox="0 0 640 512"><!--! Font Awesome Pro 6.6.0 by @fontawesome - https://fontawesome.com License - https://fontawesome.com/license (Commercial License) Copyright 2024 Fonticons, Inc. --><path d="M96 448L96 64c0-17.7-14.3-32-32-32S32 46.3 32 64l0 384c0 17.7 14.3 32 32 32s32-14.3 32-32zM64 0c23.7 0 44.4 12.9 55.4 32l8.6 0 384 0 8.6 0C531.6 12.9 552.3 0 576 0c35.3 0 64 28.7 64 64l0 384c0 35.3-28.7 64-64 64c-23.7 0-44.4-12.9-55.4-32l-8.6 0-384 0-8.6 0c-11.1 19.1-31.7 32-55.4 32c-35.3 0-64-28.7-64-64L0 64C0 28.7 28.7 0 64 0zM576 480c17.7 0 32-14.3 32-32l0-384c0-17.7-14.3-32-32-32s-32 14.3-32 32l0 384c0 17.7 14.3 32 32 32zm-64-32l0-384L128 64l0 384 384 0zM172 322.9c0-4.1 1.1-8.2 3.2-11.8l32.3-55-32.3-55c-2.1-3.6-3.2-7.6-3.2-11.8c0-12.9 10.4-23.3 23.3-23.3l65 0 36-61.3c4.6-7.9 13.1-12.7 22.2-12.7s17.6 4.8 22.2 12.7l36 61.3 65 0c12.9 0 23.3 10.4 23.3 23.3c0 4.1-1.1 8.2-3.2 11.8l-32.3 55 32.3 55c2.1 3.6 3.2 7.6 3.2 11.8c0 12.9-10.4 23.3-23.3 23.3l-65 0-36 61.3c-4.6 7.9-13.1 12.7-22.2 12.7s-17.6-4.8-22.2-12.7l-36-61.3-65 0c-12.9 0-23.3-10.4-23.3-23.3zm146.5 59.2l21.1-35.9-42.2 0 21.1 35.9zm-39.9-67.9l79.7 0 34.1-58-34.1-58-79.7 0-34.1 58 34.1 58zm147.9 0L411 287.7l-15.5 26.4 31 0zm0-116.1l-31 0L411 224.5 426.5 198zm-108-67.9L297.4 166l42.2 0-21.1-35.9zM226 224.5L241.5 198l-31 0L226 224.5zm15.5 89.7L226 287.7l-15.5 26.4 31 0z"/></svg>