<svg xmlns="http://www.w3.org/2000/svg" viewBox="0 0 448 512"><!--! Font Awesome Pro 6.6.0 by @fontawesome - https://fontawesome.com License - https://fontawesome.com/license (Commercial License) Copyright 2024 Fonticons, Inc. --><path d="M416 368c0 17.7-14.3 32-32 32l-240 0c-17.7 0-32-14.3-32-32l0-213.5c0-8.5 3.4-16.6 9.4-22.6l90.5-90.5c6-6 14.1-9.4 22.6-9.4L384 32c17.7 0 32 14.3 32 32l0 304zM448 64c0-35.3-28.7-64-64-64L234.5 0c-17 0-33.3 6.7-45.3 18.7L98.7 109.3c-12 12-18.7 28.3-18.7 45.3L80 368c0 35.3 28.7 64 64 64l240 0c35.3 0 64-28.7 64-64l0-304zM240 64c-8.8 0-16 7.2-16 16l0 64c0 8.8 7.2 16 16 16s16-7.2 16-16l0-64c0-8.8-7.2-16-16-16zm64 0c-8.8 0-16 7.2-16 16l0 64c0 8.8 7.2 16 16 16s16-7.2 16-16l0-64c0-8.8-7.2-16-16-16zm64 0c-8.8 0-16 7.2-16 16l0 64c0 8.8 7.2 16 16 16s16-7.2 16-16l0-64c0-8.8-7.2-16-16-16zM32 112c0-8.8-7.2-16-16-16s-16 7.2-16 16L0 384c0 70.7 57.3 128 128 128l240 0c8.8 0 16-7.2 16-16s-7.2-16-16-16l-240 0c-53 0-96-43-96-96l0-272z"/></svg>