<svg xmlns="http://www.w3.org/2000/svg" viewBox="0 0 576 512"><!--! Font Awesome Pro 6.6.0 by @fontawesome - https://fontawesome.com License - https://fontawesome.com/license (Commercial License) Copyright 2024 Fonticons, Inc. --><path d="M400 280l0-40 0-16c0-8.8-7.2-16-16-16l-16 0-16 0-16 0-46.5 0c-53.8 0-97.5 43.6-97.5 97.5c0 5.3 .7 10.3 1.9 15C175.5 301.9 160 276 160 240c0-70.7 57.3-128 128-128l48 0 32 0 16 0c8.8 0 16-7.2 16-16l0-16 0-40c0-4.4 3.6-8 8-8c2.1 0 4 .8 5.5 2.2l128.8 122c1 1 1.6 2.3 1.6 3.8s-.6 2.8-1.6 3.8l-128.8 122c-1.5 1.4-3.5 2.2-5.5 2.2c-4.5 0-8-3.6-8-8zm-32-40l0 32 0 8c0 22.1 18 40 40 40c10.2 0 20.1-3.9 27.5-11L564.4 187c7.4-7 11.6-16.8 11.6-27s-4.2-20-11.6-27L435.6 11c-7.4-7-17.3-11-27.5-11C386 0 368 17.9 368 40l0 8 0 32-32 0-48 0c-88.4 0-160 71.6-160 160c0 93.4 82.8 134.8 100.6 142.6c2.2 1 4.6 1.4 7.1 1.4c11.2 0 20.3-9.1 20.3-20.3l0-.9c0-6.8-3.3-13.1-8.3-17.7c-9.5-8.6-23.7-24.1-23.7-39.7c0-36.1 29.3-65.5 65.5-65.5l46.5 0 16 0 16 0zM64 32C28.7 32 0 60.7 0 96L0 448c0 35.3 28.7 64 64 64l352 0c35.3 0 64-28.7 64-64l0-48c0-8.8-7.2-16-16-16s-16 7.2-16 16l0 48c0 17.7-14.3 32-32 32L64 480c-17.7 0-32-14.3-32-32L32 96c0-17.7 14.3-32 32-32l48 0c8.8 0 16-7.2 16-16s-7.2-16-16-16L64 32z"/></svg>