<svg xmlns="http://www.w3.org/2000/svg" viewBox="0 0 512 512"><!--! Font Awesome Pro 6.6.0 by @fontawesome - https://fontawesome.com License - https://fontawesome.com/license (Commercial License) Copyright 2024 Fonticons, Inc. --><path d="M243.5 37.3c8-3.4 17-3.4 25 0l176.7 75c11.3 4.8 18.9 15.5 18.8 27.6c-.5 94-39.4 259.8-195.5 334.5c-7.9 3.8-17.2 3.8-25.1 0C87.3 399.6 48.5 233.8 48 139.8c-.1-12.1 7.5-22.8 18.8-27.6l176.7-75zM281 7.8c-16-6.8-34-6.8-50 0L54.3 82.8c-22 9.3-38.4 31-38.3 57.2c.5 99.2 41.3 280.7 213.6 363.2c16.7 8 36.1 8 52.8 0C454.7 420.7 495.5 239.2 496 140c.1-26.2-16.3-47.9-38.3-57.2L281 7.8zM162.3 214.2c0-19.6 15.9-35.5 35.5-35.5c9.5 0 18.7 3.8 25.4 10.7l21.4 21.9c3 3.1 7.1 4.8 11.4 4.8s8.4-1.7 11.4-4.8l21.4-21.9c6.7-6.8 15.8-10.7 25.4-10.7c19.6 0 35.5 15.9 35.5 35.5l0 1.5c0 9.7-3.8 19-10.6 25.9L256 326.5l-83.1-84.9c-6.8-6.9-10.6-16.2-10.6-25.9l0-1.5zm35.5-67.5c-37.3 0-67.5 30.2-67.5 67.5l0 1.5c0 18.1 7.1 35.4 19.7 48.3l94.6 96.5c3 3.1 7.1 4.8 11.4 4.8s8.4-1.7 11.4-4.8L362 264c12.6-12.9 19.7-30.2 19.7-48.3l0-1.5c0-37.3-30.2-67.5-67.5-67.5c-18.1 0-35.5 7.3-48.2 20.3l-10 10.2-10-10.2c-12.7-13-30.1-20.3-48.2-20.3z"/></svg>