<svg xmlns="http://www.w3.org/2000/svg" viewBox="0 0 640 512"><!--! Font Awesome Pro 6.6.0 by @fontawesome - https://fontawesome.com License - https://fontawesome.com/license (Commercial License) Copyright 2024 Fonticons, Inc. --><path d="M110.3 73.4C124.3 47.9 151.2 32 180.4 32L192 32l4 0 28.3 0c4.1 49.3 45.3 88 95.7 88s91.6-38.7 95.7-88L444 32l4 0 11.6 0c29.2 0 56 15.9 70.1 41.4l66.4 120.7c7.8 14.2 11.9 30.1 11.9 46.3L608 368c0 8.8-7.2 16-16 16l-32 0c-8.8 0-16-7.2-16-16l0-127.6c0-5.4-1.4-10.7-4-15.4L481.2 118c-1.4-2.6-3.1-5.1-5-7.3c-4.4-5.1-11.4-6.9-17.7-4.5s-10.4 8.3-10.4 15L448 456c0 13.3-10.7 24-24 24l-208 0c-13.3 0-24-10.7-24-24l0-334.8c0-6.7-4.2-12.7-10.4-15s-13.3-.5-17.7 4.5c-1.9 2.2-3.6 4.6-5.1 7.3L100 225c-2.6 4.7-4 10-4 15.4L96 368c0 8.8-7.2 16-16 16l-32 0c-8.8 0-16-7.2-16-16l0-127.6c0-16.2 4.1-32.1 11.9-46.3L110.3 73.4zM180.4 0c-40.8 0-78.5 22.2-98.1 58L15.8 178.8C5.5 197.7 0 218.9 0 240.4L0 368c0 26.5 21.5 48 48 48l32 0c26.5 0 48-21.5 48-48l0-127.6 32-58.2L160 456c0 30.9 25.1 56 56 56l208 0c30.9 0 56-25.1 56-56l0-273.7 32 58.2L512 368c0 26.5 21.5 48 48 48l32 0c26.5 0 48-21.5 48-48l0-127.6c0-21.6-5.4-42.8-15.8-61.7L557.8 58C538.1 22.2 500.5 0 459.6 0L448 0l-4 0L407.6 0c-1.5 0-2.9 .1-4.2 .4c-1.1-.2-2.2-.4-3.4-.4L240 0c-1.2 0-2.3 .1-3.4 .4c-1.3-.2-2.8-.4-4.2-.4L196 0l-4 0L180.4 0zm76.1 32l127 0c-3.9 31.6-30.9 56-63.5 56s-59.6-24.4-63.5-56z"/></svg>