<svg xmlns="http://www.w3.org/2000/svg" viewBox="0 0 384 512"><!--! Font Awesome Pro 6.6.0 by @fontawesome - https://fontawesome.com License - https://fontawesome.com/license (Commercial License) Copyright 2024 Fonticons, Inc. --><path d="M96 16C96 7.2 88.8 0 80 0S64 7.2 64 16c0 134.3-29.3 192.6-45.6 214.6C9.5 242.5 0 259.2 0 278.2L0 456c0 30.9 25.1 56 56 56l272 0c30.9 0 56-25.1 56-56l0-177.8c0-19-9.5-35.7-18.4-47.6C349.3 208.6 320 150.3 320 16c0-8.8-7.2-16-16-16s-16 7.2-16 16l0 48c0 53-43 96-96 96s-96-43-96-96l0-48zM86.5 136.5C109.6 170 148.2 192 192 192s82.4-22 105.5-55.5c10.7 59.8 28.4 94.1 42.4 113.1c7.6 10.2 12.1 20 12.1 28.6L352 456c0 13.3-10.7 24-24 24L56 480c-13.3 0-24-10.7-24-24l0-177.8c0-8.6 4.6-18.4 12.1-28.6c14-19 31.7-53.3 42.4-113.1z"/></svg>