<svg xmlns="http://www.w3.org/2000/svg" viewBox="0 0 640 512"><!--! Font Awesome Pro 6.6.0 by @fontawesome - https://fontawesome.com License - https://fontawesome.com/license (Commercial License) Copyright 2024 Fonticons, Inc. --><path d="M55.2 33.7l64 32c7.9 4 11.1 13.6 7.2 21.5s-13.6 11.1-21.5 7.2l-64-32c-7.9-4-11.1-13.6-7.2-21.5s13.6-11.1 21.5-7.2zm544 28.6l-64 32c-7.9 4-17.5 .7-21.5-7.2s-.7-17.5 7.2-21.5l64-32c7.9-4 17.5-.7 21.5 7.2s.7 17.5-7.2 21.5zM16 192l64 0c8.8 0 16 7.2 16 16s-7.2 16-16 16l-64 0c-8.8 0-16-7.2-16-16s7.2-16 16-16zm544 0l64 0c8.8 0 16 7.2 16 16s-7.2 16-16 16l-64 0c-8.8 0-16-7.2-16-16s7.2-16 16-16zM492 320l-32.2 0L439.3 156c-2-16-15.6-28-31.8-28l-175 0c-16.1 0-29.8 12-31.8 28L180.2 320 148 320l21-167.9c4-32 31.2-56.1 63.5-56.1l175 0c32.3 0 59.5 24 63.5 56.1L492 320zm-250.1 0l14.2-114c1.1-8.8 9.1-15 17.9-13.9s15 9.1 13.9 17.9L274.1 320l-32.2 0zM496 384l-352 0c-8.8 0-16 7.2-16 16l0 32c0 8.8 7.2 16 16 16l352 0c8.8 0 16-7.2 16-16l0-32c0-8.8-7.2-16-16-16zM144 352l352 0c26.5 0 48 21.5 48 48l0 32c0 26.5-21.5 48-48 48l-352 0c-26.5 0-48-21.5-48-48l0-32c0-26.5 21.5-48 48-48z"/></svg>