<svg xmlns="http://www.w3.org/2000/svg" viewBox="0 0 640 512"><!--! Font Awesome Pro 6.6.0 by @fontawesome - https://fontawesome.com License - https://fontawesome.com/license (Commercial License) Copyright 2024 Fonticons, Inc. --><path d="M55.6 1.9c6.8 3.7 10 11.8 7.5 19.1L52 54.5c-2.5 7.5-3.4 15.4-2.6 23.2C52.3 106.3 76.3 128 105 128l79.4 0C202 108.4 227.6 96 256 96l128 0c28.4 0 54 12.4 71.6 32l79.4 0c28.7 0 52.7-21.7 55.6-50.3c.8-7.8-.1-15.8-2.6-23.2L576.8 21.1c-2.5-7.4 .7-15.4 7.5-19.1s15.3-2 20.1 4.1l7.5 9.3c18.2 22.7 28 50.9 28 80l0 16.7c0 70.7-57.3 128-128 128l-32 0 0 48c0 41.8-26.7 77.3-64 90.5l-26.4 87.9c-8.1 27.1-33 45.6-61.3 45.6l-16.8 0c-28.3 0-53.2-18.5-61.3-45.6L224 378.5c-37.3-13.2-64-48.7-64-90.5l0-48-32 0C57.3 240 0 182.7 0 112L0 95.3C0 66.2 9.9 38 28 15.3L35.5 6C40.3 0 48.8-1.8 55.6 1.9zM480 208l32 0c49.7 0 90.6-37.8 95.5-86.3C591.6 145 564.9 160 535 160l-60.4 0c3.5 10 5.5 20.8 5.5 32l0 16zM105 160c-29.9 0-56.6-15-72.5-38.3C37.4 170.2 78.3 208 128 208l32 0 0-16c0-11.2 1.9-22 5.5-32L105 160zM234.6 348.4c9.6 3.4 17 11.2 20 21L281 457.2c4.1 13.5 16.5 22.8 30.7 22.8l16.8 0c14.1 0 26.6-9.3 30.7-22.8l26.4-87.9c2.9-9.8 10.4-17.6 20-21c24.9-8.8 42.6-32.6 42.6-60.4l0-96c0-35.3-28.7-64-64-64l-128 0c-35.3 0-64 28.7-64 64l0 96c0 27.8 17.7 51.5 42.6 60.4zM232 256a24 24 0 1 1 48 0 24 24 0 1 1 -48 0zm152-24a24 24 0 1 1 0 48 24 24 0 1 1 0-48z"/></svg>