<svg xmlns="http://www.w3.org/2000/svg" viewBox="0 0 512 512"><!--! Font Awesome Pro 6.6.0 by @fontawesome - https://fontawesome.com License - https://fontawesome.com/license (Commercial License) Copyright 2024 Fonticons, Inc. --><path d="M151.2 1.7c7.9 4 11.1 13.6 7.2 21.5l-46.1 92.2c-3 6-2 13.2 2.6 18L176 199.3l0-47.3c0-32.2 19-59.9 46.3-72.6c7.7-3.6 16.8-.5 20.8 6.9L256 110.3l12.9-23.9c4-7.5 13.2-10.5 20.8-6.9C317 92.1 336 119.8 336 152l0 47.3 61.2-65.9c4.5-4.9 5.6-12.1 2.6-18L353.7 23.2c-4-7.9-.7-17.5 7.2-21.5s17.5-.7 21.5 7.2L428.4 101c8.9 17.9 5.9 39.5-7.8 54.1l-71.1 76.5 101.6-26.7c5.2-1.4 9.4-5.3 11.1-10.4l18.5-55.6c2.8-8.4 11.9-12.9 20.2-10.1s12.9 11.9 10.1 20.2l-18.5 55.6c-5.1 15.4-17.7 27.1-33.3 31.2L382.9 256l76.5 20.1c15.7 4.1 28.2 15.9 33.3 31.2l18.5 55.6c2.8 8.4-1.7 17.4-10.1 20.2s-17.4-1.7-20.2-10.1l-18.5-55.6c-1.7-5.1-5.9-9-11.1-10.4l-84-22.1L427 368.7c9.4 13.1 11.5 30.1 5.7 45.1l-33.8 87.9c-3.2 8.2-12.4 12.4-20.7 9.2s-12.4-12.4-9.2-20.7l33.8-87.9c1.9-5 1.2-10.7-1.9-15L367.9 341c-2.6 59.5-51.7 107-111.9 107s-109.3-47.5-111.9-107L111 387.3c-3.1 4.4-3.8 10-1.9 15l33.8 87.9c3.2 8.2-.9 17.5-9.2 20.7s-17.5-.9-20.7-9.2L79.2 413.8c-5.8-15.1-3.6-32 5.7-45.1L144.8 285l-84 22.1c-5.2 1.4-9.4 5.3-11.1 10.4L31.2 373.1c-2.8 8.4-11.9 12.9-20.2 10.1S-2 371.3 .8 362.9l18.5-55.6C24.5 292 37 280.2 52.7 276.1L129.1 256 52.7 235.9C37 231.8 24.5 220 19.3 204.6L.8 149.1c-2.8-8.4 1.7-17.4 10.1-20.2s17.4 1.7 20.2 10.1l18.5 55.6c1.7 5.1 5.9 9 11.1 10.4l101.6 26.7L91.4 155.1c-13.6-14.7-16.7-36.2-7.8-54.1L129.7 8.8c4-7.9 13.6-11.1 21.5-7.2zM270.1 151.6c-2.8 5.2-8.2 8.4-14.1 8.4s-11.3-3.2-14.1-8.4l-18.7-34.7c-9.4 8.8-15.2 21.3-15.2 35.1l0 104s0 0 0 0l0 .4c0 4.6-1.9 8.9-5.3 12C186.3 283 176 304.3 176 328l0 8c0 44.2 35.8 80 80 80s80-35.8 80-80l0-8c0-23.7-10.3-45-26.7-59.6c-3.4-3-5.3-7.4-5.3-12l0-.4s0 0 0 0l0-104c0-13.8-5.9-26.3-15.2-35.1l-18.7 34.7zM218.4 307.2c-1.6-2.1-2.4-4.6-2.4-7.2c0-6.6 5.4-12 12-12l56 0c6.6 0 12 5.4 12 12c0 2.6-.8 5.1-2.4 7.2L272 336l21.6 28.8c1.6 2.1 2.4 4.6 2.4 7.2c0 6.6-5.4 12-12 12l-56 0c-6.6 0-12-5.4-12-12c0-2.6 .8-5.1 2.4-7.2L240 336l-21.6-28.8z"/></svg>