<svg xmlns="http://www.w3.org/2000/svg" viewBox="0 0 512 512"><!--! Font Awesome Pro 6.6.0 by @fontawesome - https://fontawesome.com License - https://fontawesome.com/license (Commercial License) Copyright 2024 Fonticons, Inc. --><path d="M274.7 205.3l32 32c12.5 12.5 28.7 18.7 45.1 18.7c27.5 0 59.3-17 85.5-48.5C463.3 176.4 480 135.5 480 96c0-35.3-28.7-64-64-64c-39.5 0-80.4 16.7-111.5 42.6C273 100.9 256 132.7 256 160.1c0 16.4 6.3 32.6 18.7 45.1zm-22.6 22.6c-18.7-18.7-28.1-43.2-28.1-67.7C224 80 320 0 416 0c53 0 96 43 96 96c0 96-80 192-160.2 192c-24.5 0-49-9.4-67.7-28.1l-4.7-4.7L27.3 507.3c-6.2 6.2-16.4 6.2-22.6 0s-6.2-16.4 0-22.6L256.8 232.6l-4.7-4.7z"/></svg>