<svg xmlns="http://www.w3.org/2000/svg" viewBox="0 0 384 512"><!--! Font Awesome Pro 6.6.0 by @fontawesome - https://fontawesome.com License - https://fontawesome.com/license (Commercial License) Copyright 2024 Fonticons, Inc. --><path d="M0 0L32 0l0 83.8L128 110l0 33.2L11.8 111.4C4.8 109.5 0 103.2 0 96L0 0zM256 110l96-26.2L352 0l32 0 0 96c0 7.2-4.8 13.5-11.8 15.4L256 143.1l0-33.2zM192 32c8.8 0 16 7.2 16 16l0 176 96 0c8.8 0 16 7.2 16 16s-7.2 16-16 16l-112 0L80 256c-8.8 0-16-7.2-16-16s7.2-16 16-16l96 0 0-176c0-8.8 7.2-16 16-16zM144 320a16 16 0 1 1 0 32 16 16 0 1 1 0-32zM80 384a16 16 0 1 1 0 32 16 16 0 1 1 0-32zm144-48a16 16 0 1 1 32 0 16 16 0 1 1 -32 0zm-32 48a16 16 0 1 1 0 32 16 16 0 1 1 0-32zm-64 80a16 16 0 1 1 32 0 16 16 0 1 1 -32 0zm112-16a16 16 0 1 1 0 32 16 16 0 1 1 0-32zm112 16a16 16 0 1 1 32 0 16 16 0 1 1 -32 0zm-48-80a16 16 0 1 1 0 32 16 16 0 1 1 0-32zM0 464a16 16 0 1 1 32 0A16 16 0 1 1 0 464z"/></svg>