<svg xmlns="http://www.w3.org/2000/svg" viewBox="0 0 448 512"><!--! Font Awesome Pro 6.6.0 by @fontawesome - https://fontawesome.com License - https://fontawesome.com/license (Commercial License) Copyright 2024 Fonticons, Inc. --><path d="M64 64C46.3 64 32 78.3 32 96l0 320c0 17.7 14.3 32 32 32l320 0c17.7 0 32-14.3 32-32l0-320c0-17.7-14.3-32-32-32L64 64zM0 96C0 60.7 28.7 32 64 32l320 0c35.3 0 64 28.7 64 64l0 320c0 35.3-28.7 64-64 64L64 480c-35.3 0-64-28.7-64-64L0 96zM112 368l224 0c8.8 0 16 7.2 16 16s-7.2 16-16 16l-224 0c-8.8 0-16-7.2-16-16s7.2-16 16-16zm32-256c4.6 0 9 2 12 5.5l56 64c5.8 6.7 5.1 16.8-1.5 22.6s-16.8 5.1-22.6-1.5l-28-32L160 304c0 8.8-7.2 16-16 16s-16-7.2-16-16l0-133.4-28 32c-5.8 6.7-15.9 7.3-22.6 1.5s-7.3-15.9-1.5-22.6l56-64c3-3.5 7.4-5.5 12-5.5zm160 0c4.6 0 9 2 12 5.5l56 64c5.8 6.7 5.1 16.8-1.5 22.6s-16.8 5.1-22.6-1.5l-28-32L320 304c0 8.8-7.2 16-16 16s-16-7.2-16-16l0-133.4-28 32c-5.8 6.7-15.9 7.3-22.6 1.5s-7.3-15.9-1.5-22.6l56-64c3-3.5 7.4-5.5 12-5.5z"/></svg>