<svg xmlns="http://www.w3.org/2000/svg" viewBox="0 0 448 512"><!--! Font Awesome Pro 6.6.0 by @fontawesome - https://fontawesome.com License - https://fontawesome.com/license (Commercial License) Copyright 2024 Fonticons, Inc. --><path d="M384 64c17.7 0 32 14.3 32 32l0 320c0 17.7-14.3 32-32 32L64 448c-17.7 0-32-14.3-32-32L32 96c0-17.7 14.3-32 32-32l320 0zM64 32C28.7 32 0 60.7 0 96L0 416c0 35.3 28.7 64 64 64l320 0c35.3 0 64-28.7 64-64l0-320c0-35.3-28.7-64-64-64L64 32zM224 288a64 64 0 1 1 0-128 64 64 0 1 1 0 128zm-3.7 31.9l-39.1 36.3c-6.5 6-6.9 16.1-.8 22.6s16.1 6.9 22.6 .8l82.7-76.8c22-20.4 34.4-49 34.4-78.9c0-53-43-96-96-96s-96 43-96 96c0 51.8 41 94 92.3 95.9z"/></svg>