<svg xmlns="http://www.w3.org/2000/svg" viewBox="0 0 448 512"><!--! Font Awesome Pro 6.6.0 by @fontawesome - https://fontawesome.com License - https://fontawesome.com/license (Commercial License) Copyright 2024 Fonticons, Inc. --><path d="M64 64C46.3 64 32 78.3 32 96l0 320c0 17.7 14.3 32 32 32l320 0c17.7 0 32-14.3 32-32l0-320c0-17.7-14.3-32-32-32L64 64zM0 96C0 60.7 28.7 32 64 32l320 0c35.3 0 64 28.7 64 64l0 320c0 35.3-28.7 64-64 64L64 480c-35.3 0-64-28.7-64-64L0 96zm296 96c30.9 0 56 25.1 56 56l0 112c0 30.9-25.1 56-56 56c-25.1 0-48.8-11.5-64.4-31.3l-53.5-68.2-52.2 91.4c-4.4 7.7-14.2 10.3-21.8 6s-10.3-14.2-6-21.8l64-112c2.6-4.6 7.4-7.6 12.7-8s10.5 1.9 13.8 6.1L240 343.6l0-95.6c0-30.9 25.1-56 56-56zm24 168l0-112c0-13.3-10.7-24-24-24s-24 10.7-24 24l0 112c0 13.3 10.7 24 24 24s24-10.7 24-24zM232 152a24 24 0 1 0 -48 0 24 24 0 1 0 48 0zm-80 0a56 56 0 1 1 112 0 56 56 0 1 1 -112 0z"/></svg>