<svg xmlns="http://www.w3.org/2000/svg" viewBox="0 0 448 512"><!--! Font Awesome Pro 6.6.0 by @fontawesome - https://fontawesome.com License - https://fontawesome.com/license (Commercial License) Copyright 2024 Fonticons, Inc. --><path d="M384 64c17.7 0 32 14.3 32 32l0 320c0 17.7-14.3 32-32 32L64 448c-17.7 0-32-14.3-32-32L32 96c0-17.7 14.3-32 32-32l320 0zM64 32C28.7 32 0 60.7 0 96L0 416c0 35.3 28.7 64 64 64l320 0c35.3 0 64-28.7 64-64l0-320c0-35.3-28.7-64-64-64L64 32zm172 96l-24 0c-37.6 0-68 30.4-68 68c0 20.2 8.8 38.4 22.9 50.9C148.1 260.7 136 282.9 136 308c0 42 34 76 76 76l24 0c42 0 76-34 76-76c0-25.1-12.1-47.3-30.9-61.1c14-12.5 22.9-30.6 22.9-50.9c0-37.6-30.4-68-68-68zM212 232c-19.9 0-36-16.1-36-36s16.1-36 36-36l24 0c19.9 0 36 16.1 36 36s-16.1 36-36 36l-24 0s0 0 0 0zm0 32s0 0 0 0l24 0c24.3 0 44 19.7 44 44s-19.7 44-44 44l-24 0c-24.3 0-44-19.7-44-44s19.7-44 44-44z"/></svg>