<svg xmlns="http://www.w3.org/2000/svg" viewBox="0 0 448 512"><!--! Font Awesome Pro 6.6.0 by @fontawesome - https://fontawesome.com License - https://fontawesome.com/license (Commercial License) Copyright 2024 Fonticons, Inc. --><path d="M384 64c17.7 0 32 14.3 32 32l0 320c0 17.7-14.3 32-32 32L64 448c-17.7 0-32-14.3-32-32L32 96c0-17.7 14.3-32 32-32l320 0zM64 32C28.7 32 0 60.7 0 96L0 416c0 35.3 28.7 64 64 64l320 0c35.3 0 64-28.7 64-64l0-320c0-35.3-28.7-64-64-64L64 32zm168 98.2c-4.9-2.9-11-2.9-16-.1l-56 32c-7.7 4.4-10.3 14.2-6 21.8s14.2 10.3 21.8 6L208 171.6 208 352l-48 0c-8.8 0-16 7.2-16 16s7.2 16 16 16l64 0 64 0c8.8 0 16-7.2 16-16s-7.2-16-16-16l-48 0 0-208c0-5.7-3-11-8-13.8z"/></svg>