<svg xmlns="http://www.w3.org/2000/svg" viewBox="0 0 576 512"><!--! Font Awesome Pro 6.6.0 by @fontawesome - https://fontawesome.com License - https://fontawesome.com/license (Commercial License) Copyright 2024 Fonticons, Inc. --><path d="M512 64c17.7 0 32 14.3 32 32l0 320c0 17.7-14.3 32-32 32L64 448c-17.7 0-32-14.3-32-32L32 96c0-17.7 14.3-32 32-32l448 0zM64 32C28.7 32 0 60.7 0 96L0 416c0 35.3 28.7 64 64 64l448 0c35.3 0 64-28.7 64-64l0-320c0-35.3-28.7-64-64-64L64 32zM304 176l0 160c0 8.8 7.2 16 16 16l64 0c53 0 96-43 96-96s-43-96-96-96l-64 0c-8.8 0-16 7.2-16 16zm32 16l48 0c35.3 0 64 28.7 64 64s-28.7 64-64 64l-48 0 0-128zm-176.4 2.4c10.1-3.3 24.9-3.6 43.9-1.1c5.8 .8 23.7 3.8 29.2 5c8.6 2 17.2-3.4 19.2-12s-3.4-17.2-12-19.2c-6.8-1.6-25.8-4.7-32-5.5c-20.5-2.7-41-3.1-58 2.4c-18.2 5.9-32.3 18.7-36.6 40.1c-.1 .3-.1 .6-.1 .9c-1.6 11.1-.2 21.3 4.6 30.2c4.7 8.8 11.9 15 19.4 19.5c13.9 8.3 32.4 12.6 47.8 16.2l1.4 .3c17.3 4 31 7.4 40.1 12.8c4.2 2.5 6.4 4.9 7.6 7.1c1.1 2 2 5.1 1.2 10.6c-.7 4.6-2.3 7.5-4.2 9.5c-2 2.2-5.2 4.2-10.1 5.8c-10.3 3.3-25.6 3.6-44.5 1c-8.8-1.2-24-5.7-36.3-9.2c0 0 0 0 0 0c-2.7-.8-5.3-1.5-7.6-2.2c-8.5-2.4-17.4 2.5-19.8 11s2.5 17.4 11 19.8c1.8 .5 3.9 1.1 6.2 1.8c0 0 0 0 0 0c12.1 3.5 30.6 9 42 10.6c0 0 .1 0 .1 0c20.4 2.7 41.4 3.2 58.5-2.2c8.8-2.8 17.2-7.3 23.8-14.4c6.8-7.2 10.9-16.3 12.5-26.7c1.6-11.1 .2-21.3-4.6-30.2c-4.7-8.8-11.9-15-19.4-19.5c-13.9-8.3-32.4-12.6-47.8-16.2c0 0 0 0 0 0l-1.4-.3c-17.3-4-31-7.4-40.1-12.8c-4.2-2.5-6.4-4.9-7.6-7.1c-1-1.9-1.9-4.9-1.2-10.1c1.8-8.2 6.3-12.8 15.1-15.6z"/></svg>