<svg xmlns="http://www.w3.org/2000/svg" viewBox="0 0 640 512"><!--! Font Awesome Pro 6.6.0 by @fontawesome - https://fontawesome.com License - https://fontawesome.com/license (Commercial License) Copyright 2024 Fonticons, Inc. --><path d="M544 272c0-8.8-7.2-16-16-16s-16 7.2-16 16l0 54 32 25.3 0-79.3zM385.1 224c19.8 0 37.8-6.5 52.3-17.3c4.7-3.5 9-7.4 12.9-11.7c3.9 4.3 8.3 8.3 13 11.8c14.5 10.7 32.5 17.2 52.2 17.2c4.1 0 8.1-.3 12.1-.8c55.5-7.4 81.8-72.5 52.1-119.4L522.3 13.1C517.2 5 508.1 0 498.4 0L141.6 0c-9.7 0-18.8 5-23.9 13.1l-.7 1.1 25.3 19.9 1.3-2.1 352.8 0 56.2 88.9s0 0 0 0c18.7 29.6 .3 66.6-29.2 70.6c-2.6 .3-5.2 .5-7.9 .5c-16.5 0-31.2-7.2-41.5-18.5c-6.1-6.7-14.7-10.5-23.7-10.5s-17.6 3.8-23.7 10.5c-10.2 11.2-24.8 18.4-41.4 18.4c-16.5 0-31.3-7.2-41.4-18.4c-6.1-6.7-14.7-10.5-23.7-10.5c-4 0-7.9 .8-11.6 2.2L382.7 224c.8 0 1.6 0 2.3 0zm-220.9-9.5l-29.7-23.4c-3.3 .6-6.7 .9-10.1 .9c-2.6 0-5.2-.2-7.9-.5c-20.7-2.8-35.9-22.1-36.6-43.5l-29-22.9c-12 43.2 14 91.7 61.3 98.1c4 .5 8.1 .8 12.1 .8c14.4 0 27.9-3.5 39.8-9.5zM378.8 384l-40.5-32L128 352l0-80c0-8.8-7.2-16-16-16s-16 7.2-16 16l0 80 0 16 0 16 0 64c0 35.3 28.7 64 64 64l320 0c15.9 0 30.4-5.8 41.6-15.3L495.4 476c-4.6 2.5-9.8 4-15.4 4l-320 0c-17.7 0-32-14.3-32-32l0-64 250.8 0zM25.9 3.4C19-2 8.9-.8 3.4 6.1S-.8 23.1 6.1 28.6l608 480c6.9 5.5 17 4.3 22.5-2.6s4.3-17-2.6-22.5L25.9 3.4z"/></svg>