<svg xmlns="http://www.w3.org/2000/svg" viewBox="0 0 512 512"><!--! Font Awesome Pro 6.6.0 by @fontawesome - https://fontawesome.com License - https://fontawesome.com/license (Commercial License) Copyright 2024 Fonticons, Inc. --><path d="M130.7 278.6l-15.4 15.4-12.7-12.7c-12.5-12.5-32.8-12.5-45.3 0l-16 16c-9.4 9.4-12 23.5-6.6 35.6l23.1 51.9L9.4 433.4c-12.5 12.5-12.5 32.8 0 45.3l24 24c12.5 12.5 32.8 12.5 45.3 0l48.5-48.5L179 477.2c12.1 5.4 26.3 2.7 35.6-6.6l16-16c12.5-12.5 12.5-32.8 0-45.3l-12.7-12.7 15.4-15.4-22.6-22.6-15.4 15.4-57.4-57.4 15.4-15.4-22.6-22.6zm227.9-67.9l22.6 22.6L491.1 123.5c7.9-7.9 12.8-18.4 13.9-29.6l7-76.5c.4-4.7-1.3-9.4-4.6-12.8s-8-5.1-12.8-4.6L418.1 7c-11.2 1-21.7 5.9-29.6 13.9L278.6 130.7l22.6 22.6L411.1 43.5c2.6-2.6 6.1-4.3 9.9-4.6l57.3-5.2L473.1 91c-.3 3.7-2 7.2-4.6 9.9L358.6 210.7zM64 320l16-16L208 432l-16 16-62-27.5c-6-2.7-13.1-1.4-17.8 3.3L56 480 32 456l56.2-56.2c4.7-4.7 6-11.8 3.3-17.8L64 320zM38.9 91L33.7 33.7 91 38.9c3.7 .3 7.2 2 9.9 4.6L354.7 297.4l22.6-22.6L123.5 20.9C115.6 12.9 105.1 8 93.9 7L17.4 .1C12.7-.4 8 1.3 4.7 4.7S-.4 12.7 .1 17.4L7 93.9c1 11.2 5.9 21.7 13.9 29.6L274.7 377.4l22.6-22.6L43.5 100.9c-2.6-2.6-4.3-6.1-4.6-9.9zM409.4 281.4l-128 128c-12.5 12.5-12.5 32.8 0 45.3l16 16c9.4 9.4 23.5 12 35.6 6.6l51.9-23.1 48.5 48.5c12.5 12.5 32.8 12.5 45.3 0l24-24c12.5-12.5 12.5-32.8 0-45.3l-48.5-48.5L477.2 333c5.4-12.1 2.7-26.3-6.6-35.6l-16-16c-12.5-12.5-32.8-12.5-45.3 0zM432 304l16 16-27.5 62c-2.7 6.1-1.4 13.1 3.3 17.8L480 456l-24 24-56.2-56.2c-4.7-4.7-11.8-6-17.8-3.3L320 448l-16-16L432 304z"/></svg>