<svg xmlns="http://www.w3.org/2000/svg" viewBox="0 0 640 512"><!--! Font Awesome Pro 6.6.0 by @fontawesome - https://fontawesome.com License - https://fontawesome.com/license (Commercial License) Copyright 2024 Fonticons, Inc. --><path d="M309.8 3.7c5.9-4.9 14.6-4.9 20.5 0l121 100.8C469.5 119.7 480 142.2 480 166l0 78.1 53.3-48c6.1-5.5 15.3-5.5 21.4 0l69.4 62.5c10.1 9.1 15.9 22.1 15.9 35.7L640 448c0 35.3-28.7 64-64 64l-112 0-80 0-32 0-64 0-32 0-80 0L64 512c-35.3 0-64-28.7-64-64L0 294.3c0-13.6 5.8-26.6 15.9-35.7l69.4-62.5c6.1-5.5 15.3-5.5 21.4 0l53.3 48 0-78.1c0-23.7 10.5-46.3 28.8-61.5L309.8 3.7zM480 480l96 0c17.7 0 32-14.3 32-32l0-153.7c0-4.5-1.9-8.9-5.3-11.9L544 229.5l-58.7 52.8c-3.4 3-5.3 7.4-5.3 11.9L480 480zM448 166c0-14.2-6.3-27.8-17.3-36.9L320 36.8 209.3 129.1C198.3 138.2 192 151.7 192 166l0 128.3L192 480l64 0 0-96c0-35.3 28.7-64 64-64s64 28.7 64 64l0 96 64 0 0-185.7L448 166zM352 384c0-17.7-14.3-32-32-32s-32 14.3-32 32l0 96 64 0 0-96zM160 294.3c0-4.5-1.9-8.9-5.3-11.9L96 229.5 37.3 282.4c-3.4 3-5.3 7.4-5.3 11.9L32 448c0 17.7 14.3 32 32 32l96 0 0-185.7zM351.5 138.8l26-.2c17-.2 27.5 18.4 18.6 32.9L383.4 192 396 212.6c8.9 14.5-1.6 33-18.6 32.9l-26-.2-12.9 21.9c-8.3 14.2-28.9 14.2-37.3 0l-12.9-21.9-26 .2c-17 .2-27.5-18.4-18.6-32.9L256.6 192 244 171.4c-8.9-14.5 1.6-33 18.6-32.9l26 .2 12.9-21.9c8.3-14.2 28.9-14.2 37.3 0l12.9 21.9zM308 159.3c-2.5 4.2-7 6.8-11.9 6.7l-23.7-.2 11.7 19.1c2.7 4.4 2.7 9.9 0 14.2l-11.7 19.1 23.7-.2c4.9 0 9.4 2.5 11.9 6.7l12 20.5 12-20.5c2.5-4.2 7-6.8 11.9-6.7l23.7 .2-11.7-19.1c-2.7-4.4-2.7-9.9 0-14.2l11.7-19.1-23.7 .2c-4.9 0-9.4-2.5-11.9-6.7l-12-20.5-12 20.5z"/></svg>