<svg xmlns="http://www.w3.org/2000/svg" viewBox="0 0 512 512"><!--! Font Awesome Pro 6.6.0 by @fontawesome - https://fontawesome.com License - https://fontawesome.com/license (Commercial License) Copyright 2024 Fonticons, Inc. --><path d="M191.6 64L80 64c-8.8 0-16 7.2-16 16s7.2 16 16 16l88.2 0L115.8 224 16 224c-8.8 0-16 7.2-16 16s7.2 16 16 16l86.7 0 34.6 0 237.4 0 34.6 0 86.7 0c8.8 0 16-7.2 16-16s-7.2-16-16-16l-99.8 0L343.8 96 432 96c8.8 0 16-7.2 16-16s-7.2-16-16-16L320.4 64c-.2 0-.5 0-.7 0L192.4 64c-.2 0-.5 0-.7 0zM309.3 96l52.4 128-211.2 0L202.7 96l106.5 0zM89.6 288L33.2 425.9c-3.3 8.2 .6 17.5 8.8 20.9s17.5-.6 20.9-8.8L124.2 288l-34.6 0zm332.8 0l-34.6 0 61.4 150.1c3.3 8.2 12.7 12.1 20.9 8.8s12.1-12.7 8.8-20.9L422.4 288z"/></svg>