<svg xmlns="http://www.w3.org/2000/svg" viewBox="0 0 576 512"><!--! Font Awesome Pro 6.6.0 by @fontawesome - https://fontawesome.com License - https://fontawesome.com/license (Commercial License) Copyright 2024 Fonticons, Inc. --><path d="M328 113.5s0 0 0 0s0 0 0 0c0-.1-.1-1.1-.6-3.1c-.6-2.3-1.7-5.3-3.2-8.9c-3.2-7.4-7.9-16-13.7-25.3c-7-11.3-15-22.6-22.4-32.6c-7.4 10-15.4 21.3-22.4 32.6c-5.8 9.3-10.5 17.9-13.7 25.3c-1.6 3.6-2.6 6.6-3.2 8.9c-.5 2-.6 3-.6 3.1c0 0 0 0 0 0s0 0 0 0c0 17.7 15.9 35.5 40 35.5s40-17.8 40-35.5zm32 0c0 37.3-32.2 67.5-72 67.5s-72-30.2-72-67.5c0-27.7 39.7-81.3 60.2-107c6.1-7.7 17.5-7.7 23.7 0c20.4 25.7 60.2 79.3 60.2 107zM64 128l129.3 0c1.9 11.5 5.9 22.3 11.5 32L64 160c-17.7 0-32 14.3-32 32l0 256c0 17.7 14.3 32 32 32l320 0 0-112c0-26.5 21.5-48 48-48l112 0 0-128c0-17.7-14.3-32-32-32l-140.8 0c5.6-9.7 9.6-20.5 11.5-32L512 128c35.3 0 64 28.7 64 64l0 156.1c0 12.7-5.1 24.9-14.1 33.9L446.1 497.9c-9 9-21.2 14.1-33.9 14.1L64 512c-35.3 0-64-28.7-64-64L0 192c0-35.3 28.7-64 64-64zM423.4 475.3L539.3 359.4c2.1-2.1 3.5-4.6 4.2-7.4L432 352c-8.8 0-16 7.2-16 16l0 111.5c2.8-.7 5.4-2.1 7.4-4.2zM96 200a24 24 0 1 1 0 48 24 24 0 1 1 0-48z"/></svg>