<svg xmlns="http://www.w3.org/2000/svg" viewBox="0 0 576 512"><!--! Font Awesome Pro 6.6.0 by @fontawesome - https://fontawesome.com License - https://fontawesome.com/license (Commercial License) Copyright 2024 Fonticons, Inc. --><path d="M203.9 117.3c-5.9-6.6-16-7.1-22.6-1.2l-53.3 48L128 16c0-8.8-7.2-16-16-16s-16 7.2-16 16l0 148.1-53.3-48c-6.6-5.9-16.7-5.4-22.6 1.2s-5.4 16.7 1.2 22.6l80 72c6.1 5.5 15.3 5.5 21.4 0l80-72c6.6-5.9 7.1-16 1.2-22.6zm352 0c-5.9-6.6-16-7.1-22.6-1.2l-53.3 48L480 16c0-8.8-7.2-16-16-16s-16 7.2-16 16l0 148.1-53.3-48c-6.6-5.9-16.7-5.4-22.6 1.2s-5.4 16.7 1.2 22.6l80 72c6.1 5.5 15.3 5.5 21.4 0l80-72c6.6-5.9 7.1-16 1.2-22.6zM297.5 163.1c-5.7-4.2-13.4-4.2-19 0L105.4 291c-10.5 7.8-17.4 19.5-19.1 32.4L68.8 457.8C65.1 486.5 87.5 512 116.4 512l343.1 0c29 0 51.3-25.5 47.6-54.2L489.6 323.4c-1.7-12.9-8.6-24.6-19.1-32.4l-173-127.9zM124.5 316.8L272 207.7l0 112 0 .5L272 480l-155.6 0c-9.7 0-17.1-8.5-15.9-18.1l17.5-134.4c.6-4.3 2.9-8.2 6.4-10.8zM304 315.4l0-107.7L451.5 316.8c3.5 2.6 5.8 6.5 6.4 10.8l17.5 134.4c1.2 9.6-6.2 18.1-15.9 18.1l-53.7 0-.3-.4L304 315.4zM304 480l0-103.8L368.2 480 304 480z"/></svg>