<svg xmlns="http://www.w3.org/2000/svg" viewBox="0 0 512 512"><!--! Font Awesome Pro 6.6.0 by @fontawesome - https://fontawesome.com License - https://fontawesome.com/license (Commercial License) Copyright 2024 Fonticons, Inc. --><path d="M229.8 32c-8.2 0-15.1 6.3-15.9 14.5l-.3 3.1c-.6 6.6-5.2 12.1-11.6 13.9c-15.5 4.3-30.2 10.5-43.9 18.2c-5.8 3.2-12.9 2.6-18-1.6l-2.4-2c-6.4-5.2-15.7-4.8-21.5 1L79.1 116.1c-5.8 5.8-6.3 15.1-1 21.5l2 2.4c4.2 5.1 4.8 12.3 1.6 18c-7.7 13.7-13.9 28.4-18.2 43.9c-1.8 6.4-7.3 11-13.9 11.6l-3.1 .3c-8.2 .8-14.5 7.7-14.5 15.9l0 52.4c0 8.2 6.3 15.1 14.5 15.9l3.1 .3c6.6 .6 12.1 5.2 13.9 11.6c4.3 15.5 10.5 30.2 18.2 43.9c3.2 5.8 2.6 12.9-1.6 18l-2 2.4c-5.2 6.4-4.8 15.7 1 21.5l37.1 37.1c5.8 5.8 15.1 6.3 21.5 1l2.4-2c5.1-4.2 12.3-4.8 18-1.6c13.7 7.7 28.4 13.9 43.9 18.2c6.4 1.8 11 7.3 11.6 13.9l.3 3.1c.8 8.2 7.7 14.5 15.9 14.5l52.4 0c8.2 0 15.1-6.3 15.9-14.5l.3-3.1c.6-6.6 5.2-12.1 11.6-13.9c15.5-4.3 30.2-10.5 43.9-18.2c5.8-3.2 12.9-2.6 18 1.6l2.4 2c6.4 5.2 15.7 4.8 21.5-1l37.1-37.1c5.8-5.8 6.3-15.1 1-21.5l-2-2.4c-4.2-5.1-4.8-12.3-1.6-18c7.7-13.7 13.9-28.4 18.2-43.9c1.8-6.4 7.3-11 13.9-11.6l3.1-.3c8.2-.8 14.5-7.7 14.5-15.9l0-52.4c0-8.2-6.3-15.1-14.5-15.9l-3.1-.3c-6.6-.6-12.1-5.2-13.9-11.6c-4.3-15.5-10.5-30.2-18.2-43.9c-3.2-5.8-2.6-12.9 1.6-18l2-2.4c5.2-6.4 4.8-15.7-1-21.5L395.8 79.1c-5.8-5.8-15.1-6.3-21.5-1L372 80c-5.1 4.2-12.3 4.8-18 1.6c-13.7-7.7-28.4-13.9-43.9-18.2c-6.4-1.8-11-7.3-11.6-13.9l-.3-3.1c-.8-8.2-7.7-14.5-15.9-14.5l-52.4 0zm-46.4 3.6C188.9 14.9 207.7 0 229.8 0l52.4 0c22 0 40.9 14.9 46.4 35.6c11 3.6 21.7 8.1 31.9 13.2c18.5-10.7 42.4-8 58 7.6l37.1 37.1c15.6 15.6 18.3 39.4 7.6 58c5.2 10.2 9.6 20.9 13.2 31.9c20.7 5.5 35.6 24.3 35.6 46.4l0 52.4c0 22-14.9 40.9-35.6 46.4c-3.6 11-8.1 21.7-13.2 31.9c10.7 18.5 8 42.4-7.6 58l-37.1 37.1c-15.6 15.6-39.4 18.3-58 7.6c-10.2 5.2-20.9 9.6-31.9 13.2c-5.5 20.7-24.3 35.6-46.4 35.6l-52.4 0c-22 0-40.9-14.9-46.4-35.6c-11-3.6-21.7-8.1-31.9-13.2c-18.5 10.7-42.4 8-58-7.6L56.4 418.5c-15.6-15.6-18.3-39.5-7.6-58c-5.2-10.2-9.6-20.9-13.2-31.9C14.9 323.1 0 304.3 0 282.2l0-52.4c0-22 14.9-40.9 35.6-46.4c3.6-11 8.1-21.7 13.2-31.9c-10.7-18.5-8-42.4 7.6-58L93.5 56.4c15.6-15.6 39.5-18.3 58-7.6c10.2-5.2 20.9-9.6 31.9-13.2zM96 256a160 160 0 1 1 320 0A160 160 0 1 1 96 256zM256 384a128 128 0 1 0 0-256 128 128 0 1 0 0 256zm0-224a24 24 0 1 1 0 48 24 24 0 1 1 0-48zm-75.9 96.6a24 24 0 1 1 14.8-45.7 24 24 0 1 1 -14.8 45.7zm167.2-30.2a24 24 0 1 1 -45.7 14.8 24 24 0 1 1 45.7-14.8zm-29.6 73.8a24 24 0 1 1 -38.8 28.2 24 24 0 1 1 38.8-28.2zM199.6 333.7a24 24 0 1 1 28.2-38.8 24 24 0 1 1 -28.2 38.8z"/></svg>