<svg xmlns="http://www.w3.org/2000/svg" viewBox="0 0 512 512"><!--! Font Awesome Pro 6.6.0 by @fontawesome - https://fontawesome.com License - https://fontawesome.com/license (Commercial License) Copyright 2024 Fonticons, Inc. --><path d="M32 460.2c0 10.9 8.9 19.8 19.8 19.8l80.2 0L380 480l80.2 0c10.9 0 19.8-8.9 19.8-19.8c0-3.1-.7-6.1-2.1-8.8L460.2 416c-5.6-11.1-5.5-23.9-.6-34.7c13-28.4 20.3-60 20.3-93.3C480 164.3 379.7 64 256 64S32 164.3 32 288c0 33.4 7.3 65 20.3 93.3c5 10.8 5 23.6-.6 34.7L34.1 451.4 5.8 437.3l28.3 14.1c-1.4 2.7-2.1 5.8-2.1 8.8zM512 288c0 38.1-8.3 74.2-23.2 106.7c-1 2.2-1 4.8 .1 7l17.7 35.3c3.6 7.2 5.5 15.1 5.5 23.2c0 28.6-23.2 51.8-51.8 51.8L380 512 132 512l-80.2 0C23.2 512 0 488.8 0 460.2c0-8 1.9-16 5.5-23.2l17.7-35.3c1.1-2.2 1.1-4.8 .1-7C8.3 362.2 0 326.1 0 288C0 146.6 114.6 32 256 32s256 114.6 256 256zm-128 0c0-36.8-15.5-69.9-40.3-93.3l-38.2 52.6c9.1 11 14.5 25.2 14.5 40.6c0 1.4 0 2.7-.1 4l61.8 20.1c1.5-7.8 2.3-15.9 2.3-24.2zm-74.1 34.4c-8.6 13.5-22.1 23.5-38 27.6l0 65c44.3-5.5 81.5-33.6 99.8-72.4l-61.9-20.1zm-70 27.5c-15.8-4.1-29.3-14.1-37.9-27.5l-61.9 20.1c18.3 38.8 55.5 66.9 99.8 72.4l0-65zM128 288c0 8.3 .8 16.3 2.3 24.2L192.1 292c-.1-1.3-.1-2.7-.1-4c0-15.4 5.5-29.6 14.5-40.6l-10.1-13.9-28.1-38.7C143.5 218.1 128 251.2 128 288zm128-64c8.3 0 16.3 1.6 23.6 4.5l38.2-52.6C299.5 165.8 278.4 160 256 160s-43.5 5.8-61.8 15.9l28.1 38.8 10 13.8c7.3-2.9 15.3-4.5 23.6-4.5zM96 288a160 160 0 1 1 320 0A160 160 0 1 1 96 288zm192 0a32 32 0 1 0 -64 0 32 32 0 1 0 64 0z"/></svg>