<svg xmlns="http://www.w3.org/2000/svg" viewBox="0 0 320 512"><!--! Font Awesome Pro 6.6.0 by @fontawesome - https://fontawesome.com License - https://fontawesome.com/license (Commercial License) Copyright 2024 Fonticons, Inc. --><path d="M64 32C46.3 32 32 46.3 32 64l0 288c0 70.7 57.3 128 128 128s128-57.3 128-128l0-288c0-17.7-14.3-32-32-32L64 32zM0 64C0 28.7 28.7 0 64 0L256 0c35.3 0 64 28.7 64 64l0 288c0 88.4-71.6 160-160 160S0 440.4 0 352L0 64zM136 392a24 24 0 1 0 48 0 24 24 0 1 0 -48 0zm80 0a56 56 0 1 1 -112 0 56 56 0 1 1 112 0zM160 232a24 24 0 1 0 0 48 24 24 0 1 0 0-48zm0 80a56 56 0 1 1 0-112 56 56 0 1 1 0 112zM136 120a24 24 0 1 0 48 0 24 24 0 1 0 -48 0zm80 0a56 56 0 1 1 -112 0 56 56 0 1 1 112 0z"/></svg>