<svg xmlns="http://www.w3.org/2000/svg" viewBox="0 0 640 512"><!--! Font Awesome Pro 6.6.0 by @fontawesome - https://fontawesome.com License - https://fontawesome.com/license (Commercial License) Copyright 2024 Fonticons, Inc. --><path d="M320 32c2.8 0 5.4 1.4 6.8 3.8l264.5 432c1.5 2.5 1.6 5.6 .2 8.1s-4.1 4.1-7 4.1L56 480c-2.9 0-5.6-1.6-7-4.1s-1.4-5.6 .2-8.1l264-432c1.5-2.4 4-3.8 6.8-3.8zm34.1-12.9C346.8 7.2 333.9 0 320 0s-26.9 7.3-34.1 19.1l-264 432c-7.5 12.3-7.8 27.8-.8 40.4S41.5 512 56 512l528.5 0c14.5 0 27.8-7.8 34.9-20.4s6.8-28.1-.8-40.4L354.1 19.1zM312 224a24 24 0 1 0 0-48 24 24 0 1 0 0 48zm-37 48c9.9 0 18.6 6.6 21.2 16.2l5.9 21.8-46.5-26.8 1.8-2.4c4.2-5.5 10.7-8.8 17.6-8.8zm66.5 60.7l-14.4-52.9C320.7 256.3 299.3 240 275 240c-17 0-33 8-43.2 21.6l-12.6 16.8c-2.7 3.7-3.8 8.3-2.9 12.8s3.7 8.4 7.7 10.6l155.9 89.9-9.6 16c-3 4.9-3 11.1-.2 16.1s8.2 8.1 13.9 8.1l96 0c5.8 0 11.1-3.1 13.9-8.1s2.8-11.2-.2-16.1l-48-80c-2.9-4.8-8.1-7.8-13.7-7.8s-10.8 2.9-13.7 7.8l-21.9 36.6-54.8-31.6zm-124.6-12l-7.5 16.8-32 72c-3.6 8.1 0 17.5 8.1 21.1s17.5 0 21.1-8.1l24.5-55.2L272 392.9l0 23.1c0 8.8 7.2 16 16 16s16-7.2 16-16l0-32c0-5.5-2.8-10.6-7.5-13.6l-64-40-15.6-9.8zM451.7 400l-39.5 0L432 367.1 451.7 400z"/></svg>