<svg xmlns="http://www.w3.org/2000/svg" viewBox="0 0 448 512"><!--! Font Awesome Pro 6.6.0 by @fontawesome - https://fontawesome.com License - https://fontawesome.com/license (Commercial License) Copyright 2024 Fonticons, Inc. --><path d="M203.3 8.2c11.8-11 29.8-11 41.5 0c12.1 11.3 33.1 32.5 51.2 58.8c17.9 26 34.2 58.9 34.2 93.4c0 9.3-1.2 18.4-3.5 27c10.5 2.3 20.8 6.1 30.5 11.7c0 0 0 0 0 0c29.9 17.2 50.4 47.6 64.2 75.9c13.9 28.7 21.9 57.3 25.7 73.5c3.8 15.8-5.4 31.5-20.9 36.1c-16 4.8-44.9 12.2-76.8 14.6c-31.5 2.3-68.3-.1-98.2-17.2c-10.5-6-19.6-13.6-27.1-22.2c-7.5 8.7-16.6 16.2-27.1 22.2c-29.9 17.2-66.7 19.6-98.2 17.2c-31.9-2.4-60.9-9.8-76.8-14.6C6.3 380-2.9 364.4 .8 348.5c3.8-16.2 11.8-44.8 25.7-73.5c13.7-28.3 34.2-58.8 64.2-75.9c0 0 0 0 0 0c9.8-5.6 20.1-9.5 30.6-11.7c-2.3-8.6-3.5-17.7-3.5-27c0-34.4 16.4-67.4 34.2-93.4c18.1-26.3 39.1-47.5 51.2-58.8zM224 32.6c-11.4 10.7-29.8 29.6-45.6 52.5c-16.5 24-28.6 50.4-28.6 75.2c0 12 2.9 23.3 8.1 33.3c2.6 5 2.4 10.9-.6 15.7s-8.1 7.7-13.7 7.7c-12.6 0-25.4 3.2-37 9.9C84.9 239.4 68 263 55.3 289c-12.1 24.9-19.3 50.2-23 65.4c15.1 4.4 40.8 10.9 68.7 12.9c29.1 2.2 58.2-.6 79.9-13.1c12.8-7.3 22.6-17.9 28.8-30.1c2.7-5.3 8.2-8.7 14.2-8.7s11.5 3.3 14.2 8.7c6.3 12.2 16 22.8 28.8 30.1c21.7 12.5 50.8 15.2 79.9 13.1c27.8-2.1 53.6-8.5 68.7-12.9c-3.7-15.2-10.9-40.5-23-65.4c-12.6-26.1-29.6-49.7-51.3-62.1c-11.6-6.7-24.4-9.8-36.9-9.9c-5.6 0-10.8-2.9-13.7-7.7s-3.1-10.7-.6-15.7c5.2-10 8.1-21.3 8.1-33.3c0-24.9-12.1-51.3-28.6-75.2C253.9 62.3 235.4 43.4 224 32.6zM224 216a24 24 0 1 0 0 48 24 24 0 1 0 0-48zm56 24a56 56 0 1 1 -112 0 56 56 0 1 1 112 0zm-6.2 183.2c-8.2 35.9-22.6 61.3-30.9 73.9c-9.1 13.7-28.8 13.7-37.9 0c-8.3-12.5-22.7-38-30.9-73.9c10.3-3.1 20.4-7.2 30-12.5c4.8 24 12.9 42.9 19.8 55.8c6.9-12.9 15-31.7 19.8-55.7c9.7 5.3 19.8 9.4 30 12.5zM9.9 105.4c14.7-1.9 44.2-2.8 82.7 10c-2.6 10.4-4.2 21.2-4.5 32.3c-25.6-9.3-46.4-11.4-60.4-11.3c6.4 11.1 17.2 26.4 35 42.3c-9.1 6.1-17.4 13.1-24.9 20.6C10.4 173.6-2.5 149.3-8 136.3c-5.8-13.8 3-29.1 17.9-31zm375.4 73.3c17.8-16 28.7-31.2 35.1-42.4c-14 0-34.9 2.1-60.4 11.3c-.3-11.1-2-21.9-4.5-32.3c38.5-12.8 68-11.8 82.7-10c14.9 1.9 23.7 17.1 17.9 30.9c-5.5 13-18.4 37.4-45.9 63c-7.5-7.6-15.7-14.6-24.9-20.6z"/></svg>