<svg xmlns="http://www.w3.org/2000/svg" viewBox="0 0 640 512"><!--! Font Awesome Pro 6.6.0 by @fontawesome - https://fontawesome.com License - https://fontawesome.com/license (Commercial License) Copyright 2024 Fonticons, Inc. --><path d="M408 96c-13.3 0-24 10.7-24 24l0 264-133.5 0c-13.2-37.3-48.7-64-90.5-64s-77.4 26.7-90.5 64L16 384c-8.8 0-16 7.2-16 16s7.2 16 16 16l48 0c0 53 43 96 96 96s96-43 96-96l128 0c0 53 43 96 96 96s96-43 96-96l48 0c8.8 0 16-7.2 16-16s-7.2-16-16-16l-16 0 0-148.2c0-11.5-4.1-22.5-11.6-31.2l-78.7-91.8C508.6 102.1 495.3 96 481.3 96L408 96zm8 160l160 0 0 128-5.5 0c-13.2-37.3-48.7-64-90.5-64c-24.6 0-47 9.2-64 24.4l0-88.4zm154.9-32L416 224l0-96 65.3 0c4.7 0 9.1 2 12.1 5.6L570.9 224zM96 416a64 64 0 1 1 128 0A64 64 0 1 1 96 416zm384-64a64 64 0 1 1 0 128 64 64 0 1 1 0-128z"/></svg>