<svg xmlns="http://www.w3.org/2000/svg" viewBox="0 0 640 512"><!--! Font Awesome Pro 6.6.0 by @fontawesome - https://fontawesome.com License - https://fontawesome.com/license (Commercial License) Copyright 2024 Fonticons, Inc. --><path d="M432 0c-44.2 0-80 35.8-80 80l0 304c0 1.3 .2 2.5 .4 3.7L11.8 480.6C3.3 482.9-1.8 491.7 .6 500.2s11.1 13.6 19.6 11.2L416.1 403.6C417.9 463.8 467.3 512 528 512c61.9 0 112-50.1 112-112s-50.1-112-112-112c-51.2 0-94.4 34.4-107.7 81.3l-.5 .1L384 379.1 384 80c0-26.5 21.5-48 48-48l192 0c8.8 0 16-7.2 16-16s-7.2-16-16-16L432 0zm96 320a80 80 0 1 1 0 160 80 80 0 1 1 0-160zM84.9 191.2l14.5 54.1c3.4 12.8 16.6 20.4 29.4 17l46.4-12.4c12.8-3.4 20.4-16.6 17-29.4l-14.5-54.1 30.9-8.3L250 312.6 95.4 354 54 199.4l30.9-8.3zm30.9-8.3l30.9-8.3L159.2 221l-30.9 8.3-12.4-46.4zM45.7 168.5c-17.1 4.6-27.2 22.1-22.6 39.2L64.5 362.3c4.6 17.1 22.1 27.2 39.2 22.6l154.5-41.4c17.1-4.6 27.2-22.1 22.6-39.2L239.5 149.7c-4.6-17.1-22.1-27.2-39.2-22.6L45.7 168.5z"/></svg>