<svg xmlns="http://www.w3.org/2000/svg" viewBox="0 0 640 512"><!--! Font Awesome Pro 6.6.0 by @fontawesome - https://fontawesome.com License - https://fontawesome.com/license (Commercial License) Copyright 2024 Fonticons, Inc. --><path d="M448 160c0-17.7 14.3-32 32-32l56 0c15.1 0 29.3 7.1 38.4 19.2l56 74.7c6.2 8.3 9.6 18.4 9.6 28.8l0 5.3 0 48 0 56c0 19.4-13.7 35.5-32 39.2l0 .8c0 44.2-35.8 80-80 80s-80-35.8-80-80l-160 0c0 44.2-35.8 80-80 80c-26.2 0-49.4-12.6-64-32c-14.6 19.4-37.8 32-64 32c-44.2 0-80-35.8-80-80s35.8-80 80-80c26.2 0 49.4 12.6 64 32c14.6-19.4 37.8-32 64-32c32.8 0 61 19.7 73.3 48L448 368l0-112 0-16 0-16 0-64zm144 64l-43.2-57.6c-3-4-7.8-6.4-12.8-6.4l-56 0 0 64 112 0zm16 32l-128 0 0 80c13.4-10 30-16 48-16c32.8 0 60.9 19.7 73.3 47.9c3.8-.6 6.7-3.9 6.7-7.9l0-56 0-48zM528 448a48 48 0 1 0 0-96 48 48 0 1 0 0 96zM256 400a48 48 0 1 0 -96 0 48 48 0 1 0 96 0zM80 448a48 48 0 1 0 0-96 48 48 0 1 0 0 96z"/></svg>