<svg xmlns="http://www.w3.org/2000/svg" viewBox="0 0 640 512"><!--! Font Awesome Pro 6.6.0 by @fontawesome - https://fontawesome.com License - https://fontawesome.com/license (Commercial License) Copyright 2024 Fonticons, Inc. --><path d="M176 0c-.9 0-1.8 .1-2.7 .2C135.2 2.6 100.8 24.3 82.2 58L15.8 178.8C5.5 197.7 0 218.9 0 240.4L0 368c0 26.5 21.5 48 48 48l32 0c26.5 0 48-21.5 48-48l0-80 0-47.6 32-58.2L160 288l32 0 0-166.8c0-6.7-4.2-12.7-10.4-15s-13.3-.5-17.7 4.5c-1.9 2.2-3.6 4.6-5.1 7.3L100 225c-2.6 4.7-4 10-4 15.4L96 368c0 8.8-7.2 16-16 16l-32 0c-8.8 0-16-7.2-16-16l0-127.6c0-16.2 4.1-32.1 11.9-46.3L110.3 73.4C123.8 49 149 33.3 176.7 32.1c.4 0 .7 0 1.1-.1l52.3 0 72 144-56 112 35.8 0 52.4-104.8L409.9 32l52.3 0c.4 0 .7 .1 1.1 .1c27.7 1.3 53 16.9 66.4 41.4l66.4 120.7c7.8 14.2 11.9 30.1 11.9 46.3L608 368c0 8.8-7.2 16-16 16l-32 0c-8.8 0-16-7.2-16-16l0-127.6c0-5.4-1.4-10.7-4-15.4L481.2 118c-1.4-2.6-3.1-5.1-5-7.3c-4.4-5.1-11.4-6.9-17.7-4.5s-10.4 8.3-10.4 15L448 288l32 0 0-105.7 32 58.2 0 47.6 0 80c0 26.5 21.5 48 48 48l32 0c26.5 0 48-21.5 48-48l0-127.6c0-21.6-5.4-42.8-15.8-61.7L557.8 58c-18.5-33.7-53-55.4-91.1-57.8c-.9-.1-1.8-.2-2.7-.2L400 0 240 0 176 0zm89.9 32l108.2 0L320 140.2 265.9 32zM448 384l0 72c0 13.3-10.7 24-24 24l-208 0c-13.3 0-24-10.7-24-24l0-72-32 0 0 72c0 30.9 25.1 56 56 56l208 0c30.9 0 56-25.1 56-56l0-72-32 0zM144 336c0 8.8 7.2 16 16 16l130.1 0-47.4 71.1c-4.9 7.4-2.9 17.3 4.4 22.2s17.3 2.9 22.2-4.4l50.7-76 50.7 76c4.9 7.4 14.8 9.3 22.2 4.4s9.3-14.8 4.4-22.2L349.9 352 480 352c8.8 0 16-7.2 16-16s-7.2-16-16-16l-160 0-160 0c-8.8 0-16 7.2-16 16z"/></svg>