<svg xmlns="http://www.w3.org/2000/svg" viewBox="0 0 448 512"><!--! Font Awesome Pro 6.6.0 by @fontawesome - https://fontawesome.com License - https://fontawesome.com/license (Commercial License) Copyright 2024 Fonticons, Inc. --><path d="M230.9 .8l144 32c11.4 2.5 20.5 11.1 23.8 22.3s.2 23.3-8.1 31.6l-6.2-6.2 6.2 6.2L368 109.3l0 1.6c0 15.6-7.6 31.8-23.2 40.1c-22.5 12-59.5 25-120.8 25s-98.3-13.1-120.8-25C87.6 142.7 80 126.5 80 110.9l0-1.6L57.4 86.6C49.1 78.4 46 66.3 49.3 55.1s12.4-19.8 23.8-22.3l144-32c4.6-1 9.3-1 13.9 0zM80 64l27.3 27.3c3 3 4.7 7.1 4.7 11.3l0 8.2c0 5.8 2.8 10 6.2 11.8C135.8 132 167.6 144 224 144s88.2-12 105.8-21.3c3.4-1.8 6.2-6 6.2-11.8l0-8.2c0-4.2 1.7-8.3 4.7-11.3L368 64 224 32 80 64zm96 304c0-8.8 7.2-16 16-16l32 0 32 0c8.8 0 16 7.2 16 16s-7.2 16-16 16l-6.1 0 18.4 36.9 51.6-68.7C391.2 355.4 448 414.3 448 486.4c0 14.1-11.5 25.6-25.6 25.6L240 512l-32 0L25.6 512C11.5 512 0 500.5 0 486.4c0-72.1 56.8-131 128.1-134.3l51.6 68.7L198.1 384l-6.1 0c-8.8 0-16-7.2-16-16zm48 35.8l-22.9 45.7 2.9 3.8L224 480s0 0 0 0s0 0 0 0l20-26.7 2.9-3.8L224 403.8zM184 480l-70.4-93.9C69 395.3 35.1 433.4 32.2 480L184 480zm80 0l151.8 0c-2.9-46.6-36.8-84.7-81.4-93.9L264 480zM96 192c0-2.9 .1-5.8 .3-8.7c9.1 4.3 19.6 8.5 31.8 12.1c1.8 51.4 44.1 92.6 95.9 92.6s94.1-41.1 95.9-92.6c12.2-3.6 22.7-7.8 31.8-12.1c.2 2.9 .3 5.8 .3 8.7c0 70.7-57.3 128-128 128s-128-57.3-128-128zM183.2 65.7L224 86.1l40.8-20.4c7.9-4 17.5-.7 21.5 7.2s.7 17.5-7.2 21.5l-48 24c-4.5 2.3-9.8 2.3-14.3 0l-48-24c-7.9-4-11.1-13.6-7.2-21.5s13.6-11.1 21.5-7.2z"/></svg>