<svg xmlns="http://www.w3.org/2000/svg" viewBox="0 0 640 512"><!--! Font Awesome Pro 6.6.0 by @fontawesome - https://fontawesome.com License - https://fontawesome.com/license (Commercial License) Copyright 2024 Fonticons, Inc. --><path d="M96 80a48 48 0 1 1 96 0A48 48 0 1 1 96 80zm128 0A80 80 0 1 0 64 80a80 80 0 1 0 160 0zm96 80a64 64 0 1 1 0 128 64 64 0 1 1 0-128zm0 160a96 96 0 1 0 0-192 96 96 0 1 0 0 192zm-58.7 64l117.3 0c54.2 0 98.4 42.5 101.2 96l-319.7 0c2.8-53.5 47-96 101.2-96zm0-32C187.7 352 128 411.7 128 485.3c0 14.7 11.9 26.7 26.7 26.7l330.7 0c14.7 0 26.7-11.9 26.7-26.7C512 411.7 452.3 352 378.7 352l-117.3 0zM512 32a48 48 0 1 1 0 96 48 48 0 1 1 0-96zm0 128A80 80 0 1 0 512 0a80 80 0 1 0 0 160zm16 64c44.2 0 80 35.8 80 80c0 8.8 7.2 16 16 16s16-7.2 16-16c0-61.9-50.1-112-112-112l-84 0c2.6 10.2 4 21 4 32l80 0zm-336 0c0-11 1.4-21.8 4-32l-84 0C50.1 192 0 242.1 0 304c0 8.8 7.2 16 16 16s16-7.2 16-16c0-44.2 35.8-80 80-80l80 0z"/></svg>