<svg xmlns="http://www.w3.org/2000/svg" viewBox="0 0 448 512"><!--! Font Awesome Pro 6.6.0 by @fontawesome - https://fontawesome.com License - https://fontawesome.com/license (Commercial License) Copyright 2024 Fonticons, Inc. --><path d="M304 160l0-48c0-44.2-35.8-80-80-80s-80 35.8-80 80l0 48c0 40.1 29.5 73.3 68 79.1l0-15.1c0-6.6 5.4-12 12-12s12 5.4 12 12l0 15.1c38.5-5.8 68-39 68-79.1zM114.1 90.5C124.1 38.9 169.5 0 224 0s99.9 38.9 109.9 90.5c11 8.8 18.1 22.3 18.1 37.5l0 9.5c0 9.5 2.8 18.7 8.1 26.6l16.7 25.1c4.7 7.1 7.2 15.4 7.2 23.8c0 23.7-19.2 43-43 43l-59.3 0c-16.9 10.2-36.6 16-57.7 16s-40.9-5.8-57.7-16L107 256c-23.7 0-43-19.2-43-43c0-8.5 2.5-16.8 7.2-23.8l16.7-25.1c5.3-7.9 8.1-17.1 8.1-26.6l0-9.5c0-15.2 7.1-28.7 18.1-37.5zm219.7 91.9c-3.1 15.2-9.3 29.3-17.8 41.7l25.1 0c6.1 0 11-4.9 11-11c0-2.2-.6-4.3-1.8-6.1l-16.4-24.6zM132.1 224c-8.6-12.3-14.8-26.4-17.8-41.7L97.8 206.9c-1.2 1.8-1.8 3.9-1.8 6.1c0 6.1 4.9 11 11 11l25.1 0zM176 128a16 16 0 1 1 32 0 16 16 0 1 1 -32 0zm64 0a16 16 0 1 1 32 0 16 16 0 1 1 -32 0zm-7.5 39.5c2 2 6 5.3 10.7 8.1c4.9 2.9 9.4 4.4 12.8 4.4c6.6 0 12 5.4 12 12s-5.4 12-12 12c-9.5 0-18.3-3.8-24.8-7.6c-2.5-1.5-4.9-3.1-7.1-4.6C211.6 201 199 204 192 204c-6.6 0-12-5.4-12-12s5.4-12 12-12c2.1 0 12.9-1.9 23.5-12.5c4.7-4.7 12.3-4.7 17 0zM0 481.3c0-69.5 44-128.8 105.7-151.4c13.6-24.9 40-41.8 70.3-41.8l48 0 48 0c30.4 0 56.8 16.9 70.3 41.8C404 352.5 448 411.8 448 481.3c0 17-13.8 30.7-30.7 30.7L30.7 512C13.8 512 0 498.2 0 481.3zM176 320c-26.5 0-48 21.5-48 48l0 3.6c1.6-.8 3.3-1.5 5.1-2.3c17.6-7.6 42.5-15 74.9-16.9l0-32.5-32 0zm64 32.5c32.5 1.9 57.3 9.3 74.9 16.9c1.8 .8 3.5 1.5 5.1 2.3l0-3.6c0-26.5-21.5-48-48-48l-32 0 0 32.5zM224 384c-35.8 0-61.6 7.5-78.2 14.7c-8.3 3.6-14.4 7.1-18.2 9.7c-1.9 1.3-3.3 2.3-4.1 2.9c-.4 .3-.7 .5-.8 .7l-.1 .1c-4.7 4.1-11.4 5.2-17.1 2.6C99.7 412 96 406.3 96 400l0-30.3C58.1 391.9 32.5 432.9 32 480l176 0c0-8.8 7.2-16 16-16s16 7.2 16 16l176 0c-.5-47.1-26-88.1-64-110.3l0 30.3c0 6.3-3.7 12-9.5 14.6c-5.7 2.6-12.4 1.5-17.1-2.6c0 0 0 0 0 0s0 0 0 0l-.1-.1-.3-.2-.6-.4c-.8-.6-2.2-1.6-4.1-2.9c-3.8-2.5-9.9-6.1-18.2-9.7C285.6 391.5 259.8 384 224 384zm-16 32a16 16 0 1 1 32 0 16 16 0 1 1 -32 0z"/></svg>