<svg xmlns="http://www.w3.org/2000/svg" viewBox="0 0 448 512"><!--! Font Awesome Pro 6.6.0 by @fontawesome - https://fontawesome.com License - https://fontawesome.com/license (Commercial License) Copyright 2024 Fonticons, Inc. --><path d="M228.7 .7c-3.1-.9-6.3-.9-9.4 0l-208 64C4.6 66.8 0 73 0 80s4.6 13.2 11.3 15.3L32 101.7l0 71.7L.8 266.9C-.8 271.8 0 277.2 3 281.4s7.8 6.6 13 6.6l64 0c5.1 0 10-2.5 13-6.6s3.8-9.5 2.2-14.4L64 173.4l0-61.9 155.3 47.8c3.1 .9 6.3 .9 9.4 0l208-64C443.4 93.2 448 87 448 80s-4.6-13.2-11.3-15.3l-208-64zM224 127.3L70.4 80 224 32.7 377.6 80 224 127.3zM188.1 439.8c19.1 21.5 52.7 21.5 71.8 0l71.1-80c49.2 18 84.4 65 85 120.2L32 480c.5-55.2 35.7-102.3 85-120.2l71.1 80zM109.6 328.4C45.9 350 0 410.3 0 481.3c0 17 13.8 30.7 30.7 30.7l386.6 0c17 0 30.7-13.8 30.7-30.7c0-71-45.9-131.3-109.6-152.8c-10.9-3.7-22.7 .4-30.3 9L236 418.5c-6.4 7.2-17.6 7.2-23.9 0l-72.1-81.1c-7.6-8.6-19.4-12.7-30.3-9zM48 226.6L57.8 256l-19.6 0L48 226.6zm48-71.8L96 176c0 70.7 57.3 128 128 128s128-57.3 128-128l0-21.2-32 9.8 0 11.3c0 53-43 96-96 96s-96-43-96-96l0-11.3-32-9.8z"/></svg>