<svg xmlns="http://www.w3.org/2000/svg" viewBox="0 0 512 512"><!--! Font Awesome Pro 6.6.0 by @fontawesome - https://fontawesome.com License - https://fontawesome.com/license (Commercial License) Copyright 2024 Fonticons, Inc. --><path d="M0 48c0-8.8 7.2-16 16-16l16 0 32 0 128 0 32 0 16 0c8.8 0 16 7.2 16 16s-7.2 16-16 16l-16 0 0 202.8c-20.2 28.6-32 63.5-32 101.2l0-144L64 224l0 160c0 35.3 28.7 64 64 64s64-28.7 64-64l0-16c0 25.2 5.3 49.1 14.8 70.8C189.5 463.7 160.6 480 128 480c-53 0-96-43-96-96L32 64 16 64C7.2 64 0 56.8 0 48zM64 64l0 128 128 0 0-128L64 64zM368 480a112 112 0 1 0 0-224 112 112 0 1 0 0 224zm0-256a144 144 0 1 1 0 288 144 144 0 1 1 0-288zm67.3 100.7c6.2 6.2 6.2 16.4 0 22.6l-72 72c-6.2 6.2-16.4 6.2-22.6 0l-40-40c-6.2-6.2-6.2-16.4 0-22.6s16.4-6.2 22.6 0L352 385.4l60.7-60.7c6.2-6.2 16.4-6.2 22.6 0z"/></svg>