<svg xmlns="http://www.w3.org/2000/svg" viewBox="0 0 640 512"><!--! Font Awesome Pro 6.6.0 by @fontawesome - https://fontawesome.com License - https://fontawesome.com/license (Commercial License) Copyright 2024 Fonticons, Inc. --><path d="M144 352a112 112 0 1 0 0-224 112 112 0 1 0 0 224zM288 240c0 45.2-20.9 85.6-53.5 112l171 0C372.9 325.6 352 285.2 352 240c0-79.5 64.5-144 144-144s144 64.5 144 144s-64.5 144-144 144l-352 0C64.5 384 0 319.5 0 240S64.5 96 144 96s144 64.5 144 144zM496 352a112 112 0 1 0 0-224 112 112 0 1 0 0 224z"/></svg>