<svg xmlns="http://www.w3.org/2000/svg" viewBox="0 0 512 512"><!--! Font Awesome Pro 6.6.0 by @fontawesome - https://fontawesome.com License - https://fontawesome.com/license (Commercial License) Copyright 2024 Fonticons, Inc. --><path d="M415.1 413.7c-85.3 20-177.8 6.8-256.2-42.8c-13.5 21.4-24.2 44.4-31.9 68.2c36.5 25.8 81 40.9 129.1 40.9c62.2 0 118.5-25.4 159.1-66.3zm34-44c10.9-18.4 19.2-38.5 24.4-59.8c-72 12.5-148.4 1.8-217.2-35.5c-31 19.1-57.5 43.1-78.9 70.2c83.6 52.2 184.6 59.1 271.7 25zm30.1-93.4c.6-6.7 .9-13.4 .9-20.3c0-99.3-64.6-183.5-154.1-212.9c52.5 65.3 80.6 150 72.9 239.3c27.1 1.5 54.1-.6 80.3-6.2zM272.8 32.6c-5.5-.4-11.1-.6-16.8-.6c-21.5 0-42.3 3-62 8.7c46.8 56.1 75.7 127.6 77.9 205.8C302.4 263 334.5 273.7 367 279c8-95.3-29.1-184.8-94.2-246.4zM162 52.6C85.2 88.2 32 165.9 32 256c0 7.5 .4 14.9 1.1 22.1c34.4-69.3 92.8-127.1 169.6-159.7l3.7-1.6c-12-23.3-27-44.9-44.4-64.2zM45.3 332.3c11.8 32.5 30.9 61.5 55.3 85C125.7 348.8 173.2 288 239.9 247c-1-35.5-8.2-69.5-20.4-100.9l-4.4 1.9C131.4 183.5 71.8 252.2 45.3 332.3zM0 256a256 256 0 1 1 512 0A256 256 0 1 1 0 256z"/></svg>