<svg xmlns="http://www.w3.org/2000/svg" viewBox="0 0 640 512"><!--! Font Awesome Pro 6.6.0 by @fontawesome - https://fontawesome.com License - https://fontawesome.com/license (Commercial License) Copyright 2024 Fonticons, Inc. --><path d="M576 96L64 96c-17.7 0-32 14.3-32 32l0 256c0 17.7 14.3 32 32 32l136.4 0c12.1 0 23.2-6.8 28.6-17.7L268.2 320c9.8-19.6 29.9-32 51.8-32s42 12.4 51.8 32l-21.5 10.7L371.8 320l39.2 78.3c5.4 10.8 16.5 17.7 28.6 17.7L576 416c17.7 0 32-14.3 32-32l0-256c0-17.7-14.3-32-32-32zM64 64l512 0c35.3 0 64 28.7 64 64l0 256c0 35.3-28.7 64-64 64l-136.4 0c-24.2 0-46.4-13.7-57.2-35.4l-39.2-78.3c-4.4-8.8-13.4-14.3-23.2-14.3s-18.8 5.5-23.2 14.3l-39.2 78.3c-10.8 21.7-33 35.4-57.2 35.4L64 448c-35.3 0-64-28.7-64-64L0 128C0 92.7 28.7 64 64 64zM176 288a48 48 0 1 0 0-96 48 48 0 1 0 0 96zm0-128a80 80 0 1 1 0 160 80 80 0 1 1 0-160zm336 80a48 48 0 1 0 -96 0 48 48 0 1 0 96 0zm-128 0a80 80 0 1 1 160 0 80 80 0 1 1 -160 0z"/></svg>