<svg xmlns="http://www.w3.org/2000/svg" viewBox="0 0 512 512"><!--! Font Awesome Pro 6.6.0 by @fontawesome - https://fontawesome.com License - https://fontawesome.com/license (Commercial License) Copyright 2024 Fonticons, Inc. --><path d="M404.7 4.7c6.2-6.2 16.4-6.2 22.6 0C481.5 58.9 512 132.5 512 209.1l0 4C512 378.2 378.2 512 213.2 512l-4 0c-76.7 0-150.2-30.5-204.5-84.7c-6.2-6.2-6.2-16.4 0-22.6l400-400zm11 34.3L391 63.7c35.5 40.8 57 94 57 152.3c0 128.1-103.9 232-232 232c-58.3 0-111.6-21.5-152.3-57L39 415.6C85.8 457 146.3 480 209.1 480l4 0C360.5 480 480 360.5 480 213.2l0-4c0-62.8-23-123.3-64.4-170.2zM86.3 368.3C121.3 398 166.5 416 216 416c110.5 0 200-89.5 200-200c0-49.5-18-94.7-47.7-129.7L86.3 368.3zm261-203.6l16 16c6.2 6.2 6.2 16.4 0 22.6s-16.4 6.2-22.6 0l-16-16c-6.2-6.2-6.2-16.4 0-22.6s16.4-6.2 22.6 0zm-80 80l16 16c6.2 6.2 6.2 16.4 0 22.6s-16.4 6.2-22.6 0l-16-16c-6.2-6.2-6.2-16.4 0-22.6s16.4-6.2 22.6 0zm88 8l16 16c6.2 6.2 6.2 16.4 0 22.6s-16.4 6.2-22.6 0l-16-16c-6.2-6.2-6.2-16.4 0-22.6s16.4-6.2 22.6 0zm-168 72l16 16c6.2 6.2 6.2 16.4 0 22.6s-16.4 6.2-22.6 0l-16-16c-6.2-6.2-6.2-16.4 0-22.6s16.4-6.2 22.6 0zm88 8l16 16c6.2 6.2 6.2 16.4 0 22.6s-16.4 6.2-22.6 0l-16-16c-6.2-6.2-6.2-16.4 0-22.6s16.4-6.2 22.6 0z"/></svg>