<svg xmlns="http://www.w3.org/2000/svg" viewBox="0 0 640 512"><!--! Font Awesome Pro 6.6.0 by @fontawesome - https://fontawesome.com License - https://fontawesome.com/license (Commercial License) Copyright 2024 Fonticons, Inc. --><path d="M320 0c8.8 0 16 7.2 16 16l0 480c0 8.8-7.2 16-16 16s-16-7.2-16-16l0-480c0-8.8 7.2-16 16-16zM512 64c8.8 0 16 7.2 16 16l0 352c0 8.8-7.2 16-16 16s-16-7.2-16-16l0-352c0-8.8 7.2-16 16-16zM224 96c8.8 0 16 7.2 16 16l0 288c0 8.8-7.2 16-16 16s-16-7.2-16-16l0-288c0-8.8 7.2-16 16-16zm192 32c8.8 0 16 7.2 16 16l0 224c0 8.8-7.2 16-16 16s-16-7.2-16-16l0-224c0-8.8 7.2-16 16-16zM128 192c8.8 0 16 7.2 16 16l0 96c0 8.8-7.2 16-16 16s-16-7.2-16-16l0-96c0-8.8 7.2-16 16-16zM32 224c8.8 0 16 7.2 16 16l0 32c0 8.8-7.2 16-16 16s-16-7.2-16-16l0-32c0-8.8 7.2-16 16-16zm576 0c8.8 0 16 7.2 16 16l0 32c0 8.8-7.2 16-16 16s-16-7.2-16-16l0-32c0-8.8 7.2-16 16-16z"/></svg>