<svg xmlns="http://www.w3.org/2000/svg" viewBox="0 0 640 512"><!--! Font Awesome Pro 6.6.0 by @fontawesome - https://fontawesome.com License - https://fontawesome.com/license (Commercial License) Copyright 2024 Fonticons, Inc. --><path d="M240 121.2c-14.4 24-26.5 53.4-38.1 85.4c-5.2-15.2-10.8-30.6-16.7-45.8c8.3-20.2 17.3-39.2 27.3-56C237.1 63.8 270.7 32 320 32s82.9 31.8 107.4 72.8c24.3 40.5 42.2 93.8 59.4 145l.4 1.2c17.6 52.5 34.6 102.7 56.9 139.9c22.2 37 47.2 57.2 80 57.2c8.8 0 16 7.2 16 16s-7.2 16-16 16c-49.3 0-82.9-31.8-107.4-72.8c-24.3-40.5-42.2-93.8-59.4-145c0 0 0 0 0 0l-.4-1.2c-17.6-52.5-34.6-102.7-56.9-139.9C377.8 84.2 352.8 64 320 64s-57.8 20.2-80 57.2zm-89.3 230c-8.3 20.2-17.3 39.2-27.3 56C98.9 448.2 65.3 480 16 480c-8.8 0-16-7.2-16-16s7.2-16 16-16c32.8 0 57.8-20.2 80-57.2c14.4-24 26.5-53.4 38.1-85.4c5.2 15.2 10.8 30.6 16.7 45.8zM400 390.8c14.4-24 26.5-53.4 38.1-85.4c5.2 15.2 10.8 30.6 16.7 45.8c-8.3 20.2-17.3 39.2-27.3 56C402.9 448.2 369.3 480 320 480s-82.9-31.8-107.4-72.8c-24.3-40.5-42.2-93.8-59.4-145c0 0 0 0 0 0l-.4-1.2C135.2 208.6 118.3 158.4 96 121.2C73.8 84.2 48.8 64 16 64C7.2 64 0 56.8 0 48s7.2-16 16-16c49.3 0 82.9 31.8 107.4 72.8c24.3 40.5 42.2 93.8 59.4 145l.4 1.2c17.6 52.5 34.6 102.7 56.9 139.9c22.2 37 47.2 57.2 80 57.2s57.8-20.2 80-57.2zM544 121.2c-14.4 24-26.5 53.4-38.1 85.4c-5.2-15.2-10.8-30.6-16.7-45.8c8.3-20.2 17.3-39.2 27.3-56C541.1 63.8 574.7 32 624 32c8.8 0 16 7.2 16 16s-7.2 16-16 16c-32.8 0-57.8 20.2-80 57.2z"/></svg>