<svg xmlns="http://www.w3.org/2000/svg" viewBox="0 0 512 512"><!--! Font Awesome Pro 6.6.0 by @fontawesome - https://fontawesome.com License - https://fontawesome.com/license (Commercial License) Copyright 2024 Fonticons, Inc. --><path d="M480 64L430 406.9c-3.4 23.6-23.7 41.1-47.5 41.1l-253 0c-23.8 0-44.1-17.5-47.5-41.1L32 64l448 0zM32 32c-9.3 0-18.1 4-24.2 11.1S-1 59.4 .3 68.6l50 342.9c5.7 39.3 39.4 68.5 79.2 68.5l253 0c39.7 0 73.4-29.1 79.2-68.5l50-342.9c1.3-9.2-1.4-18.5-7.5-25.5S489.3 32 480 32L32 32zM255.4 195.3l.6-.6c-5-1.8-10.4-2.7-16-2.7l-96 0c-26.5 0-48 21.5-48 48l0 96c0 26.5 21.5 48 48 48l73.8 0-19-19c-4-4-7.6-8.4-10.6-13L144 352c-8.8 0-16-7.2-16-16l0-96c0-8.8 7.2-16 16-16l82.7 0 28.7-28.7zm67.9 45.3l56.6 56.6c6.2 6.2 6.2 16.4 0 22.6l-56.6 56.6c-6.2 6.2-16.4 6.2-22.6 0l-56.6-56.6c-6.2-6.2-6.2-16.4 0-22.6l56.6-56.6c6.2-6.2 16.4-6.2 22.6 0zm-45.3-22.6l-56.6 56.6c-18.7 18.7-18.7 49.1 0 67.9L278.1 399c18.7 18.7 49.1 18.7 67.9 0l56.6-56.6c18.7-18.7 18.7-49.1 0-67.9l-56.6-56.6c-18.7-18.7-49.1-18.7-67.9 0z"/></svg>