<svg xmlns="http://www.w3.org/2000/svg" viewBox="0 0 512 512"><!--! Font Awesome Pro 6.6.0 by @fontawesome - https://fontawesome.com License - https://fontawesome.com/license (Commercial License) Copyright 2024 Fonticons, Inc. --><path d="M31.3 43.3c-2.6-8.4-11.6-13.2-20-10.6S-1.9 44.3 .7 52.7L63.3 256 16 256c-8.8 0-16 7.2-16 16s7.2 16 16 16l57.1 0 55.6 180.7c2.1 6.8 8.4 11.4 15.6 11.3s13.3-5 15.2-11.8L208 288l96.1 0 48.5 180.2c1.9 6.9 8 11.7 15.2 11.8s13.5-4.5 15.6-11.3L438.9 288l57.1 0c8.8 0 16-7.2 16-16s-7.2-16-16-16l-47.3 0L511.3 52.7c2.6-8.4-2.1-17.4-10.6-20s-17.4 2.1-20 10.6L415.3 256l-86.7 0L271.5 43.8c-1.9-7-8.2-11.8-15.4-11.8s-13.6 4.9-15.4 11.8L183.4 256l-86.7 0L31.3 43.3zM106.6 288l68.2 0L143 406.3 106.6 288zm110-32L256 109.5 295.4 256l-78.9 0zm120.6 32l68.2 0L369 406.3 337.2 288z"/></svg>