<svg fill="none" height="24" viewBox="0 0 24 24" width="24" xmlns="http://www.w3.org/2000/svg" xmlns:xlink="http://www.w3.org/1999/xlink"><clipPath id="a"><path d="m0 5h24v14.02h-24z"/></clipPath><g clip-path="url(#a)" fill="#000"><path d="m15.952 11.0663c-.1618.1079-.4045.1888-.701.1888-.4584 0-.8898-.054-1.3212-.1888-.1078-.0269-.1887-.0539-.2426-.0539-.0809 0-.1079.0539-.1079.1618v.2696c0 .0809.027.1348.054.1887.0269.027.0809.0809.1617.1079.4314.1887.9167.2696 1.456.2696.5661 0 .9975-.1348 1.348-.4044s.5123-.6201.5123-1.0785c0-.3235-.0809-.56618-.2427-.78187-.1617-.18873-.4313-.37746-.8088-.51227l-.7549-.29658c-.2966-.10784-.5123-.21569-.5932-.32353-.1078-.10785-.1617-.2157-.1617-.40443 0-.40442.2965-.62011.9166-.62011.3505 0 .701.05392 1.0246.16177.1078.02696.1887.05392.2157.05392.0809 0 .1348-.05392.1348-.16177v-.26961c0-.08089-.027-.13481-.0539-.18873-.027-.05392-.0809-.08089-.1618-.10785-.4044-.1348-.8089-.21569-1.2133-.21569-.5122 0-.9436.13481-1.2672.37746-.3235.24265-.4853.59315-.4853.99758 0 .62011.3505 1.07845 1.0515 1.34807l.8089.29657c.2696.10785.4314.18877.5392.29657.1078.1079.1348.2157.1348.3775 0 .2157-.0809.4044-.2426.5122z"/><path d="m11.7189 7.18385v3.58585c-.4583.2966-.9166.4584-1.375.4584-.2966 0-.51226-.0809-.64707-.2427-.1348-.1618-.18873-.4044-.18873-.7549v-3.04665c0-.13481-.05392-.18873-.18873-.18873h-.56619c-.1348 0-.18873.05392-.18873.18873v3.34325c0 .4583.10785.8358.3505 1.0784.24265.2427.59315.3775 1.0515.3775.62015 0 1.24025-.2157 1.83335-.6471l.0539.3235c0 .0809.027.1079.0809.1349.027.0269.0809.0269.1618.0269h.4044c.1348 0 .1888-.0539.1888-.1887v-4.44865c0-.13481-.054-.18873-.1888-.18873h-.5662c-.1617 0-.2157.08088-.2157.18873z"/><path d="m6.59628 11.8482h.56619c.13481 0 .18873-.0539.18873-.1887v-3.37019c0-.45835-.10784-.80885-.35049-1.0515-.24266-.24265-.56619-.37746-1.02454-.37746-.62011 0-1.26719.21569-1.8873.67404-.21569-.45835-.62011-.67404-1.21327-.67404-.59315 0-1.1863.21569-1.77945.62012l-.05392-.29658c0-.08089-.02697-.10785-.080889-.13481-.026961-.02696-.080884-.02696-.134807-.02696h-.431383c-.134807 0-.18873.05392-.18873.18873v4.47565c0 .1348.053923.1887.18873.1887h.56619c.134809 0 .188729-.0539.188729-.1887v-3.63984c.45835-.26962.91669-.43139 1.402-.43139.26961 0 .45834.08089.56619.24266.10784.16176.18873.37746.18873.70099v3.10058c0 .1348.05392.1887.18873.1887h.56619c.1348 0 .18873-.0539.18873-.1887v-3.31627-.16177c0-.05392 0-.10784 0-.1348.4853-.29658.94365-.43139 1.40199-.43139.26962 0 .45835.08089.56619.24266.10785.16176.18873.37746.18873.70099v3.10058c0 .1348.05393.1887.18873.1887z"/><path d="m21.2903 15.4341c-2.9388 1.2403-6.1472 1.8604-9.059 1.8604-4.31386 0-8.49289-1.1863-11.863068-3.1545-.053923-.027-.107846-.0539-.161769-.0539-.1887302 0-.2965759.2157-.1078458.4044 3.1275228 2.8309 7.2795928 4.5295 11.8630828 4.5295 3.2892 0 7.0908-1.0245 9.7061-2.9658.4583-.3235.0809-.8088-.3775-.6201z"/><path d="m21.2094 8.07363c.2427-.26961.6201-.40442 1.1593-.40442.2697 0 .5393.02696.7819.10785.0809.02696.1079.02696.1618.02696.0809 0 .1348-.05392.1348-.18873v-.26962c0-.08088-.027-.16176-.0539-.18873-.027-.02696-.0809-.08088-.1348-.10784-.3505-.08089-.701-.16177-1.0246-.16177-.7549 0-1.3211.21569-1.7525.67404-.4044.43138-.6201 1.07845-.6201 1.8873 0 .80883.1888 1.42893.5932 1.86033s.9706.6471 1.7255.6471c.4044 0 .7819-.0539 1.0785-.1887.0809-.027.1348-.054.1617-.1079.027-.027.027-.1078.027-.1887v-.2696c0-.1348-.0539-.1888-.1348-.1888-.027 0-.0809 0-.1348.027-.2966.0809-.5932.1348-.8628.1348-.5122 0-.8897-.1348-1.1324-.4044-.2426-.2696-.3505-.701-.3505-1.26721v-.13481c.027-.59315.1348-1.02453.3775-1.29415z"/><path d="m22.4227 17.9685c1.402-1.1863 1.7794-3.6398 1.4829-4.0173-.1348-.1617-.7819-.3235-1.5908-.3235-.8627 0-1.8873.1887-2.6691.7279-.2427.1618-.1888.3775.0539.3505.8358-.1078 2.7231-.3235 3.0736.1079.3235.4314-.3775 2.2108-.701 2.9927-.0809.2427.1078.3235.3505.1618z"/><path d="m18.6751 6.99512h-.5662c-.1348 0-.1887.05392-.1887.18873v4.47555c0 .1349.0539.1888.1887.1888h.5662c.1348 0 .1887-.0539.1887-.1888v-4.47555c0-.10785-.0539-.18873-.1887-.18873z"/><path d="m18.8368 5.16177c-.1079-.10785-.2696-.16177-.4584-.16177-.1887 0-.3235.05392-.4314.16177-.1078.10784-.1617.24265-.1617.40442s.0539.32354.1617.40442c.1079.10785.2427.16177.4314.16177.1888 0 .3236-.05392.4314-.16177.1079-.10784.1618-.24265.1618-.40442s-.027-.32354-.1348-.40442z"/></g></svg>