<svg fill="none" height="24" viewBox="0 0 24 24" width="24" xmlns="http://www.w3.org/2000/svg" xmlns:xlink="http://www.w3.org/1999/xlink"><linearGradient id="a" gradientUnits="userSpaceOnUse" x1="12" x2="12" y1="0" y2="24"><stop offset="0" stop-color="#f452ff"/><stop offset="1" stop-color="#832bc1"/></linearGradient><clipPath id="b"><path d="m0 0h24v24h-24z"/></clipPath><g clip-path="url(#b)"><path clip-rule="evenodd" d="m23.528 20.8c-.232.592-.768 1.424-1.536 2.016-.44.336-.968.664-1.688.88-.768.232-1.72.304-2.904.304h-10.8c-1.184 0-2.128-.08-2.904-.304-.72-.216-1.248-.536-1.688-.88-.76-.584-1.304-1.424-1.536-2.016-.46400001-1.192-.472-2.544-.472-3.4v-10.8c0-.856.00799999-2.208.472-3.4.232-.592.768-1.424 1.536-2.016.44-.336.968-.664 1.688-.88.776-.224 1.72-.304 2.904-.304h10.8c1.184 0 2.128.08 2.904.304.72.216 1.248.536 1.688.88.76.584 1.304 1.424 1.536 2.016.472 1.192.472 2.552.472 3.4v10.8c0 .856-.008 2.208-.472 3.4z" fill="url(#a)" fill-rule="evenodd"/><g fill="#fff"><path d="m14.056 14.488c-.032-.288-.128-.496-.32-.688-.36-.376-.992-.624-1.736-.624s-1.376.24-1.736.624c-.184.2-.28796.4-.31996.688-.064.56-.024 1.04.04 1.816.06396.736.18396 1.72.33596 2.712.112.712.2 1.096.28 1.368.136.448.624.832 1.4.832s1.272-.392 1.4-.832c.08-.272.168-.656.28-1.368.152-1 .272-1.976.336-2.712.072-.776.104-1.256.04-1.816z"/><path d="m13.968 10.408c0 1.088-.88 1.968-1.968 1.968s-1.968-.88-1.968-1.968.88-1.968 1.968-1.968 1.968.888 1.968 1.968z"/><path d="m11.976 2.65599c-4.59196.016-8.35196 3.744-8.41596 8.33601-.048 3.72 2.328 6.904 5.648 8.072.08.032.16-.04.152-.12-.04-.288-.088-.576-.12-.864-.016-.104-.08-.184-.168-.232-2.624-1.144-4.456-3.776-4.424-6.824.04-4.00001 3.304-7.25601 7.29596-7.28801 4.088-.032 7.424 3.28 7.424 7.36001 0 3.016-1.824 5.608-4.424 6.752-.096.04-.16.128-.168.232-.04.288-.08.576-.12.864-.016.088.072.152.152.12 3.288-1.152 5.648-4.288 5.648-7.968-.016-4.65601-3.816-8.44801-8.48-8.44001z"/><path d="m11.784 5.45598c-2.99201.112-5.39201 2.58399-5.43201 5.57602-.024 1.968.96 3.712 2.472 4.744.072.048.176-.008.176-.096-.024-.344-.024-.648-.008-.968.008-.104-.032-.2-.112-.272-.92-.864-1.48-2.096-1.448-3.456.064-2.40002 1.992-4.35202 4.39201-4.44802 2.608-.104 4.752 1.992 4.752 4.56802 0 1.312-.56 2.496-1.448 3.336-.072.072-.112.168-.112.272.016.312.008.616-.008.96-.008.088.096.152.176.096 1.488-1.016 2.472-2.736 2.472-4.672.008-3.18402-2.656-5.76802-5.872-5.64002z"/></g></g></svg>