<svg fill="none" height="24" viewBox="0 0 24 24" width="24" xmlns="http://www.w3.org/2000/svg" xmlns:xlink="http://www.w3.org/1999/xlink"><linearGradient id="a" gradientUnits="userSpaceOnUse" x1="11.8356" x2="11.8356" y1="23.5795" y2=".510181"><stop offset="0" stop-color="#fa233b"/><stop offset="1" stop-color="#fb5c74"/></linearGradient><clipPath id="b"><path d="m0 0h24v24h-24z"/></clipPath><g clip-path="url(#b)" clip-rule="evenodd" fill-rule="evenodd"><path d="m23.6712 7.40384c0-.28274 0-.56548 0-.84822 0-.23672-.0033-.47672-.0098-.71343-.0132-.51945-.0461-1.04219-.1381-1.55507-.0921-.51945-.2466-1.00602-.4866-1.47945-.2367-.46356-.5457-.89096-.914-1.25918-.3682-.36822-.7956-.677257-1.2591-.913969-.4735-.24-.9568-.394521-1.4762-.486576-.5129-.0920546-1.0356-.1216436-1.5551-.13808199-.24-.00328767-.48-.00657534-.7167-.00986301-.2827 0-.5655 0-.8482 0h-8.86356c-.28274 0-.56548 0-.84822 0-.23672 0-.47672.00328767-.71343.00986301-.51945.01315069-1.04219.04602739-1.55507.13808199-.51945.095343-1.00602.246576-1.47616.489863-.46685.236713-.89096.545752-1.25918.913972s-.680547.79233-.917259 1.25918c-.24.47342-.394521.95671-.486576 1.47945-.0920546.51288-.1216436 1.03562-.13808199 1.55507-.00328767.23671-.00657534.47342-.00986301.71014v.84822 8.86026.8482c0 .2367.00328767.4767.00986301.7135.01315069.5194.04602739 1.0421.13808199 1.555.092055.5195.246576 1.006.486576 1.4795.236712.4635.545749.8909.913969 1.2592.36822.3682.79562.6772 1.25918.9139.47343.24.95671.3945 1.47617.4866.51287.0921 1.03561.1216 1.55506.1381.23672.0066.47672.0098.71343.0098.28274.0033.56548 0 .84822 0h8.86025.8482c.2368 0 .4768-.0032.7135-.0098.5194-.0132 1.0422-.046 1.555-.1381.5195-.0921 1.0061-.2466 1.4762-.4866.4636-.2367.891-.5457 1.2592-.9139.3682-.3683.6772-.7924.9139-1.2592.24-.4735.3946-.9567.4866-1.4795.0921-.5129.1217-1.0356.1381-1.555.0066-.2368.0099-.4768.0099-.7135.0033-.2827 0-.5655 0-.8482z" fill="url(#a)"/><path d="m16.7342 3.61643c-.0559.00658-.5655.09535-.6279.1085l-7.03566 1.42027h-.00329c-.18411.03945-.32877.10521-.43726.19726-.13479.11178-.20712.27288-.23671.45699-.00658.03945-.01644.11835-.01644.23671v8.80434c0 .2072-.01644.4044-.15452.5754-.13808.1709-.31233.2203-.51288.263-.15452.0296-.30575.0625-.46027.0921-.58192.1183-.96.1972-1.30192.3287-.32877.1282-.57205.2893-.76931.4932-.38795.4044-.54576.9567-.48987 1.4728.04603.4406.24329.8614.58521 1.1705.23014.2104.51616.3715.85479.4372.35178.0691.72329.046 1.26904-.0657.28932-.0592.5622-.1513.82192-.3025.25644-.1512.47671-.3518.64767-.5984.17096-.2465.28274-.5194.34521-.812.06246-.2992.0789-.5721.0789-.8712v-7.63402c0-.40767.11507-.51616.44713-.59835 0 0 5.84876-1.18028 6.12166-1.23288.3813-.07233.5589.03617.5589.43397v5.21428c0 .2071-.0033.4142-.1414.5852-.1381.1709-.3123.2202-.5129.263-.1545.0296-.3057.0625-.4602.092-.582.1184-.96.1973-1.302.3288-.3287.1282-.572.2893-.7693.4932-.3879.4043-.5589.9567-.503 1.4728.046.4406.2565.8614.5984 1.1705.2301.2104.5161.3649.8548.4339.3517.0691.7233.046 1.269-.0657.2893-.0592.5622-.1447.8219-.2992.2565-.1512.4767-.3518.6477-.5984.171-.2465.2827-.5194.3452-.812.0625-.2992.0658-.5721.0658-.8713v-11.1616c-.0033-.40438-.217-.65424-.5984-.62137z" fill="#fff"/></g></svg>