<svg fill="none" height="24" viewBox="0 0 24 24" width="24" xmlns="http://www.w3.org/2000/svg" xmlns:xlink="http://www.w3.org/1999/xlink"><clipPath id="a"><path d="m0 0h24v24h-24z"/></clipPath><clipPath id="b"><path d="m3.53613.005554h16.875v24h-16.875z"/></clipPath><mask id="c" height="24" maskUnits="userSpaceOnUse" width="24" x="0" y="0"><path d="m24 0h-24v24h24z" fill="#fff"/></mask><g clip-path="url(#a)"><g mask="url(#c)"><g clip-path="url(#b)"><path d="m12.9111 5.78053c1.8 0 3.525.6375 4.875 1.8.3.2625.75.2625 1.0125-.0375l1.3875-1.425c.3-.2625.3-.75 0-1.0125l-.0375-.0375c-1.0875-.9375-2.3625-1.65-3.75-2.1l.4125-2.062501c.075-.4125-.1875-.787499-.5625-.8624992-.0375 0-.1125 0-.15 0h-2.6625c-.3375 0-.6375.2250002-.7125.5625002l-.375 1.8375c-3.59999.1875-6.63749 1.95-6.63749 5.625 0 3.14997 2.5125 4.49997 5.17499 5.47497 2.5125.9375 3.8625 1.275 3.8625 2.5875s-1.35 2.1375-3.3 2.1375c-1.91249.0375-3.74999-.675-5.13749-2.025-.3-.2625-.75-.2625-1.0125 0l-1.5 1.4625c-.3.2625-.3.75 0 1.0125 1.2375 1.1625 2.7375 1.9875 4.35 2.4l-.4125 1.9125c-.075.4125.1875.7875.6.9h.15 2.69999c.3375 0 .6375-.225.7125-.5625l.375-1.8375c4.3125-.2625 6.9375-2.5875 6.9375-6 0-3.1125-2.625-4.4625-5.8125-5.5125-1.8375-.67497-3.41249-1.12497-3.41249-2.47497s1.46249-1.7625 2.92499-1.7625z" fill="#fff"/></g></g></g></svg>