<svg id="Layer_1" data-name="Layer 1"
    xmlns="http://www.w3.org/2000/svg"
    xmlns:xlink="http://www.w3.org/1999/xlink" viewBox="0 0 64 64">
    <defs>
        <style>.cls-1{fill-rule:evenodd;fill:url(#New_Gradient_Swatch_2);}.cls-2{fill:#fff;}</style>
        <linearGradient id="New_Gradient_Swatch_2" x1="43.2" y1="86.4" x2="43.2" gradientUnits="userSpaceOnUse">
            <stop offset="0" stop-color="#00c244"/>
            <stop offset="1" stop-color="#00d64b"/>
        </linearGradient>
        <symbol id="RGB_Pound" data-name="RGB Pound" viewBox="0 0 86.4 86.4">
            <path class="cls-1" d="M56.28,0C65,0,69.29,0,74,1.48a18.34,18.34,0,0,1,11,11c1.48,4.67,1.48,9,1.48,17.68V56.28c0,8.67,0,13-1.48,17.68a18.34,18.34,0,0,1-11,11c-4.67,1.48-9,1.48-17.68,1.48H30.12c-8.67,0-13,0-17.68-1.48a18.34,18.34,0,0,1-11-11C0,69.29,0,65,0,56.28V30.12c0-8.67,0-13,1.48-17.68a18.34,18.34,0,0,1,11-11C17.11,0,21.45,0,30.12,0Z"/>
            <path class="cls-2" d="M49.73,27.68a7.8,7.8,0,0,1,6.86,4.15,1.49,1.49,0,0,0,2.26.22l5-4.81a1.45,1.45,0,0,0,.15-1.9A17.33,17.33,0,0,0,49.44,18c-9.63,0-17.87,6.12-17.87,16.33A21.41,21.41,0,0,0,32,38.54h-2.7a1.43,1.43,0,0,0-1.46,1.1L26.68,45a1.45,1.45,0,0,0,1.39,1.75h5.69l.22,1a8.7,8.7,0,0,1,.22,1.89c0,4.23-4.45,8.32-9.85,10a1.4,1.4,0,0,0-1,1.09L22.16,66a1.5,1.5,0,0,0,1.46,1.75H57.86a1.47,1.47,0,0,0,1.38-1.16l1.46-6.71a1.42,1.42,0,0,0-1.38-1.75H41.2c2.19-2.05,3.43-7.37,3-11.38h9a1.42,1.42,0,0,0,1.46-1.17l1.17-5.32a1.47,1.47,0,0,0-1.46-1.76H42.66c-.08-.94-.15-1.89-.15-2.69C42.51,30.23,45.87,27.68,49.73,27.68Z"/>
        </symbol>
    </defs>
    <title>Cash App - Pound - Icon</title>
    <use width="64" height="64" xlink:href="#RGB_Pound"/>
</svg>
