<svg fill="none" height="24" viewBox="0 0 24 24" width="24" xmlns="http://www.w3.org/2000/svg"><path d="m20.317 4.36639c-1.5297-.70188-3.17-1.219-4.8851-1.51517-.0312-.00572-.0624.00857-.0785.03714-.211.37521-.4447.86471-.6083 1.24945-1.8447-.27616-3.6799-.27616-5.48678 0-.16367-.39329-.40584-.87424-.61775-1.24945-.01609-.02762-.04729-.0419-.07852-.03714-1.71414.29523-3.35449.81234-4.88511 1.51517-.01326.00571-.02461.01524-.03215.02762-3.111398 4.64836-3.96374 9.18249-3.5456099 13.66039.0018919.0219.0141899.0428.0312179.0561 2.052812 1.5076 4.041312 2.4228 5.992882 3.0294.03123.0096.06433-.0019.0842-.0276.46165-.6304.87316-1.2951 1.226-1.9942.02082-.0409.00094-.0895-.04162-.1057-.65273-.2476-1.27426-.5495-1.87213-.8923-.04729-.0276-.05108-.0953-.00757-.1277.12581-.0942.25166-.1923.37179-.2914.02174-.0181.05203-.0219.07758-.0105 3.92775 1.7933 8.17997 1.7933 12.06147 0 .0255-.0123.0558-.0085.0785.0096.1201.099.246.1981.3727.2923.0435.0324.0407.1001-.0066.1277-.5979.3495-1.2194.6447-1.8731.8914-.0425.0162-.0615.0657-.0407.1066.3605.6981.772 1.3628 1.2251 1.9933.0189.0266.053.0381.0842.0285 1.961-.6066 3.9495-1.5218 6.0023-3.0294.018-.0133.0294-.0333.0313-.0552.5004-5.1769-.8382-9.67385-3.5485-13.66035-.0066-.01332-.0179-.02285-.0312-.02856zm-12.29698 10.96141c-1.18252 0-2.15689-1.0856-2.15689-2.4189s.95547-2.419 2.15689-2.419c1.21085 0 2.17578 1.0952 2.15688 2.419 0 1.3333-.95549 2.4189-2.15688 2.4189zm7.97468 0c-1.1824 0-2.1568-1.0856-2.1568-2.4189s.9554-2.419 2.1568-2.419c1.2109 0 2.1758 1.0952 2.1569 2.419 0 1.3333-.946 2.4189-2.1569 2.4189z" fill="#fff"/></svg>