<svg fill="none" height="24" viewBox="0 0 24 24" width="24" xmlns="http://www.w3.org/2000/svg"><path d="m4.28571 24c-.62857 0-1.16666-.2238-1.61428-.6714s-.67143-.9857-.67143-1.6143v-13.7143c0-.62857.22381-1.16667.67143-1.61429.44762-.44761.98571-.67142 1.61428-.67142h2.28572c0-1.58096.55714-2.92858 1.67143-4.04286 1.11428-1.114287 2.46194-1.67143 4.04284-1.67143 1.581 0 2.9286.557143 4.0429 1.67143 1.1143 1.11428 1.6714 2.4619 1.6714 4.04286h2.2857c.6286 0 1.1667.22381 1.6143.67142.4476.44762.6714.98572.6714 1.61429v13.7143c0 .6286-.2238 1.1667-.6714 1.6143s-.9857.6714-1.6143.6714zm7.99999-9.1429c1.581 0 2.9286-.5571 4.0429-1.6714s1.6714-2.4619 1.6714-4.04284h-2.2857c0 .95234-.3333 1.76194-1 2.42854-.6667.6667-1.4762 1-2.4286 1s-1.7619-.3333-2.42856-1c-.66666-.6666-1-1.4762-1-2.42854h-2.28571c0 1.58094.55714 2.92854 1.67143 4.04284 1.11428 1.1143 2.46194 1.6714 4.04284 1.6714zm-3.42856-9.14281h6.85716c0-.95239-.3333-1.76191-1-2.42858-.6667-.66666-1.4762-1-2.4286-1s-1.7619.33334-2.42856 1c-.66666.66667-1 1.47619-1 2.42858z" fill="#fff"/></svg>