<svg fill="none" height="24" viewBox="0 0 24 24" width="24" xmlns="http://www.w3.org/2000/svg"><g fill="#fff"><path d="m20.132 18.4042c-1.6279-2.8157-4.6636-4.7076-8.1393-4.7076-3.49041 0-6.52616 1.8919-8.15402 4.7076z"/><path d="m23.549 9.19432c-.6159-.60129-1.5985-.60129-2.1998 0l-2.3318 2.33178c-.5866.5866-.6013 1.5399-.0586 2.1412l.0586.0586c.616.6013 1.5986.6013 2.1998 0l2.3318-2.3318c.6013-.6159.6013-1.5985 0-2.19978z"/><path d="m2.65078 9.19432c-.58662-.58662-1.53987-.60129-2.141157-.05866l-.058661.05866c-.601283.61595-.601283 1.59858 0 2.19978l2.331808 2.3318c.61595.6013 1.59853.6013 2.19982 0 .60128-.6159.60128-1.5985 0-2.1998z"/><path d="m12.0367 5h-.0734c-.8506 0-1.5398.68927-1.5545 1.55454v3.29972c0 .85064.7039 1.55454 1.5545 1.55454s1.5546-.7039 1.5546-1.55454v-3.29972c0-.83593-.66-1.52521-1.4812-1.55454z"/></g></svg>