<svg width="24" height="24" viewBox="0 0 24 24" fill="none" xmlns="http://www.w3.org/2000/svg">
<g clip-path="url(#clip0_1737_490)">
<mask id="mask0_1737_490" style="mask-type:luminance" maskUnits="userSpaceOnUse" x="-1" y="2" width="25" height="20">
<path d="M23.9472 2.43567H-0.000488281V21.6515H23.9472V2.43567Z" fill="white"/>
</mask>
<g mask="url(#mask0_1737_490)">
<path d="M9.57364 21.6508C6.08785 21.6508 3.25251 20.0918 1.59068 17.2609C0.119386 14.7795 -0.000488281 12.0918 -0.000488281 9.08867C-0.000488281 7.30823 0.535159 5.75808 1.54778 4.60539C2.47838 3.54671 3.79698 2.86091 5.26134 2.67415C6.99951 2.45397 9.16041 2.43567 11.4071 2.43567C15.0632 2.43567 16.096 2.48046 17.5345 2.62431C19.4481 2.81422 21.0582 3.52842 22.19 4.68993C23.3396 5.86974 23.9472 7.44514 23.9472 9.24766V9.60982C23.9472 12.6856 21.891 15.2596 19.0254 15.9593C18.8115 16.464 18.5465 16.9663 18.233 17.4609L18.2248 17.4735C17.2153 19.0338 14.8425 21.6515 10.2973 21.6515H9.57302L9.57364 21.6508Z" fill="white"/>
<path d="M17.3843 4.13042C16.0258 3.99477 15.0751 3.94934 11.4076 3.94934C9.05297 3.94934 7.06055 3.97206 5.45361 4.17585C3.32552 4.44777 1.51416 6.07743 1.51416 9.08878C1.51416 12.1002 1.67252 14.432 2.89524 16.4919C4.27632 18.8465 6.58547 20.1367 9.57412 20.1367H10.2984C13.9659 20.1367 15.9584 18.1897 16.9545 16.6503C17.3849 15.9708 17.7015 15.292 17.9054 14.6124C20.5091 14.386 22.4334 12.2352 22.4334 9.60928V9.24715C22.4334 6.41749 20.5773 4.44777 17.3849 4.13042H17.3843Z" fill="white"/>
<path d="M1.51332 9.08878C1.51332 6.07743 3.32469 4.44777 5.45275 4.17585C7.06033 3.97206 9.05276 3.94934 11.4067 3.94934C15.0743 3.94934 16.025 3.99477 17.3833 4.13042C20.5758 4.44714 22.4319 6.41687 22.4319 9.24715V9.60928C22.4319 12.2358 20.5076 14.3866 17.9039 14.6124C17.7001 15.292 17.3833 15.9708 16.953 16.6503C15.9569 18.1897 13.9645 20.1367 10.297 20.1367H9.57263C6.584 20.1367 4.27484 18.8465 2.89377 16.4919C1.67106 14.432 1.5127 12.1449 1.5127 9.08878" fill="#202020"/>
<path d="M3.21155 9.11093C3.21155 12.0315 3.39265 13.9103 4.34342 15.6536C5.42987 17.6687 7.39959 18.4384 9.64124 18.4384H10.3429C13.286 18.4384 14.7125 17.0119 15.5049 15.7671C15.8898 15.1331 16.2292 14.4315 16.4103 13.5482L16.546 12.9822H17.3611C19.1725 12.9822 20.7346 11.5109 20.7346 9.63144V9.29201C20.7346 7.18665 19.4217 6.07687 17.1347 5.80559C15.8444 5.69265 15.0746 5.64722 11.4065 5.64722C8.93902 5.64722 7.17308 5.66992 5.83744 5.87371C3.95858 6.14564 3.21094 7.20938 3.21094 9.11093" fill="white"/>
<path d="M16.5469 10.6734C16.5469 10.9454 16.7506 11.1492 17.1128 11.1492C18.2674 11.1492 18.9015 10.4924 18.9015 9.40594C18.9015 8.3195 18.2674 7.64001 17.1128 7.64001C16.7506 7.64001 16.5469 7.84379 16.5469 8.11571V10.6741V10.6734Z" fill="#202020"/>
<path d="M5.43082 10.538C5.43082 11.8737 6.17782 13.0282 7.12861 13.9343C7.76268 14.5455 8.7589 15.1797 9.43777 15.5872C9.64154 15.7002 9.84533 15.7683 10.0719 15.7683C10.3437 15.7683 10.5696 15.7002 10.7513 15.5872C11.4308 15.1797 12.4264 14.5455 13.0378 13.9343C14.0113 13.0288 14.7582 11.8743 14.7582 10.538C14.7582 9.08879 13.6719 7.79858 12.1097 7.79858C11.1817 7.79858 10.5475 8.27427 10.0719 8.93044C9.64154 8.27365 8.98539 7.79858 8.05668 7.79858C6.47183 7.79858 5.43018 9.08879 5.43018 10.538" fill="#FF5A16"/>
</g>
</g>
<defs>
<clipPath id="clip0_1737_490">
<rect width="24" height="19.3195" fill="white" transform="translate(0 2.34021)"/>
</clipPath>
</defs>
</svg>
