<svg fill="none" height="24" viewBox="0 0 24 24" width="24" xmlns="http://www.w3.org/2000/svg"><path d="m9.70439 14.4846.87981 2.3916s-1.48477 1.457-4.59086 1.457c-3.84892 0-5.99334-2.2542-5.99334-6.433 0-4.34356 2.14442-6.9002 6.18555-6.9002 3.65639 0 5.49855 1.31955 6.65295 4.89348l.9072 2.74892c.66 2.007 1.8144 3.464 4.591 3.464 1.8695 0 2.859-.4124 2.859-1.4294 0-.7974-.4672-1.3746-1.8692-1.7046l-1.8696-.4397c-2.2816-.5498-3.1888-1.732-3.1888-3.60142 0-2.99657 2.4193-3.93128 4.8934-3.93128 2.8041 0 4.5085 1.01718 4.7284 3.49136l-2.749.32997c-.1101-1.18212-.8248-1.67701-2.1443-1.67701-1.2098 0-1.9519.54987-1.9519 1.48459 0 .82476.3573 1.31966 1.5668 1.59459l1.7594.3848c2.3643.5499 3.6291 1.7046 3.6291 3.9314 0 2.749-2.3091 3.7936-5.7183 3.7936-4.756 0-6.4055-2.1443-7.285-4.8108l-.8799-2.7492c-.65991-2.00695-1.42959-3.5739-3.84868-3.5739-1.67722 0-3.38151 1.2096-3.38151 4.591 0 2.6392 1.34694 4.2887 3.24406 4.2887 2.144 0 3.57372-1.5945 3.57372-1.5945z" fill="#fff"/></svg>