<svg fill="none" height="24" viewBox="0 0 24 24" width="24" xmlns="http://www.w3.org/2000/svg"><g fill="#000"><path d="m18.0003 11.3137h.4901c.104-.2228.104-.5495 0-.9207-.1039-.54949-.2673-.92075-.594-.8762-.3267.0594-.3267.4901-.2228 1.0395.0446.3267.1634.594.3267.7574z"/><path d="m15.1193 11.8038c.2228.104.3862.1634.4307.104.0594-.0594 0-.104-.0594-.2228-.1039-.2227-.3861-.3861-.594-.4901-.5495-.2227-1.1435-.1633-1.6335.2228-.1634.104-.3268.2673-.2674.3861 0 .0594.0594.0594.104.0594.104 0 .594-.2227 1.1435-.2673.3267-.0148.6534.104.8761.2079z"/><path d="m14.6293 12.0712c-.3267.0594-.49.1633-.594.2673-.1039.1039-.1634.1633-.1634.2227v.0594h.0594c.0595 0 .2228-.0594.2228-.0594.4307-.1633.7128-.1633.9801-.1039.1634 0 .2228.0594.2673 0 0 0 0-.0594 0-.104-.0148-.1633-.3415-.3267-.7722-.2821z"/><path d="m14.7926 12.4572c.104-.2228.104-.7128 0-1.0841-.1039-.5494-.2673-.8762-.6534-.8762-.3267.0594-.3267.4901-.2228 1.0841.0594.3861.2228.594.2673.7574.2822.4455.4456.3267.6089.1188z"/><path d="m17.0202 13.0512c.2228.1039.4307.0594.5495-.104.0594-.1633-.0594-.3861-.2673-.49-.2228-.104-.4307-.0594-.5495.1039-.1188.1634.0446.3861.2673.4901z"/><path d="m18.3716 11.8632c-.1633 0-.3267.1633-.3267.4306 0 .2228.104.4307.3267.4307.1634 0 .3267-.1634.3267-.4307-.0445-.2227-.1633-.4306-.3267-.4306z"/><path d="m6.86251 16.0956c-.0594-.0594-.10395-.0594-.16336 0-.0594 0-.10395 0-.16335 0-.10395 0-.22276-.0594-.26731-.1634-.04455-.1039-.0594-.2673 0-.49l.0594-.104c.16336-.3267.38611-.8167.10396-1.3068-.22276-.3861-.49006-.594-.87617-.6534s-.75737.1039-.98013.3861c-.38611.4307-.43066.9801-.38611 1.188 0 .0594.0594.104.10395.104.05941 0 .16336-.0594.22276-.2228v-.0594c0-.1039.0594-.2227.16335-.3861.10396-.1633.26731-.2673.43066-.2673.16336-.0594.38611 0 .54947.104.2673.1633.38611.49.2673.8167-.16335.1634-.22275.4307-.22275.7128.0594.4901.38611.7129.65342.7574.2673 0 .49006-.1633.49006-.2673.0594-.0891.01485-.0891.01485-.1485z"/><path d="m22.6633 15.1748c0-.0594-.0594-.2673-.1633-.594l-.2228-.49c.3861-.5495.3861-1.0841.3267-1.3514-.0594-.3267-.2227-.6534-.49-.9801-.2673-.3268-.9207-.6535-1.7375-.8762l-.4307-.104s0-1.0395-.0594-1.47016c0-.32671-.0594-.81677-.2227-1.30683-.1634-.65341-.4901-1.24743-.9208-1.63354 1.0841-1.14347 1.7969-2.45031 1.7969-3.53439 0-2.064195-2.5542-2.717611-5.7619-1.41078l-.6534.26731s-1.188-1.188031-1.2474-1.188031c-3.51959-3.148279-14.76132 9.400281-11.18238 12.444621l.75737.6534c-.22275.5495-.26731 1.1435-.22275 1.7969.10395.8168.54946 1.6335 1.18803 2.2869.65341.5941 1.51473.9802 2.39091.9802 1.41078 3.267 4.61842 5.2124 8.36072 5.3312 4.0245.104 7.4401-1.7968 8.8509-5.1679.1039-.2227.49-1.3068.49-2.2869.0891-.995-.4603-1.3663-.8465-1.3663zm-16.51357 2.5543c-.10395 0-.2673.0594-.38611 0-1.18803-.0594-2.55426-1.1435-2.65821-2.4503-.10395-1.4108.59401-2.4949 1.90085-2.777.16335-.0594.3267-.0594.54946-.0594.71282.0594 1.79689.594 2.0642 2.1681.2079 1.4851-.10395 2.8958-1.47019 3.1186zm-1.35138-6.0886c-.81677.1633-1.51474.594-1.96025 1.2474-.26731-.2228-.75737-.6534-.81677-.8168-.71282-1.3068.75737-3.90563 1.7969-5.33127 2.49486-3.57893 6.45987-6.296552 8.25677-5.821341.3267.103951 1.3069 1.247431 1.3069 1.247431s-1.8415 1.03952-3.53442 2.45031c-2.28696 1.69294-4.02445 4.2472-5.04913 7.02427zm12.81585 5.5391.0594-.0594c0-.0594-.0594-.0594-.0594-.0594s-1.9008.2673-3.6977-.3861c.2227-.6534.7128-.4306 1.5147-.3267 1.4108.104 2.7176-.1039 3.6384-.3861.8167-.2228 1.9008-.7128 2.7176-1.3514.2673.594.3861 1.3069.3861 1.3069s.2227-.0594.3861.0594c.1633.1039.2673.3267.2227.8761-.1633 1.0841-.6534 1.9009-1.3513 2.7176-.4307.4901-1.0396.9208-1.6781 1.2475-.3267.1633-.7128.3267-1.0841.4306-2.9404.9208-5.8659-.0594-6.7866-2.2869-.0594-.1634-.1634-.3267-.1634-.5495-.3861-1.4702-.0594-3.2077 1.0395-4.2917.0594-.0594.104-.1634.104-.2673 0-.104-.0594-.1634-.104-.2228-.3861-.5495-1.678-1.4702-1.4107-3.2671.1633-1.30681 1.3068-2.16814 2.3315-2.12358h.2673c.4306 0 .8761.10395 1.188.10395.594 0 1.188-.0594 1.8415-.59402.2227-.16335.3861-.3267.7128-.38611.0594 0 .1039-.0594.2673 0 .1633 0 .3267.05941.4306.16336.5495.38611.5941 1.18803.6535 1.84144 0 .38611.0594 1.24746.0594 1.47016.0594.5495.1633.6534.49.7574.1634.0594.3267.104.5495.1634.7128.2227 1.1435.3861 1.4108.6534.1633.1633.2227.3267.2673.49.1039.594-.4901 1.3514-1.9603 2.0642-1.6335.7574-3.5344.9208-4.8857.7574l-.4901-.0594c-1.0841-.1634-1.6781 1.2474-1.0395 2.1681.4306.5941 1.5741 1.0396 2.6582 1.0396 2.6136 0 4.6184-1.0841 5.3313-2.0642l.0594-.104c.0594-.0594 0-.1039-.0594-.0594-.5941.4307-3.3117 2.0642-6.1926 1.5742 0 0-.3267-.0594-.6535-.1634-.2673-.1039-.7573-.3267-.8761-.8762 2.4354.7129 3.9056 0 3.9056 0zm-8.15283-10.42492c.87613-1.03953 2.00483-1.96025 2.98493-2.45031.0594 0 .0594 0 .0594.0594-.0594.16336-.2228.43066-.2673.65342 0 .0594.0594.0594.0594.0594.594-.43066 1.6781-.87617 2.6137-.92072.0594 0 .0594.0594.0594.0594-.1634.10395-.2674.26731-.4307.43066 0 0 0 .0594.0594.0594.6534 0 1.5741.22276 2.1681.59402.0594 0 0 .10395-.0594.10395-.9207-.22276-2.3909-.38611-3.965 0-1.4108.32671-2.4503.87617-3.20768 1.41078-.07425-.01485-.11881-.01485-.07425-.0594z"/></g></svg>