<svg width="24" height="24" viewBox="0 0 24 24" fill="none" xmlns="http://www.w3.org/2000/svg">
<g clip-path="url(#clip0_75_34)">
<g clip-path="url(#clip1_75_34)">
<path d="M5.24266 6.07504C5.58752 5.83689 5.67392 5.3639 5.43576 5.01904C5.19724 4.67418 4.72426 4.58778 4.37939 4.82593C4.03453 5.06409 3.94813 5.53707 4.18629 5.88193C4.42481 6.22643 4.89779 6.3132 5.24266 6.07504Z" fill="white"/>
<path d="M23.9889 10.5173C23.9342 10.2651 23.6857 10.1045 23.4335 10.1591C23.181 10.2138 23.0207 10.4622 23.075 10.7148C23.1297 10.967 23.3785 11.1272 23.6307 11.073C23.8829 11.0183 24.0435 10.7694 23.9892 10.5173H23.9889Z" fill="white"/>
<path d="M3.97041 19.1599C3.7197 19.2142 3.55982 19.4612 3.6141 19.7123C3.66801 19.9633 3.91576 20.1229 4.16647 20.0686C4.41754 20.0143 4.57705 19.7673 4.52278 19.5162C4.4685 19.2651 4.22111 19.106 3.97004 19.1599H3.97041Z" fill="white"/>
<path d="M7.09894 2.05112C7.3862 1.98909 7.5686 1.70626 7.50657 1.41937C7.44454 1.13248 7.16171 0.950078 6.87482 1.01211C6.58756 1.07414 6.40516 1.3566 6.46719 1.64386C6.52922 1.93076 6.81205 2.11316 7.09894 2.05112Z" fill="white"/>
<path d="M13.9419 3.48169C14.4116 3.1996 14.5637 2.59037 14.282 2.12108C13.9999 1.65141 13.3903 1.49929 12.921 1.78138C12.4513 2.06311 12.2992 2.67234 12.5809 3.142C12.863 3.61166 13.4726 3.76341 13.9419 3.48169Z" fill="white"/>
<path d="M1.56559 11.1325C1.10996 10.8201 0.48781 10.936 0.175441 11.3913C-0.136928 11.8466 -0.0209898 12.4687 0.434272 12.7811C0.889903 13.0935 1.51206 12.9775 1.82443 12.5223C2.13679 12.067 2.02086 11.4448 1.56523 11.1325H1.56559Z" fill="white"/>
<path d="M20.3268 7.21426C19.9428 7.47937 19.8464 8.00552 20.1119 8.38952C20.3774 8.77352 20.9035 8.86952 21.2875 8.60441C21.6715 8.3393 21.7679 7.81315 21.5024 7.42915C21.2369 7.04515 20.7108 6.94915 20.3268 7.21426Z" fill="white"/>
<path d="M22.1769 13.065C21.8375 13.1381 21.6215 13.4727 21.695 13.812C21.7681 14.1517 22.1026 14.3669 22.4423 14.2938C22.7817 14.2204 22.9977 13.8862 22.9242 13.5469C22.8507 13.2072 22.5162 12.9919 22.1769 13.065Z" fill="white"/>
<path d="M20.4671 10.1458C20.1344 9.67393 19.6637 9.36414 19.1501 9.21128C19.2254 8.22728 18.9795 7.21338 18.3747 6.3383C17.1953 4.63245 15.0424 4.00661 13.18 4.68193C11.5158 3.61596 9.31448 3.57128 7.58685 4.76464C6.71252 5.3687 6.08925 6.19947 5.73812 7.12291C5.22968 7.19159 4.72827 7.36181 4.2767 7.67381C2.78501 8.70433 2.39141 10.7137 3.33775 12.2368C2.05319 13.4131 1.75707 15.3715 2.73295 16.8843C3.3119 17.7811 4.22132 18.3217 5.19793 18.4823C5.21602 19.2145 5.43572 19.9496 5.88322 20.5969C7.10722 22.3677 9.53565 22.8112 11.3069 21.5879C11.3744 21.541 11.4269 21.4816 11.4907 21.4313C12.4781 22.3123 13.9598 22.4574 15.0966 21.6721C15.7033 21.2534 16.091 20.6438 16.2605 19.9814C17.1499 20.0142 18.0553 19.7883 18.844 19.2433C20.7355 17.9366 21.2429 15.3819 20.0329 13.4541C21.0043 12.6352 21.2133 11.2029 20.4671 10.1454V10.1458ZM14.219 17.2483C13.3871 16.8407 12.882 15.9091 13.098 14.989C13.2593 14.3008 14.7972 11.4909 14.8548 11.0589C14.9135 10.6184 14.6783 10.5808 14.5313 10.5734C14.3419 10.5634 14.1924 10.6557 14.0063 10.9363C13.8372 11.1922 11.9242 15.0215 11.7584 15.3346C11.4616 15.894 11.0879 16.0288 10.7128 16.0088C10.1656 15.9804 9.91522 15.6872 9.99424 15.16C10.0408 14.8498 11.2537 12.1105 11.3165 11.6829C11.3552 11.4185 11.3028 11.1379 11.0406 11.0035C10.7781 10.8691 10.4687 11.0752 10.376 11.2313C10.2483 11.4466 8.52839 15.9376 8.34525 16.2702C8.02845 16.8462 7.69504 17.0294 7.19325 17.053C6.00692 17.1091 5.12741 16.134 5.51547 14.9381C5.68864 14.4053 6.83067 10.3662 7.40962 9.33793C7.79842 8.64673 8.87842 8.12205 9.62722 8.44587C10.0153 8.61387 10.5525 8.8823 10.7113 8.95208C11.0772 9.11418 11.4701 8.67479 11.6244 8.54039C11.7795 8.40599 11.9272 8.26458 12.1158 8.18371C12.3041 8.10322 12.6003 8.06962 12.8292 8.10322C13.0577 8.13682 13.1944 8.22322 13.28 8.29153C13.4484 8.42556 13.5533 8.5319 13.7124 8.68291C13.9517 8.91036 14.1241 8.77264 14.2441 8.70322C14.452 8.58248 14.6144 8.48427 15.2296 8.49534C15.8628 8.50642 16.5905 8.73276 16.7416 9.81239C16.9099 11.0117 14.7776 14.1014 14.9268 15.5347C15.032 16.5449 16.7397 15.8338 16.8845 16.7561C17.0717 17.9528 14.7503 17.5075 14.2193 17.2476L14.219 17.2483Z" fill="white"/>
</g>
<g clip-path="url(#clip2_75_34)">
<path d="M17.1545 20.886C16.6786 21.2146 16.5593 21.8666 16.8883 22.3422C17.2173 22.8178 17.8693 22.937 18.3457 22.6084C18.8216 22.2798 18.9405 21.6277 18.6115 21.1522C18.2825 20.6762 17.6305 20.5573 17.1545 20.886ZM11.0408 22.7148C10.7473 22.9175 10.6734 23.3199 10.8765 23.6135C11.0792 23.907 11.4817 23.9805 11.7756 23.7778C12.0691 23.5747 12.1429 23.1722 11.9399 22.8787C11.7372 22.5852 11.3347 22.512 11.0408 22.7148ZM3.61372 19.7129C3.66763 19.964 3.91538 20.1235 4.16609 20.0692C4.41716 20.0149 4.57667 19.7679 4.52239 19.5168C4.46812 19.2658 4.22073 19.1066 3.96966 19.1605C3.71895 19.2148 3.55907 19.4618 3.61335 19.7129M1.82479 12.5225C2.13716 12.0672 2.02123 11.4451 1.56559 11.1327C1.10996 10.8204 0.48781 10.9363 0.175441 11.3916C-0.136928 11.8468 -0.0209898 12.469 0.434272 12.7813C0.889903 13.0937 1.51206 12.9778 1.82443 12.5225M5.24276 6.07537C5.58763 5.83722 5.67403 5.36423 5.43587 5.01937C5.19735 4.67451 4.72436 4.58811 4.3795 4.82626C4.03464 5.06442 3.94824 5.5374 4.18639 5.88226C4.42492 6.22676 4.8979 6.31352 5.24276 6.07537ZM7.50578 1.41937C7.44375 1.13248 7.16092 0.950078 6.87403 1.01211C6.58676 1.07414 6.40436 1.3566 6.46639 1.64386C6.52843 1.93076 6.81126 2.11316 7.09815 2.05112C7.38541 1.98909 7.56781 1.70626 7.50578 1.41937ZM14.2823 2.12165C14.0002 1.65199 13.3906 1.49986 12.9213 1.78196C12.4516 2.06368 12.2995 2.67291 12.5812 3.14257C12.8633 3.61223 13.4729 3.76399 13.9422 3.48226C14.4119 3.20017 14.564 2.59094 14.2823 2.12165ZM19.1502 9.21162C19.2255 8.22762 18.9796 7.21371 18.3748 6.33863C17.1955 4.63279 15.0425 4.00694 13.1801 4.68226C11.516 3.61629 9.31464 3.57162 7.58701 4.76497C6.71267 5.36903 6.08941 6.1998 5.73827 7.12325C5.22984 7.19192 4.72843 7.36214 4.27686 7.67414C2.78516 8.70466 2.39156 10.714 3.3379 12.2371C2.05335 13.4135 1.75723 15.3719 2.7331 16.8846C3.31206 17.7815 4.22147 18.322 5.19809 18.4826C5.21618 19.2148 5.43587 19.95 5.88338 20.5972C7.10738 22.368 9.53581 22.8115 11.307 21.5882C11.3746 21.5413 11.427 21.4819 11.4909 21.4317C12.4782 22.3127 13.9599 22.4578 15.0968 21.6724C15.7034 21.2537 16.0911 20.6441 16.2606 19.9817C17.1501 20.0146 18.0554 19.7886 18.8441 19.2436C20.7357 17.9369 21.243 15.3822 20.033 13.4544C21.0045 12.6355 21.2135 11.2032 20.4673 10.1458C20.1346 9.67389 19.6638 9.36411 19.1502 9.21125M21.2877 8.60423C21.6717 8.33912 21.7681 7.81297 21.5026 7.42897C21.2371 7.04497 20.7109 6.94897 20.3269 7.21408C19.9429 7.47919 19.8466 8.00534 20.1121 8.38934C20.3775 8.77334 20.9037 8.86934 21.2877 8.60423ZM22.9237 13.5471C22.8503 13.2074 22.5157 12.9922 22.1764 13.0653C21.8371 13.1388 21.6211 13.4729 21.6946 13.8122C21.7677 14.1519 22.1022 14.3672 22.4419 14.2941C22.7812 14.2206 22.9972 13.8864 22.9237 13.5471ZM23.9893 10.5172C23.9347 10.265 23.6862 10.1044 23.434 10.1591C23.1815 10.2137 23.0212 10.4622 23.0755 10.7148C23.1301 10.9669 23.379 11.1272 23.6312 11.0729C23.8834 11.0183 24.044 10.7694 23.9897 10.5172" fill="#ED1C40"/>
<path d="M16.8837 16.7577C16.7394 15.8357 15.0317 16.5468 14.9261 15.5362C14.7769 14.1025 16.9088 11.0132 16.7408 9.8139C16.5898 8.73427 15.8621 8.50793 15.2288 8.49686C14.6137 8.48578 14.4512 8.58363 14.2434 8.70473C14.1234 8.77415 13.9509 8.91187 13.7117 8.68443C13.5525 8.53304 13.4477 8.42707 13.2793 8.29304C13.1936 8.22436 13.057 8.13833 12.8285 8.10473C12.5995 8.07113 12.3034 8.10473 12.1151 8.18523C11.9264 8.26609 11.7787 8.4075 11.6237 8.5419C11.469 8.6763 11.0765 9.11606 10.7106 8.95359C10.5518 8.88344 10.0146 8.61501 9.62649 8.44738C8.87769 8.12356 7.79769 8.64824 7.40889 9.33944C6.83031 10.3674 5.68791 14.4068 5.51474 14.9396C5.12668 16.1359 6.00655 17.111 7.19252 17.0545C7.69394 17.0309 8.02772 16.8477 8.34452 16.2717C8.52766 15.9391 10.2475 11.4485 10.3753 11.2329C10.468 11.0767 10.7774 10.8706 11.0399 11.005C11.3021 11.1394 11.3545 11.4201 11.3157 11.6844C11.253 12.112 10.04 14.8513 9.99351 15.1615C9.91449 15.6884 10.1648 15.9815 10.712 16.0103C11.0872 16.0303 11.4608 15.8955 11.7577 15.3361C11.9238 15.0234 13.8365 11.1937 14.0056 10.9378C14.1917 10.6572 14.3412 10.5649 14.5306 10.5749C14.6776 10.5823 14.9128 10.6199 14.8541 11.0604C14.7965 11.4924 13.2582 14.3023 13.0973 14.9905C12.8813 15.9103 13.3864 16.8418 14.2182 17.2498C14.7488 17.5098 17.0706 17.9551 16.8834 16.7584" fill="white"/>
</g>
</g>
<defs>
<clipPath id="clip0_75_34">
<rect width="24" height="24" fill="white"/>
</clipPath>
<clipPath id="clip1_75_34">
<rect width="24" height="21.2795" fill="white" transform="translate(0 1)"/>
</clipPath>
<clipPath id="clip2_75_34">
<rect width="24" height="22.8923" fill="white" transform="translate(0 1)"/>
</clipPath>
</defs>
</svg>
