<svg fill="none" height="24" viewBox="0 0 24 24" width="24" xmlns="http://www.w3.org/2000/svg" xmlns:xlink="http://www.w3.org/1999/xlink"><clipPath id="a"><path d="m0 0h24v24h-24z"/></clipPath><g clip-path="url(#a)"><path clip-rule="evenodd" d="m0 11.64c0-6.68831 5.24005-11.64 12-11.64 6.76 0 12 4.95169 12 11.64 0 6.6884-5.24 11.64-12 11.64-1.2142 0-2.3791-.1603-3.47362-.4612-.21276-.0586-.43901-.042-.64093.047l-2.38183 1.0514c-.62304.2751-1.32634-.168-1.34722-.8488l-.06535-2.1346c-.00804-.263-.12636-.5088-.32237-.6842-2.33492-2.0881-3.76868-5.1111-3.76868-8.6096zm8.31906-2.1884-3.525 5.5925c-.33828.5367.32143 1.1415.8268.758l3.78644-2.8737c.25613-.1944.6101-.1954.8673-.0025l2.8037 2.1028c.8412.631 2.042.4094 2.6027-.4802l3.525-5.59255c.3382-.53671-.3214-1.14151-.8268-.75799l-3.7865 2.87364c-.2561.1944-.61.1954-.8673.0025l-2.8036-2.10274c-.8413-.63096-2.04202-.40944-2.60274.48024z" fill="#fff" fill-rule="evenodd"/></g></svg>