<svg fill="none" height="24" viewBox="0 0 24 24" width="24" xmlns="http://www.w3.org/2000/svg"><g fill="#fff"><path d="m8 4c-1.58225 0-3.12897.46919-4.44456 1.34824s-2.34097 2.12848-2.946473 3.59029c-.60550103 1.46177-.763927 3.07037-.455246 4.62217.308682 1.5519 1.070609 2.9773 2.189429 4.0962 1.11882 1.1188 2.54428 1.8807 4.09613 2.1894s3.16038.1502 4.62222-.4553c1.4618-.6055 2.7112-1.6308 3.5903-2.9464.879-1.3156 1.3482-2.8624 1.3482-4.4446-.0007-2.12151-.8438-4.15592-2.3439-5.65605-1.5002-1.50014-3.5346-2.34322-5.6561-2.34395zm0 10.4c-.47467 0-.93869-.1408-1.33337-.4045-.39467-.2637-.70229-.6385-.88394-1.0771-.18165-.4385-.22918-.9211-.13657-1.3866.0926-.4656.32118-.8932.65683-1.2289.33564-.3356.76328-.56418 1.22884-.65679.46555-.0926.94811-.04507 1.38665.13658s.81337.48931 1.07709.88391c.26367.3947.40447.8587.40447 1.3334.0005.3153-.0613.6276-.1817.919s-.29721.5562-.52017.7791c-.22295.223-.48772.3997-.77912.5202-.2914.1204-.6037.1822-.91901.1817z" opacity=".8"/><path d="m16.992 9.99954c2.0325.58516 4.4325 0 4.4325 0-.6967 3.03996-2.9047 4.94356-6.0883 5.17576-.6175 1.4331-1.6415 2.6539-2.9453 3.5113-1.3039.8575-2.83038 1.3141-4.3909 1.3134l2.4-7.6279c2.4686-7.8409 3.7312-8.3721 9.5826-8.3721h4.0174c-.672 2.95954-2.9879 5.22148-7.008 5.99954z"/></g></svg>