<svg width="24" height="24" viewBox="0 0 24 24" fill="none" xmlns="http://www.w3.org/2000/svg">
<circle cx="12" cy="12" r="12" fill="#F2F4F8"/>
<path opacity="0.999" d="M8.56519 3.79752C7.94469 3.80393 7.35178 4.05492 6.91524 4.49594C6.47871 4.93697 6.23382 5.53242 6.23375 6.15296C6.23374 6.56124 6.33984 6.96253 6.54165 7.31745C6.74345 7.67238 7.03404 7.96876 7.38491 8.17754V15.9202C7.03243 16.1285 6.74033 16.4251 6.53742 16.7807C6.33451 17.1363 6.22779 17.5387 6.22778 17.9482C6.22772 18.2575 6.28859 18.5639 6.40693 18.8497C6.52526 19.1356 6.69874 19.3953 6.91746 19.6141C7.13618 19.8329 7.39586 20.0065 7.68166 20.125C7.96746 20.2434 8.2738 20.3044 8.58318 20.3045C8.89263 20.3045 9.19907 20.2436 9.48498 20.1252C9.77089 20.0068 10.0307 19.8333 10.2495 19.6145C10.4683 19.3957 10.6419 19.1359 10.7603 18.85C10.8787 18.5641 10.9396 18.2576 10.9395 17.9482C10.9392 17.3267 10.6933 16.7306 10.2555 16.2896C10.4257 16.1082 10.5821 15.9719 10.7252 15.8799C11.0403 15.6772 11.3411 15.5907 11.9304 15.585C13.7942 15.5671 15.2842 14.5884 16.0867 13.3299C16.793 12.2221 16.883 11.1413 16.8941 10.5201C17.2464 10.3117 17.5383 10.015 17.7411 9.65942C17.9439 9.3038 18.0505 8.90148 18.0504 8.49211C18.0503 8.18273 17.9894 7.8764 17.8709 7.59059C17.7525 7.30478 17.5789 7.0451 17.3601 6.82638C17.1413 6.60765 16.8815 6.43417 16.5957 6.31583C16.3098 6.19749 16.0035 6.13661 15.6941 6.13667C15.6861 6.13663 15.6781 6.13663 15.67 6.13667C15.0495 6.14309 14.4566 6.39407 14.0201 6.8351C13.5836 7.27612 13.3387 7.87158 13.3386 8.49211C13.3385 8.90722 13.4481 9.315 13.6562 9.67414C13.8644 10.0333 14.1638 10.331 14.524 10.5373C14.5174 10.9879 14.466 11.4688 14.0912 12.057C13.6865 12.6916 12.983 13.2029 11.908 13.2133C11.1562 13.2206 10.4222 13.3639 9.76945 13.6976V8.19211C10.1271 7.9852 10.424 7.68786 10.6304 7.32995C10.8368 6.97203 10.9455 6.56613 10.9455 6.15296C10.9454 5.84357 10.8844 5.53723 10.766 5.25142C10.6475 4.96561 10.474 4.70593 10.2551 4.4872C10.0363 4.26848 9.77659 4.095 9.49074 3.97666C9.20488 3.85832 8.89851 3.79745 8.58913 3.79752C8.58111 3.79748 8.57309 3.79748 8.56507 3.79752H8.56519ZM8.54862 4.98381C8.56239 4.98357 8.57617 4.98357 8.58994 4.98381C8.90362 4.98391 9.20443 5.10856 9.42623 5.33037C9.64804 5.55218 9.77269 5.85299 9.77279 6.16667C9.77285 6.32206 9.74231 6.47595 9.6829 6.61954C9.62349 6.76312 9.53638 6.8936 9.42654 7.00352C9.3167 7.11344 9.18628 7.20065 9.04274 7.26017C8.89919 7.31968 8.74533 7.35034 8.58994 7.35039C8.43454 7.35034 8.28068 7.31969 8.13713 7.26017C7.99358 7.20066 7.86317 7.11345 7.75332 7.00353C7.64348 6.89361 7.55637 6.76313 7.49695 6.61954C7.43754 6.47595 7.407 6.32207 7.40706 6.16667C7.40697 5.85999 7.52596 5.56525 7.73894 5.34458C7.95193 5.12392 8.24227 4.99457 8.54876 4.98381H8.54862ZM15.6527 7.32296C15.6664 7.32272 15.6802 7.32272 15.694 7.32296C16.0077 7.32306 16.3085 7.44772 16.5303 7.66953C16.7521 7.89133 16.8767 8.19214 16.8768 8.50583C16.8769 8.66122 16.8463 8.8151 16.7869 8.95869C16.7275 9.10228 16.6404 9.23276 16.5306 9.34268C16.4207 9.4526 16.2903 9.53981 16.1468 9.59932C16.0032 9.65884 15.8494 9.6895 15.694 9.68955C15.5386 9.6895 15.3847 9.65884 15.2412 9.59932C15.0976 9.53981 14.9672 9.4526 14.8574 9.34268C14.7475 9.23276 14.6604 9.10228 14.601 8.95869C14.5416 8.8151 14.511 8.66122 14.5111 8.50583C14.511 8.19928 14.6299 7.90466 14.8427 7.68402C15.0555 7.46338 15.3456 7.33394 15.652 7.32296H15.6527ZM8.54177 16.779C8.55554 16.7788 8.56931 16.7788 8.58308 16.779C8.89677 16.7791 9.19758 16.9038 9.41938 17.1256C9.64119 17.3474 9.76584 17.6482 9.76594 17.9619C9.76601 18.1173 9.73546 18.2712 9.67605 18.4147C9.61664 18.5583 9.52953 18.6888 9.41969 18.7987C9.30985 18.9087 9.17943 18.9959 9.03589 19.0554C8.89234 19.1149 8.73848 19.1456 8.58308 19.1456C8.42769 19.1455 8.27383 19.1149 8.13028 19.0554C7.98674 18.9959 7.85632 18.9087 7.74648 18.7987C7.63664 18.6888 7.54953 18.5583 7.49012 18.4147C7.43071 18.2712 7.40016 18.1173 7.40023 17.9619C7.40013 17.6553 7.519 17.3607 7.7318 17.1401C7.94461 16.9194 8.23474 16.79 8.54109 16.779H8.54177Z" fill="black"/>
<path d="M16.2678 20.309C17.4342 20.309 18.3798 19.3634 18.3798 18.197C18.3798 17.0305 17.4342 16.085 16.2678 16.085C15.1013 16.085 14.1558 17.0305 14.1558 18.197C14.1558 19.3634 15.1013 20.309 16.2678 20.309Z" fill="#0073DE"/>
</svg>
