<svg width="27" height="27" viewBox="0 0 27 27" fill="none" xmlns="http://www.w3.org/2000/svg">
<path d="M19.494 3.478C21.2973 2.55267 22.0474 1.80289 22.9713 0C23.8968 1.80289 24.6468 2.55267 26.45 3.478C24.6468 4.40178 23.8968 5.15155 22.9713 6.956C22.0474 5.15155 21.2973 4.40178 19.494 3.478Z" fill="white"/>
<path d="M0 4.79675H3.51867V8.97434C4.976 6.88475 8.52178 4.79675 12.2877 4.79675C17.8407 4.79675 21.7437 8.45234 21.7437 12.5196C21.7437 16.8615 17.9778 19.8289 12.5619 19.8289C9.07177 19.8289 5.03012 17.6022 3.51867 15.4599V26.0226H0V4.79675ZM11.6005 17.9183C15.8335 17.9183 18.225 15.57 18.225 12.5866C18.225 9.27124 15.4492 6.75864 11.2434 6.75864C6.84455 6.75864 3.51867 10.0166 3.51867 12.2275C3.51867 14.4926 7.12033 17.9183 11.6005 17.9183Z" fill="white"/>
</svg>
