<svg width="24" height="24" viewBox="0 0 24 24" fill="none" xmlns="http://www.w3.org/2000/svg">
<g clip-path="url(#clip0_1432_8748)">
<path d="M11.6159 23.424C17.9782 23.424 23.1359 18.2663 23.1359 11.904C23.1359 5.54171 17.9782 0.384033 11.6159 0.384033C5.25351 0.384033 0.0958252 5.54171 0.0958252 11.904C0.0958252 18.2663 5.25351 23.424 11.6159 23.424Z" fill="#FF4500"/>
<path d="M19.2959 11.904C19.2959 10.9743 18.5413 10.2198 17.6116 10.2198C17.1535 10.2198 16.7493 10.395 16.4529 10.6913C15.3076 9.86948 13.7177 9.33053 11.9662 9.26316L12.7342 5.66568L15.2268 6.19116C15.2537 6.82442 15.7792 7.33643 16.4259 7.33643C17.0861 7.33643 17.6251 6.79748 17.6251 6.13727C17.6251 5.47705 17.0861 4.93811 16.4259 4.93811C15.9544 4.93811 15.5501 5.20758 15.3615 5.61179L12.5725 5.01895C12.4916 5.00548 12.4107 5.01895 12.3434 5.05938C12.2761 5.09979 12.2356 5.16717 12.2087 5.24801L11.3598 9.26316C9.56782 9.31705 7.96445 9.8425 6.80571 10.6913C6.50929 10.4084 6.09161 10.2198 5.64698 10.2198C4.71729 10.2198 3.96277 10.9743 3.96277 11.904C3.96277 12.5912 4.36698 13.1705 4.95982 13.44C4.93288 13.6017 4.9194 13.7769 4.9194 13.952C4.9194 16.539 7.92404 18.6274 11.6427 18.6274C15.3615 18.6274 18.3661 16.539 18.3661 13.952C18.3661 13.7769 18.3527 13.6152 18.3257 13.4534C18.8782 13.184 19.2959 12.5912 19.2959 11.904ZM7.77582 13.1031C7.77582 12.4429 8.31476 11.904 8.97498 11.904C9.63519 11.904 10.1741 12.4429 10.1741 13.1031C10.1741 13.7633 9.63519 14.3023 8.97498 14.3023C8.31476 14.3023 7.77582 13.7633 7.77582 13.1031ZM14.4722 16.2695C13.6504 17.0914 12.0874 17.1453 11.6293 17.1453C11.1712 17.1453 9.59477 17.0779 8.78635 16.2695C8.66508 16.1483 8.66508 15.9461 8.78635 15.8248C8.90761 15.7036 9.10971 15.7036 9.23098 15.8248C9.743 16.3368 10.8479 16.5254 11.6427 16.5254C12.4377 16.5254 13.529 16.3368 14.0545 15.8248C14.1758 15.7036 14.378 15.7036 14.4992 15.8248C14.5935 15.9596 14.5935 16.1483 14.4722 16.2695ZM14.2566 14.3023C13.5964 14.3023 13.0575 13.7633 13.0575 13.1031C13.0575 12.4429 13.5964 11.904 14.2566 11.904C14.9169 11.904 15.4559 12.4429 15.4559 13.1031C15.4559 13.7633 14.9169 14.3023 14.2566 14.3023Z" fill="white"/>
</g>
<defs>
<clipPath id="clip0_1432_8748">
<rect width="24" height="24" fill="white"/>
</clipPath>
</defs>
</svg>
