<svg fill="none" height="24" viewBox="0 0 24 24" width="24" xmlns="http://www.w3.org/2000/svg" xmlns:xlink="http://www.w3.org/1999/xlink"><clipPath id="a"><path d="m0 0h24v24h-24z"/></clipPath><g clip-path="url(#a)"><path d="m1.26628 2.93139c1.91533-1.30803 4.30948-2.93139 9.10952-2.93139 8.1167 0 12.4963 6.4 12.508 12.4496 0 6.5168-4.7066 11.3402-11.2234 11.5504h-.6306c-5.47739-.1635-9.70513-4.0175-9.85695-9.0745-.12847-3.9824 2.12554-6.1547 4.04087-7.28754.05839-.03504.11679-.04672.18686-.0584.19854-.04671.40876.05839.49051.24526l1.70511 3.21168c0 .0117.01168.0117.01168.0234.11679.2102.04672.4671-.15182.5839-1.22628.8876-1.76351 1.9036-1.76351 3.2701 0 2.5927 2.26569 4.3445 5.64085 4.3562 4.0993-.0584 6.6453-2.7679 6.6453-7.0657 0-2.33579-.8993-4.55476-2.3942-5.93287-1.343-1.24963-3.1883-1.8219-5.3255-1.64671-3.82941.30355-5.32458 1.55245-6.31728 2.38165l-.00099.00083-.15182.11679c-.0584.04671-.11679.07007-.18687.09343-.21022.08175-.45547-.01168-.5489-.2219l-1.9854-3.39854c-.12847-.21022-.070074-.49051.14014-.63066z" fill="#fff"/></g></svg>