<svg fill="none" height="24" viewBox="0 0 24 24" width="24" xmlns="http://www.w3.org/2000/svg" xmlns:xlink="http://www.w3.org/1999/xlink"><clipPath id="a"><path d="m0 0h24v24h-24z"/></clipPath><g clip-path="url(#a)"><path d="m9.11934.348529.26791 1.091671c-1.06188.26279-2.07815.68398-3.01461 1.24941l-.57588-.96648c1.03117-.62453 2.15159-1.088068 3.32258-1.374601zm5.75886 0-.268 1.091671c1.0619.26279 2.0782.68398 3.0147 1.24941l.5808-.96648c-1.0325-.62358-2.1536-1.08705-3.325-1.374601zm-13.15266 5.445831c-.62363 1.03162-1.087107 2.15189-1.374604 3.32258l1.091674.27041c.26279-1.06189.68398-2.07815 1.24941-3.01461zm-.60342 6.20444c.00084-.5448.04268-1.0889.12519-1.6274l-1.111703-.1753c-.1808093 1.1925-.1808093 2.4055 0 3.598l1.111703-.1678c-.08251-.5394-.12436-1.0843-.12519-1.63zm17.07608 10.2707-.5759-.9614c-.9344.5658-1.9491.987-3.0096 1.2494l.2705 1.0917c1.1689-.2892 2.2874-.7535 3.3175-1.3771zm4.6772-10.2707c-.0002.5448-.0412 1.0889-.1227 1.6275l1.1117.1703c.1808-1.1925.1808-2.4055 0-3.598l-1.1117.1703c.0826.5394.1245 1.0842.1252 1.6299zm.7762 2.8794-1.0917-.2704c-.2622 1.0629-.6834 2.0801-1.2494 3.0171l.9665.5784c.6233-1.0324 1.0859-2.1535 1.3721-3.3251zm-10.0254 7.8696c-1.0805.1637-2.1795.1637-3.2599 0l-.1678 1.1117c1.1917.1809 2.4038.1809 3.5955 0zm7.1259-4.3016c-.6474.8795-1.424 1.6561-2.3035 2.3035l.666.9039c.969-.7127 1.8264-1.5659 2.5439-2.5314zm-2.3035-15.20575c.8793.64767 1.6559 1.42425 2.3035 2.30352l.9064-.67353c-.7146-.96688-1.5695-1.82175-2.5364-2.53638zm-15.20825 2.30352c.64768-.87927 1.42425-1.65585 2.30353-2.30352l-.67353-.90639c-.96689.71463-1.82176 1.5695-2.53638 2.53638zm19.02915.24788-.964.57839c.566.93525.9873 1.95078 1.2494 3.0121l1.0917-.27041c-.2882-1.17007-.7526-2.28954-1.3771-3.32008zm-11.8982-4.54445c1.0805-.16373 2.1795-.16373 3.2599 0l.1678-1.111697c-1.1917-.1809375-2.4038-.1809375-3.5955 0zm-6.55006 20.7092-2.32355.5383.54333-2.3211-1.094173-.2553-.54333 2.321c-.067615.2905-.01729.5959.139943.8494.157232.2534.408542.4342.69884.5027.16821.0374.34257.0374.51078 0l2.32355-.5333zm-2.64404-3.0397 1.09918.2504.37557-1.6075c-.5484-.9192-.95683-1.9149-1.21185-2.9545l-1.091668.2729c.246769.9948.619514 1.954 1.109198 2.8544zm5.25053 2.4337-1.60746.3756.25539 1.0967 1.18181-.2754c.90008.4885 1.85946.8588 2.85436 1.1017l.26791-1.0892c-1.03454-.2582-2.02513-.6683-2.93949-1.2169zm5.57097-19.10417c-2.58602.00133-5.06568 1.02974-6.8936 2.85907s-2.85442 4.30978-2.85376 6.8958c.00303 1.8339.52189 3.63 1.49729 5.183l-.93643 4.0011 3.99861-.9364c2.18667 1.3159 4.80209 1.7222 7.28489 1.1317 2.4828-.5904 4.6353-2.1306 5.9955-4.29s1.8197-4.7659 1.28-7.2603c-.5398-2.49436-2.0358-4.67776-4.167-6.08167-1.5589-.98124-3.3634-1.50201-5.2055-1.5023" fill="#fff"/></g></svg>