<svg width="24" height="24" viewBox="0 0 24 24" fill="none" xmlns="http://www.w3.org/2000/svg">
<g clip-path="url(#clip0_25_65)">
<path d="M12 0C12.6226 0 13.2341 0.0474105 13.8311 0.138818L13.6594 1.2508C13.1184 1.16797 12.5642 1.125 12 1.125C11.4358 1.125 10.8817 1.16796 10.3407 1.25079L10.169 0.138806C10.766 0.0474064 11.3775 0 12 0Z" fill="#3B45FD"/>
<path d="M14.8477 0.339844L14.5808 1.43298C15.6772 1.69982 16.7085 2.13289 17.6466 2.70394L18.2308 1.74229C17.1957 1.11215 16.0576 0.634298 14.8477 0.339844Z" fill="#3B45FD"/>
<path d="M19.0918 2.31885L18.427 3.22645C19.3236 3.88437 20.1156 4.67641 20.7735 5.57301L21.6811 4.90815C20.9551 3.91879 20.0812 3.04482 19.0918 2.31885Z" fill="#3B45FD"/>
<path d="M22.2576 5.76953L21.296 6.35366C21.867 7.29178 22.3001 8.32315 22.5669 9.41959L23.6601 9.15262C23.3656 7.94276 22.8878 6.8047 22.2576 5.76953Z" fill="#3B45FD"/>
<path d="M23.8612 10.1689L22.7491 10.3406C22.8321 10.8816 22.875 11.4358 22.875 11.9999C22.875 12.5641 22.8321 13.1183 22.7491 13.6594L23.8612 13.831C23.9526 13.234 24 12.6225 24 11.9999C24 11.3774 23.9526 10.7659 23.8612 10.1689Z" fill="#3B45FD"/>
<path d="M21.296 17.6466C21.867 16.7083 22.3001 15.6771 22.5669 14.5806L23.6601 14.8475C23.3656 16.0575 22.8878 17.1955 22.2576 18.2307L21.296 17.6466Z" fill="#3B45FD"/>
<path d="M20.7735 18.4272L21.6812 19.092C20.9552 20.0814 20.0813 20.9553 19.0919 21.6813L18.4269 20.7737C19.3236 20.1158 20.1156 19.3238 20.7735 18.4272Z" fill="#3B45FD"/>
<path d="M17.6466 21.2959L18.2307 22.2575C17.1956 22.8877 16.0575 23.3656 14.8476 23.66L14.5807 22.5668C15.6771 22.3 16.7085 21.8669 17.6466 21.2959Z" fill="#3B45FD"/>
<path d="M13.6593 22.749L13.831 23.8611C13.234 23.9525 12.6225 23.9999 12 23.9999C11.3774 23.9999 10.7659 23.9525 10.1689 23.8611L10.3405 22.7492C10.8813 22.832 11.4355 22.8749 12 22.8749C12.5642 22.8749 13.1183 22.832 13.6593 22.749Z" fill="#3B45FD"/>
<path d="M9.41917 22.5672L9.15226 23.6601C8.24343 23.4388 7.37511 23.1142 6.56049 22.6992L5.42159 22.965L5.16596 21.8694L6.70501 21.5103L7.07113 21.6967C7.80894 22.0726 8.59548 22.3668 9.41917 22.5672Z" fill="#3B45FD"/>
<path d="M4.21646 22.0909L4.47209 23.1865L2.51991 23.6419C1.22079 23.945 0.0548528 22.7791 0.357982 21.4801L0.813491 19.5278L1.90907 19.7834L1.45355 21.7357C1.33988 22.2229 1.77711 22.66 2.26428 22.5464L4.21646 22.0909Z" fill="#3B45FD"/>
<path d="M2.13062 18.8338L1.03504 18.5782L1.30079 17.4393C0.885789 16.6246 0.561101 15.7563 0.339908 14.8475L1.43279 14.5806C1.63319 15.4042 1.92735 16.1908 2.30321 16.9287L2.48973 17.2948L2.13062 18.8338Z" fill="#3B45FD"/>
<path d="M1.25064 13.6594L0.138804 13.831C0.0474057 13.234 0 12.6226 0 12C0 11.3775 0.04741 10.766 0.138817 10.1689L1.2508 10.3406C1.16797 10.8817 1.125 11.4358 1.125 12C1.125 12.5645 1.16792 13.1186 1.25064 13.6594Z" fill="#3B45FD"/>
<path d="M1.43306 9.4191L0.339927 9.15213C0.63438 7.94227 1.11223 6.80421 1.74237 5.76904L2.70402 6.35317C2.13297 7.29129 1.69991 8.32266 1.43306 9.4191Z" fill="#3B45FD"/>
<path d="M3.22647 5.57299L2.31886 4.90813C3.04483 3.91878 3.91881 3.04482 4.90817 2.31885L5.57303 3.22645C4.67643 3.88437 3.88438 4.6764 3.22647 5.57299Z" fill="#3B45FD"/>
<path d="M6.3534 2.70392L5.76926 1.74226C6.80442 1.11214 7.94249 0.634292 9.15236 0.339844L9.41933 1.43298C8.32289 1.69982 7.29151 2.13286 6.3534 2.70392Z" fill="#3B45FD"/>
<path d="M21.75 12C21.75 17.3849 17.3849 21.75 12 21.75C10.292 21.75 8.68661 21.3108 7.29053 20.5392C7.15611 20.4649 6.99927 20.4405 6.84969 20.4753L2.51268 21.4873L3.52466 17.1503C3.55955 17.0007 3.53503 16.8438 3.46075 16.7094C2.68917 15.3134 2.25 13.708 2.25 12C2.25 6.61523 6.61523 2.25 12 2.25C17.3849 2.25 21.75 6.61523 21.75 12Z" fill="#3B45FD"/>
</g>
<defs>
<clipPath id="clip0_25_65">
<rect width="24" height="24" fill="white"/>
</clipPath>
</defs>
</svg>
