<svg fill="none" height="25" viewBox="0 0 25 25" width="25" xmlns="http://www.w3.org/2000/svg" xmlns:xlink="http://www.w3.org/1999/xlink"><clipPath id="a"><path d="m.400024.400002h24v24h-24z"/></clipPath><g clip-path="url(#a)" fill="#fff"><path d="m5.28955 18.9304c1.75691 1.9226 4.29282 3.116 7.11045 3.116 1.442 0 2.8012-.3149 4.0277-.8784l-6.69616-6.6796z"/><path d="m9.69839 10.4442-5.07183 5.0553-.67955-.6796 5.33701-5.33703 6.23208-6.23204c-.9779-.33149-2.0221-.51381-3.1161-.51381-5.33697 0-9.66294 4.32597-9.66294 9.66298 0 2.1713.71271 4.1768 1.93923 5.8011l5.05525-5.0552.34806.3315 7.2431 7.243c.1492-.0828.2818-.1657.4144-.2651l-8.00556-8.0056-4.85636 4.8564-.67956-.6796 5.53592-5.5359.34806.3315 8.453 8.4365c.1326-.0995.2487-.2155.3647-.315l-9.11604-9.116z"/><path d="m19.5768 18.8641c1.5415-1.7072 2.4862-3.9779 2.4862-6.4641 0-3.87845-2.2873-7.20994-5.5691-8.75138l-6.0828 6.0663zm-6.8287-7.3923-.6796-.6795 4.7901-4.79009.6795.67956zm4.5414-6.58009-5.5193 5.51939-.6796-.67961 5.5194-5.51933z"/><path d="m12.4 24.4c-6.61324 0-11.999976-5.3867-11.999976-12 0-6.61326 5.386736-11.999998 11.999976-11.999998 6.6133 0 12 5.386738 12 11.999998 0 6.6133-5.3867 12-12 12zm0-22.79005c-5.95025 0-10.79003 4.83978-10.79003 10.79005 0 5.9503 4.83978 10.7901 10.79003 10.7901 5.9503 0 10.7901-4.8398 10.7901-10.7901 0-5.95027-4.8398-10.79005-10.7901-10.79005z"/></g></svg>