<svg fill="none" height="24" viewBox="0 0 24 24" width="24" xmlns="http://www.w3.org/2000/svg"><path d="m18.5576 4.45199c-2.5725.01238-4.5278 1.71375-5.2598 4.42499-1.2281-1.89-2.1862-4.05186-2.7356-5.87698l-2.70747.01275.0375 7.17675c.0016.3378-.06337.6727-.19119.9855s-.31599.5973-.55377.8373c-.23778.2401-.52051.4309-.83206.5617-.31154.1308-.64579.1989-.98366.2005-.68237.0033-1.33807-.2647-1.82286-.7449-.24005-.2378-.43091-.5205-.56169-.8321-.13077-.3115-.19891-.6458-.20051-.9837l-.0375-7.17668-2.70899.01313.0374999 7.17705c.0105 2.9783 2.3902401 5.3382 5.3024801 5.3232 2.91225-.015 5.27062-2.3948 5.25752-5.3738l-.0057-1.21872c.546 1.08002 1.2285 2.22752 1.9785 3.24002l-1.6556 7.9289 2.775-.0127 1.1925-5.7607c1.086.6723 2.3063 1.0725 3.7275 1.0657 2.979-.0131 5.4052-2.4611 5.3902-5.57623-.0135-2.97973-2.463-5.40485-5.442-5.39135zm.0386 8.19221c-1.083.0049-2.1682-.4635-3.0517-1.2049l.2655-1.0875v-.0682c.198-1.15275.7972-3.11849 2.8282-3.12749.7177-.00131 1.4067.28144 1.9166.78648.5099.50505.7992 1.19135.8048 1.90901-.0612 1.5574-1.3414 2.7825-2.7638 2.7889z" fill="#fff"/></svg>