<svg xmlns="http://www.w3.org/2000/svg" viewBox="0 0 640 512"><!--! Font Awesome Pro 6.6.0 by @fontawesome - https://fontawesome.com License - https://fontawesome.com/license (Commercial License) Copyright 2024 Fonticons, Inc. --><path d="M592 32a16 16 0 1 1 32 0 16 16 0 1 1 -32 0zm48 0a32 32 0 1 0 -64 0 32 32 0 1 0 64 0zM8 64c-4.4 0-8 3.6-8 8s3.6 8 8 8l134.9 0L33.9 210.9c-2 2.4-2.4 5.7-1.1 8.5s4.1 4.6 7.2 4.6l32 0c57.4 0 104 46.6 104 104l0 19.4c0 46.7-37.9 84.6-84.6 84.6c-25.1 0-48.9-11.2-65-30.4L14.1 386.9c-2.8-3.4-7.9-3.9-11.3-1s-3.9 7.9-1 11.3l12.2 14.7C33.2 434.7 61.5 448 91.4 448C147 448 192 403 192 347.4l0-19.4c0-66.3-53.7-120-120-120l-14.9 0L166.1 77.1c2-2.4 2.4-5.7 1.1-8.5s-4.1-4.6-7.2-4.6L8 64zm424 80c0-35.3 28.7-64 64-64s64 28.7 64 64l0 224c0 35.3-28.7 64-64 64s-64-28.7-64-64l0-224zM576 368l0-224c0-44.2-35.8-80-80-80s-80 35.8-80 80l0 224c0 44.2 35.8 80 80 80s80-35.8 80-80zM344 80c4.4 0 8-3.6 8-8s-3.6-8-8-8c-66.3 0-120 53.7-120 120l0 104 0 .1 0 79.9c0 44.2 35.8 80 80 80s80-35.8 80-80l0-80c0-44.2-35.8-80-80-80c-26.2 0-49.4 12.6-64 32l0-56c0-57.4 46.6-104 104-104zM240 288c0-35.3 28.7-64 64-64s64 28.7 64 64l0 80c0 35.3-28.7 64-64 64s-64-28.7-64-64l0-80z"/></svg>