<svg xmlns="http://www.w3.org/2000/svg" viewBox="0 0 448 512"><!--! Font Awesome Pro 6.6.0 by @fontawesome - https://fontawesome.com License - https://fontawesome.com/license (Commercial License) Copyright 2024 Fonticons, Inc. --><path d="M104 56c-4.4 0-8 3.6-8 8s3.6 8 8 8l240 0c4.4 0 8-3.6 8-8s-3.6-8-8-8L104 56zM8 184c-4.4 0-8 3.6-8 8s3.6 8 8 8l432 0c4.4 0 8-3.6 8-8s-3.6-8-8-8L8 184zM96 320c0 4.4 3.6 8 8 8l240 0c4.4 0 8-3.6 8-8s-3.6-8-8-8l-240 0c-4.4 0-8 3.6-8 8zM8 440c-4.4 0-8 3.6-8 8s3.6 8 8 8l432 0c4.4 0 8-3.6 8-8s-3.6-8-8-8L8 440z"/></svg>