<svg xmlns="http://www.w3.org/2000/svg" viewBox="0 0 512 512"><!--! Font Awesome Pro 6.6.0 by @fontawesome - https://fontawesome.com License - https://fontawesome.com/license (Commercial License) Copyright 2024 Fonticons, Inc. --><path d="M93.7 437.7l176-176c3.1-3.1 3.1-8.2 0-11.3l-176-176c-3.1-3.1-8.2-3.1-11.3 0s-3.1 8.2 0 11.3L252.7 256 82.3 426.3c-3.1 3.1-3.1 8.2 0 11.3s8.2 3.1 11.3 0zm192 0l176-176c3.1-3.1 3.1-8.2 0-11.3l-176-176c-3.1-3.1-8.2-3.1-11.3 0s-3.1 8.2 0 11.3L444.7 256 274.3 426.3c-3.1 3.1-3.1 8.2 0 11.3s8.2 3.1 11.3 0z"/></svg>