<svg xmlns="http://www.w3.org/2000/svg" viewBox="0 0 576 512"><!--! Font Awesome Pro 6.6.0 by @fontawesome - https://fontawesome.com License - https://fontawesome.com/license (Commercial License) Copyright 2024 Fonticons, Inc. --><path d="M568 464L8 464c-4.4 0-8 3.6-8 8s3.6 8 8 8l560 0c4.4 0 8-3.6 8-8s-3.6-8-8-8zm5.7-194.3c3.1-3.1 3.1-8.2 0-11.3s-8.2-3.1-11.3 0L456 364.7 456 40c0-4.4-3.6-8-8-8s-8 3.6-8 8l0 324.7L333.7 258.3c-3.1-3.1-8.2-3.1-11.3 0s-3.1 8.2 0 11.3l120 120c3.1 3.1 8.2 3.1 11.3 0l120-120zm-320-11.3c-3.1-3.1-8.2-3.1-11.3 0L136 364.7 136 40c0-4.4-3.6-8-8-8s-8 3.6-8 8l0 324.7L13.7 258.3c-3.1-3.1-8.2-3.1-11.3 0s-3.1 8.2 0 11.3l120 120c3.1 3.1 8.2 3.1 11.3 0l120-120c3.1-3.1 3.1-8.2 0-11.3z"/></svg>