<svg xmlns="http://www.w3.org/2000/svg" viewBox="0 0 512 512"><!--! Font Awesome Pro 6.6.0 by @fontawesome - https://fontawesome.com License - https://fontawesome.com/license (Commercial License) Copyright 2024 Fonticons, Inc. --><path d="M320 24c0 4.4 3.6 8 8 8l140.7 0L202.3 298.3c-3.1 3.1-3.1 8.2 0 11.3s8.2 3.1 11.3 0L480 43.3 480 184c0 4.4 3.6 8 8 8s8-3.6 8-8l0-160c0-4.4-3.6-8-8-8L328 16c-4.4 0-8 3.6-8 8zM56 32C25.1 32 0 57.1 0 88L0 456c0 30.9 25.1 56 56 56l368 0c30.9 0 56-25.1 56-56l0-144c0-4.4-3.6-8-8-8s-8 3.6-8 8l0 144c0 22.1-17.9 40-40 40L56 496c-22.1 0-40-17.9-40-40L16 88c0-22.1 17.9-40 40-40l144 0c4.4 0 8-3.6 8-8s-3.6-8-8-8L56 32z"/></svg>