<svg xmlns="http://www.w3.org/2000/svg" viewBox="0 0 448 512"><!--! Font Awesome Pro 6.6.0 by @fontawesome - https://fontawesome.com License - https://fontawesome.com/license (Commercial License) Copyright 2024 Fonticons, Inc. --><path d="M218.3 2.3c3.1-3.1 8.2-3.1 11.3 0l88 88c3.1 3.1 3.1 8.2 0 11.3s-8.2 3.1-11.3 0L232 27.3 232 184c0 4.4-3.6 8-8 8s-8-3.6-8-8l0-156.7-74.3 74.3c-3.1 3.1-8.2 3.1-11.3 0s-3.1-8.2 0-11.3l88-88zm11.3 507.3c-3.1 3.1-8.2 3.1-11.3 0l-88-88c-3.1-3.1-3.1-8.2 0-11.3s8.2-3.1 11.3 0L216 484.7 216 328c0-4.4 3.6-8 8-8s8 3.6 8 8l0 156.7 74.3-74.3c3.1-3.1 8.2-3.1 11.3 0s3.1 8.2 0 11.3l-88 88zM8 248l432 0c4.4 0 8 3.6 8 8s-3.6 8-8 8L8 264c-4.4 0-8-3.6-8-8s3.6-8 8-8z"/></svg>