<svg xmlns="http://www.w3.org/2000/svg" viewBox="0 0 576 512"><!--! Font Awesome Pro 6.6.0 by @fontawesome - https://fontawesome.com License - https://fontawesome.com/license (Commercial License) Copyright 2024 Fonticons, Inc. --><path d="M165.7 477.7l104-104c3.1-3.1 3.1-8.2 0-11.3s-8.2-3.1-11.3 0L168 452.7 168 40c0-4.4-3.6-8-8-8s-8 3.6-8 8l0 412.7L61.7 362.3c-3.1-3.1-8.2-3.1-11.3 0s-3.1 8.2 0 11.3l104 104c3.1 3.1 8.2 3.1 11.3 0zM336 432l0-64c0-17.7 14.3-32 32-32l64 0c17.7 0 32 14.3 32 32l0 64c0 17.7-14.3 32-32 32l-64 0c-17.7 0-32-14.3-32-32zm-16 0c0 26.5 21.5 48 48 48l64 0c26.5 0 48-21.5 48-48l0-64c0-26.5-21.5-48-48-48l-64 0c-26.5 0-48 21.5-48 48l0 64zM336 80c0-17.7 14.3-32 32-32l128 0c17.7 0 32 14.3 32 32l0 128c0 17.7-14.3 32-32 32l-128 0c-17.7 0-32-14.3-32-32l0-128zm-16 0l0 128c0 26.5 21.5 48 48 48l128 0c26.5 0 48-21.5 48-48l0-128c0-26.5-21.5-48-48-48L368 32c-26.5 0-48 21.5-48 48z"/></svg>