<svg xmlns="http://www.w3.org/2000/svg" viewBox="0 0 320 512"><!--! Font Awesome Pro 6.6.0 by @fontawesome - https://fontawesome.com License - https://fontawesome.com/license (Commercial License) Copyright 2024 Fonticons, Inc. --><path d="M165.7 2.3c-3-3-7.9-3.1-11.1-.2l-112 104c-3.2 3-3.4 8.1-.4 11.3s8.1 3.4 11.3 .4L152 26.3l0 458.3L61.7 394.3c-3.1-3.1-8.2-3.1-11.3 0s-3.1 8.2 0 11.3l104 104c3.1 3.1 8.2 3.1 11.3 0l104-104c3.1-3.1 3.1-8.2 0-11.3s-8.2-3.1-11.3 0L168 484.7l0-457.4 90.3 90.3c3.1 3.1 8.2 3.1 11.3 0s3.1-8.2 0-11.3l-104-104z"/></svg>