<svg xmlns="http://www.w3.org/2000/svg" viewBox="0 0 448 512"><!--! Font Awesome Pro 6.6.0 by @fontawesome - https://fontawesome.com License - https://fontawesome.com/license (Commercial License) Copyright 2024 Fonticons, Inc. --><path d="M0 440c0 4.4 3.6 8 8 8s8-3.6 8-8L16 72c0-4.4-3.6-8-8-8s-8 3.6-8 8L0 440zM98.3 250.3c-3.1 3.1-3.1 8.2 0 11.3l136 136c3.1 3.1 8.2 3.1 11.3 0s3.1-8.2 0-11.3L123.3 264 440 264c4.4 0 8-3.6 8-8s-3.6-8-8-8l-316.7 0L245.7 125.7c3.1-3.1 3.1-8.2 0-11.3s-8.2-3.1-11.3 0l-136 136z"/></svg>