<svg xmlns="http://www.w3.org/2000/svg" viewBox="0 0 640 512"><!--! Font Awesome Pro 6.6.0 by @fontawesome - https://fontawesome.com License - https://fontawesome.com/license (Commercial License) Copyright 2024 Fonticons, Inc. --><path d="M136 8c0-4.4 3.6-8 8-8s8 3.6 8 8l0 156.7 50.3-50.3c3.1-3.1 8.2-3.1 11.3 0s3.1 8.2 0 11.3l-64 64c-3.1 3.1-8.2 3.1-11.3 0l-64-64c-3.1-3.1-3.1-8.2 0-11.3s8.2-3.1 11.3 0L136 164.7 136 8zM426.3 114.3c3.1-3.1 8.2-3.1 11.3 0L488 164.7 488 8c0-4.4 3.6-8 8-8s8 3.6 8 8l0 156.7 50.3-50.3c3.1-3.1 8.2-3.1 11.3 0s3.1 8.2 0 11.3l-64 64c-3.1 3.1-8.2 3.1-11.3 0l-64-64c-3.1-3.1-3.1-8.2 0-11.3zM496 320a24 24 0 1 0 0-48 24 24 0 1 0 0 48zm0-64a40 40 0 1 1 0 80 40 40 0 1 1 0-80zm-5.1 112c-32.5 0-62.4 17.9-77.6 46.6l-28 52.6c-2.7 5.1-.7 11.5 4.5 14.1c4.8 2.4 10.7 .7 13.5-3.9l39.3-65.4c1.9-3.1 5.5-4.6 9-3.6s5.9 4.1 5.9 7.7l0 64c0 8.8 7.2 16 16 16l48 0c8.8 0 16-7.2 16-16l0-64c0-3.6 2.4-6.7 5.9-7.7s7.1 .5 9 3.6l39.3 65.4c2.8 4.6 8.6 6.3 13.5 3.9c5.2-2.6 7.2-9 4.5-14.1l-28-52.6c-15.3-28.7-45.1-46.6-77.6-46.6l-12.8 0zm-91.8 39.1c18.1-33.9 53.4-55.1 91.8-55.1l12.8 0c38.4 0 73.7 21.2 91.8 55.1l28 52.6c7 13.1 1.8 29.3-11.5 35.9c-12.3 6.2-27.3 1.8-34.3-10l-24.4-40.7 0 35.1c0 17.7-14.3 32-32 32l-48 0c-17.7 0-32-14.3-32-32l0-35.1-24.4 40.7c-7.1 11.8-22 16.2-34.3 10c-13.2-6.6-18.4-22.9-11.5-35.9l28-52.6zM168 296a24 24 0 1 0 -48 0 24 24 0 1 0 48 0zm-64 0a40 40 0 1 1 80 0 40 40 0 1 1 -80 0zM61.3 414.6l-28 52.6c-2.7 5.1-.7 11.5 4.5 14.1c4.8 2.4 10.7 .7 13.5-3.9l39.3-65.4c1.8-3.1 5.5-4.6 9-3.6s5.9 4.1 5.9 7.7l0 64c0 8.8 7.2 16 16 16l48 0c8.8 0 16-7.2 16-16l0-64c0-3.6 2.4-6.7 5.9-7.7s7.1 .5 9 3.6l39.3 65.4c2.8 4.6 8.6 6.3 13.5 3.9c5.2-2.6 7.2-9 4.5-14.1l-28-52.6c-15.3-28.7-45.1-46.6-77.6-46.6l-12.8 0c-32.5 0-62.4 17.9-77.6 46.6zM138.9 352l12.8 0c38.4 0 73.7 21.2 91.8 55.1l28 52.6c7 13.1 1.8 29.3-11.5 35.9c-12.3 6.2-27.3 1.8-34.3-10l-24.4-40.7 0 35.1c0 17.7-14.3 32-32 32l-48 0c-17.7 0-32-14.3-32-32l0-35.1L64.9 485.6c-7.1 11.8-22 16.2-34.3 10c-13.2-6.6-18.4-22.9-11.5-35.9l28-52.6c18.1-33.9 53.4-55.1 91.8-55.1zM320 208a24 24 0 1 0 0-48 24 24 0 1 0 0 48zm0-64a40 40 0 1 1 0 80 40 40 0 1 1 0-80zm-5.1 112c-32.5 0-62.4 17.9-77.6 46.6c0 0 0 .1 0 .1c0 0 0 0 0 0l-20 36.6c-2.1 3.9-7 5.3-10.9 3.2s-5.3-7-3.2-10.9l20-36.5c18.1-33.9 53.3-55 91.7-55l12.8 0c38.4 0 73.7 21.2 91.7 55l20 36.5c2.1 3.9 .7 8.7-3.2 10.9s-8.7 .7-10.9-3.2l-20-36.6c0 0 0-.1 0-.1c0 0 0 0 0 0c-15.3-28.7-45.1-46.6-77.6-46.6l-12.8 0zm-39.4 40.3c3.4 1 5.8 4.1 5.8 7.7l0 88c0 4.4-3.6 8-8 8s-8-3.6-8-8l0-60.4-16.5 26.1c-2.4 3.7-7.3 4.8-11 2.5s-4.8-7.3-2.5-11l31.3-49.5c1.9-3 5.6-4.4 9-3.4zm91.5 0c3.4-1 7.1 .4 9 3.4l31.3 49.5c2.4 3.7 1.2 8.7-2.5 11s-8.7 1.3-11-2.5l-16.5-26.1 0 60.4c0 4.4-3.6 8-8 8s-8-3.6-8-8l0-88c0-3.6 2.4-6.7 5.8-7.7z"/></svg>