<svg xmlns="http://www.w3.org/2000/svg" viewBox="0 0 448 512"><!--! Font Awesome Pro 6.6.0 by @fontawesome - https://fontawesome.com License - https://fontawesome.com/license (Commercial License) Copyright 2024 Fonticons, Inc. --><path d="M365.7 298.3l-136-136c-3.1-3.1-8.2-3.1-11.3 0l-136 136c-3.1 3.1-3.1 8.2 0 11.3s8.2 3.1 11.3 0L216 187.3 216 504c0 4.4 3.6 8 8 8s8-3.6 8-8l0-316.7L354.3 309.7c3.1 3.1 8.2 3.1 11.3 0s3.1-8.2 0-11.3zM16 184l0-96c0-39.8 32.2-72 72-72l272 0c39.8 0 72 32.2 72 72l0 96c0 4.4 3.6 8 8 8s8-3.6 8-8l0-96c0-48.6-39.4-88-88-88L88 0C39.4 0 0 39.4 0 88l0 96c0 4.4 3.6 8 8 8s8-3.6 8-8z"/></svg>