<svg xmlns="http://www.w3.org/2000/svg" viewBox="0 0 448 512"><!--! Font Awesome Pro 6.6.0 by @fontawesome - https://fontawesome.com License - https://fontawesome.com/license (Commercial License) Copyright 2024 Fonticons, Inc. --><path d="M16 64a16 16 0 1 1 32 0A16 16 0 1 1 16 64zM128 48a16 16 0 1 1 0 32 16 16 0 1 1 0-32zm96 0a16 16 0 1 1 0 32 16 16 0 1 1 0-32zm96 0a16 16 0 1 1 0 32 16 16 0 1 1 0-32zm80 16a16 16 0 1 1 32 0 16 16 0 1 1 -32 0zM365.7 341.7l-136 136c-3.1 3.1-8.2 3.1-11.3 0l-136-136c-3.1-3.1-3.1-8.2 0-11.3s8.2-3.1 11.3 0L216 452.7 216 328l0-160c0-4.4 3.6-8 8-8s8 3.6 8 8l0 160 0 124.7L354.3 330.3c3.1-3.1 8.2-3.1 11.3 0s3.1 8.2 0 11.3z"/></svg>