<svg xmlns="http://www.w3.org/2000/svg" viewBox="0 0 448 512"><!--! Font Awesome Pro 6.6.0 by @fontawesome - https://fontawesome.com License - https://fontawesome.com/license (Commercial License) Copyright 2024 Fonticons, Inc. --><path d="M445.7 133.7c3.1-3.1 3.1-8.2 0-11.3l-104-104c-3.1-3.1-8.2-3.1-11.3 0s-3.1 8.2 0 11.3L420.7 120 8 120c-4.4 0-8 3.6-8 8s3.6 8 8 8l412.7 0-90.3 90.3c-3.1 3.1-3.1 8.2 0 11.3s8.2 3.1 11.3 0l104-104zM2.3 389.7l104 104c3.1 3.1 8.2 3.1 11.3 0s3.1-8.2 0-11.3L27.3 392 440 392c4.4 0 8-3.6 8-8s-3.6-8-8-8L27.3 376l90.3-90.3c3.1-3.1 3.1-8.2 0-11.3s-8.2-3.1-11.3 0l-104 104c-3.1 3.1-3.1 8.2 0 11.3z"/></svg>