<svg xmlns="http://www.w3.org/2000/svg" viewBox="0 0 640 512"><!--! Font Awesome Pro 6.6.0 by @fontawesome - https://fontawesome.com License - https://fontawesome.com/license (Commercial License) Copyright 2024 Fonticons, Inc. --><path d="M13 1.7C9.5-1 4.5-.4 1.7 3S-.4 11.5 3 14.3l624 496c3.5 2.7 8.5 2.2 11.2-1.3s2.2-8.5-1.3-11.2L13 1.7zM487.5 480l-20.3-16L96 464c-26.5 0-48-21.5-48-48l0-283L32 120.4 32 416c0 35.3 28.7 64 64 64l391.5 0zM152.5 32l20.3 16L544 48c26.5 0 48 21.5 48 48l0 283 16 12.6L608 96c0-35.3-28.7-64-64-64L152.5 32zM344 183.2l16 12.6 0-19.8 56 0c44.2 0 80 35.8 80 80c0 14.2-3.7 27.6-10.2 39.1l12.7 10C507.1 290.8 512 274 512 256c0-53-43-96-96-96l-64 0c-4.4 0-8 3.6-8 8l0 15.2zM180.3 237.5l-19.4 38.8-.1 .3-31.9 63.8c-2 4-.4 8.8 3.6 10.7s8.8 .4 10.7-3.6L172.9 288l71.4 0-20.3-16-43.1 0 12.2-24.4-12.8-10.1z"/></svg>