<svg xmlns="http://www.w3.org/2000/svg" viewBox="0 0 384 512"><!--! Font Awesome Pro 6.6.0 by @fontawesome - https://fontawesome.com License - https://fontawesome.com/license (Commercial License) Copyright 2024 Fonticons, Inc. --><path d="M214.1 6.2c-13.6-8.3-30.7-8.3-44.3 0L152.7 16.6c-4.3 2.6-9.3 4-14.4 3.9L118.3 20c-15.9-.4-30.7 8.2-38.3 22.1L70.3 59.8c-2.4 4.5-6.1 8.1-10.6 10.6L42.2 79.9c-14 7.6-22.5 22.4-22.1 38.3l.5 20.1c.1 5.1-1.2 10.1-3.9 14.4L6.2 169.9c-8.3 13.6-8.3 30.7 0 44.3l10.4 17.1c2.6 4.3 4 9.3 3.9 14.4L20 265.7c-.4 15.9 8.2 30.7 22.1 38.3l17.6 9.6c4.5 2.4 8.1 6.1 10.6 10.6l9.6 17.6c7.6 14 22.4 22.5 38.3 22.1l20.1-.5c5.1-.1 10.1 1.2 14.4 3.9l17.1 10.4c13.6 8.3 30.7 8.3 44.3 0l17.1-10.4c4.3-2.6 9.3-4 14.4-3.9l20.1 .5c15.9 .4 30.7-8.2 38.3-22.1l9.6-17.6c2.4-4.5 6.1-8.1 10.6-10.6l17.6-9.6c14-7.6 22.5-22.4 22.1-38.3l-.5-20.1c-.1-5.1 1.2-10.1 3.9-14.4l10.4-17.1c8.3-13.6 8.3-30.7 0-44.3l-10.4-17.1c-2.6-4.3-4-9.3-3.9-14.4l.5-20.1c.4-15.9-8.2-30.7-22.1-38.3l-17.6-9.6c-4.5-2.4-8.1-6.1-10.6-10.6l-9.6-17.6c-7.6-14-22.4-22.5-38.3-22.1l-20.1 .5c-5.1 .1-10.1-1.2-14.4-3.9L214.1 6.2zM178.2 19.9c8.5-5.2 19.1-5.2 27.6 0l17.1 10.4c7 4.2 15 6.4 23.1 6.2l20.1-.5c9.9-.2 19.1 5.1 23.9 13.8l9.6 17.6c3.9 7.1 9.8 13 16.9 16.9L334.2 94c8.7 4.8 14 14 13.8 23.9l-.5 20.1c-.2 8.1 2 16.2 6.2 23.1l10.4 17.1c5.2 8.5 5.2 19.1 0 27.6l-10.4 17.1c-4.2 7-6.4 15-6.2 23.1l.5 20.1c.2 9.9-5.1 19.1-13.8 23.9l-17.6 9.6c-7.1 3.9-13 9.8-16.9 16.9L290 334.2c-4.8 8.7-14 14-23.9 13.8l-20.1-.5c-8.1-.2-16.2 2-23.1 6.2l-17.1 10.4c-8.5 5.2-19.1 5.2-27.6 0l-17.1-10.4c-7-4.2-15-6.4-23.1-6.2l-20.1 .5c-9.9 .2-19.1-5.1-23.9-13.8l-9.6-17.6c-3.9-7.1-9.8-13-16.9-16.9L49.8 290c-8.7-4.8-14-14-13.8-23.9l.5-20.1c.2-8.1-2-16.2-6.2-23.1L19.9 205.8c-5.2-8.5-5.2-19.1 0-27.6l10.4-17.1c4.2-7 6.4-15 6.2-23.1L36 117.9C35.8 108 41.1 98.7 49.8 94l17.6-9.6c7.1-3.9 13-9.8 16.9-16.9L94 49.8c4.8-8.7 14-14 23.9-13.8l20.1 .5c8.1 .2 16.2-2 23.1-6.2l17.1-10.4zM264 192a72 72 0 1 1 -144 0 72 72 0 1 1 144 0zm-72-88a88 88 0 1 0 0 176 88 88 0 1 0 0-176zM39 340.6L2.7 439.4c-2.1 5.8-1.8 12.3 1 17.8c4.7 9.4 15.3 14.3 25.6 11.8l46.1-11.5 18.2 42.4C96.7 507.2 104 512 112 512c8.1 0 15.4-4.8 18.5-12.3l36.9-87.5c-5-1.6-10-3.7-14.7-6.3l-36.9 87.7c-.6 1.5-2.1 2.5-3.8 2.5s-3.1-1-3.8-2.5L87.4 444.8c-1.5-3.6-5.5-5.6-9.3-4.6L25.3 453.4c-2.9 .7-6-.7-7.4-3.4c-.8-1.6-.9-3.5-.3-5.1l32.6-88.6c-.3-.5-.6-1.1-.9-1.6c-4.2-7.7-6.5-10.5-8.1-12c-.5-.5-1.3-1.2-2.3-2zm177.6 71.5l36.9 87.5c3.1 7.4 10.4 12.3 18.5 12.3c8 0 15.3-4.8 18.5-12.2l18.2-42.4 46.1 11.5c10.2 2.6 20.9-2.3 25.6-11.8c2.8-5.6 3.1-12 1-17.8L345 340.6c-1.1 .8-1.8 1.5-2.3 2c-1.5 1.5-3.8 4.3-8.1 12c-.3 .5-.6 1.1-.9 1.6l32.6 88.6c.6 1.7 .5 3.5-.3 5.1c-1.4 2.7-4.4 4.1-7.4 3.4l-52.7-13.2c-3.8-1-7.7 1-9.3 4.6l-20.9 48.7c-.6 1.5-2.1 2.5-3.8 2.5s-3.1-1-3.8-2.5l-36.9-87.7c-4.7 2.6-9.6 4.7-14.7 6.4z"/></svg>