<svg xmlns="http://www.w3.org/2000/svg" viewBox="0 0 576 512"><!--! Font Awesome Pro 6.6.0 by @fontawesome - https://fontawesome.com License - https://fontawesome.com/license (Commercial License) Copyright 2024 Fonticons, Inc. --><path d="M441.7 216c-26.1 23-45.1 49.9-67.3 82.1l-2.2 3.2C327.8 365.9 275.5 442 142.3 508.6c-12.3 6.2-27.2 3.7-36.9-6l-96-96c-7.3-7.3-10.6-17.6-9-27.8s8.1-18.9 17.3-23.5C136.1 296.2 180.9 231 223.3 169.3l2.3-3.4c21.8-31.8 44.9-64.9 77.7-93.9c33.4-29.5 75.8-53.6 135.9-70.8c11.2-3.2 23.2-.1 31.4 8.1l96 96c8 8 11.2 19.7 8.3 30.7s-11.3 19.6-22.2 22.7c-51.9 14.8-85.6 34.7-111.1 57.2zM236.5 178.3s0 0 0 0c-42.9 62.5-89.6 130.3-211.6 191.4c-4.6 2.3-7.8 6.7-8.6 11.7s.8 10.2 4.5 13.9l32.9 32.9 22.8-11.4c124-62 171.5-131.2 214.7-194l2.3-3.3c22-31.9 43.5-62.7 73.8-89.5c30.5-26.9 69.5-49.4 126.5-65.7l7.1-2.1L459.3 20.7c-4.1-4.1-10.1-5.7-15.7-4.1c-58 16.6-98.2 39.7-129.7 67.4c-31.2 27.5-53.2 59.1-75.1 90.9c0 0 0 0 0 0l-2.3 3.4zM65.5 440.2l51.1 51.1-8.5 8.5 8.5-8.5c4.9 4.9 12.3 6.1 18.5 3c129.5-64.7 179.9-138.1 223.7-201.9l.1-.1s0 0 0 0l2.2-3.2s0 0 0 0c22.1-32.1 42.1-60.5 69.9-85.1c27.5-24.3 63.4-45.2 117.3-60.6c5.4-1.6 9.7-5.9 11.1-11.4s-.2-11.3-4.2-15.3L513.7 75l-15.4 4.6-.1 0s0 0 0 0c-55 15.7-91.9 37.2-120.4 62.3c-28.7 25.3-49.2 54.5-71.2 86.5l-2.3 3.3c-43.6 63.5-93.1 135.5-220.8 199.3l-18 9z"/></svg>