<svg xmlns="http://www.w3.org/2000/svg" viewBox="0 0 640 512"><!--! Font Awesome Pro 6.6.0 by @fontawesome - https://fontawesome.com License - https://fontawesome.com/license (Commercial License) Copyright 2024 Fonticons, Inc. --><path d="M20.9 194.4C38.1 162 126 16 320 16s281.9 146 299.1 178.4c3.5 6.7 4.9 13.8 4.9 20.5l0 116.3c0 19-11.2 36.2-28.5 43.9l-95.6 42.5-2.5 18.6L602 389.7c23.1-10.3 38-33.2 38-58.5l0-116.3c0-8.9-1.8-18.6-6.8-28C615.3 153.1 523.3 0 320 0S24.7 153.1 6.8 187C1.8 196.3 0 206 0 214.9L0 331.2c0 25.3 14.9 48.2 38 58.5l104.6 46.5-2.5-18.6L44.5 375.1C27.2 367.4 16 350.2 16 331.2l0-116.3c0-6.8 1.4-13.8 4.9-20.5zM176 184c0-13.3 10.7-24 24-24l240 0c13.3 0 24 10.7 24 24l0 40 16 0 0-40c0-22.1-17.9-40-40-40l-240 0c-22.1 0-40 17.9-40 40l0 40 16 0 0-40zm-32 72l-16 0c-4.4 0-8 3.6-8 8s3.6 8 8 8l25 0 31.1 233.1c.4 3.2 2.7 5.8 5.8 6.7s6.4-.2 8.4-2.7l51.4-64.2 64.7 64.9c1.5 1.5 3.5 2.4 5.7 2.4s4.2-.8 5.7-2.4l64.7-64.9L441.8 509c2 2.5 5.3 3.6 8.4 2.7s5.4-3.5 5.8-6.7L487 272l25 0c4.4 0 8-3.6 8-8s-3.6-8-8-8l-16 0-15.9 0c-.1 0-.2 0-.2 0L464 256l-288 0-15.9 0c-.1 0-.2 0-.2 0L144 256zm25.1 16l70.8 0-60.2 79.7L169.1 272zm103.5 0l94.7 0L320 331.2 272.6 272zm127.4 0l70.8 0-10.6 79.7L400.1 272zM320 492.7l-60.3-60.5L320 356.8l60.3 75.4L320 492.7zm-71.7-71.9L191 363.3 256.2 277l53.6 67-61.4 76.8zm-10.1 12.6l-40.8 51L183.3 378.2l55 55.2zm153.4-12.6L330.2 344l53.6-67L449 363.3l-57.3 57.5zm10.1 12.6l55-55.2L442.5 484.4l-40.8-51z"/></svg>