<svg xmlns="http://www.w3.org/2000/svg" viewBox="0 0 576 512"><!--! Font Awesome Pro 6.6.0 by @fontawesome - https://fontawesome.com License - https://fontawesome.com/license (Commercial License) Copyright 2024 Fonticons, Inc. --><path d="M372.2 166.1c4.4 2.3 9.6 2.3 14.1 .2l73.2-34.8c9.6-4.6 21.1-2.1 28.1 5.9c46.7 54.5 72.4 124 72.4 195.8l0 40.9-59.6-29.8c-15-7.5-33.1-2.2-41.8 12.2l-29.8 49.7-36.6-36.6c-13.7-13.7-36.2-12.2-48 3.1L288 445.8l-56.2-73.1c-11.8-15.3-34.3-16.8-48-3.1l-36.6 36.6-29.8-49.7c-8.6-14.3-26.8-19.6-41.8-12.2L16 374.1l0-40.9c0-71.8 25.7-141.3 72.4-195.8c6.9-8.1 18.4-10.5 28.1-5.9l73.2 34.8c4.5 2.1 9.7 2.1 14.1-.2s7.6-6.4 8.5-11.3L229 65.3l35.4 23.6c7 4.6 15.2 7.1 23.5 7.1s16.6-2.5 23.5-7.1L347 65.3l16.8 89.6c.9 4.9 4 9.1 8.5 11.3zM181.6 144.8L123.4 117c-16.2-7.7-35.5-3.6-47.1 10C27.1 184.4 0 257.6 0 333.2l0 44.7c0 10.2 10.7 16.8 19.8 12.2l63-31.5c7.5-3.7 16.6-1.1 20.9 6.1l29.8 49.7c5.4 8.9 17.7 10.4 25 3.1l36.6-36.6c6.8-6.8 18.1-6.1 24 1.6l56.2 73.1c6.4 8.3 19 8.3 25.4 0l56.2-73.1c5.9-7.7 17.2-8.4 24-1.6l36.6 36.6c7.4 7.4 19.7 5.8 25-3.1l29.8-49.7c4.3-7.2 13.4-9.8 20.9-6.1l63 31.5c9.1 4.5 19.8-2.1 19.8-12.2l0-44.7c0-75.6-27.1-148.8-76.3-206.2c-11.6-13.6-30.9-17.7-47.1-10l-58.2 27.7-14.9 7.1-3-16.3L362.2 59.5c-1.3-6.7-7.1-11.5-13.9-11.5c-2.8 0-5.5 .8-7.8 2.4L302.7 75.6c-4.3 2.9-9.4 4.4-14.7 4.4s-10.3-1.5-14.7-4.4L235.6 50.4c-2.3-1.5-5-2.4-7.8-2.4c-6.8 0-12.6 4.8-13.9 11.5l-14.3 76.1-3.1 16.3-14.9-7.1z"/></svg>