<svg xmlns="http://www.w3.org/2000/svg" viewBox="0 0 512 512"><!--! Font Awesome Pro 6.6.0 by @fontawesome - https://fontawesome.com License - https://fontawesome.com/license (Commercial License) Copyright 2024 Fonticons, Inc. --><path d="M200 32c-4.4 0-8 3.6-8 8s3.6 8 8 8c145.8 0 264 118.2 264 264c0 4.4 3.6 8 8 8s8-3.6 8-8C480 157.4 354.6 32 200 32zm0 96c-4.4 0-8 3.6-8 8s3.6 8 8 8c92.8 0 168 75.2 168 168c0 4.4 3.6 8 8 8s8-3.6 8-8c0-101.6-82.4-184-184-184zM16 104c0-4.4-3.6-8-8-8s-8 3.6-8 8L0 368c0 79.5 64.5 144 144 144s144-64.5 144-144s-64.5-144-144-144l-8 0c-4.4 0-8 3.6-8 8s3.6 8 8 8l8 0c70.7 0 128 57.3 128 128s-57.3 128-128 128S16 438.7 16 368l0-264z"/></svg>