<svg xmlns="http://www.w3.org/2000/svg" viewBox="0 0 640 512"><!--! Font Awesome Pro 6.6.0 by @fontawesome - https://fontawesome.com License - https://fontawesome.com/license (Commercial License) Copyright 2024 Fonticons, Inc. --><path d="M56 0C25.1 0 0 25.1 0 56L0 456c0 30.9 25.1 56 56 56l338.8 0c-6.9-4.9-13.4-10.2-19.6-16L56 496c-22.1 0-40-17.9-40-40s17.9-40 40-40l270.6 0c-1.5-5.2-2.7-10.6-3.7-16L56 400c-15.7 0-29.8 6.4-40 16.8L16 56c0-22.1 17.9-40 40-40l352 0c13.3 0 24 10.7 24 24l0 164c5.2-2 10.6-3.8 16-5.4L448 40c0-22.1-17.9-40-40-40L56 0zM496 240a128 128 0 1 1 0 256 128 128 0 1 1 0-256zm0 272a144 144 0 1 0 0-288 144 144 0 1 0 0 288zm2.3-213.7c-3.1 3.1-3.1 8.2 0 11.3L548.7 360 424 360c-4.4 0-8 3.6-8 8s3.6 8 8 8l124.7 0-50.3 50.3c-3.1 3.1-3.1 8.2 0 11.3s8.2 3.1 11.3 0l64-64c3.1-3.1 3.1-8.2 0-11.3l-64-64c-3.1-3.1-8.2-3.1-11.3 0z"/></svg>