<svg xmlns="http://www.w3.org/2000/svg" viewBox="0 0 448 512"><!--! Font Awesome Pro 6.6.0 by @fontawesome - https://fontawesome.com License - https://fontawesome.com/license (Commercial License) Copyright 2024 Fonticons, Inc. --><path d="M8 480c-4.4 0-8-3.6-8-8L0 40c0-4.4 3.6-8 8-8s8 3.6 8 8l0 432c0 4.4-3.6 8-8 8zm120-48a16 16 0 1 1 0 32 16 16 0 1 1 0-32zm0-352a16 16 0 1 1 0-32 16 16 0 1 1 0 32zm0 160a16 16 0 1 1 0 32 16 16 0 1 1 0-32zM320 464a16 16 0 1 1 0-32 16 16 0 1 1 0 32zm0-416a16 16 0 1 1 0 32 16 16 0 1 1 0-32zm0 224a16 16 0 1 1 0-32 16 16 0 1 1 0 32zM224 432a16 16 0 1 1 0 32 16 16 0 1 1 0-32zm0-352a16 16 0 1 1 0-32 16 16 0 1 1 0 32zm0 160a16 16 0 1 1 0 32 16 16 0 1 1 0-32zM416 464a16 16 0 1 1 0-32 16 16 0 1 1 0 32zm0-416a16 16 0 1 1 0 32 16 16 0 1 1 0-32zm0 224a16 16 0 1 1 0-32 16 16 0 1 1 0 32zM224 336a16 16 0 1 1 0 32 16 16 0 1 1 0-32zm192 32a16 16 0 1 1 0-32 16 16 0 1 1 0 32zm0-224a16 16 0 1 1 0 32 16 16 0 1 1 0-32zM224 176a16 16 0 1 1 0-32 16 16 0 1 1 0 32z"/></svg>