<svg xmlns="http://www.w3.org/2000/svg" viewBox="0 0 512 512"><!--! Font Awesome Pro 6.6.0 by @fontawesome - https://fontawesome.com License - https://fontawesome.com/license (Commercial License) Copyright 2024 Fonticons, Inc. --><path d="M505.6 15.8l-496 104c-4.3 .9-8.6-1.9-9.5-6.2s1.9-8.6 6.2-9.5l496-104c4.3-.9 8.6 1.9 9.5 6.2s-1.9 8.6-6.2 9.5zM512 127.5c.3 4.4-3.1 8.2-7.5 8.5L8.5 168c-4.4 .3-8.2-3.1-8.5-7.5s3.1-8.2 7.5-8.5l496-32c4.4-.3 8.2 3.1 8.5 7.5zm-376 331.5c4.5 2.2 7.7 6.4 8.7 11.3c2.9 14.7 15.9 25.8 31.4 25.8l160 0c15.5 0 28.5-11.1 31.4-25.8c1-4.9 4.2-9.1 8.7-11.3c65.5-32 111.8-97.4 116.4-174.7l1.6-27.3c.5-9.2-6.8-16.9-16-16.9L33.9 240c-9.2 0-16.5 7.7-16 16.9l1.6 27.3c4.5 77.3 50.9 142.7 116.4 174.7zM2 257.9C.9 239.5 15.5 224 33.9 224l444.1 0c18.4 0 33 15.5 31.9 33.9l-1.6 27.3c-4.9 83.3-54.8 153.7-125.3 188.2c-4.3 22-23.8 38.7-47.1 38.7l-160 0c-23.3 0-42.8-16.6-47.1-38.7C58.4 438.9 8.5 368.4 3.6 285.2L2 257.9z"/></svg>