<svg xmlns="http://www.w3.org/2000/svg" viewBox="0 0 512 512"><!--! Font Awesome Pro 6.6.0 by @fontawesome - https://fontawesome.com License - https://fontawesome.com/license (Commercial License) Copyright 2024 Fonticons, Inc. --><path d="M217.6 112c-6.5 0-12.3 3.9-14.8 9.9C190.3 152.3 155.3 176 112 176c-55.4 0-96-38-96-80s40.6-80 96-80c43.3 0 78.3 23.7 90.8 54.1c2.5 6 8.3 9.9 14.8 9.9L480 80c8.8 0 16 7.2 16 16s-7.2 16-16 16l-262.4 0zM112 0C50.1 0 0 43 0 96s50.1 96 112 96c48.8 0 90.3-26.7 105.6-64L480 128c17.7 0 32-14.3 32-32s-14.3-32-32-32L217.6 64C202.3 26.7 160.8 0 112 0zm32.6 470.2c-1-4.9-4.2-9.1-8.7-11.3c-65.5-32-111.8-97.4-116.4-174.7L18 256.9c-.5-9.2 6.8-16.9 16-16.9l444.1 0c9.2 0 16.5 7.7 16 16.9l-1.6 27.3c-4.5 77.3-50.9 142.7-116.4 174.7c-4.5 2.2-7.7 6.4-8.7 11.3C364.5 484.9 351.5 496 336 496l-160 0c-15.5 0-28.5-11.1-31.4-25.8zM33.9 224C15.5 224 .9 239.5 2 257.9l1.6 27.3c4.9 83.3 54.8 153.7 125.3 188.2c4.3 22 23.8 38.7 47.1 38.7l160 0c23.3 0 42.8-16.6 47.1-38.7c70.5-34.5 120.4-104.9 125.3-188.2l1.6-27.3c1.1-18.4-13.5-33.9-31.9-33.9L33.9 224z"/></svg>