<svg xmlns="http://www.w3.org/2000/svg" viewBox="0 0 256 512"><!--! Font Awesome Pro 6.6.0 by @fontawesome - https://fontawesome.com License - https://fontawesome.com/license (Commercial License) Copyright 2024 Fonticons, Inc. --><path d="M192 88c0-30.9-25.1-56-56-56L56 32c-4.4 0-8 3.6-8 8s3.6 8 8 8l80 0c22.1 0 40 17.9 40 40l0 77.5c0 19.1 7.6 37.4 21.1 50.9L236.7 256l-39.6 39.6c-13.5 13.5-21.1 31.8-21.1 50.9l0 77.5c0 22.1-17.9 40-40 40l-80 0c-4.4 0-8 3.6-8 8s3.6 8 8 8l80 0c30.9 0 56-25.1 56-56l0-77.5c0-14.9 5.9-29.1 16.4-39.6l45.3-45.3c3.1-3.1 3.1-8.2 0-11.3l-45.3-45.3c-10.5-10.5-16.4-24.7-16.4-39.6L192 88z"/></svg>