<svg xmlns="http://www.w3.org/2000/svg" viewBox="0 0 512 512"><!--! Font Awesome Pro 6.6.0 by @fontawesome - https://fontawesome.com License - https://fontawesome.com/license (Commercial License) Copyright 2024 Fonticons, Inc. --><path d="M137.9 48.3C145 20.5 170.1 0 200 0c24.1 0 45.1 13.3 56 33c10.9-19.7 31.9-33 56-33c29.9 0 55 20.5 62.1 48.3C406.6 51.3 432 78.7 432 112c0 6.7-1 13.1-2.9 19.1c29.5 9 50.9 36.4 50.9 68.9c0 12.4-3.1 24.1-8.7 34.3C495.6 248 512 274.1 512 304c0 33.3-20.4 61.9-49.4 73.9c.9 4.6 1.4 9.3 1.4 14.1c0 39.8-32.2 72-72 72c-3.7 0-7.2-.3-10.8-.8C373 491.4 346.9 512 316 512c-26 0-48.5-14.6-60-36c-11.5 21.4-34 36-60 36c-30.9 0-57-20.6-65.2-48.8c-3.5 .5-7.1 .8-10.8 .8c-39.8 0-72-32.2-72-72c0-4.8 .5-9.5 1.4-14.1C20.4 365.9 0 337.3 0 304c0-29.9 16.4-56 40.7-69.7C35.1 224.1 32 212.4 32 200c0-32.4 21.4-59.8 50.9-68.9C81 125.1 80 118.7 80 112c0-33.3 25.4-60.7 57.9-63.7zM200 16c-24.2 0-44.2 17.9-47.5 41.1c-.6 4-4 6.9-8 6.9l-.5 0c-26.5 0-48 21.5-48 48c0 7.7 1.8 14.9 5 21.3c1.1 2.3 1.1 5-.1 7.2s-3.3 3.8-5.8 4.2C68.4 149 48 172.1 48 200c0 12.3 4 23.6 10.7 32.9c1.4 2 1.9 4.5 1.2 6.9s-2.4 4.3-4.6 5.2C32.2 254.6 16 277.4 16 304c0 28.8 19 53.2 45.3 61.2c2 .6 3.7 2 4.7 3.9s1.2 4.1 .6 6.1C64.9 380.5 64 386.2 64 392c0 30.9 25.1 56 56 56c5.1 0 10-.7 14.7-1.9c2.2-.6 4.5-.2 6.4 1s3.2 3.2 3.6 5.4c4 24.7 25.5 43.5 51.3 43.5c27.6 0 50.1-21.4 51.9-48.5c0-.3 .1-.6 .1-.9l0-2.6 0-156-56 0c-13.3 0-24 10.7-24 24l0 9c13.8 3.6 24 16.1 24 31c0 17.7-14.3 32-32 32s-32-14.3-32-32c0-14.9 10.2-27.4 24-31l0-9c0-22.1 17.9-40 40-40l56 0 0-120-41 0c-3.6 13.8-16.1 24-31 24c-17.7 0-32-14.3-32-32s14.3-32 32-32c14.9 0 27.4 10.2 31 24l41 0 0-72c0-26.5-21.5-48-48-48zm64 136l0 208 73 0c3.6-13.8 16.1-24 31-24c17.7 0 32 14.3 32 32s-14.3 32-32 32c-14.9 0-27.4-10.2-31-24l-73 0 0 68 0 2.6c.1 .3 .1 .6 .1 .9c1.8 27.1 24.3 48.5 51.9 48.5c25.8 0 47.3-18.8 51.3-43.5c.4-2.2 1.7-4.2 3.6-5.4s4.2-1.6 6.4-1c4.7 1.3 9.6 1.9 14.7 1.9c30.9 0 56-25.1 56-56c0-5.8-.9-11.5-2.5-16.7c-.6-2-.4-4.2 .6-6.1s2.7-3.3 4.7-3.9c26.2-8 45.3-32.4 45.3-61.2c0-26.6-16.2-49.4-39.3-59.1c-2.3-.9-4-2.9-4.6-5.2s-.2-4.9 1.2-6.9C460 223.6 464 212.3 464 200c0-27.9-20.4-51-47-55.3c-2.5-.4-4.7-2-5.8-4.2s-1.2-4.9-.1-7.2c3.2-6.4 5-13.6 5-21.3c0-26.5-21.5-48-48-48l-.5 0c-4 0-7.4-2.9-8-6.9C356.2 33.9 336.2 16 312 16c-26.5 0-48 21.5-48 48l0 72 56 0c22.1 0 40 17.9 40 40l0 17c13.8 3.6 24 16.1 24 31c0 17.7-14.3 32-32 32s-32-14.3-32-32c0-14.9 10.2-27.4 24-31l0-17c0-13.3-10.7-24-24-24l-56 0zm-88 8a16 16 0 1 0 0-32 16 16 0 1 0 0 32zM160 368a16 16 0 1 0 0-32 16 16 0 1 0 0 32zM368 224a16 16 0 1 0 -32 0 16 16 0 1 0 32 0zm0 160a16 16 0 1 0 0-32 16 16 0 1 0 0 32z"/></svg>