<svg xmlns="http://www.w3.org/2000/svg" viewBox="0 0 640 512"><!--! Font Awesome Pro 6.6.0 by @fontawesome - https://fontawesome.com License - https://fontawesome.com/license (Commercial License) Copyright 2024 Fonticons, Inc. --><path d="M128 0c3.2 0 6 1.9 7.2 4.6l6.7 13.4C175.6 85.4 244.6 128 320 128s144.4-42.6 178.1-110.1l6.7-13.4c1.3-2.7 4-4.6 7.2-4.6c3.6 0 6.6 2.4 7.6 5.6c7.6 22.7 22.9 47.7 42.3 69.4c19.5 21.8 42.5 39.6 65 48.6c4.1 1.6 6.1 6.3 4.5 10.4s-6.3 6.1-10.4 4.5c-25.5-10.1-50.5-29.8-71-52.8c-11.5-12.8-21.7-26.9-30-41.2L520 256l112 0c4.4 0 8 3.6 8 8s-3.6 8-8 8l-120 0-384 0L8 272c-4.4 0-8-3.6-8-8s3.6-8 8-8l112 0 0-211.5c-8.3 14.3-18.6 28.4-30 41.2c-20.5 23-45.5 42.7-71 52.8c-4.1 1.6-8.8-.4-10.4-4.5s.4-8.8 4.5-10.4c22.5-8.9 45.5-26.8 65-48.6c19.4-21.7 34.7-46.7 42.3-69.4c1-3.3 4-5.6 7.6-5.6zm8 256l80 0 0-136c0-.9 .1-1.8 .4-2.6c-32.7-18-60.6-44.3-80.4-77.1L136 256zm96 0l80 0 0-112 0-.1c-28.1-1-55.2-7.5-80-18.7L232 256zm96 0l80 0 0-130.8c-24.8 11.1-51.9 17.6-80 18.7l0 .1 0 112zm96 0l80 0 0-215.7c-19.8 32.8-47.7 59.1-80.4 77.1c.3 .8 .4 1.7 .4 2.6l0 136zM8 336l24 0c48.6 0 88 39.4 88 88l0 48c0 13.3 10.7 24 24 24l32 0c13.3 0 24-10.7 24-24l0-16c0-66.3 53.7-120 120-120s120 53.7 120 120l0 16c0 13.3 10.7 24 24 24l32 0c13.3 0 24-10.7 24-24l0-48c0-48.6 39.4-88 88-88l24 0c4.4 0 8 3.6 8 8s-3.6 8-8 8l-24 0c-39.8 0-72 32.2-72 72l0 48c0 22.1-17.9 40-40 40l-32 0c-22.1 0-40-17.9-40-40l0-16c0-57.4-46.6-104-104-104s-104 46.6-104 104l0 16c0 22.1-17.9 40-40 40l-32 0c-22.1 0-40-17.9-40-40l0-48c0-39.8-32.2-72-72-72L8 352c-4.4 0-8-3.6-8-8s3.6-8 8-8z"/></svg>