<svg xmlns="http://www.w3.org/2000/svg" viewBox="0 0 512 512"><!--! Font Awesome Pro 6.6.0 by @fontawesome - https://fontawesome.com License - https://fontawesome.com/license (Commercial License) Copyright 2024 Fonticons, Inc. --><path d="M272 80a16 16 0 1 0 -32 0 16 16 0 1 0 32 0zm-16 96a80 80 0 1 1 0 160 80 80 0 1 1 0-160zm0 176a96 96 0 1 0 0-192 96 96 0 1 0 0 192zm0 96a16 16 0 1 0 0-32 16 16 0 1 0 0 32zM432 272a16 16 0 1 0 0-32 16 16 0 1 0 0 32zM64 256a16 16 0 1 0 32 0 16 16 0 1 0 -32 0zm80-128a16 16 0 1 0 -32 0 16 16 0 1 0 32 0zM400 384a16 16 0 1 0 -32 0 16 16 0 1 0 32 0zm0-256a16 16 0 1 0 -32 0 16 16 0 1 0 32 0zM112 384a16 16 0 1 0 32 0 16 16 0 1 0 -32 0z"/></svg>