<svg xmlns="http://www.w3.org/2000/svg" viewBox="0 0 512 512"><!--! Font Awesome Pro 6.6.0 by @fontawesome - https://fontawesome.com License - https://fontawesome.com/license (Commercial License) Copyright 2024 Fonticons, Inc. --><path d="M256 0c-37.8 0-70.4 21.8-86.1 53.5C160.6 49.9 150.5 48 140 48c-46.4 0-84 37.6-84 84c0 12 2.5 23.4 7.1 33.8C26.3 179.2 0 214.5 0 256c0 53 43 96 96 96l8 0s47.7 54.5 80.2 138.3c5 12.8 17.1 21.7 30.9 21.7l81.9 0c13.8 0 25.9-8.9 30.9-21.7C360.3 406.5 408 352 408 352l8 0c53 0 96-43 96-96c0-41.5-26.3-76.8-63.1-90.2c4.6-10.3 7.1-21.8 7.1-33.8c0-46.4-37.6-84-84-84c-10.5 0-20.6 1.9-29.9 5.5C326.4 21.8 293.8 0 256 0zM387.4 352s0 0 0 0c-5.2 6.7-12.4 16.4-20.6 28.9c-16.4 24.8-37.1 60.4-53.9 103.6c-2.8 7.1-9.3 11.5-16 11.5l-81.9 0c-6.7 0-13.2-4.4-16-11.5c-16.8-43.2-37.4-78.8-53.9-103.6c-8.2-12.4-15.4-22.2-20.6-28.9c0 0 0 0 0 0l88.6 0 28 69.9c2.4 6.1 8.3 10.1 14.9 10.1s12.4-4 14.9-10.1l28-69.9 88.6 0zm-157 0l51.2 0-17 42.5L256 416l-8.6-21.5-17-42.5zm-49-285.1C193.1 37.1 222.1 16 256 16s62.9 21.1 74.6 50.9c.8 2.1 2.5 3.8 4.6 4.6s4.4 .7 6.5-.3c9.1-4.6 19.5-7.2 30.4-7.2c37.6 0 68 30.4 68 68c0 12.6-3.4 24.4-9.4 34.6c-1.3 2.2-1.5 4.8-.5 7.2s3 4.1 5.4 4.7c34.8 8.7 60.5 40.2 60.5 77.6c0 44.2-35.8 80-80 80L96 336c-44.2 0-80-35.8-80-80c0-37.4 25.7-68.9 60.5-77.6c2.4-.6 4.5-2.3 5.4-4.7s.8-5-.5-7.2c-6-10.1-9.4-21.9-9.4-34.6c0-37.6 30.4-68 68-68c10.9 0 21.3 2.6 30.4 7.2c2 1 4.4 1.1 6.5 .3s3.8-2.5 4.6-4.6z"/></svg>