<svg xmlns="http://www.w3.org/2000/svg" viewBox="0 0 640 512"><!--! Font Awesome Pro 6.6.0 by @fontawesome - https://fontawesome.com License - https://fontawesome.com/license (Commercial License) Copyright 2024 Fonticons, Inc. --><path d="M336 16c17.7 0 32 14.3 32 32l0 416c0 17.7-14.3 32-32 32l-96 0 0-80c0-26.5-21.5-48-48-48s-48 21.5-48 48l0 80-96 0c-17.7 0-32-14.3-32-32L16 48c0-17.7 14.3-32 32-32l288 0zM224 416l0 80-64 0 0-80c0-17.7 14.3-32 32-32s32 14.3 32 32zM48 512l96 0 16 0 64 0 16 0 96 0c26.5 0 48-21.5 48-48l0-416c0-26.5-21.5-48-48-48L48 0C21.5 0 0 21.5 0 48L0 464c0 26.5 21.5 48 48 48zM80 256l0 32c0 13.3 10.7 24 24 24l32 0c13.3 0 24-10.7 24-24l0-32c0-13.3-10.7-24-24-24l-32 0c-13.3 0-24 10.7-24 24zm24-8l32 0c4.4 0 8 3.6 8 8l0 32c0 4.4-3.6 8-8 8l-32 0c-4.4 0-8-3.6-8-8l0-32c0-4.4 3.6-8 8-8zm144-16c-13.3 0-24 10.7-24 24l0 32c0 13.3 10.7 24 24 24l32 0c13.3 0 24-10.7 24-24l0-32c0-13.3-10.7-24-24-24l-32 0zm-8 24c0-4.4 3.6-8 8-8l32 0c4.4 0 8 3.6 8 8l0 32c0 4.4-3.6 8-8 8l-32 0c-4.4 0-8-3.6-8-8l0-32zM80 128l0 32c0 13.3 10.7 24 24 24l32 0c13.3 0 24-10.7 24-24l0-32c0-13.3-10.7-24-24-24l-32 0c-13.3 0-24 10.7-24 24zm24-8l32 0c4.4 0 8 3.6 8 8l0 32c0 4.4-3.6 8-8 8l-32 0c-4.4 0-8-3.6-8-8l0-32c0-4.4 3.6-8 8-8zm144-16c-13.3 0-24 10.7-24 24l0 32c0 13.3 10.7 24 24 24l32 0c13.3 0 24-10.7 24-24l0-32c0-13.3-10.7-24-24-24l-32 0zm-8 24c0-4.4 3.6-8 8-8l32 0c4.4 0 8 3.6 8 8l0 32c0 4.4-3.6 8-8 8l-32 0c-4.4 0-8-3.6-8-8l0-32zM624 240c0 35.3-28.7 64-64 64l-24 0 0-16c0-35.3 28.7-64 64-64l24 0 0 16zm-96 77.9c2.4 1.4 5.1 2.1 8 2.1l16 0c-10.1 7.6-18.4 17.6-24 29.1c-5.6-11.5-13.9-21.5-24-29.1l16 0c2.9 0 5.6-.8 8-2.1zM448 304l-16 0c-8.8 0-16 7.2-16 16l0 16c0 26.2 12.6 49.4 32 64l-16 0c-8.8 0-16 7.2-16 16l0 16c0 44.2 35.8 80 80 80l24 0c2.9 0 5.6-.8 8-2.1c2.4 1.4 5.1 2.1 8 2.1l24 0c44.2 0 80-35.8 80-80l0-16c0-8.8-7.2-16-16-16l-16 0c19.4-14.6 32-37.8 32-64l0-16c0-8.8-7.2-16-16-16l-16 0c19.4-14.6 32-37.8 32-64l0-16c0-8.8-7.2-16-16-16l-24 0c-31.7 0-59 18.4-72 45.1c-13-26.7-40.3-45.1-72-45.1l-24 0c-8.8 0-16 7.2-16 16l0 16c0 26.2 12.6 49.4 32 64zm72-16l0 16-24 0c-35.3 0-64-28.7-64-64l0-16 24 0c35.3 0 64 28.7 64 64zm104 48c0 35.3-28.7 64-64 64l-24 0 0-16c0-35.3 28.7-64 64-64l24 0 0 16zm-96 77.9c2.4 1.4 5.1 2.1 8 2.1l16 0c-10.1 7.6-18.4 17.6-24 29.1c-5.6-11.5-13.9-21.5-24-29.1l16 0c2.9 0 5.6-.8 8-2.1zM520 384l0 16-24 0c-35.3 0-64-28.7-64-64l0-16 24 0c35.3 0 64 28.7 64 64zm104 32l0 16c0 35.3-28.7 64-64 64l-24 0 0-16c0-35.3 28.7-64 64-64l24 0zM520 496l-24 0c-35.3 0-64-28.7-64-64l0-16 24 0c35.3 0 64 28.7 64 64l0 16zm8-464c-4.4 0-8 3.6-8 8l0 144c0 4.4 3.6 8 8 8s8-3.6 8-8l0-144c0-4.4-3.6-8-8-8zm80 40c0-4.4-3.6-8-8-8s-8 3.6-8 8l0 80c0 4.4 3.6 8 8 8s8-3.6 8-8l0-80zM456 64c-4.4 0-8 3.6-8 8l0 80c0 4.4 3.6 8 8 8s8-3.6 8-8l0-80c0-4.4-3.6-8-8-8z"/></svg>