<svg xmlns="http://www.w3.org/2000/svg" viewBox="0 0 512 512"><!--! Font Awesome Pro 6.6.0 by @fontawesome - https://fontawesome.com License - https://fontawesome.com/license (Commercial License) Copyright 2024 Fonticons, Inc. --><path d="M256 16c-26.5 0-48 21.5-48 48l0 384c0 26.5 21.5 48 48 48l192 0c26.5 0 48-21.5 48-48l0-384c0-26.5-21.5-48-48-48L256 16zM192 64c0-35.3 28.7-64 64-64L448 0c35.3 0 64 28.7 64 64l0 384c0 35.3-28.7 64-64 64l-192 0c-35.3 0-64-28.7-64-64l0-384zM56 128l104 0 0 16L56 144c-22.1 0-40 17.9-40 40l0 272c0 22.1 17.9 40 40 40l116.8 0c3.3 5.7 7.2 11.1 11.6 16L56 512c-30.9 0-56-25.1-56-56L0 184c0-30.9 25.1-56 56-56zm8 216c0-13.3 10.7-24 24-24l32 0c13.3 0 24 10.7 24 24l0 32c0 13.3-10.7 24-24 24l-32 0c-13.3 0-24-10.7-24-24l0-32zm24-8c-4.4 0-8 3.6-8 8l0 32c0 4.4 3.6 8 8 8l32 0c4.4 0 8-3.6 8-8l0-32c0-4.4-3.6-8-8-8l-32 0zm0-144l32 0c13.3 0 24 10.7 24 24l0 32c0 13.3-10.7 24-24 24l-32 0c-13.3 0-24-10.7-24-24l0-32c0-13.3 10.7-24 24-24zm-8 24l0 32c0 4.4 3.6 8 8 8l32 0c4.4 0 8-3.6 8-8l0-32c0-4.4-3.6-8-8-8l-32 0c-4.4 0-8 3.6-8 8zM368 376l0-32c0-13.3 10.7-24 24-24l32 0c13.3 0 24 10.7 24 24l0 32c0 13.3-10.7 24-24 24l-32 0c-13.3 0-24-10.7-24-24zm24 8l32 0c4.4 0 8-3.6 8-8l0-32c0-4.4-3.6-8-8-8l-32 0c-4.4 0-8 3.6-8 8l0 32c0 4.4 3.6 8 8 8zm0-112c-13.3 0-24-10.7-24-24l0-32c0-13.3 10.7-24 24-24l32 0c13.3 0 24 10.7 24 24l0 32c0 13.3-10.7 24-24 24l-32 0zm-8-24c0 4.4 3.6 8 8 8l32 0c4.4 0 8-3.6 8-8l0-32c0-4.4-3.6-8-8-8l-32 0c-4.4 0-8 3.6-8 8l0 32zM256 376l0-32c0-13.3 10.7-24 24-24l32 0c13.3 0 24 10.7 24 24l0 32c0 13.3-10.7 24-24 24l-32 0c-13.3 0-24-10.7-24-24zm24 8l32 0c4.4 0 8-3.6 8-8l0-32c0-4.4-3.6-8-8-8l-32 0c-4.4 0-8 3.6-8 8l0 32c0 4.4 3.6 8 8 8zm0-312l32 0c13.3 0 24 10.7 24 24l0 32c0 13.3-10.7 24-24 24l-32 0c-13.3 0-24-10.7-24-24l0-32c0-13.3 10.7-24 24-24zm-8 24l0 32c0 4.4 3.6 8 8 8l32 0c4.4 0 8-3.6 8-8l0-32c0-4.4-3.6-8-8-8l-32 0c-4.4 0-8 3.6-8 8zM256 248l0-32c0-13.3 10.7-24 24-24l32 0c13.3 0 24 10.7 24 24l0 32c0 13.3-10.7 24-24 24l-32 0c-13.3 0-24-10.7-24-24zm24 8l32 0c4.4 0 8-3.6 8-8l0-32c0-4.4-3.6-8-8-8l-32 0c-4.4 0-8 3.6-8 8l0 32c0 4.4 3.6 8 8 8zM392 72l32 0c13.3 0 24 10.7 24 24l0 32c0 13.3-10.7 24-24 24l-32 0c-13.3 0-24-10.7-24-24l0-32c0-13.3 10.7-24 24-24zm-8 24l0 32c0 4.4 3.6 8 8 8l32 0c4.4 0 8-3.6 8-8l0-32c0-4.4-3.6-8-8-8l-32 0c-4.4 0-8 3.6-8 8z"/></svg>