<svg xmlns="http://www.w3.org/2000/svg" viewBox="0 0 576 512"><!--! Font Awesome Pro 6.6.0 by @fontawesome - https://fontawesome.com License - https://fontawesome.com/license (Commercial License) Copyright 2024 Fonticons, Inc. --><path d="M280 8c0-4.4 3.6-8 8-8s8 3.6 8 8l0 40.3c51.3 3.6 94.2 41.7 103.3 93l45.2 254c-.4 .3-.9 .6-1.3 .9c-4.3 2.9-8.8 5.6-13.4 8L412 304 164 304 146.2 404.1c-4.6-2.4-9.1-5.1-13.4-8c-.4-.3-.9-.6-1.3-.9l45.2-254c9.1-51.3 52-89.4 103.3-93L280 8zm8 56c-47 0-87.3 33.7-95.5 80L166.9 288l242.2 0L383.5 144C375.3 97.7 335 64 288 64zm6.6 371.4c8 11.2 17.5 21.4 27.6 30.7C339.5 481.8 361.5 496 384 496s44.6-14.2 61.8-29.9c10.1-9.2 19.7-19.5 27.6-30.7c1.5-2.1 3.9-3.4 6.6-3.4s5.1 1.3 6.6 3.4c7.3 10.3 15.9 19.6 25 28.3c15.7 14.8 36.1 29.2 57.4 31.9c4.4 .6 7.5 4.6 6.9 8.9s-4.6 7.5-8.9 6.9c-26.5-3.3-50-20.7-66.4-36.1c-8.8-8.3-15.9-16.4-20.6-22.2c-5.2 6.4-13.3 15.6-23.4 24.8c-18 16.3-43.9 34.1-72.6 34.1s-54.6-17.8-72.6-34.1c-10.2-9.2-18.2-18.4-23.4-24.8c0 0 0 0 0 0c0 0 0 0 0 0c-5.2 6.4-13.3 15.6-23.4 24.8c-18 16.3-43.9 34.1-72.6 34.1s-54.6-17.8-72.6-34.1c-10.2-9.2-18.2-18.4-23.4-24.8c-4.7 5.8-11.8 13.9-20.6 22.2C59 490.7 35.5 508.1 9 511.4c-4.4 .6-8.4-2.6-8.9-6.9s2.6-8.4 6.9-8.9c21.3-2.7 41.7-17.1 57.4-31.9c9.1-8.6 17.7-18 25-28.3c1.5-2.1 3.9-3.4 6.6-3.4s5.1 1.3 6.6 3.4c7.9 11.2 17.5 21.5 27.6 30.7C147.4 481.8 169.5 496 192 496s44.6-14.2 61.8-29.9c10.1-9.2 19.6-19.5 27.6-30.7c3-4.3 10.2-4.3 13.2 0z"/></svg>