<svg xmlns="http://www.w3.org/2000/svg" viewBox="0 0 640 512"><!--! Font Awesome Pro 6.6.0 by @fontawesome - https://fontawesome.com License - https://fontawesome.com/license (Commercial License) Copyright 2024 Fonticons, Inc. --><path d="M171 24.2l48 19.2c3 1.2 5 4.2 5 7.4l0 218.9c6-.9 11.3-2.1 16-3.4l0-215.5c0-9.8-6-18.6-15.1-22.3l-48-19.2C161.1 3 144 14.7 144 31.6l0 234.7c4.7 1.3 10 2.5 16 3.4l0-238.1c0-5.7 5.7-9.5 11-7.4zM73.8 58.3c-.6-3.5 1.2-6.9 4.3-8.4l33.9-17 0-17.9L70.9 35.6c-9.4 4.7-14.6 14.9-13 25.3L80.5 199.5c8.9 5.7 15.5 13.9 19.8 22.2L73.8 58.3zM15.8 94.4c-.9-4.3-5.1-7.1-9.4-6.3S-.7 93.2 .2 97.6L19 192.1c.8 0 1.6-.1 2.4-.1l13.9 0L15.8 94.4zm368 3.1c.9-4.3-1.9-8.5-6.3-9.4s-8.5 1.9-9.4 6.3L348.6 192l13.5 0c1.1-.6 2.1-1.1 3.2-1.7l18.6-92.8zM192 304c-89.3 0-112.4-39-118.2-62.5c-2.3-9.2-10-17.5-19.5-17.5l-32.9 0C9.6 224 0 233.6 0 245.4c0 1.7 .2 3.4 .6 5.1l57.5 237C61.5 501.9 74.4 512 89.2 512l205.7 0s0 0 0 0c-4.3-4.9-8-10.3-11.2-16L89.2 496c-7.4 0-13.8-5.1-15.5-12.2l-57.5-237c-.1-.4-.2-.8-.2-1.3c0-3 2.4-5.4 5.4-5.4l32.9 0c0 0 0 0 0 0c0 0 .1 0 .2 .1c.2 .1 .6 .3 1.2 .8c1.1 1 2.1 2.7 2.5 4.4c3.6 14.7 12.6 33.9 34 49.2C113.4 309.8 145.1 320 192 320c34.3 0 60.5-5.5 80.4-14.4c.6-6.5 2-13.4 4.7-20.5C259.2 296 232.4 304 192 304zM330.8 81.4c3.6-16.9-11.3-31.9-28.2-28.5L272 59l0 16.3 33.7-6.7c5.6-1.1 10.6 3.9 9.4 9.5L285.3 218.9c4.7-8.1 11.6-15.8 20.8-20.9L330.8 81.4zM464 215.8c95.1 0 131.4 62.2 141.6 85.1c1.6 3.5 2.4 7.8 2.4 13.2c0 12-9.8 21.8-21.8 21.8l-244.4 0c-12 0-21.8-9.8-21.8-21.8c0-5.3 .8-9.7 2.3-13.2c10.3-22.9 46.5-85.1 141.7-85.1zM304 314c0 10.4 4.2 19.8 11 26.6c-16 7.8-27 24.2-27 43.2c0 18.5 10.4 34.5 25.8 42.5c-6 6.2-9.8 14.7-9.8 24.1c0 33.9 27.5 61.3 61.3 61.3l197.3 0c33.9 0 61.3-27.5 61.3-61.3c0-9.4-3.7-17.9-9.8-24.1c15.3-8 25.8-24.1 25.8-42.5c0-19-11-35.4-27-43.2c6.8-6.8 11-16.2 11-26.6c0-6.8-1-13.5-3.8-19.7c-11.5-25.7-52.1-94.5-156.2-94.5s-144.7 68.8-156.2 94.5c-2.8 6.2-3.8 12.9-3.8 19.7zm32 37.8l5.8 0 244.4 0 5.8 0c17.7 0 32 14.3 32 32s-14.3 32-32 32l-2.7 0-250.7 0-2.7 0c-17.7 0-32-14.3-32-32s14.3-32 32-32zm2.7 80l250.7 0c10.3 0 18.7 8.4 18.7 18.7c0 25-20.3 45.3-45.3 45.3l-197.3 0c-25 0-45.3-20.3-45.3-45.3c0-10.3 8.4-18.7 18.7-18.7zm35.3-168a10 10 0 1 0 20 0 10 10 0 1 0 -20 0zm90-26a10 10 0 1 0 0 20 10 10 0 1 0 0-20zm70 26a10 10 0 1 0 20 0 10 10 0 1 0 -20 0z"/></svg>