<svg xmlns="http://www.w3.org/2000/svg" viewBox="0 0 512 512"><!--! Font Awesome Pro 6.6.0 by @fontawesome - https://fontawesome.com License - https://fontawesome.com/license (Commercial License) Copyright 2024 Fonticons, Inc. --><path d="M256 8c6.9 0 13.1 4.5 15.2 11.1l37.1 114.4L386.5 105c5.8-2.1 12.4-.7 16.8 3.7s5.8 10.9 3.7 16.8l-28.5 78.2 114.4 37.1c6.6 2.1 11.1 8.3 11.1 15.2s-4.5 13.1-11.1 15.2L380.8 307.5l57.3 109c3.3 6.2 2.1 13.8-2.8 18.8s-12.6 6.1-18.8 2.8l-109-57.3L271.2 492.9c-2.1 6.6-8.3 11.1-15.2 11.1s-13.1-4.5-15.2-11.1L204.5 380.8l-109 57.3c-6.2 3.3-13.8 2.1-18.8-2.8s-6.1-12.6-2.8-18.8l57.3-109L19.1 271.2C12.5 269.1 8 262.9 8 256s4.5-13.1 11.1-15.2l109.8-35.6L10.8 33c-4.4-6.4-3.6-14.9 1.9-20.4s14-6.2 20.4-1.9L205.2 128.9 240.8 19.1C242.9 12.5 249.1 8 256 8zm0 16l-8.4 26-27.2 83.8c-3.3 10.2-15.5 14.3-24.3 8.3L60.6 49.1 24 24 49.1 60.6l92.9 135.5c6 8.8 1.9 21-8.3 24.3L50 247.6 24 256l26 8.4 86.2 27.9c9.4 3.1 13.8 13.9 9.2 22.7l-44.2 84L88 424l25-13.1 84-44.2c8.8-4.6 19.6-.2 22.7 9.2L247.6 462l8.4 26 8.4-26 27.9-86.2c3.1-9.4 13.9-13.8 22.7-9.2l84 44.2L424 424l-13.1-25-44.2-84c-4.6-8.8-.2-19.6 9.2-22.7L462 264.4l26-8.4-26-8.4-88.4-28.7c-8.6-2.8-13.2-12.2-10.1-20.7l21.4-58.6L392 120l-19.6 7.2-58.6 21.4c-8.5 3.1-17.9-1.5-20.7-10.1L264.4 50 256 24z"/></svg>