<svg xmlns="http://www.w3.org/2000/svg" viewBox="0 0 512 512"><!--! Font Awesome Pro 6.6.0 by @fontawesome - https://fontawesome.com License - https://fontawesome.com/license (Commercial License) Copyright 2024 Fonticons, Inc. --><path d="M82.9 69C81 71.2 80 74.6 80 79l0 17 352 0 0-17c0-4.3-1-7.9-2.9-10.3C413.9 49.3 368 16 256 16C151.7 16 99.3 49.4 82.9 69zM80 112l0 137.6c12-6.1 25.6-9.6 40-9.6l128 0 0-128L80 112zM432 249.6L432 112l-168 0 0 128 128 0c14.4 0 28 3.5 40 9.6zM448 79l0 181.1c19.5 16.1 32 40.6 32 67.9l0 72c0 20.9-13.4 38.7-32 45.3l0 2.7 0 32c0 17.7-14.3 32-32 32l-32 0c-17.7 0-32-14.3-32-32l0-32-192 0 0 32c0 17.7-14.3 32-32 32l-32 0c-17.7 0-32-14.3-32-32l0-32 0-2.7c-18.6-6.6-32-24.4-32-45.3l0-72c0-27.3 12.5-51.7 32-67.9L64 79c0-6.6 1.5-14.2 6.7-20.3C91.1 34.3 148.8 0 256 0C370.9 0 422.4 34.2 441.7 58.8C446.5 65 448 72.4 448 79zM352 432l16 0 64 0c17.7 0 32-14.3 32-32l0-72c0-39.8-32.2-72-72-72l-272 0c-39.8 0-72 32.2-72 72l0 72c0 17.7 14.3 32 32 32l64 0 16 0 192 0zm16 16l0 32c0 8.8 7.2 16 16 16l32 0c8.8 0 16-7.2 16-16l0-32-64 0zM80 448l0 32c0 8.8 7.2 16 16 16l32 0c8.8 0 16-7.2 16-16l0-32-64 0zm8-104a40 40 0 1 1 80 0 40 40 0 1 1 -80 0zm40 24a24 24 0 1 0 0-48 24 24 0 1 0 0 48zm216-24a40 40 0 1 1 80 0 40 40 0 1 1 -80 0zm40 24a24 24 0 1 0 0-48 24 24 0 1 0 0 48zM192 48l128 0c4.4 0 8 3.6 8 8s-3.6 8-8 8L192 64c-4.4 0-8-3.6-8-8s3.6-8 8-8zM0 120c0-13.3 10.7-24 24-24l8 0c4.4 0 8 3.6 8 8s-3.6 8-8 8l-8 0c-4.4 0-8 3.6-8 8l0 112c0 4.4 3.6 8 8 8l8 0c4.4 0 8 3.6 8 8s-3.6 8-8 8l-8 0c-13.3 0-24-10.7-24-24L0 120zM488 96c13.3 0 24 10.7 24 24l0 112c0 13.3-10.7 24-24 24l-8 0c-4.4 0-8-3.6-8-8s3.6-8 8-8l8 0c4.4 0 8-3.6 8-8l0-112c0-4.4-3.6-8-8-8l-8 0c-4.4 0-8-3.6-8-8s3.6-8 8-8l8 0z"/></svg>