<svg xmlns="http://www.w3.org/2000/svg" viewBox="0 0 640 512"><!--! Font Awesome Pro 6.6.0 by @fontawesome - https://fontawesome.com License - https://fontawesome.com/license (Commercial License) Copyright 2024 Fonticons, Inc. --><path d="M391.5 416.9L234.2 102.3c-26.1 14.6-48 35.6-63.7 60.8L304.6 431.3c7 .6 14.1 .8 21.3 .6c23.4-.8 45.5-6.1 65.6-15zm14.3-7.2c26.1-14.6 48-35.6 63.7-60.8L335.4 80.7c-7-.6-14.1-.8-21.3-.6c-23.3 .8-45.5 6.1-65.6 15L405.8 409.7zm73.1-77.9c11.8-24.7 18-52.5 17-81.7c-2.8-83.2-63-151-141.3-166.7L478.9 331.8zM345.8 65.7c76 10.2 138.5 65.1 159 138.1l91.9-49c10.5-5.6 23.5-2.7 30.6 6.9c13 17.5-3.4 34.9-18.4 48.6c-1.6 1.5-3.3 2.9-4.9 4.3c0 0 0 0 0 0c-3.2 2.9-6.3 5.6-8.7 8c2.8 1 5.8 2 9 3c0 0 0 0 0 0c2.7 .9 5.5 1.8 8.3 2.7c13.8 4.9 27.4 11.9 27.4 27.6s-13.6 22.7-27.4 27.6c-2.8 1-5.6 1.9-8.3 2.7c0 0 0 0 0 0s0 0 0 0c-3.2 1-6.3 2-9 3c2.4 2.4 5.4 5.1 8.7 8c0 0 0 0 0 0s0 0 0 0s0 0 0 0c1.6 1.4 3.2 2.8 4.9 4.3c15 13.6 31.4 31.1 18.4 48.6c-7.1 9.6-20.1 12.5-30.6 6.9l-91.9-49C482.7 386.5 412.1 445 326.4 447.9c-90.2 3-167.9-56.6-191.3-139.7l-91.9 49c-10.5 5.6-23.5 2.7-30.6-6.9c-13-17.5 3.4-34.9 18.4-48.6c1.6-1.5 3.3-2.9 4.8-4.3c0 0 0 0 0 0s0 0 0 0s0 0 0 0s0 0 0 0c3.2-2.9 6.3-5.6 8.7-8c-2.8-1-5.8-2-9-3c0 0 0 0 0 0s0 0 0 0c-2.7-.9-5.5-1.8-8.3-2.7C13.6 278.7 0 271.7 0 256s13.6-22.7 27.4-27.6c2.8-1 5.6-1.9 8.3-2.7c0 0 0 0 0 0s0 0 0 0c3.2-1 6.3-2 9-3c-2.4-2.4-5.4-5.1-8.7-8c0 0 0 0 0 0s0 0 0 0c-1.6-1.4-3.2-2.8-4.8-4.3C16.1 196.7-.3 179.2 12.7 161.7c7.1-9.6 20.1-12.5 30.6-6.9l91.9 49c4.1-14.5 9.9-28.4 17.1-41.4c0 0 0 0 0 0c3.1-5.5 6.4-10.8 9.9-15.9c0 0 0 0 0 0C179 122.4 201.2 102.3 227 88c0 0 0 0 0 0c4.7-2.6 9.4-5 14.3-7.2c0 0 0 0 0 0c22.1-9.9 46.5-15.8 72.2-16.7c4.6-.2 9.1-.1 13.6 0c0 0 0 0 0 0c6.3 .2 12.5 .8 18.7 1.6c0 0 0 0 0 0zM161.1 180.2c-11.8 24.7-18 52.5-17 81.7c2.8 83.2 63 151 141.3 166.7L161.1 180.2zm350.8 69.4c.5 14.6-.7 28.8-3.3 42.5l95.6 51c3.5 1.9 7.8 .9 10.2-2.3c1.7-2.3 1.7-3.7 1.5-4.9c-.4-2-1.8-5.1-5.2-9.5c-3.3-4.2-7.7-8.5-12.6-12.9c-1.3-1.2-2.7-2.5-4.2-3.8c0 0 0 0 0 0c-3.4-3.1-7.1-6.3-9.8-9.1c-3.8-3.8-5.5-9.4-4.3-14.7s4.9-9.7 10-11.6c3.1-1.2 6.8-2.4 10.3-3.5c0 0 0 0 0 0c1.5-.5 3-1 4.3-1.4c4.8-1.6 8.9-3.1 12.2-4.9c6.6-3.5 7.5-5.9 7.5-8.7s-.9-5.2-7.5-8.7c-3.4-1.8-7.5-3.3-12.2-4.9c-1.3-.4-2.8-.9-4.3-1.4c-3.4-1.1-7.2-2.3-10.3-3.5c-5.1-1.9-8.9-6.3-10-11.6s.5-10.9 4.3-14.7c2.8-2.8 6.4-6 9.8-9.1c0 0 0 0 0 0c1.5-1.3 2.9-2.6 4.2-3.8c4.9-4.4 9.3-8.7 12.6-12.9c3.4-4.3 4.9-7.4 5.2-9.5c.2-1.3 .3-2.6-1.5-4.9c-2.4-3.2-6.7-4.2-10.2-2.3l-95.6 51c1.8 9.6 2.9 19.5 3.3 29.6zM131.4 219.9l-95.6-51c-3.5-1.9-7.8-.9-10.2 2.3c-1.7 2.3-1.7 3.7-1.5 4.9c.4 2 1.8 5.1 5.2 9.5c3.3 4.2 7.7 8.5 12.6 12.9c1.3 1.2 2.7 2.5 4.2 3.8c0 0 0 0 0 0s0 0 0 0c3.4 3.1 7.1 6.3 9.8 9.1c3.8 3.8 5.5 9.4 4.3 14.7s-4.9 9.7-10 11.6c-3.1 1.2-6.8 2.4-10.3 3.5c0 0 0 0 0 0s0 0 0 0s0 0 0 0c-1.5 .5-3 1-4.3 1.4c-4.8 1.6-8.9 3.1-12.2 4.9c-6.6 3.5-7.5 5.9-7.5 8.7s.9 5.2 7.5 8.7c3.4 1.8 7.5 3.3 12.2 4.9c1.3 .4 2.8 .9 4.3 1.4c0 0 0 0 0 0c3.4 1.1 7.2 2.3 10.3 3.5c5.1 1.9 8.9 6.3 10 11.6s-.5 10.9-4.3 14.7c-2.8 2.8-6.4 6-9.8 9.1c-1.5 1.3-2.9 2.6-4.2 3.8c-4.9 4.4-9.3 8.7-12.6 12.9c-3.4 4.3-4.9 7.4-5.2 9.5c-.2 1.3-.3 2.6 1.5 4.9c2.4 3.2 6.7 4.2 10.2 2.3l95.6-51c-1.8-9.6-2.9-19.5-3.3-29.6c-.5-14.6 .7-28.8 3.3-42.5z"/></svg>