<svg xmlns="http://www.w3.org/2000/svg" viewBox="0 0 640 512"><!--! Font Awesome Pro 6.6.0 by @fontawesome - https://fontawesome.com License - https://fontawesome.com/license (Commercial License) Copyright 2024 Fonticons, Inc. --><path d="M281.8 450.3c-10.6 6.4-19.3 11.3-25.4 14.5c-56.1 28.1-121.8 16-164.5-25.2c0 0 .1 .1 .1 .1L69.5 450.9c-23.7 11.9-52.5 2.2-64.4-21.5s-2.2-52.5 21.5-64.4l22.5-11.3s0 0 0 0c-7.3-58.9 22.5-118.6 78.5-146.6c49.5-24 287.2-107.9 394.6-145.5c30.3-10.6 63.6 3.1 78 31.8L630.9 155c14.4 28.7 5.3 63.6-21.4 81.5c-23.1 15.5-53.1 35.6-86 57.4c-2.8-4.6-5.8-9-9-13.2c32.9-21.9 63-42 86.1-57.5c19.9-13.4 26.8-39.4 16-61l-30.7-61.4C575 79.1 550.1 68.9 527.4 76.8C473.8 95.6 387.6 126 308.6 154.6c-79.3 28.8-150.1 55.4-174 67C71.5 253.2 45.9 330.1 77.5 393.3s108.4 88.8 171.6 57.3c5.8-3 14.1-7.7 24.2-13.8c2.6 4.7 5.4 9.2 8.4 13.6zM52 369.7c0 .2 .1 .3 .1 .5l-18.4 9.2c-15.8 7.9-22.2 27.1-14.3 42.9s27.1 22.2 42.9 14.3l18.4-9.2s0 0 0 0c-6.7-8.2-12.6-17.2-17.5-27c-5-10-8.7-20.3-11.2-30.7zM496 368a96 96 0 1 0 -192 0 96 96 0 1 0 192 0zm-208 0a112 112 0 1 1 224 0 112 112 0 1 1 -224 0zm136 0a24 24 0 1 0 -48 0 24 24 0 1 0 48 0zm-64 0a40 40 0 1 1 80 0 40 40 0 1 1 -80 0z"/></svg>