<svg xmlns="http://www.w3.org/2000/svg" viewBox="0 0 512 512"><!--! Font Awesome Pro 6.6.0 by @fontawesome - https://fontawesome.com License - https://fontawesome.com/license (Commercial License) Copyright 2024 Fonticons, Inc. --><path d="M264 8c0-4.4-3.6-8-8-8s-8 3.6-8 8l0 112c0 4.4 3.6 8 8 8s8-3.6 8-8L264 8zM188.2 192l135.6 0c17.9 0 33.6 11.8 38.5 29l19.5 68.2c-4.5-.8-9-1.2-13.7-1.2l-224 0c-4.7 0-9.3 .4-13.7 1.2L149.7 221c4.9-17.2 20.6-29 38.5-29zM112.3 293.8l-.2 .8C83.8 307 64 335.2 64 368l0 64 0 16 0 32c0 17.7 14.3 32 32 32l16 0c17.7 0 32-14.3 32-32l0-32 224 0 0 32c0 17.7 14.3 32 32 32l16 0c17.7 0 32-14.3 32-32l0-32 0-16 0-64c0-32.8-19.8-61-48.1-73.4l-.2-.8-22.1-77.2c-6.9-24-28.8-40.6-53.8-40.6l-135.6 0c-25 0-47 16.6-53.8 40.6l-22.1 77.2zM432 432l-48 0-16 0-224 0-16 0-48 0 0-64c0-35.3 28.7-64 64-64l224 0c35.3 0 64 28.7 64 64l0 64zm-48 16l48 0 0 32c0 8.8-7.2 16-16 16l-16 0c-8.8 0-16-7.2-16-16l0-32zM80 448l48 0 0 32c0 8.8-7.2 16-16 16l-16 0c-8.8 0-16-7.2-16-16l0-32zm80-80a16 16 0 1 1 -32 0 16 16 0 1 1 32 0zm-16-32a32 32 0 1 0 0 64 32 32 0 1 0 0-64zm224 48a16 16 0 1 1 0-32 16 16 0 1 1 0 32zm-32-16a32 32 0 1 0 64 0 32 32 0 1 0 -64 0zM34.3 34.3c-3.1 3.1-3.1 8.2 0 11.3l80 80c3.1 3.1 8.2 3.1 11.3 0s3.1-8.2 0-11.3l-80-80c-3.1-3.1-8.2-3.1-11.3 0zm432 0l-80 80c-3.1 3.1-3.1 8.2 0 11.3s8.2 3.1 11.3 0l80-80c3.1-3.1 3.1-8.2 0-11.3s-8.2-3.1-11.3 0z"/></svg>