<svg xmlns="http://www.w3.org/2000/svg" viewBox="0 0 448 512"><!--! Font Awesome Pro 6.6.0 by @fontawesome - https://fontawesome.com License - https://fontawesome.com/license (Commercial License) Copyright 2024 Fonticons, Inc. --><path d="M87.1 104.2C82 109 74.1 112 64 112c-17.7 0-32-14.3-32-32c0-6.4 3.7-16.2 10.9-28C49.4 41.5 57.4 31.4 64 23.7C70.6 31.4 78.6 41.5 85.1 52C92.3 63.8 96 73.6 96 80c0 12.2-4 19.7-8.9 24.2zM64 128c26.5 0 48-16 48-48c0-22.2-23-52-37.2-68.2C69 5.1 59 5.1 53.2 11.8C39 28 16 57.8 16 80c0 26.5 21.5 48 48 48zM256 80c0 12.2-4 19.7-8.9 24.2c-5.1 4.7-13 7.8-23.1 7.8c-17.7 0-32-14.3-32-32c0-6.4 3.7-16.2 10.9-28c6.5-10.5 14.5-20.7 21.1-28.3c6.6 7.7 14.6 17.8 21.1 28.3C252.3 63.8 256 73.6 256 80zm16 0c0-22.2-23-52-37.2-68.2c-5.8-6.7-15.9-6.7-21.7 0C199 28 176 57.8 176 80c0 26.5 21.5 48 48 48s48-16 48-48zM156.2 192l135.6 0c17.9 0 33.6 11.8 38.5 29l19.5 68.2c-4.5-.8-9-1.2-13.7-1.2l-224 0c-4.7 0-9.3 .4-13.7 1.2L117.7 221c4.9-17.2 20.6-29 38.5-29zM80.3 293.8l-.2 .8C51.8 307 32 335.2 32 368l0 64 0 16 0 32c0 17.7 14.3 32 32 32l16 0c17.7 0 32-14.3 32-32l0-32 224 0 0 32c0 17.7 14.3 32 32 32l16 0c17.7 0 32-14.3 32-32l0-32 0-16 0-64c0-32.8-19.8-61-48.1-73.4l-.2-.8-22.1-77.2c-6.9-24-28.8-40.6-53.8-40.6l-135.6 0c-25 0-47 16.6-53.8 40.6L80.3 293.8zM352 432l-16 0-224 0-16 0-48 0 0-64c0-35.3 28.7-64 64-64l224 0c35.3 0 64 28.7 64 64l0 64-48 0zm0 48l0-32 48 0 0 32c0 8.8-7.2 16-16 16l-16 0c-8.8 0-16-7.2-16-16zM96 448l0 32c0 8.8-7.2 16-16 16l-16 0c-8.8 0-16-7.2-16-16l0-32 48 0zm32-80a16 16 0 1 1 -32 0 16 16 0 1 1 32 0zm-16-32a32 32 0 1 0 0 64 32 32 0 1 0 0-64zm224 48a16 16 0 1 1 0-32 16 16 0 1 1 0 32zm-32-16a32 32 0 1 0 64 0 32 32 0 1 0 -64 0zM416 80c0 12.2-4 19.7-8.9 24.2c-5.1 4.7-13 7.8-23.1 7.8c-17.7 0-32-14.3-32-32c0-6.4 3.7-16.2 10.9-28c6.5-10.5 14.5-20.7 21.1-28.3c6.6 7.7 14.6 17.8 21.1 28.3C412.3 63.8 416 73.6 416 80zm16 0c0-22.2-23-52-37.2-68.2c-5.8-6.7-15.9-6.7-21.7 0C359 28 336 57.8 336 80c0 26.5 21.5 48 48 48s48-16 48-48z"/></svg>