<svg xmlns="http://www.w3.org/2000/svg" viewBox="0 0 640 512"><!--! Font Awesome Pro 6.6.0 by @fontawesome - https://fontawesome.com License - https://fontawesome.com/license (Commercial License) Copyright 2024 Fonticons, Inc. --><path d="M36.1 132.5C17 143.6 10.4 168 21.5 187.2L188.2 475.9c11 19.1 35.5 25.7 54.6 14.6l192.3-111c19.1-11 25.7-35.5 14.6-54.6L283.1 36.1C272 17 247.6 10.4 228.4 21.5L36.1 132.5zM7.6 195.2c-15.5-26.8-6.3-61 20.5-76.5L220.4 7.6c26.8-15.5 61-6.3 76.5 20.5L463.6 316.9c15.5 26.8 6.3 61-20.5 76.5l-192.3 111c-26.8 15.5-61 6.3-76.5-20.5L7.6 195.2zM360 512c-13.6 0-26.2-4.9-35.9-13l15.2-8.8c6 3.7 13.1 5.8 20.7 5.8l224 0c22.1 0 40-17.9 40-40l0-336c0-22.1-17.9-40-40-40L363.8 80l-9.1-15.8c1.7-.2 3.5-.2 5.3-.2l224 0c30.9 0 56 25.1 56 56l0 336c0 30.9-25.1 56-56 56l-224 0z"/></svg>