<svg xmlns="http://www.w3.org/2000/svg" viewBox="0 0 512 512"><!--! Font Awesome Pro 6.6.0 by @fontawesome - https://fontawesome.com License - https://fontawesome.com/license (Commercial License) Copyright 2024 Fonticons, Inc. --><path d="M331.1 19.6C321.6 31.2 304 56.7 304 86c0 20.5 3.9 34.1 10.6 45.5c5.4 9.3 12.8 17.6 22.3 27.3c5.9 4.9 11.4 10.4 16.3 16.3c9.7 9.5 18 16.9 27.3 22.3c11.5 6.7 25 10.6 45.5 10.6c29.3 0 54.8-17.6 66.4-27.1c2.2-1.8 3.6-4.7 3.6-8.2s-1.4-6.4-3.5-8.1c-11.7-9.3-39.1-27.3-75.2-27.3c-16.7 0-26.6 2.1-32.1 3.9c-2.7 .9-4.4 1.8-5.2 2.2c-.3 .2-.6 .4-.6 .4c-3.1 2.9-8 2.8-11-.3s-3.1-7.9-.3-11c.1-.1 .2-.3 .4-.6c.5-.8 1.3-2.4 2.2-5.2c1.8-5.5 3.9-15.4 3.9-32.1c0-36.1-17.9-63.4-27.3-75.2c-1.7-2.2-4.6-3.5-8.1-3.5s-6.4 1.4-8.2 3.6zm-32 117C291.8 123 288 107.3 288 86c0-35 20.6-64.3 30.8-76.6C324 3 331.7 0 339.3 0s15.4 3 20.6 9.6c10.3 13 30.7 43.8 30.7 85.1c0 12.6-1.1 22.1-2.6 29.3c7.2-1.5 16.7-2.6 29.3-2.6c41.3 0 72.1 20.4 85.1 30.7c6.5 5.2 9.6 13 9.6 20.6s-3 15.3-9.4 20.6C490.3 203.4 461 224 426 224c-21.3 0-37-3.8-50.6-11.1c5.6 14.6 8.6 30.4 8.6 46.9c0 50.9-29.3 97.2-75.2 119.1L34.3 509.7C25.1 514 14.2 512.2 7 505s-9.1-18.1-4.7-27.3L133 203.2c21.9-45.9 68.2-75.2 119.1-75.2c16.5 0 32.4 3 46.9 8.6zm26.9 34C305.9 154 280.2 144 252.1 144c-42.2 0-80.9 23-101.3 59.5l46.8 46.8c3.1 3.1 3.1 8.2 0 11.3s-8.2 3.1-11.3 0l-43-43L16.8 484.6c-1.5 3.1-.8 6.7 1.6 9.1s6 3 9.1 1.6l135.8-64.7-40.9-40.9c-3.1-3.1-3.1-8.2 0-11.3s8.2-3.1 11.3 0l44.9 44.9 123.4-58.7c40.4-19.2 66.1-59.9 66.1-104.6c0-28.1-10-53.8-26.6-73.9c-2.4-2.3-4.8-4.8-7.3-7.2l-.5-.5-.5-.5s0 0 0 0c-2.5-2.5-4.9-4.9-7.2-7.3z"/></svg>