<svg xmlns="http://www.w3.org/2000/svg" viewBox="0 0 640 512"><!--! Font Awesome Pro 6.6.0 by @fontawesome - https://fontawesome.com License - https://fontawesome.com/license (Commercial License) Copyright 2024 Fonticons, Inc. --><path d="M8 0C3.6 0 0 3.6 0 8s3.6 8 8 8l80 0c13.3 0 24 10.7 24 24l0 352c0 22.1 17.9 40 40 40l36.2 0c-7.6 8.5-12.2 19.7-12.2 32c0 26.5 21.5 48 48 48s48-21.5 48-48c0-12.3-4.6-23.5-12.2-32l216.4 0c-7.6 8.5-12.2 19.7-12.2 32c0 26.5 21.5 48 48 48s48-21.5 48-48c0-12.3-4.6-23.5-12.2-32l84.2 0c4.4 0 8-3.6 8-8s-3.6-8-8-8l-120 0-288 0-72 0c-13.3 0-24-10.7-24-24l0-352c0-22.1-17.9-40-40-40L8 0zM544 464a32 32 0 1 1 -64 0 32 32 0 1 1 64 0zM224 496a32 32 0 1 1 0-64 32 32 0 1 1 0 64zm0-416l128 0c8.8 0 16 7.2 16 16l0 224c0 8.8-7.2 16-16 16l-128 0c-8.8 0-16-7.2-16-16l0-224c0-8.8 7.2-16 16-16zM192 96l0 224c0 17.7 14.3 32 32 32l128 0c17.7 0 32-14.3 32-32l0-224c0-17.7-14.3-32-32-32L224 64c-17.7 0-32 14.3-32 32zM512 80c8.8 0 16 7.2 16 16l0 64c0 8.8-7.2 16-16 16l-64 0c-8.8 0-16-7.2-16-16l0-64c0-8.8 7.2-16 16-16l64 0zM448 64c-17.7 0-32 14.3-32 32l0 64c0 17.7 14.3 32 32 32l64 0c17.7 0 32-14.3 32-32l0-64c0-17.7-14.3-32-32-32l-64 0zm0 176l128 0c8.8 0 16 7.2 16 16l0 64c0 8.8-7.2 16-16 16l-128 0c-8.8 0-16-7.2-16-16l0-64c0-8.8 7.2-16 16-16zm-32 16l0 64c0 17.7 14.3 32 32 32l128 0c17.7 0 32-14.3 32-32l0-64c0-17.7-14.3-32-32-32l-128 0c-17.7 0-32 14.3-32 32z"/></svg>