<svg xmlns="http://www.w3.org/2000/svg" viewBox="0 0 512 512"><!--! Font Awesome Pro 6.6.0 by @fontawesome - https://fontawesome.com License - https://fontawesome.com/license (Commercial License) Copyright 2024 Fonticons, Inc. --><path d="M80 16C62.3 16 48 30.3 48 48l0 32c0 17.7 14.3 32 32 32l88 0 16 0 88 0c17.7 0 32-14.3 32-32l0-32c0-17.7-14.3-32-32-32L80 16zM272 128l-88 0 0 32 240.5 0c31.8 0 58.9 23.4 63.4 54.9l23.5 164.5c.4 3 .6 6 .6 9l0 59.5c0 35.3-28.7 64-64 64L64 512c-35.3 0-64-28.7-64-64l0-59.5c0-3 .2-6.1 .6-9L24.2 214.9C28.7 183.4 55.7 160 87.5 160l80.5 0 0-32-88 0c-26.5 0-48-21.5-48-48l0-32C32 21.5 53.5 0 80 0L272 0c26.5 0 48 21.5 48 48l0 32c0 26.5-21.5 48-48 48zM168 176l-80.5 0c-23.9 0-44.1 17.6-47.5 41.2L16.5 381.8c-.1 .7-.2 1.5-.3 2.2l479.6 0c-.1-.7-.2-1.5-.3-2.2L472 217.2c-3.4-23.6-23.6-41.2-47.5-41.2L184 176l-16 0zM16 400l0 48c0 26.5 21.5 48 48 48l384 0c26.5 0 48-21.5 48-48l0-48L16 400zM128 240a16 16 0 1 1 -32 0 16 16 0 1 1 32 0zm80 16a16 16 0 1 1 0-32 16 16 0 1 1 0 32zm-32 64a16 16 0 1 1 -32 0 16 16 0 1 1 32 0zm128-64a16 16 0 1 1 0-32 16 16 0 1 1 0 32zm-32 64a16 16 0 1 1 -32 0 16 16 0 1 1 32 0zm128-64a16 16 0 1 1 0-32 16 16 0 1 1 0 32zm-32 64a16 16 0 1 1 -32 0 16 16 0 1 1 32 0zM96 56l160 0c4.4 0 8 3.6 8 8s-3.6 8-8 8L96 72c-4.4 0-8-3.6-8-8s3.6-8 8-8z"/></svg>