<svg xmlns="http://www.w3.org/2000/svg" viewBox="0 0 256 512"><!--! Font Awesome Pro 6.6.0 by @fontawesome - https://fontawesome.com License - https://fontawesome.com/license (Commercial License) Copyright 2024 Fonticons, Inc. --><path d="M96 32c-4.4 0-8 3.6-8 8s3.6 8 8 8l9.7 0c-7 6.4-15.4 14.8-23.9 24.9C61.3 97.6 40 133.3 40 176c0 21.4 8 37 17.8 48L56 224c-4.4 0-8 3.6-8 8s3.6 8 8 8l12.3 0L51.6 384l16.1 0L84.4 240l87.3 0 16.6 144 16.1 0L187.7 240l12.3 0c4.4 0 8-3.6 8-8s-3.6-8-8-8l-1.8 0c9.8-11 17.8-26.6 17.8-48c0-42.7-21.3-78.4-41.9-103.1c-8.4-10.1-16.8-18.5-23.9-24.9l9.7 0c4.4 0 8-3.6 8-8s-3.6-8-8-8l-32 0s0 0 0 0L96 32zm78.1 192s0 0 0 0l-92.1 0s0 0 0 0C69.7 215.7 56 201 56 176c0-37.3 18.7-69.6 38.1-92.9c9.7-11.6 19.3-20.8 26.6-27.1c2.9-2.5 5.3-4.5 7.3-6c1.9 1.5 4.4 3.5 7.3 6c7.3 6.3 16.9 15.5 26.6 27.1c4.6 5.6 9.2 11.6 13.5 18.2l-45.1 45.1c-3.1 3.1-3.1 8.2 0 11.3s8.2 3.1 11.3 0l42.2-42.2c9.5 17.8 16.1 38.3 16.1 60.5c0 25-13.7 39.7-25.9 48zM56.2 416c-7.8 0-15 3.7-19.5 10.1L4.5 471.2C1.6 475.2 0 480.1 0 485.1L0 488c0 13.3 10.7 24 24 24l208 0c13.3 0 24-10.7 24-24l0-2.9c0-5-1.6-9.9-4.5-13.9l-32.2-45.1c-4.5-6.3-11.8-10.1-19.5-10.1L56.2 416zm-6.5 19.4c1.5-2.1 3.9-3.4 6.5-3.4l143.5 0c2.6 0 5 1.2 6.5 3.4l32.2 45.1c1 1.4 1.5 3 1.5 4.6l0 2.9c0 4.4-3.6 8-8 8L24 496c-4.4 0-8-3.6-8-8l0-2.9c0-1.7 .5-3.3 1.5-4.6l32.2-45.1z"/></svg>