<svg xmlns="http://www.w3.org/2000/svg" viewBox="0 0 640 512"><!--! Font Awesome Pro 6.6.0 by @fontawesome - https://fontawesome.com License - https://fontawesome.com/license (Commercial License) Copyright 2024 Fonticons, Inc. --><path d="M17.7 484.3L335.3 29.9C342 21.4 352.2 16 363.7 16C383.6 16 400 32.4 400 53c0 8.6-2.9 16.5-7.7 22.7L28.4 493l-.2 .2-.1 .2c-2.3 3-6.5 3.5-9.4 1.2c-3-2.4-3.5-6.8-1.2-9.9c0 0 0 0 0 0l.2-.3zM363.7 0c-16.7 0-31.6 8-41.2 20.3c0 0 0 0 0 0l-.2 .3L4.7 475c-7.5 9.9-5.8 24.2 4 32c9.9 7.9 24.1 6.2 31.9-3.7l364-417.3 .2-.2 .1-.2c7-9 11.1-20.4 11.1-32.7c0-29.2-23.3-53-52.3-53zM146.7 483.7l416.3-395c6.5-5.4 14.8-8.7 23.9-8.7c20.5 0 37 16.4 37 36.6c0 11-4.9 20.9-12.8 27.6L155.9 494.1s0 0 0 0l-.3 .3c-3 2.5-7.4 2.2-9.9-.7c-2.5-2.9-2.2-7.1 .8-9.6c0 0 0 0 0 0l.3-.3zM587 64c-13.1 0-25.2 4.8-34.5 12.6c0 0 0 0 0 0l-.3 .3-416.3 395c-9.5 8.2-10.6 22.6-2.3 32.1c8.2 9.5 22.6 10.6 32.2 2.6L621.2 156.8s0 0 0 0l.3-.3c11.3-9.6 18.5-23.9 18.5-39.9C640 87.5 616.2 64 587 64z"/></svg>