<svg xmlns="http://www.w3.org/2000/svg" viewBox="0 0 512 512"><!--! Font Awesome Pro 6.6.0 by @fontawesome - https://fontawesome.com License - https://fontawesome.com/license (Commercial License) Copyright 2024 Fonticons, Inc. --><path d="M496 256A240 240 0 1 0 16 256a240 240 0 1 0 480 0zM0 256a256 256 0 1 1 512 0A256 256 0 1 1 0 256zM267.3 411.3c-6.2 6.2-16.4 6.2-22.6 0l-96-96c-4.6-4.6-5.9-11.5-3.5-17.4s8.3-9.9 14.8-9.9l192 0c6.5 0 12.3 3.9 14.8 9.9s1.1 12.9-3.5 17.4l-96 96zM352 304l-192 0 96 96 96-96zM267.3 100.7l96 96c3.1 3.1 3.1 8.2 0 11.3s-8.2 3.1-11.3 0l-96-96-96 96c-3.1 3.1-8.2 3.1-11.3 0s-3.1-8.2 0-11.3l96-96c6.2-6.2 16.4-6.2 22.6 0z"/></svg>