<svg xmlns="http://www.w3.org/2000/svg" viewBox="0 0 512 512"><!--! Font Awesome Pro 6.6.0 by @fontawesome - https://fontawesome.com License - https://fontawesome.com/license (Commercial License) Copyright 2024 Fonticons, Inc. --><path d="M256 16a240 240 0 1 1 0 480 240 240 0 1 1 0-480zm0 496A256 256 0 1 0 256 0a256 256 0 1 0 0 512zM160 168c0-4.4 3.6-8 8-8l127 0c5 0 9 4 9 9c0 2.4-.9 4.7-2.6 6.3l-35 35c-3.1 3.1-3.1 8.2 0 11.3L348.7 304c2.1 2.1 3.3 5 3.3 8s-1.2 5.9-3.3 8L320 348.7c-2.1 2.1-5 3.3-8 3.3s-5.9-1.2-8-3.3l-82.3-82.3c-3.1-3.1-8.2-3.1-11.3 0l-35 35c-1.7 1.7-4 2.6-6.3 2.6c-5 0-9-4-9-9l0-127zm8-24c-13.3 0-24 10.7-24 24l0 127c0 13.8 11.2 25 25 25c6.6 0 13-2.6 17.7-7.3L216 283.3 292.7 360c5.1 5.1 12.1 8 19.3 8s14.2-2.9 19.3-8L360 331.3c5.1-5.1 8-12.1 8-19.3s-2.9-14.2-8-19.3L283.3 216l29.4-29.4c4.7-4.7 7.3-11 7.3-17.7c0-13.8-11.2-25-25-25l-127 0z"/></svg>