<svg xmlns="http://www.w3.org/2000/svg" viewBox="0 0 512 512"><!--! Font Awesome Pro 6.6.0 by @fontawesome - https://fontawesome.com License - https://fontawesome.com/license (Commercial License) Copyright 2024 Fonticons, Inc. --><path d="M256 16a240 240 0 1 1 0 480 240 240 0 1 1 0-480zm0 496A256 256 0 1 0 256 0a256 256 0 1 0 0 512zm0-384c-53 0-96 43-96 96l0 64c0 53 43 96 96 96s96-43 96-96l0-64c0-53-43-96-96-96zm-80 96c0-44.2 35.8-80 80-80s80 35.8 80 80l0 64c0 44.2-35.8 80-80 80s-80-35.8-80-80l0-64z"/></svg>