<svg xmlns="http://www.w3.org/2000/svg" viewBox="0 0 512 512"><!--! Font Awesome Pro 6.6.0 by @fontawesome - https://fontawesome.com License - https://fontawesome.com/license (Commercial License) Copyright 2024 Fonticons, Inc. --><path d="M496 256A240 240 0 1 0 16 256a240 240 0 1 0 480 0zM0 256a256 256 0 1 1 512 0A256 256 0 1 1 0 256zM264 128c35.3 0 64 28.7 64 64c0 22.3-11.4 41.9-28.7 53.4C325.5 256.1 344 281.9 344 312c0 39.8-32.2 72-72 72l-32 0c-39.8 0-72-32.2-72-72c0-30.1 18.5-55.9 44.7-66.6C195.4 233.9 184 214.3 184 192c0-35.3 28.7-64 64-64l16 0zM248 240c0 0 0 0 0 0l16 0c0 0 0 0 0 0c26.5 0 48-21.5 48-48c0-26.5-21.5-48-48-48l-16 0c-26.5 0-48 21.5-48 48c0 26.5 21.5 48 48 48zm16 16l-16 0-8 0c-30.9 0-56 25.1-56 56s25.1 56 56 56l32 0c30.9 0 56-25.1 56-56s-25.1-56-56-56l-8 0z"/></svg>