<svg xmlns="http://www.w3.org/2000/svg" viewBox="0 0 512 512"><!--! Font Awesome Pro 6.6.0 by @fontawesome - https://fontawesome.com License - https://fontawesome.com/license (Commercial License) Copyright 2024 Fonticons, Inc. --><path d="M256 16a240 240 0 1 1 0 480 240 240 0 1 1 0-480zm0 496A256 256 0 1 0 256 0a256 256 0 1 0 0 512zM176.8 335.2c-43.7-43.7-43.7-114.7 0-158.4s114.7-43.7 158.4 0c3.1 3.1 8.2 3.1 11.3 0s3.1-8.2 0-11.3c-50-50-131-50-181 0s-50 131 0 181s131 50 181 0c3.1-3.1 3.1-8.2 0-11.3s-8.2-3.1-11.3 0c-43.7 43.7-114.7 43.7-158.4 0z"/></svg>