<svg xmlns="http://www.w3.org/2000/svg" viewBox="0 0 512 512"><!--! Font Awesome Pro 6.6.0 by @fontawesome - https://fontawesome.com License - https://fontawesome.com/license (Commercial License) Copyright 2024 Fonticons, Inc. --><path d="M496 256A240 240 0 1 0 16 256a240 240 0 1 0 480 0zM0 256a256 256 0 1 1 512 0A256 256 0 1 1 0 256zm128 24l33.5 0c-1.6-7.5-2.4-15.3-2.4-23.2c0-8.5 .9-16.8 2.7-24.8L128 232c-4.4 0-8-3.6-8-8s3.6-8 8-8l38.7 0c16.3-42.1 57.3-72 105.2-72l41.1 0c4.4 0 8 3.6 8 8s-3.6 8-8 8l-41.1 0c-38.9 0-72.4 22.9-87.8 56L304 216c4.4 0 8 3.6 8 8s-3.6 8-8 8l-125.7 0c-2.1 7.9-3.2 16.2-3.2 24.8c0 8 1 15.8 2.8 23.2l126 0c4.4 0 8 3.6 8 8s-3.6 8-8 8l-120.6 0c15.1 33.9 49 57.5 88.5 57.5l41.1 0c4.4 0 8 3.6 8 8s-3.6 8-8 8l-41.1 0c-48.5 0-89.8-30.6-105.7-73.5L128 296c-4.4 0-8-3.6-8-8s3.6-8 8-8z"/></svg>