<svg xmlns="http://www.w3.org/2000/svg" viewBox="0 0 512 512"><!--! Font Awesome Pro 6.6.0 by @fontawesome - https://fontawesome.com License - https://fontawesome.com/license (Commercial License) Copyright 2024 Fonticons, Inc. --><path d="M16 256a240 240 0 1 1 480 0A240 240 0 1 1 16 256zm496 0A256 256 0 1 0 0 256a256 256 0 1 0 512 0zm-400 0c0 7.2 2.9 14.2 8 19.3L219.7 375c5.7 5.7 13.5 9 21.7 9c16.9 0 30.6-13.7 30.6-30.6l0-49.4 88 0c22.1 0 40-17.9 40-40l0-16c0-22.1-17.9-40-40-40l-88 0 0-49.4c0-16.9-13.7-30.6-30.6-30.6c-8.1 0-15.9 3.2-21.7 9L120 236.7c-5.1 5.1-8 12.1-8 19.3zm19.3 8c-2.1-2.1-3.3-5-3.3-8s1.2-5.9 3.3-8L231 148.3c2.7-2.7 6.5-4.3 10.3-4.3c8.1 0 14.6 6.5 14.6 14.6l0 57.4c0 4.4 3.6 8 8 8l96 0c13.3 0 24 10.7 24 24l0 16c0 13.3-10.7 24-24 24l-96 0c-4.4 0-8 3.6-8 8l0 57.4c0 8.1-6.5 14.6-14.6 14.6c-3.9 0-7.6-1.5-10.3-4.3L131.3 264z"/></svg>