<svg xmlns="http://www.w3.org/2000/svg" viewBox="0 0 512 512"><!--! Font Awesome Pro 6.6.0 by @fontawesome - https://fontawesome.com License - https://fontawesome.com/license (Commercial License) Copyright 2024 Fonticons, Inc. --><path d="M421.7 2.3c-3.1-3.1-8.2-3.1-11.3 0l-408 408c-3.1 3.1-3.1 8.2 0 11.3l3.5 3.5c55.6 55.6 131 86.8 209.7 86.8C379.3 512 512 379.3 512 215.5c0-78.6-31.2-154.1-86.8-209.7l-3.5-3.5zM215.5 496c-73.4 0-143.8-28.7-196.2-80l34.3-34.3C95.5 422.7 152.8 448 216 448c128.1 0 232-103.9 232-232c0-63.2-25.3-120.5-66.3-162.4L416 19.3c51.3 52.4 80 122.8 80 196.2C496 370.4 370.4 496 215.5 496zM431.4 200c.4 5.3 .6 10.6 .6 16c0 56.8-21.9 108.4-57.7 147L269.9 258.6C281.2 244.8 288 227.2 288 208c0-2.7-.1-5.4-.4-8l143.8 0zm-1.8-16l-145.3 0c-2.5-8-6.2-15.4-10.9-22.1l97-97c31.1 31.7 52.4 73 59.3 119.1zm-171 85.9L363 374.3C324.4 410.1 272.8 432 216 432c-5.4 0-10.7-.2-16-.6l0-143.8c2.6 .3 5.3 .4 8 .4c19.2 0 36.8-6.8 50.6-18.1zM184 429.6c-46-6.8-87.3-28.2-119.1-59.3l97-97c6.7 4.7 14.1 8.4 22.1 10.9l0 145.3zM208 272c-12.7 0-24.6-3.7-34.6-10.1l88.4-88.4c6.4 10 10.1 21.8 10.1 34.6c0 35.3-28.7 64-64 64z"/></svg>