<svg xmlns="http://www.w3.org/2000/svg" viewBox="0 0 640 512"><!--! Font Awesome Pro 6.6.0 by @fontawesome - https://fontawesome.com License - https://fontawesome.com/license (Commercial License) Copyright 2024 Fonticons, Inc. --><path d="M80 8l0 56 80 0 0-56c0-4.4 3.6-8 8-8s8 3.6 8 8l0 56 48 0 0 16-48 0-16 0L80 80 64 80l-8 0c-22.1 0-40 17.9-40 40l0 336c0 22.1 17.9 40 40 40l180.8 0c3.3 5.7 7.2 11.1 11.6 16L56 512c-30.9 0-56-25.1-56-56L0 120C0 89.1 25.1 64 56 64l8 0L64 8c0-4.4 3.6-8 8-8s8 3.6 8 8zM480 176c-8.8 0-16-7.2-16-16l0-96c0-26.5-21.5-48-48-48l-96 0c-26.5 0-48 21.5-48 48l0 160 0 224c0 26.5 21.5 48 48 48l96 0 160 0c26.5 0 48-21.5 48-48l0-224c0-26.5-21.5-48-48-48l-96 0zm0-112l0 80 0 16 16 0 80 0c35.3 0 64 28.7 64 64l0 224c0 35.3-28.7 64-64 64l-160 0-96 0c-35.3 0-64-28.7-64-64l0-224 0-160c0-35.3 28.7-64 64-64l96 0c35.3 0 64 28.7 64 64zM328 384l0-32c0-13.3 10.7-24 24-24l32 0c13.3 0 24 10.7 24 24l0 32c0 13.3-10.7 24-24 24l-32 0c-13.3 0-24-10.7-24-24zm24 8l32 0c4.4 0 8-3.6 8-8l0-32c0-4.4-3.6-8-8-8l-32 0c-4.4 0-8 3.6-8 8l0 32c0 4.4 3.6 8 8 8zm0-320l32 0c13.3 0 24 10.7 24 24l0 32c0 13.3-10.7 24-24 24l-32 0c-13.3 0-24-10.7-24-24l0-32c0-13.3 10.7-24 24-24zm-8 24l0 32c0 4.4 3.6 8 8 8l32 0c4.4 0 8-3.6 8-8l0-32c0-4.4-3.6-8-8-8l-32 0c-4.4 0-8 3.6-8 8zM328 256l0-32c0-13.3 10.7-24 24-24l32 0c13.3 0 24 10.7 24 24l0 32c0 13.3-10.7 24-24 24l-32 0c-13.3 0-24-10.7-24-24zm24 8l32 0c4.4 0 8-3.6 8-8l0-32c0-4.4-3.6-8-8-8l-32 0c-4.4 0-8 3.6-8 8l0 32c0 4.4 3.6 8 8 8zM512 440c-13.3 0-24-10.7-24-24l0-32c0-13.3 10.7-24 24-24l32 0c13.3 0 24 10.7 24 24l0 32c0 13.3-10.7 24-24 24l-32 0zm-8-24c0 4.4 3.6 8 8 8l32 0c4.4 0 8-3.6 8-8l0-32c0-4.4-3.6-8-8-8l-32 0c-4.4 0-8 3.6-8 8l0 32zM488 288l0-32c0-13.3 10.7-24 24-24l32 0c13.3 0 24 10.7 24 24l0 32c0 13.3-10.7 24-24 24l-32 0c-13.3 0-24-10.7-24-24zm24 8l32 0c4.4 0 8-3.6 8-8l0-32c0-4.4-3.6-8-8-8l-32 0c-4.4 0-8 3.6-8 8l0 32c0 4.4 3.6 8 8 8zM96 344c-13.3 0-24-10.7-24-24l0-32c0-13.3 10.7-24 24-24l32 0c13.3 0 24 10.7 24 24l0 32c0 13.3-10.7 24-24 24l-32 0zm-8-24c0 4.4 3.6 8 8 8l32 0c4.4 0 8-3.6 8-8l0-32c0-4.4-3.6-8-8-8l-32 0c-4.4 0-8 3.6-8 8l0 32zM72 192l0-32c0-13.3 10.7-24 24-24l32 0c13.3 0 24 10.7 24 24l0 32c0 13.3-10.7 24-24 24l-32 0c-13.3 0-24-10.7-24-24zm24 8l32 0c4.4 0 8-3.6 8-8l0-32c0-4.4-3.6-8-8-8l-32 0c-4.4 0-8 3.6-8 8l0 32c0 4.4 3.6 8 8 8z"/></svg>