<svg xmlns="http://www.w3.org/2000/svg" viewBox="0 0 640 512"><!--! Font Awesome Pro 6.6.0 by @fontawesome - https://fontawesome.com License - https://fontawesome.com/license (Commercial License) Copyright 2024 Fonticons, Inc. --><path d="M224 136c0-4.4 3.6-8 8-8l32 0 104 0 104 0 32 0c4.4 0 8 3.6 8 8s-3.6 8-8 8l-24 0 0 48 79.5 0c4.2 0 8.3-1.1 11.9-3.2l47.2-27c2.2-1.2 4.6-1.9 7.1-1.9c7.9 0 14.3 6.4 14.3 14.3l0 195.4c0 7.9-6.4 14.3-14.3 14.3c-2.5 0-4.9-.6-7.1-1.9l-47.2-27c-3.6-2.1-7.7-3.2-11.9-3.2l-457.9 0c-4.7 0-9.3-.8-13.7-2.4L5.3 319.5C2.1 318.4 0 315.4 0 312l0-80c0-3.4 2.1-6.4 5.3-7.5L88 194.4c4.4-1.6 9-2.4 13.7-2.4L256 192l0-48-24 0c-4.4 0-8-3.6-8-8zm240 8l-88 0 0 48 88 0 0-48zm-104 0l-88 0 0 48 88 0 0-48zM101.6 208c-2.8 0-5.6 .5-8.2 1.4L16 237.6l0 68.8 77.4 28.2c2.6 1 5.4 1.4 8.2 1.4l457.9 0c7 0 13.8 1.8 19.8 5.3L624 366.8l0-189.6-44.7 25.5c-6 3.5-12.9 5.3-19.8 5.3L472 208l-104 0-104 0-162.4 0zM272 256a16 16 0 1 1 0 32 16 16 0 1 1 0-32zm80 16a16 16 0 1 1 32 0 16 16 0 1 1 -32 0zm112-16a16 16 0 1 1 0 32 16 16 0 1 1 0-32z"/></svg>