<svg xmlns="http://www.w3.org/2000/svg" viewBox="0 0 576 512"><!--! Font Awesome Pro 6.6.0 by @fontawesome - https://fontawesome.com License - https://fontawesome.com/license (Commercial License) Copyright 2024 Fonticons, Inc. --><path d="M34.3 2.3c3.1-3.1 8.2-3.1 11.3 0L165.3 121.9c12 12 18.7 28.3 18.7 45.3l0 32.8 32.8 0c17 0 33.3 6.7 45.3 18.7l95.2 95.2c12 12 18.7 28.3 18.7 45.3l0 32.8 32.8 0c17 0 33.3 6.7 45.3 18.7l87.6 87.6c3.1 3.1 3.1 8.2 0 11.3s-8.2 3.1-11.3 0l-87.6-87.6c-9-9-21.2-14.1-33.9-14.1L368 408c-4.4 0-8-3.6-8-8l0-40.8c0-12.7-5.1-24.9-14.1-33.9l-95.2-95.2c-9-9-21.2-14.1-33.9-14.1L176 216c-4.4 0-8-3.6-8-8l0-40.8c0-12.7-5.1-24.9-14.1-33.9L34.3 13.7c-3.1-3.1-3.1-8.2 0-11.3zm0 224c3.1-3.1 8.2-3.1 11.3 0l89.9 89.9C146.1 326.8 152 341 152 355.9l0 36.1 36.1 0c14.9 0 29.1 5.9 39.6 16.4l89.9 89.9c3.1 3.1 3.1 8.2 0 11.3s-8.2 3.1-11.3 0l-89.9-89.9c-7.5-7.5-17.7-11.7-28.3-11.7L144 408c-4.4 0-8-3.6-8-8l0-44.1c0-10.6-4.2-20.8-11.7-28.3L34.3 237.7c-3.1-3.1-3.1-8.2 0-11.3zM269.7 2.3l25.9 25.9C306.1 38.8 312 53 312 67.9l0 36.1 36.1 0c14.9 0 29.1 5.9 39.6 16.4l35.9 35.9C434.1 166.8 440 181 440 195.9l0 36.1 36.1 0c14.9 0 29.1 5.9 39.6 16.4l25.9 25.9c3.1 3.1 3.1 8.2 0 11.3s-8.2 3.1-11.3 0l-25.9-25.9c-7.5-7.5-17.7-11.7-28.3-11.7L432 248c-4.4 0-8-3.6-8-8l0-44.1c0-10.6-4.2-20.8-11.7-28.3l-35.9-35.9c-7.5-7.5-17.7-11.7-28.3-11.7L304 120c-4.4 0-8-3.6-8-8l0-44.1c0-10.6-4.2-20.8-11.7-28.3L258.3 13.7c-3.1-3.1-3.1-8.2 0-11.3s8.2-3.1 11.3 0z"/></svg>