<svg xmlns="http://www.w3.org/2000/svg" viewBox="0 0 640 512"><!--! Font Awesome Pro 6.6.0 by @fontawesome - https://fontawesome.com License - https://fontawesome.com/license (Commercial License) Copyright 2024 Fonticons, Inc. --><path d="M13 1.7C9.5-1 4.5-.4 1.7 3S-.4 11.5 3 14.3l624 496c3.5 2.7 8.5 2.2 11.2-1.3s2.2-8.5-1.3-11.2L13 1.7zM608 391.6L608 96c0-35.3-28.7-64-64-64L152.5 32l20.3 16L544 48c26.5 0 48 21.5 48 48l0 283 16 12.6zM370.9 204.4C385.5 187 407.5 176 432 176c24.8 0 47 11.3 61.6 29c2.8 3.4 7.9 3.9 11.3 1.1s3.9-7.9 1.1-11.3c-17.6-21.2-44.2-34.8-74-34.8c-29.6 0-56.1 13.4-73.7 34.5l12.6 9.9zM48 133L32 120.4 32 416c0 35.3 28.7 64 64 64l391.5 0-20.3-16L96 464c-26.5 0-48-21.5-48-48l0-283zM278.3 314.8C264 328 244.9 336 224 336c-44.2 0-80-35.8-80-80c0-14.2 3.7-27.6 10.2-39.1l-12.7-10C132.9 221.2 128 238 128 256c0 53 43 96 96 96c26 0 49.7-10.4 67-27.2l-12.7-10z"/></svg>