<svg xmlns="http://www.w3.org/2000/svg" viewBox="0 0 640 512"><!--! Font Awesome Pro 6.6.0 by @fontawesome - https://fontawesome.com License - https://fontawesome.com/license (Commercial License) Copyright 2024 Fonticons, Inc. --><path d="M137.2 2.9c-4.5-3.2-10.3-3.8-15.4-1.6s-8.7 6.7-9.6 12.1L98.1 98.1 13.4 112.2c-5.4 .9-10 4.5-12.1 9.6s-1.5 10.9 1.6 15.4L52.5 208 2.9 278.8c-3.2 4.5-3.8 10.3-1.6 15.4s6.7 8.7 12.1 9.6l84.7 14.1 14.1 84.7c.9 5.4 4.5 10 9.6 12.1s10.9 1.5 15.4-1.6l56-39.2c-3.6-4-6.9-8.1-10-12.5l-40.6 28.5L128 400l-2.9-17.5-11.2-67.2c-1.1-6.7-6.4-12-13.2-13.2L33.5 290.9 16 288l10.2-14.5 39.4-56.3c3.9-5.5 3.9-12.8 0-18.4L26.2 142.5 16 128l17.5-2.9 67.2-11.2c6.7-1.1 12-6.4 13.2-13.2l11.2-67.2L128 16l14.5 10.2 56.3 39.4c5.5 3.9 12.8 3.9 18.4 0l56.3-39.4L288 16l2.9 17.5 8.4 50.4c4.8-3 9.7-5.7 14.9-8.1L303.8 13.4c-.9-5.4-4.5-10-9.6-12.1s-10.9-1.5-15.4 1.6L208 52.5 137.2 2.9zM208 112c-53 0-96 43-96 96c0 35.6 19.3 66.6 48 83.2c0-1.1 0-2.2 0-3.2c0-5.2 .3-10.3 .9-15.3C141 258.1 128 234.6 128 208c0-44.2 35.8-80 80-80c15.7 0 30.4 4.5 42.8 12.4c2.2-4.9 4.6-9.7 7.4-14.3c-14.6-9-31.8-14.1-50.2-14.1zm80 80c0-44.2 35.8-80 80-80c32 0 59.6 18.8 72.4 46c1.1 2.3 3.2 3.9 5.7 4.4s5.1-.2 6.9-1.9c11.4-10.3 26.4-16.5 42.9-16.5c35.3 0 64 28.7 64 64c0 7.5-1.3 14.7-3.7 21.4c-.8 2.4-.5 5 .9 7.1s3.7 3.4 6.2 3.5c33.7 1.8 60.5 29.7 60.5 63.9c0 35.3-28.7 64-64 64c-.7 0-1.5 0-2.2 0c0 0 0 0 0 0l-.3 0-13.4 0c0 5.5-.9 10.9-2.7 16l16 0c.9 0 1.8 0 2.6 0c44.2 0 80-35.8 80-80c0-39.3-28.4-72.1-65.8-78.7c1.2-5.6 1.9-11.3 1.9-17.2c0-44.2-35.8-80-80-80c-17 0-32.8 5.3-45.8 14.4C433.4 114.6 402.8 96 368 96c-53 0-96 43-96 96l0 1.3c-45.4 7.6-80 47.1-80 94.7c0 42.3 27.3 78.2 65.3 91c-1.4-5.8-1.6-11.7-.8-17.4C228 349.3 208 320.9 208 288c0-41.8 32.1-76.2 73.1-79.7c2.1-.2 4.1-1.2 5.5-2.8s2-3.8 1.8-5.9c-.2-2.5-.4-5-.4-7.6zM411.6 344.8c-2.5 5-2.2 10.9 .7 15.6s8.1 7.6 13.6 7.6l70.1 0L336 496l52.4-104.8c2.5-5 2.2-10.9-.7-15.6s-8.1-7.6-13.6-7.6L304 368 464 240 411.6 344.8zm66.7-97.7c3.4-6.7 1.6-14.9-4.2-19.6s-14.2-4.7-20.1-.1l-160 128c-5.3 4.2-7.4 11.4-5.1 17.8s8.3 10.7 15.1 10.7l52.2 0 17.9 0-8 16-44.4 88.8c-3.4 6.7-1.6 14.9 4.3 19.6s14.2 4.7 20.1 .1l160-128c5.3-4.2 7.4-11.4 5.1-17.8s-8.3-10.7-15.1-10.7l-52.2 0-17.9 0 8-16 44.4-88.8z"/></svg>