<svg xmlns="http://www.w3.org/2000/svg" viewBox="0 0 512 512"><!--! Font Awesome Pro 6.6.0 by @fontawesome - https://fontawesome.com License - https://fontawesome.com/license (Commercial License) Copyright 2024 Fonticons, Inc. --><path d="M398.7 124.8c.8-4.1 1.3-8.4 1.3-12.8c0-35.3-28.7-64-64-64c-19.5 0-36.9 8.7-48.6 22.4c-3.5 4-8.7 6.1-13.9 5.5s-9.9-3.8-12.4-8.5C245 36.8 212.9 16 176 16c-53 0-96 43-96 96c0 6.1 .6 12.1 1.7 17.9c1.5 7.9-3.1 15.6-10.7 18.1C39 158.5 16 188.6 16 224c0 44.2 35.8 80 80 80l320 0c44.2 0 80-35.8 80-80s-35.8-80-80-80c-.5 0-.9 0-1.3 0c-4.8 .1-9.5-2-12.6-5.8s-4.3-8.7-3.4-13.4zM176 0c37.1 0 70 18.1 90.4 45.9c3.3 4.5 6.2 9.2 8.8 14.1c3.6-4.2 7.6-8 12-11.4C300.7 38.2 317.6 32 336 32c44.2 0 80 35.8 80 80c0 5.5-.6 10.8-1.6 16c.5 0 1.1 0 1.6 0c4.9 0 9.8 .4 14.5 1.1c46.1 7 81.5 46.8 81.5 94.9c0 53-43 96-96 96L96 320c-53 0-96-43-96-96c0-42.5 27.6-78.6 65.9-91.2C64.7 126.1 64 119.1 64 112C64 50.1 114.1 0 176 0zM79.2 379.6l-64 128c-2 4-6.8 5.6-10.7 3.6s-5.6-6.8-3.6-10.7l64-128c2-4 6.8-5.6 10.7-3.6s5.6 6.8 3.6 10.7zm256 0l-64 128c-2 4-6.8 5.6-10.7 3.6s-5.6-6.8-3.6-10.7l64-128c2-4 6.8-5.6 10.7-3.6s5.6 6.8 3.6 10.7zM184 368l0 40 40 0c4.4 0 8 3.6 8 8s-3.6 8-8 8l-40 0 0 40c0 4.4-3.6 8-8 8s-8-3.6-8-8l0-40-40 0c-4.4 0-8-3.6-8-8s3.6-8 8-8l40 0 0-40c0-4.4 3.6-8 8-8s8 3.6 8 8zm248-8c4.4 0 8 3.6 8 8l0 40 40 0c4.4 0 8 3.6 8 8s-3.6 8-8 8l-40 0 0 40c0 4.4-3.6 8-8 8s-8-3.6-8-8l0-40-40 0c-4.4 0-8-3.6-8-8s3.6-8 8-8l40 0 0-40c0-4.4 3.6-8 8-8z"/></svg>