<svg xmlns="http://www.w3.org/2000/svg" viewBox="0 0 640 512"><!--! Font Awesome Pro 6.6.0 by @fontawesome - https://fontawesome.com License - https://fontawesome.com/license (Commercial License) Copyright 2024 Fonticons, Inc. --><path d="M495.8 16c5 0 10 .2 14.9 .6c-49.3 27.9-82.5 80.9-82.5 141.7c0 89.8 72.6 162.6 162.2 162.6c9.5 0 18.8-.8 27.8-2.4c-31.7 30.8-74.9 49.8-122.5 49.8c-13.3 0-26.3-1.5-38.8-4.3c4.4 5.7 8.2 11.9 11.4 18.4c8.9 1.3 18.1 1.9 27.4 1.9c52 0 99.1-20.7 133.6-54.4c5-4.9 6.3-12.5 3.1-18.7s-10.1-9.7-17-8.5c-8.1 1.4-16.5 2.1-25.1 2.1c-80.7 0-146.2-65.6-146.2-146.6c0-54.8 30-102.6 74.4-127.8c6.1-3.5 9.2-10.5 7.7-17.3S519 1.3 512 .7c-5.4-.5-10.8-.7-16.3-.7C389.8 0 304 86.1 304 192.2c0 10.8 .9 21.5 2.6 31.8c5.6 .1 11.2 .7 16.5 1.6c-2.1-10.8-3.2-22-3.2-33.4C320 94.9 398.7 16 495.8 16zM96 320c0-44.2 35.8-80 80-80c32 0 59.6 18.8 72.4 46c1.1 2.3 3.2 3.9 5.7 4.4s5.1-.2 6.9-1.9c11.4-10.3 26.4-16.5 42.9-16.5c35.3 0 64 28.7 64 64c0 7.5-1.3 14.7-3.7 21.4c-.8 2.4-.5 5 .9 7.1s3.7 3.4 6.2 3.5c33.7 1.8 60.5 29.7 60.5 63.9c0 35.3-28.7 64-64 64c-.7 0-1.5 0-2.2 0c0 0 0 0 0 0l-.3 0L99 495.9s0 0 0 0l-.3 0c-.9 0-1.8 0-2.8 0c-44.2 0-80-35.8-80-80c0-41.8 32.1-76.2 73.1-79.7c2.1-.2 4.1-1.2 5.5-2.8s2-3.8 1.8-5.9c-.2-2.5-.4-5-.4-7.6zm80-96c-53 0-96 43-96 96l0 1.3C34.6 328.9 0 368.4 0 416c0 53 43 96 96 96c1.1 0 2.1 0 3.2-.1l266.1 0c.9 0 1.8 0 2.6 0c44.2 0 80-35.8 80-80c0-39.3-28.4-72.1-65.8-78.7c1.2-5.6 1.9-11.3 1.9-17.2c0-44.2-35.8-80-80-80c-17 0-32.8 5.3-45.8 14.4C241.4 242.6 210.8 224 176 224z"/></svg>