<svg xmlns="http://www.w3.org/2000/svg" viewBox="0 0 512 512"><!--! Font Awesome Pro 6.6.0 by @fontawesome - https://fontawesome.com License - https://fontawesome.com/license (Commercial License) Copyright 2024 Fonticons, Inc. --><path d="M442.4 203.7c9.3 11 18.1 27 25.5 42.6c-41.6 39.9-120.8 34-178.5-23.7C240.7 174 228.9 110.2 250.2 66.4c6.6 12.9 14.2 25.7 22.5 35.5c26.4 31.1 58 42.5 87.7 53.1l.5 .2c30 10.7 58 20.9 81.4 48.5zm4.2-138.4c53 53 62.3 124.2 32.6 167.6c-7-14.2-15.4-28.8-24.6-39.6c-26.4-31.1-58-42.5-87.7-53.1l-.5-.2c-30-10.7-58-20.9-81.4-48.5c-9-10.6-17.6-26-24.8-41.1c2.1-2.7 4.3-5.2 6.7-7.6C308.1 1.7 388.3 7 446.6 65.4zm33.8 191.1C530.1 206.8 520.1 116.1 458 54S305.2-18.1 255.6 31.6S215.9 171.9 278 234s152.7 72.2 202.4 22.5zM128 496C69.3 496 16 435 16 352c0-72.7 40.8-128.4 90.4-141.2c-5 14.8-9.2 30.7-10.3 44.6c-3.4 40.7 11 71.1 24.5 99.6l.2 .5c13.6 28.8 26.3 55.8 23.3 91.9c-1.2 14.5-6.4 32.2-12.3 48.6c-1.2 .1-2.5 .1-3.8 .1zm32-47.3c3.4-40.7-11-71.1-24.5-99.6l-.2-.5c-13.6-28.8-26.3-55.8-23.3-91.9c1.2-14.5 6.4-32.2 12.3-48.6c1.2-.1 2.5-.1 3.8-.1c58.7 0 112 61 112 144c0 72.7-40.8 128.4-90.4 141.2c5-14.8 9.2-30.7 10.3-44.6zM128 512c70.7 0 128-71.6 128-160s-57.3-160-128-160S0 263.6 0 352s57.3 160 128 160z"/></svg>