<svg xmlns="http://www.w3.org/2000/svg" viewBox="0 0 640 512"><!--! Font Awesome Pro 6.6.0 by @fontawesome - https://fontawesome.com License - https://fontawesome.com/license (Commercial License) Copyright 2024 Fonticons, Inc. --><path d="M13 1.7C9.5-1 4.5-.4 1.7 3S-.4 11.5 3 14.3l624 496c3.5 2.7 8.5 2.2 11.2-1.3s2.2-8.5-1.3-11.2L13 1.7zM409.4 418.3C382 427.1 351.8 432 320 432c-35.2 0-68.6-6.1-98.7-17c-5-1.8-10.6-1-14.9 2.1c-11 8-29.4 19.3-51.2 28.8c-22.9 10-49.6 18-75.2 18l.1-.1c0 0 0 0 0 0s0 0 0 0l.3-.3c0 0 0 0 .1-.1c.4-.4 .9-.9 1.5-1.6c1.3-1.4 3.2-3.6 5.4-6.3l-12.2-10 12.2 10C92 450 98 442 104 432c10.7-17.9 21.4-42.1 23.6-69.9c.3-4.3-1.1-8.6-3.9-11.8C95.9 318.8 80 280.7 80 240c0-24.1 5.7-47.4 16.1-69L83.2 160.8C70.8 185.2 64 212 64 240c0 45.1 17.7 86.8 47.7 120.9c-1.9 24.5-11.4 46.3-21.4 62.9c-5.5 9.2-11.1 16.6-15.2 21.6c-2.1 2.5-3.7 4.4-4.9 5.7c-.6 .6-1 1.1-1.3 1.4l-.3 .3c0 0 0 0 0 0c0 0 0 0 0 0s0 0 0 0s0 0 0 0c-4.6 4.6-5.9 11.4-3.4 17.4c2.5 6 8.3 9.9 14.8 9.9c28.7 0 57.6-8.9 81.6-19.3c22.9-10 42.4-21.9 54.3-30.6c31.8 11.5 67 17.9 104.1 17.9c37.1 0 72.4-6.4 104.2-18l-14.9-11.7zM320 32c-47.7 0-92.4 10.6-130.7 29.1l14 11C237.6 56.8 277.2 48 320 48c135.8 0 240 88.9 240 192c0 32.5-10.4 63.6-28.8 91l12.7 10c20.5-29.9 32.1-64.3 32.1-101C576 125.1 461.4 32 320 32z"/></svg>