<svg xmlns="http://www.w3.org/2000/svg" viewBox="0 0 512 512"><!--! Font Awesome Pro 6.6.0 by @fontawesome - https://fontawesome.com License - https://fontawesome.com/license (Commercial License) Copyright 2024 Fonticons, Inc. --><path d="M157.3 415c-5-1.8-10.6-1-14.9 2.1c-11 8-29.4 19.3-51.2 28.8C68.3 456 41.6 464 16 464l.1-.1c0 0 0 0 0 0s0 0 0 0l.3-.3c0 0 0 0 .1-.1c.4-.4 .9-.9 1.5-1.6c1.3-1.4 3.2-3.6 5.4-6.3l-12.2-10 12.2 10C28 450 34 442 40 432c10.7-17.9 21.4-42.1 23.6-69.9c.3-4.3-1.1-8.6-3.9-11.8C31.9 318.8 16 280.7 16 240C16 136.9 120.2 48 256 48s240 88.9 240 192s-104.2 192-240 192c-35.2 0-68.6-6.1-98.7-17zM4.7 452.7s0 0 0 0s0 0 0 0s0 0 0 0c-4.6 4.6-5.9 11.4-3.4 17.4c2.5 6 8.3 9.9 14.8 9.9c28.7 0 57.6-8.9 81.6-19.3c22.9-10 42.4-21.9 54.3-30.6c31.8 11.5 67 17.9 104.1 17.9c141.4 0 256-93.1 256-208S397.4 32 256 32S0 125.1 0 240c0 45.1 17.7 86.8 47.7 120.9c-1.9 24.5-11.4 46.3-21.4 62.9c-5.5 9.2-11.1 16.6-15.2 21.6c-2.1 2.5-3.7 4.4-4.9 5.7c-.6 .6-1 1.1-1.3 1.4l-.3 .3c0 0 0 0 0 0zM264 144c0-4.4-3.6-8-8-8s-8 3.6-8 8l0 16.4c-8.4 .7-16.2 2.6-23 5.7c-12.4 5.6-21.9 15.4-24.2 28.8c-1.4 8.2-.6 15.4 2.4 21.8c3 6.3 7.8 11 13.2 14.7c10 6.8 23.7 10.9 35.9 14.6l1.7 .5c13.4 4 25 7.8 32.9 13.5c3.7 2.7 6.3 5.7 7.7 9c1.4 3.3 2.1 7.6 1.1 13.5c-1.4 8.2-6.5 14.1-15.1 17.8c-8.8 3.8-21.1 5-35.4 2.7c-7.1-1.2-19.2-5.3-28.8-8.5c0 0 0 0 0 0s0 0 0 0s0 0 0 0c-2.1-.7-4-1.4-5.7-1.9c-4.2-1.4-8.7 .9-10.1 5.1s.9 8.7 5.1 10.1c1.4 .5 3.1 1 5 1.7c0 0 0 0 0 0s0 0 0 0c9.4 3.2 23.4 8 32 9.4c0 0 0 0 0 0c1.8 .3 3.7 .5 5.5 .7l0 16.6c0 4.4 3.6 8 8 8s8-3.6 8-8l0-16.1c8.3-.5 16-2.1 22.7-5c12.6-5.4 22.1-15.4 24.5-29.7c1.5-8.5 .7-16-2.1-22.6c-2.9-6.6-7.5-11.6-13-15.5c-10.5-7.6-24.9-12-37.6-15.8l-.3-.1s0 0 0 0c-13.4-4-25-7.5-32.9-12.9c-3.8-2.6-6.3-5.3-7.7-8.3c-1.4-2.9-2.1-6.8-1.1-12.2c1.2-6.8 6.2-12.9 15.1-17c9-4.1 21.4-5.7 35.4-3.5c4.5 .7 18.5 3.4 22.9 4.6c4.3 1.1 8.7-1.4 9.8-5.7s-1.4-8.7-5.7-9.8c-5.2-1.4-19.8-4.2-24.6-4.9c-1.8-.3-3.7-.5-5.5-.7l0-16.6z"/></svg>