<svg xmlns="http://www.w3.org/2000/svg" viewBox="0 0 640 512"><!--! Font Awesome Pro 6.6.0 by @fontawesome - https://fontawesome.com License - https://fontawesome.com/license (Commercial License) Copyright 2024 Fonticons, Inc. --><path d="M16 176C16 90 99.4 16 208 16s192 74 192 160s-83.4 160-192 160c-35.3 0-69.6-8.4-101.3-24c-2.3-1.1-5-1.1-7.3 .1C73.3 325.9 44.8 336 16 336l.1-.1c18.7-14.2 32.2-33.9 40.2-55.4c1-2.7 .5-5.8-1.4-8C31.1 244.8 16 212.1 16 176zM208 0C93.1 0 0 78.8 0 176c0 39.2 15.7 74.1 39.6 103.2C32.4 296.5 21.2 312 6.5 323.1C1 327.2-1.3 334.4 .8 340.9C2.9 347.5 9.1 352 16 352c31 0 60.8-10.3 87.3-23.9C136.1 343.6 171.5 352 208 352c114.9 0 208-78.8 208-176S322.9 0 208 0zM448 176.5c100.7 6.8 176 77.8 176 159.5c0 36.1-15.1 68.9-38.9 96.5c-1.9 2.2-2.4 5.3-1.4 8c8 21.5 21.4 41.2 40.2 55.4l.1 .1c-28.8 0-57.3-10.1-83.4-23.9c-2.3-1.2-5-1.2-7.3-.1c-31.7 15.7-65.9 24-101.3 24c-89 0-161-49.7-184.2-114.9c-5.4 .8-10.8 1.4-16.3 1.9C255.8 457.4 336.3 512 432 512c36.5 0 71.9-8.4 104.7-23.9C563.2 501.7 593 512 624 512c6.9 0 13.1-4.5 15.2-11.1c2.1-6.6-.2-13.7-5.7-17.8c-14.7-11.2-25.9-26.6-33.1-43.9C624.3 410.1 640 375.2 640 336c0-92.8-84.9-168.9-192.6-175.5c.4 5.1 .6 10.3 .6 15.5l0 .5z"/></svg>