<svg xmlns="http://www.w3.org/2000/svg" viewBox="0 0 576 512"><!--! Font Awesome Pro 6.6.0 by @fontawesome - https://fontawesome.com License - https://fontawesome.com/license (Commercial License) Copyright 2024 Fonticons, Inc. --><path d="M512 48c26.5 0 48 21.5 48 48l0 320c0 26.5-21.5 48-48 48L64 464c-26.5 0-48-21.5-48-48L16 96c0-26.5 21.5-48 48-48l448 0zM64 32C28.7 32 0 60.7 0 96L0 416c0 35.3 28.7 64 64 64l448 0c35.3 0 64-28.7 64-64l0-320c0-35.3-28.7-64-64-64L64 32zM96 296c0 4.4 3.6 8 8 8l368 0c4.4 0 8-3.6 8-8s-3.6-8-8-8l-368 0c-4.4 0-8 3.6-8 8zm0 64c0 4.4 3.6 8 8 8l80 0c4.4 0 8-3.6 8-8s-3.6-8-8-8l-80 0c-4.4 0-8 3.6-8 8zm136-8c-4.4 0-8 3.6-8 8s3.6 8 8 8l144 0c4.4 0 8-3.6 8-8s-3.6-8-8-8l-144 0zM424 112l48 0c13.3 0 24 10.7 24 24l0 32c0 13.3-10.7 24-24 24l-48 0c-13.3 0-24-10.7-24-24l0-32c0-13.3 10.7-24 24-24zm-40 24l0 32c0 22.1 17.9 40 40 40l48 0c22.1 0 40-17.9 40-40l0-32c0-22.1-17.9-40-40-40l-48 0c-22.1 0-40 17.9-40 40z"/></svg>