<svg xmlns="http://www.w3.org/2000/svg" viewBox="0 0 512 512"><!--! Font Awesome Pro 6.6.0 by @fontawesome - https://fontawesome.com License - https://fontawesome.com/license (Commercial License) Copyright 2024 Fonticons, Inc. --><path d="M509.7 2.3c3.1 3.1 3.1 8.2 0 11.3L351.3 172l36.4 36.4c21.9 21.9 21.9 57.3 0 79.2L175 500.3c-7.5 7.5-17.7 11.7-28.3 11.7L136 512C60.9 512 0 451.1 0 376l0-10.7c0-10.6 4.2-20.8 11.7-28.3L224.4 124.3c21.9-21.9 57.3-21.9 79.2 0L340 160.7 498.3 2.3c3.1-3.1 8.2-3.1 11.3 0zM235.7 135.6L216 155.3 216 272c0 13.3 10.7 24 24 24l116.7 0 19.7-19.7c15.6-15.6 15.6-40.9 0-56.6l-84.1-84.1c-15.6-15.6-40.9-15.6-56.6 0zM200 171.3L23 348.3c-4.5 4.5-7 10.6-7 17L16 376c0 66.3 53.7 120 120 120l10.7 0c6.4 0 12.5-2.5 17-7l177-177L240 312c-22.1 0-40-17.9-40-40l0-100.7zM496 432a64 64 0 1 0 -128 0 64 64 0 1 0 128 0zm-144 0a80 80 0 1 1 160 0 80 80 0 1 1 -160 0z"/></svg>