<svg xmlns="http://www.w3.org/2000/svg" viewBox="0 0 512 512"><!--! Font Awesome Pro 6.6.0 by @fontawesome - https://fontawesome.com License - https://fontawesome.com/license (Commercial License) Copyright 2024 Fonticons, Inc. --><path d="M496 416c0 26.5-21.5 48-48 48L64 464c-26.5 0-48-21.5-48-48l0-64c0-26.5 21.5-48 48-48l384 0c26.5 0 48 21.5 48 48l0 64zm-48 64c35.3 0 64-28.7 64-64l0-64c0-35.3-28.7-64-64-64L64 288c-35.3 0-64 28.7-64 64l0 64c0 35.3 28.7 64 64 64l384 0zM272 160c0 26.5-21.5 48-48 48L64 208c-26.5 0-48-21.5-48-48l0-64c0-26.5 21.5-48 48-48l128 0 32 0c26.5 0 48 21.5 48 48l0 64zm16-64c0-19.1-8.4-36.3-21.7-48L368 48c22.1 0 40 17.9 40 40l0 116.7-50.3-50.3c-3.1-3.1-8.2-3.1-11.3 0s-3.1 8.2 0 11.3l64 64c3.1 3.1 8.2 3.1 11.3 0l64-64c3.1-3.1 3.1-8.2 0-11.3s-8.2-3.1-11.3 0L424 204.7 424 88c0-30.9-25.1-56-56-56L224 32l-32 0L64 32C28.7 32 0 60.7 0 96l0 64c0 35.3 28.7 64 64 64l160 0c35.3 0 64-28.7 64-64l0-64zM72 384c0 4.4 3.6 8 8 8l352 0c4.4 0 8-3.6 8-8s-3.6-8-8-8L80 376c-4.4 0-8 3.6-8 8zm8-264c-4.4 0-8 3.6-8 8s3.6 8 8 8l128 0c4.4 0 8-3.6 8-8s-3.6-8-8-8L80 120z"/></svg>