<svg xmlns="http://www.w3.org/2000/svg" viewBox="0 0 576 512"><!--! Font Awesome Pro 6.6.0 by @fontawesome - https://fontawesome.com License - https://fontawesome.com/license (Commercial License) Copyright 2024 Fonticons, Inc. --><path d="M272 32a16 16 0 1 1 32 0 16 16 0 1 1 -32 0zm48 0a32 32 0 1 0 -64 0 32 32 0 1 0 64 0zM186.2 186.2c54.3-54.3 141.3-56.2 197.8-5.5L282.3 282.3c-3.1 3.1-3.1 8.2 0 11.3s8.2 3.1 11.3 0L395.3 192c50.7 56.5 48.8 143.5-5.5 197.8c-56.2 56.2-147.4 56.2-203.6 0s-56.2-147.4 0-203.6zm215-11.3A160 160 0 1 0 174.9 401.1 160 160 0 1 0 401.1 174.9zM544 272a16 16 0 1 1 0 32 16 16 0 1 1 0-32zm0 48a32 32 0 1 0 0-64 32 32 0 1 0 0 64zM16 288a16 16 0 1 1 32 0 16 16 0 1 1 -32 0zm48 0A32 32 0 1 0 0 288a32 32 0 1 0 64 0zM96 80a16 16 0 1 1 0 32 16 16 0 1 1 0-32zm0 48a32 32 0 1 0 0-64 32 32 0 1 0 0 64zM464 96a16 16 0 1 1 32 0 16 16 0 1 1 -32 0zm48 0a32 32 0 1 0 -64 0 32 32 0 1 0 64 0zM96 464a16 16 0 1 1 0 32 16 16 0 1 1 0-32zm0 48a32 32 0 1 0 0-64 32 32 0 1 0 0 64zm368-32a16 16 0 1 1 32 0 16 16 0 1 1 -32 0zm48 0a32 32 0 1 0 -64 0 32 32 0 1 0 64 0z"/></svg>