<svg xmlns="http://www.w3.org/2000/svg" viewBox="0 0 576 512"><!--! Font Awesome Pro 6.6.0 by @fontawesome - https://fontawesome.com License - https://fontawesome.com/license (Commercial License) Copyright 2024 Fonticons, Inc. --><path d="M272 32a16 16 0 1 1 32 0 16 16 0 1 1 -32 0zm48 0a32 32 0 1 0 -64 0 32 32 0 1 0 64 0zM288 296l143.8 0c-4.2 75.8-66.9 136-143.8 136c-79.5 0-144-64.5-144-144s64.5-144 144-144c76.8 0 139.6 60.2 143.8 136L288 280c-4.4 0-8 3.6-8 8s3.6 8 8 8zm160-8a160 160 0 1 0 -320 0 160 160 0 1 0 320 0zm96-16a16 16 0 1 1 0 32 16 16 0 1 1 0-32zm0 48a32 32 0 1 0 0-64 32 32 0 1 0 0 64zM16 288a16 16 0 1 1 32 0 16 16 0 1 1 -32 0zm48 0A32 32 0 1 0 0 288a32 32 0 1 0 64 0zM96 80a16 16 0 1 1 0 32 16 16 0 1 1 0-32zm0 48a32 32 0 1 0 0-64 32 32 0 1 0 0 64zM464 96a16 16 0 1 1 32 0 16 16 0 1 1 -32 0zm48 0a32 32 0 1 0 -64 0 32 32 0 1 0 64 0zM96 464a16 16 0 1 1 0 32 16 16 0 1 1 0-32zm0 48a32 32 0 1 0 0-64 32 32 0 1 0 0 64zm368-32a16 16 0 1 1 32 0 16 16 0 1 1 -32 0zm48 0a32 32 0 1 0 -64 0 32 32 0 1 0 64 0z"/></svg>