<svg xmlns="http://www.w3.org/2000/svg" viewBox="0 0 448 512"><!--! Font Awesome Pro 6.6.0 by @fontawesome - https://fontawesome.com License - https://fontawesome.com/license (Commercial License) Copyright 2024 Fonticons, Inc. --><path d="M216 460.7c2.1 2.1 5 3.3 8 3.3s5.9-1.2 8-3.3L363.8 328.6c2.7-2.7 4.2-6.4 4.2-10.2c0-8-6.5-14.4-14.4-14.4L280 304c-4.4 0-8-3.6-8-8l0-136c0-8.8-7.2-16-16-16l-64 0c-8.8 0-16 7.2-16 16l0 136c0 4.4-3.6 8-8 8l-73.6 0c-8 0-14.4 6.5-14.4 14.4c0 3.8 1.5 7.5 4.2 10.2L216 460.7zm8 19.3c-7.2 0-14.2-2.9-19.3-8L72.9 339.9c-5.7-5.7-8.9-13.4-8.9-21.5C64 301.6 77.6 288 94.4 288l65.6 0 0-128c0-17.7 14.3-32 32-32l64 0c17.7 0 32 14.3 32 32l0 128 65.6 0c16.8 0 30.4 13.6 30.4 30.4c0 8.1-3.2 15.8-8.9 21.5L243.3 472c-5.1 5.1-12.1 8-19.3 8zM32 64a16 16 0 1 1 0-32 16 16 0 1 1 0 32zm96 0a16 16 0 1 1 0-32 16 16 0 1 1 0 32zm80-16a16 16 0 1 1 32 0 16 16 0 1 1 -32 0zM320 64a16 16 0 1 1 0-32 16 16 0 1 1 0 32zm80-16a16 16 0 1 1 32 0 16 16 0 1 1 -32 0z"/></svg>