<svg xmlns="http://www.w3.org/2000/svg" viewBox="0 0 512 512"><!--! Font Awesome Pro 6.6.0 by @fontawesome - https://fontawesome.com License - https://fontawesome.com/license (Commercial License) Copyright 2024 Fonticons, Inc. --><path d="M365 4.1c2.1-3.9 7-5.3 10.9-3.1C457.1 46 512 132.6 512 232c0 4.4-3.6 8-8 8s-8-3.6-8-8c0-93.4-51.6-174.7-127.8-217c-3.9-2.1-5.3-7-3.1-10.9zM160 336a16 16 0 1 0 0 32 16 16 0 1 0 0-32zm32 16a32 32 0 1 1 -64 0 32 32 0 1 1 64 0zM32 464a16 16 0 1 0 0 32 16 16 0 1 0 0-32zm32 16A32 32 0 1 1 0 480a32 32 0 1 1 64 0zm69.7-37.7c3.1 3.1 3.1 8.2 0 11.3s-8.2 3.1-11.3 0l-64-64c-3.1-3.1-3.1-8.2 0-11.3s8.2-3.1 11.3 0l64 64zM240 80C151.6 80 80 150.9 80 238.2c0 4.4-3.6 8-8 8s-8-3.6-8-8C64 141.9 142.9 64 240 64s176 77.9 176 174.2c0 51-22.2 96.8-57.4 128.7c-6.1 5.6-9.8 12.9-9.8 20.4l0 4.8c0 66.3-53.7 120-120 120l-22.4 0c-4.4 0-8-3.6-8-8s3.6-8 8-8l22.4 0c57.4 0 104-46.6 104-104l0-4.8c0-12.8 6.2-24.2 15.1-32.2C379.9 326 400 284.4 400 238.2C400 150.9 328.4 80 240 80zm0 64c-53 0-96 43-96 96c0 4.4-3.6 8-8 8s-8-3.6-8-8c0-61.9 50.1-112 112-112s112 50.1 112 112c0 4.4-3.6 8-8 8s-8-3.6-8-8c0-53-43-96-96-96z"/></svg>