<svg xmlns="http://www.w3.org/2000/svg" viewBox="0 0 512 512"><!--! Font Awesome Pro 6.6.0 by @fontawesome - https://fontawesome.com License - https://fontawesome.com/license (Commercial License) Copyright 2024 Fonticons, Inc. --><path d="M301.9 2.6L368 76 434.1 2.6c3-3.3 8-3.6 11.3-.6s3.6 8 .6 11.3l-72 80C372.4 95 370.3 96 368 96s-4.4-1-5.9-2.6l-72-80c-3-3.3-2.7-8.3 .6-11.3s8.3-2.7 11.3 .6zm-152 0l72 80c3 3.3 2.7 8.3-.6 11.3s-8.3 2.7-11.3-.6L144 20 77.9 93.4c-3 3.3-8 3.6-11.3 .6s-3.6-8-.6-11.3l72-80C139.6 1 141.7 0 144 0s4.4 1 5.9 2.6zM64 144c-26.5 0-48 21.5-48 48l0 256c0 26.5 21.5 48 48 48l384 0c26.5 0 48-21.5 48-48l0-256c0-26.5-21.5-48-48-48L64 144zM0 192c0-35.3 28.7-64 64-64l384 0c35.3 0 64 28.7 64 64l0 256c0 35.3-28.7 64-64 64L64 512c-35.3 0-64-28.7-64-64L0 192zm200 72a40 40 0 1 0 -80 0 40 40 0 1 0 80 0zm-96 0a56 56 0 1 1 112 0 56 56 0 1 1 -112 0zm248 40a40 40 0 1 0 0-80 40 40 0 1 0 0 80zm0-96a56 56 0 1 1 0 112 56 56 0 1 1 0-112zM136 368c-22.1 0-40 17.9-40 40l0 32c0 4.4-3.6 8-8 8s-8-3.6-8-8l0-32c0-30.9 25.1-56 56-56l48 0c30.9 0 56 25.1 56 56l0 32c0 4.4-3.6 8-8 8s-8-3.6-8-8l0-32c0-22.1-17.9-40-40-40l-48 0zm152 40l0 32c0 4.4-3.6 8-8 8s-8-3.6-8-8l0-32c0-30.9 25.1-56 56-56l48 0c30.9 0 56 25.1 56 56l0 32c0 4.4-3.6 8-8 8s-8-3.6-8-8l0-32c0-22.1-17.9-40-40-40l-48 0c-22.1 0-40 17.9-40 40z"/></svg>