<svg xmlns="http://www.w3.org/2000/svg" viewBox="0 0 640 512"><!--! Font Awesome Pro 6.6.0 by @fontawesome - https://fontawesome.com License - https://fontawesome.com/license (Commercial License) Copyright 2024 Fonticons, Inc. --><path d="M416 72c0 4.4-3.6 8-8 8l-96 0 0 48 24 0 60.6 0c12.6 0 25 3.7 35.5 10.7L483.5 173c17.8 11.9 28.5 31.9 28.5 53.3L512 384c0 35.3-28.7 64-64 64l-168.8 0c-15 0-29.5-5.2-41-14.8l-59-49.2L112 384c-26.5 0-48-21.5-48-48l0-72-48 0 0 80c0 4.4-3.6 8-8 8s-8-3.6-8-8L0 168c0-4.4 3.6-8 8-8s8 3.6 8 8l0 80 48 0 0-72c0-26.5 21.5-48 48-48l48 0 136 0 0-48-96 0c-4.4 0-8-3.6-8-8s3.6-8 8-8l104 0 104 0c4.4 0 8 3.6 8 8zM80 248l0 16 0 72c0 17.7 14.3 32 32 32l67.2 0c3.7 0 7.4 1.3 10.2 3.7l59 49.2c8.6 7.2 19.5 11.1 30.7 11.1L448 432c26.5 0 48-21.5 48-48l0-157.7c0-16-8-31-21.4-39.9l-51.4-34.3c-7.9-5.3-17.1-8.1-26.6-8.1L336 144l-32 0-144 0-48 0c-17.7 0-32 14.3-32 32l0 72zm176 8a32 32 0 1 1 64 0 32 32 0 1 1 -64 0zm32 16a16 16 0 1 0 0-32 16 16 0 1 0 0 32zm96-48a32 32 0 1 1 0 64 32 32 0 1 1 0-64zm16 32a16 16 0 1 0 -32 0 16 16 0 1 0 32 0zm-240 0a32 32 0 1 1 64 0 32 32 0 1 1 -64 0zm32 16a16 16 0 1 0 0-32 16 16 0 1 0 0 32zm384-64c-8.8 0-16 7.2-16 16l0 192c0 8.8 7.2 16 16 16l32 0c8.8 0 16-7.2 16-16l0-192c0-8.8-7.2-16-16-16l-32 0zm-32 16c0-17.7 14.3-32 32-32l32 0c17.7 0 32 14.3 32 32l0 192c0 17.7-14.3 32-32 32l-32 0c-17.7 0-32-14.3-32-32l0-192z"/></svg>