<svg xmlns="http://www.w3.org/2000/svg" viewBox="0 0 576 512"><!--! Font Awesome Pro 6.6.0 by @fontawesome - https://fontawesome.com License - https://fontawesome.com/license (Commercial License) Copyright 2024 Fonticons, Inc. --><path d="M106.3 124.3C151.4 82.4 212.4 48 288 48s136.6 34.4 181.7 76.3c44.9 41.7 75 91.7 89.1 125.6c1.6 3.9 1.6 8.4 0 12.3C544.7 296 514.6 346 469.7 387.7C424.6 429.6 363.6 464 288 464s-136.6-34.4-181.7-76.3C61.4 346 31.3 296 17.2 262.2c-1.6-3.9-1.6-8.4 0-12.3C31.3 216 61.4 166 106.3 124.3zM288 32c-80.8 0-145.5 36.8-192.6 80.6C48.6 156 17.3 208 2.5 243.7c-3.3 7.9-3.3 16.7 0 24.6C17.3 304 48.6 356 95.4 399.4C142.5 443.2 207.2 480 288 480s145.5-36.8 192.6-80.6c46.8-43.5 78.1-95.4 93-131.1c3.3-7.9 3.3-16.7 0-24.6c-14.9-35.7-46.2-87.7-93-131.1C433.5 68.8 368.8 32 288 32zM192 256a96 96 0 1 1 192 0 96 96 0 1 1 -192 0zm208 0a112 112 0 1 0 -224 0 112 112 0 1 0 224 0z"/></svg>