<svg xmlns="http://www.w3.org/2000/svg" viewBox="0 0 576 512"><!--! Font Awesome Pro 6.6.0 by @fontawesome - https://fontawesome.com License - https://fontawesome.com/license (Commercial License) Copyright 2024 Fonticons, Inc. --><path d="M288 16C166 16 65.2 107.1 50 225c-.6 4.4-4.6 7.5-9 6.9s-7.5-4.6-6.9-9C50.3 97.2 157.8 0 288 0C429.4 0 544 114.6 544 256s-114.6 256-256 256c-70.4 0-134.1-28.4-180.4-74.3c-3.1-3.1-3.2-8.2 0-11.3s8.2-3.2 11.3 0C162.3 469.4 222 496 288 496c132.5 0 240-107.5 240-240S420.5 16 288 16zm77.4 397.9c-3.3 3-8.3 2.7-11.3-.6C341.3 399.1 319.3 384 288 384s-53.3 15.1-66.1 29.4c-3 3.3-8 3.6-11.3 .6s-3.6-8-.6-11.3C225.1 386 251.1 368 288 368s62.9 18 77.9 34.6c3 3.3 2.7 8.3-.6 11.3zM197.7 173.7l-7.4 7.4c-22.4 22.4-51.2 37.2-82.5 42.5l-2.5 .4c-4.4 .7-8.5-2.2-9.2-6.6s2.2-8.5 6.6-9.2l2.5-.4c28-4.7 53.8-17.9 73.8-38l7.4-7.4c3.1-3.1 8.2-3.1 11.3 0s3.1 8.2 0 11.3zm180.7-11.3c3.1-3.1 8.2-3.1 11.3 0l7.4 7.4c20 20 45.8 33.3 73.8 38l2.5 .4c4.4 .7 7.3 4.8 6.6 9.2s-4.8 7.3-9.2 6.6l-2.5-.4c-31.3-5.2-60.1-20.1-82.5-42.5l-7.4-7.4c-3.1-3.1-3.1-8.2 0-11.3zM93.3 316c-9.6-15.2-20.9-30.3-29.3-40.9c-8.4 10.7-19.7 25.7-29.3 40.9c-5.6 8.9-10.5 17.5-13.9 25.1c-3.6 8-4.8 13.3-4.8 16.1C16 379.6 36.2 400 64 400s48-20.4 48-42.7c0-2.8-1.2-8.2-4.8-16.2c-3.4-7.6-8.2-16.2-13.9-25.1zM72.5 260.1c17.6 21.7 55.5 72.2 55.5 97.2c0 32.5-28.7 58.7-64 58.7s-64-26.2-64-58.7c0-25 38.1-75.5 55.5-97.2c4.3-5.5 12.8-5.5 17.1 0zM383.6 272a16 16 0 1 1 -32 0 16 16 0 1 1 32 0zm-176-16a16 16 0 1 1 0 32 16 16 0 1 1 0-32z"/></svg>