<svg xmlns="http://www.w3.org/2000/svg" viewBox="0 0 512 512"><!--! Font Awesome Pro 6.6.0 by @fontawesome - https://fontawesome.com License - https://fontawesome.com/license (Commercial License) Copyright 2024 Fonticons, Inc. --><path d="M496 256A240 240 0 1 0 16 256a240 240 0 1 0 480 0zM0 256a256 256 0 1 1 512 0A256 256 0 1 1 0 256zM198.7 116.4c-26.8 40.2-66.8 61.4-84.1 67.2c-4.2 1.4-8.7-.9-10.1-5.1s.9-8.7 5.1-10.1c14.7-4.9 51.5-24.2 75.9-60.8c2.5-3.7 7.4-4.7 11.1-2.2s4.7 7.4 2.2 11.1zm11.3 115.3l-64 16c-4.3 1.1-8.6-1.5-9.7-5.8s1.5-8.6 5.8-9.7l64-16c4.3-1.1 8.6 1.5 9.7 5.8s-1.5 8.6-5.8 9.7zM405.7 341.7l-39.3 39.3c-12.2 12.2-28.7 19.1-46 19.1c-12.2 0-24.1-3.4-34.5-9.9l-14.2-8.9c-20.4-12.7-45.6-15-67.9-6.1c-27.9 11.2-59.6 7.9-84.6-8.8l-11.5-7.7c-3.7-2.5-4.7-7.4-2.2-11.1s7.4-4.7 11.1-2.2l11.5 7.7c20.7 13.8 46.8 16.5 69.8 7.3c27.1-10.8 57.7-8.1 82.4 7.4l14.2 8.9c7.8 4.9 16.8 7.5 26 7.5c13 0 25.5-5.2 34.7-14.4l39.3-39.3c3.1-3.1 8.2-3.1 11.3 0s3.1 8.2 0 11.3zM320.5 166.3c-5.1 10.3-8.5 25-8.5 41.7s3.4 31.4 8.5 41.7c5.4 10.7 11.3 14.3 15.5 14.3s10.1-3.6 15.5-14.3c5.1-10.3 8.5-25 8.5-41.7s-3.4-31.4-8.5-41.7C346.1 155.6 340.2 152 336 152s-10.1 3.6-15.5 14.3zm-14.3-7.2c6.2-12.4 16.3-23.2 29.8-23.2s23.6 10.7 29.8 23.2c6.5 12.9 10.2 30.2 10.2 48.8s-3.8 35.9-10.2 48.8C359.6 269.3 349.5 280 336 280s-23.6-10.7-29.8-23.2C299.8 243.9 296 226.6 296 208s3.8-35.9 10.2-48.8z"/></svg>