<svg xmlns="http://www.w3.org/2000/svg" viewBox="0 0 512 512"><!--! Font Awesome Pro 6.6.0 by @fontawesome - https://fontawesome.com License - https://fontawesome.com/license (Commercial License) Copyright 2024 Fonticons, Inc. --><path d="M496 256A240 240 0 1 0 16 256a240 240 0 1 0 480 0zM0 256a256 256 0 1 1 512 0A256 256 0 1 1 0 256zm256.3 91.8c-43 0-84.1-5.5-121.5-15.4c-3.9-1-7.1 .3-8.7 1.8c-.7 .7-.9 1.2-.9 1.4c0 0 0 0 0 0c0 .1-.1 .7 .5 1.9c25 46.8 74.1 78.5 130.5 78.5s105.5-31.7 130.5-78.5c.7-1.2 .6-1.8 .5-1.9c0 0 0 0 0 0c0-.2-.2-.7-.9-1.4c-1.6-1.5-4.8-2.8-8.7-1.8c-37.4 9.9-78.4 15.4-121.5 15.4zm144.6-2.7C373.2 396.8 318.8 432 256.3 432s-116.9-35.2-144.6-86.9c-9.1-17 8.7-33.1 27.3-28.2c36 9.6 75.6 14.9 117.3 14.9s81.4-5.3 117.3-14.9c18.6-4.9 36.4 11.2 27.3 28.2zM197.2 136.9c-13.5-3.6-27.4 4.4-31.1 17.9l-4.3 16.1c-1.1 4.3-5.5 6.8-9.8 5.7l-16.1-4.3c-13.5-3.6-27.4 4.4-31.1 17.9s4.4 27.4 17.9 31.1l65.1 17.4c4.3 1.1 8.7-1.4 9.8-5.7l17.4-65c3.6-13.5-4.4-27.4-17.9-31.1zm-46.5 13.8c5.9-22.1 28.6-35.2 50.6-29.2s35.2 28.6 29.2 50.6l-17.4 65c-3.4 12.8-16.6 20.4-29.4 17l-65.1-17.4C96.6 230.7 83.5 208 89.4 186s28.6-35.2 50.6-29.2l8.4 2.2 2.2-8.3zm210.6 0l2.2 8.3 8.4-2.2c22.1-5.9 44.7 7.2 50.6 29.2s-7.2 44.7-29.2 50.6l-65.1 17.4c-12.8 3.4-26-4.2-29.4-17l-17.4-65c-5.9-22.1 7.2-44.7 29.2-50.6s44.7 7.2 50.6 29.2zm-46.5-13.8c-13.5 3.6-21.6 17.5-17.9 31.1l17.4 65c1.1 4.3 5.5 6.8 9.8 5.7l65.1-17.4c13.5-3.6 21.6-17.5 17.9-31.1s-17.5-21.6-31.1-17.9L360 176.5c-4.3 1.1-8.7-1.4-9.8-5.7l-4.3-16.1c-3.6-13.5-17.5-21.6-31.1-17.9z"/></svg>