<svg xmlns="http://www.w3.org/2000/svg" viewBox="0 0 640 512"><!--! Font Awesome Pro 6.6.0 by @fontawesome - https://fontawesome.com License - https://fontawesome.com/license (Commercial License) Copyright 2024 Fonticons, Inc. --><path d="M320 16a240 240 0 1 1 0 480 240 240 0 1 1 0-480zm0 496c141.4 0 256-114.6 256-256c0-27.9-4.5-54.8-12.7-79.9C616.4 111.7 634 38.9 639.8 9.6c.6-3.2-.7-6.4-3.4-8.2s-6.2-1.8-8.9 0C607.3 14.9 577.1 26.5 547 35.4c-27.3 8.2-53.8 14-71.6 17.2C432.4 19.6 378.5 0 320 0S207.6 19.6 164.5 52.6c-17.7-3.2-44.3-9-71.6-17.2c-30-9-60.2-20.6-80.5-34.1C9.7-.5 6.2-.4 3.5 1.4S-.5 6.4 .2 9.6C6 38.9 23.6 111.7 76.7 176.1C68.5 201.2 64 228.1 64 256c0 141.4 114.6 256 256 256zM556.8 158.6c-14.7-35.7-37.2-67.3-65.4-92.7c17-3.5 38.4-8.5 60.2-15.1c23.6-7.1 48.3-16 68.6-26.6c-8 32.4-25.5 85.4-63.4 134.4zM88.4 50.8c21.8 6.5 43.2 11.6 60.2 15.1c-28.2 25.4-50.7 57.1-65.4 92.7C45.3 109.6 27.8 56.6 19.8 24.2C40.1 34.8 64.7 43.7 88.4 50.8zm115 302.7c-3.6 2.5-4.5 7.5-2 11.1c22.4 32 61.9 67.4 118.6 67.4s96.1-35.4 118.6-67.4c2.5-3.6 1.7-8.6-2-11.1s-8.6-1.7-11.1 2C404.6 385.2 369.4 416 320 416s-84.6-30.8-105.4-60.6c-2.5-3.6-7.5-4.5-11.1-2zm37-65.4a16 16 0 1 0 0-32 16 16 0 1 0 0 32zm176-16a16 16 0 1 0 -32 0 16 16 0 1 0 32 0zM194.5 200.4c-4.2-1.4-8.7 .9-10.1 5.1s.9 8.7 5.1 10.1l96 32c4.2 1.4 8.7-.9 10.1-5.1s-.9-8.7-5.1-10.1l-96-32zm256 15.2c4.2-1.4 6.5-5.9 5.1-10.1s-5.9-6.5-10.1-5.1l-96 32c-4.2 1.4-6.5 5.9-5.1 10.1s5.9 6.5 10.1 5.1l96-32z"/></svg>