<svg xmlns="http://www.w3.org/2000/svg" viewBox="0 0 576 512"><!--! Font Awesome Pro 6.6.0 by @fontawesome - https://fontawesome.com License - https://fontawesome.com/license (Commercial License) Copyright 2024 Fonticons, Inc. --><path d="M288 16C155.5 16 48 123.5 48 256s107.5 240 240 240c116.6 0 213.9-83.2 235.5-193.5c.9-4.3 5.1-7.2 9.4-6.3s7.2 5.1 6.3 9.4C516.1 423.2 412.4 512 288 512C146.6 512 32 397.4 32 256S146.6 0 288 0c93 0 174.5 49.7 219.3 123.9c2.3 3.8 1.1 8.7-2.7 11s-8.7 1.1-11-2.7C451.6 62.5 375.2 16 288 16zM404.6 398.6c-3.6 2.5-8.6 1.7-11.1-2C372.6 366.8 337.4 336 288 336s-84.6 30.8-105.4 60.6c-2.5 3.6-7.5 4.5-11.1 2s-4.5-7.5-2-11.1c22.4-32 61.9-67.4 118.6-67.4c16.7 0 31.9 3.1 45.6 8.2l148.9-143c16.4-15.8 42.5-15.5 58.6 .6c16.6 16.6 16.3 43.7-.7 59.9L400.5 379.3c2.1 2.7 4.1 5.4 6 8.1c2.5 3.6 1.7 8.6-2 11.1zm-55.3-63.2c16 8.5 29.7 19.8 40.8 31.8l15.2-14.5-11-11c-3.1-3.1-3.1-8.2 0-11.3s8.2-3.1 11.3 0l11.2 11.2L438 321.4l-11.7-11.7c-3.1-3.1-3.1-8.2 0-11.3s8.2-3.1 11.3 0l12 12 21.2-20.2-12.4-12.4c-3.1-3.1-3.1-8.2 0-11.3s8.2-3.1 11.3 0l12.7 12.7 21.2-20.2-13.2-13.2c-3.1-3.1-3.1-8.2 0-11.3s8.2-3.1 11.3 0l13.4 13.5 14.3-13.6c10.5-10 10.7-26.8 .4-37c-10-10-26.1-10.1-36.2-.4L349.3 335.3zM192.4 208a16 16 0 1 1 32 0 16 16 0 1 1 -32 0zm176-16a16 16 0 1 1 0 32 16 16 0 1 1 0-32z"/></svg>