<svg xmlns="http://www.w3.org/2000/svg" viewBox="0 0 512 512"><!--! Font Awesome Pro 6.6.0 by @fontawesome - https://fontawesome.com License - https://fontawesome.com/license (Commercial License) Copyright 2024 Fonticons, Inc. --><path d="M496 256c0 132.5-107.5 240-240 240S16 388.5 16 256c0-19.3 2.3-38 6.6-56l57.8 0c-.2 2.6-.4 5.3-.4 8c0 48.6 39.4 88 88 88c7 0 13.7-.8 20.2-2.3L186 298l-15.3 7.7C159.3 311.4 152 323.2 152 336s7.3 24.6 18.7 30.3l8.8 4.4L153.8 403c-2.8 3.4-2.2 8.5 1.2 11.2s8.5 2.2 11.2-1.2l28-35 19.6 9.8L200.6 421c-1.6 4.1 .4 8.8 4.5 10.4s8.8-.4 10.4-4.5l12.8-32.1c6.4 2.7 13 4.4 19.7 5.1l0 32c0 4.4 3.6 8 8 8s8-3.6 8-8l0-32c6.7-.8 13.4-2.5 19.7-5.1L296.6 427c1.6 4.1 6.3 6.1 10.4 4.5s6.1-6.3 4.5-10.4l-13.3-33.2 19.6-9.8 28 35c2.8 3.4 7.8 4 11.2 1.2s4-7.8 1.2-11.2l-25.8-32.3 8.8-4.4c11.5-5.7 18.7-17.5 18.7-30.3s-7.3-24.6-18.7-30.3L326 298l-2.2-4.4c6.5 1.5 13.3 2.3 20.2 2.3c48.6 0 88-39.4 88-88c0-2.7-.1-5.4-.4-8l57.8 0c4.3 18 6.6 36.7 6.6 56zM225.7 218.7l-27.3 54.7c-.3 .1-.7 .2-1 .4c-8.9 4-18.9 6.2-29.3 6.2c-39.8 0-72-32.2-72-72s32.2-72 72-72c38.4 0 69.9 30.1 71.9 68.1c-6 3.3-11 8.3-14.2 14.7zm-17.6-89.1l7-14.1c2-4 .4-8.8-3.6-10.7s-8.8-.4-10.7 3.6l-7.6 15.2c-8-2.4-16.5-3.7-25.2-3.7l0-24c0-4.4-3.6-8-8-8s-8 3.6-8 8l0 25.5c-9.2 1.7-17.8 4.8-25.8 9.1l-7.1-14.1c-2-4-6.8-5.6-10.7-3.6s-5.6 6.8-3.6 10.7l7.9 15.9c-14 11.3-24.5 26.8-29.5 44.5L27 184C57.6 86.6 148.5 16 256 16s198.4 70.6 229 168l-56.3 0c-5-17.8-15.5-33.2-29.5-44.5l7.9-15.9c2-4 .4-8.8-3.6-10.7s-8.8-.4-10.7 3.6l-7.1 14.1c-7.9-4.3-16.6-7.4-25.8-9.1L360 96c0-4.4-3.6-8-8-8s-8 3.6-8 8l0 24c-8.8 0-17.2 1.3-25.2 3.7l-7.6-15.2c-2-4-6.8-5.6-10.7-3.6s-5.6 6.8-3.6 10.7l7 14.1c-26.2 13.4-44.8 39.6-47.5 70.3l-.4 0-.4 0c-2.8-30.7-21.3-56.9-47.5-70.3zM344 136c39.8 0 72 32.2 72 72s-32.2 72-72 72c-10.5 0-20.4-2.2-29.3-6.2c-.3-.2-.7-.3-1-.4l-27.3-54.7c-3.2-6.4-8.2-11.4-14.2-14.7c2-37.9 33.4-68.1 71.9-68.1zm158.8 51.8C473 79.5 373.8 0 256 0S39 79.5 9.2 187.8C8.4 189 8 190.5 8 192l0 .2C2.8 212.6 0 234 0 256C0 397.4 114.6 512 256 512s256-114.6 256-256c0-22-2.8-43.4-8-63.8l0-.2c0-1.5-.4-3-1.2-4.2zM256 216c6.8 0 13 3.8 16 9.9l40.8 81.7L314 310l2.4 1.2 17.7 8.8c6.1 3 9.9 9.2 9.9 16s-3.8 13-9.9 16L281 378.5c-15.8 7.9-34.3 7.9-50.1 0L177.9 352c-6.1-3-9.9-9.2-9.9-16s3.8-13 9.9-16l17.7-8.8L198 310l1.2-2.4L240 225.9c3-6.1 9.2-9.9 16-9.9zm-64-8a16 16 0 1 0 -32 0 16 16 0 1 0 32 0zm144 16a16 16 0 1 0 0-32 16 16 0 1 0 0 32z"/></svg>