<svg xmlns="http://www.w3.org/2000/svg" viewBox="0 0 512 512"><!--! Font Awesome Pro 6.6.0 by @fontawesome - https://fontawesome.com License - https://fontawesome.com/license (Commercial License) Copyright 2024 Fonticons, Inc. --><path d="M496 256A240 240 0 1 1 16 256a240 240 0 1 1 480 0zM256 0a256 256 0 1 0 0 512A256 256 0 1 0 256 0zM176.4 224a16 16 0 1 0 0-32 16 16 0 1 0 0 32zm176-16a16 16 0 1 0 -32 0 16 16 0 1 0 32 0zM168 344c-4.4 0-8 3.6-8 8s3.6 8 8 8l176 0c4.4 0 8-3.6 8-8s-3.6-8-8-8l-176 0z"/></svg>