<svg xmlns="http://www.w3.org/2000/svg" viewBox="0 0 512 512"><!--! Font Awesome Pro 6.6.0 by @fontawesome - https://fontawesome.com License - https://fontawesome.com/license (Commercial License) Copyright 2024 Fonticons, Inc. --><path d="M496 256A240 240 0 1 0 16 256a240 240 0 1 0 480 0zM0 256a256 256 0 1 1 512 0A256 256 0 1 1 0 256zm256.3 91.8c-43 0-84.1-5.5-121.5-15.4c-3.9-1-7.1 .3-8.7 1.8c-.7 .7-.9 1.2-.9 1.4c0 0 0 0 0 0c0 .1-.1 .7 .5 1.9c25 46.8 74.1 78.5 130.5 78.5s105.5-31.7 130.5-78.5c.7-1.2 .6-1.8 .5-1.9c0 0 0 0 0 0c0-.2-.2-.7-.9-1.4c-1.6-1.5-4.8-2.8-8.7-1.8c-37.4 9.9-78.4 15.4-121.5 15.4zm144.6-2.7C373.2 396.8 318.8 432 256.3 432s-116.9-35.2-144.6-86.9c-9.1-17 8.7-33.1 27.3-28.2c36 9.6 75.6 14.9 117.3 14.9s81.4-5.3 117.3-14.9c18.6-4.9 36.4 11.2 27.3 28.2zM160.4 208a16 16 0 1 1 32 0 16 16 0 1 1 -32 0zm134.2 19.9c-2.2 3.9-7 5.2-10.9 3.1s-5.2-7-3.1-10.9c13.1-23.4 33.6-36.1 55-36.1s41.8 12.7 55 36.1c2.2 3.9 .8 8.7-3.1 10.9s-8.7 .8-10.9-3.1c-10.9-19.3-26.4-27.9-41-27.9s-30.2 8.6-41 27.9z"/></svg>