<svg xmlns="http://www.w3.org/2000/svg" viewBox="0 0 512 512"><!--! Font Awesome Pro 6.6.0 by @fontawesome - https://fontawesome.com License - https://fontawesome.com/license (Commercial License) Copyright 2024 Fonticons, Inc. --><path d="M16 256C16 123.5 123.5 16 256 16c35.4 0 69.1 7.7 99.3 21.4c4 1.8 8.8 .1 10.6-4s.1-8.8-4-10.6C329.6 8.2 293.8 0 256 0C114.6 0 0 114.6 0 256S114.6 512 256 512s256-114.6 256-256c0-37.8-8.2-73.6-22.9-105.9c-1.8-4-6.6-5.8-10.6-4s-5.8 6.6-4 10.6C488.3 186.9 496 220.6 496 256c0 132.5-107.5 240-240 240S16 388.5 16 256zM224 384a32 32 0 1 1 64 0 32 32 0 1 1 -64 0zm80 0a48 48 0 1 0 -96 0 48 48 0 1 0 96 0zM424 16l60.7 0L418.3 82.3c-2.3 2.3-3 5.7-1.7 8.7s4.2 4.9 7.4 4.9l80 0c4.4 0 8-3.6 8-8s-3.6-8-8-8l-60.7 0 66.3-66.3c2.3-2.3 3-5.7 1.7-8.7s-4.2-4.9-7.4-4.9L424 0c-4.4 0-8 3.6-8 8s3.6 8 8 8zM288 104c0 4.4 3.6 8 8 8l60.7 0-66.3 66.3c-2.3 2.3-3 5.7-1.7 8.7s4.2 4.9 7.4 4.9l80 0c4.4 0 8-3.6 8-8s-3.6-8-8-8l-60.7 0 66.3-66.3c2.3-2.3 3-5.7 1.7-8.7s-4.2-4.9-7.4-4.9l-80 0c-4.4 0-8 3.6-8 8zm63.6 168c-14.6 0-30.2-8.6-41-27.9c-2.2-3.9-7-5.2-10.9-3.1s-5.2 7-3.1 10.9c13.1 23.4 33.6 36.1 55 36.1s41.8-12.7 55-36.1c2.2-3.9 .8-8.7-3.1-10.9s-8.7-.8-10.9 3.1c-10.9 19.3-26.4 27.9-41 27.9zm-233-27.9c-2.2-3.9-7-5.2-10.9-3.1s-5.2 7-3.1 10.9c13.1 23.4 33.6 36.1 55 36.1s41.8-12.7 55-36.1c2.2-3.9 .8-8.7-3.1-10.9s-8.7-.8-10.9 3.1c-10.9 19.3-26.4 27.9-41 27.9s-30.2-8.6-41-27.9z"/></svg>