<svg xmlns="http://www.w3.org/2000/svg" viewBox="0 0 512 512"><!--! Font Awesome Pro 6.6.0 by @fontawesome - https://fontawesome.com License - https://fontawesome.com/license (Commercial License) Copyright 2024 Fonticons, Inc. --><path d="M176 64A48 48 0 1 0 80 64a48 48 0 1 0 96 0zM64 64a64 64 0 1 1 128 0A64 64 0 1 1 64 64zm2.1 146.8L27 347.6C24.1 357.8 31.8 368 42.4 368L64 368l48 0 32 0 16 0 0 16-8 0 0 96c0 8.8 7.2 16 16 16c2.9 0 5.6-.8 8-2.1l0 17.1c-2.6 .7-5.2 1-8 1c-17.7 0-32-14.3-32-32l0-96-16 0 0 96c0 17.7-14.3 32-32 32s-32-14.3-32-32l0-96-13.6 0c-21.3 0-36.6-20.3-30.8-40.8L50.7 206.4c7.8-27.5 33-46.4 61.5-46.4l31.4 0c9.3 0 18.1 2 26.2 5.6c-1.2 5.5-1.8 11.2-1.9 17c-7.2-4.2-15.5-6.6-24.3-6.6l-31.4 0c-21.4 0-40.3 14.2-46.2 34.8zM344 512c-2.8 0-5.4-.3-8-1l0-17.1c2.4 1.4 5.1 2.1 8 2.1c8.8 0 16-7.2 16-16l0-96-8 0 0-16 16 0 32 0 48 0 21.6 0c10.6 0 18.3-10.2 15.4-20.4L445.9 210.8C440 190.2 421.2 176 399.7 176l-31.4 0c-8.8 0-17.1 2.4-24.3 6.6c-.1-5.8-.7-11.5-1.9-17c8.1-3.6 17-5.6 26.2-5.6l31.4 0c28.6 0 53.7 18.9 61.5 46.4l39.1 136.8c5.8 20.4-9.5 40.8-30.8 40.8L456 384l0 96c0 17.7-14.3 32-32 32s-32-14.3-32-32l0-96-16 0 0 96c0 17.7-14.3 32-32 32zM72 384l0 96c0 8.8 7.2 16 16 16s16-7.2 16-16l0-96-32 0zM432 64a48 48 0 1 0 -96 0 48 48 0 1 0 96 0zM320 64a64 64 0 1 1 128 0A64 64 0 1 1 320 64zM440 384l-32 0 0 96c0 8.8 7.2 16 16 16s16-7.2 16-16l0-96zM296 184a40 40 0 1 0 -80 0 40 40 0 1 0 80 0zm-96 0a56 56 0 1 1 112 0 56 56 0 1 1 -112 0zM320 336c0-35.3-28.7-64-64-64s-64 28.7-64 64l0 32c0 17.7 14.3 32 32 32l64 0c17.7 0 32-14.3 32-32l0-32zm-144 0c0-44.2 35.8-80 80-80s80 35.8 80 80l0 32c0 20.9-13.4 38.7-32 45.3l0 90.7c0 4.4-3.6 8-8 8s-8-3.6-8-8l0-88-64 0 0 88c0 4.4-3.6 8-8 8s-8-3.6-8-8l0-90.7c-18.6-6.6-32-24.4-32-45.3l0-32z"/></svg>