<svg xmlns="http://www.w3.org/2000/svg" viewBox="0 0 512 512"><!--! Font Awesome Pro 6.6.0 by @fontawesome - https://fontawesome.com License - https://fontawesome.com/license (Commercial License) Copyright 2024 Fonticons, Inc. --><path d="M72 32c2.5 0 4.9 1.2 6.4 3.2l44.8 59.7c3.1 4.2 4.8 9.2 4.8 14.4l0 50.7 72 0 0-50.7c0-5.2 1.7-10.2 4.8-14.4l44.8-59.7c1.5-2 3.9-3.2 6.4-3.2s4.9 1.2 6.4 3.2l44.8 59.7c3.1 4.2 4.8 9.2 4.8 14.4l0 50.7 72 0 0-50.7c0-5.2 1.7-10.2 4.8-14.4l44.8-59.7c1.5-2 3.9-3.2 6.4-3.2s4.9 1.2 6.4 3.2l44.8 59.7c3.1 4.2 4.8 9.2 4.8 14.4L496 456c0 13.3-10.7 24-24 24l-64 0c-13.3 0-24-10.7-24-24l0-88-72 0 0 88c0 13.3-10.7 24-24 24l-64 0c-13.3 0-24-10.7-24-24l0-88-72 0 0 88c0 13.3-10.7 24-24 24l-64 0c-13.3 0-24-10.7-24-24l0-346.7c0-5.2 1.7-10.2 4.8-14.4L65.6 35.2c1.5-2 3.9-3.2 6.4-3.2zM312 352l72 0 0-176-72 0 0 176zM200 176l-72 0 0 176 72 0 0-176zM72 53.3L33.6 104.5c-1 1.4-1.6 3.1-1.6 4.8L32 456c0 4.4 3.6 8 8 8l64 0c4.4 0 8-3.6 8-8l0-346.7c0-1.7-.6-3.4-1.6-4.8L72 53.3zm368 0l-38.4 51.2c-1 1.4-1.6 3.1-1.6 4.8L400 456c0 4.4 3.6 8 8 8l64 0c4.4 0 8-3.6 8-8l0-346.7c0-1.7-.6-3.4-1.6-4.8L440 53.3zM217.6 104.5c-1 1.4-1.6 3.1-1.6 4.8L216 456c0 4.4 3.6 8 8 8l64 0c4.4 0 8-3.6 8-8l0-346.7c0-1.7-.6-3.4-1.6-4.8L256 53.3l-38.4 51.2z"/></svg>