<svg xmlns="http://www.w3.org/2000/svg" viewBox="0 0 384 512"><!--! Font Awesome Pro 6.6.0 by @fontawesome - https://fontawesome.com License - https://fontawesome.com/license (Commercial License) Copyright 2024 Fonticons, Inc. --><path d="M16 448L16 64c0-26.5 21.5-48 48-48l140.1 0c1.3 0 2.6 .1 3.9 .2L208 136c0 22.1 17.9 40 40 40l119.8 0c.2 1.3 .2 2.6 .2 3.9L368 448c0 26.5-21.5 48-48 48L64 496c-26.5 0-48-21.5-48-48zM358.6 157.3c.9 .9 1.7 1.8 2.4 2.7L248 160c-13.3 0-24-10.7-24-24l0-113.1c1 .8 1.9 1.6 2.7 2.4L358.6 157.3zM64 0C28.7 0 0 28.7 0 64L0 448c0 35.3 28.7 64 64 64l256 0c35.3 0 64-28.7 64-64l0-268.1c0-12.7-5.1-24.9-14.1-33.9L238.1 14.1c-9-9-21.2-14.1-33.9-14.1L64 0zM261.9 233.1c-3.8-2.3-8.7-1.1-11 2.7s-1.1 8.7 2.7 11C283.8 265.1 304 298.2 304 336s-20.2 70.9-50.4 89.1c-3.8 2.3-5 7.2-2.7 11s7.2 5 11 2.7c34.8-21 58.1-59.2 58.1-102.9s-23.3-81.9-58.1-102.9zM132.5 371.7c-2.9-2.4-6.5-3.7-10.2-3.7L96 368l0-64 26.2 0c3.7 0 7.4-1.3 10.2-3.7L176 264l0 144-43.5-36.3zm33.3 48.6c4.8 4 11.4 4.8 17 2.2s9.2-8.3 9.2-14.5l0-144c0-6.2-3.6-11.9-9.2-14.5s-12.3-1.8-17 2.2L122.2 288 96 288c-8.8 0-16 7.2-16 16l0 64c0 8.8 7.2 16 16 16l26.2 0 43.6 36.3zm60.2-125.5c-2.9 3.3-2.6 8.4 .7 11.3c8.2 7.3 13.4 18 13.4 29.9s-5.2 22.5-13.4 29.9c-3.3 2.9-3.6 8-.7 11.3s8 3.6 11.3 .6C248.7 367.6 256 352.6 256 336s-7.3-31.6-18.8-41.8c-3.3-2.9-8.4-2.6-11.3 .7z"/></svg>