<svg xmlns="http://www.w3.org/2000/svg" viewBox="0 0 512 512"><!--! Font Awesome Pro 6.6.0 by @fontawesome - https://fontawesome.com License - https://fontawesome.com/license (Commercial License) Copyright 2024 Fonticons, Inc. --><path d="M64 496l48 0 0 16-48 0c-35.3 0-64-28.7-64-64L0 64C0 28.7 28.7 0 64 0L204.1 0c12.7 0 24.9 5.1 33.9 14.1L369.9 145.9c9 9 14.1 21.2 14.1 33.9L384 304l-16 0 0-124.1c0-1.3-.1-2.6-.2-3.9L248 176c-22.1 0-40-17.9-40-40l0-119.8c-1.3-.2-2.6-.2-3.9-.2L64 16C37.5 16 16 37.5 16 64l0 384c0 26.5 21.5 48 48 48zM361.1 160c-.8-1-1.6-1.9-2.4-2.7L226.7 25.4c-.9-.9-1.8-1.7-2.7-2.4L224 136c0 13.3 10.7 24 24 24l113.1 0zM168 376c0-4.4 3.6-8 8-8l64 0c4.4 0 8 3.6 8 8s-3.6 8-8 8l-56 0 0 48 40 0c4.4 0 8 3.6 8 8s-3.6 8-8 8l-40 0 0 48 56 0c4.4 0 8 3.6 8 8s-3.6 8-8 8l-64 0c-4.4 0-8-3.6-8-8l0-64 0-64zm136-8l32 0c26.5 0 48 21.5 48 48s-21.5 48-48 48l-24 0 0 40c0 4.4-3.6 8-8 8s-8-3.6-8-8l0-48 0-80c0-4.4 3.6-8 8-8zm32 80c17.7 0 32-14.3 32-32s-14.3-32-32-32l-24 0 0 64 24 0zm117.7-80l26.3 0c4.4 0 8 3.6 8 8s-3.6 8-8 8l-26.3 0c-12 0-21.7 9.7-21.7 21.7c0 8.2 4.6 15.7 12 19.4l31.2 15.6c12.8 6.4 20.8 19.4 20.8 33.7c0 20.8-16.9 37.7-37.7 37.7L424 512c-4.4 0-8-3.6-8-8s3.6-8 8-8l34.3 0c12 0 21.7-9.7 21.7-21.7c0-8.2-4.6-15.7-12-19.4l-31.2-15.6C424.1 433 416 419.9 416 405.7c0-20.8 16.9-37.7 37.7-37.7z"/></svg>