<svg xmlns="http://www.w3.org/2000/svg" viewBox="0 0 512 512"><!--! Font Awesome Pro 6.6.0 by @fontawesome - https://fontawesome.com License - https://fontawesome.com/license (Commercial License) Copyright 2024 Fonticons, Inc. --><path d="M16 256C16 123.5 123.5 16 256 16c77.9 0 147.2 37.1 191 94.7c2.7 3.5 7.7 4.2 11.2 1.5s4.2-7.7 1.5-11.2C413 39.6 339.1 0 256 0C114.6 0 0 114.6 0 256l0 56c0 4.4 3.6 8 8 8s8-3.6 8-8l0-56zm484.8-75c-1.3-4.2-5.8-6.6-10-5.3s-6.6 5.8-5.3 10c6.8 22.2 10.5 45.9 10.5 70.4l0 56c0 4.4 3.6 8 8 8s8-3.6 8-8l0-56c0-26.1-3.9-51.3-11.2-75zM256 80c-26.5 0-51.6 5.8-74.1 16.3c-4.7 2.2-5.8 8.2-2.4 12.1c2.4 2.8 6.5 3.6 9.9 2.1C209.6 101.2 232.2 96 256 96c88.4 0 160 71.6 160 160l0 24.9c0 31.5-2.2 62.8-6.6 93.8c-.7 4.9 3.1 9.2 8 9.2c3.9 0 7.3-2.9 7.9-6.8c4.5-31.8 6.8-64 6.8-96.3l0-24.9c0-97.2-78.8-176-176-176zM139.5 135.6c-3-3.5-8.3-3.8-11.5-.4c-29.8 31.5-48 74-48 120.8l0 24.9c0 31.4-4.4 62.6-13 92.6c-1.5 5.2 2.3 10.4 7.7 10.4c3.5 0 6.6-2.3 7.5-5.6C91.4 346.7 96 313.9 96 280.9L96 256c0-42.3 16.4-80.7 43.1-109.3c2.9-3.1 3.1-7.9 .4-11.1zM256 160c-53 0-96 43-96 96l0 24.9c0 42.3-6.4 84.3-19.1 124.5c-1.6 5.2 2.2 10.6 7.7 10.6c3.4 0 6.5-2.2 7.5-5.5c13.2-41.9 19.9-85.6 19.9-129.6l0-24.9c0-44.2 35.8-80 80-80s80 35.8 80 80l0 24.9c0 42.2-4.5 84.2-13.4 125.3c-1.1 5 2.7 9.8 7.8 9.8c3.7 0 7-2.6 7.7-6.2c9.2-42.2 13.8-85.4 13.8-128.9l0-24.9c0-53-43-96-96-96zm8 96c0-4.4-3.6-8-8-8s-8 3.6-8 8l0 24.9c0 61.9-11.4 123.2-33.6 180.9l-5.9 15.3c-1.6 4.1 .5 8.8 4.6 10.3s8.8-.5 10.3-4.6l5.9-15.3C252.3 408 264 344.8 264 280.9l0-24.9z"/></svg>