<svg xmlns="http://www.w3.org/2000/svg" viewBox="0 0 448 512"><!--! Font Awesome Pro 6.6.0 by @fontawesome - https://fontawesome.com License - https://fontawesome.com/license (Commercial License) Copyright 2024 Fonticons, Inc. --><path d="M252.2 99.4c3.1 3.8 7.7 6.1 12.7 6s9.5-2.4 12.5-6.3c11-14.3 22.8-29.2 35.3-41c1.7-1.6 4.3-1.6 5.9 0c32.9 31.4 61.2 73.4 81.3 113.6c20 40.1 32.1 79.1 32.1 104.7C432 396.3 338.5 496 224 496C108.2 496 16 396.3 16 276.5c0-34.1 16.1-78 43.1-123.6c27.1-45.7 65.6-93.6 111-135.8c1.7-1.5 4.2-1.5 5.9 0c27.1 25.3 52.4 52.7 76.1 82.3zm12.5-10c-3.4-4.3-6.9-8.5-10.4-12.7c-21.2-25.3-43.6-49-67.3-71.2c-7.8-7.3-19.9-7.3-27.7-.1c-46.5 43.2-86 92.3-113.9 139.3C17.8 191.2 0 238.1 0 276.5C0 404.1 98.4 512 224 512c124.2 0 224-107.8 224-235.5c0-29.3-13.5-71.1-33.8-111.9c-20.7-41.4-49.9-85-84.5-118c-7.8-7.5-20.1-7.5-28-.1c-9.5 9-18.6 19.5-26.9 30c-3.5 4.4-6.9 8.7-10.1 13zm38.8 318.9s0 0 0 0l.3-.2c54.6-38.1 60-113.2 28.3-164.5c-8.9-14.5-28.2-13.9-37.8-2.7l-31.4 36.5s0 0 0 0c-18.8-23.9-54.4-69.2-68.9-87.6c-9.6-12.2-27.9-11.9-37.4-.1C119.3 235.8 96 268.3 96 306.8s14.3 70.2 38.4 92.1c23.9 21.8 56.4 33.1 91.3 33.1c28.5 0 54.1-8 77.7-23.7zm15-156.3c28.2 45.7 22.3 110.8-23.9 143c-21.1 14-43.5 21-68.8 21C162.6 416 112 375.4 112 306.8c0-31.9 19-60 56.9-107.1c3.2-4 9.2-4 12.4 0c14.5 18.4 50.2 63.8 69 87.6c6.2 7.9 18.1 8.1 24.7 .5l31.4-36.5c3.3-3.9 9.4-3.7 12.1 .7z"/></svg>