<svg xmlns="http://www.w3.org/2000/svg" viewBox="0 0 576 512"><!--! Font Awesome Pro 6.6.0 by @fontawesome - https://fontawesome.com License - https://fontawesome.com/license (Commercial License) Copyright 2024 Fonticons, Inc. --><path d="M130.3 183.2c22.6-25.4 52.5-51.3 85.7-70.8C249.1 92.8 285 80 319.9 80c55.9 0 116.2 28.8 162.9 66.2c23.2 18.6 42.7 39.1 56.4 58.6C552.9 224.5 560 242.4 560 256s-7.1 31.5-20.9 51.2c-13.6 19.5-33.1 40-56.4 58.6C436.1 403.2 375.8 432 319.9 432c-34.8 0-70.7-12.8-103.9-32.4c-33.1-19.5-63-45.4-85.7-70.8c-2.8-3.2-7.6-3.6-11-.9L31.2 398.4c-1.3 1-2.8 1.6-4.5 1.6c-4.5 0-7.9-4.2-7-8.6L46.4 264.2c1.1-5.4 1.1-11 0-16.5L19.7 120.6c-.9-4.4 2.5-8.6 7-8.6c1.6 0 3.2 .6 4.5 1.6l88.1 70.5c3.3 2.7 8.1 2.3 11-.9zM319.9 64c-38.6 0-77.4 14.2-112 34.6c-32.3 19-61.5 43.7-84.4 68.3L41.2 101.1C37 97.8 31.9 96 26.7 96C12 96 1 109.5 4 123.9L30.8 251.1c.7 3.3 .7 6.6 0 9.9L4 388.1C1 402.5 12 416 26.7 416c5.3 0 10.4-1.8 14.5-5.1l82.3-65.8c22.9 24.6 52.1 49.3 84.4 68.3c34.7 20.4 73.4 34.6 112 34.6c60.9 0 124.7-31.1 172.9-69.7c24.2-19.4 44.8-40.9 59.5-61.9C566.7 295.6 576 274.5 576 256s-9.3-39.6-23.8-60.4c-14.6-21-35.3-42.5-59.5-61.9C444.5 95.1 380.8 64 319.9 64zM309.7 165.7c3.1-3.1 3.1-8.2 0-11.3s-8.2-3.1-11.3 0l-64 64c-3.1 3.1-3.1 8.2 0 11.3s8.2 3.1 11.3 0l64-64zm112 16c3.1-3.1 3.1-8.2 0-11.3s-8.2-3.1-11.3 0l-160 160c-3.1 3.1-3.1 8.2 0 11.3s8.2 3.1 11.3 0l160-160zm16 112c3.1-3.1 3.1-8.2 0-11.3s-8.2-3.1-11.3 0l-64 64c-3.1 3.1-3.1 8.2 0 11.3s8.2 3.1 11.3 0l64-64z"/></svg>