<svg xmlns="http://www.w3.org/2000/svg" viewBox="0 0 448 512"><!--! Font Awesome Pro 6.6.0 by @fontawesome - https://fontawesome.com License - https://fontawesome.com/license (Commercial License) Copyright 2024 Fonticons, Inc. --><path d="M16 8c0-4.4-3.6-8-8-8S0 3.6 0 8L0 32 0 48 0 336l0 16L0 504c0 4.4 3.6 8 8 8s8-3.6 8-8l0-152 420.1 0c6.6 0 11.9-5.3 11.9-11.9c0-2.6-.9-5.2-2.5-7.3L336 192 445.5 51.2c1.6-2.1 2.5-4.7 2.5-7.3c0-6.6-5.3-11.9-11.9-11.9L16 32 16 8zm0 40l411.7 0L323.4 182.2c-4.5 5.8-4.5 13.9 0 19.6L427.7 336 16 336 16 48z"/></svg>