<svg xmlns="http://www.w3.org/2000/svg" viewBox="0 0 512 512"><!--! Font Awesome Pro 6.6.0 by @fontawesome - https://fontawesome.com License - https://fontawesome.com/license (Commercial License) Copyright 2024 Fonticons, Inc. --><path d="M496 416c0 26.5-21.5 48-48 48L64 464c-26.5 0-48-21.5-48-48L16 96c0-26.5 21.5-48 48-48l133.5 0c12.7 0 24.9 5.1 33.9 14.1l35.9 35.9c9 9 21.2 14.1 33.9 14.1L448 112c26.5 0 48 21.5 48 48l0 256zM64 480l384 0c35.3 0 64-28.7 64-64l0-256c0-35.3-28.7-64-64-64L301.3 96c-8.5 0-16.6-3.4-22.6-9.4L242.7 50.7c-12-12-28.3-18.7-45.3-18.7L64 32C28.7 32 0 60.7 0 96L0 416c0 35.3 28.7 64 64 64zM240 177.1c5.2-.7 10.6-1.1 16-1.1s10.8 .4 16 1.1l0 4.2c0 16.7 10.8 30.2 23.8 37.8c13 7.5 30.1 10.1 44.6 1.7l3.7-2.1c2.9 3.7 5.6 7.5 8 11.5l2.2 3.7c2.2 4 4.2 8.2 5.9 12.4l-3.6 2.1C341.8 256.9 336 273.1 336 288s5.8 31.1 20.4 39.5l3.6 2.1c-1.7 4.3-3.7 8.4-5.9 12.4l-2.2 3.9c-2.4 4-5.1 7.8-7.9 11.4l-3.7-2.1c-14.5-8.3-31.6-5.8-44.6 1.7c-13 7.5-23.8 21.1-23.8 37.8l0 4.2c-5.2 .7-10.6 1.1-16 1.1s-10.8-.4-16-1.1l0-4.2c0-16.7-10.8-30.2-23.8-37.8c-13-7.5-30.1-10.1-44.6-1.7l-3.7 2.1c-2.9-3.6-5.5-7.5-7.9-11.5l-2.2-3.8c-2.2-4-4.2-8.1-5.9-12.4l3.6-2.1c14.6-8.4 20.4-24.6 20.4-39.5s-5.8-31.1-20.4-39.5l-3.6-2.1c1.7-4.3 3.7-8.5 5.9-12.5l2.1-3.7c2.4-4 5.1-7.9 8-11.5l3.7 2.1c14.5 8.3 31.6 5.8 44.6-1.7c13-7.5 23.8-21.1 23.8-37.8l0-4.2zm-3.9-15.6c-7.1 1.1-12.1 7.5-12.1 14.9l0 4.9c0 9.4-6.2 18.4-15.8 23.9s-20.4 6.4-28.6 1.7l-4.3-2.5c-6.4-3.7-14.5-2.5-19 3c-3.7 4.6-7.1 9.4-10.2 14.5c0 0 0 0 0 0l-.1 .1L144 226s0 0 0 0l-.1 .1c-2.8 5.1-5.3 10.4-7.4 15.8c-2.6 6.7 .4 14.2 6.8 18l4.2 2.4c8 4.6 12.4 14.3 12.4 25.6s-4.4 21-12.4 25.6l-4.2 2.4c-6.4 3.7-9.4 11.3-6.8 17.9c2.1 5.4 4.6 10.7 7.3 15.7c0 0 0 0 0 0l.1 .1 2.3 4s0 0 0 0l.1 .1c3 5 6.4 9.9 10.1 14.4c4.5 5.6 12.5 6.8 19 3l4.3-2.5c8.2-4.7 19-3.8 28.6 1.7s15.8 14.5 15.8 23.9l0 4.9c0 7.4 5.1 13.8 12.1 14.9c6.5 1 13.1 1.5 19.9 1.5s13.4-.5 19.9-1.5c7.1-1.1 12.1-7.5 12.1-14.9l0-4.9c0-9.4 6.2-18.4 15.8-23.9s20.4-6.4 28.6-1.7l4.3 2.5c6.4 3.7 14.5 2.5 19-3c3.7-4.5 7.1-9.4 10.1-14.4c0 0 0 0 0 0l.1-.1 2.3-4s0 0 0 0l.1-.1c2.8-5 5.2-10.3 7.3-15.7c2.6-6.7-.4-14.2-6.8-17.9l-4.2-2.4c-8-4.6-12.4-14.3-12.4-25.6s4.4-21 12.4-25.6l4.2-2.4c6.4-3.7 9.4-11.3 6.8-18c-2.1-5.5-4.6-10.7-7.4-15.8c0 0 0 0 0 0l-.1-.1-2.2-3.9s0 0 0 0l-.1-.1c-3.1-5.1-6.4-9.9-10.1-14.5c-4.5-5.6-12.5-6.8-19-3l-4.3 2.5c-8.1 4.7-19 3.8-28.6-1.7s-15.8-14.5-15.8-23.9l0-4.9c0-7.4-5.1-13.8-12.1-14.9c-6.5-1-13.1-1.5-19.9-1.5s-13.4 .5-19.9 1.5zM256 264a24 24 0 1 1 0 48 24 24 0 1 1 0-48zm0 64a40 40 0 1 0 0-80 40 40 0 1 0 0 80z"/></svg>