<svg xmlns="http://www.w3.org/2000/svg" viewBox="0 0 512 512"><!--! Font Awesome Pro 6.6.0 by @fontawesome - https://fontawesome.com License - https://fontawesome.com/license (Commercial License) Copyright 2024 Fonticons, Inc. --><path d="M496 416c0 26.5-21.5 48-48 48L64 464c-26.5 0-48-21.5-48-48L16 96c0-26.5 21.5-48 48-48l133.5 0c12.7 0 24.9 5.1 33.9 14.1l35.9 35.9c9 9 21.2 14.1 33.9 14.1L448 112c26.5 0 48 21.5 48 48l0 256zM64 480l384 0c35.3 0 64-28.7 64-64l0-256c0-35.3-28.7-64-64-64L301.3 96c-8.5 0-16.6-3.4-22.6-9.4L242.7 50.7c-12-12-28.3-18.7-45.3-18.7L64 32C28.7 32 0 60.7 0 96L0 416c0 35.3 28.7 64 64 64zM256 176a48 48 0 1 1 0 96 48 48 0 1 1 0-96zm0 112a64 64 0 1 0 0-128 64 64 0 1 0 0 128zm-40 48l80 0c30.9 0 56 25.1 56 56c0 4.4-3.6 8-8 8l-176 0c-4.4 0-8-3.6-8-8c0-30.9 25.1-56 56-56zm-72 56c0 13.3 10.7 24 24 24l176 0c13.3 0 24-10.7 24-24c0-39.8-32.2-72-72-72l-80 0c-39.8 0-72 32.2-72 72z"/></svg>