<svg xmlns="http://www.w3.org/2000/svg" viewBox="0 0 640 512"><!--! Font Awesome Pro 6.6.0 by @fontawesome - https://fontawesome.com License - https://fontawesome.com/license (Commercial License) Copyright 2024 Fonticons, Inc. --><path d="M183.5 37.1C182.3 34 179.3 32 176 32s-6.3 2-7.5 5.1L.6 469.1c-1.6 4.1 .4 8.8 4.6 10.4s8.8-.4 10.4-4.6L63.3 352c.2 0 .5 0 .7 0l224 0c.2 0 .5 0 .7 0l47.8 122.9c1.6 4.1 6.2 6.2 10.4 4.6s6.2-6.2 4.6-10.4l-168-432zM282.5 336L69.5 336 176 62.1 282.5 336zM632 160c-4.4 0-8 3.6-8 8l0 49.2C603.8 183 566.6 160 524 160c-64.1 0-116 51.9-116 116l0 88c0 64.1 51.9 116 116 116c42.6 0 79.8-23 100-57.2l0 49.2c0 4.4 3.6 8 8 8s8-3.6 8-8l0-108 0-88 0-108c0-4.4-3.6-8-8-8zm-8 116l0 88c0 55.2-44.8 100-100 100s-100-44.8-100-100l0-88c0-55.2 44.8-100 100-100s100 44.8 100 100z"/></svg>