<svg xmlns="http://www.w3.org/2000/svg" viewBox="0 0 512 512"><!--! Font Awesome Pro 6.6.0 by @fontawesome - https://fontawesome.com License - https://fontawesome.com/license (Commercial License) Copyright 2024 Fonticons, Inc. --><path d="M441.3 36.9c-53.1-7.6-100-8.7-141.4-4.2L478.4 211.1c6.3-50.2 3.7-99.9-3.4-141.8c-1.3-7.9-5.4-15.4-11.7-21.4c-6.2-6-13.9-9.8-22.1-11zM214.5 52.1C152 75.3 108.6 114.9 79.7 162c-22.5 36.7-36.1 77.8-43.2 119.2l1.2 1.2 192 192 2.4 2.4c23.8-3.8 45.6-9.5 65.5-16.9C360 436.7 403.4 397.1 432.3 350c22.5-36.7 36.1-77.8 43.2-119.2l-1.2-1.2-192-192L280 35.3c-23.8 3.8-45.6 9.5-65.5 16.9zM33.6 300.9c-6.3 50.2-3.7 99.8 3.4 141.8c1.3 7.9 5.4 15.4 11.7 21.4c6.2 6 13.9 9.8 22.1 11c53.1 7.6 100 8.7 141.4 4.2L33.6 300.9zM443.6 21c11.7 1.7 22.4 7.2 30.9 15.3s14.4 18.7 16.4 30.3c14.1 84 11.2 200.1-44.9 291.7c-30.6 50-76.8 92-142.9 116.5C241.4 497.8 164 504.7 68.4 491c-11.7-1.7-22.4-7.2-30.9-15.3s-14.4-18.7-16.4-30.3C7.1 361.3 9.9 245.2 66 153.6c30.6-50 76.8-92 142.9-116.5C270.6 14.2 348 7.3 443.6 21zM285.7 162.3l64 64c3.1 3.1 3.1 8.2 0 11.3s-8.2 3.1-11.3 0l-64-64c-3.1-3.1-3.1-8.2 0-11.3s8.2-3.1 11.3 0zm-56 56l64 64c3.1 3.1 3.1 8.2 0 11.3s-8.2 3.1-11.3 0l-64-64c-3.1-3.1-3.1-8.2 0-11.3s8.2-3.1 11.3 0zm-56 56l64 64c3.1 3.1 3.1 8.2 0 11.3s-8.2 3.1-11.3 0l-64-64c-3.1-3.1-3.1-8.2 0-11.3s8.2-3.1 11.3 0z"/></svg>