<svg xmlns="http://www.w3.org/2000/svg" viewBox="0 0 640 512"><!--! Font Awesome Pro 6.6.0 by @fontawesome - https://fontawesome.com License - https://fontawesome.com/license (Commercial License) Copyright 2024 Fonticons, Inc. --><path d="M176 72l-16 0-16 0-16 0 0-16 0-32c0-4.4-3.6-8-8-8l-16 0c-4.4 0-8 3.6-8 8l0 32 0 16L80 72 64 72 48 72l0-16 0-32c0-4.4-3.6-8-8-8L24 16c-4.4 0-8 3.6-8 8l0 64 0 16 0 40c0 17.7 14.3 32 32 32l128 0c17.7 0 32-14.3 32-32l0-40 0-16 0-64c0-4.4-3.6-8-8-8l-16 0c-4.4 0-8 3.6-8 8l0 32 0 16zM160 24c0-13.3 10.7-24 24-24l16 0c13.3 0 24 10.7 24 24l0 64 0 16 0 40c0 20.9-13.4 38.7-32 45.3l0 18.7 256 0 0-18.7c-18.6-6.6-32-24.4-32-45.3l0-40 0-16 0-64c0-13.3 10.7-24 24-24l16 0c13.3 0 24 10.7 24 24l0 16 0 16 16 0 0-16 0-16c0-13.3 10.7-24 24-24l16 0c13.3 0 24 10.7 24 24l0 16 0 16 16 0 0-16 0-16c0-13.3 10.7-24 24-24l16 0c13.3 0 24 10.7 24 24l0 64 0 16 0 40c0 20.9-13.4 38.7-32 45.3L608 456c0 30.9-25.1 56-56 56l-152 0-16 0-128 0-16 0L88 512c-30.9 0-56-25.1-56-56l0-266.7C13.4 182.7 0 164.9 0 144l0-40L0 88 0 24C0 10.7 10.7 0 24 0L40 0C53.3 0 64 10.7 64 24l0 16 0 16 16 0 0-16 0-16C80 10.7 90.7 0 104 0l16 0c13.3 0 24 10.7 24 24l0 16 0 16 16 0 0-16 0-16zM448 224l-256 0 0 272 48 0 0-104c0-44.2 35.8-80 80-80s80 35.8 80 80l0 104 48 0 0-272zM176 192L48 192l0 264c0 22.1 17.9 40 40 40l88 0 0-304zm96 304l96 0 16 0 0-16 0-88c0-35.3-28.7-64-64-64s-64 28.7-64 64l0 88 0 16 16 0zm280 0c22.1 0 40-17.9 40-40l0-264-128 0 0 304 88 0zM464 72l0-16 0-32c0-4.4-3.6-8-8-8l-16 0c-4.4 0-8 3.6-8 8l0 64 0 16 0 40c0 17.7 14.3 32 32 32l128 0c17.7 0 32-14.3 32-32l0-40 0-16 0-64c0-4.4-3.6-8-8-8l-16 0c-4.4 0-8 3.6-8 8l0 32 0 16-16 0-16 0-16 0 0-16 0-32c0-4.4-3.6-8-8-8l-16 0c-4.4 0-8 3.6-8 8l0 32 0 16-16 0-16 0-16 0z"/></svg>