<svg xmlns="http://www.w3.org/2000/svg" viewBox="0 0 576 512"><!--! Font Awesome Pro 6.6.0 by @fontawesome - https://fontawesome.com License - https://fontawesome.com/license (Commercial License) Copyright 2024 Fonticons, Inc. --><path d="M368 48c-30.9 0-56 25.1-56 56c0 .1 0 .3 0 .4c-.2 3.7-2.9 6.8-6.5 7.4L241.3 124C110.6 148.7 16 262.9 16 396l0 28c0 22.1 17.9 40 40 40l288 0c13.3 0 24-10.7 24-24s-10.7-24-24-24l-39.9 0c-1.8 0-3.6-.6-5.1-1.8c-3.5-2.8-4-7.8-1.2-11.2l6.9-8.6 7-8.7c10.6-13.3 16.4-29.8 16.4-46.8l0-3.7c0-19.5-7.9-37.2-20.6-50.1c-12.9-13-30.8-21.1-50.6-21.1c-18.9 0-37 7.5-50.3 20.9l-40.8 40.8c-3.1 3.1-8.2 3.1-11.3 0s-3.1-8.2 0-11.3l40.8-40.8c16.4-16.4 38.5-25.5 61.7-25.5c19.1 0 36.8 6.1 51.1 16.5c21.9 15.8 36.1 41.6 36.1 70.7l0 3.7c0 20.6-7 40.7-19.9 56.8l-3.4 4.3 23.4 0c22.1 0 40 17.9 40 40s-17.9 40-40 40L56 480c-30.9 0-56-25.1-56-56l0-28C0 255.3 100.1 134.4 238.4 108.3l57.9-11C299.7 60.7 330.5 32 368 32c39.2 0 71.1 31.4 72 70.4c39.6 7 74 18.4 97.6 27.6c24.3 9.5 38.4 33.2 38.4 58.5c0 24.9-13.6 47.7-35.4 59.6L404.2 322.5 515.9 464l52.1 0c4.4 0 8 3.6 8 8s-3.6 8-8 8l-56 0c-2.4 0-4.8-1.1-6.3-3l-120-152c-1.5-1.8-2-4.2-1.6-6.6s1.9-4.3 4-5.4l144.8-79c16.7-9.1 27.1-26.6 27.1-45.6c0-19.5-10.8-36.8-28.2-43.6c-24.3-9.5-60.1-21.3-101.2-27.8c-4.1-.7-7-4.4-6.7-8.5c.1-1.5 .2-3 .2-4.5c0-30.9-25.1-56-56-56zm0 48a16 16 0 1 1 0 32 16 16 0 1 1 0-32z"/></svg>