<svg xmlns="http://www.w3.org/2000/svg" viewBox="0 0 640 512"><!--! Font Awesome Pro 6.6.0 by @fontawesome - https://fontawesome.com License - https://fontawesome.com/license (Commercial License) Copyright 2024 Fonticons, Inc. --><path d="M80 72c0-39.8 32.2-72 72-72l48 0c4.4 0 8 3.6 8 8s-3.6 8-8 8l-48 0c-30.9 0-56 25.1-56 56l0 120 88 0c4.4 0 8 3.6 8 8s-3.6 8-8 8l-88 0 0 198.1c0 37-28 68-64.8 71.6L8.8 480c-4.4 .4-8.3-2.8-8.8-7.2s2.8-8.3 7.2-8.8l22.4-2.2c28.6-2.9 50.4-27 50.4-55.7L80 208 8 208c-4.4 0-8-3.6-8-8s3.6-8 8-8l72 0L80 72zm206.8 84.3C257.2 203.1 240 259.4 240 320s17.2 116.9 46.8 163.7c2.4 3.7 1.2 8.7-2.5 11s-8.7 1.2-11-2.5C242.1 442.9 224 383.6 224 320s18.1-122.9 49.2-172.3c2.4-3.7 7.3-4.9 11-2.5s4.9 7.3 2.5 11zm290.5 0c-2.4-3.7-1.2-8.7 2.5-11s8.7-1.2 11 2.5C621.9 197.1 640 256.4 640 320s-18.1 122.9-49.2 172.3c-2.4 3.7-7.3 4.9-11 2.5s-4.9-7.3-2.5-11C606.8 436.9 624 380.6 624 320s-17.2-116.9-46.8-163.7zM365.7 242.3L432 308.7l66.3-66.3c3.1-3.1 8.2-3.1 11.3 0s3.1 8.2 0 11.3L443.3 320l66.3 66.3c3.1 3.1 3.1 8.2 0 11.3s-8.2 3.1-11.3 0L432 331.3l-66.3 66.3c-3.1 3.1-8.2 3.1-11.3 0s-3.1-8.2 0-11.3L420.7 320l-66.3-66.3c-3.1-3.1-3.1-8.2 0-11.3s8.2-3.1 11.3 0z"/></svg>