<svg xmlns="http://www.w3.org/2000/svg" viewBox="0 0 640 512"><!--! Font Awesome Pro 6.6.0 by @fontawesome - https://fontawesome.com License - https://fontawesome.com/license (Commercial License) Copyright 2024 Fonticons, Inc. --><path d="M256 496c35.6 0 69.4-7.7 99.8-21.6c3.3 4.4 6.9 8.6 10.6 12.7C333 503 295.5 512 256 512C114.6 512 0 397.4 0 256S114.6 0 256 0C375.4 0 475.6 81.7 504 192.2c-2.6-.1-5.3-.2-8-.2c-2.9 0-5.7 .1-8.6 .2C459.5 90.6 366.5 16 256 16C123.5 16 16 123.5 16 256s107.5 240 240 240zm0-96a48 48 0 1 0 0-96 48 48 0 1 0 0 96zm0 16c-35.3 0-64-28.7-64-64c0-32.6 24.4-59.6 56-63.5L248 80c0-4.4 3.6-8 8-8s8 3.6 8 8l0 208.5c31.6 3.9 56 30.9 56 63.5c0 35.3-28.7 64-64 64zM144 112a16 16 0 1 1 0 32 16 16 0 1 1 0-32zM80 240a16 16 0 1 1 32 0 16 16 0 1 1 -32 0zM352 128a16 16 0 1 1 32 0 16 16 0 1 1 -32 0zM496 496a128 128 0 1 0 0-256 128 128 0 1 0 0 256zm0-272a144 144 0 1 1 0 288 144 144 0 1 1 0-288zm36.5 57.4c3 2 4.3 5.8 3.1 9.2L517.8 344l58.2 0c3.3 0 6.3 2.1 7.5 5.2s.2 6.7-2.3 8.8l-112 96c-2.7 2.3-6.7 2.6-9.7 .6s-4.3-5.8-3.1-9.2L474.2 392 416 392c-3.3 0-6.3-2.1-7.5-5.2s-.2-6.7 2.3-8.8l112-96c2.7-2.3 6.7-2.6 9.7-.6zM437.6 376l47.7 0c2.6 0 5 1.2 6.5 3.3s1.9 4.8 1.1 7.2l-12.2 36.6L554.4 360l-47.7 0c-2.6 0-5-1.2-6.5-3.3s-1.9-4.8-1.1-7.2l12.2-36.6L437.6 376z"/></svg>