<svg xmlns="http://www.w3.org/2000/svg" viewBox="0 0 576 512"><!--! Font Awesome Pro 6.6.0 by @fontawesome - https://fontawesome.com License - https://fontawesome.com/license (Commercial License) Copyright 2024 Fonticons, Inc. --><path d="M70.8 77.7c4.4-17.5 20-29.7 38-29.7c6.1 0 12.1 1.4 17.5 4.1l22 11c4 2 8.8 .4 10.7-3.6s.4-8.8-3.6-10.7l-22-11C125.9 34 117.4 32 108.9 32C83.5 32 61.4 49.2 55.3 73.8L6 271.1C3 282.9 1.2 294.9 .4 306.9c-.3 1.7-.4 3.4-.4 5.1l0 7.6L0 336l0 32c0 61.9 50.1 112 112 112l44.3 0c59.4 0 108.5-46.4 111.8-105.8l3.8-60.4c.2-3.3-.2-6.6-1-9.8l34 0c-.8 3.1-1.2 6.4-1 9.8l3.8 60.4C311.1 433.6 360.2 480 419.7 480l44.3 0c61.9 0 112-50.1 112-112l0-32 0-16.4 0-7.6c0-1.7-.1-3.4-.4-5.1c-.8-12.1-2.6-24-5.6-35.8L520.7 73.8C514.6 49.2 492.5 32 467.1 32c-8.6 0-17 2-24.7 5.8l-22 11c-4 2-5.6 6.8-3.6 10.7s6.8 5.6 10.7 3.6l22-11c5.4-2.7 11.4-4.1 17.5-4.1c18 0 33.7 12.2 38 29.7L554.5 275c.6 2.4 1.2 4.9 1.7 7.3C520.6 265.2 479.5 256 440.3 256c-40.1 0-82.2 9.6-118.5 27.3c-2.7 1.4-5.2 3.1-7.4 5.1c-.8-.2-1.6-.4-2.4-.4l-48 0c-.8 0-1.7 .1-2.4 .4c-2.2-2-4.7-3.7-7.4-5.1C217.9 265.6 175.8 256 135.7 256c-39.1 0-80.3 9.2-115.9 26.3c.5-2.5 1.1-4.9 1.7-7.3L70.8 77.7zM16 319.6c0-3.6 .1-7.2 .3-10.8c1-4.7 4-8.9 8.5-11.1C58.5 281 98.1 272 135.7 272c37.7 0 77.4 9 111.4 25.7c5.7 2.9 9.2 8.9 8.9 15.2l-3.8 60.4s0 0 0 0l0 .1c-2.8 50.9-44.9 90.7-95.9 90.7L112 464c-53 0-96-43-96-96l0-32 0-16.4zm535.2-21.9c4.4 2.2 7.5 6.4 8.5 11.1c.2 3.6 .3 7.2 .3 10.8l0 16.4 0 32c0 53-43 96-96 96l-44.3 0c-51 0-93-39.8-95.9-90.7l0-.1s0 0 0 0L320 312.8c-.3-6.3 3.2-12.3 8.9-15.2c34-16.6 73.7-25.7 111.4-25.7c37.5 0 77.2 9 110.9 25.7z"/></svg>