<svg xmlns="http://www.w3.org/2000/svg" viewBox="0 0 384 512"><!--! Font Awesome Pro 6.6.0 by @fontawesome - https://fontawesome.com License - https://fontawesome.com/license (Commercial License) Copyright 2024 Fonticons, Inc. --><path d="M16.1 33.3C15.4 24 22.7 16 32.1 16L352 16c9.4 0 16.7 8 15.9 17.3L345.7 306.1l-24.9 11.1c-24.6 10.9-53.2 7.9-75-7.9c-32.1-23.3-75.5-23.3-107.5 0c-21.8 15.8-50.4 18.9-75 7.9L38.4 306.1 16.1 33.3zM39.9 324.2l16.9 7.5c29.8 13.3 64.5 9.6 90.9-9.6c26.4-19.2 62.3-19.2 88.7 0c26.4 19.2 61.1 22.9 90.9 9.6l16.9-7.5-11 135c-1.7 20.8-19 36.8-39.9 36.8L90.7 496c-20.8 0-38.2-16-39.9-36.8l-11-135zM32.1 0C13.4 0-1.3 16 .2 34.6l34.7 426C37.3 489.6 61.6 512 90.7 512l202.6 0c29.2 0 53.4-22.4 55.8-51.4l34.7-426C385.4 16 370.7 0 352 0L32.1 0zM192 224c-27.5 0-48-20.7-48-44c0-2.8 1.1-7.8 4.3-15.2c3-7.1 7.4-15.1 12.5-23.4c10-16.2 22.2-32.6 31.2-44c9 11.5 21.2 27.8 31.2 44c5.1 8.3 9.5 16.4 12.5 23.4c3.2 7.4 4.3 12.4 4.3 15.2c0 23.3-20.5 44-48 44zm0 16c35.3 0 64-26.9 64-60c0-24-33.7-70.1-52.2-93.5c-6.1-7.7-17.5-7.7-23.6 0C161.7 109.9 128 156 128 180c0 33.1 28.7 60 64 60z"/></svg>