<svg xmlns="http://www.w3.org/2000/svg" viewBox="0 0 640 512"><!--! Font Awesome Pro 6.6.0 by @fontawesome - https://fontawesome.com License - https://fontawesome.com/license (Commercial License) Copyright 2024 Fonticons, Inc. --><path d="M256 496c25.8 0 53.4-21.1 75.6-65c2.4 6.3 5.2 12.4 8.3 18.3c-9.7 16.8-20.6 30.7-32.4 41.1c16.8-3.7 33-9.1 48.3-16.1c3.3 4.4 6.9 8.6 10.6 12.7C333 503 295.5 512 256 512C114.6 512 0 397.4 0 256S114.6 0 256 0C375.4 0 475.6 81.7 504 192.2c-2.6-.1-5.3-.2-8-.2c-2.9 0-5.7 .1-8.6 .2c-1.5-5.5-3.2-10.9-5.1-16.2l-104.7 0c3 18.1 5 37.1 5.8 56.7c-5.5 4.6-10.7 9.4-15.5 14.6c-.4-25-2.7-48.9-6.5-71.3l-210.8 0c-4.3 25-6.6 51.9-6.6 80s2.3 55 6.6 80l172.3 0c-1 5.3-1.7 10.6-2.2 16l-167.1 0c6.2 29.5 15.2 55.9 26.2 77.9C202.1 474.5 230 496 256 496zM153.6 160l204.7 0c-6.2-29.6-15.2-55.9-26.2-77.9C309.9 37.5 282 16 256 16s-53.9 21.5-76.2 66.1c-11 21.9-19.9 48.3-26.2 77.9zM476 160C445.6 90.5 383.2 38.1 307.5 21.5c30.5 26.8 54.7 76.6 67.2 138.5L476 160zm-338.7 0c12.5-61.8 36.8-111.7 67.2-138.5C128.8 38.1 66.4 90.5 36 160l101.3 0zM29.7 176C20.8 201 16 227.9 16 256s4.8 55 13.7 80l104.7 0c-4.1-25.2-6.4-52.1-6.4-80s2.2-54.8 6.4-80L29.7 176zM204.5 490.5c-30.5-26.8-54.7-76.6-67.2-138.5L36 352c30.4 69.5 92.8 121.9 168.6 138.5zM496 496a128 128 0 1 0 0-256 128 128 0 1 0 0 256zm0-272a144 144 0 1 1 0 288 144 144 0 1 1 0-288zm0 96c-29.2 0-55.8 11-75.9 29.1c-3.3 3-8.3 2.7-11.3-.6s-2.7-8.3 .6-11.3C432.3 316.6 462.7 304 496 304s63.7 12.6 86.6 33.3c3.3 3 3.5 8 .6 11.3s-8 3.5-11.3 .6C551.8 331 525.2 320 496 320zM480 432a16 16 0 1 1 32 0 16 16 0 1 1 -32 0zm-20.9-41.8c-3.3 3-8.3 2.7-11.3-.6s-2.7-8.3 .6-11.3C461 366.9 477.7 360 496 360s35 6.9 47.6 18.3c3.3 3 3.5 8 .6 11.3s-8 3.5-11.3 .6c-9.8-8.8-22.7-14.2-36.9-14.2s-27.1 5.4-36.9 14.2z"/></svg>