<svg xmlns="http://www.w3.org/2000/svg" viewBox="0 0 512 512"><!--! Font Awesome Pro 6.6.0 by @fontawesome - https://fontawesome.com License - https://fontawesome.com/license (Commercial License) Copyright 2024 Fonticons, Inc. --><path d="M104 0c4.4 0 8 3.6 8 8l0 24 80 0 0-24c0-4.4 3.6-8 8-8s8 3.6 8 8l0 24 96 0 0-24c0-4.4 3.6-8 8-8s8 3.6 8 8l0 24 80 0 0-24c0-4.4 3.6-8 8-8s8 3.6 8 8l0 24 0 16 0 32 0 32 0 .8c18.3 3.7 32 19.8 32 39.2l0 72 0 .8c18.3 3.7 32 19.8 32 39.2l0 88 0 .8c18.3 3.7 32 19.8 32 39.2l0 80c0 22.1-17.9 40-40 40l-152 0-16 0-96 0-16 0L40 512c-22.1 0-40-17.9-40-40l0-80c0-19.4 13.7-35.5 32-39.2l0-.8 0-88c0-19.4 13.7-35.5 32-39.2l0-.8 0-72c0-19.4 13.7-35.5 32-39.2l0-.8 0-32 0-32 0-16L96 8c0-4.4 3.6-8 8-8zM208 496l96 0 0-32c0-26.5-21.5-48-48-48s-48 21.5-48 48l0 32zm112 0l80 0 0-128-16 0-80 0-16 0-64 0-16 0-80 0-16 0 0 128 80 0 0-32c0-35.3 28.7-64 64-64s64 28.7 64 64l0 32zM112 80l0 32 288 0 0-32 0-32-88 0L200 48l-88 0 0 32zm-8 48c-13.3 0-24 10.7-24 24l0 72 32 0 16 0 32 0 0-96-48 0-8 0zm72 0l0 96 48 0 0-32c0-17.7 14.3-32 32-32s32 14.3 32 32l0 32 48 0 0-96-160 0zm96 64c0-8.8-7.2-16-16-16s-16 7.2-16 16l0 32 32 0 0-32zM128 352l80 0 0-32c0-26.5 21.5-48 48-48s48 21.5 48 48l0 32 80 0 0-112-96 0-16 0-32 0-16 0-96 0 0 112zM384 224l16 0 32 0 0-72c0-13.3-10.7-24-24-24l-8 0-48 0 0 96 32 0zM288 352l0-32c0-17.7-14.3-32-32-32s-32 14.3-32 32l0 32 64 0zM400 240l0 112 64 0 0-88c0-13.3-10.7-24-24-24l-8 0-32 0zM80 240l-8 0c-13.3 0-24 10.7-24 24l0 88 64 0 0-112-32 0zM40 368c-13.3 0-24 10.7-24 24l0 80c0 13.3 10.7 24 24 24l56 0 0-128-48 0-8 0zM472 496c13.3 0 24-10.7 24-24l0-80c0-13.3-10.7-24-24-24l-8 0-48 0 0 128 56 0z"/></svg>