<svg xmlns="http://www.w3.org/2000/svg" viewBox="0 0 512 512"><!--! Font Awesome Pro 6.6.0 by @fontawesome - https://fontawesome.com License - https://fontawesome.com/license (Commercial License) Copyright 2024 Fonticons, Inc. --><path d="M80 48C62.3 48 48 62.3 48 80l0 96c0 17.7 14.3 32 32 32l96 0c17.7 0 32-14.3 32-32l0-96c0-17.7-14.3-32-32-32L80 48zM32 80c0-26.5 21.5-48 48-48l96 0c26.5 0 48 21.5 48 48l0 96c0 26.5-21.5 48-48 48l-96 0c-26.5 0-48-21.5-48-48l0-96zM80 304c-17.7 0-32 14.3-32 32l0 96c0 17.7 14.3 32 32 32l96 0c17.7 0 32-14.3 32-32l0-96c0-17.7-14.3-32-32-32l-96 0zM32 336c0-26.5 21.5-48 48-48l96 0c26.5 0 48 21.5 48 48l0 96c0 26.5-21.5 48-48 48l-96 0c-26.5 0-48-21.5-48-48l0-96zM432 48l-96 0c-17.7 0-32 14.3-32 32l0 96c0 17.7 14.3 32 32 32l96 0c17.7 0 32-14.3 32-32l0-96c0-17.7-14.3-32-32-32zM336 32l96 0c26.5 0 48 21.5 48 48l0 96c0 26.5-21.5 48-48 48l-96 0c-26.5 0-48-21.5-48-48l0-96c0-26.5 21.5-48 48-48zm0 272c-17.7 0-32 14.3-32 32l0 96c0 17.7 14.3 32 32 32l96 0c17.7 0 32-14.3 32-32l0-96c0-17.7-14.3-32-32-32l-96 0zm-48 32c0-26.5 21.5-48 48-48l96 0c26.5 0 48 21.5 48 48l0 96c0 26.5-21.5 48-48 48l-96 0c-26.5 0-48-21.5-48-48l0-96z"/></svg>