<svg xmlns="http://www.w3.org/2000/svg" viewBox="0 0 512 512"><!--! Font Awesome Pro 6.6.0 by @fontawesome - https://fontawesome.com License - https://fontawesome.com/license (Commercial License) Copyright 2024 Fonticons, Inc. --><path d="M160 96c0 35.3-28.7 64-64 64c-10.7 0-20.9-2.6-29.7-7.3c-7.2 13.1-13 27-17.3 41.6c-1.3 4.2-5.7 6.6-9.9 5.4s-6.6-5.7-5.4-9.9C38.4 173.5 45 158 53.1 143.5C40.1 131.8 32 114.8 32 96c0-35.3 28.7-64 64-64c18.8 0 35.8 8.1 47.5 21.1c14.5-8.1 30-14.6 46.2-19.5c4.2-1.3 8.7 1.2 9.9 5.4s-1.2 8.7-5.4 9.9c-14.6 4.3-28.5 10.2-41.6 17.3c4.7 8.9 7.3 19 7.3 29.7zM312.3 39c1.3-4.2 5.7-6.6 10-5.4C338.5 38.4 354 45 368.5 53.1C380.2 40.1 397.2 32 416 32c35.3 0 64 28.7 64 64c0 18.8-8.1 35.8-21.1 47.5c8.1 14.5 14.6 30 19.5 46.2c1.3 4.2-1.2 8.7-5.4 9.9s-8.7-1.2-9.9-5.4c-4.3-14.6-10.2-28.5-17.3-41.6c-8.9 4.7-19 7.3-29.7 7.3c-35.3 0-64-28.7-64-64c0-10.7 2.6-20.9 7.3-29.7c-13.1-7.2-27-13-41.6-17.3c-4.2-1.3-6.6-5.7-5.4-9.9zM39 312.3c4.2-1.3 8.7 1.2 9.9 5.4c4.3 14.6 10.2 28.5 17.3 41.6c8.9-4.7 19-7.3 29.7-7.3c35.3 0 64 28.7 64 64c0 10.7-2.6 20.9-7.3 29.7c13.1 7.1 27 13 41.6 17.3c4.2 1.3 6.6 5.7 5.4 10s-5.7 6.6-9.9 5.4c-16.2-4.8-31.7-11.4-46.2-19.5C131.8 471.9 114.8 480 96 480c-35.3 0-64-28.7-64-64c0-18.8 8.1-35.8 21.1-47.5c-8.1-14.5-14.6-30-19.5-46.2c-1.3-4.2 1.2-8.7 5.4-10zm434 0c4.2 1.3 6.6 5.7 5.4 10c-4.8 16.2-11.4 31.7-19.5 46.2C471.9 380.2 480 397.2 480 416c0 35.3-28.7 64-64 64c-18.8 0-35.8-8.1-47.5-21.1c-14.5 8.1-30 14.6-46.2 19.5c-4.2 1.3-8.7-1.2-10-5.4s1.2-8.7 5.4-10c14.6-4.3 28.5-10.2 41.6-17.3c-4.7-8.9-7.3-19-7.3-29.7c0-35.3 28.7-64 64-64c10.7 0 20.9 2.6 29.7 7.3c7.1-13.1 13-27 17.3-41.6c1.3-4.2 5.7-6.6 9.9-5.4zM152.8 160.8c0-4.4 3.6-8 8-8l56 0c4.4 0 8 3.6 8 8l0 56c0 4.4-3.6 8-8 8s-8-3.6-8-8l0-35.1C184.3 197.3 168 224.8 168 256c0 48.6 39.4 88 88 88c4.4 0 8 3.6 8 8s-3.6 8-8 8c-57.4 0-104-46.6-104-104c0-36.5 18.8-68.7 47.3-87.2l-38.5 0c-4.4 0-8-3.6-8-8zM359.2 352c0 4.4-3.6 8-8 8l-56 0c-4.4 0-8-3.6-8-8l0-56c0-4.4 3.6-8 8-8s8 3.6 8 8l0 35.1C327.7 315.4 344 288 344 256.8c0-48.6-39.4-88-88-88c-4.4 0-8-3.6-8-8s3.6-8 8-8c57.4 0 104 46.6 104 104c0 36.5-18.8 68.7-47.3 87.2l38.5 0c4.4 0 8 3.6 8 8zM464 96a48 48 0 1 0 -96 0 48 48 0 1 0 96 0zM96 144a48 48 0 1 0 0-96 48 48 0 1 0 0 96zM464 416a48 48 0 1 0 -96 0 48 48 0 1 0 96 0zM96 464a48 48 0 1 0 0-96 48 48 0 1 0 0 96z"/></svg>