<svg xmlns="http://www.w3.org/2000/svg" viewBox="0 0 640 512"><!--! Font Awesome Pro 6.6.0 by @fontawesome - https://fontawesome.com License - https://fontawesome.com/license (Commercial License) Copyright 2024 Fonticons, Inc. --><path d="M16 72c0-4.4-3.6-8-8-8s-8 3.6-8 8L0 248 0 440c0 4.4 3.6 8 8 8s8-3.6 8-8l0-184 288 0 0 184c0 4.4 3.6 8 8 8s8-3.6 8-8l0-192 0-176c0-4.4-3.6-8-8-8s-8 3.6-8 8l0 168L16 240 16 72zm492.9-6.3c-3.5-2.7-8.5-2.1-11.2 1.4L383.3 213.3C363 239.2 352 271.1 352 304c0 0 0 0 0 0c0 79.5 64.5 144 144 144s144-64.5 144-144s-64.5-144-144-144c-22 0-42.8 4.9-61.5 13.7l75.8-96.8c2.7-3.5 2.1-8.5-1.4-11.2zM368 304c0-.7 0-1.3 0-2c1.1-69.8 58-126 128-126c70.7 0 128 57.3 128 128s-57.3 128-128 128s-128-57.3-128-128c0 0 0 0 0 0z"/></svg>