<svg xmlns="http://www.w3.org/2000/svg" viewBox="0 0 640 512"><!--! Font Awesome Pro 6.6.0 by @fontawesome - https://fontawesome.com License - https://fontawesome.com/license (Commercial License) Copyright 2024 Fonticons, Inc. --><path d="M72 32c-6.1 0-11.6 3.4-14.3 8.8l-40 80c-4 7.9-.7 17.5 7.2 21.5l288 144c7.9 4 17.5 .7 21.5-7.2l64-128c4-7.9 .7-17.5-7.2-21.5l-192-96c-2.2-1.1-4.7-1.7-7.2-1.7L72 32zM43.4 33.7C48.8 22.8 59.9 16 72 16l120 0c5 0 9.9 1.2 14.3 3.4l192 96c15.8 7.9 22.2 27.1 14.3 42.9l-64 128c-7.9 15.8-27.1 22.2-42.9 14.3l-97.9-48.9s0 0 0 0l-14.3-7.2s0 0 0 0l-57.2-28.6s0 0 0 0L122 208.8s0 0 0 0L17.7 156.6C1.9 148.7-4.5 129.5 3.4 113.7l40-80zM5.1 442.5L107.7 237.4l14.3 7.2L19.4 449.7c-7.9 15.8-1.5 35 14.3 42.9l-7.2 14.3C2.8 495.1-6.8 466.3 5.1 442.5zm21.5 64.4l7.2-14.3c15.8 7.9 35 1.5 42.9-14.3L179.2 273.2l14.3 7.2L90.9 485.5c-11.9 23.7-40.7 33.3-64.4 21.5zM282.9 380.3L295.1 331c5 2.1 10.2 3.6 15.4 4.3l-12.1 48.8 97.1-48.9c3.3-1.7 7.3-.9 9.7 1.9l66.5 77.8 22.3-97.8c.8-3.7 4.2-6.3 7.9-6.2l108.7 2-69.3-83.8c-2.4-3-2.4-7.2 0-10.2l69.3-83.8-108.7 2c-3.8 .1-7.1-2.5-7.9-6.2L471.8 33.1 421.3 92c-2.7-1.9-5.6-3.7-8.7-5.3L407.1 84l52.5-61.3c8.5-10 24.8-6 27.8 6.8L508.2 121l102.2-1.8c13.7-.2 21.3 15.7 12.6 26.2L558 224l65.1 78.7c8.7 10.5 1.1 26.4-12.6 26.2L508.2 327l-20.9 91.4c-2.9 12.8-19.2 16.8-27.8 6.8l-62.4-73-91.5 46.1c-12.2 6.2-26-4.9-22.7-18.1z"/></svg>