<svg xmlns="http://www.w3.org/2000/svg" viewBox="0 0 384 512"><!--! Font Awesome Pro 6.6.0 by @fontawesome - https://fontawesome.com License - https://fontawesome.com/license (Commercial License) Copyright 2024 Fonticons, Inc. --><path d="M64 464c0 17.7 14.3 32 32 32s32-14.3 32-32l0-152 0-56-56 0c-2.7 0-5.4-.1-8-.4L64 464zm64-224s0 0 0 0l16 0s0 0 0 0l32 0c17.7 0 32-14.3 32-32s-14.3-32-32-32l-72 0c-4.4 0-8-3.6-8-8s3.6-8 8-8l72 0c18.5 0 34.6 10.5 42.6 25.9C227.4 175 240.9 168 256 168s28.6 7 37.4 17.9c8-15.4 24.1-25.9 42.6-25.9c12.3 0 23.5 4.6 32 12.2l0-20.2c0-75.1-60.9-136-136-136l-80 0C76.9 16 16 76.9 16 152l0 32c0 30.9 25.1 56 56 56l56 0zm16 16l0 56c0 17.7 14.3 32 32 32s32-14.3 32-32l0-31.9c0 0 0 0 0-.1l0-36.2c-8.5 7.6-19.7 12.2-32 12.2l-32 0zm0 91.8L144 464c0 26.5-21.5 48-48 48s-48-21.5-48-48l0-212.1C20 242 0 215.3 0 184l0-32C0 68.1 68.1 0 152 0l80 0c83.9 0 152 68.1 152 152l0 56 0 24 0 32c0 26.5-21.5 48-48 48c-13.8 0-26.3-5.8-35-15.2C294.2 315 276.6 328 256 328c-12.4 0-23.6-4.7-32.1-12.3C222 340.5 201.3 360 176 360c-12.3 0-23.5-4.6-32-12.2zM224 240l0 40c0 17.7 14.3 32 32 32c17.7 0 32-14.3 32-32l0-16 0-48c0-17.7-14.3-32-32-32s-32 14.3-32 32l0 24zm144-8l0-24c0-17.7-14.3-32-32-32s-32 14.3-32 32l0 8 0 48c0 17.7 14.3 32 32 32s32-14.3 32-32l0-32z"/></svg>