<svg xmlns="http://www.w3.org/2000/svg" viewBox="0 0 512 512"><!--! Font Awesome Pro 6.6.0 by @fontawesome - https://fontawesome.com License - https://fontawesome.com/license (Commercial License) Copyright 2024 Fonticons, Inc. --><path d="M464 128c17.7 0 32 14.3 32 32s-14.3 32-32 32l-152 0-56 0 0-56c0-2.7-.1-5.4-.4-8L464 128zM240 192s0 0 0 0l0 16s0 0 0 0l0 32c0 17.7-14.3 32-32 32s-32-14.3-32-32l0-72c0-4.4-3.6-8-8-8s-8 3.6-8 8l0 72c0 18.5 10.5 34.6 25.9 42.6C175 291.4 168 304.9 168 320s7 28.6 17.9 37.4c-15.4 8-25.9 24.1-25.9 42.6c0 12.3 4.6 23.5 12.2 32L152 432C76.9 432 16 371.1 16 296l0-80C16 140.9 76.9 80 152 80l32 0c30.9 0 56 25.1 56 56l0 56zm16 16l56 0c17.7 0 32 14.3 32 32s-14.3 32-32 32l-31.9 0c0 0 0 0-.1 0l-36.2 0c7.6-8.5 12.2-19.7 12.2-32l0-32zm91.8 0L464 208c26.5 0 48-21.5 48-48s-21.5-48-48-48l-212.1 0C242 84 215.3 64 184 64l-32 0C68.1 64 0 132.1 0 216l0 80c0 83.9 68.1 152 152 152l56 0 24 0 32 0c26.5 0 48-21.5 48-48c0-13.8-5.8-26.3-15.2-35c18.2-6.8 31.2-24.4 31.2-45c0-12.4-4.7-23.6-12.3-32.1C340.5 286 360 265.3 360 240c0-12.3-4.6-23.5-12.2-32zM240 288l40 0c17.7 0 32 14.3 32 32c0 17.7-14.3 32-32 32l-16 0-48 0c-17.7 0-32-14.3-32-32s14.3-32 32-32l24 0zm-8 144l-24 0c-17.7 0-32-14.3-32-32s14.3-32 32-32l8 0 48 0c17.7 0 32 14.3 32 32s-14.3 32-32 32l-32 0z"/></svg>