<svg xmlns="http://www.w3.org/2000/svg" viewBox="0 0 640 512"><!--! Font Awesome Pro 6.6.0 by @fontawesome - https://fontawesome.com License - https://fontawesome.com/license (Commercial License) Copyright 2024 Fonticons, Inc. --><path d="M328 8c0-4.4-3.6-8-8-8s-8 3.6-8 8l0 24.3c-11.4 .9-23.5 4.2-33.5 10.4c-12.8 7.9-22.5 20.9-22.4 39.4c.1 17 9.2 28.1 21.2 35.7c11.1 7 25.5 11.6 38.7 15.8l1.4 .5c14.2 4.5 27 8.7 36.4 14.9c8.9 5.9 14 13 14.2 23.8c.2 12.9-5.6 21.5-14.3 27.1c-9 5.9-21.4 8.6-33.4 8.2c-15.4-.5-29.8-5.7-45.6-11.3c-2.6-.9-5.3-1.9-8-2.9c-4.2-1.5-8.7 .7-10.2 4.9s.7 8.7 4.9 10.2c2.5 .9 5 1.8 7.6 2.7c0 0 0 0 0 0s0 0 0 0s0 0 0 0c13.4 4.8 27.8 10 43.1 11.8l0 24.6c0 4.4 3.6 8 8 8s8-3.6 8-8l0-24.2c12-.7 24.3-4 34.4-10.6c12.8-8.3 21.8-21.9 21.6-40.7c-.2-17.5-9.2-29-21.3-37c-11.6-7.7-26.7-12.4-40.4-16.8l-.2-.1c-14.2-4.5-26.9-8.5-36.2-14.4C277 98.6 272.1 92 272.1 82c-.1-11.9 5.8-20.1 14.8-25.7c9.3-5.8 21.7-8.5 33-8.3c13 .2 26.7 3.2 40 6.9c4.3 1.2 8.7-1.3 9.9-5.6s-1.3-8.7-5.6-9.9c-11.3-3.2-23.7-6-36.2-7L328 8zM96 112c0-26.5-21.5-48-48-48S0 85.5 0 112L0 344.2c0 27.6 11 54 30.5 73.5l91.9 91.9c3.1 3.1 8.2 3.1 11.3 0s3.1-8.2 0-11.3L41.8 406.5C25.3 390 16 367.6 16 344.2L16 112c0-17.7 14.3-32 32-32s32 14.3 32 32l0 147c0 20.7 8.2 40.6 22.9 55.2l19.5 19.5 55.9 55.9s0 0 0 0l8 8c3.1 3.1 8.2 3.1 11.3 0s3.1-8.2 0-11.3l-8-8s0 0 0 0l-55.9-55.9s0 0 0 0c-10.6-10.6-11.3-27.6-1.5-39.1c10.9-12.7 30.3-13.5 42.2-1.6l92.8 92.7c13.3 13.3 20.8 31.4 20.8 50.3l0 79.2c0 4.4 3.6 8 8 8s8-3.6 8-8l0-79.2c0-23.1-9.2-45.3-25.5-61.6l-92.8-92.8c-18.4-18.4-48.7-17.3-65.6 2.5c-6.2 7.2-9.7 15.9-10.6 24.7C100.8 286.7 96 273.1 96 259l0-147zM592 64c-26.5 0-48 21.5-48 48l0 147c0 14.1-4.8 27.8-13.5 38.7c-.9-8.8-4.4-17.5-10.6-24.7c-17-19.8-47.2-21-65.6-2.5l-92.7 92.8c-16.3 16.3-25.5 38.5-25.5 61.6l0 79.2c0 4.4 3.6 8 8 8s8-3.6 8-8l0-79.2c0-18.9 7.5-37 20.8-50.3l92.8-92.7c11.8-11.9 31.3-11.1 42.2 1.6c9.8 11.4 9.1 28.4-1.5 39.1c0 0 0 0 0 0l-55.9 55.9s0 0 0 0l-8 8c-3.1 3.1-3.1 8.2 0 11.3s8.2 3.1 11.3 0l8-8 55.9-55.9 19.5-19.5C551.8 299.5 560 279.7 560 259l0-147c0-17.7 14.3-32 32-32s32 14.3 32 32l0 232.2c0 23.3-9.3 45.7-25.8 62.2l-91.9 91.9c-3.1 3.1-3.1 8.2 0 11.3s8.2 3.1 11.3 0l91.9-91.9c19.5-19.5 30.5-46 30.5-73.5L640 112c0-26.5-21.5-48-48-48z"/></svg>