<svg xmlns="http://www.w3.org/2000/svg" viewBox="0 0 576 512"><!--! Font Awesome Pro 6.6.0 by @fontawesome - https://fontawesome.com License - https://fontawesome.com/license (Commercial License) Copyright 2024 Fonticons, Inc. --><path d="M224 16l-80 0c-17.7 0-32 14.3-32 32l0 160c0 17.7 14.3 32 32 32l288 0c17.7 0 32-14.3 32-32l0-160c0-17.7-14.3-32-32-32l-80 0 0 120c0 2.9-1.5 5.5-4 6.9s-5.5 1.4-8 0l-52-29.7-52 29.7c-2.5 1.4-5.5 1.4-8 0s-4-4.1-4-6.9l0-120zm8-16L344 0l88 0c26.5 0 48 21.5 48 48l0 160c0 26.5-21.5 48-48 48l-288 0c-26.5 0-48-21.5-48-48L96 48c0-26.5 21.5-48 48-48l88 0zm8 16l0 106.2 44-25.2c2.5-1.4 5.5-1.4 7.9 0l44 25.2L336 16l-96 0zM555.3 345.8c-7.9-10.7-22.9-12.9-33.6-5.1L404.2 427.3c-4.1 3-9.1 4.7-14.2 4.7L268 432c-15.5 0-28-12.5-28-28s12.5-28 28-28l80 0c11 0 20-9 20-20s-9-20-20-20l-154.3 0c-25.4 0-50.1 8.7-70 24.5L81 394.7c-4.3 3.4-9.5 5.3-15 5.3L8 400c-4.4 0-8-3.6-8-8s3.6-8 8-8l58 0c1.8 0 3.6-.6 5-1.8L113.7 348c22.7-18.2 50.9-28 80-28L348 320c19.9 0 36 16.1 36 36s-16.1 36-36 36l-80 0c-6.6 0-12 5.4-12 12s5.4 12 12 12l121.9 0c1.7 0 3.4-.5 4.7-1.6l117.6-86.6c17.8-13.1 42.8-9.3 55.9 8.5s9.3 42.8-8.5 55.9L433.1 485.5c-23.4 17.2-51.6 26.5-80.7 26.5L8 512c-4.4 0-8-3.6-8-8s3.6-8 8-8l344.5 0c25.6 0 50.6-8.2 71.2-23.4l126.6-93.3c10.7-7.9 12.9-22.9 5.1-33.6z"/></svg>