<svg xmlns="http://www.w3.org/2000/svg" viewBox="0 0 640 512"><!--! Font Awesome Pro 6.6.0 by @fontawesome - https://fontawesome.com License - https://fontawesome.com/license (Commercial License) Copyright 2024 Fonticons, Inc. --><path d="M13 1.7C9.5-1 4.5-.4 1.7 3S-.4 11.5 3 14.3l624 496c3.5 2.7 8.5 2.2 11.2-1.3s2.2-8.5-1.3-11.2L13 1.7zM398.2 399.3l-20-15.8c2.1 11.7-1.1 24.2-9.6 33.7c-15.4 17.3-42.2 18.1-58.6 1.7l-11.1-11.1c-1.7-1.7-4-2.5-6.4-2.3s-4.5 1.5-5.9 3.5c-1.9 2.8-4.2 5.4-6.9 7.8c-16.9 15.1-42.7 14.4-58.8-1.6l-39.9-39.9-20.6-20.6c-12-12-28.3-18.7-45.3-18.7l-3.4 0 0-162.7L96 160.7 96 368c0 8.8-7.2 16-16 16l-48 0c-8.8 0-16-7.2-16-16l0-208c0-8.8 7.2-16 16-16l42.8 0L54.6 128 32 128c-17.7 0-32 14.3-32 32L0 368c0 17.7 14.3 32 32 32l48 0c17.7 0 32-14.3 32-32l0-16 3.4 0c12.7 0 24.9 5.1 33.9 14.1l20.6 20.6 15.4 15.4c0 0 0 0 .1 .1l24.4 24.3c22.1 22.1 57.5 23.1 80.8 2.2c1.2-1.1 2.3-2.2 3.4-3.3l4.8 4.8c22.9 22.9 60.3 21.8 81.9-2.4c7.9-8.8 12.4-19.5 13.8-30.4c1.3 .7 2.5 1.3 3.8 1.9zM211.3 88.6C225.4 83 240.5 80 255.9 80l21.2 0L294 64l-38.1 0c-20.5 0-40.6 4.6-58.9 13.4l14.2 11.2zm56.4 44.5l12.7 10 36.5-34.6c19.3-18.3 45-28.5 71.6-28.5c24.5 0 48.2 8.6 67 24.4L496 138.5l0-20.9L465.8 92.2C444.1 74 416.7 64 388.5 64c-30.7 0-60.3 11.8-82.6 32.9l-38.2 36.2zm81.9 64.6l12.7 10L375 195.9c3.2-3 3.4-8.1 .5-11.3s-8.1-3.4-11.3-.5l-14.7 13.6zM605.7 400l2.3 0c17.7 0 32-14.3 32-32l0-208c0-17.7-14.3-32-32-32l-64 0-8 0-8 0 0 16 0 192-3.4 0L544 351.3 544 144l64 0c8.8 0 16 7.2 16 16l0 208c0 8.8-7.2 16-16 16l-22.6 0 20.3 16z"/></svg>