<svg xmlns="http://www.w3.org/2000/svg" viewBox="0 0 384 512"><!--! Font Awesome Pro 6.6.0 by @fontawesome - https://fontawesome.com License - https://fontawesome.com/license (Commercial License) Copyright 2024 Fonticons, Inc. --><path d="M158 34.1l-90.2 222c1.4-.1 2.8-.1 4.2-.1l58.6 0L211.9 56c7.8-19.1-6.3-40-26.9-40c-11.8 0-22.5 7.2-26.9 18.1zM226.7 62L147.9 256l28.1 0c12.3 0 23.5 4.6 32 12.2l0-36.2c0-26.5 21.5-48 48-48c20.6 0 38.2 13 45 31.2c8.8-9.3 21.2-15.2 35-15.2c26.5 0 48 21.5 48 48l0 32 0 24 0 56c0 83.9-68.1 152-152 152l-80 0C68.1 512 0 443.9 0 360l0-32c0-31.8 20.6-58.7 49.1-68.3l22.3-55L19 61.2C8.1 31.5 30.1 0 61.7 0C80.9 0 98 11.9 104.5 29.9l18 49.1 20.7-50.9C150.1 11.1 166.6 0 184.9 0c32 0 53.8 32.4 41.7 62zM113.5 101.1l-.9-2.4L89.5 35.4C85.2 23.8 74.2 16 61.7 16C41.2 16 26.9 36.4 34 55.7L80.4 182.6l33.1-81.5zM176 352l-72 0c-4.4 0-8-3.6-8-8s3.6-8 8-8l72 0c17.7 0 32-14.3 32-32s-14.3-32-32-32L72 272c-30.9 0-56 25.1-56 56l0 32c0 75.1 60.9 136 136 136l80 0c75.1 0 136-60.9 136-136l0-20.2c-8.5 7.6-19.7 12.2-32 12.2c-18.5 0-34.6-10.5-42.6-25.9C284.6 337 271.1 344 256 344s-28.6-7-37.4-17.9c-8 15.4-24.1 25.9-42.6 25.9zm192-72l0-32c0-17.7-14.3-32-32-32s-32 14.3-32 32l0 48 0 8c0 17.7 14.3 32 32 32s32-14.3 32-32l0-24zM256 200c-17.7 0-32 14.3-32 32l0 64c0 17.7 14.3 32 32 32s32-14.3 32-32l0-48 0-16c0-17.7-14.3-32-32-32z"/></svg>