<svg xmlns="http://www.w3.org/2000/svg" viewBox="0 0 512 512"><!--! Font Awesome Pro 6.6.0 by @fontawesome - https://fontawesome.com License - https://fontawesome.com/license (Commercial License) Copyright 2024 Fonticons, Inc. --><path d="M0 112C0 85.5 21.5 64 48 64l245.6 0c34.2 0 66.2 16.8 85.6 45L493.6 274.8c12 17.4 18.4 38 18.4 59L512 440c0 4.4-3.6 8-8 8s-8-3.6-8-8l0-106.1c0-17.8-5.4-35.3-15.6-50L366 118c-16.4-23.8-43.5-38-72.4-38L48 80c-17.7 0-32 14.3-32 32s14.3 32 32 32l192 0c35.3 0 64 28.7 64 64s-28.7 64-64 64l-128 0c-17.7 0-32 14.3-32 32s14.3 32 32 32l154.8 0c5.1 0 10 1.6 14.1 4.6l77.2 56.2c6.2 4.5 9.9 11.7 9.9 19.4l0 23.9c0 4.4-3.6 8-8 8s-8-3.6-8-8l0-23.9c0-2.6-1.2-5-3.3-6.5l-77.2-56.1c-1.4-1-3-1.5-4.7-1.5L112 352c-26.5 0-48-21.5-48-48s21.5-48 48-48l128 0c26.5 0 48-21.5 48-48s-21.5-48-48-48L48 160c-26.5 0-48-21.5-48-48z"/></svg>