<svg xmlns="http://www.w3.org/2000/svg" viewBox="0 0 576 512"><!--! Font Awesome Pro 6.6.0 by @fontawesome - https://fontawesome.com License - https://fontawesome.com/license (Commercial License) Copyright 2024 Fonticons, Inc. --><path d="M96 384l17.5 0 83.1-189.9c15.5-35.5 42.3-64.8 76.2-83.6L442 17.2c1.4-.8 2.9-1.2 4.5-1.2c2.3 0 4.4 .8 6.1 2.3l105.1 91 10.5-12.1-10.5 12.1c1.4 1.2 2.3 3.1 2.3 5c0 1.1-.3 2.2-.8 3.1l-46 85.5-11.9-31.6c-6.2-16.4-21.8-27.3-39.4-27.3c-14.1 0-27.2 7-35 18.7l-13.8 20.7c-8.6 12.8-13.1 27.9-13.1 43.3c0 10.9 2.3 21.7 6.7 31.7L462.5 384l17.5 0L421.4 252c-3.5-7.9-5.4-16.5-5.4-25.2c0-12.3 3.6-24.3 10.4-34.5l13.8-20.7c4.8-7.2 13-11.6 21.7-11.6c10.9 0 20.6 6.7 24.4 16.9L501 216c1.8 4.8 6.4 8 11.6 8c4.6 0 8.8-2.5 10.9-6.5L573.3 125c1.8-3.3 2.7-7 2.7-10.7c0-6.5-2.8-12.8-7.8-17.1L463.2 6.2c-4.6-4-10.5-6.2-16.6-6.2c-4.3 0-8.5 1.1-12.3 3.2L265 96.5c-37 20.4-66.2 52.4-83.2 91.2L96 384zm457.4 48c3.7 0 6.6 3 6.6 6.6c0 1.9-.7 2.9-1.3 3.4c-17.9 15.2-70.9 54-142.7 54l-256 0c-71.8 0-124.8-38.8-142.7-54c-.6-.5-1.3-1.6-1.3-3.4c0-3.7 3-6.6 6.6-6.6l530.7 0zM22.6 416C10.1 416 0 426.1 0 438.6c0 6 2.4 11.7 6.9 15.6C25.9 470.3 82.6 512 160 512l256 0c77.4 0 134.1-41.7 153.1-57.8c4.6-3.9 6.9-9.6 6.9-15.6c0-12.5-10.1-22.6-22.6-22.6L22.6 416zM304 336c17.7 0 32 14.3 32 32l0 16 16 0 0-16c0-26.5-21.5-48-48-48l-32 0c-26.5 0-48 21.5-48 48l0 16 16 0 0-16c0-17.7 14.3-32 32-32l32 0z"/></svg>