<svg xmlns="http://www.w3.org/2000/svg" viewBox="0 0 512 512"><!--! Font Awesome Pro 6.6.0 by @fontawesome - https://fontawesome.com License - https://fontawesome.com/license (Commercial License) Copyright 2024 Fonticons, Inc. --><path d="M269.5 23.4c3.6 5.7 10.4 8.5 16.9 7c5.2-1.2 10.8 .3 14.8 4.3s5.5 9.6 4.3 14.8c-1.5 6.6 1.4 13.3 7 16.9c4.5 2.9 7.4 7.9 7.4 13.5s-2.9 10.6-7.4 13.5c-5.7 3.6-8.5 10.4-7 16.9c1.2 5.2-.3 10.8-4.3 14.8s-9.6 5.5-14.8 4.3c-6.6-1.5-13.3 1.4-16.9 7c-2.9 4.5-7.9 7.4-13.5 7.4s-10.6-2.9-13.5-7.4c-3.6-5.7-10.4-8.5-16.9-7c-5.2 1.2-10.8-.3-14.8-4.3s-5.5-9.6-4.3-14.8c1.5-6.6-1.4-13.3-7-16.9c-4.5-2.9-7.4-7.9-7.4-13.5s2.9-10.6 7.4-13.5c5.7-3.6 8.5-10.4 7-16.9c-1.2-5.2 .3-10.8 4.3-14.8s9.6-5.5 14.8-4.3c6.6 1.5 13.3-1.4 16.9-7c2.9-4.5 7.9-7.4 13.5-7.4s10.6 2.9 13.5 7.4zM336 80c0-11.3-5.9-21.3-14.8-27c2.3-10.3-.6-21.5-8.6-29.6s-19.3-10.9-29.6-8.6C277.3 5.9 267.3 0 256 0s-21.3 5.9-27 14.8c-10.3-2.3-21.5 .6-29.6 8.6s-10.9 19.3-8.6 29.6C181.9 58.7 176 68.7 176 80s5.9 21.3 14.8 27c-2.3 10.3 .6 21.5 8.6 29.6s19.3 10.9 29.6 8.6c5.7 8.9 15.7 14.8 27 14.8s21.3-5.9 27-14.8c10.3 2.3 21.5-.6 29.6-8.6s10.9-19.3 8.6-29.6c8.9-5.7 14.8-15.7 14.8-27zM16 456c0-22.1 17.9-40 40-40l400 0c22.1 0 40 17.9 40 40s-17.9 40-40 40L56 496c-22.1 0-40-17.9-40-40zM0 456c0 30.9 25.1 56 56 56l400 0c30.9 0 56-25.1 56-56s-25.1-56-56-56L56 400c-30.9 0-56 25.1-56 56zM162.5 134.6C64.3 188.2 39.4 321.8 33.6 368l16.1 0c.8-6.4 2-14.4 3.7-23.6c.9-5 2-10.4 3.3-16l2.5-1.1 58.2-25.9c6.6-2.9 14.1-2.7 20.5 .5L174.1 320c11.3 5.6 24.5 5.6 35.8 0l35.4-17.7c6.8-3.4 14.7-3.4 21.5 0L302.1 320c11.3 5.6 24.5 5.6 35.8 0l36.2-18.1c6.4-3.2 13.9-3.4 20.5-.5l58.2 25.9 2.5 1.1c1.3 5.6 2.3 11 3.3 16c1.7 9.1 2.9 17.1 3.7 23.6l16.1 0c-5.8-46.2-30.7-179.8-128.8-233.4c-1.4 5.1-3.6 10.1-6.5 14.7c42.3 23.5 70 63.5 88.3 105.1c8.2 18.5 14.4 37.1 19 54.3L401 286.8c-10.9-4.9-23.4-4.6-34.1 .8l-36.2 18.1c-6.8 3.4-14.7 3.4-21.5 0L273.9 288c-11.3-5.6-24.5-5.6-35.8 0l-35.4 17.7c-6.8 3.4-14.7 3.4-21.5 0l-36.2-18.1c-10.7-5.3-23.2-5.6-34.1-.8L61.6 308.7c4.7-17.2 10.8-35.8 19-54.3c18.3-41.6 46-81.6 88.3-105.1c-2.9-4.6-5.1-9.6-6.5-14.7z"/></svg>