<svg xmlns="http://www.w3.org/2000/svg" viewBox="0 0 448 512"><!--! Font Awesome Pro 6.6.0 by @fontawesome - https://fontawesome.com License - https://fontawesome.com/license (Commercial License) Copyright 2024 Fonticons, Inc. --><path d="M0 40c0-4.4 3.6-8 8-8l64 0 64 0c4.4 0 8 3.6 8 8s-3.6 8-8 8L80 48l0 192 288 0 0-192-56 0c-4.4 0-8-3.6-8-8s3.6-8 8-8l64 0 64 0c4.4 0 8 3.6 8 8s-3.6 8-8 8l-56 0 0 200 0 216 56 0c4.4 0 8 3.6 8 8s-3.6 8-8 8l-64 0-64 0c-4.4 0-8-3.6-8-8s3.6-8 8-8l56 0 0-208L80 256l0 208 56 0c4.4 0 8 3.6 8 8s-3.6 8-8 8l-64 0L8 480c-4.4 0-8-3.6-8-8s3.6-8 8-8l56 0 0-216L64 48 8 48c-4.4 0-8-3.6-8-8z"/></svg>