<svg xmlns="http://www.w3.org/2000/svg" viewBox="0 0 640 512"><!--! Font Awesome Pro 6.6.0 by @fontawesome - https://fontawesome.com License - https://fontawesome.com/license (Commercial License) Copyright 2024 Fonticons, Inc. --><path d="M222.9 16C108.6 16 16 108.6 16 222.9c0 49.4 15.8 94.6 43.9 130C71.5 367.5 80 385.5 80 405.3L80 504c0 4.4-3.6 8-8 8s-8-3.6-8-8l0-98.7c0-15.1-6.5-29.8-16.6-42.5C16.9 324.5 0 275.8 0 222.9C0 99.8 99.8 0 222.9 0l16.8 0c77.9 0 149.4 46.9 180.9 114.2c3.8 8 7.3 16 10.8 23.9c6.2 13.9 12.3 27.6 19.3 41c10.8 20.7 23.3 39.5 40 54.4l3.8 3.4c11.1 9.9 17.5 24.1 17.5 39c0 28.8-23.4 52.2-52.2 52.2L448 328s0 0 0 0l0 8 0 24c0 4-2.9 7.4-6.9 7.9l-92.8 13.3c-7.1 1-12.3 7.1-12.3 14.2c0 7.5 5.7 13.7 13.2 14.3l75.5 6.3c4.1 .3 7.3 3.8 7.3 8l0 8c0 26.5-21.5 48-48 48l-64 0 0 24c0 4.4-3.6 8-8 8s-8-3.6-8-8l0-32c0-4.4 3.6-8 8-8l72 0c17.7 0 32-14.3 32-32l0-.6-68.1-5.7c-15.7-1.3-27.9-14.5-27.9-30.3c0-15.1 11.1-27.9 26.1-30.1L432 353.1l0-17.1 0-8 0-8c0-4.4 3.6-8 8-8l19.8 0c20 0 36.2-16.2 36.2-36.2c0-10.3-4.4-20.2-12.1-27l-3.8-3.4c-18.8-16.7-32.3-37.3-43.5-58.9c-7.2-13.8-13.7-28.4-20.1-42.7c-3.5-7.8-6.9-15.5-10.4-22.9C377.2 59.3 311.4 16 239.7 16l-16.8 0zM320 208a16 16 0 1 1 32 0 16 16 0 1 1 -32 0zm304 80a16 16 0 1 1 0 32 16 16 0 1 1 0-32zm-80 64a16 16 0 1 1 32 0 16 16 0 1 1 -32 0zm-64 48a16 16 0 1 1 32 0 16 16 0 1 1 -32 0zm128 0a16 16 0 1 1 32 0 16 16 0 1 1 -32 0zm16 80a16 16 0 1 1 0 32 16 16 0 1 1 0-32zm-80-32a16 16 0 1 1 32 0 16 16 0 1 1 -32 0z"/></svg>