<svg xmlns="http://www.w3.org/2000/svg" viewBox="0 0 512 512"><!--! Font Awesome Pro 6.6.0 by @fontawesome - https://fontawesome.com License - https://fontawesome.com/license (Commercial License) Copyright 2024 Fonticons, Inc. --><path d="M240 458.1l0-355.5-7.3-7.3c-29-29-70.2-42.2-110.6-35.5C60.9 70.1 16 123 16 185.1l0 5.8c0 37.1 15.4 72.5 42.5 97.8L240 458.1zm-3.3 18.8L47.6 300.4C17.2 272.1 0 232.4 0 190.9l0-5.8c0-69.9 50.5-129.5 119.4-141C165 36.5 211.4 51.4 244 84l12 12 0 372.5c0 6.3-5.1 11.5-11.5 11.5c-2.9 0-5.7-1.1-7.8-3.1z"/></svg>