<svg xmlns="http://www.w3.org/2000/svg" viewBox="0 0 640 512"><!--! Font Awesome Pro 6.6.0 by @fontawesome - https://fontawesome.com License - https://fontawesome.com/license (Commercial License) Copyright 2024 Fonticons, Inc. --><path d="M136 0c-4.4 0-8 3.6-8 8s3.6 8 8 8l216 0 0 128-219.5 0L96.2 83.4C89 71.4 75.9 64 61.9 64L36.5 64C20.9 64 9.4 78.7 13.2 93.8l23.2 93c3 11.9 11.3 21.9 22.6 26.9l123.3 54.8c3.2 1.4 6 3.5 8.3 6.1l97.8 111.8C296 395 307 400 318.5 400l.5 0 .5 0 .5 0 .5 0 .5 0 .5 0 .5 0 .5 0 .5 0 .5 0 .5 0 .5 0 .5 0 .5 0 .5 0 .5 0 .5 0 .5 0 .5 0 .5 0 .5 0 .5 0 .5 0 .5 0 .5 0 .5 0 .5 0 .5 0 .5 0 .5 0 .5 0 .5 0 .5 0 .5 0 .5 0 .5 0 .5 0 .5 0 .5 0 .5 0 .5 0 .5 0 .5 0 .5 0 .5 0 .5 0 .5 0 .4 0 .4 0 .5 0 .4 0 .4 0 .4 0 .4 0 .4 0 .4 0 .4 0 .4 0 .4 0 .4 0 .4 0 .4 0 .4 0 .4 0 .4 0 .4 0 .4 0 .4 0 .4 0 .4 0 .4 0 .4 0 .4 0 .4 0 .4 0 .4 0 .4 0 .4 0 .4 0 .4 0 .4 0 .4 0 .4 0 .4 0 .4 0 .4 0 .4 0 .4 0 .4 0 .4 0 .4 0 .4 0 .4 0 .4 0 .4 0 .4 0 .4 0 .4 0 .4 0 .4 0 .4 0 .4 0 .4 0 .4 0 .4 0 .4 0 .4 0 .4 0 .4 0 .4 0 .4 0 .4 0 .4 0 .4 0 .4 0 .4 0 .4 0 .4 0 .4 0 .4 0 .4 0 .4 0 .4 0 .4 0 .4 0 .4 0 .4 0 .4 0 .4 0 .4 0 .4 0 .4 0 .4 0 .4 0 .4 0 .4 0 .4 0 .4 0 .4 0 .4 0 .4 0 .4 0 .4 0 .4 0 .4 0 .4 0 .4 0 .4 0 .4 0 .4 0 .4 0 .4 0 .4 0 .4 0 .4 0 .4 0 .4 0 .4 0 .4 0 .4 0 .4 0 .4 0 .4 0 .4 0 .4 0 .4 0 .4 0 .4 0 .4 0 .4 0 .4 0 .4 0 .4 0 .4 0 .4 0 .4 0 .4 0 .4 0 .4 0 .4 0 .4 0 .4 0 .4 0 .4 0 .4 0 .4 0 .4 0 .4 0 .4 0 .4 0 .4 0 .4 0 .4 0 .4 0 .4 0 .4 0 .4 0 .4 0 .4 0 .4 0 .4 0 .4 0 .4 0 .4 0 .4 0 .4 0 .4 0 .4 0 .4 0 .4 0 .4 0 .4 0 .4 0 .4 0 .4 0 .4 0 .4 0 .4 0 .4 0 .4 0 .4 0 .4 0 .4 0 .4 0 .4 0 .4 0 .4 0 .4 0 .4 0 .4 0 .4 0 .4 0 .4 0 .4 0 .4 0 .4 0 .4 0 .4 0 .4 0 .4 0 .4 0 .4 0 .4 0 .4 0 .4 0 .4 0 .4 0 .4 0 .4 0 .4 0 .4 0 .4 0 .4 0 .4 0 .4 0 .4 0 .4 0 .4 0 .4 0 .4 0 .4 0 .4 0 .4 0 .4 0 .4 0 .4 0 .4 0 .4 0 .4 0 .4 0 .4 0 .4 0 .4 0 .4 0 .4 0 .4 0 .4 0 .4 0 .4 0 .4 0 .4 0 .4 0 .4 0 .4 0 .4 0 .4 0 .4 0 .4 0 .4 0 .4 0 .4 0 .4 0 .4 0 .4 0 .4 0 .4 0 .4 0 .4 0 .4 0 .4 0 .4 0 .4 0 .4 0 .4 0 .4 0 .4 0 .4 0 .4 0 .4 0 .4 0 .4 0 .4 0 .4 0 .4 0 .4 0 .4 0 .4 0 .4 0 .4 0 .4 0 .4 0 .4 0 .4 0 .4 0 .4 0 .4 0 .4 0 .4 0 .4 0 .4 0 .4 0 .4 0 .4 0 .4 0 .4 0 .4 0 .4 0 .4 0 .4 0 .4 0 .4 0 .4 0 .4 0 .4 0 .4 0 .4 0 .4 0 .4 0 .4 0 .4 0 .4 0 .4 0 .4 0 .4 0 .4 0 .4 0 .4 0 .4 0 .4 0 .4 0 .4 0 .4 0 .4 0 .4 0 .4 0 .4 0 .4 0 .4 0 .4 0 .4 0 .4 0 .4 0 .4 0 .4 0 .4 0 .4 0 .4 0 .4 0 .4 0 .4 0 .4 0 .4 0 .4 0 .4 0 .4 0 .4 0 .4 0 .4 0 .4 0 .4 0 .4 0 .4 0 .4 0 .4 0 .4 0 .4 0 .4 0 .4 0 .4 0 .4 0 .4 0 .4 0 .4 0 .4 0 .4 0 .4 0 .4 0 .4 0 .4 0 .4 0 .4 0 .4 0 .4 0 .4 0 .4 0 .4 0 .4 0 .4 0 .4 0 .4 0 .4 0 .4 0 .4 0 .4 0 .4 0 .4 0 .4 0 .4 0 .4 0 .4 0 .4 0 .4 0 .4 0 .4 0 .4 0 .4 0 .4 0 .4 0 .4 0 .4 0 .4 0 .4 0 .4 0 .4 0 .4 0 .4 0 .4 0 .4 0 .4 0 .4 0 .4 0 .4 0 .4 0 .4 0 .4 0 .4 0 .4 0 .4 0 .4 0 .4 0 .4 0 .4 0 .4 0 .4 0 .4 0 .4 0 .4 0 .4 0 .4 0 .4 0 .4 0 .4 0 .4 0 .4 0 .4 0 .4 0 .4 0 .4 0 .4 0 .4 0 .4 0 .4 0 .4 0 .4 0 .4 0 .4 0 .4 0 .4 0 .4 0 .4 0 .4 0 .4 0 .4 0 .4 0 .4 0 .4 0 .4 0 .4 0 .4 0 .4 0 .5 0 .4 0 .5 0 .4 0 .5 0 .5 0 .5 0 .5 0 .5 0 .5 0 .5 0 .5 0c22.1 0 40-17.9 40-40l0-80c0-75.1-60.9-136-136-136l-72 0 0-128 200 0c4.4 0 8-3.6 8-8s-3.6-8-8-8L136 0zM36.5 80l25.4 0c8.4 0 16.2 4.4 20.6 11.7l38.7 64.5c1.4 2.4 4 3.9 6.9 3.9l224 0 0 224-.3 0-.4 0-.4 0-.4 0-.4 0-.4 0-.4 0-.4 0-.4 0-.4 0-.4 0-.4 0-.4 0-.4 0-.4 0-.4 0-.4 0-.4 0-.4 0-.4 0-.4 0-.4 0-.4 0-.4 0-.5 0-.4 0-.4 0-.5 0-.5 0-.5 0-.5 0-.5 0-.5 0-.5 0-.5 0-.5 0-.5 0-.5 0-.5 0-.5 0-.5 0-.5 0-.5 0-.5 0-.5 0-.5 0-.5 0-.5 0-.5 0-.5 0-.5 0-.5 0-.5 0-.5 0-.5 0-.5 0-.5 0-.5 0-.5 0-.5 0-.5 0-.5 0-.5 0-.5 0-.5 0-.5 0-.5 0-.5 0-.5 0-.5 0-.5 0-.5 0-.5 0-.5 0c-6.9 0-13.5-3-18.1-8.2L202.7 264c-3.8-4.4-8.6-7.9-13.9-10.2L65.5 199c-6.8-3-11.7-8.9-13.5-16.1l-23.2-93c-1.3-5 2.6-9.9 7.8-9.9zM368.2 384l-.2 0 0-224 72 0c66.3 0 120 53.7 120 120l0 80c0 13.2-10.8 24-24 24l-.5 0-.5 0-.5 0-.5 0-.5 0-.5 0-.5 0-.5 0-.4 0-.5 0-.4 0-.5 0-.4 0-.4 0-.4 0-.4 0-.4 0-.4 0-.4 0-.4 0-.4 0-.4 0-.4 0-.4 0-.4 0-.4 0-.4 0-.4 0-.4 0-.4 0-.4 0-.4 0-.4 0-.4 0-.4 0-.4 0-.4 0-.4 0-.4 0-.4 0-.4 0-.4 0-.4 0-.4 0-.4 0-.4 0-.4 0-.4 0-.4 0-.4 0-.4 0-.4 0-.4 0-.4 0-.4 0-.4 0-.4 0-.4 0-.4 0-.4 0-.4 0-.4 0-.4 0-.4 0-.4 0-.4 0-.4 0-.4 0-.4 0-.4 0-.4 0-.4 0-.4 0-.4 0-.4 0-.4 0-.4 0-.4 0-.4 0-.4 0-.4 0-.4 0-.4 0-.4 0-.4 0-.4 0-.4 0-.4 0-.4 0-.4 0-.4 0-.4 0-.4 0-.4 0-.4 0-.4 0-.4 0-.4 0-.4 0-.4 0-.4 0-.4 0-.4 0-.4 0-.4 0-.4 0-.4 0-.4 0-.4 0-.4 0-.4 0-.4 0-.4 0-.4 0-.4 0-.4 0-.4 0-.4 0-.4 0-.4 0-.4 0-.4 0-.4 0-.4 0-.4 0-.4 0-.4 0-.4 0-.4 0-.4 0-.4 0-.4 0-.4 0-.4 0-.4 0-.4 0-.4 0-.4 0-.4 0-.4 0-.4 0-.4 0-.4 0-.4 0-.4 0-.4 0-.4 0-.4 0-.4 0-.4 0-.4 0-.4 0-.4 0-.4 0-.4 0-.4 0-.4 0-.4 0-.4 0-.4 0-.4 0-.4 0-.4 0-.4 0-.4 0-.4 0-.4 0-.4 0-.4 0-.4 0-.4 0-.4 0-.4 0-.4 0-.4 0-.4 0-.4 0-.4 0-.4 0-.4 0-.4 0-.4 0-.4 0-.4 0-.4 0-.4 0-.4 0-.4 0-.4 0-.4 0-.4 0-.4 0-.4 0-.4 0-.4 0-.4 0-.4 0-.4 0-.4 0-.4 0-.4 0-.4 0-.4 0-.4 0-.4 0-.4 0-.4 0-.4 0-.4 0-.4 0-.4 0-.4 0-.4 0-.4 0-.4 0-.4 0-.4 0-.4 0-.4 0-.4 0-.4 0-.4 0-.4 0-.4 0-.4 0-.4 0-.4 0-.4 0-.4 0-.4 0-.4 0-.4 0-.4 0-.4 0-.4 0-.4 0-.4 0-.4 0-.4 0-.4 0-.4 0-.4 0-.4 0-.4 0-.4 0-.4 0-.4 0-.4 0-.4 0-.4 0-.4 0-.4 0-.4 0-.4 0-.4 0-.4 0-.4 0-.4 0-.4 0-.4 0-.4 0-.4 0-.4 0-.4 0-.4 0-.4 0-.4 0-.4 0-.4 0-.4 0-.4 0-.4 0-.4 0-.4 0-.4 0-.4 0-.4 0-.4 0-.4 0-.4 0-.4 0-.4 0-.4 0-.4 0-.4 0-.4 0-.4 0-.4 0-.4 0-.4 0-.4 0-.4 0-.4 0-.4 0-.4 0-.4 0-.4 0-.4 0-.4 0-.4 0-.4 0-.4 0-.4 0-.4 0-.4 0-.4 0-.4 0-.4 0-.4 0-.4 0-.4 0-.4 0-.4 0-.4 0-.4 0-.4 0-.4 0-.4 0-.4 0-.4 0-.4 0-.4 0-.4 0-.4 0-.4 0-.4 0-.4 0-.4 0-.4 0-.4 0-.4 0-.4 0-.4 0-.4 0-.4 0-.4 0-.4 0-.4 0-.4 0-.4 0-.4 0-.4 0-.4 0-.4 0-.4 0-.4 0-.4 0-.4 0-.4 0-.4 0-.4 0-.4 0-.4 0-.4 0-.4 0-.4 0-.4 0-.4 0-.4 0-.4 0-.4 0-.4 0-.4 0-.4 0-.4 0-.4 0-.4 0-.4 0-.4 0-.4 0-.4 0-.4 0-.4 0-.4 0-.4 0-.4 0-.4 0-.4 0-.4 0-.4 0-.4 0-.4 0-.4 0-.4 0-.4 0-.4 0-.4 0-.4 0-.4 0-.4 0-.4 0-.4 0-.4 0-.4 0-.4 0-.4 0-.4 0-.4 0-.4 0-.4 0-.4 0zm269.9 77.1c2.8-3.4 2.4-8.4-1-11.3s-8.4-2.4-11.3 1l-20.8 25c-10.6 12.8-26.4 20.2-43 20.2l-330 0c-4.4 0-8 3.6-8 8s3.6 8 8 8l330 0c21.4 0 41.6-9.5 55.3-25.9l20.8-25z"/></svg>