<svg xmlns="http://www.w3.org/2000/svg" viewBox="0 0 512 512"><!--! Font Awesome Pro 6.6.0 by @fontawesome - https://fontawesome.com License - https://fontawesome.com/license (Commercial License) Copyright 2024 Fonticons, Inc. --><path d="M16 240l0 72c0 30.9 25.1 56 56 56l146.2 0 30.2-90.5c1.1-3.3 4.1-5.5 7.6-5.5l208 0 0-32C464 116.3 363.7 16 240 16S16 116.3 16 240zm464 0l0 32 24 0c4.4 0 8 3.6 8 8s-3.6 8-8 8l-32 0-104 0 0 208 104 0c4.4 0 8 3.6 8 8s-3.6 8-8 8l-112 0c-2 0-4-.8-5.5-2.2L220.8 384 72 384c-39.8 0-72-32.2-72-72l0-72C0 107.5 107.5 0 240 0S480 107.5 480 240zM261.8 288l-28.6 85.7L352 485.5 352 288l-90.2 0zm8.7-188.6L336 191l0-87c0-4.4 3.6-8 8-8s8 3.6 8 8l0 112c0 3.5-2.2 6.6-5.6 7.6s-6.9-.1-9-3L272 129l0 87c0 4.4-3.6 8-8 8s-8-3.6-8-8l0-112c0-3.5 2.2-6.6 5.6-7.6s6.9 .1 9 3zM144 104l0 72c0 17.7 14.3 32 32 32s32-14.3 32-32l0-72c0-4.4 3.6-8 8-8s8 3.6 8 8l0 72c0 26.5-21.5 48-48 48s-48-21.5-48-48l0-72c0-4.4 3.6-8 8-8s8 3.6 8 8z"/></svg>