<svg xmlns="http://www.w3.org/2000/svg" viewBox="0 0 576 512"><!--! Font Awesome Pro 6.6.0 by @fontawesome - https://fontawesome.com License - https://fontawesome.com/license (Commercial License) Copyright 2024 Fonticons, Inc. --><path d="M.8 218.8c-.5 2.2-.8 4.5-.8 6.8C0 242.4 13.6 256 30.4 256l2.2 0c17.1 0 31.3-13.2 32.5-30.2L80 17.1c.6-8.3-5.3-15.7-13.6-17s-16.1 4.1-18 12.2L.8 218.8zM64 16L49.1 224.6c-.6 8.7-7.8 15.4-16.5 15.4l-2.2 0c-7.9 0-14.4-6.4-14.4-14.4c0-1.1 .1-2.2 .4-3.2L64 16zM224.6 507.7c4.8 2.8 10.3 4.3 15.9 4.3c17.4 0 31.5-14.1 31.5-31.5l0-184.1c0-19.6-11.9-37.2-30.1-44.5l-59.5-23.9c-3.9-1.6-6.5-5.4-6.5-9.6c0-5.7 4.6-10.3 10.3-10.3l203.3 0c5.7 0 10.3 4.6 10.3 10.3c0 4.2-2.6 8-6.5 9.6l-59.5 23.9c-18.2 7.3-30.1 24.9-30.1 44.5l0 184.1c0 17.4 14.1 31.5 31.5 31.5c5.6 0 11.1-1.5 15.9-4.3l149.2-87.2c9.2-5.6 13.5-16.7 10.6-27.1C494.1 333.6 480 270.2 480 208c0-85-89.1-149.2-153.1-189c-1.9-1.2-4-2.6-6.3-4.1C311.2 8.4 298.7 0 288 0s-23.2 8.4-32.7 14.9c-2.3 1.5-4.4 3-6.3 4.1C185.1 58.8 96 123 96 208c0 62.2-14.1 125.6-31.1 185.4c-3 10.4 1.4 21.4 10.6 27.1l149.2 87.2zM83.7 406.8c-3-1.9-4.4-5.5-3.4-9c0 0 0 0 0 0C97.4 337.6 112 272.4 112 208c0-36.7 19.2-70.2 48.1-100.4c28.8-30.1 65.7-55.3 97.4-75c2.2-1.3 4.6-3 6.9-4.6c0 0 0 0 0 0s0 0 0 0l1.8-1.2c3-2 6-4 8.9-5.7c6.5-3.8 10.7-5.1 12.8-5.1s6.3 1.3 12.8 5.1c3 1.7 5.9 3.7 8.9 5.7l1.8 1.2c2.3 1.6 4.8 3.2 6.9 4.6c31.7 19.8 68.6 44.9 97.4 75C444.8 137.8 464 171.3 464 208c0 64.4 14.6 129.6 31.7 189.8c0 0 0 0 0 0c1 3.4-.4 7.1-3.4 9l-149 87.1c-2.4 1.4-5.1 2.1-7.8 2.1c-8.5 0-15.5-6.9-15.5-15.5l0-184.1c0-13.1 7.9-24.8 20-29.7l59.5-23.9c10-4 16.5-13.7 16.5-24.4c0-14.6-11.8-26.3-26.3-26.3l-203.3 0c-14.6 0-26.3 11.8-26.3 26.3c0 10.8 6.5 20.4 16.5 24.4L236 266.7c12.1 4.9 20 16.6 20 29.7l0 184.1c0 8.5-6.9 15.5-15.5 15.5c-2.7 0-5.4-.7-7.8-2.1l-149-87.1zM576 225.6c0-2.3-.3-4.6-.8-6.8L527.6 12.4c-1.9-8.1-9.7-13.5-18-12.2s-14.2 8.6-13.6 17l14.9 208.6c1.2 17 15.4 30.2 32.5 30.2l2.2 0c16.8 0 30.4-13.6 30.4-30.4zm-16.4-3.2c.2 1.1 .4 2.1 .4 3.2c0 7.9-6.4 14.4-14.4 14.4l-2.2 0c-8.7 0-15.9-6.7-16.5-15.4L512 16l47.6 206.4z"/></svg>