<svg xmlns="http://www.w3.org/2000/svg" viewBox="0 0 512 512"><!--! Font Awesome Pro 6.6.0 by @fontawesome - https://fontawesome.com License - https://fontawesome.com/license (Commercial License) Copyright 2024 Fonticons, Inc. --><path d="M400.8 450.8s0 0 0 0L497.1 284c2.5-4.3 4.4-8.9 5.6-13.6c2-7.7 2.4-15.7 1.1-23.6c-1.1-6.5-3.3-12.9-6.7-18.8L400.8 61.2c-10-17.3-28.5-28-48.5-28l-192.6 0c-20 0-38.5 10.7-48.5 28L14.9 228c-3.9 6.7-6.3 14.1-7.1 21.6c-1.4 11.8 1 23.9 7.1 34.4l96.3 166.8c10 17.3 28.5 28 48.5 28l192.6 0c20 0 38.5-10.7 48.5-28zM483.2 236c2.7 4.6 4.4 9.7 5 14.8l-2.7 20.4c-.7 1.6-1.5 3.2-2.3 4.8l-21.2 36.6-70.7-75.4c-12.6-13.5-34-13.5-46.7 0l-101 107.7-61.1-59.1c-12.6-12.1-32.5-12-44.9 .4L72.4 351.5 28.8 276c-3.6-6.2-5.4-13.1-5.4-20c0-3.4 .4-6.8 1.3-10.1c.9-3.4 2.2-6.8 4.1-9.9L125.1 69.2c7.1-12.4 20.4-20 34.6-20l192.6 0c14.3 0 27.5 7.6 34.6 20L483.2 236zM80.7 365.9L149 297.5c6.2-6.2 16.2-6.3 22.4-.2l61.3 59.3-94 100.2c-5.6-3.4-10.3-8.2-13.7-14.1L80.7 365.9zm306.3 76.9c-7.1 12.4-20.4 20-34.6 20l-192.6 0c-1.5 0-2.9-.1-4.4-.2l201-214.4c6.3-6.7 17-6.7 23.3 0l74 79L386.9 442.8zM192 208a48 48 0 1 0 0-96 48 48 0 1 0 0 96zm-32-48a32 32 0 1 1 64 0 32 32 0 1 1 -64 0z"/></svg>