<svg xmlns="http://www.w3.org/2000/svg" viewBox="0 0 512 512"><!--! Font Awesome Pro 6.6.0 by @fontawesome - https://fontawesome.com License - https://fontawesome.com/license (Commercial License) Copyright 2024 Fonticons, Inc. --><path d="M208 64a48 48 0 1 0 96 0 48 48 0 1 0 -96 0zm48 64A64 64 0 1 1 256 0a64 64 0 1 1 0 128zM112 257.3l0 54.7c0 30.9-25.1 56-56 56l-10.9 0c-7.2 0-13.1 5.9-13.1 13.1c0 .9 .1 1.7 .3 2.6l3 15c3.4 17 2.8 34.7-1.8 51.4l-7 25.6c-1.6 6 3.9 11.5 9.8 9.8l25.6-7c16.8-4.6 34.4-5.2 51.4-1.8l9.9 2c4.2 .8 8.4 1.3 12.7 1.3c4.4 0 8-3.6 8-8l0-25.3c0-43.5 35.2-78.7 78.7-78.7c5.5 0 9.3-5.4 7.6-10.5L226 344.6c-7-21-7.6-43.6-1.8-64.9l5.3-19.4c1.6-6-3.9-11.5-9.8-9.8l-19.4 5.3c-21.3 5.8-43.9 5.2-64.9-1.8l-12.8-4.3c-5.2-1.7-10.5 2.1-10.5 7.6zm15.6-22.8l12.8 4.3c18 6 37.3 6.5 55.6 1.5l19.4-5.3c17.9-4.9 34.4 11.6 29.5 29.5L239.6 284c-5 18.3-4.4 37.6 1.5 55.6l4.3 12.8c5.2 15.5-6.4 31.6-22.8 31.6c-34.6 0-62.7 28.1-62.7 62.7l0 25.3c0 13.3-10.7 24-24 24c-5.3 0-10.6-.5-15.8-1.6l-9.9-2c-14.6-2.9-29.7-2.4-44.1 1.5l-25.6 7c-17.9 4.9-34.4-11.6-29.5-29.5l7-25.6c3.9-14.4 4.4-29.5 1.5-44.1l-3-15c-.4-1.9-.6-3.8-.6-5.7C16 365 29 352 45.1 352L56 352c22.1 0 40-17.9 40-40l0-54.7c0-16.4 16-27.9 31.6-22.8zM169.5 80.3c1 5.4 2.5 10.7 4.5 15.7c-25.6 1-46 22.1-46 48c0 26.5 21.5 48 48 48c25.8 0 46.9-20.4 48-46c5 2 10.3 3.5 15.7 4.5C236.4 182.8 209.2 208 176 208c-35.3 0-64-28.7-64-64c0-33.2 25.2-60.4 57.5-63.7zm102.8 70.2c5.4-1 10.7-2.5 15.7-4.5c1 25.6 22.1 46 48 46c26.5 0 48-21.5 48-48c0-25.8-20.4-46.9-46-48c2-5 3.5-10.3 4.5-15.7C374.8 83.6 400 110.8 400 144c0 35.3-28.7 64-64 64c-33.2 0-60.4-25.2-63.7-57.5zM400.9 257.3c0-5.5-5.4-9.3-10.5-7.6L377.5 254c-21 7-43.6 7.6-64.9 1.8l-19.4-5.3c-6-1.6-11.5 3.9-9.8 9.8l5.3 19.4c5.8 21.3 5.2 43.9-1.8 64.9l-4.3 12.8c-1.7 5.2 2.1 10.5 7.6 10.5c43.5 0 78.7 35.2 78.7 78.7l0 25.3c0 4.4 3.6 8 8 8c4.3 0 8.5-.4 12.7-1.3l9.9-2c17-3.4 34.7-2.8 51.4 1.8l25.6 7c6 1.6 11.5-3.8 9.8-9.8l-7-25.6c-4.6-16.8-5.2-34.4-1.8-51.4l3-15c.2-.8 .3-1.7 .3-2.6c0-7.2-5.9-13.1-13.1-13.1l-10.9 0c-30.9 0-56-25.1-56-56l0-54.7zm-15.6-22.8c15.5-5.2 31.6 6.4 31.6 22.8l0 54.7c0 22.1 17.9 40 40 40l10.9 0c16.1 0 29.1 13 29.1 29.1c0 1.9-.2 3.8-.6 5.7l-3 15c-2.9 14.6-2.4 29.7 1.5 44.1l7 25.6c4.9 17.9-11.6 34.4-29.5 29.5l-25.6-7c-14.4-3.9-29.5-4.4-44.1-1.5l-9.9 2c-5.2 1-10.5 1.6-15.8 1.6c-13.3 0-24-10.7-24-24l0-25.3c0-34.6-28.1-62.7-62.7-62.7c-16.4 0-27.9-16-22.8-31.6l4.3-12.8c6-18 6.5-37.3 1.5-55.6L268 264.5c-4.9-17.9 11.6-34.4 29.5-29.5l19.4 5.3c18.3 5 37.6 4.4 55.6-1.5l12.8-4.3z"/></svg>