<svg xmlns="http://www.w3.org/2000/svg" viewBox="0 0 640 512"><!--! Font Awesome Pro 6.6.0 by @fontawesome - https://fontawesome.com License - https://fontawesome.com/license (Commercial License) Copyright 2024 Fonticons, Inc. --><path d="M160 64c0-35.3 28.7-64 64-64L416 0c35.3 0 64 28.7 64 64l0 32 104 0c30.9 0 56 25.1 56 56l0 304c0 30.9-25.1 56-56 56l-168 0s0 0 0 0l-32 0-8 0-112 0-8 0-32 0s0 0 0 0L56 512c-30.9 0-56-25.1-56-56L0 152c0-30.9 25.1-56 56-56l104 0 0-32zm304 0c0-26.5-21.5-48-48-48L224 16c-26.5 0-48 21.5-48 48l0 32 0 16 0 384 80 0 0-80c0-35.3 28.7-64 64-64s64 28.7 64 64l0 80 80 0 0-160 0-224 0-16 0-32zm120 48l-104 0 0 224 0 160 104 0c22.1 0 40-17.9 40-40l0-152-104 0c-4.4 0-8-3.6-8-8s3.6-8 8-8l104 0 0-80-104 0c-4.4 0-8-3.6-8-8s3.6-8 8-8l104 0 0-40c0-22.1-17.9-40-40-40zm-424 0L56 112c-22.1 0-40 17.9-40 40l0 40 104 0c4.4 0 8 3.6 8 8s-3.6 8-8 8L16 208l0 80 104 0c4.4 0 8 3.6 8 8s-3.6 8-8 8L16 304l0 152c0 22.1 17.9 40 40 40l104 0 0-384zM368 416c0-26.5-21.5-48-48-48s-48 21.5-48 48l0 80 96 0 0-80zM312 56l16 0c13.3 0 24 10.7 24 24l0 16 16 0c13.3 0 24 10.7 24 24l0 16c0 13.3-10.7 24-24 24l-16 0 0 16c0 13.3-10.7 24-24 24l-16 0c-13.3 0-24-10.7-24-24l0-16-16 0c-13.3 0-24-10.7-24-24l0-16c0-13.3 10.7-24 24-24l16 0 0-16c0-13.3 10.7-24 24-24zm-8 24l0 24c0 4.4-3.6 8-8 8l-24 0c-4.4 0-8 3.6-8 8l0 16c0 4.4 3.6 8 8 8l24 0c4.4 0 8 3.6 8 8l0 24c0 4.4 3.6 8 8 8l16 0c4.4 0 8-3.6 8-8l0-24c0-4.4 3.6-8 8-8l24 0c4.4 0 8-3.6 8-8l0-16c0-4.4-3.6-8-8-8l-24 0c-4.4 0-8-3.6-8-8l0-24c0-4.4-3.6-8-8-8l-16 0c-4.4 0-8 3.6-8 8z"/></svg>