<svg xmlns="http://www.w3.org/2000/svg" viewBox="0 0 512 512"><!--! Font Awesome Pro 6.6.0 by @fontawesome - https://fontawesome.com License - https://fontawesome.com/license (Commercial License) Copyright 2024 Fonticons, Inc. --><path d="M8 0C3.6 0 0 3.6 0 8s3.6 8 8 8l24 0 0 480L8 496c-4.4 0-8 3.6-8 8s3.6 8 8 8l200 0 8 0 80 0 8 0 200 0c4.4 0 8-3.6 8-8s-3.6-8-8-8l-24 0 0-480 24 0c4.4 0 8-3.6 8-8s-3.6-8-8-8L8 0zM288 432l0 64-64 0 0-64c0-17.7 14.3-32 32-32s32 14.3 32 32zm16 0c0-26.5-21.5-48-48-48s-48 21.5-48 48l0 64L48 496 48 16l416 0 0 480-160 0 0-64zM328 96l0 32c0 13.3 10.7 24 24 24l32 0c13.3 0 24-10.7 24-24l0-32c0-13.3-10.7-24-24-24l-32 0c-13.3 0-24 10.7-24 24zm24-8l32 0c4.4 0 8 3.6 8 8l0 32c0 4.4-3.6 8-8 8l-32 0c-4.4 0-8-3.6-8-8l0-32c0-4.4 3.6-8 8-8zM240 72c-13.3 0-24 10.7-24 24l0 32c0 13.3 10.7 24 24 24l32 0c13.3 0 24-10.7 24-24l0-32c0-13.3-10.7-24-24-24l-32 0zm-8 24c0-4.4 3.6-8 8-8l32 0c4.4 0 8 3.6 8 8l0 32c0 4.4-3.6 8-8 8l-32 0c-4.4 0-8-3.6-8-8l0-32zM216 224l0 32c0 13.3 10.7 24 24 24l32 0c13.3 0 24-10.7 24-24l0-32c0-13.3-10.7-24-24-24l-32 0c-13.3 0-24 10.7-24 24zm24-8l32 0c4.4 0 8 3.6 8 8l0 32c0 4.4-3.6 8-8 8l-32 0c-4.4 0-8-3.6-8-8l0-32c0-4.4 3.6-8 8-8zm112-16c-13.3 0-24 10.7-24 24l0 32c0 13.3 10.7 24 24 24l32 0c13.3 0 24-10.7 24-24l0-32c0-13.3-10.7-24-24-24l-32 0zm-8 24c0-4.4 3.6-8 8-8l32 0c4.4 0 8 3.6 8 8l0 32c0 4.4-3.6 8-8 8l-32 0c-4.4 0-8-3.6-8-8l0-32zM104 96l0 32c0 13.3 10.7 24 24 24l32 0c13.3 0 24-10.7 24-24l0-32c0-13.3-10.7-24-24-24l-32 0c-13.3 0-24 10.7-24 24zm24-8l32 0c4.4 0 8 3.6 8 8l0 32c0 4.4-3.6 8-8 8l-32 0c-4.4 0-8-3.6-8-8l0-32c0-4.4 3.6-8 8-8zm0 112c-13.3 0-24 10.7-24 24l0 32c0 13.3 10.7 24 24 24l32 0c13.3 0 24-10.7 24-24l0-32c0-13.3-10.7-24-24-24l-32 0zm-8 24c0-4.4 3.6-8 8-8l32 0c4.4 0 8 3.6 8 8l0 32c0 4.4-3.6 8-8 8l-32 0c-4.4 0-8-3.6-8-8l0-32zm70.4 141.3c16.1-18 39.5-29.3 65.6-29.3s49.5 11.3 65.6 29.3c2.9 3.3 8 3.6 11.3 .6s3.6-8 .6-11.3c-19-21.3-46.7-34.7-77.5-34.7s-58.5 13.4-77.5 34.7c-2.9 3.3-2.7 8.3 .6 11.3s8.3 2.7 11.3-.6z"/></svg>