<svg xmlns="http://www.w3.org/2000/svg" viewBox="0 0 640 512"><!--! Font Awesome Pro 6.6.0 by @fontawesome - https://fontawesome.com License - https://fontawesome.com/license (Commercial License) Copyright 2024 Fonticons, Inc. --><path d="M282.7 2c3-2.7 7.6-2.7 10.6 0l215 190.4c-4.1-.3-8.2-.4-12.3-.4c-4 0-8 .1-11.9 .4L288 18.7 80 202.9 80 448c0 26.5 21.5 48 48 48l247.2 0c6.1 5.8 12.7 11.1 19.6 16L128 512c-35.3 0-64-28.7-64-64l0-230.9L13.3 262c-3.3 2.9-8.4 2.6-11.3-.7S-.6 252.9 2.7 250L282.7 2zm84.6 246c-4.7 5.1-9.1 10.4-13.3 16l-34 0c-4.4 0-8-3.6-8-8l0-56c0-4.4-3.6-8-8-8l-32 0c-4.4 0-8 3.6-8 8l0 56c0 4.4-3.6 8-8 8l-56 0c-4.4 0-8 3.6-8 8l0 32c0 4.4 3.6 8 8 8l56 0c4.4 0 8 3.6 8 8l0 56c0 4.4 3.6 8 8 8l32 0c4.4 0 8-3.6 8-8l8.2 0c.2 5.5 .7 10.9 1.5 16.3C317.3 397 311 400 304 400l-32 0c-13.3 0-24-10.7-24-24l0-48-48 0c-13.3 0-24-10.7-24-24l0-32c0-13.3 10.7-24 24-24l48 0 0-48c0-13.3 10.7-24 24-24l32 0c13.3 0 24 10.7 24 24l0 48 39.3 0zM624 368a128 128 0 1 0 -256 0 128 128 0 1 0 256 0zm-272 0a144 144 0 1 1 288 0 144 144 0 1 1 -288 0zm155.3 0l50.3 50.3c3.1 3.1 3.1 8.2 0 11.3s-8.2 3.1-11.3 0L496 379.3l-50.3 50.3c-3.1 3.1-8.2 3.1-11.3 0s-3.1-8.2 0-11.3L484.7 368l-50.3-50.3c-3.1-3.1-3.1-8.2 0-11.3s8.2-3.1 11.3 0L496 356.7l50.3-50.3c3.1-3.1 8.2-3.1 11.3 0s3.1 8.2 0 11.3L507.3 368z"/></svg>