<svg xmlns="http://www.w3.org/2000/svg" viewBox="0 0 640 512"><!--! Font Awesome Pro 6.6.0 by @fontawesome - https://fontawesome.com License - https://fontawesome.com/license (Commercial License) Copyright 2024 Fonticons, Inc. --><path d="M404.1 25c6.4-7 17.4-7 23.7 0l131.2 145c.6 .7 .9 1.5 .9 2.4c0 2-1.6 3.6-3.5 3.6L488 176c-3.1 0-5.9 1.8-7.2 4.6s-.9 6.1 1 8.5L590 321.5c1.3 1.6 2 3.6 2 5.6c0 4.9-4 8.9-8.9 8.9L504 336c-3.2 0-6 1.9-7.3 4.8s-.7 6.3 1.4 8.6L622.3 485.3c1.1 1.2 1.7 2.7 1.7 4.3c0 3.5-2.9 6.4-6.4 6.4l-208.2 0c-2.5 5.7-5.6 11.1-9.3 16l217.6 0c12.4 0 22.4-10 22.4-22.4c0-5.6-2.1-11-5.9-15.1L522.2 352l61 0c13.7 0 24.9-11.1 24.9-24.9c0-5.7-2-11.3-5.6-15.7L504.9 192l51.6 0c10.8 0 19.5-8.8 19.5-19.6c0-4.8-1.8-9.5-5.1-13.1L439.7 14.3c-12.7-14-34.8-14-47.5 0L290.5 126.8l11.8 10.8L404.1 25zM16 280.6c0-11.2 4.7-21.9 13-29.5L165 126.5c15.3-14 38.8-14 54.1 0L355 251.1c8.3 7.6 13 18.3 13 29.5L368 456c0 22.1-17.9 40-40 40L56 496c-22.1 0-40-17.9-40-40l0-175.4zM0 456c0 30.9 25.1 56 56 56l272 0c30.9 0 56-25.1 56-56l0-175.4c0-15.7-6.6-30.7-18.2-41.3l-136-124.7c-21.4-19.6-54.3-19.6-75.7 0L18.2 239.4C6.6 250 0 264.9 0 280.6L0 456zM224 280c4.4 0 8 3.6 8 8l0 64c0 4.4-3.6 8-8 8l-64 0c-4.4 0-8-3.6-8-8l0-64c0-4.4 3.6-8 8-8l64 0zm-64-16c-13.3 0-24 10.7-24 24l0 64c0 13.3 10.7 24 24 24l64 0c13.3 0 24-10.7 24-24l0-64c0-13.3-10.7-24-24-24l-64 0z"/></svg>