<svg xmlns="http://www.w3.org/2000/svg" viewBox="0 0 576 512"><!--! Font Awesome Pro 6.6.0 by @fontawesome - https://fontawesome.com License - https://fontawesome.com/license (Commercial License) Copyright 2024 Fonticons, Inc. --><path d="M293.3 2c-3-2.7-7.6-2.7-10.6 0L2.7 250c-3.3 2.9-3.6 8-.7 11.3s8 3.6 11.3 .7L64 217.1 64 393c5.1-2.9 10.5-5.1 16-6.5l0-183.6L288 18.7 496 202.9l0 183.6c5.5 1.4 10.9 3.6 16 6.5l0-175.9L562.7 262c3.3 2.9 8.4 2.6 11.3-.7s2.6-8.4-.7-11.3L293.3 2zM216 208l0 96c0 13.3 10.7 24 24 24l96 0c13.3 0 24-10.7 24-24l0-96c0-13.3-10.7-24-24-24l-96 0c-13.3 0-24 10.7-24 24zm24-8l96 0c4.4 0 8 3.6 8 8l0 96c0 4.4-3.6 8-8 8l-96 0c-4.4 0-8-3.6-8-8l0-96c0-4.4 3.6-8 8-8zm54.6 235.4c-3-4.3-10.2-4.3-13.2 0c-8 11.2-17.5 21.4-27.6 30.7C236.6 481.8 214.5 496 192 496s-44.6-14.2-61.8-29.9c-10.1-9.2-19.7-19.5-27.6-30.7c-1.5-2.1-3.9-3.4-6.6-3.4s-5.1 1.3-6.6 3.4c-7.3 10.3-15.9 19.6-25 28.3C48.7 478.5 28.3 492.9 7 495.6c-4.4 .6-7.5 4.6-6.9 8.9s4.6 7.5 8.9 6.9c26.5-3.3 50-20.7 66.4-36.1c8.8-8.3 15.9-16.4 20.6-22.2c5.2 6.4 13.2 15.6 23.4 24.8c18 16.3 43.9 34.1 72.6 34.1s54.6-17.8 72.6-34.1c10.2-9.2 18.2-18.4 23.4-24.8c0 0 0 0 0 0c0 0 0 0 0 0c5.2 6.4 13.3 15.6 23.4 24.8c18 16.3 43.9 34.1 72.6 34.1s54.6-17.8 72.6-34.1c10.2-9.2 18.2-18.4 23.4-24.8c4.7 5.8 11.8 13.9 20.6 22.2c16.4 15.4 39.9 32.8 66.4 36.1c4.4 .6 8.4-2.6 8.9-6.9s-2.6-8.4-6.9-8.9c-21.3-2.7-41.7-17.1-57.4-31.9c-9.1-8.6-17.7-18-25-28.3c-1.5-2.1-3.9-3.4-6.6-3.4s-5.1 1.3-6.6 3.4c-7.9 11.2-17.5 21.5-27.6 30.7C428.6 481.8 406.5 496 384 496s-44.6-14.2-61.8-29.9c-10.1-9.2-19.6-19.5-27.6-30.7z"/></svg>