<svg xmlns="http://www.w3.org/2000/svg" viewBox="0 0 576 512"><!--! Font Awesome Pro 6.6.0 by @fontawesome - https://fontawesome.com License - https://fontawesome.com/license (Commercial License) Copyright 2024 Fonticons, Inc. --><path d="M282.7 2c3-2.7 7.6-2.7 10.6 0L384 82.3 384 56c0-13.3 10.7-24 24-24l80 0c13.3 0 24 10.7 24 24l0 139.7L573.3 250c3.3 2.9 3.6 8 .7 11.3s-8 3.6-11.3 .7L512 217.1 512 448c0 35.3-28.7 64-64 64l-320 0c-35.3 0-64-28.7-64-64l0-230.9L13.3 262c-3.3 2.9-8.4 2.6-11.3-.7S-.6 252.9 2.7 250L282.7 2zM496 181.5L496 56c0-4.4-3.6-8-8-8l-80 0c-4.4 0-8 3.6-8 8l0 40.5 96 85zM384 103.7l-96-85L80 202.9 80 448c0 26.5 21.5 48 48 48l153.1 0-55.7-83.6c-1.2-1.8-1.6-4.1-1.1-6.3s1.9-4 3.8-5.1l102.1-58.4L226.8 254.1c-3.4-2.9-3.7-7.9-.9-11.3s7.9-3.7 11.3-.9l112 96c2 1.7 3 4.2 2.8 6.8s-1.7 4.9-4 6.2L243.4 410.7 300.3 496 448 496c26.5 0 48-21.5 48-48l0-245.1L384.3 104l-.3 0 0-.3z"/></svg>