<svg xmlns="http://www.w3.org/2000/svg" viewBox="0 0 576 512"><!--! Font Awesome Pro 6.6.0 by @fontawesome - https://fontawesome.com License - https://fontawesome.com/license (Commercial License) Copyright 2024 Fonticons, Inc. --><path d="M64 80c-26.5 0-48 21.5-48 48l0 256c0 26.5 21.5 48 48 48l448 0c26.5 0 48-21.5 48-48l0-256c0-26.5-21.5-48-48-48L64 80zM0 128C0 92.7 28.7 64 64 64l448 0c35.3 0 64 28.7 64 64l0 256c0 35.3-28.7 64-64 64L64 448c-35.3 0-64-28.7-64-64L0 128zM88 336c-4.4 0-8 3.6-8 8l0 16c0 4.4 3.6 8 8 8l16 0c4.4 0 8-3.6 8-8l0-16c0-4.4-3.6-8-8-8l-16 0zm-24 8c0-13.3 10.7-24 24-24l16 0c13.3 0 24 10.7 24 24l0 16c0 13.3-10.7 24-24 24l-16 0c-13.3 0-24-10.7-24-24l0-16zm328-8l-208 0c-4.4 0-8 3.6-8 8l0 16c0 4.4 3.6 8 8 8l208 0c4.4 0 8-3.6 8-8l0-16c0-4.4-3.6-8-8-8zM184 320l208 0c13.3 0 24 10.7 24 24l0 16c0 13.3-10.7 24-24 24l-208 0c-13.3 0-24-10.7-24-24l0-16c0-13.3 10.7-24 24-24zM88 240c-4.4 0-8 3.6-8 8l0 16c0 4.4 3.6 8 8 8l16 0c4.4 0 8-3.6 8-8l0-16c0-4.4-3.6-8-8-8l-16 0zm-24 8c0-13.3 10.7-24 24-24l16 0c13.3 0 24 10.7 24 24l0 16c0 13.3-10.7 24-24 24l-16 0c-13.3 0-24-10.7-24-24l0-16zm136-8l-16 0c-4.4 0-8 3.6-8 8l0 16c0 4.4 3.6 8 8 8l16 0c4.4 0 8-3.6 8-8l0-16c0-4.4-3.6-8-8-8zm-16-16l16 0c13.3 0 24 10.7 24 24l0 16c0 13.3-10.7 24-24 24l-16 0c-13.3 0-24-10.7-24-24l0-16c0-13.3 10.7-24 24-24zm96 16c-4.4 0-8 3.6-8 8l0 16c0 4.4 3.6 8 8 8l16 0c4.4 0 8-3.6 8-8l0-16c0-4.4-3.6-8-8-8l-16 0zm-24 8c0-13.3 10.7-24 24-24l16 0c13.3 0 24 10.7 24 24l0 16c0 13.3-10.7 24-24 24l-16 0c-13.3 0-24-10.7-24-24l0-16zm136-8l-16 0c-4.4 0-8 3.6-8 8l0 16c0 4.4 3.6 8 8 8l16 0c4.4 0 8-3.6 8-8l0-16c0-4.4-3.6-8-8-8zm-16-16l16 0c13.3 0 24 10.7 24 24l0 16c0 13.3-10.7 24-24 24l-16 0c-13.3 0-24-10.7-24-24l0-16c0-13.3 10.7-24 24-24zm96 16c-4.4 0-8 3.6-8 8l0 16c0 4.4 3.6 8 8 8l16 0c4.4 0 8-3.6 8-8l0-16c0-4.4-3.6-8-8-8l-16 0zm-24 8c0-13.3 10.7-24 24-24l16 0c13.3 0 24 10.7 24 24l0 16c0 13.3-10.7 24-24 24l-16 0c-13.3 0-24-10.7-24-24l0-16zm40 88l-16 0c-4.4 0-8 3.6-8 8l0 16c0 4.4 3.6 8 8 8l16 0c4.4 0 8-3.6 8-8l0-16c0-4.4-3.6-8-8-8zm-16-16l16 0c13.3 0 24 10.7 24 24l0 16c0 13.3-10.7 24-24 24l-16 0c-13.3 0-24-10.7-24-24l0-16c0-13.3 10.7-24 24-24zM88 144c-4.4 0-8 3.6-8 8l0 16c0 4.4 3.6 8 8 8l16 0c4.4 0 8-3.6 8-8l0-16c0-4.4-3.6-8-8-8l-16 0zm-24 8c0-13.3 10.7-24 24-24l16 0c13.3 0 24 10.7 24 24l0 16c0 13.3-10.7 24-24 24l-16 0c-13.3 0-24-10.7-24-24l0-16zm136-8l-16 0c-4.4 0-8 3.6-8 8l0 16c0 4.4 3.6 8 8 8l16 0c4.4 0 8-3.6 8-8l0-16c0-4.4-3.6-8-8-8zm-16-16l16 0c13.3 0 24 10.7 24 24l0 16c0 13.3-10.7 24-24 24l-16 0c-13.3 0-24-10.7-24-24l0-16c0-13.3 10.7-24 24-24zm96 16c-4.4 0-8 3.6-8 8l0 16c0 4.4 3.6 8 8 8l16 0c4.4 0 8-3.6 8-8l0-16c0-4.4-3.6-8-8-8l-16 0zm-24 8c0-13.3 10.7-24 24-24l16 0c13.3 0 24 10.7 24 24l0 16c0 13.3-10.7 24-24 24l-16 0c-13.3 0-24-10.7-24-24l0-16zm136-8l-16 0c-4.4 0-8 3.6-8 8l0 16c0 4.4 3.6 8 8 8l16 0c4.4 0 8-3.6 8-8l0-16c0-4.4-3.6-8-8-8zm-16-16l16 0c13.3 0 24 10.7 24 24l0 16c0 13.3-10.7 24-24 24l-16 0c-13.3 0-24-10.7-24-24l0-16c0-13.3 10.7-24 24-24zm96 16c-4.4 0-8 3.6-8 8l0 16c0 4.4 3.6 8 8 8l16 0c4.4 0 8-3.6 8-8l0-16c0-4.4-3.6-8-8-8l-16 0zm-24 8c0-13.3 10.7-24 24-24l16 0c13.3 0 24 10.7 24 24l0 16c0 13.3-10.7 24-24 24l-16 0c-13.3 0-24-10.7-24-24l0-16z"/></svg>