<svg xmlns="http://www.w3.org/2000/svg" viewBox="0 0 640 512"><!--! Font Awesome Pro 6.6.0 by @fontawesome - https://fontawesome.com License - https://fontawesome.com/license (Commercial License) Copyright 2024 Fonticons, Inc. --><path d="M101.7 178.3c-3.1-3.1-8.2-3.1-11.3 0s-3.1 8.2 0 11.3l104 104c3.1 3.1 8.2 3.1 11.3 0s3.1-8.2 0-11.3l-104-104zM312 240c0 4.4 3.6 8 8 8s8-3.6 8-8l0-144c0-4.4-3.6-8-8-8s-8 3.6-8 8l0 144zm122.3 42.3c-3.1 3.1-3.1 8.2 0 11.3s8.2 3.1 11.3 0l104-104c3.1-3.1 3.1-8.2 0-11.3s-8.2-3.1-11.3 0l-104 104zM0 408c0 4.4 3.6 8 8 8l112 0c4.4 0 8-3.6 8-8s-3.6-8-8-8L8 400c-4.4 0-8 3.6-8 8zm200-8c-4.4 0-8 3.6-8 8s3.6 8 8 8l240 0c4.4 0 8-3.6 8-8s-3.6-8-8-8l-240 0zm320 0c-4.4 0-8 3.6-8 8s3.6 8 8 8l112 0c4.4 0 8-3.6 8-8s-3.6-8-8-8l-112 0z"/></svg>