<svg xmlns="http://www.w3.org/2000/svg" viewBox="0 0 448 512"><!--! Font Awesome Pro 6.6.0 by @fontawesome - https://fontawesome.com License - https://fontawesome.com/license (Commercial License) Copyright 2024 Fonticons, Inc. --><path d="M97.2 25.8l-80 192c-2.1 4.9-1.5 10.6 1.5 15s8 7.1 13.3 7.1l384 0c5.4 0 10.3-2.7 13.3-7.1s3.5-10.1 1.5-15l-80-192c-2.5-6-8.3-9.8-14.8-9.8L112 16c-6.5 0-12.3 3.9-14.8 9.8zM82.5 19.7C87.4 7.8 99.1 0 112 0L336 0c12.9 0 24.6 7.8 29.5 19.7l80 192c4.1 9.9 3 21.2-2.9 30.1s-15.9 14.2-26.6 14.2L32 256c-10.7 0-20.7-5.3-26.6-14.2s-7-20.2-2.9-30.1l80-192zM160 312.2l0-24.2 16 0 0 24.2c0 9.8-4.5 18.7-11.2 24.7c-7.4 6.6-20.9 19.9-32.4 37.1c-11.6 17.3-20.4 37.4-20.4 58c0 20.7 7 38.2 14.2 50.6c4.7 8.2 15 13.4 28.3 13.4l139 0c13.3 0 23.5-5.2 28.3-13.4C329 470.2 336 452.7 336 432c0-20.6-8.8-40.6-20.4-58c-11.5-17.2-25-30.4-32.4-37.1c-6.7-6-11.2-14.9-11.2-24.7l0-24.2 16 0 0 24.2c0 4.9 2.2 9.5 5.9 12.8C309.7 339.3 352 382 352 432c0 24.4-8.3 44.6-16.4 58.7c-8.5 14.7-25.2 21.3-42.1 21.3l-139 0c-17 0-33.6-6.6-42.1-21.3C104.3 476.6 96 456.4 96 432c0-50 42.3-92.7 58.1-107c3.6-3.3 5.9-7.9 5.9-12.8z"/></svg>