<svg xmlns="http://www.w3.org/2000/svg" viewBox="0 0 512 512"><!--! Font Awesome Pro 6.6.0 by @fontawesome - https://fontawesome.com License - https://fontawesome.com/license (Commercial License) Copyright 2024 Fonticons, Inc. --><path d="M381.3 80L480 80c6.5 0 12.3 3.9 14.8 9.9s1.1 12.9-3.5 17.4l-192 192c-4.6 4.6-11.5 5.9-17.4 3.5s-9.9-8.3-9.9-14.8l0-98.7c0-4.2-1.7-8.3-4.7-11.3l-38.1-38.1C215.6 126.3 208 107.8 208 88.6C208 48.5 240.5 16 280.6 16c19.2 0 37.7 7.6 51.3 21.3l38.1 38.1c3 3 7.1 4.7 11.3 4.7zm0-16L343.2 25.9C326.6 9.3 304.1 0 280.6 0C231.7 0 192 39.7 192 88.6c0 23.5 9.3 46 25.9 62.6l1.8 1.8-97.4 97.4c-2 2-2.8 4.9-2.1 7.7l61.4 238L8 496c-4.4 0-8 3.6-8 8s3.6 8 8 8l184 0 184 0c4.4 0 8-3.6 8-8s-3.6-8-8-8l-177.8 0L136.9 258.4 231 164.3l25 25 0 98.7c0 12.9 7.8 24.6 19.8 29.6s25.7 2.2 34.9-6.9l192-192c9.2-9.2 11.9-22.9 6.9-34.9s-16.6-19.8-29.6-19.8l-98.7 0zM386 280.5c9 4.8 19.2 7.5 30 7.5c35.3 0 64-28.7 64-64c0-10.9-2.7-21.1-7.5-30l-12 12c2.2 5.6 3.5 11.6 3.5 18c0 26.5-21.5 48-48 48c-6.4 0-12.4-1.2-18-3.5l-12 12z"/></svg>