<svg xmlns="http://www.w3.org/2000/svg" viewBox="0 0 448 512"><!--! Font Awesome Pro 6.6.0 by @fontawesome - https://fontawesome.com License - https://fontawesome.com/license (Commercial License) Copyright 2024 Fonticons, Inc. --><path d="M368 48c-7.6 0-14.9 1.3-21.6 3.7c-17.8 6.4-39.6 11.3-61.3 6.5c-67.2-15-140.6 12.3-193.5 65.3s-80.2 126.4-65.3 193.5c4.8 21.7-.1 43.4-6.5 61.3c-2.4 6.7-3.7 14-3.7 21.6c0 35.3 28.7 64 64 64c7.6 0 14.9-1.3 21.6-3.7c17.8-6.4 39.6-11.3 61.3-6.5c67.2 15 140.6-12.3 193.5-65.3s80.2-126.4 65.3-193.5c-4.8-21.7 .1-43.4 6.5-61.3c2.4-6.7 3.7-14 3.7-21.6c0-35.3-28.7-64-64-64zm0-16c44.2 0 80 35.8 80 80c0 9.5-1.7 18.6-4.7 27.1c-6 16.7-9.8 35-5.9 52.4c16.4 73.7-13.7 152.4-69.6 208.3s-134.7 86-208.3 69.6c-17.3-3.9-35.7-.1-52.4 5.9c-8.4 3-17.6 4.7-27.1 4.7c-44.2 0-80-35.8-80-80c0-9.5 1.7-18.6 4.7-27.1c6-16.7 9.8-35 5.9-52.4C-5.8 246.9 24.3 168.2 80.2 112.2s134.7-86 208.3-69.6c17.3 3.9 35.7 .1 52.4-5.9c8.4-3 17.6-4.7 27.1-4.7zM219.1 119.4l-16.9 7.1c-48.7 20.3-87.4 59-107.7 107.7l-7.1 16.9c-1.7 4.1-6.4 6-10.5 4.3s-6-6.4-4.3-10.5L79.7 228c21.9-52.6 63.7-94.4 116.3-116.3l16.9-7.1c4.1-1.7 8.8 .2 10.5 4.3s-.2 8.8-4.3 10.5z"/></svg>