<svg xmlns="http://www.w3.org/2000/svg" viewBox="0 0 640 512"><!--! Font Awesome Pro 6.6.0 by @fontawesome - https://fontawesome.com License - https://fontawesome.com/license (Commercial License) Copyright 2024 Fonticons, Inc. --><path d="M451.5 267.2c-2.1 3.1-4.3 6.2-6.6 9.3l12.6 9.9c2.4-3.4 4.8-6.7 7.2-10.1c19.8-28.5 31.4-63 31.4-100.3C496 78.8 417.2 0 320 0C263.5 0 213.1 26.7 180.9 68.1L193.5 78c29.3-37.7 75-62 126.5-62c88.4 0 160 71.6 160 160c0 33.9-10.5 65.3-28.5 91.2zM228.7 105.8l12.6 9.9C257.3 94 283 80 312 80c4.4 0 8-3.6 8-8s-3.6-8-8-8c-34.1 0-64.4 16.4-83.3 41.8zM399.7 424.3L389.2 416l-138.5 0c-5.9 0-10.7 4.8-10.7 10.7l0 5.3c0 44.2 35.8 80 80 80s80-35.8 80-80l0-5.3c0-.8-.1-1.6-.3-2.4zM152 228.8c5.4 17.1 13.3 33.1 23.3 47.6c5 7.2 10.2 14.3 15.4 21.4c0 0 0 0 0 0s0 0 0 0s0 0 0 0s0 0 0 0c12.3 16.8 24.6 33.7 34.5 51.8c5.9 10.8 9.6 22.5 11.8 34.5l16.2 0c-2.4-14.4-6.6-28.7-14-42.2c-10.4-19-23.7-37.3-36.3-54.4c0 0 0 0 0 0s0 0 0 0s0 0 0 0s0 0 0 0c-5-6.9-10-13.7-14.5-20.2c-4.1-5.8-7.7-12-11-18.3L152 228.8zM256 432l128 0c0 35.3-28.7 64-64 64s-64-28.7-64-64zM13 1.7C9.5-1 4.5-.4 1.7 3S-.4 11.5 3 14.3l624 496c3.5 2.7 8.5 2.2 11.2-1.3s2.2-8.5-1.3-11.2L13 1.7z"/></svg>