<svg xmlns="http://www.w3.org/2000/svg" viewBox="0 0 512 512"><!--! Font Awesome Pro 6.6.0 by @fontawesome - https://fontawesome.com License - https://fontawesome.com/license (Commercial License) Copyright 2024 Fonticons, Inc. --><path d="M64 56a40 40 0 1 0 0 80 40 40 0 1 0 0-80zm0 96A56 56 0 1 1 64 40a56 56 0 1 1 0 112zM168 96c0-4.4 3.6-8 8-8l320 0c4.4 0 8 3.6 8 8s-3.6 8-8 8l-320 0c-4.4 0-8-3.6-8-8zm0 160c0-4.4 3.6-8 8-8l320 0c4.4 0 8 3.6 8 8s-3.6 8-8 8l-320 0c-4.4 0-8-3.6-8-8zm0 160c0-4.4 3.6-8 8-8l320 0c4.4 0 8 3.6 8 8s-3.6 8-8 8l-320 0c-4.4 0-8-3.6-8-8zM64 216a40 40 0 1 0 0 80 40 40 0 1 0 0-80zm0 96a56 56 0 1 1 0-112 56 56 0 1 1 0 112zm40 104a40 40 0 1 0 -80 0 40 40 0 1 0 80 0zM8 416a56 56 0 1 1 112 0A56 56 0 1 1 8 416zM64 112a16 16 0 1 1 0-32 16 16 0 1 1 0 32z"/></svg>