<svg xmlns="http://www.w3.org/2000/svg" viewBox="0 0 384 512"><!--! Font Awesome Pro 6.6.0 by @fontawesome - https://fontawesome.com License - https://fontawesome.com/license (Commercial License) Copyright 2024 Fonticons, Inc. --><path d="M368 192c0-97.2-78.8-176-176-176S16 94.8 16 192c0 18.7 6.4 42.5 17.8 69.6c11.3 26.9 27.1 55.8 44.7 84.3c35.2 57 76.8 111.4 102.3 143.2c5.9 7.3 16.6 7.3 22.4 0c25.5-31.8 67.1-86.2 102.3-143.2c17.6-28.5 33.4-57.4 44.7-84.3C361.6 234.5 368 210.7 368 192zm16 0c0 87.4-117 243-168.3 307.2c-12.3 15.3-35.1 15.3-47.4 0C117 435 0 279.4 0 192C0 86 86 0 192 0S384 86 384 192zM114.3 114.3c3.1-3.1 8.2-3.1 11.3 0L192 180.7l66.3-66.3c3.1-3.1 8.2-3.1 11.3 0s3.1 8.2 0 11.3L203.3 192l66.3 66.3c3.1 3.1 3.1 8.2 0 11.3s-8.2 3.1-11.3 0L192 203.3l-66.3 66.3c-3.1 3.1-8.2 3.1-11.3 0s-3.1-8.2 0-11.3L180.7 192l-66.3-66.3c-3.1-3.1-3.1-8.2 0-11.3z"/></svg>