<svg xmlns="http://www.w3.org/2000/svg" viewBox="0 0 640 512"><!--! Font Awesome Pro 6.6.0 by @fontawesome - https://fontawesome.com License - https://fontawesome.com/license (Commercial License) Copyright 2024 Fonticons, Inc. --><path d="M393.8 406c-23.5 33.5-46.3 62.9-62.6 83.2c-5.9 7.3-16.6 7.3-22.4 0c-25.5-31.8-67.1-86.2-102.3-143.2c-17.6-28.5-33.4-57.4-44.7-84.3c-8-19-13.6-36.4-16.1-51.5l-17.6-13.9c3.6 88.1 117.7 239.8 168.2 302.9c12.3 15.3 35.1 15.3 47.4 0c16.2-20.3 39.1-49.7 62.6-83.3L393.8 406zM320 0C266.7 0 218.5 21.7 183.8 56.7l12.6 10C228.2 35.3 271.8 16 320 16c97.2 0 176 78.8 176 176c0 18.7-6.4 42.5-17.8 69.6c-2.8 6.6-5.9 13.4-9.2 20.3L481.9 292c18.1-36.9 30.1-72 30.1-100C512 86 426 0 320 0zm80 192c0-44.2-35.8-80-80-80c-17.5 0-33.8 5.6-46.9 15.2l13.2 10.4c9.8-6.1 21.4-9.6 33.8-9.6c35.3 0 64 28.7 64 64c0 7.1-1.1 13.9-3.3 20.2l13.2 10.4c3.9-9.4 6.1-19.8 6.1-30.6zM13 1.7C9.5-1 4.5-.4 1.7 3S-.4 11.5 3 14.3l624 496c3.5 2.7 8.5 2.2 11.2-1.3s2.2-8.5-1.3-11.2L13 1.7z"/></svg>