<svg xmlns="http://www.w3.org/2000/svg" viewBox="0 0 448 512"><!--! Font Awesome Pro 6.6.0 by @fontawesome - https://fontawesome.com License - https://fontawesome.com/license (Commercial License) Copyright 2024 Fonticons, Inc. --><path d="M112 128l0 64 224 0 0-64c0-61.9-50.1-112-112-112s-112 50.1-112 112zM96 192l0-64C96 57.3 153.3 0 224 0s128 57.3 128 128l0 64 32 0c35.3 0 64 28.7 64 64l0 192c0 35.3-28.7 64-64 64L64 512c-35.3 0-64-28.7-64-64L0 256c0-35.3 28.7-64 64-64l32 0zm0 16l-32 0c-26.5 0-48 21.5-48 48l0 192c0 26.5 21.5 48 48 48l320 0c26.5 0 48-21.5 48-48l0-192c0-26.5-21.5-48-48-48l-32 0-16 0-224 0-16 0zm80 40c4.4 0 8 3.6 8 8l0 40 80 0 0-40c0-4.4 3.6-8 8-8s8 3.6 8 8l0 40 40 0c4.4 0 8 3.6 8 8s-3.6 8-8 8l-40 0 0 80 40 0c4.4 0 8 3.6 8 8s-3.6 8-8 8l-40 0 0 40c0 4.4-3.6 8-8 8s-8-3.6-8-8l0-40-80 0 0 40c0 4.4-3.6 8-8 8s-8-3.6-8-8l0-40-40 0c-4.4 0-8-3.6-8-8s3.6-8 8-8l40 0 0-80-40 0c-4.4 0-8-3.6-8-8s3.6-8 8-8l40 0 0-40c0-4.4 3.6-8 8-8zm8 144l80 0 0-80-80 0 0 80z"/></svg>