<svg xmlns="http://www.w3.org/2000/svg" viewBox="0 0 512 512"><!--! Font Awesome Pro 6.6.0 by @fontawesome - https://fontawesome.com License - https://fontawesome.com/license (Commercial License) Copyright 2024 Fonticons, Inc. --><path d="M400 208A192 192 0 1 0 16 208a192 192 0 1 0 384 0zM349.3 360.6C312.2 395 262.6 416 208 416C93.1 416 0 322.9 0 208S93.1 0 208 0S416 93.1 416 208c0 54.6-21 104.2-55.4 141.3l149 149c3.1 3.1 3.1 8.2 0 11.3s-8.2 3.1-11.3 0l-149-149zM288 104c0-2.5-1.1-4.8-3.1-6.3s-4.5-2.1-6.9-1.5l-64 16c-3.6 .9-6.1 4.1-6.1 7.8l0 64 0 54.4c-10.2-8.9-24.3-14.4-40-14.4c-30.9 0-56 21.5-56 48s25.1 48 56 48s56-21.5 56-48l0-81.8 57.9-14.5c3.6-.9 6.1-4.1 6.1-7.8l0-64zM208 272c0 15.4-15.5 32-40 32s-40-16.6-40-32s15.5-32 40-32s40 16.6 40 32zm64-110.2l-48 12 0-47.5 48-12 0 47.5z"/></svg>