<svg xmlns="http://www.w3.org/2000/svg" viewBox="0 0 576 512"><!--! Font Awesome Pro 6.6.0 by @fontawesome - https://fontawesome.com License - https://fontawesome.com/license (Commercial License) Copyright 2024 Fonticons, Inc. --><path d="M352 200l0-96 0-48c0-13.3 10.7-24 24-24l64 0c13.3 0 24 10.7 24 24l0 32c0 13.3-10.7 24-24 24l-72 0 0 88c0 4.4-3.6 8-8 8s-8-3.6-8-8zM440 96c4.4 0 8-3.6 8-8l0-32c0-4.4-3.6-8-8-8l-64 0c-4.4 0-8 3.6-8 8l0 40 72 0zM560 208c0-47.7-26-89.2-64.7-111.3c.4-2.8 .7-5.8 .7-8.7l0-9c47.4 23.6 80 72.5 80 129l0 176c0 35.3-28.7 64-64 64l-288 0L64 448c-35.3 0-64-28.7-64-64L0 208C0 128.5 64.5 64 144 64l176 0 0 16L210 80c46.3 23.9 78 72.3 78 128l0 176c0 19.1-8.4 36.3-21.7 48L512 432c26.5 0 48-21.5 48-48l0-176zM224 432c26.5 0 48-21.5 48-48l0-176c0-70.7-57.3-128-128-128S16 137.3 16 208l0 176c0 26.5 21.5 48 48 48l160 0zM64 200c0-4.4 3.6-8 8-8l144 0c4.4 0 8 3.6 8 8s-3.6 8-8 8L72 208c-4.4 0-8-3.6-8-8z"/></svg>