<svg xmlns="http://www.w3.org/2000/svg" viewBox="0 0 512 512"><!--! Font Awesome Pro 6.6.0 by @fontawesome - https://fontawesome.com License - https://fontawesome.com/license (Commercial License) Copyright 2024 Fonticons, Inc. --><path d="M256 16a240 240 0 1 1 0 480 240 240 0 1 1 0-480zm0 496A256 256 0 1 0 256 0a256 256 0 1 0 0 512zM80 256c0 75.9 48 140.5 115.3 165.2c15.9 5.9 30-3.1 37.2-10.9C238.3 404 246.7 400 256 400s17.7 4 23.6 10.4c7.2 7.8 21.2 16.7 37.2 10.9C384 396.5 432 331.9 432 256s-48-140.5-115.3-165.2c-15.9-5.9-30 3.1-37.2 10.9C273.7 108 265.3 112 256 112s-17.7-4-23.6-10.4c-7.2-7.8-21.2-16.7-37.2-10.9C128 115.5 80 180.1 80 256zM200.8 105.8c7.1-2.6 14.7 1.1 19.9 6.7C229.4 122 242 128 256 128s26.6-6 35.3-15.5c5.1-5.6 12.7-9.3 19.9-6.7C372.4 128.3 416 187 416 256s-43.6 127.7-104.8 150.2c-7.1 2.6-14.7-1.1-19.9-6.7C282.6 390 270 384 256 384s-26.6 6-35.3 15.5c-5.1 5.6-12.7 9.3-19.9 6.7C139.6 383.7 96 325 96 256s43.6-127.7 104.8-150.2zM176 192a16 16 0 1 0 32 0 16 16 0 1 0 -32 0zm0 64a16 16 0 1 0 32 0 16 16 0 1 0 -32 0zm16 48a16 16 0 1 0 0 32 16 16 0 1 0 0-32zm48-112a16 16 0 1 0 32 0 16 16 0 1 0 -32 0zm16 48a16 16 0 1 0 0 32 16 16 0 1 0 0-32zm-16 80a16 16 0 1 0 32 0 16 16 0 1 0 -32 0zm80-144a16 16 0 1 0 0 32 16 16 0 1 0 0-32zm-16 80a16 16 0 1 0 32 0 16 16 0 1 0 -32 0zm16 48a16 16 0 1 0 0 32 16 16 0 1 0 0-32z"/></svg>