<svg xmlns="http://www.w3.org/2000/svg" viewBox="0 0 640 512"><!--! Font Awesome Pro 6.6.0 by @fontawesome - https://fontawesome.com License - https://fontawesome.com/license (Commercial License) Copyright 2024 Fonticons, Inc. --><path d="M512 8c0 4.4 3.6 8 8 8l92.7 0-97.2 97.2C486.3 82.9 445.4 64 400 64c-88.4 0-160 71.6-160 160c0 85.7 67.4 155.6 152 159.8l0 .2 0 48-48 0c-4.4 0-8 3.6-8 8s3.6 8 8 8l48 0 0 56c0 4.4 3.6 8 8 8s8-3.6 8-8l0-56 48 0c4.4 0 8-3.6 8-8s-3.6-8-8-8l-48 0 0-48 0-.2c84.6-4.2 152-74.1 152-159.8c0-37.2-12.7-71.5-34-98.7l98-98 0 92.7c0 4.4 3.6 8 8 8s8-3.6 8-8L640 8c0-4.4-3.6-8-8-8L520 0c-4.4 0-8 3.6-8 8zM256 224a144 144 0 1 1 288 0 144 144 0 1 1 -288 0zM161.5 20.5L130.1 88.7l-72.9-18C43.9 67.4 32.9 81.2 39.1 93.4L73 160.8l-53.7 46c-10 8.5-6 24.8 6.8 27.8l67.2 15.3L92 325c-.2 13.7 15.7 21.3 26.2 12.6L176 289.8l57.9 47.9c4.2 3.5 9.3 4.4 13.8 3.3c-6.5-8.5-12.3-17.5-17.3-26.9l-49.2-40.7c-3-2.4-7.2-2.4-10.2 0l-63 52.1 1.5-81.7c.1-3.8-2.5-7.1-6.2-7.9L29.7 218.9l58.5-50.1c2.8-2.4 3.6-6.4 1.9-9.7l-36.8-73 79.3 19.6c3.7 .9 7.6-.9 9.2-4.4L176 27.2l34.1 74.2c1.6 3.5 5.5 5.3 9.2 4.4l37-9.1c7.1-8 14.9-15.5 23.3-22.2L221.9 88.7 190.5 20.5c-5.7-12.4-23.4-12.4-29.1 0z"/></svg>