<svg xmlns="http://www.w3.org/2000/svg" viewBox="0 0 576 512"><!--! Font Awesome Pro 6.6.0 by @fontawesome - https://fontawesome.com License - https://fontawesome.com/license (Commercial License) Copyright 2024 Fonticons, Inc. --><path d="M320 16L64 16C37.5 16 16 37.5 16 64l0 384c0 26.5 21.5 48 48 48l247.2 0c5.8 5.5 12 10.6 18.5 15.3c-3.2 .5-6.4 .7-9.7 .7L64 512c-35.3 0-64-28.7-64-64L0 64C0 28.7 28.7 0 64 0L320 0c35.3 0 64 28.7 64 64l0 134.6c-5.4 1.5-10.8 3.3-16 5.4l0-140c0-26.5-21.5-48-48-48zM64 136c0-4.4 3.6-8 8-8l240 0c4.4 0 8 3.6 8 8s-3.6 8-8 8L72 144c-4.4 0-8-3.6-8-8zm8 88l208 0c4.4 0 8 3.6 8 8s-3.6 8-8 8L72 240c-4.4 0-8-3.6-8-8s3.6-8 8-8zm0 96l144 0c4.4 0 8 3.6 8 8s-3.6 8-8 8L72 336c-4.4 0-8-3.6-8-8s3.6-8 8-8zm488 48a128 128 0 1 0 -256 0 128 128 0 1 0 256 0zm-272 0a144 144 0 1 1 288 0 144 144 0 1 1 -288 0zm144-48a16 16 0 1 1 0-32 16 16 0 1 1 0 32zM408 440c0-4.4 3.6-8 8-8l8 0 0-72-8 0c-4.4 0-8-3.6-8-8s3.6-8 8-8l16 0c4.4 0 8 3.6 8 8l0 80 8 0c4.4 0 8 3.6 8 8s-3.6 8-8 8l-16 0-16 0c-4.4 0-8-3.6-8-8z"/></svg>