<svg xmlns="http://www.w3.org/2000/svg" viewBox="0 0 512 512"><!--! Font Awesome Pro 6.6.0 by @fontawesome - https://fontawesome.com License - https://fontawesome.com/license (Commercial License) Copyright 2024 Fonticons, Inc. --><path d="M176 416c0-8.8-7.2-16-16-16l-96 0c-26.5 0-48-21.5-48-48L16 64c0-26.5 21.5-48 48-48l384 0c26.5 0 48 21.5 48 48l0 288c0 26.5-21.5 48-48 48l-138.7 0c-3.5 0-6.8 1.1-9.6 3.2L176 496l0-80zM64 0C28.7 0 0 28.7 0 64L0 352c0 35.3 28.7 64 64 64l80 0 16 0 0 16 0 64c0 6.1 3.4 11.6 8.8 14.3s11.9 2.1 16.8-1.5L309.3 416 448 416c35.3 0 64-28.7 64-64l0-288c0-35.3-28.7-64-64-64L64 0zM348.6 89.4c-2.2-1.5-4.9-1.8-7.4-.9l-128 48c-3.1 1.2-5.2 4.2-5.2 7.5l0 106.2c-8.5-6.3-19.7-10.2-32-10.2c-26.5 0-48 17.9-48 40s21.5 40 48 40c26.5 0 48-17.9 48-40c0 0 0 0 0 0l0-130.5 112-42 0 110.6c-8.5-6.3-19.7-10.2-32-10.2c-26.5 0-48 17.9-48 40s21.5 40 48 40c26.5 0 48-17.9 48-40c0 0 0 0 0 0l0-152c0-2.6-1.3-5.1-3.4-6.6zM304 224c20.5 0 32 13.4 32 24s-11.5 24-32 24s-32-13.4-32-24s11.5-24 32-24zM176 256c20.5 0 32 13.4 32 24s-11.5 24-32 24s-32-13.4-32-24s11.5-24 32-24z"/></svg>