<svg xmlns="http://www.w3.org/2000/svg" viewBox="0 0 512 512"><!--! Font Awesome Pro 6.6.0 by @fontawesome - https://fontawesome.com License - https://fontawesome.com/license (Commercial License) Copyright 2024 Fonticons, Inc. --><path d="M509.7 13.7c3.1-3.1 3.1-8.2 0-11.3s-8.2-3.1-11.3 0l-116 116L329.6 65.6c-6-6-14.6-8.4-22.8-6.3l-.6 .2C295.5 62.1 288 71.7 288 82.7L288 200c0 13.3 10.7 24 24 24l117.3 0c11 0 20.6-7.5 23.3-18.2l.2-.6c2-8.2-.4-16.8-6.3-22.8l-52.7-52.7 116-116zM2.3 13.7l116 116L65.6 182.4c-6 6-8.4 14.6-6.3 22.8l.2 .6C62.1 216.5 71.7 224 82.7 224L200 224c13.3 0 24-10.7 24-24l0-117.3c0-11-7.5-20.6-18.2-23.3l-.6-.2c-8.2-2-16.8 .4-22.8 6.3l-52.7 52.7L13.7 2.3C10.5-.8 5.5-.8 2.3 2.3s-3.1 8.2 0 11.3zm507.3 496c3.1-3.1 3.1-8.2 0-11.3l-116-116 52.7-52.7c6-6 8.4-14.6 6.3-22.8l-.2-.6c-2.7-10.7-12.3-18.2-23.3-18.2L312 288c-13.3 0-24 10.7-24 24l0 117.3c0 11 7.5 20.6 18.2 23.3l.6 .2c8.2 2 16.8-.4 22.8-6.3l52.7-52.7 116 116c3.1 3.1 8.2 3.1 11.3 0zM2.3 498.3c-3.1 3.1-3.1 8.2 0 11.3s8.2 3.1 11.3 0l116-116 52.7 52.7c6 6 14.6 8.4 22.8 6.3l.6-.2c10.7-2.7 18.2-12.3 18.2-23.3L224 312c0-13.3-10.7-24-24-24L82.7 288c-11 0-20.6 7.5-23.3 18.2l-.2 .6c-2 8.2 .4 16.8 6.3 22.8l52.7 52.7-116 116zM310.7 74.8c2.7-.7 5.6 .1 7.6 2.1L435.1 193.7c2 2 2.8 4.9 2.1 7.6l-.2 .6c-.9 3.6-4.1 6.1-7.8 6.1L312 208c-4.4 0-8-3.6-8-8l0-117.3c0-3.7 2.5-6.9 6.1-7.8l.6-.2zm-109.4 0l.6 .2s0 0 0 0c3.6 .9 6.1 4.1 6.1 7.8L208 200c0 4.4-3.6 8-8 8L82.7 208c-3.7 0-6.9-2.5-7.8-6.1l-.2-.6c-.7-2.7 .1-5.6 2.1-7.6L193.7 76.9c2-2 4.9-2.8 7.6-2.1c0 0 0 0 0 0zM310.7 437.2l-.6-.2c-3.6-.9-6.1-4.1-6.1-7.8L304 312c0-4.4 3.6-8 8-8l117.3 0c3.7 0 6.9 2.5 7.8 6.1l.2 .6c.7 2.7-.1 5.6-2.1 7.6L318.3 435.1c-2 2-4.9 2.8-7.6 2.1zM201.9 437l-.6 .2c-2.7 .7-5.6-.1-7.6-2.1L76.9 318.3c-2-2-2.8-4.9-2.1-7.6l.2-.6c.9-3.6 4.1-6.1 7.8-6.1L200 304c4.4 0 8 3.6 8 8l0 117.3c0 3.7-2.5 6.9-6.1 7.8z"/></svg>