<svg xmlns="http://www.w3.org/2000/svg" viewBox="0 0 320 512"><!--! Font Awesome Pro 6.6.0 by @fontawesome - https://fontawesome.com License - https://fontawesome.com/license (Commercial License) Copyright 2024 Fonticons, Inc. --><path d="M240 16c26.5 0 48 21.5 48 48l0 384c0 26.5-21.5 48-48 48L80 496c-26.5 0-48-21.5-48-48L32 64c0-26.5 21.5-48 48-48l160 0zM80 0C44.7 0 16 28.7 16 64l0 384c0 35.3 28.7 64 64 64l160 0c35.3 0 64-28.7 64-64l0-384c0-35.3-28.7-64-64-64L80 0zM224 144c8.8 0 16 7.2 16 16l0 64c0 8.8-7.2 16-16 16L96 240c-8.8 0-16-7.2-16-16l0-64c0-8.8 7.2-16 16-16l128 0zM96 128c-17.7 0-32 14.3-32 32l0 64c0 17.7 14.3 32 32 32l128 0c17.7 0 32-14.3 32-32l0-64c0-17.7-14.3-32-32-32L96 128zM72 328a8 8 0 1 1 16 0 8 8 0 1 1 -16 0zm32 0a24 24 0 1 0 -48 0 24 24 0 1 0 48 0zM80 400a8 8 0 1 1 0 16 8 8 0 1 1 0-16zm0 32a24 24 0 1 0 0-48 24 24 0 1 0 0 48zm72-104a8 8 0 1 1 16 0 8 8 0 1 1 -16 0zm32 0a24 24 0 1 0 -48 0 24 24 0 1 0 48 0zm-24 72a8 8 0 1 1 0 16 8 8 0 1 1 0-16zm0 32a24 24 0 1 0 0-48 24 24 0 1 0 0 48zm72-104a8 8 0 1 1 16 0 8 8 0 1 1 -16 0zm32 0a24 24 0 1 0 -48 0 24 24 0 1 0 48 0zm-24 72a8 8 0 1 1 0 16 8 8 0 1 1 0-16zm0 32a24 24 0 1 0 0-48 24 24 0 1 0 0 48zM104 64c-4.4 0-8 3.6-8 8s3.6 8 8 8l112 0c4.4 0 8-3.6 8-8s-3.6-8-8-8L104 64z"/></svg>