<svg xmlns="http://www.w3.org/2000/svg" viewBox="0 0 576 512"><!--! Font Awesome Pro 6.6.0 by @fontawesome - https://fontawesome.com License - https://fontawesome.com/license (Commercial License) Copyright 2024 Fonticons, Inc. --><path d="M16 422.3c0 12.4 6.9 22.7 16.6 26.3c78.1 29.1 156.8 11.7 240.7-9.6c4-1 8-2 12-3.1c78.7-20.1 162.3-41.4 246.3-18.5c15.2 4.2 28.4-6.9 28.4-17.9l0-309.9c0-12.4-6.9-22.7-16.6-26.3C465.3 34.2 386.7 51.7 302.8 73c-4 1-8 2-12 3c0 0 0 0 0 0s0 0 0 0c0 0 0 0 0 0C212 96.2 128.4 117.5 44.4 94.6C29.2 90.4 16 101.5 16 112.5l0 309.9zm-16 0L0 112.5C0 88.6 25.6 72.8 48.7 79.1c79.8 21.8 159.6 1.5 239.3-18.9c87-22.2 174-44.4 261-11.9c16.9 6.3 27 23.2 27 41.3l0 309.9c0 23.9-25.6 39.7-48.7 33.4c-79.8-21.8-159.6-1.5-239.3 18.9c-87 22.2-174 44.4-261 11.9c-16.9-6.3-27-23.2-27-41.3zM216 256c0 50 33.5 88 72 88s72-38 72-88s-33.5-88-72-88s-72 38-72 88zm72-104c49.9 0 88 48 88 104s-38.1 104-88 104s-88-48-88-104s38.1-104 88-104zm256 0c0 4.4-3.6 8-8 8l-8 0c-39.8 0-72-32.2-72-72l0-8c0-4.4 3.6-8 8-8s8 3.6 8 8l0 8c0 30.9 25.1 56 56 56l8 0c4.4 0 8 3.6 8 8zM40 216c-4.4 0-8-3.6-8-8s3.6-8 8-8l8 0c30.9 0 56-25.1 56-56l0-8c0-4.4 3.6-8 8-8s8 3.6 8 8l0 8c0 39.8-32.2 72-72 72l-8 0zm504 88c0 4.4-3.6 8-8 8l-8 0c-30.9 0-56 25.1-56 56l0 8c0 4.4-3.6 8-8 8s-8-3.6-8-8l0-8c0-39.8 32.2-72 72-72l8 0c4.4 0 8 3.6 8 8zM40 352l8 0c39.8 0 72 32.2 72 72l0 8c0 4.4-3.6 8-8 8s-8-3.6-8-8l0-8c0-30.9-25.1-56-56-56l-8 0c-4.4 0-8-3.6-8-8s3.6-8 8-8z"/></svg>