<svg xmlns="http://www.w3.org/2000/svg" viewBox="0 0 640 512"><!--! Font Awesome Pro 6.6.0 by @fontawesome - https://fontawesome.com License - https://fontawesome.com/license (Commercial License) Copyright 2024 Fonticons, Inc. --><path d="M187.5 1.4C184 4 183 9 185.5 12.7l45.3 68L201 140.4c-1.9 3.8-.6 8.6 3 10.7l73.7 44.2L79.3 226.4C34 232.4 0 272.8 0 320.8C0 405.5 97.6 447.9 154.6 388L288 266.1l0 31.9-54 64.7c-1.2 1.5-1.9 3.3-1.9 5.3l0 61.5-46.6 69.9c-2.5 3.7-1.6 8.7 2 11.3s8.5 1.6 11-2.1l48-72c.9-1.4 1.4-3 1.4-4.6l0-61L288 322.9l0 77.1c0 17.7 14.3 32 32 32s32-14.3 32-32l0-77.1L392.1 371l0 61c0 1.6 .5 3.2 1.4 4.6l48 72c2.5 3.7 7.4 4.6 11 2.1s4.5-7.6 2-11.3l-46.6-69.9 0-61.5c0-1.9-.7-3.8-1.9-5.3L352 298l0-31.9L485.4 388C542.4 447.9 640 405.5 640 320.8c0-47.9-34-88.4-79.4-94.3L362.3 195.4 436 151.1c3.6-2.2 5-6.9 3-10.7L409.2 80.7l45.3-68C457 9 456 4 452.5 1.4s-8.5-1.6-11 2.1l-48 72c-1.6 2.5-1.8 5.7-.5 8.3L421.6 141 352 182.7l0-6.6c0-14.9-10.1-27.3-23.8-31l0-81.4c0-4.5-3.7-8.2-8.2-8.2s-8.2 3.7-8.2 8.2l0 81.4c-13.7 3.6-23.8 16.1-23.8 31l0 6.6L218.4 141 247 83.8c1.3-2.7 1.1-5.8-.5-8.3l-48-72c-2.5-3.7-7.4-4.6-11-2.1zM496.2 376.2L352 244.4l0-34.5 206.2 32.3s0 0 0 0l.4 .1c36.8 4.8 65.4 38 65.4 78.5c0 71.9-81.1 104.4-127.1 56.2c-.3-.3-.5-.5-.8-.8zM288 244.4L143.8 376.2c-.3 .2-.5 .5-.8 .8C97.1 425.2 16 392.7 16 320.8c0-40.5 28.6-73.6 65.4-78.5c0 0 0 0 0 0l.4-.1L288 209.9l0 34.5zM304 400l0-223.9c0-8.8 7.2-16 16-16s16 7.2 16 16L336 400c0 8.8-7.2 16-16 16s-16-7.2-16-16z"/></svg>