<svg xmlns="http://www.w3.org/2000/svg" viewBox="0 0 448 512"><!--! Font Awesome Pro 6.6.0 by @fontawesome - https://fontawesome.com License - https://fontawesome.com/license (Commercial License) Copyright 2024 Fonticons, Inc. --><path d="M78.5 35.4c-2-2.9-5.6-4.1-9-3S64 36.5 64 40l0 216L8 256c-4.4 0-8 3.6-8 8s3.6 8 8 8l56 0 0 200c0 4.4 3.6 8 8 8s8-3.6 8-8l0-200 145.5 0 144 204.6c2 2.9 5.6 4.1 9 3s5.6-4.1 5.6-7.6l0-200 56 0c4.4 0 8-3.6 8-8s-3.6-8-8-8l-56 0 0-216c0-4.4-3.6-8-8-8s-8 3.6-8 8l0 216-134.2 0L78.5 35.4zM245 272l123 0 0 174.7L245 272zm-30.8-16L80 256 80 65.3 214.2 256z"/></svg>