<svg xmlns="http://www.w3.org/2000/svg" viewBox="0 0 640 512"><!--! Font Awesome Pro 6.6.0 by @fontawesome - https://fontawesome.com License - https://fontawesome.com/license (Commercial License) Copyright 2024 Fonticons, Inc. --><path d="M400 16c17.7 0 32 14.3 32 32l0 96c0 17.7-14.3 32-32 32l-160 0c-17.7 0-32-14.3-32-32l0-96c0-17.7 14.3-32 32-32l160 0zM240 0c-26.5 0-48 21.5-48 48l0 96c0 26.5 21.5 48 48 48l72 0 0 56L8 248c-4.4 0-8 3.6-8 8s3.6 8 8 8l144 0 0 56-72 0c-26.5 0-48 21.5-48 48l0 96c0 26.5 21.5 48 48 48l160 0c26.5 0 48-21.5 48-48l0-96c0-26.5-21.5-48-48-48l-72 0 0-56 304 0 0 56-72 0c-26.5 0-48 21.5-48 48l0 96c0 26.5 21.5 48 48 48l160 0c26.5 0 48-21.5 48-48l0-96c0-26.5-21.5-48-48-48l-72 0 0-56 144 0c4.4 0 8-3.6 8-8s-3.6-8-8-8l-304 0 0-56 72 0c26.5 0 48-21.5 48-48l0-96c0-26.5-21.5-48-48-48L240 0zM80 336l160 0c17.7 0 32 14.3 32 32l0 96c0 17.7-14.3 32-32 32L80 496c-17.7 0-32-14.3-32-32l0-96c0-17.7 14.3-32 32-32zm480 0c17.7 0 32 14.3 32 32l0 96c0 17.7-14.3 32-32 32l-160 0c-17.7 0-32-14.3-32-32l0-96c0-17.7 14.3-32 32-32l160 0z"/></svg>