<svg xmlns="http://www.w3.org/2000/svg" viewBox="0 0 448 512"><!--! Font Awesome Pro 6.6.0 by @fontawesome - https://fontawesome.com License - https://fontawesome.com/license (Commercial License) Copyright 2024 Fonticons, Inc. --><path d="M183.1 4.3c-2-3.9-6.9-5.4-10.8-3.4s-5.4 6.9-3.4 10.8c71.9 138.2 170.2 242.2 224.9 293.9C417.4 328 432 358.5 432 390.5C432 448.8 384.8 496 326.5 496l-35.2 0-5.7-5.7-46.1-46.1c-18.1-18.1-42.6-28.2-68.2-28.2c-24 0-43.4 19.4-43.4 43.4l0 4.6c0 26.5 21.5 48 48 48l150.5 0C393.6 512 448 457.6 448 390.5c0-36.9-16.8-71.5-43.2-96.6c-54-51.1-150.9-153.6-221.7-289.7zm45.1 451.2L268.7 496 176 496c-17.7 0-32-14.3-32-32l0-4.6c0-15.1 12.3-27.4 27.4-27.4c21.3 0 41.8 8.5 56.9 23.6zM121.7 303.8c4.3-.9 7.1-5.2 6.1-9.5s-5.2-7.1-9.5-6.1l-22.8 4.9C39.8 305 0 354.2 0 411.2C0 447 15.9 481 43.5 504l7.4 6.2c3.4 2.8 8.4 2.4 11.3-1s2.4-8.4-1-11.3l-7.4-6.2C29.8 471.8 16 442.3 16 411.2c0-49.4 34.5-92.1 82.8-102.5l22.8-4.9z"/></svg>