<svg xmlns="http://www.w3.org/2000/svg" viewBox="0 0 640 512"><!--! Font Awesome Pro 6.6.0 by @fontawesome - https://fontawesome.com License - https://fontawesome.com/license (Commercial License) Copyright 2024 Fonticons, Inc. --><path d="M344 80c4.4 0 8-3.6 8-8s-3.6-8-8-8L168 64c-4.4 0-8 3.6-8 8s3.6 8 8 8l80 0 0 80-136 0-16 0-48 0c-26.5 0-48 21.5-48 48l0 64.3c0 19.2 11.4 36.6 29.1 44.1L96 345.1 96 368c0 26.5 21.5 48 48 48l259.1 0c18.4 0 35.8-7.9 48-21.7L633.5 187.7c12.3-13.9-.3-35.4-18.4-31.5L448 192l-50.5-25.2c-8.9-4.4-18.7-6.8-28.6-6.8L264 160l0-80 80 0zm96.8 126.3c3.2 1.6 7 2.1 10.5 1.3l167-35.8c1.1-.2 1.6 0 2 .1c.5 .2 1 .7 1.4 1.4s.5 1.4 .5 1.9c0 .4-.2 1-.9 1.8L439.1 383.8c-9.1 10.3-22.2 16.2-36 16.2L144 400c-17.7 0-32-14.3-32-32l0-16 0-17.4L112 176l256.9 0c7.4 0 14.8 1.7 21.5 5.1l50.5 25.2zM96 327.7l-60.6-26c-11.8-5-19.4-16.6-19.4-29.4L16 208c0-17.7 14.3-32 32-32l48 0 0 151.7z"/></svg>