<svg xmlns="http://www.w3.org/2000/svg" viewBox="0 0 576 512"><!--! Font Awesome Pro 6.6.0 by @fontawesome - https://fontawesome.com License - https://fontawesome.com/license (Commercial License) Copyright 2024 Fonticons, Inc. --><path d="M224 432C109.1 432 16 338.9 16 224S109.1 16 224 16s208 93.1 208 208c0 28.4-5.7 55.4-16 80c0 0 0 0 0 0c-2.1 5-4.3 9.9-6.8 14.6c-9.9 19.3-22.7 36.8-37.8 52.1l-.3 .3c-3.7 3.7-7.5 7.2-11.4 10.6C323.3 413 275.8 432 224 432zm0 16c56 0 107.3-20.6 146.5-54.6l89.6 97.1c12.6 13.7 30.4 21.5 49.1 21.5c36.9 0 66.8-30.3 66.8-67.2c0-22.8-11.5-44.3-30.7-56.8L429.7 312.9C441.5 285.6 448 255.6 448 224C448 100.3 347.7 0 224 0S0 100.3 0 224S100.3 448 224 448zm247.9 31.7l-89.7-97.1c16.1-16.1 29.8-34.7 40.5-55.1l113.9 74c14.5 9.5 23.4 25.9 23.4 43.3c0 28.2-22.9 51.2-50.8 51.2c-14.2 0-27.7-5.9-37.3-16.3zM496 448a16 16 0 1 0 0-32 16 16 0 1 0 0 32zM323.9 138.5c-8.7-2.2-20-7.1-31-13.6s-20.9-13.8-27.1-20.3c-30.6-31.9-81.3-32.9-113.1-2.2c-14.5 13.9-22.6 32.1-24.3 50.7c-2.1 23.5-8.7 52.4-19.4 71C82.4 269.9 98.1 328.6 144 355.1s104.6 10.8 131.1-35.1c2.9-5.1 8.9-10.9 16.9-15.8c7.9-4.9 16.4-8 23.1-9c12.8-1.8 25.4-6.7 36.5-15c35.5-26.3 42.9-76.4 16.6-111.9c-11.4-15.3-27.2-25.5-44.4-29.8zm-4 15.5c13.7 3.5 26.4 11.6 35.5 23.9c21 28.4 15.1 68.5-13.3 89.5c-8.9 6.6-18.9 10.5-29.2 12c-18.6 2.6-42.2 16.3-51.6 32.6c-22.1 38.3-71 51.4-109.3 29.3s-51.4-71-29.3-109.3c12.4-21.4 19.4-53 21.5-77.6c1.3-14.9 7.8-29.4 19.4-40.5c25.5-24.5 66-23.7 90.5 1.8c15.2 15.8 44.5 32.9 65.8 38.4zM184 224a40 40 0 1 1 80 0 40 40 0 1 1 -80 0zm96 0a56 56 0 1 0 -112 0 56 56 0 1 0 112 0z"/></svg>