<svg xmlns="http://www.w3.org/2000/svg" viewBox="0 0 448 512"><!--! Font Awesome Pro 6.6.0 by @fontawesome - https://fontawesome.com License - https://fontawesome.com/license (Commercial License) Copyright 2024 Fonticons, Inc. --><path d="M32 176C32 96.5 96.5 32 176 32l72 0 8 0 176 0c4.4 0 8 3.6 8 8s-3.6 8-8 8l-64 0 0 424c0 4.4-3.6 8-8 8s-8-3.6-8-8l0-424-80 0 0 424c0 4.4-3.6 8-8 8s-8-3.6-8-8l0-152-80 0C96.5 320 32 255.5 32 176zM256 304l0-256-8 0-72 0C105.3 48 48 105.3 48 176s57.3 128 128 128l80 0z"/></svg>