<svg xmlns="http://www.w3.org/2000/svg" viewBox="0 0 640 512"><!--! Font Awesome Pro 6.6.0 by @fontawesome - https://fontawesome.com License - https://fontawesome.com/license (Commercial License) Copyright 2024 Fonticons, Inc. --><path d="M13 1.7C9.5-1 4.5-.4 1.7 3S-.4 11.5 3 14.3l624 496c3.5 2.7 8.5 2.2 11.2-1.3s2.2-8.5-1.3-11.2L13 1.7zM479.1 220.2l76.6-76.6c21.9-21.9 21.9-57.3 0-79.2L511.6 20.3c-21.9-21.9-57.3-21.9-79.2 0L355.8 96.9l-87.4 26.6 15.3 12.1 74.1-22.5L463 218.3l-14.4 47.5L462 276.4l17.1-56.1zM386.9 400.5c-1.7 .8-3.5 1.4-5.4 2L96.4 493c-.8 .3-1.6 .4-2.5 .5L238.5 348.9c9.3 7 21 11.1 33.5 11.1c16.2 0 30.7-6.9 41-17.8l-12.6-10c-7.2 7.3-17.3 11.8-28.3 11.8c-22.1 0-40-17.9-40-40c0-7.7 2.2-14.9 6-21l-12.6-10c-5.9 8.9-9.4 19.5-9.4 31c0 12.6 4.1 24.2 11.1 33.5L82.6 482.1c.1-.8 .2-1.7 .5-2.5l80.9-255.1-13.4-10.6L67.8 474.8c-3 9.5-.5 19.8 6.5 26.9s17.4 9.6 26.9 6.6l285.1-90.4c5.1-1.6 9.9-3.7 14.4-6.4l-13.8-10.9zM443.7 31.6c15.6-15.6 40.9-15.6 56.6 0l44.1 44.1c15.6 15.6 15.6 40.9 0 56.6L472 204.7 371.3 104l72.4-72.4z"/></svg>