<svg xmlns="http://www.w3.org/2000/svg" viewBox="0 0 512 512"><!--! Font Awesome Pro 6.6.0 by @fontawesome - https://fontawesome.com License - https://fontawesome.com/license (Commercial License) Copyright 2024 Fonticons, Inc. --><path d="M374.1 30.6c18.7-18.7 49.1-18.7 67.9 0l39.4 39.4c18.7 18.7 18.7 49.1 0 67.9L427.3 192 320 84.7l54.1-54.1zM297.4 84.7L99.5 282.5c-48 48-80.8 109.2-94.1 175.8l-5 25c-1.6 7.9 .9 16 6.6 21.7s13.8 8.1 21.7 6.6l25-5c66.6-13.3 127.8-46.1 175.8-94.1L492.7 149.3c25-25 25-65.5 0-90.5L453.3 19.3c-25-25-65.5-25-90.5 0L308.7 73.4 295.6 60.3c-21.9-21.9-57.3-21.9-79.2 0L98.3 178.3c-3.1 3.1-3.1 8.2 0 11.3s8.2 3.1 11.3 0L227.7 71.6c15.6-15.6 40.9-15.6 56.6 0l13.1 13.1zM308.7 96L416 203.3 218.2 401.1c-45.8 45.8-104.1 77-167.6 89.7l-25 5c-2.6 .5-5.3-.3-7.2-2.2s-2.7-4.6-2.2-7.2l5-25c12.7-63.5 43.9-121.8 89.7-167.6L308.7 96z"/></svg>