<svg xmlns="http://www.w3.org/2000/svg" viewBox="0 0 576 512"><!--! Font Awesome Pro 6.6.0 by @fontawesome - https://fontawesome.com License - https://fontawesome.com/license (Commercial License) Copyright 2024 Fonticons, Inc. --><path d="M320 410.6c1.3 45.1 36.5 81.7 81.1 85.2c.7 .1 1.3 .1 1.9 .3l5 0 136 0c8.8 0 16-7.2 16-16s-7.2-16-16-16l-4 0c-14.6 0-26.2-7.7-33.6-17.4c-7.3-9.6-11.2-22-10.6-34.3c.1-1.4 .1-2.8 .1-4.3c0-47.7-38-86.6-85.4-88l14.6-14.6c49.3 8.2 86.8 51 86.8 102.6c0 1.7 0 3.4-.1 5c-.8 17.1 11 35 28.2 35l4 0c17.7 0 32 14.3 32 32s-14.3 32-32 32l-136 0-7.8 0c-.1 0-.2-.1-.2-.2s-.1-.2-.1-.2c-47.9-3.7-86.7-39.9-94.4-86.5L320 410.6zM139.1 218.3L16.4 95.6c-21.9-21.9-21.9-57.3 0-79.2s57.3-21.9 79.2 0L218.3 139.1 207 150.5 84.3 27.7c-15.6-15.6-40.9-15.6-56.6 0s-15.6 40.9 0 56.6L150.5 207l-11.3 11.3zM472.2 25.9c-12.5-12.5-32.8-12.5-45.3 0L360.1 92.8l91.1 91.1L518.1 117c12.5-12.5 12.5-32.8 0-45.3L472.2 25.9zM105.6 347.3c-10.4 10.4-18 23.3-22.2 37.4L51.8 492.2l107.5-31.6c14.1-4.2 27-11.8 37.4-22.2L439.9 195.2l-91.1-91.1L105.6 347.3zm310-332.7c18.7-18.7 49.1-18.7 67.9 0l45.8 45.8c18.7 18.7 18.7 49.1 0 67.9L208 449.7c-12.3 12.3-27.5 21.3-44.2 26.2L42.3 511.7c-2.8 .8-5.8 .1-7.9-2s-2.8-5.1-2-7.9L68.1 380.2C73 363.5 82 348.3 94.3 336L415.7 14.6z"/></svg>