<svg xmlns="http://www.w3.org/2000/svg" viewBox="0 0 512 512"><!--! Font Awesome Pro 6.6.0 by @fontawesome - https://fontawesome.com License - https://fontawesome.com/license (Commercial License) Copyright 2024 Fonticons, Inc. --><path d="M395 25.9c12.5-12.5 32.8-12.5 45.3 0l45.8 45.8c12.5 12.5 12.5 32.8 0 45.3l-66.9 66.9L328.1 92.8 395 25.9zm-78.2 78.2l91.1 91.1L164.7 438.4c-1.5 1.5-3.1 3-4.7 4.4l0-34.8c0-4.4-3.6-8-8-8l-40 0 0-40c0-4.4-3.6-8-8-8l-34.8 0c1.4-1.6 2.9-3.2 4.4-4.7L316.8 104.1zM51.4 384.7c1.7-5.8 4-11.4 6.8-16.7L96 368l0 40c0 4.4 3.6 8 8 8l40 0 0 37.7c-5.3 2.8-10.9 5.1-16.7 6.8L19.8 492.2 51.4 384.7zm400.1-370c-18.7-18.7-49.1-18.7-67.9 0L62.3 336C50 348.3 41 363.5 36.1 380.2L.3 501.7c-.8 2.8-.1 5.8 2 7.9s5.1 2.8 7.9 2l121.6-35.8c16.7-4.9 31.9-13.9 44.2-26.2L497.4 128.3c18.7-18.7 18.7-49.1 0-67.9L451.5 14.6zM317.7 173.1c3.1-3.1 3.1-8.2 0-11.3s-8.2-3.1-11.3 0l-144 144c-3.1 3.1-3.1 8.2 0 11.3s8.2 3.1 11.3 0l144-144z"/></svg>