<svg xmlns="http://www.w3.org/2000/svg" viewBox="0 0 512 512"><!--! Font Awesome Pro 6.6.0 by @fontawesome - https://fontawesome.com License - https://fontawesome.com/license (Commercial License) Copyright 2024 Fonticons, Inc. --><path d="M448 0c-7.2 0-14.2 2.9-19.3 8L384.8 51.9C379.6 49.3 373.9 48 368 48c-10.2 0-20.1 4.1-27.3 11.3l-35 35L276.3 65c-15.6-15.6-40.9-15.6-56.6 0L114.3 170.3c-3.1 3.1-3.1 8.2 0 11.3s8.2 3.1 11.3 0L231 76.3c9.4-9.4 24.6-9.4 33.9 0l29.4 29.4L80.9 319.1c-5.9 5.9-10.1 13.1-12.3 21.1L33.3 467.4 2.3 498.3c-3.1 3.1-3.1 8.2 0 11.3s8.2 3.1 11.3 0l30.9-30.9 127.2-35.3c8-2.2 15.2-6.5 21.1-12.3L452.7 171.3c7.2-7.2 11.3-17.1 11.3-27.3c0-5.9-1.3-11.6-3.9-16.8L504 83.3c5.1-5.1 8-12.1 8-19.3s-2.9-14.2-8-19.3L467.3 8c-5.1-5.1-12.1-8-19.3-8zm2.3 114.3L397.7 61.7 440 19.3c2.1-2.1 5-3.3 8-3.3s5.9 1.2 8 3.3L492.7 56c2.1 2.1 3.3 5 3.3 8s-1.2 5.9-3.3 8l-42.3 42.3zm-9 13.7c4.2 4.2 6.6 10 6.6 16s-2.4 11.8-6.6 16l-247 247L105 317.7l247-247c4.2-4.2 10-6.6 16-6.6s11.8 2.4 16 6.6L441.4 128zM92.2 330.4l1.4-1.4L183 418.3l-1.4 1.4c-3.9 3.9-8.7 6.7-14.1 8.2L51.9 460.1 84 344.5c1.5-5.3 4.3-10.2 8.2-14.1z"/></svg>