<svg xmlns="http://www.w3.org/2000/svg" viewBox="0 0 576 512"><!--! Font Awesome Pro 6.6.0 by @fontawesome - https://fontawesome.com License - https://fontawesome.com/license (Commercial License) Copyright 2024 Fonticons, Inc. --><path d="M56 52a36 36 0 1 1 72 0A36 36 0 1 1 56 52zm88 0A52 52 0 1 0 40 52a52 52 0 1 0 104 0zM64 128c-35.3 0-64 28.7-64 64L0 320c0 17.7 14.3 32 32 32c10.9 0 20.5-5.4 26.3-13.7L84.7 486.2c2.7 14.9 15.7 25.8 30.8 25.8c19.8 0 34.6-18.1 30.7-37.5l-22.6-113c-1-5 2.8-9.6 7.8-9.6c3.7 0 6.9 2.5 7.8 6.1l32.5 130.1c3.5 14 16.1 23.8 30.5 23.8c20.3 0 35.3-19 30.6-38.7L171.3 213.2 237 239.4c4.1 1.6 8.8-.4 10.4-4.5s-.4-8.8-4.5-10.4l-80-32c-2.8-1.1-5.9-.6-8.2 1.4s-3.2 5-2.6 7.9L217.4 477c2.3 9.7-5.1 19-15.1 19c-7.1 0-13.3-4.8-15-11.7L154.8 354.2c-2.7-10.7-12.3-18.2-23.3-18.2c-15.1 0-26.5 13.9-23.5 28.7l22.6 113c1.9 9.5-5.4 18.3-15 18.3c-7.4 0-13.8-5.3-15.1-12.6L64 279.3 64 232c0-4.4-3.6-8-8-8s-8 3.6-8 8l0 88c0 8.8-7.2 16-16 16s-16-7.2-16-16l0-128c0-26.5 21.5-48 48-48l53.5 0c11.2 0 22.3 2.1 32.7 6.3L253 191.4c4.1 1.6 8.8-.4 10.4-4.5s-.4-8.8-4.5-10.4L156.1 135.4c-12.3-4.9-25.4-7.4-38.6-7.4L64 128zm329.1 59.3c-4.6-4-11-5.1-16.6-2.8c-1.1 .5-2.2 .9-3.4 1.4l-5.7 2.5c-21.6 9.6-37.9 28.3-44.4 51.1l-3.7 12.9c-2.4 8.5-11.3 13.4-19.8 11s-13.4-11.3-11-19.8l3.7-12.9c9.1-31.9 31.9-58.1 62.2-71.6l5.7-2.5c18.8-8.3 39-12.6 59.6-12.6c38.1 0 72.5 22.9 87.1 58.1l16.5 39.7c1.1 2.6 2.9 4.9 5.2 6.6l25 18.8c7.1 5.3 8.5 15.3 3.2 22.4s-15.3 8.5-22.4 3.2l-28.5-21.4c-4.6-3.4-8.1-8-10.3-13.3l-10.2-24.5c-2.6-6.3-8.9-10.2-15.6-9.8s-12.6 5-14.5 11.5L436 300.8c-1.6 5.4-.2 11.2 3.6 15.3l49.5 54c3.6 3.9 6.2 8.7 7.5 13.9l23 92.1c2.1 8.6-3.1 17.3-11.6 19.4s-17.3-3.1-19.4-11.6l-22-88.1c-.6-2.6-1.9-5-3.7-6.9l-70.7-77.1c-11.1-12.1-15.2-29-11-44.8L398 203.4c1.6-5.9-.3-12.1-4.9-16.1zM464 16a36 36 0 1 1 0 72 36 36 0 1 1 0-72zM363.4 209c3.3-2.3 6.8-4.3 10.6-6l5.7-2.5c1-.4 1.9-.8 2.9-1.2l-1.3 4.8-2.6 9.6-1.5 5.6-11.6 43.6c-5.6 21.1-.1 43.6 14.7 59.7l70.7 77.1 22 88.1c4.3 17.1 21.7 27.6 38.8 23.3s27.6-21.7 23.3-38.8l-23-92.1c-1.9-7.8-5.8-14.9-11.2-20.8l-49.5-54 12.1-41.2 7.2-24.4 9.8 23.5 .4 1c3.3 7.9 8.7 14.8 15.5 19.9l28.5 21.4c14.1 10.6 34.2 7.7 44.8-6.4s7.7-34.2-6.4-44.8l-25-18.8-16.5-39.7C504.5 154.8 464.3 128 419.7 128c-22.8 0-45.3 4.8-66.1 14l-5.7 2.5c-34.6 15.4-60.7 45.3-71.1 81.8l-3.7 12.9c-4.9 17 5 34.7 22 39.6s34.7-5 39.6-22l3.7-12.9c4.1-14.3 13-26.6 24.9-34.9zM516 52A52 52 0 1 0 412 52a52 52 0 1 0 104 0zM355 343.9c-4.1-1.6-8.8 .4-10.4 4.5L324.7 398l-59.4 59.4c-12.5 12.5-12.5 32.8 0 45.3s32.8 12.5 45.3 0l61.7-61.7c4.6-4.6 8.2-10.1 10.6-16.1L398.1 387c1.6-4.1-.4-8.8-4.5-10.4s-8.8 .4-10.4 4.5l-15.1 37.9c-1.6 4-4 7.7-7.1 10.7l-61.7 61.7c-6.2 6.2-16.4 6.2-22.6 0s-6.2-16.4 0-22.6l60.5-60.5 1.2-1.2 .6-1.5 20.5-51.1c1.6-4.1-.4-8.8-4.5-10.4z"/></svg>