<svg xmlns="http://www.w3.org/2000/svg" viewBox="0 0 448 512"><!--! Font Awesome Pro 6.6.0 by @fontawesome - https://fontawesome.com License - https://fontawesome.com/license (Commercial License) Copyright 2024 Fonticons, Inc. --><path d="M249.9 154.6c-2.3-6.3-8.3-10.6-15-10.6L160 144c-8.8 0-16-7.2-16-16s7.2-16 16-16l159.4 0c29 0 43.1 35.6 21.8 55.4l-74.4 69.4c-3.2 3-5 7.1-5.1 11.4s1.6 8.5 4.7 11.6L326.6 320c6 6 9.4 14.1 9.4 22.6l0 89.4c0 8.8-7.2 16-16 16s-16-7.2-16-16l0-82.7c0-4.2-1.7-8.3-4.7-11.3l-77.9-77.9c-20-20-18.5-52.7 3.2-70.8l20.4-17c5.2-4.3 7.1-11.4 4.8-17.7zM400 16a32 32 0 1 1 0 64 32 32 0 1 1 0-64zM209.8 160l25 0-19.2 16-1.2 1c-28.9 24.1-30.9 67.8-4.3 94.4L288 349.3l0 82.7c0 17.7 14.3 32 32 32s32-14.3 32-32l0-89.4c0-12.7-5.1-24.9-14.1-33.9l-48.8-48.8-11.3-11.3 11.7-10.9 62.7-58.5C384 149.4 363 96 319.4 96L160 96c-17.7 0-32 14.3-32 32s14.3 32 32 32l49.8 0zM448 48a48 48 0 1 0 -96 0 48 48 0 1 0 96 0zM148.4 468.3c3.6-2.6 4.4-7.6 1.9-11.2s-7.6-4.4-11.2-1.9l-12 8.6c-12.7 9.1-30.2 7.6-41.2-3.4L13.7 388.3c-3.1-3.1-8.2-3.1-11.3 0s-3.1 8.2 0 11.3l72.2 72.2c16.6 16.6 42.7 18.8 61.8 5.1l12-8.6zm267.5-11c.7-4.4-2.2-8.5-6.6-9.2s-8.5 2.2-9.2 6.6l-2.4 14.6c-2.6 15.4-15.9 26.7-31.6 26.7L264 496c-4.4 0-8 3.6-8 8s3.6 8 8 8l102.1 0c23.5 0 43.5-17 47.3-40.1l2.4-14.6zM73.4 361.4c-12.5 12.5-12.5 32.8 0 45.3s32.8 12.5 45.3 0l90.7-90.7-11.3-11.3-90.7 90.7c-6.2 6.2-16.4 6.2-22.6 0s-6.2-16.4 0-22.6l91.8-91.8c-3.2-4.6-6-9.4-8.2-14.4L73.4 361.4z"/></svg>