<svg xmlns="http://www.w3.org/2000/svg" viewBox="0 0 576 512"><!--! Font Awesome Pro 6.6.0 by @fontawesome - https://fontawesome.com License - https://fontawesome.com/license (Commercial License) Copyright 2024 Fonticons, Inc. --><path d="M160 96a40 40 0 1 0 0-80 40 40 0 1 0 0 80zm0-96a56 56 0 1 1 0 112A56 56 0 1 1 160 0zM141.1 144c-21.5 0-41.1 12.3-50.4 31.7L23.2 315.5c-1.9 4-6.7 5.6-10.7 3.7s-5.6-6.7-3.7-10.7L76.3 168.7c12-24.9 37.2-40.7 64.8-40.7l37.8 0c27.6 0 52.8 15.8 64.8 40.7l46.1 95.5c-3.7 5-7.1 10.2-10.2 15.6L229.3 175.7C220 156.3 200.4 144 178.9 144l-37.8 0zM104 248l0 232c0 8.8 7.2 16 16 16s16-7.2 16-16l0-120c0-13.3 10.7-24 24-24s24 10.7 24 24l0 120c0 8.8 7.2 16 16 16s16-7.2 16-16l0-232c0-4.4 3.6-8 8-8s8 3.6 8 8l0 232c0 17.7-14.3 32-32 32s-32-14.3-32-32l0-120c0-4.4-3.6-8-8-8s-8 3.6-8 8l0 120c0 17.7-14.3 32-32 32s-32-14.3-32-32l0-232c0-4.4 3.6-8 8-8s8 3.6 8 8zM560 368a128 128 0 1 0 -256 0 128 128 0 1 0 256 0zm-272 0a144 144 0 1 1 288 0 144 144 0 1 1 -288 0zm144 48a16 16 0 1 1 0 32 16 16 0 1 1 0-32zm-64-90.1c0-20.9 17-37.9 37.9-37.9l48.1 0c23.2 0 42 18.8 42 42c0 16.5-9.7 31.5-24.7 38.3L440 382.4l0 9.6c0 4.4-3.6 8-8 8s-8-3.6-8-8l0-14.8c0-3.1 1.8-6 4.7-7.3l36-16.2C474 349.5 480 340.3 480 330c0-14.4-11.6-26-26-26l-48.1 0c-12.1 0-21.9 9.8-21.9 21.9l0 2.1c0 4.4-3.6 8-8 8s-8-3.6-8-8l0-2.1z"/></svg>