<svg xmlns="http://www.w3.org/2000/svg" viewBox="0 0 576 512"><!--! Font Awesome Pro 6.6.0 by @fontawesome - https://fontawesome.com License - https://fontawesome.com/license (Commercial License) Copyright 2024 Fonticons, Inc. --><path d="M172.2 148.1c4.2 1.2 7.7 4.1 9.8 7.9s2.4 8.4 1 12.5L152.8 259c-7 21 1.3 44.1 20.1 55.9l86.2 53.9c6 3.8 8.9 11.1 6.9 18l-25.4 88.8c-2.4 8.5 2.5 17.4 11 19.8s17.4-2.5 19.8-11l25.4-88.8c5.9-20.6-2.6-42.6-20.7-53.9l-47.9-30c-6.5-4.1-9.2-12.2-6.4-19.4l30-77.3c2.3-5.9 7.8-9.9 14.2-10.2s12.2 3.2 15.1 8.8l15.9 31.7c8.1 16.3 24.8 26.5 42.9 26.5l44.2 0c8.8 0 16-7.2 16-16s-7.2-16-16-16l-44.2 0c-6.1 0-11.6-3.4-14.3-8.8l-32.9-65.7c-6-12-16.8-21-29.7-24.7l-90.7-25.9c-6.6-1.9-13.4-2.8-20.3-2.8c-19.6 0-38.3 7.8-52.1 21.6L68.7 164.7c-6.2 6.2-6.2 16.4 0 22.6s16.4 6.2 22.6 0l31.1-31.1c7.8-7.8 18.4-12.2 29.5-12.2c3.9 0 7.7 .5 11.5 1.6l8.8 2.5zM57.4 153.4l31.1-31.1C105.3 105.5 128.1 96 151.9 96c8.3 0 16.6 1.2 24.7 3.5l90.7 25.9c17.2 4.9 31.6 16.9 39.7 32.9L339.8 224l44.2 0c17.7 0 32 14.3 32 32s-14.3 32-32 32l-44.2 0c-24.2 0-46.4-13.7-57.2-35.4l-6.2-12.4-9.7-19.3L258.8 241l-22.2 57.1 47.9 30c24.2 15.1 35.5 44.4 27.6 71.9l-25.4 88.8c-4.9 17-22.6 26.8-39.6 22s-26.8-22.6-22-39.6l25.4-88.8-86.2-53.9c-25.1-15.7-36.1-46.5-26.8-74.5l25.1-75.3 5.1-15.2L159 161c-2.2-.6-4.6-1-6.9-1l-.2 0c-6.8 0-13.4 2.7-18.2 7.5l-31.1 31.1c-12.5 12.5-32.8 12.5-45.3 0s-12.5-32.8 0-45.3zM272 80a32 32 0 1 0 0-64 32 32 0 1 0 0 64zM224 48a48 48 0 1 1 96 0 48 48 0 1 1 -96 0zM111.3 314.8c2.9 6.2 6.4 12.1 10.6 17.6l-9.2 25.2L108.8 368l-11.2 0L32 368c-8.8 0-16 7.2-16 16s7.2 16 16 16l65.6 0c20.1 0 38.1-12.6 45.1-31.5l4.7-12.9s0 0 0 0l13.9 8.7-3.6 9.7c-9.2 25.2-33.2 42-60.1 42L32 416c-17.7 0-32-14.3-32-32s14.3-32 32-32l65.6 0 13.7-37.2zM528 16l-96 0c-17.7 0-32 14.3-32 32l0 144-16 0 0-144c0-26.5 21.5-48 48-48l96 0c26.5 0 48 21.5 48 48l0 416c0 26.5-21.5 48-48 48l-96 0c-26.5 0-48-21.5-48-48l0-144 16 0 0 144c0 17.7 14.3 32 32 32l96 0c17.7 0 32-14.3 32-32l0-416c0-17.7-14.3-32-32-32z"/></svg>