<svg xmlns="http://www.w3.org/2000/svg" viewBox="0 0 576 512"><!--! Font Awesome Pro 6.6.0 by @fontawesome - https://fontawesome.com License - https://fontawesome.com/license (Commercial License) Copyright 2024 Fonticons, Inc. --><path d="M400 18.1L400 64 248 64c-4.4 0-8-3.6-8-8l0-10.8c0-4 3-7.4 7-7.9L400 18.1zM245 21.4c-12 1.5-21 11.7-21 23.8L224 56c0 13.3 10.7 24 24 24l152 0c8.8 0 16-7.2 16-16l0-45.9c0-9.6-8.4-17.1-18-15.9L245 21.4zM389.1 248.3L240 418.7 240 304c0-8.8-7.2-16-16-16L72 288c-13.3 0-24-10.7-24-24s10.7-24 24-24l168 0 105.2 0c15.3 0 30.1 2.9 43.9 8.3zM224 440.4l0 39.6c0 17.7 14.3 32 32 32l128 0c17.7 0 32-14.3 32-32l0-78.8 0-31.5 16 27.1 37.6 63.6c11.2 19 35.8 25.3 54.8 14.1s25.3-35.8 14.1-54.8L462.3 290.8c-24.5-41.4-69-66.8-117.1-66.8L240 224 72 224c-22.1 0-40 17.9-40 40s17.9 40 40 40l136 0 16 0 0 16 0 119.6c0 .2 0 .5 0 .7zm16 7.6l160 0 0 32c0 8.8-7.2 16-16 16l-128 0c-8.8 0-16-7.2-16-16l0-32zm160-16l-150.4 0L404.1 255.4c18.1 10.2 33.5 25 44.4 43.5l76.1 128.8c6.7 11.4 3 26.1-8.5 32.9s-26.1 3-32.9-8.5l-53.6-90.6c-3.7-6.2-11-9.2-18-7.3s-11.8 8.2-11.8 15.4l0 62.3zM240 112c0 44.2 35.8 80 80 80s80-35.8 80-80c0-5.5-.6-10.8-1.6-16L382 96c1.3 5.1 2 10.5 2 16c0 35.3-28.7 64-64 64s-64-28.7-64-64c0-5.5 .7-10.9 2-16l-16.4 0c-1 5.2-1.6 10.5-1.6 16z"/></svg>