<svg xmlns="http://www.w3.org/2000/svg" viewBox="0 0 512 512"><!--! Font Awesome Pro 6.6.0 by @fontawesome - https://fontawesome.com License - https://fontawesome.com/license (Commercial License) Copyright 2024 Fonticons, Inc. --><path d="M2.3 2.3c-3.1 3.1-3.1 8.2 0 11.3l104 104c3.1 3.1 8.2 3.1 11.3 0s3.1-8.2 0-11.3L13.7 2.3C10.5-.8 5.5-.8 2.3 2.3zm507.3 0c-3.1-3.1-8.2-3.1-11.3 0l-104 104c-3.1 3.1-3.1 8.2 0 11.3s8.2 3.1 11.3 0l104-104c3.1-3.1 3.1-8.2 0-11.3zM13.7 509.7l104-104c3.1-3.1 3.1-8.2 0-11.3s-8.2-3.1-11.3 0l-104 104c-3.1 3.1-3.1 8.2 0 11.3s8.2 3.1 11.3 0zm496 0c3.1-3.1 3.1-8.2 0-11.3l-104-104c-3.1-3.1-8.2-3.1-11.3 0s-3.1 8.2 0 11.3l104 104c3.1 3.1 8.2 3.1 11.3 0zM216 56a40 40 0 1 1 80 0 40 40 0 1 1 -80 0zm96 0A56 56 0 1 0 200 56a56 56 0 1 0 112 0zM186.7 175.7c9.3-19.4 28.9-31.7 50.4-31.7l37.8 0c21.5 0 41.1 12.3 50.4 31.7l67.5 139.8c1.9 4 6.7 5.6 10.7 3.7s5.6-6.7 3.7-10.7L339.7 168.7c-12-24.9-37.2-40.7-64.8-40.7l-37.8 0c-27.6 0-52.8 15.8-64.8 40.7L104.8 308.5c-1.9 4-.3 8.8 3.7 10.7s8.8 .3 10.7-3.7l67.5-139.8zM192 240c-4.4 0-8 3.6-8 8l0 232c0 17.7 14.3 32 32 32s32-14.3 32-32l0-120c0-4.4 3.6-8 8-8s8 3.6 8 8l0 120c0 17.7 14.3 32 32 32s32-14.3 32-32l0-232c0-4.4-3.6-8-8-8s-8 3.6-8 8l0 232c0 8.8-7.2 16-16 16s-16-7.2-16-16l0-120c0-13.3-10.7-24-24-24s-24 10.7-24 24l0 120c0 8.8-7.2 16-16 16s-16-7.2-16-16l0-232c0-4.4-3.6-8-8-8z"/></svg>