<svg xmlns="http://www.w3.org/2000/svg" viewBox="0 0 512 512"><!--! Font Awesome Pro 6.6.0 by @fontawesome - https://fontawesome.com License - https://fontawesome.com/license (Commercial License) Copyright 2024 Fonticons, Inc. --><path d="M231.7 172.5c.8-4.3 3.3-8.1 7-10.5C278.9 135.9 304 91 304 41.8l0-9.8c0-8.8-7.2-16-16-16s-16 7.2-16 16l0 9.8c0 45.5-27.7 86.4-69.9 103.3c-54.4 21.8-90.1 74.4-90.1 133l0 73.8c0 8.8 7.2 16 16 16s16-7.2 16-16l0-73.8c0-11.7 1.8-23.1 5.3-33.9c1.9-5.9 7-10.2 13.1-11s12.2 2 15.5 7.2L338.6 488.7c4.8 7.4 14.7 9.5 22.1 4.7s9.5-14.7 4.7-22.1L273.2 328.7c-3.2-4.9-3.4-11.2-.6-16.3s8.2-8.4 14.1-8.4l1.4 0 80 0c5 0 9.8 2.4 12.8 6.4l38.4 51.2c5.3 7.1 15.3 8.5 22.4 3.2s8.5-15.3 3.2-22.4l-43.2-57.6c-6-8.1-15.5-12.8-25.6-12.8l-71.5 0c-5.2 0-10.1-2.5-13.1-6.7l-56.8-80.1c0 0 0 0 0 0l-.2-.3c-2.6-3.6-3.5-8-2.7-12.3zm25 16L304.5 256l71.5 0c15.1 0 29.3 7.1 38.4 19.2l43.2 57.6c10.6 14.1 7.7 34.2-6.4 44.8s-34.2 7.7-44.8-6.4L368 320l-62.4 0L288 320l-1.4 0 1.4 2.2 8.9 13.8 81.9 126.6c9.6 14.8 5.4 34.6-9.5 44.3s-34.6 5.4-44.3-9.5L176.7 267.9l-12.1-18.8c-2.3 7.3-3.8 14.9-4.3 22.8c-.1 2.1-.2 4.1-.2 6.2l0 73.8c0 17.7-14.3 32-32 32s-32-14.3-32-32l0-73.8c0-65.1 39.6-123.7 100.1-147.9C232.3 115.8 256 80.8 256 41.8l0-9.8c0-17.7 14.3-32 32-32s32 14.3 32 32l0 9.8c0 49.4-22.9 95.1-60.3 124.8c-3.9 3.1-8 6-12.2 8.8l.2 .3 9 12.7zM120 128a40 40 0 1 0 0-80 40 40 0 1 0 0 80zM64 88a56 56 0 1 1 112 0A56 56 0 1 1 64 88z"/></svg>