<svg xmlns="http://www.w3.org/2000/svg" viewBox="0 0 384 512"><!--! Font Awesome Pro 6.6.0 by @fontawesome - https://fontawesome.com License - https://fontawesome.com/license (Commercial License) Copyright 2024 Fonticons, Inc. --><path d="M48 63.3C48 46 62 32 79.3 32L184 32c70.1 0 129.1 47.5 146.7 112l45.3 0c4.4 0 8 3.6 8 8s-3.6 8-8 8l-41.9 0c1.2 7.8 1.9 15.8 1.9 24c0 13.8-1.8 27.3-5.3 40l45.3 0c4.4 0 8 3.6 8 8s-3.6 8-8 8l-50.6 0c-22.3 56.2-77.2 96-141.4 96L64 336l0 136c0 4.4-3.6 8-8 8s-8-3.6-8-8l0-144 0-88L8 240c-4.4 0-8-3.6-8-8s3.6-8 8-8l40 0 0-64L8 160c-4.4 0-8-3.6-8-8s3.6-8 8-8l40 0 0-80.7zM64 240l0 80 120 0c55.1 0 102.6-32.8 124-80L64 240zm250-16c3.9-12.6 6-26.1 6-40c0-8.2-.7-16.2-2.1-24L64 160l0 64 250 0zM184 48L79.3 48C70.9 48 64 54.9 64 63.3L64 144l250 0c-17.1-55.6-68.8-96-130-96z"/></svg>