<svg xmlns="http://www.w3.org/2000/svg" viewBox="0 0 640 512"><!--! Font Awesome Pro 6.6.0 by @fontawesome - https://fontawesome.com License - https://fontawesome.com/license (Commercial License) Copyright 2024 Fonticons, Inc. --><path d="M64 64C64 46 76 30.2 93.5 25.4l88-24c19.4-5.3 39.7 4.6 47.4 23.2l40 96c6.8 16.3 2.1 35.2-11.6 46.3L208 207.3c5.2 10.9 10.9 21.6 17.2 31.8l-12.6 10c-7-11.2-13.3-22.9-19-35c-3.1-6.6-1.3-14.6 4.3-19.2l49.3-40.4c8.2-6.7 11-18 7-27.8l-40-96c-4.6-11.1-16.8-17.1-28.5-13.9l-88 24C87.2 43.7 80 53.2 80 64c0 86.6 25.5 167.3 69.4 235l-12.6 10C90.7 238.5 64 154.4 64 64zM512 496c10.8 0 20.3-7.2 23.2-17.7l24-88c3.2-11.6-2.8-23.8-13.9-28.5l-96-40c-9.8-4.1-21.1-1.3-27.8 7L381 378.1c-4.6 5.7-12.6 7.5-19.2 4.3c-17.4-8.2-33.9-17.8-49.6-28.6l13.2-10.4c13.7 9.2 28.2 17.4 43.3 24.5L409 318.7c11.2-13.7 30-18.4 46.3-11.6l96 40c18.6 7.7 28.5 28 23.2 47.4l-24 88C545.8 499.9 530 512 512 512c-104.9 0-201.5-36.1-277.8-96.5l12.9-10.2C320.2 462.2 412.2 496 512 496zM627 1.7C630.5-1 635.5-.4 638.3 3s2.2 8.5-1.3 11.2L13 510.3C9.5 513 4.5 512.4 1.7 509S-.4 500.5 3 497.7L627 1.7z"/></svg>