<svg xmlns="http://www.w3.org/2000/svg" viewBox="0 0 512 512"><!--! Font Awesome Pro 6.6.0 by @fontawesome - https://fontawesome.com License - https://fontawesome.com/license (Commercial License) Copyright 2024 Fonticons, Inc. --><path d="M419.6 30.3L416 16c-11.5 4.9-19.2 14-22.8 24.6c-1.8 5.2-6.1 9.2-11.5 10.4s-11-.4-15-4.3L352 32c-14.3 14.3-20.9 33.4-19.8 52.1c12 6.8 23.1 15.2 33 25.1l37.5 37.5c9.9 9.9 18.3 21 25.1 33c18.7 1.1 37.8-5.5 52.1-19.8l-14.7-14.7c-3.9-3.9-5.5-9.6-4.3-15s5.2-9.7 10.4-11.5C482 115.2 491.1 107.5 496 96l-14.3-3.6c-4.8-1.2-8.9-4.6-10.8-9.2s-1.7-9.8 .8-14.2c5.4-9.5 8.3-20.4 8.3-31.5l0-5.5-5.5 0c-11.2 0-22 2.9-31.5 8.3c-4.3 2.5-9.6 2.8-14.2 .8s-8-6-9.2-10.8zm71.7 141c-15.4 15.4-35.3 23.6-55.5 24.5c8 18.9 12.2 39.3 12.2 60.2c0 41-16.3 80.3-45.3 109.3L298.2 469.8c-27 27-63.6 42.2-101.8 42.2l-8.7 0c-38.2 0-74.8-15.2-101.8-42.2L42.2 426.2C15.2 399.2 0 362.5 0 324.4l0-8.7c0-38.2 15.2-74.8 42.2-101.8L146.7 109.3C175.7 80.3 215 64 256 64c20.9 0 41.3 4.2 60.2 12.2c.9-20.2 9.1-40.1 24.5-55.5c6.2-6.2 16.4-6.2 22.6 0l2.4 2.4 12.3 12.3c1.8-5.3 4.4-10.3 7.7-15c5.8-8.1 13.9-14.8 24-19.2c4.3-1.8 9.2-1.7 13.4 .4c3.7 1.8 6.5 5 7.9 8.8c.2 .6 .4 1.1 .5 1.7l3.6 14.3c4.7-2.7 9.7-4.9 14.9-6.5c7.9-2.5 16.1-3.9 24.6-3.9l5.5 0c8.8 0 16 7.2 16 16l0 5.5c0 8.4-1.3 16.7-3.9 24.6c-1.7 5.2-3.8 10.1-6.5 14.9l14.3 3.6c.6 .1 1.1 .3 1.7 .5c3.8 1.4 6.9 4.2 8.8 7.9c2.1 4.2 2.2 9.1 .4 13.4c-4.3 10.1-11.1 18.2-19.2 24c-4.6 3.3-9.7 5.9-15 7.7l12.3 12.3 2.4 2.4c6.2 6.2 6.2 16.4 0 22.6zM53.5 414.9l43.6 43.6c24 24 56.6 37.5 90.5 37.5l8.7 0c33.9 0 66.5-13.5 90.5-37.5L391.4 353.9c26-26 40.6-61.2 40.6-97.9s-14.6-72-40.6-97.9l-37.5-37.5C328 94.6 292.7 80 256 80s-72 14.6-97.9 40.6L53.5 225.1c-24 24-37.5 56.6-37.5 90.5l0 8.7c0 33.9 13.5 66.5 37.5 90.5zM165.7 218.3L192 244.7l26.3-26.3c3.1-3.1 8.2-3.1 11.3 0s3.1 8.2 0 11.3l-32 32c-3.1 3.1-8.2 3.1-11.3 0l-32-32c-3.1-3.1-3.1-8.2 0-11.3s8.2-3.1 11.3 0zm-64 96L128 340.7l26.3-26.3c3.1-3.1 8.2-3.1 11.3 0s3.1 8.2 0 11.3l-32 32c-3.1 3.1-8.2 3.1-11.3 0l-32-32c-3.1-3.1-3.1-8.2 0-11.3s8.2-3.1 11.3 0zm128 0L256 340.7l26.3-26.3c3.1-3.1 8.2-3.1 11.3 0s3.1 8.2 0 11.3l-32 32c-3.1 3.1-8.2 3.1-11.3 0l-32-32c-3.1-3.1-3.1-8.2 0-11.3s8.2-3.1 11.3 0zm-64 96L192 436.7l26.3-26.3c3.1-3.1 8.2-3.1 11.3 0s3.1 8.2 0 11.3l-32 32c-3.1 3.1-8.2 3.1-11.3 0l-32-32c-3.1-3.1-3.1-8.2 0-11.3s8.2-3.1 11.3 0z"/></svg>