<svg xmlns="http://www.w3.org/2000/svg" viewBox="0 0 640 512"><!--! Font Awesome Pro 6.6.0 by @fontawesome - https://fontawesome.com License - https://fontawesome.com/license (Commercial License) Copyright 2024 Fonticons, Inc. --><path d="M573.8 0C524 0 477 23.2 446.7 62.8L270.4 293.6c-4.6 6.1-14.4 2.8-14.4-4.9l0-24.7c0-22.1-17.9-40-40-40L40 224c-22.1 0-40 17.9-40 40l0 96c0 83.9 68.1 152 152 152l9.8 0c51.5 0 99.5-26.1 127.5-69.3L509 104.1c16.2-25 44-40.1 73.8-40.1L608 64c17.7 0 32-14.3 32-32s-14.3-32-32-32L573.8 0zM459.4 72.6C486.6 36.9 528.9 16 573.8 16L608 16c8.8 0 16 7.2 16 16s-7.2 16-16 16l-25.2 0c-35.2 0-68.1 17.8-87.2 47.4L410.8 226.1l-43.7-32.8L459.4 72.6zM357.4 206l44.7 33.5L275.9 434c-25.1 38.7-68 62-114.1 62l-9.8 0C76.9 496 16 435.1 16 360l0-96c0-13.3 10.7-24 24-24l176 0c13.3 0 24 10.7 24 24l0 24.7c0 23 29.1 32.8 43.1 14.6L357.4 206z"/></svg>