<svg xmlns="http://www.w3.org/2000/svg" viewBox="0 0 512 512"><!--! Font Awesome Pro 6.6.0 by @fontawesome - https://fontawesome.com License - https://fontawesome.com/license (Commercial License) Copyright 2024 Fonticons, Inc. --><path d="M56.5 382.1c5-5 6.1-12.7 2.7-19C41.9 331.3 32 294.8 32 256s9.9-75.3 27.2-107.1c3.4-6.2 2.3-14-2.7-19L31.2 104.6C21.5 94.8 16 81.6 16 67.9C16 39.2 39.2 16 67.9 16c13.8 0 27 5.5 36.7 15.2l25.3 25.3c5 5 12.7 6.1 19 2.7C180.7 41.9 217.2 32 256 32s75.3 9.9 107.1 27.2c6.2 3.4 14 2.3 19-2.7l25.3-25.3c9.7-9.7 22.9-15.2 36.7-15.2C472.8 16 496 39.2 496 67.9c0 13.8-5.5 27-15.2 36.7l-25.3 25.3c-5 5-6.1 12.7-2.7 19C470.1 180.7 480 217.2 480 256s-9.9 75.3-27.2 107.1c-3.4 6.2-2.3 14 2.7 19l25.3 25.3c9.7 9.7 15.2 22.9 15.2 36.7c0 28.7-23.2 51.9-51.9 51.9c-13.8 0-27-5.5-36.7-15.2l-25.3-25.3c-5-5-12.7-6.1-19-2.7C331.3 470.1 294.8 480 256 480s-75.3-9.9-107.1-27.2c-6.2-3.4-14-2.3-19 2.7l-25.3 25.3C94.8 490.5 81.6 496 67.9 496C39.2 496 16 472.8 16 444.1c0-13.8 5.5-27 15.2-36.7l25.3-25.3zM496 256c0-41.6-10.6-80.7-29.2-114.8l25.3-25.3c12.7-12.7 19.9-30 19.9-48C512 30.4 481.6 0 444.1 0c-18 0-35.3 7.2-48 19.9L370.8 45.2C336.7 26.6 297.6 16 256 16s-80.7 10.6-114.8 29.2L115.9 19.9C103.2 7.2 85.9 0 67.9 0C30.4 0 0 30.4 0 67.9c0 18 7.2 35.3 19.9 48l25.3 25.3C26.6 175.3 16 214.4 16 256s10.6 80.7 29.2 114.8L19.9 396.1C7.2 408.8 0 426.1 0 444.1C0 481.6 30.4 512 67.9 512c18 0 35.3-7.2 48-19.9l25.3-25.3C175.3 485.4 214.4 496 256 496s80.7-10.6 114.8-29.2l25.3 25.3c12.7 12.7 30 19.9 48 19.9c37.5 0 67.9-30.4 67.9-67.9c0-18-7.2-35.3-19.9-48l-25.3-25.3C485.4 336.7 496 297.6 496 256zM64 80a16 16 0 1 0 0-32 16 16 0 1 0 0 32zM80 448a16 16 0 1 0 -32 0 16 16 0 1 0 32 0zM448 80a16 16 0 1 0 0-32 16 16 0 1 0 0 32zm16 368a16 16 0 1 0 -32 0 16 16 0 1 0 32 0zM112 256a144 144 0 1 1 288 0 144 144 0 1 1 -288 0zm304 0A160 160 0 1 0 96 256a160 160 0 1 0 320 0z"/></svg>