<svg xmlns="http://www.w3.org/2000/svg" viewBox="0 0 512 512"><!--! Font Awesome Pro 6.6.0 by @fontawesome - https://fontawesome.com License - https://fontawesome.com/license (Commercial License) Copyright 2024 Fonticons, Inc. --><path d="M39.4 16l62.1 0c14.9 0 29.1 5.9 39.6 16.4L364.7 256l-100.6 0c-6.1 0-12.1 .8-18 2.3L70.4 303.6 16 44.9C12.8 30 24.2 16 39.4 16zM.3 48.2L54.9 307.6l-4.3 1.1C20.8 316.4 0 343.3 0 374c0 28.5 18 54 44.9 63.5l198.1 70.3c7.7 2.7 15.9 4.1 24.1 4.1l237 0c4.4 0 8-3.6 8-8s-3.6-8-8-8l-237 0c-6.4 0-12.7-1.1-18.7-3.2L50.2 422.5C29.7 415.2 16 395.8 16 374c0-23.4 15.9-43.9 38.6-49.8l195.6-50.5c4.6-1.2 9.3-1.8 14-1.8L504 272c4.4 0 8-3.6 8-8s-3.6-8-8-8l-116.7 0-5.7-5.7L152.4 21.1C138.9 7.6 120.6 0 101.5 0L39.4 0C14 0-4.9 23.4 .3 48.2zM200 368c-4.4 0-8 3.6-8 8s3.6 8 8 8l176 0c4.4 0 8-3.6 8-8s-3.6-8-8-8l-176 0z"/></svg>