<svg xmlns="http://www.w3.org/2000/svg" viewBox="0 0 576 512"><!--! Font Awesome Pro 6.6.0 by @fontawesome - https://fontawesome.com License - https://fontawesome.com/license (Commercial License) Copyright 2024 Fonticons, Inc. --><path d="M112 8c0-4.4-3.6-8-8-8s-8 3.6-8 8l0 104 16 0L112 8zM288 8c0-4.4-3.6-8-8-8s-8 3.6-8 8l0 104 16 0L288 8zM8 144c-4.4 0-8 3.6-8 8s3.6 8 8 8l32 0 0 80c0 81.3 63.8 147.6 144 151.8L184 504c0 4.4 3.6 8 8 8s8-3.6 8-8l0-112.2c20-1 39-6 56.3-14c-.2-3.2-.3-6.5-.3-9.8c0-2.7 .1-5.4 .2-8.1c-19.1 10.3-41 16.1-64.2 16.1c-75.1 0-136-60.9-136-136l0-80 272 0 0 66c5.1-3.8 10.5-7.3 16-10.5l0-55.5 32 0c4.4 0 8-3.6 8-8s-3.6-8-8-8l-32 0-16 0L56 144l-16 0L8 144zm424 96a128 128 0 1 1 0 256 128 128 0 1 1 0-256zm0 272a144 144 0 1 0 0-288 144 144 0 1 0 0 288zm80-144c0-4.4-3.6-8-8-8l-144 0c-4.4 0-8 3.6-8 8s3.6 8 8 8l144 0c4.4 0 8-3.6 8-8z"/></svg>