<svg xmlns="http://www.w3.org/2000/svg" viewBox="0 0 640 512"><!--! Font Awesome Pro 6.6.0 by @fontawesome - https://fontawesome.com License - https://fontawesome.com/license (Commercial License) Copyright 2024 Fonticons, Inc. --><path d="M112 8c0-4.4-3.6-8-8-8s-8 3.6-8 8c0 27.4 5.1 46.4 13.3 61.1c8 14.4 18.6 23.9 28.3 32.6l.3 .3c9.9 8.9 18.7 16.9 25.3 28.7c6.5 11.7 11.2 27.9 11.2 53.3c0 4.4 3.6 8 8 8s8-3.6 8-8c0-27.4-5.1-46.4-13.3-61.1c-8-14.4-18.6-23.9-28.3-32.6l-.3-.3c-9.9-8.9-18.7-16.9-25.3-28.7C116.7 49.6 112 33.4 112 8zm97.6 0c0-4.4-3.6-8-8-8s-8 3.6-8 8c0 27.4 5.1 46.4 13.3 61.1c8 14.4 18.6 23.9 28.3 32.6l.3 .3c9.9 8.9 18.7 16.9 25.3 28.7c6.5 11.7 11.2 27.9 11.2 53.3c0 4.4 3.6 8 8 8s8-3.6 8-8c0-27.4-5.1-46.4-13.3-61.1c-8-14.4-18.6-23.9-28.3-32.6l-.3-.3c-9.9-8.9-18.7-16.9-25.3-28.7C214.3 49.6 209.6 33.4 209.6 8zM32 256c-4.4 0-8 3.6-8 8s3.6 8 8 8l34.8 0 .8 13.2c4.9 83.3 54.8 153.7 125.3 188.2c4.3 22 23.8 38.7 47.1 38.7l160 0c23.3 0 42.8-16.6 47.1-38.7c70.5-34.5 120.4-104.9 125.3-188.2l.8-13.2 34.8 0c4.4 0 8-3.6 8-8s-3.6-8-8-8l-33.9 0c0-17.5-14.2-32-32-32L97.9 224c-17.8 0-32 14.5-32 32L32 256zm490.5-64l16.8 0c-13.8-46.3-56.6-80-107.4-80s-93.6 33.7-107.4 80l16.8 0c13.2-37.3 48.7-64 90.5-64s77.4 26.7 90.5 64zM208.6 470.2c-1-4.9-4.2-9.1-8.7-11.3c-65.5-32-111.8-97.4-116.4-174.7L82 256.9c-.5-9.2 6.8-16.9 16-16.9l444.1 0c9.2 0 16.5 7.7 16 16.9l-1.6 27.3c-4.5 77.3-50.9 142.7-116.4 174.7c-4.5 2.2-7.7 6.4-8.7 11.3C428.5 484.9 415.5 496 400 496l-160 0c-15.5 0-28.5-11.1-31.4-25.8z"/></svg>