<svg xmlns="http://www.w3.org/2000/svg" viewBox="0 0 512 512"><!--! Font Awesome Pro 6.6.0 by @fontawesome - https://fontawesome.com License - https://fontawesome.com/license (Commercial License) Copyright 2024 Fonticons, Inc. --><path d="M496 144c0-70.7-57.3-128-128-128c-35.4 0-67.5 14.4-90.6 37.6c-28.5 28.6-63.4 54.7-98.8 74c-21.4 11.8-39.2 29.5-50.9 50.9c-19.4 35.4-45.4 70.2-74 98.8C30.4 300.5 16 332.6 16 368c0 70.7 57.3 128 128 128c26.9 0 51.9-8.3 72.5-22.5c29.3-20.2 62.8-36.8 96.4-48.2c39.2-13.3 71.2-45.2 82.7-88.2c9.9-37.1 31.8-73.4 59.8-99.6c25-23.4 40.6-56.6 40.6-93.5zm16 0c0 41.5-17.6 78.9-45.7 105.2c-25.8 24.2-46.1 57.9-55.2 92.1c-12.9 48.3-49 84.3-93.1 99.2c-32.3 10.9-64.4 26.9-92.5 46.2C202.4 502.7 174.3 512 144 512C64.5 512 0 447.5 0 368c0-39.8 16.2-75.9 42.3-102C69.8 238.6 95 205 113.6 170.9c13.2-24.1 33.1-44 57.3-57.3C205 95 238.6 69.8 266 42.3C292.1 16.2 328.2 0 368 0c79.5 0 144 64.5 144 144zM176 256a16 16 0 1 1 0-32 16 16 0 1 1 0 32zM160 400a16 16 0 1 1 -32 0 16 16 0 1 1 32 0zM368 192a16 16 0 1 1 0-32 16 16 0 1 1 0 32z"/></svg>