<svg xmlns="http://www.w3.org/2000/svg" viewBox="0 0 640 512"><!--! Font Awesome Pro 6.6.0 by @fontawesome - https://fontawesome.com License - https://fontawesome.com/license (Commercial License) Copyright 2024 Fonticons, Inc. --><path d="M168 80c-13.3 0-24 10.7-24 24l0 96.8c0 17.2-14 31.2-31.2 31.2c-12.7 0-22.8-7.8-29.2-16.4C76 205.5 66.2 200 56 200c-10.2 0-20 5.5-27.5 15.5S16 239.9 16 256s4.9 30.4 12.5 40.5S45.8 312 56 312c10.2 0 20-5.5 27.6-15.6c6.4-8.5 16.5-16.4 29.2-16.4c17.2 0 31.2 14 31.2 31.2l0 96.8c0 13.3 10.7 24 24 24l105.5 0c3.6 0 6.5-2.9 6.5-6.6c0-2.3-1.4-4.9-4.2-6.9C259.1 407 248 388.8 248 368c0-36.3 33.3-64 72-64s72 27.7 72 64c0 20.8-11.1 39-27.8 50.5c-2.9 2-4.2 4.6-4.2 6.9c0 3.6 2.9 6.6 6.6 6.6L472 432c13.3 0 24-10.7 24-24l0-96.8c0-17.2 14-31.2 31.2-31.2c12.7 0 22.8 7.8 29.2 16.4C564 306.5 573.8 312 584 312c10.2 0 20-5.5 27.5-15.5s12.5-24.3 12.5-40.5s-4.9-30.4-12.5-40.5S594.2 200 584 200c-10.2 0-20 5.5-27.6 15.6c-6.4 8.5-16.5 16.4-29.2 16.4C510 232 496 218 496 200.8l0-96.8c0-13.3-10.7-24-24-24L366.6 80c-3.6 0-6.6 2.9-6.6 6.5c0 2.3 1.4 4.9 4.2 6.9C380.9 105 392 123.2 392 144c0 36.3-33.3 64-72 64s-72-27.7-72-64c0-20.8 11.1-39 27.8-50.5c2.9-2 4.2-4.6 4.2-6.9c0-3.6-2.9-6.5-6.5-6.5L168 80zm-40 24c0-22.1 17.9-40 40-40l105.5 0C285.9 64 296 74.1 296 86.5c0 8.7-5 15.8-11.1 20.1c-13 9-20.9 22.5-20.9 37.4c0 25.5 24 48 56 48s56-22.5 56-48c0-14.8-7.9-28.4-20.9-37.4C349 102.4 344 95.2 344 86.5C344 74.1 354.1 64 366.6 64L472 64c22.1 0 40 17.9 40 40l0 96.8c0 8.4 6.8 15.2 15.2 15.2c5.8 0 11.7-3.7 16.4-10c9.8-13.2 24-22 40.4-22c16.3 0 30.5 8.8 40.3 21.9S640 236.8 640 256s-5.8 37-15.7 50.1s-24 21.9-40.3 21.9c-16.4 0-30.6-8.9-40.4-22c-4.7-6.3-10.6-10-16.4-10c-8.4 0-15.2 6.8-15.2 15.2l0 96.8c0 22.1-17.9 40-40 40l-105.4 0c-12.5 0-22.6-10.1-22.6-22.6c0-8.7 5-15.8 11.1-20.1c13-9 20.9-22.6 20.9-37.4c0-25.5-24-48-56-48s-56 22.5-56 48c0 14.8 7.9 28.4 20.9 37.4c6.2 4.3 11.1 11.4 11.1 20.1c0 12.5-10.1 22.6-22.5 22.6L168 448c-22.1 0-40-17.9-40-40l0-96.8c0-8.4-6.8-15.2-15.2-15.2c-5.8 0-11.7 3.7-16.4 10c-9.8 13.2-24 22-40.4 22c-16.3 0-30.5-8.8-40.3-21.9S0 275.2 0 256s5.8-37 15.7-50.1S39.7 184 56 184c16.4 0 30.6 8.9 40.4 22c4.7 6.3 10.6 10 16.4 10c8.4 0 15.2-6.8 15.2-15.2l0-96.8z"/></svg>