<svg xmlns="http://www.w3.org/2000/svg" viewBox="0 0 576 512"><!--! Font Awesome Pro 6.6.0 by @fontawesome - https://fontawesome.com License - https://fontawesome.com/license (Commercial License) Copyright 2024 Fonticons, Inc. --><path d="M0 80C0 35.8 35.8 0 80 0l8 0c4.4 0 8 3.6 8 8s-3.6 8-8 8l-8 0C44.7 16 16 44.7 16 80l0 28.2C24.5 100.6 35.7 96 48 96l32 0c26.5 0 48 21.5 48 48l0 32c0 26.5-21.5 48-48 48l-32 0c-26.5 0-48-21.5-48-48l0-16 0-16L0 80zm16 64l0 16 0 16c0 17.7 14.3 32 32 32l32 0c17.7 0 32-14.3 32-32l0-32c0-17.7-14.3-32-32-32l-32 0c-17.7 0-32 14.3-32 32zM160 80c0-44.2 35.8-80 80-80l8 0c4.4 0 8 3.6 8 8s-3.6 8-8 8l-8 0c-35.3 0-64 28.7-64 64l0 28.2c8.5-7.6 19.7-12.2 32-12.2l32 0c26.5 0 48 21.5 48 48l0 32c0 26.5-21.5 48-48 48l-32 0c-26.5 0-48-21.5-48-48l0-16 0-16 0-64zm16 80l0 16c0 17.7 14.3 32 32 32l32 0c17.7 0 32-14.3 32-32l0-32c0-17.7-14.3-32-32-32l-32 0c-17.7 0-32 14.3-32 32l0 16zM576 432c0 44.2-35.8 80-80 80l-8 0c-4.4 0-8-3.6-8-8s3.6-8 8-8l8 0c35.3 0 64-28.7 64-64l0-28.2c-8.5 7.6-19.7 12.2-32 12.2l-32 0c-26.5 0-48-21.5-48-48l0-32c0-26.5 21.5-48 48-48l32 0c26.5 0 48 21.5 48 48l0 16 0 16 0 64zm-16-64l0-16 0-16c0-17.7-14.3-32-32-32l-32 0c-17.7 0-32 14.3-32 32l0 32c0 17.7 14.3 32 32 32l32 0c17.7 0 32-14.3 32-32zM416 432c0 44.2-35.8 80-80 80l-8 0c-4.4 0-8-3.6-8-8s3.6-8 8-8l8 0c35.3 0 64-28.7 64-64l0-28.2c-8.5 7.6-19.7 12.2-32 12.2l-32 0c-26.5 0-48-21.5-48-48l0-32c0-26.5 21.5-48 48-48l32 0c26.5 0 48 21.5 48 48l0 16 0 16 0 64zm-16-80l0-16c0-17.7-14.3-32-32-32l-32 0c-17.7 0-32 14.3-32 32l0 32c0 17.7 14.3 32 32 32l32 0c17.7 0 32-14.3 32-32l0-16z"/></svg>