<svg xmlns="http://www.w3.org/2000/svg" viewBox="0 0 448 512"><!--! Font Awesome Pro 6.6.0 by @fontawesome - https://fontawesome.com License - https://fontawesome.com/license (Commercial License) Copyright 2024 Fonticons, Inc. --><path d="M448 296c0 66.3-53.7 120-120 120l-16 0c-4.4 0-8-3.6-8-8s3.6-8 8-8l16 0c57.4 0 104-46.6 104-104l0-34.7c-13.2 16.3-33.4 26.7-56 26.7l-48 0c-39.8 0-72-32.2-72-72l0-48c0-39.8 32.2-72 72-72l48 0c39.8 0 72 32.2 72 72l0 32 0 16 0 80zm-16-96l0-32c0-30.9-25.1-56-56-56l-48 0c-30.9 0-56 25.1-56 56l0 48c0 30.9 25.1 56 56 56l48 0c30.9 0 56-25.1 56-56l0-16zM192 296c0 66.3-53.7 120-120 120l-16 0c-4.4 0-8-3.6-8-8s3.6-8 8-8l16 0c57.4 0 104-46.6 104-104l0-34.7c-13.2 16.3-33.4 26.7-56 26.7l-48 0c-39.8 0-72-32.2-72-72l0-48c0-39.8 32.2-72 72-72l48 0c39.8 0 72 32.2 72 72l0 32 0 16 0 80zm-16-96l0-32c0-30.9-25.1-56-56-56l-48 0c-30.9 0-56 25.1-56 56l0 48c0 30.9 25.1 56 56 56l48 0c30.9 0 56-25.1 56-56l0-16z"/></svg>