<svg xmlns="http://www.w3.org/2000/svg" viewBox="0 0 576 512"><!--! Font Awesome Pro 6.6.0 by @fontawesome - https://fontawesome.com License - https://fontawesome.com/license (Commercial License) Copyright 2024 Fonticons, Inc. --><path d="M498.1 173.6l-7.4-5.1c-15.7-10.7-34.3-16.5-53.4-16.5c-2.5 0-4.9 .1-7.4 .3l-.1-.4-3.7-14.6c-11.7-46.4-46.3-83.6-91.8-98.6c-7.7-2.6-16.2-1.7-23.3 2.4l-2.1 1.2c-13.5 7.8-20 23.7-15.8 38.6l10.2 37c4.9 17.9 13.4 34.3 24.7 48.5l-80-36.3c-14.7-6.7-30.7-10.1-46.8-10.1l-9 0c-30.4 0-57.8 13-76.8 33.8C103.7 138.1 85 128 64 128c-35.3 0-64 28.7-64 64s28.7 64 64 64c9.7 0 19-2.2 27.2-6.1c4.6 18 13.9 34.6 27.3 47.9L182 361.3l-68.2 45.4c-18.4 12.3-23.3 37.1-11.1 55.5s37.1 23.3 55.5 11.1L239.7 419l15.9 15.9c13.5 13.5 31.8 21.1 50.9 21.1L424 456c22.1 0 40-17.9 40-40s-17.9-40-40-40l-70.9 0 40-48 116.7 0c36.6 0 66.2-29.6 66.2-66.2c0-21.9-10.8-42.3-28.8-54.6l-34.4-23.5c8.8-51.4-8-104.3-45.7-141.3l-1.4-1.4c-7.6-7.4-18.3-10.6-28.7-8.6l-1.6 .3c-11.1 2.1-20.1 10-23.9 20.5c4.5 4.2 8.9 8.6 13 13.3c.5-2.3 1.1-4.6 1.7-6.8c1.6-5.7 6.3-10.1 12.2-11.2L440 48c5.2-1 10.6 .6 14.5 4.4l1.4 1.4c32.2 31.5 47.4 75.9 42.2 119.8zM88 224.2c0 3.1 .1 6.1 .4 9.2C81.3 237.6 72.9 240 64 240c-26.5 0-48-21.5-48-48s21.5-48 48-48c17.4 0 32.6 9.2 41 23.1c-10.8 16.4-17 36-17 57.1zM193.5 372.8l34.6 34.6L149.3 460c-11 7.4-25.9 4.4-33.3-6.7s-4.4-25.9 6.7-33.3l70.8-47.2zM329.3 53.9c40.3 13.3 70.9 46.2 81.3 87.4l3.7 14.6c.4 1.7 .6 3.5 .5 5.2c-.2 2.5 .9 4.9 2.8 6.6s4.4 2.3 6.9 1.8c4.1-.9 8.4-1.3 12.8-1.3c15.8 0 31.3 4.8 44.3 13.7l56.6 38.7c13.7 9.4 21.9 24.9 21.9 41.4c0 27.7-22.5 50.2-50.2 50.2l-120.5 0c-2.4 0-4.6 1.1-6.1 2.9L336 371.5l0-19.5c0-42-25.2-79.9-64-96l-36.9-15.4c-4.1-1.7-8.8 .2-10.5 4.3s.2 8.8 4.3 10.5l36.9 15.4C298.6 284.4 320 316.5 320 352l0 32c0 4.4 3.6 8 8 8l24 0 72 0c13.3 0 24 10.7 24 24s-10.7 24-24 24l-117.5 0c-14.9 0-29.1-5.9-39.6-16.4L129.8 286.5c-16.5-16.5-25.8-39-25.8-62.3c0-48.7 39.5-88.2 88.2-88.2l9 0c13.9 0 27.6 3 40.2 8.7l131.2 59.6c3.9 1.8 8.4 .2 10.4-3.6c.2-.4 .5-.9 .7-1.3c1.2-2.1 1.3-4.6 .4-6.8s-2.7-3.9-5-4.7c-.7-.2-1.4-.5-2.1-.9c-28.6-15.5-49.6-42-58.3-73.4l-10.2-37c-2.2-8 1.3-16.4 8.4-20.5l2.1-1.2c3.1-1.8 6.8-2.2 10.3-1.1zM496 240a16 16 0 1 0 -32 0 16 16 0 1 0 32 0z"/></svg>