<svg xmlns="http://www.w3.org/2000/svg" viewBox="0 0 512 512"><!--! Font Awesome Pro 6.6.0 by @fontawesome - https://fontawesome.com License - https://fontawesome.com/license (Commercial License) Copyright 2024 Fonticons, Inc. --><path d="M192.4 184c-15.3 13.6-26.3 32-30.6 52.9c-.2 1.2-.8 2.2-1.4 2.7c-.3 .2-.4 .3-.5 .3c0 0 0 0 0 0L32 240c-9.5 0-15-7.3-14.2-14C26 160.4 60.7 102.9 111 64.7c5.3-4 14.4-2.9 19.1 5.3l64 110.9s0 0 0 0c0 .1 0 .3-.1 .6c-.2 .8-.7 1.8-1.6 2.6zm33 163c9.6 3.2 19.9 5 30.5 5s20.9-1.7 30.5-5c1.2-.4 2.3-.4 3.1-.1c.3 .1 .5 .2 .5 .2c0 0 0 0 0 0l64 110.9c4.7 8.2 1.2 16.6-5 19.2C320.6 489.3 289.1 496 256 496s-64.6-6.7-93.2-18.8c-6.1-2.6-9.7-11-5-19.2l64-110.9s0 0 0 0c0 0 .2-.1 .5-.2c.7-.2 1.9-.3 3.1 .1zM480 240l-128 0s0 0 0 0c0 0-.2-.1-.5-.3c-.6-.5-1.2-1.5-1.4-2.7c-4.2-20.9-15.2-39.3-30.6-52.9c-.9-.8-1.5-1.8-1.6-2.6c-.1-.3-.1-.5-.1-.6c0 0 0 0 0 0L381.9 70c4.7-8.2 13.8-9.3 19.1-5.3c50.3 38.2 85 95.6 93.2 161.3c.8 6.7-4.7 14-14.2 14zM160 256c8.8 0 15.8-7.2 17.6-15.9c3.5-17.4 12.7-32.8 25.5-44.1c6.6-5.8 9.4-15.5 5-23.2L144 62c-8.8-15.3-28.6-20.7-42.7-10C47.8 92.7 10.7 154 2 224.1C-.2 241.6 14.3 256 32 256l128 0zm48 83.2L144 450.1c-8.8 15.3-3.7 35.1 12.6 41.9c30.6 12.9 64.2 20 99.4 20s68.9-7.1 99.4-20c16.3-6.9 21.4-26.6 12.6-41.9L304 339.2c-4.4-7.7-14.2-10.1-22.6-7.3c-8 2.7-16.5 4.1-25.4 4.1s-17.4-1.4-25.4-4.1c-8.4-2.8-18.2-.4-22.6 7.3zm126.4-99.1c1.7 8.7 8.7 15.9 17.6 15.9l128 0c17.7 0 32.2-14.4 30-31.9C501.3 154 464.2 92.7 410.7 52c-14.1-10.7-33.8-5.3-42.7 10L304 172.9c-4.4 7.6-1.7 17.3 5 23.2c12.8 11.3 22 26.7 25.5 44.1zM224 256a32 32 0 1 1 64 0 32 32 0 1 1 -64 0zm80 0a48 48 0 1 0 -96 0 48 48 0 1 0 96 0z"/></svg>