<svg xmlns="http://www.w3.org/2000/svg" viewBox="0 0 512 512"><!--! Font Awesome Pro 6.6.0 by @fontawesome - https://fontawesome.com License - https://fontawesome.com/license (Commercial License) Copyright 2024 Fonticons, Inc. --><path d="M506.1 15.7c4.3-1.2 6.8-5.6 5.6-9.8s-5.6-6.8-9.8-5.6L53 123.4c-26.4 7.2-46 28.7-51.4 54.7C.5 182.6 0 187.2 0 192l0 .8L0 240 0 448c0 35.3 28.7 64 64 64l384 0c35.3 0 64-28.7 64-64l0-256c0-35.3-28.7-64-64-64L96.6 128 506.1 15.7zM16 192.8c0-3.8 .4-7.6 1.1-11.2C21.9 160.1 41.1 144 64 144l384 0c26.5 0 48 21.5 48 48l0 48L16 240l0-47.2zM16 256l480 0 0 192c0 26.5-21.5 48-48 48L64 496c-26.5 0-48-21.5-48-48l0-192zM424 376a56 56 0 1 1 -112 0 56 56 0 1 1 112 0zm-128 0a72 72 0 1 0 144 0 72 72 0 1 0 -144 0zM64 344c0 4.4 3.6 8 8 8l144 0c4.4 0 8-3.6 8-8s-3.6-8-8-8L72 336c-4.4 0-8 3.6-8 8zm16 64c0 4.4 3.6 8 8 8l112 0c4.4 0 8-3.6 8-8s-3.6-8-8-8L88 400c-4.4 0-8 3.6-8 8z"/></svg>