<svg xmlns="http://www.w3.org/2000/svg" viewBox="0 0 448 512"><!--! Font Awesome Pro 6.6.0 by @fontawesome - https://fontawesome.com License - https://fontawesome.com/license (Commercial License) Copyright 2024 Fonticons, Inc. --><path d="M160 51.2l-42 80c-3.9 7.5-6 15.9-6 24.4l0 4.5c0 26.5 21.5 48 48 48s48-21.5 48-48l0-4.5c0-8.5-2.1-16.9-6-24.4l-42-80zM148.3 39.1c2.3-4.4 6.8-7.1 11.7-7.1s9.4 2.7 11.7 7.1l44.4 84.6c5.2 9.8 7.8 20.7 7.8 31.8l0 4.5c0 35.3-28.7 64-64 64s-64-28.7-64-64l0-4.5c0-11.1 2.7-22 7.8-31.8l44.4-84.6zM64 243.2l-42 80c-3.9 7.5-6 15.9-6 24.4l0 4.5c0 26.5 21.5 48 48 48s48-21.5 48-48l0-4.5c0-8.5-2.1-16.9-6-24.4l-42-80zM52.3 231.1c2.3-4.4 6.8-7.1 11.7-7.1s9.4 2.7 11.7 7.1l44.4 84.6c5.2 9.8 7.8 20.7 7.8 31.8l0 4.5c0 35.3-28.7 64-64 64s-64-28.7-64-64l0-4.5c0-11.1 2.7-22 7.8-31.8l44.4-84.6zm173.3 61.7c-11.5 17.9-17.5 38.7-17.5 59.9C208 414.1 258.4 464 320 464s112-49.9 112-111.2c0-21.2-6.1-42-17.5-59.9L320 145.2 225.5 292.8zm-13.5-8.6l95.6-149.5c2.7-4.2 7.3-6.7 12.3-6.7s9.6 2.5 12.3 6.7l95.6 149.5C441 304.7 448 328.5 448 352.8C448 423 390.3 480 320 480s-128-57-128-127.2c0-24.3 7-48.1 20.1-68.6z"/></svg>