<svg xmlns="http://www.w3.org/2000/svg" viewBox="0 0 640 512"><!--! Font Awesome Pro 6.6.0 by @fontawesome - https://fontawesome.com License - https://fontawesome.com/license (Commercial License) Copyright 2024 Fonticons, Inc. --><path d="M448 144c26.5 0 48 21.5 48 48c5.4 0 10.7 .2 16 .7l0-.7c0-35.3-28.7-64-64-64L64 128c-35.3 0-64 28.7-64 64L0 448c0 35.3 28.7 64 64 64l330.8 0c-6.9-4.9-13.4-10.2-19.6-16L64 496c-26.5 0-48-21.5-48-48l0-256c0-26.5 21.5-48 48-48l384 0zm8-80L56 64c-4.4 0-8 3.6-8 8s3.6 8 8 8l400 0c4.4 0 8-3.6 8-8s-3.6-8-8-8zM408 0L104 0c-4.4 0-8 3.6-8 8s3.6 8 8 8l304 0c4.4 0 8-3.6 8-8s-3.6-8-8-8zM573.9 469.6C552.3 486.2 525.3 496 496 496s-56.3-9.8-77.9-26.4l3.3-6.6c9.5-19 28.9-31 50.1-31l48.9 0c21.2 0 40.6 12 50.1 31l3.3 6.6zm12.4-10.9l-1.5-2.9c-12.2-24.4-37.1-39.8-64.4-39.8l-48.9 0c-27.3 0-52.2 15.4-64.4 39.8l-1.5 2.9C382.4 435.5 368 403.5 368 368c0-70.7 57.3-128 128-128s128 57.3 128 128c0 35.5-14.4 67.5-37.7 90.7zM640 368a144 144 0 1 0 -288 0 144 144 0 1 0 288 0zM496 304a32 32 0 1 1 0 64 32 32 0 1 1 0-64zm0 80a48 48 0 1 0 0-96 48 48 0 1 0 0 96z"/></svg>