<svg xmlns="http://www.w3.org/2000/svg" viewBox="0 0 512 512"><!--! Font Awesome Pro 6.6.0 by @fontawesome - https://fontawesome.com License - https://fontawesome.com/license (Commercial License) Copyright 2024 Fonticons, Inc. --><path d="M64 48C37.5 48 16 69.5 16 96l0 320c0 26.5 21.5 48 48 48l384 0c26.5 0 48-21.5 48-48l0-320c0-26.5-21.5-48-48-48L64 48zM0 96C0 60.7 28.7 32 64 32l384 0c35.3 0 64 28.7 64 64l0 320c0 35.3-28.7 64-64 64L64 480c-35.3 0-64-28.7-64-64L0 96zm178.3 82.3c3.1-3.1 8.2-3.1 11.3 0L256 244.7l66.3-66.3c3.1-3.1 8.2-3.1 11.3 0s3.1 8.2 0 11.3L267.3 256l66.3 66.3c3.1 3.1 3.1 8.2 0 11.3s-8.2 3.1-11.3 0L256 267.3l-66.3 66.3c-3.1 3.1-8.2 3.1-11.3 0s-3.1-8.2 0-11.3L244.7 256l-66.3-66.3c-3.1-3.1-3.1-8.2 0-11.3z"/></svg>