<svg xmlns="http://www.w3.org/2000/svg" viewBox="0 0 512 512"><!--! Font Awesome Pro 6.6.0 by @fontawesome - https://fontawesome.com License - https://fontawesome.com/license (Commercial License) Copyright 2024 Fonticons, Inc. --><path d="M256 0c-4.4 0-8 3.6-8 8l0 496c0 4.4 3.6 8 8 8s8-3.6 8-8L264 8c0-4.4-3.6-8-8-8zM16 128c0-6.5 3.9-12.3 9.9-14.8s12.9-1.1 17.4 3.5l128 128c6.2 6.2 6.2 16.4 0 22.6l-128 128c-4.6 4.6-11.5 5.9-17.4 3.5s-9.9-8.3-9.9-14.8l0-256zM182.6 278.6c12.5-12.5 12.5-32.8 0-45.3l-128-128c-9.2-9.2-22.9-11.9-34.9-6.9S0 115.1 0 128L0 384c0 12.9 7.8 24.6 19.8 29.6s25.7 2.2 34.9-6.9l128-128zM486.1 113.2c6 2.5 9.9 8.3 9.9 14.8l0 256c0 6.5-3.9 12.3-9.9 14.8s-12.9 1.1-17.4-3.5l-128-128c-6.2-6.2-6.2-16.4 0-22.6l128-128c4.6-4.6 11.5-5.9 17.4-3.5zM329.4 233.4c-12.5 12.5-12.5 32.8 0 45.3l128 128c9.2 9.2 22.9 11.9 34.9 6.9s19.8-16.6 19.8-29.6l0-256c0-12.9-7.8-24.6-19.8-29.6s-25.7-2.2-34.9 6.9l-128 128z"/></svg>