<svg xmlns="http://www.w3.org/2000/svg" viewBox="0 0 512 512"><!--! Font Awesome Pro 6.6.0 by @fontawesome - https://fontawesome.com License - https://fontawesome.com/license (Commercial License) Copyright 2024 Fonticons, Inc. --><path d="M0 256c0 4.4 3.6 8 8 8l496 0c4.4 0 8-3.6 8-8s-3.6-8-8-8L8 248c-4.4 0-8 3.6-8 8zM128 496c-6.5 0-12.3-3.9-14.8-9.9s-1.1-12.9 3.5-17.4l128-128c6.2-6.2 16.4-6.2 22.6 0l128 128c4.6 4.6 5.9 11.5 3.5 17.4s-8.3 9.9-14.8 9.9l-256 0zM278.6 329.4c-12.5-12.5-32.8-12.5-45.3 0l-128 128c-9.2 9.2-11.9 22.9-6.9 34.9s16.6 19.8 29.6 19.8l256 0c12.9 0 24.6-7.8 29.6-19.8s2.2-25.7-6.9-34.9l-128-128zM113.2 25.9c2.5-6 8.3-9.9 14.8-9.9l256 0c6.5 0 12.3 3.9 14.8 9.9s1.1 12.9-3.5 17.4l-128 128c-6.2 6.2-16.4 6.2-22.6 0l-128-128c-4.6-4.6-5.9-11.5-3.5-17.4zM233.4 182.6c12.5 12.5 32.8 12.5 45.3 0l128-128c9.2-9.2 11.9-22.9 6.9-34.9S396.9 0 384 0L128 0c-12.9 0-24.6 7.8-29.6 19.8s-2.2 25.7 6.9 34.9l128 128z"/></svg>