<svg xmlns="http://www.w3.org/2000/svg" viewBox="0 0 512 512"><!--! Font Awesome Pro 6.6.0 by @fontawesome - https://fontawesome.com License - https://fontawesome.com/license (Commercial License) Copyright 2024 Fonticons, Inc. --><path d="M347.3 176c3 0 5.9-1.2 8-3.3L432 96 355.3 19.3c-2.1-2.1-5-3.3-8-3.3c-6.2 0-11.3 5.1-11.3 11.3L336 96l0 68.7c0 6.2 5.1 11.3 11.3 11.3zM320 164.7l0-60.7-152 0C84.1 104 16 172.1 16 256l0 8c0 4.4-3.6 8-8 8s-8-3.6-8-8l0-8C0 163.2 75.2 88 168 88l152 0 0-60.7C320 12.2 332.2 0 347.3 0c7.2 0 14.2 2.9 19.3 8l76.7 76.7c3 3 4.7 7.1 4.7 11.3s-1.7 8.3-4.7 11.3L366.6 184c-5.1 5.1-12.1 8-19.3 8c-15.1 0-27.3-12.2-27.3-27.3zM164.7 336c-3 0-5.9 1.2-8 3.3L80 416l76.7 76.7c2.1 2.1 5 3.3 8 3.3c6.2 0 11.3-5.1 11.3-11.3l0-68.7 0-68.7c0-6.2-5.1-11.3-11.3-11.3zM192 347.3l0 60.7 152 0c83.9 0 152-68.1 152-152l0-8c0-4.4 3.6-8 8-8s8 3.6 8 8l0 8c0 92.8-75.2 168-168 168l-152 0 0 60.7c0 15.1-12.2 27.3-27.3 27.3c-7.2 0-14.2-2.9-19.3-8L68.7 427.3c-3-3-4.7-7.1-4.7-11.3s1.7-8.3 4.7-11.3L145.4 328c5.1-5.1 12.1-8 19.3-8c15.1 0 27.3 12.2 27.3 27.3z"/></svg>