<svg xmlns="http://www.w3.org/2000/svg" viewBox="0 0 640 512"><!--! Font Awesome Pro 6.6.0 by @fontawesome - https://fontawesome.com License - https://fontawesome.com/license (Commercial License) Copyright 2024 Fonticons, Inc. --><path d="M576 16l-88 0 0 80c0 4.4-3.6 8-8 8s-8-3.6-8-8l0-80-88 0c-26.5 0-48 21.5-48 48l0 384c0 26.5 21.5 48 48 48l88 0 0-80c0-4.4 3.6-8 8-8s8 3.6 8 8l0 80 88 0c26.5 0 48-21.5 48-48l0-384c0-26.5-21.5-48-48-48zM384 0l96 0 96 0c35.3 0 64 28.7 64 64l0 384c0 35.3-28.7 64-64 64l-192 0c-35.3 0-64-28.7-64-64l0-384c0-35.3 28.7-64 64-64zm96 192c4.4 0 8 3.6 8 8l0 112c0 4.4-3.6 8-8 8s-8-3.6-8-8l0-112c0-4.4 3.6-8 8-8zM8 96l280 0 0 16-56 0 0 80 56 0 0 16L8 208c-4.4 0-8-3.6-8-8s3.6-8 8-8l80 0 0-80L8 112c-4.4 0-8-3.6-8-8s3.6-8 8-8zM272 304l16 0 0 16-16 0c-39.8 0-72 32.2-72 72l0 80c0 22.1-17.9 40-40 40l-32 0c-22.1 0-40-17.9-40-40l0-80c0-39.8-32.2-72-72-72l-8 0c-4.4 0-8-3.6-8-8s3.6-8 8-8l8 0c48.6 0 88 39.4 88 88l0 80c0 13.3 10.7 24 24 24l32 0c13.3 0 24-10.7 24-24l0-80c0-48.6 39.4-88 88-88zM216 112l-112 0 0 80 112 0 0-80z"/></svg>