<svg xmlns="http://www.w3.org/2000/svg" viewBox="0 0 576 512"><!--! Font Awesome Pro 6.6.0 by @fontawesome - https://fontawesome.com License - https://fontawesome.com/license (Commercial License) Copyright 2024 Fonticons, Inc. --><path d="M185.4 32C162 32 141 46.6 132.9 68.6L8.4 404.6C-5.1 441.1 22 480 61 480L515 480c39 0 66.1-38.9 52.5-75.4L443.1 68.6C435 46.6 414 32 390.6 32L185.4 32zM147.9 74.1C153.7 58.4 168.7 48 185.4 48L280 48l0 56c0 4.4 3.6 8 8 8s8-3.6 8-8l0-56 94.6 0c16.7 0 31.7 10.4 37.5 26.1l124.4 336c9.7 26.1-9.6 53.9-37.5 53.9l-219 0 0-56c0-4.4-3.6-8-8-8s-8 3.6-8 8l0 56L61 464c-27.9 0-47.2-27.8-37.5-53.9l124.4-336zM296 200c0-4.4-3.6-8-8-8s-8 3.6-8 8l0 112c0 4.4 3.6 8 8 8s8-3.6 8-8l0-112z"/></svg>