<svg xmlns="http://www.w3.org/2000/svg" viewBox="0 0 512 512"><!--! Font Awesome Pro 6.6.0 by @fontawesome - https://fontawesome.com License - https://fontawesome.com/license (Commercial License) Copyright 2024 Fonticons, Inc. --><path d="M127.1 332.8l50.7 50.7c4.6 4.6 11.3 5.9 17 3.4c42.4-17.8 140.5-60.7 191.5-95.4C499.6 214.7 503.8 100.7 491 31c-.9-5.1-4.8-9-9.9-9.9C411.3 8.2 297.3 12.4 220.5 125.7c-34.5 50.9-78.3 147.8-96.7 189.9c-2.5 5.8-1.3 12.5 3.4 17.2zm39.3 62l-50.7-50.7c-9.2-9.2-11.9-23-6.7-34.9c2.6-6 5.8-13.2 9.4-21.2l-92.6 0C8 288-3.6 269.2 4.4 253.3L51.6 159c9.5-19 28.9-31 50.1-31l98.2 0c2.5-4 4.9-7.7 7.3-11.3C289.1-4.1 411.1-8.1 483.9 5.3c11.6 2.1 20.6 11.2 22.8 22.8c13.4 72.9 9.3 194.8-111.4 276.7c-3.6 2.4-7.3 4.9-11.3 7.3l0 98.2c0 21.2-12 40.6-31 50.1l-94.3 47.2c-16 8-34.7-3.6-34.7-21.5l0-94.3c-8.8 3.8-16.6 7.1-23 9.8c-11.8 5-25.4 2.2-34.5-6.9zM25.9 272l99.8 0c17.5-38.3 41.6-88.8 64.5-128l-88.5 0c-15.2 0-29 8.6-35.8 22.1L18.7 260.4c-2.7 5.3 1.2 11.6 7.2 11.6zM240 384.8l0 101.3c0 5.9 6.3 9.8 11.6 7.2l94.3-47.2c13.6-6.8 22.1-20.6 22.1-35.8l0-88.6c-39.1 22.6-89.5 46.1-128 63.1zM328 144a40 40 0 1 0 80 0 40 40 0 1 0 -80 0zm40 56a56 56 0 1 1 0-112 56 56 0 1 1 0 112z"/></svg>