<svg xmlns="http://www.w3.org/2000/svg" viewBox="0 0 512 512"><!--! Font Awesome Pro 6.6.0 by @fontawesome - https://fontawesome.com License - https://fontawesome.com/license (Commercial License) Copyright 2024 Fonticons, Inc. --><path d="M92.1 384.1c70.7 90.5 201.4 106.6 292 35.8c22.9-17.9 41.1-39.7 54.2-63.7c2.1-3.9 7-5.3 10.9-3.2s5.3 7 3.2 10.9c-14.2 25.8-33.7 49.3-58.4 68.6c-97.5 76.2-238.3 58.9-314.4-38.6S20.6 155.7 118.1 79.5c89.8-70.2 216.4-61 295.3 17.1l-11.3 11.3c-73.3-72.5-190.8-81-274.2-15.8c-90.5 70.7-106.6 201.4-35.8 292zM480 192c4.4 0 8-3.6 8-8l0-120c0-3.2-1.9-6.2-4.9-7.4s-6.4-.6-8.7 1.7l-120 120c-2.3 2.3-3 5.7-1.7 8.7s4.2 4.9 7.4 4.9l120 0zM360 208c-9.7 0-18.5-5.8-22.2-14.8s-1.7-19.3 5.2-26.2L463 47c6.9-6.9 17.2-8.9 26.2-5.2s14.8 12.5 14.8 22.2l0 120c0 13.3-10.7 24-24 24l-120 0z"/></svg>