<svg xmlns="http://www.w3.org/2000/svg" viewBox="0 0 640 512"><!--! Font Awesome Pro 6.6.0 by @fontawesome - https://fontawesome.com License - https://fontawesome.com/license (Commercial License) Copyright 2024 Fonticons, Inc. --><path d="M544.2 5.5c1.4 4.2-.9 8.7-5.1 10.1L384.6 67.1c-1.5 31.2-25.4 56.6-55.9 60.4l0 368.5 208 0c4.4 0 8 3.6 8 8s-3.6 8-8 8l-216 0c-4.4 0-8-3.6-8-8l0-376.5c-16.5-2.1-31.1-10.4-41.3-22.7L107.2 159.6c-4.2 1.4-8.7-.9-10.1-5.1s.9-8.7 5.1-10.1L262.6 90.9c-3.8-8.2-5.9-17.3-5.9-26.9c0-35.3 28.7-64 64-64c30.8 0 56.5 21.7 62.6 50.7L534.1 .4c4.2-1.4 8.7 .9 10.1 5.1zM52.7 464c20.5 19.2 47.1 32 75.7 32s55.2-12.8 75.7-32c20.3-19 33.1-43.1 35.8-64l-223 0c2.7 20.9 15.5 44.9 35.8 64zm75.7-254.2L23.8 384l209.1 0L128.4 209.8zM251.8 384.4c3 5 4.7 10.7 4.1 16.4C250 452.2 195.2 512 128.4 512S6.7 452.2 .9 400.8c-.7-5.8 1.1-11.5 4.1-16.4L116.3 198.9c2.6-4.3 7.2-6.9 12.1-6.9s9.6 2.6 12.1 6.9L251.8 384.4zM400.9 272c2.7 20.9 15.5 44.9 35.8 64c20.5 19.2 47.1 32 75.7 32s55.2-12.8 75.7-32c20.3-19 33.1-43.1 35.8-64l-223 0zm6.9-16l209.1 0L512.4 81.8 407.8 256zM524.5 70.9L635.8 256.4c3 5 4.7 10.7 4 16.4C634 324.2 579.2 384 512.4 384s-121.7-59.8-127.5-111.2c-.7-5.8 1.1-11.5 4.1-16.4L500.3 70.9c2.6-4.3 7.2-6.9 12.1-6.9s9.6 2.6 12.1 6.9zM320.7 112a48 48 0 1 0 0-96 48 48 0 1 0 0 96z"/></svg>