<svg xmlns="http://www.w3.org/2000/svg" viewBox="0 0 640 512"><!--! Font Awesome Pro 6.6.0 by @fontawesome - https://fontawesome.com License - https://fontawesome.com/license (Commercial License) Copyright 2024 Fonticons, Inc. --><path d="M384.7 64c0 32.6-24.4 59.6-56 63.5l0 368.5 208 0c4.4 0 8 3.6 8 8s-3.6 8-8 8l-216 0L104 512c-4.4 0-8-3.6-8-8s3.6-8 8-8l208.7 0 0-368.5c-31.6-3.9-56-30.9-56-63.5L104 64c-4.4 0-8-3.6-8-8s3.6-8 8-8l154.7 0c7.1-27.6 32.2-48 62-48s54.9 20.4 62 48L536 48c4.4 0 8 3.6 8 8s-3.6 8-8 8L384.7 64zm52 304c20.5 19.2 47.1 32 75.7 32s55.2-12.8 75.7-32c20.3-19 33.1-43.1 35.8-64l-223 0c2.7 20.9 15.5 44.9 35.8 64zm75.7-254.2L407.8 288l209.1 0L512.4 113.8zM635.8 288.4c3 5 4.7 10.7 4.1 16.4C634 356.2 579.2 416 512.4 416s-121.7-59.8-127.5-111.2c-.7-5.8 1.1-11.5 4-16.4L500.3 102.9c2.6-4.3 7.2-6.9 12.1-6.9s9.6 2.6 12.1 6.9L635.8 288.4zM16.2 304c2.7 20.9 15.5 44.9 35.8 64c20.5 19.2 47.1 32 75.7 32s55.2-12.8 75.7-32c20.3-19 33.1-43.1 35.8-64l-223 0zm6.9-16l209.1 0L127.6 113.8 23.1 288zM139.7 102.9L251.1 288.4c3 5 4.7 10.7 4.1 16.4C249.3 356.2 194.4 416 127.6 416S6 356.2 .1 304.8c-.7-5.8 1.1-11.5 4.1-16.4L115.5 102.9c2.6-4.3 7.2-6.9 12.1-6.9s9.6 2.6 12.1 6.9zM320.7 112a48 48 0 1 0 0-96 48 48 0 1 0 0 96z"/></svg>