<svg xmlns="http://www.w3.org/2000/svg" viewBox="0 0 640 512"><!--! Font Awesome Pro 6.6.0 by @fontawesome - https://fontawesome.com License - https://fontawesome.com/license (Commercial License) Copyright 2024 Fonticons, Inc. --><path d="M496 240a128 128 0 1 1 0 256 128 128 0 1 1 0-256zm0 272a144 144 0 1 0 0-288 144 144 0 1 0 0 288zm16-80a16 16 0 1 0 -32 0 16 16 0 1 0 32 0zm-8-144c0-4.4-3.6-8-8-8s-8 3.6-8 8l0 96c0 4.4 3.6 8 8 8s8-3.6 8-8l0-96zM324.6 1.4c-2.8-1.9-6.4-1.9-9.2 0L157.5 112 56 112c-30.9 0-56 25.1-56 56L0 456c0 30.9 25.1 56 56 56l200 0 16 0 96 0 16 0 10.8 0c-6.9-4.9-13.4-10.2-19.6-16l-7.2 0-64 0-32 0 0-112c0-26.5 21.5-48 48-48c1 0 1.9 0 2.9 .1c1-5.3 2.2-10.6 3.6-15.8c-2.1-.2-4.3-.3-6.5-.3c-35.3 0-64 28.7-64 64l0 112L56 496c-22.1 0-40-17.9-40-40l0-288c0-22.1 17.9-40 40-40l104 0c1.6 0 3.2-.5 4.6-1.4L320 17.8 475.4 126.6c1.3 .9 2.9 1.4 4.6 1.4l104 0c22.1 0 40 17.9 40 40l0 79.2c5.8 6.1 11.1 12.7 16 19.6l0-98.8c0-30.9-25.1-56-56-56l-101.5 0L324.6 1.4zM64 216l0 48c0 13.3 10.7 24 24 24l32 0c13.3 0 24-10.7 24-24l0-48c0-13.3-10.7-24-24-24l-32 0c-13.3 0-24 10.7-24 24zm24-8l32 0c4.4 0 8 3.6 8 8l0 48c0 4.4-3.6 8-8 8l-32 0c-4.4 0-8-3.6-8-8l0-48c0-4.4 3.6-8 8-8zm168-32a64 64 0 1 1 128 0 64 64 0 1 1 -128 0zm144 0a80 80 0 1 0 -160 0 80 80 0 1 0 160 0zm-80-40c-4.4 0-8 3.6-8 8l0 32c0 4.4 3.6 8 8 8l24 0c4.4 0 8-3.6 8-8s-3.6-8-8-8l-16 0 0-24c0-4.4-3.6-8-8-8zM88 320c-13.3 0-24 10.7-24 24l0 48c0 13.3 10.7 24 24 24l32 0c13.3 0 24-10.7 24-24l0-48c0-13.3-10.7-24-24-24l-32 0zm-8 24c0-4.4 3.6-8 8-8l32 0c4.4 0 8 3.6 8 8l0 48c0 4.4-3.6 8-8 8l-32 0c-4.4 0-8-3.6-8-8l0-48z"/></svg>