<svg xmlns="http://www.w3.org/2000/svg" viewBox="0 0 640 512"><!--! Font Awesome Pro 6.6.0 by @fontawesome - https://fontawesome.com License - https://fontawesome.com/license (Commercial License) Copyright 2024 Fonticons, Inc. --><path d="M544 16L96 16C69.5 16 48 37.5 48 64l0 172.8c-5.7 3.3-11.1 7.2-16 11.6L32 64C32 28.7 60.7 0 96 0L544 0c35.3 0 64 28.7 64 64l0 184.4c-4.9-4.4-10.3-8.3-16-11.6L592 64c0-26.5-21.5-48-48-48zM96 368a48 48 0 1 0 0-96 48 48 0 1 0 0 96zm0-112a64 64 0 1 1 0 128 64 64 0 1 1 0-128zM320 368a48 48 0 1 0 0-96 48 48 0 1 0 0 96zm0-112a64 64 0 1 1 0 128 64 64 0 1 1 0-128zm272 64a48 48 0 1 0 -96 0 48 48 0 1 0 96 0zm-112 0a64 64 0 1 1 128 0 64 64 0 1 1 -128 0zM16 488l0 16c0 4.4-3.6 8-8 8s-8-3.6-8-8l0-16c0-39.8 32.2-72 72-72l48 0c39.8 0 72 32.2 72 72l0 16c0 4.4-3.6 8-8 8s-8-3.6-8-8l0-16c0-30.9-25.1-56-56-56l-48 0c-30.9 0-56 25.1-56 56zm280-56c-30.9 0-56 25.1-56 56l0 16c0 4.4-3.6 8-8 8s-8-3.6-8-8l0-16c0-39.8 32.2-72 72-72l48 0c39.8 0 72 32.2 72 72l0 16c0 4.4-3.6 8-8 8s-8-3.6-8-8l0-16c0-30.9-25.1-56-56-56l-48 0zm168 56l0 16c0 4.4-3.6 8-8 8s-8-3.6-8-8l0-16c0-39.8 32.2-72 72-72l48 0c39.8 0 72 32.2 72 72l0 16c0 4.4-3.6 8-8 8s-8-3.6-8-8l0-16c0-30.9-25.1-56-56-56l-48 0c-30.9 0-56 25.1-56 56z"/></svg>