<svg xmlns="http://www.w3.org/2000/svg" viewBox="0 0 512 512"><!--! Font Awesome Pro 6.6.0 by @fontawesome - https://fontawesome.com License - https://fontawesome.com/license (Commercial License) Copyright 2024 Fonticons, Inc. --><path d="M480 16c8.8 0 16 7.2 16 16c0 102.9-74.7 188.4-172.9 205.1c1 5.2 1.9 10.5 2.6 15.8C431.4 234.9 512 142.9 512 32c0-17.7-14.3-32-32-32L448 0C367 0 296 43 256.6 107.5c3.8 4.1 7.5 8.3 11.1 12.6C303.7 57.9 371 16 448 16l32 0zM64 80c114.9 0 208 93.1 208 208l0 16-48 0C109.1 304 16 210.9 16 96c0-8.8 7.2-16 16-16l32 0zM32 64C14.3 64 0 78.3 0 96C0 219.7 100.3 320 224 320l48 0 0 184c0 4.4 3.6 8 8 8s8-3.6 8-8l0-184 0-8 0-8 0-16C288 164.3 187.7 64 64 64L32 64z"/></svg>