<svg xmlns="http://www.w3.org/2000/svg" viewBox="0 0 512 512"><!--! Font Awesome Pro 6.6.0 by @fontawesome - https://fontawesome.com License - https://fontawesome.com/license (Commercial License) Copyright 2024 Fonticons, Inc. --><path d="M352 88c0-39.8 32.2-72 72-72s72 32.2 72 72c0 16.2-5.4 31.2-14.4 43.2c-2.7 3.5-1.9 8.5 1.6 11.2s8.5 1.9 11.2-1.6c11-14.7 17.6-33 17.6-52.8c0-48.6-39.4-88-88-88s-88 39.4-88 88c0 11.7 2.3 22.9 6.4 33.1c6.2 15.2 5.8 31.3-3.3 40.4l-24.8 24.8L264 136c-17.7-17.7-46.3-17.7-64 0l-32 32c-17.7 17.7-17.7 46.3 0 64L280 344c17.7 17.7 46.3 17.7 64 0l32-32c17.7-17.7 17.7-46.3 0-64l-50.3-50.3 24.8-24.8c15.9-15.9 13.9-40.2 6.8-57.8c-3.4-8.3-5.3-17.5-5.3-27.1zM101.7 421.7L152 472c17.7 17.7 46.3 17.7 64 0l40-40c17.7-17.7 17.7-46.3 0-64L144 256c-17.7-17.7-46.3-17.7-64 0L40 296c-17.7 17.7-17.7 46.3 0 64l50.3 50.3-88 88c-3.1 3.1-3.1 8.2 0 11.3s8.2 3.1 11.3 0l88-88zm77.7-201c-11.4-11.4-11.4-29.9 0-41.4l32-32c11.4-11.4 29.9-11.4 41.4 0l112 112c11.4 11.4 11.4 29.9 0 41.4l-32 32c-11.4 11.4-29.9 11.4-41.4 0l-112-112zm-128 128c-11.4-11.4-11.4-29.9 0-41.4l40-40c11.4-11.4 29.9-11.4 41.4 0l112 112c11.4 11.4 11.4 29.9 0 41.4l-40 40c-11.4 11.4-29.9 11.4-41.4 0l-112-112z"/></svg>