<svg xmlns="http://www.w3.org/2000/svg" viewBox="0 0 640 512"><!--! Font Awesome Pro 6.6.0 by @fontawesome - https://fontawesome.com License - https://fontawesome.com/license (Commercial License) Copyright 2024 Fonticons, Inc. --><path d="M4.7 167.4C1.6 173.1 0 179.4 0 185.8C0 206.9 17.1 224 38.2 224L64 224l0 240c0 26.5 21.5 48 48 48l224 0c26.5 0 48-21.5 48-48l0-65.7-16-12.6 0 78.4c0 17.7-14.3 32-32 32l-224 0c-17.7 0-32-14.3-32-32l0-240 83.3 0L143 208l-71 0-33.8 0C26 208 16 198 16 185.8c0-3.7 .9-7.4 2.7-10.7l24.9-45.6L30.8 119.5l-26.2 48zM113.5 1.3L132.2 16l383.3 0c11.7 0 22.5 6.4 28.1 16.7l77.7 142.4c1.8 3.3 2.7 6.9 2.7 10.7c0 12.3-10 22.2-22.2 22.2L568 208l-192.6 0 20.3 16L560 224l0 129.7 16 12.6L576 224l25.8 0c21.1 0 38.2-17.1 38.2-38.2c0-6.4-1.6-12.7-4.7-18.3L557.6 25C549.2 9.6 533.1 0 515.5 0l-391 0c-3.7 0-7.4 .4-11 1.3zM512 315.8l0-59.8c0-4.4-3.6-8-8-8s-8 3.6-8 8l0 47.2 16 12.6zM304 335.1l0 24.9c0 4.4-3.6 8-8 8l-144 0c-4.4 0-8-3.6-8-8l0-104c0-4.4-3.6-8-8-8s-8 3.6-8 8l0 104c0 13.3 10.7 24 24 24l144 0c13.3 0 24-10.7 24-24l0-12.3-16-12.6zM13 1.7C9.5-1 4.5-.4 1.7 3S-.4 11.5 3 14.3l624 496c3.5 2.7 8.5 2.2 11.2-1.3s2.2-8.5-1.3-11.2L13 1.7z"/></svg>