<svg xmlns="http://www.w3.org/2000/svg" viewBox="0 0 512 512"><!--! Font Awesome Pro 6.6.0 by @fontawesome - https://fontawesome.com License - https://fontawesome.com/license (Commercial License) Copyright 2024 Fonticons, Inc. --><path d="M226.8 20.5c1.3-2.8 4.1-4.5 7.2-4.5l46 0c4.4 0 8 3.6 8 8l0 69.8c0 3.1-1.8 5.9-4.6 7.2L159.6 159.2 226.8 20.5zm63.4 95.1c.7-.3 1.4-.7 2.1-1.1L249 251.7l-78.6 78.6-63-63-.1-.1L148.5 182l141.7-66.5zM303.9 96c.1-.7 .1-1.4 .1-2.2L304 24c0-13.3-10.7-24-24-24L234 0c-9.2 0-17.6 5.3-21.6 13.5L93.8 258.2l-9.1 9.1L33.1 318.9C11.9 340.1 0 368.9 0 398.9C0 461.3 50.7 512 113.1 512c30 0 58.8-11.9 80-33.1l51.5-51.5 9.1-9.1L498.5 299.6c8.3-4 13.5-12.4 13.5-21.6l0-46c0-13.3-10.7-24-24-24l-69.8 0c-.7 0-1.4 0-2.2 .1l0-.1 0-88c0-13.3-10.7-24-24-24l-88 0-.1 0zM330 363.5l-85.2 41.3-.1-.1-63-63L260.3 263l137.3-43.4c-.4 .7-.8 1.4-1.1 2.1L330 363.5zM268.3 243.7L309.9 112l82.1 0c4.4 0 8 3.6 8 8l0 82.1L268.3 243.7zM53 321.7l43-43L233.4 416l-43 43L53 321.7zM179 470.3c-17.9 16.5-41.4 25.7-65.8 25.7C59.5 496 16 452.5 16 398.9c0-24.4 9.2-47.9 25.7-65.8L179 470.3zM496 278c0 3.1-1.8 5.9-4.5 7.2L352.8 352.4l58.1-123.8c1.3-2.8 4.1-4.6 7.2-4.6l69.8 0c4.4 0 8 3.6 8 8l0 46z"/></svg>