<svg xmlns="http://www.w3.org/2000/svg" viewBox="0 0 640 512"><!--! Font Awesome Pro 6.6.0 by @fontawesome - https://fontawesome.com License - https://fontawesome.com/license (Commercial License) Copyright 2024 Fonticons, Inc. --><path d="M13 1.7C9.5-1 4.5-.4 1.7 3S-.4 11.5 3 14.3l624 496c3.5 2.7 8.5 2.2 11.2-1.3s2.2-8.5-1.3-11.2L13 1.7zM576 256c0-72.5-26.8-138.7-71-189.3c-2.9-3.3-8-3.7-11.3-.8s-3.7 8-.8 11.3C534.7 125 560 187.5 560 256c0 30.3-4.9 59.4-14.1 86.6l13.3 10.5c10.9-30.3 16.8-63 16.8-97.1zm-96 0c0-47.9-17.5-91.7-46.5-125.3c-2.9-3.3-7.9-3.7-11.3-.8s-3.7 7.9-.8 11.3C447.9 172 464 212.1 464 256c0 7.1-.4 14.1-1.2 21l14.5 11.5c1.8-10.5 2.7-21.4 2.7-32.4zM123.7 192.8l-13.1-10.3C101.2 205.1 96 229.9 96 256c0 47.9 17.5 91.7 46.5 125.3c2.9 3.3 7.9 3.7 11.3 .8s3.7-7.9 .8-11.3C128.1 340 112 299.9 112 256c0-22.3 4.1-43.6 11.7-63.2zM46.1 131.5L33.3 121.4C12 161.6 0 207.4 0 256c0 72.5 26.8 138.7 71 189.3c2.9 3.3 8 3.7 11.3 .8s3.7-8 .8-11.3C41.3 387 16 324.5 16 256c0-44.9 10.9-87.2 30.1-124.5z"/></svg>