<svg xmlns="http://www.w3.org/2000/svg" viewBox="0 0 512 512"><!--! Font Awesome Pro 6.6.0 by @fontawesome - https://fontawesome.com License - https://fontawesome.com/license (Commercial License) Copyright 2024 Fonticons, Inc. --><path d="M256 0C198.6 0 152 46.6 152 104c0 18.1 4.6 35.2 12.8 50c-10.8 12.6-19 27.4-23.8 43.7L79.9 169c0-.3 .1-.7 .1-1l0-64c0-4.4-3.6-8-8-8s-8 3.6-8 8l0 57.5L11.4 136.8c-4-1.9-8.8-.2-10.6 3.8s-.2 8.8 3.8 10.6l132.8 62.5c-.9 6-1.4 12.1-1.4 18.3c0 18.9 4.4 36.9 12.2 52.8C120.9 312.3 104 350.2 104 392c0 39.1 14.8 74.9 39.1 101.8c11.8 13 28.8 18.2 45 18.2l135.7 0c16.2 0 33.3-5.2 45-18.2C393.2 466.9 408 431.1 408 392c0-41.8-16.9-79.7-44.2-107.2c7.8-15.9 12.2-33.9 12.2-52.8c0-6.2-.5-12.3-1.4-18.3l132.8-62.5c4-1.9 5.7-6.6 3.8-10.6s-6.6-5.7-10.6-3.8L448 161.5l0-57.5c0-4.4-3.6-8-8-8s-8 3.6-8 8l0 64c0 .3 0 .7 .1 1l-61 28.7c-4.8-16.3-13.1-31.1-23.8-43.7c8.2-14.8 12.8-31.9 12.8-50C360 46.6 313.4 0 256 0zM168 104c0-48.6 39.4-88 88-88s88 39.4 88 88c0 17.2-4.9 33.2-13.4 46.8c-1.9 3.1-1.5 7.1 1 9.8C349.2 179.2 360 204.3 360 232c0 18.4-4.7 35.6-13.1 50.5c-1.8 3.2-1.2 7.2 1.5 9.8C375.3 317.1 392 352.6 392 392c0 35-13.2 67-35 91.1c-7.9 8.7-20 12.9-33.1 12.9l-135.7 0c-13.1 0-25.3-4.2-33.1-12.9c-21.8-24.1-35-56-35-91.1c0-39.4 16.7-74.9 43.5-99.7c2.7-2.5 3.3-6.5 1.5-9.8c-8.3-15-13.1-32.2-13.1-50.5c0-27.7 10.8-52.8 28.5-71.5c2.5-2.7 2.9-6.7 1-9.8C172.9 137.2 168 121.2 168 104zM272 240a16 16 0 1 0 -32 0 16 16 0 1 0 32 0zm-16 96a16 16 0 1 0 0-32 16 16 0 1 0 0 32zm16 64a16 16 0 1 0 -32 0 16 16 0 1 0 32 0zM224 112a16 16 0 1 0 0-32 16 16 0 1 0 0 32zm80-16a16 16 0 1 0 -32 0 16 16 0 1 0 32 0zm-61.3 88.9c3 4.5 8 7.1 13.3 7.1s10.3-2.7 13.3-7.1l12.9-19.4c3.8-5.7 5.8-12.3 5.8-19.1l0-2.4c0-17.7-14.3-32-32-32s-32 14.3-32 32l0 2.4c0 6.8 2 13.4 5.8 19.1l12.9 19.4zm3.7-23.3l-3.3-4.9c-2-3-3.1-6.6-3.1-10.2l0-2.4c0-8.8 7.2-16 16-16s16 7.2 16 16l0 2.4c0 3.6-1.1 7.2-3.1 10.2l-3.3 4.9L256 176l-9.6-14.4z"/></svg>