<svg xmlns="http://www.w3.org/2000/svg" viewBox="0 0 384 512"><!--! Font Awesome Pro 6.6.0 by @fontawesome - https://fontawesome.com License - https://fontawesome.com/license (Commercial License) Copyright 2024 Fonticons, Inc. --><path d="M200 0c-3 0-5.7 1.6-7.1 4.2s-1.2 5.8 .4 8.2l10.8 16.3c2.5 3.7 3.8 8.1 3.8 12.6C208 53.8 197.8 64 185.3 64L108 64c-33.1 0-60 26.9-60 60c0 13.6 4.5 26.1 12.1 36.1C26.6 162.1 0 190 0 224c0 35.3 28.7 64 64 64l256 0c35.3 0 64-28.7 64-64s-28.7-64-64-64l-1.8 0c11.1-12.5 17.8-29 17.8-47C336 50.6 285.4 0 223 0L200 0zm93.6 160L232 160c-4.4 0-8 3.6-8 8s3.6 8 8 8l63.7 0 24.3 0c26.5 0 48 21.5 48 48s-21.5 48-48 48L64 272c-26.5 0-48-21.5-48-48s21.5-48 48-48l16.3 0 23.7 0c4.4 0 8-3.6 8-8s-3.6-8-8-8l-21.3 0C71.4 152 64 138.9 64 124c0-24.3 19.7-44 44-44l77.3 0C206.7 80 224 62.7 224 41.3c0-7.6-2.3-15.1-6.5-21.5L214.9 16l8.1 0c53.6 0 97 43.4 97 97c0 19.9-10.6 37.3-26.4 47zM64 328c0-4.4-3.6-8-8-8s-8 3.6-8 8l0 16c0 22.1 17.9 40 40 40l.9 0 11.6 93c2.5 20 19.5 35 39.7 35l103.5 0c20.2 0 37.2-15 39.7-35l11.6-93 .9 0c22.1 0 40-17.9 40-40l0-16c0-4.4-3.6-8-8-8s-8 3.6-8 8l0 16c0 13.3-10.7 24-24 24l-8 0c-4 0-7.4 3-7.9 7L267.6 475c-1.5 12-11.7 21-23.8 21l-103.5 0c-12.1 0-22.3-9-23.8-21L103.9 375c-.5-4-3.9-7-7.9-7l-8 0c-13.3 0-24-10.7-24-24l0-16z"/></svg>