<svg xmlns="http://www.w3.org/2000/svg" viewBox="0 0 512 512"><!--! Font Awesome Pro 6.6.0 by @fontawesome - https://fontawesome.com License - https://fontawesome.com/license (Commercial License) Copyright 2024 Fonticons, Inc. --><path d="M432 40c-4.4 0-8 3.6-8 8l0 56-56 0c-4.4 0-8 3.6-8 8s3.6 8 8 8l56 0 0 56c0 4.4 3.6 8 8 8s8-3.6 8-8l0-56 56 0c4.4 0 8-3.6 8-8s-3.6-8-8-8l-56 0 0-56c0-4.4-3.6-8-8-8zm0 288c-4.4 0-8 3.6-8 8l0 56-56 0c-4.4 0-8 3.6-8 8s3.6 8 8 8l56 0 0 56c0 4.4 3.6 8 8 8s8-3.6 8-8l0-56 56 0c4.4 0 8-3.6 8-8s-3.6-8-8-8l-56 0 0-56c0-4.4-3.6-8-8-8zM130.1 201.9c3.5-1.6 6.2-4.4 7.8-7.8L190.6 80l52.7 114.1c1.6 3.5 4.4 6.2 7.8 7.8l114.1 52.7L251 307.2c-3.5 1.6-6.2 4.4-7.8 7.8L190.6 429.1 137.9 315c-1.6-3.5-4.4-6.2-7.8-7.8L16 254.6l114.1-52.7zm75-128.6c-2.6-5.7-8.3-9.3-14.5-9.3s-11.9 3.6-14.5 9.3L123.3 187.4 9.3 240C3.6 242.6 0 248.3 0 254.6s3.6 11.9 9.3 14.5l114.1 52.7L176 435.8c2.6 5.7 8.3 9.3 14.5 9.3s11.9-3.6 14.5-9.3l52.7-114.1 114.1-52.7c5.7-2.6 9.3-8.3 9.3-14.5s-3.6-11.9-9.3-14.5L257.8 187.4 205.1 73.3z"/></svg>