<svg xmlns="http://www.w3.org/2000/svg" viewBox="0 0 512 512"><!--! Font Awesome Pro 6.6.0 by @fontawesome - https://fontawesome.com License - https://fontawesome.com/license (Commercial License) Copyright 2024 Fonticons, Inc. --><path d="M368.8 11.6c-2-4-.4-8.8 3.6-10.7s8.8-.4 10.7 3.6l46.4 92.8c7.3 14.5 5 32-5.7 44.2l-83.1 94.9 120.4-31.7c7.8-2.1 14.1-7.9 16.7-15.6l18.5-55.6c1.4-4.2 5.9-6.5 10.1-5.1s6.5 5.9 5.1 10.1l-18.5 55.6c-4.3 12.8-14.7 22.6-27.8 26L344.2 252l121.1 31.9c13.1 3.4 23.5 13.2 27.8 26l18.5 55.6c1.4 4.2-.9 8.7-5.1 10.1s-8.7-.9-10.1-5.1L477.9 315c-2.6-7.7-8.8-13.6-16.7-15.6L358.2 272.2l70.2 93.6c7.9 10.5 10.1 24.2 5.9 36.6L399.6 506.5c-1.4 4.2-5.9 6.5-10.1 5.1s-6.5-5.9-5.1-10.1l34.7-104.1c2.5-7.5 1.2-15.7-3.6-22l-50.2-66.9c1.7 7.5 2.6 15.3 2.6 23.3l0 8.3C368 400 317.5 448 256 448s-112-48-112-107.8l0-8.3c0-8 .9-15.8 2.6-23.3L96.5 375.4c-4.7 6.3-6.1 14.5-3.6 22l34.7 104.1c1.4 4.2-.9 8.7-5.1 10.1s-8.7-.9-10.1-5.1L77.7 402.4c-4.2-12.5-1.9-26.1 5.9-36.6l70.2-93.6L50.8 299.3c-7.8 2.1-14.1 7.9-16.7 15.6L15.6 370.5c-1.4 4.2-5.9 6.5-10.1 5.1s-6.5-5.9-5.1-10.1l18.5-55.6c4.3-12.8 14.7-22.6 27.8-26L167.8 252 46.7 220.1c-13.1-3.4-23.5-13.2-27.8-26L.4 138.5c-1.4-4.2 .9-8.7 5.1-10.1s8.7 .9 10.1 5.1L34.1 189c2.6 7.7 8.8 13.6 16.7 15.6l120.4 31.7L88.1 141.4c-10.7-12.2-12.9-29.7-5.7-44.2L128.8 4.4c2-4 6.8-5.6 10.7-3.6s5.6 6.8 3.6 10.7L96.8 104.4c-4.4 8.7-3 19.2 3.4 26.5L184 226.7l0-82.7c0-27.4 15.3-51.2 37.9-63.4c1.9-1 4.1-1.2 6.1-.6s3.7 2 4.7 3.9L256 127.1l23.3-43.3c1-1.9 2.7-3.3 4.7-3.9s4.2-.4 6.1 .6c22.5 12.2 37.9 36 37.9 63.4l0 82.7 83.8-95.8c6.4-7.3 7.8-17.8 3.4-26.5L368.8 11.6zM200 144l0 109.1c0 2.5-1.2 4.9-3.2 6.4c-22.5 16.9-36.8 43-36.8 72.3l0 8.3c0 50.4 42.7 91.8 96 91.8s96-41.4 96-91.8l0-8.3c0-29.3-14.3-55.4-36.8-72.3c-2-1.5-3.2-3.9-3.2-6.4L312 144c0-18.4-8.9-34.8-22.7-45L263 147.8c-1.4 2.6-4.1 4.2-7 4.2s-5.6-1.6-7-4.2L222.7 99c-13.8 10.2-22.7 26.6-22.7 45zm24 156c0 .9 .3 1.7 .8 2.4l21.6 28.8c2.1 2.8 2.1 6.8 0 9.6l-21.6 28.8c-.5 .7-.8 1.5-.8 2.4c0 2.2 1.8 4 4 4l56 0c2.2 0 4-1.8 4-4c0-.9-.3-1.7-.8-2.4l-21.6-28.8c-2.1-2.8-2.1-6.8 0-9.6l21.6-28.8c.5-.7 .8-1.5 .8-2.4c0-2.2-1.8-4-4-4l-56 0c-2.2 0-4 1.8-4 4zm4-20l56 0c11 0 20 9 20 20c0 4.3-1.4 8.5-4 12l-18 24 18 24c2.6 3.5 4 7.7 4 12c0 11-9 20-20 20l-56 0c-11 0-20-9-20-20c0-4.3 1.4-8.5 4-12l18-24-18-24c-2.6-3.5-4-7.7-4-12c0-11 9-20 20-20z"/></svg>