<svg xmlns="http://www.w3.org/2000/svg" viewBox="0 0 448 512"><!--! Font Awesome Pro 6.6.0 by @fontawesome - https://fontawesome.com License - https://fontawesome.com/license (Commercial License) Copyright 2024 Fonticons, Inc. --><path d="M384 48c26.5 0 48 21.5 48 48l0 320c0 26.5-21.5 48-48 48L64 464c-26.5 0-48-21.5-48-48L16 96c0-26.5 21.5-48 48-48l320 0zm64 48c0-35.3-28.7-64-64-64L64 32C28.7 32 0 60.7 0 96L0 416c0 35.3 28.7 64 64 64l320 0c35.3 0 64-28.7 64-64l0-320zM75.7 240.8c81.8-75.8 214.8-75.8 296.6 0c4.1 3.8 4.8 9.3 2.1 13.7l-21.7 35.2c-3.2 5.1-10.4 7.7-17 5.2l-46.2-17.6c-5.7-2.2-8.5-7.2-8-11.9l2.9-26.7c.4-3.8-1.9-7.3-5.5-8.5c-35.4-11.4-74.1-11.4-109.4 0c-3.6 1.2-5.9 4.7-5.5 8.5l2.9 26.7c.5 4.8-2.4 9.8-8 11.9L112.4 295l2.6 6.9-2.6-6.9c-6.6 2.5-13.9-.1-17-5.2L73.6 254.6c-2.7-4.4-2-10 2.1-13.7zm307.5-11.7c-88-81.5-230.4-81.5-318.3 0c-9.5 8.8-11.7 22.8-4.8 33.9l21.7 35.2c7.5 12.1 23.1 16.8 36.4 11.8l46.2-17.6c11.8-4.5 19.6-16 18.2-28.6l-2.2-20c28.4-7.9 58.8-7.9 87.2 0l-2.2 20c-1.4 12.7 6.4 24.1 18.2 28.6L329.9 310c13.3 5.1 28.9 .4 36.4-11.8L388 263c6.9-11.1 4.7-25.1-4.8-33.9z"/></svg>