<svg xmlns="http://www.w3.org/2000/svg" viewBox="0 0 448 512"><!--! Font Awesome Pro 6.6.0 by @fontawesome - https://fontawesome.com License - https://fontawesome.com/license (Commercial License) Copyright 2024 Fonticons, Inc. --><path d="M432 96c0-26.5-21.5-48-48-48L64 48C37.5 48 16 69.5 16 96l0 320c0 26.5 21.5 48 48 48l320 0c26.5 0 48-21.5 48-48l0-320zM384 32c35.3 0 64 28.7 64 64l0 320c0 35.3-28.7 64-64 64L64 480c-35.3 0-64-28.7-64-64L0 96C0 60.7 28.7 32 64 32l320 0zM309.7 261.7l-120 120c-3.1 3.1-8.2 3.1-11.3 0s-3.1-8.2 0-11.3L292.7 256 178.3 141.7c-3.1-3.1-3.1-8.2 0-11.3s8.2-3.1 11.3 0l120 120c3.1 3.1 3.1 8.2 0 11.3z"/></svg>