<svg xmlns="http://www.w3.org/2000/svg" viewBox="0 0 512 512"><!--! Font Awesome Pro 6.6.0 by @fontawesome - https://fontawesome.com License - https://fontawesome.com/license (Commercial License) Copyright 2024 Fonticons, Inc. --><path d="M317.7 13.7c3.1-3.1 3.1-8.2 0-11.3s-8.2-3.1-11.3 0l-80 80c-3.1 3.1-3.1 8.2 0 11.3s8.2 3.1 11.3 0l80-80zm192 0c3.1-3.1 3.1-8.2 0-11.3s-8.2-3.1-11.3 0l-176 176c-3.1 3.1-3.1 8.2 0 11.3s8.2 3.1 11.3 0l176-176zm0 192c3.1-3.1 3.1-8.2 0-11.3s-8.2-3.1-11.3 0l-80 80c-3.1 3.1-3.1 8.2 0 11.3s8.2 3.1 11.3 0l80-80zM126.4 267.2c5.2-.8 9.7-4 12-8.8l46.3-94c2.9-6 11.4-6 14.4 0l46.3 94c2.3 4.7 6.8 8 12 8.8L361 282.3c6.6 1 9.2 9 4.4 13.6l-74.9 73.2c-3.8 3.7-5.5 9-4.6 14.1l17.7 103.3c1.1 6.5-5.7 11.5-11.6 8.4l-92.6-48.8c-4.7-2.5-10.2-2.5-14.9 0L91.9 495c-5.9 3.1-12.7-1.9-11.6-8.4L98 383.3c.9-5.2-.8-10.5-4.6-14.1L18.4 295.9c-4.7-4.6-2.1-12.7 4.4-13.6l103.5-15.1zm-105.8-.8C.9 269.3-7 293.5 7.2 307.4l74.9 73.2L64.5 483.9c-3.4 19.6 17.2 34.6 34.8 25.3l92.6-48.8 92.6 48.8c17.6 9.3 38.2-5.7 34.8-25.3L301.6 380.6l74.9-73.2c14.2-13.9 6.4-38.1-13.3-40.9L259.7 251.4l-46.3-94c-8.8-17.9-34.3-17.9-43.1 0l-46.3 94L20.5 266.5z"/></svg>