<svg xmlns="http://www.w3.org/2000/svg" viewBox="0 0 320 512"><!--! Font Awesome Pro 6.6.0 by @fontawesome - https://fontawesome.com License - https://fontawesome.com/license (Commercial License) Copyright 2024 Fonticons, Inc. --><path d="M80 143.2C80 90.6 122.6 48 175.2 48c10.2 0 20.4 1.7 30.1 4.9l80.1 26.7c4.2 1.4 8.7-.9 10.1-5.1s-.9-8.7-5.1-10.1L210.4 37.7c-11.3-3.8-23.2-5.7-35.2-5.7C113.8 32 64 81.8 64 143.2L64 256 8 256c-4.4 0-8 3.6-8 8s3.6 8 8 8l55.8 0C61.7 341.6 40.1 409.4 1.4 467.5C.5 468.8 0 470.3 0 472c0 4.4 3.6 8 8 8l304 0c4.4 0 8-3.6 8-8s-3.6-8-8-8L22.6 464c35.5-57.9 55.2-124.1 57.2-192L248 272c4.4 0 8-3.6 8-8s-3.6-8-8-8L80 256l0-112.8z"/></svg>