<svg xmlns="http://www.w3.org/2000/svg" viewBox="0 0 640 512"><!--! Font Awesome Pro 6.6.0 by @fontawesome - https://fontawesome.com License - https://fontawesome.com/license (Commercial License) Copyright 2024 Fonticons, Inc. --><path d="M160 0c-2.9 0-5.6 1.6-7 4.2L120.5 64.5 54.8 44.9c-2.8-.8-5.9-.1-8 2s-2.9 5.1-2 8l19.7 65.6L4.2 153c-2.6 1.4-4.2 4.1-4.2 7s1.6 5.6 4.2 7l60.3 32.5L44.9 265.2c-.8 2.8-.1 5.9 2 8s5.1 2.9 8 2l65.6-19.7L153 315.8c1.4 2.6 4.1 4.2 7 4.2s5.6-1.6 7-4.2l32.5-60.3 65.6 19.7c2.8 .8 5.9 .1 8-2s2.9-5.1 2-8l-19.7-65.6L315.8 167c2.6-1.4 4.2-4.1 4.2-7s-1.6-5.6-4.2-7l-60.3-32.5 19.7-65.6c.8-2.8 .1-5.9-2-8s-5.1-2.9-8-2L199.5 64.5 167 4.2c-1.4-2.6-4.1-4.2-7-4.2zm0 24.9l28.6 53c1.8 3.3 5.7 5 9.3 3.9l57.7-17.3-17.3 57.7c-1.1 3.6 .5 7.5 3.9 9.3l53 28.6-53 28.6c-3.3 1.8-5 5.7-3.9 9.3l17.3 57.7-57.7-17.3c-3.6-1.1-7.5 .5-9.3 3.9l-28.6 53-28.6-53c-1.8-3.3-5.7-5-9.3-3.9L64.4 255.6l17.3-57.7c1.1-3.6-.5-7.5-3.9-9.3L24.9 160l53-28.6c3.3-1.8 5-5.7 3.9-9.3L64.4 64.4l57.7 17.3c3.6 1.1 7.5-.5 9.3-3.9l28.6-53zm48.6 136.3a48 48 0 1 0 -96 0 48 48 0 1 0 96 0zm-48-32a32 32 0 1 1 0 64 32 32 0 1 1 0-64zM496 160c0-22.1 17.9-40 40-40s40 17.9 40 40l0 56.5c-12.6 1.5-23.8 6.6-32.3 15.1c-10.2 10.3-15.7 25-15.7 42.5c0 12.1 6.4 26.9 15.3 41.1c9.1 14.5 21.5 29.7 35.2 42.6c3.1 2.9 7.9 2.9 11 0c13.7-13 26.2-28.2 35.2-42.7c8.9-14.2 15.3-29.1 15.3-41c0-17.5-5.5-32.1-15.7-42.5c-8.5-8.6-19.6-13.6-32.3-15.1l0-56.5c0-30.9-25.1-56-56-56s-56 25.1-56 56l0 56.2c-12.5-14.8-31.1-24.2-52-24.2c-37.6 0-68 30.4-68 68l0 20.5c-12.6 1.5-23.8 6.6-32.3 15.1c-10.2 10.3-15.7 25-15.7 42.5c0 12.1 6.4 26.9 15.3 41.1c9.1 14.5 21.5 29.7 35.2 42.6c3.1 2.9 7.9 2.9 11 0c13.7-13 26.2-28.2 35.2-42.7c8.9-14.2 15.3-29.1 15.3-41c0-17.5-5.5-32.1-15.7-42.5c-8.5-8.6-19.6-13.6-32.3-15.1l0-20.5c0-28.7 23.3-52 52-52s52 23.3 52 52l0 20 0 216L8 496c-4.4 0-8 3.6-8 8s3.6 8 8 8l480 0 144 0c4.4 0 8-3.6 8-8s-3.6-8-8-8l-136 0 0-216 0-20 0-100zm88 72c12.3 0 22.2 4 28.9 10.8S624 260 624 274c0 7.3-4.3 18.9-12.9 32.6C604 318 594.6 330 584 340.8c-10.6-10.8-20.1-22.7-27.1-34.1C548.3 293.1 544 281.5 544 274c0-14.1 4.4-24.4 11.1-31.2S571.7 232 584 232zM395.1 370.6C388 382 378.6 394 368 404.8c-10.6-10.8-20.1-22.7-27.1-34.1c-8.5-13.6-12.8-25.3-12.8-32.7c0-14.1 4.4-24.4 11.1-31.2S355.7 296 368 296s22.2 4 28.9 10.8s11.1 17.2 11.1 31.2c0 7.3-4.3 18.9-12.9 32.6z"/></svg>