<svg xmlns="http://www.w3.org/2000/svg" viewBox="0 0 512 512"><!--! Font Awesome Pro 6.6.0 by @fontawesome - https://fontawesome.com License - https://fontawesome.com/license (Commercial License) Copyright 2024 Fonticons, Inc. --><path d="M8 0L216 0c4.4 0 8 3.6 8 8s-3.6 8-8 8L8 16c-4.4 0-8-3.6-8-8S3.6 0 8 0zM8 80l104 0 104 0c4.4 0 8 3.6 8 8s-3.6 8-8 8l-96 0 0 120c0 4.4-3.6 8-8 8s-8-3.6-8-8l0-120L8 96c-4.4 0-8-3.6-8-8s3.6-8 8-8zM496 27.5c0-5-4.6-8.8-9.6-7.8l-128 25.6c-3.7 .7-6.4 4-6.4 7.8L352 208s0 0 0 0c0 26.5-28.7 48-64 48s-64-21.5-64-48s28.7-48 64-48c19.1 0 36.3 6.3 48 16.2l0-123.1c0-11.4 8.1-21.3 19.3-23.5L483.3 4C498.1 1 512 12.4 512 27.5L512 176s0 0 0 0c0 26.5-28.7 48-64 48s-64-21.5-64-48s28.7-48 64-48c19.1 0 36.3 6.3 48 16.3l0-116.7zM323.7 186.9c-8.6-6.4-21.1-10.9-35.7-10.9s-27.1 4.4-35.7 10.9s-12.3 14.1-12.3 21.1s3.8 14.7 12.3 21.1s21.1 10.9 35.7 10.9s27.1-4.4 35.7-10.9s12.3-14.1 12.3-21.1c0 0 0 0 0 0c0-7.1-3.8-14.7-12.3-21.1zm160-32c-8.6-6.4-21.1-10.9-35.7-10.9s-27.1 4.4-35.7 10.9s-12.3 14.1-12.3 21.1s3.8 14.7 12.3 21.1s21.1 10.9 35.7 10.9s27.1-4.4 35.7-10.9s12.3-14.1 12.3-21.1c0 0 0 0 0 0c0-7.1-3.8-14.7-12.3-21.1zM328 352a24 24 0 1 0 0-48 24 24 0 1 0 0 48zm0-64a40 40 0 1 1 0 80 40 40 0 1 1 0-80zm181.7 2.3c3.1 3.1 3.1 8.2 0 11.3l-208 208c-3.1 3.1-8.2 3.1-11.3 0s-3.1-8.2 0-11.3l208-208c3.1-3.1 8.2-3.1 11.3 0zM496 472a24 24 0 1 0 -48 0 24 24 0 1 0 48 0zm-64 0a40 40 0 1 1 80 0 40 40 0 1 1 -80 0zM77.3 256l5.5 0c29.4 0 53.3 23.8 53.3 53.3c0 14.1-5.6 27.7-15.6 37.7L91.3 376l57.3 57.3L202.7 386c3.3-2.9 8.4-2.6 11.3 .8s2.6 8.4-.8 11.3L160 444.7l53.7 53.7c3.1 3.1 3.1 8.2 0 11.3s-8.2 3.1-11.3 0l-54.4-54.4L98.4 498.5C88.5 507.2 75.7 512 62.5 512l-1.3 0C31.8 512 8 488.2 8 458.7c0-14.1 5.6-27.7 15.6-37.7L68.7 376 39.6 346.9c-10-10-15.6-23.5-15.6-37.7C24 279.8 47.8 256 77.3 256zM50.9 335.6L80 364.7l29.1-29.1c7-7 10.9-16.5 10.9-26.3c0-20.6-16.7-37.3-37.3-37.3l-5.5 0C56.7 272 40 288.7 40 309.3c0 9.9 3.9 19.4 10.9 26.3zm-16 96.8c-7 7-10.9 16.5-10.9 26.3C24 479.3 40.7 496 61.3 496l1.3 0c9.3 0 18.3-3.4 25.4-9.5l48.7-42.6L80 387.3 34.9 432.4z"/></svg>