<svg xmlns="http://www.w3.org/2000/svg" viewBox="0 0 512 512"><!--! Font Awesome Pro 6.6.0 by @fontawesome - https://fontawesome.com License - https://fontawesome.com/license (Commercial License) Copyright 2024 Fonticons, Inc. --><path d="M402.3 2.3c-3.1 3.1-3.1 8.2 0 11.3L444.7 56 384 116.7 301.7 34.3c-3.1-3.1-8.2-3.1-11.3 0s-3.1 8.2 0 11.3l88 88 88 88c3.1 3.1 8.2 3.1 11.3 0s3.1-8.2 0-11.3L395.3 128 456 67.3l42.3 42.3c3.1 3.1 8.2 3.1 11.3 0s3.1-8.2 0-11.3l-48-48-48-48c-3.1-3.1-8.2-3.1-11.3 0zm-264 232L80.4 292.3C69.9 302.8 64 317 64 331.9l0 104.8L2.3 498.3c-3.1 3.1-3.1 8.2 0 11.3s8.2 3.1 11.3 0L75.3 448l104.8 0c14.9 0 29.1-5.9 39.6-16.4L425.4 225.9l-11.3-11.3L208.4 420.3c-7.5 7.5-17.7 11.7-28.3 11.7L80 432l0-100.1c0-10.6 4.2-20.8 11.7-28.3L144 251.3l58.3 58.3c3.1 3.1 8.2 3.1 11.3 0s3.1-8.2 0-11.3L155.3 240 208 187.3l58.3 58.3c3.1 3.1 8.2 3.1 11.3 0s3.1-8.2 0-11.3L219.3 176l78.1-78.1L286.1 86.6l-83.7 83.7s0 0 0 0s0 0 0 0l-64 64s0 0 0 0s0 0 0 0z"/></svg>