<svg xmlns="http://www.w3.org/2000/svg" viewBox="0 0 448 512"><!--! Font Awesome Pro 6.6.0 by @fontawesome - https://fontawesome.com License - https://fontawesome.com/license (Commercial License) Copyright 2024 Fonticons, Inc. --><path d="M48.6 49C51.9 30.3 68.3 16 88 16l272 0c19.7 0 36.1 14.3 39.4 33c.4 2.5 2 4.6 4.3 5.8l23.9 11.9c2.7 1.4 4.4 4.1 4.4 7.2l0 76.2c0 3-1.7 5.8-4.4 7.2l-23.2 11.6c-2.7 1.4-4.4 4.1-4.4 7.2l0 16c0 3 1.7 5.8 4.4 7.2l23.2 11.6c2.7 1.4 4.4 4.1 4.4 7.2l0 76.2c0 3-1.7 5.8-4.4 7.2l-23.2 11.6c-2.7 1.4-4.4 4.1-4.4 7.2l0 16c0 3 1.7 5.8 4.4 7.2l23.2 11.6c2.7 1.4 4.4 4.1 4.4 7.2l0 76.2c0 3-1.7 5.8-4.4 7.2l-23.9 11.9c-2.3 1.1-3.9 3.3-4.3 5.8c-3.3 18.8-19.7 33-39.4 33L88 496c-19.7 0-36.1-14.3-39.4-33c-.4-2.5-2-4.6-4.3-5.8L20.4 445.3c-2.7-1.4-4.4-4.1-4.4-7.2l0-76.2c0-3 1.7-5.8 4.4-7.2l23.2-11.6c2.7-1.4 4.4-4.1 4.4-7.2l0-16c0-3-1.7-5.8-4.4-7.2L20.4 301.3c-2.7-1.4-4.4-4.1-4.4-7.2l0-76.2c0-3 1.7-5.8 4.4-7.2l-3.6-7.2 3.6 7.2 23.2-11.6c2.7-1.4 4.4-4.1 4.4-7.2l0-16c0-3-1.7-5.8-4.4-7.2L20.4 157.3l-3.5 7 3.5-7c-2.7-1.4-4.4-4.1-4.4-7.2l0-76.2c0-3 1.7-5.8 4.4-7.2L44.3 54.8c2.3-1.1 3.9-3.3 4.3-5.8zM88 0C61.8 0 39.9 17.9 33.7 42.2L13.3 52.4C5.1 56.5 0 64.8 0 73.9l0 76.2c0 9.1 5.1 17.4 13.3 21.5L32 180.9l0 6.1-18.7 9.4C5.1 200.5 0 208.8 0 217.9l0 76.2c0 9.1 5.1 17.4 13.3 21.5L32 324.9l0 6.1-18.7 9.4 3.6 7.2-3.6-7.2C5.1 344.5 0 352.8 0 361.9l0 76.2c0 9.1 5.1 17.4 13.3 21.5l20.4 10.2C39.9 494.1 61.8 512 88 512l272 0c26.2 0 48.1-17.9 54.3-42.2l20.4-10.2c8.1-4.1 13.3-12.4 13.3-21.5l0-76.2c0-9.1-5.1-17.4-13.3-21.5L416 331.1l0-6.1 18.7-9.4c8.1-4.1 13.3-12.4 13.3-21.5l0-76.2c0-9.1-5.1-17.4-13.3-21.5L416 187.1l0-6.1 18.7-9.4c8.1-4.1 13.3-12.4 13.3-21.5l0-76.2c0-9.1-5.1-17.4-13.3-21.5L414.3 42.2C408.1 17.9 386.2 0 360 0L88 0zm40 80l192 0c8.8 0 16 7.2 16 16l0 320c0 8.8-7.2 16-16 16l-192 0c-8.8 0-16-7.2-16-16l0-320c0-8.8 7.2-16 16-16zM96 96l0 320c0 17.7 14.3 32 32 32l192 0c17.7 0 32-14.3 32-32l0-320c0-17.7-14.3-32-32-32L128 64c-17.7 0-32 14.3-32 32z"/></svg>