<svg xmlns="http://www.w3.org/2000/svg" viewBox="0 0 640 512"><!--! Font Awesome Pro 6.6.0 by @fontawesome - https://fontawesome.com License - https://fontawesome.com/license (Commercial License) Copyright 2024 Fonticons, Inc. --><path d="M352 48l96 0c26.5 0 48 21.5 48 48l0 69.5c5.1-1.8 10.5-3.2 16-4.1L512 96c0-35.3-28.7-64-64-64L64 32C28.7 32 0 60.7 0 96L0 416c0 35.3 28.7 64 64 64l320 0 0-16-32 0 0-128 34 0c1.5-5.7 3.7-11 6.5-16L352 320l0-128 104.4 0c5.4-6.1 11.7-11.5 18.5-16L352 176l0-128zm-16 0l0 128-160 0 0-128 160 0zM160 48l0 416-96 0c-26.5 0-48-21.5-48-48L16 96c0-26.5 21.5-48 48-48l96 0zm16 416l0-128 160 0 0 128-160 0zM336 320l-160 0 0-128 160 0 0 128zM528 208c26.5 0 48 21.5 48 48l0 64-96 0 0-64c0-26.5 21.5-48 48-48zm-64 48l0 64-16 0c-17.7 0-32 14.3-32 32l0 128c0 17.7 14.3 32 32 32l160 0c17.7 0 32-14.3 32-32l0-128c0-17.7-14.3-32-32-32l-16 0 0-64c0-35.3-28.7-64-64-64s-64 28.7-64 64zm-16 80l16 0 16 0 96 0 16 0 16 0c8.8 0 16 7.2 16 16l0 128c0 8.8-7.2 16-16 16l-160 0c-8.8 0-16-7.2-16-16l0-128c0-8.8 7.2-16 16-16z"/></svg>