<svg xmlns="http://www.w3.org/2000/svg" viewBox="0 0 576 512"><!--! Font Awesome Pro 6.6.0 by @fontawesome - https://fontawesome.com License - https://fontawesome.com/license (Commercial License) Copyright 2024 Fonticons, Inc. --><path d="M344 113.5c0-3.6-1.4-9.8-5.2-18.4c-3.6-8.3-8.8-17.7-14.8-27.4C312.2 48.8 298 30 288 17.3C278 30 263.8 48.8 252 67.7c-6 9.7-11.2 19-14.8 27.4c-3.8 8.7-5.2 14.8-5.2 18.4c0 27.5 24.1 51.5 56 51.5s56-24 56-51.5zm16 0c0 37.3-32.2 67.5-72 67.5s-72-30.2-72-67.5c0-27.7 39.7-81.3 60.2-107c6.1-7.7 17.5-7.7 23.7 0c20.4 25.7 60.2 79.3 60.2 107zM64 128l129.3 0c.9 5.5 2.3 10.9 4.1 16L64 144c-26.5 0-48 21.5-48 48l0 256c0 26.5 21.5 48 48 48l332.1 0c1.3 0 2.6-.1 3.9-.2L400 376c0-22.1 17.9-40 40-40l119.8 0c.2-1.3 .2-2.6 .2-3.9L560 192c0-26.5-21.5-48-48-48l-133.5 0c1.8-5.1 3.2-10.5 4.1-16L512 128c35.3 0 64 28.7 64 64l0 140.1c0 12.7-5.1 24.9-14.1 33.9L430.1 497.9c-9 9-21.2 14.1-33.9 14.1L64 512c-35.3 0-64-28.7-64-64L0 192c0-35.3 28.7-64 64-64zM418.7 486.6L550.6 354.7c.9-.9 1.7-1.8 2.4-2.7L440 352c-13.3 0-24 10.7-24 24l0 113.1c1-.8 1.9-1.6 2.7-2.4zM72 216a16 16 0 1 0 32 0 16 16 0 1 0 -32 0zm16 32a32 32 0 1 1 0-64 32 32 0 1 1 0 64z"/></svg>