<svg xmlns="http://www.w3.org/2000/svg" viewBox="0 0 576 512"><!--! Font Awesome Pro 6.6.0 by @fontawesome - https://fontawesome.com License - https://fontawesome.com/license (Commercial License) Copyright 2024 Fonticons, Inc. --><path d="M197.9 122.6c3 3.3 2.7 8.3-.6 11.3l-80 72c-3 2.7-7.7 2.7-10.7 0l-80-72c-3.3-3-3.6-8-.6-11.3s8-3.6 11.3-.6L104 182 104 8c0-4.4 3.6-8 8-8s8 3.6 8 8l0 174 66.6-60c3.3-3 8.3-2.7 11.3 .6zm85.4 38.8c2.8-2 6.5-2 9.2 0L473 289.3c9.2 6.5 15.2 16.7 16.6 27.9l18 150.1c2.9 23.8-15.7 44.8-39.7 44.8l-67.8 0-.3 0-291.8 0c-24 0-42.6-21-39.7-44.8l18-150.1c1.3-11.2 7.4-21.3 16.6-27.9L283.4 161.5zM467.9 496c14.4 0 25.5-12.6 23.8-26.9L473.7 319c-.8-6.7-4.4-12.8-10-16.7L296 183.5l0 134.3L404.5 496l63.4 0zM280 183.5L112.2 302.3c-5.5 3.9-9.1 10-10 16.7l-18 150.1c-1.7 14.3 9.4 26.9 23.8 26.9L280 496l0-175.9 0-.3 0-136.4zm16 165.1L296 496l89.8 0L296 348.5zM549.4 133.9l-80 72c-3 2.7-7.7 2.7-10.7 0l-80-72c-3.3-3-3.6-8-.6-11.3s8-3.6 11.3-.6L456 182 456 8c0-4.4 3.6-8 8-8s8 3.6 8 8l0 174 66.6-60c3.3-3 8.3-2.7 11.3 .6s2.7 8.3-.6 11.3z"/></svg>