<svg xmlns="http://www.w3.org/2000/svg" viewBox="0 0 640 512"><!--! Font Awesome Pro 6.6.0 by @fontawesome - https://fontawesome.com License - https://fontawesome.com/license (Commercial License) Copyright 2024 Fonticons, Inc. --><path d="M17.3 471c.7-2.5 1.8-5 3.2-7.3c0 0 0 0 0-.1c1.3-2.3 2.5-4.7 3.7-7.1C63.6 379.2 64 274.7 64 192C64 86 107 0 160 0L480 0l16 0c35.1 0 63.4 25.9 81.9 59.9C596.8 94.5 608 141.2 608 192s-11.2 97.5-30.1 132.1c-18.6 34-46.8 59.9-81.9 59.9c-29.8 0-54.6-18.6-72.8-45c1.1-8.4 2.1-17.1 3-26.1C443.7 346.8 468.5 368 496 368c53 0 96-78.8 96-176s-43-176-96-176s-96 78.8-96 176c0 32.3-1.1 61.6-3.1 88.2l-.2 2.1c-7.7 103.1-27.3 164.4-39.5 193.7c-10 24-33.2 36.1-55.4 36.1L48 512c-11.5 0-22.2-6.2-27.8-16.2c-4.3-7.7-5.3-16.6-2.9-24.8zM160 16c-17.2 0-37 14.3-53.6 47.4C90.4 95.5 80 140.9 80 192c0 42.5-.1 91.8-5.7 140.4c-5.6 48.5-16.8 97.4-39.8 138.9c-.1 .2-.2 .3-.3 .5c-2.9 4.9-3 11-.2 16.1c2.8 5 8.2 8.1 13.9 8.1l253.9 0c16.8 0 33.5-9.1 40.6-26.2C357 435 384 348.9 384 192c0-50.8 11.2-97.5 30.1-132.1c9.6-17.6 21.9-33.1 36.3-43.9L160 16zM496 264c-8.7 0-15.7-4.2-20.6-9c-4.8-4.8-8.4-10.8-11.1-17.1c-5.4-12.6-8.3-28.8-8.3-45.9s2.9-33.3 8.3-45.9c2.7-6.3 6.3-12.3 11.1-17.1c4.9-4.8 11.9-9 20.6-9s15.7 4.2 20.6 9c4.8 4.8 8.4 10.8 11.1 17.1c5.4 12.6 8.3 28.8 8.3 45.9s-2.9 33.3-8.3 45.9c-2.7 6.3-6.3 12.3-11.1 17.1c-4.9 4.8-11.9 9-20.6 9zm24-72c0-30.9-10.7-56-24-56s-24 25.1-24 56s10.7 56 24 56s24-25.1 24-56zM301.7 173.7l-80 80c-3.1 3.1-8.2 3.1-11.3 0l-48-48c-3.1-3.1-3.1-8.2 0-11.3s8.2-3.1 11.3 0L216 236.7l74.3-74.3c3.1-3.1 8.2-3.1 11.3 0s3.1 8.2 0 11.3z"/></svg>