<svg xmlns="http://www.w3.org/2000/svg" viewBox="0 0 576 512"><!--! Font Awesome Pro 6.6.0 by @fontawesome - https://fontawesome.com License - https://fontawesome.com/license (Commercial License) Copyright 2024 Fonticons, Inc. --><path d="M42.2 11.4C25.4 46.7 16 86.3 16 128s9.4 81.3 26.2 116.6c1.9 4 .2 8.8-3.8 10.7s-8.8 .2-10.7-3.8C9.9 214 0 172.2 0 128S9.9 42 27.7 4.5c1.9-4 6.7-5.7 10.7-3.8s5.7 6.7 3.8 10.7zM548.3 4.5C566.1 42 576 83.8 576 128s-9.9 86-27.7 123.5c-1.9 4-6.7 5.7-10.7 3.8s-5.7-6.7-3.8-10.7C550.6 209.3 560 169.7 560 128s-9.4-81.3-26.2-116.6c-1.9-4-.2-8.8 3.8-10.7s8.8-.2 10.7 3.8zM336 128a48 48 0 1 0 -96 0 48 48 0 1 0 96 0zm16 0c0 32.6-24.4 59.6-56 63.5L296 504c0 4.4-3.6 8-8 8s-8-3.6-8-8l0-312.5c-31.6-3.9-56-30.9-56-63.5c0-35.3 28.7-64 64-64s64 28.7 64 64zM125.9 59.2C117 80.4 112 103.6 112 128s5 47.7 13.9 68.8c1.7 4.1-.2 8.8-4.2 10.5s-8.8-.2-10.5-4.2C101.4 180 96 154.6 96 128s5.4-52 15.2-75c1.7-4.1 6.4-6 10.5-4.2s6 6.4 4.2 10.5zM464.8 53C474.6 76 480 101.4 480 128s-5.4 52-15.2 75c-1.7 4.1-6.4 6-10.5 4.2s-6-6.4-4.2-10.5c9-21.1 13.9-44.3 13.9-68.8s-5-47.6-13.9-68.8c-1.7-4.1 .2-8.8 4.2-10.5s8.8 .2 10.5 4.2z"/></svg>