<svg xmlns="http://www.w3.org/2000/svg" viewBox="0 0 576 512"><!--! Font Awesome Pro 6.6.0 by @fontawesome - https://fontawesome.com License - https://fontawesome.com/license (Commercial License) Copyright 2024 Fonticons, Inc. --><path d="M46.1 16.5c-4.1-1.6-8.8 .5-10.3 4.6C23 54.2 16 90.2 16 128s7 73.9 19.7 106.9c1.6 4.1 6.2 6.2 10.3 4.6s6.2-6.2 4.6-10.3C38.6 197.9 32 163.8 32 128s6.6-69.9 18.7-101.1c1.6-4.1-.5-8.8-4.6-10.3zm483.9 0c-4.1 1.6-6.2 6.2-4.6 10.3C537.4 58.1 544 92.2 544 128s-6.6 69.9-18.7 101.1c-1.6 4.1 .5 8.8 4.6 10.3s8.8-.5 10.3-4.6C553 201.9 560 165.8 560 128s-7-73.9-19.7-106.9c-1.6-4.1-6.2-6.2-10.3-4.6zM288 80a48 48 0 1 1 0 96 48 48 0 1 1 0-96zm41.3 96.9C343.2 165.2 352 147.6 352 128c0-35.3-28.7-64-64-64s-64 28.7-64 64c0 19.6 8.8 37.2 22.7 48.9L96.7 500.6c-1.9 4-.1 8.8 3.9 10.6s8.8 .1 10.6-3.9L161 400l254 0 49.8 107.4c1.9 4 6.6 5.8 10.6 3.9s5.8-6.6 3.9-10.6l-150-323.7zM407.6 384l-239.1 0 37.1-80 165 0 37.1 80zM315.7 185.7L363.1 288l-150.2 0 47.4-102.3c8.4 4 17.8 6.3 27.7 6.3s19.3-2.3 27.7-6.3zM140.6 67.2c1.8-4-.1-8.8-4.1-10.5s-8.8 .1-10.5 4.1c-9 20.6-14 43.3-14 67.2s5 46.6 14 67.2c1.8 4 6.5 5.9 10.5 4.1s5.9-6.5 4.1-10.5C132.5 170.2 128 149.6 128 128s4.5-42.2 12.6-60.8zM450 60.8c-1.8-4-6.5-5.9-10.5-4.1s-5.9 6.5-4.1 10.5C443.5 85.8 448 106.4 448 128s-4.5 42.2-12.6 60.8c-1.8 4 .1 8.8 4.1 10.5s8.8-.1 10.5-4.1c9-20.6 14-43.3 14-67.2s-5-46.6-14-67.2z"/></svg>