<svg xmlns="http://www.w3.org/2000/svg" viewBox="0 0 640 512"><!--! Font Awesome Pro 6.6.0 by @fontawesome - https://fontawesome.com License - https://fontawesome.com/license (Commercial License) Copyright 2024 Fonticons, Inc. --><path d="M0 104c0 4.4 3.6 8 8 8l112 0 0 296c0 4.4 3.6 8 8 8s8-3.6 8-8l0-296 112 0c4.4 0 8-3.6 8-8s-3.6-8-8-8L8 96c-4.4 0-8 3.6-8 8zm302-5.3c-2.2-2.5-5.7-3.4-8.8-2.2s-5.2 4.2-5.2 7.5l0 304c0 4.4 3.6 8 8 8s8-3.6 8-8l0-282.7 154 176c1.5 1.7 3.7 2.7 6 2.7s4.5-1 6-2.7l154-176L624 408c0 4.4 3.6 8 8 8s8-3.6 8-8l0-304c0-3.3-2.1-6.3-5.2-7.5s-6.6-.3-8.8 2.2L464 283.8 302 98.7z"/></svg>