<svg xmlns="http://www.w3.org/2000/svg" viewBox="0 0 512 512"><!--! Font Awesome Pro 6.6.0 by @fontawesome - https://fontawesome.com License - https://fontawesome.com/license (Commercial License) Copyright 2024 Fonticons, Inc. --><path d="M464 0c4.4 0 8 3.6 8 8l0 32 32 0c4.4 0 8 3.6 8 8s-3.6 8-8 8l-32 0 0 32c0 4.4-3.6 8-8 8s-8-3.6-8-8l0-32-32 0c-4.4 0-8-3.6-8-8s3.6-8 8-8l32 0 0-32c0-4.4 3.6-8 8-8zM48 128c4.4 0 8 3.6 8 8l0 32 32 0c4.4 0 8 3.6 8 8s-3.6 8-8 8l-32 0 0 32c0 4.4-3.6 8-8 8s-8-3.6-8-8l0-32L8 184c-4.4 0-8-3.6-8-8s3.6-8 8-8l32 0 0-32c0-4.4 3.6-8 8-8zm96 336c-17.7 0-32 14.3-32 32l0 8c0 4.4-3.6 8-8 8s-8-3.6-8-8l0-8c0-26.5 21.5-48 48-48l224 0c26.5 0 48 21.5 48 48l0 8c0 4.4-3.6 8-8 8s-8-3.6-8-8l0-8c0-17.7-14.3-32-32-32l-224 0zm24-80l176 0c4.4 0 8 3.6 8 8s-3.6 8-8 8l-176 0c-4.4 0-8-3.6-8-8s3.6-8 8-8zm-8-56c0-4.4 3.6-8 8-8l176 0c4.4 0 8 3.6 8 8s-3.6 8-8 8l-176 0c-4.4 0-8-3.6-8-8zm-56-72l304 0c4.4 0 8 3.6 8 8s-3.6 8-8 8l-304 0c-4.4 0-8-3.6-8-8s3.6-8 8-8zm24-56c0-4.4 3.6-8 8-8l240 0c4.4 0 8 3.6 8 8s-3.6 8-8 8l-240 0c-4.4 0-8-3.6-8-8zm72-72l112 0c4.4 0 8 3.6 8 8s-3.6 8-8 8l-112 0c-4.4 0-8-3.6-8-8s3.6-8 8-8zM224 8c0-4.4 3.6-8 8-8l48 0c4.4 0 8 3.6 8 8s-3.6 8-8 8l-48 0c-4.4 0-8-3.6-8-8zm0 56l64 0c4.4 0 8 3.6 8 8s-3.6 8-8 8l-64 0c-4.4 0-8-3.6-8-8s3.6-8 8-8z"/></svg>