<svg xmlns="http://www.w3.org/2000/svg" viewBox="0 0 384 512"><!--! Font Awesome Pro 6.6.0 by @fontawesome - https://fontawesome.com License - https://fontawesome.com/license (Commercial License) Copyright 2024 Fonticons, Inc. --><path d="M112 8c0-4.4-3.6-8-8-8s-8 3.6-8 8l0 40L48 48c-4.4 0-8 3.6-8 8s3.6 8 8 8l48 0 0 32L48 96c-4.4 0-8 3.6-8 8s3.6 8 8 8l48 0 0 48-56 0L8 160c-4.4 0-8 3.6-8 8s3.6 8 8 8l24 0 0 320L8 496c-4.4 0-8 3.6-8 8s3.6 8 8 8l32 0 304 0 32 0c4.4 0 8-3.6 8-8s-3.6-8-8-8l-24 0 0-320 24 0c4.4 0 8-3.6 8-8s-3.6-8-8-8l-32 0-56 0 0-48 48 0c4.4 0 8-3.6 8-8s-3.6-8-8-8l-48 0 0-32 48 0c4.4 0 8-3.6 8-8s-3.6-8-8-8l-48 0 0-40c0-4.4-3.6-8-8-8s-8 3.6-8 8l0 40-48 0c-4.4 0-8 3.6-8 8s3.6 8 8 8l48 0 0 32-48 0c-4.4 0-8 3.6-8 8s3.6 8 8 8l48 0 0 48-160 0 0-48 48 0c4.4 0 8-3.6 8-8s-3.6-8-8-8l-48 0 0-32 48 0c4.4 0 8-3.6 8-8s-3.6-8-8-8l-48 0 0-40zM280 176l56 0 0 320L48 496l0-320 56 0 176 0zM116.2 336l104.1-90.2-20.1 80.3c-.6 2.4-.1 4.9 1.5 6.9s3.8 3.1 6.3 3.1l59.8 0L163.7 426.2l20.1-80.3c.6-2.4 .1-4.9-1.5-6.9s-3.8-3.1-6.3-3.1l-59.8 0zM225.8 224c-3.1 0-6.1 1.1-8.4 3.1L100.7 328.3c-3 2.6-4.7 6.3-4.7 10.2c0 7.4 6 13.5 13.5 13.5l56.3 0-20 80c-2 8.1 4.1 16 12.5 16c3.1 0 6.1-1.1 8.4-3.1L283.3 343.7c3-2.6 4.7-6.3 4.7-10.2c0-7.4-6-13.5-13.5-13.5l-56.3 0 20-80c2-8.1-4.1-16-12.5-16z"/></svg>