<svg xmlns="http://www.w3.org/2000/svg" viewBox="0 0 448 512"><!--! Font Awesome Pro 6.6.0 by @fontawesome - https://fontawesome.com License - https://fontawesome.com/license (Commercial License) Copyright 2024 Fonticons, Inc. --><path d="M157.4 27.3L134.4 64l179.1 0-23-36.7c-4.4-7-12.1-11.3-20.4-11.3l-92.5 0c-8.3 0-16 4.3-20.4 11.3zM115.6 64l28.2-45.2C151.1 7.1 163.9 0 177.7 0l92.5 0c13.8 0 26.6 7.1 33.9 18.8L332.4 64 440 64c4.4 0 8 3.6 8 8s-3.6 8-8 8L8 80c-4.4 0-8-3.6-8-8s3.6-8 8-8l107.6 0zM40 112c4.4 0 8 3.6 8 8l0 320c0 30.9 25.1 56 56 56l240 0c30.9 0 56-25.1 56-56l0-320c0-4.4 3.6-8 8-8s8 3.6 8 8l0 320c0 39.8-32.2 72-72 72l-240 0c-39.8 0-72-32.2-72-72l0-320c0-4.4 3.6-8 8-8zm106.3 98.3c3.1-3.1 8.2-3.1 11.3 0L224 276.7l66.3-66.3c3.1-3.1 8.2-3.1 11.3 0s3.1 8.2 0 11.3L235.3 288l66.3 66.3c3.1 3.1 3.1 8.2 0 11.3s-8.2 3.1-11.3 0L224 299.3l-66.3 66.3c-3.1 3.1-8.2 3.1-11.3 0s-3.1-8.2 0-11.3L212.7 288l-66.3-66.3c-3.1-3.1-3.1-8.2 0-11.3z"/></svg>