<svg xmlns="http://www.w3.org/2000/svg" viewBox="0 0 448 512"><!--! Font Awesome Pro 6.6.0 by @fontawesome - https://fontawesome.com License - https://fontawesome.com/license (Commercial License) Copyright 2024 Fonticons, Inc. --><path d="M229.7 2.3c-3.1-3.1-8.2-3.1-11.3 0l-147 147c-4.7 4.7-7.3 11-7.3 17.7c0 13.8 11.2 25 25 25l35.7 0L39.3 277.4c-4.7 4.7-7.3 11-7.3 17.7c0 13.8 11.2 25 25 25l35.7 0L7.3 405.4C2.6 410.1 0 416.4 0 423c0 13.8 11.2 25 25 25l135 0 56 0 0 56c0 4.4 3.6 8 8 8s8-3.6 8-8l0-56 56 0 135 0c13.8 0 25-11.2 25-25c0-6.6-2.6-13-7.3-17.7L355.3 320l35.7 0c13.8 0 25-11.2 25-25c0-6.6-2.6-13-7.3-17.7L323.3 192l35.7 0c13.8 0 25-11.2 25-25c0-6.6-2.6-13-7.3-17.7l-147-147zM232 432l0-232c0-4.4-3.6-8-8-8s-8 3.6-8 8l0 232-56 0L25 432c-5 0-9-4-9-9c0-2.4 .9-4.7 2.6-6.3l99-99c2.3-2.3 3-5.7 1.7-8.7s-4.2-4.9-7.4-4.9l-55 0c-5 0-9-4-9-9c0-2.4 .9-4.7 2.6-6.3l99-99c2.3-2.3 3-5.7 1.7-8.7s-4.2-4.9-7.4-4.9l-55 0c-5 0-9-4-9-9c0-2.4 .9-4.7 2.6-6.3L224 19.3 365.4 160.7c1.7 1.7 2.6 4 2.6 6.3c0 5-4 9-9 9l-55 0c-3.2 0-6.2 1.9-7.4 4.9s-.6 6.4 1.7 8.7l99 99c1.7 1.7 2.6 4 2.6 6.3c0 5-4 9-9 9l-55 0c-3.2 0-6.2 1.9-7.4 4.9s-.6 6.4 1.7 8.7l99 99c1.7 1.7 2.6 4 2.6 6.3c0 5-4 9-9 9l-135 0-56 0z"/></svg>