<svg xmlns="http://www.w3.org/2000/svg" viewBox="0 0 640 512"><!--! Font Awesome Pro 6.6.0 by @fontawesome - https://fontawesome.com License - https://fontawesome.com/license (Commercial License) Copyright 2024 Fonticons, Inc. --><path d="M296 64c-4.4 0-8 3.6-8 8s3.6 8 8 8l39.1 0c7.9 0 15.3 3.9 19.8 10.4l94.2 137.4L393.5 302c-8.5 11.3-21.8 18-36 18c-3.1 0-6.2-.3-9.2-1L158.8 279.4C142 264.8 120 256 96 256c-9.9 0-19.5 1.5-28.5 4.3L9.6 248.2c-4.3-.9-8.6 1.9-9.5 6.2s1.9 8.6 6.2 9.5l37.2 7.8C17.3 288.7 0 318.4 0 352c0 53 43 96 96 96s96-43 96-96c0-19.4-5.8-37.5-15.7-52.6l88 18.4c4.9 10.4 7.6 21.9 7.6 34.2c0 44.2-35.8 80-80 80c-11.9 0-23.2-2.6-33.3-7.3c-4.5 3.9-9.4 7.4-14.7 10.4c14.1 8.2 30.5 12.8 48 12.8c53 0 96-43 96-96c0-10.6-1.7-20.7-4.9-30.2L345 334.7c4.1 .9 8.3 1.3 12.5 1.3c19.2 0 37.3-9 48.8-24.4l52.4-69.8 24.6 35.9C461.8 295.2 448 322 448 352c0 53 43 96 96 96s96-43 96-96s-43-96-96-96c-17.3 0-33.5 4.6-47.5 12.6L368.1 81.4c-7.5-10.9-19.8-17.4-33-17.4L296 64zM464 352c0-24.5 11-46.4 28.4-61.1l45 65.6c2.5 3.6 7.5 4.6 11.1 2.1s4.6-7.5 2.1-11.1l-45-65.7c11.4-6.3 24.5-9.8 38.4-9.8c44.2 0 80 35.8 80 80s-35.8 80-80 80s-80-35.8-80-80zM95 432c-.8 0-1.5 0-2.3-.1C50 430.2 16 395.1 16 352c0-44.2 35.8-80 80-80c21.4 0 40.9 8.4 55.3 22.2c0 0 0 0 0 0C166.5 308.7 176 329.3 176 352c0 44.2-35.8 80-80 80c-.3 0-.7 0-1 0zM55.5 109.3c-1.5-4.2-6.1-6.3-10.3-4.8s-6.3 6.1-4.8 10.3l23 63.2c6.5 18 21.8 31.4 40.5 35.5l86.3 19.1c4.3 1 8.6-1.8 9.5-6.1s-1.8-8.6-6.1-9.5l-86.3-19.1c-13.4-3-24.3-12.5-29-25.4l-23-63.2z"/></svg>