<svg xmlns="http://www.w3.org/2000/svg" viewBox="0 0 640 512"><!--! Font Awesome Pro 6.6.0 by @fontawesome - https://fontawesome.com License - https://fontawesome.com/license (Commercial License) Copyright 2024 Fonticons, Inc. --><path d="M8 0C3.6 0 0 3.6 0 8s3.6 8 8 8l72 0 0 80L48 96C21.5 96 0 117.5 0 144L0 368c0 26.5 21.5 48 48 48l16.4 0c-.2 2.6-.4 5.3-.4 8c0 48.6 39.4 88 88 88s88-39.4 88-88c0-2.7-.1-5.4-.4-8l160.7 0c-.2 2.6-.4 5.3-.4 8c0 48.6 39.4 88 88 88s88-39.4 88-88c0-2.7-.1-5.4-.4-8l16.4 0c26.5 0 48-21.5 48-48l0-224c0-26.5-21.5-48-48-48l-32 0 0-8c0-22.1-17.9-40-40-40s-40 17.9-40 40l0 8-96 0 0-80 248 0c4.4 0 8-3.6 8-8s-3.6-8-8-8L8 0zM368 16l0 80-80 0 0-80 80 0zm-96 0l0 80-80 0 0-80 80 0zm-96 0l0 80L96 96l0-80 80 0zM544 96l-48 0 0-8c0-13.3 10.7-24 24-24s24 10.7 24 24l0 8zm0 16l16 0 32 0c17.7 0 32 14.3 32 32l0 224c0 17.7-14.3 32-32 32l-19.3 0c-10.4-36.9-44.4-64-84.7-64s-74.2 27.1-84.7 64l-166.6 0c-10.4-36.9-44.4-64-84.7-64s-74.2 27.1-84.7 64L48 400c-17.7 0-32-14.3-32-32l0-96 384 0c17.7 0 32-14.3 32-32l0-128 48 0 16 0 48 0zm-128 0l0 128c0 8.8-7.2 16-16 16L16 256l0-112c0-17.7 14.3-32 32-32l368 0zm152 48c4.4 0 8 3.6 8 8l0 80c0 4.4-3.6 8-8 8l-80 0c-4.4 0-8-3.6-8-8l0-80c0-4.4 3.6-8 8-8l80 0zm-80-16c-13.3 0-24 10.7-24 24l0 80c0 13.3 10.7 24 24 24l80 0c13.3 0 24-10.7 24-24l0-80c0-13.3-10.7-24-24-24l-80 0zM152 352a72 72 0 1 1 0 144 72 72 0 1 1 0-144zm264 72a72 72 0 1 1 144 0 72 72 0 1 1 -144 0z"/></svg>