<svg xmlns="http://www.w3.org/2000/svg" viewBox="0 0 512 512"><!--! Font Awesome Pro 6.6.0 by @fontawesome - https://fontawesome.com License - https://fontawesome.com/license (Commercial License) Copyright 2024 Fonticons, Inc. --><path d="M352 148.8c0-6.9-4.4-13-10.9-15.2c-55.2-18.5-115-18.5-170.2 0c-6.5 2.2-10.9 8.3-10.9 15.2l0 53.3c0 12.1-8.9 22.2-20.9 23.8l-78 10.2c-11 1.4-21.5-4.8-25.5-15.1L23.1 188.7c-8.3-21.3-4.3-43.5 10.4-56.5C77.2 93.7 154.9 48 256 48s178.8 45.7 222.4 84.3c14.7 13 18.7 35.2 10.4 56.5l-12.5 32.2c-4 10.3-14.5 16.6-25.5 15.1l-78-10.2c-12-1.6-20.9-11.7-20.9-23.8l0-53.3zm-176 0c51.9-17.4 108.1-17.4 160 0l0 53.3c0 20.1 14.9 37.1 34.8 39.7l78 10.2c18.3 2.4 35.8-8 42.5-25.2l12.5-32.2c10.1-26 6.2-55.8-14.8-74.2C443.3 79.9 362 32 256 32S68.7 79.9 23 120.3C2.1 138.7-1.9 168.5 8.2 194.5l12.5 32.2c6.7 17.2 24.2 27.6 42.5 25.2l78-10.2c19.9-2.6 34.8-19.6 34.8-39.7l0-53.3zM72 288c-13.3 0-24 10.7-24 24l0 32c0 13.3 10.7 24 24 24l32 0c13.3 0 24-10.7 24-24l0-32c0-13.3-10.7-24-24-24l-32 0zm-8 24c0-4.4 3.6-8 8-8l32 0c4.4 0 8 3.6 8 8l0 32c0 4.4-3.6 8-8 8l-32 0c-4.4 0-8-3.6-8-8l0-32zm8 88c-13.3 0-24 10.7-24 24l0 32c0 13.3 10.7 24 24 24l32 0c13.3 0 24-10.7 24-24l0-32c0-13.3-10.7-24-24-24l-32 0zm-8 24c0-4.4 3.6-8 8-8l32 0c4.4 0 8 3.6 8 8l0 32c0 4.4-3.6 8-8 8l-32 0c-4.4 0-8-3.6-8-8l0-32zm344-24c-13.3 0-24 10.7-24 24l0 32c0 13.3 10.7 24 24 24l32 0c13.3 0 24-10.7 24-24l0-32c0-13.3-10.7-24-24-24l-32 0zm-8 24c0-4.4 3.6-8 8-8l32 0c4.4 0 8 3.6 8 8l0 32c0 4.4-3.6 8-8 8l-32 0c-4.4 0-8-3.6-8-8l0-32zm-240 0l0 32c0 13.3 10.7 24 24 24l144 0c13.3 0 24-10.7 24-24l0-32c0-13.3-10.7-24-24-24l-144 0c-13.3 0-24 10.7-24 24zm24-8l144 0c4.4 0 8 3.6 8 8l0 32c0 4.4-3.6 8-8 8l-144 0c-4.4 0-8-3.6-8-8l0-32c0-4.4 3.6-8 8-8zM160 312l0 32c0 13.3 10.7 24 24 24l32 0c13.3 0 24-10.7 24-24l0-32c0-13.3-10.7-24-24-24l-32 0c-13.3 0-24 10.7-24 24zm24-8l32 0c4.4 0 8 3.6 8 8l0 32c0 4.4-3.6 8-8 8l-32 0c-4.4 0-8-3.6-8-8l0-32c0-4.4 3.6-8 8-8zm112-16c-13.3 0-24 10.7-24 24l0 32c0 13.3 10.7 24 24 24l32 0c13.3 0 24-10.7 24-24l0-32c0-13.3-10.7-24-24-24l-32 0zm-8 24c0-4.4 3.6-8 8-8l32 0c4.4 0 8 3.6 8 8l0 32c0 4.4-3.6 8-8 8l-32 0c-4.4 0-8-3.6-8-8l0-32zm96 0l0 32c0 13.3 10.7 24 24 24l32 0c13.3 0 24-10.7 24-24l0-32c0-13.3-10.7-24-24-24l-32 0c-13.3 0-24 10.7-24 24zm24-8l32 0c4.4 0 8 3.6 8 8l0 32c0 4.4-3.6 8-8 8l-32 0c-4.4 0-8-3.6-8-8l0-32c0-4.4 3.6-8 8-8z"/></svg>