<svg xmlns="http://www.w3.org/2000/svg" viewBox="0 0 640 512"><!--! Font Awesome Pro 6.6.0 by @fontawesome - https://fontawesome.com License - https://fontawesome.com/license (Commercial License) Copyright 2024 Fonticons, Inc. --><path d="M235.1 16L216 16c-1.2 0-2.5 .1-3.7 .2c-.5 0-1.1 0-1.6 0c-.9-.1-1.8-.2-2.7-.2l-16 0-19.6 0c-32.1 0-61.6 17.5-77.1 45.6L28.9 182.3C20.4 197.7 16 214.9 16 232.4L16 376c0 13.3 10.7 24 24 24l32 0c13.3 0 24-10.7 24-24l0-143.6c0-4 1-8 3-11.6l57.3-104.1c1.6-3 3.6-5.7 5.9-8.1c2.2-2.4 5.7-3.2 8.8-2s5.1 4.2 5.1 7.4L176 304l-16 0 0-160.9-47 85.5c-.6 1.2-1 2.5-1 3.9L112 376c0 22.1-17.9 40-40 40l-32 0c-22.1 0-40-17.9-40-40L0 232.4c0-20.2 5.1-40.1 14.9-57.8L81.3 53.9C99.5 20.6 134.5 0 172.4 0L192 0l16 0c1.2 0 2.5 .1 3.7 .2c1.4-.1 2.9-.2 4.3-.2l23.8 0 .3 0L399.8 0l.3 0L424 0c1.5 0 2.9 .1 4.3 .2c1.2-.1 2.4-.2 3.7-.2l16 0 19.6 0c37.9 0 72.8 20.6 91.1 53.9l66.4 120.7c9.7 17.7 14.9 37.6 14.9 57.8L640 376c0 22.1-17.9 40-40 40l-32 0c-22.1 0-40-17.9-40-40l0-143.6c0-1.3-.3-2.7-1-3.9l-47-85.5L480 304l-16 0 0-189.9c0-3.3 2-6.2 5-7.4s6.5-.4 8.8 2c2.3 2.4 4.3 5.2 5.9 8.1L541 220.9l-7 3.9 7-3.9c1.9 3.5 3 7.5 3 11.6L544 376c0 13.3 10.7 24 24 24l32 0c13.3 0 24-10.7 24-24l0-143.6c0-17.5-4.4-34.8-12.9-50.1L544.7 61.6C529.3 33.5 499.7 16 467.6 16L448 16l-16 0c-.9 0-1.8 .1-2.7 .2c-.5 .1-1.1 .1-1.6 0c-1.2-.1-2.4-.2-3.7-.2l-19.1 0L327.2 171.5 264.1 304l-17.7 0 64.7-135.9L235.1 16zM160 384l16 0 0 80c0 17.7 14.3 32 32 32l224 0c17.7 0 32-14.3 32-32l0-80 16 0 0 80c0 26.5-21.5 48-48 48l-224 0c-26.5 0-48-21.5-48-48l0-80zM387.1 16L252.9 16 320 150.1 387.1 16zM160 336l160 0 160 0c4.4 0 8 3.6 8 8s-3.6 8-8 8l-145.1 0 55.7 83.6c2.5 3.7 1.5 8.6-2.2 11.1s-8.6 1.5-11.1-2.2l-57.3-86-57.3 86c-2.5 3.7-7.4 4.7-11.1 2.2s-4.7-7.4-2.2-11.1L305.1 352 160 352c-4.4 0-8-3.6-8-8s3.6-8 8-8z"/></svg>