<svg xmlns="http://www.w3.org/2000/svg" viewBox="0 0 448 512"><!--! Font Awesome Pro 6.6.0 by @fontawesome - https://fontawesome.com License - https://fontawesome.com/license (Commercial License) Copyright 2024 Fonticons, Inc. --><path d="M216 19.3c2.1-2.1 5-3.3 8-3.3s5.9 1.2 8 3.3L363.8 151.4c2.7 2.7 4.2 6.4 4.2 10.2c0 8-6.5 14.4-14.4 14.4L280 176c-4.4 0-8 3.6-8 8l0 136c0 8.8-7.2 16-16 16l-64 0c-8.8 0-16-7.2-16-16l0-136c0-4.4-3.6-8-8-8l-73.6 0c-8 0-14.4-6.5-14.4-14.4c0-3.8 1.5-7.5 4.2-10.2L216 19.3zM224 0c-7.2 0-14.2 2.9-19.3 8L72.9 140.1c-5.7 5.7-8.9 13.4-8.9 21.5C64 178.4 77.6 192 94.4 192l65.6 0 0 128c0 17.7 14.3 32 32 32l64 0c17.7 0 32-14.3 32-32l0-128 65.6 0c16.8 0 30.4-13.6 30.4-30.4c0-8.1-3.2-15.8-8.9-21.5L243.3 8c-5.1-5.1-12.1-8-19.3-8zM16 328c0-4.4-3.6-8-8-8s-8 3.6-8 8l0 96c0 48.6 39.4 88 88 88l272 0c48.6 0 88-39.4 88-88l0-96c0-4.4-3.6-8-8-8s-8 3.6-8 8l0 96c0 39.8-32.2 72-72 72L88 496c-39.8 0-72-32.2-72-72l0-96z"/></svg>