<svg xmlns="http://www.w3.org/2000/svg" viewBox="0 0 448 512"><!--! Font Awesome Pro 6.6.0 by @fontawesome - https://fontawesome.com License - https://fontawesome.com/license (Commercial License) Copyright 2024 Fonticons, Inc. --><path d="M336 144l0-8 0-8c0-5.4-.4-10.8-1.1-16L312 112c-22.1 0-43-10.2-56.6-27.5L251 89.9C231.2 114 201.7 128 170.5 128L112 128l0 8 0 8c0 61.9 50.1 112 112 112s112-50.1 112-112zM292.4 39.3L265.8 71.8l1.4 1.8C277.8 87.7 294.4 96 312 96l19.4 0c-6.8-22.8-20.6-42.5-39-56.7zM113.1 112l57.4 0c26.4 0 51.4-11.8 68.1-32.3L279 30.4C262.7 21.2 244 16 224 16c-56.4 0-103.1 41.7-110.9 96zM390.4 244.8c-20.6-15.4-36.1-36.2-45.2-59.6C328.1 235.7 280.3 272 224 272s-104.1-36.3-121.2-86.8c-9.1 23.4-24.6 44.1-45.2 59.6L53.3 248c-3.4 2.5-5.3 6.5-5.3 10.7C48 266 54 272 61.3 272l58.7 0c4.4 0 8 3.6 8 8s-3.6 8-8 8l-58.7 0C45.1 288 32 274.9 32 258.7c0-9.2 4.3-17.9 11.7-23.5L48 232c30.2-22.7 48-58.2 48-96l0-8C96 57.3 153.3 0 224 0s128 57.3 128 128l0 8c0 37.8 17.8 73.3 48 96l4.3 3.2c7.4 5.5 11.7 14.2 11.7 23.5c0 16.2-13.1 29.3-29.3 29.3L328 288c-4.4 0-8-3.6-8-8s3.6-8 8-8l58.7 0c7.4 0 13.3-6 13.3-13.3c0-4.2-2-8.1-5.3-10.7l-4.3-3.2zM176.9 308.3c1.4-2.7 4.1-4.3 7.1-4.3l80 0c3 0 5.7 1.7 7.1 4.3s1.1 5.9-.6 8.3l-37.2 52.1 23.2 46.3 47.1-94.2c81.2 8.4 144.4 77 144.4 160.4c0 17-13.8 30.7-30.7 30.7l-191.4 0-3.8 0L30.7 512C13.8 512 0 498.2 0 481.3c0-83.4 63.3-152 144.4-160.4l47.1 94.2 23.2-46.3-37.2-52.1c-1.7-2.4-2-5.6-.6-8.3zM199.5 320L224 354.2 248.5 320l-48.9 0zm10.1 167.2L135.3 338.3C67.5 350.6 16 409.9 16 481.3c0 8.1 6.6 14.7 14.7 14.7l183.4 0-4.4-8.8zm-9.2-54.2l14.6 29.2L224 480l8.9-17.9 14.6-29.2L224 385.9l-23.5 47.1zM432 481.3c0-71.4-51.5-130.7-119.3-143L238.3 487.2l-4.4 8.8 183.4 0c8.1 0 14.7-6.6 14.7-14.7z"/></svg>