<svg xmlns="http://www.w3.org/2000/svg" viewBox="0 0 640 512"><!--! Font Awesome Pro 6.6.0 by @fontawesome - https://fontawesome.com License - https://fontawesome.com/license (Commercial License) Copyright 2024 Fonticons, Inc. --><path d="M224 240a112 112 0 1 0 0-224 112 112 0 1 0 0 224zm-45.7 80C88.7 320 16 392.7 16 482.3c0 7.6 6.1 13.7 13.7 13.7l375.4 0c1.3 5.7 3.5 11.1 6.7 16L29.7 512C13.3 512 0 498.7 0 482.3C0 383.8 79.8 304 178.3 304l91.4 0c11.8 0 23.4 1.2 34.5 3.3c-.7 5.7-.2 11.3 1.2 16.6c-11.5-2.6-23.5-3.9-35.7-3.9l-91.4 0zM96 128a128 128 0 1 1 256 0A128 128 0 1 1 96 128zm356 90.5l0 35.2c0 3.2-1.9 6.1-4.9 7.4c-10.2 4.3-19.5 9.6-28.4 16.2c-2.6 1.9-6 2.1-8.7 .5l-28.8-16.6c-6.4 7-12.2 14.9-17.2 23.5s-8.9 17.5-11.8 26.6l28.8 16.6c2.7 1.6 4.3 4.6 4 7.8c-.6 5.6-1.1 10.7-1.1 15.8s.5 10.2 1.2 15.8c.3 3.2-1.2 6.2-4 7.8l-28.8 16.6c2.9 9.1 6.8 18 11.8 26.6s10.8 16.5 17.2 23.5L410 425.2c2.8-1.6 6.2-1.4 8.7 .5c8.9 6.6 18.2 11.9 28.4 16.2c3 1.3 4.9 4.2 4.9 7.4l0 35.2c9 2 18.4 3 28.1 3s19-1 28.1-3l0-35.3c0-3.2 1.9-6.1 4.8-7.4c10.1-4.3 19.3-9.6 28.1-16.2c2.6-1.9 6-2.1 8.7-.5l29 16.7c6.4-7 12.2-14.9 17.2-23.5c5-8.6 8.9-17.5 11.8-26.6l-29-16.8c-2.7-1.6-4.3-4.6-4-7.8c.6-5.6 1.1-10.7 1.1-15.7s-.5-10.2-1.1-15.7c-.3-3.2 1.2-6.2 4-7.8l29-16.8c-2.9-9.1-6.8-18-11.8-26.6c-5-8.6-10.8-16.5-17.2-23.5l-29 16.7c-2.8 1.6-6.2 1.4-8.8-.5c-8.8-6.5-18-11.8-28.1-16.2c-2.9-1.3-4.8-4.2-4.8-7.3l0-35.3c-9-2-18.4-3-28.1-3s-19 1-28.1 3zm-4.7-15.4c10.5-2.4 21.5-3.7 32.7-3.7s22.2 1.3 32.7 3.7c6.7 1.5 11.3 7.7 11.3 14.8l0 30.7c7.8 3.7 15.1 7.9 22.2 12.7l25-14.4c6.1-3.5 13.8-2.6 18.5 2.4c7.6 8.1 14.3 17.2 20.1 27.2s10.3 20.4 13.5 31c2 6.6-1 13.7-7.2 17.2l-25 14.4c.4 3.9 .7 8.1 .7 12.2s-.3 8.3-.7 12.2l25 14.4c6.1 3.5 9.2 10.6 7.2 17.2c-3.3 10.6-7.8 21-13.5 31s-12.5 19.1-20.1 27.2c-4.7 5.1-12.4 5.9-18.5 2.4l-25-14.4c-7.1 4.9-14.4 9.1-22.2 12.7l0 30.7c0 7.1-4.6 13.3-11.3 14.8c-10.5 2.4-21.5 3.7-32.7 3.7s-22.2-1.3-32.7-3.7c-6.7-1.5-11.3-7.7-11.3-14.8l0-30.6c-7.9-3.7-15.3-7.9-22.4-12.8L388.8 456c-6.1 3.5-13.8 2.6-18.5-2.4c-7.6-8.1-14.3-17.2-20.1-27.2s-10.3-20.4-13.5-31c-2-6.6 1-13.7 7.2-17.2l24.8-14.3c-.4-4-.7-8.2-.7-12.4s.3-8.4 .7-12.4l-24.8-14.3c-6.1-3.5-9.2-10.6-7.2-17.2c3.3-10.6 7.7-21 13.5-31s12.5-19.1 20.1-27.2c4.7-5.1 12.4-5.9 18.5-2.4l24.8 14.3c7.2-4.9 14.6-9.2 22.4-12.8l0-30.6c0-7.1 4.6-13.3 11.3-14.8zM480 383.7a32 32 0 1 0 0-64 32 32 0 1 0 0 64zm0-80a48 48 0 1 1 0 96 48 48 0 1 1 0-96z"/></svg>