<svg xmlns="http://www.w3.org/2000/svg" viewBox="0 0 448 512"><!--! Font Awesome Pro 6.6.0 by @fontawesome - https://fontawesome.com License - https://fontawesome.com/license (Commercial License) Copyright 2024 Fonticons, Inc. --><path d="M224 0c4.4 0 8 3.6 8 8l0 56 72 0c44.2 0 80 35.8 80 80l0 96c0 44.2-35.8 80-80 80l-160 0c-44.2 0-80-35.8-80-80l0-96c0-44.2 35.8-80 80-80l72 0 0-56c0-4.4 3.6-8 8-8zM144 80c-35.3 0-64 28.7-64 64l0 96c0 35.3 28.7 64 64 64l160 0c35.3 0 64-28.7 64-64l0-96c0-35.3-28.7-64-64-64L144 80zM16 136c0-4.4 3.6-8 8-8s8 3.6 8 8l0 112c0 4.4-3.6 8-8 8s-8-3.6-8-8l0-112zm408-8c4.4 0 8 3.6 8 8l0 112c0 4.4-3.6 8-8 8s-8-3.6-8-8l0-112c0-4.4 3.6-8 8-8zM16 448l0 16c0 17.7 14.3 32 32 32l32 0 0-48c0-17.7 14.3-32 32-32l224 0c17.7 0 32 14.3 32 32l0 48 32 0c17.7 0 32-14.3 32-32l0-16c0-44.2-35.8-80-80-80L96 368c-44.2 0-80 35.8-80 80zm384 64l-32 0-16 0L96 512l-16 0-32 0c-26.5 0-48-21.5-48-48l0-16c0-53 43-96 96-96l256 0c53 0 96 43 96 96l0 16c0 26.5-21.5 48-48 48zm-48-64c0-8.8-7.2-16-16-16l-40 0 0 64 56 0 0-48zm-72-16l-48 0 0 64 48 0 0-64zm-64 0l-48 0 0 64 48 0 0-64zm-64 0l-40 0c-8.8 0-16 7.2-16 16l0 48 56 0 0-64zm0-192c0-4.4 3.6-8 8-8s8 3.6 8 8l0 32c0 4.4-3.6 8-8 8s-8-3.6-8-8l0-32zm72-8c4.4 0 8 3.6 8 8l0 32c0 4.4-3.6 8-8 8s-8-3.6-8-8l0-32c0-4.4 3.6-8 8-8zm56 8c0-4.4 3.6-8 8-8s8 3.6 8 8l0 32c0 4.4-3.6 8-8 8s-8-3.6-8-8l0-32zM197.7 133.7L171.3 160l26.3 26.3c3.1 3.1 3.1 8.2 0 11.3s-8.2 3.1-11.3 0L160 171.3l-26.3 26.3c-3.1 3.1-8.2 3.1-11.3 0s-3.1-8.2 0-11.3L148.7 160l-26.3-26.3c-3.1-3.1-3.1-8.2 0-11.3s8.2-3.1 11.3 0L160 148.7l26.3-26.3c3.1-3.1 8.2-3.1 11.3 0s3.1 8.2 0 11.3zm52.7-11.3c3.1-3.1 8.2-3.1 11.3 0L288 148.7l26.3-26.3c3.1-3.1 8.2-3.1 11.3 0s3.1 8.2 0 11.3L299.3 160l26.3 26.3c3.1 3.1 3.1 8.2 0 11.3s-8.2 3.1-11.3 0L288 171.3l-26.3 26.3c-3.1 3.1-8.2 3.1-11.3 0s-3.1-8.2 0-11.3L276.7 160l-26.3-26.3c-3.1-3.1-3.1-8.2 0-11.3z"/></svg>