<svg xmlns="http://www.w3.org/2000/svg" viewBox="0 0 448 512"><!--! Font Awesome Pro 6.6.0 by @fontawesome - https://fontawesome.com License - https://fontawesome.com/license (Commercial License) Copyright 2024 Fonticons, Inc. --><path d="M196.9 21.4c.5 .3 1.1 .7 1.8 1.2c0 0 0 0 0 0s0 0 0 0c4.6 3.2 13.2 9.4 25.4 9.4s20.8-6.1 25.4-9.4c.7-.5 1.3-.9 1.8-1.2c3.9-2.6 8.9-5.4 20.9-5.4c5.2 0 11.5 2.7 18.9 11.2c7.4 8.4 14.5 21 20.9 36.3c7.9 18.8 14.2 40.3 19.1 60.5c-28.6 7.2-64.1 12-106.9 12s-78.3-4.8-106.9-12c4.9-20.2 11.2-41.7 19.1-60.5c6.4-15.3 13.5-27.9 20.9-36.3C164.5 18.7 170.8 16 176 16c11.9 0 16.9 2.8 20.9 5.4zm149.5 98.3C333 65.3 309.3 0 272 0c-18 0-25.9 5.4-32.5 9.9c-4.8 3.3-8.8 6.1-15.5 6.1s-10.8-2.8-15.5-6.1C201.9 5.4 194 0 176 0c-37.3 0-61 65.3-74.3 119.7c-7.5-2.3-14.4-4.7-20.7-7.2c-33.2-13-51.7-28.3-58.5-37.4c-2.4-3.1-6.6-4.1-10.1-2.3s-5.1 5.9-3.9 9.6c8.7 26 33.1 59.2 69.7 85.9C114.9 195.3 164.5 216 224 216s109.1-20.7 145.9-47.5c36.6-26.7 61-60 69.7-85.9c1.2-3.7-.4-7.8-3.9-9.6s-7.8-.9-10.1 2.3c-6.8 9.1-25.3 24.3-58.5 37.4c-6.4 2.5-13.3 4.9-20.8 7.2zM87.5 155.5c-18.7-13.7-33.8-29-44.8-43.6c9.1 5.3 19.9 10.6 32.3 15.5c35 13.7 84 24.6 148.9 24.6s113.9-10.8 148.9-24.6c12.5-4.9 23.2-10.2 32.3-15.5c-11 14.6-26 29.9-44.8 43.6C326.1 180.7 279.7 200 224 200s-102.1-19.3-136.5-44.5zM100.7 400l246.5 0c40.3 0 74.4 30 79.4 70.1l1 7.9c1.2 9.5-6.3 18-15.9 18L36.2 496c-9.6 0-17.1-8.4-15.9-18l1-7.9c5-40 39-70.1 79.4-70.1zm0-16c-48.4 0-89.3 36.1-95.3 84.1l-1 7.9C2.1 495.1 17 512 36.2 512l375.5 0c19.2 0 34.1-16.9 31.8-36l-1-7.9c-6-48-46.8-84.1-95.3-84.1l-246.5 0zM224 352c70 0 126.9-56.2 128-126c-5.3 2.6-10.8 5.2-16.4 7.5C330.8 290.9 282.6 336 224 336s-106.8-45.1-111.6-102.5c-5.6-2.4-11.1-4.9-16.4-7.5c1.1 69.8 58 126 128 126z"/></svg>