<svg xmlns="http://www.w3.org/2000/svg" viewBox="0 0 448 512"><!--! Font Awesome Pro 6.6.0 by @fontawesome - https://fontawesome.com License - https://fontawesome.com/license (Commercial License) Copyright 2024 Fonticons, Inc. --><path d="M200 24l0 64c0 4.4-3.6 8-8 8s-8-3.6-8-8l0-49.2C137.4 55.3 104 99.8 104 152l0 8 240 0 0-8c0-52.2-33.4-96.7-80-113.2L264 88c0 4.4-3.6 8-8 8s-8-3.6-8-8l0-64c0-4.4-3.6-8-8-8l-32 0c-4.4 0-8 3.6-8 8zm-16 0c0-13.3 10.7-24 24-24l32 0c13.3 0 24 10.7 24 24l0-2c55.6 17.1 96 68.8 96 130l0 8 16 0c4.4 0 8 3.6 8 8s-3.6 8-8 8L72 176c-4.4 0-8-3.6-8-8s3.6-8 8-8l16 0 0-8c0-61.2 40.4-112.9 96-130l0 2zm40 296c-65.3 0-119.1-48.9-127-112l16.1 0c7.8 54.3 54.4 96 110.9 96s103.1-41.7 110.9-96l16.1 0c-7.9 63.1-61.7 112-127 112zm-89.6 48C69 368 16 421 16 486.4c0 5.3 4.3 9.6 9.6 9.6l396.8 0c5.3 0 9.6-4.3 9.6-9.6C432 421 379 368 313.6 368l-179.2 0zM0 486.4C0 412.2 60.2 352 134.4 352l179.2 0C387.8 352 448 412.2 448 486.4c0 14.1-11.5 25.6-25.6 25.6L25.6 512C11.5 512 0 500.5 0 486.4z"/></svg>