<svg xmlns="http://www.w3.org/2000/svg" viewBox="0 0 448 512"><!--! Font Awesome Pro 6.6.0 by @fontawesome - https://fontawesome.com License - https://fontawesome.com/license (Commercial License) Copyright 2024 Fonticons, Inc. --><path d="M336 128c0-5.4-.4-10.8-1.1-16L312 112c-22.1 0-43-10.2-56.6-27.5L251 89.9C231.2 114 201.7 128 170.5 128L112 128l0 16c0 61.9 50.1 112 112 112s112-50.1 112-112l0-16zM267.2 73.6C277.8 87.7 294.4 96 312 96l19.4 0c-6.8-22.8-20.6-42.5-39-56.7L265.8 71.8l1.4 1.8zM279 30.4C262.7 21.2 244 16 224 16c-56.4 0-103.1 41.7-110.9 96l57.4 0c26.4 0 51.4-11.8 68.1-32.3L279 30.4zM96 128C96 57.3 153.3 0 224 0s128 57.3 128 128l0 16c0 70.7-57.3 128-128 128s-128-57.3-128-128l0-16zm56 194l0 46.7c22.7 3.8 40 23.6 40 47.3c0 26.5-21.5 48-48 48s-48-21.5-48-48c0-23.8 17.3-43.5 40-47.3l0-43.4C66.9 343.5 16 406.4 16 481.2c0 8.2 6.6 14.8 14.8 14.8l386.4 0c8.2 0 14.8-6.6 14.8-14.8c0-74.8-50.9-137.7-120-155.9l0 43.4c22.7 3.8 40 23.6 40 47.3l0 40c0 4.4-3.6 8-8 8l-16 0c-4.4 0-8-3.6-8-8s3.6-8 8-8l8 0 0-32c0-17.7-14.3-32-32-32s-32 14.3-32 32l0 32 8 0c4.4 0 8 3.6 8 8s-3.6 8-8 8l-16 0c-4.4 0-8-3.6-8-8l0-40c0-23.8 17.3-43.5 40-47.3l0-46.7c-8.2-1.3-16.6-2-25.2-2l-93.6 0c-8.6 0-17 .7-25.2 2zm-40 94a32 32 0 1 0 64 0 32 32 0 1 0 -64 0zM0 481.2C0 383.3 79.3 304 177.2 304l93.6 0C368.7 304 448 383.3 448 481.2c0 17-13.8 30.8-30.8 30.8L30.8 512C13.8 512 0 498.2 0 481.2z"/></svg>