<svg xmlns="http://www.w3.org/2000/svg" viewBox="0 0 448 512"><!--! Font Awesome Pro 6.6.0 by @fontawesome - https://fontawesome.com License - https://fontawesome.com/license (Commercial License) Copyright 2024 Fonticons, Inc. --><path d="M80 167C80 83 145.1 16 224 16s144 67 144 151c0 45-23.9 87.6-53.6 123c-29.5 35.1-63.1 61-78.9 72.3c-3.1 2.2-7.1 3.5-11.5 3.5s-8.4-1.3-11.5-3.5c-15.8-11.3-49.4-37.2-78.9-72.3C103.9 254.6 80 212 80 167zM224 0C135.6 0 64 74.8 64 167c0 101 106.6 185 139.2 208.3c6.1 4.3 13.4 6.5 20.8 6.5s14.7-2.1 20.8-6.5C277.4 352 384 268.1 384 167C384 74.8 312.4 0 224 0zM0 486.4C0 500.5 11.5 512 25.6 512l396.8 0c14.1 0 25.6-11.5 25.6-25.6c0-71.4-55.7-129.8-126.1-134.1c-5.8 5.6-11.4 10.9-16.9 15.7l8.6 0C379 368 432 421 432 486.4c0 5.3-4.3 9.6-9.6 9.6L25.6 496c-5.3 0-9.6-4.3-9.6-9.6C16 421 69 368 134.4 368l8.6 0c-5.5-4.9-11.1-10.1-16.9-15.7C55.7 356.6 0 415 0 486.4zM208 238.9c0-34.7-28.1-62.9-62.9-62.9l-16 0c-9.5 0-17.1 7.7-17.1 17.1c0 34.7 28.1 62.9 62.9 62.9l16 0c9.5 0 17.1-7.7 17.1-17.1zM145.1 192c25.9 0 46.9 21 46.9 46.9c0 .6-.5 1.1-1.1 1.1l-16 0C149 240 128 219 128 193.1c0-.6 .5-1.1 1.1-1.1l16 0zm157.7-16c-34.7 0-62.9 28.1-62.9 62.9c0 9.5 7.7 17.1 17.1 17.1l16 0c34.7 0 62.9-28.1 62.9-62.9c0-9.5-7.7-17.1-17.1-17.1l-16 0zM256 238.9c0-25.9 21-46.9 46.9-46.9l16 0c.6 0 1.1 .5 1.1 1.1c0 25.9-21 46.9-46.9 46.9l-16 0c-.6 0-1.1-.5-1.1-1.1z"/></svg>