<svg xmlns="http://www.w3.org/2000/svg" viewBox="0 0 640 512"><!--! Font Awesome Pro 6.6.0 by @fontawesome - https://fontawesome.com License - https://fontawesome.com/license (Commercial License) Copyright 2024 Fonticons, Inc. --><path d="M72 0C32.2 0 0 32.2 0 72L0 440c0 39.8 32.2 72 72 72l496 0c39.8 0 72-32.2 72-72l0-368c0-39.8-32.2-72-72-72L72 0zM16 72c0-30.9 25.1-56 56-56l496 0c30.9 0 56 25.1 56 56l0 368c0 30.9-25.1 56-56 56L72 496c-30.9 0-56-25.1-56-56L16 72zM272 192a48 48 0 1 1 96 0 48 48 0 1 1 -96 0zM224 360c0-30.9 25.1-56 56-56l80 0c30.9 0 56 25.1 56 56c0 4.4-3.6 8-8 8l-176 0c-4.4 0-8-3.6-8-8zm96-104a64 64 0 1 0 0-128 64 64 0 1 0 0 128zm-40 32c-39.8 0-72 32.2-72 72c0 13.3 10.7 24 24 24l176 0c13.3 0 24-10.7 24-24c0-39.8-32.2-72-72-72l-80 0zM152 272l64 0c4.4 0 8-3.6 8-8s-3.6-8-8-8l-64 0c-30.9 0-56 25.1-56 56c0 17.7 14.3 32 32 32l32 0c4.4 0 8-3.6 8-8s-3.6-8-8-8l-32 0c-8.8 0-16-7.2-16-16c0-22.1 17.9-40 40-40zm-8-96a32 32 0 1 1 64 0 32 32 0 1 1 -64 0zm80 0a48 48 0 1 0 -96 0 48 48 0 1 0 96 0zm264 96c22.1 0 40 17.9 40 40c0 8.8-7.2 16-16 16l-32 0c-4.4 0-8 3.6-8 8s3.6 8 8 8l32 0c17.7 0 32-14.3 32-32c0-30.9-25.1-56-56-56l-64 0c-4.4 0-8 3.6-8 8s3.6 8 8 8l64 0zm8-96a32 32 0 1 1 -64 0 32 32 0 1 1 64 0zm-80 0a48 48 0 1 0 96 0 48 48 0 1 0 -96 0z"/></svg>