<svg xmlns="http://www.w3.org/2000/svg" viewBox="0 0 448 512"><!--! Font Awesome Pro 6.6.0 by @fontawesome - https://fontawesome.com License - https://fontawesome.com/license (Commercial License) Copyright 2024 Fonticons, Inc. --><path d="M41.3 .1c4.4 .7 7.3 4.8 6.6 9.2L24.8 148.1c-.5 3-.8 6.1-.8 9.2L24 168c0 30.9 25.1 56 56 56l64 0c30.9 0 56-25.1 56-56l0-10.7c0-3.1-.3-6.2-.8-9.2L176.1 9.3c-.7-4.4 2.2-8.5 6.6-9.2s8.5 2.2 9.2 6.6L215 145.5c.7 3.9 1 7.9 1 11.8l0 10.7c0 39.8-32.2 72-72 72l-24 0 0 264c0 4.4-3.6 8-8 8s-8-3.6-8-8l0-264-24 0c-39.8 0-72-32.2-72-72l0-10.7c0-4 .3-7.9 1-11.8L32.1 6.7C32.8 2.3 37-.6 41.3 .1zM88.4 0c4.4 .2 7.8 4 7.6 8.4l-8 160c-.2 4.4-4 7.8-8.4 7.6s-7.8-4-7.6-8.4l8-160c.2-4.4 4-7.8 8.4-7.6zm47.2 0c4.4-.2 8.2 3.2 8.4 7.6l8 160c.2 4.4-3.2 8.2-7.6 8.4s-8.2-3.2-8.4-7.6l-8-160c-.2-4.4 3.2-8.2 7.6-8.4zM304 176l0 128c0 17.7 14.3 32 32 32l80 0 0-312c0-4.4-3.6-8-8-8c0 0 0 0 0 0c-.1 0-1.9 .1-5.7 1.1c-3.5 .9-8.1 2.5-13.4 4.8c-10.6 4.6-23.5 12.2-36 23.8C328.2 68.6 304 108.3 304 176zM408 0c13.3 0 24 10.7 24 24l0 312 0 8 0 8 0 152c0 4.4-3.6 8-8 8s-8-3.6-8-8l0-152-80 0c-26.5 0-48-21.5-48-48l0-128C288 32 392 0 408 0z"/></svg>