<svg xmlns="http://www.w3.org/2000/svg" viewBox="0 0 512 512"><!--! Font Awesome Pro 6.6.0 by @fontawesome - https://fontawesome.com License - https://fontawesome.com/license (Commercial License) Copyright 2024 Fonticons, Inc. --><path d="M248 16c-4.4 0-8 3.6-8 8l0 56 32 0 0-56c0-4.4-3.6-8-8-8l-16 0zM224 80l0-56c0-13.3 10.7-24 24-24l16 0c13.3 0 24 10.7 24 24l0 56 144 0 0-40c0-4.4 3.6-8 8-8s8 3.6 8 8l0 40 48 0 0-40c0-4.4 3.6-8 8-8s8 3.6 8 8l0 40 0 16 0 16c0 17.7-14.3 32-32 32l-69.5 0L288 228.2 288 504c0 4.4-3.6 8-8 8s-8-3.6-8-8l0-279.9 0-.2 0-79.9-32 0 0 79.9 0 .2L240 504c0 4.4-3.6 8-8 8s-8-3.6-8-8l0-275.8L101.5 144 32 144c-17.7 0-32-14.3-32-32L0 96 0 80 0 40c0-4.4 3.6-8 8-8s8 3.6 8 8l0 40 48 0 0-40c0-4.4 3.6-8 8-8s8 3.6 8 8l0 40 144 0zM104.1 128L232 128l48 0 127.9 0 .2 0 71.9 0c8.8 0 16-7.2 16-16l0-16L288 96l-16 0-32 0-16 0L16 96l0 16c0 8.8 7.2 16 16 16l71.9 0 .2 0zm25.6 16L224 208.8l0-64.8-94.2 0zm252.5 0L288 144l0 64.8L382.2 144z"/></svg>