<svg xmlns="http://www.w3.org/2000/svg" viewBox="0 0 448 512"><!--! Font Awesome Pro 6.6.0 by @fontawesome - https://fontawesome.com License - https://fontawesome.com/license (Commercial License) Copyright 2024 Fonticons, Inc. --><path d="M120.4 0l-1.1 0L104 0 88 0C65.9 0 48 17.9 48 40l0 146.7c0 7.2-2 14.4-5.7 20.6L8 264.5c-5.2 8.7-8 18.7-8 28.8L0 472c0 22.1 17.9 40 40 40l136 0c-3.7-4.9-6.8-10.3-9.3-16L40 496c-13.3 0-24-10.7-24-24l0-178.7c0-7.2 2-14.4 5.7-20.6L56 215.5c5.2-8.7 8-18.7 8-28.8L64 40c0-13.3 10.7-24 24-24l16 0 15.3 0c6.7 0 12.7 4.2 15 10.4l60.3 162.3 8.7-22.6-46.8-126C170.2 52.5 191.7 64 224 64c31.1 0 52.2-10.7 66-22.5l-94 235c-2.6 6.6-4 13.7-4 20.8L192 472c0 22.1 17.9 40 40 40l176 0c22.1 0 40-17.9 40-40l0-178.7c0-10.1-2.8-20.1-8-28.8l-34.3-57.2c-3.7-6.2-5.7-13.3-5.7-20.6L400 40c0-22.1-17.9-40-40-40L344 0 328.2 0l-.7 0c-17 0-31.2 10.9-40.6 21.9C276.8 33.8 257.7 48 224 48s-52.8-14.2-63-26.1C151.6 10.9 137.4 0 120.4 0zm193 26.1C315.8 20 321.7 16 328.2 16L344 16l16 0c13.3 0 24 10.7 24 24l0 146.7c0 10.1 2.8 20.1 8 28.8l34.3 57.2c3.7 6.2 5.7 13.3 5.7 20.6L432 472c0 13.3-10.7 24-24 24l-176 0c-13.3 0-24-10.7-24-24l0-174.8c0-5.1 1-10.1 2.9-14.9L313.4 26.1zM80 400a32 32 0 1 1 64 0 32 32 0 1 1 -64 0zm80 0a48 48 0 1 0 -96 0 48 48 0 1 0 96 0zM93.7 242.3c-3.1-3.1-8.2-3.1-11.3 0s-3.1 8.2 0 11.3L100.7 272 82.3 290.3c-3.1 3.1-3.1 8.2 0 11.3s8.2 3.1 11.3 0L112 283.3l18.3 18.3c3.1 3.1 8.2 3.1 11.3 0s3.1-8.2 0-11.3L123.3 272l18.3-18.3c3.1-3.1 3.1-8.2 0-11.3s-8.2-3.1-11.3 0L112 260.7 93.7 242.3zM320 256c-17.7 0-32 14.3-32 32l0 8 0 48c0 4.4 3.6 8 8 8l48 0 8 0c17.7 0 32-14.3 32-32s-14.3-32-32-32c0-17.7-14.3-32-32-32zm-16 32c0-8.8 7.2-16 16-16s16 7.2 16 16l0 8c0 4.4 3.6 8 8 8l8 0c8.8 0 16 7.2 16 16s-7.2 16-16 16l-8 0-40 0 0-40 0-8z"/></svg>