<svg xmlns="http://www.w3.org/2000/svg" viewBox="0 0 512 512"><!--! Font Awesome Pro 6.6.0 by @fontawesome - https://fontawesome.com License - https://fontawesome.com/license (Commercial License) Copyright 2024 Fonticons, Inc. --><path d="M16 32c-4.4 0-8 3.6-8 8s3.6 8 8 8l16 0 0 216 0 136c0 44.2 35.8 80 80 80s80-35.8 80-80l0-136 0-216 16 0c4.4 0 8-3.6 8-8s-3.6-8-8-8l-24 0L40 32 16 32zM48 256L48 48l128 0 0 208L48 256zm0 16l128 0 0 128c0 35.3-28.7 64-64 64s-64-28.7-64-64l0-128zM304 32c-4.4 0-8 3.6-8 8s3.6 8 8 8l16 0 0 216 0 136c0 44.2 35.8 80 80 80s80-35.8 80-80l0-136 0-216 16 0c4.4 0 8-3.6 8-8s-3.6-8-8-8l-24 0L328 32l-24 0zm32 224l0-208 128 0 0 208-128 0zm0 16l128 0 0 128c0 35.3-28.7 64-64 64s-64-28.7-64-64l0-128z"/></svg>