<svg xmlns="http://www.w3.org/2000/svg" viewBox="0 0 512 512"><!--! Font Awesome Pro 6.6.0 by @fontawesome - https://fontawesome.com License - https://fontawesome.com/license (Commercial License) Copyright 2024 Fonticons, Inc. --><path d="M415.7 2.3c3.1-3.1 8.2-3.1 11.3 0c54.4 54.4 85 128.3 85 205.2l0 4.2C512 377.6 377.6 512 211.7 512l-4.2 0c-77 0-150.8-30.6-205.2-85c-3.1-3.1-3.1-8.2 0-11.3L415.7 2.3zm5.6 17.1L384.3 56.3C423.8 97.9 448 154.1 448 216c0 128.1-103.9 232-232 232c-61.9 0-118.1-24.2-159.7-63.7L19.4 421.3C70.2 469.2 137.5 496 207.6 496l4.2 0C368.7 496 496 368.7 496 211.7l0-4.2c0-70.1-26.8-137.4-74.7-188.2zM67.7 373c38.7 36.6 90.9 59 148.4 59c119.3 0 216-96.7 216-216c0-57.4-22.4-109.7-59-148.4L67.7 373zm266-210.7l24 24c3.1 3.1 3.1 8.2 0 11.3s-8.2 3.1-11.3 0l-24-24c-3.1-3.1-3.1-8.2 0-11.3s8.2-3.1 11.3 0zm-80 80l24 24c3.1 3.1 3.1 8.2 0 11.3s-8.2 3.1-11.3 0l-24-24c-3.1-3.1-3.1-8.2 0-11.3s8.2-3.1 11.3 0zm88 8l24 24c3.1 3.1 3.1 8.2 0 11.3s-8.2 3.1-11.3 0l-24-24c-3.1-3.1-3.1-8.2 0-11.3s8.2-3.1 11.3 0zm-168 72l24 24c3.1 3.1 3.1 8.2 0 11.3s-8.2 3.1-11.3 0l-24-24c-3.1-3.1-3.1-8.2 0-11.3s8.2-3.1 11.3 0zm88 8l24 24c3.1 3.1 3.1 8.2 0 11.3s-8.2 3.1-11.3 0l-24-24c-3.1-3.1-3.1-8.2 0-11.3s8.2-3.1 11.3 0z"/></svg>