<svg xmlns="http://www.w3.org/2000/svg" viewBox="0 0 640 512"><!--! Font Awesome Pro 6.6.0 by @fontawesome - https://fontawesome.com License - https://fontawesome.com/license (Commercial License) Copyright 2024 Fonticons, Inc. --><path d="M105.9 104.6C82.4 123 63.2 146.7 50.3 174C30.5 168.1 16 149.8 16 128c0-26.5 21.5-48 48-48c18 0 33.7 9.9 41.9 24.6zM0 128c0 28.4 18.5 52.5 44.1 60.8C36.3 209.7 32 232.4 32 256c0 106 86 192 192 192c64.7 0 121.9-32 156.7-81L529 444.4c4.6 2.4 9.6 3.6 14.8 3.6l2 0c9 0 17.6-3.8 23.7-10.5l63.3-69.6c4.6-5.1 7.2-11.7 7.2-18.5c0-8.4-3.9-16.4-10.5-21.6l-127-100.4c-5.2-4.1-12.4-4.6-18.2-1.2l-19.3 11.6c-10.3 6.2-23.4 5.5-33-1.7c-9.7-7.3-14-19.8-10.8-31.5l6.5-24c1.7-6.2-.5-12.8-5.5-16.8l-69.8-55.2C322.4 84.8 286.4 70 248.6 65.5c-.6-.1-1.1-.1-1.7-.1c-7.5-.9-15.2-1.4-22.9-1.4c-38.8 0-74.8 11.5-105 31.2C107.8 76.5 87.4 64 64 64C28.7 64 0 92.7 0 128zM367.7 357.7C335.7 402.7 283.3 432 224 432c-97.2 0-176-78.8-176-176s78.8-176 176-176c7.1 0 14.1 .4 21 1.2c.6 .1 1.1 .1 1.7 .1c34.9 4.2 68.1 17.9 95.9 39.9l69.8 55.2-6.5 24c-4.9 18 1.7 37.2 16.6 48.5c14.8 11.1 34.9 12.2 50.8 2.6l19.3-11.6 127 100.4c2.8 2.2 4.4 5.5 4.4 9.1c0 2.9-1.1 5.7-3 7.8l-63.3 69.6c-3 3.3-7.3 5.2-11.8 5.2l-2 0c-2.6 0-5.1-.6-7.4-1.8L388.1 352.8c-7.1-3.7-15.8-1.6-20.4 4.9zM176 256a48 48 0 1 1 96 0 48 48 0 1 1 -96 0zm112 0a64 64 0 1 0 -128 0 64 64 0 1 0 128 0z"/></svg>