<svg xmlns="http://www.w3.org/2000/svg" viewBox="0 0 640 512"><!--! Font Awesome Pro 6.6.0 by @fontawesome - https://fontawesome.com License - https://fontawesome.com/license (Commercial License) Copyright 2024 Fonticons, Inc. --><path d="M289.2 81.1l14.9 208c.6 8.4 7.6 14.9 16 14.9s15.4-6.5 16-14.9l14.9-208C352.1 63.2 337.9 48 320 48s-32.1 15.2-30.8 33.1zm-16 1.1C271.3 55.1 292.8 32 320 32s48.7 23.1 46.8 50.2l-14.9 208C350.7 307 336.8 320 320 320s-30.7-13-31.9-29.7l-14.9-208zM122.5 270.4c35.2-33.1 78.7-57.5 127.1-69.7l1.2 16.2C206.2 228.6 166 251.3 133.5 282c-3.2 3-8.3 2.9-11.3-.3s-2.9-8.3 .3-11.3zm267.9-69.7c48.4 12.2 91.9 36.6 127.1 69.7c3.2 3 3.4 8.1 .3 11.3s-8.1 3.4-11.3 .3c-32.6-30.7-72.7-53.4-117.3-65.1l1.2-16.2zm235.8-25.4C564.7 113.5 484.6 70.2 395.1 54.5c-2-6.2-4.8-12.1-8.2-17.5c97.3 14.6 184.4 60.4 250.7 127c3.1 3.1 3.1 8.2 0 11.3s-8.2 3.1-11.3 0zM2.5 164C68.7 97.4 155.8 51.5 253.2 37c-3.4 5.4-6.2 11.3-8.2 17.5c-89.6 15.7-169.6 59-231.1 120.8c-3.1 3.1-8.2 3.1-11.3 0s-3.1-8.2 0-11.3zM384 416a64 64 0 1 1 -128 0 64 64 0 1 1 128 0zm-64 48a48 48 0 1 0 0-96 48 48 0 1 0 0 96z"/></svg>