<svg xmlns="http://www.w3.org/2000/svg" viewBox="0 0 320 512"><!--! Font Awesome Pro 6.6.0 by @fontawesome - https://fontawesome.com License - https://fontawesome.com/license (Commercial License) Copyright 2024 Fonticons, Inc. --><path d="M60.1 29.8C61.2 21.9 67.9 16 75.9 16l75.5 0 1.2 3 29.3 73.2-57.4 28.7c-2.3 1.2-3.9 3.3-4.3 5.9s.4 5.1 2.2 6.9l64 64c3.1 3.1 8.2 3.1 11.3 0s3.1-8.2 0-11.3l-56.2-56.2 54.1-27c3.7-1.9 5.4-6.3 3.8-10.1L168.6 16l75.5 0c8 0 14.8 5.9 15.9 13.8l22.6 165.8C292.7 269.9 234.9 336 160 336S27.3 269.9 37.5 195.6L60.1 29.8zM44.2 27.7L21.6 193.5C10.5 274.7 71.3 347.3 152 351.8L152 496l-80 0c-4.4 0-8 3.6-8 8s3.6 8 8 8l88 0 88 0c4.4 0 8-3.6 8-8s-3.6-8-8-8l-80 0 0-144.2c80.7-4.5 141.5-77.1 130.4-158.3L275.8 27.7C273.6 11.8 260.1 0 244.1 0L75.9 0c-16 0-29.5 11.8-31.7 27.7z"/></svg>