<svg xmlns="http://www.w3.org/2000/svg" viewBox="0 0 320 512"><!--! Font Awesome Pro 6.6.0 by @fontawesome - https://fontawesome.com License - https://fontawesome.com/license (Commercial License) Copyright 2024 Fonticons, Inc. --><path d="M37.5 195.6C27.3 269.9 85.1 336 160 336s132.7-66.1 122.5-140.4L259.9 29.8c-1.1-7.9-7.9-13.8-15.9-13.8L75.9 16c-8 0-14.8 5.9-15.9 13.8L37.5 195.6zm-15.9-2.2L44.2 27.7C46.4 11.8 59.9 0 75.9 0L244.1 0c16 0 29.5 11.8 31.7 27.7l22.6 165.8c11.1 81.2-49.7 153.8-130.4 158.3L168 496l80 0c4.4 0 8 3.6 8 8s-3.6 8-8 8l-88 0-88 0c-4.4 0-8-3.6-8-8s3.6-8 8-8l80 0 0-144.2C71.3 347.3 10.5 274.7 21.6 193.5z"/></svg>