<svg xmlns="http://www.w3.org/2000/svg" viewBox="0 0 512 512"><!--! Font Awesome Pro 6.6.0 by @fontawesome - https://fontawesome.com License - https://fontawesome.com/license (Commercial License) Copyright 2024 Fonticons, Inc. --><path d="M39.7 38c-1.1-4.3-5.5-6.8-9.8-5.7s-6.8 5.5-5.7 9.8L83.9 272 8 272c-4.4 0-8 3.6-8 8s3.6 8 8 8l80 0 48.2 186c.9 3.5 4.1 6 7.7 6s6.8-2.5 7.7-6L200 288 312 288l48.2 186c.9 3.5 4.1 6 7.7 6s6.8-2.5 7.7-6L424 288l80 0c4.4 0 8-3.6 8-8s-3.6-8-8-8l-75.9 0L487.7 42c1.1-4.3-1.5-8.6-5.7-9.8s-8.6 1.5-9.8 5.7L411.6 272l-87.2 0L263.7 38c-.9-3.5-4.1-6-7.7-6s-6.8 2.5-7.7 6L187.6 272l-87.2 0L39.7 38zm64.8 250l78.9 0L144 440.1 104.6 288zm99.6-16L256 71.9 307.9 272l-103.8 0zm124.4 16l78.9 0L368 440.1 328.6 288z"/></svg>