<svg xmlns="http://www.w3.org/2000/svg" viewBox="0 0 640 512"><!--! Font Awesome Pro 6.6.0 by @fontawesome - https://fontawesome.com License - https://fontawesome.com/license (Commercial License) Copyright 2024 Fonticons, Inc. --><path d="M272 16l-16 0c-53 0-96 43-96 96l0 16 16 0c53 0 96-43 96-96l0-16zM160 144c-1.4 0-2.7-.2-4-.5c-28.2 30.6-44 70.7-44 112.5c0 114.9 93.1 208 208 208l27.6 0c41 0 81.4 9.5 118.1 27.9l9.9 5c4 2 5.6 6.8 3.6 10.7s-6.8 5.6-10.7 3.6l-9.9-5C424 489 386.1 480 347.6 480l-27.4 0-.2 0-27.6 0c-38.5 0-76.5 9-110.9 26.2l-9.9 5c-4 2-8.8 .4-10.7-3.6s-.4-8.8 3.6-10.7l9.9-5c23.1-11.5 47.6-19.6 72.8-24c-25.5-8.8-49-22-69.4-38.8c-58.3 23.7-126.6 1.4-158.9-54.6L10 359c-3.9-6.8-1.6-15.5 5.2-19.4c18.7-10.8 39.3-15.7 59.4-15.2C30.6 304.1 0 259.6 0 208l0-17.8C0 182.4 6.4 176 14.2 176c21.6 0 41.9 6 59.1 16.5C45.3 153 41 99.2 66.9 54.4L75.8 39c3.9-6.8 12.6-9.1 19.4-5.2c24.3 14 41.5 35.7 50.2 60.2C154 40.7 200.3 0 256 0l16 0c8.8 0 16 7.2 16 16l0 16c0 61.9-50.1 112-112 112l-16 0zm-24.5-1.2c3.9-36.7-13.3-74-46.8-94.2l-8 13.8C53.5 109.6 64.5 168.3 104 202.7c6.6-21.7 17.3-42.1 31.6-60zM117.3 351.4c-28.2-14.6-62.8-15.3-92.6 1.2l8 13.8C59.6 413.1 115 433 164.3 417c-19.4-18.7-35.3-40.9-47-65.6zM96 256c0-6.2 .3-12.3 .9-18.4c-17-26.9-46.9-45-80.9-45.6l0 16c0 53.8 38 98.8 88.6 109.5C99 298 96 277.3 96 256zM480 128l0-16c0-53-43-96-96-96l-16 0 0 16c0 53 43 96 96 96l16 0zm24.5 14.8c14.2 17.9 24.9 38.3 31.6 60c39.5-34.5 50.5-93.2 23.2-140.3l-8-13.8c-33.6 20.2-50.7 57.5-46.8 94.2zm62.2 49.7C583.9 182 604.1 176 625.8 176c7.9 0 14.2 6.4 14.2 14.2l0 17.8c0 51.6-30.6 96.1-74.6 116.4c20.2-.5 40.7 4.4 59.4 15.2c6.8 3.9 9.1 12.6 5.2 19.4l-8.9 15.4c-32.3 56-100.6 78.3-158.9 54.6c-7.6 6.2-15.6 12-23.9 17.2c-7.1-2.3-14.3-4.3-21.6-6.1C482.9 405.4 528 336 528 256c0-41.8-15.8-81.9-44-112.5c-1.3 .3-2.6 .5-4 .5l-16 0c-61.9 0-112-50.1-112-112l0-16c0-8.8 7.2-16 16-16l16 0c55.7 0 102 40.7 110.6 94c8.8-24.5 25.9-46.2 50.2-60.2c6.8-3.9 15.5-1.6 19.4 5.2l8.9 15.4c25.8 44.7 21.6 98.6-6.4 138.1zm-44 158.9c-11.6 24.7-27.6 46.8-47 65.6c49.2 16 104.6-3.9 131.5-50.6l8-13.8c-29.7-16.5-64.4-15.8-92.6-1.2zm20.4-113.8c.6 6.1 .9 12.2 .9 18.4c0 21.3-3 42-8.6 61.5C586 306.8 624 261.8 624 208l0-16c-34.1 .6-63.9 18.7-80.9 45.6z"/></svg>