<svg xmlns="http://www.w3.org/2000/svg" viewBox="0 0 640 512"><!--! Font Awesome Pro 6.6.0 by @fontawesome - https://fontawesome.com License - https://fontawesome.com/license (Commercial License) Copyright 2024 Fonticons, Inc. --><path d="M8 32l624 0c4.4 0 8 3.6 8 8s-3.6 8-8 8L8 48c-4.4 0-8-3.6-8-8s3.6-8 8-8zM8 464l624 0c4.4 0 8 3.6 8 8s-3.6 8-8 8L8 480c-4.4 0-8-3.6-8-8s3.6-8 8-8zm99.3-208l82.3 82.3c3.1 3.1 3.1 8.2 0 11.3s-8.2 3.1-11.3 0L96 267.3 13.7 349.7c-3.1 3.1-8.2 3.1-11.3 0s-3.1-8.2 0-11.3L84.7 256 2.3 173.7c-3.1-3.1-3.1-8.2 0-11.3s8.2-3.1 11.3 0L96 244.7l82.3-82.3c3.1-3.1 8.2-3.1 11.3 0s3.1 8.2 0 11.3L107.3 256zm130.3-93.7L320 244.7l82.3-82.3c3.1-3.1 8.2-3.1 11.3 0s3.1 8.2 0 11.3L331.3 256l82.3 82.3c3.1 3.1 3.1 8.2 0 11.3s-8.2 3.1-11.3 0L320 267.3l-82.3 82.3c-3.1 3.1-8.2 3.1-11.3 0s-3.1-8.2 0-11.3L308.7 256l-82.3-82.3c-3.1-3.1-3.1-8.2 0-11.3s8.2-3.1 11.3 0zm212.7 0c3.1-3.1 8.2-3.1 11.3 0L544 244.7l82.3-82.3c3.1-3.1 8.2-3.1 11.3 0s3.1 8.2 0 11.3L555.3 256l82.3 82.3c3.1 3.1 3.1 8.2 0 11.3s-8.2 3.1-11.3 0L544 267.3l-82.3 82.3c-3.1 3.1-8.2 3.1-11.3 0s-3.1-8.2 0-11.3L532.7 256l-82.3-82.3c-3.1-3.1-3.1-8.2 0-11.3zM0 424c0-4.4 3.6-8 8-8l624 0c4.4 0 8 3.6 8 8s-3.6 8-8 8L8 432c-4.4 0-8-3.6-8-8zM8 80l624 0c4.4 0 8 3.6 8 8s-3.6 8-8 8L8 96c-4.4 0-8-3.6-8-8s3.6-8 8-8z"/></svg>