<svg xmlns="http://www.w3.org/2000/svg" viewBox="0 0 512 512"><!--! Font Awesome Pro 6.6.0 by @fontawesome - https://fontawesome.com License - https://fontawesome.com/license (Commercial License) Copyright 2024 Fonticons, Inc. --><path d="M496 256c0 132.5-107.5 240-240 240c-66.5 0-120-52.2-120-116s53.5-116 120-116c74.9 0 136-58.9 136-132c0-39.1-17.4-74.1-45.1-98.2C434.4 69.6 496 155.6 496 256zM256 16c66.5 0 120 52.2 120 116s-53.5 116-120 116c-74.9 0-136 58.9-136 132c0 39.1 17.4 74.1 45.1 98.2C77.6 442.4 16 356.4 16 256C16 123.5 123.5 16 256 16zm0 496A256 256 0 1 0 256 0a256 256 0 1 0 0 512zm0-104a24 24 0 1 1 0-48 24 24 0 1 1 0 48zm-40-24a40 40 0 1 0 80 0 40 40 0 1 0 -80 0zm64-256a24 24 0 1 1 -48 0 24 24 0 1 1 48 0zM256 88a40 40 0 1 0 0 80 40 40 0 1 0 0-80z"/></svg>