<svg xmlns="http://www.w3.org/2000/svg" viewBox="0 0 512 512"><!--! Font Awesome Pro 6.6.0 by @fontawesome - https://fontawesome.com License - https://fontawesome.com/license (Commercial License) Copyright 2024 Fonticons, Inc. --><path d="M160 25.4C143 9.6 120.2 0 95.2 0C42.6 0 0 42.6 0 95.2c0 18.8 5.5 36.3 14.9 51.1L160 25.4zM256 112a176 176 0 1 1 0 352 176 176 0 1 1 0-352zm0 400c53.2 0 102.1-18.6 140.5-49.5L423 489l17 17L473.9 472l-17-17-26.5-26.5c31-38.4 49.5-87.3 49.5-140.5C480 164.3 379.7 64 256 64S32 164.3 32 288c0 53.2 18.6 102.1 49.5 140.5L55 455l-17 17L72 505.9l17-17 26.5-26.5c38.4 31 87.3 49.5 140.5 49.5zM497.1 146.4C506.5 131.6 512 114 512 95.2C512 42.6 469.4 0 416.8 0C391.8 0 369 9.6 352 25.4L497.1 146.4zM280 160l-48 0 0 24 0 112 0 24 48 0 0-24 0-112 0-24zM232 408l48 0 0-48-48 0 0 48z"/></svg>