<svg xmlns="http://www.w3.org/2000/svg" viewBox="0 0 512 512"><!--! Font Awesome Pro 6.6.0 by @fontawesome - https://fontawesome.com License - https://fontawesome.com/license (Commercial License) Copyright 2024 Fonticons, Inc. --><path d="M256 0c-48.9 0-92.5 28.8-121.6 53.8c-10.7 9.2-20 18.3-27.5 26.2L48 80 0 80l0 48 0 96 0 24 0 24L0 464l0 48 48 0 416 0 48 0 0-48 0-192 0-24 0-24 0-96 0-48-48 0-58.9 0c-7.5-7.9-16.8-17.1-27.5-26.2C348.5 28.8 304.9 0 256 0zm0 48c26.4 0 53.6 13.8 77.7 32L178.3 80c24.1-18.2 51.4-32 77.7-32zM464 272l0 192L48 464l0-192 416 0zm0-48L48 224l0-96 416 0 0 96zM112 200a24 24 0 1 0 0-48 24 24 0 1 0 0 48zm104-24a24 24 0 1 0 -48 0 24 24 0 1 0 48 0zm104 24a24 24 0 1 0 0-48 24 24 0 1 0 0 48zm104-24a24 24 0 1 0 -48 0 24 24 0 1 0 48 0zM368 304l0 32 32 0 0-32-32 0zm-32 48l0 32 32 0 0-32-32 0zm64 48l-32 0 0 32 32 0 0-32zM272 352l0 32 32 0 0-32-32 0zm64-16l0-32-32 0 0 32 32 0zm-32 96l32 0 0-32-32 0 0 32zm-64-80l-32 0 0 32 32 0 0-32zm0-48l0 32 32 0 0-32-32 0zm32 96l-32 0 0 32 32 0 0-32zM144 352l0 32 32 0 0-32-32 0zm64-48l-32 0 0 32 32 0 0-32zm-32 96l0 32 32 0 0-32-32 0zm-64-48l-32 0 0 32 32 0 0-32zm0-48l0 32 32 0 0-32-32 0zm32 96l-32 0 0 32 32 0 0-32zm256-48l0 32 32 0 0-32-32 0z"/></svg>