<svg xmlns="http://www.w3.org/2000/svg" viewBox="0 0 512 512"><!--! Font Awesome Pro 6.6.0 by @fontawesome - https://fontawesome.com License - https://fontawesome.com/license (Commercial License) Copyright 2024 Fonticons, Inc. --><path d="M255 31l-80 80-17 17 17 17 80 80 17 17L305.9 208l-17-17-39-39L464 152l0 80 0 24 48 0 0-24 0-104 0-24-24 0-238.1 0 39-39 17-17L272 14.1 255 31zM257 287l-17-17L206.1 304l17 17 39 39L24 360 0 360l0 24L0 488l0 24 48 0 0-24 0-80 214.1 0-39 39-17 17L240 497.9l17-17 80-80 17-17-17-17-80-80zm255 97a64 64 0 1 0 -128 0 64 64 0 1 0 128 0zM64 64a64 64 0 1 0 0 128A64 64 0 1 0 64 64z"/></svg>