<svg xmlns="http://www.w3.org/2000/svg" viewBox="0 0 576 512"><!--! Font Awesome Pro 6.6.0 by @fontawesome - https://fontawesome.com License - https://fontawesome.com/license (Commercial License) Copyright 2024 Fonticons, Inc. --><path d="M160 478.7l-17-17-96-96-17-17L64 314.9l17 17 55 55L136 56l0-24 48 0 0 24 0 330.9 55-55 17-17 33.9 33.9-17 17-96 96-17 17zM296 480l27.7-48 64.6-112L416 272l27.7 48 64.6 112L536 480l-55.4 0-129.2 0L296 480zm156.9-48L416 368.1 379.1 432l73.8 0zM368 80l0 96 96 0 0-96-96 0zM320 32l48 0 96 0 48 0 0 48 0 96 0 48-48 0-96 0-48 0 0-48 0-96 0-48z"/></svg>