<svg xmlns="http://www.w3.org/2000/svg" viewBox="0 0 576 512"><!--! Font Awesome Pro 6.6.0 by @fontawesome - https://fontawesome.com License - https://fontawesome.com/license (Commercial License) Copyright 2024 Fonticons, Inc. --><path d="M288 0L64 0l0 256-16 0L0 256l0 48L0 415c13 0 27.6-4.3 40.7-10.3c2.5-1.1 4.9-2.4 7.3-3.7l0-97 480 0 0 97c2.4 1.3 4.8 2.5 7.3 3.7c13.1 6 27.7 10.3 40.7 10.3l0-111 0-48-48 0-56 0 0-158.1 39 39 17 17L561.9 120l-17-17L465 23l-17-17L431 23l-80 80-17 17L368 153.9l17-17 39-39L424 256l-136 0L288 0zM79 488.9c6.5-3.7 12.2-7.4 16.9-10.7c4.7 3.3 10.5 7 16.9 10.7c19.3 11 47.6 23.1 79.1 23.1s59.7-12.2 79.1-23.1c6.5-3.7 12.2-7.4 16.9-10.7c4.7 3.3 10.5 7 16.9 10.7c19.3 11 47.6 23.1 79.1 23.1s59.7-12.2 79.1-23.1c6.5-3.7 12.2-7.4 16.9-10.7c4.8 3.3 10.5 7 17 10.7c19.3 11 47.6 23.1 79.1 23.1l0-48c-19.7 0-39.5-7.8-55.4-16.9c-15.4-8.7-27-19.1-40-30.7l-.7-.6-.7 .6c-13 11.6-24.6 22-40 30.7c-15.9 9-35.6 16.9-55.3 16.9s-39.5-7.8-55.3-16.9c-15.4-8.7-27-19.1-40-30.7l-.7-.6-.7 .6c-13 11.6-24.6 22-40 30.7c-15.9 9-35.6 16.9-55.3 16.9s-39.5-7.8-55.3-16.9c-15.4-8.7-27.2-19.3-40.3-30.9l-.4-.4-.4 .4c-13 11.6-24.8 22.2-40.2 30.9C39.4 456.2 19.7 464 0 464l0 48c31.5 0 59.7-12.2 79-23.1z"/></svg>