<svg xmlns="http://www.w3.org/2000/svg" viewBox="0 0 512 512"><!--! Font Awesome Pro 6.6.0 by @fontawesome - https://fontawesome.com License - https://fontawesome.com/license (Commercial License) Copyright 2024 Fonticons, Inc. --><path d="M311 124.2l17 17 33.9-33.9-17-17-72-72-17-17-17 17-72 72-17 17L184 141.1l17-17 31-31L232 232 93.1 232l31-31 17-17-33.9-33.9-17 17-72 72-17 17 17 17 72 72 17 17L141.1 328l-17-17-31-31L232 280l0 138.9-31-31-17-17-33.9 33.9 17 17 72 72 17 17 17-17 72-72 17-17L328 370.9l-17 17-31 31L280 280l138.9 0-31 31-17 17 33.9 33.9 17-17 72-72 17-17-17-17-72-72-17-17L370.9 184l17 17 31 31L280 232l0-138.9 31 31z"/></svg>