<svg xmlns="http://www.w3.org/2000/svg" viewBox="0 0 448 512"><!--! Font Awesome Pro 6.6.0 by @fontawesome - https://fontawesome.com License - https://fontawesome.com/license (Commercial License) Copyright 2024 Fonticons, Inc. --><path d="M241 18.2l-17-17-17 17-64 64-17 17L160 133.1l17-17 23-23 0 74.9 0 24 48 0 0-24 0-74.9 23 23 17 17 33.9-33.9-17-17-64-64zM248 344l0-24-48 0 0 24 0 74.9-23-23-17-17-33.9 33.9 17 17 64 64 17 17 17-17 64-64 17-17L288 378.9l-17 17-23 23 0-74.9zM24 232L0 232l0 48 24 0 400 0 24 0 0-48-24 0L24 232z"/></svg>