<svg xmlns="http://www.w3.org/2000/svg" viewBox="0 0 576 512"><!--! Font Awesome Pro 6.6.0 by @fontawesome - https://fontawesome.com License - https://fontawesome.com/license (Commercial License) Copyright 2024 Fonticons, Inc. --><path d="M160 478.7l-17-17-96-96-17-17L64 314.9l17 17 55 55L136 56l0-24 48 0 0 24 0 330.9 55-55 17-17 33.9 33.9-17 17-96 96-17 17zM432 80l-64 0 0 64 64 0 0-64zM368 32l64 0 48 0 0 48 0 64 0 48-48 0-64 0-48 0 0-48 0-64 0-48 48 0zm0 400l128 0 0-128-128 0 0 128zM320 256l48 0 128 0 48 0 0 48 0 128 0 48-48 0-128 0-48 0 0-48 0-128 0-48z"/></svg>