<svg xmlns="http://www.w3.org/2000/svg" viewBox="0 0 384 512"><!--! Font Awesome Pro 6.6.0 by @fontawesome - https://fontawesome.com License - https://fontawesome.com/license (Commercial License) Copyright 2024 Fonticons, Inc. --><path d="M236.2 26.9L192 0 147.8 26.9 96 25.7 71.2 71.2 25.7 96l1.2 51.8L0 192l26.9 44.2L25.7 288l45.4 24.8L96 358.3l51.8-1.2L192 384l44.2-26.9 51.8 1.2 24.8-45.4L358.3 288l-1.2-51.8L384 192l-26.9-44.2L358.3 96 312.8 71.2 288 25.7l-51.8 1.2zm23.7 47.5l10.8 19.8 6.8 12.4 12.4 6.8 19.8 10.8-.5 22.5-.3 14.1 7.3 12L327.8 192l-11.7 19.3-7.3 12 .3 14.1 .5 22.5-19.8 10.8-12.4 6.8-6.8 12.4-10.8 19.8-22.5-.5-14.1-.3-12 7.3L192 327.8l-19.3-11.7-12-7.3-14.1 .3-22.5 .5-10.8-19.8-6.8-12.4-12.4-6.8L74.4 259.9l.5-22.5 .3-14.1-7.3-12L56.2 192l11.7-19.3 7.3-12-.3-14.1-.5-22.5 19.8-10.8 12.4-6.8 6.8-12.4 10.8-19.8 22.5 .5 14.1 .3 12-7.3L192 56.2l19.3 11.7 12 7.3 14.1-.3 22.5-.5zM256 192a64 64 0 1 0 -128 0 64 64 0 1 0 128 0zM0 456l75.8 0L128 512l43.4-103.1-32.3-19.7-42.4 1-19.5 .5-9.3-17.1L49.2 339.3 0 456zm256 56l52.2-56 75.8 0L334.9 339.3l-18.8 34.3-9.3 17.1-19.5-.5-42.4-1-32.3 19.7L256 512z"/></svg>