<svg xmlns="http://www.w3.org/2000/svg" viewBox="0 0 512 512"><!--! Font Awesome Pro 6.6.0 by @fontawesome - https://fontawesome.com License - https://fontawesome.com/license (Commercial License) Copyright 2024 Fonticons, Inc. --><path d="M91.9 150.1C84 181.9 80 214.4 80 247.2l0 17.7c0 32.7 4 65.3 11.9 97L97.5 384l317 0 5.5-22.1c7.9-31.7 11.9-64.3 11.9-97l0-17.7c0-32.7-4-65.3-11.9-97L414.5 128l-317 0-5.5 22.1zM417.5 48l-323 0L103 80l306 0 8.5-32zm-316 384l-8 32 325 0-8-32-309 0zM44.8 48L32 0 81.7 0 430.3 0 480 0 467.2 48l-12 44.9 11.4 45.6c8.9 35.5 13.4 72 13.4 108.7l0 17.7c0 36.6-4.5 73.1-13.4 108.7L456 416l12 48 12 48-49.5 0-349 0L32 512l12-48 12-48L45.4 373.5C36.5 338 32 301.5 32 264.8l0-17.7c0-36.6 4.5-73.1 13.4-108.7L56.8 92.9 44.8 48zM160 160c40.7 0 76.4 21.8 96 54.3c19.6-32.5 55.3-54.3 96-54.3l32 0 0 16c0 59.2-45.9 107.6-104 111.7l0 40.3 0 24-48 0 0-24 0-40.3c-58.1-4.1-104-52.6-104-111.7l0-16 32 0z"/></svg>