<svg xmlns="http://www.w3.org/2000/svg" viewBox="0 0 640 512"><!--! Font Awesome Pro 6.6.0 by @fontawesome - https://fontawesome.com License - https://fontawesome.com/license (Commercial License) Copyright 2024 Fonticons, Inc. --><path d="M640 208c0 114.9-93.1 208-208 208c-3.9 0-7.7-.1-11.5-.3c5.7-10.8 10.6-22.1 14.6-33.8L478.8 352l56.7-1.6 19-53.4 44.9-34.6-16-54.4 16-54.4L554.5 119l-19-53.4L478.8 64 432 32 385.2 64l-56.7 1.6-9.2 25.7c-14.4-7.6-29.7-13.7-45.7-18.3C311.8 28.4 368.6 0 432 0C546.9 0 640 93.1 640 208zm-144 0c0 30.6-21.5 56.3-50.3 62.5c-6-43.3-23.6-82.9-49.5-115.6c10.2-6.9 22.6-11 35.9-11c35.3 0 64 28.7 64 64zM48 304a160 160 0 1 0 320 0A160 160 0 1 0 48 304zM0 304a208 208 0 1 1 416 0A208 208 0 1 1 0 304zm136-96l24-24 24 24-24 24-24-24zM96 296L72 272l24-24 24 24L96 296zm32 112l-24-24 24-24 24 24-24 24zM304 264l-24-24 24-24 24 24-24 24zM216 416l24-24 24 24-24 24-24-24zm88-8l-24-24 24-24 24 24-24 24zM192 304a16 16 0 1 0 32 0 16 16 0 1 0 -32 0zm16 64a64 64 0 1 1 0-128 64 64 0 1 1 0 128z"/></svg>