<svg xmlns="http://www.w3.org/2000/svg" viewBox="0 0 512 512"><!--! Font Awesome Pro 6.6.0 by @fontawesome - https://fontawesome.com License - https://fontawesome.com/license (Commercial License) Copyright 2024 Fonticons, Inc. --><path d="M385.1 419.1L92.9 126.9C64.8 162.3 48 207.2 48 256c0 114.9 93.1 208 208 208c48.8 0 93.7-16.8 129.1-44.9zm33.9-33.9C447.2 349.7 464 304.8 464 256c0-114.9-93.1-208-208-208c-48.8 0-93.7 16.8-129.1 44.9L161.9 128l6.1 0 24 0 88 0c53 0 96 43 96 96c0 32.1-15.8 60.6-40 78l83.1 83.1zM216 176l0 6.1 85.1 85.1C317 259.3 328 242.9 328 224c0-26.5-21.5-48-48-48l-64 0zM0 256a256 256 0 1 1 512 0A256 256 0 1 1 0 256zm216.4 64l-.4 0 0 40 0 24-48 0 0-24 0-64 0-24.4L216.4 320z"/></svg>