<svg xmlns="http://www.w3.org/2000/svg" viewBox="0 0 384 512"><!--! Font Awesome Pro 6.6.0 by @fontawesome - https://fontawesome.com License - https://fontawesome.com/license (Commercial License) Copyright 2024 Fonticons, Inc. --><path d="M-2 80l42 0c22.1 0 40 17.9 40 40l0 56L0 176l0 48 80 0 0 168c0 48.6 39.4 88 88 88l32 0c101.6 0 184-82.4 184-184l0-32c0-48.6-39.4-88-88-88l-16 0-24 0 0 48 24 0 16 0c22.1 0 40 17.9 40 40l0 32c0 75.1-60.9 136-136 136l-32 0c-22.1 0-40-17.9-40-40l0-168 64 0 0-48-64 0 0-56c0-48.6-39.4-88-88-88L-2 32l0 48z"/></svg>