<svg xmlns="http://www.w3.org/2000/svg" viewBox="0 0 512 512"><!--! Font Awesome Pro 6.6.0 by @fontawesome - https://fontawesome.com License - https://fontawesome.com/license (Commercial License) Copyright 2024 Fonticons, Inc. --><path d="M390.8 .1l16.6 16.6 88 88 16.6 16.6-16.1 17L337.4 304.5 335 307l-3 1.7L182.8 395.2l-54.2 54.2c-.3-.3-.6-.7-1-1l-64-64c-.3-.3-.7-.6-1-1l54.2-54.2L203.2 180l1.7-3 2.5-2.4L373.9 16.2l17-16.1zM305 269L444.9 122 390 67.1 243 207 171.9 329.9l10.2 10.2L305 269zM464 432a32 32 0 1 0 -64 0 32 32 0 1 0 64 0zm-112 0a80 80 0 1 1 160 0 80 80 0 1 1 -160 0zM50.9 401l60.2 60.2 17 17L94.1 512l-17-17L17 434.9l-17-17L33.9 384l17 17z"/></svg>