<svg xmlns="http://www.w3.org/2000/svg" viewBox="0 0 640 512"><!--! Font Awesome Pro 6.6.0 by @fontawesome - https://fontawesome.com License - https://fontawesome.com/license (Commercial License) Copyright 2024 Fonticons, Inc. --><path d="M552 512l-24 0-60.9-48L416 464l0-40.2-85-67C312.7 364 292.8 368 272 368c-88.4 0-160-71.6-160-160c0-7.6 .5-15.2 1.6-22.5l-42-33.1C66.6 170.1 64 188.7 64 208c0 59 24.6 112.2 64 150.1L128 488l0 24 24 0 184 0 56 0 24 0 112 0 24 0s0 0 0 0zm19.3-91.2c3-6.3 4.7-13.3 4.7-20.8c0-26.5-21.5-48-48-48c-11.7 0-22.5 4.2-30.8 11.2L445.4 323C467.2 290 480 250.5 480 208C480 93.1 386.9 0 272 0C210.8 0 155.7 26.5 117.7 68.6L48.4 14.8 29.4 .1 0 38 19 52.7 591.5 497.2l19 14.7L639.9 474l-19-14.7-49.6-38.5zM155.7 98.1C184.9 67.3 226.2 48 272 48c88.4 0 160 71.6 160 160c0 31.4-9.1 60.7-24.7 85.4l-51-39.6c7.4-13.6 11.7-29.3 11.7-45.9c0-53-43-96-96-96c-25.2 0-48.2 9.7-65.3 25.7l-51-39.6zM317.4 223.6l-71.8-55.7c7.6-5 16.6-7.9 26.4-7.9c26.5 0 48 21.5 48 48c0 5.5-.9 10.7-2.6 15.6zM336 464l-160 0 0-71.4c28.7 15 61.4 23.4 96 23.4s67.3-8.5 96-23.4l0 71.4-32 0z"/></svg>