<svg xmlns="http://www.w3.org/2000/svg" viewBox="0 0 640 512"><!--! Font Awesome Pro 6.6.0 by @fontawesome - https://fontawesome.com License - https://fontawesome.com/license (Commercial License) Copyright 2024 Fonticons, Inc. --><path d="M224 0l24 0 56 0 24 0 0 24 0 152 32 0 24 0 0 48-24 0-42.1 0L620.9 459.3l19 14.7-29.4 37.9-19-14.7L19 52.7 0 38 18.2 14.6 0 0S0 0 0 0L24 0 168 0l24 0 0 24 0 102.3L256 176l24 0 0-128-32 0-24 0 0-48zM144 89l0-41L91.2 48 144 89zM48 133.8L48 176l48 0 0 48-72 0L0 224l0-24L0 96l48 37.8zM243.7 288l60.9 48L240 336l0 128 96 0 0-103.3 48 37.8 0 89.5 0 24-24 0-144 0-24 0 0-24 0-176 0-24 24 0 27.7 0zM0 288l24 0 56 0 24 0 0 24 0 152 32 0 24 0 0 48-24 0-56 0-56 0L0 512l0-48 24 0 32 0 0-128-32 0L0 336l0-48z"/></svg>