<svg xmlns="http://www.w3.org/2000/svg" viewBox="0 0 512 512"><!--! Font Awesome Pro 6.6.0 by @fontawesome - https://fontawesome.com License - https://fontawesome.com/license (Commercial License) Copyright 2024 Fonticons, Inc. --><path d="M0 0L0 48l20 0L12 80 0 128l49.5 0 62.5 0 0-48L61.5 80l8-32L112 48l32 0 0 32 0 48 0 80 0 48 0 116.1C116 382 96 408.6 96 440c0 39.8 32.2 72 72 72s72-32.2 72-72c0-31.4-20-58-48-67.9L192 256l0-48 0-80 0-48 0-32 32 0 218.5 0 8 32L224 80l0 48 238.5 0 49.5 0L500 80l-8-32 20 0 0-48L488 0l-8 0L192 0 144 0 32 0 24 0 0 0zM144 440a24 24 0 1 1 48 0 24 24 0 1 1 -48 0zM112 208l-49 0 13.2-48-49.8 0L13.2 208 0 256l49.8 0 62.2 0 0-48zm112 48l238.2 0 49.8 0-13.2-48-13.2-48-49.8 0L449 208l-225 0 0 48z"/></svg>