<svg xmlns="http://www.w3.org/2000/svg" viewBox="0 0 448 512"><!--! Font Awesome Pro 6.6.0 by @fontawesome - https://fontawesome.com License - https://fontawesome.com/license (Commercial License) Copyright 2024 Fonticons, Inc. --><path d="M144 80l0 48 56 0 48 0 56 0 0-48L144 80zM96 128l0-48L48 80l0 48 48 0zM48 176l0 56 152 0 0-56L48 176zm0 160l48 0 0-56-48 0 0 56zm0 48l0 48 152 0 0-48-56 0-48 0-48 0zm96-48l160 0 0-56-160 0 0 56zm208 0l48 0 0-56-48 0 0 56zm48 48l-48 0-48 0-56 0 0 48 152 0 0-48zm0-208l-152 0 0 56 152 0 0-56zm0-48l0-48-48 0 0 48 48 0zM0 32l48 0 352 0 48 0 0 48 0 352 0 48-48 0L48 480 0 480l0-48L0 80 0 32z"/></svg>