<svg xmlns="http://www.w3.org/2000/svg" viewBox="0 0 640 512"><!--! Font Awesome Pro 6.6.0 by @fontawesome - https://fontawesome.com License - https://fontawesome.com/license (Commercial License) Copyright 2024 Fonticons, Inc. --><path d="M460.4 334.7L544 272l0-48-68.2-9.1-47.9-6.4 11.7-46.9 21.9-87.8L480 0 419.1 45.7 250.8 171.9 48.4 14.8 29.4 .1 0 38 19 52.7 591.5 497.2l19 14.7L639.9 474l-19-14.7L460.4 334.7zM290.1 202.4l110.6-82.9-19.3 77.4-13 52.1 53.3 7.1 54.1 7.2-54.5 40.9-131-101.7zm89.7 192.8l-39-30.7-37.4 28 12-48L274 311.9l-9.6 38.4-22 87.8L224 512l60.9-45.7 94.8-71.1zM171.7 231.3L160 240l0 48 68.2 9.1 32.5 4.3-89.1-70.2z"/></svg>