<svg xmlns="http://www.w3.org/2000/svg" viewBox="0 0 448 512"><!--! Font Awesome Pro 6.6.0 by @fontawesome - https://fontawesome.com License - https://fontawesome.com/license (Commercial License) Copyright 2024 Fonticons, Inc. --><path d="M0 88C0 39.4 39.4 0 88 0L424 0l24 0 0 24 0 352 0 24-24 0-8 0 0 64 8 0 24 0 0 48-24 0L80 512c-44.2 0-80-35.8-80-80c0-2.7 .1-5.4 .4-8L0 424 0 88zM80 400c-17.7 0-32 14.3-32 32s14.3 32 32 32l288 0 0-64L80 400zM48 358.7c9.8-4.3 20.6-6.7 32-6.7l320 0 0-304L88 48C65.9 48 48 65.9 48 88l0 270.7zM152 112l176 0 24 0 0 48-24 0-176 0-24 0 0-48 24 0zm0 80l176 0 24 0 0 48-24 0-176 0-24 0 0-48 24 0z"/></svg>