<svg xmlns="http://www.w3.org/2000/svg" viewBox="0 0 512 512"><!--! Font Awesome Pro 6.6.0 by @fontawesome - https://fontawesome.com License - https://fontawesome.com/license (Commercial License) Copyright 2024 Fonticons, Inc. --><path d="M0 0L24 0 144 0l0 48L48 48l0 440 0 24L0 512l0-24L0 24 0 0zM416 0l72 0 24 0 0 24 0 72 0 296 0 96 0 24-48 0 0-24 0-28.1c-7.5 2.7-15.6 4.1-24 4.1c-18.4 0-35.3-6.9-48-18.3c-12.7 11.4-29.6 18.3-48 18.3s-35.3-6.9-48-18.3c-12.7 11.4-29.6 18.3-48 18.3c-39.8 0-72-32.2-72-72l0-344 0-48 48 0 48 0 48 0 48 0 7.8 0L416 0zM368 48l-48 0 0 344c0 13.3 10.7 24 24 24s24-10.7 24-24l0-344zm96 344l0-296 0-48-48 0 0 48 0 296c0 13.3 10.7 24 24 24s24-10.7 24-24zM224 48l0 344c0 13.3 10.7 24 24 24s24-10.7 24-24l0-344-48 0z"/></svg>