<svg xmlns="http://www.w3.org/2000/svg" viewBox="0 0 448 512"><!--! Font Awesome Pro 6.6.0 by @fontawesome - https://fontawesome.com License - https://fontawesome.com/license (Commercial License) Copyright 2024 Fonticons, Inc. --><path d="M0 456l0 24 48 0 0-24L48 80l376 0 24 0 0-48-24 0L24 32 0 32 0 56 0 456zm96-40l0 64 64 0 0-64-64 0zm192 0l0 64 64 0 0-64-64 0zm-96 64l64 0 0-64-64 0 0 64zm192-64l0 64 64 0 0-64-64 0zm0-128l64 0 0-64-64 0 0 64zm0 32l0 64 64 0 0-64-64 0zm0-128l64 0 0-64-64 0 0 64z"/></svg>