<svg xmlns="http://www.w3.org/2000/svg" viewBox="0 0 320 512"><!--! Font Awesome Pro 6.6.0 by @fontawesome - https://fontawesome.com License - https://fontawesome.com/license (Commercial License) Copyright 2024 Fonticons, Inc. --><path d="M64 0L80 0s0 0 0 0l48 0 64 0 40 0 8 0 16 0 0 48-16 0 0 104.2c38.6 25.8 64 69.8 64 119.8l0 192 0 48-48 0L64 512l-48 0 0-48 0-192c0-49.9 25.4-93.9 64-119.8L80 48 64 48 64 0zM192 48l-64 0 0 104.2 0 25.6-21.3 14.3C80.9 209.4 64 238.8 64 272l0 192 192 0 0-192c0-33.2-16.9-62.6-42.7-79.9L192 177.9l0-25.6L192 48zM160 384c-26.5 0-48-21.5-48-48c0-32 48-80 48-80s48 48 48 80s-21.5 48-48 48z"/></svg>