<svg xmlns="http://www.w3.org/2000/svg" viewBox="0 0 512 512"><!--! Font Awesome Pro 6.6.0 by @fontawesome - https://fontawesome.com License - https://fontawesome.com/license (Commercial License) Copyright 2024 Fonticons, Inc. --><path d="M0 128L0 96 128 72l0-16 0-24 48 0 0 24 0 7 0 37.5 0 38 0 37.5 0 48 32 0 0-48 0-38.5 0-42L208 57l0-17 0-24 48 0 0 24 0 8 0 40 0 48 0 40 0 48 32 0 175.9 0 48.1 0-2.8 48-.8 13.2C503.5 368.1 454 438.2 384 472.9l0 39.1-48 0-160 0-48 0 0-39.1C58 438.2 8.5 368.1 3.6 285.2L2.8 272 0 224l48.1 0 79.9 0 0-48L0 176l0-32 128-4 0-32L0 128zM288 83l0-41L512 0l0 48L288 83zm0 52l224-7 0 48-224 0 0-41zM176 464l160 0 0-20.9 26.7-13.2c55.1-27.3 93.9-82.4 97.8-147.5l.6-10.3L50.9 272l.6 10.3c3.8 65.1 42.7 120.3 97.8 147.5L176 443.1l0 20.9z"/></svg>