<svg xmlns="http://www.w3.org/2000/svg" viewBox="0 0 448 512"><!--! Font Awesome Pro 6.6.0 by @fontawesome - https://fontawesome.com License - https://fontawesome.com/license (Commercial License) Copyright 2024 Fonticons, Inc. --><path d="M200 160l0-80L95.2 80 59.6 160 200 160zm188.4 0L352.8 80 248 80l0 80 140.4 0zM48 208l0 224 352 0 0-224L48 208zM64 32l320 0 64 144 0 256 0 48-48 0L48 480 0 480l0-48L0 176 64 32zM337 265L209 393l-17 17-17-17-64-64-17-17L128 278.1l17 17 47 47L303 231l17-17L353.9 248l-17 17z"/></svg>