<svg xmlns="http://www.w3.org/2000/svg" viewBox="0 0 640 512"><!--! Font Awesome Pro 6.6.0 by @fontawesome - https://fontawesome.com License - https://fontawesome.com/license (Commercial License) Copyright 2024 Fonticons, Inc. --><path d="M0 96a64 64 0 1 1 128 0A64 64 0 1 1 0 96zM224 280a24 24 0 1 0 0-48 24 24 0 1 0 0 48zm0-88a64 64 0 1 1 0 128 64 64 0 1 1 0-128zM88 416a24 24 0 1 0 -48 0 24 24 0 1 0 48 0zM0 416a64 64 0 1 1 128 0A64 64 0 1 1 0 416zm248 0a24 24 0 1 0 -48 0 24 24 0 1 0 48 0zm-88 0a64 64 0 1 1 128 0 64 64 0 1 1 -128 0zM64 192a64 64 0 1 1 0 128 64 64 0 1 1 0-128zM224 32a64 64 0 1 1 0 128 64 64 0 1 1 0-128zM352 96a64 64 0 1 1 128 0A64 64 0 1 1 352 96zm248 0a24 24 0 1 0 -48 0 24 24 0 1 0 48 0zm-88 0a64 64 0 1 1 128 0A64 64 0 1 1 512 96zm64 184a24 24 0 1 0 0-48 24 24 0 1 0 0 48zm0-88a64 64 0 1 1 0 128 64 64 0 1 1 0-128zm24 224a24 24 0 1 0 -48 0 24 24 0 1 0 48 0zm-88 0a64 64 0 1 1 128 0 64 64 0 1 1 -128 0zM416 280a24 24 0 1 0 0-48 24 24 0 1 0 0 48zm0-88a64 64 0 1 1 0 128 64 64 0 1 1 0-128zm24 224a24 24 0 1 0 -48 0 24 24 0 1 0 48 0zm-88 0a64 64 0 1 1 128 0 64 64 0 1 1 -128 0z"/></svg>