<svg xmlns="http://www.w3.org/2000/svg" viewBox="0 0 576 512"><!--! Font Awesome Pro 6.6.0 by @fontawesome - https://fontawesome.com License - https://fontawesome.com/license (Commercial License) Copyright 2024 Fonticons, Inc. --><path d="M24 32L0 32 0 80l24 0 48 0 0 64-48 0L0 144l0 48 24 0 48 0 48 0 80 0 48 0 304 0 24 0 0-48-24 0-48 0 0-64 40 0 24 0 0-48-24 0L24 32zM456 80l0 64-80 0 0-64 80 0zM328 80l0 64-80 0 0-64 80 0zM200 80l0 64-80 0 0-64 80 0zM24 240L0 240l0 48 24 0c26.5 0 48 21.5 48 48l0 120 0 24 24 0 96 0 24 0 0-24 0-96c0-39.8 32.2-72 72-72s72 32.2 72 72l0 96 0 24 24 0 96 0 24 0 0-24 0-120c0-26.5 21.5-48 48-48l24 0 0-48-24 0c-53 0-96 43-96 96l0 96-48 0 0-72c0-66.3-53.7-120-120-120s-120 53.7-120 120l0 72-48 0 0-96c0-53-43-96-96-96z"/></svg>