<svg xmlns="http://www.w3.org/2000/svg" viewBox="0 0 576 512"><!--! Font Awesome Pro 6.6.0 by @fontawesome - https://fontawesome.com License - https://fontawesome.com/license (Commercial License) Copyright 2024 Fonticons, Inc. --><path d="M194.2 41.9l-29.7 65.5c10.2 7.1 18.2 17 22.9 28.6l15.4 0 2.3-18.9 2.9-23.8L255.5 99l-2.9 23.8-4.8 40L245.3 184 224 184l-32 0 0 23.3 37.8 9.5 16.1 4 1.9 16.5 6.4 56 2.7 23.8-47.7 5.4-2.7-23.8L202 259.3l-17.9-4.5C173.3 274.6 152.2 288 128 288s-45.3-13.4-56.1-33.2L54 259.3l-4.5 39.5-2.7 23.8L-1 317.1l2.7-23.8 6.4-56L10 220.8l16.1-4L64 207.3 64 184l-32 0-21.5 0L8.2 162.7l-4.5-40L1 98.8l47.7-5.3 2.7 23.9L53.5 136l15.2 0c4.7-11.6 12.7-21.5 22.9-28.6L61.8 41.9 51.9 20.1 95.6 .2l9.9 21.9L128 71.7l22.5-49.6L160.4 .2l43.7 19.8-9.9 21.9zM553.6 239.5l-65.6 47c5.3 11.2 7.2 23.8 5.5 36.2l14.7 8.5 13.9-15.9 15.8-18L574 329l-15.8 18-26.9 30.6-13 14.8-17-9.8-27.7-16-11.6 20.1 28 27.1L501 424.5 495.8 439 478.6 488l-8 22.6-45.3-15.9 8-22.6 12.1-34.4-14.2-13.7c-19.3 11.7-44.3 12.8-65.2 .7s-32.5-34.3-32-56.8l-18.2-5.2-25 31.8-14.8 18.9-37.8-29.6 14.8-18.9 34.9-44.5 10-12.7 15.5 4.4L351 322.7l11.6-20.1-27.7-16-17-9.8 6.3-18.6 13.1-38.6 7.7-22.7 45.5 15.4-7.7 22.7-6.8 20 14.7 8.5c9.9-7.7 21.8-12.3 34.1-13.3l7.8-80.3 2.3-23.9 47.8 4.7-2.3 23.9-6.1 62.9 51.4-36.8 19.5-14 27.9 39-19.5 14zM144 224l0-64c0-8.8-7.2-16-16-16s-16 7.2-16 16l0 64c0 8.8 7.2 16 16 16s16-7.2 16-16zM411.9 377.2l32-55.4c4.4-7.7 1.8-17.4-5.9-21.9s-17.4-1.8-21.9 5.9l-32 55.4c-4.4 7.7-1.8 17.4 5.9 21.9s17.4 1.8 21.9-5.9z"/></svg>