<svg xmlns="http://www.w3.org/2000/svg" viewBox="0 0 512 512"><!--! Font Awesome Pro 6.6.0 by @fontawesome - https://fontawesome.com License - https://fontawesome.com/license (Commercial License) Copyright 2024 Fonticons, Inc. --><path d="M464 48l0 416-192 0 0-416 192 0zM272 0L224 0l0 48 0 416 0 48 48 0 192 0 48 0 0-48 0-416 0-48L464 0 272 0zM192 128L24 128 0 128l0 24L0 488l0 24 24 0 168 0 0-48L48 464l0-288 144 0 0-48zM160 320l-64 0 0 64 64 0 0-64zm176 32l64 0 0-64-64 0 0 64zM160 224l-64 0 0 64 64 0 0-64zM336 96l0 64 64 0 0-64-64 0zm64 160l0-64-64 0 0 64 64 0z"/></svg>