<svg xmlns="http://www.w3.org/2000/svg" viewBox="0 0 512 512"><!--! Font Awesome Pro 6.6.0 by @fontawesome - https://fontawesome.com License - https://fontawesome.com/license (Commercial License) Copyright 2024 Fonticons, Inc. --><path d="M256 464c114.9 0 208-93.1 208-208s-93.1-208-208-208S48 141.1 48 256c0 5.5 .2 10.9 .6 16.3L1.8 286.1C.6 276.2 0 266.2 0 256C0 114.6 114.6 0 256 0S512 114.6 512 256s-114.6 256-256 256c-10.2 0-20.2-.6-30.1-1.8l13.8-46.9c5.4 .4 10.8 .6 16.3 .6zm-2.4-48l14.3-48.6C324.2 361.4 368 313.8 368 256c0-61.9-50.1-112-112-112c-57.8 0-105.4 43.8-111.4 100.1L96 258.4c0-.8 0-1.6 0-2.4c0-88.4 71.6-160 160-160s160 71.6 160 160s-71.6 160-160 160c-.8 0-1.6 0-2.4 0zM0 320l272-80L192 512l-48-96-1.4-1.4-96 96L1.4 465.4l96-96L96 368 0 320z"/></svg>