<svg xmlns="http://www.w3.org/2000/svg" viewBox="0 0 640 512"><!--! Font Awesome Pro 6.6.0 by @fontawesome - https://fontawesome.com License - https://fontawesome.com/license (Commercial License) Copyright 2024 Fonticons, Inc. --><path d="M48.4 14.8L29.4 .1 0 38 19 52.7 591.5 497.2l19 14.7L639.9 474l-19-14.7L576 424.4 576 144l0-48-48 0-90.7 0L416 32 224 32 202.7 96 153 96 48.4 14.8zM214.8 144l22.5 0 10.9-32.8L258.6 80l122.8 0 10.4 31.2L402.7 144l34.6 0 90.7 0 0 243.2-98.3-76.3c1.5-7.4 2.3-15 2.3-22.8c0-61.9-50.1-112-112-112c-17.7 0-34.4 4.1-49.3 11.4L214.8 144zM382.5 274.2L317.9 224c.7 0 1.4 0 2.1 0c30.6 0 56.2 21.5 62.5 50.2zM370.6 388l-45.9-36.1c-1.6 .1-3.1 .2-4.7 .2c-31.8 0-58.2-23.2-63.2-53.6L211 262.2c-1.9 8.3-3 16.9-3 25.8c0 61.9 50.1 112 112 112c18.2 0 35.4-4.3 50.6-12zM112 432l0-247.8L64 146.4 64 432l0 48 48 0 375.4 0-60.9-48L112 432z"/></svg>