<svg xmlns="http://www.w3.org/2000/svg" viewBox="0 0 512 512"><!--! Font Awesome Pro 6.6.0 by @fontawesome - https://fontawesome.com License - https://fontawesome.com/license (Commercial License) Copyright 2024 Fonticons, Inc. --><path d="M228.4 0C189.6 24.2 112 93.1 112 174.5C112 254.9 177.1 320 257.5 320s145.5-65.1 145.5-145.5c0-24.2-17.5-87.3-87.3-145.5L286.5 58.2 228.4 0zm87.3 218.3c0 32.1-26 58.2-58.2 58.2s-58.2-26-58.2-58.2c0-43.6 58.2-87.3 58.2-87.3s58.2 43.6 58.2 87.3zM40.1 297.4l-22.6-8.1L1.3 334.5l22.6 8.1L184.6 400 23.9 457.4 1.3 465.5l16.1 45.2 22.6-8.1L256 425.5l215.9 77.1 22.6 8.1 16.1-45.2-22.6-8.1L327.4 400l160.7-57.4 22.6-8.1-16.1-45.2-22.6 8.1L256 374.5 40.1 297.4z"/></svg>