<svg xmlns="http://www.w3.org/2000/svg" viewBox="0 0 640 512"><!--! Font Awesome Pro 6.6.0 by @fontawesome - https://fontawesome.com License - https://fontawesome.com/license (Commercial License) Copyright 2024 Fonticons, Inc. --><path d="M128 32l-16.2 0-6 15.1L47.8 192 0 192l0 48L0 352l0 48 48 0 17.3 0c7.6 45.4 47.1 80 94.7 80s87.1-34.6 94.7-80l130.7 0c7.6 45.4 47.1 80 94.7 80s87.1-34.6 94.7-80l17.3 0 48 0 0-48 0-112 0-48-48 0-68.5 0L402.7 41l-7.2-9L384 32 128 32zM434.7 368a48 48 0 1 1 90.5 32 48 48 0 1 1 -90.5-32zm135.8-16c-13.2-37.3-48.7-64-90.5-64s-77.4 26.7-90.5 64l-138.9 0c-13.2-37.3-48.7-64-90.5-64s-77.4 26.7-90.5 64L48 352l0-112 80 0 0-48-28.6 0L144.2 80l228.2 0 89.6 112L432 192l0 48 160 0 0 112-21.5 0zM160 336a48 48 0 1 1 0 96 48 48 0 1 1 0-96zm32-112l88 0-24 96L384 192l-88 0 24-96L192 224z"/></svg>