<svg xmlns="http://www.w3.org/2000/svg" viewBox="0 0 640 512"><!--! Font Awesome Pro 6.6.0 by @fontawesome - https://fontawesome.com License - https://fontawesome.com/license (Commercial License) Copyright 2024 Fonticons, Inc. --><path d="M69.5 79.4L85.9 75 338.7 7.3l16-4.3 9.7 13.4 73.1 100.8 2.5-.7 46.4-12.4 12.4 46.4L529.8 266l12.4 46.4s0 0 0 0l19.9 74.4-44.6 12-19.9-74.4-1.7 .5L112.6 427.4l-1.7 .5 9.7 36.1L616 464l24 0 0 48-24 0L94.4 512l-8.2 2.2-.6-2.2L24 512 0 512l0-48 24 0 48.7 0-6.5-24.2L60 416.5l-6.2-23.1L22.9 278 10.4 231.6l46.4-12.4 1.7-.5L68.2 96.3l1.3-16.9zM335.2 57.9L114.7 117l-7 88.6 280.1-75.1L335.2 57.9zM69.2 265.6l30.9 115.5L483.4 278.4 452.4 162.9 69.2 265.6zm43.5 50.2a30.8 30.8 0 1 1 59.5-15.9 30.8 30.8 0 1 1 -59.5 15.9zM402.2 206.4a30.8 30.8 0 1 1 15.9 59.5 30.8 30.8 0 1 1 -15.9-59.5z"/></svg>