<svg xmlns="http://www.w3.org/2000/svg" viewBox="0 0 576 512"><!--! Font Awesome Pro 6.6.0 by @fontawesome - https://fontawesome.com License - https://fontawesome.com/license (Commercial License) Copyright 2024 Fonticons, Inc. --><path d="M152 32l-17.3 0-5.5 16.4L86.7 176 80 176l-48 0L0 176l0 48 32 0 0 128 0 48 0 80 48 0 0-80 416 0 0 80 48 0 0-80 0-48 0-128 32 0 0-48-32 0-48 0-6.7 0L446.8 48.4 441.3 32 424 32 152 32zM480 224l16 0 0 128L80 352l0-128 16 0 384 0zm-41.3-48l-301.4 0 32-96 237.4 0 32 96zM176 288a32 32 0 1 0 -64 0 32 32 0 1 0 64 0zm256 32a32 32 0 1 0 0-64 32 32 0 1 0 0 64z"/></svg>