<svg xmlns="http://www.w3.org/2000/svg" viewBox="0 0 512 512"><!--! Font Awesome Pro 6.6.0 by @fontawesome - https://fontawesome.com License - https://fontawesome.com/license (Commercial License) Copyright 2024 Fonticons, Inc. --><path d="M102.7 32L120 32l272 0 17.3 0 5.5 16.4L457.3 176l6.7 0 48 0 0 48 0 128 0 48-32 0 0 80-48 0 0-80L80 400l0 80-48 0 0-80L0 400l0-48L0 224l0-48 48 0 6.7 0L97.2 48.4 102.7 32zm272 48L137.3 80l-32 96 301.4 0-32-96zM48 224l0 32 80 0 0 48-80 0 0 48 144 0 0-64 128 0 0 64 144 0 0-48-80 0 0-48 80 0 0-32L48 224z"/></svg>