<svg xmlns="http://www.w3.org/2000/svg" viewBox="0 0 640 512"><!--! Font Awesome Pro 6.6.0 by @fontawesome - https://fontawesome.com License - https://fontawesome.com/license (Commercial License) Copyright 2024 Fonticons, Inc. --><path d="M64 0L88 0l72 0 19.9 0 3.7 19.5L186 32l403.8 0L640 32 625 80 560 288l-325.3 0 9.1 48L552 336l24 0 0 48-24 0-328 0-19.9 0-3.7-19.5L140.1 48 88 48 64 48 64 0zM195.1 80l30.5 160 299.1 0 50-160L195.1 80zM192 464a48 48 0 1 1 96 0 48 48 0 1 1 -96 0zm336-48a48 48 0 1 1 0 96 48 48 0 1 1 0-96zM24 96l80 0 24 0 0 48-24 0-80 0L0 144 0 96l24 0zm0 80l96 0 24 0 0 48-24 0-96 0L0 224l0-48 24 0zm0 80l112 0 24 0 0 48-24 0L24 304 0 304l0-48 24 0z"/></svg>