<svg xmlns="http://www.w3.org/2000/svg" viewBox="0 0 640 512"><!--! Font Awesome Pro 6.6.0 by @fontawesome - https://fontawesome.com License - https://fontawesome.com/license (Commercial License) Copyright 2024 Fonticons, Inc. --><path d="M129.5 194.9c-19.2 36.5-1.8 81.5 36.9 95.6s81-9.2 89.7-49.5l7.6-34.9L146.2 163.3l-16.6 31.6zM274 158.8l14.6-67.4-87.8-32-32.1 61L274 158.8zM87 172.6L177.9 0 320 51.7 462.1 0 553 172.6c28.9 54.9 9.2 121.2-41.3 152.5l35.6 97.7L601 403.3l22.6-8.2L640 440.2l-22.6 8.2-76.3 27.8-76.3 27.8-22.6 8.2L425.8 467l22.6-8.2 53.8-19.6-35.6-97.7c-58.8 8.4-116.5-29.7-129.7-90.3L320 173.2l-16.9 77.9c-13.2 60.7-70.9 98.8-129.7 90.3l-35.6 97.7 53.8 19.6 22.6 8.2-16.4 45.1-22.6-8.2L98.9 476.1 22.6 448.4 0 440.2 16.4 395 39 403.3l53.8 19.6 35.6-97.7C77.9 293.8 58.1 227.5 87 172.6zm423.4 22.4l-16.6-31.6L376.2 206.1l7.6 34.9c8.7 40.3 51 63.6 89.7 49.5s56.1-59.1 36.9-95.6zM366 158.8l105.3-38.3-32.1-61-87.8 32L366 158.8z"/></svg>