<svg xmlns="http://www.w3.org/2000/svg" viewBox="0 0 640 512"><!--! Font Awesome Pro 6.6.0 by @fontawesome - https://fontawesome.com License - https://fontawesome.com/license (Commercial License) Copyright 2024 Fonticons, Inc. --><path d="M496 192c-46.8 0-89.3 18.2-120.8 48L272 240 272 .6c5.3-.4 10.6-.6 16-.6C401 0 494.5 83.7 509.8 192.5c-4.6-.4-9.2-.5-13.8-.5zM272 288l67.2 0c-7.6 14.9-13.2 31-16.3 48L224 336l-48 0 0-48 0-197.1C101.4 117.3 48 188.4 48 272c0 106 86 192 192 192c34.5 0 66.9-9.1 94.9-25c6.5 14.8 15 28.6 25.2 40.9C324.8 500.3 283.8 512 240 512C107.5 512 0 404.6 0 272C0 161.6 74.5 68.6 176 40.6c15.4-4.3 31.5-7 48-8.1l0 48.1L224 240l0 48 48 0zm80 80a144 144 0 1 1 288 0 144 144 0 1 1 -288 0zm118.6-25.4a35.9 35.9 0 1 1 50.7 50.7 35.9 35.9 0 1 1 -50.7-50.7zM531.3 426l25.3 25.3 22.6-22.6L554 403.3c13.2-21.6 13.2-49.1 0-70.7l25.3-25.3-22.6-22.6L531.3 310c-21.6-13.2-49.1-13.2-70.7 0l-25.3-25.3-22.6 22.6L438 332.7c-13.2 21.6-13.2 49.1 0 70.7l-25.3 25.3 22.6 22.6L460.7 426c21.6 13.2 49.1 13.2 70.7 0z"/></svg>