<svg xmlns="http://www.w3.org/2000/svg" viewBox="0 0 576 512"><!--! Font Awesome Pro 6.6.0 by @fontawesome - https://fontawesome.com License - https://fontawesome.com/license (Commercial License) Copyright 2024 Fonticons, Inc. --><path d="M541.7 192c.8 5.3 1.3 10.6 1.7 16c.4 5.3 .6 10.6 .6 16s-.2 10.7-.6 16L352 240l-48 0 0-48L304 .6c5.3-.4 10.6-.6 16-.6s10.7 .2 16 .6c5.4 .4 10.7 1 16 1.7c98.1 14 175.7 91.6 189.7 189.7zM352 50.9L352 192l141.1 0C480 120.5 423.5 64 352 50.9zm-144 257l0-19.9 0-197.1C133.4 117.3 80 188.4 80 272c0 106 86 192 192 192c27.2 0 53-5.6 76.4-15.8L222.1 321.9 208 307.9zM390.8 422.8L425 457c-12.5 10.4-26.2 19.5-40.7 27.2C350.8 501.9 312.6 512 272 512C139.5 512 32 404.6 32 272C32 161.6 106.5 68.6 208 40.6c15.4-4.3 31.5-7 48-8.1l0 48.1L256 288 390.8 422.8zM320 288l255.5 0C571 355.9 538.3 416.1 489 457L320 288z"/></svg>