<svg xmlns="http://www.w3.org/2000/svg" viewBox="0 0 512 512"><!--! Font Awesome Pro 6.6.0 by @fontawesome - https://fontawesome.com License - https://fontawesome.com/license (Commercial License) Copyright 2024 Fonticons, Inc. --><path d="M288 32l0 24 0 8 176 0 48 0 0 48 0 64 0 48-48 0-176 0 0 8 0 24-48 0 0-24 0-8L48 224 0 224l0-48 0-64L0 64l48 0 192 0 0-8 0-24 48 0zM160 112l0 64 80 0 0-64-80 0zm128 0l0 64 176 0 0-64-176 0zm-176 0l-64 0 0 64 64 0 0-64zM384 256l0 24 0 8 80 0 48 0 0 48 0 64 0 48-48 0-80 0 0 8 0 24-48 0 0-24 0-8L48 448 0 448l0-48 0-64 0-48 48 0 288 0 0-8 0-24 48 0zM224 336l0 64 112 0 0-64-112 0zm160 0l0 64 80 0 0-64-80 0zm-208 0L48 336l0 64 128 0 0-64z"/></svg>