<svg xmlns="http://www.w3.org/2000/svg" viewBox="0 0 512 512"><!--! Font Awesome Pro 6.6.0 by @fontawesome - https://fontawesome.com License - https://fontawesome.com/license (Commercial License) Copyright 2024 Fonticons, Inc. --><path d="M176 80l0 112L48 192 48 80l128 0zM48 32L0 32 0 80 0 192l0 48 48 0 128 0 48 0 0-48 0-112 0-48-48 0L48 32zM176 320l0 112L48 432l0-112 128 0zM48 272L0 272l0 48L0 432l0 48 48 0 128 0 48 0 0-48 0-112 0-48-48 0L48 272zM304 80l160 0 0 32-160 0 0-32zM256 32l0 48 0 32 0 48 48 0 160 0 48 0 0-48 0-32 0-48-48 0L304 32l-48 0zM464 240l0 32-160 0 0-32 160 0zM304 192l-48 0 0 48 0 32 0 48 48 0 160 0 48 0 0-48 0-32 0-48-48 0-160 0zm0 208l160 0 0 32-160 0 0-32zm-48-48l0 48 0 32 0 48 48 0 160 0 48 0 0-48 0-32 0-48-48 0-160 0-48 0z"/></svg>