<svg xmlns="http://www.w3.org/2000/svg" viewBox="0 0 512 512"><!--! Font Awesome Pro 6.6.0 by @fontawesome - https://fontawesome.com License - https://fontawesome.com/license (Commercial License) Copyright 2024 Fonticons, Inc. --><path d="M256 48a208 208 0 1 1 0 416 208 208 0 1 1 0-416zm0 464A256 256 0 1 0 256 0a256 256 0 1 0 0 512zm0-368l0-24-48 0 0 24 0 224 0 24 48 0 0-24 0-224zm80 56l0-24-48 0 0 24 0 112 0 24 48 0 0-24 0-112zM176 216l0-24-48 0 0 24 0 80 0 24 48 0 0-24 0-80zm240 24l0-24-48 0 0 24 0 32 0 24 48 0 0-24 0-32z"/></svg>