<svg xmlns="http://www.w3.org/2000/svg" viewBox="0 0 384 512"><!--! Font Awesome Pro 6.6.0 by @fontawesome - https://fontawesome.com License - https://fontawesome.com/license (Commercial License) Copyright 2024 Fonticons, Inc. --><path d="M336 64l-32 0-33.6 0C263 27.5 230.7 0 192 0s-71 27.5-78.4 64L80 64 48 64 0 64l0 48L0 464l0 48 48 0 288 0 48 0 0-48 0-352 0-48-48 0zM80 112l0 48 112 0 112 0 0-48 32 0 0 352L48 464l0-352 32 0zm88-32a24 24 0 1 1 48 0 24 24 0 1 1 -48 0zM104 204l-20 0 0 20 0 80 0 80 40 0 0-60 35.7 0 52 52-25.9 25.9L171.7 416 200 444.3l14.1-14.1L240 404.3l25.9 25.9L280 444.3 308.3 416l-14.1-14.1L268.3 376l25.9-25.9L308.3 336 280 307.7l-14.1 14.1L240 347.7l-32.6-32.6C224.6 304.6 236 285.6 236 264c0-33.1-26.9-60-60-60l-72 0zm72 80l-8 0-44 0 0-40 52 0c11 0 20 9 20 20s-9 20-20 20z"/></svg>