<svg xmlns="http://www.w3.org/2000/svg" viewBox="0 0 640 512"><!--! Font Awesome Pro 6.6.0 by @fontawesome - https://fontawesome.com License - https://fontawesome.com/license (Commercial License) Copyright 2024 Fonticons, Inc. --><path d="M121.3 0L104 104 0 121.3 60.7 208 0 294.7 104 312l17.3 104L160 388.9l0-97.8c-28.7-16.6-48-47.6-48-83.2c0-53 43-96 96-96c18.4 0 35.6 5.2 50.2 14.1c11.9-19.9 29.1-36.2 49.6-47.2L294.7 0 208 60.7 121.3 0zM294.5 415.9l.1 .1L248 416l-64 96 56 0 64-96-9.3 0c0 0 0-.1 0-.1l-.2 0zM242.1 168.4c.8-4.3 1.8-8.5 3-12.6C234.7 148.4 221.8 144 208 144c-35.3 0-64 28.7-64 64c0 18.5 7.8 35.1 20.3 46.8c10.6-39.7 39.9-71.8 77.8-86.4zM320.6 192c0-26.5 21.5-48 48-48s48 21.5 48 48l0 13.9 48 .9c.6-17.1 14.7-30.8 32-30.8c17.7 0 32 14.3 32 32l0 40 0 24 24 0 7.4 0c17.7 0 32 14.3 32 32l0 32-32 0-7.4 0-24 0c0 0 0 0 0 0l-88 0c0 0 0 0 0 0l-136.1 0c0 0 0 0 0 0l-31.8 0L240 336l0-48c0-26.5 21.5-48 48-48l8.6 0 24 0 0-24 0-24zm256 192c0 0 0 0 0 0l39.4 0 24 0 0-24 0-56c0-38.5-27.2-70.7-63.4-78.3l0-17.7c0-44.2-35.8-80-80-80c-17 0-32.8 5.3-45.8 14.4C434 114.6 403.4 96 368.6 96c-53 0-96 43-96 96l0 1.2c-45.7 7.4-80.6 47-80.6 94.8l0 72 0 24 24 0 24.8 0c0 0 0 0 0 0l31.8 0 24 0 144 0c0 0 0 0 0 0l112 0 24 0zM344 416l-64 96 56 0 64-96-56 0zm152 0l-56 0-64 96 56 0 64-96zm40 0l-64 96 56 0 64-96-56 0z"/></svg>