<svg xmlns="http://www.w3.org/2000/svg" viewBox="0 0 512 512"><!--! Font Awesome Pro 6.6.0 by @fontawesome - https://fontawesome.com License - https://fontawesome.com/license (Commercial License) Copyright 2024 Fonticons, Inc. --><path d="M101.9 387.7l10.8-28.9L90.9 336.9C63 308.9 48 275.1 48 240c0-79.5 83.3-160 208-160s208 80.5 208 160s-83.3 160-208 160c-26.8 0-52.3-3.9-75.7-11l-13.9-4.2-13.9 4.2L94.9 406.2l7-18.5zM16 480l57.8-17.3 92.6-27.8c27.9 8.5 58.1 13.1 89.6 13.1c141.4 0 256-93.1 256-208S397.4 32 256 32S0 125.1 0 240c0 49.6 21.3 95.1 56.9 130.8L37.2 423.5 16 480zM168 168l0 6.5 48 0 0-6.5c0-4.4 3.6-8 8-8l56.9 0c8.4 0 15.1 6.8 15.1 15.1c0 5.4-2.9 10.4-7.6 13.1l-44.3 25.4L232 220.6l0 13.9 0 21.5 0 24 48 0 0-24 0-7.6 32.3-18.5c19.6-11.3 31.7-32.2 31.7-54.8c0-34.9-28.3-63.1-63.1-63.1L224 112c-30.9 0-56 25.1-56 56zm64 200l48 0 0-48-48 0 0 48z"/></svg>