<svg xmlns="http://www.w3.org/2000/svg" viewBox="0 0 640 512"><!--! Font Awesome Pro 6.6.0 by @fontawesome - https://fontawesome.com License - https://fontawesome.com/license (Commercial License) Copyright 2024 Fonticons, Inc. --><path d="M96.7 271.5l-11 27.4-7.1 17.6 70-16.2 10.1-2.3 10.2 2.1c12.4 2.5 25.5 3.9 39 3.9c96.2 0 160-64.5 160-128s-63.8-128-160-128S48 112.5 48 176c0 26.5 10.2 51.8 29.2 73.4l19.5 22.2zM57 370.9L0 384l21.7-54.3 19.4-48.6C15.3 251.8 0 215.4 0 176C0 78.8 93.1 0 208 0S416 78.8 416 176s-93.1 176-208 176c-16.7 0-32.9-1.7-48.5-4.8L57 370.9zm188.2 10.6c17.2-2.4 34-6.3 50-11.8C322 405.5 370.3 432 432 432c13.5 0 26.6-1.3 39-3.9l10.2-2.1 10.1 2.3 70.1 16.2-7.1-17.6-11-27.4 19.5-22.2c19-21.5 29.2-46.9 29.2-73.4c0-59.9-56.8-120.7-144-127.4l0-.6c0-16.6-2.2-32.6-6.2-47.8C552.1 132.5 640 209.6 640 304c0 39.4-15.3 75.8-41.2 105.1l19.4 48.6L640 512l-57-13.1L480.5 475.2c-15.6 3.1-31.8 4.8-48.5 4.8c-82 0-153-40.2-186.8-98.5zM224 90.7l0 7c5.8 1 16.2 3 20.5 4.2l15.5 4.1-8.1 30.9-15.5-4.1c-3.6-.9-15.8-3.3-19.8-3.9c-11.3-1.8-20.8-.3-27 2.5c-6.2 2.8-8.1 6.1-8.5 8.5c-.6 3.3 0 4.8 .3 5.4c.4 .8 1.3 2.1 3.9 3.9c5.8 3.9 14.9 6.7 27.5 10.4l.6 .2c11 3.3 25.2 7.5 35.9 15.2c5.8 4.2 11.2 9.8 14.6 17.4c3.4 7.8 4.1 16.3 2.6 25.3c-2.9 16.3-13.8 27.3-27.4 33.1c-4.7 2-9.8 3.4-15.1 4.2l0 6.4 0 16-32 0 0-16 0-7.1c-8.6-1.7-20.5-5.8-28.1-8.4c0 0 0 0 0 0s0 0 0 0c-1.6-.5-2.9-1-4.1-1.4l-15.2-5 10-30.4 15.2 5c1.8 .6 3.7 1.2 5.6 1.9c8.6 2.9 18.5 6.2 24.1 7.1c11.8 1.8 21.1 .7 27.1-1.8c5.5-2.3 7.6-5.4 8.3-9.1c.7-3.8 .1-5.8-.3-6.8c-.5-1.1-1.5-2.6-4-4.3c-5.6-4-14.5-7-27-10.7l-1.9-.6c-10.6-3.2-24.1-7.2-34.3-14c-5.8-3.9-11.4-9.2-14.9-16.6c-3.6-7.6-4.5-16-2.9-24.8c2.7-15.6 13.9-26.4 26.9-32.2c4.8-2.1 10-3.7 15.5-4.7l0-6.8 0-16 32 0 0 16z"/></svg>