<svg xmlns="http://www.w3.org/2000/svg" viewBox="0 0 512 512"><!--! Font Awesome Pro 6.6.0 by @fontawesome - https://fontawesome.com License - https://fontawesome.com/license (Commercial License) Copyright 2024 Fonticons, Inc. --><path d="M101.9 387.7l10.8-28.9L90.9 336.9C63 308.9 48 275.1 48 240c0-79.5 83.3-160 208-160s208 80.5 208 160s-83.3 160-208 160c-26.8 0-52.3-3.9-75.7-11l-13.9-4.2-13.9 4.2L94.9 406.2l7-18.5zM16 480l57.8-17.3 92.6-27.8c27.9 8.5 58.1 13.1 89.6 13.1c141.4 0 256-93.1 256-208S397.4 32 256 32S0 125.1 0 240c0 49.6 21.3 95.1 56.9 130.8L37.2 423.5 16 480zM304.8 144l-29.1 29.1L323 220.4l29.1-29.1L304.8 144zm-51.7 51.7l-85.2 85.2L160 336.1l55.3-7.9L300.4 243l-47.3-47.3z"/></svg>