<svg xmlns="http://www.w3.org/2000/svg" viewBox="0 0 512 512"><!--! Font Awesome Pro 6.6.0 by @fontawesome - https://fontawesome.com License - https://fontawesome.com/license (Commercial License) Copyright 2024 Fonticons, Inc. --><path d="M118 121.7L66 229.1 86.6 346.8 172 429.7l117.3 16.6 104.7-56L446 282.9 425.4 165.2 340 82.3 222.7 65.7 118 121.7zM213.9 16L362.2 37 470 141.6l26 148.3L430.3 425.3 298.1 496 149.8 475 42 370.4 16 222.1 81.7 86.7 213.9 16zM320 160l-32-32 32-32 32 32-32 32zM128 192l32-32 32 32-32 32-32-32zm160 96l-32-32 32-32 32 32-32 32zm-96 96l-32-32 32-32 32 32-32 32zm128-32l32-32 32 32-32 32-32-32z"/></svg>