<svg xmlns="http://www.w3.org/2000/svg" viewBox="0 0 512 512"><!--! Font Awesome Pro 6.6.0 by @fontawesome - https://fontawesome.com License - https://fontawesome.com/license (Commercial License) Copyright 2024 Fonticons, Inc. --><path d="M256 48a208 208 0 1 1 0 416 208 208 0 1 1 0-416zm0 464A256 256 0 1 0 256 0a256 256 0 1 0 0 512zM176 256c0-44.2 35.8-80 80-80c28.7 0 53.8 15.1 68 37.8l40.8-25.4C342.2 152.2 301.9 128 256 128c-70.7 0-128 57.3-128 128s57.3 128 128 128c45.9 0 86.2-24.2 108.7-60.5L324 298.2c-14.2 22.8-39.3 37.8-68 37.8c-44.2 0-80-35.8-80-80z"/></svg>