<svg xmlns="http://www.w3.org/2000/svg" viewBox="0 0 512 512"><!--! Font Awesome Pro 6.6.0 by @fontawesome - https://fontawesome.com License - https://fontawesome.com/license (Commercial License) Copyright 2024 Fonticons, Inc. --><path d="M128 0C57.3 0 0 57.3 0 128l0 64 0 15.4 13.9 6.4 85 39.2c-2.2 3.6-4.2 7.2-6 11l-29.6 0-18-12-20-13.3L-1.3 278.7l20 13.3 24 16 6 4 7.3 0 24.2 0c-.2 2.6-.2 5.3-.2 8l0 1.4-23.6 7.9L51 331l-4 4L23 359l-17 17L40 409.9l17-17 20-20 30-10L125 381 88.4 393.2 83 395l-4 4L47 431l-17 17L64 481.9l17-17 28-28 54-18 2.2 2.2L140.3 435 128 441.9l0 14.1 0 32 0 24 48 0 0-24 0-17.9L214.1 449l-.5-1 85 0-.5 1L336 470.1l0 17.9 0 24 48 0 0-24 0-32 0-14.1L371.7 435l-24.9-13.8L349 419l54 18 28 28 17 17L481.9 448l-17-17-32-32-4-4-5.4-1.8L387 381 405 363l30 10 20 20 17 17L505.9 376l-17-17-24-24-4-4-5.4-1.8L432 321.4l0-1.4c0-2.7-.1-5.4-.2-8l24.2 0 7.3 0 6-4 24-16 20-13.3-26.6-39.9-20 13.3-18 12-29.6 0c-1.8-3.8-3.9-7.4-6-11l85-39.2 13.9-6.4 0-15.4 0-64C512 57.3 454.7 0 384 0L320 0l64 64-64 0c0 35.3 28.7 64 64 64l80 0 0 48.6L378.7 216c-16.9-12.2-37-20.3-58.7-23l0-41 0-24-48 0 0 24 0 40-32 0 0-40 0-24-48 0 0 24 0 41c-21.7 2.7-41.7 10.9-58.7 23L48 176.6 48 128l80 0c35.3 0 64-28.7 64-64l-64 0L192 0 128 0zM272 240l32 0c42.9 0 77.9 33.8 79.9 76.2L300.1 400l-88.2 0-83.8-83.8c2-42.4 37-76.2 79.9-76.2l32 0 32 0z"/></svg>