<svg xmlns="http://www.w3.org/2000/svg" viewBox="0 0 512 512"><!--! Font Awesome Pro 6.6.0 by @fontawesome - https://fontawesome.com License - https://fontawesome.com/license (Commercial License) Copyright 2024 Fonticons, Inc. --><path d="M160 54.9l0 9.1 9.1 0C199.4 64 224 39.4 224 9.1L224 0l-9.1 0C184.6 0 160 24.6 160 54.9zm192 0l0 9.1 9.1 0C391.4 64 416 39.4 416 9.1L416 0l-9.1 0C376.6 0 352 24.6 352 54.9zM160 98.3L96 80c-43.6 0-64 47.8-64 91.4c0 7 .4 13.9 1.2 20.6l48.5 0c-1.1-6.5-1.7-13.3-1.7-20.6c0-15.3 3.8-29 8.7-37.2c1.8-2.9 3.3-4.5 4.2-5.2l53.9 15.4 13.2 3.8 13.2-3.8L227.1 129c.9 .8 2.4 2.3 4.2 5.2c4.9 8.2 8.7 21.9 8.7 37.2c0 7.2-.6 14.1-1.7 20.6l48.5 0c.8-6.7 1.2-13.5 1.2-20.6c0-43.6-20.4-91.4-64-91.4L160 98.3zm320 73.1c0-43.6-20.4-91.4-64-91.4L352 98.3 291.4 81c3 3.8 5.8 7.7 8.3 11.8c8.4 13.8 13.9 29.5 17 45.4l22.1 6.3 13.2 3.8 13.2-3.8L419.1 129c.9 .8 2.4 2.3 4.2 5.2c4.9 8.2 8.7 21.9 8.7 37.2c0 7.2-.6 14.1-1.7 20.6l48.5 0c.8-6.7 1.2-13.5 1.2-20.6zM464 272l0 72L48 344l0-72 416 0zM48 464l0-72 416 0 0 72L48 464zm0-240L0 224l0 48L0 464l0 48 48 0 416 0 48 0 0-48 0-192 0-48-48 0L48 224zm368 96a16 16 0 1 0 0-32 16 16 0 1 0 0 32zm16 112a16 16 0 1 0 -32 0 16 16 0 1 0 32 0zM96 320a16 16 0 1 0 0-32 16 16 0 1 0 0 32zm16 112a16 16 0 1 0 -32 0 16 16 0 1 0 32 0z"/></svg>