<svg xmlns="http://www.w3.org/2000/svg" viewBox="0 0 384 512"><!--! Font Awesome Pro 6.6.0 by @fontawesome - https://fontawesome.com License - https://fontawesome.com/license (Commercial License) Copyright 2024 Fonticons, Inc. --><path d="M136 0L112 0l0 24 0 88-88 0L0 112l0 24L0 248l0 24 24 0 88 0 0 216 0 24 24 0 112 0 24 0 0-24 0-216 88 0 24 0 0-24 0-112 0-24-24 0-88 0 0-88 0-24L248 0 136 0zm24 136l0-88 64 0 0 88 0 24 24 0 88 0 0 64-88 0-24 0 0 24 0 216-64 0 0-216 0-24-24 0-88 0 0-64 88 0 24 0 0-24z"/></svg>