<svg xmlns="http://www.w3.org/2000/svg" viewBox="0 0 640 512"><!--! Font Awesome Pro 6.6.0 by @fontawesome - https://fontawesome.com License - https://fontawesome.com/license (Commercial License) Copyright 2024 Fonticons, Inc. --><path d="M374.8 408.7l85 85 17 17 33.9-33.9-17-17-63.4-63.4-55.5 12.3zM56 201.9L207.4 353.4l5.4-5.4 10.4-46.6L89.9 168 168 89.9l95.4 95.4 33.9-33.9L201.9 56l3.8-3.8 17-17L188.8 1.3l-17 17L18.2 171.8l-17 17 33.9 33.9 17-17 3.8-3.8zM451.2 1.3L417.3 35.2l17 17L587.8 205.8l17 17 33.9-33.9-17-17L468.2 18.2l-17-17zM415.4 78.6L279 215l-4.9 4.9-1.5 6.8L242.1 364l-95.9 95.9-17 17 33.9 33.9 17-17L276 397.9l137.2-30.5 6.8-1.5L425 361 561.4 224.6l-33.9-33.9L456 262.1 377.9 184l71.4-71.4L415.4 78.6zM344 217.9L422.1 296 396 322.1 295.6 344.4 317.9 244 344 217.9z"/></svg>