<svg xmlns="http://www.w3.org/2000/svg" viewBox="0 0 576 512"><!--! Font Awesome Pro 6.6.0 by @fontawesome - https://fontawesome.com License - https://fontawesome.com/license (Commercial License) Copyright 2024 Fonticons, Inc. --><path d="M144 80l0 96-96 0 0-96 96 0zM48 32L0 32 0 80l0 96 0 48 48 0 96 0 10 0 70 93.3 0 18.7 0 96 0 48 48 0 96 0 48 0 0-48 0-96 0-48-48 0-96 0-10 0-70-93.3 0-18.7 0-24 192 0 0 24 0 48 48 0 96 0 48 0 0-48 0-96 0-48-48 0-96 0-48 0 0 48 0 24-192 0 0-24 0-48-48 0L48 32zM368 336l0 96-96 0 0-96 96 0zM432 80l96 0 0 96-96 0 0-96z"/></svg>