<svg xmlns="http://www.w3.org/2000/svg" viewBox="0 0 640 512"><!--! Font Awesome Pro 6.6.0 by @fontawesome - https://fontawesome.com License - https://fontawesome.com/license (Commercial License) Copyright 2024 Fonticons, Inc. --><path d="M512 80l0 216 80 0 0-216-80 0zm-48 0l-64 0 0 88 64 0 0-88zM352 80l-64 0 0 216 64 0 0-216zM240 80l-64 0 0 88 64 0 0-88zM128 80L48 80l0 216 80 0 0-216zM48 344l0 88 248 0 0-88L48 344zm296 88l248 0 0-88-248 0 0 88zM0 32l48 0 544 0 48 0 0 48 0 352 0 48-48 0L48 480 0 480l0-48L0 80 0 32zM240 296l0-80-64 0 0 80 64 0zm224-80l-64 0 0 80 64 0 0-80z"/></svg>