<svg xmlns="http://www.w3.org/2000/svg" viewBox="0 0 512 512"><!--! Font Awesome Pro 6.6.0 by @fontawesome - https://fontawesome.com License - https://fontawesome.com/license (Commercial License) Copyright 2024 Fonticons, Inc. --><path d="M33.9 289.9L0 256l33.9-33.9L222.1 33.9 256 0l33.9 33.9L478.1 222.1 512 256l-33.9 33.9L289.9 478.1 256 512l-33.9-33.9L33.9 289.9zM67.9 256L256 444.1 444.1 256 256 67.9 67.9 256zM232 152l0-8 48 0 0 8 0 112 0 24-48 0 0-24 0-112zm48 216l-48 0 0-48 48 0 0 48z"/></svg>