<svg xmlns="http://www.w3.org/2000/svg" viewBox="0 0 512 512"><!--! Font Awesome Pro 6.6.0 by @fontawesome - https://fontawesome.com License - https://fontawesome.com/license (Commercial License) Copyright 2024 Fonticons, Inc. --><path d="M232 498.3L256 512l24-13.7L466.2 391.9 480 384l0-25.6 0-10.4 0-190.5 0-29.5-22.9-13.1L283.7 15.8 269.9 7.9 256 0 242.1 7.9l-13.8 7.9L54.9 114.9 32 128l0 29.5L32 348l0 10.4L32 384l13.8 7.9L232 498.3zm-74.4-97.8l74.4 5.7 0 36.8-74.4-42.5zM280 406.2l74.4-5.7L280 443l0-36.8zM432 268l-32-53.4 32-22.9 0 76.2zm-56.5-94.8L332.1 98.7l82 46.9-38.6 27.6zM179.9 98.7l-43.4 74.4L97.9 145.6l82-46.9zM112 214.7L80 268l0-76.2 32 22.9zM88.6 347l56-93.4L210 356.4 88.6 347zM302 356.4l65.4-102.7 56 93.4L302 356.4zm-46-17.1L187.7 232l136.6 0L256 339.3zM185.8 184L256 63.6 326.2 184l-140.4 0z"/></svg>