<svg xmlns="http://www.w3.org/2000/svg" viewBox="0 0 576 512"><!--! Font Awesome Pro 6.6.0 by @fontawesome - https://fontawesome.com License - https://fontawesome.com/license (Commercial License) Copyright 2024 Fonticons, Inc. --><path d="M528 48L48 48l0 320 480 0 0-320zM48 416L0 416l0-48L0 48 0 0 48 0 528 0l48 0 0 48 0 320 0 48-48 0-163.7 0 8 48 51.7 0 24 0 0 48-24 0-72 0-128 0-72 0-24 0 0-48 24 0 51.7 0 8-48L48 416zm212.3 0l-8 48 71.3 0-8-48-55.3 0zM376 96l80 0 24 0 0 24 0 80 0 24-48 0 0-24 0-22.1L321 289l-17 17-17-17-63-63-87 87L103 279 207 175l17-17 17 17 63 63L398.1 144 376 144l-24 0 0-48 24 0z"/></svg>