<svg xmlns="http://www.w3.org/2000/svg" viewBox="0 0 640 512"><!--! Font Awesome Pro 6.6.0 by @fontawesome - https://fontawesome.com License - https://fontawesome.com/license (Commercial License) Copyright 2024 Fonticons, Inc. --><path d="M160 96l0 16 104 0 24 0 0 48-24 0-104 0-48 0-88 0L0 160l0-48 24 0 88 0 0-16 48 0zm368 64l-48 0-104 0-24 0 0-48 24 0 104 0 0-16 48 0 0 16 88 0 24 0 0 48-24 0-88 0zM112 256l0-64 48 0 0 49.6 10.8 5.7 47.7-27.8c30.8-18 65.9-27.5 101.6-27.5s70.7 9.5 101.6 27.5l47.7 27.8 10.8-5.7 0-49.6 48 0 0 64 0 14.4-12.8 6.8-51.6 27.3 26.8 32.1 5.6 6.7 0 8.7 0 40 0 24-48 0 0-24 0-31.3-27.7-33.2-41.1 21.7L374 352l-6 0-96 0-6 0-5.3-2.8-41.1-21.7L192 360.7l0 31.3 0 24-48 0 0-24 0-40 0-8.7 5.6-6.7 26.8-32.1-51.6-27.3L112 270.4l0-14.4zm307.3 17.7l-21.9-12.8C373.9 247.2 347.2 240 320 240s-53.9 7.2-77.4 20.9l-21.9 12.8L278 304l84.1 0 57.2-30.3z"/></svg>