<svg xmlns="http://www.w3.org/2000/svg" viewBox="0 0 512 512"><!--! Font Awesome Pro 6.6.0 by @fontawesome - https://fontawesome.com License - https://fontawesome.com/license (Commercial License) Copyright 2024 Fonticons, Inc. --><path d="M224 112C224 50.1 173.9 0 112 0S0 50.1 0 112s50.1 112 112 112c5.2 0 10.2-.3 15.2-1L88.7 171.6C64.9 162.3 48 139.1 48 112c0-35.3 28.7-64 64-64c27.1 0 50.3 16.9 59.6 40.7L223 127.2c.7-5 1-10.1 1-15.2zm-10.7 47.9l-39.8-29.9L128 96 96 128l34.1 45.4 29.9 39.8 .1 .1 0 85.3-.1 .1-29.9 39.8L96 384l32 32 45.4-34.1 39.8-29.9 .1-.1 85.3 0 .1 .1 39.8 29.9L384 416l32-32-34.1-45.4-29.9-39.8-.1-.1 0-85.3 .1-.1 29.9-39.8L416 128 384 96l-45.4 34.1-39.8 29.9-.1 .1-85.3 0-.1-.1zM223 384.8l-51.3 38.5C162.3 447.1 139.1 464 112 464c-35.3 0-64-28.7-64-64c0-27.1 16.9-50.3 40.7-59.6L127.2 289c-5-.7-10.1-1-15.2-1C50.1 288 0 338.1 0 400s50.1 112 112 112s112-50.1 112-112c0-5.2-.3-10.2-1-15.2zM288 112c0 5.2 .3 10.2 1 15.2l51.3-38.5C349.7 64.9 372.9 48 400 48c35.3 0 64 28.7 64 64c0 27.1-16.9 50.3-40.7 59.6L384.8 223c5 .7 10.1 1 15.2 1c61.9 0 112-50.1 112-112S461.9 0 400 0S288 50.1 288 112zm1 272.8c-.7 5-1 10.1-1 15.2c0 61.9 50.1 112 112 112s112-50.1 112-112s-50.1-112-112-112c-5.2 0-10.2 .3-15.2 1l38.5 51.3c23.8 9.3 40.7 32.5 40.7 59.6c0 35.3-28.7 64-64 64c-27.1 0-50.3-16.9-59.6-40.7L289 384.8zM304 208l0 96-96 0 0-96 96 0z"/></svg>