<svg xmlns="http://www.w3.org/2000/svg" viewBox="0 0 448 512"><!--! Font Awesome Pro 6.6.0 by @fontawesome - https://fontawesome.com License - https://fontawesome.com/license (Commercial License) Copyright 2024 Fonticons, Inc. --><path d="M48 48l0 416 352 0 0-416L48 48zM0 0L48 0 400 0l48 0 0 48 0 416 0 48-48 0L48 512 0 512l0-48L0 48 0 0zM104 80a24 24 0 1 1 0 48 24 24 0 1 1 0-48zm56 24a24 24 0 1 1 48 0 24 24 0 1 1 -48 0zM80 288a144 144 0 1 1 288 0A144 144 0 1 1 80 288zm120-70.6l-12.7-12.7-22.6 22.6L177.4 240c4.2 4.2 6.6 10 6.6 16s-2.4 11.8-6.6 16l-9.4 9.4c-10.2 10.2-16 24.1-16 38.6s5.8 28.4 16 38.6l12.7 12.7 22.6-22.6L190.6 336c-4.2-4.2-6.6-10-6.6-16s2.4-11.8 6.6-16l9.4-9.4c10.2-10.2 16-24.1 16-38.6s-5.8-28.4-16-38.6zm80 0l-12.7-12.7-22.6 22.6L257.4 240c4.2 4.2 6.6 10 6.6 16s-2.4 11.8-6.6 16l-9.4 9.4c-10.2 10.2-16 24.1-16 38.6s5.8 28.4 16 38.6l12.7 12.7 22.6-22.6L270.6 336c-4.2-4.2-6.6-10-6.6-16s2.4-11.8 6.6-16l9.4-9.4c10.2-10.2 16-24.1 16-38.6s-5.8-28.4-16-38.6z"/></svg>