<svg xmlns="http://www.w3.org/2000/svg" viewBox="0 0 576 512"><!--! Font Awesome Pro 6.6.0 by @fontawesome - https://fontawesome.com License - https://fontawesome.com/license (Commercial License) Copyright 2024 Fonticons, Inc. --><path d="M32 32L0 160l114.9 0L140.5 32 32 32zM272 160l0-128-98.9 0L147.5 160 272 160zm32 0l124.5 0L402.9 32 304 32l0 128zm157.1 0L576 160 544 32 435.5 32l25.6 128zM86.4 240l403.3 0-20 160-363.3 0-20-160zM42 272L64 448l0 8 0 24 48 0 0-24 0-8 352 0 0 8 0 24 48 0 0-24 0-8 22-176 18 0 24 0 0-48-24 0-12 0 4-32-48.4 0L80.4 192 32 192l4 32-12 0L0 224l0 48 24 0 18 0z"/></svg>