<svg xmlns="http://www.w3.org/2000/svg" viewBox="0 0 512 512"><!--! Font Awesome Pro 6.6.0 by @fontawesome - https://fontawesome.com License - https://fontawesome.com/license (Commercial License) Copyright 2024 Fonticons, Inc. --><path d="M489 57l-48 48-17 17L390.1 88l17-17 48-48 17-17L505.9 40 489 57zM185 361L57 489l-17 17L6.1 472l17-17L151 327l17-17L201.9 344l-17 17zm55-249c-70.7 0-128 57.3-128 128l0 24-48 0 0-24c0-97.2 78.8-176 176-176s176 78.8 176 176c0 50.8-21.6 96.6-56 128.7l0 7.3c0 75.1-60.9 136-136 136l-24 0 0-48 24 0c48.6 0 88-39.4 88-88l0-18.1 0-11.4 8.8-7.2C349.7 315.7 368 280 368 240c0-70.7-57.3-128-128-128zm0 88c-22.1 0-40 17.9-40 40l0 24-48 0 0-24c0-48.6 39.4-88 88-88s88 39.4 88 88l0 24-48 0 0-24c0-22.1-17.9-40-40-40z"/></svg>