<svg xmlns="http://www.w3.org/2000/svg" viewBox="0 0 384 512"><!--! Font Awesome Pro 6.6.0 by @fontawesome - https://fontawesome.com License - https://fontawesome.com/license (Commercial License) Copyright 2024 Fonticons, Inc. --><path d="M263.7 316.9l-25.9 14.9 1.9 29.8c.1 2.1 .2 4.2 .2 6.4c0 53-43 96-96 96s-96-43-96-96l0-176c0-79.5 64.5-144 144-144s144 64.5 144 144c0 53.3-29 100-72.3 124.9zM288 368c0-3.2-.1-6.4-.3-9.5C345.3 325.3 384 263.2 384 192C384 86 298 0 192 0S0 86 0 192L0 368c0 79.5 64.5 144 144 144s144-64.5 144-144zM128 192c0-35.3 28.7-64 64-64s64 28.7 64 64l0 8 0 24 48 0 0-24 0-8c0-61.9-50.1-112-112-112S80 130.1 80 192l0 40 0 14.8 13.3 6.6L128 270.8l0 5.9L88.6 309.6 70.2 324.9l30.7 36.9 18.4-15.4 48-40 8.6-7.2 0-11.2 0-32 0-14.8-13.3-6.6L128 217.2l0-25.2z"/></svg>