<svg xmlns="http://www.w3.org/2000/svg" viewBox="0 0 512 512"><!--! Font Awesome Pro 6.6.0 by @fontawesome - https://fontawesome.com License - https://fontawesome.com/license (Commercial License) Copyright 2024 Fonticons, Inc. --><path d="M437.6 154.4L400 192l0 80 63.4 0C455.2 379.4 365.5 464 256 464C141.1 464 48 370.9 48 256c0-19.5 2.7-38.4 7.7-56.3L96 240l48 0 48 48 0 64 32 32 0 48 64 0 0-32 64-64 0-80-128 0-32-32 0-32 80 0 0-32-32-32 0-16 32-32 0-31.4C343.2 54 404.4 95.3 437.6 154.4zM256 512A256 256 0 1 0 256 0a256 256 0 1 0 0 512z"/></svg>