<svg xmlns="http://www.w3.org/2000/svg" viewBox="0 0 512 512"><!--! Font Awesome Pro 6.6.0 by @fontawesome - https://fontawesome.com License - https://fontawesome.com/license (Commercial License) Copyright 2024 Fonticons, Inc. --><path d="M430.5 115.5L505 41 471 7 396.5 81.5C358.1 50.6 309.2 32 256 32C132.3 32 32 132.3 32 256c0 53.2 18.6 102.1 49.5 140.5L7 471 41 505l74.5-74.5c38.4 31 87.3 49.5 140.5 49.5c123.7 0 224-100.3 224-224c0-53.2-18.6-102.1-49.5-140.5zm-68.1 .2L115.7 362.3C93.3 332.8 80 295.9 80 256c0-97.2 78.8-176 176-176c39.9 0 76.8 13.3 106.3 35.7zM149.7 396.3L396.3 149.7C418.7 179.2 432 216.1 432 256c0 97.2-78.8 176-176 176c-39.9 0-76.8-13.3-106.3-35.7z"/></svg>