<svg xmlns="http://www.w3.org/2000/svg" viewBox="0 0 576 512"><!--! Font Awesome Pro 6.6.0 by @fontawesome - https://fontawesome.com License - https://fontawesome.com/license (Commercial License) Copyright 2024 Fonticons, Inc. --><path d="M528 80L144 80l0 25.4L336 242.5 528 105.4 528 80zm0 84.4L349.9 291.5l-13.9 10-13.9-10L144 164.4 144 336l384 0 0-171.6zM144 32l384 0 48 0 0 48 0 256 0 48-48 0-384 0-48 0 0-48L96 80l0-48 48 0zM48 96l0 24 0 312 408 0 24 0 0 48-24 0L24 480 0 480l0-24L0 120 0 96l48 0z"/></svg>