<svg xmlns="http://www.w3.org/2000/svg" viewBox="0 0 512 512"><!--! Font Awesome Pro 6.6.0 by @fontawesome - https://fontawesome.com License - https://fontawesome.com/license (Commercial License) Copyright 2024 Fonticons, Inc. --><path d="M136 64l24 0 0 48-24 0-88 0 0 88 0 24L0 224l0-24L0 88 0 64l24 0 112 0zM0 312l0-24 48 0 0 24 0 88 88 0 24 0 0 48-24 0L24 448 0 448l0-24L0 312zM488 64l24 0 0 24 0 112 0 24-48 0 0-24 0-88-88 0-24 0 0-48 24 0 112 0zM464 312l0-24 48 0 0 24 0 112 0 24-24 0-112 0-24 0 0-48 24 0 88 0 0-88z"/></svg>