<svg xmlns="http://www.w3.org/2000/svg" viewBox="0 0 640 512"><!--! Font Awesome Pro 6.6.0 by @fontawesome - https://fontawesome.com License - https://fontawesome.com/license (Commercial License) Copyright 2024 Fonticons, Inc. --><path d="M48.4 14.8L29.4 .1 0 38 19 52.7 591.5 497.2l19 14.7L639.9 474l-19-14.7L524 384.1c41.9-44 70.2-93.9 84-128.1C578 181.3 478.4 32 320 32c-66.9 0-123.2 26.6-168.3 63L48.4 14.8zM190.8 125.4C227.6 98 270.8 80 320 80c63.1 0 116.2 29.5 158.9 70.6c35.6 34.3 61.5 74.5 76.6 105.4c-14.1 28.9-37.6 65.8-69.6 98.5L434 314.2c8.9-17.5 14-37.2 14-58.2c0-70.7-57.3-128-128-128c-8.6 0-17 .8-25.1 2.5c-22.5 4.5-42.9 14.9-59.5 29.5l-44.6-34.6zM395 283.9l-82.2-63.8-8.5-42.6c5.1-1 10.3-1.5 15.7-1.5c44.2 0 80 35.8 80 80c0 9.8-1.8 19.2-5 27.9zM85.7 163.5c-10.9 14.3-20.4 28.6-28.5 42.2L393.1 469c18.3-5.7 35.6-13.3 51.8-22.4L85.7 163.5zM320 480c3.1 0 6.1-.1 9.2-.2l-75.6-59.2c-34.9-12.2-65.7-33.4-92.4-59.2c-14.3-13.7-27-28.4-38-43.1L34.9 249.2c-1 2.3-2 4.6-2.9 6.8c30 74.7 129.6 224 288 224z"/></svg>