<svg xmlns="http://www.w3.org/2000/svg" viewBox="0 0 576 512"><!--! Font Awesome Pro 6.6.0 by @fontawesome - https://fontawesome.com License - https://fontawesome.com/license (Commercial License) Copyright 2024 Fonticons, Inc. --><path d="M496 256c0 114.9-93.1 208-208 208c-65.5 0-124-30.3-162.1-77.7c-4 17-13.4 32-26.4 42.9C146.3 480.1 213.4 512 288 512c141.4 0 256-114.6 256-256S429.4 0 288 0S32 114.6 32 256l16-21.3 25.6 34.1L81.3 279c-.8-7.6-1.3-15.2-1.3-23C80 141.1 173.1 48 288 48s208 93.1 208 208zM36.4 303.5L9.6 339.2C3.4 347.5 0 357.6 0 368c0 26.5 21.5 48 48 48c12 0 22.9-4.4 31.3-11.6C89.5 395.6 96 382.5 96 368c0-10.4-3.4-20.5-9.6-28.8L68 314.7 48 288 36.4 303.5zM208 400l0 16 160 0 0-16c0-44.2-35.8-80-80-80s-80 35.8-80 80zm159.6-96a32 32 0 1 0 0-64 32 32 0 1 0 0 64zm-192-32a32 32 0 1 0 64 0 32 32 0 1 0 -64 0zm51.7-100.7L238.6 160 216 137.4l-11.3 11.3-7.4 7.4c-18.9 18.9-43.2 31.4-69.5 35.7l-2.5 .4-15.8 2.6 5.3 31.6 15.8-2.6 2.5-.4c32.9-5.5 63.3-21.1 86.8-44.7l7.4-7.4zM337.4 160l11.3 11.3 7.4 7.4c23.6 23.6 53.9 39.2 86.8 44.7l2.5 .4 15.8 2.6 5.3-31.6-15.8-2.6-2.5-.4c-26.3-4.4-50.6-16.9-69.5-35.7l-7.4-7.4L360 137.4 337.4 160z"/></svg>