<svg xmlns="http://www.w3.org/2000/svg" viewBox="0 0 640 512"><!--! Font Awesome Pro 6.6.0 by @fontawesome - https://fontawesome.com License - https://fontawesome.com/license (Commercial License) Copyright 2024 Fonticons, Inc. --><path d="M529.4 250.7l-1.4 1.4C525.9 139.1 433.6 48 320 48s-205.9 91.1-208 204.2l-1.4-1.4L88 228.1 65.4 250.7 64 252.1C66.1 112.5 179.9 0 320 0S573.9 112.5 576 252.1l-1.3-1.3L552 228.1l-22.6 22.6zM256 334.4l0-1.9c16.8 10.8 39.1 19.5 64 19.5s47.2-8.7 64-19.5l0 1.9 0 52.3c-19 8.1-40.7 13.3-64 13.3s-45-5.2-64-13.3l0-52.3zM228.9 495.3c9.9-12.6 17.5-27.2 22.1-43c21.6 7.6 44.8 11.7 69 11.7s47.4-4.1 69-11.7c4.6 15.8 12.2 30.4 22.1 43c-28.3 10.8-59 16.7-91.1 16.7s-62.8-5.9-91.1-16.7zM240 152c28 0 56 40 56 80c0 0-28-32-56-32s-56 32-56 32c0-40 28-80 56-80zm104 80c0-40 28-80 56-80s56 40 56 80c0 0-28-32-56-32s-56 32-56 32zM76.7 307.3L65.4 296 88 273.4l11.3 11.3L184 369.4l0-15 0-20 40 0 0 20 0 29.6 0 20 0 12.8c0 52.6-42.6 95.2-95.2 95.2c-25.2 0-49.5-10-67.3-27.9L12.7 435.3 1.4 424 24 401.4l11.3 11.3 24 24 9.4-9.4-56-56L1.4 360 24 337.4l11.3 11.3 56 56 9.4-9.4-72-72L17.4 312 40 289.4l11.3 11.3 72 72 9.4-9.4-56-56zm486.6 0l-56 56 9.4 9.4 72-72L600 289.4 622.6 312l-11.3 11.3-72 72 9.4 9.4 56-56L616 337.4 638.6 360l-11.3 11.3-56 56 9.4 9.4 24-24L616 401.4 638.6 424l-11.3 11.3-48.8 48.8C560.7 502 536.4 512 511.2 512c-52.6 0-95.2-42.6-95.2-95.2l0-12.8 0-20 0-29.6 0-20 40 0 0 20 0 15 84.7-84.7L552 273.4 574.6 296l-11.3 11.3z"/></svg>