<svg xmlns="http://www.w3.org/2000/svg" viewBox="0 0 512 512"><!--! Font Awesome Pro 6.6.0 by @fontawesome - https://fontawesome.com License - https://fontawesome.com/license (Commercial License) Copyright 2024 Fonticons, Inc. --><path d="M436.1 152C378.7 52.5 251.5 18.4 152 75.9S18.4 260.5 75.9 360c25 43.3 63.2 74.2 106.5 90.6c-4.1-10.7-6.4-22.4-6.4-34.6l0-12.5c-16-10.5-30.2-24-41.9-40.2L409.9 204.1c29.4 65.1 11.7 141.7-41.9 187.4l0 24.5c0 5.5-.5 10.9-1.4 16.1C461 373 492.3 249.2 436.1 152zM384 477.7c-27.9 16.1-57.5 26.3-87.5 31.1c-7.8 2.1-16 3.2-24.5 3.2c-1.9 0-3.7-.1-5.6-.2c-92 3.7-182.9-42.6-232.1-127.8C-36.4 261.6 5.6 105 128 34.3S407 5.6 477.7 128s28.7 279-93.7 349.7zM296.4 160c-11.1 0-20.4-7.5-23.2-17.7c-.8 3.1-1.2 6.4-1.2 9.7c0 22.1 17.9 40 40 40s40-17.9 40-40s-17.9-40-40-40c-3 0-6 .3-8.8 1c9.9 2.9 17.2 12.1 17.2 23c0 13.3-10.7 24-24 24zM312 80a72 72 0 1 1 0 144 72 72 0 1 1 0-144zM176 224a32 32 0 1 0 -64 0 32 32 0 1 0 64 0zm-96 0a64 64 0 1 1 128 0A64 64 0 1 1 80 224zm48 0a16 16 0 1 1 32 0 16 16 0 1 1 -32 0zM272 480c35.3 0 64-28.7 64-64l0-48-48 0 0 24-32 0 0-24-48 0 0 48c0 35.3 28.7 64 64 64z"/></svg>