<svg xmlns="http://www.w3.org/2000/svg" viewBox="0 0 640 512"><!--! Font Awesome Pro 6.6.0 by @fontawesome - https://fontawesome.com License - https://fontawesome.com/license (Commercial License) Copyright 2024 Fonticons, Inc. --><path d="M517.7 320.9c1.2 4 2.4 8 3.8 11.8c3 8.2 8 20 16.6 28.7c3.4 3.4 7.1 6.5 10.9 9.1C507 454.4 420.2 512 320 512s-187-57.6-229.1-141.5c3.8-2.6 7.5-5.7 10.9-9.1c8.7-8.7 13.7-20.5 16.6-28.7c1.4-3.8 2.7-7.8 3.8-11.8C149.6 404 227.8 464 320 464s170.4-60 197.7-143.1zM523.8 214C504.3 119.3 420.5 48 320 48s-184.3 71.3-203.8 166l-16.6 2.3-.1 0c-7.4 1-19.7 2.7-33.2 5.1C83.2 96.4 190.3 0 320 0S556.8 96.4 573.7 221.5c-13.5-2.4-25.8-4.1-33.2-5.1l-.1 0L523.8 214zM576 254.5c21.1 4.2 42.9 10.1 50.8 18c17.9 18 17.5 47.3-.7 65.6c-17.8 17.9-46.2 18.6-64.2 1.8c-.4-.4-.7-.7-1.1-1.1c-8.7-8.8-15.2-34.6-19.5-57.7c-2.5-13.2-4.2-25.4-5.3-33.1c7.6 1.1 19.9 2.8 33.1 5.1c2.3 .4 4.6 .9 6.9 1.3zM98.7 281.1c-4.3 23.1-10.8 48.9-19.5 57.7c-.4 .4-.7 .7-1.1 1.1c-17.9 16.8-46.4 16.1-64.2-1.8c-18.2-18.3-18.6-47.6-.7-65.6c7.9-7.9 29.7-13.9 50.8-18c2.3-.5 4.6-.9 6.9-1.3c13.2-2.4 25.5-4.1 33.1-5.1c-1.1 7.6-2.8 19.9-5.3 33.1zm221.2 37.8c50.3 0 97.2-8.6 136.5-23.5C442.6 355.2 386.7 400 319.9 400s-122.7-44.8-136.5-104.6c39.3 14.9 86.2 23.5 136.5 23.5zM240 152c28 0 56 40 56 80c0 0-28-32-56-32s-56 32-56 32c0-40 28-80 56-80zm104 80c0-40 28-80 56-80s56 40 56 80c0 0-28-32-56-32s-56 32-56 32z"/></svg>