<svg xmlns="http://www.w3.org/2000/svg" viewBox="0 0 512 512"><!--! Font Awesome Pro 6.6.0 by @fontawesome - https://fontawesome.com License - https://fontawesome.com/license (Commercial License) Copyright 2024 Fonticons, Inc. --><path d="M256 48C141.1 48 48 141.1 48 256c0 59 24.6 112.2 64 150.1l0 10.7c0 21.9 5.5 42.5 15.3 60.5C51.2 433 0 350.5 0 256C0 114.6 114.6 0 256 0S512 114.6 512 256c0 113.1-73.3 209.1-175.1 242.9l52.3-52.3L411.9 424l-15-15c41.3-38 67.1-92.5 67.1-153c0-114.9-93.1-208-208-208zM144.4 208a32 32 0 1 1 64 0 32 32 0 1 1 -64 0zm192-32a32 32 0 1 1 0 64 32 32 0 1 1 0-64zM302.6 296l-11.3 11.3-56 56 9.4 9.4 72-72L328 289.4 350.6 312l-11.3 11.3-72 72 9.4 9.4 56-56L344 337.4 366.6 360l-11.3 11.3-56 56 9.4 9.4 24-24L344 401.4 366.6 424l-11.3 11.3-48.8 48.8C288.7 502 264.4 512 239.2 512c-52.6 0-95.2-42.6-95.2-95.2l0-12.8 0-20 0-29.6 0-20 40 0 0 20 0 15 84.7-84.7L280 273.4 302.6 296z"/></svg>