<svg xmlns="http://www.w3.org/2000/svg" viewBox="0 0 512 512"><!--! Font Awesome Pro 6.6.0 by @fontawesome - https://fontawesome.com License - https://fontawesome.com/license (Commercial License) Copyright 2024 Fonticons, Inc. --><path d="M256 48C141.1 48 48 141.1 48 256c0 59 24.6 112.2 64 150.1l0 10.7c0 21.9 5.5 42.5 15.3 60.5C51.2 433 0 350.5 0 256C0 114.6 114.6 0 256 0S512 114.6 512 256c0 113.1-73.3 209.1-175.1 242.9l52.3-52.3L411.9 424l-15-15c41.3-38 67.1-92.5 67.1-153c0-114.9-93.1-208-208-208zM217.6 228.8s0 0 0 0c0 0 0 0 0 0l-.2-.2c-.2-.2-.4-.5-.7-.9c-.6-.8-1.6-2-2.8-3.4c-2.5-2.8-6-6.6-10.2-10.3c-8.8-7.8-18.8-14-27.7-14s-18.9 6.2-27.7 14c-4.2 3.7-7.7 7.5-10.2 10.3c-1.2 1.4-2.2 2.6-2.8 3.4c-.3 .4-.6 .7-.7 .9l-.2 .2c0 0 0 0 0 0c0 0 0 0 0 0s0 0 0 0c-2.1 2.8-5.7 3.9-8.9 2.8s-5.5-4.1-5.5-7.6c0-17.9 6.7-35.6 16.6-48.8c9.8-13 23.9-23.2 39.4-23.2s29.6 10.2 39.4 23.2c9.9 13.2 16.6 30.9 16.6 48.8c0 3.4-2.2 6.5-5.5 7.6s-6.9 0-8.9-2.8c0 0 0 0 0 0s0 0 0 0zm160 0c0 0 0 0 0 0l-.2-.2c-.2-.2-.4-.5-.7-.9c-.6-.8-1.6-2-2.8-3.4c-2.5-2.8-6-6.6-10.2-10.3c-8.8-7.8-18.8-14-27.7-14s-18.9 6.2-27.7 14c-4.2 3.7-7.7 7.5-10.2 10.3c-1.2 1.4-2.2 2.6-2.8 3.4c-.3 .4-.6 .7-.7 .9l-.2 .2c0 0 0 0 0 0c0 0 0 0 0 0s0 0 0 0c-2.1 2.8-5.7 3.9-8.9 2.8s-5.5-4.1-5.5-7.6c0-17.9 6.7-35.6 16.6-48.8c9.8-13 23.9-23.2 39.4-23.2s29.6 10.2 39.4 23.2c9.9 13.2 16.6 30.9 16.6 48.8c0 3.4-2.2 6.5-5.5 7.6s-6.9 0-8.9-2.8c0 0 0 0 0 0s0 0 0 0s0 0 0 0zm-75 67.2l-11.3 11.3-56 56 9.4 9.4 72-72L328 289.4 350.6 312l-11.3 11.3-72 72 9.4 9.4 56-56L344 337.4 366.6 360l-11.3 11.3-56 56 9.4 9.4 24-24L344 401.4 366.6 424l-11.3 11.3-48.8 48.8C288.7 502 264.4 512 239.2 512c-52.6 0-95.2-42.6-95.2-95.2l0-12.8 0-20 0-29.6 0-20 40 0 0 20 0 15 84.7-84.7L280 273.4 302.6 296z"/></svg>