<svg xmlns="http://www.w3.org/2000/svg" viewBox="0 0 576 512"><!--! Font Awesome Pro 6.6.0 by @fontawesome - https://fontawesome.com License - https://fontawesome.com/license (Commercial License) Copyright 2024 Fonticons, Inc. --><path d="M128 388.9c-29.1-35-46.9-79.7-48-128.5l48 19.2 0 109.3zM36.4 208.5l-13.3-5.3L11.2 232.9l14.9 5.9 6.4 2.5c-.3 4.8-.4 9.7-.4 14.6c0 141.4 114.6 256 256 256s256-114.6 256-256c0-4.9-.1-9.8-.4-14.6l6.4-2.5 14.9-5.9-11.9-29.7-13.3 5.3C517.3 89.8 413.2 0 288 0S58.7 89.8 36.4 208.5zM82 226.8C96.2 125.7 183 48 288 48s191.8 77.7 206 178.8l-53 21.2L424 248l-272 0-16.9 0L82 226.8zM496 260.5c-1 48.8-18.9 93.5-48 128.5l0-109.3 48-19.2zM170.4 207.4c4.8-5.7 26.7-23.4 61.6-23.4l24 0 0-48-24 0c-50.4 0-85.4 25-98.4 40.6l-15.4 18.4 36.9 30.7 15.4-18.4zM400 352l0 32-224 0 0-32 224 0zm0-56l0 24-224 0 0-24 224 0zM203.2 440l-20-24 209.5 0-20 24L288 440l-84.8 0zM344 184c36.4 0 58.7 15.3 63 19.6l17 17 33.9-33.9-17-17c-13.5-13.5-48.1-33.7-97-33.7l-24 0 0 48 24 0z"/></svg>