<svg xmlns="http://www.w3.org/2000/svg" viewBox="0 0 512 512"><!--! Font Awesome Pro 6.6.0 by @fontawesome - https://fontawesome.com License - https://fontawesome.com/license (Commercial License) Copyright 2024 Fonticons, Inc. --><path d="M208 0l96 0 0 45.4c18 4.1 35.1 10.4 51.1 18.6L448 64l0 92.9c8.2 16 14.6 33.1 18.6 51.1l45.4 0 0 48c0 25.6-20.1 46.5-45.3 47.9c-4.1 18-10.4 35.1-18.7 51.1l0 44.9c0 25.1-19.2 45.7-43.8 47.8l-32.8-69.7c8.3-7.9 15.9-16.6 22.5-26.1c14.6-21 24.6-45.5 28.4-72l-90 0c2.4-7.6 3.7-15.6 3.7-24c0-8.4-1.3-16.4-3.7-24l90 0c-1.2-8.2-2.9-16.2-5.3-24c-5.2-17.3-13-33.5-23.2-48c-1.1-1.6-2.2-3.1-3.3-4.6L326.9 219c-7.6-14.5-19.5-26.4-33.9-33.9l63.6-63.6c-1.5-1.1-3.1-2.2-4.6-3.3c-14.5-10.1-30.7-18-48-23.2c-7.8-2.3-15.8-4.1-24-5.3l0 90c-7.6-2.4-15.6-3.7-24-3.7s-16.4 1.3-24 3.7l0-90c-8.2 1.2-16.2 2.9-24 5.3c-17.3 5.2-33.5 13-48 23.2c-1.6 1.1-3.1 2.2-4.6 3.3L219 185.1c-14.5 7.6-26.4 19.5-33.9 33.9l-63.6-63.6c-1.1 1.5-2.2 3.1-3.3 4.6c-10.1 14.5-18 30.7-23.2 48c-2.3 7.8-4.1 15.8-5.3 24l90 0c-2.4 7.6-3.7 15.6-3.7 24c0 8.4 1.3 16.4 3.7 24l-90 0c3.8 26.5 13.8 51 28.4 72c6.6 9.4 14.1 18.2 22.5 26.1l-32.8 69.7C83.2 445.7 64 425.1 64 400l0-44.9c-8.3-16-14.6-33.1-18.7-51.1C20.1 302.5 0 281.6 0 256l0-48 45.4 0c4.1-18 10.4-35.1 18.6-51.1L64 112l0-48 92.9 0c16-8.3 33.1-14.6 51.1-18.6L208 0zM135.5 464L219 286.6c-6.9-8.3-11-19-11-30.6c0-26.5 21.5-48 48-48s48 21.5 48 48c0 11.6-4.1 22.3-11 30.6L376.5 464l7.5 16 0 32-48 0-160 0-48 0 0-32 7.5-16zm53 0l134.8 0L256 320.7 188.6 464z"/></svg>