<svg xmlns="http://www.w3.org/2000/svg" viewBox="0 0 576 512"><!--! Font Awesome Pro 6.6.0 by @fontawesome - https://fontawesome.com License - https://fontawesome.com/license (Commercial License) Copyright 2024 Fonticons, Inc. --><path d="M48 464l236.5 0c12.3 18.8 28 35.1 46.3 48L48 512 0 512l0-48L0 48 0 0 48 0 256 0 384 128l0 70.6c-17.2 4.9-33.4 12.3-48 21.8l0-60.5-112 0 0-112L48 48l0 416zM432 224a144 144 0 1 1 0 288 144 144 0 1 1 0-288zm15.3 64l-32 0 0 32 32 0 0-32zm1.2 64l-16 0L416 352l-16 0 0 32 16 0 .5 0 0 48-.5 0-16 0 0 32 16 0 32 0 .5 0 15.5 0 0-32-15.5 0 0-64 0-16z"/></svg>