<svg xmlns="http://www.w3.org/2000/svg" viewBox="0 0 512 512"><!--! Font Awesome Pro 6.6.0 by @fontawesome - https://fontawesome.com License - https://fontawesome.com/license (Commercial License) Copyright 2024 Fonticons, Inc. --><path d="M48 464l32 0 0 48-32 0L0 512l0-48L0 48 0 0 48 0 256 0 384 128l0 176-48 0 0-144-112 0 0-112L48 48l0 416zm208-96l0 128 0 16-32 0 0-16 0-74.2-17.9 33.7-13.9 26.2-14.3-26L160 423l0 73 0 16-32 0 0-16 0-128 0-16 16 0 4 0 9.5 0 4.6 8.3 29.7 54 28.5-53.8 4.5-8.5 9.6 0 5.6 0 16 0 0 16zm192 0l0 35c0 17.3 3.1 34.4 9.2 50.6l6.8 18.2 6.8-18.2c6.1-16.2 9.2-33.3 9.2-50.6l0-35 0-16 32 0 0 16 0 35c0 21.1-3.8 42-11.2 61.8L487 501.6 483.1 512 472 512l-16 0-11.1 0L441 501.6l-13.8-36.8C419.8 445 416 424.1 416 403l0-35 0-16 32 0 0 16zM288 392c0-22.1 17.9-40 40-40l16 0c22.1 0 40 17.9 40 40l0 80c0 22.1-17.9 40-40 40l-16 0c-22.1 0-40-17.9-40-40l0-80zm40-8c-4.4 0-8 3.6-8 8l0 80c0 4.4 3.6 8 8 8l16 0c4.4 0 8-3.6 8-8l0-80c0-4.4-3.6-8-8-8l-16 0z"/></svg>