<svg xmlns="http://www.w3.org/2000/svg" viewBox="0 0 384 512"><!--! Font Awesome Pro 6.6.0 by @fontawesome - https://fontawesome.com License - https://fontawesome.com/license (Commercial License) Copyright 2024 Fonticons, Inc. --><path d="M336 464l0-304-112 0 0-112L48 48l0 416 288 0zM48 0L256 0 384 128l0 336 0 48-48 0L48 512 0 512l0-48L0 48 0 0 48 0zM176 238.7l0 97.3 96.2 0c-.1 7.8-1.2 15.7-3.3 23.6c-13.7 51.2-66.4 81.6-117.6 67.9s-81.6-66.4-67.9-117.6C95 267 133.7 238.8 176 238.7zM208 208c53 0 96 43 96 96l-96 0 0-96z"/></svg>