<svg xmlns="http://www.w3.org/2000/svg" viewBox="0 0 576 512"><!--! Font Awesome Pro 6.6.0 by @fontawesome - https://fontawesome.com License - https://fontawesome.com/license (Commercial License) Copyright 2024 Fonticons, Inc. --><path d="M0 272l33.9 33.9L206.1 478.1 240 512l33.9-33.9L478.1 273.9 512 240l-33.9-33.9L305.9 33.9 272 0 238.1 33.9 161 111 73 23 56 6.1 22.1 40 39 57l88 88L33.9 238.1 0 272zm161-93.1L191 209l17 17L241.9 192l-17-17L194.9 145 272 67.9 444.1 240l-48 48L83.9 288l-16-16L161 178.9zM512 320l-55.7 97.4c-5.5 9.6-8.3 20.4-8.3 31.4c0 34.9 28.3 63.2 63.2 63.2l1.6 0c34.9 0 63.2-28.3 63.2-63.2c0-11-2.9-21.8-8.3-31.4L512 320z"/></svg>