<svg xmlns="http://www.w3.org/2000/svg" viewBox="0 0 640 512"><!--! Font Awesome Pro 6.6.0 by @fontawesome - https://fontawesome.com License - https://fontawesome.com/license (Commercial License) Copyright 2024 Fonticons, Inc. --><path d="M29.4 .1l19 14.7L70.5 32 112 32l416 0 48 0 0 48 0 344.4 44.9 34.9 19 14.7-29.4 37.9-19-14.7L19 52.7 0 38 29.4 .1zM176 113.9L176 80l-43.6 0L176 113.9zM328.2 232l87.8 0 0-40 0-112L224 80l0 71.1L328.2 232zM528 387.2l0-43.2-55.6 0L528 387.2zM416 423.8L487.4 480 112 480l-48 0 0-48 0-285.6L152.3 216 112 216l0 80 64 0 0-61.3L233.5 280l-9.5 0 0 40 0 112 192 0 0-8.2zM176 344l-64 0 0 88 64 0 0-88zM464 80l0 88 64 0 0-88-64 0zm64 136l-64 0 0 80 64 0 0-80z"/></svg>