<svg xmlns="http://www.w3.org/2000/svg" viewBox="0 0 512 512"><!--! Font Awesome Pro 6.6.0 by @fontawesome - https://fontawesome.com License - https://fontawesome.com/license (Commercial License) Copyright 2024 Fonticons, Inc. --><path d="M160 432l192 0 0-112 0-128 0-112L160 80l0 112 0 128 0 112zM112 80L48 80l0 88 64 0 0-88zm0 136l-64 0 0 80 64 0 0-80zm0 128l-64 0 0 88 64 0 0-88zM400 80l0 88 64 0 0-88-64 0zm64 136l-64 0 0 80 64 0 0-80zm0 128l-64 0 0 88 64 0 0-88zm0-312l48 0 0 48 0 352 0 48-48 0L48 480 0 480l0-48L0 80 0 32l48 0 416 0z"/></svg>