<svg xmlns="http://www.w3.org/2000/svg" viewBox="0 0 640 512"><!--! Font Awesome Pro 6.6.0 by @fontawesome - https://fontawesome.com License - https://fontawesome.com/license (Commercial License) Copyright 2024 Fonticons, Inc. --><path d="M592 48l0 32L48 80l0-32 544 0zM48 0L0 0 0 48 0 80l0 48 32 0 0 360 0 24 24 0 80 0 24 0 0-24 0-120c0-88.4 71.6-160 160-160s160 71.6 160 160l0 120 0 24 24 0 80 0 24 0 0-24 0-360 32 0 0-48 0-32 0-48L592 0 48 0zM80 464l0-336 480 0 0 336-32 0 0-96c0-114.9-93.1-208-208-208s-208 93.1-208 208l0 96-32 0zM297.5 265.6c-29.9 18.7-89.6 71.7-89.6 134.4c0 61.9 50.1 112 112 112s112-50.1 112-112c0-18.7-13.4-67.2-67.2-112l-22.4 22.4-44.8-44.8zm67.2 168.1c0 24.7-20.1 44.8-44.8 44.8s-44.8-20.1-44.8-44.8c0-33.6 44.8-67.2 44.8-67.2s44.8 33.6 44.8 67.2z"/></svg>