<svg xmlns="http://www.w3.org/2000/svg" viewBox="0 0 448 512"><!--! Font Awesome Pro 6.6.0 by @fontawesome - https://fontawesome.com License - https://fontawesome.com/license (Commercial License) Copyright 2024 Fonticons, Inc. --><path d="M176 196.5l0-29.1L176 48l96 0 0 119.4 0 29.1L297.8 210c51.3 26.7 86.2 80.3 86.2 142c0 43.6-17.4 83.1-45.7 112l-228.5 0C81.4 435.1 64 395.6 64 352c0-61.7 34.9-115.3 86.2-142L176 196.5zm144-29.1L320 48l8 0 24 0 0-48L328 0l-8 0L272 0 176 0 128 0l-8 0L96 0l0 48 24 0 8 0 0 119.4C61.4 202.1 16 271.8 16 352c0 64.3 29.2 121.8 75.1 160l265.8 0c45.9-38.2 75.1-95.7 75.1-160c0-80.2-45.4-149.9-112-184.6zM312 328c0-39.8-39.4-72-88-72s-88 32.2-88 72c0 22.4 12.5 42.3 32 55.5l0 32.5 112 0 0-32.5c19.5-13.2 32-33.2 32-55.5zM192 312a16 16 0 1 1 0 32 16 16 0 1 1 0-32zm48 16a16 16 0 1 1 32 0 16 16 0 1 1 -32 0z"/></svg>