<svg xmlns="http://www.w3.org/2000/svg" viewBox="0 0 576 512"><!--! Font Awesome Pro 6.6.0 by @fontawesome - https://fontawesome.com License - https://fontawesome.com/license (Commercial License) Copyright 2024 Fonticons, Inc. --><path d="M48 480L0 480l0-48L0 80 0 32l48 0 288 0L448 144l0 48.7c-5.3-.5-10.6-.7-16-.7c-10.9 0-21.6 1-32 2.9l0-31-80-80L320 184l0 24-24 0-192 0-24 0 0-24L80 80 48 80l0 352 220 0c6.9 17.5 16.4 33.7 28.2 48L48 480zM224 256c22.1 0 41.6 11.2 53.1 28.3C263.7 309.2 256 337.7 256 368c0 2.5 .1 4.9 .2 7.4c-9.4 5.5-20.4 8.6-32.2 8.6c-35.3 0-64-28.7-64-64s28.7-64 64-64zM128 80l0 80 144 0 0-80L128 80zM432 224a144 144 0 1 1 0 288 144 144 0 1 1 0-288zm59.3 107.3L502.6 320 480 297.4l-11.3 11.3L432 345.4l-36.7-36.7L384 297.4 361.4 320l11.3 11.3L409.4 368l-36.7 36.7L361.4 416 384 438.6l11.3-11.3L432 390.6l36.7 36.7L480 438.6 502.6 416l-11.3-11.3L454.6 368l36.7-36.7z"/></svg>