<svg xmlns="http://www.w3.org/2000/svg" viewBox="0 0 384 512"><!--! Font Awesome Pro 6.6.0 by @fontawesome - https://fontawesome.com License - https://fontawesome.com/license (Commercial License) Copyright 2024 Fonticons, Inc. --><path d="M315.3 32c-36 0-68.3 21.9-81.7 55.3L179 224 32 224l0 48 127.8 0L105.8 406.9C99.7 422 85 432 68.7 432L24 432 0 432l0 48 24 0 44.7 0c36 0 68.3-21.9 81.7-55.3L211.4 272 352 272l0-48-121.4 0 47.5-118.9C284.3 90 299 80 315.3 80L360 80l24 0 0-48-24 0-44.7 0z"/></svg>