<svg xmlns="http://www.w3.org/2000/svg" viewBox="0 0 640 512"><!--! Font Awesome Pro 6.6.0 by @fontawesome - https://fontawesome.com License - https://fontawesome.com/license (Commercial License) Copyright 2024 Fonticons, Inc. --><path d="M144 304l0-96 448 0 0 96-448 0zm-48 0l-48 0 0-96 48 0 0 96zm24-144l-24 0-48 0L0 160l0 48 0 96 0 48 48 0 48 0 24 0 24 0 448 0 48 0 0-48 0-96 0-48-48 0-448 0-24 0zM320 280a24 24 0 1 0 0-48 24 24 0 1 0 0 48zm120-24a24 24 0 1 0 -48 0 24 24 0 1 0 48 0zm72 24a24 24 0 1 0 0-48 24 24 0 1 0 0 48z"/></svg>