<svg xmlns="http://www.w3.org/2000/svg" viewBox="0 0 640 512"><!--! Font Awesome Pro 6.6.0 by @fontawesome - https://fontawesome.com License - https://fontawesome.com/license (Commercial License) Copyright 2024 Fonticons, Inc. --><path d="M153.4 48L159 32l34 0 5.6 16 152 432-50.9 0L260.4 368 91.6 368 52.2 480 1.3 480 153.4 48zM108.5 320l135 0L176 128.3 108.5 320zM640 184l0 272 0 24-48 0 0-24 0-8.8c-22.1 20.4-51.6 32.8-84 32.8c-68.5 0-124-55.5-124-124l0-72c0-68.5 55.5-124 124-124c32.4 0 61.9 12.4 84 32.8l0-8.8 0-24 48 0 0 24zM508 208c-42 0-76 34-76 76l0 72c0 42 34 76 76 76s76-34 76-76l0-72c0-42-34-76-76-76z"/></svg>