<svg xmlns="http://www.w3.org/2000/svg" viewBox="0 0 384 512"><!--! Font Awesome Pro 6.6.0 by @fontawesome - https://fontawesome.com License - https://fontawesome.com/license (Commercial License) Copyright 2024 Fonticons, Inc. --><path d="M97.4 221.4L64 32 112 0l16 90.7L128 272l-10.3 0L97.4 221.4zM59.7 192l-41.1 0L0 80 41.8 90.5 59.7 192zm305.6 0l-39.6 0L342.7 90.3 384 80 365.3 192zm-75.6 21.4L266.3 272 256 272l0-224 64-16L289.8 213.4zM224 272l-64 0L160 0l64 32 0 208 0 32zM64 224l32 80 192 0 32-80 14.8 0 49.2 0-10.7 48L320 512 64 512 10.7 272 0 224l49.2 0L64 224zM288 352L96 352l-18.4 0 24.9 112 179 0 24.9-112L288 352z"/></svg>