<svg xmlns="http://www.w3.org/2000/svg" viewBox="0 0 512 512"><!--! Font Awesome Pro 6.6.0 by @fontawesome - https://fontawesome.com License - https://fontawesome.com/license (Commercial License) Copyright 2024 Fonticons, Inc. --><path d="M160 184c0-63.9 44.1-117.6 103.6-132.1C237.3 82 221 119.6 217 159.4l-5.1 49.9 42-27.3C275.2 168 300.6 160 328 160c63.9 0 117.6 44.1 132.1 103.6C430 237.3 392.4 221 352.6 217l-49.9-5.1 27.3 42C344 275.2 352 300.6 352 328c0 63.9-44.1 117.6-103.6 132.1C274.7 430 291 392.4 295 352.6l5.1-49.9-42 27.3C236.7 344 211.4 352 184 352c-63.9 0-117.6-44.1-132.1-103.6C82 274.7 119.6 291 159.4 295l49.9 5.1-27.3-42C168 236.8 160 211.4 160 184zM296 0C194.4 0 112 82.4 112 184c0 17.7 2.5 34.9 7.2 51.2c-18-8.1-34.3-19.9-47.9-34.8L41.8 167.9 0 121.9 0 184l0 32C0 317.6 82.4 400 184 400c17.7 0 34.9-2.5 51.2-7.2c-8.1 18-19.9 34.3-34.8 47.9l-32.6 29.6L121.9 512l62.1 0 32 0c101.6 0 184-82.4 184-184c0-17.7-2.5-34.9-7.2-51.2c18 8.1 34.3 19.9 47.9 34.8l29.6 32.6L512 390.1l0-62.1 0-32c0-101.6-82.4-184-184-184c-17.7 0-34.9 2.5-51.2 7.2c8.1-18 19.9-34.3 34.8-47.9l32.6-29.6L390.1 0 328 0 296 0zM256 296l40-40-40-40-40 40 40 40z"/></svg>