<svg xmlns="http://www.w3.org/2000/svg" viewBox="0 0 384 512"><!--! Font Awesome Pro 6.6.0 by @fontawesome - https://fontawesome.com License - https://fontawesome.com/license (Commercial License) Copyright 2024 Fonticons, Inc. --><path d="M108.8 2.6l40.6 10.2 1.1 3.2c0 0 0 0 0 .1l.3 .7c.3 .7 .7 1.7 1.3 3.2c1.2 2.9 3.2 7.3 6 12.8c5.7 11.1 14.8 27 28.2 45.1c26.9 36.2 71.4 81.5 141.3 116.8c17.3 8.7 31.7 22.9 40.1 40.4c1.8 3.5 3.3 7.2 4.5 11l3.7 0 0 24 0 .3 0 .3c0 45-36.5 81.4-81.4 81.4L184 352l-24 0 0-48 24 0 110 0c18.7 0 33.9-15.1 34-33.7c-.1-5.4-1.5-10.7-4.1-15.6c-3.1-4.9-7.7-7.8-12.4-8.6c-8.6-1.4-19-2.6-30.9-3l-1.3 0c-48.2-1.3-121.5 10.4-207.2 71L29.2 303.4l3.6-13.5 72-272 4-15.3zM135.6 89L94.8 243.4c42.5-23.1 81.9-36 116.7-42.6c1.1-.2 2.2-.4 3.2-.6c8.5-1.5 16.7-2.7 24.6-3.5c-41.1-30.1-70.7-62.3-91.5-90.2c-4.5-6.1-8.6-11.9-12.3-17.5zM24 464l8 0 0-32 0-48 48 0 224 0 48 0 0 48 0 32 8 0 24 0 0 48-24 0-8 0-48 0L80 512l-48 0-8 0L0 512l0-48 24 0zm280-32L80 432l0 32 224 0 0-32z"/></svg>