<svg xmlns="http://www.w3.org/2000/svg" viewBox="0 0 448 512"><!--! Font Awesome Pro 6.6.0 by @fontawesome - https://fontawesome.com License - https://fontawesome.com/license (Commercial License) Copyright 2024 Fonticons, Inc. --><path d="M88 96A24 24 0 1 1 40 96a24 24 0 1 1 48 0zM64 32a64 64 0 1 0 0 128A64 64 0 1 0 64 32zM88 256a24 24 0 1 1 -48 0 24 24 0 1 1 48 0zM64 192a64 64 0 1 0 0 128 64 64 0 1 0 0-128zm0 200a24 24 0 1 1 0 48 24 24 0 1 1 0-48zM0 416a64 64 0 1 0 128 0A64 64 0 1 0 0 416zM248 96a24 24 0 1 1 -48 0 24 24 0 1 1 48 0zM224 32a64 64 0 1 0 0 128 64 64 0 1 0 0-128zm0 200a24 24 0 1 1 0 48 24 24 0 1 1 0-48zm-64 24a64 64 0 1 0 128 0 64 64 0 1 0 -128 0zm88 160a24 24 0 1 1 -48 0 24 24 0 1 1 48 0zm-24-64a64 64 0 1 0 0 128 64 64 0 1 0 0-128zM384 72a24 24 0 1 1 0 48 24 24 0 1 1 0-48zM320 96a64 64 0 1 0 128 0A64 64 0 1 0 320 96zm88 160a24 24 0 1 1 -48 0 24 24 0 1 1 48 0zm-24-64a64 64 0 1 0 0 128 64 64 0 1 0 0-128zm0 200a24 24 0 1 1 0 48 24 24 0 1 1 0-48zm-64 24a64 64 0 1 0 128 0 64 64 0 1 0 -128 0z"/></svg>