<svg xmlns="http://www.w3.org/2000/svg" viewBox="0 0 512 512"><!--! Font Awesome Pro 6.6.0 by @fontawesome - https://fontawesome.com License - https://fontawesome.com/license (Commercial License) Copyright 2024 Fonticons, Inc. --><path d="M352 126.1L352 64 448 0l39.2 31.4c21.7 17.4 23.5 49.8 3.8 69.5c-14.5 14.5-36.6 17.7-54.5 8.5L308.2 237.8c13.5 9.4 24.9 10.7 32.7 10.3c5.5-.3 10-1.6 13-2.8c1.5-.6 2.6-1.1 3.2-1.4l.4-.2 16-10.1L387 247.2l15.8 15.8 17 17-17 17-28.8 28.8c-12.3 12.3-27.1 19.6-38.2 25.1l-1.2 .6c-12.4 6.2-20.6 10.5-26.9 16.8c-10.7 10.7-15 24.8-20.8 46.4l-.5 1.9c-5.2 19.4-12.2 45.4-32.7 66c-19.1 19.1-44.1 29-69.1 29.7c-26.8 .7-53.9-9.2-74.4-29.7l-.1-.1s0 0 0 0L29.7 401c0 0 0 0 0 0c-39.6-39.6-39.6-103.9 0-143.5c20.4-20.4 46.2-27.4 65.4-32.6l1.8-.5c21.4-5.8 35.4-10.2 46-20.8c6.3-6.3 10.6-14.5 16.8-26.9l.6-1.2c5.5-11.1 12.9-25.9 25.1-38.2l40.7-40.7 17-17 17 17 15.8 15.8 14.4 14.4-11.7 16.4-.1 .1c-.1 .2-.4 .6-.7 1.1c-.7 1.1-1.7 2.8-2.8 5.1c-2.3 4.6-4.9 11-6.3 18.3c-2.1 10.6-1.9 23 5.8 35.8L352 126.1zm-160 128l17 17 32 32 17 17L224 353.9l-17-17-32-32-17-17L192 254.1zm-64 64l17 17 32 32 17 17L160 417.9l-17-17-32-32-17-17L128 318.1zm91.5-146.9c-6.2 6.2-10.5 14.4-16.7 26.8l-.5 1.1c-5.5 11.1-12.9 26-25.3 38.4c-20.4 20.4-46.3 27.5-65.6 32.7l-1.8 .5c-21.4 5.8-35.4 10.1-46 20.7c-20.9 20.9-20.9 54.8 0 75.6l.1 .1s0 0 0 0l80.4 81.2c0 0 0 0 0 0c10.8 10.8 25 16 39.2 15.6c13.2-.3 26.3-5.6 36.4-15.6c10.7-10.7 15-24.7 20.7-46.3l.5-1.8c5.2-19.4 12.2-45.5 32.7-66.1c12.4-12.4 27.2-19.8 38.4-25.3l1.1-.5c9.3-4.6 16.2-8.2 21.7-12.3c-22-.8-47.9-9.6-73.1-34.8L250 249.3c-25.9-25.9-32-54.6-30.1-78.5l-.4 .4z"/></svg>