<svg xmlns="http://www.w3.org/2000/svg" viewBox="0 0 640 512"><!--! Font Awesome Pro 6.6.0 by @fontawesome - https://fontawesome.com License - https://fontawesome.com/license (Commercial License) Copyright 2024 Fonticons, Inc. --><path d="M120 64l24 0 0 24 0 214.1 47-47 17-17 17 17 95 95 95-95 17-17 17 17 47 47L496 88l0-24 24 0 96 0 24 0 0 24 0 304 0 9.9-7 7-84.8 84.8-17 17-33.9-33.9 17-17L592 382.1 592 112l-48 0 0 200 0 9.9-7 7-7 7-17 17-40 40c0 0 0 0 0 0l-16 16-17 17L406.1 392l17-17 16-16c0 0 0 0 0 0l23-23L432 305.9l-88 88 0 94.1 0 24-24 0-24 0 0-24 0-94.1-88-88L177.9 336l23 23 16 16 1 1 16 16L200 425.9l-16-16-1-1-16-16-40-40-17-17-7-7-7-7 0-9.9 0-200-48 0 0 270.1 77.8 77.8 17 17-33.9 33.9-17-17L7 409l-7-7L0 392 0 88 0 64l24 0 96 0z"/></svg>