<svg xmlns="http://www.w3.org/2000/svg" viewBox="0 0 640 512"><!--! Font Awesome Pro 6.6.0 by @fontawesome - https://fontawesome.com License - https://fontawesome.com/license (Commercial License) Copyright 2024 Fonticons, Inc. --><path d="M199.2 135.1L224 159.9l96 96 96-96 24.8-24.8c14.9-14.9 23.2-35 23.2-56l0-3.6C464 33.8 430.1-.1 388.4-.1c-23 0-44.7 10.4-59.1 28.4L320 39.9l-9.3-11.6C296.4 10.4 274.6-.1 251.6-.1C209.9-.1 176 33.8 176 75.6l0 3.6c0 21 8.3 41.1 23.2 56zM144 64l-24 0L24 64 0 64 0 88 0 392l0 9.9 7 7 84.8 84.8 17 17 33.9-33.9-17-17L48 382.1 48 112l48 0 0 200 0 9.9 7 7 7 7 17 17 40 40 16 16 1 1 16 16L233.9 392l-16-16-1-1-16-16-23-23L208 305.9l88 88 0 94.1 0 24 24 0 24 0 0-24 0-94.1 88-88L462.1 336l-23 23c0 0 0 0 0 0l-16 16-17 17L440 425.9l17-17 16-16c0 0 0 0 0 0l40-40 17-17 7-7 7-7 0-9.9 0-200 48 0 0 270.1-77.8 77.8-17 17 33.9 33.9 17-17L633 409l7-7 0-9.9 0-304 0-24-24 0-96 0-24 0 0 24 0 214.1-47-47-17-17-17 17-95 95-95-95-17-17-17 17-47 47L144 88l0-24z"/></svg>