<svg xmlns="http://www.w3.org/2000/svg" viewBox="0 0 640 512"><!--! Font Awesome Pro 6.6.0 by @fontawesome - https://fontawesome.com License - https://fontawesome.com/license (Commercial License) Copyright 2024 Fonticons, Inc. --><path d="M344 34.9L344 8 296 8l0 26.8c-4.7 1.2-9.3 2.7-13.6 4.7c-15.8 7.2-30 20.7-33.4 40.7c-1.9 10.9-.9 21.6 3.7 31.4c4.5 9.6 11.6 16.3 18.7 21.1c12.1 8.2 28 13 39.6 16.5l2.3 .7c14.1 4.3 22.8 7.3 28.1 11.1s2.2 10.3-3.2 12.6c-5.2 2.2-14.3 3.5-26.6 1.6c-5.7-.9-15.9-4.4-25.4-7.6c-2.3-.8-4.5-1.5-6.6-2.2l-22.8-7.6-15.2 45.5 22.8 7.6c1.1 .4 2.6 .9 4.2 1.4c7 2.4 18 6.2 27.3 8.5l0 27.2 48 0 0-26.2c4.5-1 8.9-2.4 13-4.2c16.7-7.2 30.4-21.1 34-41.7c1.9-11 1.1-21.8-3.2-31.7c-4.3-9.8-11.1-16.9-18.2-22.1c-12.7-9.2-29.4-14.3-41.4-17.9l-1-.3c-14.4-4.3-23.3-7.2-28.8-10.9c-5-3.4-.4-7.8 3.8-9.7c5.6-2.5 14.7-4.1 26.4-2.3c4.3 .7 17.6 3.3 21.3 4.3L373 91.4 385.4 45l-23.2-6.2c-3.9-1-11.8-2.6-18.2-3.9zM144 64l-24 0L24 64 0 64 0 88 0 392l0 9.9 7 7 84.8 84.8 17 17 33.9-33.9-17-17L48 382.1 48 112l48 0 0 200 0 9.9 7 7 7 7 17 17 40 40 16 16 1 1 16 16L233.9 392l-16-16-1-1-16-16-23-23L208 305.9l88 88 0 94.1 0 24 24 0 24 0 0-24 0-94.1 88-88L462.1 336l-23 23c0 0 0 0 0 0l-16 16-17 17L440 425.9l17-17 16-16c0 0 0 0 0 0l40-40 17-17 7-7 7-7 0-9.9 0-200 48 0 0 270.1-77.8 77.8-17 17 33.9 33.9 17-17L633 409l7-7 0-9.9 0-304 0-24-24 0-96 0-24 0 0 24 0 214.1-47-47-17-17-17 17-95 95-95-95-17-17-17 17-47 47L144 88l0-24z"/></svg>