<svg xmlns="http://www.w3.org/2000/svg" viewBox="0 0 576 512"><!--! Font Awesome Pro 6.6.0 by @fontawesome - https://fontawesome.com License - https://fontawesome.com/license (Commercial License) Copyright 2024 Fonticons, Inc. --><path d="M104 0L80 0l0 24c0 83.9 68.1 152 152 152l32 0 0 80 0 24 48 0 0-24 0-80 0-24C312 68.1 243.9 0 160 0L104 0zM232 128c-49.2 0-90.4-34.1-101.2-80L160 48c49.2 0 90.4 34.1 101.2 80L232 128zM168 304l-7.3 0-6 4-90 60L24 368 0 368l0 48 24 0 48 0 7.3 0 6-4 90-60L360 352l0 32-40 0-24 0-40 0-24 0 0 48 24 0 40 0 24 0 48 0 32 0 7 0 5.9-3.7 80.4-51 15 24L416.6 464 24 464 0 464l0 48 24 0 400 0 7.4 0 6.1-4.2 116.8-80 19-13-12.2-19.5-40-64-12.8-20.5-20.4 13L408 374.5l0-46.5 0-24-24 0-216 0zM352 176c83.9 0 152-68.1 152-152l0-24L480 0 424 0c-44.1 0-83.9 18.8-111.6 48.8c10 14.7 17.9 30.9 23.3 48.3C354 67.6 386.7 48 424 48l29.2 0c-10.8 45.9-52 80-101.2 80l-9.6 0c1 7.9 1.6 15.9 1.6 24l0 24 8 0z"/></svg>