<svg xmlns="http://www.w3.org/2000/svg" viewBox="0 0 576 512"><!--! Font Awesome Pro 6.6.0 by @fontawesome - https://fontawesome.com License - https://fontawesome.com/license (Commercial License) Copyright 2024 Fonticons, Inc. --><path d="M224 0l96 0 0 80 80 0 0 96-80 0 0 80-96 0 0-80-80 0 0-96 80 0 0-80zM160.7 304l7.3 0 216 0 24 0 0 24 0 46.5 79.9-50.8 20.4-13 12.8 20.5 40 64 12.2 19.5-19 13-116.8 80-6.1 4.2-7.4 0L24 512 0 512l0-48 24 0 392.6 0 91.7-62.8-15-24-80.4 51L407 432l-7 0-32 0-48 0-24 0-40 0-24 0 0-48 24 0 40 0 24 0 40 0 0-32-184.7 0-90 60-6 4L72 416l-48 0L0 416l0-48 24 0 40.7 0 90-60 6-4z"/></svg>