<svg xmlns="http://www.w3.org/2000/svg" viewBox="0 0 512 512"><!--! Font Awesome Pro 6.6.0 by @fontawesome - https://fontawesome.com License - https://fontawesome.com/license (Commercial License) Copyright 2024 Fonticons, Inc. --><path d="M192 0l24 0 80 0 24 0 0 24 0 8 56 0 24 0 0 24 0 40 56 0 24 0 0 24 0 184 0 24s0 0 0 0c0 101.6-82.4 184-184 184l-8.5 0c-67.9 0-133-27-181-75L13.9 344.5 7 337.5l-7-7 0-9.9 0-42.7 0-9.9 7-7 35.2-35.2 17-17 17 17 28.3 28.3 7.5 7.5L112 56l0-24 24 0 56 0s0 0 0 0l0-8 0-24zM160 80l0 224 0 9.9-7 7-7.7 7.7-17 17-17-17L70.5 287.9 59.2 276.6 48 287.8l0 22.9 92.5 92.5c39 39 91.9 60.9 147.1 60.9l8.5 0c75.1 0 136-60.9 136-136l0-24 0-24s0 0 0 0l0-136-32 0 0 88 0 24-48 0 0-24 0-120 0-24s0 0 0 0l0-8-32 0 0 152 0 24-48 0 0-24 0-176 0-8-32 0 0 8 0 24s0 0 0 0l0 152 0 24-48 0 0-24 0-152-32 0zm80 240a16 16 0 1 1 32 0 16 16 0 1 1 -32 0zm48 48a16 16 0 1 1 32 0 16 16 0 1 1 -32 0zm80-64a16 16 0 1 1 0 32 16 16 0 1 1 0-32zM320 416a16 16 0 1 1 32 0 16 16 0 1 1 -32 0zm-64-16a16 16 0 1 1 0 32 16 16 0 1 1 0-32zm-80-32a16 16 0 1 1 32 0 16 16 0 1 1 -32 0z"/></svg>