<svg xmlns="http://www.w3.org/2000/svg" viewBox="0 0 576 512"><!--! Font Awesome Pro 6.6.0 by @fontawesome - https://fontawesome.com License - https://fontawesome.com/license (Commercial License) Copyright 2024 Fonticons, Inc. --><path d="M447.5 136L424 136l-71.5 0L373.3 32l-49 0L303.5 136l-111 0L213.3 32l-49 0L143.5 136 56 136l-7.5 0-9.6 48L56 184l77.9 0L105.1 328 24 328l-13.9 0L.5 376 24 376l71.5 0L74.7 480l49 0 20.8-104 111 0L234.7 480l49 0 59.2-296 51.8 0c13.7-10.8 29.9-18.4 47.6-21.9l5.2-26.1zM182.9 184l111 0L265.1 328l-111 0 28.8-144zM464 240c17.7 0 32 14.3 32 32l0 48-64 0 0-48c0-17.7 14.3-32 32-32zm-80 32l0 48-32 0 0 192 224 0 0-192-32 0 0-48c0-44.2-35.8-80-80-80s-80 35.8-80 80z"/></svg>