<svg xmlns="http://www.w3.org/2000/svg" viewBox="0 0 640 512"><!--! Font Awesome Pro 6.6.0 by @fontawesome - https://fontawesome.com License - https://fontawesome.com/license (Commercial License) Copyright 2024 Fonticons, Inc. --><path d="M197.9 201.4C225.6 215.1 270 224 320 224c23.6 0 46-2 66-5.5c-1.3-4.2-2-8.7-2-13.2c0-22 15.7-40.4 36.6-44.4C397.1 131.1 360.8 112 320 112c-57.2 0-105.7 37.6-122.1 89.4zM320 64c70.2 0 130.8 41.1 159 100.5c6.1-2.9 12.8-4.5 19.7-4.5c25 0 45.3 20.3 45.3 45.3c0 12-4.8 23.5-13.3 32L528 240l2.7 2.7c.8 .8 1.6 1.6 2.3 2.5L624.9 282l15.1 6 0 16.2 0 15.8c0 17.6-8.9 34.5-25.1 49.8c-16.2 15.3-39.6 29.1-68.6 40.7C488.4 433.7 408.4 448 320 448s-168.4-14.3-226.3-37.5c-29-11.6-52.4-25.4-68.6-40.7l16.5-17.4L25.1 369.8C8.9 354.5 0 337.6 0 320l0-15.8L0 288l15.1-6 129.2-51.7C149.3 137.6 226.1 64 320 64zM429.3 320c-16.7 0-31.3-9-39.1-22.5c-21.2 4.1-45 6.5-70.2 6.5c-62.4 0-116.5-14.3-142.9-35.2l-.8 .3L48 320.5c.2 1.5 1.5 6.4 10.1 14.5c10.3 9.8 27.8 20.8 53.4 31C162.5 386.3 236.2 400 320 400s157.5-13.7 208.4-34.1c25.6-10.2 43.1-21.2 53.4-31c8.6-8.1 9.9-13 10.1-14.5l-54.7-21.9c-8 12.9-22.2 21.4-38.5 21.4c-12 0-23.5-4.8-32-13.3L464 304l-2.7 2.7c-8.5 8.5-20 13.3-32 13.3zM464 272l32-32-32-32-32 32 32 32z"/></svg>