<svg xmlns="http://www.w3.org/2000/svg" viewBox="0 0 576 512"><!--! Font Awesome Pro 6.6.0 by @fontawesome - https://fontawesome.com License - https://fontawesome.com/license (Commercial License) Copyright 2024 Fonticons, Inc. --><path d="M256 163.9L222.1 130l-24.2-24.2C181.4 89.3 159 80 135.8 80C87.3 80 48 119.3 48 167.8c0 23.3 9.2 45.6 25.7 62.1l24.2 24.2L256 412.1l4.5-4.5c4 17.3 10.5 33.7 19.2 48.6L256 480l-33.9-33.9L64 288 39.8 263.8C14.3 238.3 0 203.8 0 167.8C0 92.8 60.8 32 135.8 32c36 0 70.5 14.3 96 39.8L256 96l24.2-24.2c0 0 0 0 0 0c25.5-25.4 60-39.7 96-39.7C451.2 32 512 92.8 512 167.8c0 13.8-2.1 27.4-6.2 40.4c-14.4-6.6-29.8-11.4-45.9-14c2.7-8.5 4.1-17.4 4.1-26.4c0-48.5-39.3-87.8-87.8-87.8c-23.3 0-45.6 9.2-62.1 25.7L289.9 130 256 163.9zM432 224a144 144 0 1 1 0 288 144 144 0 1 1 0-288zm59.3 107.3L502.6 320 480 297.4l-11.3 11.3L432 345.4l-36.7-36.7L384 297.4 361.4 320l11.3 11.3L409.4 368l-36.7 36.7L361.4 416 384 438.6l11.3-11.3L432 390.6l36.7 36.7L480 438.6 502.6 416l-11.3-11.3L454.6 368l36.7-36.7z"/></svg>