<svg xmlns="http://www.w3.org/2000/svg" viewBox="0 0 512 512"><!--! Font Awesome Pro 6.6.0 by @fontawesome - https://fontawesome.com License - https://fontawesome.com/license (Commercial License) Copyright 2024 Fonticons, Inc. --><path d="M81.8 212.4C111.1 233.1 164.1 256 256 256s144.9-22.9 174.2-43.6c14.8-10.4 24-20.6 29.4-27.8l.5-.6-.5-.6c-5.4-7.2-14.6-17.3-29.4-27.8C400.9 134.9 347.9 112 256 112s-144.9 22.9-174.2 43.6C67 166 57.8 176.2 52.4 183.4L52 184l.5 .6c5.4 7.2 14.6 17.3 29.4 27.8zm428.4-37.6L488 184l22.2-9.2c1.2 2.9 1.8 6.1 1.8 9.2l0 144 0 4.8-1.8 4.4L488 328c22.2 9.2 22.2 9.2 22.1 9.2s0 0 0 0c0 0 0 .1 0 .1l-.1 .2-.2 .5c-.2 .4-.4 .9-.7 1.4c-.5 1.1-1.3 2.6-2.3 4.3c-2 3.5-4.8 8.2-8.9 13.6c-8.1 10.8-20.9 24.7-40.1 38.2C419.3 422.9 356.2 448 256 448s-163.3-25.1-201.9-52.4C34.9 382 22.1 368.2 14 357.4C10 352 7.1 347.3 5.1 343.8c-1-1.7-1.7-3.2-2.3-4.3c-.3-.6-.5-1-.7-1.4l-.2-.5-.1-.2c0 0 0-.1 0-.1c0 0 0 0 0 0L24 328 1.8 337.2 0 332.8 0 328 0 184c0-3.1 .6-6.3 1.8-9.2L24 184c-22.2-9.2-22.2-9.2-22.1-9.2s0 0 0 0c0 0 0-.1 0-.1l.1-.2 .2-.5c.2-.4 .4-.9 .7-1.4c.5-1.1 1.3-2.6 2.3-4.3c2-3.5 4.8-8.1 8.9-13.6c8.1-10.8 20.9-24.7 40.1-38.2C92.7 89.1 155.8 64 256 64s163.3 25.1 201.9 52.4c19.2 13.6 32 27.4 40.1 38.2c4.1 5.4 6.9 10.1 8.9 13.6c1 1.7 1.7 3.2 2.3 4.3c.3 .6 .5 1 .7 1.4l.2 .5 .1 .2c0 0 0 .1 0 .1c0 0 0 0 0 0zM48 247.1l0 74.9c1 1.7 2.5 3.9 4.4 6.5c5.4 7.2 14.6 17.3 29.4 27.8C111.1 377.1 164.1 400 256 400s144.9-22.9 174.2-43.6c14.8-10.4 24-20.6 29.4-27.8c2-2.6 3.4-4.9 4.4-6.5l0-74.9c-2 1.5-4 3-6.1 4.5C419.3 278.9 356.2 304 256 304s-163.3-25.1-201.9-52.4c-2.1-1.5-4.1-3-6.1-4.5z"/></svg>