<svg xmlns="http://www.w3.org/2000/svg" viewBox="0 0 640 512"><!--! Font Awesome Pro 6.6.0 by @fontawesome - https://fontawesome.com License - https://fontawesome.com/license (Commercial License) Copyright 2024 Fonticons, Inc. --><path d="M307.9 320L466.7 13 509.3 35l-240 464-6.7 13L248 512 24 512 0 512l0-24L0 344l0-24 24 0 280 0 3.9 0zM283 368l-139 0 0 96 89.4 0L283 368zM48 368l0 96 48 0 0-96-48 0zM173.3 13L302 261.7 288.4 288l-26.9 0L130.7 35 173.3 13zM496 368l-122.9 0 24.8-48L616 320l24 0 0 24 0 144 0 24-24 0-224 0-14.6 0-6.7-13L338 435.9l27-52.2L406.6 464l89.4 0 0-96zm48 0l0 96 48 0 0-96-48 0z"/></svg>