<svg xmlns="http://www.w3.org/2000/svg" viewBox="0 0 384 512"><!--! Font Awesome Pro 6.6.0 by @fontawesome - https://fontawesome.com License - https://fontawesome.com/license (Commercial License) Copyright 2024 Fonticons, Inc. --><path d="M24 0L0 0 0 48l24 0 8 0 0 72 0 9.9 7 7 119 119L39 375l-7 7 0 9.9 0 72-8 0L0 464l0 48 24 0 336 0 24 0 0-48-24 0-8 0 0-72 0-9.9-7-7-119-119L345 137l7-7 0-9.9 0-72 8 0 24 0 0-48L360 0 24 0zM304 48l0 62.1-112 112L80 110.1 80 48l224 0zM192 289.9l112 112 0 62.1L80 464l0-62.1 112-112z"/></svg>