<svg xmlns="http://www.w3.org/2000/svg" viewBox="0 0 640 512"><!--! Font Awesome Pro 6.6.0 by @fontawesome - https://fontawesome.com License - https://fontawesome.com/license (Commercial License) Copyright 2024 Fonticons, Inc. --><path d="M384 48a48 48 0 1 0 96 0 48 48 0 1 0 -96 0zM557.4 201.5l20.5 47.9 9.5 22.1 44.1-18.9-9.5-22.1-24-56-3.5-8.1-7.9-3.9-80-40-8.2-4.1-8.8 2.4-88 24-13.2 3.6-3.6 13.2-22.3 81.9L319 287 353 321l48-48 4.5-4.5 1.7-6.1 6.4-23.4 25.7 82.3-54.4 44.2-6.2 5-1.9 7.8-24 96-5.8 23.3 46.6 11.6 5.8-23.3 22.1-88.2 104.6-85c18.1-14.7 25.2-39.1 17.8-61.2l-22.7-68 36.3 18.2zm-59.2 65.1c1.1 3.2 0 6.6-2.5 8.7l-16.3 13.3L446.9 184.8c-.2-.8-.5-1.6-.9-2.3l22.1-6 30 90.1zm66.2 135.9l-24.1-60.4-39 31.7 20.4 51.1 1.8 4.6L527 433l60.8 60.8 17 17 33.9-33.9-17-17-57.3-57.3zM384.6 116.9L255 13.3l-15-12-15 12L25 173.3l-18.7 15 30 37.5 18.7-15 9-7.2L64 392l0 24 24 0 248.5 0 12-48L112 368l0-202.9L240 62.7l115.7 92.5 9-32.9 20-5.4zM160 192l0 96 96 0 0-96-96 0z"/></svg>