<svg xmlns="http://www.w3.org/2000/svg" viewBox="0 0 576 512"><!--! Font Awesome Pro 6.6.0 by @fontawesome - https://fontawesome.com License - https://fontawesome.com/license (Commercial License) Copyright 2024 Fonticons, Inc. --><path d="M303.5 13.7L288 .5 272.5 13.7l-264 224 31.1 36.6L64 253.5l0 137.4c3.8-2.6 7.8-5.5 12.3-8.7l1.1-.8L96 368l16 11.5 0-166.7L288 63.5 464 212.8l0 166.7L480 368l19.7 14.2s0 0 0 0c4.4 3.2 8.5 6.1 12.3 8.7l0-137.4 24.5 20.8 31.1-36.6-264-224zM256 224l64 0 0 64-64 0 0-64zm0-48l-48 0 0 48 0 64 0 48 48 0 64 0 48 0 0-48 0-64 0-48-48 0-64 0zM79 488.9c6.5-3.7 12.2-7.4 16.9-10.7c4.7 3.3 10.5 7 16.9 10.7c19.3 11 47.6 23.1 79.1 23.1s59.7-12.2 79.1-23.1c6.5-3.7 12.2-7.4 16.9-10.7c4.7 3.3 10.5 7 16.9 10.7c19.3 11 47.6 23.1 79.1 23.1s59.7-12.2 79.1-23.1c6.5-3.7 12.2-7.4 16.9-10.7c4.8 3.3 10.5 7 17 10.7c19.3 11 47.6 23.1 79.1 23.1l0-48c-19.7 0-39.5-7.8-55.4-16.9c-15.4-8.7-27-19.1-40-30.7l-.7-.6-.7 .6c-13 11.6-24.6 22-40 30.7c-15.9 9-35.6 16.9-55.3 16.9s-39.5-7.8-55.3-16.9c-15.4-8.7-27-19.1-40-30.7l-.7-.6-.7 .6c-13 11.6-24.6 22-40 30.7c-15.9 9-35.6 16.9-55.3 16.9s-39.5-7.8-55.3-16.9c-15.4-8.7-27.2-19.3-40.3-30.9l-.4-.4-.4 .4c-13 11.6-24.8 22.2-40.2 30.9C39.4 456.2 19.7 464 0 464l0 48c31.5 0 59.7-12.2 79-23.1z"/></svg>