<svg xmlns="http://www.w3.org/2000/svg" viewBox="0 0 640 512"><!--! Font Awesome Pro 6.6.0 by @fontawesome - https://fontawesome.com License - https://fontawesome.com/license (Commercial License) Copyright 2024 Fonticons, Inc. --><path d="M303.5 13.7L288 .5 272.5 13.7l-264 224 31.1 36.6L64 253.5 64 488l0 24 24 0 306.8 0c-18.3-12.9-34.1-29.2-46.3-48L112 464l0-251.2L288 63.5 447.5 198.8c15.4-4.4 31.7-6.8 48.5-6.8c6.4 0 12.7 .3 18.8 1L303.5 13.7zM326.6 320c6.7-23.8 18.3-45.5 33.6-64L320 256l0-64-64 0 0 64-64 0 0 64 64 0 0 64 64 0 0-64 6.6 0zM496 512a144 144 0 1 0 0-288 144 144 0 1 0 0 288zm59.3-180.7L518.6 368l36.7 36.7L566.6 416 544 438.6l-11.3-11.3L496 390.6l-36.7 36.7L448 438.6 425.4 416l11.3-11.3L473.4 368l-36.7-36.7L425.4 320 448 297.4l11.3 11.3L496 345.4l36.7-36.7L544 297.4 566.6 320l-11.3 11.3z"/></svg>