<svg xmlns="http://www.w3.org/2000/svg" viewBox="0 0 640 512"><!--! Font Awesome Pro 6.6.0 by @fontawesome - https://fontawesome.com License - https://fontawesome.com/license (Commercial License) Copyright 2024 Fonticons, Inc. --><path d="M480 48a48 48 0 1 1 96 0 48 48 0 1 1 -96 0zM402.6 201.5l-20.5 47.9-9.5 22.1-44.1-18.9 9.5-22.1 24-56 3.5-8.1 7.9-3.9 80-40 8.2-4.1 8.8 2.4 88 24 13.2 3.6 3.6 13.2 22.3 81.9L633 279 599 313l-40-40-4.5-4.5-1.7-6.1-6.4-23.4-25.7 82.3 54.4 44.2 6.2 5 1.9 7.8 24 96 5.8 23.3-46.6 11.6-5.8-23.3-22.1-88.2L434 312.6c-18.1-14.7-25.2-39.1-17.8-61.2l22.7-68-36.3 18.2zm59.2 65.1c-1.1 3.2 0 6.6 2.5 8.7l16.3 13.3 32.4-103.8c.2-.8 .5-1.6 .9-2.3l-22.1-6-30 90.1zM395.5 402.5l24.1-60.4 39 31.7-20.4 51.1-1.8 4.6L433 433l-60.8 60.8-17 17-33.9-33.9 17-17 57.3-57.3zM255 13.3L387.8 119.5l-47.2 23.6 0 .1L240 62.7 112 165.1 112 368l240 0 16 0 6.9 0-6.6 16.5L336.8 416 88 416l-24 0 0-24 0-188.5-9 7.2-18.7 15-30-37.5 18.7-15 200-160 15-12 15 12zM160 192l96 0 0 96-96 0 0-96z"/></svg>