<svg xmlns="http://www.w3.org/2000/svg" viewBox="0 0 576 512"><!--! Font Awesome Pro 6.6.0 by @fontawesome - https://fontawesome.com License - https://fontawesome.com/license (Commercial License) Copyright 2024 Fonticons, Inc. --><path d="M301.9 12.4L288 2.6l-13.9 9.8-192 136L62.5 162.3l27.7 39.2 19.6-13.9 2.1-1.5 0 65.4 2.6 1.9 1.1 .8c13.9 10 23.6 17 35.5 22.5c2.8 1.3 5.8 2.5 8.7 3.6l0-128.2L288 61.4l128 90.7 0 128.2c3-1.1 5.9-2.3 8.7-3.6c12-5.5 21.7-12.5 35.5-22.5c0 0 0 0 0 0l3.7-2.7 0-65.4 2.1 1.5 19.6 13.9 27.7-39.2-19.6-13.9-192-136zM96 366.2c4.7 3.3 10.5 7 16.9 10.7c19.3 11 47.6 23.1 79.1 23.1s59.7-12.2 79.1-23.1c6.5-3.7 12.2-7.4 16.9-10.7c4.7 3.3 10.5 7 16.9 10.7c19.3 11 47.6 23.1 79.1 23.1s59.7-12.2 79.1-23.1c6.5-3.7 12.2-7.4 16.9-10.7c4.8 3.3 10.5 7 17 10.7c19.3 11 47.6 23.1 79.1 23.1l0-48c-19.7 0-39.5-7.8-55.4-16.9c-15.4-8.7-27-19.1-40-30.7l-.7-.6-.7 .6s0 0 0 0c-13 11.6-24.6 22-40 30.7c-15.9 9-35.6 16.9-55.3 16.9s-39.5-7.8-55.3-16.9c-15.4-8.7-27-19.1-40-30.7l-.7-.6-.7 .6c-13 11.6-24.6 22-40 30.7c-15.9 9-35.6 16.9-55.3 16.9s-39.5-7.8-55.3-16.9c-15.4-8.7-27.2-19.3-40.3-30.9l-.4-.4-.4 .4s0 0 0 0c-13 11.6-24.8 22.2-40.2 30.9C39.5 344.2 19.7 352 0 352l0 48c31.5 0 59.7-12.2 79-23.1c6.5-3.7 12.2-7.4 16.9-10.7zM79 488.9c6.5-3.7 12.2-7.4 16.9-10.7c4.7 3.3 10.5 7 16.9 10.7c19.3 11 47.6 23.1 79.1 23.1s59.7-12.2 79.1-23.1c6.5-3.7 12.2-7.4 16.9-10.7c4.7 3.3 10.5 7 16.9 10.7c19.3 11 47.6 23.1 79.1 23.1s59.7-12.2 79.1-23.1c6.5-3.7 12.2-7.4 16.9-10.7c4.8 3.3 10.5 7 17 10.7c19.3 11 47.6 23.1 79.1 23.1l0-48c-19.7 0-39.5-7.8-55.4-16.9c-15.4-8.7-27-19.1-40-30.7l-.7-.6-.7 .6c-13 11.6-24.6 22-40 30.7c-15.9 9-35.6 16.9-55.3 16.9s-39.5-7.8-55.3-16.9c-15.4-8.7-27-19.1-40-30.7l-.7-.6-.7 .6c-13 11.6-24.6 22-40 30.7c-15.9 9-35.6 16.9-55.3 16.9s-39.5-7.8-55.3-16.9c-15.4-8.7-27.2-19.3-40.3-30.9l-.4-.4-.4 .4c-13 11.6-24.8 22.2-40.2 30.9C39.5 456.2 19.7 464 0 464l0 48c31.5 0 59.7-12.2 79-23.1z"/></svg>