<svg xmlns="http://www.w3.org/2000/svg" viewBox="0 0 640 512"><!--! Font Awesome Pro 6.6.0 by @fontawesome - https://fontawesome.com License - https://fontawesome.com/license (Commercial License) Copyright 2024 Fonticons, Inc. --><path d="M162 0l7.1 0L200 0c48.6 0 88 39.4 88 88l0 75.2c0 24.8 20.1 44.8 44.8 44.8l8.6 0c49.7 0 95.9 25.3 122.8 67L483.4 305c6 9.4 16.4 15 27.5 15c25 0 40.8-27 28.5-48.8l-24.4-43.4 33.3-32.3 30.4 18.2c38 22.8 61.3 63.9 61.3 108.2C640 391.5 583.5 448 513.8 448L496 448l0 40 0 24-24 0-80 0-21.2 0-2.6-21-5.4-43-53.6 0-5.4 43-2.6 21L280 512l-80 0-24 0 0-24 0-41.1c-54.3-7.8-96-54.4-96-110.9l0-32-56 0L0 304l0-24 0-48 0-12.4 10.1-7.2 56-40 6.3-4.5 7.7 0 48 0 0 48-40.3 0L48 244.4 48 256l56 0 24 0 0 24 0 8 0 48c0 35.3 28.7 64 64 64l8 0 24 0 0 24 0 40 34.8 0 5.4-43 2.6-21 21.2 0 96 0 21.2 0 2.6 21 5.4 43 34.8 0 0-40 0-24 24 0 41.8 0c43.2 0 78.2-35 78.2-78.2c0-6-.7-11.9-2-17.6c-7.7 35-38.4 63.8-79 63.8c-27.5 0-53.1-14-67.9-37.1L423.8 301c-18-28-49.1-45-82.4-45l-8.6 0c-51.3 0-92.8-41.6-92.8-92.8L240 88c0-22.1-17.9-40-40-40l-23.7 0L144 69l0 11 40 0 24 0 0 24 0 134.9 15 50.3 6.9 23-46 13.7-6.9-23-16-53.6-1-3.4 0-3.5 0-26.4 0-48 0-8 0-32-40 0-24 0 0-24 0-48 0-13 10.9-7.1 49.2-32L162 0zM388.6 176l-47.2 0-1.4 0 4.3-27.6 3.1-20.4 20.6 0 48 0 0-11L383.7 96l-44.9 0c-6.7 0-13.2 1.7-18.9 4.7L320 88c0-12.7-2-25-5.7-36.5c7.8-2.3 16.1-3.5 24.5-3.5l52 0 7.1 0 6 3.9 49.2 32L464 91l0 13 0 48 0 24-24 0-24 0-27.4 0z"/></svg>