<svg xmlns="http://www.w3.org/2000/svg" viewBox="0 0 576 512"><!--! Font Awesome Pro 6.6.0 by @fontawesome - https://fontawesome.com License - https://fontawesome.com/license (Commercial License) Copyright 2024 Fonticons, Inc. --><path d="M320 0l0 24 0 104 0 32 0 22 174.7 51 17.3 5 0 18 0 104 0 24-24 0L56 384l-24 0 0-24 0-248 0-18.3 17.6-4.9L272 27.5l0-3.5 0-24 48 0zM272 128l0-50.7-192 53L80 336l384 0 0-62L292.6 224 240 224l-16 0 0-32 16 0 32 0 0-32-32 0-16 0 0-32 16 0 32 0zM576 408l0 24 0 56 0 24-24 0-144 0-288 0-96 0L0 512l0-48 24 0 72 0 0-24 0-24 48 0 0 24 0 24 240 0 0-24 0-24 48 0 0 24 0 24 96 0 0-32 0-24 48 0z"/></svg>