<svg xmlns="http://www.w3.org/2000/svg" viewBox="0 0 448 512"><!--! Font Awesome Pro 6.6.0 by @fontawesome - https://fontawesome.com License - https://fontawesome.com/license (Commercial License) Copyright 2024 Fonticons, Inc. --><path d="M400 368L48 368l0 64 352 0 0-64zM75.3 320l57.3-78.2L152 215.4l19.4 26.4L188 264.4l56-85.6L264 148.1l20.1 30.7L376.4 320l23.6 0 0-240L48 80l0 240 27.3 0zM448 320l0 24 0 24 0 64 0 48-48 0L48 480 0 480l0-48 0-64 0-24 0-24L0 80 0 32l48 0 352 0 48 0 0 48 0 240zM80 144a32 32 0 1 1 64 0 32 32 0 1 1 -64 0z"/></svg>