<svg xmlns="http://www.w3.org/2000/svg" viewBox="0 0 512 512"><!--! Font Awesome Pro 6.6.0 by @fontawesome - https://fontawesome.com License - https://fontawesome.com/license (Commercial License) Copyright 2024 Fonticons, Inc. --><path d="M280 24l0 206.1 63-63 17-17L393.9 184l-17 17L273 305l-17 17-17-17L135 201l-17-17L152 150.1l17 17 63 63L232 24l0-24 48 0 0 24zM160 320l32 64 128 0 32-64 112 0 48 0 0 48 0 96 0 48-48 0L48 512 0 512l0-48 0-96 0-48 48 0 112 0zm202.9 85.5L349.7 432 320 432l-128 0-29.7 0-13.3-26.5L130.3 368 48 368l0 96 416 0 0-96-82.3 0-18.7 37.5z"/></svg>