<svg xmlns="http://www.w3.org/2000/svg" viewBox="0 0 512 512"><!--! Font Awesome Pro 6.6.0 by @fontawesome - https://fontawesome.com License - https://fontawesome.com/license (Commercial License) Copyright 2024 Fonticons, Inc. --><path d="M112 96L62.2 96c0-36 38.4-96 128-96c58.4 0 95 25.5 113.5 53.2C323.6 40.6 350.2 32 384 32c89.6 0 128 60 128 96l-64 0L416 96l-32 32-64.6 0c3.5 15.4 7.2 35.7 9.5 59.7c4.4 45.4 3.7 104.4-13.9 167.1c52.6 11.3 93.3 55 100 109.1c.7 5.2 1 10.6 1 16l0 32-48 0L80 512l-48 0 0-32c0-5.4 .3-10.8 1-16c7.9-63.1 61.7-112 127-112l24.9 0c26-56.3 38-110.2 43.3-151.1c1.3-9.9 2.2-19 2.8-27.1l-83.1 83.1c-25.5-25.5-40.7-95 22.6-158.4c1.3-1.3 2.7-2.7 4.1-3.9L144 64 112 96zM237.3 352l28.5 0c18.5-59.2 19.5-115.9 15.3-159.7c-.6-6.1-1.3-12-2-17.5c-.7 9.6-1.7 20.5-3.3 32.4c-5.2 39.6-16 90.6-38.5 144.9zM288 400l-128 0c-38.7 0-71 27.5-78.4 64l284.8 0c-7.4-36.5-39.7-64-78.4-64z"/></svg>