<svg xmlns="http://www.w3.org/2000/svg" viewBox="0 0 640 512"><!--! Font Awesome Pro 6.6.0 by @fontawesome - https://fontawesome.com License - https://fontawesome.com/license (Commercial License) Copyright 2024 Fonticons, Inc. --><path d="M592 128c0-44.2-35.8-80-80-80c-44 0-79.7 35.6-80 79.5l0 1c.3 44 36 79.5 80 79.5c44.2 0 80-35.8 80-80zM386.2 104C397.5 44.8 449.5 0 512 0c70.7 0 128 57.3 128 128s-57.3 128-128 128c-62.5 0-114.5-44.8-125.8-104L304 152l0 48 0 24-48 0 0-24 0-48-48 0 0 48 0 24-48 0 0-24 0-72 0-24 24 0 202.2 0zM48 384c0 44.2 35.8 80 80 80c44 0 79.7-35.6 80-79.5l0-1c-.3-44-36-79.5-80-79.5c-44.2 0-80 35.8-80 80zm205.8 24C242.5 467.2 190.5 512 128 512C57.3 512 0 454.7 0 384s57.3-128 128-128c62.5 0 114.5 44.8 125.8 104l82.2 0 0-48 0-24 48 0 0 24 0 48 48 0 0-48 0-24 48 0 0 24 0 72 0 24-24 0-202.2 0z"/></svg>