<svg xmlns="http://www.w3.org/2000/svg" viewBox="0 0 576 512"><!--! Font Awesome Pro 6.6.0 by @fontawesome - https://fontawesome.com License - https://fontawesome.com/license (Commercial License) Copyright 2024 Fonticons, Inc. --><path d="M344 48s0 0 0 0l.3 0c22.9 0 53 15.2 78.8 40.9s40.9 55.9 40.9 78.8l0 .3s0 0 0 0c0 37.4-24 70.7-59.5 82.5l-44.1 14.7-4.2 1.4-3.4 2.8-61.9 50.7c-12.6 10.3-28.3 15.9-44.5 15.9c-38.8 0-70.3-31.5-70.3-70.3c0-16.2 5.6-32 15.9-44.5l50.7-61.9 2.8-3.4 1.4-4.2 14.7-44.1C273.3 72 306.6 48 344 48zm0-48s0 0 0 0C285.9 0 234.3 37.2 215.9 92.3l-13.3 39.9-47.9 58.5c-17.3 21.1-26.7 47.6-26.7 74.9c0 24 7.1 46.3 19.4 65L18.2 459.8l-17 17 33.9 33.9 17-17L181.4 364.6c18.6 12.3 41 19.4 65 19.4c27.3 0 53.8-9.4 74.9-26.7l58.5-47.9 39.9-13.3c55.1-18.4 92.3-70 92.3-128.1c0 0 0 0 0 0l0-.3c0-40.8-24.8-82.5-55-112.7S385.1 0 344.3 0L344 0zM464 432a32 32 0 1 1 64 0 32 32 0 1 1 -64 0zm112 0a80 80 0 1 0 -160 0 80 80 0 1 0 160 0z"/></svg>