<svg xmlns="http://www.w3.org/2000/svg" viewBox="0 0 512 512"><!--! Font Awesome Pro 6.6.0 by @fontawesome - https://fontawesome.com License - https://fontawesome.com/license (Commercial License) Copyright 2024 Fonticons, Inc. --><path d="M48 172c0-68.5 55.5-124 124-124c65 0 118.3 50 123.6 113.5C217.1 171.5 153.4 228.9 134 304c-3.9 15.3-6 31.4-6 48l48 0 288 0 48 0c0-16.6-2.1-32.7-6-48c-19.4-75.4-83.4-132.9-162.3-142.6C338.2 71.4 263.4 0 172 0C77 0 0 77 0 172L0 512l48 0 0-340zm272 36c62.7 0 116 40.1 135.8 96l-271.6 0c19.8-55.9 73.1-96 135.8-96zm0 240c35.3 0 64-28.7 64-64l-128 0c0 35.3 28.7 64 64 64z"/></svg>