<svg xmlns="http://www.w3.org/2000/svg" viewBox="0 0 640 512"><!--! Font Awesome Pro 6.6.0 by @fontawesome - https://fontawesome.com License - https://fontawesome.com/license (Commercial License) Copyright 2024 Fonticons, Inc. --><path d="M112 80l416 0 0 240 48 0 0-240 0-48-48 0L112 32 64 32l0 48 0 240 48 0 0-240zM51.9 400l536.2 0-32 32L83.9 432l-32-32zM640 416l0-16 0-48-48 0L48 352 0 352l0 48 0 16 64 64 512 0 64-64zM176 128l-16 0 0 16 0 80 0 16 16 0 64 0 16 0 0-16 0-80 0-16-16 0-64 0zm16 80l0-48 32 0 0 48-32 0zm112-80l-16 0 0 32 16 0 0 64 0 16 32 0 0-16 0-80 0-16-16 0-16 0zm80 0l0 16 0 80 0 16 16 0 64 0 16 0 0-16 0-80 0-16-16 0-64 0-16 0zm32 32l32 0 0 48-32 0 0-48zM192 272l-16 0 0 32 16 0 0 16 32 0 0-32 0-16-16 0-16 0zm256 0l-16 0-16 0-16 0 0 32 16 0 0 16 32 0 0-32 0-16zm-80 16l0-16-16 0-64 0-16 0 0 16 0 32 32 0 0-16 32 0 0 16 32 0 0-32z"/></svg>