<svg xmlns="http://www.w3.org/2000/svg" viewBox="0 0 640 512"><!--! Font Awesome Pro 6.6.0 by @fontawesome - https://fontawesome.com License - https://fontawesome.com/license (Commercial License) Copyright 2024 Fonticons, Inc. --><path d="M112 80l416 0 0 240 48 0 0-240 0-48-48 0L112 32 64 32l0 48 0 240 48 0 0-240zM51.9 400l536.2 0-32 32L83.9 432l-32-32zM640 416l0-16 0-48-48 0L48 352 0 352l0 48 0 16 64 64 512 0 64-64zM281 177l17-17L264 126.1l-17 17-48 48-17 17 17 17 48 48 17 17L297.9 256l-17-17-31-31 31-31zM393 143l-17-17L342.1 160l17 17 31 31-31 31-17 17L376 289.9l17-17 48-48 17-17-17-17-48-48z"/></svg>