<svg xmlns="http://www.w3.org/2000/svg" viewBox="0 0 576 512"><!--! Font Awesome Pro 6.6.0 by @fontawesome - https://fontawesome.com License - https://fontawesome.com/license (Commercial License) Copyright 2024 Fonticons, Inc. --><path d="M291.3 0c-1.1 0-2.2 0-3.3 0C128.9 0 0 78.8 0 176c0 60.6 50.2 114.1 126.6 145.8l44.3 20.5c22.6 10.4 37.1 33 37.1 57.9c0 35.2-28.6 63.8-63.8 63.8L56 464l-24 0 0 48 24 0 88.2 0C205.9 512 256 461.9 256 400.2c0-17.8-4.2-34.9-11.9-50.2c14.3 1.3 29 2 43.9 2c159.1 0 288-78.8 288-176c0-76.2-79.2-141.1-190.1-165.6l6.5 13.1L449 51.8l0 29.3c48.5 23.4 79 57.3 79 94.9c0 70.7-107.5 128-240 128S48 246.7 48 176c0-58.1 72.7-107.2 172.2-122.8l59.3-29.7L291.3 0zM469.3 405.3L416 432l53.3 26.7L496 512l26.7-53.3L576 432l-53.3-26.7L496 352l-26.7 53.3zM336 0L309.3 53.3 256 80l53.3 26.7L336 160l26.7-53.3L416 80 362.7 53.3 336 0z"/></svg>