<svg xmlns="http://www.w3.org/2000/svg" viewBox="0 0 448 512"><!--! Font Awesome Pro 6.6.0 by @fontawesome - https://fontawesome.com License - https://fontawesome.com/license (Commercial License) Copyright 2024 Fonticons, Inc. --><path d="M224 288l-48 0 0 48 0 28.1L67.9 256 176 147.9l0 28.1 0 48 48 0 80 0 0 64-80 0zM33.9 289.9L160 416l16 0 48 0 0-32 0-16 0-32 48 0 32 0 48 0 0-48 0-64 0-48-48 0-32 0-48 0 0-32 0-16 0-32-48 0-16 0L33.9 222.1 0 256l33.9 33.9zM400 88l0 336 0 24 48 0 0-24 0-336 0-24-48 0 0 24z"/></svg>