<svg xmlns="http://www.w3.org/2000/svg" viewBox="0 0 640 512"><!--! Font Awesome Pro 6.6.0 by @fontawesome - https://fontawesome.com License - https://fontawesome.com/license (Commercial License) Copyright 2024 Fonticons, Inc. --><path d="M0 88L0 64l48 0 0 24 0 336 0 24L0 448l0-24L0 88zM336 232l-48 0 0-48 0-20.1L195.9 256 288 348.1l0-20.1 0-48 48 0 256 0 0-48-256 0zM128 256l33.9-33.9L288 96l48 0 0 40 0 8 0 40 48 0 208 0 48 0 0 48 0 48 0 48-48 0-208 0-48 0 0 40 0 8 0 40-48 0L161.9 289.9 128 256z"/></svg>