<svg xmlns="http://www.w3.org/2000/svg" viewBox="0 0 640 512"><!--! Font Awesome Pro 6.6.0 by @fontawesome - https://fontawesome.com License - https://fontawesome.com/license (Commercial License) Copyright 2024 Fonticons, Inc. --><path d="M448 176c0 27.2-8.4 52.3-22.8 72.9c-3.7 5.3-8 11.3-12.7 17.7c0 0 0 0 0 0s0 0 0 0s0 0 0 0s0 0 0 0c-12.9 17.7-28.3 38.9-39.8 59.8c-10.4 19-15.7 38.8-18.3 57.5l48.6 0c2.2-12 5.9-23.7 11.8-34.5c9.9-18 22.2-34.9 34.5-51.8c0 0 0 0 0 0s0 0 0 0s0 0 0 0c5.2-7.1 10.4-14.2 15.4-21.4c19.8-28.5 31.4-63 31.4-100.3C496 78.8 417.2 0 320 0S144 78.8 144 176c0 37.3 11.6 71.9 31.4 100.3c5 7.2 10.2 14.3 15.4 21.4c0 0 0 0 0 0s0 0 0 0c12.3 16.8 24.6 33.7 34.5 51.8c5.9 10.8 9.6 22.5 11.8 34.5l48.6 0c-2.6-18.7-7.9-38.6-18.3-57.5c-11.5-20.9-26.9-42.1-39.8-59.8c0 0 0 0 0 0s0 0 0 0c-4.7-6.4-9-12.4-12.8-17.7C200.4 228.3 192 203.2 192 176c0-70.7 57.3-128 128-128s128 57.3 128 128zm-176 0c0-26.5 21.5-48 48-48l0-32c-44.2 0-80 35.8-80 80l32 0zM240 512l160 0 0-96-160 0 0 96zM87.3 16L67.3 2.7 40.7 42.7 60.7 56l6 4 24 16 20 13.3 26.6-39.9L117.3 36l-24-16-6-4zM579.3 56l20-13.3L572.7 2.7 552.7 16l-6 4-24 16-20 13.3 26.6 39.9 20-13.3 24-16 6-4zM24 160L0 160l0 48 24 0 48 0 24 0 0-48-24 0-48 0zm544 0l-24 0 0 48 24 0 48 0 24 0 0-48-24 0-48 0zM117.3 332l20-13.3-26.6-39.9L90.7 292l-24 16-6 4-20 13.3 26.6 39.9 20-13.3 6-4 24-16zm432-39.9l-20-13.3-26.6 39.9 20 13.3 24 16 6 4 20 13.3 26.6-39.9-20-13.3-6-4-24-16z"/></svg>