<svg xmlns="http://www.w3.org/2000/svg" viewBox="0 0 320 512"><!--! Font Awesome Pro 6.6.0 by @fontawesome - https://fontawesome.com License - https://fontawesome.com/license (Commercial License) Copyright 2024 Fonticons, Inc. --><path d="M160.5 0c-2.1 0-4.2 .2-6.4 .7L0 39.3 0 88.7l160-40L160 0l.5 0zM0 184.7l320-80 0-49.5L0 135.3l0 49.5zm0 96l320-80 0-49.5L0 231.3l0 49.5zm320-33.5L194.2 278.7 176 283.3l0 18.7 0 82-32 0 0-93.1-48 12L96 384l-32 0 0 96 72 0 0 8 0 24 48 0 0-24 0-8 72 0 0-96-32 0 0-63.3 96-24 0-49.5z"/></svg>