<svg xmlns="http://www.w3.org/2000/svg" viewBox="0 0 640 512"><!--! Font Awesome Pro 6.6.0 by @fontawesome - https://fontawesome.com License - https://fontawesome.com/license (Commercial License) Copyright 2024 Fonticons, Inc. --><path d="M464 192c0 16.3-7.7 42-24.7 75.4c-5.9 11.6-12.6 23.5-19.9 35.4l-56.1-43.5C385.4 245 400 220.2 400 192c0-44.2-35.8-80-80-80c-35.3 0-65.3 22.9-75.9 54.7l-52.2-40.5C215.8 79.8 264.2 48 320 48c79.5 0 144 64.5 144 144zM153.5 96.4L48.4 14.8 29.4 .1 0 38 19 52.7 591.5 497.2l19 14.7L639.9 474l-19-14.7L457.5 332.4C488.3 282.6 512 231.4 512 192C512 86 426 0 320 0C248.8 0 186.6 38.8 153.5 96.4zM317.8 223.9l-28.1-21.8c-1.1-3.2-1.6-6.6-1.6-10.1c0-17.7 14.3-32 32-32s32 14.3 32 32s-14.3 32-32 32c-.8 0-1.5 0-2.2-.1zm-117 43.5c-3.8-7.4-7.1-14.5-10-21.1l-62.6-49.3c4 83.4 106.6 215.3 160.1 278.7C307.2 498.1 320 512 320 512s12.8-13.9 31.8-36.4c14.2-16.8 31.9-38.5 50.3-62.8l-37.7-29.7c-15.9 21.1-31.3 40.2-44.4 55.8c-16.5-19.8-36.9-45.2-57.2-73.1c-23.2-31.9-45.6-66.2-62.1-98.3z"/></svg>