<svg xmlns="http://www.w3.org/2000/svg" viewBox="0 0 512 512"><!--! Font Awesome Pro 6.6.0 by @fontawesome - https://fontawesome.com License - https://fontawesome.com/license (Commercial License) Copyright 2024 Fonticons, Inc. --><path d="M96 80l320 0 0 112 48 0 0-112 0-48-48 0L96 32 48 32l0 48 0 112 48 0L96 80zm0 192l0 160-48 0 0-160 48 0zM48 224L0 224l0 48L0 432l0 48 48 0 48 0 48 0 0-32 224 0 0 32 48 0 48 0 48 0 0-48 0-160 0-48-48 0-48 0-48 0 0 48 0 16-224 0 0-16 0-48-48 0-48 0zm96 112l224 0 0 64-224 0 0-64zm272-64l48 0 0 160-48 0 0-160z"/></svg>