<svg xmlns="http://www.w3.org/2000/svg" viewBox="0 0 512 512"><!--! Font Awesome Pro 6.6.0 by @fontawesome - https://fontawesome.com License - https://fontawesome.com/license (Commercial License) Copyright 2024 Fonticons, Inc. --><path d="M208 368c83 0 151.2-63.1 159.2-144l48.2 0c-3.2 42.6-19.3 81.6-44.3 113.1l124 124 17 17L478.1 512l-17-17-124-124C301.7 399.2 256.8 416 208 416c-53.4 0-102-20.1-138.9-53.1L24 408 0 384 0 256l128 0 24 24-48.9 48.9C131.2 353.2 167.9 368 208 368zM312.9 87.1C284.8 62.8 248.1 48 208 48C125 48 56.8 111.1 48.8 192L.6 192C8.8 84.6 98.5 0 208 0c53.4 0 102 20.1 138.9 53.1L392 8l24 24 0 128-128 0-24-24 48.9-48.9z"/></svg>