<svg xmlns="http://www.w3.org/2000/svg" viewBox="0 0 640 512"><!--! Font Awesome Pro 6.6.0 by @fontawesome - https://fontawesome.com License - https://fontawesome.com/license (Commercial License) Copyright 2024 Fonticons, Inc. --><path d="M222.7 79L203.9 47.1 176 0 148.1 47.1 129.3 79 92.6 73.8 38.4 66.3l19.4 51.2L71 152 44.1 177.5 4.4 215.2l52.1 16.7 35.2 11.3L94.9 280l4.7 54.6 45.6-30.3L176 283.7l30.8 20.5 29 19.3c-13.6-22.4-22.8-47.9-26.2-75.1l-6.9-4.6L176 226l-26.6 17.7-8.9 5.9-.9-10.6-2.7-31.9-30.4-9.8-10.1-3.3 7.7-7.3 23.2-22L115.9 135l-3.8-10 10.6 1.5 31.7 4.4 16.3-27.5 5.4-9.2 5.4 9.2 16.3 27.5 31.7-4.4 5.7-.8c12.9-21.6 29.9-40.4 49.9-55.4l-25.6 3.6L222.7 79zM520 0L496 0l0 48 24 0 38.1 0-54.2 54.2C475.9 78.4 439.6 64 400 64c-88.4 0-160 71.6-160 160c0 80.2 59 146.6 136 158.2l0 33.8-32 0-24 0 0 48 24 0 32 0 0 24 0 24 48 0 0-24 0-24 32 0 24 0 0-48-24 0-32 0 0-33.8c77-11.6 136-78 136-158.2c0-31.4-9-60.7-24.7-85.4L592 81.9l0 30.1 0 24 48 0 0-24 0-88 0-24L616 0 520 0zm-8 224c0 61.9-50.1 112-112 112s-112-50.1-112-112s50.1-112 112-112c28.3 0 54.2 10.5 73.9 27.8l10.3 10.3C501.5 169.8 512 195.7 512 224z"/></svg>