<svg xmlns="http://www.w3.org/2000/svg" viewBox="0 0 640 512"><!--! Font Awesome Pro 6.6.0 by @fontawesome - https://fontawesome.com License - https://fontawesome.com/license (Commercial License) Copyright 2024 Fonticons, Inc. --><path d="M144 360L96 384l0-16 0-37.7L96 320l-48 0L0 320l0-48L0 48 0 0 48 0 368 0l48 0 0 48 0 224 0 48-48 0-144 0-80 40zm0-53.7l58.5-29.3 10.1-5.1 11.3 0 144 0 0-224L48 48l0 224 48 0 48 0 0 34.3zM256 352l48 0 0 48 112 0 11.3 0 10.1 5.1L496 434.3l0-34.3 48 0 48 0 0-224-144 0 0-48 144 0 48 0 0 48 0 224 0 48-48 0-48 0 0 10.3 0 37.7 0 16-48-24-80-40-112 0-48 0 0-48 0-48zM185.8 128.8c-.4 2.4 0 3.3 .1 3.4c.1 .3 .7 1.2 2.8 2.6c4.9 3.2 12.7 5.6 24 8.9l.6 .2s0 0 0 0c9.7 2.8 22.6 6.6 32.3 13.5c5.3 3.8 10.4 8.9 13.6 16.1c3.2 7.2 3.9 15.2 2.4 23.4c-2.7 15.1-13 25.2-25.5 30.4c-3.9 1.6-8 2.8-12.2 3.5l0 3.9 0 16-32 0 0-16 0-4.5c-7.6-1.7-17.5-5-23.8-7.1c0 0 0 0 0 0s0 0 0 0s0 0 0 0s0 0 0 0c-1.4-.5-2.6-.9-3.5-1.2L149.4 217l9.9-30.4 15.2 4.9c1.6 .5 3.3 1.1 5.1 1.7c0 0 0 0 0 0c7.6 2.5 16.2 5.4 21.1 6.1c10.3 1.6 18.3 .6 23.3-1.5c4.5-1.9 5.8-4.1 6.2-6.5c.5-3 .1-4.3-.1-4.7c-.2-.6-.9-1.6-2.9-3c-4.7-3.3-12.3-5.8-23.5-9.1l-1.7-.5c-9.4-2.7-21.6-6.3-30.8-12.4c-5.3-3.5-10.6-8.4-13.9-15.3c-3.5-7.1-4.2-15-2.8-23c2.6-14.6 13.2-24.4 25-29.6c4-1.7 8.2-3.1 12.6-4l0-4.2 0-16 32 0 0 16 0 4.4c5.3 .9 13.3 2.5 16.8 3.4l15.5 4-8 31-15.5-4c-3.1-.8-13.9-2.9-17.4-3.4c-9.9-1.5-17.9-.3-23.1 2c-5.2 2.3-6.2 4.8-6.4 6z"/></svg>