<svg xmlns="http://www.w3.org/2000/svg" viewBox="0 0 640 512"><!--! Font Awesome Pro 6.6.0 by @fontawesome - https://fontawesome.com License - https://fontawesome.com/license (Commercial License) Copyright 2024 Fonticons, Inc. --><path d="M512 176l0-64-18.5 0s0 0 0 0L160 112l0 16c0 35.3-28.7 64-64 64l-16 0 0 93.5L50.7 314.7 32 333.5 32 112l0-48 48 0 303.6 0 .4 0 128 0 0-64 24 0L640 88 536 176l-24 0zm48 144l0-93.5 29.3-29.3L608 178.5 608 400l0 48-48 0-413.5 0s0 0 0 0L128 448l0 64-24 0L0 424l104-88 24 0 0 64 128 0 .4 0L480 400l0-16c0-35.3 28.7-64 64-64l16 0zM320 160a96 96 0 1 1 0 192 96 96 0 1 1 0-192z"/></svg>