<svg xmlns="http://www.w3.org/2000/svg" viewBox="0 0 640 512"><!--! Font Awesome Pro 6.6.0 by @fontawesome - https://fontawesome.com License - https://fontawesome.com/license (Commercial License) Copyright 2024 Fonticons, Inc. --><path d="M432 80l0 256-288 0 0-256 288 0zM144 32L96 32l0 48 0 256 0 48 48 0 288 0 48 0 0-48 0-48 32 0c70.7 0 128-57.3 128-128s-57.3-128-128-128l-32 0-32 0-16 0L144 32zM512 240l-32 0 0-160 32 0c44.2 0 80 35.8 80 80s-35.8 80-80 80zM24 432L0 432l0 48 24 0 528 0 24 0 0-48-24 0L24 432z"/></svg>