<svg xmlns="http://www.w3.org/2000/svg" viewBox="0 0 640 512"><!--! Font Awesome Pro 6.6.0 by @fontawesome - https://fontawesome.com License - https://fontawesome.com/license (Commercial License) Copyright 2024 Fonticons, Inc. --><path d="M576 32L576-.3 545.1 9l-320 96L208 110.1l0 17.9 0 10.7L48.4 14.8 29.4 .1 0 38l19 14.7L591.5 497.2l19 14.7L639.9 474l-19-14.7-60.8-47.2c10-12.6 15.9-27.8 15.9-44.1c0 0 0 0 0 0l0-224 0-112zM522 382.5l-57.7-44.8c4.7-1.1 9.9-1.7 15.7-1.7c35.1 0 48 22.1 48 32c0 0 0 0 0 0c0 3.7-1.8 9.2-6 14.5zm-100.5-78L332.1 235 528 176.3l0 122.4c-14.1-6.8-30.5-10.7-48-10.7c-22 0-42.2 6.2-58.4 16.5zM285.5 198.9L256 176l0-30.1L528 64.3l0 61.9L285.5 198.9zM256 297.7l-48-37.8 0 102.8c-14.1-6.8-30.5-10.7-48-10.7c-53 0-96 35.8-96 80s43 80 96 80s96-35.8 96-80c0 0 0 0 0 0l0-134.3zM208 432s0 0 0 0c0 9.9-12.9 32-48 32s-48-22.2-48-32s12.9-32 48-32s48 22.1 48 32z"/></svg>