<svg xmlns="http://www.w3.org/2000/svg" viewBox="0 0 640 512"><!--! Font Awesome Pro 6.6.0 by @fontawesome - https://fontawesome.com License - https://fontawesome.com/license (Commercial License) Copyright 2024 Fonticons, Inc. --><path d="M400 48l0 96-160 0 0-96 160 0zM240 0L192 0l0 48 0 96 0 48 48 0 56 0 0 40L24 232 0 232l0 48 24 0 112 0 0 40-56 0-48 0 0 48 0 96 0 48 48 0 160 0 48 0 0-48 0-96 0-48-48 0-56 0 0-40 272 0 0 40-56 0-48 0 0 48 0 96 0 48 48 0 160 0 48 0 0-48 0-96 0-48-48 0-56 0 0-40 112 0 24 0 0-48-24 0-272 0 0-40 56 0 48 0 0-48 0-96 0-48L400 0 240 0zM80 368l160 0 0 96L80 464l0-96zm480 0l0 96-160 0 0-96 160 0z"/></svg>