<svg xmlns="http://www.w3.org/2000/svg" viewBox="0 0 512 512"><!--! Font Awesome Pro 6.6.0 by @fontawesome - https://fontawesome.com License - https://fontawesome.com/license (Commercial License) Copyright 2024 Fonticons, Inc. --><path d="M432 176L80 176l0-64 352 0 0 64zm48-64l0-48-48 0L280 64l0-64L232 0l0 64L80 64 32 64l0 48 0 64 0 48 48 0 152 0 0 64-88 0-48 0 0 48 0 64 0 48 48 0 88 0 0 64 48 0 0-64 88 0 48 0 0-48 0-64 0-48-48 0-88 0 0-64 152 0 48 0 0-48 0-64zM368 400l-224 0 0-64 224 0 0 64z"/></svg>