<svg xmlns="http://www.w3.org/2000/svg" viewBox="0 0 640 512"><!--! Font Awesome Pro 6.6.0 by @fontawesome - https://fontawesome.com License - https://fontawesome.com/license (Commercial License) Copyright 2024 Fonticons, Inc. --><path d="M208 160c0-61.9 50.1-112 112-112s112 50.1 112 112l0 3.4c0 6.9-.6 13.8-1.9 20.6c0 0 0 0 0 0L411 289.6l-9 49.7c-1.3 7-1.9 14.2-1.9 21.4l0 2.5c0 10.1 1.3 19.9 3.7 29.3l-40.4-21.5L358 368l-6 0-64 0-6 0-5.3 2.8-40.4 21.5c2.4-9.4 3.7-19.2 3.7-29.3l0-2.5c0-7.2-.6-14.3-1.9-21.4l-9-49.7L209.9 184.1s0 0 0 0c-1.2-6.8-1.9-13.7-1.9-20.6l0-3.4zM181.8 298.2c2.8 15.5-9.1 29.8-24.9 29.8c-11.2 0-21.1-7.4-24.3-18.2L118.8 263c-12.4-42.1-51-71-94.8-71L0 192l0 48 24 0c22.6 0 42.4 14.9 48.8 36.5l13.8 46.9c9.2 31.2 37.8 52.6 70.3 52.6c12.8 0 24.6-3.2 35-8.8c-2.1 36.2-32.1 64.8-68.8 64.8c-32.5 0-60.6-22.7-67.4-54.5L47.5 339 .5 349l8.3 38.6C20.3 441.5 68 480 123.1 480c33.4 0 66.3-8.2 95.8-24L294 416l52 0 75.1 40c29.4 15.7 62.3 23.9 95.6 24l.2 0c55.1 0 102.8-38.5 114.3-92.4l8.3-38.6L592.5 339l-8.3 38.6c-6.8 31.8-34.9 54.5-67.4 54.5c-36.7 0-66.7-28.7-68.8-64.8c10.3 5.6 22.2 8.8 35 8.8c32.5 0 61.2-21.4 70.3-52.6l13.8-46.9c6.4-21.6 26.2-36.5 48.8-36.5l24 0 0-48-24 0c-43.8 0-82.5 28.9-94.8 71l-13.8 46.9c-3.2 10.8-13.1 18.2-24.3 18.2c-15.8 0-27.7-14.3-24.9-29.8c0 0 0 0 0 0l19.2-105.5c0 0 0 0 0 0s0 0 0 0c1.7-9.6 2.6-19.4 2.6-29.1c0 0 0 0 0-.1l0-3.4C480 71.6 408.4 0 320 0S160 71.6 160 160l0 3.4c0 0 0 0 0 .1c0 9.8 .9 19.5 2.6 29.1c0 0 0 0 0 0s0 0 0 0l19.2 105.5s0 0 0 0zM296 268a20 20 0 1 0 -40 0 20 20 0 1 0 40 0zm68 20a20 20 0 1 0 0-40 20 20 0 1 0 0 40z"/></svg>