<svg xmlns="http://www.w3.org/2000/svg" viewBox="0 0 576 512"><!--! Font Awesome Pro 6.6.0 by @fontawesome - https://fontawesome.com License - https://fontawesome.com/license (Commercial License) Copyright 2024 Fonticons, Inc. --><path d="M264 0l24 0 72 0 24 0 0 48-24 0-48 0 0 48 48 0 24 0 0 48-24 0-48 0 0 83.7c32.5 10.2 56 40.5 56 76.3c0 44.2-35.8 80-80 80s-80-35.8-80-80c0-35.8 23.5-66.1 56-76.3L264 120l0-96 0-24zm24 336a32 32 0 1 0 0-64 32 32 0 1 0 0 64zm111.1-17.4c14.5-2.7 28.4-8.7 40.3-15.4c15.4-8.7 27-19.1 40-30.7l.7-.6 .7 .6s0 0 0 0c13 11.6 24.6 22 40 30.7c15.9 9 35.7 16.9 55.4 16.9l0 48c-31.5 0-59.8-12.2-79.1-23.1c-6.5-3.7-12.2-7.4-17-10.7c-4.7 3.3-10.5 7-16.9 10.7c-19.3 11-47.6 23.1-79.1 23.1c-1.3 0-2.7 0-4-.1c10-14.4 16.7-31.2 19.1-49.4zM196 367.9c-1.3 0-2.7 .1-4.1 .1c-31.5 0-59.7-12.2-79.1-23.1c-6.5-3.7-12.2-7.4-16.9-10.7c-4.7 3.3-10.4 7-16.9 10.7C59.7 355.8 31.5 368 0 368l0-48c19.7 0 39.4-7.8 55.3-16.9c15.4-8.7 27.2-19.3 40.2-30.9l.4-.4 .4 .4c13 11.6 24.9 22.2 40.3 30.9c11.8 6.7 25.8 12.8 40.3 15.4c2.4 18.2 9.1 35 19.1 49.4zM96 478.2c-4.7 3.3-10.4 7-16.9 10.7C59.7 499.8 31.5 512 0 512l0-48c19.7 0 39.4-7.8 55.3-16.9c15.4-8.7 27.2-19.3 40.2-30.9c0 0 0 0 0 0l.4-.4 .4 .4c13 11.6 24.9 22.2 40.3 30.9c15.9 9 35.6 16.9 55.3 16.9s39.5-7.8 55.3-16.9c15.4-8.7 27-19.1 40-30.7l.7-.6 .7 .6c13 11.6 24.6 22 40 30.7c15.9 9 35.6 16.9 55.3 16.9s39.5-7.8 55.3-16.9c15.4-8.7 27-19.1 40-30.7l.7-.6 .7 .6c13 11.6 24.6 22 40 30.7c15.9 9 35.7 16.9 55.4 16.9l0 48c-31.5 0-59.8-12.2-79.1-23.1c-6.5-3.7-12.2-7.4-17-10.7c-4.7 3.3-10.5 7-16.9 10.7c-19.3 11-47.6 23.1-79.1 23.1s-59.7-12.2-79.1-23.1c-6.5-3.7-12.2-7.4-16.9-10.7c-4.7 3.3-10.5 7-16.9 10.7c-19.3 11-47.6 23.1-79.1 23.1s-59.7-12.2-79.1-23.1c-6.5-3.7-12.2-7.4-16.9-10.7z"/></svg>