<svg xmlns="http://www.w3.org/2000/svg" viewBox="0 0 640 512"><!--! Font Awesome Pro 6.6.0 by @fontawesome - https://fontawesome.com License - https://fontawesome.com/license (Commercial License) Copyright 2024 Fonticons, Inc. --><path d="M396.5 285.1L541.4 145.3 576 112 542.1 78.1 497.9 33.9 464 0 430.7 34.6 277.9 193 48.4 14.8 29.4 .1 0 38 19 52.7 591.5 497.2l19 14.7L639.9 474l-19-14.7L396.5 285.1zM316 222.6L464.6 68.5l42.9 42.9-149.3 144L316 222.6zM128 272L64 480l32 32 208-64 32.3-80.7-39.3-31-29 72.6L155 443.6 198.7 400c.4 0 .9 0 1.3 0c13.3 0 24-10.7 24-24s-10.7-24-24-24s-24 10.7-24 24c0 .4 0 .9 0 1.3L132.4 421l34.8-113 62.3-24.9L186 248.8 128 272z"/></svg>