<svg xmlns="http://www.w3.org/2000/svg" viewBox="0 0 576 512"><!--! Font Awesome Pro 6.6.0 by @fontawesome - https://fontawesome.com License - https://fontawesome.com/license (Commercial License) Copyright 2024 Fonticons, Inc. --><path d="M128 48A48 48 0 1 0 32 48a48 48 0 1 0 96 0zM16 128l0 24 0 336 0 24 48 0 0-24 0-136 32 0 0 136 0 24 48 0 0-24 0-202.9L96 215.7l0 .3 0 88-32 0 0-128 43.4 0 64.8 93.7 7.2 10.3 12.6 0 48 0 24 0 0-48-24 0-35.4 0-64.8-93.7L132.6 128 120 128l-80 0-24 0zM400 96a48 48 0 1 0 0-96 48 48 0 1 0 0 96zM272.6 165.5L277 184l19 0 40 0 0 304 0 24 48 0 0-24 0-136 32 0 0 136 0 24 48 0 0-24 0-304 40 0 19 0 4.4-18.5 32-136-46.7-11L485 136l-170 0L287.4 18.5l-46.7 11 32 136zM416 184l0 120-32 0 0-120 32 0z"/></svg>