<svg xmlns="http://www.w3.org/2000/svg" viewBox="0 0 512 512"><!--! Font Awesome Pro 6.6.0 by @fontawesome - https://fontawesome.com License - https://fontawesome.com/license (Commercial License) Copyright 2024 Fonticons, Inc. --><path d="M128 0a64 64 0 1 1 0 128A64 64 0 1 1 128 0zM74 304l38 0 32 0 38 0-4-96L78 208l-4 96zm158 48l-40 0 0 136 0 24-48 0 0-24 0-136-32 0 0 136 0 24-48 0 0-24 0-136-40 0 2-48 6-144 192 0 6 144 2 48zM384 0a64 64 0 1 1 0 128A64 64 0 1 1 384 0zM330 304l38 0 32 0 38 0-4-96L334 208l-4 96zm158 48l-40 0 0 136 0 24-48 0 0-24 0-136-32 0 0 136 0 24-48 0 0-24 0-136-40 0 2-48 6-144 192 0 6 144 2 48z"/></svg>