<svg xmlns="http://www.w3.org/2000/svg" viewBox="0 0 640 512"><!--! Font Awesome Pro 6.6.0 by @fontawesome - https://fontawesome.com License - https://fontawesome.com/license (Commercial License) Copyright 2024 Fonticons, Inc. --><path d="M160 96a48 48 0 1 0 0-96 48 48 0 1 0 0 96zm-51.1 32l-14.1 0-6.9 12.4-75.3 136L1 297.4l42 23.3 11.6-21L100 217.7 63 336 48 384l48 0 0 104 0 24 48 0 0-24 0-104 32 0 0 104 0 24 48 0 0-24 0-104 48 0-15-48L220 217.7l45.4 81.9 11.6 21 42-23.3-11.6-21-75.3-136L225.2 128l-14.1 0L192 128l-64 0-19.1 0zm4.4 208L160 186.5 206.7 336l-93.4 0zM480 96a48 48 0 1 0 0-96 48 48 0 1 0 0 96zm-51.1 32l-14.1 0-6.9 12.4-75.3 136-11.6 21 42 23.3 11.6-21L420 217.7 383 336l-15 48 48 0 0 104 0 24 48 0 0-24 0-104 32 0 0 104 0 24 48 0 0-24 0-104 48 0-15-48L540 217.7l45.4 81.9 11.6 21 42-23.3-11.6-21-75.3-136L545.2 128l-14.1 0L512 128l-64 0-19.1 0zM480 186.5L526.7 336l-93.4 0L480 186.5z"/></svg>