<svg xmlns="http://www.w3.org/2000/svg" viewBox="0 0 640 512"><!--! Font Awesome Pro 6.6.0 by @fontawesome - https://fontawesome.com License - https://fontawesome.com/license (Commercial License) Copyright 2024 Fonticons, Inc. --><path d="M176 48A48 48 0 1 0 80 48a48 48 0 1 0 96 0zM72 128l-24 0 0 24 0 120.4c0 17.2 7.9 33.4 21.4 44l92.2 72.4L179.2 512l48.5 0L207.8 372.6l-1.4-9.5-7.6-5.9L168 332.9l0-4.9 0-65 10.8 20.3 2.5 4.7 4.3 3.2 32 24L224 320l8 0 40 0 24 0 47.9 0 24 0 .1 0 39.9 0 8 0 .1 0c0 0 0-.1 0-.1l6.3-4.7 32-24 4.3-3.2 2.5-4.7L471.9 263l0 65 0 4.9L441 357.1l-7.6 5.9-1.4 9.5L412.2 512l48.5 0 17.6-123.1 92.2-72.4c13.5-10.6 21.4-26.9 21.4-44l0-120.4 0-24-24 0-64 0-14.4 0-6.8 12.7L472.4 160l-.5 0 0 1-50.7 95-5.2 3.9 0-83.9 0-48-48 0-96 0-48 0 0 48 0 84-5.3-4L168 161l0-1-.5 0-10.3-19.3L150.4 128 136 128l-64 0zM368 272l-.1 0-24 0L296 272l-24 0 0-96 96 0 0 96zM120 184l0 111.2L99.1 278.7c-1.9-1.5-3.1-3.8-3.1-6.3L96 176l24 0 0 8zM49.3 341.4L8.8 489.7 2.8 512l49.8 0 2.6-9.7L90.3 373.6l-41-32.2zM511.9 96a48 48 0 1 0 0-96 48 48 0 1 0 0 96zm8 199.2l0-111.2 0-8 24 0 0 96.4c0 2.5-1.1 4.8-3.1 6.3l-20.9 16.5zM631 489.7L590.6 341.4l-41 32.2 35.1 128.7 2.6 9.7 49.8 0L631 489.7z"/></svg>