<svg xmlns="http://www.w3.org/2000/svg" viewBox="0 0 640 512"><!--! Font Awesome Pro 6.6.0 by @fontawesome - https://fontawesome.com License - https://fontawesome.com/license (Commercial License) Copyright 2024 Fonticons, Inc. --><path d="M352 48a48 48 0 1 1 96 0 48 48 0 1 1 -96 0zm-24.5 59.2l13.4 8.5L423 168l57 0 24 0 0 48-24 0-64 0-7 0-5.9-3.8-74.6-47.5-59 40.6c-10 6.9-9 22 1.9 27.5l67.4 33.7 13.3 6.6 0 14.8 0 128 0 24-48 0 0-24 0-113.2-54.1-27c-43.6-21.8-47.8-82.4-7.6-110l72.1-49.6 13.1-9zM96 256l64 0 0 20.6c7.4 2.2 14.6 5.2 21.3 8.8l14.6-14.6 45.3 45.3-14.6 14.6c3.6 6.7 6.6 13.8 8.8 21.3l20.6 0 0 64-20.6 0c-2.2 7.4-5.2 14.6-8.8 21.3l14.6 14.6-45.3 45.3-14.6-14.6c-6.7 3.6-13.8 6.6-21.3 8.8l0 20.6-64 0 0-20.6c-7.4-2.2-14.6-5.2-21.3-8.8L60.1 497.1 14.9 451.9l14.6-14.6c-3.6-6.7-6.6-13.8-8.8-21.3L0 416l0-64 20.6 0c2.2-7.4 5.2-14.6 8.8-21.3L14.9 316.1l45.3-45.3 14.6 14.6c6.7-3.6 13.8-6.6 21.3-8.8L96 256zm96 128A64 64 0 1 0 64 384a64 64 0 1 0 128 0zM544 256l0 20.6c7.4 2.2 14.6 5.2 21.3 8.8l14.6-14.6 45.3 45.3-14.6 14.6c3.6 6.7 6.6 13.8 8.8 21.3l20.6 0 0 64-20.6 0c-2.2 7.4-5.2 14.6-8.8 21.3l14.6 14.6-45.3 45.3-14.6-14.6c-6.7 3.6-13.8 6.6-21.3 8.8l0 20.6-64 0 0-20.6c-7.4-2.2-14.6-5.2-21.3-8.8l-14.6 14.6-45.3-45.3 14.6-14.6c-3.6-6.7-6.6-13.8-8.8-21.3L384 416l0-64 20.6 0c2.2-7.4 5.2-14.6 8.8-21.3l-14.6-14.6 45.3-45.3 14.6 14.6c6.7-3.6 13.8-6.6 21.3-8.8l0-20.6 64 0zM512 448a64 64 0 1 0 0-128 64 64 0 1 0 0 128zM176 176L112 96 213.3 20 256 20l48 60L176 176z"/></svg>