<svg xmlns="http://www.w3.org/2000/svg" viewBox="0 0 512 512"><!--! Font Awesome Pro 6.6.0 by @fontawesome - https://fontawesome.com License - https://fontawesome.com/license (Commercial License) Copyright 2024 Fonticons, Inc. --><path d="M80 96A48 48 0 1 0 80 0a48 48 0 1 0 0 96zM0 488l0 24 48 0 0-24 0-109.9L1.6 341.6c-.5-.4-1.1-.9-1.6-1.3L0 488zM24 128L0 128l0 24L0 272.4c0 17.2 7.9 33.4 21.4 44l92.2 72.4L131.2 512l48.5 0L159.8 372.6l-1.4-9.5-7.6-5.9L120 332.9l0-4.9 0-93.3 20.8 27.7L148 272l12 0 59.3 0 31.1 124.3c-16 11.6-26.3 30.5-26.3 51.7c0 35.3 28.7 64 64 64c32.3 0 59.1-24 63.4-55.1l134.4-33.6 23.3-5.8-11.6-46.6-23.3 5.8L339.7 410.3c-10-13.7-25.3-23.3-42.9-25.7L247.3 186.2l-5.8-23.3-46.6 11.6 5.8 23.3 6.5 26.2L172 224l-64.8-86.4L100 128l-12 0-64 0zm48 56l0 111.2L51.1 278.7c-1.9-1.5-3.1-3.8-3.1-6.3L48 176l24 0 0 8zM272 448a16 16 0 1 1 32 0 16 16 0 1 1 -32 0z"/></svg>