<svg xmlns="http://www.w3.org/2000/svg" viewBox="0 0 512 512"><!--! Font Awesome Pro 6.6.0 by @fontawesome - https://fontawesome.com License - https://fontawesome.com/license (Commercial License) Copyright 2024 Fonticons, Inc. --><path d="M72.2 436C58.7 404.6 48 348.4 48 256s10.7-148.6 24.2-180C84.6 47.3 94.6 47.9 95.9 48l.1 0 .1 0c1.3-.1 11.3-.7 23.7 28c13.5 31.4 24.2 87.7 24.2 180c0 45.7-2.6 82.6-6.9 112L120 368l-24 0 0 48 24 0 7 0s0 0 0 0l49.7 0s0 0 0 0l39.3 0 16.6 0 5.9-15.5 18-47.9-4.9-2.8c-14.1-8-25.4-19.3-33-32.6L199.4 368l-13.8 0c4.2-31.3 6.4-68.4 6.4-112c0-21.1-.5-40.7-1.6-58.8L240 160l33.4 0-31.8 95.4c-8.5 25.5 2.3 53.4 25.7 66.5l88 49.5L311.4 512l50.3 0 45.3-144.8 5.8-18.5-16.9-9.5-43.4-24.4 28.1-84.4 12.5 40.8 5.2 16.9 17.7 0 72 0 24 0 0-48-24 0-54.3 0-26.8-87.1-3.9-12.6-12.7-3.5-88-24-3.1-.8-3.2 0-64 0-8 0-6.4 4.8-32.4 24.3C171 38.7 136.4 0 96 0C43 0 0 66.6 0 256S43 512 96 512c28 0 53.2-18.6 70.7-64l-52.9 0c-9.5 16.5-16.7 16.1-17.8 16l-.1 0-.1 0c-1.3 .1-11.3 .7-23.7-28zM368 96a48 48 0 1 0 0-96 48 48 0 1 0 0 96zm-46.6 71.8l27 7.4L309.8 290.7l-19-10.7c-3.3-1.9-4.9-5.9-3.7-9.5l34.2-102.7z"/></svg>