<svg xmlns="http://www.w3.org/2000/svg" viewBox="0 0 320 512"><!--! Font Awesome Pro 6.6.0 by @fontawesome - https://fontawesome.com License - https://fontawesome.com/license (Commercial License) Copyright 2024 Fonticons, Inc. --><path d="M208 0a48 48 0 1 1 0 96 48 48 0 1 1 0-96zM118.9 183.4L82.6 201.5 62.1 249.5l-9.5 22.1L8.5 252.6l9.5-22.1 24-56 3.5-8.1 7.9-3.9 80-40 8.2-4.1 8.8 2.4 88 24 13.2 3.6 3.6 13.2 22.3 81.9L313 279 279 313l-40-40-4.5-4.5-1.7-6.1-6.4-23.4-25.7 82.3 54.4 44.2 6.2 5 1.9 7.8 24 96 5.8 23.3-46.6 11.6-5.8-23.3-22.1-88.2L114 312.6C96 297.9 88.9 273.5 96.2 251.4l22.7-68zm52.9-6.9l-30 90.1c-1.1 3.2 0 6.6 2.5 8.7l16.4 13.3 32.4-103.8c.3-.8 .5-1.6 .9-2.3l-22.1-6zM99.7 342.2l39 31.7-20.4 51.1-1.8 4.6L113 433 52.2 493.8l-17 17L1.3 476.8l17-17 57.3-57.3 24.1-60.4z"/></svg>