<svg xmlns="http://www.w3.org/2000/svg" viewBox="0 0 576 512"><!--! Font Awesome Pro 6.6.0 by @fontawesome - https://fontawesome.com License - https://fontawesome.com/license (Commercial License) Copyright 2024 Fonticons, Inc. --><path d="M144 48l0 320 80 0 0-320-80 0zM96 0l48 0 80 0 48 0 0 32 48 0 24 0 24 0 160 0 48 0 0 48 0 64 0 24 0 24 0 272 0 48-48 0L48 512 0 512l0-48L0 80 0 32l48 0 48 0L96 0zm0 80L48 80l0 384 480 0 0-272-184 0-24 0 0-24 0-88-48 0 0 288 0 48-48 0-80 0-48 0 0-48L96 80zm432 0L368 80l0 64 160 0 0-64zM320 240l64 0 0 64-64 0 0-64zm64 96l0 64-64 0 0-64 64 0zm32-96l64 0 0 64-64 0 0-64zm64 96l0 64-64 0 0-64 64 0z"/></svg>