<svg xmlns="http://www.w3.org/2000/svg" viewBox="0 0 640 512"><!--! Font Awesome Pro 6.6.0 by @fontawesome - https://fontawesome.com License - https://fontawesome.com/license (Commercial License) Copyright 2024 Fonticons, Inc. --><path d="M501.1 0l2 0 11.5 0L616 0l24 0 0 48-24 0-87.8 0L413.1 238.3l8.7 6.1 19.4 13.6-13.3 19.6L318.7 438.3c-31.3 46.1-83.3 73.7-139 73.7L168 512C75.2 512 0 436.8 0 344L0 200l0-24 24 0 224 0 24 0 0 24 0 41.4 37-48.1 14-18.2 18.8 13.2 6.2 4.3L495 10.2 501.1 0zM48 224l0 120c0 66.3 53.7 120 120 120l11.7 0c39.8 0 77-19.7 99.3-52.6l95.9-141.3L333 240.8l-66 85.8L224 312l0-88L48 224z"/></svg>