<svg xmlns="http://www.w3.org/2000/svg" viewBox="0 0 640 512"><!--! Font Awesome Pro 6.6.0 by @fontawesome - https://fontawesome.com License - https://fontawesome.com/license (Commercial License) Copyright 2024 Fonticons, Inc. --><path d="M219.3 13.9C228.8 6.3 241.3 0 256 0c29.1 0 49.4 23.1 60.4 41.4C328.2 61.1 336 85.8 336 106l0 51.5 87.6 50C407 215 391.8 225 378.4 237l-78.3-44.8L288 185.4l0-13.9 0-65.5c0-9.7-4.4-26-12.8-39.8C266.1 51 258.4 48 256 48c-.6 0-2.8 .2-6.7 3.3c-3.9 3.1-8.2 8.1-12.3 14.9c-8.5 14-13 30.2-13 39.7l0 65.5 0 13.9-12.1 6.9L48 285.9l0 34.3 145.4-41.5 30.6-8.7 0 31.8 0 66.3 0 12-9.6 7.2L160 428l0 32.4 88.9-27.4 7.1-2.2 7.1 2.2 81.8 25.2c12.7 21.2 29.8 39.6 49.9 53.8L384 512l-24 0-3.6 0-3.4-1.1L256 481.1l-96.9 29.8-3.4 1.1-3.6 0-16 0-24 0 0-24 0-72 0-12 9.6-7.2L176 356l0-22.5L30.6 375.1 0 383.8 0 352l0-80 0-13.9 12.1-6.9L176 157.5l0-51.5c0-20.3 8.1-45.1 20-64.6c6.1-10 13.8-19.9 23.3-27.5zm99.3 264.8l22.2 6.3c-13.3 24.7-20.8 53-20.8 83c0 13.5 1.5 26.7 4.4 39.3l-26.8-20.1L288 380l0-12 0-66.3 0-31.8 30.6 8.7zM352 368a144 144 0 1 1 288 0 144 144 0 1 1 -288 0zm222.6-32L552 313.4l-11.3 11.3L480 385.4l-28.7-28.7L440 345.4 417.4 368l11.3 11.3 40 40L480 430.6l11.3-11.3 72-72L574.6 336z"/></svg>