<svg xmlns="http://www.w3.org/2000/svg" viewBox="0 0 512 512"><!--! Font Awesome Pro 6.6.0 by @fontawesome - https://fontawesome.com License - https://fontawesome.com/license (Commercial License) Copyright 2024 Fonticons, Inc. --><path d="M400 32c44.2 0 80 35.8 80 80l0 32-16 0c-44.2 0-80-35.8-80-80l0-32 16 0zM56 64l48 0 24 0 0 48-24 0-48 0-24 0 0-48 24 0zM24 136l112 0 24 0 0 48-24 0L24 184 0 184l0-48 24 0zm8 72l24 0 48 0 24 0 0 48-24 0-48 0-24 0 0-48zM272 32l16 0c44.2 0 80 35.8 80 80l0 32-16 0c-44.2 0-80-35.8-80-80l0-32zm-96 0c44.2 0 80 35.8 80 80l0 32-16 0c-44.2 0-80-35.8-80-80l0-32 16 0zM480 176l0 32c0 44.2-35.8 80-80 80l-16 0 0-32c0-44.2 35.8-80 80-80l16 0zm-128 0l16 0 0 32c0 44.2-35.8 80-80 80l-16 0 0-32c0-44.2 35.8-80 80-80zm-96 0l0 32c0 44.2-35.8 80-80 80l-16 0 0-32c0-44.2 35.8-80 80-80l16 0zM128 432l256 0 0-25.7 30-12.1c13.6-5.5 25.4-14.6 34-26.2L64 368c8.7 11.6 20.4 20.7 34 26.2l30 12.1 0 25.7zm-48 6.7c-32.1-13-57.7-38.6-70.7-70.7C3.3 353.2 0 337 0 320l48 0 416 0 48 0c0 17-3.3 33.2-9.3 48c-13 32.1-38.6 57.7-70.7 70.7l0 41.3-48 0-256 0-48 0 0-41.3z"/></svg>