<svg xmlns="http://www.w3.org/2000/svg" viewBox="0 0 576 512"><!--! Font Awesome Pro 6.6.0 by @fontawesome - https://fontawesome.com License - https://fontawesome.com/license (Commercial License) Copyright 2024 Fonticons, Inc. --><path d="M352 118.1L352 32 288 0 230.3 115.3c-27.7 11.4-51.4 30.7-68 55.1l39.7 27C220.8 170 252.3 152 288 152s67.2 18 86 45.5l39.7-27c-15.4-22.5-36.7-40.7-61.7-52.4zM141.3 144.9c12.8-16.9 28.5-31.5 46.4-43.2C176.4 98 164.4 96 152 96c-45.4 0-84 26.5-110.2 64.2C15.5 198 0 248.9 0 304s15.5 106 41.8 143.8C68 485.5 106.6 512 152 512c24.9 0 48-8.1 68-21.6c20 13.6 43.1 21.6 68 21.6s48-8.1 68-21.6c20 13.6 43.1 21.6 68 21.6c45.4 0 84-26.5 110.2-64.2C560.5 410 576 359.1 576 304s-15.5-106-41.8-143.8C508 122.5 469.4 96 424 96c-12.4 0-24.4 2-35.8 5.7c17.9 11.6 33.6 26.3 46.4 43.2c21.7 3.5 42.9 17.9 60.1 42.7c20 28.8 33.2 69.9 33.2 116.4s-13.2 87.6-33.2 116.4C474.7 449.3 449.3 464 424 464c-18 0-35.8-7.4-51.9-21.9L356 427.6l-16.1 14.5C323.8 456.6 306 464 288 464s-35.8-7.4-51.9-21.9L220 427.6l-16.1 14.5C187.8 456.6 170 464 152 464c-25.3 0-50.7-14.7-70.8-43.6C61.2 391.6 48 350.5 48 304s13.2-87.6 33.2-116.4c17.3-24.8 38.5-39.2 60.2-42.7z"/></svg>