<svg xmlns="http://www.w3.org/2000/svg" viewBox="0 0 448 512"><!--! Font Awesome Pro 6.6.0 by @fontawesome - https://fontawesome.com License - https://fontawesome.com/license (Commercial License) Copyright 2024 Fonticons, Inc. --><path d="M48 80l0 96 96 0 0-96L48 80zM0 32l48 0 96 0 48 0 0 48 0 96 0 48-48 0-96 0L0 224l0-48L0 80 0 32zM48 336l0 96 96 0 0-96-96 0zM0 288l48 0 96 0 48 0 0 48 0 96 0 48-48 0-96 0L0 480l0-48 0-96 0-48zM400 80l-96 0 0 96 96 0 0-96zM304 32l96 0 48 0 0 48 0 96 0 48-48 0-96 0-48 0 0-48 0-96 0-48 48 0zm80 416l0 32-32 0 0-32 32 0zm32 0l32 0 0 32-32 0 0-32zm32-160l0 32 0 96-96 0 0-32-32 0 0 96-64 0 0-96 0-96 96 0 0 32 64 0 0-32 32 0zM120 104l0 48-48 0 0-48 48 0zM72 360l48 0 0 48-48 0 0-48zM376 104l0 48-48 0 0-48 48 0z"/></svg>