<svg xmlns="http://www.w3.org/2000/svg" viewBox="0 0 640 512"><!--! Font Awesome Pro 6.6.0 by @fontawesome - https://fontawesome.com License - https://fontawesome.com/license (Commercial License) Copyright 2024 Fonticons, Inc. --><path d="M48 464l300.5 0c12.3 18.8 28 35.1 46.3 48L48 512 0 512l0-48L0 208l0-48 48 0 416 0 48 0 0 32.7c-5.3-.5-10.6-.7-16-.7c-26.2 0-51.1 5.7-73.4 16L48 208l0 256zM464 80l0 48L48 128l0-48 416 0zM416 0l0 48L96 48 96 0 416 0zM352 368a144 144 0 1 1 288 0 144 144 0 1 1 -288 0zm224.7 77.7L552 416l-112 0-24.7 29.7c20.4 21.2 49 34.3 80.7 34.3s60.3-13.2 80.7-34.3zM544 336a48 48 0 1 0 -96 0 48 48 0 1 0 96 0z"/></svg>