<svg xmlns="http://www.w3.org/2000/svg" viewBox="0 0 640 512"><!--! Font Awesome Pro 6.6.0 by @fontawesome - https://fontawesome.com License - https://fontawesome.com/license (Commercial License) Copyright 2024 Fonticons, Inc. --><path d="M152 32C68.1 32 0 100.1 0 184l0 80L0 456l0 24 24 0 96 0 24 0 0-24 0-72 160 0 0 72 0 24 24 0 96 0 24 0 0-24 0-72 48 0 0 24c0 39.8 32.2 72 72 72s72-32.2 72-72l0-64 0-24-48 0 0 24 0 64c0 13.3-10.7 24-24 24s-24-10.7-24-24l0-48 0-96 0-80c0-83.9-68.1-152-152-152L152 32zM496 288l0 48-72 0-24 0 0 24 0 72-48 0 0-72 0-24-24 0-208 0-24 0 0 24 0 72-48 0 0-144 448 0zm0-48L48 240l0-56C48 126.6 94.6 80 152 80l240 0c57.4 0 104 46.6 104 104l0 56zM159.6 144l-15.7-32-15.7 32-36.3 4.6 26.5 24.4L111.7 208l32.1-16.9L176 208l-6.7-34.9 26.5-24.4L159.6 144zm112.3-32l-15.7 32-36.3 4.6 26.5 24.4L239.7 208l32.1-16.9L304 208l-6.7-34.9 26.5-24.4L287.6 144l-15.7-32zm143.7 32l-15.7-32-15.7 32-36.3 4.6 26.5 24.4L367.7 208l32.1-16.9L432 208l-6.7-34.9 26.5-24.4L415.6 144z"/></svg>