<svg xmlns="http://www.w3.org/2000/svg" viewBox="0 0 448 512"><!--! Font Awesome Pro 6.6.0 by @fontawesome - https://fontawesome.com License - https://fontawesome.com/license (Commercial License) Copyright 2024 Fonticons, Inc. --><path d="M236.3 11.4L224 4l-12.3 7.4-8 4.8c-38.3 23-85.5 25.7-126.2 7.2L65.9 18.2 46 9.1l-10.9 19-32 56L-3.2 95.2l5.7 11.5 16.2 32.5c8.7 17.4 13.2 36.6 13.2 56c0 15.9-3 31.7-9 46.5L8.7 277.7C2.9 292 0 307.3 0 322.7c0 46.7 26.8 89.2 68.8 109.4l144.8 69.5 10.4 5 10.4-5 144.8-69.5c42.1-20.2 68.8-62.7 68.8-109.4c0-15.4-2.9-30.7-8.7-45.1L425 241.8c-5.9-14.8-9-30.6-9-46.5c0-19.5 4.5-38.6 13.2-56l16.2-32.5 5.7-11.5-6.4-11.2-32-56L402 9.1l-19.9 9.1-11.5 5.2c-40.7 18.5-87.9 15.8-126.2-7.2l-8-4.8zM80 192L368 192c0 1.1 0 2.2 0 3.2c0 22 4.2 43.9 12.4 64.4l14.4 35.9c3.5 8.7 5.2 17.9 5.2 27.2c0 28.2-16.2 53.9-41.6 66.1L224 453.4 89.6 388.9C64.2 376.7 48 351 48 322.7c0-9.3 1.8-18.6 5.2-27.2l14.4-35.9C75.8 239.1 80 217.3 80 195.2c0-1.1 0-2.2 0-3.2z"/></svg>