<svg xmlns="http://www.w3.org/2000/svg" viewBox="0 0 640 512"><!--! Font Awesome Pro 6.6.0 by @fontawesome - https://fontawesome.com License - https://fontawesome.com/license (Commercial License) Copyright 2024 Fonticons, Inc. --><path d="M488 32l-9.9 0-7 7-23 23-16-16L398.1 80l16 16L400 110l-16-16L350.1 128l16 16L352 158l-16-16L302.1 176l16 16-88.3 88.2-1.2-.9L265 176l23 0 0-48-6.1 0L264 128l-16 0L56 128l-19.3 0L24 128 0 128l0 48 24 0 2.1 0L4 275.3c-2.7 12-4 24.2-4 36.5C0 404.7 75.3 480 168.2 480l9.1 0c51.9 0 101.2-22.7 134.9-62.2L539.1 152l76.9 0 24 0 0-24 0-32 0-9.9-7-7L593 39l-7-7L576 32l-88 0zM75.3 176l138.8 0L177.4 280l-5.9 16.7 14.2 10.6 32 23.8 16.6 12.4L249 328.8 352 225.9c0 0 0 0 0 0L385.9 192c0 0 0 0 0 0L400 177.9c0 0 0 0 0 0L433.9 144c0 0 0 0 0 0L448 129.9s0 0 0 0L481.9 96s0 0 0 0l16-16 68.1 0 24 24L528 104l-11.1 0-7.2 8.4L275.6 386.6c-24.6 28.8-60.5 45.4-98.3 45.4l-9.1 0C101.8 432 48 378.2 48 311.8c0-8.8 1-17.5 2.9-26.1L75.3 176zM136 304a24 24 0 1 0 -48 0 24 24 0 1 0 48 0zm-8-56a24 24 0 1 0 0-48 24 24 0 1 0 0 48z"/></svg>