<svg xmlns="http://www.w3.org/2000/svg" viewBox="0 0 512 512"><!--! Font Awesome Pro 6.6.0 by @fontawesome - https://fontawesome.com License - https://fontawesome.com/license (Commercial License) Copyright 2024 Fonticons, Inc. --><path d="M183.3 21.4C198.3 7.7 218 0 238.4 0l1 0C283.9 0 320 36.1 320 80.6c0 21.4-8.5 41.9-23.6 57L89.5 344.4c-6.1 6.1-9.5 14.4-9.5 23c0 18 14.6 32.6 32.6 32.6c8.6 0 16.9-3.4 23-9.5L374.5 151.6c15.1-15.1 35.6-23.6 57-23.6c44.5 0 80.6 36.1 80.6 80.6c0 21.4-8.5 41.9-23.6 57L384.2 369.8c-10.4 10.3-16.2 24.4-16.2 39c0 30.5 24.7 55.2 55.2 55.2l4.4 0c5.6 0 11.2-.9 16.6-2.7l36.2-12.1 15.2 45.5-36.2 12.1c-10.2 3.4-21 5.2-31.8 5.2l-4.4 0c-57 0-103.2-46.2-103.2-103.2c0-27.4 10.9-53.6 30.2-73L454.5 231.6c6.1-6.1 9.5-14.4 9.5-23c0-18-14.6-32.6-32.6-32.6c-8.6 0-16.9 3.4-23 9.5L169.5 424.4c-15.1 15.1-35.6 23.6-57 23.6C68.1 448 32 411.9 32 367.4c0-21.4 8.5-41.9 23.6-57L262.5 103.6c6.1-6.1 9.5-14.4 9.5-23c0-18-14.6-32.6-32.6-32.6l-1 0c-8.4 0-16.5 3.2-22.7 8.8L40.2 217.7 7.8 182.3 183.3 21.4z"/></svg>