<svg xmlns="http://www.w3.org/2000/svg" viewBox="0 0 576 512"><!--! Font Awesome Pro 6.6.0 by @fontawesome - https://fontawesome.com License - https://fontawesome.com/license (Commercial License) Copyright 2024 Fonticons, Inc. --><path d="M80 80c-17.7 0-32 14.3-32 32l0 48 32 0 0 48-56 0L0 208l0-24 0-72C0 67.8 35.8 32 80 32l320 0c44.2 0 80 35.8 80 80l0 160-16 0-16 0-16 0-32 0-16 0 0-32 16 0 32 0 0-80-32 0-16 0 0-32 16 0 32 0 0-16c0-17.7-14.3-32-32-32L153.3 80c4.3 9.8 6.7 20.6 6.7 32l0 112 48 0 16 0 0 32-16 0-48 0 0 144c0 17.7 14.3 32 32 32s32-14.3 32-32l0-72 0-24 24 0 .7 0 .7 0 .7 0 .7 0 .7 0 .7 0 .7 0 .7 0 .7 0 .7 0 .7 0 .7 0 .7 0 .7 0 .7 0 .7 0 .7 0 .7 0 .7 0 .7 0 .7 0 .7 0 .7 0 .7 0 .7 0 .7 0 .7 0 .7 0 .7 0 .7 0 .7 0 .7 0 .7 0 .7 0 .7 0 .7 0 .7 0 .7 0 .7 0 .7 0 .7 0 .7 0 .6 0 .6 0 .6 0 .6 0 .6 0 .6 0 .6 0 .6 0 .6 0 .6 0 .6 0 .6 0 .6 0 .6 0 .6 0 .6 0 .6 0 .6 0 .6 0 .6 0 .6 0 .6 0 .6 0 .6 0 .6 0 .6 0 .6 0 .6 0 .6 0 .6 0 .6 0 .6 0 .6 0 .6 0 .6 0 .6 0 .6 0 .6 0 .6 0 .6 0 .6 0 .6 0 .6 0 .6 0 .6 0 .6 0 .6 0 .6 0 .6 0 .6 0 .6 0 .6 0 .6 0 .6 0 .6 0 .6 0 .6 0 .6 0 .6 0 .6 0 .6 0 .6 0 .6 0 .6 0 .6 0 .6 0 .6 0 .6 0 .6 0 .6 0 .6 0 .6 0 .6 0 .6 0 .6 0 .6 0 .6 0 .6 0 .6 0 .6 0 .6 0 .6 0 .6 0 .6 0 .6 0 .6 0 .6 0 .6 0 .6 0 .6 0 .6 0 .6 0 .6 0 .6 0 .6 0 .6 0 .6 0 .6 0 .6 0 .6 0 .6 0 .6 0 .6 0 .6 0 .6 0 .6 0 .6 0 .6 0 .6 0 .6 0 .6 0 .6 0 .6 0 .6 0 .6 0 .6 0 .6 0 .6 0 .6 0 .6 0 .6 0 .6 0 .6 0 .6 0 .6 0 .6 0 .6 0 .6 0 .6 0 .6 0 .6 0 .6 0 .6 0 .6 0 .6 0 .6 0 .6 0 .6 0 .6 0 .6 0 .6 0 .6 0 .6 0 .6 0 .6 0 .6 0 .6 0 .6 0 .6 0 .6 0 .6 0 .6 0 .6 0 .6 0 .6 0 .6 0 .6 0 .6 0 .6 0 .6 0 .5 0 .6 0 .6 0 .5 0 .6 0 .5 0 .5 0 .5 0 .6 0 .5 0 .5 0 .5 0 .5 0 .5 0 .5 0 .5 0 .5 0 .5 0 .5 0 .5 0 .5 0 .5 0 .5 0 .5 0 .5 0 .5 0 .5 0 .5 0 .5 0 .5 0 .5 0 .5 0 .5 0 .5 0 .5 0 .5 0 .5 0 .5 0 .5 0 .5 0 .5 0 .5 0 .5 0 .5 0 .5 0 .5 0 .5 0 .5 0 .5 0 .5 0 .5 0 .5 0 .5 0 .5 0 .5 0 .5 0 .5 0 .5 0 .5 0 .5 0 .5 0 .5 0 .5 0 .5 0 .5 0 .5 0 .5 0 .5 0 .5 0 .5 0 .5 0 .5 0 .5 0 .5 0 .5 0 .5 0 .5 0 .5 0 .5 0 .5 0 .5 0 .5 0 .5 0 .5 0 .5 0 .5 0 .5 0 .5 0 .5 0 .5 0 .5 0 .5 0 .5 0 .5 0 .5 0 .5 0 .5 0 .5 0 .5 0 .6 0 .5 0 .5 0 .5 0 .6 0 .5 0 .6 0 .6 0 .5 0 .6 0 .6 0 .6 0 .6 0 .6 0 .6 0 .6 0 .6 0 .6 0 .6 0 .6 0 .6 0 .6 0 .6 0 .6 0 .6 0 .6 0 .6 0 .6 0 .6 0 .6 0 .6 0 .6 0 .6 0 .6 0 .6 0 .6 0 .6 0 .6 0 .6 0 .6 0 .6 0 .6 0 .6 0 .6 0 .6 0 .6 0 .6 0 .6 0 .6 0 .6 0 .6 0 .6 0 .6 0 .6 0 .6 0 .6 0 .6 0 .6 0 .6 0 .6 0 .6 0 .6 0 .6 0 .6 0 .6 0 .6 0 .6 0 .6 0 .6 0 .6 0 .6 0 .6 0 .6 0 .6 0 .6 0 .6 0 .6 0 .6 0 .6 0 .6 0 .6 0 .6 0 .6 0 .6 0 .6 0 .6 0 .6 0 .6 0 .6 0 .6 0 .6 0 .6 0 .6 0 .6 0 .6 0 .6 0 .6 0 .6 0 .6 0 .6 0 .6 0 .6 0 .6 0 .6 0 .6 0 .6 0 .6 0 .6 0 .6 0 .6 0 .6 0 .6 0 .6 0 .6 0 .6 0 .6 0 .6 0 .6 0 .6 0 .6 0 .6 0 .6 0 .6 0 .6 0 .6 0 .6 0 .6 0 .6 0 .6 0 .6 0 .6 0 .6 0 .6 0 .6 0 .6 0 .6 0 .6 0 .6 0 .6 0 .6 0 .6 0 .6 0 .6 0 .6 0 .6 0 .6 0 .6 0 .6 0 .6 0 .6 0 .6 0 .6 0 .6 0 .6 0 .6 0 .6 0 .6 0 .6 0 .6 0 .6 0 .6 0 .6 0 .6 0 .6 0 .6 0 .6 0 .6 0 .6 0 .6 0 .6 0 .7 0 .6 0 .7 0 .7 0 .7 0 .7 0 .7 0 .7 0 .7 0 .7 0 .7 0 .7 0 .7 0 .7 0 .7 0 .7 0 .7 0 .7 0 .7 0 .7 0 .7 0 .7 0 .7 0 .7 0 .7 0 .7 0 .7 0 .7 0 .7 0 .7 0 .7 0 .7 0 .7 0 .7 0 .7 0 .7 0 .7 0 .7 0 .7 0 .7 0 .7 0 24 0 0 24 0 72c0 44.2-35.8 80-80 80l-304 0c-44.2 0-80-35.8-80-80l0-288c0-17.7-14.3-32-32-32zM265.3 432L496 432c17.7 0 32-14.3 32-32l0-48-.3 0-.7 0-.7 0-.7 0-.6 0-.7 0-.6 0-.6 0-.6 0-.6 0-.6 0-.6 0-.6 0-.6 0-.6 0-.6 0-.6 0-.6 0-.6 0-.6 0-.6 0-.6 0-.6 0-.6 0-.6 0-.6 0-.6 0-.6 0-.6 0-.6 0-.6 0-.6 0-.6 0-.6 0-.6 0-.6 0-.6 0-.6 0-.6 0-.6 0-.6 0-.6 0-.6 0-.6 0-.6 0-.6 0-.6 0-.6 0-.6 0-.6 0-.6 0-.6 0-.6 0-.6 0-.6 0-.6 0-.6 0-.6 0-.6 0-.6 0-.6 0-.6 0-.6 0-.6 0-.6 0-.6 0-.6 0-.6 0-.6 0-.6 0-.6 0-.6 0-.6 0-.6 0-.6 0-.6 0-.6 0-.6 0-.6 0-.6 0-.6 0-.6 0-.6 0-.6 0-.6 0-.6 0-.6 0-.6 0-.6 0-.6 0-.6 0-.6 0-.6 0-.6 0-.6 0-.6 0-.6 0-.6 0-.6 0-.6 0-.6 0-.6 0-.6 0-.6 0-.6 0-.6 0-.6 0-.6 0-.6 0-.6 0-.6 0-.6 0-.6 0-.6 0-.6 0-.6 0-.6 0-.6 0-.6 0-.6 0-.6 0-.6 0-.6 0-.6 0-.6 0-.6 0-.6 0-.6 0-.6 0-.6 0-.6 0-.6 0-.6 0-.6 0-.6 0-.6 0-.6 0-.6 0-.6 0-.6 0-.6 0-.6 0-.6 0-.6 0-.6 0-.6 0-.6 0-.6 0-.6 0-.6 0-.6 0-.6 0-.6 0-.6 0-.6 0-.6 0-.6 0-.6 0-.6 0-.6 0-.6 0-.6 0-.6 0-.6 0-.6 0-.6 0-.6 0-.5 0-.6 0-.6 0-.5 0-.6 0-.5 0-.5 0-.5 0-.6 0-.5 0-.5 0-.5 0-.5 0-.5 0-.5 0-.5 0-.5 0-.5 0-.5 0-.5 0-.5 0-.5 0-.5 0-.5 0-.5 0-.5 0-.5 0-.5 0-.5 0-.5 0-.5 0-.5 0-.5 0-.5 0-.5 0-.5 0-.5 0-.5 0-.5 0-.5 0-.5 0-.5 0-.5 0-.5 0-.5 0-.5 0-.5 0-.5 0-.5 0-.5 0-.5 0-.5 0-.5 0-.5 0 0 32 0 16-32 0 0-16 0-32-.2 0-.6 0-.6 0-.6 0-.6 0-.6 0-.6 0-.6 0-.6 0-.6 0-.6 0-.6 0-.6 0-.6 0-.6 0-.6 0-.6 0-.6 0-.6 0-.6 0-.6 0-.6 0-.6 0-.6 0-.6 0-.6 0-.6 0-.6 0-.6 0-.6 0-.6 0-.6 0-.6 0-.6 0-.6 0-.6 0-.6 0-.6 0-.6 0-.6 0-.6 0-.6 0-.6 0-.6 0-.6 0-.6 0-.6 0-.6 0-.6 0-.6 0-.6 0-.6 0-.6 0-.6 0-.6 0-.6 0-.6 0-.6 0-.6 0-.6 0-.6 0-.6 0-.6 0-.6 0-.6 0-.6 0-.6 0-.6 0-.6 0-.6 0-.6 0-.6 0-.6 0-.6 0-.6 0-.6 0-.6 0-.6 0-.6 0-.6 0-.6 0-.6 0-.6 0-.6 0-.6 0-.6 0-.6 0-.6 0-.6 0-.6 0-.6 0-.6 0-.6 0-.6 0-.6 0-.6 0-.6 0-.6 0-.6 0-.6 0-.6 0-.6 0-.6 0-.6 0-.6 0-.6 0-.6 0-.6 0-.6 0-.6 0-.6 0-.6 0-.6 0-.6 0-.6 0-.6 0-.6 0-.6 0-.6 0-.6 0-.6 0-.6 0-.6 0-.6 0-.6 0-.6 0-.6 0-.6 0-.6 0-.6 0-.6 0-.6 0-.6 0-.6 0-.6 0-.6 0-.6 0-.6 0-.6 0-.6 0-.6 0-.6 0-.6 0-.6 0-.6 0-.6 0-.6 0-.6 0-.6 0-.6 0-.6 0-.6 0-.6 0-.6 0-.6 0-.6 0-.7 0-.7 0-.7 0-.7 0-.7 0-.7 0-.3 0 0 48c0 11.4-2.4 22.2-6.7 32z"/></svg>