<svg xmlns="http://www.w3.org/2000/svg" viewBox="0 0 640 512"><!--! Font Awesome Pro 6.6.0 by @fontawesome - https://fontawesome.com License - https://fontawesome.com/license (Commercial License) Copyright 2024 Fonticons, Inc. --><path d="M331.3 112l10.1 5.1 112.1 56.1L592 138.5l0-39.9L444.1 49.3 304 72.7l0 39.3 16 0 11.3 0zM304 160l-48 0 0-48 0-80L448 0 640 64l0 112L448 224 320 160l-16 0zM128 32l96 0 0 128-96 0 0-128zm75.3 368L192 400l-16 0 0 39.3 140.1 23.4L464 413.4l0-39.9L325.6 338.9 213.5 394.9 203.3 400zM176 352l16 0 128-64 192 48 0 112L320 512 128 480l0-80 0-48 48 0zM0 480L0 352l96 0 0 128L0 480z"/></svg>