<svg xmlns="http://www.w3.org/2000/svg" viewBox="0 0 512 512"><!--! Font Awesome Pro 6.6.0 by @fontawesome - https://fontawesome.com License - https://fontawesome.com/license (Commercial License) Copyright 2024 Fonticons, Inc. --><path d="M24 32L0 32 0 80l24 0 464 0 24 0 0-48-24 0L24 32zm-8 96L8 176 0 224l48.7 0 414.7 0 48.7 0-8-48-8-48-48.7 0 8 48L56.7 176l8-48L16 128zM8 304L0 352l48.7 0 414.7 0 48.7 0-8-48-8-48-48.7 0 8 48L56.7 304l8-48L16 256 8 304zM8 432L0 480l48.7 0 414.7 0 48.7 0-8-48-8-48-48.7 0 8 48L56.7 432l8-48L16 384 8 432z"/></svg>