<svg xmlns="http://www.w3.org/2000/svg" viewBox="0 0 576 512"><!--! Font Awesome Pro 6.6.0 by @fontawesome - https://fontawesome.com License - https://fontawesome.com/license (Commercial License) Copyright 2024 Fonticons, Inc. --><path d="M48 256c0-56.2 19.3-107.8 51.6-148.7L61.9 77.5C23.2 126.6 0 188.6 0 256s23.2 129.4 61.9 178.5l37.7-29.7C67.3 363.8 48 312.2 48 256zm64 0c0 41.2 14.2 79.1 37.9 109.1l37.7-29.7C170.3 313.5 160 286 160 256s10.3-57.5 27.5-79.3l-37.7-29.7C126.2 176.9 112 214.8 112 256zM426.1 146.9l-37.7 29.7C405.7 198.5 416 226 416 256s-10.3 57.5-27.5 79.3l37.7 29.7c23.7-30 37.9-67.9 37.9-109.1s-14.2-79.1-37.9-109.1zM528 256c0 56.2-19.3 107.8-51.6 148.7l37.7 29.7C552.8 385.4 576 323.4 576 256s-23.2-129.4-61.9-178.5l-37.7 29.7C508.7 148.2 528 199.8 528 256zM288 296a40 40 0 1 0 0-80 40 40 0 1 0 0 80z"/></svg>