<svg xmlns="http://www.w3.org/2000/svg" viewBox="0 0 640 512"><!--! Font Awesome Pro 6.6.0 by @fontawesome - https://fontawesome.com License - https://fontawesome.com/license (Commercial License) Copyright 2024 Fonticons, Inc. --><path d="M544 48l0 416 32 0 0-416-32 0zM496 0l48 0 32 0 48 0 0 48 0 416 0 48-48 0-32 0-48 0 0-48 0-416 0-48zM384 176l0 288 32 0 0-288-32 0zm-48-48l48 0 32 0 48 0 0 48 0 288 0 48-48 0-32 0-48 0 0-48 0-288 0-48zM256 304l-32 0 0 160 32 0 0-160zm-32-48l32 0 48 0 0 48 0 160 0 48-48 0-32 0-48 0 0-48 0-160 0-48 48 0zM64 432l0 32 32 0 0-32-32 0zM16 384l48 0 32 0 48 0 0 48 0 32 0 48-48 0-32 0-48 0 0-48 0-32 0-48z"/></svg>