<svg xmlns="http://www.w3.org/2000/svg" viewBox="0 0 512 512"><!--! Font Awesome Pro 6.6.0 by @fontawesome - https://fontawesome.com License - https://fontawesome.com/license (Commercial License) Copyright 2024 Fonticons, Inc. --><path d="M232 0l48 0 0 32 168 0 64 80-64 80-168 0 0 32 152 0 48 0 0 48 0 64 0 48-48 0-152 0 0 128-48 0 0-128L64 384 0 304l64-80 168 0 0-32L80 192l-48 0 0-48 0-64 0-48 48 0 152 0 0-32zM424.9 80L80 80l0 64 344.9 0 25.6-32L424.9 80zM87.1 272L61.5 304l25.6 32L432 336l0-64L87.1 272z"/></svg>