<svg xmlns="http://www.w3.org/2000/svg" viewBox="0 0 512 512"><!--! Font Awesome Pro 6.6.0 by @fontawesome - https://fontawesome.com License - https://fontawesome.com/license (Commercial License) Copyright 2024 Fonticons, Inc. --><path d="M39.8 408.2C90 458.3 169.6 461.1 223 416.5c3.1-2.6 6.1-5.3 9-8.2l0 55.7-48 0-24 0 0 48 24 0 48 0 48 0 48 0 24 0 0-48-24 0-48 0 0-55.7c2.9 2.9 5.9 5.6 9 8.2c53.4 44.6 133 41.8 183.2-8.4c53.1-53.1 53.1-139.2 0-192.3L256 0 39.8 215.8c-53.1 53.1-53.1 139.2 0 192.3zm33.9-33.9c-34.4-34.4-34.4-90.1 0-124.4c0 0 0 0 0 0L256 67.8 438.2 249.8s0 0 0 0c34.4 34.4 34.4 90.1 0 124.4c-34.3 34.3-90 34.4-124.3 .1l-23.7-24L256 315.6l-34.2 34.7-23.7 24c-34.4 34.3-90 34.2-124.3-.1z"/></svg>