<svg xmlns="http://www.w3.org/2000/svg" viewBox="0 0 640 512"><!--! Font Awesome Pro 6.6.0 by @fontawesome - https://fontawesome.com License - https://fontawesome.com/license (Commercial License) Copyright 2024 Fonticons, Inc. --><path d="M515.4 224c-19.7 0-37.7-6.5-52.2-17.2c-4.7-3.5-9.1-7.4-13-11.8c-3.9 4.3-8.2 8.2-12.9 11.7c-14.5 10.8-32.5 17.3-52.3 17.3c-19.6 0-37.5-6.4-52-17c-4.8-3.5-9.2-7.5-13.2-11.9c-4 4.4-8.4 8.4-13.2 12c-1.9 1.4-3.8 2.7-5.7 3.9L462.1 336l33.9 0 0-81.6c6.3 1 12.8 1.6 19.4 1.6c5.6 0 10.9-.4 16.2-1.1c0 0 0 0 .1 0c4.2-.6 8.3-1.3 12.3-2.3l0 83.4 0 48 0 15.6 76.9 59.7 19 14.7-29.4 37.9-19-14.7L19 52.7 0 38 29.4 .1l19 14.7L94.8 50.9 128 0 512 0l67.6 103.8c29.7 46.9 3.4 112-52.1 119.4c-4 .5-7.9 .8-12.1 .8zM132.9 80.4L189.1 124l.5-.6 2.9 3.2L256 176c11.3-.4 21.3-5.4 28.3-13.1l35.6-39.4 35.6 39.4c7.3 8.1 17.8 13.2 29.6 13.2c11.9 0 22.3-5.1 29.6-13.2l35.5-39.3 35.6 39.2c7.4 8.2 18 13.2 29.7 13.2c2 0 3.8-.1 5.8-.4c9-1.2 16.1-6.8 20.1-16c4.1-9.5 3.6-20.7-2.1-29.9L486 48 154 48 132.9 80.4zm-84 54.1l106.4 83.9c-9.6 3.6-20 5.6-31 5.6c-4.1 0-8.2-.3-12.1-.8c-43.9-5.9-69.4-48.1-63.3-88.7zM365.5 384L144 384l0 80 323.1 0L528 512l16 0s0 0 0 0l-48 0-352 0-48 0 0-48 0-80 0-48 0-83.4c3.9 1 7.9 1.7 12 2.3l.1 0c5.3 .7 10.7 1.1 16.3 1.1c6.7 0 13.3-.6 19.6-1.6l0 81.6 160.6 0 60.9 48z"/></svg>