<svg xmlns="http://www.w3.org/2000/svg" viewBox="0 0 512 512"><!--! Font Awesome Pro 6.6.0 by @fontawesome - https://fontawesome.com License - https://fontawesome.com/license (Commercial License) Copyright 2024 Fonticons, Inc. --><path d="M360 0s-40 40-40 80c0 33.9 11 44.3 29.4 61.7c0 0 0 0 0 0c3.3 3.1 6.9 6.5 10.6 10.3s7.1 7.3 10.3 10.6c0 0 0 0 0 0s0 0 0 0C387.7 181 398.1 192 432 192c40 0 80-40 80-40s-29.5-36.8-74.3-39.8c.7-.7 1.5-1.5 2.2-2.2c21.5-21.5 48.2-52.2 62.1-84.5L457.9 6.5C447.8 30.2 426.5 55.5 406 76c-2 2-4.1 4-6 5.9c0-.6 0-1.3 0-2c0-48-40-80-40-80zM192.2 112c20.5 0 40.8 7.8 56.4 23.4l128 128c15.6 15.6 23.4 36 23.4 56.6c0 59.2-62.9 144-224 144L48 464l0-128c0-161 84.9-224 144.2-224zm0-48C96.2 64 0 160 0 336L0 464l0 48 48 0 128 0c176 0 272-96 272-192c0-32.8-12.5-65.5-37.5-90.5l-128-128C257.6 76.6 224.9 64.1 192.2 64zM180.8 188.8c11.9-11.9 9.6-35.2 9.6-35.2s-23.3-2.3-35.2 9.6s-9.6 35.2-9.6 35.2s23.3 2.3 35.2-9.6zm-24 88c11.9-11.9 9.6-35.2 9.6-35.2s-23.3-2.3-35.2 9.6s-9.6 35.2-9.6 35.2s23.3 2.3 35.2-9.6zm57.6 20.8s-23.3-2.3-35.2 9.6s-9.6 35.2-9.6 35.2s23.3 2.3 35.2-9.6s9.6-35.2 9.6-35.2zm46.4 83.2c11.9-11.9 9.6-35.2 9.6-35.2s-23.3-2.3-35.2 9.6s-9.6 35.2-9.6 35.2s23.3 2.3 35.2-9.6zM134.4 329.6s-23.3-2.3-35.2 9.6s-9.6 35.2-9.6 35.2s23.3 2.3 35.2-9.6s9.6-35.2 9.6-35.2zm38.4 83.2c11.9-11.9 9.6-35.2 9.6-35.2s-23.3-2.3-35.2 9.6s-9.6 35.2-9.6 35.2s23.3 2.3 35.2-9.6zm73.6-195.2s-23.3-2.3-35.2 9.6s-9.6 35.2-9.6 35.2s23.3 2.3 35.2-9.6s9.6-35.2 9.6-35.2zm38.4 83.2c11.9-11.9 9.6-35.2 9.6-35.2s-23.3-2.3-35.2 9.6s-9.6 35.2-9.6 35.2s23.3 2.3 35.2-9.6zm73.6 20.8s-23.3-2.3-35.2 9.6s-9.6 35.2-9.6 35.2s23.3 2.3 35.2-9.6s9.6-35.2 9.6-35.2z"/></svg>