<svg xmlns="http://www.w3.org/2000/svg" viewBox="0 0 640 512"><!--! Font Awesome Pro 6.6.0 by @fontawesome - https://fontawesome.com License - https://fontawesome.com/license (Commercial License) Copyright 2024 Fonticons, Inc. --><path d="M202.2 58l21.1-3.3 49.8-7.8-7.8 49.8L262 117.8l17.2 12.6L320 160l-40.8 29.7L262 202.2l3.3 21.1 7.8 49.8-49.8-7.8L202.2 262l-12.6 17.2L160 320l-29.7-40.8L117.8 262l-21.1 3.3-49.8 7.8 7.8-49.8L58 202.2 40.8 189.7 0 160l40.8-29.7L58 117.8 54.7 96.7 46.9 46.9l49.8 7.8L117.8 58l12.6-17.2L160 0l29.7 40.8L202.2 58zM156.6 86.3L139.3 110l-29-4.6-5.8-.9 .9 5.8 4.6 29L86.3 156.6 81.5 160l4.7 3.4L110 180.7l-4.6 29-.9 5.8 5.8-.9 29-4.6 17.3 23.7 3.4 4.7 3.4-4.7L180.7 210l29 4.6 5.8 .9-.9-5.8-4.6-29 23.7-17.3 4.7-3.4-4.7-3.4L210 139.3l4.6-29 .9-5.8-5.8 .9-29 4.6L163.4 86.3 160 81.5l-3.4 4.7zM536 144c-17.7 0-32 14.3-32 32l0 96 0 8 0 184 112 0 24 0 0 48-24 0L24 512 0 512l0-48 24 0 432 0 0-184 0-8c0-17.7-14.3-32-32-32s-32 14.3-32 32l0 21.4c14.8 7.7 24 23.1 24 44.6c0 19.3-21.5 52.9-48 78c-26.5-25-48-58.4-48-78c0-21.5 9.2-37 24-44.6l0-21.4c0-44.2 35.8-80 80-80c11.4 0 22.2 2.4 32 6.7l0-22.7c0-44.2 35.8-80 80-80s80 35.8 80 80l0 53.4c14.8 7.7 24 23.1 24 44.6c0 19.3-21.5 52.9-48 78c-26.5-25-48-58.4-48-78c0-21.5 9.2-37 24-44.6l0-53.4c0-17.7-14.3-32-32-32zM128 160a32 32 0 1 1 64 0 32 32 0 1 1 -64 0z"/></svg>