<svg xmlns="http://www.w3.org/2000/svg" viewBox="0 0 512 512"><!--! Font Awesome Pro 6.6.0 by @fontawesome - https://fontawesome.com License - https://fontawesome.com/license (Commercial License) Copyright 2024 Fonticons, Inc. --><path d="M193.1 23.2L256 57.1l62.9-33.9L362 0l14.1 46.9 20.5 68.4s0 0 0 0l-38.6 38.6s0 0 0 0l-7.4-24.8L333 70.2 278.8 99.4 256 111.6 233.2 99.4 179 70.2l-17.7 59-7.4 24.8-24.8 7.4L70.2 179l29.2 54.2L111.6 256 99.4 278.8 70.2 333l59 17.7 24.8 7.4s0 0 0 0l-38.6 38.6s0 0 0 0L46.9 376.1 0 362l23.2-43.1L57.1 256 23.2 193.1 0 150l46.9-14.1 68.4-20.5 20.5-68.4L150 0l43.1 23.2zM256 144c30.9 0 58.9 12.5 79.2 32.8l-33.9 33.9C289.7 199.2 273.7 192 256 192c-35.3 0-64 28.7-64 64c0 17.7 7.2 33.7 18.7 45.3l-33.9 33.9C156.5 314.9 144 286.9 144 256c0-61.9 50.1-112 112-112zm192 16a32 32 0 1 1 64 0 32 32 0 1 1 -64 0zm-80 80a32 32 0 1 1 64 0 32 32 0 1 1 -64 0zm112 48a32 32 0 1 1 0 64 32 32 0 1 1 0-64zM240 368a32 32 0 1 1 0 64 32 32 0 1 1 0-64zm-80 80a32 32 0 1 1 0 64 32 32 0 1 1 0-64zm128 32a32 32 0 1 1 64 0 32 32 0 1 1 -64 0zm192-32a32 32 0 1 1 0 64 32 32 0 1 1 0-64zM368 400a32 32 0 1 1 64 0 32 32 0 1 1 -64 0zM320 288a32 32 0 1 1 0 64 32 32 0 1 1 0-64z"/></svg>