<svg xmlns="http://www.w3.org/2000/svg" viewBox="0 0 512 512"><!--! Font Awesome Pro 6.6.0 by @fontawesome - https://fontawesome.com License - https://fontawesome.com/license (Commercial License) Copyright 2024 Fonticons, Inc. --><path d="M193.1 23.2L256 57.1l62.9-33.9L362 0l14.1 46.9 20.5 68.4 68.4 20.5L512 150l-23.2 43.1L454.9 256l33.9 62.9L512 362l-46.9 14.1-68.4 20.5-20.5 68.4L362 512l-43.1-23.2L256 454.9l-62.9 33.9L150 512l-14.1-46.9-20.5-68.4L46.9 376.1 0 362l23.2-43.1L57.1 256 23.2 193.1 0 150l46.9-14.1 68.4-20.5 20.5-68.4L150 0l43.1 23.2zm85.7 76.1L256 111.6 233.2 99.4 179 70.2l-17.7 59-7.4 24.8-24.8 7.4L70.2 179l29.2 54.2L111.6 256 99.4 278.8 70.2 333l59 17.7 24.8 7.4 7.4 24.8 17.7 59 54.2-29.2L256 400.4l22.8 12.3L333 441.8l17.7-59 7.4-24.8 24.8-7.4 59-17.7-29.2-54.2L400.4 256l12.3-22.8L441.8 179l-59-17.7-24.8-7.4-7.4-24.8L333 70.2 278.8 99.4zM256 144a112 112 0 1 1 0 224 112 112 0 1 1 0-224zm64 112a64 64 0 1 0 -128 0 64 64 0 1 0 128 0z"/></svg>