<svg xmlns="http://www.w3.org/2000/svg" viewBox="0 0 448 512"><!--! Font Awesome Pro 6.6.0 by @fontawesome - https://fontawesome.com License - https://fontawesome.com/license (Commercial License) Copyright 2024 Fonticons, Inc. --><path d="M400 207.7c-13.2 11.2-29 19.7-45 26.1C319 248.2 272.7 256 224 256s-95-7.8-131-22.2c-16-6.4-31.9-14.9-45-26.1l0 147.9c.5 .8 1.1 1.7 1.7 2.6c5.1 7.4 13.7 18 26.8 28.7C101.9 407.9 147.1 432 224 432s122.1-24.1 147.5-45.1c13.1-10.8 21.7-21.3 26.8-28.7c.6-.9 1.2-1.8 1.8-2.6l0-147.9zM64 144c0 11.6 7.7 22.5 21.2 31.9l50.3-46.6 3-2.8 3.9-1.4 75.3-26.5-8.4-18.3C127.9 83.2 64 110.6 64 144zm60.5 50.1c27.3 8.7 61.9 13.9 99.5 13.9c39.9 0 76.3-5.8 104.3-15.5l-73.7-27.6-7.7-2.9-3.4-7.5-8.9-19.4-74.9 26.4-35.2 32.6zM384 144c0-31.3-56.1-57.3-130.2-62.9l22.5 49.3 97.2 36.4C380.3 159.7 384 152 384 144zM224 32c123.7 0 224 50.1 224 112l0 224s-48 112-224 112S0 368 0 368L0 144C0 82.1 100.3 32 224 32z"/></svg>