<svg xmlns="http://www.w3.org/2000/svg" viewBox="0 0 512 512"><!--! Font Awesome Pro 6.6.0 by @fontawesome - https://fontawesome.com License - https://fontawesome.com/license (Commercial License) Copyright 2024 Fonticons, Inc. --><path d="M435.2 1.3L401.3 35.2l17 17 3.8 3.8L384 94.1 329 39l-17-17L278.1 56l17 17 72 72 72 72 17 17L489.9 200l-17-17-55-55L456 89.9l3.8 3.8 17 17 33.9-33.9-17-17L473 39 452.2 18.2l-17-17zM271.4 94.6L71 295l-7 7 0 9.9 0 102.1L18.2 459.8l-17 17 33.9 33.9 17-17L97.9 448 200 448l9.9 0 7-7L417.4 240.6l-1-1-33-33L190.1 400 112 400l0-78.1 29.7-29.7 23 23L176 326.6 198.6 304l-11.3-11.3-23-23 41.4-41.4 23 23L240 262.6 262.6 240l-11.3-11.3-23-23 41.4-41.4 23 23L304 198.6 326.6 176l-11.3-11.3-23-23 13.1-13.1-33-33-1-1z"/></svg>