<svg xmlns="http://www.w3.org/2000/svg" viewBox="0 0 640 512"><!--! Font Awesome Pro 6.6.0 by @fontawesome - https://fontawesome.com License - https://fontawesome.com/license (Commercial License) Copyright 2024 Fonticons, Inc. --><path d="M360 80l0 88 104 0 0-88L360 80zm-48 0L200 80l0 88 112 0 0-88zM152 80L48 80l0 88 104 0 0-88zM48 216l0 80 104 0 0-80L48 216zm0 128l0 88 104 0 0-88L48 344zm152 88l112 0 0-88-112 0 0 88zm160 0l24 0 0 48L48 480 0 480l0-48L0 80 0 32l48 0 416 0 48 0 0 48 0 81.1c-34.7 5-64.2 25.8-81 54.9l-71 0 0 80 24 0 0 48-24 0 0 88zM200 296l112 0 0-80-112 0 0 80zm328-56c-17.7 0-32 14.3-32 32l0 48 64 0 0-48c0-17.7-14.3-32-32-32zm-80 32c0-44.2 35.8-80 80-80s80 35.8 80 80l0 48 32 0 0 192-224 0 0-192 32 0 0-48z"/></svg>