<svg xmlns="http://www.w3.org/2000/svg" viewBox="0 0 640 512"><!--! Font Awesome Pro 6.6.0 by @fontawesome - https://fontawesome.com License - https://fontawesome.com/license (Commercial License) Copyright 2024 Fonticons, Inc. --><path d="M48 296l104 0 0-80L48 216l0 80zm0 136l104 0 0-88L48 344l0 88zm264 0l0-88-112 0 0 88 112 0zm72-136l0 48-24 0 0 88 24 0 0 48L48 480 0 480l0-48L0 80 0 32l48 0 416 0 48 0 0 48 0 81.1c-34.7 5-64.2 25.8-81 54.9l-71 0 0 80 24 0zM200 216l0 80 112 0 0-80-112 0zm296 56l0 48 32 0 32 0 48 0 32 0 0 192-224 0 0-192 32 0 0-48c0-44.2 35.8-80 80-80s80 35.8 80 80l-48 0c0-17.7-14.3-32-32-32s-32 14.3-32 32z"/></svg>