<svg xmlns="http://www.w3.org/2000/svg" viewBox="0 0 576 512"><!--! Font Awesome Pro 6.6.0 by @fontawesome - https://fontawesome.com License - https://fontawesome.com/license (Commercial License) Copyright 2024 Fonticons, Inc. --><path d="M357.3 307.7L368 294.5l0-17L368 48l128 0 0 229.5 0 17 10.7 13.2C520 324.2 528 345.1 528 368c0 53-43 96-96 96s-96-43-96-96c0-22.9 8-43.8 21.3-60.3zM544 0L496 0 368 0 320 0l0 48 0 229.5c-20 24.7-32 56.2-32 90.5c0 79.5 64.5 144 144 144s144-64.5 144-144c0-34.3-12-65.8-32-90.5L544 48l0-48zM432 416c26.5 0 48-21.5 48-48c0-20.9-13.4-38.7-32-45.3l0-50.8 0-16-32 0 0 16 0 50.8c-18.6 6.6-32 24.4-32 45.3c0 26.5 21.5 48 48 48zM288 96.9l-22.6-6.1-4.1 15.5-12.9 48.2L200 182.4l0-55.8 35.3-35.3L246.6 80 224 57.4 212.7 68.7 200 81.4 200 56l0-24-48 0 0 24 0 25.4L139.3 68.7 128 57.4 105.4 80l11.3 11.3L152 126.6l0 55.8-48.3-27.9L90.7 106.3 86.6 90.8 55.7 99.1l4.1 15.5 4.6 17.3-15-8.7-20.8-12-24 41.6 20.8 12 15 8.7-17.3 4.6L7.7 182.3 16 213.2 31.4 209l48.2-12.9L128 224 79.7 251.9 31.4 239 16 234.8 7.7 265.7l15.5 4.1 17.3 4.6-15 8.7-20.8 12 24 41.6 20.8-12 15-8.7-4.6 17.3-4.1 15.5 30.9 8.3 4.1-15.5 12.9-48.2L152 265.6l0 55.8-35.3 35.3L105.4 368 128 390.6l11.3-11.3L152 366.6l0 25.4 0 24 48 0 0-24 0-25.4 12.7 12.7L224 390.6 246.6 368l-11.3-11.3L200 321.4l0-55.8 48.3 27.9 10.9 40.7c4.8-24.7 14.8-47.6 28.8-67.4l0-19.1-15.7 4.2L224 224l48.3-27.9 15.7 4.2 0-68.7-.5 .3 .5-1.8 0-33.2z"/></svg>