<svg xmlns="http://www.w3.org/2000/svg" viewBox="0 0 576 512"><!--! Font Awesome Pro 6.6.0 by @fontawesome - https://fontawesome.com License - https://fontawesome.com/license (Commercial License) Copyright 2024 Fonticons, Inc. --><path d="M217.9 138l-17.9 15.9-72 64L112 232.1 96.1 217.9l-72-64L6.1 138 38 102.1l17.9 15.9L88 146.6 88 24 88 0l48 0 0 24 0 122.6 32.1-28.5L186 102.1 217.9 138zm352 0l-17.9 15.9-72 64L464 232.1l-15.9-14.2-72-64L358.1 138 390 102.1l17.9 15.9L440 146.6 440 24l0-24 48 0 0 24 0 122.6 32.1-28.5L538 102.1 569.9 138zM112.5 512L64 512l6.9-48L96 288 288 160 480 288l25.1 176 6.9 48-48.5 0-351 0zM264 233.7L140.5 316 119.3 464 264 464l0-230.3zm48 0L312 360l62.4 104 82.3 0L435.5 316 312 233.7z"/></svg>