<svg xmlns="http://www.w3.org/2000/svg" viewBox="0 0 512 512"><!--! Font Awesome Pro 6.6.0 by @fontawesome - https://fontawesome.com License - https://fontawesome.com/license (Commercial License) Copyright 2024 Fonticons, Inc. --><path d="M439.7 385.6c15.5-29 24.3-62.2 24.3-97.6c0-114.9-93.1-208-208-208S48 173.1 48 288c0 35.4 8.8 68.5 24.3 97.6l14.3 26.9L68.3 436.9 48 464l84 0L380 464l84 0-20.3-27.1-18.3-24.4 14.3-26.9zm42.4 22.6L512 448l0 16 0 48-48 0-84 0L132 512l-84 0L0 512l0-48 0-16 29.9-39.9C10.8 372.3 0 331.4 0 288C0 146.6 114.6 32 256 32s256 114.6 256 256c0 43.4-10.8 84.3-29.9 120.1zM376 288c0-31.2-11.9-59.6-31.4-80.9l-24.2 33.4c9.8 13.3 15.6 29.7 15.6 47.5l0 .9 39.2 12.8c.5-4.5 .8-9 .8-13.6zm-54.9 46.5c-10 14-24.4 24.6-41.2 29.9l0 41.3c34.4-7 63.5-28.7 80.4-58.3l-39.3-12.8zM232 364.3c-16.7-5.3-31.1-15.9-41.1-29.8l-39.3 12.8c16.8 29.6 45.9 51.3 80.3 58.3l0-41.3zM136 288c0 4.6 .3 9.2 .8 13.6L176 288.9l0-.9c0-17.8 5.8-34.2 15.6-47.5l-1.7-2.3-22.6-31.1C147.9 228.4 136 256.8 136 288zm120-80c8.9 0 17.6 1.5 25.6 4.2l24.2-33.4c-15.2-6.9-32-10.8-49.8-10.8s-34.6 3.9-49.8 10.8L228.8 210l1.6 2.2c8-2.7 16.6-4.2 25.6-4.2zM88 288a168 168 0 1 1 336 0A168 168 0 1 1 88 288zm200 0a32 32 0 1 0 -64 0 32 32 0 1 0 64 0z"/></svg>