<svg xmlns="http://www.w3.org/2000/svg" viewBox="0 0 512 512"><!--! Font Awesome Pro 6.6.0 by @fontawesome - https://fontawesome.com License - https://fontawesome.com/license (Commercial License) Copyright 2024 Fonticons, Inc. --><path d="M464 256A208 208 0 1 0 48 256a208 208 0 1 0 416 0zM0 256a256 256 0 1 1 512 0A256 256 0 1 1 0 256zm336 .9l39.2 12.8c.5-4.5 .8-9 .8-13.6c0-31.2-11.9-59.6-31.4-80.9l-24.2 33.4c9.8 13.3 15.6 29.7 15.6 47.5c0 .3 0 .6 0 .9zm-14.9 45.6c-10 14-24.4 24.6-41.2 29.9l0 41.3c34.4-7 63.5-28.7 80.4-58.3l-39.3-12.8zM232 373.6l0-41.3c-16.7-5.3-31.1-15.9-41.1-29.8l-39.3 12.8c16.8 29.6 45.9 51.3 80.3 58.3zm-95.2-104L176 256.9c0-.3 0-.6 0-.9c0-17.8 5.8-34.2 15.6-47.5l-1.7-2.3-22.6-31.1C147.9 196.4 136 224.8 136 256c0 4.6 .3 9.2 .8 13.6zm93.6-89.5c8-2.7 16.6-4.2 25.6-4.2s17.6 1.5 25.6 4.2l24.2-33.4c-15.2-6.9-32-10.8-49.8-10.8s-34.6 3.9-49.8 10.8L228.8 178l1.6 2.2zM288 256a32 32 0 1 0 -64 0 32 32 0 1 0 64 0zM256 88a168 168 0 1 1 0 336 168 168 0 1 1 0-336z"/></svg>