<svg xmlns="http://www.w3.org/2000/svg" viewBox="0 0 640 512"><!--! Font Awesome Pro 6.6.0 by @fontawesome - https://fontawesome.com License - https://fontawesome.com/license (Commercial License) Copyright 2024 Fonticons, Inc. --><path d="M8 512l52 0 321.3 0 8.2-19.7c19-45.8 29.6-96.3 35.4-147.5c0-.2 0-.4 .1-.5c5.9-51.4 6.9-103.4 6.9-152.2c0-76 26.2-138.3 59.4-143.6c1.5-.2 3.1-.4 4.6-.4c35.3 0 64 64.5 64 144s-28.7 144-64 144c-13.2 0-25.5-9-35.7-24.5c-1.5 20-3.6 40.1-6.5 60.2C465.5 379 479.7 384 496 384c24.5 0 44.1-11.4 58-24.5c13.6-13 23.7-29.4 31.1-46.1C600 279.8 608 236.9 608 192s-8-87.8-22.9-121.3C577.7 54 567.6 37.5 554 24.5C540.1 11.4 520.5 0 496 0c-1.3 0-2.6 0-3.8 .1c0 0 0-.1 0-.1L160 0C107 0 64 86 64 192c0 88.5-3.8 187.7-36.1 272c-.5 1.3-1 2.5-1.5 3.8L8 512zM419 48c-4.7 7.3-8.6 15-12.1 22.7C392 104.2 384 147.1 384 192c0 93.9-4.4 191.6-34.9 272L78.9 464C109 374.7 112 275 112 192c0-47.2 9.7-87.5 23.1-114.3c6.7-13.4 13.4-21.6 18.6-26c2.5-2.1 4.3-3 5.2-3.4c.5-.2 .8-.3 .9-.3s.2 0 .3 0l259 0zm77 192c13.3 0 24-21.5 24-48s-10.7-48-24-48s-24 21.5-24 48s10.7 48 24 48z"/></svg>