<svg xmlns="http://www.w3.org/2000/svg" viewBox="0 0 640 512"><!--! Font Awesome Pro 6.6.0 by @fontawesome - https://fontawesome.com License - https://fontawesome.com/license (Commercial License) Copyright 2024 Fonticons, Inc. --><path d="M528 512l48 0s0 0 0 0l-24 0-304 0-24 0 0-24 0-72 48 0 0 48 195.1 0L528 512zm48-87.6l44.9 34.9 19 14.7-29.4 37.9-19-14.7L19 52.7 0 38 29.4 .1l19 14.7L97.6 53C115.3 23.7 141.8 0 176 0L464 0c37.7 0 66 28.7 83.5 62.1C565.5 96.6 576 142.5 576 192l0 232.4zM135.9 82.7l222 172.4C354.1 235.2 352 214 352 192c0-49.5 10.5-95.4 28.5-129.9c2.5-4.8 5.3-9.5 8.2-14.1L176 48c-10.7 0-26 8.5-40.1 34.7zM462 335.9c.7 .1 1.4 .1 2 .1c10.9 0 26.6-8.9 41-36.3c13.8-26.3 23-64.3 23-107.7s-9.2-81.3-23-107.7C490.6 56.9 474.9 48 464 48s-26.6 8.9-41 36.3c-13.8 26.3-23 64.3-23 107.7s9.2 81.3 23 107.7c2.1 4.1 4.3 7.7 6.5 11L462 335.9zm44.6 34.6L528 387.2l0-36.1c-6.4 7.5-13.6 14.1-21.4 19.4zM64 192c0-14.9 .9-29.4 2.8-43.4l45.3 35.7c-.1 2.5-.1 5.1-.1 7.7c0 43.3 9.2 81.3 23 107.7c14.4 27.5 30.1 36.3 41 36.3l128.6 0 60.9 48L176 384c-37.7 0-66-28.7-83.5-62.1C74.5 287.4 64 241.5 64 192zm424 0c0 26.5-10.7 48-24 48s-24-21.5-24-48s10.7-48 24-48s24 21.5 24 48z"/></svg>