<svg xmlns="http://www.w3.org/2000/svg" viewBox="0 0 448 512"><!--! Font Awesome Pro 6.6.0 by @fontawesome - https://fontawesome.com License - https://fontawesome.com/license (Commercial License) Copyright 2024 Fonticons, Inc. --><path d="M0 0L0 48l24 0 400 0 24 0 0-48L424 0 24 0 0 0zM81.6 182.9l-1.6 .5L80 80 32 80l0 127.1-.4 .4C17.5 219.4 8 235.7 8 256c0 72.7 33.4 120.2 78.4 148.3c.9 .5 1.7 1.1 2.6 1.6L75.3 464 64 512l49.3 0 221.4 0 49.3 0-11.3-48L359 405.9c.9-.5 1.7-1 2.6-1.6c45-28.1 78.4-75.6 78.4-148.3c0-20.3-9.5-36.6-23.6-48.5l-.4-.4L416 80l-48 0 0 103.4-1.6-.5C328.4 172 277.7 168 224 168s-104.4 4-142.4 14.9zm51.9 243.2C164.8 436.4 196.9 440 224 440s59.2-3.6 90.5-13.9l8.9 37.9-198.8 0 8.9-37.9zm-21.7-62.5c-14.7-9.2-27.8-21.2-37.6-36.9c2.4 .8 4.9 1.5 7.4 2.3C119.6 340 170.3 344 224 344s104.4-4 142.4-14.9c2.5-.7 4.9-1.5 7.4-2.3c-9.8 15.7-22.9 27.6-37.6 36.9C303 384.4 259.9 392 224 392s-79-7.6-112.2-28.3zM385.4 268c-6.1 5.1-16.5 10.4-32.2 15C321.7 292 276.4 296 224 296s-97.7-4-129.1-13.1c-15.8-4.5-26.2-9.8-32.3-15c-5.4-4.6-6.6-8.2-6.6-12s1.2-7.4 6.6-12c6.1-5.1 16.5-10.4 32.3-15C126.3 220 171.6 216 224 216s97.7 4 129.1 13.1c15.8 4.5 26.2 9.8 32.2 15c5.4 4.6 6.6 8.2 6.6 12s-1.2 7.4-6.6 12zM128 80c-8.8 0-16 7.2-16 16s7.2 16 16 16l48 0c8.8 0 16-7.2 16-16s-7.2-16-16-16l-48 0z"/></svg>