<svg xmlns="http://www.w3.org/2000/svg" viewBox="0 0 640 512"><!--! Font Awesome Pro 6.6.0 by @fontawesome - https://fontawesome.com License - https://fontawesome.com/license (Commercial License) Copyright 2024 Fonticons, Inc. --><path d="M8 512l18.4-44.2c.5-1.3 1-2.5 1.5-3.8C60.2 379.7 64 280.5 64 192c0-15 .9-29.6 2.5-43.6l45.6 35.9c-.1 2.5-.1 5.1-.1 7.7c0 83-3 182.7-33.1 272l270.2 0c9.1-24.1 15.9-49.8 21-76.4l42.1 33.1c-5.8 24.7-13.1 48.7-22.6 71.5L381.3 512 60 512 8 512zM519.3 380.4l101.6 78.9 19 14.7-29.4 37.9-19-14.7L19 52.7 0 38 29.4 .1l19 14.7L94.9 50.9C112 19.3 134.9 0 160 0L492.2 0c0 0 0 .1 0 .1c1.3-.1 2.5-.1 3.8-.1c24.5 0 44.1 11.4 58 24.5c13.6 13 23.7 29.4 31.1 46.1C600 104.2 608 147.1 608 192s-8 87.8-22.9 121.3c-7.4 16.7-17.5 33.2-31.1 46.1c-9.1 8.7-20.8 16.6-34.7 21zM462.1 336l33.9 0c35.3 0 64-64.5 64-144s-28.7-144-64-144c-1.6 0-3.1 .1-4.6 .4C458.2 53.7 432 116 432 192c0 37.9-.7 77.8-3.7 117.8L462.1 336zm-79.8-61.9c1.3-27.3 1.6-54.9 1.6-82.1c0-44.9 8-87.8 22.9-121.3C410.3 63 414.3 55.3 419 48L160 48c-.1 0-.1 0-.3 0s-.4 .1-.9 .3c-.9 .4-2.7 1.3-5.2 3.4c-5.2 4.4-11.9 12.6-18.6 26c-.5 1-1 2.1-1.5 3.2L382.4 274.1zM496 240c-13.3 0-24-21.5-24-48s10.7-48 24-48s24 21.5 24 48s-10.7 48-24 48z"/></svg>