<svg xmlns="http://www.w3.org/2000/svg" viewBox="0 0 512 512"><!--! Font Awesome Pro 6.6.0 by @fontawesome - https://fontawesome.com License - https://fontawesome.com/license (Commercial License) Copyright 2024 Fonticons, Inc. --><path d="M235.4 1.4L250.6 20 232 35.2C250.6 20 250.6 20 250.6 20s0 0 0 0s0 0 0 0c0 0 0 0 .1 .1l.1 .2 .4 .5c.3 .4 .8 1 1.3 1.7c1.1 1.4 2.5 3.4 4.3 6c3.4 5 8 12.2 12.5 21c4.5 8.8 9.3 19.5 12.8 31.7C364.9 88.5 424.5 128 424.5 128L368 144l16 48L256 144s0 0 0 0L128 192l16-48L87.5 128s60.3-39.9 143.7-46.9c-1.4-3.3-2.9-6.5-4.5-9.6c-3.5-6.7-6.9-12.2-9.5-15.9c-1.3-1.9-2.3-3.3-3-4.2c-.3-.4-.6-.8-.7-.9l-.1-.2L198.2 31.8 235.4 1.4zM0 304c0-62.4 26.1-112.6 68.7-148.1l10.1 2.9 24.3 6.9-5.4 16.2-5.9 17.8C64.2 225.7 48 260.4 48 304c0 49.8 21.1 88 56.2 115c36.2 27.9 89.2 45 151.8 45s115.5-17.1 151.8-45c35.1-27 56.2-65.2 56.2-115c0-43.6-16.2-78.3-43.7-104.3l-5.9-17.8L409 165.7l24.3-6.9 10.1-2.8C485.9 191.4 512 241.6 512 304c0 130.9-114.6 208-256 208S0 434.9 0 304z"/></svg>