<svg xmlns="http://www.w3.org/2000/svg" viewBox="0 0 512 512"><!--! Font Awesome Pro 6.6.0 by @fontawesome - https://fontawesome.com License - https://fontawesome.com/license (Commercial License) Copyright 2024 Fonticons, Inc. --><path d="M464 0l16 32 32 16L480 64 464 96 448 64 416 48l32-16L464 0zM48 128l16 32 32 16L64 192 48 224 32 192 0 176l32-16 16-32zM96 464l24 0 272 0 24 0 0 48-24 0-272 0-24 0 0-48zM224 0l64 0 16 0 0 32-16 0-64 0-16 0 0-32 16 0zM176 128l160 0 16 0 0 32-16 0-160 0-16 0 0-32 16 0zM112 256l288 0 16 0 0 32-16 0-288 0-16 0 0-32 16 0zm64 128l160 0 16 0 0 32-16 0-160 0-16 0 0-32 16 0z"/></svg>