<svg xmlns="http://www.w3.org/2000/svg" viewBox="0 0 448 512"><!--! Font Awesome Pro 6.6.0 by @fontawesome - https://fontawesome.com License - https://fontawesome.com/license (Commercial License) Copyright 2024 Fonticons, Inc. --><path d="M160 0L147.2 0 140 10.7 93.8 80 80.1 80 32 80 0 80l0 48 35.6 0L64 512l320 0 28.4-384 35.6 0 0-48-32 0-48.1 0-13.7 0L308 10.7 300.8 0 288 0 160 0zM296.5 80l-145 0 21.3-32 102.3 0 21.3 32zM108.6 464L83.7 128l280.6 0L339.4 464l-230.8 0zm95.3-67.9l40.2 0 0-20.1 0-67.9 67.9 0 20.1 0 0-40.2-20.1 0-67.9 0 0-67.9 0-20.1-40.2 0 0 20.1 0 67.9-67.9 0-20.1 0 0 40.2 20.1 0 67.9 0 0 67.9 0 20.1z"/></svg>