<svg xmlns="http://www.w3.org/2000/svg" viewBox="0 0 448 512"><!--! Font Awesome Pro 6.6.0 by @fontawesome - https://fontawesome.com License - https://fontawesome.com/license (Commercial License) Copyright 2024 Fonticons, Inc. --><path d="M392 208.6l0-16.6-14-16L255.9 36.4 224 0 192.1 36.4 70 176 56 192l0 16.6L56 224l48 0L69.7 272 35.4 320 24 336l0 27.8 0 4.2 48 0 8 0L45.7 416 11.4 464 0 480l0 32 48 0 352 0 48 0 0-32-11.4-16-34.3-48L368 368l8 0 48 0 0-4.2 0-27.8-11.4-16-34.3-48L344 224l48 0 0-15.4zM314.2 176l-63.5 0 54.2 75.9L353.6 320l-78.9 0 54.2 75.9L377.6 464 70.4 464l48.6-68.1L173.3 320l-78.9 0 48.6-68.1L197.3 176l-63.5 0L224 72.9 314.2 176zM224 280a24 24 0 1 0 -48 0 24 24 0 1 0 48 0zm64 160a24 24 0 1 0 0-48 24 24 0 1 0 0 48z"/></svg>