<svg xmlns="http://www.w3.org/2000/svg" viewBox="0 0 448 512"><!--! Font Awesome Pro 6.6.0 by @fontawesome - https://fontawesome.com License - https://fontawesome.com/license (Commercial License) Copyright 2024 Fonticons, Inc. --><path d="M144 81.3l53.3-28L224 0l26.7 53.3L304 80l-53.3 26.7L224 160l-26.7-53.3L144 81.3zM35.4 304L162.8 125.7l10.8 5.2 18.3 36.6L94.4 304l72.2 0-45.9 73.4L66.6 464l314.8 0-54.1-86.6L281.4 304l72.2 0L256.1 167.5l18.5-36.9 10.4-5.2L412.6 304 424 320l0 31 0 1-48 0-8 0 30 48 40 64 10 16 0 32-48 0L48 512 0 512l0-32 10-16 40-64 30-48-8 0-48 0 0-1 0-31 11.4-16zM176 280a24 24 0 1 1 48 0 24 24 0 1 1 -48 0zm88 136a24 24 0 1 1 48 0 24 24 0 1 1 -48 0z"/></svg>