<svg xmlns="http://www.w3.org/2000/svg" viewBox="0 0 640 512"><!--! Font Awesome Pro 6.6.0 by @fontawesome - https://fontawesome.com License - https://fontawesome.com/license (Commercial License) Copyright 2024 Fonticons, Inc. --><path d="M352 0l24 0L616 0l24 0 0 48-24 0L400 48l0 312.3 26-6.7c0 0 0 0 0 0c17.6-38.7 56.7-65.6 102-65.6c61.9 0 112 50.1 112 112s-50.1 112-112 112c-59.9 0-108.9-47.1-111.9-106.3L38 503.2l-23.2 6-12-46.5 23.2-6 326-84.1L352 24l0-24zM592 400a64 64 0 1 0 -128 0 64 64 0 1 0 128 0zM14.8 176.8l77.3-20.7 24.8 92.7 61.8-16.6-24.8-92.7 77.3-20.7 58 216.4-216.4 58-58-216.4z"/></svg>