<svg xmlns="http://www.w3.org/2000/svg" viewBox="0 0 640 512"><!--! Font Awesome Pro 6.6.0 by @fontawesome - https://fontawesome.com License - https://fontawesome.com/license (Commercial License) Copyright 2024 Fonticons, Inc. --><path d="M640 0L0 0 0 48l32 0 0 48L0 96l0 48L0 368l0 48 48 0 16 0c0 53 43 96 96 96s96-43 96-96l128 0c0 53 43 96 96 96s96-43 96-96l16 0 48 0 0-48 0-224 0-48-48 0-48 0c0-17.7-14.3-32-32-32s-32 14.3-32 32l-96 0 0-48 256 0 0-48zM336 48l0 48-56 0 0-48 56 0zm0 96l48 0 0 80L48 224l0-80 288 0zM48 368l0-96 360 0 24 0 0-24 0-104 160 0 0 224-28.8 0c-16.6-28.7-47.6-48-83.2-48s-66.6 19.3-83.2 48l-153.7 0c-16.6-28.7-47.6-48-83.2-48s-66.6 19.3-83.2 48L48 368zM232 48l0 48-48 0 0-48 48 0zm-96 0l0 48L80 96l0-48 56 0zM112 416a48 48 0 1 1 96 0 48 48 0 1 1 -96 0zm368-48a48 48 0 1 1 0 96 48 48 0 1 1 0-96zm80-192l-96 0 0 96 96 0 0-96z"/></svg>