<svg xmlns="http://www.w3.org/2000/svg" viewBox="0 0 640 512"><!--! Font Awesome Pro 6.6.0 by @fontawesome - https://fontawesome.com License - https://fontawesome.com/license (Commercial License) Copyright 2024 Fonticons, Inc. --><path d="M368 96l24 0 80 0 9.9 0 7 7L601 215l7 7 0 9.9 0 136 8 0 24 0 0 48-24 0-40 0c0 53-43 96-96 96s-96-43-96-96l-8 0-120 0c0 53-43 96-96 96s-96-43-96-96l-40 0L0 416l0-48 24 0 52.8 0c16.6-28.7 47.6-48 83.2-48s66.6 19.3 83.2 48L368 368l0-248 0-24zm94.1 48L416 144l0 96 142.1 0-96-96zM208 416a48 48 0 1 0 -96 0 48 48 0 1 0 96 0zm272 48a48 48 0 1 0 0-96 48 48 0 1 0 0 96z"/></svg>