<svg xmlns="http://www.w3.org/2000/svg" viewBox="0 0 640 512"><!--! Font Awesome Pro 6.6.0 by @fontawesome - https://fontawesome.com License - https://fontawesome.com/license (Commercial License) Copyright 2024 Fonticons, Inc. --><path d="M352 0l24 0L616 0l24 0 0 48-24 0L400 48l0 312.3 26-6.7c0 0 0 0 0 0c17.6-38.7 56.7-65.6 102-65.6c61.9 0 112 50.1 112 112s-50.1 112-112 112c-59.9 0-108.9-47.1-111.9-106.3L38 503.2l-23.2 6-12-46.5 23.2-6 326-84.1L352 24l0-24zM592 400a64 64 0 1 0 -128 0 64 64 0 1 0 128 0zM294.5 209.2c8.7-2.3 17.4-2.1 25.5 .2l0 125.5-38.7 10.4L126.7 386.6 34 411.5 13.3 334.2c-6.9-25.6 8.3-51.9 33.9-58.8s51.9 8.3 58.8 33.9l4.1 15.5 154.5-41.4-4.1-15.5c-6.9-25.6 8.3-51.9 33.9-58.8zM8 252.8c-9.1-34.1 11.1-69.2 45.3-78.4l185.5-49.7c34.1-9.1 69.2 11.1 78.4 45.3l1.7 6.4c-10.6-1.6-21.6-1.1-32.6 1.9c-37.4 10-61.5 44.9-59.2 82.1L131.2 286c-16.6-33.4-54.9-51.5-92.3-41.5c-11 2.9-20.8 8-29.2 14.7L8 252.8z"/></svg>