<svg xmlns="http://www.w3.org/2000/svg" viewBox="0 0 512 512"><!--! Font Awesome Pro 6.6.0 by @fontawesome - https://fontawesome.com License - https://fontawesome.com/license (Commercial License) Copyright 2024 Fonticons, Inc. --><path d="M352 248l-48 0-160 0-48 0 0 48 0 136-48 0 0-232 256 0 48 0 0-48 0-20.1L444.1 224 352 316.1l0-20.1 0-48zm126.1 9.9L512 224l-33.9-33.9L352 64l-48 0 0 40 0 8 0 40-48 0L48 152 0 152l0 48L0 432l0 48 48 0 48 0 48 0 0-48 0-88 0-48 48 0 64 0 48 0 0 40 0 8 0 40 48 0L478.1 257.9z"/></svg>