<svg xmlns="http://www.w3.org/2000/svg" viewBox="0 0 512 512"><!--! Font Awesome Pro 6.6.0 by @fontawesome - https://fontawesome.com License - https://fontawesome.com/license (Commercial License) Copyright 2024 Fonticons, Inc. --><path d="M265.9 150.1l28.1-28.1L328 88l-6.1-6.1L294.1 54.1 288 48l33.9-33.9L336 0 464 0l48 0 0 48 0 128-14.1 14.1L464 224l-6.1-6.1-27.9-27.9L424 184l-33.9 33.9-28.1 28.1L328 280l-33.9-33.9-28.1-28.1L232 184l33.9-33.9zm96-96L395.9 88l-33.9 33.9L299.9 184 328 212.1l62.1-62.1L424 116.1l33.9 33.9 6.1 6.1L464 48 355.9 48l6.1 6.1zM280 328l-33.9 33.9-28.1 28.1L184 424l6.1 6.1 27.9 27.9L224 464l-33.9 33.9L176 512 48 512 0 512l0-48L0 336l14.1-14.1L48 288l6.1 6.1 27.9 27.9L88 328l33.9-33.9 28.1-28.1L184 232l33.9 33.9 28.1 28.1L280 328zM150.1 457.9L116.1 424l33.9-33.9L212.1 328 184 299.9l-62.1 62.1L88 395.9 54.1 361.9 48 355.9 48 464l108.1 0-6.1-6.1z"/></svg>