<svg xmlns="http://www.w3.org/2000/svg" viewBox="0 0 448 512"><!--! Font Awesome Pro 6.6.0 by @fontawesome - https://fontawesome.com License - https://fontawesome.com/license (Commercial License) Copyright 2024 Fonticons, Inc. --><path d="M304 144c0 44.2-35.8 80-80 80s-80-35.8-80-80l0-16c0-5.5 .6-10.8 1.6-16l62.4 0 32-32 16 16 41.3 0c4.3 9.8 6.7 20.6 6.7 32l0 16zM224 0C153.3 0 96 57.3 96 128l0 16 0 48L48 240l0 32 176 0 176 0 0-32-48-48 0-48 0-16C352 57.3 294.7 0 224 0zM209.1 359.2l-15.9 59.2L144 320l-80 0L16 464 0 512l50.6 0L168 512l18.3 0 75.3 0 18.3 0 117.4 0 50.6 0-16-48L384 320l-80 0-49.2 98.4-15.9-59.2L272 304l-48 0-48 0 33.1 55.2zM381.4 464l-95.7 0 48-96 15.7 0 32 96zM114.3 368l48 96-95.7 0 32-96 15.7 0z"/></svg>