<svg xmlns="http://www.w3.org/2000/svg" viewBox="0 0 448 512"><!--! Font Awesome Pro 6.6.0 by @fontawesome - https://fontawesome.com License - https://fontawesome.com/license (Commercial License) Copyright 2024 Fonticons, Inc. --><path d="M240 16l0-16L208 0l0 16 0 48-96 0L64 64l0 48 0 160 0 48 48 0 224 0 48 0 0-48 0-160 0-48-48 0-96 0 0-48zm96 96l0 160-32 0 0-32-32 0 0 32-32 0 0-32-32 0 0 32-32 0 0-32-32 0 0 32-32 0 0-160 224 0zM83.7 400l280.6 0 19.2 64L304 464l0-32 0-16-32 0 0 16 0 32-32 0 0-32 0-16-32 0 0 16 0 32-32 0 0-32 0-16-32 0 0 16 0 32-79.5 0 19.2-64zM224 512l64 0 109.9 0 50.1 0-14.4-48L400 352 48 352 14.4 464 0 512l50.1 0L160 512l64 0zM32 128L0 128 0 256l32 0 0-128zm416 0l-32 0 0 128 32 0 0-128zm-304 5.4L125.4 152l9.3 9.3L149.4 176l-14.7 14.7-9.3 9.3L144 218.6l9.3-9.3L168 194.6l14.7 14.7 9.3 9.3L210.6 200l-9.3-9.3L186.6 176l14.7-14.7 9.3-9.3L192 133.4l-9.3 9.3L168 157.4l-14.7-14.7-9.3-9.3zm121.3 9.3l-9.3-9.3L237.4 152l9.3 9.3L261.4 176l-14.7 14.7-9.3 9.3L256 218.6l9.3-9.3L280 194.6l14.7 14.7 9.3 9.3L322.6 200l-9.3-9.3L298.6 176l14.7-14.7 9.3-9.3L304 133.4l-9.3 9.3L280 157.4l-14.7-14.7z"/></svg>