<svg xmlns="http://www.w3.org/2000/svg" viewBox="0 0 640 512"><!--! Font Awesome Pro 6.6.0 by @fontawesome - https://fontawesome.com License - https://fontawesome.com/license (Commercial License) Copyright 2024 Fonticons, Inc. --><path d="M96 0l48 24 16 8L224 0l64 32 16-8L352 0l0 53.7 0 90.3c0 70.7-57.3 128-128 128s-128-57.3-128-128l0-90.3L96 0zm48 144c0 44.2 35.8 80 80 80s80-35.8 80-80l0-16-160 0 0 16zM65 464l318 0L348.5 352 99.5 352 65 464zM64 304l320 0 49.2 160L448 512l-50.2 0L50.2 512 0 512l14.8-48L64 304zM640 512l-158.5 0-2.9-9.4L422.4 320 576 320l64 192zM432 256c-27.7 0-53-10.1-72.6-26.7C375 204.6 384 175.4 384 144l0-90.3 0-10.9C398.5 35.9 414.8 32 432 32c61.9 0 112 50.1 112 112s-50.1 112-112 112z"/></svg>