<svg xmlns="http://www.w3.org/2000/svg" viewBox="0 0 448 512"><!--! Font Awesome Pro 6.6.0 by @fontawesome - https://fontawesome.com License - https://fontawesome.com/license (Commercial License) Copyright 2024 Fonticons, Inc. --><path d="M304 144l0-16c0-11.4-2.4-22.2-6.7-32L256 96 240 80l-32 32-62.4 0c-1 5.2-1.6 10.5-1.6 16l0 16c0 44.2 35.8 80 80 80s80-35.8 80-80zM224 0c70.7 0 128 57.3 128 128l0 16c0 70.7-57.3 128-128 128s-128-57.3-128-128l0-16C96 57.3 153.3 0 224 0zM209.1 359.2L176 304l48 0 48 0-33.1 55.2 15.9 59.2L304 320l80 0 48 144 16 48-50.6 0L280 512l-18.3 0-75.3 0L168 512 50.6 512 0 512l16-48L64 320l80 0 49.2 98.4 15.9-59.2zM381.4 464l-32-96-15.7 0-48 96 95.7 0zM114.3 368l-15.7 0-32 96 95.7 0-48-96z"/></svg>