<svg xmlns="http://www.w3.org/2000/svg" viewBox="0 0 448 512"><!--! Font Awesome Pro 6.6.0 by @fontawesome - https://fontawesome.com License - https://fontawesome.com/license (Commercial License) Copyright 2024 Fonticons, Inc. --><path d="M80 99.2L48 80l0-32L224 0 400 48l0 32L368 99.2l0 28.8c-16 10.7-67.2 32-144 32s-128-21.3-144-32l0-28.8zM227 48.6l-3-1.2-3 1.2L189 61.4l-5 2 0 5.4c0 17.2 7 46.1 36.9 58.6l3.1 1.3 3.1-1.3C257 114.9 264 86 264 68.8l0-5.4-5-2L227 48.6zM96 192c0-7.9 .7-15.7 2.1-23.2c14 5.4 28.5 9.9 43.3 13.4c-.4 3.2-.6 6.5-.6 9.8c0 46 37.2 83.2 83.2 83.2s83.2-37.2 83.2-83.2c0-3.3-.2-6.6-.6-9.8c14.8-3.6 29.3-8.1 43.3-13.4c1.4 7.5 2.1 15.3 2.1 23.2c0 70.7-57.3 128-128 128s-128-57.3-128-128zM208 416l-32-64 96 0-32 64 12.2 48.9 .6-.9L320 352l80 0 33.6 112L448 512l-50.1 0L280 512l-24 0-32 0-32 0-24 0L50.1 512 0 512l14.4-48L48 352l80 0 67.2 112 .6 .9L208 416zm175.5 48l-19.2-64-17.1 0-38.4 64 74.7 0zM100.8 400l-17.1 0L64.5 464l74.7 0-38.4-64z"/></svg>