<svg xmlns="http://www.w3.org/2000/svg" viewBox="0 0 640 512"><!--! Font Awesome Pro 6.6.0 by @fontawesome - https://fontawesome.com License - https://fontawesome.com/license (Commercial License) Copyright 2024 Fonticons, Inc. --><path d="M0 0L0 24 0 136l0 24 48 0 0-24 0-88 88 0 24 0 0-48L136 0 24 0 0 0zM640 0L616 0 504 0 480 0l0 48 24 0 88 0 0 88 0 24 48 0 0-24 0-112 0-24zM24 512l112 0 24 0 0-48-24 0-88 0 0-88 0-24L0 352l0 24L0 488l0 24 24 0zm616 0l0-24 0-112 0-24-48 0 0 24 0 88-88 0-24 0 0 48 24 0 112 0 24 0zM260.1 288L224 288l-20 80-12 48 49.5 0 157 0 49.5 0-12-48-20-80-36.1 0L320 288l-59.9 0zm14.6-48a72 72 0 1 0 90.5-112.1A72 72 0 1 0 274.7 240zm-13.3 96l117 0 8 32-133 0 8-32zM320 160a24 24 0 1 1 0 48 24 24 0 1 1 0-48zm200 96l-79 0 6.1 24.2L461 336l83 0-24-80zm-400 0L96 336l83 0L193 280.2 199 256l-79 0zm55.8-32a48 48 0 1 0 0-96 48 48 0 1 0 0 96zM512 176a48 48 0 1 0 -96 0 48 48 0 1 0 96 0z"/></svg>