<svg xmlns="http://www.w3.org/2000/svg" viewBox="0 0 512 512"><!--! Font Awesome Pro 6.6.0 by @fontawesome - https://fontawesome.com License - https://fontawesome.com/license (Commercial License) Copyright 2024 Fonticons, Inc. --><path d="M0 32l24 0 32 0 112 0 32 0 24 0 0 48-24 0-8 0 0 320c0 44.2-35.8 80-80 80s-80-35.8-80-80L32 80l-8 0L0 80 0 32zM80 80l0 176 64 0 0-176L80 80zM288 32l24 0 32 0 112 0 32 0 24 0 0 48-24 0-8 0 0 320c0 44.2-35.8 80-80 80s-80-35.8-80-80l0-320-8 0-24 0 0-48zm80 48l0 176 64 0 0-176-64 0z"/></svg>