<svg xmlns="http://www.w3.org/2000/svg" viewBox="0 0 576 512"><!--! Font Awesome Pro 6.6.0 by @fontawesome - https://fontawesome.com License - https://fontawesome.com/license (Commercial License) Copyright 2024 Fonticons, Inc. --><path d="M336 112l0 288L48 400l0-288 288 0zM48 64L0 64l0 48L0 400l0 48 48 0 288 0 48 0 0-48 0-48 0-192 0-48 0-48-48 0L48 64zM528 370.3l-112-56 0 53.7 112 56 48 24 0-53.7 0-276.7L576 64 528 88 416 144l0 53.7 112-56 0 228.7zM216 184l0-24-48 0 0 24 0 48-48 0-24 0 0 48 24 0 48 0 0 48 0 24 48 0 0-24 0-48 48 0 24 0 0-48-24 0-48 0 0-48z"/></svg>