<svg xmlns="http://www.w3.org/2000/svg" viewBox="0 0 640 512"><!--! Font Awesome Pro 6.6.0 by @fontawesome - https://fontawesome.com License - https://fontawesome.com/license (Commercial License) Copyright 2024 Fonticons, Inc. --><path d="M496 24a24 24 0 1 1 48 0 24 24 0 1 1 -48 0zM333.8 52.2L52.2 333.8l-17 17L1.3 316.8l17-17L299.8 18.2l17-17 33.9 33.9-17 17zM176 512l-48-48 27.6-22.1C138.2 416.3 128 385.3 128 352c0-50 22.9-94.6 58.8-123.9c10.5 7.5 23.3 11.9 37.2 11.9c35.3 0 64-28.7 64-64c0-1.6-.1-3.2-.2-4.8l.5-.5c41.7-41.7 108-44.7 157.4-10.3L583 23l17-17L633.9 40 617 57 479.7 194.3C514.1 243.6 511 310 469.4 351.7l-.5 .5c-1.6-.1-3.2-.2-4.8-.2c-35.3 0-64 28.7-64 64c0 13.9 4.4 26.7 11.9 37.2C382.6 489.1 338 512 288 512c-33.3 0-64.3-10.2-89.9-27.6L176 512zm52.2-65.3C245.5 457.7 266 464 288 464c25.1 0 48.3-8.2 67-22.2c-2-8.3-3-16.9-3-25.8c0-55.4 40.2-101.3 92.9-110.4c13.3-21.7 14.3-51.1 0-76.6l-84 84-17 17L310.1 296l17-17 84-84c-25.5-14.3-54.9-13.3-76.6 0c-9.1 52.8-55 92.9-110.4 92.9c-8.9 0-17.5-1-25.8-3c-14 18.7-22.2 41.9-22.2 67c0 22 6.3 42.5 17.3 59.8L208 400l32 32-11.8 14.7zM448 72a24 24 0 1 1 48 0 24 24 0 1 1 -48 0zm120 72a24 24 0 1 1 0 48 24 24 0 1 1 0-48zm48-48a24 24 0 1 1 0 48 24 24 0 1 1 0-48z"/></svg>