<svg xmlns="http://www.w3.org/2000/svg" viewBox="0 0 512 512"><!--! Font Awesome Pro 6.6.0 by @fontawesome - https://fontawesome.com License - https://fontawesome.com/license (Commercial License) Copyright 2024 Fonticons, Inc. --><path d="M208 464c141.4 0 256-114.6 256-256c0-49.2-13.9-95.2-37.9-134.2L398.9 101c21 33.3 33.1 72.7 33.1 115c0 119.3-96.7 216-216 216c-42.3 0-81.7-12.1-115-33.1L73.8 426.1c39 24.1 85 37.9 134.2 37.9zM35.2 396.8l28.1-28.1 33.9-33.9L334.8 97.2l33.9-33.9 28.1-28.1 34-34c11 11.8 21 24.5 30 37.9C493.1 87.4 512 145.5 512 208c0 167.9-136.1 304-304 304c-62.5 0-120.6-18.9-168.9-51.2c-13.4-9-26.1-19-37.9-30l34-34zM216 384c92.8 0 168-75.2 168-168c0-28.9-7.3-56.2-20.2-79.9l-22.6 22.6 6.1 6.1L358.6 176 336 198.6l-11.3-11.3-6.1-6.1-57.4 57.4 6.1 6.1L278.6 256 256 278.6l-11.3-11.3-6.1-6.1-57.4 57.4 6.1 6.1L198.6 336 176 358.6l-11.3-11.3-6.1-6.1-22.6 22.6c23.8 12.9 51 20.2 79.9 20.2zM331.3 228.7l16 16L358.6 256 336 278.6l-11.3-11.3-16-16L297.4 240 320 217.4l11.3 11.3zm-80 80l16 16L278.6 336 256 358.6l-11.3-11.3-16-16L217.4 320 240 297.4l11.3 11.3z"/></svg>