<svg xmlns="http://www.w3.org/2000/svg" viewBox="0 0 640 512"><!--! Font Awesome Pro 6.6.0 by @fontawesome - https://fontawesome.com License - https://fontawesome.com/license (Commercial License) Copyright 2024 Fonticons, Inc. --><path d="M493.8 52.2l17-17L476.8 1.3l-17 17L332.2 145.9c-.9-7.9-2.5-15.7-4.8-23.3L329 121l64-64 17-17L376 6.1 359 23 303.6 78.4c-2.6-3.1-5.3-6.1-8.2-9c0 0 0 0 0 0L261.5 35.5 227.6 69.4l22.7 49c0 0 0 0 0 0l-22.8-49c-16.8 16.8-27.2 37.7-31 59.4l-14.2-14.2-33.9 33.9 22.7 49c0 0 0 0 0 0l-22.8-49c-16.8 16.8-27.2 37.7-31 59.4l-14.2-14.2L69.3 227.7l22.7 49c0 0 0 0 0 0l-22.8-49c-43.7 43.7-43.7 114.6 0 158.4l11.3 11.3c0 0 0 0 0 .1L18.2 459.8l-17 17 33.9 33.9 17-17 62.4-62.4 11.2 11.2c43.7 43.7 114.6 43.7 158.4 0l-49-22.8c0 0 0 0 0 0l49 22.8 33.9-33.9-14.2-14.2c5.9-1.1 11.8-2.6 17.5-4.6c-.9-7.2-1.4-14.5-1.4-21.9c0-8.1 .5-16.1 1.6-23.9l-7.3-3.4c0 0 0 0 0 0l7.3 3.4c.4-3 .9-6 1.5-9c-2.8 2.1-5.7 4-8.7 5.6L248.2 310c25.9-8.4 55.3-3.2 76.9 15.6c5.2-21 14.1-40.4 26.1-57.7c-12.1-2.3-23.7-8.2-33.1-17.6l-10.1-10.1c6.1-4.1 12.7-7.2 19.5-9.4l39 18.1s0 0 0 0l-39-18.1c18.1-5.8 37.8-5.1 55.5 2.3c17-14.3 36.8-25.4 58.4-32.5L489 153l17-17L472 102.1l-17 17-64 64-1.5 1.5c-7.6-2.3-15.4-3.9-23.3-4.8L493.8 52.2zM327.4 230.8s0 0 0 0L319 227s0 0 0 0l8.4 3.9zM248.2 310l-8.4-3.9s0 0 0 0l8.4 3.9s0 0 0 0zm0 0l66.1 30.7c-24.2 13-55 9.2-75.4-11.2l-10.1-10.1c6.1-4.1 12.7-7.2 19.5-9.4zM169 389.2c27.6-8.9 59.2-2.4 81.1 19.5c-4.6 4.6-9.6 8.3-15 11.2L169 389.2zm0 0l-8.4-3.9s0 0 0 0l8.4 3.9s0 0 0 0zm0 0l66.1 30.7c-24.2 13-55 9.2-75.4-11.2l-10.1-10.1c6.1-4.1 12.7-7.2 19.5-9.4zm-46.3-46.3c-2.2 6.8-5.3 13.3-9.4 19.5l-10.1-10.1C82.8 331.8 79 301 92 276.8l30.7 66.1zm0 0l4 8.5s0 0 0 0l-4-8.5s0 0 0 0zm0 0L92 276.7c2.9-5.4 6.6-10.5 11.2-15c21.9 22 28.4 53.5 19.5 81.2zm79.2-79.2c-2.2 6.8-5.3 13.3-9.4 19.5L182.4 273c-20.4-20.4-24.2-51.2-11.2-75.4l30.7 66.1zm0 0l4 8.5s0 0 0 0l-4-8.5s0 0 0 0zm0 0l-30.7-66.1c2.9-5.4 6.6-10.5 11.2-15c21.9 22 28.4 53.5 19.5 81.2zM281 184.5c-2.2 6.8-5.3 13.3-9.4 19.5l-10.1-10.1c-20.4-20.4-24.2-51.2-11.2-75.4L281 184.5zm0 0l4 8.5s0 0 0 0l-4-8.5s0 0 0 0zm0 0l-30.7-66.1c2.9-5.4 6.6-10.5 11.2-15c21.9 22 28.4 53.5 19.5 81.2zM496 512a144 144 0 1 0 0-288 144 144 0 1 0 0 288zm16-64l-32 0 0-32 32 0 0 32zm0-176l0 16 0 80 0 16-32 0 0-16 0-80 0-16 32 0z"/></svg>