<svg xmlns="http://www.w3.org/2000/svg" viewBox="0 0 640 512"><!--! Font Awesome Pro 6.6.0 by @fontawesome - https://fontawesome.com License - https://fontawesome.com/license (Commercial License) Copyright 2024 Fonticons, Inc. --><path d="M48.4 14.8L29.4 .1 0 38 19 52.7 591.5 497.2l19 14.7L639.9 474l-19-14.7L440.1 318.9c19-3.2 37.2-12.1 51.8-26.8l10.2-10.2L536 248l-29.5-29.5c-1.5-1.5-3-2.9-4.5-4.3c-1.8-1.6-3.6-3.2-5.5-4.7L553 153l17-17L536 102.1l-17 17-64 64-3.1 3.1c-7.7-2.3-15.6-3.8-23.6-4.5L557.8 52.2l17-17L540.8 1.3l-17 17L394.4 147.7c-.8-8-2.3-15.9-4.5-23.6L393 121l64-64 17-17L440 6.1 423 23 366.5 79.5c-1.5-1.9-3.1-3.7-4.7-5.5c-1.1-1.2-2.3-2.5-3.5-3.7l-.9-.9L328 40 295.2 72.8l-.9 .9-.3 .3c-16.9 17.4-27 38.9-30.4 61.2L248 120l-29 27.2L48.4 14.8zM384.8 399.2L151.6 215.4l-13.2 12.4C92.2 271.1 91.1 344 135.8 388.7l8.7 8.7c0 0 0 0 0 0L82.2 459.8l-17 17 33.9 33.9 17-17 62.4-62.4 8.8 8.8c44.7 44.7 117.5 43.6 160.8-2.5L376 408s0 0 0 0l8.8-8.8zM169.8 354.7c-24.4-24.4-24.9-63.3-2.1-88.4c24.3 26.6 27.4 65.7 9.2 95.5l-7.1-7.1zm139.8 53.5c-25 22.9-64 22.3-88.4-2L214 399c29.9-18.2 69-15.1 95.6 9.3zm25-205.5l-5.5-5.5c-24.6-24.6-25-64.1-1.3-89.2c23 26.9 25.3 65.5 6.8 94.7zm133.3 45.4l-10 10c-18.7 18.7-49.1 18.7-67.9 0l-16.8-16.8c29.2-18.5 67.8-16.2 94.7 6.8z"/></svg>