<svg xmlns="http://www.w3.org/2000/svg" viewBox="0 0 640 512"><!--! Font Awesome Pro 6.6.0 by @fontawesome - https://fontawesome.com License - https://fontawesome.com/license (Commercial License) Copyright 2024 Fonticons, Inc. --><path d="M48.4 14.8L29.4 .1 0 38 19 52.7 591.5 497.2l19 14.7L639.9 474l-19-14.7L364.1 259.9c47.4 8.5 90 30.4 124 61.7l32.5-35.3C467.9 237.7 397.4 208 320 208c-7.3 0-14.6 .3-21.7 .8L168.3 107.9C215.4 89.9 266.6 80 320 80c110.4 0 210.9 42.2 286.3 111.3l32.4-35.4C554.8 79 442.9 32 320 32c-69.6 0-135.7 15.1-195.2 42.1L48.4 14.8zM76.9 156.6L37.7 125.7C25 135.2 12.9 145.2 1.2 155.9l32.4 35.4c13.6-12.5 28.1-24.1 43.2-34.7zM226.3 274.3L184 241c-23.6 12.2-45.3 27.5-64.7 45.4l32.5 35.3c21.6-19.9 46.8-36.1 74.4-47.3zM376 424a56 56 0 1 0 -112 0 56 56 0 1 0 112 0z"/></svg>