<svg xmlns="http://www.w3.org/2000/svg" viewBox="0 0 512 512"><!--! Font Awesome Pro 6.6.0 by @fontawesome - https://fontawesome.com License - https://fontawesome.com/license (Commercial License) Copyright 2024 Fonticons, Inc. --><path d="M68.2 240L11.5 32l49.8 0L118 240l67.1 0L228.6 50.6 232.9 32 252 32l8 0 19.1 0 4.3 18.6L326.9 240l67.1 0L450.8 32l49.8 0L443.8 240l44.2 0 24 0 0 48-24 0-57.3 0L383.2 462.3 378.3 480 360 480l-8 0-19.1 0-4.3-18.6L288.7 288l-65.5 0L183.4 461.4 179.1 480 160 480l-8 0-18.3 0-4.8-17.7L81.3 288 24 288 0 288l0-48 24 0 44.2 0zm62.8 48l23.3 85.4L174 288l-43 0zm103.2-48l43.4 0L256 145.7 234.3 240zM338 288l19.7 85.4L380.9 288l-43 0z"/></svg>