<?xml version="1.0" encoding="utf-8"?>
<!-- Generator: Adobe Illustrator 21.0.0, SVG Export Plug-In . SVG Version: 6.00 Build 0)  -->
<svg version="1.1" id="Layer_1" xmlns="http://www.w3.org/2000/svg" xmlns:xlink="http://www.w3.org/1999/xlink" x="0px" y="0px"
	 viewBox="0 0 512 512" style="enable-background:new 0 0 512 512;" xml:space="preserve">
<g>
	<path d="M256,0C221,0,49.9,98.1,32.6,128.1c-17.3,30-17.3,226,0,255.9C50,413.9,221.1,512,256,512c34.7,0,205.9-98.1,223.3-128
		c17.5-30,17.5-226.2,0-256.1v0C461.7,98,290.6,0,256,0z M255.9,39.6c33.4,7,165.8,82.8,189,108.3c10.6,32.3,10.6,183.8,0,216.2
		c-23,25.4-155.6,101.4-189,108.3C222.5,465.5,90,389.6,67,364.1c-10.5-32.5-10.5-183.8,0-216.2C90,122.4,222.5,46.5,255.9,39.6z
		 M196.9,118.2l-39.4,39.4h19.7v196.9h39.4v-78.8h78.8v78.8h-19.7l39.4,39.4l39.4-39.4h-19.7V177.2h-39.4v59.1h-78.8v-78.8h19.7
		L196.9,118.2z"/>
</g>
</svg>
