<svg xmlns="http://www.w3.org/2000/svg" style="isolation:isolate" viewBox="659.857 929.539 283.143 266.636" width="377.524" height="355.515"><g fill="#ffffff"><path d="M819 1089.539h124v106.636H819z"/><circle vector-effect="non-scaling-stroke" cx="881" cy="1091.539" r="62"/><circle vector-effect="non-scaling-stroke" cx="881" cy="974.539" r="45"/><path d="M725.17 989.11h85.687v57.688c0 36.047-29.266 65.312-65.313 65.312H725.17c-36.047 0-65.313-27.557-65.313-61.5 0-33.942 29.266-61.5 65.313-61.5Zm-27.36 37.743v11.865q1.524-1.758 2.974-2.783 1.45-1.026 3.208-1.538 1.758-.513 3.779-.513 3.047 0 5.405 1.289 2.359 1.289 3.707 3.75.849 1.435 1.142 3.208.293 1.772.293 4.087v15.322q0 2.402-1.099 3.633-1.098 1.23-2.915 1.23-3.955 0-3.955-4.863v-13.506q0-3.838-1.142-5.903-1.143-2.066-4.336-2.066-2.139 0-3.853 1.216-1.714 1.216-2.563 3.325-.645 1.788-.645 6.358v10.576q0 2.373-1.069 3.618-1.069 1.245-2.974 1.245-3.955 0-3.955-4.863v-34.687q0-2.432 1.04-3.648 1.04-1.216 2.915-1.216 1.905 0 2.974 1.231 1.069 1.23 1.069 3.633Zm35.098 20.712h14.502q-.293-4.101-2.212-6.137-1.919-2.036-5.054-2.036-2.988 0-4.907 2.065t-2.329 6.108Zm34.805 19.834.732-1.787-9.844-24.785q-.908-2.138-.908-3.105 0-1.026.527-1.905.528-.878 1.451-1.406.922-.527 1.919-.527 1.728 0 2.607 1.098.879 1.099 1.553 3.15l6.767 19.687 6.416-18.31q.762-2.227 1.377-3.487.616-1.259 1.304-1.699.688-.439 1.948-.439.908 0 1.743.483.835.484 1.289 1.304.455.82.455 1.728-.118.557-.381 1.582-.264 1.026-.645 2.081l-10.43 27.304q-1.347 3.604-2.636 5.655-1.289 2.05-3.413 3.149-2.124 1.099-5.728 1.099-3.515 0-5.273-.762-1.758-.762-1.758-2.783 0-1.377.835-2.124.835-.747 2.475-.747.645 0 1.26.175.762.176 1.319.176 1.377 0 2.168-.41.791-.41 1.42-1.421.63-1.011 1.451-2.974Zm-19.161-15.293h-15.644q.029 2.725 1.099 4.805 1.069 2.08 2.841 3.135 1.773 1.055 3.911 1.055 1.436 0 2.623-.337 1.186-.337 2.299-1.055 1.114-.718 2.051-1.538.938-.82 2.432-2.227.615-.527 1.758-.527 1.23 0 1.992.674t.762 1.904q0 1.084-.85 2.534-.85 1.451-2.564 2.784-1.713 1.333-4.306 2.211-2.593.879-5.962.879-7.705 0-11.983-4.394-4.277-4.395-4.277-11.924 0-3.545 1.055-6.577 1.054-3.032 3.076-5.2 2.021-2.168 4.98-3.326 2.959-1.157 6.563-1.157 4.687 0 8.042 1.978 3.354 1.977 5.024 5.112t1.67 6.387q0 3.017-1.728 3.911-1.729.893-4.864.893Z" fill-rule="evenodd"/></g></svg>
