<svg xmlns="http://www.w3.org/2000/svg" viewBox="0 0 512 512"><!--! Font Awesome Pro 6.6.0 by @fontawesome - https://fontawesome.com License - https://fontawesome.com/license (Commercial License) Copyright 2024 Fonticons, Inc. --><path d="M160 25.4C143 9.6 120.2 0 95.2 0C42.6 0 0 42.6 0 95.2c0 18.8 5.5 36.3 14.9 51.1L160 25.4zM256 112a176 176 0 1 1 0 352 176 176 0 1 1 0-352zm0 400c53.2 0 102.1-18.6 140.5-49.5L439 505c9.4 9.4 24.6 9.4 33.9 0s9.4-24.6 0-33.9l-42.5-42.5c31-38.4 49.5-87.3 49.5-140.5C480 164.3 379.7 64 256 64S32 164.3 32 288c0 53.2 18.6 102.1 49.5 140.5L39 471c-9.4 9.4-9.4 24.6 0 33.9s24.6 9.4 33.9 0l42.5-42.5c38.4 31 87.3 49.5 140.5 49.5zM497.1 146.4C506.5 131.6 512 114 512 95.2C512 42.6 469.4 0 416.8 0C391.8 0 369 9.6 352 25.4L497.1 146.4zM280 184c0-13.3-10.7-24-24-24s-24 10.7-24 24l0 104c0 6.4 2.5 12.5 7 17l48 48c9.4 9.4 24.6 9.4 33.9 0s9.4-24.6 0-33.9l-41-41 0-94.1z"/></svg>