<svg xmlns="http://www.w3.org/2000/svg" viewBox="0 0 448 512"><!--! Font Awesome Pro 6.6.0 by @fontawesome - https://fontawesome.com License - https://fontawesome.com/license (Commercial License) Copyright 2024 Fonticons, Inc. --><path d="M241 7c-9.4-9.4-24.6-9.4-33.9 0L79 135c-9.4 9.4-9.4 24.6 0 33.9s24.6 9.4 33.9 0l87-87L200 328c0 13.3 10.7 24 24 24s24-10.7 24-24l0-246.1 87 87c9.4 9.4 24.6 9.4 33.9 0s9.4-24.6 0-33.9L241 7zM48 344c0-13.3-10.7-24-24-24s-24 10.7-24 24l0 80c0 48.6 39.4 88 88 88l272 0c48.6 0 88-39.4 88-88l0-80c0-13.3-10.7-24-24-24s-24 10.7-24 24l0 80c0 22.1-17.9 40-40 40L88 464c-22.1 0-40-17.9-40-40l0-80z"/></svg>