<svg xmlns="http://www.w3.org/2000/svg" viewBox="0 0 448 512"><!--! Font Awesome Pro 6.6.0 by @fontawesome - https://fontawesome.com License - https://fontawesome.com/license (Commercial License) Copyright 2024 Fonticons, Inc. --><path d="M241 505c-9.4 9.4-24.6 9.4-33.9 0L79 377c-9.4-9.4-9.4-24.6 0-33.9s24.6-9.4 33.9 0l87 87L200 184c0-13.3 10.7-24 24-24s24 10.7 24 24l0 246.1 87-87c9.4-9.4 24.6-9.4 33.9 0s9.4 24.6 0 33.9L241 505zM48 168c0 13.3-10.7 24-24 24s-24-10.7-24-24L0 88C0 39.4 39.4 0 88 0L360 0c48.6 0 88 39.4 88 88l0 80c0 13.3-10.7 24-24 24s-24-10.7-24-24l0-80c0-22.1-17.9-40-40-40L88 48C65.9 48 48 65.9 48 88l0 80z"/></svg>