<svg xmlns="http://www.w3.org/2000/svg" viewBox="0 0 448 512"><!--! Font Awesome Pro 6.6.0 by @fontawesome - https://fontawesome.com License - https://fontawesome.com/license (Commercial License) Copyright 2024 Fonticons, Inc. --><path d="M241 185l72-72c9.4-9.4 9.4-24.6 0-33.9s-24.6-9.4-33.9 0l-31 31L248 24c0-13.3-10.7-24-24-24s-24 10.7-24 24l0 86.1L169 79c-9.4-9.4-24.6-9.4-33.9 0s-9.4 24.6 0 33.9l72 72c9.4 9.4 24.6 9.4 33.9 0zM0 256a32 32 0 1 0 64 0A32 32 0 1 0 0 256zm96 0a32 32 0 1 0 64 0 32 32 0 1 0 -64 0zm128-32a32 32 0 1 0 0 64 32 32 0 1 0 0-64zm64 32a32 32 0 1 0 64 0 32 32 0 1 0 -64 0zm128-32a32 32 0 1 0 0 64 32 32 0 1 0 0-64zM313 399l-72-72c-9.4-9.4-24.6-9.4-33.9 0l-72 72c-9.4 9.4-9.4 24.6 0 33.9s24.6 9.4 33.9 0l31-31 0 86.1c0 13.3 10.7 24 24 24s24-10.7 24-24l0-86.1 31 31c9.4 9.4 24.6 9.4 33.9 0s9.4-24.6 0-33.9z"/></svg>