<svg xmlns="http://www.w3.org/2000/svg" viewBox="0 0 576 512"><!--! Font Awesome Pro 6.6.0 by @fontawesome - https://fontawesome.com License - https://fontawesome.com/license (Commercial License) Copyright 2024 Fonticons, Inc. --><path d="M111 39c9.4-9.4 24.6-9.4 33.9 0l96 96c9.4 9.4 9.4 24.6 0 33.9s-24.6 9.4-33.9 0l-55-55L152 456c0 13.3-10.7 24-24 24s-24-10.7-24-24l0-342.1L49 169c-9.4 9.4-24.6 9.4-33.9 0s-9.4-24.6 0-33.9l96-96zM312 480c-13.3 0-24-10.7-24-24s10.7-24 24-24l48 0c13.3 0 24 10.7 24 24s-10.7 24-24 24l-48 0zm0-128c-13.3 0-24-10.7-24-24s10.7-24 24-24l112 0c13.3 0 24 10.7 24 24s-10.7 24-24 24l-112 0zm0-128c-13.3 0-24-10.7-24-24s10.7-24 24-24l176 0c13.3 0 24 10.7 24 24s-10.7 24-24 24l-176 0zm0-128c-13.3 0-24-10.7-24-24s10.7-24 24-24l240 0c13.3 0 24 10.7 24 24s-10.7 24-24 24L312 96z"/></svg>