<svg xmlns="http://www.w3.org/2000/svg" viewBox="0 0 576 512"><!--! Font Awesome Pro 6.6.0 by @fontawesome - https://fontawesome.com License - https://fontawesome.com/license (Commercial License) Copyright 2024 Fonticons, Inc. --><path d="M552 432L24 432c-13.3 0-24 10.7-24 24s10.7 24 24 24l528 0c13.3 0 24-10.7 24-24s-10.7-24-24-24zm17-159c9.4-9.4 9.4-24.6 0-33.9s-24.6-9.4-33.9 0l-63 63L472 56c0-13.3-10.7-24-24-24s-24 10.7-24 24l0 246.1-63-63c-9.4-9.4-24.6-9.4-33.9 0s-9.4 24.6 0 33.9L431 377c4.5 4.5 10.6 7 17 7s12.5-2.5 17-7L569 273zM249 239c-9.4-9.4-24.6-9.4-33.9 0l-63 63L152 56c0-13.3-10.7-24-24-24s-24 10.7-24 24l0 246.1L41 239c-9.4-9.4-24.6-9.4-33.9 0s-9.4 24.6 0 33.9L111 377c9.4 9.4 24.6 9.4 33.9 0L249 273c9.4-9.4 9.4-24.6 0-33.9z"/></svg>