<svg xmlns="http://www.w3.org/2000/svg" viewBox="0 0 512 512"><!--! Font Awesome Pro 6.6.0 by @fontawesome - https://fontawesome.com License - https://fontawesome.com/license (Commercial License) Copyright 2024 Fonticons, Inc. --><path d="M94 187.1C120.8 124.1 183.3 80 256 80c39.7 0 77.8 15.8 105.9 43.9L414.1 176 360 176c-13.3 0-24 10.7-24 24s10.7 24 24 24l112 0c13.3 0 24-10.7 24-24l0-112c0-13.3-10.7-24-24-24s-24 10.7-24 24l0 54.1L395.9 89.9C358.8 52.8 308.5 32 256 32C163.4 32 83.9 88.2 49.8 168.3c-5.2 12.2 .5 26.3 12.7 31.5s26.3-.5 31.5-12.7zm368 157c5.2-12.2-.4-26.3-12.6-31.5s-26.3 .4-31.5 12.6C391 388.1 328.6 432 256 432c-39.7 0-77.8-15.8-105.9-43.9L97.9 336l54.1 0c13.3 0 24-10.7 24-24s-10.7-24-24-24L40 288c-13.3 0-24 10.7-24 24l0 112c0 13.3 10.7 24 24 24s24-10.7 24-24l0-54.1 52.1 52.1C153.2 459.2 203.5 480 256 480c92.5 0 171.8-56 206-135.9z"/></svg>