<svg xmlns="http://www.w3.org/2000/svg" viewBox="0 0 640 512"><!--! Font Awesome Pro 6.6.0 by @fontawesome - https://fontawesome.com License - https://fontawesome.com/license (Commercial License) Copyright 2024 Fonticons, Inc. --><path d="M38.8 5.1C28.4-3.1 13.3-1.2 5.1 9.2S-1.2 34.7 9.2 42.9l592 464c10.4 8.2 25.5 6.3 33.7-4.1s6.3-25.5-4.1-33.7l-30-23.5c4.6-8.8 7.2-18.9 7.2-29.6l0-320c0-35.3-28.7-64-64-64L96 32c-6.7 0-13.1 1-19.2 2.9L38.8 5.1zM134.4 80L544 80c8.8 0 16 7.2 16 16l0 317.6-95.4-74.8C493 322.1 512 291.3 512 256c0-53-43-96-96-96l-56 0c-13.3 0-24 10.7-24 24l0 54L134.4 80zM419.9 303.8L384 275.7l0-67.7 32 0c26.5 0 48 21.5 48 48c0 25.2-19.4 45.8-44.1 47.8zM487.4 480l-60.9-48L96 432c-8.8 0-16-7.2-16-16l0-257L32 121.2 32 416c0 35.3 28.7 64 64 64l391.4 0zM130.5 317.3c-5.9 11.9-1.1 26.3 10.7 32.2s26.3 1.1 32.2-10.7l9.4-18.9 82.2 0 9.4 18.9c5.9 11.9 20.3 16.7 32.2 10.7c3-1.5 5.5-3.5 7.5-5.9l-80.9-63.8-30.4 0 8.6-17.2L173 232.3l-42.5 85z"/></svg>