<svg xmlns="http://www.w3.org/2000/svg" viewBox="0 0 512 512"><!--! Font Awesome Pro 6.6.0 by @fontawesome - https://fontawesome.com License - https://fontawesome.com/license (Commercial License) Copyright 2024 Fonticons, Inc. --><path d="M464 144c0 29.9-13.6 56.5-35.1 74.2c-24.2 19.9-47.3 49.3-54.7 86.9c-8.9 45.7-29.5 88.5-53.1 112c-62.5 62.5-163.8 62.5-226.3 0s-62.5-163.8 0-226.3c23.6-23.6 66.3-44.2 112-53.1c37.6-7.4 67-30.4 86.9-54.7C311.5 61.6 338.1 48 368 48c53 0 96 43 96 96zM421.3 314.3c4.6-23.5 19.6-43.9 38.1-59.1C491.5 228.9 512 188.8 512 144C512 64.5 447.5 0 368 0c-44.8 0-84.9 20.5-111.3 52.6c-15.2 18.5-35.6 33.5-59.1 38.1c-51.9 10.2-104.5 34-136.7 66.3c-81.2 81.2-81.2 212.9 0 294.2s212.9 81.2 294.2 0c32.3-32.3 56.1-84.9 66.3-136.7zM283.2 347.2c41.7-41.7 49.1-102.1 16.4-134.8s-93-25.3-134.8 16.4s-49.1 102.1-16.4 134.8s93 25.3 134.8-16.4z"/></svg>