<svg xmlns="http://www.w3.org/2000/svg" viewBox="0 0 512 512"><!--! Font Awesome Pro 6.6.0 by @fontawesome - https://fontawesome.com License - https://fontawesome.com/license (Commercial License) Copyright 2024 Fonticons, Inc. --><path d="M120.8 70.4c15 20 39.3 40.8 79.2 51.1l0 49.2c-57.2-11.6-94.4-40.5-117.6-71.5c-3.1-4.2-6.2-8.6-9.2-13.3C57.2 119.3 48 156.7 48 192c0 36.8 10 76.1 27.4 110.7c4.4-6.6 9-12.9 13.8-18.8l37.3 30.3c-13.6 16.8-25 36.8-30.9 57.8c-1.5 5.8-6.1 10.4-11.9 11.7s-12-.7-15.8-5.3c-4.4-5.3-8.7-10.9-12.8-16.6l-1-1.4c-1.1-1.6-2.3-3.3-3.4-4.9l-.2-.3C18.6 307.4 0 247.9 0 192C0 136.2 18.5 77.4 50 29.8l.7-1c2.1-3.1 4.2-6.1 6.3-9.1l.5-.7c3.3-4.5 6.7-8.9 10.2-13.2C71.8 .9 78.4-1.1 84.5 .7c6.1 1.8 10.5 7 11.3 13.3c.9 6.4 2.6 12.8 4.7 19l.2 .6c.6 1.7 1.2 3.3 1.9 5l.1 .2c4.6 11.4 11 22.2 18 31.7zm5.6 243.7L89.2 283.8c23.4-28.8 59.1-57.3 110.8-69.5l0 49.7c-34.2 10.7-57.6 30.4-73.6 50.1zM312 170.7l0-49.2c40-10.3 64.3-31.1 79.3-51.1c7.1-9.5 13.4-20.3 18-31.7l.1-.2c.7-1.6 1.3-3.3 1.9-5l.2-.6c2.2-6.2 3.8-12.6 4.7-19c.8-6.3 5.3-11.5 11.3-13.3c6.1-1.8 12.7 .2 16.8 5.1c3.5 4.3 6.9 8.7 10.2 13.2l.5 .7c2.2 3 4.3 6 6.3 9.1l.7 1c27.1 41.1 44.6 90.5 48.9 139.2L488 192l23.1 23.1c-4.3 48.9-22 98.9-49.4 140l-.2 .3c-1.1 1.7-2.2 3.3-3.4 4.9l-1 1.4c-4.1 5.7-8.3 11.3-12.8 16.6c-3.9 4.6-10 6.6-15.8 5.3s-10.5-5.9-11.9-11.7c-5.9-21-17.3-41-30.9-57.8c-15.9-19.6-39.4-39.4-73.7-50.1l0-49.7c51.7 12.3 87.5 40.7 110.9 69.5c4.8 5.9 9.4 12.2 13.8 18.8c11.1-22.1 19.3-46.2 23.6-70.4l-6.3-6.3c-18.7-18.7-18.7-49.1 0-67.9l6.3-6.3c-4.1-22.6-11.5-45-21.5-65.9c-3 4.7-6 9.2-9.2 13.3c-23.2 31-60.5 59.9-117.7 71.5zM280 56l0 432c0 13.3-10.7 24-24 24s-24-10.7-24-24l0-432c0-13.3 10.7-24 24-24s24 10.7 24 24z"/></svg>