<svg xmlns="http://www.w3.org/2000/svg" viewBox="0 0 512 512"><!--! Font Awesome Pro 6.6.0 by @fontawesome - https://fontawesome.com License - https://fontawesome.com/license (Commercial License) Copyright 2024 Fonticons, Inc. --><path d="M138.9 22.9L256 192l144 0 0-40c0-30.9 25.1-56 56-56l32 0c13.3 0 24 10.7 24 24s-10.7 24-24 24l-32 0c-4.4 0-8 3.6-8 8l0 40 0 32c0 28-6.1 55.6-17.7 81.1c-11.6 25.5-28.6 48.4-49.5 67.5c-21 19.1-45.6 34-72.5 44.1S252.8 432 224 432s-57.4-5.2-84.3-15.3s-51.5-25-72.5-44.1s-37.9-42-49.5-67.5C6.1 279.6 0 252 0 224l0-32 .1 0C2.7 117.9 41.3 52.9 99 14.1c13.3-8.9 30.8-4.3 39.9 8.8zM80 416a48 48 0 1 1 0 96 48 48 0 1 1 0-96zm240 48a48 48 0 1 1 96 0 48 48 0 1 1 -96 0zM56.1 272c1.5 4.5 3.3 8.9 5.3 13.2c8.8 19.4 21.8 37 38.2 51.9s35.7 26.6 57.1 34.7s44.2 12.2 67.4 12.2s46-4.1 67.4-12.2s40.8-19.8 57.1-34.7s29.3-32.5 38.2-51.9c2-4.3 3.7-8.8 5.3-13.2c3.6-10.4 6-21.1 7.2-32L48.9 240c1.2 10.9 3.6 21.6 7.2 32z"/></svg>