<svg xmlns="http://www.w3.org/2000/svg" viewBox="0 0 576 512"><!--! Font Awesome Pro 6.6.0 by @fontawesome - https://fontawesome.com License - https://fontawesome.com/license (Commercial License) Copyright 2024 Fonticons, Inc. --><path d="M441.7 216c-26.1 23-45.1 49.9-67.3 82.1l-2.2 3.2C327.8 365.9 275.5 442 142.3 508.6c-12.3 6.2-27.2 3.7-36.9-6l-96-96c-7.3-7.3-10.6-17.6-9-27.8s8.1-18.9 17.3-23.5C136.1 296.2 180.9 231 223.3 169.3l2.3-3.4c21.8-31.8 44.9-64.9 77.7-93.9c33.4-29.5 75.8-53.6 135.9-70.8c11.2-3.2 23.2-.1 31.4 8.1l96 96c8 8 11.2 19.7 8.3 30.7s-11.3 19.6-22.2 22.7c-51.9 14.8-85.6 34.7-111.1 57.2zM262.9 196.4s0 0 0 0c-41.7 60.7-89.2 129.6-204.1 191.7l24.3 24.3C197.6 352.8 242.8 287 284.5 226.3l2.3-3.3c21.9-31.9 43.9-63.5 75.1-90.9c26.6-23.5 59.5-43.6 104.2-59.3L443.4 50.1c-49 15.1-82.4 35.1-108.3 58c-27.8 24.5-47.8 53-69.9 85.1c0 0 0 0 0 0l-2.3 3.4zM106.8 436.1l24.3 24.3c114.5-59.7 159.8-125.5 201.3-186l.2-.3s0 0 0 0l2.2-3.2s0 0 0 0c21.9-31.9 43.9-63.5 75.1-90.9c26.6-23.5 59.5-43.6 104.2-59.3L491.4 98c-49 15.1-82.4 35.1-108.3 58c-27.8 24.5-47.8 52.9-69.9 85.1l-2.2 3.3C269.3 304.9 221.9 374 106.8 436.1z"/></svg>