<svg xmlns="http://www.w3.org/2000/svg" viewBox="0 0 512 512"><!--! Font Awesome Pro 6.6.0 by @fontawesome - https://fontawesome.com License - https://fontawesome.com/license (Commercial License) Copyright 2024 Fonticons, Inc. --><path d="M248 463.8c0-6 .3-11.9 .7-17.8c1.1-13.2 12.7-23 25.9-21.9s23 12.7 21.9 25.9c-.3 3.4-.5 6.8-.5 10.2C378.8 444 444 378.8 460.2 296c-3.4 .1-6.8 .3-10.2 .5c-13.2 1.1-24.8-8.7-25.9-21.9s8.7-24.8 21.9-25.9c5.9-.5 11.8-.7 17.8-.7C459.7 139.5 372.5 52.3 264 48.2c0 6-.3 11.9-.7 17.8c-1.1 13.2-12.7 23-25.9 21.9s-23-12.7-21.9-25.9c.3-3.4 .5-6.8 .5-10.2C133.2 68 68 133.2 51.9 216c3.4-.1 6.8-.3 10.2-.5c13.2-1.1 24.8 8.7 25.9 21.9s-8.7 24.8-21.9 25.9c-5.9 .5-11.8 .7-17.8 .7C52.3 372.5 139.5 459.7 248 463.8zM0 256a256 256 0 1 1 512 0A256 256 0 1 1 0 256zm118-55.2c36.5-16.8 66-46.3 82.8-82.8c5.5-12 19.8-17.3 31.8-11.8s17.3 19.8 11.8 31.8C222.8 185 185 222.8 138 244.4c-12 5.5-26.3 .2-31.8-11.8s-.2-26.3 11.8-31.8zM394 311.2c-36.5 16.8-66 46.3-82.8 82.8c-5.5 12-19.8 17.3-31.8 11.8s-17.3-19.8-11.8-31.8C289.2 327 327 289.2 374 267.6c12-5.5 26.3-.2 31.8 11.8s.2 26.3-11.8 31.8z"/></svg>