<svg xmlns="http://www.w3.org/2000/svg" viewBox="0 0 512 512"><!--! Font Awesome Pro 6.6.0 by @fontawesome - https://fontawesome.com License - https://fontawesome.com/license (Commercial License) Copyright 2024 Fonticons, Inc. --><path d="M32 80l0 125.8c14.5-7.7 30.8-12.4 48-13.6l0-.3 0-32c0-17.7 14.3-32 32-32l96 0c17.7 0 32 14.3 32 32l0 32 32 0 0-32c0-17.7 14.3-32 32-32l96 0c17.7 0 32 14.3 32 32l0 32 0 .3c17.2 1.1 33.5 5.9 48 13.6L480 80c0-26.5-21.5-48-48-48L80 32C53.5 32 32 53.5 32 80zM88 224c-48.6 0-88 39.4-88 88l0 80 0 64c0 13.3 10.7 24 24 24s24-10.7 24-24l0-40 416 0 0 40c0 13.3 10.7 24 24 24s24-10.7 24-24l0-64 0-80c0-48.6-39.4-88-88-88L88 224zM464 368L48 368l0-56c0-22.1 17.9-40 40-40l336 0c22.1 0 40 17.9 40 40l0 56z"/></svg>