<svg xmlns="http://www.w3.org/2000/svg" viewBox="0 0 640 512"><!--! Font Awesome Pro 6.6.0 by @fontawesome - https://fontawesome.com License - https://fontawesome.com/license (Commercial License) Copyright 2024 Fonticons, Inc. --><path d="M318 4.5C324.3 9 328 16.3 328 24l0 152 32 0c13.3 0 24 10.7 24 24s-10.7 24-24 24l-56 0-56 0c-13.3 0-24-10.7-24-24s10.7-24 24-24l32 0 0-118.7-16.4 5.5C251 67 237.4 60.2 233.2 47.6S235.8 21.4 248.4 17.2l48-16C303.7-1.2 311.8 0 318 4.5zM94 292.5c6.3 4.5 10 11.8 10 19.5l0 152 32 0c13.3 0 24 10.7 24 24s-10.7 24-24 24l-56 0-56 0c-13.3 0-24-10.7-24-24s10.7-24 24-24l32 0 0-118.7-16.4 5.5C27 355 13.4 348.2 9.2 335.6S11.8 309.4 24.4 305.2l48-16c7.3-2.4 15.4-1.2 21.6 3.3zM72 0l48 0c39.8 0 72 32.2 72 72l0 80c0 39.8-32.2 72-72 72l-48 0c-39.8 0-72-32.2-72-72L0 72C0 32.2 32.2 0 72 0zM48 72l0 80c0 13.3 10.7 24 24 24l48 0c13.3 0 24-10.7 24-24l0-80c0-13.3-10.7-24-24-24L72 48C58.7 48 48 58.7 48 72zM192 360c0-39.8 32.2-72 72-72l48 0c8.8 0 17.2 1.6 25 4.5c-6.8 14.4-11.8 29.8-14.5 45.9c-3.2-1.5-6.7-2.4-10.5-2.4l-48 0c-13.3 0-24 10.7-24 24l0 80c0 13.3 10.7 24 24 24l48 0c0 0 .1 0 .1 0l36.4 0c5.4 8.2 11.4 15.9 18 23.1C353.2 502.4 333.7 512 312 512l-48 0c-39.8 0-72-32.2-72-72l0-80zm160 8a144 144 0 1 1 288 0 144 144 0 1 1 -288 0zm211.3-43.3c-6.2-6.2-16.4-6.2-22.6 0L480 385.4l-28.7-28.7c-6.2-6.2-16.4-6.2-22.6 0s-6.2 16.4 0 22.6l40 40c6.2 6.2 16.4 6.2 22.6 0l72-72c6.2-6.2 6.2-16.4 0-22.6z"/></svg>