<svg xmlns="http://www.w3.org/2000/svg" viewBox="0 0 576 512"><!--! Font Awesome Pro 6.6.0 by @fontawesome - https://fontawesome.com License - https://fontawesome.com/license (Commercial License) Copyright 2024 Fonticons, Inc. --><path d="M173.2 0c-1.8 0-3.5 .7-4.8 2C138.5 32.3 120 74 120 120c0 26.2 6 50.9 16.6 73c-22 2.4-43.8 9.1-64.2 20.5C37.9 232.8 13.3 262.4 .4 296c-.7 1.7-.5 3.7 .5 5.2c2.2 3.7 7.4 4.3 10.6 1.3C64.2 254.3 158 245.1 205 324s-8.1 153.1-77.6 173.2c-4.2 1.2-6.3 5.9-4.1 9.6c1 1.6 2.6 2.7 4.5 3c36.5 5.9 75.2 .1 109.7-19.2c20.4-11.4 37.4-26.5 50.5-43.8c13.1 17.3 30.1 32.4 50.5 43.8c34.5 19.3 73.3 25.2 109.7 19.2c1.9-.3 3.5-1.4 4.5-3c2.2-3.7 .1-8.4-4.1-9.6C379.1 477.1 324 403 371 324s140.7-69.8 193.5-21.4c3.2 2.9 8.4 2.3 10.6-1.3c1-1.6 1.1-3.5 .5-5.2c-12.9-33.6-37.5-63.2-72.1-82.5c-20.4-11.4-42.2-18.1-64.2-20.5C450 170.9 456 146.2 456 120c0-46-18.5-87.7-48.4-118c-1.3-1.3-3-2-4.8-2c-5 0-8.4 5.2-6.7 9.9C421.7 80.5 385.6 176 288 176S154.3 80.5 179.9 9.9c1.7-4.7-1.6-9.9-6.7-9.9zM240 272a48 48 0 1 1 96 0 48 48 0 1 1 -96 0zM181.7 417.6c3.3-6.2 5.9-12.8 7.3-19.8c-29.9-23.5-51.1-57.5-58.3-96.4c-7.1-2.2-14.4-3.4-21.7-3.8c-9-.4-18.1 .6-27.1 2.7c7.8 57.1 38.7 106.8 82.9 139.4c6.8-6.7 12.6-14.1 16.8-22.1zM288 64c-28.8 0-56.3 5.9-81.2 16.5c2 8.3 5 16.2 9 23.5c3.8 6.9 8.5 13.3 14.3 18.8c18-7 37.5-10.8 57.9-10.8s40 3.8 57.9 10.8c5.8-5.5 10.5-11.9 14.3-18.8c4-7.3 7-15.2 9-23.5C344.3 69.9 316.8 64 288 64zM445.3 301.3c-7.2 38.9-28.5 72.9-58.3 96.4c1.5 7 4 13.7 7.3 19.8c4.3 8 10 15.4 16.8 22.1c44.3-32.6 75.2-82.3 82.9-139.4c-9-2.2-18.1-3.1-27.1-2.7c-7.3 .3-14.6 1.5-21.7 3.8z"/></svg>