<svg xmlns="http://www.w3.org/2000/svg" viewBox="0 0 512 512"><!--! Font Awesome Pro 6.6.0 by @fontawesome - https://fontawesome.com License - https://fontawesome.com/license (Commercial License) Copyright 2024 Fonticons, Inc. --><path d="M0 24C0 10.7 10.7 0 24 0L488 0c13.3 0 24 10.7 24 24c0 8.6-4.5 16.2-11.4 20.4l11 57.6c.3 1.4 .4 2.7 .4 4.1c0 12.1-9.8 21.9-21.9 21.9L224 128l0-48 234.6 0-6.1-32L192 48l0 116.1c28 9.9 48 36.6 48 67.9c0 39.8-32.2 72-72 72s-72-32.2-72-72c0-31.3 20-58 48-67.9L144 48 59.5 48 53.4 80 112 80l0 48-90.1 0C9.8 128 0 118.2 0 106.1c0-1.4 .1-2.8 .4-4.1l11-57.6C4.5 40.2 0 32.6 0 24zM66.8 208C65 215.7 64 223.7 64 232s1 16.3 2.8 24l-44.9 0C9.8 256 0 246.2 0 234.1c0-1.4 .1-2.8 .4-4.1l13.3-70 48.9 0-9.1 48 13.3 0zm202.4 48c1.8-7.7 2.8-15.7 2.8-24s-1-16.3-2.8-24l189.3 0-9.1-48 48.9 0 13.3 70c.3 1.4 .4 2.7 .4 4.1c0 12.1-9.8 21.9-21.9 21.9l-220.9 0zM168 336l290.6 0-9.1-48 48.9 0 13.3 70c.3 1.4 .4 2.7 .4 4.1c0 12.1-9.8 21.9-21.9 21.9L21.9 384C9.8 384 0 374.2 0 362.1c0-1.4 .1-2.8 .4-4.1l13.3-70 48.9 0-9.1 48L168 336zM13.7 416l48.9 0-9.1 48 405.1 0-9.1-48 48.9 0 13.3 70c.3 1.4 .4 2.7 .4 4.1c0 12.1-9.8 21.9-21.9 21.9L21.9 512C9.8 512 0 502.2 0 490.1c0-1.4 .1-2.8 .4-4.1l13.3-70zM168 256a24 24 0 1 0 0-48 24 24 0 1 0 0 48z"/></svg>