<svg xmlns="http://www.w3.org/2000/svg" viewBox="0 0 448 512"><!--! Font Awesome Pro 6.6.0 by @fontawesome - https://fontawesome.com License - https://fontawesome.com/license (Commercial License) Copyright 2024 Fonticons, Inc. --><path d="M321.7 0c19.1 0 32.9 18.3 27.6 36.6L295.8 224l85.2 0c19.3 0 34.9 15.6 34.9 34.9c0 10.3-4.5 20-12.3 26.6L144.9 505.2c-5.2 4.4-11.8 6.8-18.6 6.8c-19.1 0-32.9-18.3-27.6-36.6L152.2 288l-86.4 0C47.1 288 32 272.9 32 254.3c0-9.9 4.3-19.2 11.8-25.6L303.1 6.9C308.3 2.4 314.9 0 321.7 0zM285.6 85L104.4 240l79.6 0c7.5 0 14.6 3.5 19.2 9.5s6 13.8 3.9 21L162.3 427.5 345.5 272 264 272c-7.5 0-14.6-3.5-19.2-9.5s-6-13.8-3.9-21L285.6 85z"/></svg>