<svg xmlns="http://www.w3.org/2000/svg" viewBox="0 0 512 512"><!--! Font Awesome Pro 6.6.0 by @fontawesome - https://fontawesome.com License - https://fontawesome.com/license (Commercial License) Copyright 2024 Fonticons, Inc. --><path d="M459.1 52.4l45.7 16.8c4.3 1.6 7.3 5.9 7.2 10.4c0 4.5-3 8.7-7.2 10.2l-45.7 16.8-16.5 45.8c-1.5 4.4-5.8 7.5-10.4 7.5s-8.9-3.1-10.4-7.5l-16.8-45.8L359.2 89.8c-4.2-1.5-7.2-5.7-7.2-10.2c0-4.6 3-8.9 7.2-10.4l46-16.8L421.7 6.5c1.9-3.9 6.1-6.5 10.4-6.5s8.5 2.6 10.4 6.5l16.5 45.8zM302.9 149.6c-12.1 7.2-27.1 8.8-40.7 3.8c-16.9-6.1-35.1-9.4-54.2-9.4c-88.4 0-160 71.6-160 160s71.6 160 160 160s160-71.6 160-160c0-19.1-3.3-37.4-9.4-54.2c-4.9-13.7-3.3-28.6 3.8-40.7l-59.5-59.5zm-24.4-41.3l2.9-2.9c12.5-12.5 32.8-12.5 45.3 0l80 80c12.5 12.5 12.5 32.8 0 45.3l-2.9 2.9c7.9 22 12.2 45.7 12.2 70.5c0 114.9-93.1 208-208 208S0 418.9 0 304S93.1 96 208 96c24.7 0 48.5 4.3 70.5 12.3zM200 224c-39.8 0-72 32.2-72 72c0 13.3-10.7 24-24 24s-24-10.7-24-24c0-66.3 53.7-120 120-120c13.3 0 24 10.7 24 24s-10.7 24-24 24z"/></svg>