<svg xmlns="http://www.w3.org/2000/svg" viewBox="0 0 448 512"><!--! Font Awesome Pro 6.6.0 by @fontawesome - https://fontawesome.com License - https://fontawesome.com/license (Commercial License) Copyright 2024 Fonticons, Inc. --><path d="M24 480c-13.3 0-24-10.7-24-24L0 56C0 42.7 10.7 32 24 32s24 10.7 24 24l0 400c0 13.3-10.7 24-24 24zm104-64a32 32 0 1 1 0 64 32 32 0 1 1 0-64zm0-320a32 32 0 1 1 0-64 32 32 0 1 1 0 64zm0 128a32 32 0 1 1 0 64 32 32 0 1 1 0-64zM320 480a32 32 0 1 1 0-64 32 32 0 1 1 0 64zm0-448a32 32 0 1 1 0 64 32 32 0 1 1 0-64zm0 256a32 32 0 1 1 0-64 32 32 0 1 1 0 64zM224 416a32 32 0 1 1 0 64 32 32 0 1 1 0-64zm0-320a32 32 0 1 1 0-64 32 32 0 1 1 0 64zm0 128a32 32 0 1 1 0 64 32 32 0 1 1 0-64zM416 480a32 32 0 1 1 0-64 32 32 0 1 1 0 64zm0-448a32 32 0 1 1 0 64 32 32 0 1 1 0-64zm0 256a32 32 0 1 1 0-64 32 32 0 1 1 0 64zM224 320a32 32 0 1 1 0 64 32 32 0 1 1 0-64zm192 64a32 32 0 1 1 0-64 32 32 0 1 1 0 64zm0-256a32 32 0 1 1 0 64 32 32 0 1 1 0-64zM224 192a32 32 0 1 1 0-64 32 32 0 1 1 0 64z"/></svg>