<svg xmlns="http://www.w3.org/2000/svg" viewBox="0 0 640 512"><!--! Font Awesome Pro 6.6.0 by @fontawesome - https://fontawesome.com License - https://fontawesome.com/license (Commercial License) Copyright 2024 Fonticons, Inc. --><path d="M480.9 3.1C456-6.2 428.4 6.3 419.1 31.2L384 124.8C382.2 55.6 325.6 0 256 0C185.3 0 128 57.3 128 128c0 2.2 .1 4.3 .2 6.5l65.5 8.2c-1.1-4.7-1.7-9.6-1.7-14.7c0-35.3 28.7-64 64-64s64 28.7 64 64c0 10.7-2.6 20.7-7.2 29.6l7.2 .9 161.4-20.2 27.5-73.4c9.3-24.8-3.3-52.5-28.1-61.8zM58.9 170.1L17.2 253.5c-9 17.9 .6 39.6 19.8 45.1l163.3 46.7c13.9 4 28.8-1.9 36.2-14.3L320 192 75.2 161.4c-6.7-.8-13.3 2.7-16.3 8.7zM576 339.6l-48 13.7 0 57.2-184 46L344 312c0-13.3-10.7-24-24-24s-24 10.7-24 24l0 144.5-184-46 0-57.2L64 339.6l0 71c0 22 15 41.2 36.4 46.6l204.1 51c10.2 2.5 20.9 2.5 31 0l204.1-51c21.4-5.3 36.4-24.5 36.4-46.6l0-71zm46.8-86.1l-41.7-83.4c-3-6.1-9.6-9.6-16.3-8.7L320 192l83.4 139c7.4 12.4 22.3 18.3 36.2 14.3l163.3-46.7c19.3-5.5 28.8-27.2 19.8-45.1z"/></svg>