<svg xmlns="http://www.w3.org/2000/svg" viewBox="0 0 512 512"><!--! Font Awesome Pro 6.6.0 by @fontawesome - https://fontawesome.com License - https://fontawesome.com/license (Commercial License) Copyright 2024 Fonticons, Inc. --><path d="M208 48l-90.5 0 57.1 228.4 2.9 11.6 154.8 0 7.1-17.8L389.9 144 336 144c-31.1 0-56.2-9.9-75.5-28.2c-15.8-15-25.1-33.7-30.5-44.6l-.9-1.8C222.3 56 219.8 52 217.5 49.8c-.5-.5-.8-.6-1.3-.8c-.7-.3-3-1-8.2-1zM384 288l8 0c13.3 0 24 10.7 24 24s-10.7 24-24 24l-272 0c-13.3 0-24-10.7-24-24s10.7-24 24-24l8 0-8-32-12-48L64.9 35.4c-.6-2.3-.9-4.6-.9-6.9C64 12.8 76.8 0 92.5 0L208 0c40 0 52 24 64 48s24 48 64 48l85.2 0C436 96 448 108 448 122.8c0 3.4-.7 6.8-1.9 10L416 208l-19.2 48L384 288zM75 208l12 48-39 0 0 112 416 0 0-112-32.7 0 19.2-48 13.5 0c26.5 0 48 21.5 48 48l0 208c0 26.5-21.5 48-48 48L48 512c-26.5 0-48-21.5-48-48L0 256c0-26.5 21.5-48 48-48l27 0zM48 416l0 48 416 0 0-48L48 416z"/></svg>