<svg xmlns="http://www.w3.org/2000/svg" viewBox="0 0 256 512"><!--! Font Awesome Pro 6.6.0 by @fontawesome - https://fontawesome.com License - https://fontawesome.com/license (Commercial License) Copyright 2024 Fonticons, Inc. --><path d="M192 120c0-48.6-39.4-88-88-88L56 32C42.7 32 32 42.7 32 56s10.7 24 24 24l48 0c22.1 0 40 17.9 40 40l0 45.5c0 23.3 9.3 45.7 25.8 62.2L198.1 256l-28.3 28.3c-16.5 16.5-25.8 38.9-25.8 62.2l0 45.5c0 22.1-17.9 40-40 40l-48 0c-13.3 0-24 10.7-24 24s10.7 24 24 24l48 0c48.6 0 88-39.4 88-88l0-45.5c0-10.6 4.2-20.8 11.7-28.3L249 273c9.4-9.4 9.4-24.6 0-33.9l-45.3-45.3c-7.5-7.5-11.7-17.7-11.7-28.3l0-45.5z"/></svg>