<svg xmlns="http://www.w3.org/2000/svg" viewBox="0 0 512 512"><!--! Font Awesome Pro 6.6.0 by @fontawesome - https://fontawesome.com License - https://fontawesome.com/license (Commercial License) Copyright 2024 Fonticons, Inc. --><path d="M153.5 76.9c-1.9 6.8-6.8 12.4-13.2 15.3c-16.6 7.5-28.2 24.1-28.3 43.5c-.1 9.1-5.2 17.3-13.3 21.3C82.8 164.9 72 181.2 72 200c0 7.1 1.5 13.7 4.2 19.7c4.4 9.7 1.9 21-6.1 28C56.5 259.4 48 276.7 48 296c0 20.2 9.3 38.1 23.9 49.9c6.7 5.4 10 14 8.7 22.5c-.4 2.5-.6 5-.6 7.6c0 26.1 20.8 47.3 46.7 48c9.2 .3 17.4 5.7 21.2 14.1c6.9 15.3 22.3 25.9 40.1 25.9c24.3 0 44-19.7 44-44l0-332c0-22.1-17.9-40-40-40c-18.2 0-33.7 12.2-38.5 28.9zM256 482c-16.8 18.5-41.1 30-68 30c-32.2 0-60.5-16.5-76.9-41.5c-45-8-79.1-47.3-79.1-94.5c0-.5 0-1.1 0-1.6C12.2 354.2 0 326.5 0 296c0-27.8 10.1-53.2 26.8-72.7C25 215.8 24 208 24 200c0-32.6 16.3-61.5 41.1-78.8c4.5-28.9 21.8-53.5 45.9-67.8C124.5 22 155.7 0 192 0c25.2 0 48 10.6 64 27.6C272 10.6 294.8 0 320 0c36.3 0 67.5 22 80.9 53.4c24.1 14.3 41.5 38.9 45.9 67.8C471.7 138.5 488 167.4 488 200c0 8-1 15.8-2.8 23.3c16.7 19.6 26.8 45 26.8 72.7c0 30.5-12.2 58.2-32 78.4c0 .5 0 1.1 0 1.6c0 47.3-34.1 86.5-79.1 94.5c-16.4 25-44.7 41.5-76.9 41.5c-26.9 0-51.2-11.6-68-30zm24-62c0 24.3 19.7 44 44 44c17.8 0 33.2-10.6 40.1-25.9c3.8-8.4 12-13.9 21.2-14.1c25.9-.7 46.7-21.9 46.7-48c0-2.6-.2-5.2-.6-7.6c-1.4-8.5 2-17.1 8.7-22.5C454.7 334.1 464 316.2 464 296c0-19.3-8.5-36.6-22.1-48.3c-8-6.9-10.5-18.3-6.1-28c2.7-6 4.2-12.6 4.2-19.7c0-18.8-10.8-35.1-26.7-43c-8.1-4-13.3-12.3-13.3-21.3c-.1-19.3-11.7-36-28.3-43.5c-6.4-2.9-11.3-8.5-13.2-15.3C353.7 60.2 338.2 48 320 48c-22.1 0-40 17.9-40 40l0 332z"/></svg>