<svg xmlns="http://www.w3.org/2000/svg" viewBox="0 0 640 512"><!--! Font Awesome Pro 6.6.0 by @fontawesome - https://fontawesome.com License - https://fontawesome.com/license (Commercial License) Copyright 2024 Fonticons, Inc. --><path d="M24 0C17.3 0 10.9 2.8 6.3 7.8S-.5 19.4 .1 26.1L36.3 446.2C39.5 483.4 70.7 512 108 512L276 512c5.6 0 11-.6 16.2-1.8c-13.1-12.8-23.3-28.5-29.4-46.2L108 464c-12.5 0-22.8-9.5-23.9-21.9L64 208l247.9 0c15.5-12.4 35-24.1 59.2-32.7L383.9 26.1c.6-6.7-1.7-13.3-6.2-18.3s-11-7.8-17.7-7.8L24 0zM59.8 160L50.2 48l283.7 0-9.7 112L59.8 160zm390.1 80.2c-1.2 2.3-1.9 4.9-1.9 7.6c0 8.8 7.2 16 16 16s16-7.2 16-16c0-2.8-.7-5.3-1.9-7.6c22.5 1.3 40.8 5.5 55.7 11.3c-3.5 2.9-5.8 7.4-5.8 12.3c0 8.8 7.2 16 16 16c8.3 0 15.2-6.4 15.9-14.6c18.4 12.7 27.4 26.8 31.1 33.6c.3 .7 1 2.3 1 6.1c0 17-13.8 30.8-30.8 30.8l-194.3 0c-17 0-30.8-13.8-30.8-30.8c0-3.7 .6-5.4 1-6.1c3.7-6.9 12.7-21 31.1-33.6c.7 8.2 7.6 14.6 15.9 14.6c8.8 0 16-7.2 16-16c0-4.9-2.2-9.4-5.8-12.3c14.8-5.8 33.1-10.1 55.7-11.3zM627.8 347.1c7.7-12.2 12.2-26.6 12.2-42.1c0-8.4-1.3-18.7-6.7-28.8C619 249.5 574.2 191.8 464 191.8s-155 57.7-169.3 84.4c-5.4 10-6.7 20.4-6.7 28.8c0 15.5 4.5 29.9 12.2 42.1c-7.5 7.3-12.2 17.5-12.2 28.7c0 8.1 2.4 15.6 6.5 21.8c-4.1 7.8-6.5 16.7-6.5 26.2c0 48.6 39.4 88 88 88l176 0c48.6 0 88-39.4 88-88c0-9.5-2.3-18.4-6.5-26.2c4.1-6.3 6.5-13.8 6.5-21.8c0-11.3-4.7-21.5-12.2-28.7zM344 415.8l240 0c4.4 0 8 3.6 8 8c0 22.1-17.9 40-40 40l-176 0c-22.1 0-40-17.9-40-40c0-4.4 3.6-8 8-8z"/></svg>