<svg xmlns="http://www.w3.org/2000/svg" viewBox="0 0 512 512"><!--! Font Awesome Pro 6.6.0 by @fontawesome - https://fontawesome.com License - https://fontawesome.com/license (Commercial License) Copyright 2024 Fonticons, Inc. --><path d="M67.9 304c-4.4 4.4-8.1 9.4-11.2 14.7c17.3 6 35.9 9.3 55.3 9.3c75.6 0 139.5-49.9 160.6-118.6c4.8-15.6 7.4-32.2 7.4-49.4c0-20.3-3.6-39.8-10.2-57.9L67.9 304zm-53.8-7.4s0 0 0 0c5.3-9.7 11.9-18.6 19.8-26.5L242 62c8.2-35.5 40-62 78-62c11.4 0 22.2 2.4 32 6.7C361.8 2.4 372.6 0 384 0c34.6 0 64.1 22 75.2 52.8C490 63.9 512 93.4 512 128c0 11.4-2.4 22.2-6.7 32c2.7 6.1 4.6 12.7 5.7 19.6c6.6 41.7-20.4 81-61 90.4L241.9 478.1C220.2 499.8 190.7 512 160 512s-60.2-12.2-81.9-33.9L112 444.1c12.7 12.7 30 19.9 48 19.9s35.3-7.2 48-19.9L409.9 242.2c-18-6.6-37.5-10.2-57.9-10.2c-13 0-25.7 1.5-37.9 4.3C283.3 317.9 204.5 376 112 376c-21.7 0-42.6-3.2-62.4-9.1c2.8 12.5 9.1 24 18.2 33.1L112 444.1 78.1 478.1 33.9 433.9C12.2 412.2 0 382.7 0 352c0-2.4 .1-4.8 .2-7.1c0 0 0 0 0 0c1-17 5.8-33.5 13.9-48.3z"/></svg>