<svg xmlns="http://www.w3.org/2000/svg" viewBox="0 0 512 512"><!--! Font Awesome Pro 6.6.0 by @fontawesome - https://fontawesome.com License - https://fontawesome.com/license (Commercial License) Copyright 2024 Fonticons, Inc. --><path d="M464 304l0 .2 0 .4 0 .4 0 .4 0 .4 0 .4 0 .4 0 .4 0 .4 0 .4 0 .4 0 .4 0 .4 0 .4 0 .4 0 .4 0 .4 0 .4 0 .4 0 .4 0 .4 0 .4 0 .4 0 .4 0 .4 0 .4 0 .4 0 .4 0 .4 0 .4 0 .4 0 .4 0 .4 0 .4 0 .4 0 .4 0 .4 0 .4 0 .4 0 .4 0 .4 0 .4 0 .4 0 .4 0 .4 0 .4 0 .4 0 .4 0 .4 0 .4 0 .4 0 .4 0 .4 0 .4 0 .4 0 .4 0 .4 0 .4 0 .4 0 .4 0 .4 0 .4 0 .4 0 .4 0 .4 0 .4 0 .4 0 .4 0 .4 0 .4 0 .4 0 .4 0 .4 0 .4 0 .3 0 .3 0 .3 0 .3 0 .3 0 .3 0 .3 0 .3 0 .3 0 .3 0 .3 0 .3 0 .3 0 .3 0 .3 0 .3 0 .3 0 .3 0 .3 0 .3 0 .3 0 .3 0 .3 0 .3 0 .3 0 .3 0 .3 0 .3 0 .3 0 .3 0 .3 0 .3 0 .3 0 .3 0 .3 0 .3 0 .3 0 .3 0 .3 0 .3 0 .3 0 .3 0 .3 0 .3 0 .3 0 .3 0 .3 0 .3 0 .3 0 .3 0 .3 0 .3 0 .3 0 .3 0 .3 0 .3 0 .3 0 .3 0 .3 0 .3 0 .3 0 .3L48 352l0-48 416 0zM48 416l0-32 416 0 0 .2 0 .2 0 .2 0 .2 0 .2 0 .2 0 .2 0 .2 0 .2 0 .2 0 .2 0 .2 0 .2 0 .2 0 .2 0 .2 0 .2 0 .2 0 .2 0 .2 0 .2 0 .2 0 .2 0 .2 0 .2 0 .2 0 .2 0 .2 0 .2 0 .2 0 .2 0 .2 0 .2 0 .2 0 .2 0 .2 0 .2 0 .2 0 .2 0 .2 0 .2 0 .2 0 .2 0 .2 0 .2 0 .2 0 .2 0 .2 0 .2 0 .2 0 .2 0 .2 0 .2 0 .2 0 .2 0 .2 0 .2 0 .2 0 .2 0 .2 0 .2 0 .2 0 .2 0 .2 0 .2 0 .2 0 .2 0 .2 0 .2 0 .2 0 .2 0 .2 0 .2 0 .2 0 .2 0 .2 0 .2 0 .2 0 .2 0 .2 0 .2 0 .2 0 .2 0 .2 0 .2 0 .2 0 .2 0 .2 0 .2 0 .2 0 .2 0 .2 0 .2 0 .2 0 .2 0 .2 0 .2 0 .2 0 .2 0 .2 0 .2 0 .2 0 .2 0 .2 0 .2 0 .2 0 .2 0 .2 0 .2 0 .2 0 .2 0 .2 0 .2 0 .2 0 .2 0 .2 0 .2 0 .2 0 .2 0 .2 0 .2 0 .2 0 .2 0 .2 0 .2 0 .2 0 .2 0 .2 0 .2 0 .2 0 .2 0 .2 0 .2 0 .2 0 .2 0 .2 0 .2 0 .2 0 .2 0 .2 0 .2 0 .2 0 .2 0 .2 0 .2 0 .2 0 .2 0 .2 0 .2 0 .2 0 .2 0 .2c0 8.8-7.2 16-16 16L64 432c-8.8 0-16-7.2-16-16zM296 32c-7.2 0-14.2 2.4-19.8 6.9l-264 208C4.5 252.9 0 262.2 0 272L0 416c0 35.3 28.7 64 64 64l384 0c35.3 0 64-28.6 64-64l0-.2 0-.2 0-.2 0-.2 0-.2 0-.2 0-.2 0-.2 0-.2 0-.2 0-.2 0-.2 0-.2 0-.2 0-.2 0-.2 0-.2 0-.2 0-.2 0-.2 0-.2 0-.2 0-.2 0-.2 0-.2 0-.2 0-.2 0-.2 0-.2 0-.2 0-.2 0-.2 0-.2 0-.2 0-.2 0-.2 0-.2 0-.2 0-.2 0-.2 0-.2 0-.2 0-.2 0-.2 0-.2 0-.2 0-.2 0-.2 0-.2 0-.2 0-.2 0-.2 0-.2 0-.2 0-.2 0-.2 0-.2 0-.2 0-.2 0-.2 0-.2 0-.2 0-.2 0-.2 0-.2 0-.2 0-.2 0-.2 0-.2 0-.2 0-.2 0-.2 0-.2 0-.2 0-.2 0-.2 0-.2 0-.2 0-.2 0-.2 0-.2 0-.2 0-.2 0-.2 0-.2 0-.2 0-.2 0-.2 0-.2 0-.2 0-.2 0-.2 0-.2 0-.2 0-.2 0-.2 0-.2 0-.2 0-.2 0-.2 0-.2 0-.2 0-.2 0-.2 0-.2 0-.2 0-.2 0-.2 0-.2 0-.2 0-.2 0-.2 0-.2 0-.2 0-.2 0-.2 0-.2 0-.2 0-.2 0-.2 0-.2 0-.2 0-.2 0-.2 0-.2 0-.2 0-.2 0-.2 0-.2 0-.2 0-.2 0-.2 0-.2 0-.2 0-.2 0-.2 0-.2 0-.2 0-.2 0-.2 0-.2 0-.2 0-.2 0-.2 0-.2 0-.2 0-.2 0-.2 0-.2 0-.2 0-.2 0-.3 0-.2 0-.3 0-.3 0-.3 0-.3 0-.3 0-.3 0-.3 0-.3 0-.3 0-.3 0-.3 0-.3 0-.3 0-.3 0-.3 0-.3 0-.3 0-.3 0-.3 0-.3 0-.3 0-.3 0-.3 0-.3 0-.3 0-.3 0-.3 0-.3 0-.3 0-.3 0-.3 0-.3 0-.3 0-.3 0-.3 0-.3 0-.3 0-.3 0-.3 0-.3 0-.3 0-.3 0-.3 0-.3 0-.3 0-.3 0-.3 0-.3 0-.3 0-.3 0-.3 0-.3 0-.3 0-.3 0-.3 0-.3 0-.3 0-.3 0-.3 0-.3 0-.3 0-.3 0-.3 0-.3 0-.3 0-.3 0-.3 0-.3 0-.3 0-.3 0-.3 0-.3 0-.3 0-.3 0-.3 0-.3 0-.3 0-.3 0-.3 0-.3 0-.3 0-.3 0-.3 0-.3 0-.3 0-.3 0-.3 0-.3 0-.3 0-.3 0-.3 0-.3 0-.3 0-.3 0-.3 0-.3 0-.3 0-.3 0-.3 0-.3 0-.3 0-.3 0-.3 0-.3 0-.3 0-.3 0-.3 0-.3 0-.3 0-.3 0-.3 0-.3 0-.3 0-.3 0-.3 0-.3 0-.3 0-.3 0-.3 0-.3 0-.3 0-.3 0-.3 0-.3 0-.3 0-.3 0-.3 0-.3 0-.3 0-.3 0-.3 0-.3 0-.3 0-.3 0-.3 0-.3 0-.3 0-.3 0-.3 0-.3 0-.3 0-.3 0-.3 0-.3 0-.3 0-.3 0-.3 0-.3 0-.3 0-.3 0-.3 0-.3 0-.3 0-.3 0-.3 0-.3 0-.3 0-.3 0-.3 0-.3 0-.3 0-.3 0-.3 0-.3 0-.3 0-.3 0-.3 0-.3 0-.3 0-.3 0-.3 0-.3 0-.3 0-.3 0-.4 0-.4 0-.4 0-.4 0-.4 0-.4 0-.4 0-.4 0-.4 0-.4 0-.4 0-.4 0-.4 0-.4 0-.4 0-.4 0-.4 0-.4 0-.4 0-.4 0-.4 0-.4 0-.4 0-.4 0-.4 0-.4 0-.4 0-.4 0-.4 0-.4 0-.4 0-.4 0-.4 0-.4 0-.4 0-.4 0-.4 0-.4 0-.4 0-.4 0-.4 0-.4 0-.4 0-.4 0-.4 0-.4 0-.4 0-.4 0-.4 0-.4 0-.4 0-.4 0-.4 0-.4 0-.4 0-.4 0-.4 0-.4 0-.4 0-.4 0-.4 0-.4 0-.4 0-.4 0-.4 0-.4 0-.4 0-.4 0-.4 0-.4 0-.4 0-.4 0-.4 0-.4 0-.4 0-.4 0-.4 0-.4 0-.4 0-.4 0-.4 0-.4 0-.4 0-.4 0-.4 0-.4 0-.4 0-.4 0-.4 0-.4 0-.4 0-.4 0-.4 0-.4 0-.4 0-.4 0-.4 0-.4 0-.4 0-.4 0-.4 0-.4 0-.4 0-.4 0-.4 0-.4 0-.4 0-.4 0-.4 0-.4 0-.4 0-.4 0-.4 0-.4 0-.4 0-.4 0-.4 0-.4 0-.4 0-.4 0-.4 0-.4 0-.4 0-.4 0-.4 0-.4 0-.4 0-.4 0-.4 0-.4 0-.4 0-.4 0-.4 0-.4 0-.4 0-.4 0-.4 0-.4 0-.4 0-.4 0-.4 0-.4 0-.4 0-.4 0-.4 0-.4 0-.4 0-.4 0-.4 0-.4 0-.4 0-.4 0-.4 0-.4 0-.4 0-.4 0-.4 0-.4 0-.4 0-.5 0-.5 0-.5 0-.5 0-.5 0-.5 0-.5 0-.5 0-.5 0-.5 0-.5 0-.5 0-.5 0-.5 0-.5 0-.5 0-.5 0-.5 0-.5 0-.5 0-.5 0-.5 0-.5 0-.5 0-.5 0-.5c0-74.3-32.8-130.8-76.1-168.2C393.6 51.2 340.3 32 296 32z"/></svg>