<svg xmlns="http://www.w3.org/2000/svg" viewBox="0 0 576 512"><!--! Font Awesome Pro 6.6.0 by @fontawesome - https://fontawesome.com License - https://fontawesome.com/license (Commercial License) Copyright 2024 Fonticons, Inc. --><path d="M128 0c13.3 0 24 10.7 24 24l0 40 144 0 0-40c0-13.3 10.7-24 24-24s24 10.7 24 24l0 40 40 0c35.3 0 64 28.7 64 64l0 16 0 48-16 0-32 0-48 0L48 192l0 256c0 8.8 7.2 16 16 16l220.5 0c12.3 18.8 28 35.1 46.3 48L64 512c-35.3 0-64-28.7-64-64L0 192l0-48 0-16C0 92.7 28.7 64 64 64l40 0 0-40c0-13.3 10.7-24 24-24zM432 224a144 144 0 1 1 0 288 144 144 0 1 1 0-288zm0 240a24 24 0 1 0 0-48 24 24 0 1 0 0 48zm0-192c-8.8 0-16 7.2-16 16l0 80c0 8.8 7.2 16 16 16s16-7.2 16-16l0-80c0-8.8-7.2-16-16-16z"/></svg>