<svg xmlns="http://www.w3.org/2000/svg" viewBox="0 0 640 512"><!--! Font Awesome Pro 6.6.0 by @fontawesome - https://fontawesome.com License - https://fontawesome.com/license (Commercial License) Copyright 2024 Fonticons, Inc. --><path d="M38.8 5.1C28.4-3.1 13.3-1.2 5.1 9.2S-1.2 34.7 9.2 42.9l592 464c10.4 8.2 25.5 6.3 33.7-4.1s6.3-25.5-4.1-33.7l-55.5-43.5c.5-3.1 .7-6.3 .7-9.6l0-256c0-35.3-28.7-64-64-64l-73.4 0-8.6-25.7C422.4 47.4 401 32 376.9 32L263.1 32c-24.1 0-45.5 15.4-53.1 38.3L201.4 96l-46.6 0L38.8 5.1zM216 144l2.7 0c10.3 0 19.5-6.6 22.8-16.4l14-42.1c1.1-3.3 4.1-5.5 7.6-5.5l113.9 0c3.4 0 6.5 2.2 7.6 5.5l14 42.1c3.3 9.8 12.4 16.4 22.8 16.4l90.7 0c8.8 0 16 7.2 16 16l0 228.5-98.4-77.2c1.6-7.5 2.4-15.4 2.4-23.4c0-61.9-50.1-112-112-112c-17.5 0-34.1 4-48.9 11.2L216 144zM382.6 274.6L318.1 224c.6 0 1.3 0 1.9 0c30.7 0 56.4 21.7 62.6 50.6zM487.4 480l-60.9-48L128 432c-8.8 0-16-7.2-16-16l0-231.8L65.2 147.4c-.8 4.1-1.2 8.3-1.2 12.6l0 256c0 35.3 28.7 64 64 64l359.4 0zM370.6 388l-45.9-36.1c-1.6 .1-3.1 .2-4.7 .2c-31.8 0-58.2-23.2-63.2-53.6L211 262.2c-1.9 8.3-3 16.9-3 25.8c0 61.9 50.1 112 112 112c18.2 0 35.4-4.3 50.6-12z"/></svg>