<svg xmlns="http://www.w3.org/2000/svg" viewBox="0 0 640 512"><!--! Font Awesome Pro 6.6.0 by @fontawesome - https://fontawesome.com License - https://fontawesome.com/license (Commercial License) Copyright 2024 Fonticons, Inc. --><path d="M127.7 106.8L103.4 176l305.1 0-24.2-69.2c-5.6-16-20.8-26.8-37.8-26.8L165.4 80c-17 0-32.1 10.7-37.8 26.8zm-79.6 82L82.3 90.9C94.7 55.6 128 32 165.4 32l181.2 0c37.4 0 70.7 23.6 83.1 58.9l34.3 97.9c2.6 1.5 5.2 3.2 7.6 4.9c-28.3 3.9-54.4 14.6-76.8 30.3L96 224c-26.5 0-48 21.5-48 48l0 80 272.7 0c-.5 5.3-.7 10.6-.7 16c0 10.9 1 21.6 2.9 32L48 400l0 56c0 13.3-10.7 24-24 24s-24-10.7-24-24l0-56 0-48 0-80c0-35.6 19.3-66.6 48.1-83.2zM112 256a32 32 0 1 1 0 64 32 32 0 1 1 0-64zm384-32a144 144 0 1 1 0 288 144 144 0 1 1 0-288zm47.9 63c-4.3-3.7-10.6-4-15.1-.6l-96 72c-4.1 3.1-5.8 8.5-4.2 13.4s6.2 8.2 11.4 8.2l35.6 0-30.1 54.2c-2.8 5-1.7 11.1 2.6 14.9s10.6 4 15.1 .6l96-72c4.1-3.1 5.8-8.5 4.2-13.4s-6.2-8.2-11.4-8.2l-35.6 0 30.1-54.2c2.8-5 1.7-11.1-2.6-14.9z"/></svg>