<svg xmlns="http://www.w3.org/2000/svg" viewBox="0 0 448 512"><!--! Font Awesome Pro 6.6.0 by @fontawesome - https://fontawesome.com License - https://fontawesome.com/license (Commercial License) Copyright 2024 Fonticons, Inc. --><path d="M288 48c8.8 0 16 7.2 16 16l0 160 48 0 0-160c0-35.3-28.7-64-64-64L160 0C124.7 0 96 28.7 96 64l0 160 48 0 0-160c0-8.8 7.2-16 16-16l128 0zM64 152c0-13.3-10.7-24-24-24s-24 10.7-24 24l0 64c0 13.3 10.7 24 24 24s24-10.7 24-24l0-64zm368 0c0-13.3-10.7-24-24-24s-24 10.7-24 24l0 64c0 13.3 10.7 24 24 24s24-10.7 24-24l0-64zM248 400l122.5 0c25.2 0 45.5-20.4 45.5-45.5c0-5.5-1-10.9-2.9-16l-19.2-51.3c-7-18.7-24.9-31.1-44.9-31.1L99.1 256c-20 0-37.9 12.4-44.9 31.1L34.9 338.5C33 343.6 32 349 32 354.5C32 379.6 52.4 400 77.5 400L200 400l0 64-48 0c-13.3 0-24 10.7-24 24s10.7 24 24 24l72 0 72 0c13.3 0 24-10.7 24-24s-10.7-24-24-24l-48 0 0-64zM99.1 304l249.8 0 18 48L224 352 81.1 352l18-48z"/></svg>