<svg xmlns="http://www.w3.org/2000/svg" viewBox="0 0 448 512"><!--! Font Awesome Pro 6.6.0 by @fontawesome - https://fontawesome.com License - https://fontawesome.com/license (Commercial License) Copyright 2024 Fonticons, Inc. --><path d="M400 240L48 240l0 32 352 0 0-32zm48 32c0 26.5-21.5 48-48 48L48 320c-26.5 0-48-21.5-48-48l0-32c0-26.5 21.5-48 48-48l352 0c26.5 0 48 21.5 48 48l0 32zM208 400L48 400l0 32 160 0 0-32zm48 32c0 26.5-21.5 48-48 48L48 480c-26.5 0-48-21.5-48-48l0-32c0-26.5 21.5-48 48-48l160 0c26.5 0 48 21.5 48 48l0 32zm80-320l0-32L48 80l0 32 288 0zm0 48L48 160c-26.5 0-48-21.5-48-48L0 80C0 53.5 21.5 32 48 32l288 0c26.5 0 48 21.5 48 48l0 32c0 26.5-21.5 48-48 48z"/></svg>