<svg xmlns="http://www.w3.org/2000/svg" viewBox="0 0 512 512"><!--! Font Awesome Pro 6.6.0 by @fontawesome - https://fontawesome.com License - https://fontawesome.com/license (Commercial License) Copyright 2024 Fonticons, Inc. --><path d="M176 80l0 112L48 192 48 80l128 0zM48 32C21.5 32 0 53.5 0 80L0 192c0 26.5 21.5 48 48 48l128 0c26.5 0 48-21.5 48-48l0-112c0-26.5-21.5-48-48-48L48 32zM176 320l0 112L48 432l0-112 128 0zM48 272c-26.5 0-48 21.5-48 48L0 432c0 26.5 21.5 48 48 48l128 0c26.5 0 48-21.5 48-48l0-112c0-26.5-21.5-48-48-48L48 272zM304 80l160 0 0 32-160 0 0-32zm-48 0l0 32c0 26.5 21.5 48 48 48l160 0c26.5 0 48-21.5 48-48l0-32c0-26.5-21.5-48-48-48L304 32c-26.5 0-48 21.5-48 48zM464 240l0 32-160 0 0-32 160 0zM304 192c-26.5 0-48 21.5-48 48l0 32c0 26.5 21.5 48 48 48l160 0c26.5 0 48-21.5 48-48l0-32c0-26.5-21.5-48-48-48l-160 0zm0 208l160 0 0 32-160 0 0-32zm-48 0l0 32c0 26.5 21.5 48 48 48l160 0c26.5 0 48-21.5 48-48l0-32c0-26.5-21.5-48-48-48l-160 0c-26.5 0-48 21.5-48 48z"/></svg>