<svg xmlns="http://www.w3.org/2000/svg" viewBox="0 0 512 512"><!--! Font Awesome Pro 6.6.0 by @fontawesome - https://fontawesome.com License - https://fontawesome.com/license (Commercial License) Copyright 2024 Fonticons, Inc. --><path d="M48 56c0-13.3-10.7-24-24-24S0 42.7 0 56L0 408c0 39.8 32.2 72 72 72l416 0c13.3 0 24-10.7 24-24s-10.7-24-24-24L72 432c-13.3 0-24-10.7-24-24L48 56zm272 96c0 13.3 10.7 24 24 24l54.1 0L304 270.1l-79-79c-9.4-9.4-24.6-9.4-33.9 0l-80 80c-9.4 9.4-9.4 24.6 0 33.9s24.6 9.4 33.9 0l63-63 79 79c9.4 9.4 24.6 9.4 33.9 0l111-111 0 54.1c0 13.3 10.7 24 24 24s24-10.7 24-24l0-112c0-13.3-10.7-24-24-24l-112 0c-13.3 0-24 10.7-24 24z"/></svg>