<svg xmlns="http://www.w3.org/2000/svg" viewBox="0 0 512 512"><!--! Font Awesome Pro 6.6.0 by @fontawesome - https://fontawesome.com License - https://fontawesome.com/license (Commercial License) Copyright 2024 Fonticons, Inc. --><path d="M264 32c13.3 0 24 10.7 24 24l0 8 176 0c26.5 0 48 21.5 48 48l0 64c0 26.5-21.5 48-48 48l-176 0 0 8c0 13.3-10.7 24-24 24s-24-10.7-24-24l0-8L48 224c-26.5 0-48-21.5-48-48l0-64C0 85.5 21.5 64 48 64l192 0 0-8c0-13.3 10.7-24 24-24zM160 112l0 64 80 0 0-64-80 0zm128 0l0 64 176 0 0-64-176 0zm-176 0l-64 0 0 64 64 0 0-64zM360 256c13.3 0 24 10.7 24 24l0 8 80 0c26.5 0 48 21.5 48 48l0 64c0 26.5-21.5 48-48 48l-80 0 0 8c0 13.3-10.7 24-24 24s-24-10.7-24-24l0-8L48 448c-26.5 0-48-21.5-48-48l0-64c0-26.5 21.5-48 48-48l288 0 0-8c0-13.3 10.7-24 24-24zM224 336l0 64 112 0 0-64-112 0zm160 0l0 64 80 0 0-64-80 0zm-208 0L48 336l0 64 128 0 0-64z"/></svg>