<svg xmlns="http://www.w3.org/2000/svg" viewBox="0 0 512 512"><!--! Font Awesome Pro 6.6.0 by @fontawesome - https://fontawesome.com License - https://fontawesome.com/license (Commercial License) Copyright 2024 Fonticons, Inc. --><path d="M48 56c0-13.3-10.7-24-24-24S0 42.7 0 56L0 408c0 39.8 32.2 72 72 72l416 0c13.3 0 24-10.7 24-24s-10.7-24-24-24L72 432c-13.3 0-24-10.7-24-24L48 56zm272-8c0-8.8-7.2-16-16-16s-16 7.2-16 16l0 48c-17.7 0-32 14.3-32 32l0 96c0 17.7 14.3 32 32 32l0 48c0 8.8 7.2 16 16 16s16-7.2 16-16l0-48c17.7 0 32-14.3 32-32l0-96c0-17.7-14.3-32-32-32l0-48zm64 176l0 64c0 17.7 14.3 32 32 32l0 48c0 8.8 7.2 16 16 16s16-7.2 16-16l0-48c17.7 0 32-14.3 32-32l0-64c0-17.7-14.3-32-32-32l0-48c0-8.8-7.2-16-16-16s-16 7.2-16 16l0 48c-17.7 0-32 14.3-32 32zM160 128c-17.7 0-32 14.3-32 32l0 128c0 17.7 14.3 32 32 32l0 48c0 8.8 7.2 16 16 16s16-7.2 16-16l0-48c17.7 0 32-14.3 32-32l0-128c0-17.7-14.3-32-32-32l0-48c0-8.8-7.2-16-16-16s-16 7.2-16 16l0 48z"/></svg>