<svg xmlns="http://www.w3.org/2000/svg" viewBox="0 0 448 512"><!--! Font Awesome Pro 6.6.0 by @fontawesome - https://fontawesome.com License - https://fontawesome.com/license (Commercial License) Copyright 2024 Fonticons, Inc. --><path d="M154 90.5c13.9-11.4 27.8-22.7 41.1-34.8c7.6-6.9 12.7-12.3 15.5-16.6c3-4.5 8-7.1 13.3-7.1s10.3 2.7 13.3 7.1c2.9 4.3 7.9 9.7 15.5 16.6c13.3 12.1 27.2 23.4 41.1 34.8c19.6 16.1 39.3 32.1 57.3 50.2C400.8 190.2 448 258 448 352c0 70.7-57.3 128-128 128l-192 0C57.3 480 0 422.7 0 352c0-94 47.2-161.8 96.7-211.3c18.1-18.1 37.7-34.1 57.3-50.2zM393.3 384L54.7 384C67 412.3 95.2 432 128 432l192 0c32.8 0 61-19.7 73.3-48zm-76-209.4c-13.6-13.6-28.6-26.3-45.2-39.9c-2.7-2.2-5.5-4.5-8.2-6.8c0 0 0 0 0 0c-12.8-10.5-26.6-21.7-39.9-33.6c-13.3 11.9-27.1 23.1-39.9 33.6c0 0 0 0 0 0c-2.8 2.3-5.6 4.5-8.2 6.8c-16.6 13.6-31.6 26.3-45.2 39.9C88.9 216.4 53.4 268 48.6 336l350.9 0c-4.8-68-40.3-119.6-82.1-161.4z"/></svg>