<svg xmlns="http://www.w3.org/2000/svg" viewBox="0 0 640 512"><!--! Font Awesome Pro 6.6.0 by @fontawesome - https://fontawesome.com License - https://fontawesome.com/license (Commercial License) Copyright 2024 Fonticons, Inc. --><path d="M344 24c0-13.3-10.7-24-24-24s-24 10.7-24 24l0 24-32 0c-13.3 0-24 10.7-24 24s10.7 24 24 24l32 0 0 26.9L192.9 189.7c-20.5 13.3-32.9 36-32.9 60.4L160 464l-88 0c-13.3 0-24-10.7-24-24l0-69.9c0-8.1 4.1-15.7 11-20.2l69-44.7 0-57.2L32.9 309.7C12.4 322.9 0 345.7 0 370.1L0 440c0 39.8 32.2 72 72 72l120 0s0 0 0 0l256 0 8 0 112 0c39.8 0 72-32.2 72-72l0-69.9c0-24.4-12.4-47.2-32.9-60.4L512 248.1l0 57.2L581 350c6.8 4.4 11 12 11 20.1l0 69.9c0 13.3-10.7 24-24 24l-88 0 0-213.9c0-24.4-12.4-47.2-32.9-60.4L344 122.9 344 96l32 0c13.3 0 24-10.7 24-24s-10.7-24-24-24l-32 0 0-24zM320 164.6L421 230c6.8 4.4 11 12 11 20.1L432 464l-64 0 0-96c0-26.5-21.5-48-48-48s-48 21.5-48 48l0 96-64 0 0-213.9c0-8.1 4.1-15.7 11-20.1l101-65.4z"/></svg>