<svg xmlns="http://www.w3.org/2000/svg" viewBox="0 0 640 512"><!--! Font Awesome Pro 6.6.0 by @fontawesome - https://fontawesome.com License - https://fontawesome.com/license (Commercial License) Copyright 2024 Fonticons, Inc. --><path d="M192 288c0 40.8 10.9 79 30 112c-96.3-1.1-174-79.5-174-176c0-97.2 78.8-176 176-176c38.9 0 74.8 12.6 104 34C248 116.2 192 195.5 192 288zm32 160c11.2 0 22.1-.8 32.8-2.4c40.6 41 96.9 66.4 159.2 66.4c123.7 0 224-100.3 224-224S539.7 64 416 64c-11.2 0-22.1 .8-32.8 2.4C342.6 25.4 286.3 0 224 0C100.3 0 0 100.3 0 224S100.3 448 224 448zm192 16c-38.9 0-74.8-12.6-104-34C392 395.8 448 316.5 448 224c0-40.8-10.9-79-30-112c96.3 1.1 174 79.5 174 176c0 97.2-78.8 176-176 176z"/></svg>