<svg xmlns="http://www.w3.org/2000/svg" viewBox="0 0 512 512"><!--! Font Awesome Pro 6.6.0 by @fontawesome - https://fontawesome.com License - https://fontawesome.com/license (Commercial License) Copyright 2024 Fonticons, Inc. --><path d="M368 80a32 32 0 1 1 64 0 32 32 0 1 1 -64 0zm-29.9 50.6c6.8 8.3 15.2 15.2 24.7 20.2L326 352.6c-11.5 1.4-22.2 5.3-31.7 11.1L153.3 240.2c4.3-9.9 6.7-20.7 6.7-32.2c0-2-.1-4.1-.2-6.1l178.3-71.3zM410 159.4c39.5-4.9 70-38.6 70-79.4c0-44.2-35.8-80-80-80s-80 35.8-80 80c0 2 .1 4.1 .2 6.1L141.9 157.4C127.3 139.4 105 128 80 128c-44.2 0-80 35.8-80 80s35.8 80 80 80c15.3 0 29.5-4.3 41.6-11.7L262.7 399.8c-4.3 9.9-6.7 20.7-6.7 32.2c0 44.2 35.8 80 80 80s80-35.8 80-80c0-30.7-17.3-57.4-42.7-70.8L410 159.4zM304 432a32 32 0 1 1 64 0 32 32 0 1 1 -64 0zM80 176a32 32 0 1 1 0 64 32 32 0 1 1 0-64z"/></svg>