<svg xmlns="http://www.w3.org/2000/svg" viewBox="0 0 512 512"><!--! Font Awesome Pro 6.6.0 by @fontawesome - https://fontawesome.com License - https://fontawesome.com/license (Commercial License) Copyright 2024 Fonticons, Inc. --><path d="M464 256A208 208 0 1 0 48 256a208 208 0 1 0 416 0zM0 256a256 256 0 1 1 512 0A256 256 0 1 1 0 256zM267.3 100.7l96 96c4.6 4.6 5.9 11.5 3.5 17.4s-8.3 9.9-14.8 9.9l-192 0c-6.5 0-12.3-3.9-14.8-9.9s-1.1-12.9 3.5-17.4l96-96c6.2-6.2 16.4-6.2 22.6 0zm0 310.6c-6.2 6.2-16.4 6.2-22.6 0l-96-96c-4.6-4.6-5.9-11.5-3.5-17.4s8.3-9.9 14.8-9.9l192 0c6.5 0 12.3 3.9 14.8 9.9s1.1 12.9-3.5 17.4l-96 96zM313.4 320l-114.7 0L256 377.4 313.4 320z"/></svg>