<svg xmlns="http://www.w3.org/2000/svg" viewBox="0 0 512 512"><!--! Font Awesome Pro 6.6.0 by @fontawesome - https://fontawesome.com License - https://fontawesome.com/license (Commercial License) Copyright 2024 Fonticons, Inc. --><path d="M256 48a208 208 0 1 0 0 416 208 208 0 1 0 0-416zm0 464A256 256 0 1 1 256 0a256 256 0 1 1 0 512zm64-144l-152 0c-13.3 0-24-10.7-24-24l0-160c0-13.3 10.7-24 24-24s24 10.7 24 24l0 102.1L327 151c9.4-9.4 24.6-9.4 33.9 0s9.4 24.6 0 33.9l-135 135 94.1 0c13.3 0 24 10.7 24 24s-10.7 24-24 24z"/></svg>