<svg xmlns="http://www.w3.org/2000/svg" viewBox="0 0 512 512"><!--! Font Awesome Pro 6.6.0 by @fontawesome - https://fontawesome.com License - https://fontawesome.com/license (Commercial License) Copyright 2024 Fonticons, Inc. --><path d="M7 391c-4.5 4.5-7 10.6-7 17s2.5 12.5 7 17c115.6 115.6 302.6 116 418.3 .3S540.5 122.6 425 7c-9.4-9.4-24.6-9.4-33.9 0L7 391zm384.3 .3c-91.1 91.1-235.2 96.2-332.6 15.8l22.4-22.4C118.1 414.3 165 432 216 432c119.3 0 216-96.7 216-216c0-51-17.7-97.9-47.2-134.8l22.4-22.4c80.4 97.4 75.3 241.5-15.8 332.6zm-40.8-276c13.3 17.8 23.2 38.3 28.7 60.6l-89.3 0 60.6-60.6zM272 208l111.8 0c.1 2.7 .2 5.3 .2 8c0 40.6-14.4 77.9-38.4 106.9l-82.4-82.4c5.9-10 8.9-21.3 8.9-32.5zm-31.5 55.1l82.4 82.4C293.9 369.6 256.6 384 216 384c-2.7 0-5.3-.1-8-.2L208 272c11.3 0 22.5-3 32.5-8.9zM115.4 350.6L176 289.9l0 89.3c-22.3-5.4-42.8-15.3-60.6-28.7z"/></svg>