<svg xmlns="http://www.w3.org/2000/svg" viewBox="0 0 384 512"><!--! Font Awesome Pro 6.6.0 by @fontawesome - https://fontawesome.com License - https://fontawesome.com/license (Commercial License) Copyright 2024 Fonticons, Inc. --><path d="M320 64l-40 0-9.6 0C263 27.5 230.7 0 192 0s-71 27.5-78.4 64L104 64 64 64C28.7 64 0 92.7 0 128L0 448c0 35.3 28.7 64 64 64l256 0c35.3 0 64-28.7 64-64l0-320c0-35.3-28.7-64-64-64zM80 112l0 24c0 13.3 10.7 24 24 24l88 0 88 0c13.3 0 24-10.7 24-24l0-24 16 0c8.8 0 16 7.2 16 16l0 320c0 8.8-7.2 16-16 16L64 464c-8.8 0-16-7.2-16-16l0-320c0-8.8 7.2-16 16-16l16 0zm88-32a24 24 0 1 1 48 0 24 24 0 1 1 -48 0zm3.3 155.3c6.2-6.2 6.2-16.4 0-22.6s-16.4-6.2-22.6 0L112 249.4 99.3 236.7c-6.2-6.2-16.4-6.2-22.6 0s-6.2 16.4 0 22.6l24 24c6.2 6.2 16.4 6.2 22.6 0l48-48zM192 272c0 8.8 7.2 16 16 16l64 0c8.8 0 16-7.2 16-16s-7.2-16-16-16l-64 0c-8.8 0-16 7.2-16 16zm-32 96c0 8.8 7.2 16 16 16l96 0c8.8 0 16-7.2 16-16s-7.2-16-16-16l-96 0c-8.8 0-16 7.2-16 16zm-48 24a24 24 0 1 0 0-48 24 24 0 1 0 0 48z"/></svg>