<svg xmlns="http://www.w3.org/2000/svg" viewBox="0 0 384 512"><!--! Font Awesome Pro 6.6.0 by @fontawesome - https://fontawesome.com License - https://fontawesome.com/license (Commercial License) Copyright 2024 Fonticons, Inc. --><path d="M320 64l-40 0-9.6 0C263 27.5 230.7 0 192 0s-71 27.5-78.4 64L104 64 64 64C28.7 64 0 92.7 0 128L0 448c0 35.3 28.7 64 64 64l256 0c35.3 0 64-28.7 64-64l0-320c0-35.3-28.7-64-64-64zM80 112l0 24c0 13.3 10.7 24 24 24l88 0 88 0c13.3 0 24-10.7 24-24l0-24 16 0c8.8 0 16 7.2 16 16l0 320c0 8.8-7.2 16-16 16L64 464c-8.8 0-16-7.2-16-16l0-320c0-8.8 7.2-16 16-16l16 0zm88-32a24 24 0 1 1 48 0 24 24 0 1 1 -48 0zm-8 160l0 48-48 0c-8.8 0-16 7.2-16 16l0 32c0 8.8 7.2 16 16 16l48 0 0 48c0 8.8 7.2 16 16 16l32 0c8.8 0 16-7.2 16-16l0-48 48 0c8.8 0 16-7.2 16-16l0-32c0-8.8-7.2-16-16-16l-48 0 0-48c0-8.8-7.2-16-16-16l-32 0c-8.8 0-16 7.2-16 16z"/></svg>