<svg xmlns="http://www.w3.org/2000/svg" viewBox="0 0 384 512"><!--! Font Awesome Pro 6.6.0 by @fontawesome - https://fontawesome.com License - https://fontawesome.com/license (Commercial License) Copyright 2024 Fonticons, Inc. --><path d="M320 64l-40 0-9.6 0C263 27.5 230.7 0 192 0s-71 27.5-78.4 64L104 64 64 64C28.7 64 0 92.7 0 128L0 448c0 35.3 28.7 64 64 64l256 0c35.3 0 64-28.7 64-64l0-320c0-35.3-28.7-64-64-64zM80 112l0 24c0 13.3 10.7 24 24 24l88 0 88 0c13.3 0 24-10.7 24-24l0-24 16 0c8.8 0 16 7.2 16 16l0 320c0 8.8-7.2 16-16 16L64 464c-8.8 0-16-7.2-16-16l0-320c0-8.8 7.2-16 16-16l16 0zm88-32a24 24 0 1 1 48 0 24 24 0 1 1 -48 0zM105.8 229.3l-.4 1.2c-4.4 12.5 2.1 26.2 14.6 30.6s26.2-2.1 30.6-14.6l.4-1.2c1.1-3.2 4.2-5.3 7.5-5.3l58.3 0c8.4 0 15.1 6.8 15.1 15.1c0 5.4-2.9 10.4-7.6 13.1l-44.3 25.4c-7.5 4.3-12.1 12.2-12.1 20.8l0 13.5c0 13.3 10.7 24 24 24c13.1 0 23.8-10.5 24-23.6l32.3-18.5c19.6-11.3 31.7-32.2 31.7-54.8c0-34.9-28.3-63.1-63.1-63.1l-58.3 0c-23.7 0-44.8 14.9-52.8 37.3zM224 416a32 32 0 1 0 -64 0 32 32 0 1 0 64 0z"/></svg>