<svg xmlns="http://www.w3.org/2000/svg" viewBox="0 0 640 512"><!--! Font Awesome Pro 6.6.0 by @fontawesome - https://fontawesome.com License - https://fontawesome.com/license (Commercial License) Copyright 2024 Fonticons, Inc. --><path d="M211.4 91.3C221 38.4 267 0 320.8 0C382.2 0 432 49.8 432 111.2l0 2.9c0 36.5-17.5 70.8-47 92.3l-23.2 16.9L611 391.7c18.1 12.2 29 32.7 29 54.5c0 36.3-29.5 65.8-65.8 65.8L65.8 512C29.5 512 0 482.5 0 446.2c0-21.9 10.9-42.3 29-54.5L306.2 204.3l50.6-36.8c17.1-12.4 27.2-32.3 27.2-53.5l0-2.9C384 76.3 355.7 48 320.8 48c-30.6 0-56.7 21.8-62.2 51.9l-3 16.4c-2.4 13-14.9 21.7-27.9 19.3s-21.7-14.9-19.3-27.9l3-16.4zM320 253L55.8 431.5c-4.9 3.3-7.8 8.8-7.8 14.7C48 456 56 464 65.8 464l508.4 0c9.8 0 17.8-8 17.8-17.8c0-5.9-2.9-11.4-7.8-14.7L320 253z"/></svg>