<svg xmlns="http://www.w3.org/2000/svg" viewBox="0 0 640 512"><!--! Font Awesome Pro 6.6.0 by @fontawesome - https://fontawesome.com License - https://fontawesome.com/license (Commercial License) Copyright 2024 Fonticons, Inc. --><path d="M294.2 1.2c5.1 2.1 8.7 6.7 9.6 12.1l10.4 62.4c-23.3 10.8-42.9 28.4-56 50.3c-14.6-9-31.8-14.1-50.2-14.1c-53 0-96 43-96 96c0 35.5 19.3 66.6 48 83.2c.8 31.8 13.2 60.7 33.1 82.7l-56 39.2c-4.5 3.1-10.3 3.8-15.4 1.6s-8.7-6.7-9.6-12.1L98.1 317.9 13.4 303.8c-5.4-.9-10-4.5-12.1-9.6s-1.5-10.9 1.6-15.4L52.5 208 2.9 137.2c-3.2-4.5-3.8-10.3-1.6-15.4s6.7-8.7 12.1-9.6L98.1 98.1l14.1-84.7c.9-5.4 4.5-10 9.6-12.1s10.9-1.5 15.4 1.6L208 52.5 278.8 2.9c4.5-3.2 10.3-3.8 15.4-1.6zM208 144c13.8 0 26.7 4.4 37.1 11.9c-1.2 4.1-2.2 8.3-3 12.6c-37.9 14.6-67.2 46.6-77.8 86.4C151.8 243.1 144 226.5 144 208c0-35.3 28.7-64 64-64zm112.1 48c0 .8 0 1.7-.1 2.5l-2 23.8c-1.1 13.2-12.7 23-25.9 21.9c-1.3-.1-2.6-.2-4-.2c-26.5 0-48 21.5-48 48c0 20.6 12.9 38.1 31.1 44.9c-12.6 11.7-17.9 29.3-14 46c-37.9-12.9-65.1-48.7-65.1-90.9c0-47.5 34.5-86.9 79.8-94.6l.2-2.5c.6-52.5 43.4-94.8 96-94.8c33 0 62 16.6 79.3 41.9c12.2-6.3 26-9.9 40.6-9.9c43 0 78.8 30.9 86.5 71.7c1 2.6 1.5 5.4 1.5 8.3l0 5.3c0 .9 0 1.8 0 2.7s0 1.8 0 2.7l0 6.9c36.5 7.4 64 39.7 64 78.4c0 44.2-35.8 80-80 80c-.9 0-1.8 0-2.7 0l-16.1 0c3.5-10.1 3.7-21.3 0-31.8c-2.1-6.1-5.4-11.6-9.6-16.2l26.1 0c.3 0 .6 0 1 0c.4 0 .9 0 1.3 0c17.7 0 32-14.3 32-32s-14.3-32-32-32c-1.6 0-3.1 .1-4.6 .3c-6.9 1-13.9-1.1-19.1-5.6s-8.3-11.2-8.3-18.1l0-30.2c0-.3 0-.6 0-.9c0-.5 0-1 0-1.5s0-1 0-1.5c0-.3 0-.6 0-.9l0-1.1c-.1-.6-.2-1.1-.3-1.7c-2.5-19.6-19.3-34.8-39.7-34.8c-12.6 0-23.8 5.8-31.1 14.9c-.6 .7-1.1 1.3-1.8 1.9c-6.1 1.1-12 3.5-17.4 7c-1.6 0-3.3-.2-4.9-.6c-8.9-2.1-15.9-9.1-18-18c-4.9-21.3-24-37.2-46.8-37.2c-26.5 0-48 21.5-48 48zm154 35.6c5.8 4.7 7.6 12.9 4.2 19.6L425.9 352l70.1 0c6.8 0 12.9 4.3 15.1 10.7s.2 13.5-5.1 17.8l-160 128c-5.9 4.7-14.2 4.7-20.1-.1s-7.6-12.9-4.3-19.6L374.1 384 304 384c-6.8 0-12.8-4.3-15.1-10.7s-.2-13.5 5.1-17.8l160-128c5.9-4.7 14.2-4.7 20.1 .1z"/></svg>