<svg xmlns="http://www.w3.org/2000/svg" viewBox="0 0 576 512"><!--! Font Awesome Pro 6.6.0 by @fontawesome - https://fontawesome.com License - https://fontawesome.com/license (Commercial License) Copyright 2024 Fonticons, Inc. --><path d="M353.7 107.6c35.4 17.6 60.2 53.3 62.1 95.1c23.2 11 42 29.7 53.1 52.7c4 .4 8.1 .6 12.3 .6c34.9 0 66.7-13.8 89.9-36.1c5.1-4.9 6.4-12.5 3.2-18.7s-10.1-9.7-17-8.6c-4.9 .8-10 1.3-15.2 1.3c-49 0-88.4-39.3-88.4-87.4c0-32.6 18-61.1 44.9-76.1c6.1-3.4 9.3-10.5 7.8-17.4s-7.3-12-14.3-12.6c-3.6-.3-7.3-.5-10.9-.5C417 0 363.5 46.5 353.7 107.6zM85.4 420.1c-11-7.4-25.9-4.4-33.3 6.7l-32 48c-7.4 11-4.4 25.9 6.7 33.3s25.9 4.4 33.3-6.7l32-48c7.4-11 4.4-25.9-6.7-33.3zm96 0c-11-7.4-25.9-4.4-33.3 6.7l-32 48c-7.4 11-4.4 25.9 6.7 33.3s25.9 4.4 33.3-6.7l32-48c7.4-11 4.4-25.9-6.7-33.3zm96 0c-11-7.4-25.9-4.4-33.3 6.7l-32 48c-7.4 11-4.4 25.9 6.7 33.3s25.9 4.4 33.3-6.7l32-48c7.4-11 4.4-25.9-6.7-33.3zm96 0c-11-7.4-25.9-4.4-33.3 6.7l-32 48c-7.4 11-4.4 25.9 6.7 33.3s25.9 4.4 33.3-6.7l32-48c7.4-11 4.4-25.9-6.7-33.3zM128.1 192c0-26.5 21.5-48 48-48c22.8 0 41.9 15.9 46.8 37.2c2.1 8.9 9 15.9 18 18s18.3-1.2 24.1-8.3c7.4-9.1 18.6-14.9 31.1-14.9c20.3 0 37.2 15.2 39.7 34.8c.1 .6 .2 1.2 .3 1.7l0 1.1c0 .3 0 .6 0 .9c0 .5 0 1 0 1.5s0 1 0 1.5c0 .3 0 .6 0 .9l0 30.2c0 7 3 13.6 8.3 18.1s12.2 6.6 19.1 5.6c1.5-.2 3-.3 4.6-.3c17.7 0 32 14.3 32 32s-14.3 32-32 32c-.4 0-.9 0-1.3 0c-.2 0-.4 0-.6 0c-.1 0-.2 0-.4 0l-266.9 0c-.3 0-.6 0-.9 0c-.6 0-1.2 0-1.9 0c-26.5 0-48-21.5-48-48s21.5-48 48-48c1.4 0 2.7 .1 4 .2c13.2 1.1 24.8-8.7 25.9-21.9l2-23.8c.1-.8 .1-1.6 .1-2.5zm48-96c-52.6 0-95.4 42.4-96 94.8l-.2 2.5C34.6 201 .1 240.5 .1 288c0 53 43 96 96 96c1.1 0 2.2 0 3.2-.1l266 0c.9 0 1.8 0 2.7 0c44.2 0 80-35.8 80-80c0-38.7-27.5-71-64-78.4l0-6.9c0-.9 0-1.8 0-2.7s0-1.8 0-2.7l0-5.3c0-2.9-.5-5.7-1.5-8.3c-7.7-40.8-43.4-71.7-86.5-71.7c-14.7 0-28.5 3.6-40.6 9.9C238.1 112.6 209.1 96 176.1 96z"/></svg>