<svg xmlns="http://www.w3.org/2000/svg" viewBox="0 0 576 512"><!--! Font Awesome Pro 6.6.0 by @fontawesome - https://fontawesome.com License - https://fontawesome.com/license (Commercial License) Copyright 2024 Fonticons, Inc. --><path d="M216.6 105.4c9.6-9.2 9.9-24.3 .8-33.9s-24.3-9.9-33.9-.8l-176 168C2.7 243.2 0 249.4 0 256s2.7 12.8 7.4 17.4l176 168c9.6 9.2 24.8 8.8 33.9-.8s8.8-24.8-.8-33.9L58.8 256 216.6 105.4zm142.9 0L517.2 256 359.4 406.6c-9.6 9.2-9.9 24.3-.8 33.9s24.3 9.9 33.9 .8l176-168c4.7-4.5 7.4-10.8 7.4-17.4s-2.7-12.8-7.4-17.4l-176-168c-9.6-9.2-24.8-8.8-33.9 .8s-8.8 24.8 .8 33.9z"/></svg>