<svg xmlns="http://www.w3.org/2000/svg" viewBox="0 0 512 512"><!--! Font Awesome Pro 6.6.0 by @fontawesome - https://fontawesome.com License - https://fontawesome.com/license (Commercial License) Copyright 2024 Fonticons, Inc. --><path d="M320 488c0 9.5-5.6 18.1-14.2 21.9s-18.8 2.3-25.8-4.1l-80-72c-5.1-4.6-7.9-11-7.9-17.8s2.9-13.3 7.9-17.8l80-72c7-6.3 17.2-7.9 25.8-4.1s14.2 12.4 14.2 21.9l0 48 16 0c39.8 0 72-32.2 72-72l0-163.7c-32.5-10.2-56-40.5-56-76.3c0-44.2 35.8-80 80-80s80 35.8 80 80c0 35.8-23.5 66.1-56 76.3L456 320c0 66.3-53.7 120-120 120l-16 0 0 48zM464 80a32 32 0 1 0 -64 0 32 32 0 1 0 64 0zM192 24c0-9.5 5.6-18.1 14.2-21.9s18.8-2.3 25.8 4.1l80 72c5.1 4.6 7.9 11 7.9 17.8s-2.9 13.3-7.9 17.8l-80 72c-7 6.3-17.2 7.9-25.8 4.1s-14.2-12.4-14.2-21.9l0-48-16 0c-39.8 0-72 32.2-72 72l0 163.7c32.5 10.2 56 40.5 56 76.3c0 44.2-35.8 80-80 80s-80-35.8-80-80c0-35.8 23.5-66.1 56-76.3L56 192c0-66.3 53.7-120 120-120l16 0 0-48zM48 432a32 32 0 1 0 64 0 32 32 0 1 0 -64 0z"/></svg>