<svg xmlns="http://www.w3.org/2000/svg" viewBox="0 0 640 512"><!--! Font Awesome Pro 6.6.0 by @fontawesome - https://fontawesome.com License - https://fontawesome.com/license (Commercial License) Copyright 2024 Fonticons, Inc. --><path d="M399.1 1.1c-12.7-3.9-26.1 3.1-30 15.8l-144 464c-3.9 12.7 3.1 26.1 15.8 30s26.1-3.1 30-15.8l144-464c3.9-12.7-3.1-26.1-15.8-30zm71.4 118.5c-9.1 9.7-8.6 24.9 1.1 33.9L580.9 256 471.6 358.5c-9.7 9.1-10.2 24.3-1.1 33.9s24.3 10.2 33.9 1.1l128-120c4.8-4.5 7.6-10.9 7.6-17.5s-2.7-13-7.6-17.5l-128-120c-9.7-9.1-24.9-8.6-33.9 1.1zm-301 0c-9.1-9.7-24.3-10.2-33.9-1.1l-128 120C2.7 243 0 249.4 0 256s2.7 13 7.6 17.5l128 120c9.7 9.1 24.9 8.6 33.9-1.1s8.6-24.9-1.1-33.9L59.1 256 168.4 153.5c9.7-9.1 10.2-24.3 1.1-33.9z"/></svg>