<svg xmlns="http://www.w3.org/2000/svg" viewBox="0 0 384 512"><!--! Font Awesome Pro 6.6.0 by @fontawesome - https://fontawesome.com License - https://fontawesome.com/license (Commercial License) Copyright 2024 Fonticons, Inc. --><path d="M255.3 29.6c3.1-12.9-4.8-25.9-17.7-29s-25.9 4.8-29 17.7l-13.5 56C103.6 88.3 32 163.2 32 256c0 63 33 117.8 82.9 150.8L96.7 482.4c-3.1 12.9 4.8 25.9 17.7 29s25.9-4.8 29-17.7L159 428.7c9.3 3.2 18.9 5.8 28.8 7.7l-11.1 46c-3.1 12.9 4.8 25.9 17.7 29s25.9-4.8 29-17.7l13-53.9c39.3-2 75.7-15.1 105.5-36.1c10.8-7.7 13.4-22.6 5.7-33.5s-22.6-13.4-33.5-5.7c-18.8 13.3-41.3 22.5-65.9 26l59.6-247c2.1 1.3 4.2 2.7 6.3 4.2c10.8 7.7 25.8 5.1 33.5-5.7s5.1-25.8-5.7-33.5c-7.1-5-14.5-9.5-22.3-13.6l15.7-65.2c3.1-12.9-4.8-25.9-17.7-29s-25.9 4.8-29 17.7L274.3 77.8c-9.6-2.3-19.4-4-29.4-4.9l10.4-43.2zm-72.7 96.4l-55.5 230C98 331 80 295.1 80 256c0-60.1 42.5-112.6 102.7-129.9zM170.3 381.8l63.2-261.6c10.2 .5 20.1 1.9 29.6 4.2L199 389.7c-10-1.7-19.6-4.4-28.7-7.9z"/></svg>