<svg xmlns="http://www.w3.org/2000/svg" viewBox="0 0 512 512"><!--! Font Awesome Pro 6.6.0 by @fontawesome - https://fontawesome.com License - https://fontawesome.com/license (Commercial License) Copyright 2024 Fonticons, Inc. --><path d="M168.2 384.9c-15-5.4-31.7-3.1-44.6 6.4c-8.2 6-22.3 14.8-39.4 22.7c5.6-14.7 9.9-31.3 11.3-49.4c1-12.9-3.3-25.7-11.8-35.5C60.4 302.8 48 272 48 240c0-79.5 83.3-160 208-160s208 80.5 208 160s-83.3 160-208 160c-31.6 0-61.3-5.5-87.8-15.1zM26.3 423.8c-1.6 2.7-3.3 5.4-5.1 8.1l-.3 .5c-1.6 2.3-3.2 4.6-4.8 6.9c-3.5 4.7-7.3 9.3-11.3 13.5c-4.6 4.6-5.9 11.4-3.4 17.4c2.5 6 8.3 9.9 14.8 9.9c5.1 0 10.2-.3 15.3-.8l.7-.1c4.4-.5 8.8-1.1 13.2-1.9c.8-.1 1.6-.3 2.4-.5c17.8-3.5 34.9-9.5 50.1-16.1c22.9-10 42.4-21.9 54.3-30.6c31.8 11.5 67 17.9 104.1 17.9c141.4 0 256-93.1 256-208S397.4 32 256 32S0 125.1 0 240c0 45.1 17.7 86.8 47.7 120.9c-1.9 24.5-11.4 46.3-21.4 62.9zM276 136c0-11-9-20-20-20s-20 9-20 20l0 14c-7.6 1.7-15.2 4.4-22.2 8.5c-13.9 8.3-25.9 22.8-25.8 43.9c.1 20.3 12 33.1 24.7 40.7c11 6.6 24.7 10.8 35.6 14l1.7 .5c12.6 3.8 21.8 6.8 28 10.7c5.1 3.2 5.8 5.4 5.9 8.2c.1 5-1.8 8-5.9 10.5c-5 3.1-12.9 5-21.4 4.7c-11.1-.4-21.5-3.9-35.1-8.5c0 0 0 0 0 0c-2.3-.8-4.7-1.6-7.2-2.4c-10.5-3.5-21.8 2.2-25.3 12.6s2.2 21.8 12.6 25.3c1.9 .6 4 1.3 6.1 2.1c0 0 0 0 0 0s0 0 0 0c8.3 2.9 17.9 6.2 28.2 8.4l0 14.6c0 11 9 20 20 20s20-9 20-20l0-13.8c8-1.7 16-4.5 23.2-9c14.3-8.9 25.1-24.1 24.8-45c-.3-20.3-11.7-33.4-24.6-41.6c-11.5-7.2-25.9-11.6-37.1-15l-.7-.2c-12.8-3.9-21.9-6.7-28.3-10.5c-5.2-3.1-5.3-4.9-5.3-6.7c0-3.7 1.4-6.5 6.2-9.3c5.4-3.2 13.6-5.1 21.5-5c9.6 .1 20.2 2.2 31.2 5.2c10.7 2.8 21.6-3.5 24.5-14.2s-3.5-21.6-14.2-24.5c-6.5-1.7-13.7-3.4-21.1-4.7l0-13.9z"/></svg>