<svg xmlns="http://www.w3.org/2000/svg" viewBox="0 0 512 512"><!--! Font Awesome Pro 6.6.0 by @fontawesome - https://fontawesome.com License - https://fontawesome.com/license (Commercial License) Copyright 2024 Fonticons, Inc. --><path d="M56 272c-4.4 0-8 3.6-8 8l0 64 416 0 0-64c0-4.4-3.6-8-8-8L56 272zM48 392l0 64c0 4.4 3.6 8 8 8l400 0c4.4 0 8-3.6 8-8l0-64L48 392zM0 280c0-30.9 25.1-56 56-56l400 0c30.9 0 56 25.1 56 56l0 176c0 30.9-25.1 56-56 56L56 512c-30.9 0-56-25.1-56-56L0 280zm400 24a16 16 0 1 1 32 0 16 16 0 1 1 -32 0zm16 112a16 16 0 1 1 0 32 16 16 0 1 1 0-32zM80 304a16 16 0 1 1 32 0 16 16 0 1 1 -32 0zM96 416a16 16 0 1 1 0 32 16 16 0 1 1 0-32z"/></svg>