<svg xmlns="http://www.w3.org/2000/svg" viewBox="0 0 576 512"><!--! Font Awesome Pro 6.6.0 by @fontawesome - https://fontawesome.com License - https://fontawesome.com/license (Commercial License) Copyright 2024 Fonticons, Inc. --><path d="M288 64a32 32 0 1 0 0-64 32 32 0 1 0 0 64zM271 271l-77.4 77.4c-27.8-43.4-22.8-101.7 15.1-139.6c43.7-43.7 114.7-43.7 158.4 0s43.7 114.7 0 158.4c-37.9 37.9-96.2 43-139.6 15.1L305 305c9.4-9.4 9.4-24.6 0-33.9s-24.6-9.4-33.9 0zM174.9 401.1A160 160 0 1 0 401.1 174.9 160 160 0 1 0 174.9 401.1zM576 288a32 32 0 1 0 -64 0 32 32 0 1 0 64 0zM32 320a32 32 0 1 0 0-64 32 32 0 1 0 0 64zM128 96A32 32 0 1 0 64 96a32 32 0 1 0 64 0zm352 32a32 32 0 1 0 0-64 32 32 0 1 0 0 64zM128 480a32 32 0 1 0 -64 0 32 32 0 1 0 64 0zm352 32a32 32 0 1 0 0-64 32 32 0 1 0 0 64z"/></svg>