<svg xmlns="http://www.w3.org/2000/svg" viewBox="0 0 512 512"><!--! Font Awesome Pro 6.6.0 by @fontawesome - https://fontawesome.com License - https://fontawesome.com/license (Commercial License) Copyright 2024 Fonticons, Inc. --><path d="M51.3 256L256 51.3 460.7 256 256 460.7 51.3 256zm233-244.3c-15.6-15.6-40.9-15.6-56.6 0l-216 216c-15.6 15.6-15.6 40.9 0 56.6l216 216c15.6 15.6 40.9 15.6 56.6 0l216-216c15.6-15.6 15.6-40.9 0-56.6l-216-216zM256 128c-13.3 0-24 10.7-24 24l0 112c0 13.3 10.7 24 24 24s24-10.7 24-24l0-112c0-13.3-10.7-24-24-24zm32 224a32 32 0 1 0 -64 0 32 32 0 1 0 64 0z"/></svg>