<svg xmlns="http://www.w3.org/2000/svg" viewBox="0 0 512 512"><!--! Font Awesome Pro 6.6.0 by @fontawesome - https://fontawesome.com License - https://fontawesome.com/license (Commercial License) Copyright 2024 Fonticons, Inc. --><path d="M256 0c7.3 0 14.1 3.3 18.7 8.9l232 288c4.1 5.1 5.9 11.5 5.1 18s-4.1 12.3-9.3 16.2l-232 176c-8.6 6.5-20.4 6.5-29 0l-232-176c-5.2-3.9-8.5-9.8-9.3-16.2s1.1-12.9 5.1-18l232-288C241.9 3.3 248.7 0 256 0zM58.2 307.8L232 439.7l0-347.6L58.2 307.8zM280 92.1l0 347.6L453.8 307.8 280 92.1z"/></svg>