<svg xmlns="http://www.w3.org/2000/svg" viewBox="0 0 512 512"><!--! Font Awesome Pro 6.6.0 by @fontawesome - https://fontawesome.com License - https://fontawesome.com/license (Commercial License) Copyright 2024 Fonticons, Inc. --><path d="M48 289.9c7.7 5 14.4 11.5 19.5 19.2c9.4 13 22 23.4 36.5 30.2c14.7 6.8 30.8 9.7 46.9 8.4l.6 0 .6 0c17.7-.2 35.3 3.3 51.7 10.1l.1 0c16.4 7 34.1 10.5 51.9 10.3l.3 0s0 0 0 0c17.8 .2 35.5-3.3 51.9-10.3l.1 0s0 0 0 0c16.4-6.8 34-10.2 51.7-10.1l.6 0 .6 0c16.1 1.3 32.2-1.5 46.9-8.3c14.6-6.7 27.1-17.1 36.5-30.1c5.1-7.8 11.8-14.3 19.5-19.3l0 14c0 21.7-14.2 48.5-52.4 72.4C374 399.9 319.1 416 256 416s-118-16.1-155.6-39.6C62.2 352.5 48 325.7 48 304l0-14.1zM256 48C114.6 48 0 119.6 0 208l0 96c0 88.4 114.6 160 256 160s256-71.6 256-160l0-96c0-88.4-114.6-160-256-160zm64 144c0 17.7-28.7 32-64 32s-64-14.3-64-32s28.7-32 64-32s64 14.3 64 32zM283.3 84.7c6.2 6.2 6.2 16.4 0 22.6l-16 16c-6.2 6.2-16.4 6.2-22.6 0s-6.2-16.4 0-22.6l16-16c6.2-6.2 16.4-6.2 22.6 0zm-112 38.6l-32 32c-6.2 6.2-16.4 6.2-22.6 0s-6.2-16.4 0-22.6l32-32c6.2-6.2 16.4-6.2 22.6 0s6.2 16.4 0 22.6zm224 9.4l32 32c6.2 6.2 6.2 16.4 0 22.6s-16.4 6.2-22.6 0l-32-32c-6.2-6.2-6.2-16.4 0-22.6s16.4-6.2 22.6 0zM64 192l32 0c8.8 0 16 7.2 16 16s-7.2 16-16 16l-32 0c-8.8 0-16-7.2-16-16s7.2-16 16-16zm331.3 36.7l32 32c6.2 6.2 6.2 16.4 0 22.6s-16.4 6.2-22.6 0l-32-32c-6.2-6.2-6.2-16.4 0-22.6s16.4-6.2 22.6 0zm-240 16l32 32c6.2 6.2 6.2 16.4 0 22.6s-16.4 6.2-22.6 0l-32-32c-6.2-6.2-6.2-16.4 0-22.6s16.4-6.2 22.6 0zm176 38.6l-32 32c-6.2 6.2-16.4 6.2-22.6 0s-6.2-16.4 0-22.6l32-32c6.2-6.2 16.4-6.2 22.6 0s6.2 16.4 0 22.6z"/></svg>