<svg xmlns="http://www.w3.org/2000/svg" viewBox="0 0 448 512"><!--! Font Awesome Pro 6.6.0 by @fontawesome - https://fontawesome.com License - https://fontawesome.com/license (Commercial License) Copyright 2024 Fonticons, Inc. --><path d="M114.2 224L224 334 333.8 224 280 224c-13.3 0-24-10.7-24-24l0-120-64 0 0 120c0 13.3-10.7 24-24 24l-53.8 0zM224 384c-11.5 0-22.5-4.6-30.6-12.7L77.6 255.2C68.9 246.5 64 234.7 64 222.4c0-25.6 20.8-46.4 46.4-46.4l33.6 0 0-96c0-26.5 21.5-48 48-48l64 0c26.5 0 48 21.5 48 48l0 96 33.6 0c25.6 0 46.4 20.8 46.4 46.4c0 12.3-4.9 24.1-13.6 32.8L254.6 371.3c-8.1 8.1-19.1 12.7-30.6 12.7zm192 32a32 32 0 1 1 0 64 32 32 0 1 1 0-64zm-96 0a32 32 0 1 1 0 64 32 32 0 1 1 0-64zm-64 32a32 32 0 1 1 -64 0 32 32 0 1 1 64 0zM128 416a32 32 0 1 1 0 64 32 32 0 1 1 0-64zM64 448A32 32 0 1 1 0 448a32 32 0 1 1 64 0z"/></svg>