<svg xmlns="http://www.w3.org/2000/svg" viewBox="0 0 384 512"><!--! Font Awesome Pro 6.6.0 by @fontawesome - https://fontawesome.com License - https://fontawesome.com/license (Commercial License) Copyright 2024 Fonticons, Inc. --><path d="M320 384l0-193.4c0-1.7-.8-3.2-2.1-4.2c-2.1-1.6-5-1.4-6.9 .5L257 241c-9.4 9.4-24.6 9.4-33.9 0L98.3 116.3c-2.7-2.7-6.5-4.3-10.3-4.3s-7.6 1.5-10.3 4.3L52.3 141.7c-2.7 2.7-4.3 6.5-4.3 10.3s1.5 7.6 4.3 10.3L177 287c9.4 9.4 9.4 24.6 0 33.9L122.9 375c-1.8 1.8-2.1 4.8-.5 6.9c1 1.3 2.5 2.1 4.2 2.1L320 384zm48 8c0 22.1-17.9 40-40 40l-201.4 0c-16.8 0-32.5-7.9-42.6-21.3c-15.9-21.2-13.8-50.9 4.9-69.6L126.1 304 18.3 196.3C6.6 184.5 0 168.6 0 152s6.6-32.5 18.3-44.3L43.7 82.4C55.5 70.6 71.4 64 88 64s32.5 6.6 44.3 18.3L240 190.1 277.1 153c18.7-18.7 48.4-20.8 69.6-5c13.4 10.1 21.3 25.8 21.3 42.6L368 392z"/></svg>