<svg xmlns="http://www.w3.org/2000/svg" viewBox="0 0 512 512"><!--! Font Awesome Pro 6.6.0 by @fontawesome - https://fontawesome.com License - https://fontawesome.com/license (Commercial License) Copyright 2024 Fonticons, Inc. --><path d="M296 256l148.7 0c19.5 0 35.3-15.8 35.3-35.3c0-9.4-3.7-18.3-10.3-25L441.9 168 496 113.9c18.7-18.7 18.7-49.1 0-67.9L465.9 16c-18.7-18.7-49.1-18.7-67.9 0L344 70.1 316.3 42.3c-6.6-6.6-15.6-10.3-25-10.3C271.8 32 256 47.8 256 67.3L256 216c0 22.1 17.9 40 40 40zm95-71l23 23L304 208l0-110.1 23 23c9.4 9.4 24.6 9.4 33.9 0l71-71L462.1 80l-71 71c-9.4 9.4-9.4 24.6 0 33.9zM67.3 256C47.8 256 32 271.8 32 291.3c0 9.4 3.7 18.3 10.3 25L70.1 344 16 398.1c-18.7 18.7-18.7 49.1 0 67.9L46.1 496c18.7 18.7 49.1 18.7 67.9 0L168 441.9l27.7 27.7c6.6 6.6 15.6 10.3 25 10.3c19.5 0 35.3-15.8 35.3-35.3L256 296c0-22.1-17.9-40-40-40L67.3 256zM121 327l-23-23L208 304l0 110.1-23-23c-9.4-9.4-24.6-9.4-33.9 0l-71 71L49.9 432l71-71c9.4-9.4 9.4-24.6 0-33.9z"/></svg>