<svg xmlns="http://www.w3.org/2000/svg" viewBox="0 0 640 512"><!--! Font Awesome Pro 6.6.0 by @fontawesome - https://fontawesome.com License - https://fontawesome.com/license (Commercial License) Copyright 2024 Fonticons, Inc. --><path d="M273 17c3.1-10.1 12.4-17 23-17L424 0l24 0 27.8 0c35 0 68.3 15.3 91.1 41.9l56 65.4c11 12.8 17 29.1 17 46c0 39.1-31.7 70.7-70.7 70.7l-22.8 0c-23.3 0-45.7-9.3-62.2-25.8l-3.9-3.9c1.7 12.7 8.4 24.3 18.8 32L592 296c30.2 22.7 48 58.2 48 96c0 66.3-53.7 120-120 120l-88 0L56.5 512C27.7 512.3 3 490.4 .2 461.3c-2.9-30.8 19.7-58.1 50.5-61l345.6-32.6-12-13.1C353.3 320.6 336 276.2 336 230.2l0-42.1s0 0 0 0c0 0 0-.1 0-.1c0 0 0 0 0 0l0-32-49.7-22.1c-8.3-3.7-13.8-11.8-14.2-20.9s4.4-17.6 12.3-22l37.6-20.9L282.7 44C273.9 38.1 270 27.2 273 17zM375.3 48l6 4c7 4.6 11 12.6 10.7 20.9s-5 15.9-12.3 20l-29.9 16.6 20 8.9c8.7 3.9 14.3 12.4 14.3 21.9l0 47.5s0 0 0 0c0 0 0 .1 0 .1c0 0 0 0 0 0l0 42.1c0 34 12.8 66.8 35.7 91.9l44.6 48.7c6.2 6.7 8 16.3 4.7 24.8s-11.1 14.4-20.1 15.3L55.2 448c-4.4 .4-7.6 4.3-7.2 8.7c.4 4.2 3.9 7.3 8 7.3l.3 0s0 0 0 0L432 464l88 0c39.8 0 72-32.2 72-72c0-22.7-10.7-44-28.8-57.6l-92.8-69.6C446.2 246.7 432 218.2 432 188l0-20c0-13.3 10.7-24 24-24l32 0c6.4 0 12.5 2.5 17 7l13.3 13.3c7.5 7.5 17.7 11.7 28.3 11.7l22.8 0c12.5 0 22.7-10.2 22.7-22.7c0-5.4-1.9-10.7-5.5-14.8l-56-65.4C516.8 57.2 496.9 48 475.8 48L448 48l-24 0-48.7 0zM514.6 95.2c-1.8 2.2-4 4.1-6.6 5.6c-11.5 6.6-26.2 2.7-32.8-8.8c-1.3-2.3-2.2-4.8-2.7-7.3c-.9-4.6 3.7-7.7 8.3-6.5l29.6 7.4c4.5 1.1 7.2 6 4.2 9.6zM520 79.5l0 .9c0-.3 0-.6 0-.9zM189.4 112.4L304 188.8l0 41.4c0 31.2 6.8 61.8 19.5 89.8L112 320c-6.7 0-12.7-4.2-15-10.4s-.5-13.3 4.6-17.7L171 232.3 18.4 255.8c-7 1.1-13.9-2.6-16.9-9s-1.5-14.1 3.8-18.8L130.9 116.5c16.3-14.5 40.4-16.2 58.5-4.1z"/></svg>