<svg xmlns="http://www.w3.org/2000/svg" viewBox="0 0 384 512"><!--! Font Awesome Pro 6.6.0 by @fontawesome - https://fontawesome.com License - https://fontawesome.com/license (Commercial License) Copyright 2024 Fonticons, Inc. --><path d="M192 464c-79.5 0-144-64.5-144-144c0-13 5.1-33.5 17-61.1c11.5-26.6 27.6-55.8 45.5-84.7c29-46.8 61-90.2 81.5-117c20.5 26.7 52.6 70.2 81.5 117c17.9 28.9 34 58 45.5 84.7c11.9 27.6 17 48.2 17 61.1c0 79.5-64.5 144-144 144zM0 320C0 426 86 512 192 512s192-86 192-192c0-91.2-130.2-262.3-166.6-308.3C211.4 4.2 202.5 0 192.9 0l-1.8 0c-9.6 0-18.5 4.2-24.5 11.7C130.2 57.7 0 228.8 0 320zm267.3-75.3c-6.2-6.2-16.4-6.2-22.6 0l-128 128c-6.2 6.2-6.2 16.4 0 22.6s16.4 6.2 22.6 0l128-128c6.2-6.2 6.2-16.4 0-22.6zM136 288a24 24 0 1 0 0-48 24 24 0 1 0 0 48zM248 400a24 24 0 1 0 0-48 24 24 0 1 0 0 48z"/></svg>