<svg xmlns="http://www.w3.org/2000/svg" viewBox="0 0 512 512"><!--! Font Awesome Pro 6.6.0 by @fontawesome - https://fontawesome.com License - https://fontawesome.com/license (Commercial License) Copyright 2024 Fonticons, Inc. --><path d="M208 272c0 17.7 14.3 32 32 32l16 0 51.2 0c-2.1-10.4-3.2-21.1-3.2-32c0-82.8 62.8-150.8 143.4-159.1C425.4 74.1 383.7 48 336 48c-70.7 0-128 57.3-128 128l0 64 0 32zm-48-32l0-64C160 78.8 238.8 0 336 0c86.5 0 158.5 62.5 173.2 144.8c2.1 11.8-10.3 20.1-22 17.6c-7.5-1.6-15.3-2.4-23.2-2.4c-61.9 0-112 50.1-112 112c0 19.2 4.8 37.2 13.3 53c5.7 10.5 1.1 24.8-10.8 26c-6.1 .6-12.3 1-18.5 1l-80 0-12 0c-17.7 0-31.3 15.6-41.5 30c-1.7 2.4-3.6 4.6-5.7 6.7c-12 12-11.1 31.5-6.8 47.9c1.3 4.9 2 10 2 15.4c0 33.1-26.9 60-60 60s-60-26.9-60-60c0-6.3-5.7-12-12-12c-33.1 0-60-26.9-60-60s26.9-60 60-60c5.3 0 10.5 .7 15.4 2c16.4 4.3 35.9 5.2 47.9-6.8c2.1-2.1 4.4-4 6.8-5.7c14.4-10.2 30-23.9 30-41.5l0-28z"/></svg>