<svg xmlns="http://www.w3.org/2000/svg" viewBox="0 0 512 512"><!--! Font Awesome Pro 6.6.0 by @fontawesome - https://fontawesome.com License - https://fontawesome.com/license (Commercial License) Copyright 2024 Fonticons, Inc. --><path d="M464 256c0-19.4-2.6-38.1-7.6-55.9L429 194.6c-7.7-1.5-15.4 2.3-18.9 9.2c-5.8 11.6-19.2 17.1-31.5 13l-14.1-4.7c-7.7-2.6-16.1-.6-21.8 5.1c-3.7 3.7-3.7 9.7 0 13.4l33.5 33.5c5 5 7.8 11.8 7.8 18.9c0 12.3-8.4 23-20.3 26l-5.3 1.3c-3.8 .9-6.4 4.3-6.4 8.2l0 12.1c0 13.8-4.5 27.3-12.8 38.4l-25.6 34.1c-6 8.1-15.5 12.8-25.6 12.8c-17.7 0-32-14.3-32-32l0-48c0-8.8-7.2-16-16-16l-32 0c-26.5 0-48-21.5-48-48l0-28c0-12.6 5.9-24.4 16-32l39.4-29.5c5.6-4.2 12.4-6.5 19.4-6.5c3.5 0 6.9 .6 10.2 1.7l32 10.7c7.2 2.4 15 2.7 22.4 .9l35.4-8.8c10.2-2.5 17.3-11.7 17.3-22.2c0-8.7-4.9-16.6-12.6-20.5l-29.2-14.6c-3.7-1.8-8.1-1.1-11 1.8l-3.9 3.9c-4.6 4.6-10.9 7.2-17.4 7.2c-3.8 0-7.6-.9-11-2.6l-15.2-7.6c-6.7-3.4-14.9-1.6-19.6 4.3l-13.6 17c-5.5 6.9-15.8 7.4-22 1.2c-2.8-2.8-4.3-6.5-4.3-10.4l0-41.4c0-5.6-1.5-11-4.2-15.9l-10-17.4C101.7 94.1 48 168.8 48 256c0 114.9 93.1 208 208 208s208-93.1 208-208zM0 256a256 256 0 1 1 512 0A256 256 0 1 1 0 256z"/></svg>