<svg xmlns="http://www.w3.org/2000/svg" viewBox="0 0 640 512"><!--! Font Awesome Pro 6.6.0 by @fontawesome - https://fontawesome.com License - https://fontawesome.com/license (Commercial License) Copyright 2024 Fonticons, Inc. --><path d="M112 48l320 0 0 48 48 0 0-48c0-26.5-21.5-48-48-48L112 0C85.5 0 64 21.5 64 48l0 144 48 0 0-144zM48 272l288 0 0 6.9L192.1 385.4c0 0-.1 0-.1 0s-.1 0-.1 0L48 278.9l0-6.9zm0 66.6L163.3 424c8.3 6.2 18.4 9.5 28.7 9.5s20.4-3.3 28.7-9.5L336 338.6 336 464 48 464l0-125.4zM0 272L0 464c0 26.5 21.5 48 48 48l288 0c26.5 0 48-21.5 48-48l0-192c0-26.5-21.5-48-48-48L48 224c-26.5 0-48 21.5-48 48zm272-80l0-16 320 0 0 192-176 0 0 48 176 0c26.5 0 48-21.5 48-48l0-192c0-26.5-21.5-48-48-48l-320 0c-26.5 0-48 21.5-48 48l0 16 48 0zm240 16c-8.8 0-16 7.2-16 16l0 32c0 8.8 7.2 16 16 16l32 0c8.8 0 16-7.2 16-16l0-32c0-8.8-7.2-16-16-16l-32 0z"/></svg>