<svg xmlns="http://www.w3.org/2000/svg" viewBox="0 0 576 512"><!--! Font Awesome Pro 6.6.0 by @fontawesome - https://fontawesome.com License - https://fontawesome.com/license (Commercial License) Copyright 2024 Fonticons, Inc. --><path d="M71.3 354c6.6-9.7 13.4-19.2 20.6-28.4C120.5 406.2 197.5 464 288 464c114.9 0 208-93.1 208-208c0-13.2-1.2-26.2-3.6-38.7c11.9 3 23.7 6.3 35.4 9.8l15 4.5c.8 8 1.1 16.2 1.1 24.4c0 141.4-114.6 256-256 256c-99.5 0-185.8-56.8-228.2-139.8c2.5-3.8 4.8-7.5 6.7-10.7c1.9-3.1 3.5-5.7 4.7-7.5zM218.5 209.6c12.7 4.2 21.9 16.2 21.9 30.4c0 17.7-14.3 32-32 32s-32-14.3-32-32c13.5-10.8 27.6-20.9 42.1-30.4zM368.1 12.8c-45.1 9.1-88.5 23-129.6 41.1c-13.9 3.4-27.2 8.2-39.8 14.2c-33.5 3.1-66.5 7.9-98.9 14.3C146.6 31.8 213.6 0 288 0c28 0 54.9 4.5 80.1 12.8zm-.3 382.7C352.2 381.2 328.4 368 296 368c-12.3 0-23.2 1.9-32.8 4.9c-12.6 4-26.1-3-30.1-15.7s3-26.1 15.7-30.1c14.2-4.5 30-7.1 47.2-7.1c46.5 0 81.4 19.3 104.2 39.9c9.8 8.9 10.5 24.1 1.6 33.9s-24.1 10.5-33.9 1.6zM336.4 240a32 32 0 1 1 64 0 32 32 0 1 1 -64 0zM300.6 64.1c38.3-13 78.3-22.2 119.5-27.4c20.8 12.6 39.7 28 56.1 45.7C419.3 71.1 360.6 64.9 300.6 64.1zM406 103.4c34 4.3 67.3 10.5 100.1 18.3c14.1 22.8 24.6 47.9 31 74.7C458.2 172.7 374.6 160 288 160c-17.1 0-34.1 .5-51 1.5c-47.8 2.8-94.6 9.4-140 19.7c-19.6 4.4-39 9.5-58.1 15.3c6.4-26.8 17-51.9 31-74.7c48.4-11.6 98.2-19.5 149.3-23.2C241.9 96.8 264.9 96 288 96c40 0 79.3 2.5 118 7.4zM50.3 226.4c41-12.2 83.3-21.3 126.6-27.1c-51.6 37.5-96.5 83.8-132.2 136.7C36.5 310.9 32 284 32 256c0-3 .1-6.1 .2-9.1c5.9-7 12-13.8 18.2-20.5z"/></svg>