<svg xmlns="http://www.w3.org/2000/svg" viewBox="0 0 512 512"><!--! Font Awesome Pro 6.6.0 by @fontawesome - https://fontawesome.com License - https://fontawesome.com/license (Commercial License) Copyright 2024 Fonticons, Inc. --><path d="M419.5 453c-44.3 36.9-101.3 59-163.5 59C114.6 512 0 397.4 0 256S114.6 0 256 0S512 114.6 512 256c0 27.2-4.2 53.4-12.1 77.9c9.1 23.9 7.8 51.5-6 75.4c-16 27.6-44.7 43.2-74.4 43.6zm-56.2-18.8l-44.2-27.4c-19.5 8-40.8 12.4-63.1 12.4c-70.4 0-130.1-43.8-157.5-105.5c-5.4-12.1 .1-26.3 12.2-31.7s26.3 .1 31.7 12.2c20.4 46.1 64.1 76.9 113.6 76.9c56.5 0 105.6-40.3 120.8-97.4c1.9-7.3 7.2-13.2 14.2-16.1s14.9-2.2 21.4 1.7l49 29.5c1.7-10.7 2.6-21.7 2.6-33c0-114.9-93.1-208-208-208S48 141.1 48 256s93.1 208 208 208c39.3 0 76-10.9 107.3-29.8zM217.6 228.8c0 0 0 0 0 0l-.2-.2c-.2-.2-.4-.5-.7-.9c-.6-.8-1.6-2-2.8-3.4c-2.5-2.8-6-6.6-10.2-10.3c-8.8-7.8-18.8-14-27.7-14s-18.9 6.2-27.7 14c-4.2 3.7-7.7 7.5-10.2 10.3c-1.2 1.4-2.2 2.6-2.8 3.4c-.3 .4-.6 .7-.7 .9l-.2 .2c0 0 0 0 0 0c0 0 0 0 0 0s0 0 0 0c-2.1 2.8-5.7 3.9-8.9 2.8s-5.5-4.1-5.5-7.6c0-17.9 6.7-35.6 16.6-48.8c9.8-13 23.9-23.2 39.4-23.2s29.6 10.2 39.4 23.2c9.9 13.2 16.6 30.9 16.6 48.8c0 3.4-2.2 6.5-5.5 7.6s-6.9 0-8.9-2.8c0 0 0 0 0 0s0 0 0 0s0 0 0 0zM398.5 399.6c18.8 11 42.9 4.7 53.8-14.2c11-19.1 4.5-43.6-14.6-54.6l-.4-.2s0 0 0 0l-24.7-14.9c-11.2 24.5-27.5 46.1-47.6 63.2l33.5 20.8zM377.6 228.8s0 0 0 0c0 0 0 0 0 0l-.2-.2c-.2-.2-.4-.5-.7-.9c-.6-.8-1.6-2-2.8-3.4c-2.5-2.8-6-6.6-10.2-10.3c-8.8-7.8-18.8-14-27.7-14s-18.9 6.2-27.7 14c-4.2 3.7-7.7 7.5-10.2 10.3c-1.2 1.4-2.2 2.6-2.8 3.4c-.3 .4-.6 .7-.7 .9l-.2 .2c0 0 0 0 0 0c0 0 0 0 0 0s0 0 0 0c-2.1 2.8-5.7 3.9-8.9 2.8s-5.5-4.1-5.5-7.6c0-17.9 6.7-35.6 16.6-48.8c9.8-13 23.9-23.2 39.4-23.2s29.6 10.2 39.4 23.2c9.9 13.2 16.6 30.9 16.6 48.8c0 3.4-2.2 6.5-5.5 7.6s-6.9 0-8.9-2.8c0 0 0 0 0 0s0 0 0 0z"/></svg>