<svg xmlns="http://www.w3.org/2000/svg" viewBox="0 0 640 512"><!--! Font Awesome Pro 6.6.0 by @fontawesome - https://fontawesome.com License - https://fontawesome.com/license (Commercial License) Copyright 2024 Fonticons, Inc. --><path d="M320 48a208 208 0 1 1 0 416 208 208 0 1 1 0-416zm0 464c141.4 0 256-114.6 256-256c0-24.6-3.5-48.4-9.9-70.9c44.3-59.4 67.4-135 73.6-166c1.3-6.3-1.4-12.8-6.8-16.4s-12.4-3.6-17.8 0c-19.3 12.9-48.5 24.2-78.4 33.1c-23.3 7-46 12.2-63 15.5C430.9 19.1 377.7 0 320 0S209.1 19.1 166.2 51.3c-17-3.3-39.7-8.6-63-15.5C73.4 26.9 44.2 15.5 24.9 2.7C19.5-.9 12.5-.9 7.1 2.7S-1 12.8 .3 19.1c6.2 31 29.3 106.6 73.6 166C67.5 207.6 64 231.4 64 256c0 141.4 114.6 256 256 256zm72.4-102.5c9.7-9 10.2-24.2 1.2-33.9C379.3 360.3 354.6 344 320 344s-59.3 16.3-73.5 31.6c-9 9.7-8.5 24.9 1.2 33.9s24.9 8.5 33.9-1.2c7.4-7.9 20-16.4 38.5-16.4s31.1 8.5 38.5 16.4c9 9.7 24.2 10.2 33.9 1.2zM240.4 288c17.7 0 32-14.3 32-32c0-1.5-.1-3-.3-4.4l10.9 3.6c8.4 2.8 17.4-1.7 20.2-10.1s-1.7-17.4-10.1-20.2l-96-32c-8.4-2.8-17.4 1.7-20.2 10.1s1.7 17.4 10.1 20.2l30.7 10.2c-5.8 5.8-9.3 13.8-9.3 22.6c0 17.7 14.3 32 32 32zm192-32c0-8.9-3.6-17-9.5-22.8l30.2-10.1c8.4-2.8 12.9-11.9 10.1-20.2s-11.9-12.9-20.2-10.1l-96 32c-8.4 2.8-12.9 11.9-10.1 20.2s11.9 12.9 20.2 10.1l11.7-3.9c-.2 1.5-.3 3.1-.3 4.7c0 17.7 14.3 32 32 32s32-14.3 32-32z"/></svg>