<svg xmlns="http://www.w3.org/2000/svg" viewBox="0 0 512 512"><!--! Font Awesome Pro 6.6.0 by @fontawesome - https://fontawesome.com License - https://fontawesome.com/license (Commercial License) Copyright 2024 Fonticons, Inc. --><path d="M256 464c47 0 90.4-15.6 125.2-41.9c2.7 14.8 2.8 29.6 2.8 41.9c0 4.5 .4 8.9 1.1 13.1C347.2 499.3 303.1 512 256 512C114.6 512 0 397.4 0 256S114.6 0 256 0S512 114.6 512 256c0 37-7.8 72.1-22 103.9c-7.4-6.2-15.1-11.8-22.7-16.7c-5.8-3.8-11.8-7.3-17.9-10.6C458.8 308.9 464 283 464 256c0-114.9-93.1-208-208-208S48 141.1 48 256s93.1 208 208 208zm-80-74.5C191.1 364.8 221.3 348 256 348s64.9 16.8 80.1 41.5c6.8 11.1-6 20.7-18.3 16.4c-18.9-6.5-39.8-10.1-61.8-10.1s-42.9 3.6-61.8 10.1c-12.3 4.2-25.1-5.3-18.3-16.4zM326.2 250.3c5.5 5.8 14.8 9.7 25.4 9.7s19.9-3.8 25.4-9.7c7.6-8.1 20.2-8.5 28.3-.9s8.5 20.2 .9 28.3C391.7 293.2 371 300 351.6 300s-40.1-6.8-54.6-22.3c-7.6-8.1-7.1-20.7 .9-28.3s20.7-7.1 28.3 .9zM159.6 260c10.6 0 19.9-3.8 25.4-9.7c7.6-8.1 20.2-8.5 28.3-.9s8.5 20.2 .9 28.3C199.7 293.2 179 300 159.6 300s-40.1-6.8-54.6-22.3c-7.6-8.1-7.1-20.7 .9-28.3s20.7-7.1 28.3 .9c5.5 5.8 14.8 9.7 25.4 9.7zM512 464c0 26.5-21.5 48-48 48s-48-21.5-48-48c0-32 0-102.4-64-128c48 0 160 48 160 128z"/></svg>