<svg xmlns="http://www.w3.org/2000/svg" viewBox="0 0 512 512"><!--! Font Awesome Pro 6.6.0 by @fontawesome - https://fontawesome.com License - https://fontawesome.com/license (Commercial License) Copyright 2024 Fonticons, Inc. --><path d="M464 256A208 208 0 1 0 48 256a208 208 0 1 0 416 0zM0 256a256 256 0 1 1 512 0A256 256 0 1 1 0 256zm335.6-80a32 32 0 1 1 0 64 32 32 0 1 1 0-64zm-128 32a32 32 0 1 1 -64 0 32 32 0 1 1 64 0zm-12.3-84.7l-7.4 7.4c-23.6 23.6-53.9 39.2-86.8 44.7l-2.5 .4c-8.7 1.5-17-4.4-18.4-13.2s4.4-17 13.2-18.4l2.5-.4c26.3-4.4 50.6-16.9 69.5-35.7l7.4-7.4c6.2-6.2 16.4-6.2 22.6 0s6.2 16.4 0 22.6zm121.4-22.6c6.2-6.2 16.4-6.2 22.6 0l7.4 7.4c18.9 18.9 43.2 31.4 69.5 35.7l2.5 .4c8.7 1.5 14.6 9.7 13.2 18.4s-9.7 14.6-18.4 13.2l-2.5-.4c-32.9-5.5-63.3-21.1-86.8-44.7l-7.4-7.4c-6.2-6.2-6.2-16.4 0-22.6zM172 267.2C189 277 202 293 208 312l96.2 0c6.1-18.8 19-34.5 35.8-44.2c11.5-6.6 26.2-2.7 32.8 8.8s2.7 26.2-8.8 32.8c-9.4 5.5-15.7 15.6-15.7 27.2s6.3 21.8 15.7 27.2c11.5 6.6 15.4 21.3 8.8 32.8s-21.3 15.4-32.8 8.8c-17.1-9.9-30.2-26-36.2-45.3L208 360c-6 19-19.1 35-36 44.8c-11.5 6.6-26.2 2.7-32.8-8.8s-2.7-26.2 8.8-32.8c9.5-5.5 15.7-15.6 15.7-27.2s-6.3-21.8-15.7-27.2c-11.5-6.6-15.4-21.3-8.8-32.8s21.3-15.4 32.8-8.8z"/></svg>