<svg xmlns="http://www.w3.org/2000/svg" viewBox="0 0 512 512"><!--! Font Awesome Pro 6.6.0 by @fontawesome - https://fontawesome.com License - https://fontawesome.com/license (Commercial License) Copyright 2024 Fonticons, Inc. --><path d="M464 256c0 114.9-93.1 208-208 208S48 370.9 48 256c0-16.5 1.9-32.6 5.6-48L72 208c0 50.1 38.4 91.2 87.3 95.6c-9.6 7.9-15.3 19.7-15.3 32.4c0 15.9 9 30.4 23.1 37.5L147.5 398c-5.5 6.9-4.4 17 2.5 22.5s17 4.4 22.5-2.5l23.9-29.9 7.3 3.6-10.5 26.3c-3.3 8.2 .7 17.5 8.9 20.8s17.5-.7 20.8-8.9l10-24.9c2.4 .7 4.8 1.3 7.2 1.8l0 25.2c0 8.8 7.2 16 16 16s16-7.2 16-16l0-25.2c2.4-.5 4.8-1.1 7.2-1.8l10 24.9c3.3 8.2 12.6 12.2 20.8 8.9s12.2-12.6 8.9-20.8l-10.5-26.3 7.3-3.6L339.5 418c5.5 6.9 15.6 8 22.5 2.5s8-15.6 2.5-22.5l-19.6-24.5C359 366.4 368 351.9 368 336c0-12.7-5.7-24.5-15.3-32.4c49-4.4 87.3-45.5 87.3-95.6l18.4 0c3.6 15.4 5.6 31.5 5.6 48zM218 229.5l-21.4 35.7c-1.1 .6-1.9 1-2.6 1.3c-7.9 3.5-16.8 5.5-26.1 5.5c-35.3 0-64-28.7-64-64s28.7-64 64-64s64 28.7 64 64c0 2.5-.1 4.9-.4 7.3c-5.4 3.6-10.1 8.4-13.5 14.1zM280 208c0-35.3 28.7-64 64-64s64 28.7 64 64s-28.7 64-64 64c-9.3 0-18.1-2-26.1-5.5c-.6-.3-1.5-.7-2.6-1.3L294 229.5c-3.5-5.8-8.1-10.6-13.5-14.1c-.3-2.4-.4-4.9-.4-7.3zm219.4-31.6C465.9 74 369.6 0 256 0S46.1 74 12.6 176.4C5.4 177.9 0 184.3 0 192c0 4.7 2 9 5.3 11.9C1.8 220.7 0 238.1 0 256C0 397.4 114.6 512 256 512s256-114.6 256-256c0-17.9-1.8-35.3-5.3-52.1c3.3-2.9 5.3-7.2 5.3-11.9c0-7.7-5.4-14.1-12.6-15.6zM63.9 176c6.4-15.3 14.5-29.7 24.2-42.9c-.6 4.5 .2 9.3 2.4 13.6l1.4 2.7c-6.1 8-11 16.9-14.4 26.5l-13.5 0zm384.1 0l-13.5 0c-3.4-9.6-8.3-18.6-14.4-26.5l1.4-2.7c2.2-4.4 2.9-9.1 2.4-13.6c9.7 13.2 17.8 27.6 24.2 42.9zM104.9 113.1C142.8 73 196.5 48 256 48s113.2 25 151.1 65.1c-9-2.8-18.7 0-24.9 6.8c-2-.9-4.1-1.7-6.2-2.4l0-5.5c0-13.3-10.7-24-24-24s-24 10.7-24 24l0 1.3c-1.5 .2-2.9 .5-4.4 .8c-6.7-9.6-19.6-13-30.3-7.6s-15.7 17.8-12.1 28.9c-10.7 9.3-19.4 21-25.2 34.2c-5.8-13.2-14.4-24.9-25.2-34.2c3.6-11.1-1.3-23.5-12.1-28.9s-23.6-1.9-30.4 7.6c-1.4-.3-2.9-.6-4.4-.8l0-1.3c0-13.3-10.7-24-24-24s-24 10.7-24 24l0 5.5c-2.1 .7-4.2 1.6-6.2 2.4c-6.2-6.9-16-9.6-24.9-6.8zM256 240c4.3 0 8.3 2.3 10.5 6l39.8 66.3 2.4 4 4.2 2.1 17.7 8.8c3.4 1.7 5.5 5.1 5.5 8.8s-2.1 7.2-5.5 8.8l-53.1 26.5c-13.5 6.8-29.4 6.8-42.9 0l-53.1-26.5c-3.4-1.7-5.5-5.1-5.5-8.8s2.1-7.2 5.5-8.8l17.7-8.8 4.2-2.1 2.4-4L245.5 246c2.2-3.7 6.2-6 10.5-6zm-64-24a24 24 0 1 0 -48 0 24 24 0 1 0 48 0zm152 24a24 24 0 1 0 0-48 24 24 0 1 0 0 48z"/></svg>