<svg xmlns="http://www.w3.org/2000/svg" viewBox="0 0 512 512"><!--! Font Awesome Pro 6.6.0 by @fontawesome - https://fontawesome.com License - https://fontawesome.com/license (Commercial License) Copyright 2024 Fonticons, Inc. --><path d="M35.2 126.3C14.9 120.8 0 102.7 0 81C0 61 28.6 20.6 41.6 3.3c3.2-4.4 9.6-4.4 12.8 0c9.5 12.6 27.1 37.2 36 57.5c.3 .7 .6 1.4 .9 2.1C94.2 69.7 96 76 96 81c0 26-21.5 47-48 47c-4.4 0-8.7-.6-12.8-1.7zm81.4-85.1C156.7 15.2 204.6 0 256 0C397.4 0 512 114.6 512 256s-114.6 256-256 256S0 397.4 0 256c0-35.8 7.3-69.9 20.6-100.8c8.6 3.1 17.8 4.8 27.4 4.8c8.9 0 17.6-1.5 25.7-4.2C57.3 185.5 48 219.7 48 256c0 114.9 93.1 208 208 208s208-93.1 208-208s-93.1-208-208-208c-48.7 0-93.4 16.7-128.9 44.7c.6-3.8 .9-7.7 .9-11.7c0-11.4-3.8-22.4-7.1-30.5c-1.3-3.1-2.7-6.2-4.3-9.3zM96 272c0-8.8 7.2-16 16-16l96 0c8.8 0 16 7.2 16 16s-7.2 16-16 16l-96 0c-8.8 0-16-7.2-16-16zm208-16l96 0c8.8 0 16 7.2 16 16s-7.2 16-16 16l-96 0c-8.8 0-16-7.2-16-16s7.2-16 16-16zM183.6 409.5c-9.7-9-10.2-24.2-1.2-33.9C196.7 360.3 221.4 344 256 344s59.3 16.3 73.5 31.6c9 9.7 8.5 24.9-1.2 33.9s-24.9 8.5-33.9-1.2c-7.4-7.9-20-16.4-38.5-16.4s-31.1 8.5-38.5 16.4c-9 9.7-24.2 10.2-33.9 1.2z"/></svg>