<svg xmlns="http://www.w3.org/2000/svg" viewBox="0 0 576 512"><!--! Font Awesome Pro 6.6.0 by @fontawesome - https://fontawesome.com License - https://fontawesome.com/license (Commercial License) Copyright 2024 Fonticons, Inc. --><path d="M147.4 120.3c-15.2 18.4-15.2 45.1 0 63.5c.3 .4 .5 1 .3 1.6c-2.3 9-1.9 18.2 .6 26.6c-20.8-9-45-2.4-58.5 15.9c-.3 .4-.5 .4-.7 .4c-24.3-.7-44.9 16.5-49.4 39.9c-.1 .6-.5 1-.7 1.1c-21.9 10-33.1 34.3-27.3 57.3c.2 .6 0 1.3-.3 1.6c-15.2 18.4-15.2 45.1 0 63.5c.3 .4 .5 1 .3 1.6c-5.8 23 5.4 47.3 27.3 57.3c.2 .1 .6 .4 .7 1.1c4.6 23.4 25.2 40.6 49.4 39.9c.1 0 .4 0 .7 .4c14.3 19.4 40.5 25.6 61.9 14.3c.1-.1 .2-.1 .3-.1s.2 0 .3 .1c21.5 11.3 47.7 5 61.9-14.3c.3-.4 .5-.4 .7-.4c24.3 .7 44.9-16.5 49.4-39.9c.1-.6 .5-1 .7-1.1c10.2-4.7 18.1-12.4 23-21.7c4.9 9.3 12.8 17.1 23 21.7c.2 .1 .6 .4 .7 1.1c4.6 23.4 25.2 40.6 49.4 39.9c.1 0 .4 0 .7 .4c14.3 19.4 40.5 25.6 61.9 14.3c.1-.1 .2-.1 .3-.1s.2 0 .3 .1c21.5 11.3 47.7 5 61.9-14.3c.3-.4 .6-.4 .7-.4c24.3 .7 44.9-16.5 49.4-39.9c.1-.6 .5-1 .7-1.1c16.4-7.5 26.7-22.9 28.5-39.9c-18.6 7.3-39.4 6-56.9 1.2c0 0 0 0-.1 0c-10 7.3-17 18.2-19.4 30.6c-.1 .5-.3 .8-.5 .9s-.3 .2-.4 .2c-16.1-.5-31.2 7.1-40.7 19.9c-.1 .2-.2 .2-.3 .3s-.2 .1-.2 .1s-.1 0-.2 0c0 0-.1 0-.2-.1c-14.2-7.5-31.1-7.5-45.3 0c-.1 0-.1 0-.1 .1c0 0 0 0-.1 0s0 0-.1 0s0 0-.1 0s0 0-.1 0c-.1 0-.2-.1-.2-.1s-.2-.1-.3-.3c-9.5-12.8-24.6-20.4-40.7-19.9c-.1 0-.2 0-.4-.2s-.4-.5-.5-.9c-3-15.6-13.3-28.9-27.9-35.5c-.2-.1-.4-.2-.6-.6s-.2-.8-.1-1.3c3.9-15.4 .3-31.7-9.9-44c-.2-.3-.4-.7-.4-1.1s.2-.9 .4-1.1c10.1-12.3 13.8-28.6 9.9-44c-.1-.5-.1-.9 .1-1.3s.4-.5 .6-.6c14.6-6.7 24.8-20 27.9-35.5c.1-.5 .3-.8 .5-.9s.3-.2 .4-.2c8.7 .2 17.1-1.8 24.5-5.9c-.9-11.7 .3-23.8 4.6-35.2c7.1-4.1 16-4.4 23.7-.4l.4 .2c13.8-12.1 20-31.3 15.4-49.7c-.2-.6 0-1.3 .3-1.6c15.2-18.4 15.2-45.1 0-63.5c-.3-.4-.5-1-.3-1.6c5.8-23-5.4-47.3-27.3-57.3c-.2-.1-.6-.4-.7-1.1c-4.6-23.4-25.2-40.6-49.4-39.9c-.1 0-.4 0-.7-.4C335.9 .6 309.7-5.7 288.3 5.6c-.1 .1-.2 .1-.3 .1s-.2 0-.3-.1c-21.5-11.3-47.7-5-61.9 14.3c-.3 .4-.5 .4-.7 .4c-24.3-.7-44.9 16.5-49.4 39.9c-.1 .6-.5 1-.7 1.1c-21.9 10-33.1 34.3-27.3 57.3c.2 .6 0 1.3-.3 1.6zM324.5 243.4c-5 3.2-9.4 7.3-13 12.2c-.1 .2-.2 .2-.3 .3s-.2 .1-.2 .1s-.1 0-.2 0c0 0-.1 0-.2-.1c-14.2-7.5-31.1-7.5-45.3 0c-.1 .1-.2 .1-.2 .1s-.1 0-.1 0c0 0 0 0-.1 0c-.1 0-.2 0-.2-.1s-.2-.1-.3-.3c-3.6-4.9-8-9-13-12.2c-7.8-8.2-18.4-13.6-30.2-14.9c-4.2-12.9-13.7-23.7-26.3-29.5c-.2-.1-.4-.2-.6-.6s-.2-.8-.1-1.3c3.9-15.4 .3-31.7-9.9-44c-.2-.3-.4-.7-.4-1.1s.2-.9 .4-1.1c10.1-12.3 13.8-28.6 9.9-44c-.1-.5-.1-.9 .1-1.3s.4-.5 .6-.6c14.6-6.7 24.8-20 27.9-35.5c.1-.5 .3-.8 .5-.9s.3-.2 .4-.2c16.1 .5 31.2-7.1 40.7-19.9c.1-.2 .2-.2 .3-.3s.2-.1 .2-.1s.1 0 .2 0c0 0 .1 0 .2 .1c14.2 7.5 31.1 7.5 45.3 0c.1-.1 .2-.1 .2-.1c0 0 .1 0 .2 0c0 0 0 0 .1 0s0 0 .1 0c0 0 .1 0 .1 .1c.1 0 .2 .1 .3 .3c9.5 12.8 24.6 20.4 40.7 19.9c.1 0 .2 0 .4 .2s.4 .5 .5 .9c3 15.6 13.3 28.9 27.9 35.5c.2 .1 .4 .2 .6 .6s.2 .8 .1 1.3c-3.9 15.4-.3 31.7 9.9 44c.2 .3 .4 .7 .4 1.1s-.2 .9-.4 1.1c-10.1 12.3-13.8 28.6-9.9 44c.1 .5 .1 .9-.1 1.3s-.4 .5-.6 .6c-12.6 5.8-22.1 16.6-26.3 29.5c-11.8 1.2-22.4 6.7-30.2 14.9zM48.4 361.1c-.2-.3-.4-.7-.4-1.1s.2-.9 .4-1.1c10.1-12.3 13.8-28.6 9.9-44c-.1-.5-.1-.9 .1-1.3s.4-.5 .6-.6c14.6-6.7 24.8-20 27.9-35.5c.1-.5 .3-.8 .5-.9s.3-.2 .4-.2c16.1 .5 31.2-7.1 40.7-19.9c.1-.2 .2-.2 .3-.3s.2-.1 .2-.1s.1 0 .2 0c0 0 .1 0 .2 .1c14.2 7.5 31.1 7.5 45.3 0c.1-.1 .2-.1 .2-.1c0 0 .1 0 .2 0c0 0 .1 0 .1 0c0 0 0 0 0 0c0 0 .1 0 .1 .1c.1 0 .2 .1 .3 .3c9.5 12.8 24.6 20.4 40.7 19.9c.1 0 .2 0 .4 .2s.4 .5 .5 .9c3 15.6 13.3 28.9 27.9 35.5c.2 .1 .4 .2 .6 .6s.2 .8 .1 1.3c-3.9 15.3-.3 31.7 9.9 44c.2 .3 .4 .7 .4 1.1s-.2 .9-.4 1.1c-10.1 12.3-13.8 28.6-9.9 44c.1 .5 .1 .9-.1 1.3s-.4 .5-.6 .6c-14.6 6.7-24.8 20-27.9 35.5c-.1 .5-.3 .8-.5 .9s-.3 .2-.4 .2c-16.1-.5-31.2 7.1-40.7 19.9c-.1 .2-.2 .2-.3 .3c0 0-.1 0-.1 .1c0 0-.1 0-.1 0c0 0 0 0-.1 0s0 0-.1 0s0 0-.1 0c0 0-.1 0-.2-.1c-14.2-7.5-31.1-7.5-45.3 0c-.1 .1-.2 .1-.2 .1c0 0-.1 0-.2 0s-.2-.1-.2-.1s-.2-.1-.3-.3c-9.5-12.8-24.6-20.4-40.7-19.9c-.1 0-.2 0-.4-.2s-.4-.5-.5-.9c-3-15.6-13.3-28.9-27.9-35.5c-.2-.1-.4-.2-.6-.6s-.2-.8-.1-1.3c3.9-15.4 .3-31.7-9.9-44zM416 261c-1 24.2 13.6 56 40.3 82.7c19.3 19.3 41.4 32.3 61.3 37.6c19.5 5.2 37 3 47.9-7.9c5.5-5.5 8.8-12.7 10-20.9c2.1-14.2-1.8-31.6-10.9-49.3c-5.2-10.1-12.1-20.3-20.6-30.1c-2.6-3-5.4-5.9-8.2-8.8l-.5-.5c-33.5-33.3-74.9-47.5-99.3-35.9c-3.5 1.7-6.6 3.8-9.4 6.6c-6.7 6.7-10.1 15.9-10.5 26.5zM112 352a16 16 0 1 0 -32 0 16 16 0 1 0 32 0zm48 16a16 16 0 1 0 0-32 16 16 0 1 0 0 32zm-16 48a16 16 0 1 0 -32 0 16 16 0 1 0 32 0zm224-48a16 16 0 1 0 0-32 16 16 0 1 0 0 32zm48 48a16 16 0 1 0 -32 0 16 16 0 1 0 32 0zM224 176a16 16 0 1 0 0-32 16 16 0 1 0 0 32z"/></svg>