<svg xmlns="http://www.w3.org/2000/svg" viewBox="0 0 512 512"><!--! Font Awesome Pro 6.6.0 by @fontawesome - https://fontawesome.com License - https://fontawesome.com/license (Commercial License) Copyright 2024 Fonticons, Inc. --><path d="M500.3 100.9C520.7 72 513.7 32 484.9 11.7S416-1.8 395.7 27.1L147.6 379.4c-2 2.8-5.1 4.4-8.5 4.4c-5.3 0-10.5-4.7-10.5-11c0-1.6 .4-3.1 .9-4.4l17-38.5c14.3-32.3-.3-70.1-32.7-84.4s-70.1 .3-84.4 32.7l-17 38.5C4.8 334 .7 352.9 .6 371.8C0 448.3 61.9 512 139.4 511.8c44.9-.1 86.9-22 112.8-58.7L500.3 100.9zM398.1 162.6L213 425.4c-16.9 24-44.4 38.3-73.7 38.4c-50.5 .1-91.1-41.4-90.7-91.6c.1-12.4 2.7-24.8 7.8-36.1l17-38.5c3.6-8.1 13-11.7 21.1-8.2s11.7 13 8.2 21.1l-17 38.5c-3.2 7.3-5 15.4-5 23.5c-.3 32.7 26.2 59.5 58.6 59.4c19-.1 36.7-9.3 47.6-24.8L372.5 143.4l25.6 19.2zM432 400a32 32 0 1 1 0 64 32 32 0 1 1 0-64zm0 112a80 80 0 1 0 0-160 80 80 0 1 0 0 160z"/></svg>