<svg xmlns="http://www.w3.org/2000/svg" viewBox="0 0 512 512"><!--! Font Awesome Pro 6.6.0 by @fontawesome - https://fontawesome.com License - https://fontawesome.com/license (Commercial License) Copyright 2024 Fonticons, Inc. --><path d="M64 464l16 0 0 48-16 0c-35.3 0-64-28.7-64-64L0 64C0 28.7 28.7 0 64 0L229.5 0c17 0 33.3 6.7 45.3 18.7l90.5 90.5c12 12 18.7 28.3 18.7 45.3L384 304l-48 0 0-144-80 0c-17.7 0-32-14.3-32-32l0-80L64 48c-8.8 0-16 7.2-16 16l0 384c0 8.8 7.2 16 16 16zm93.7-104.2L192 416.9l34.3-57.1c3.7-6.2 11.1-9.1 18-7.2s11.7 8.2 11.7 15.4l0 128c0 8.8-7.2 16-16 16s-16-7.2-16-16l0-70.2-18.3 30.5c-2.9 4.8-8.1 7.8-13.7 7.8s-10.8-3-13.7-7.8L160 425.8l0 70.2c0 8.8-7.2 16-16 16s-16-7.2-16-16l0-128c0-7.2 4.8-13.5 11.7-15.4s14.3 1 18 7.2zM448 368l0 31.6c0 23 5.5 45.6 16 66c10.5-20.3 16-42.9 16-66l0-31.6c0-8.8 7.2-16 16-16s16 7.2 16 16l0 31.6c0 34.7-10.3 68.7-29.6 97.6l-5.1 7.7c-3 4.5-8 7.1-13.3 7.1s-10.3-2.7-13.3-7.1l-5.1-7.7c-19.3-28.9-29.6-62.9-29.6-97.6l0-31.6c0-8.8 7.2-16 16-16s16 7.2 16 16zM288 392c0-22.1 17.9-40 40-40l16 0c22.1 0 40 17.9 40 40l0 80c0 22.1-17.9 40-40 40l-16 0c-22.1 0-40-17.9-40-40l0-80zm40-8c-4.4 0-8 3.6-8 8l0 80c0 4.4 3.6 8 8 8l16 0c4.4 0 8-3.6 8-8l0-80c0-4.4-3.6-8-8-8l-16 0z"/></svg>