<svg xmlns="http://www.w3.org/2000/svg" viewBox="0 0 384 512"><!--! Font Awesome Pro 6.6.0 by @fontawesome - https://fontawesome.com License - https://fontawesome.com/license (Commercial License) Copyright 2024 Fonticons, Inc. --><path d="M320 464c8.8 0 16-7.2 16-16l0-288-80 0c-17.7 0-32-14.3-32-32l0-80L64 48c-8.8 0-16 7.2-16 16l0 384c0 8.8 7.2 16 16 16l256 0zM0 64C0 28.7 28.7 0 64 0L229.5 0c17 0 33.3 6.7 45.3 18.7l90.5 90.5c12 12 18.7 28.3 18.7 45.3L384 448c0 35.3-28.7 64-64 64L64 512c-35.3 0-64-28.7-64-64L0 64zM160 240.1c8.7-1.5 16 5.8 16 14.7l0 65.3c0 8.8 7.2 16 16 16l64 0c8.9 0 16.3 7.4 14.6 16.1c-.5 2.5-1 5-1.7 7.4c-13.7 51.2-66.4 81.6-117.6 67.9s-81.6-66.4-67.9-117.6c10-37.4 40.8-63.7 76.5-69.8zm63.9-30.8c40.3 6.7 72 38.5 78.8 78.8c1.5 8.7-5.8 15.9-14.7 15.9l-64 0c-8.8 0-16-7.2-16-16l0-64c0-8.8 7.2-16.1 15.9-14.7z"/></svg>