<svg xmlns="http://www.w3.org/2000/svg" viewBox="0 0 512 512"><!--! Font Awesome Pro 6.6.0 by @fontawesome - https://fontawesome.com License - https://fontawesome.com/license (Commercial License) Copyright 2024 Fonticons, Inc. --><path d="M64 464l48 0 0 48-48 0c-35.3 0-64-28.7-64-64L0 64C0 28.7 28.7 0 64 0L229.5 0c17 0 33.3 6.7 45.3 18.7l90.5 90.5c12 12 18.7 28.3 18.7 45.3L384 304l-48 0 0-144-80 0c-17.7 0-32-14.3-32-32l0-80L64 48c-8.8 0-16 7.2-16 16l0 384c0 8.8 7.2 16 16 16zm96-96c0-8.8 7.2-16 16-16l64 0c8.8 0 16 7.2 16 16s-7.2 16-16 16l-48 0 0 32 32 0c8.8 0 16 7.2 16 16s-7.2 16-16 16l-32 0 0 32 48 0c8.8 0 16 7.2 16 16s-7.2 16-16 16l-64 0c-8.8 0-16-7.2-16-16l0-64 0-64zm144-16l32 0c30.9 0 56 25.1 56 56s-25.1 56-56 56l-16 0 0 32c0 8.8-7.2 16-16 16s-16-7.2-16-16l0-48 0-80c0-8.8 7.2-16 16-16zm32 80c13.3 0 24-10.7 24-24s-10.7-24-24-24l-16 0 0 48 16 0zm117.7-80l26.3 0c8.8 0 16 7.2 16 16s-7.2 16-16 16l-26.3 0c-7.5 0-13.7 6.1-13.7 13.7c0 5.2 2.9 9.9 7.6 12.2l31.2 15.6c15.5 7.7 25.2 23.5 25.2 40.8c0 25.2-20.4 45.7-45.7 45.7L424 512c-8.8 0-16-7.2-16-16s7.2-16 16-16l34.3 0c7.5 0 13.7-6.1 13.7-13.7c0-5.2-2.9-9.9-7.6-12.2l-31.2-15.6C417.8 430.8 408 415 408 397.7c0-25.2 20.4-45.7 45.7-45.7z"/></svg>