<svg xmlns="http://www.w3.org/2000/svg" viewBox="0 0 640 512"><!--! Font Awesome Pro 6.6.0 by @fontawesome - https://fontawesome.com License - https://fontawesome.com/license (Commercial License) Copyright 2024 Fonticons, Inc. --><path d="M293.5 3.8c-2.8-2.5-6.3-3.7-9.8-3.8c-3.6 0-7.2 1.2-10 3.7c-33.2 29.7-61.4 63.4-81.4 95.8c-19.7 31.9-32.4 66.2-32.4 92.6c0 19.8 3.6 38.8 10.1 56.3c9.6 3.3 18.7 7.6 27.3 12.7c12.7-13.6 27.6-25 44.2-33.8c-1.1-5.5-1.6-11.3-1.6-17.4c0-24 15-45 45-82c4 5 62 79 62 79l36-42c3 4 5 8 7 12c8.6 15.8 11.3 33.7 8.4 50.4c16.6 8.8 31.5 20.2 44.2 33.8c8.5-5.1 17.6-9.3 27.1-12.6C476.4 231 480 212 480 192.2c0-20.2-9.6-50.9-24.2-79C441.1 84.7 420.2 54.7 395.5 32c-5.6-5.1-14.4-5.2-20 0c-9.6 8.8-18.6 19.6-26.5 29.5c-17.3-20.7-35.8-39.9-55.5-57.7zM233.2 361.3c7-41.6 43.2-73.3 86.8-73.3s79.8 31.7 86.8 73.3c1.8 10.7 10.5 18.8 21.2 19.9s20.9-5.1 24.8-15.2c10.4-27 36.6-46 67.2-46c39.8 0 72 32.2 72 72c0 37.7-29 68.7-66 71.8c-.7 .1-1.3 .1-2 .2l-4 0-200 0-200 0-4 0c-.7-.1-1.3-.2-2-.2c-36.9-3-66-34-66-71.8c0-39.8 32.2-72 72-72c30.6 0 56.7 19 67.2 46c3.9 10.1 14.1 16.3 24.8 15.2s19.4-9.2 21.2-19.9zM320 240c-49.4 0-92.7 26.4-116.5 65.8c-21.6-20.9-51-33.8-83.5-33.8C53.7 272 0 325.7 0 392c0 61.4 46.1 112 105.6 119.1c2 .6 4.2 .9 6.4 .9l8 0 200 0 200 0 8 0c2.2 0 4.3-.3 6.4-.9C593.9 504 640 453.4 640 392c0-66.3-53.7-120-120-120c-32.5 0-61.9 12.9-83.5 33.8C412.7 266.4 369.4 240 320 240z"/></svg>