<svg xmlns="http://www.w3.org/2000/svg" viewBox="0 0 576 512"><!--! Font Awesome Pro 6.6.0 by @fontawesome - https://fontawesome.com License - https://fontawesome.com/license (Commercial License) Copyright 2024 Fonticons, Inc. --><path d="M272.2 4c-12.8-7-28.7-4.5-38.7 6.1L186.6 59.9c-4.6 4.9-10.5 8.2-17.1 9.5L102.4 82.7c-14.3 2.8-24.9 15-25.7 29.6l-3.8 68.3c-.4 6.7-2.8 13-7 18.2L23.1 252.1c-9.1 11.4-9.4 27.5-.7 39.2l40.9 54.8c4 5.3 6.2 11.8 6.4 18.5l.9 41.2c2.6-4.9 5.9-9.4 9.9-13.3l55.9-55.9C121.1 316.3 112 291.2 112 264c0-66.3 53.7-120 120-120c27.2 0 52.3 9.1 72.5 24.3L424.4 48.4c4.6-4.6 10-8.3 15.8-11.1c-6.1-3.9-13.4-5.7-21-4.8l-67.9 8.1c-6.6 .8-13.3-.5-19.2-3.7L272.2 4zM159.3 313.5L281.5 191.3C267.4 181.6 250.4 176 232 176c-48.6 0-88 39.4-88 88c0 18.4 5.6 35.4 15.3 49.5zM275 243l-86 86-86 86c-4.8 4.8-7.4 11.5-7 18.3s3.7 13.2 9 17.4C150.8 487.1 207.3 512 272 512c150.2 0 272-121.8 272-272c0-64.7-24.9-121.2-61.2-166.9c-4.3-5.4-10.6-8.6-17.4-9s-13.5 2.2-18.3 7l-43 43-43 43-86 86zM395 191l43-43 23-23c21.8 34 35 72.7 35 115c0 123.7-100.3 224-224 224c-42.4 0-81-13.2-115-35l66-66 86-86 86-86zM296 400a24 24 0 1 0 -48 0 24 24 0 1 0 48 0zm72-8a24 24 0 1 0 0-48 24 24 0 1 0 0 48z"/></svg>