<svg xmlns="http://www.w3.org/2000/svg" viewBox="0 0 384 512"><!--! Font Awesome Pro 6.6.0 by @fontawesome - https://fontawesome.com License - https://fontawesome.com/license (Commercial License) Copyright 2024 Fonticons, Inc. --><path d="M315.3 32c-36 0-68.3 21.9-81.7 55.3L179 224 56 224c-13.3 0-24 10.7-24 24s10.7 24 24 24l103.8 0L105.8 406.9C99.7 422 85 432 68.7 432L24 432c-13.3 0-24 10.7-24 24s10.7 24 24 24l44.7 0c36 0 68.3-21.9 81.7-55.3L211.4 272 328 272c13.3 0 24-10.7 24-24s-10.7-24-24-24l-97.4 0 47.5-118.9C284.3 90 299 80 315.3 80L360 80c13.3 0 24-10.7 24-24s-10.7-24-24-24l-44.7 0z"/></svg>