<svg xmlns="http://www.w3.org/2000/svg" viewBox="0 0 512 512"><!--! Font Awesome Pro 6.6.0 by @fontawesome - https://fontawesome.com License - https://fontawesome.com/license (Commercial License) Copyright 2024 Fonticons, Inc. --><path d="M64 32C28.7 32 0 60.7 0 96L0 416c0 35.3 28.7 64 64 64l384 0c35.3 0 64-28.7 64-64l0-256c0-35.3-28.7-64-64-64L289.9 96 247 53.1C233.5 39.6 215.2 32 196.1 32L64 32zM48 96c0-8.8 7.2-16 16-16l132.1 0c6.4 0 12.5 2.5 17 7l45.3 45.3c7.5 7.5 17.7 11.7 28.3 11.7L448 144c8.8 0 16 7.2 16 16l0 256c0 8.8-7.2 16-16 16L64 432c-8.8 0-16-7.2-16-16L48 96zM369 241c9.4-9.4 9.4-24.6 0-33.9s-24.6-9.4-33.9 0l-111 111-47-47c-9.4-9.4-24.6-9.4-33.9 0s-9.4 24.6 0 33.9l64 64c9.4 9.4 24.6 9.4 33.9 0L369 241z"/></svg>