<svg xmlns="http://www.w3.org/2000/svg" viewBox="0 0 512 512"><!--! Font Awesome Pro 6.6.0 by @fontawesome - https://fontawesome.com License - https://fontawesome.com/license (Commercial License) Copyright 2024 Fonticons, Inc. --><path d="M160 184c0-68.3 50.4-124.9 116.1-134.5c-31.2 28.4-51.6 66.6-58 108.1c-1.4 9.3 2.7 18.6 10.6 23.7s18.1 5.2 26 .1C275.9 167.8 301 160 328 160c68.3 0 124.9 50.4 134.6 116.1c-28.4-31.2-66.6-51.6-108.1-58c-9.3-1.4-18.6 2.7-23.7 10.6s-5.2 18.1-.1 26C344.2 275.9 352 301 352 328c0 68.3-50.4 124.9-116.1 134.5c31.2-28.4 51.6-66.6 58-108.1c1.4-9.3-2.7-18.6-10.6-23.7s-18.1-5.2-26-.1C236.1 344.2 211 352 184 352c-68.3 0-124.9-50.4-134.5-116.1c28.4 31.2 66.6 51.6 108.1 58c9.3 1.4 18.6-2.7 23.7-10.6s5.2-18.1 .1-26C167.8 236.1 160 211 160 184zM296 0C194.4 0 112 82.4 112 184c0 15.9 2 31.3 5.8 46c-16.4-9.4-30.8-22.2-42.2-37.9l-13-17.9c-6.5-9-16.9-14.2-28-14.2C15.5 160 0 175.5 0 194.6L0 216C0 317.6 82.4 400 184 400c15.9 0 31.3-2 46-5.8c-9.4 16.4-22.2 30.8-37.9 42.2l-17.9 13c-9 6.5-14.2 16.9-14.2 28c0 19.1 15.5 34.6 34.6 34.6l21.4 0c101.6 0 184-82.4 184-184c0-15.9-2-31.3-5.8-46c16.4 9.4 30.8 22.2 42.2 37.9l13 17.9c6.5 9 16.9 14.2 28 14.2c19.1 0 34.6-15.5 34.6-34.6l0-21.4c0-101.6-82.4-184-184-184c-15.9 0-31.3 2-46 5.8c9.4-16.4 22.2-30.8 37.9-42.2l17.9-13-14-19.3 14 19.3c9-6.5 14.2-16.9 14.2-28C352 15.5 336.5 0 317.4 0L296 0zM256 288a32 32 0 1 0 0-64 32 32 0 1 0 0 64z"/></svg>