<svg xmlns="http://www.w3.org/2000/svg" viewBox="0 0 640 512"><!--! Font Awesome Pro 6.6.0 by @fontawesome - https://fontawesome.com License - https://fontawesome.com/license (Commercial License) Copyright 2024 Fonticons, Inc. --><path d="M323 51.1c-1.9-.8-4.1-.8-6 0L63 154.1c-9.1 3.7-15 12.5-15 22.2L48 488c0 13.3-10.7 24-24 24s-24-10.7-24-24L0 176.3c0-29.3 17.8-55.7 44.9-66.7L299 6.6c13.5-5.5 28.6-5.5 42.1 0l254 103c27.2 11 45 37.4 45 66.7L640 488c0 13.3-10.7 24-24 24s-24-10.7-24-24l0-311.7c0-9.8-5.9-18.6-15-22.2L323 51.1zM144 320l0 168c0 13.3-10.7 24-24 24s-24-10.7-24-24l0-256c0-22.1 17.9-40 40-40l368 0c22.1 0 40 17.9 40 40l0 256c0 13.3-10.7 24-24 24s-24-10.7-24-24l0-168-352 0zm0-48l352 0 0-32-352 0 0 32zm88 144l0 16 176 0 0-16c0-8.8-7.2-16-16-16l-144 0c-8.8 0-16 7.2-16 16zm0 64l0 8c0 13.3-10.7 24-24 24s-24-10.7-24-24l0-72c0-35.3 28.7-64 64-64l144 0c35.3 0 64 28.7 64 64l0 72c0 13.3-10.7 24-24 24s-24-10.7-24-24l0-8-176 0z"/></svg>