<svg xmlns="http://www.w3.org/2000/svg" viewBox="0 0 512 512"><!--! Font Awesome Pro 6.6.0 by @fontawesome - https://fontawesome.com License - https://fontawesome.com/license (Commercial License) Copyright 2024 Fonticons, Inc. --><path d="M256 48a208 208 0 1 1 0 416 208 208 0 1 1 0-416zm0 464A256 256 0 1 0 256 0a256 256 0 1 0 0 512zm32-400a32 32 0 1 0 -64 0 32 32 0 1 0 64 0zM256 408c30.9 0 56-25.1 56-56c0-14-5.1-26.8-13.7-36.6L366 161.7c5.3-12.1-.2-26.3-12.3-31.6s-26.3 .2-31.6 12.3L254.4 296c-30.2 .8-54.4 25.6-54.4 56c0 30.9 25.1 56 56 56zM192 160a32 32 0 1 0 -64 0 32 32 0 1 0 64 0zM112 288a32 32 0 1 0 0-64 32 32 0 1 0 0 64zm320-32a32 32 0 1 0 -64 0 32 32 0 1 0 64 0z"/></svg>