<svg xmlns="http://www.w3.org/2000/svg" viewBox="0 0 512 512"><!--! Font Awesome Pro 6.6.0 by @fontawesome - https://fontawesome.com License - https://fontawesome.com/license (Commercial License) Copyright 2024 Fonticons, Inc. --><path d="M120 0c13.3 0 24 10.7 24 24l0 8 48 0 0-8c0-13.3 10.7-24 24-24s24 10.7 24 24l0 8 32 0 0-8c0-13.3 10.7-24 24-24s24 10.7 24 24l0 8 48 0 0-8c0-13.3 10.7-24 24-24s24 10.7 24 24l0 8 0 32 0 16 0 48 0 2.7c18.6 6.6 32 24.4 32 45.3l0 48c0 .9 0 1.8-.1 2.7c18.7 6.6 32.1 24.4 32.1 45.3l0 64c0 .9 0 1.8-.1 2.7c18.7 6.6 32.1 24.4 32.1 45.3l0 80c0 26.5-21.5 48-48 48L48 512c-26.5 0-48-21.5-48-48l0-80c0-20.9 13.4-38.7 32.1-45.3c0-.9-.1-1.8-.1-2.7l0-64c0-20.9 13.4-38.7 32.1-45.3c0-.9-.1-1.8-.1-2.7l0-48c0-20.9 13.4-38.7 32-45.3l0-2.7 0-48 0-16 0-32 0-8c0-13.3 10.7-24 24-24zm24 80l0 48 224 0 0-48L144 80zm-32 96l0 48 48 0 0-48-16 0-32 0zm208 48l0-48-128 0 0 48 32 0c0-17.7 14.3-32 32-32s32 14.3 32 32l32 0zm32-48l0 48 48 0 0-48-32 0-16 0zm0 96l-192 0 0 64 64 0 0-16c0-17.7 14.3-32 32-32s32 14.3 32 32l0 16 64 0 0-64zm32 64l48 0 0-64-32 0-16 0 0 64zM128 464l80 0 0-16c0-26.5 21.5-48 48-48s48 21.5 48 48l0 16 80 0 0-80-32 0-192 0-32 0 0 80zm288 0l48 0 0-80-32 0-16 0 0 80zM128 272l-16 0-32 0 0 64 48 0 0-64zM96 384l-16 0-32 0 0 80 48 0 0-80z"/></svg>