<svg xmlns="http://www.w3.org/2000/svg" viewBox="0 0 640 512"><!--! Font Awesome Pro 6.6.0 by @fontawesome - https://fontawesome.com License - https://fontawesome.com/license (Commercial License) Copyright 2024 Fonticons, Inc. --><path d="M38.8 5.1C28.4-3.1 13.3-1.2 5.1 9.2S-1.2 34.7 9.2 42.9l592 464c10.4 8.2 25.5 6.3 33.7-4.1s6.3-25.5-4.1-33.7L501.8 368l46.5 0c5.5 9.6 15.9 16 27.7 16l32 0c17.7 0 32-14.3 32-32l0-208c0-8.8-7.2-16-16-16l-40 0-40 0-38.9 0L475 101.2C448 77.3 413.2 64 377.1 64c-37.6 0-73.9 14.4-101.2 40.2l-50.1 47.4-31.2-24.4c8.3-5 17.2-8.9 26.5-11.5l51.1-51.1c-4.4-.4-8.8-.6-13.2-.6l-10.3 0c-34 0-66.9 11.4-93.6 32.2L38.8 5.1zM263.9 181.5l44.9-42.4c18.5-17.4 42.9-27.1 68.3-27.1c24.4 0 47.9 8.9 66.1 25.1l36.9 32.8c4.4 3.9 10.1 6.1 15.9 6.1l48 0 0 144-88 0-15.4 0-99.4-77.9 35.1-32.4c9.7-9 10.3-24.2 1.4-33.9s-24.2-10.3-33.9-1.4l-40.9 37.7-39-30.5zM96 171.6L40.6 128 16 128c-8.8 0-16 7.2-16 16L0 352c0 17.7 14.3 32 32 32l32 0c17.6 0 32-14.3 32-31.9c7.7 .5 14.9 3.8 20.4 9.3L152 397l7 7L185.9 431c23.6 23.6 60.9 24.9 86 4.1c30.4 22 73 19.3 100.4-8.1c7.3-7.3 12.8-15.6 16.6-24.5l-42-33.1c.8 8.5-2.1 17.2-8.6 23.7c-11.6 11.6-30.4 11.6-41.9 0l-10.7-10.7c-5.8-5.8-14.2-8.2-22.2-6.5s-14.6 7.5-17.3 15.3c-.8 2.1-2 4.1-3.7 5.8c-6.2 6.2-16.4 6.2-22.6 0L193 370.1c0 0 0 0 0 0l-7-7-35.6-35.6C135.8 313 116.4 304.6 96 304l0-80 0-48 0-4.4zM32 336a16 16 0 1 1 32 0 16 16 0 1 1 -32 0zm560-16a16 16 0 1 1 0 32 16 16 0 1 1 0-32z"/></svg>