<svg xmlns="http://www.w3.org/2000/svg" viewBox="0 0 576 512"><!--! Font Awesome Pro 6.6.0 by @fontawesome - https://fontawesome.com License - https://fontawesome.com/license (Commercial License) Copyright 2024 Fonticons, Inc. --><path d="M163.9 136.9c-29.4-29.8-29.4-78.2 0-108s77-29.8 106.4 0l17.7 18 17.7-18c29.4-29.8 77-29.8 106.4 0s29.4 78.2 0 108L310.5 240.1c-6.2 6.3-14.3 9.4-22.5 9.4s-16.3-3.1-22.5-9.4L163.9 136.9zM187.4 352c-7.9 0-15.6 2.3-22.2 6.7L85.3 412c-3.9 2.6-8.6 4-13.3 4l-48 0c-13.3 0-24-10.7-24-24s10.7-24 24-24l40.7 0 73.8-49.2C153 309.1 170 304 187.4 304L344 304c35.3 0 64 28.7 64 64c0 .7 0 1.3 0 2l64.9-40c10.7-6.6 22.9-10 35.5-10l7.4 0c33.3 0 60.3 27 60.3 60.3c0 20.4-10.4 39.5-27.5 50.6l-95.6 61.9c-19.4 12.6-42.1 19.3-65.2 19.3L24 512c-13.3 0-24-10.7-24-24s10.7-24 24-24l363.7 0c13.9 0 27.5-4 39.1-11.6l95.6-61.9c3.5-2.3 5.6-6.1 5.6-10.3c0-6.8-5.5-12.3-12.3-12.3l-7.4 0c-3.6 0-7.2 1-10.3 2.9l-93.5 57.5c-3.8 2.3-8.1 3.6-12.6 3.6l-48 0-24 0-64 0c-13.3 0-24-10.7-24-24s10.7-24 24-24l64 0 24 0c8.8 0 16-7.2 16-16s-7.2-16-16-16l-156.6 0z"/></svg>