<svg xmlns="http://www.w3.org/2000/svg" viewBox="0 0 640 512"><!--! Font Awesome Pro 6.6.0 by @fontawesome - https://fontawesome.com License - https://fontawesome.com/license (Commercial License) Copyright 2024 Fonticons, Inc. --><path d="M320 80a40 40 0 1 0 0-80 40 40 0 1 0 0 80zm44.7 84.3L384.5 181c10.1 8.6 25.3 7.3 33.8-2.8s7.3-25.3-2.8-33.8l-27.9-23.6C368.7 104.8 344.7 96 320 96s-48.7 8.8-67.6 24.7l-27.9 23.6c-10.1 8.6-11.4 23.7-2.8 33.8s23.7 11.4 33.8 2.8l19.8-16.7L264.2 253c-1.6 13.2 7.7 25.1 20.8 26.8s25.1-7.7 26.8-20.8l4.4-35 7.6 0 4.4 35c1.6 13.2 13.6 22.5 26.8 20.8s22.5-13.6 20.8-26.8l-11.1-88.8zM144 136c0-39.8-32.2-72-72-72S0 96.2 0 136L0 352.2c0 31.8 12.6 62.3 35.1 84.9L103 505c9.4 9.4 24.6 9.4 33.9 0s9.4-24.6 0-33.9L69.1 403.1C55.6 389.6 48 371.3 48 352.2L48 136c0-13.3 10.7-24 24-24s24 10.7 24 24l0 145.9c0 25.6 10.2 50.2 28.3 68.4l15.9 15.9s0 0 0 0L167 393c0 0 0 0 0 0l16 16c9.4 9.4 24.6 9.4 33.9 0s9.4-24.6 0-33.9l-16-16s0 0 0 0l-26.7-26.7c-4-4-6.2-9.4-6.2-15c0-11.7 9.5-21.3 21.3-21.3c5.6 0 11 2.2 15 6.2l61.4 61.4C285.1 383 296 409.4 296 436.8l0 51.2c0 13.3 10.7 24 24 24s24-10.7 24-24l0-51.2c0-27.4 10.9-53.8 30.3-73.2l61.4-61.4c4-4 9.4-6.2 15-6.2c11.7 0 21.3 9.5 21.3 21.3c0 5.6-2.2 11-6.2 15L439 359c0 0 0 0 0 0l-16 16c-9.4 9.4-9.4 24.6 0 33.9s24.6 9.4 33.9 0l16-16c0 0 0 0 0 0l26.7-26.7c0 0 0 0 0 0l15.9-15.9c18.1-18.1 28.3-42.7 28.3-68.4L544 136c0-13.3 10.7-24 24-24s24 10.7 24 24l0 216.2c0 19.1-7.6 37.4-21.1 50.9L503 471c-9.4 9.4-9.4 24.6 0 33.9s24.6 9.4 33.9 0l67.9-67.9c22.5-22.5 35.1-53 35.1-84.9L640 136c0-39.8-32.2-72-72-72s-72 32.2-72 72l0 128.8c-12.1-10.5-28-16.8-45.3-16.8c-18.4 0-36 7.3-49 20.3l-61.4 61.4c-7.7 7.7-14.5 16.2-20.4 25.3c-5.8-9.1-12.6-17.5-20.4-25.3l-61.4-61.4c-13-13-30.6-20.3-49-20.3c-17.3 0-33.1 6.3-45.3 16.8L144 136z"/></svg>