<svg xmlns="http://www.w3.org/2000/svg" viewBox="0 0 576 512"><!--! Font Awesome Pro 6.6.0 by @fontawesome - https://fontawesome.com License - https://fontawesome.com/license (Commercial License) Copyright 2024 Fonticons, Inc. --><path d="M192 128c0 29.9 20.4 58.1 53.8 71.8c9.9 4.1 15.9 14.2 14.7 24.9L258.8 240l58.4 0-1.7-15.3c-1.2-10.6 4.8-20.8 14.7-24.9C363.6 186.1 384 157.9 384 128c0-41.1-39.6-80-96-80s-96 38.9-96 80zM288 0c76.2 0 144 54.2 144 128c0 46.7-27.7 86.1-66.9 108.2l2.8 25.2c.8 6.8-1.4 13.6-6 18.7s-11.1 8-17.9 8l-112 0c-6.8 0-13.3-2.9-17.9-8s-6.7-11.9-6-18.7l2.8-25.2C171.7 214.1 144 174.7 144 128C144 54.2 211.8 0 288 0zM187.4 352c-7.9 0-15.6 2.3-22.2 6.7L85.3 412c-3.9 2.6-8.6 4-13.3 4l-48 0c-13.3 0-24-10.7-24-24s10.7-24 24-24l40.7 0 73.8-49.2C153 309.1 170 304 187.4 304L344 304c35.3 0 64 28.7 64 64c0 .7 0 1.3 0 2l64.9-40c10.7-6.6 22.9-10 35.5-10l7.4 0c33.3 0 60.3 27 60.3 60.3c0 20.4-10.4 39.5-27.5 50.6l-95.6 61.9c-19.4 12.6-42.1 19.3-65.2 19.3L24 512c-13.3 0-24-10.7-24-24s10.7-24 24-24l363.7 0c13.9 0 27.5-4 39.1-11.6l95.6-61.9c3.5-2.3 5.6-6.1 5.6-10.3c0-6.8-5.5-12.3-12.3-12.3l-7.4 0c-3.6 0-7.2 1-10.3 2.9l-93.5 57.5c-3.8 2.3-8.1 3.6-12.6 3.6l-48 0-24 0-64 0c-13.3 0-24-10.7-24-24s10.7-24 24-24l64 0 24 0c8.8 0 16-7.2 16-16s-7.2-16-16-16l-156.6 0zM224 120a24 24 0 1 1 48 0 24 24 0 1 1 -48 0zM328 96a24 24 0 1 1 0 48 24 24 0 1 1 0-48z"/></svg>