<svg xmlns="http://www.w3.org/2000/svg" viewBox="0 0 640 512"><!--! Font Awesome Pro 6.6.0 by @fontawesome - https://fontawesome.com License - https://fontawesome.com/license (Commercial License) Copyright 2024 Fonticons, Inc. --><path d="M264 320c39.8 0 72-32.2 72-72l0-8 104 0c13.3 0 24 10.7 24 24c0 11.7-8.4 21.5-19.4 23.6c-7.7 1.5-14.2 6.6-17.4 13.8s-2.7 15.5 1.4 22.2c2.2 3.6 3.4 7.8 3.4 12.4c0 13.3-10.7 24-24 24s-24 10.7-24 24c0 8.8-7.2 16-16 16l-16 0-32 0-66.7 0c-14.9 0-29.1 5.9-39.6 16.4L159 471c-9.4 9.4-9.4 24.6 0 33.9s24.6 9.4 33.9 0l54.6-54.6c1.5-1.5 3.5-2.3 5.7-2.3l66.7 0 32 0 16 0c28 0 51.8-17.9 60.5-42.9c29.8-8.8 51.5-36.4 51.5-69.1c0-3.9-.3-7.8-.9-11.5C498.9 311.7 512 289.4 512 264c0-39.8-32.2-72-72-72l-104 0 0-24c0-13.3-10.7-24-24-24s-24 10.7-24 24l0 80c0 13.3-10.7 24-24 24s-24-10.7-24-24l0-96c0-22.1 17.9-40 40-40l138.7 0c14.9 0 29.1-5.9 39.6-16.4L513 41c9.4-9.4 9.4-24.6 0-33.9s-24.6-9.4-33.9 0L424.4 61.7c-1.5 1.5-3.5 2.3-5.7 2.3L280 64c-48.6 0-88 39.4-88 88l0 96c0 39.8 32.2 72 72 72zM160 132.5c-19 7.5-33.9 23.6-39.4 44.2L99 257.5c-.4 1.4-1.1 2.6-2.1 3.6L7 351c-9.4 9.4-9.4 24.6 0 33.9s24.6 9.4 33.9 0L130.9 295c7-7 12-15.6 14.5-25.2L160 215.1l0-82.6zM543.2 250.8L633 161c9.4-9.4 9.4-24.6 0-33.9s-24.6-9.4-33.9 0l-75.3 75.3c10.3 13.9 17.1 30.5 19.4 48.5z"/></svg>