<svg xmlns="http://www.w3.org/2000/svg" viewBox="0 0 512 512"><!--! Font Awesome Pro 6.6.0 by @fontawesome - https://fontawesome.com License - https://fontawesome.com/license (Commercial License) Copyright 2024 Fonticons, Inc. --><path d="M512 176c0-35.3-28.7-64-64-64l-188.8 0c-3.6-5.2-7.6-10.2-11.9-14.9L228.8 76.8C212.1 58.5 188.5 48 163.7 48l-10.2 0C99.5 48 49.5 76.7 22.2 123.4L20.7 126C7.1 149.3 0 175.7 0 202.6L0 328c0 66.3 53.7 120 120 120l8 0 96 0c35.3 0 64-28.7 64-64c0-2.8-.2-5.6-.5-8.3c19.4-11 32.5-31.8 32.5-55.7c0-5.3-.7-10.5-1.9-15.5c20.2-10.8 33.9-32 33.9-56.5c0-2.7-.2-5.4-.5-8l96.5 0c35.3 0 64-28.7 64-64zm-64-16c8.8 0 16 7.2 16 16s-7.2 16-16 16l-136 0c-10.3 0-19.5 6.6-22.8 16.4s.1 20.6 8.3 26.8c3.9 3 6.4 7.6 6.4 12.8c0 8.8-7.2 16-16 16l-8 0c-10.3 0-19.5 6.6-22.8 16.4s.1 20.6 8.3 26.8c3.9 3 6.4 7.6 6.4 12.8c0 8.8-7.2 16-16 16c-9.1 0-17.4 5.1-21.5 13.3s-3.2 17.9 2.3 25.1c2 2.7 3.2 6 3.2 9.6c0 8.8-7.2 16-16 16l-96 0-8 0c-39.8 0-72-32.2-72-72l0-125.4c0-18.4 4.9-36.5 14.2-52.4l-20-11.7 20 11.7 1.5-2.6c18.6-32 52.8-51.6 89.8-51.6l10.2 0c11.3 0 22 4.8 29.6 13.1L210.5 128 168 128c-8.8 0-16 7.2-16 16s7.2 16 16 16l78 0 2 0 200 0z"/></svg>