<svg xmlns="http://www.w3.org/2000/svg" viewBox="0 0 448 512"><!--! Font Awesome Pro 6.6.0 by @fontawesome - https://fontawesome.com License - https://fontawesome.com/license (Commercial License) Copyright 2024 Fonticons, Inc. --><path d="M112 80c8.8 0 16 7.2 16 16l0 80-16 0c-5.5 0-10.8 .6-16 1.6L96 96c0-8.8 7.2-16 16-16zm0 144l40 0 40 0c8.8 0 16 7.2 16 16s-7.2 16-16 16l-40 0c-13.3 0-24 10.7-24 24s10.7 24 24 24l40 0c35.3 0 64-28.7 64-64c0-.7 0-1.4 0-2c5.1 1.3 10.5 2 16 2c7.9 0 15.4-1.4 22.4-4c10.4 21.3 32.3 36 57.6 36c5.2 0 10.2-.6 15-1.8c-4.4 32.4-23.8 60.1-51.1 75.9c-7.4 4.3-12 12.2-12 20.8L304 488c0 13.3 10.7 24 24 24s24-10.7 24-24l0-108.1c38.7-27.5 64-72.8 64-123.9l0-48 0-16 0-32c0-35.3-28.7-64-64-64c-5.5 0-10.9 .7-16 2l0-2c0-35.3-28.7-64-64-64c-7.9 0-15.4 1.4-22.4 4C239.2 14.7 217.3 0 192 0s-47.2 14.7-57.6 36c-7-2.6-14.5-4-22.4-4C76.7 32 48 60.7 48 96l0 104c0 2.3 .3 4.6 1 6.7C38.3 220.3 32 237.4 32 256c0 64.2 39.8 119 96 141.3l0 90.7c0 13.3 10.7 24 24 24s24-10.7 24-24l0-108c0-11-7.4-20.5-18-23.2C113.1 345.2 80 304.4 80 256c0-17.7 14.3-32 32-32zm256-32l0 16c0 8.8-7.2 16-16 16s-16-7.2-16-16l0-32 0-16c0-8.8 7.2-16 16-16s16 7.2 16 16l0 32zM176 176l0-80 0-32c0-8.8 7.2-16 16-16s16 7.2 16 16l0 32 0 80 0 2c-5.1-1.3-10.5-2-16-2l-16 0zm80 0l0-80c0-8.8 7.2-16 16-16s16 7.2 16 16l0 64 0 16c0 8.8-7.2 16-16 16s-16-7.2-16-16z"/></svg>