<svg xmlns="http://www.w3.org/2000/svg" viewBox="0 0 512 512"><!--! Font Awesome Pro 6.6.0 by @fontawesome - https://fontawesome.com License - https://fontawesome.com/license (Commercial License) Copyright 2024 Fonticons, Inc. --><path d="M256 0c-12.7 0-23 9.8-23.9 22.2c-9.4-8.1-23.7-7.7-32.6 1.2s-9.4 23.2-1.2 32.6C185.8 57 176 67.3 176 80s9.8 23 22.2 23.9c-8.1 9.4-7.7 23.7 1.2 32.6s23.2 9.4 32.6 1.2C233 150.2 243.3 160 256 160s23-9.8 23.9-22.2c9.4 8.1 23.7 7.7 32.6-1.2s9.4-23.2 1.2-32.6C326.2 103 336 92.7 336 80s-9.8-23-22.2-23.9c8.1-9.4 7.7-23.7-1.2-32.6s-23.2-9.4-32.6-1.2C279 9.8 268.7 0 256 0zM48 416c-26.5 0-48 21.5-48 48s21.5 48 48 48l416 0c26.5 0 48-21.5 48-48s-21.5-48-48-48L48 416zM162.5 134.6C42.8 199.9 32 384 32 384l48.1 0c.1-1.5 .3-3.7 .6-6.3c.7-6.5 2-16 4.2-27.4c.9-4.9 2-10.1 3.2-15.5l36.3-18.1c2.3-1.1 4.9-1.1 7.2 0L167 334.3c15.8 7.9 34.3 7.9 50.1 0l35.4-17.7c2.3-1.1 4.9-1.1 7.2 0L295 334.3c15.8 7.9 34.3 7.9 50.1 0l35.4-17.7c2.3-1.1 4.9-1.1 7.2 0l36.3 18.1c1.2 5.4 2.3 10.6 3.2 15.5c2.1 11.5 3.4 21 4.2 27.4c.3 2.6 .5 4.7 .6 6.3l48.1 0s-10.8-184.1-130.5-249.4c-2.5 9-7.3 17.5-14.4 24.6c-5.6 5.6-12.2 9.8-19.2 12.6c41 17.8 67.7 53.9 86 95.6c.6 1.3 1.2 2.7 1.7 4c-14.5-5.5-30.8-4.7-44.9 2.3l-35.4 17.7c-2.3 1.1-4.9 1.1-7.2 0L281 273.7c-15.8-7.9-34.3-7.9-50.1 0l-35.4 17.7c-2.3 1.1-4.9 1.1-7.2 0L153 273.7c-14.1-7-30.3-7.8-44.9-2.3c.6-1.3 1.2-2.7 1.7-4c18.4-41.7 45.1-77.8 86-95.6c-7-2.7-13.5-6.9-19.2-12.6c-7.1-7.1-11.9-15.6-14.4-24.6z"/></svg>