<svg xmlns="http://www.w3.org/2000/svg" viewBox="0 0 576 512"><!--! Font Awesome Pro 6.6.0 by @fontawesome - https://fontawesome.com License - https://fontawesome.com/license (Commercial License) Copyright 2024 Fonticons, Inc. --><path d="M148.4 384L96 384l85.9-196.3C198.8 149 228 116.9 265 96.5l170.4-94c3-1.7 6.4-2.5 9.9-2.5c7 0 13.7 2.4 19.1 6.7L564 86.4c7.6 6.1 12 15.3 12 25l0 9.6c0 4.6-1 9.2-2.9 13.4l-39.1 84.7c-3.6 7.9-11.5 12.9-20.1 12.9c-10.4 0-19.4-7.2-21.7-17.4l-8-35.9C481.7 167.8 472 160 460.8 160c-8 0-15.5 4-19.9 10.7l-19.5 29.3c-3.5 5.3-5.4 11.5-5.4 17.8c0 4.1 .8 8.2 2.3 11.9L480 384l-51.7 0L373.7 247.5s0 0 0 0c-3.8-9.5-5.7-19.7-5.7-29.8c0-15.7 4.6-31.2 13.4-44.5L401 144c13.3-20 35.8-32 59.8-32c22.8 0 43.6 10.7 56.9 27.9l9.8-21.2L444.6 52.3 288.2 138.6c-27.7 15.3-49.7 39.3-62.4 68.4L148.4 384zM240 336c0-17.7 14.3-32 32-32l32 0c17.7 0 32 14.3 32 32l0 48-96 0 0-48zm313.4 80c12.5 0 22.6 10.1 22.6 22.6c0 6-2.4 11.7-6.9 15.6C550.1 470.3 493.4 512 416 512l-256 0C82.6 512 25.9 470.3 6.9 454.2C2.4 450.4 0 444.6 0 438.6C0 426.1 10.1 416 22.6 416l530.7 0z"/></svg>