<svg xmlns="http://www.w3.org/2000/svg" viewBox="0 0 640 512"><!--! Font Awesome Pro 6.6.0 by @fontawesome - https://fontawesome.com License - https://fontawesome.com/license (Commercial License) Copyright 2024 Fonticons, Inc. --><path d="M254.2 82.7c-2 2.8-4.4 6.7-7.1 11.8C236.8 114 226.9 142 218.2 173c-8.5 30.4-15.3 61-19.9 84.3c-.9 4.7-1.8 9.1-2.5 13.1c-16.8-5-32-10.6-45.7-16.6C163.6 184.2 198.7 32 248 32c21.3 0 31.6 9.1 41.2 17.6C297.7 57 305.6 64 320 64s22.3-7 30.8-14.4C360.4 41.1 370.7 32 392 32c49.4 0 84.4 152.2 97.9 221.9c-13.7 5.9-28.9 11.6-45.7 16.6c-.8-4-1.6-8.4-2.5-13.2c-4.6-23.3-11.3-54-19.9-84.3c-8.7-30.9-18.6-59-28.9-78.5c-2.7-5.1-5.1-9-7.1-11.8c-.5 .4-1 .9-1.6 1.4c-.5 .5-1.1 1-1.8 1.6c0 0 0 0 0 0s0 0 0 0C374 93.3 353.4 112 320 112s-54-18.7-62.3-26.2c0 0 0 0 0 0s0 0 0 0c-.7-.6-1.3-1.2-1.8-1.6c-.6-.5-1.2-1-1.6-1.4zM380.9 77c0 0 0 0-.1 0c0 0 0 0 0 0c0 0 0 0 .1 0zM259.1 77l.1 0c0 0 0 0-.1 0zm-148 193.7c47.2 24.5 117.5 49.3 209 49.3s161.8-24.8 208.9-49.3c24.8-12.9 49.8-28.3 70.1-47.7c7.9-7.9 20.2-9.2 29.6-3.3c9.5 5.9 13.5 17.9 9.9 28.5c-13.5 37.7-38.4 72.3-66.1 100.6C523.7 398.9 443.6 448 320 448s-203.6-49.1-252.5-99.2C39.8 320.4 14.9 285.8 1.4 248.1c-3.6-10.6 .4-22.6 9.9-28.5c9.5-5.9 21.7-4.5 29.6 3.3c20.4 19.4 45.3 34.8 70.1 47.7z"/></svg>