<svg xmlns="http://www.w3.org/2000/svg" viewBox="0 0 640 512"><!--! Font Awesome Pro 6.6.0 by @fontawesome - https://fontawesome.com License - https://fontawesome.com/license (Commercial License) Copyright 2024 Fonticons, Inc. --><path d="M129 75.8C156.4 58.2 189 48 224 48l24 0c60.1 0 115.7 36.7 139.6 88.3c3.9 8.4 7.5 17 11.4 25.9l1.5 3.5c4.3 10.1 8.9 20.7 13.9 31.1c10.1 20.8 22.5 42 40.6 60.1l4.4 4.4c2.9 2.9 4.6 6.9 4.6 11c0 8.6-7 15.6-15.6 15.6L424 288c-6.3 0-12 2.4-16.2 6.3L129 75.8zM459.7 335c29.7-5.3 52.3-31.3 52.3-62.6c0-16.9-6.7-33-18.6-45L489 223c-12.7-12.7-22.4-28.5-31.4-47.1c-4.5-9.3-8.7-18.9-13-29l-1.5-3.5c-3.8-8.9-7.8-18.2-12-27.3C399.4 47.6 326.8 0 248 0L224 0C173.5 0 127 16.7 89.5 44.8L38.8 5.1C28.4-3.1 13.3-1.2 5.1 9.2S-1.2 34.7 9.2 42.9l592 464c10.4 8.2 25.5 6.3 33.7-4.1s6.3-25.5-4.1-33.7L459.7 335zM27 117.3C9.8 149 0 185.4 0 224c0 53.6 18.9 102.9 50.3 141.5c8.9 11 13.7 22.4 13.7 33.1L64 488c0 13.3 10.7 24 24 24s24-10.7 24-24l0-89.4c0-24.9-10.9-46.8-24.5-63.4C62.8 304.8 48 266.2 48 224c0-27.4 6.3-53.3 17.4-76.4L27 117.3zM339.2 363.2l-1.3 .3c-10.5 2.6-17.8 12-17.8 22.8c0 12.2 9.4 22.4 21.6 23.4l58.4 4.9 0 9.3 0 8c0 8.8-7.2 16-16 16l-88 0c-13.3 0-24 10.7-24 24l0 16c0 13.3 10.7 24 24 24c10.4 0 19.3-6.7 22.6-16l65.4 0c30 0 55.2-20.6 62.1-48.5l-107-84.3zM640 384a24 24 0 1 0 -48 0 24 24 0 1 0 48 0zm-88-24a24 24 0 1 0 0-48 24 24 0 1 0 0 48zm88-72a24 24 0 1 0 -48 0 24 24 0 1 0 48 0z"/></svg>