<svg xmlns="http://www.w3.org/2000/svg" viewBox="0 0 576 512"><!--! Font Awesome Pro 6.6.0 by @fontawesome - https://fontawesome.com License - https://fontawesome.com/license (Commercial License) Copyright 2024 Fonticons, Inc. --><path d="M225.8 468.2l-2.5-2.3L48.1 303.2C17.4 274.7 0 234.7 0 192.8l0-3.3c0-70.4 50-130.8 119.2-144C158.6 37.9 198.9 47 231 69.6c9 6.4 17.4 13.8 25 22.3c4.2-4.8 8.7-9.2 13.5-13.3c3.7-3.2 7.5-6.2 11.5-9c0 0 0 0 0 0C313.1 47 353.4 37.9 392.8 45.4C462 58.6 512 119.1 512 189.5l0 3.3c0 6-.4 12-1.1 17.9c-14.6-7.3-30.4-12.7-47-15.8c0-.7 0-1.4 0-2.1l0-3.3c0-47.3-33.6-88-80.1-96.9c-34-6.5-69 5.4-92 31.2c0 0 0 0-.1 .1s0 0-.1 .1l-17.8 20c-.3 .4-.7 .7-1 1.1c-4.5 4.5-10.6 7-16.9 7s-12.4-2.5-16.9-7c-.4-.3-.7-.7-1-1.1l-17.8-20-.1-.1s0 0 0 0c-23.1-25.9-58-37.7-92-31.2C81.6 101.5 48 142.1 48 189.5l0 3.3c0 28.5 11.9 55.8 32.8 75.2L256 430.7l8.7-8c5.3 16.1 12.8 31.2 22.2 44.9l-.6 .6c-8.2 7.6-19 11.9-30.2 11.9s-22-4.2-30.2-11.9zM432 224a144 144 0 1 1 0 288 144 144 0 1 1 0-288zm0 240a24 24 0 1 0 0-48 24 24 0 1 0 0 48zm0-192c-8.8 0-16 7.2-16 16l0 80c0 8.8 7.2 16 16 16s16-7.2 16-16l0-80c0-8.8-7.2-16-16-16z"/></svg>