<svg xmlns="http://www.w3.org/2000/svg" viewBox="0 0 512 512"><!--! Font Awesome Pro 6.6.0 by @fontawesome - https://fontawesome.com License - https://fontawesome.com/license (Commercial License) Copyright 2024 Fonticons, Inc. --><path d="M256 0a48 48 0 1 1 0 96 48 48 0 1 1 0-96zM128 144a48 48 0 1 1 96 0 48 48 0 1 1 -96 0zm160 0a48 48 0 1 1 96 0 48 48 0 1 1 -96 0zM161.4 264.5c-1.7 58.6-42.3 107.5-97 121.6c6.2 22 7.2 45.1 2.7 67.4c24.9-6.1 50.9-5.4 75.4 1.9c1.7-58.6 42.3-107.5 97-121.6c-6.2-22-7.1-45.1-2.7-67.4c-24.9 6.1-50.9 5.4-75.4-1.9zM113.4 232c0-16.2 15.6-27.7 31.1-22.9l29.8 9.2c16.8 5.2 34.8 5.7 51.8 1.3l39-9.9c11.1-2.8 21.5 2.5 26.6 11.2c15.2 2.8 30.9 1.9 45.7-2.7l29.8-9.2c15.4-4.8 31.1 6.8 31.1 22.9l0 28.8c0 44.9 36.4 81.4 81.4 81.4c16.6 0 28.2 16.5 22.6 32.1l-6.7 18.6c-6.9 19.2-7.5 40.1-1.8 59.6l8.1 27.7c5.2 17.8-10.9 34.6-28.9 30l-39-9.9c-17.1-4.3-35-3.8-51.8 1.3l-29.8 9.2c-15.4 4.8-31.1-6.8-31.1-22.9l0-28.8c0-39.5-28.1-72.4-65.4-79.8c0 0 0 0 0 0c-37.4 7.4-65.6 40.3-65.6 79.8l0 28.8c0 16.2-15.6 27.7-31.1 22.9l-29.8-9.2c-16.8-5.2-34.8-5.7-51.8-1.3l-39 9.9c-18 4.6-34.2-12.2-28.9-30l8.1-27.7c5.8-19.6 5.1-40.4-1.8-59.6L9.5 374.3c-5.6-15.6 6-32.1 22.6-32.1c44.9 0 81.4-36.4 81.4-81.4l0-28.8zM292.7 341c44.2 19.7 75.2 63.4 76.7 114.5c24.5-7.3 50.6-8 75.4-1.9c-4.5-22.4-3.5-45.5 2.7-67.4c-54.7-14.1-95.3-62.9-97-121.6c-21.1 6.3-43.3 7.7-64.9 4.1c-5.4 19.2-4.7 39.7 2.1 58.5l5 13.9z"/></svg>