<svg xmlns="http://www.w3.org/2000/svg" viewBox="0 0 576 512"><!--! Font Awesome Pro 6.6.0 by @fontawesome - https://fontawesome.com License - https://fontawesome.com/license (Commercial License) Copyright 2024 Fonticons, Inc. --><path d="M64 48l192 0c8.8 0 16 7.2 16 16l0 351.7c11.3-20 27.9-36.7 48-47.9l0-95.9L320 64c0-35.3-28.7-64-64-64L64 0C28.7 0 0 28.7 0 64L0 448c0 35.3 28.7 64 64 64l192 0c3.2 0 6.4-.2 9.5-.7c-6-10-9.5-21.8-9.5-34.4c0-4.4 .2-8.7 .7-13c-.2 0-.4 0-.7 0L64 464c-8.8 0-16-7.2-16-16l0-32 88 0c13.3 0 24-10.7 24-24s-10.7-24-24-24l-88 0 0-48 88 0c13.3 0 24-10.7 24-24s-10.7-24-24-24l-88 0L48 64c0-8.8 7.2-16 16-16zm72 64l0 24-24 0c-8.8 0-16 7.2-16 16l0 16c0 8.8 7.2 16 16 16l24 0 0 24c0 8.8 7.2 16 16 16l16 0c8.8 0 16-7.2 16-16l0-24 24 0c8.8 0 16-7.2 16-16l0-16c0-8.8-7.2-16-16-16l-24 0 0-24c0-8.8-7.2-16-16-16l-16 0c-8.8 0-16 7.2-16 16zM512 272a80 80 0 1 0 -160 0 80 80 0 1 0 160 0zM288 477.1c0 19.3 15.6 34.9 34.9 34.9l218.2 0c19.3 0 34.9-15.6 34.9-34.9c0-51.4-41.7-93.1-93.1-93.1l-101.8 0c-51.4 0-93.1 41.7-93.1 93.1z"/></svg>