<svg xmlns="http://www.w3.org/2000/svg" viewBox="0 0 384 512"><!--! Font Awesome Pro 6.6.0 by @fontawesome - https://fontawesome.com License - https://fontawesome.com/license (Commercial License) Copyright 2024 Fonticons, Inc. --><path d="M0 488c0 13.3 10.7 24 24 24l336 0c13.3 0 24-10.7 24-24s-10.7-24-24-24l-8 0 0-19c0-40.3-16-79-44.5-107.5L225.9 256l81.5-81.5C336 146 352 107.3 352 67l0-19 8 0c13.3 0 24-10.7 24-24s-10.7-24-24-24L24 0C10.7 0 0 10.7 0 24S10.7 48 24 48l8 0 0 19c0 40.3 16 79 44.5 107.5L158.1 256 76.5 337.5C48 366 32 404.7 32 445l0 19-8 0c-13.3 0-24 10.7-24 24zM84.1 96C81.4 86.7 80 76.9 80 67l0-19 224 0 0 19c0 9.9-1.4 19.7-4.1 29L84.1 96zM273.5 371.5C293 391 304 417.4 304 445l0 19L80 464l0-19c0-27.6 11-54 30.5-73.5L192 289.9l81.5 81.5z"/></svg>