<svg xmlns="http://www.w3.org/2000/svg" viewBox="0 0 640 512"><!--! Font Awesome Pro 6.6.0 by @fontawesome - https://fontawesome.com License - https://fontawesome.com/license (Commercial License) Copyright 2024 Fonticons, Inc. --><path d="M528 0a48 48 0 1 1 0 96 48 48 0 1 1 0-96zM461.8 266.6c-1.1 3.2 0 6.6 2.5 8.7l16.3 13.3 32.4-103.8c.1-.3 .2-.7 .3-1c-6.7-3.5-14-5.9-21.7-7.1l-29.9 89.8zm59 54.6l50.1 40.7c6.9 5.6 11.8 13.4 13.8 22.1l22.8 98.6c3 12.9-5.1 25.8-18 28.8s-25.8-5.1-28.8-18l-22.1-96L434 312.6c-18.1-14.7-25.2-39.1-17.8-61.2L439 183.1c-24.7 9.8-44.7 28.9-55.6 53.3l-9.5 21.3c-5.4 12.1-19.6 17.6-31.7 12.2s-17.6-19.6-12.2-31.7l9.5-21.3c17.1-38.5 49.6-68 89.5-81.3c15.3-5.1 31.3-7.7 47.4-7.7l4.9 0c52.5 0 98.7 34.8 113.2 85.4l10.9 38.1L633 279c9.4 9.4 9.4 24.6 0 33.9s-24.6 9.4-33.9 0L570 283.9c-4.8-4.8-8.3-10.8-10.2-17.3l-10.5-36.7-28.5 91.3zm-101.1 21l39 31.7-19.2 48c-2 5-5 9.6-8.9 13.4L361 505c-9.4 9.4-24.6 9.4-33.9 0s-9.4-24.6 0-33.9l68.5-68.5 24.1-60.4zM255.2 5.4L391.9 116.8c-14.8 7.8-28.4 17.5-40.5 28.9L240 55 112 159.3 112 360c0 4.4 3.6 8 8 8l200 0 40 0 14.9 0-6.6 16.5L336.8 416 120 416c-30.9 0-56-25.1-56-56l0-161.6L39.2 218.6c-10.3 8.4-25.4 6.8-33.8-3.4s-6.8-25.4 3.4-33.8l216-176c8.8-7.2 21.5-7.2 30.3 0zM160 208c0-8.8 7.2-16 16-16l64 0c8.8 0 16 7.2 16 16l0 64c0 8.8-7.2 16-16 16l-64 0c-8.8 0-16-7.2-16-16l0-64z"/></svg>