<svg xmlns="http://www.w3.org/2000/svg" viewBox="0 0 640 512"><!--! Font Awesome Pro 6.6.0 by @fontawesome - https://fontawesome.com License - https://fontawesome.com/license (Commercial License) Copyright 2024 Fonticons, Inc. --><path d="M417.4 7.5C412.9 2.7 406.6 0 400 0s-12.9 2.7-17.4 7.5l-103.5 109 35.4 32.4 85.5-90L496.1 160 448 160c-9.6 0-18.2 5.7-22 14.5s-2 19 4.6 26L528.3 304 480 304c-9.4 0-17.9 5.4-21.8 13.9s-2.6 18.5 3.5 25.6L564.1 464 416 464c0 18-6 34.6-16 48l216 0c9.4 0 17.9-5.4 21.8-13.9s2.6-18.5-3.5-25.6L531.9 352l52.1 0c9.6 0 18.2-5.7 22-14.5s2-19-4.6-26L503.7 208l48.3 0c9.6 0 18.3-5.7 22.1-14.5s2-19-4.7-26l-152-160zM20.8 237C7.5 249.1 0 266.2 0 284.2L0 448c0 35.3 28.7 64 64 64l256 0c35.3 0 64-28.7 64-64l0-163.8c0-17.9-7.5-35.1-20.8-47.2l-128-117.3c-24.5-22.4-62-22.4-86.5 0L20.8 237zM48 284.2c0-4.5 1.9-8.8 5.2-11.8L181.2 155c6.1-5.6 15.5-5.6 21.6 0l128 117.3c3.3 3 5.2 7.3 5.2 11.8L336 448c0 8.8-7.2 16-16 16L64 464c-8.8 0-16-7.2-16-16l0-163.8zM144 296l0 48c0 13.3 10.7 24 24 24l48 0c13.3 0 24-10.7 24-24l0-48c0-13.3-10.7-24-24-24l-48 0c-13.3 0-24 10.7-24 24z"/></svg>