<svg xmlns="http://www.w3.org/2000/svg" viewBox="0 0 512 512"><!--! Font Awesome Pro 6.6.0 by @fontawesome - https://fontawesome.com License - https://fontawesome.com/license (Commercial License) Copyright 2024 Fonticons, Inc. --><path d="M171.2 99.6C175.3 61.2 207.8 32 246.5 32c45 0 80.1 39 75.3 83.8L308.8 236.4c-4.1 38.5-36.6 67.6-75.3 67.6c-45 0-80.1-39-75.3-83.8L171.2 99.6zM246.5 80c-14.2 0-26 10.7-27.5 24.8L206 225.3c-1.8 16.4 11.1 30.7 27.5 30.7c14.2 0 26-10.7 27.5-24.8L274 110.7C275.8 94.3 262.9 80 246.5 80zm-128-43.4c6.9 5.1 10.4 13.4 9.4 22l-32 256c-1.6 13.2-13.6 22.7-26.8 21.3s-22.5-13.3-20.8-26.4L75 95 41.4 109.9c-12.2 5.4-26.3 0-31.5-12.1s.4-26.3 12.6-31.7l72-32c7.9-3.5 17-2.6 23.9 2.5zM431.7 32c44.4 0 79.2 37.9 75.6 82.1l-7.4 88.4c-3.3 39.3-36.1 69.5-75.6 69.5c-44.4 0-79.2-37.9-75.6-82.1l7.4-88.4C359.4 62.2 392.2 32 431.7 32zM404 105.5l-7.4 88.4C395.2 210.1 408 224 424.3 224c14.5 0 26.5-11.1 27.7-25.5l7.4-88.4C460.8 93.9 448 80 431.7 80c-14.5 0-26.5 11.1-27.7 25.5zM511.7 323.9c2.3 13.1-6.5 25.5-19.6 27.7l-464 80C15 433.9 2.6 425.1 .3 412.1s6.5-25.5 19.6-27.7l464-80c13.1-2.3 25.5 6.5 27.7 19.6zM459.9 439.7l-240 40c-13.1 2.2-25.4-6.7-27.6-19.7s6.7-25.4 19.7-27.6l240-40c13.1-2.2 25.4 6.7 27.6 19.7s-6.7 25.4-19.7 27.6z"/></svg>