<svg xmlns="http://www.w3.org/2000/svg" viewBox="0 0 640 512"><!--! Font Awesome Pro 6.6.0 by @fontawesome - https://fontawesome.com License - https://fontawesome.com/license (Commercial License) Copyright 2024 Fonticons, Inc. --><path d="M189.9 48c-8.9 0-17.6 2.6-25 7.4L147.2 66.9c-2 1.3-3.2 3.6-3.2 6c0 3.9 3.2 7.1 7.1 7.1l15.3 0c27.9 0 49.7 24 47 51.7l-7.7 80.1c-2.7 28 1.7 56.3 12.7 82.2l3.6 8.5c5.2 12.2-.5 26.3-12.7 31.5s-26.3-.5-31.5-12.7l-3.6-8.5c-14.2-33.3-19.8-69.6-16.3-105.6l7.6-79.3-14.5 0C120.7 128 96 103.3 96 72.9c0-18.6 9.4-36 25.1-46.2l17.6-11.5C153.9 5.3 171.7 0 189.9 0l1 0C244.5 0 288 43.5 288 97.1l0 66c0 24.8 20.1 44.8 44.8 44.8l8.6 0c49.7 0 95.9 25.3 122.8 67L483.4 305c6 9.4 16.4 15 27.5 15c25 0 40.8-27 28.5-48.8l-24.2-43c-.5-.8-.9-1.7-1.3-2.6c-1.4-3.2-2-6.6-2-9.9s.8-6.7 2.3-9.9c1.2-2.6 2.9-4.9 4.9-7c2.1-2.1 4.6-3.7 7.2-4.9c3.2-1.4 6.6-2 9.9-2s6.7 .8 9.8 2.3c.9 .4 1.7 .9 2.6 1.4l30 18c38 22.8 61.3 63.9 61.3 108.2C640 391.5 583.5 448 513.8 448L496 448l0 24c0 22.1-17.9 40-40 40l-49.9 0c-20.2 0-37.2-15-39.7-35l-3.6-29-53.6 0-3.6 29c-2.5 20-19.5 35-39.7 35L216 512c-22.1 0-40-17.9-40-40l0-26.1c-54.7-10.4-96-58.5-96-116.2L80 304l-24.3 0C24.9 304 0 279.1 0 248.3c0-18 8.7-34.9 23.3-45.3l24.1-17.2C63.6 174.2 83 168 102.9 168c8.5 0 17 1.1 25.1 3.4l0 51.8c-7.5-4.7-16.2-7.2-25.1-7.2c-9.9 0-19.6 3.1-27.6 8.8L51.2 242.1c-2 1.4-3.2 3.8-3.2 6.3c0 4.2 3.4 7.7 7.7 7.7L88 256c22.1 0 40 17.9 40 40l0 33.7c0 38.8 31.5 70.3 70.3 70.3c14.2 0 25.7 11.5 25.7 25.7l0 38.3 34.8 0 5.4-43c1.5-12 11.7-21 23.8-21l96 0c12.1 0 22.3 9 23.8 21l5.4 43 34.8 0 0-40c0-13.3 10.7-24 24-24l41.8 0c43.2 0 78.2-35 78.2-78.2c0-6-.7-11.9-2-17.6c-7.7 35-38.4 63.8-79 63.8c-27.5 0-53.1-14-67.9-37.1L423.8 301c-18-28-49.1-45-82.4-45l-8.6 0c-51.3 0-92.8-41.6-92.8-92.8l0-66C240 70 218 48 190.9 48l-1 0zM389.6 176l-48.2 0-1.4 0 1-6.3c3.7-24 24.3-41.7 48.6-41.7l19.3 0c3.9 0 7.1-3.2 7.1-7.1c0-2.4-1.2-4.7-3.2-6l-17.6-11.5c-7.5-4.9-16.2-7.4-25-7.4l-8.4 0c-15.2 0-29.7 4.7-41.7 12.9l0-11.7c0-13.7-2.1-27-6.1-39.4c14.8-6.3 31.1-9.8 47.8-9.8l8.4 0c18.2 0 36 5.3 51.2 15.2l17.6 11.5c15.6 10.2 25.1 27.6 25.1 46.2c0 30.4-24.7 55.1-55.1 55.1l-19.3 0z"/></svg>