<svg xmlns="http://www.w3.org/2000/svg" viewBox="0 0 640 512"><!--! Font Awesome Pro 6.6.0 by @fontawesome - https://fontawesome.com License - https://fontawesome.com/license (Commercial License) Copyright 2024 Fonticons, Inc. --><path d="M216 0l23.8 0 .4 0L296 0c13.3 0 24 10.7 24 24s-10.7 24-24 24l-6.9 0c4.7 6.1 9.8 12.6 15.1 19.6c25.3 32.8 56.8 74.1 81.8 108.4l97.1 0c5.7 0 11.3 .9 16.7 2.5l108.1 33.8C627 218.3 640 236 640 256s-13 37.7-32.1 43.7L499.8 333.4c-5.4 1.7-11 2.6-16.7 2.6L386 336 288.5 464l7.5 0c13.3 0 24 10.7 24 24s-10.7 24-24 24l-55.8 0-.5 0L216 512l-32 0c-13.3 0-24-10.7-24-24s10.7-24 24-24l8 0 0-128-14.1 0-31.6 31.6c-10.5 10.5-24.7 16.4-39.6 16.4L88 384c-30.9 0-56-25.1-56-56l0-48-8 0c-13.3 0-24-10.7-24-24s10.7-24 24-24l8 0 0-48c0-30.9 25.1-56 56-56l18.7 0c14.9 0 29.1 5.9 39.6 16.4L177.9 176l14.1 0 0-128-8 0c-13.3 0-24-10.7-24-24s10.7-24 24-24l32 0zm24 176l86.4 0c-19.9-26.7-41.6-55.1-60.1-79.1C256.3 84 247.3 72.4 240 63l0 113zM80 280l0 48c0 4.4 3.6 8 8 8l18.7 0c2.1 0 4.2-.8 5.7-2.3L151 295c4.5-4.5 10.6-7 17-7l315.1 0c.8 0 1.6-.1 2.4-.4L586.7 256 485.5 224.4c-.8-.2-1.6-.4-2.4-.4L168 224c-6.4 0-12.5-2.5-17-7l-38.6-38.6c-1.5-1.5-3.5-2.3-5.7-2.3L88 176c-4.4 0-8 3.6-8 8l0 48 56 0c13.3 0 24 10.7 24 24s-10.7 24-24 24l-56 0zm160 56l0 112.4L325.6 336 240 336z"/></svg>