<svg xmlns="http://www.w3.org/2000/svg" viewBox="0 0 640 512"><!--! Font Awesome Pro 6.6.0 by @fontawesome - https://fontawesome.com License - https://fontawesome.com/license (Commercial License) Copyright 2024 Fonticons, Inc. --><path d="M560 256c0 29.6-8.9 57.1-24.2 80l40.2 0c8.8 0 16-7.2 16-16l0-128c0-8.8-7.2-16-16-16l-40.2 0c15.3 22.9 24.2 50.4 24.2 80zm16 128l-94 0c-19.8 10.2-42.2 16-66 16s-46.3-5.8-66-16l-108.2 0c-11.8 0-23.4-1.6-34.7-4.8c-39.3-11.1-136.7-38.7-184-52.5C9.4 322.7 0 310.2 0 296l0-80c0-14.2 9.4-26.7 23-30.7c47.3-13.8 144.7-41.4 184-52.5c11.3-3.2 23-4.8 34.7-4.8L350 128c19.8-10.2 42.2-16 66-16s46.3 5.8 66 16l94 0c35.3 0 64 28.7 64 64l0 128c0 35.3-28.7 64-64 64zM241.7 336l54.5 0c-15.3-22.9-24.2-50.4-24.2-80s8.9-57.1 24.2-80l-54.5 0c-7.4 0-14.6 1-21.7 3C183.7 189.3 97.9 213.6 48 228l0 56c49.9 14.5 135.7 38.7 172.1 49c7 2 14.3 3 21.7 3zM416 352a96 96 0 1 0 0-192 96 96 0 1 0 0 192zM398.1 209.9L416 227.7l17.9-17.9c7.8-7.8 20.5-7.8 28.3 0s7.8 20.5 0 28.3L444.3 256l17.9 17.9c7.8 7.8 7.8 20.5 0 28.3s-20.5 7.8-28.3 0L416 284.3l-17.9 17.9c-7.8 7.8-20.5 7.8-28.3 0s-7.8-20.5 0-28.3L387.7 256l-17.9-17.9c-7.8-7.8-7.8-20.5 0-28.3s20.5-7.8 28.3 0z"/></svg>