<svg xmlns="http://www.w3.org/2000/svg" viewBox="0 0 640 512"><!--! Font Awesome Pro 6.6.0 by @fontawesome - https://fontawesome.com License - https://fontawesome.com/license (Commercial License) Copyright 2024 Fonticons, Inc. --><path d="M453.8 34.1c5.6-12 .4-26.3-11.6-31.9s-26.3-.4-31.9 11.6l-216 464c-5.6 12-.4 26.3 11.6 31.9s26.3 .4 31.9-11.6l216-464zM45.5 109.3C39.5 97.4 25.1 92.6 13.3 98.5S-3.4 118.9 2.5 130.7l136 272c4.1 8.1 12.4 13.3 21.5 13.3s17.4-5.1 21.5-13.3l136-272c5.9-11.9 1.1-26.3-10.7-32.2s-26.3-1.1-32.2 10.7L160 338.3 45.5 109.3zm328.3 293L397.4 352l165.3 0 23.6 50.2c5.6 12 19.9 17.1 31.9 11.5s17.1-19.9 11.5-31.9l-128-272c-4-8.4-12.4-13.8-21.7-13.8s-17.8 5.4-21.7 13.8l-128 272c-5.6 12-.5 26.3 11.5 31.9s26.3 .5 31.9-11.5zM480 176.4L540.1 304l-120.1 0L480 176.4z"/></svg>