<svg xmlns="http://www.w3.org/2000/svg" viewBox="0 0 576 512"><!--! Font Awesome Pro 6.6.0 by @fontawesome - https://fontawesome.com License - https://fontawesome.com/license (Commercial License) Copyright 2024 Fonticons, Inc. --><path d="M64 48c-8.8 0-16 7.2-16 16l0 176c0 8.8 7.2 16 16 16l448 0c8.8 0 16-7.2 16-16l0-176c0-8.8-7.2-16-16-16L64 48zM0 64C0 28.7 28.7 0 64 0L512 0c35.3 0 64 28.7 64 64l0 176c0 35.3-28.7 64-64 64L64 304c-35.3 0-64-28.7-64-64L0 64zM159 359c9.4-9.4 24.6-9.4 33.9 0l95 95 95-95c9.4-9.4 24.6-9.4 33.9 0s9.4 24.6 0 33.9L305 505c-4.5 4.5-10.6 7-17 7s-12.5-2.5-17-7L159 393c-9.4-9.4-9.4-24.6 0-33.9zm1-167c0-8.8 7.2-16 16-16l224 0c8.8 0 16 7.2 16 16l0 16c0 8.8-7.2 16-16 16l-224 0c-8.8 0-16-7.2-16-16l0-16zM120 88l16 0c8.8 0 16 7.2 16 16l0 16c0 8.8-7.2 16-16 16l-16 0c-8.8 0-16-7.2-16-16l0-16c0-8.8 7.2-16 16-16zm64 16c0-8.8 7.2-16 16-16l16 0c8.8 0 16 7.2 16 16l0 16c0 8.8-7.2 16-16 16l-16 0c-8.8 0-16-7.2-16-16l0-16zm96-16l16 0c8.8 0 16 7.2 16 16l0 16c0 8.8-7.2 16-16 16l-16 0c-8.8 0-16-7.2-16-16l0-16c0-8.8 7.2-16 16-16zm64 16c0-8.8 7.2-16 16-16l16 0c8.8 0 16 7.2 16 16l0 16c0 8.8-7.2 16-16 16l-16 0c-8.8 0-16-7.2-16-16l0-16zm96-16l16 0c8.8 0 16 7.2 16 16l0 16c0 8.8-7.2 16-16 16l-16 0c-8.8 0-16-7.2-16-16l0-16c0-8.8 7.2-16 16-16z"/></svg>