<svg xmlns="http://www.w3.org/2000/svg" viewBox="0 0 640 512"><!--! Font Awesome Pro 6.6.0 by @fontawesome - https://fontawesome.com License - https://fontawesome.com/license (Commercial License) Copyright 2024 Fonticons, Inc. --><path d="M165.8 0c-24 0-52.6 6.6-76.2 27.3C58.2 54.8 0 119.5 0 221.2c0 23 3.2 49.4 6.4 70.3c8.9 57.7 59.1 95.9 113.3 95.9c69.6 0 123.8-60.3 116.4-129.5l-.5-5.1 15.9 7.9c2.7 1.4 4.4 4.1 4.4 7.2L256 488c0 13.3 10.7 24 24 24s24-10.7 24-24l0-220.2c0-21.2-12-40.6-31-50.1l-31-15.5 16.4-17.4c18.7-19.8 29.1-46 29.1-73.3c0-36.7-18.9-70.9-50-90.4L232.5 18 219.8 38.2 232.5 18C213.8 6.2 192.1 0 170 0l-4.2 0zM121.2 63.4C133.8 52.4 150 48 165.8 48l4.2 0c13.1 0 25.9 3.7 37 10.6l5.2 3.2c17.1 10.7 27.5 29.5 27.5 49.7c0 15-5.7 29.4-16 40.3l-16.9 17.8c-16.1 17-23.9 40.2-21.4 63.4l3.2 29.8c4.3 40.8-27.7 76.4-68.7 76.4c-32.4 0-60.9-22.6-65.9-55.1c-3.1-20.2-5.9-43.7-5.9-63c0-82 46.8-134.6 73.2-157.8zm310.7-4.8C443 51.7 455.8 48 468.9 48l4.2 0c15.8 0 32 4.4 44.6 15.4c26.4 23.2 73.2 75.8 73.2 157.8c0 19.3-2.8 42.7-5.9 63c-5 32.5-33.5 55.1-65.9 55.1c-41.1 0-73.1-35.6-68.7-76.4l3.2-29.8c2.5-23.3-5.4-46.4-21.4-63.4l-16.9-17.8c-10.3-10.9-16-25.3-16-40.3c0-20.2 10.4-39 27.5-49.7l5.2-3.2zM468.9 0c-22.1 0-43.8 6.2-62.5 18l-5.2 3.2c-31.1 19.5-50 53.6-50 90.4c0 27.2 10.4 53.5 29.1 73.3l16.8 17.7L367 217.7c-19 9.5-31 28.9-31 50.1L336 488c0 13.3 10.7 24 24 24s24-10.7 24-24l0-220.2c0-3 1.7-5.8 4.4-7.2l14.8-7.4-.5 4.6c-7.4 69.2 46.9 129.5 116.4 129.5c54.3 0 104.5-38.1 113.3-95.9c3.2-20.9 6.4-47.3 6.4-70.3c0-101.7-58.2-166.3-89.6-193.9C525.8 6.6 497.2 0 473.2 0l-4.2 0z"/></svg>