<svg xmlns="http://www.w3.org/2000/svg" viewBox="0 0 640 512"><!--! Font Awesome Pro 6.6.0 by @fontawesome - https://fontawesome.com License - https://fontawesome.com/license (Commercial License) Copyright 2024 Fonticons, Inc. --><path d="M128 80l384 0c8.8 0 16 7.2 16 16l0 224 48 0 0-224c0-35.3-28.7-64-64-64L128 32C92.7 32 64 60.7 64 96l0 224 48 0 0-224c0-8.8 7.2-16 16-16zM50.7 400l538.5 0c-6.6 18.6-24.4 32-45.3 32L96 432c-20.9 0-38.7-13.4-45.3-32zM32 352c-17.7 0-32 14.3-32 32c0 53 43 96 96 96l448 0c53 0 96-43 96-96c0-17.7-14.3-32-32-32L32 352zM200 128c-22.1 0-40 17.9-40 40l0 32c0 22.1 17.9 40 40 40l16 0c22.1 0 40-17.9 40-40l0-32c0-22.1-17.9-40-40-40l-16 0zm-8 40c0-4.4 3.6-8 8-8l16 0c4.4 0 8 3.6 8 8l0 32c0 4.4-3.6 8-8 8l-16 0c-4.4 0-8-3.6-8-8l0-32zm112-40c-8.8 0-16 7.2-16 16s7.2 16 16 16l0 64c0 8.8 7.2 16 16 16s16-7.2 16-16l0-80c0-8.8-7.2-16-16-16l-16 0zm80 40l0 32c0 22.1 17.9 40 40 40l16 0c22.1 0 40-17.9 40-40l0-32c0-22.1-17.9-40-40-40l-16 0c-22.1 0-40 17.9-40 40zm40-8l16 0c4.4 0 8 3.6 8 8l0 32c0 4.4-3.6 8-8 8l-16 0c-4.4 0-8-3.6-8-8l0-32c0-4.4 3.6-8 8-8zM192 272c-8.8 0-16 7.2-16 16s7.2 16 16 16l0 16 32 0 0-32c0-8.8-7.2-16-16-16l-16 0zm240 0l-16 0c-8.8 0-16 7.2-16 16s7.2 16 16 16l0 16 32 0 0-32c0-8.8-7.2-16-16-16zm-64 40c0-22.1-17.9-40-40-40l-16 0c-22.1 0-40 17.9-40 40l0 8 32 0 0-8c0-4.4 3.6-8 8-8l16 0c4.4 0 8 3.6 8 8l0 8 32 0 0-8z"/></svg>