<svg xmlns="http://www.w3.org/2000/svg" viewBox="0 0 576 512"><!--! Font Awesome Pro 6.6.0 by @fontawesome - https://fontawesome.com License - https://fontawesome.com/license (Commercial License) Copyright 2024 Fonticons, Inc. --><path d="M288 0c-8.5 0-17 1.7-24.8 5.1L53.9 94.8C40.6 100.5 32 113.5 32 128s8.6 27.5 21.9 33.2l209.3 89.7c7.8 3.4 16.3 5.1 24.8 5.1s17-1.7 24.8-5.1l209.3-89.7c13.3-5.7 21.9-18.8 21.9-33.2s-8.6-27.5-21.9-33.2L312.8 5.1C305 1.7 296.5 0 288 0zm-5.9 49.2C284 48.4 286 48 288 48s4 .4 5.9 1.2L477.7 128 293.9 206.8c-1.9 .8-3.9 1.2-5.9 1.2s-4-.4-5.9-1.2L98.3 128 282.1 49.2zM53.9 222.8C40.6 228.5 32 241.5 32 256s8.6 27.5 21.9 33.2l209.3 89.7c7.8 3.4 16.3 5.1 24.8 5.1s17-1.7 24.8-5.1l209.3-89.7c13.3-5.7 21.9-18.8 21.9-33.2s-8.6-27.5-21.9-33.2l-31.2-13.4L430 235.5 477.7 256 293.9 334.8c-1.9 .8-3.9 1.2-5.9 1.2s-4-.4-5.9-1.2L98.3 256 146 235.5 85.1 209.4 53.9 222.8zm0 128C40.6 356.5 32 369.5 32 384s8.6 27.5 21.9 33.2l209.3 89.7c7.8 3.4 16.3 5.1 24.8 5.1s17-1.7 24.8-5.1l209.3-89.7c13.3-5.7 21.9-18.8 21.9-33.2s-8.6-27.5-21.9-33.2l-31.2-13.4L430 363.5 477.7 384 293.9 462.8c-1.9 .8-3.9 1.2-5.9 1.2s-4-.4-5.9-1.2L98.3 384 146 363.5 85.1 337.4 53.9 350.8z"/></svg>