<svg xmlns="http://www.w3.org/2000/svg" viewBox="0 0 640 512"><!--! Font Awesome Pro 6.6.0 by @fontawesome - https://fontawesome.com License - https://fontawesome.com/license (Commercial License) Copyright 2024 Fonticons, Inc. --><path d="M38.8 5.1C28.4-3.1 13.3-1.2 5.1 9.2S-1.2 34.7 9.2 42.9l592 464c10.4 8.2 25.5 6.3 33.7-4.1s6.3-25.5-4.1-33.7l-195-152.8c4.4-6.2 8.9-12.4 13.4-18.6c0 0 0 0 0 0s0 0 0 0s0 0 0 0s0 0 0 0c5.2-7.1 10.4-14.2 15.4-21.4c19.8-28.5 31.4-63 31.4-100.3C496 78.8 417.2 0 320 0C249.7 0 189.1 41.2 160.8 100.8L38.8 5.1zM200 131.4C218.1 82.7 265 48 320 48c70.7 0 128 57.3 128 128c0 27.2-8.4 52.3-22.8 72.9c-3.7 5.3-8.1 11.3-12.7 17.7c0 0 0 0 0 0s0 0 0 0s0 0 0 0s0 0 0 0s0 0 0 0c-4.6 6.3-9.5 13-14.4 20L268.9 185.5c1.9-2.6 3.1-5.9 3.1-9.5c0-26.5 21.5-48 48-48c8.8 0 16-7.2 16-16s-7.2-16-16-16c-40 0-73.1 29.3-79 67.6l-41-32.1zM400 424.9L388.7 416 240 416l0 16c0 44.2 35.8 80 80 80s80-35.8 80-80l0-7.1zM152.4 229.8c5.4 16.8 13.2 32.4 23 46.6c5 7.2 10.2 14.3 15.4 21.4c0 0 0 0 0 0s0 0 0 0c12.3 16.8 24.6 33.7 34.5 51.8c5.9 10.8 9.6 22.5 11.8 34.5l48.6 0c-2.6-18.7-7.9-38.6-18.3-57.5c-2-3.7-4.2-7.5-6.5-11.2L152.4 229.8z"/></svg>