<svg xmlns="http://www.w3.org/2000/svg" viewBox="0 0 640 512"><!--! Font Awesome Pro 6.6.0 by @fontawesome - https://fontawesome.com License - https://fontawesome.com/license (Commercial License) Copyright 2024 Fonticons, Inc. --><path d="M35.3 66.8s0 0 0 0l.1 0 .6 .3c.6 .3 1.7 .8 3.1 1.5c2.8 1.4 7.3 3.4 13.2 5.8c11.9 4.9 30 11.6 54.1 18.3C154.5 106.3 226.4 120 320 120s165.5-13.7 213.5-27.1c24-6.7 42.1-13.4 54.1-18.3c6-2.5 10.4-4.5 13.2-5.8c1.4-.7 2.5-1.2 3.1-1.5l.6-.3c0 0 0 0 0 0c0 0 0 0 0 0c11.7-6.3 26.2-1.9 32.5 9.8s1.9 26.2-9.8 32.5L616 88c11.4 21.1 11.4 21.1 11.4 21.1s0 0 0 0s0 0 0 0l-.1 .1-.4 .2-1.2 .6c-1 .5-2.4 1.2-4.2 2c-3.6 1.7-8.8 4.1-15.6 6.9c-13.6 5.6-33.5 12.9-59.4 20.2C494.5 153.7 418.4 168 320 168s-174.5-14.3-226.5-28.9c-26-7.3-45.9-14.6-59.4-20.2c-6.8-2.8-12-5.2-15.6-6.9c-1.8-.9-3.2-1.5-4.2-2l-1.2-.6-.4-.2-.1-.1c0 0 0 0 0 0c0 0 0 0 0 0L24 88 12.6 109.1C1 102.8-3.4 88.3 2.9 76.6c6.3-11.7 20.8-16 32.5-9.8zm80 155.3L130 181c14.8 3.1 30.7 6.1 47.9 8.7l-17.3 48.6c27.2 20.5 39.2 56.9 27.2 90.7c-16.1 45.2-95.7 101.8-118.3 93.8s-48.6-102.2-32.5-147.4c12-33.7 44.4-54.4 78.3-53.1zM296 259.7l0-59.9c7.9 .2 15.9 .3 24 .3s16.1-.1 24-.3l0 59.9c32.5 10.2 56 40.5 56 76.3c0 48-56 128-80 128s-80-80-80-128c0-35.8 23.5-66.1 56-76.3zm183.4-21.4l-17.3-48.6c17.1-2.6 33.1-5.5 47.9-8.7l14.7 41.2c34-1.3 66.3 19.4 78.3 53.1c16.1 45.2-9.8 139.4-32.5 147.4s-102.2-48.6-118.3-93.8c-12-33.7 0-70.2 27.2-90.7zM82.2 291.4c-1.2 3.4-2.6 11-2.1 23.3c.4 11.6 2.3 24.6 5.3 37c1.3 5.3 2.7 10.2 4.2 14.6c3.9-2.5 8.1-5.4 12.5-8.7c10.2-7.7 19.9-16.6 27.5-25.4c8-9.2 11.8-16 13-19.4c5.9-16.7-2.8-35-19.4-40.9s-35 2.8-40.9 19.4zM288 336c0 3.6 1.3 11.3 5.8 22.6c4.3 10.8 10.4 22.4 17.4 33.1c3 4.6 6 8.7 8.8 12.4c2.8-3.7 5.8-7.8 8.8-12.4c7-10.7 13.1-22.3 17.4-33.1c4.5-11.4 5.8-19 5.8-22.6c0-17.7-14.3-32-32-32s-32 14.3-32 32zm228.9-64c-16.7 5.9-25.3 24.2-19.4 40.9c1.2 3.4 5 10.2 13 19.4c7.6 8.8 17.3 17.6 27.5 25.4c4.4 3.3 8.6 6.2 12.5 8.7c1.5-4.4 2.9-9.3 4.2-14.6c3-12.4 4.9-25.4 5.3-37c.4-12.2-.9-19.9-2.1-23.3c-5.9-16.7-24.2-25.3-40.9-19.4z"/></svg>