<svg xmlns="http://www.w3.org/2000/svg" viewBox="0 0 576 512"><!--! Font Awesome Pro 6.6.0 by @fontawesome - https://fontawesome.com License - https://fontawesome.com/license (Commercial License) Copyright 2024 Fonticons, Inc. --><path d="M304 32c-13.3 0-24 10.7-24 24s10.7 24 24 24l24 0c94.6 0 173.9 65.7 194.7 154c-12.9-6.4-27.4-10-42.7-10l-45.4 0-45.5-83.5c-3.9-7.2-11.3-11.9-19.4-12.5s-16.1 3.1-21 9.7l-35 47.5-29.4-46.2c-4.2-6.6-11.3-10.7-19-11.1s-15.2 3-20.1 9.1L176.6 224l-74.4 0C63.4 224 32 255.4 32 294.1c0 26.9 15.4 51.3 39.4 63.1L5.2 441.1c-8.2 10.4-6.4 25.5 4 33.7s25.5 6.4 33.7-4l73.5-93.1 41.5 19-33.2 45c-7.9 10.7-5.6 25.7 5.1 33.6s25.7 5.6 33.6-5.1l42.5-57.6c11.8 2.3 23.9 3.4 36 3.4l33.4 0-16.1 28.1c-6.6 11.5-2.6 26.2 8.9 32.7s26.2 2.6 32.7-8.9L330.5 416l110.7 0 25.4 50.7c5.9 11.9 20.3 16.7 32.2 10.7s16.7-20.3 10.7-32.2l-15.2-30.3c46.2-6.9 81.6-46.7 81.7-94.7l0-.2 0-40C576 143 465 32 328 32l-24 0zm61 164.6l15 27.4-35.2 0L365 196.6zm-103.1-3.2L281.4 224l-43.6 0 24.2-30.6zM102.1 272l36.5 0L102 318.4l-9.1-4.2C85.1 310.7 80 302.8 80 294.1c0-12.2 9.9-22.1 22.1-22.1zm97.7 0L480 272c26.5 0 48 21.5 48 48s-21.5 48-48 48l-23.5 0c-.2 0-.3 0-.5 0s-.3 0-.5 0l-213.7 0c-20.7 0-41.1-4.4-59.9-13l-35-16 52.9-67zM472 344a24 24 0 1 0 0-48 24 24 0 1 0 0 48z"/></svg>