<svg xmlns="http://www.w3.org/2000/svg" viewBox="0 0 512 512"><!--! Font Awesome Pro 6.6.0 by @fontawesome - https://fontawesome.com License - https://fontawesome.com/license (Commercial License) Copyright 2024 Fonticons, Inc. --><path d="M368 208A160 160 0 1 0 48 208a160 160 0 1 0 320 0zM337.1 371.1C301.7 399.2 256.8 416 208 416C93.1 416 0 322.9 0 208S93.1 0 208 0S416 93.1 416 208c0 48.8-16.8 93.7-44.9 129.1L505 471c9.4 9.4 9.4 24.6 0 33.9s-24.6 9.4-33.9 0L337.1 371.1zM271.6 158.8c12.6-4.2 19.4-17.8 15.2-30.4s-17.8-19.4-30.4-15.2l-48 16c-9.8 3.3-16.4 12.4-16.4 22.8l0 57.5c-5.1-1-10.5-1.5-16-1.5c-35.3 0-64 21.5-64 48s28.7 48 64 48c35.3 0 63.9-21.4 64-47.9c0 0 0-.1 0-.1c0 0 0 0 0 0l0-86.7 31.6-10.5z"/></svg>