<svg xmlns="http://www.w3.org/2000/svg" viewBox="0 0 512 512"><!--! Font Awesome Pro 6.6.0 by @fontawesome - https://fontawesome.com License - https://fontawesome.com/license (Commercial License) Copyright 2024 Fonticons, Inc. --><path d="M344 0l32 0 64 0c39.8 0 72 32.2 72 72c0 13.3-10.7 24-24 24l-39.7 0c-32.1 0-61.1-14.5-80.3-37.5l0 43.6 0 50.1 0 15.8c0 13.3-10.7 24-24 24s-24-10.7-24-24l0-24c-36.9 0-73.7 14.1-101.8 42.2l-1.7 1.7-1.9 1.6c-36.7 29.8-55.1 60.9-74.5 95.7l-3.1 5.6c-18.4 33-40.6 72.9-83 104.8c-2.3 1.8-4.1 4.3-5.1 7.4c-2.8 8.4 1.8 17.4 10.2 20.2l2 .7 1.8 .8s0 0 0 0c0 0 0 0 0 0c0 0 0 0 0 0l.5 .2c.5 .2 1.4 .6 2.6 1.1c2.5 1 6.4 2.5 11.6 4.3c10.4 3.6 26.1 8.6 46.1 13.6C163.7 453.9 220.7 464 288 464c66.9 0 109.2-28.7 136.2-64.3C452.6 362.2 464 316.5 464 288c0-36.9-14-73.7-42.2-101.8c-6.8-6.8-14.1-12.8-21.8-17.9l0-54.8c20.2 9.3 39.1 22.2 55.8 38.8C493.3 189.7 512 238.9 512 288c0 76.6-57.5 224-224 224c-144 0-244.1-43.3-244.1-43.3C10.3 457.6-7.9 421.4 3.3 387.9C7.4 375.4 15 365 24.7 357.5c34.3-25.7 52.1-57.6 71.2-91.8c20.6-36.8 42.6-76.3 88.4-113.5C221.7 114.7 270.9 96 320 96l0-72c0-13.3 10.7-24 24-24zm56 288c8.8 0 16 7.2 16 16c0 61.9-50.1 112-112 112c-8.8 0-16-7.2-16-16s7.2-16 16-16c44.2 0 80-35.8 80-80c0-8.8 7.2-16 16-16z"/></svg>