<svg xmlns="http://www.w3.org/2000/svg" viewBox="0 0 576 512"><!--! Font Awesome Pro 6.6.0 by @fontawesome - https://fontawesome.com License - https://fontawesome.com/license (Commercial License) Copyright 2024 Fonticons, Inc. --><path d="M408 120c0 8.6-1.8 18.3-5 28.6c-5.7 18.4-15.6 38.8-27.4 59.2l-.1 .2c-3.1 5.4-6.3 10.7-9.6 16c-4.4 7-8.9 14-13.5 20.8l-.4 .6c-18.1 26.9-36.7 51.1-49.2 66.6c-7.7 9.6-22 9.6-29.6 0c-12.4-15.5-31.1-39.7-49.2-66.6c-18.4-27.3-36.3-57.5-46.7-84.4c-.8-2.1-1.6-4.2-2.3-6.3c-4.4-12.6-7-24.4-7-34.6c0-4.7 .3-9.3 .8-13.8C175.6 46.4 226.4 0 288 0c66.3 0 120 53.7 120 120zM352 300.6c13.5-18.2 28.8-39.9 42.7-62.4c1.8-2.9 3.6-5.8 5.3-8.8l0 224.3 128-46.5 0-252.9L419.3 193.8c2.2-4.7 4.4-9.3 6.3-14c5.9-14 11-29.2 13.2-44.2l105-38.2c7.4-2.7 15.6-1.6 22 2.9s10.2 11.8 10.2 19.7l0 304c0 10.1-6.3 19.1-15.8 22.6l-176 64c-5.3 1.9-11.1 1.9-16.4 0L200 449.5l-167.8 61c-7.4 2.7-15.6 1.6-22-2.9S0 495.8 0 488L0 184c0-10.1 6.3-19.1 15.8-22.6L136 117.7c0 .8 0 1.5 0 2.3c0 15.1 3.7 30.7 8.9 45.6L48 200.8l0 252.9 128-46.5 0-177.7c1.8 3 3.5 5.9 5.3 8.8c13.9 22.5 29.1 44.2 42.7 62.4l0 106.6 128 46.5 0-153.1zM288 152a40 40 0 1 0 0-80 40 40 0 1 0 0 80z"/></svg>