<svg xmlns="http://www.w3.org/2000/svg" viewBox="0 0 576 512"><!--! Font Awesome Pro 6.6.0 by @fontawesome - https://fontawesome.com License - https://fontawesome.com/license (Commercial License) Copyright 2024 Fonticons, Inc. --><path d="M320 48L64 48c-8.8 0-16 7.2-16 16l0 384c0 8.8 7.2 16 16 16l220.5 0c12 18.4 27.4 34.5 45.3 47.3c-3.2 .5-6.4 .7-9.7 .7L64 512c-35.3 0-64-28.7-64-64L0 64C0 28.7 28.7 0 64 0L320 0c35.3 0 64 28.7 64 64l0 134.6c-17.2 4.9-33.4 12.3-48 21.8L336 64c0-8.8-7.2-16-16-16zM96 152c0-13.3 10.7-24 24-24l144 0c13.3 0 24 10.7 24 24s-10.7 24-24 24l-144 0c-13.3 0-24-10.7-24-24zm24 72l144 0c13.3 0 24 10.7 24 24s-10.7 24-24 24l-144 0c-13.3 0-24-10.7-24-24s10.7-24 24-24zm0 96l48 0c13.3 0 24 10.7 24 24s-10.7 24-24 24l-48 0c-13.3 0-24-10.7-24-24s10.7-24 24-24zm312-96a144 144 0 1 1 0 288 144 144 0 1 1 0-288zm0 96a24 24 0 1 0 0-48 24 24 0 1 0 0 48zm-32 48c0 8.8 7.2 16 16 16c0 0 0 0 0 0l0 48s0 0 0 0c-8.8 0-16 7.2-16 16s7.2 16 16 16l16 0 16 0c8.8 0 16-7.2 16-16s-7.2-16-16-16l0-64c0-8.8-7.2-16-16-16l-16 0c-8.8 0-16 7.2-16 16z"/></svg>