<svg xmlns="http://www.w3.org/2000/svg" viewBox="0 0 640 512"><!--! Font Awesome Pro 6.6.0 by @fontawesome - https://fontawesome.com License - https://fontawesome.com/license (Commercial License) Copyright 2024 Fonticons, Inc. --><path d="M256 48c68.7 0 129.5 33.3 167.4 84.6c16.7-8 37.2-5.5 51.5 7.4c5.6 5.1 11.1 10.2 16.6 15.5C452.5 64.1 361.7 0 256 0C114.6 0 0 114.6 0 256S114.6 512 256 512c33.6 0 65.7-6.5 95.1-18.3c-12.6-11.6-23.6-24.8-32.8-39.2c-19.7 6.2-40.6 9.5-62.3 9.5C141.1 464 48 370.9 48 256S141.1 48 256 48zM368 152c0-13.3-10.7-24-24-24s-24 10.7-24 24l0 48c0 11.2 7.6 20.6 18 23.2c9-12.9 19.1-25.7 30-38.3l0-32.9zm-176 0c0-13.3-10.7-24-24-24s-24 10.7-24 24l0 48c0 13.3 10.7 24 24 24s24-10.7 24-24l0-48zm88 0c0-13.3-10.7-24-24-24s-24 10.7-24 24l0 48c0 13.3 10.7 24 24 24s24-10.7 24-24l0-48zm225.7 56.1l-19-19.9c-2-2.1-4-4.4-6-6.7c0 0 0 0 0 0c-9-10.2-18.6-21.3-32.7-21.6c-7.3-.2-14.6 2.3-20.3 7.5c-23.4 21.1-50 48.9-70.9 80.2C336 278.6 320 314.7 320 352c0 88.6 70.4 159.8 160 159.8c88.7 0 160-71.2 160-159.8c0-30-11-60.9-26.2-88.1c-15.2-27.4-35.3-52.3-55-70.6c-5.6-5.2-12.8-7.8-19.9-7.8c-7.6 0-15.5 2.8-20.9 8.9l-12.3 13.8zM544 400c0 35.3-28.7 64-64 64s-64-28.7-64-64c0-36.5 37-73 54.8-88.4c5.4-4.7 13.1-4.7 18.5 0C507 327 544 363.5 544 400z"/></svg>