<svg xmlns="http://www.w3.org/2000/svg" viewBox="0 0 512 512"><!--! Font Awesome Pro 6.6.0 by @fontawesome - https://fontawesome.com License - https://fontawesome.com/license (Commercial License) Copyright 2024 Fonticons, Inc. --><path d="M176 0c-8.8 0-16 7.2-16 16c0 44.2 35.8 80 80 80c8.8 0 16-7.2 16-16c0-44.2-35.8-80-80-80zM56 16C42.7 16 32 26.7 32 40s10.7 24 24 24l48 0c13.3 0 24-10.7 24-24s-10.7-24-24-24L56 16zM24 88C10.7 88 0 98.7 0 112s10.7 24 24 24l112 0c13.3 0 24-10.7 24-24s-10.7-24-24-24L24 88zm8 96c0 13.3 10.7 24 24 24l48 0c13.3 0 24-10.7 24-24s-10.7-24-24-24l-48 0c-13.3 0-24 10.7-24 24zM272 16c0 44.2 35.8 80 80 80c8.8 0 16-7.2 16-16c0-44.2-35.8-80-80-80c-8.8 0-16 7.2-16 16zM400 0c-8.8 0-16 7.2-16 16c0 44.2 35.8 80 80 80c8.8 0 16-7.2 16-16c0-44.2-35.8-80-80-80zm80 144c0-8.8-7.2-16-16-16c-44.2 0-80 35.8-80 80c0 8.8 7.2 16 16 16c44.2 0 80-35.8 80-80zM352 128c-44.2 0-80 35.8-80 80c0 8.8 7.2 16 16 16c44.2 0 80-35.8 80-80c0-8.8-7.2-16-16-16zm-96 16c0-8.8-7.2-16-16-16c-44.2 0-80 35.8-80 80c0 8.8 7.2 16 16 16c44.2 0 80-35.8 80-80zM48 359.5c28.9-3.6 51.9-26.6 55.5-55.5l305 0c3.6 29 26.6 51.9 55.5 55.5l0 49c-29 3.6-51.9 26.6-55.5 55.5l-305 0c-3.6-29-26.6-51.9-55.5-55.5l0-49zM48 256c-26.5 0-48 21.5-48 48L0 464c0 26.5 21.5 48 48 48l416 0c26.5 0 48-21.5 48-48l0-160c0-26.5-21.5-48-48-48L48 256zM256 448a64 64 0 1 0 0-128 64 64 0 1 0 0 128z"/></svg>