<svg xmlns="http://www.w3.org/2000/svg" viewBox="0 0 640 512"><!--! Font Awesome Pro 6.6.0 by @fontawesome - https://fontawesome.com License - https://fontawesome.com/license (Commercial License) Copyright 2024 Fonticons, Inc. --><path d="M64 112l448 0c8.8 0 16 7.2 16 16l0 91.6 6.6-6.6c11.6-11.6 26.3-18.5 41.4-20.5l0-64.6c0-35.3-28.7-64-64-64L64 64C28.7 64 0 92.7 0 128L0 384c0 35.3 28.7 64 64 64l266.5 0 6-23.9c2.2-8.8 6.2-17 11.8-24.1L64 400c-8.8 0-16-7.2-16-16l0-256c0-8.8 7.2-16 16-16zm56 160c-13.3 0-24 10.7-24 24s10.7 24 24 24l208 0c13.3 0 24-10.7 24-24s-10.7-24-24-24l-208 0zM96 200c0 13.3 10.7 24 24 24l304 0c13.3 0 24-10.7 24-24s-10.7-24-24-24l-304 0c-13.3 0-24 10.7-24 24zm517.8 35.7c-15.6-15.6-40.9-15.6-56.6 0l-29.4 29.4 71 71 29.4-29.4c15.6-15.6 15.6-40.9 0-56.6l-14.4-14.4zM375.9 417c-4.1 4.1-7 9.2-8.4 14.9l-15 60.1c-1.4 5.5 .2 11.2 4.2 15.2s9.7 5.6 15.2 4.2l60.1-15c5.6-1.4 10.8-4.3 14.9-8.4L576.1 358.7l-71-71L375.9 417z"/></svg>