<svg xmlns="http://www.w3.org/2000/svg" viewBox="0 0 640 512"><!--! Font Awesome Pro 6.6.0 by @fontawesome - https://fontawesome.com License - https://fontawesome.com/license (Commercial License) Copyright 2024 Fonticons, Inc. --><path d="M400 0c7.6 0 14.7 3.6 19.2 9.6c18 24 40.1 42.1 66.5 59.5c15.7 10.3 31.3 19.5 48.2 29.3c13.1 7.6 26.9 15.7 42.2 25.2c31 19.2 48 53.2 48 88.3c0 25.6-8.9 49.2-23.8 67.7C623.8 291.4 640 315.8 640 344l0 96c0 39.8-32.2 72-72 72l-120 0-96 0-112 0-8 0L72 512c-39.8 0-72-32.2-72-72L0 176l0-35.3C0 96.3 20.5 54.3 55.6 27l25.7-20c8.7-6.7 20.8-6.7 29.5 0l25.7 20c26.9 20.9 45.2 50.4 52.3 83.1c-24.1 21.6-38.9 51-43.3 81.9l-1.4 0-96 0 0 248c0 13.3 10.7 24 24 24l92.1 0c-2.7-7.5-4.1-15.6-4.1-24l0-96c0-28.2 16.2-52.6 39.8-64.4C184.9 261 176 237.5 176 211.8c0-35.1 17-69.1 48-88.3c15.2-9.4 29.1-17.5 42.2-25.2c0 0 0 0 0 0c16.9-9.9 32.5-19 48.2-29.3c26.4-17.4 48.5-35.5 66.4-59.5C385.3 3.6 392.4 0 400 0zM232 464l8 0 16 0 0-56c0-13.3 10.7-24 24-24s24 10.7 24 24l0 56 48 0 0-50c0-19 8.4-37 23-49.2L400 344l25 20.8C439.6 377 448 395 448 414l0 50 48 0 0-56c0-13.3 10.7-24 24-24s24 10.7 24 24l0 56 24 0c13.3 0 24-10.7 24-24l0-96c0-13.3-10.7-24-24-24l-52.2 0L400 320l-115.8 0L232 320c-13.3 0-24 10.7-24 24l0 96c0 13.3 10.7 24 24 24zM48 144l96 0 0-3.3c0-29.6-13.7-57.6-37.1-75.8L96 56.4 85.1 64.9C61.7 83.1 48 111.1 48 140.7l0 3.3zm528 67.8c0-19.9-9.6-37.7-25.3-47.5c-12.6-7.8-25.9-15.6-39-23.3c-18.3-10.8-36.5-21.4-52.4-31.9C438.2 95.3 418.1 80 400 61c-18.1 18.9-38.2 34.2-59.3 48.1c-16 10.5-34.1 21.1-52.4 31.9c-13.1 7.7-26.4 15.5-39 23.3C233.6 174.1 224 192 224 211.8c0 33.2 26.9 60.2 60.2 60.2L400 272l115.8 0c33.2 0 60.2-26.9 60.2-60.2z"/></svg>