<svg xmlns="http://www.w3.org/2000/svg" viewBox="0 0 640 512"><!--! Font Awesome Pro 6.6.0 by @fontawesome - https://fontawesome.com License - https://fontawesome.com/license (Commercial License) Copyright 2024 Fonticons, Inc. --><path d="M545 0c17.1 0 31 13.9 31 31l0 112.5c0 .4 0 .7 0 1.1L576 368c0 16.7-6.2 32.2-16.7 45.1l71.5 56c10.4 8.2 12.3 23.3 4.1 33.7s-23.3 12.3-33.7 4.1L9.2 42.9C-1.2 34.7-3.1 19.6 5.1 9.2S28.4-3.1 38.8 5.1L208 137.7l0-17.7c0-10.5 6.9-19.8 16.9-22.9l311-95.7c3-.9 6-1.4 9.1-1.4zM256 175.3l31.7 24.9L528 126.3 528 54 256 137.7l0 37.6zm77.7 60.9l87.4 68.5C437.4 294.3 457.8 288 480 288c17.5 0 33.9 3.9 48 10.7l0-122.2L333.7 236.3zM463.4 337.9l58 45.4c4.6-5.6 6.6-11.4 6.6-15.3c0-9.8-12.9-32-48-32c-6.2 0-11.7 .7-16.6 1.9zM208 259.9l48 37.8L256 432c0 44.2-43 80-96 80s-96-35.8-96-80s43-80 96-80c17.5 0 33.9 3.9 48 10.7l0-102.8zM160 400c-35.1 0-48 22.2-48 32s12.9 32 48 32s48-22.2 48-32s-12.9-32-48-32z"/></svg>