<svg xmlns="http://www.w3.org/2000/svg" viewBox="0 0 640 512"><!--! Font Awesome Pro 6.6.0 by @fontawesome - https://fontawesome.com License - https://fontawesome.com/license (Commercial License) Copyright 2024 Fonticons, Inc. --><path d="M400 48l0 96-160 0 0-96 160 0zM240 0c-26.5 0-48 21.5-48 48l0 96c0 26.5 21.5 48 48 48l56 0 0 40L24 232c-13.3 0-24 10.7-24 24s10.7 24 24 24l112 0 0 40-56 0c-26.5 0-48 21.5-48 48l0 96c0 26.5 21.5 48 48 48l160 0c26.5 0 48-21.5 48-48l0-96c0-26.5-21.5-48-48-48l-56 0 0-40 272 0 0 40-56 0c-26.5 0-48 21.5-48 48l0 96c0 26.5 21.5 48 48 48l160 0c26.5 0 48-21.5 48-48l0-96c0-26.5-21.5-48-48-48l-56 0 0-40 112 0c13.3 0 24-10.7 24-24s-10.7-24-24-24l-272 0 0-40 56 0c26.5 0 48-21.5 48-48l0-96c0-26.5-21.5-48-48-48L240 0zM80 368l160 0 0 96L80 464l0-96zm480 0l0 96-160 0 0-96 160 0z"/></svg>