<svg xmlns="http://www.w3.org/2000/svg" viewBox="0 0 448 512"><!--! Font Awesome Pro 6.6.0 by @fontawesome - https://fontawesome.com License - https://fontawesome.com/license (Commercial License) Copyright 2024 Fonticons, Inc. --><path d="M205.3 12.9C199.2 1.2 184.7-3.4 172.9 2.7s-16.3 20.6-10.2 32.4C237 178 327.3 280.7 374.8 329.6c16 16.4 25.2 37.6 25.2 59.2c0 41.5-33.7 75.2-75.2 75.2l-10.8 0-17-17-30.1-30.1c-21.1-21.1-49.7-32.9-79.5-32.9c-32.8 0-59.4 26.6-59.4 59.4l0 4.6c0 35.3 28.7 64 64 64l132.8 0C392.8 512 448 456.8 448 388.8c0-35.4-15.1-68.3-38.8-92.7C363.7 249.4 276.8 150.4 205.3 12.9zm27.6 437.9L246.1 464 192 464c-8.8 0-16-7.2-16-16l0-4.6c0-6.3 5.1-11.4 11.4-11.4c17.1 0 33.5 6.8 45.6 18.9zM141 303.5c13-2.8 21.2-15.5 18.4-28.5s-15.5-21.2-28.5-18.4l-22.8 4.9C45.1 274.9 0 330.7 0 395.2c0 40.6 18 79.1 49.2 105.1l7.4 6.2c10.2 8.5 25.3 7.1 33.8-3.1s7.1-25.3-3.1-33.8l-7.4-6.2C59.7 446.5 48 421.5 48 395.2c0-41.9 29.2-78 70.2-86.8l22.8-4.9z"/></svg>