<svg xmlns="http://www.w3.org/2000/svg" viewBox="0 0 448 512"><!--! Font Awesome Pro 6.6.0 by @fontawesome - https://fontawesome.com License - https://fontawesome.com/license (Commercial License) Copyright 2024 Fonticons, Inc. --><path d="M373.5 36.2c11 7.5 13.8 22.4 6.3 33.3L329.2 144l78.8 0c13.3 0 24 10.7 24 24s-10.7 24-24 24l-111.5 0-87 128L408 320c13.3 0 24 10.7 24 24s-10.7 24-24 24l-231.1 0-69 101.5c-7.5 11-22.4 13.8-33.3 6.3s-13.8-22.4-6.4-33.3L118.8 368 40 368c-13.3 0-24-10.7-24-24s10.7-24 24-24l111.5 0 87-128L40 192c-13.3 0-24-10.7-24-24s10.7-24 24-24l231.1 0 69-101.5c7.5-11 22.4-13.8 33.3-6.4z"/></svg>