<svg xmlns="http://www.w3.org/2000/svg" viewBox="0 0 640 512"><!--! Font Awesome Pro 6.6.0 by @fontawesome - https://fontawesome.com License - https://fontawesome.com/license (Commercial License) Copyright 2024 Fonticons, Inc. --><path d="M24 320c-13.3 0-24 10.7-24 24s10.7 24 24 24l40 0 0 96-40 0c-13.3 0-24 10.7-24 24s10.7 24 24 24l64 0 232 0 232 0 64 0c13.3 0 24-10.7 24-24s-10.7-24-24-24l-40 0 0-96 40 0c13.3 0 24-10.7 24-24s-10.7-24-24-24l-64 0-232 0L88 320l-64 0zm88 48l184 0 0 96-184 0 0-96zm232 0l184 0 0 96-184 0 0-96z"/></svg>