<svg xmlns="http://www.w3.org/2000/svg" viewBox="0 0 512 512"><!--! Font Awesome Pro 6.6.0 by @fontawesome - https://fontawesome.com License - https://fontawesome.com/license (Commercial License) Copyright 2024 Fonticons, Inc. --><path d="M383.5 192c.3-5.3 .5-10.6 .5-16c0-51-15.9-96-40.2-127.6C319.5 16.9 288.2 0 256 0s-63.5 16.9-87.8 48.4C143.9 80 128 125 128 176c0 5.4 .2 10.7 .5 16L232 192l0 128-24 0c-3.3 0-6.5 .3-9.6 1L96.3 188.9c-.2-4.3-.3-8.6-.3-12.9c0-64 22.2-121.2 57.1-159.3C62 49.3 18.6 122.6 4.2 173.6C1.5 183.1 9 192 18.9 192L38 192 162.4 353c-1.6 4.7-2.4 9.8-2.4 15l0 96c0 26.5 21.5 48 48 48l96 0c26.5 0 48-21.5 48-48l0-96c0-5.3-.8-10.3-2.4-15L474 192l19.1 0c9.9 0 17.4-8.9 14.7-18.4C493.4 122.6 450 49.3 358.9 16.7C393.8 54.8 416 112.1 416 176c0 4.3-.1 8.6-.3 12.9L313.6 321c-3.1-.6-6.3-1-9.6-1l-24 0 0-128 103.5 0zM208 368l96 0 0 96-96 0 0-96z"/></svg>