<svg xmlns="http://www.w3.org/2000/svg" viewBox="0 0 512 512"><!--! Font Awesome Pro 6.6.0 by @fontawesome - https://fontawesome.com License - https://fontawesome.com/license (Commercial License) Copyright 2024 Fonticons, Inc. --><path d="M435 218.4c18-18.1 29-42.9 29-70.4l0-68c0-17.7-14.3-32-32-32l-68 0c-13.6 0-26.5 2.7-38.3 7.6c0 0 0 0 0 0c-11.7 4.8-22.7 12-32.3 21.6l-.3 .3s0 0 0 0c-9.6 9.6-16.7 20.6-21.5 32.2c0 0 0 0 0 0c-2.7 6.4-4.7 13.2-5.9 20.2l-.1 .4-.1 .4c-5.3 26.6-15.3 63.2-43.4 91.3s-64.7 38.2-91.3 43.4l-.4 .1-.4 .1c-7 1.3-13.8 3.3-20.2 5.9c0 0 0 0 0 0C98 276.4 87 283.6 77.3 293.3c-9.7 9.7-16.9 20.7-21.7 32.4c0 0 0 0 0 0C50.7 337.5 48 350.4 48 364l0 68c0 17.7 14.3 32 32 32l68 0c27.4 0 52.1-10.9 70.2-28.7l32.7 33.2-32.7-33.2c.4-.4 .8-.7 1.1-1.1c0 0 0 0 0 0c9.4-9.5 16.4-20.4 21.1-31.9c0 0 0 0 0 0c2.7-6.4 4.7-13.2 5.9-20.2l.1-.4 .1-.4c5.3-26.6 15.3-63.2 43.4-91.3s64.7-38.2 91.3-43.4l.4-.1 .4-.1c7-1.3 13.8-3.3 20.2-5.9c0 0 0 0 0 0c11.6-4.8 22.6-11.9 32.2-21.4c0 0 0 0 0 0l.6-.6s0 0 0 0zM512 148c0 40.6-16.4 77.4-42.9 104.2l-.9 .9c-14.1 14-30.3 24.6-47.6 31.7c-9.5 4-19.6 6.9-30 8.8c-24.5 4.8-49.1 12.6-66.7 30.3s-25.4 42.2-30.3 66.7c-1.9 10.4-4.9 20.5-8.8 30c-7.1 17.1-17.5 33.2-31.3 47.2c-.5 .6-1.1 1.1-1.7 1.7C225.1 495.8 188.5 512 148 512l-68 0c-44.2 0-80-35.8-80-80l0-68c0-20.1 4-39.2 11.2-56.7c7.2-17.5 17.9-33.8 32.1-48c14.2-14.2 30.6-24.9 48.1-32.1c9.5-4 19.6-6.9 30-8.8c24.5-4.8 49.1-12.6 66.7-30.3s25.4-42.2 30.3-66.7c1.9-10.4 4.9-20.5 8.8-30C234.4 74 245 57.8 259.1 43.6l.4-.4c14.2-14.1 30.5-24.8 47.8-32C324.8 4 343.9 0 364 0l68 0c44.2 0 80 35.8 80 80l0 68zM372.8 136a19.2 19.2 0 1 1 38.4 0 19.2 19.2 0 1 1 -38.4 0zm-64 64a19.2 19.2 0 1 1 38.4 0 19.2 19.2 0 1 1 -38.4 0zm-192 192a19.2 19.2 0 1 1 38.4 0 19.2 19.2 0 1 1 -38.4 0zM200 372.8a19.2 19.2 0 1 1 0 38.4 19.2 19.2 0 1 1 0-38.4zM372.8 200a19.2 19.2 0 1 1 38.4 0 19.2 19.2 0 1 1 -38.4 0zM200 308.8a19.2 19.2 0 1 1 0 38.4 19.2 19.2 0 1 1 0-38.4z"/></svg>