<svg xmlns="http://www.w3.org/2000/svg" viewBox="0 0 576 512"><!--! Font Awesome Pro 6.6.0 by @fontawesome - https://fontawesome.com License - https://fontawesome.com/license (Commercial License) Copyright 2024 Fonticons, Inc. --><path d="M68.4 360.9L45.4 439 33 481.2c-2.5 8.4-.2 17.5 6.1 23.7s15.3 8.5 23.7 6.1L105 498.6l78.1-23c12.4-3.6 23.7-9.9 33.4-18.4c1.4-1.2 2.7-2.5 4-3.8L524.7 149.3c21.9-21.9 24.6-55.6 8.2-80.5c-2.3-3.5-5.1-6.9-8.2-10L485.3 19.3c-25-25-65.5-25-90.5 0L90.6 323.5c-10.4 10.4-18 23.3-22.2 37.4zm46 13.5c1.7-5.6 4.5-10.8 8.4-15.2c.6-.6 1.1-1.2 1.7-1.8L353 129 415 191 186.6 419.5c-4.7 4.7-10.6 8.2-17 10.1l-23.4 6.9L91.4 452.6l16.1-54.8 6.9-23.4zm170.2 71.4C304.4 485.1 345 512 391.9 512l152 0c17.7 0 32-14.3 32-32s-14.3-32-32-32l-6 0c-18.1 0-30.1-19.8-27.4-37.6c.9-6 1.4-12.1 1.4-18.4c0-46.9-26.9-87.5-66.1-107.3l-37.2 37.2c31.7 7.5 55.3 36 55.3 70.1c0 3.8-.3 7.5-.8 11.1c-3.3 21.4 2.2 43.1 13.8 60l.7 .9-85.6 0c-34 0-62.5-23.6-70.1-55.3l-37.2 37.2zM136 24C105.1-6.9 54.9-6.9 24 24S-6.9 105.1 24 136l98.7 98.7 33.9-33.9L57.9 102.1c-12.2-12.2-12.2-31.9 0-44.1s31.9-12.2 44.1 0l98.7 98.7 33.9-33.9L136 24z"/></svg>