<svg xmlns="http://www.w3.org/2000/svg" viewBox="0 0 576 512"><!--! Font Awesome Pro 6.6.0 by @fontawesome - https://fontawesome.com License - https://fontawesome.com/license (Commercial License) Copyright 2024 Fonticons, Inc. --><path d="M80 0a48 48 0 1 1 0 96A48 48 0 1 1 80 0zM48 271.9L48 328c0 13.3-10.7 24-24 24s-24-10.7-24-24L0 184c0-30.9 25.1-56 56-56l58.4 0c15.1 0 29.9 3.9 43 11.2l122.5 68.7c17.9-34 48.4-60 85.1-72.3c15.3-5.1 31.3-7.7 47.4-7.7l4.9 0c52.5 0 98.7 34.8 113.2 85.4l10.9 38.1L569 279c9.4 9.4 9.4 24.6 0 33.9s-24.6 9.4-33.9 0L506 283.9c-4.8-4.8-8.3-10.8-10.2-17.3l-10.5-36.7-28.5 91.3 50.1 40.7c6.9 5.6 11.8 13.4 13.8 22.1l22.8 98.6c3 12.9-5.1 25.8-18 28.8s-25.8-5.1-28.8-18l-22.1-96L370 312.6c-18.1-14.7-25.2-39.1-17.8-61.2L375 183.1c-24.7 9.8-44.7 28.9-55.6 53.3l-9.5 21.3c-5.4 12.1-19.6 17.6-31.7 12.2c-6.8-3-11.5-8.8-13.3-15.4L160.5 196l63 286.9c2.8 12.9-5.3 25.7-18.3 28.6s-25.7-5.4-28.6-18.3L145.6 352l-30.9 0 28.7 130.9c2.8 12.9-5.3 25.7-18.3 28.6s-25.7-5.4-28.6-18.3L48 271.9zM106.9 176l-30.9 0 28.1 128 30.9 0L106.9 176zM464 0a48 48 0 1 1 0 96 48 48 0 1 1 0-96zM397.8 266.6c-1.1 3.2 0 6.6 2.5 8.7l16.3 13.3 32.4-103.8c.1-.3 .2-.7 .3-1c-6.7-3.5-14-5.9-21.7-7.1l-29.9 89.8zm-42.1 75.6l39 31.7-19.2 48c-2 5-5 9.6-8.9 13.4L297 505c-9.4 9.4-24.6 9.4-33.9 0s-9.4-24.6 0-33.9l68.5-68.5 24.1-60.4z"/></svg>