<svg xmlns="http://www.w3.org/2000/svg" viewBox="0 0 512 512"><!--! Font Awesome Pro 6.6.0 by @fontawesome - https://fontawesome.com License - https://fontawesome.com/license (Commercial License) Copyright 2024 Fonticons, Inc. --><path d="M428.3 3c11.6-6.4 26.2-2.3 32.6 9.3l4.8 8.7c19.3 34.7 19.8 75.7 3.4 110C495.8 159.6 512 197.9 512 240c0 18.5-3.1 36.3-8.9 52.8c-6.1 17.3-28.5 16.3-36.8-.1l-11.7-23.4c-4.1-8.1-12.4-13.3-21.5-13.3L360 256c-13.3 0-24-10.7-24-24l0-80c0-13.3-10.7-24-24-24l-17.1 0c-21.3 0-30-23.9-10.8-32.9C304.7 85.4 327.7 80 352 80c28.3 0 54.8 7.3 77.8 20.2c5.5-18.2 3.7-38.4-6-55.8L419 35.7c-6.4-11.6-2.3-26.2 9.3-32.6zm-256 302.7L261.7 160l42.3 0 0 22.8-90.7 148c-24.9 40.7-65.3 69.5-111.9 79.8L66 418.5c-10.5 2.3-18 11.7-18 22.5c0 12.7 10.3 23 23 23l32.1 0c133.7 0 254.1-68.7 323.6-176l1.4 0 23.9 47.8C372.3 443.9 244.3 512 103.2 512L71 512c-39.2 0-71-31.8-71-71c0-33.3 23.1-62.1 55.6-69.3L91 363.8c33.9-7.5 63.2-28.5 81.4-58.1z"/></svg>