<svg xmlns="http://www.w3.org/2000/svg" viewBox="0 0 512 512"><!--! Font Awesome Pro 6.6.0 by @fontawesome - https://fontawesome.com License - https://fontawesome.com/license (Commercial License) Copyright 2024 Fonticons, Inc. --><path d="M380.7 48a48 48 0 1 1 96 0 48 48 0 1 1 -96 0zM2.7 268.9c6.1-11.8 20.6-16.3 32.4-10.2L239.8 365l49.6-74.5-82.7-87.9c-9.5-10.1-14.4-22.4-15.1-34.9l87.7 42 49.4 52.5c12.8 13.6 14.5 34.1 4.2 49.6l-50.2 75.4 135.8 70.5c13.6 7.1 29.8 7.2 43.6 .3l15.2-7.6c11.9-5.9 26.3-1.1 32.2 10.7s1.1 26.3-10.7 32.2l-15.2 7.6c-27.5 13.7-59.9 13.5-87.2-.7L12.9 301.3C1.2 295.2-3.4 280.7 2.7 268.9zM118.9 65.6L137 74.2l8.7-17.4c4-7.9 13.6-11.1 21.5-7.2s11.1 13.6 7.2 21.5l-8.5 16.9 55.5 26.6c1.7-.9 3.5-1.7 5.4-2.5l80.9-32.4c32.4-13 68.6 6.5 75.6 40.7l12.3 59.7 62.9 30.1c12 5.7 17 20 11.3 32s-20 17-32 11.3l-54.2-25.9c-1-.3-1.9-.6-2.8-1l-229.1-110-9.2 18.4c-4 7.9-13.6 11.1-21.5 7.2s-11.1-13.6-7.2-21.5l9-18-17.6-8.4c-8-3.8-11.3-13.4-7.5-21.3s13.4-11.3 21.3-7.5zm217.3 64.7c-1-4.9-6.2-7.7-10.8-5.8l-45.7 18.3 65.5 31.5-9-43.9z"/></svg>