<svg xmlns="http://www.w3.org/2000/svg" viewBox="0 0 640 512"><!--! Font Awesome Pro 6.6.0 by @fontawesome - https://fontawesome.com License - https://fontawesome.com/license (Commercial License) Copyright 2024 Fonticons, Inc. --><path d="M240 0a48 48 0 1 1 0 96 48 48 0 1 1 0-96zm99.7 75.4c11.4-6.8 26.1-3.1 32.9 8.2l46.8 78.1 138.9 69.4c10.8 5.4 17.7 16.5 17.7 28.6l0 59.1c0 10.7-5.3 20.7-14.2 26.6L492 392l54 72 20.1 0 33-33c9.4-9.4 24.6-9.4 33.9 0s9.4 24.6 0 33.9l-40 40c-4.5 4.5-10.6 7-17 7l-136 0c-13.3 0-24-10.7-24-24s10.7-24 24-24l46 0-48-64-124.7 0c4.3 9.8 6.7 20.6 6.7 32c0 44.2-35.8 80-80 80L80 512c-44.2 0-80-35.8-80-80c0-26.2 12.6-49.4 32-64l8-16 31.2-62.3C76.6 278.8 87.7 272 99.8 272L288 272l24-32-32 0c-7.6 0-14.7-3.6-19.2-9.6l-33.4-44.5c-4.7-6.2-12-9.9-19.8-9.9c-9.8 0-18.6 5.7-22.6 14.7l-19.1 43.1c-5.4 12.1-19.6 17.6-31.7 12.2s-17.6-19.6-12.2-31.7l19.1-43.1c11.7-26.3 37.7-43.2 66.4-43.2c22.9 0 44.4 10.8 58.2 29.1L292 192l56 0 18.7-24.9-35.3-58.8c-6.8-11.4-3.1-26.1 8.2-32.9zM80 400c-17.7 0-32 14.3-32 32s14.3 32 32 32l160 0c17.7 0 32-14.3 32-32s-14.3-32-32-32L80 400zm160-48l225.5 0L528 310.3l0-40.6L398.4 204.8l-72 96L312 320l-24 0-178.3 0-16 32L240 352z"/></svg>