<svg xmlns="http://www.w3.org/2000/svg" viewBox="0 0 640 512"><!--! Font Awesome Pro 6.6.0 by @fontawesome - https://fontawesome.com License - https://fontawesome.com/license (Commercial License) Copyright 2024 Fonticons, Inc. --><path d="M256 64a64 64 0 1 1 128 0A64 64 0 1 1 256 64zm41.6 144c-16.6 0-30.5 12.8-31.9 29.3l-4.1 49.3c-.8 9.3 6.6 17.3 15.9 17.3l2.4 0 80 0 2.4 0c9.4 0 16.7-8 15.9-17.3l-4.1-49.3C372.9 220.8 359 208 342.4 208l-44.8 0zM336 352l-32 0 0 136c0 13.3-10.7 24-24 24s-24-10.7-24-24l0-139.7c-26.5-9.5-44.7-35.8-42.2-65.6l4.1-49.3c3.5-41.5 38.1-73.4 79.7-73.4l44.8 0c41.6 0 76.3 31.9 79.7 73.4l4.1 49.3c2.5 29.8-15.7 56.1-42.2 65.6L384 488c0 13.3-10.7 24-24 24s-24-10.7-24-24l0-136zM32 32c89.4 0 169.4 40.8 222.2 104.7c-15 6.3-28.4 15.9-39.3 27.8C174.1 116.6 114.7 84.9 48 80.5L48 112c0 71.4 33.3 134.9 85.4 176l18.1 14.3c10.1 8 12.1 22.5 4.5 33L142.5 354c-16.3 22.3-26.9 49-29.7 78c43.3-.2 82.5-17.6 111.2-45.7l0 61C191.7 468 153.2 480 112 480l-16 0c-17.7 0-32-14.3-32-32c0-45.7 14.7-88 39.7-122.3C40.6 275.9 0 198.7 0 112L0 64C0 46.3 14.3 32 32 32zM425.1 164.5c-10.9-11.9-24.3-21.5-39.3-27.8C438.6 72.8 518.6 32 608 32c17.7 0 32 14.3 32 32l0 48c0 86.7-40.6 163.9-103.7 213.7C561.3 360 576 402.3 576 448c0 17.7-14.3 32-32 32l-16 0c-41.2 0-79.7-12-112-32.7l0-61c28.7 28.2 67.9 45.5 111.2 45.7c-2.9-29-13.5-55.7-29.7-78l-13.6-18.7c-7.6-10.4-5.6-25 4.5-33L506.6 288C558.7 246.9 592 183.4 592 112l0-31.5c-66.7 4.4-126.1 36.1-166.9 84z"/></svg>