<svg xmlns="http://www.w3.org/2000/svg" viewBox="0 0 576 512"><!--! Font Awesome Pro 6.6.0 by @fontawesome - https://fontawesome.com License - https://fontawesome.com/license (Commercial License) Copyright 2024 Fonticons, Inc. --><path d="M288 48a40 40 0 1 1 0 80 40 40 0 1 1 0-80zm0 128A88 88 0 1 0 288 0a88 88 0 1 0 0 176zM24 320L8.9 301.3C-1.4 309.7-3 324.8 5.3 335.1s23.4 11.9 33.7 3.6c0 0 0 0 0 0l.1-.1 .7-.6c.7-.5 1.8-1.4 3.3-2.4c3-2.2 7.5-5.4 13.4-9.2c11.9-7.7 29.3-18.2 51.5-28.6c19.4-9.2 42.3-18.3 68-25.6L176 432l48 0 0-170.7c20.2-3.3 41.6-5.3 64-5.3s43.8 1.9 64 5.3L352 432l48 0 0-159.9c25.7 7.4 48.5 16.5 68 25.6c22.2 10.5 39.6 20.9 51.5 28.6c5.9 3.9 10.4 7.1 13.4 9.2c1.5 1.1 2.6 1.9 3.3 2.4l.7 .6 .1 .1s0 0 0 0c10.3 8.3 25.4 6.7 33.7-3.6s6.7-25.4-3.6-33.8L552 320c15.1-18.7 15.1-18.7 15.1-18.7s0 0 0 0s0 0 0 0l-.1-.1-.3-.3-.6-.5-.6-.4c-1-.8-2.4-1.8-4.2-3.1c-3.6-2.6-8.8-6.3-15.5-10.7c-13.4-8.8-32.8-20.3-57.3-31.9C439.6 231.3 370.1 208 288 208s-151.6 23.3-200.4 46.3c-24.4 11.5-43.9 23.1-57.3 31.9c-6.7 4.4-11.9 8.1-15.5 10.7c-1.8 1.3-3.2 2.4-4.2 3.1c-.5 .4-.9 .7-1.2 .9l-.3 .3-.1 .1c0 0 0 0 0 0c0 0 0 0 0 0L24 320zM0 488c0 13.3 10.7 24 24 24l528 0c13.3 0 24-10.7 24-24s-10.7-24-24-24L24 464c-13.3 0-24 10.7-24 24zM56 240a24 24 0 1 0 0-48 24 24 0 1 0 0 48zM336 376a24 24 0 1 0 -48 0 24 24 0 1 0 48 0zM488 224a24 24 0 1 0 0-48 24 24 0 1 0 0 48z"/></svg>