<svg xmlns="http://www.w3.org/2000/svg" viewBox="0 0 512 512"><!--! Font Awesome Pro 6.6.0 by @fontawesome - https://fontawesome.com License - https://fontawesome.com/license (Commercial License) Copyright 2024 Fonticons, Inc. --><path d="M176 96a48 48 0 1 0 0-96 48 48 0 1 0 0 96zm-14.4 32c-34.8 0-66.3 20.5-80.4 52.3l-47.1 106c-5.4 12.1 .1 26.3 12.2 31.7s26.3-.1 31.7-12.2L120 211.1l0 68.7c0 17.8 8.5 34.6 22.9 45.2L240 396.2l0 91.8c0 13.3 10.7 24 24 24s24-10.7 24-24l0-95.9c0-12.7-6.1-24.7-16.3-32.3L240 336.6l0-129.4 68 102c7.4 11 22.3 14 33.3 6.7s14-22.3 6.7-33.3L271 167.2c-16.3-24.5-43.8-39.2-73.2-39.2l-36.2 0zM168 279.8L168 176l24 0 0 125.4-20.7-15.2c-2.1-1.5-3.3-3.9-3.3-6.5zm175.4 70.1L450.8 505.1c5 7.3 15 9.1 22.3 4s9.1-15 4-22.3L370.4 332.6c-3.2 3.7-7 7.1-11.3 10c-5 3.3-10.3 5.7-15.7 7.3zM96.7 482.4c-3.1 12.9 4.8 25.8 17.7 28.9s25.8-4.8 28.9-17.7l26.3-109.4-42-30.8-31 129z"/></svg>