<svg xmlns="http://www.w3.org/2000/svg" viewBox="0 0 512 512"><!--! Font Awesome Pro 6.6.0 by @fontawesome - https://fontawesome.com License - https://fontawesome.com/license (Commercial License) Copyright 2024 Fonticons, Inc. --><path d="M136.2 275.2c16.4-7 35.4-2.4 46.7 11.4l33.2 40.6c46-26.7 84.4-65.1 111.1-111.1L286.7 183c-13.8-11.3-18.5-30.3-11.4-46.7l48-112C330.8 6.7 349.7-3.1 368.4 .9l112 24C498.8 28.8 512 45.1 512 64c0 0 0 0 0 0c0 231.2-175.2 421.5-400.1 445.5c-9.8 1-19.7 1.8-29.6 2.2c0 0 0 0 0 0c0 0-.1 0-.1 0c-6.1 .2-12.1 .4-18.3 .4c0 0 0 0 0 0c-18.9 0-35.2-13.2-39.1-31.6l-24-112c-4-18.7 5.8-37.6 23.4-45.1l112-48zM70.5 464C286.3 460.5 460.5 286.2 464 70.5L364.8 49.2l-43 100.4L357.6 179c18.2 14.9 22.9 40.8 11.1 61.2c-30.9 53.3-75.3 97.7-128.6 128.6c-20.4 11.8-46.3 7.1-61.2-11.1l-29.4-35.9-100.4 43L70.5 464zM464 64s0 0 0 0s0 0 0 0s0 0 0 0s0 0 0 0s0 0 0 0s0 0 0 0s0 0 0 0s0 0 0 0s0 0 0 0s0 0 0 0s0 0 0 0s0 0 0 0s0 0 0 0s0 0 0 0s0 0 0 0s0 0 0 0s0 0 0 0s0 0 0 0s0 0 0 0s0 0 0 0s0 0 0 0s0 0 0 0s0 0 0 0s0 0 0 0z"/></svg>