<svg xmlns="http://www.w3.org/2000/svg" viewBox="0 0 512 512"><!--! Font Awesome Pro 6.6.0 by @fontawesome - https://fontawesome.com License - https://fontawesome.com/license (Commercial License) Copyright 2024 Fonticons, Inc. --><path d="M460.3 112.6c47.6 66.4 63.4 152.5 42 231.5c-.3 .9-.5 1.9-.8 2.8c-1.3 4.4-2.6 8.9-4.1 13.2l-.2 .6c-1.5 4.5-3.2 8.9-5 13.3c-5.4 13.3-24.9 13-29.8-.5c-1.8-4.6-3.6-9.3-5.6-13.9c-1.6-3.7-3.2-7.4-4.9-11.1l-.8-1.7c-28.4-62.2-70.9-119.9-118.5-167.6C285.3 131.9 227.5 88.9 165.3 60.8l-1.7-.8c-3.7-1.7-7.5-3.3-11.3-4.9c-4.6-1.9-9.2-3.7-13.8-5.5c-13.4-5-13.7-24.5-.5-29.8c4.4-1.8 8.8-3.4 13.3-5l.2-.1c4.5-1.5 9-2.9 13.5-4.2c1-.3 2-.5 2.9-.8c78.9-21.3 165-5.5 231.3 42.1l9.5-9.9c6-6.2 14.2-9.7 22.8-9.8s16.9 3.3 22.9 9.4l16 16c6.1 6.1 9.5 14.3 9.4 22.9s-3.6 16.8-9.8 22.8l-9.9 9.5zm-62.2 .7C357 72.3 301 49.8 244.2 48.4c45.4 27.7 86.9 61.4 122.4 97c35.9 35.9 69.4 77.5 97 122.8c-1.3-57.2-24.1-113.6-65.5-154.8zM8.9 457.8l272-282.9c9.7 8.4 19.5 17.4 29.1 27s18.6 19.4 27 29.1L54.2 503.1c-12.6 12.1-32.5 11.9-44.8-.4S-3.1 470.4 8.9 457.8z"/></svg>