<svg xmlns="http://www.w3.org/2000/svg" viewBox="0 0 640 512"><!--! Font Awesome Pro 6.6.0 by @fontawesome - https://fontawesome.com License - https://fontawesome.com/license (Commercial License) Copyright 2024 Fonticons, Inc. --><path d="M154.5 87.6c9.2-3.8 19.4-4.1 28.8-.8L369 152.8c6.3 2.2 13.2 1.7 19.2-1.4l83.1-43.5c14.9-7.8 31.4-11.9 48.3-11.9l50.8 0c11.2 0 18.6 11.6 13.9 21.8c-17.2 36.8-46 67-81.9 85.8L251.8 335.1c-1.1 .6-2.4 .9-3.7 .9l-121.4 0c-2.3 0-4.6-1-6.1-2.8L54.2 255.7l23-11.5c2.1-1.1 4.6-1.1 6.8-.2l58.2 25.9c6.7 3 14.4 2.7 20.9-.7l88.1-46.2c7.6-4 12.5-11.7 12.8-20.3s-3.9-16.7-11.2-21.3L124 100.4l30.5-12.7zm44.8-46c-20.6-7.3-43.1-6.7-63.3 1.7L91.3 62c-29.9 12.5-33.4 53.5-5.9 70.8L192 199.9l-40.9 21.4-47.6-21.2c-15.3-6.8-32.8-6.4-47.8 1.1L66.1 222 55.8 201.3 23.6 217.4C.3 229-5.8 259.4 11.1 279.2l73.1 85.3 17.6-15.1L84.2 364.4c10.6 12.4 26.2 19.6 42.5 19.6l121.4 0c9.1 0 18-2.2 26-6.4L524.5 246.1c45.3-23.8 81.5-61.7 103.1-108c19.6-42-11-90.1-57.4-90.1l-50.8 0c-24.6 0-48.8 6-70.5 17.4L375.1 104 199.3 41.6zM24 464c-13.3 0-24 10.7-24 24s10.7 24 24 24l592 0c13.3 0 24-10.7 24-24s-10.7-24-24-24L24 464z"/></svg>