<svg xmlns="http://www.w3.org/2000/svg" viewBox="0 0 640 512"><!--! Font Awesome Pro 6.6.0 by @fontawesome - https://fontawesome.com License - https://fontawesome.com/license (Commercial License) Copyright 2024 Fonticons, Inc. --><path d="M215.3 18.7C224.9 8.8 238.6 0 256 0c17.4 0 31.2 8.6 41.1 18.7c9.7 9.9 17 22.6 22.4 34.9C330.2 78.2 336 107.4 336 128l0 26.2 95.3 61c-8.3 14.1-13.5 30.2-14.9 47.4L299.1 187.6c-6.9-4.4-11.1-12-11.1-20.2l0-39.4c0-13.6-4.2-36.3-12.5-55.2c-4.1-9.4-8.5-16.3-12.7-20.6c-4-4.1-6.2-4.2-6.8-4.2c0 0 0 0 0 0c-.2 0-2.2 0-6.3 4.2c-4.2 4.3-8.7 11.3-12.9 20.7c-8.4 19-12.8 41.7-12.8 55.1l0 39.4c0 8.2-4.2 15.8-11.1 20.2L51.7 290.8c-2.3 1.5-3.7 4-3.7 6.7l0 29.6 144.7-46.3c7.3-2.3 15.3-1 21.5 3.5s9.8 11.7 9.8 19.4l0 72.3c0 7.6-3.6 14.7-9.6 19.2L160 436l0 23.9c6.8-2.1 15.3-4.6 24.3-7.3c22.6-6.8 49.1-14.8 64.6-19.6c4.6-1.4 9.5-1.4 14.1 0c15.5 4.8 42 12.8 64.6 19.6c9 2.7 17.5 5.3 24.3 7.3l0-23.9-54.4-40.8c-6-4.5-9.6-11.6-9.6-19.2l0-72.3c0-7.7 3.7-14.9 9.8-19.4s14.2-5.8 21.5-3.5l82.5 26.4c-11 11.5-17.8 27.1-17.8 44.3l0 .4-48-15.4 0 27.4 48 36 0 79.3c0 7.9 1.4 15.4 4 22.4c-6.8 6.4-15.9 10.3-26 10.3c-2.3 0-4.6-.3-6.9-1l6.9-23-6.9 23s0 0 0 0s0 0 0 0c0 0 0 0 0 0l-.2 0-.6-.2-2.4-.7-8.9-2.7c-7.5-2.2-17.8-5.4-29.2-8.8c-19.5-5.9-42-12.6-57.9-17.5c-15.9 4.9-38.4 11.6-57.9 17.5c-11.3 3.4-21.7 6.5-29.2 8.8l-8.9 2.7-2.4 .7-.6 .2-.2 0c0 0 0 0 0 0c0 0 0 0 0 0s0 0 0 0l-6.9-23 6.9 23c-2.2 .7-4.5 1-6.9 1C129 512 112 495 112 474.1l0-42.1c0-12.6 5.9-24.4 16-32l48-36 0-27.4L52.2 376.2C26.4 384.4 0 365.2 0 338.1l0-40.6c0-19.1 9.7-36.9 25.8-47.2l12.9 20.2L25.8 250.3 176 154.2l0-26.2c0-20.7 6.1-50 16.9-74.5c5.5-12.3 12.8-24.9 22.4-34.8zM528 240c-17.7 0-32 14.3-32 32l0 48 64 0 0-48c0-17.7-14.3-32-32-32zm-80 32c0-44.2 35.8-80 80-80s80 35.8 80 80l0 48c17.7 0 32 14.3 32 32l0 128c0 17.7-14.3 32-32 32l-160 0c-17.7 0-32-14.3-32-32l0-128c0-17.7 14.3-32 32-32l0-48z"/></svg>