<svg xmlns="http://www.w3.org/2000/svg" viewBox="0 0 512 512"><!--! Font Awesome Pro 6.6.0 by @fontawesome - https://fontawesome.com License - https://fontawesome.com/license (Commercial License) Copyright 2024 Fonticons, Inc. --><path d="M254.4 22.8c45.2 31.3 55.3 91.3 38 147.2c45.1-35.6 103.5-47.2 148.3-15c64.6 45.8 71.6 140.2 25.7 208.1c0 0 0 0 0 0C386.7 480.8 219.2 542 98.5 455.5C-21.8 369.5-25.9 190 53.9 72.2c46-68.6 135.3-95.4 200.5-49.4zm21.5 185.1c0 0 0 0 0 0c0 0 0 0 0 0zM226.7 62.1c-38-26.9-98.3-15-133 36.9l-.1 .1c-69.9 103.1-60.2 251 32.8 317.4c0 0 0 0 0 0c91.7 65.7 230.3 23 300.2-80.2c34.9-51.7 24.7-114.9-13.8-142.1l-.1-.1c-25.6-18.4-73.5-11.7-111.5 33.9c-12.9 17.5-37.4 21.8-55.4 8.7c-17.6-12.7-21.9-36.7-10.4-54.7c28.6-52.7 17.8-101.6-8.5-119.7l-.2-.2s0 0 0 0z"/></svg>