<svg xmlns="http://www.w3.org/2000/svg" viewBox="0 0 448 512"><!--! Font Awesome Pro 6.6.0 by @fontawesome - https://fontawesome.com License - https://fontawesome.com/license (Commercial License) Copyright 2024 Fonticons, Inc. --><path d="M144 80l0 96-96 0 0-96 96 0zM48 32C21.5 32 0 53.5 0 80l0 96c0 26.5 21.5 48 48 48l96 0c26.5 0 48-21.5 48-48l0-96c0-26.5-21.5-48-48-48L48 32zm96 304l0 96-96 0 0-96 96 0zM48 288c-26.5 0-48 21.5-48 48l0 96c0 26.5 21.5 48 48 48l96 0c26.5 0 48-21.5 48-48l0-96c0-26.5-21.5-48-48-48l-96 0zM304 80l96 0 0 96-96 0 0-96zm-48 0l0 96c0 26.5 21.5 48 48 48l96 0c26.5 0 48-21.5 48-48l0-96c0-26.5-21.5-48-48-48l-96 0c-26.5 0-48 21.5-48 48zM72 120l0 16c0 8.8 7.2 16 16 16l16 0c8.8 0 16-7.2 16-16l0-16c0-8.8-7.2-16-16-16l-16 0c-8.8 0-16 7.2-16 16zM88 360c-8.8 0-16 7.2-16 16l0 16c0 8.8 7.2 16 16 16l16 0c8.8 0 16-7.2 16-16l0-16c0-8.8-7.2-16-16-16l-16 0zM328 120l0 16c0 8.8 7.2 16 16 16l16 0c8.8 0 16-7.2 16-16l0-16c0-8.8-7.2-16-16-16l-16 0c-8.8 0-16 7.2-16 16zM256 304l0 160c0 8.8 7.2 16 16 16l32 0c8.8 0 16-7.2 16-16l0-64c0-8.8 7.2-16 16-16s16 7.2 16 16s7.2 16 16 16l64 0c8.8 0 16-7.2 16-16l0-96c0-8.8-7.2-16-16-16s-16 7.2-16 16s-7.2 16-16 16l-32 0c-8.8 0-16-7.2-16-16s-7.2-16-16-16l-64 0c-8.8 0-16 7.2-16 16zM368 448a16 16 0 1 0 0 32 16 16 0 1 0 0-32zm64 0a16 16 0 1 0 0 32 16 16 0 1 0 0-32z"/></svg>