<svg xmlns="http://www.w3.org/2000/svg" viewBox="0 0 512 512"><!--! Font Awesome Pro 6.6.0 by @fontawesome - https://fontawesome.com License - https://fontawesome.com/license (Commercial License) Copyright 2024 Fonticons, Inc. --><path d="M113.2 104.7l41.9 72.5c-7.3 9.3-13.3 19.6-17.8 30.8l-83.8 0c9.5-40.1 30.6-75.8 59.7-103.3zm83.1 350.6l41.9-72.6c5.8 .8 11.8 1.2 17.8 1.2s11.9-.4 17.8-1.2l41.9 72.6C296.8 461 276.8 464 256 464s-40.8-3-59.7-8.7zM398.8 104.7c29.1 27.5 50.2 63.1 59.7 103.3l-83.8 0c-4.5-11.1-10.5-21.5-17.8-30.8l41.9-72.5zM160 256c8.8 0 15.8-7.2 17.6-15.9c3.5-17.4 12.7-32.8 25.5-44.1c6.6-5.8 9.4-15.5 5-23.2L144 62c-8.8-15.3-28.6-20.7-42.7-10C47.8 92.7 10.7 154 2 224.1C-.2 241.6 14.3 256 32 256l128 0zm48 83.2L144 450.1c-8.8 15.3-3.7 35.1 12.6 41.9c30.6 12.9 64.2 20 99.4 20s68.9-7.1 99.4-20c16.3-6.9 21.4-26.6 12.6-41.9L304 339.2c-4.4-7.7-14.2-10.1-22.6-7.3c-8 2.7-16.5 4.1-25.4 4.1s-17.4-1.4-25.4-4.1c-8.4-2.8-18.2-.4-22.6 7.3zm126.4-99.1c1.7 8.7 8.7 15.9 17.6 15.9l128 0c17.7 0 32.2-14.4 30-31.9C501.3 154 464.2 92.7 410.7 52c-14.1-10.7-33.8-5.3-42.7 10L304 172.9c-4.4 7.6-1.7 17.3 5 23.2c12.8 11.3 22 26.7 25.5 44.1zM256 304a48 48 0 1 0 0-96 48 48 0 1 0 0 96z"/></svg>