<svg xmlns="http://www.w3.org/2000/svg" viewBox="0 0 640 512"><!--! Font Awesome Pro 6.6.0 by @fontawesome - https://fontawesome.com License - https://fontawesome.com/license (Commercial License) Copyright 2024 Fonticons, Inc. --><path d="M152 32C68.1 32 0 100.1 0 184l0 80L0 424c0 30.9 25.1 56 56 56l32 0c30.9 0 56-25.1 56-56l0-40 160 0 0 40c0 30.9 25.1 56 56 56l32 0c30.9 0 56-25.1 56-56l0-40 48 0 0 24c0 39.8 32.2 72 72 72s72-32.2 72-72l0-64c0-13.3-10.7-24-24-24s-24 10.7-24 24l0 64c0 13.3-10.7 24-24 24s-24-10.7-24-24l0-48 0-96 0-80c0-83.9-68.1-152-152-152L152 32zM496 288l0 48-72 0c-13.3 0-24 10.7-24 24l0 64c0 4.4-3.6 8-8 8l-32 0c-4.4 0-8-3.6-8-8l0-64c0-13.3-10.7-24-24-24l-208 0c-13.3 0-24 10.7-24 24l0 64c0 4.4-3.6 8-8 8l-32 0c-4.4 0-8-3.6-8-8l0-136 448 0zm0-48L48 240l0-56C48 126.6 94.6 80 152 80l240 0c57.4 0 104 46.6 104 104l0 56zM405.7 115.4c-1.1-2.1-3.3-3.4-5.7-3.4s-4.7 1.3-5.7 3.4l-12.6 24.6-28.2 4c-2.4 .3-4.4 2-5.2 4.2s-.1 4.7 1.6 6.3l20.4 19.2-4.8 27.1c-.4 2.3 .6 4.7 2.5 6s4.6 1.6 6.7 .5l25.2-12.8 25.2 12.8c2.2 1.1 4.8 .9 6.7-.5s3-3.7 2.5-6l-4.8-27.1L450 154.5c1.7-1.6 2.4-4.1 1.6-6.3s-2.8-3.9-5.2-4.2l-28.2-4-12.6-24.6zM271.9 112c-2.4 0-4.7 1.3-5.7 3.4l-12.6 24.6-28.2 4c-2.4 .3-4.4 2-5.2 4.2s-.1 4.7 1.6 6.3l20.4 19.2-4.8 27.1c-.4 2.3 .6 4.7 2.5 6s4.6 1.6 6.7 .5l25.2-12.8 25.2 12.8c2.2 1.1 4.8 .9 6.7-.5s3-3.7 2.5-6l-4.8-27.1L322 154.5c1.7-1.6 2.4-4.1 1.6-6.3s-2.8-3.9-5.2-4.2l-28.2-4-12.6-24.6c-1.1-2.1-3.3-3.4-5.7-3.4zm-122.3 3.4c-1.1-2.1-3.3-3.4-5.7-3.4s-4.7 1.3-5.7 3.4l-12.6 24.6-28.2 4c-2.4 .3-4.4 2-5.2 4.2s-.1 4.7 1.6 6.3l20.4 19.2-4.8 27.1c-.4 2.3 .6 4.7 2.5 6s4.6 1.6 6.7 .5l25.2-12.8 25.2 12.8c2.2 1.1 4.8 .9 6.7-.5s3-3.7 2.5-6l-4.8-27.1L194 154.5c1.7-1.6 2.4-4.1 1.6-6.3s-2.8-3.9-5.2-4.2l-28.2-4-12.6-24.6z"/></svg>