<svg xmlns="http://www.w3.org/2000/svg" viewBox="0 0 640 512"><!--! Font Awesome Pro 6.6.0 by @fontawesome - https://fontawesome.com License - https://fontawesome.com/license (Commercial License) Copyright 2024 Fonticons, Inc. --><path d="M48 184c0-40.1 22.7-74.9 56-92.3L104 456c0 13.3 10.7 24 24 24s24-10.7 24-24l0-376 5.1 0c15 0 29.6 3.2 42.9 9.3L200 456c0 13.3 10.7 24 24 24s24-10.7 24-24l0-323.4 48 69.1L296 456c0 13.3 10.7 24 24 24s24-10.7 24-24l0-185.1 14.9 21.5c9.4 13.6 20.6 25.6 33.1 35.8L392 456c0 13.3 10.7 24 24 24s24-10.7 24-24l0-99.9c15.3 5.9 31.4 9.7 48 11.2l0 88.7c0 13.3 10.7 24 24 24s24-10.7 24-24l0-90.2c20.9-4 40-13 56-25.8L592 456c0 13.3 10.7 24 24 24s24-10.7 24-24l0-216 0-8c0-75.1-60.9-136-136-136l-8.1 0c-30.4 0-60.3 8.3-86.4 23.9L358 150.8l58 83.5 0-62.3 18.1-10.9c14.1-8.4 29.7-13.9 45.9-16L480 264c0 13.3 10.7 24 24 24s24-10.7 24-24l0-116.7c36.9 10.4 64 44.4 64 84.7l0 8c0 44.2-35.8 80-80 80l-8.5 0c-41.9 0-81.2-20.5-105.1-55L281.9 97.3C253.5 56.4 206.9 32 157.1 32L152 32C68.1 32 0 100.1 0 184L0 456c0 13.3 10.7 24 24 24s24-10.7 24-24l0-272z"/></svg>