<svg xmlns="http://www.w3.org/2000/svg" viewBox="0 0 512 512"><!--! Font Awesome Pro 6.6.0 by @fontawesome - https://fontawesome.com License - https://fontawesome.com/license (Commercial License) Copyright 2024 Fonticons, Inc. --><path d="M64 192l383.3 0c-3.3 42-12.4 79.6-27.6 113.3C391 369 338.9 421.2 255.5 461.7c-84.6-37.1-136.4-89.1-164.6-153.4C75.7 273.8 67 235.1 64 192zM272.6 6c-10.2-6.1-23-6.1-33.2 0c-53.2 31.8-107 33.5-178.8 20c-17.7-3.3-35 8.7-37.7 26.9C8 156.5 12.5 249.5 46.9 327.6c34.7 78.9 98.6 139.8 196.5 181.1c8.3 3.5 17.8 3.3 26-.5c95.4-44.7 158.9-105.4 194.1-183.2c34.9-77.2 40.4-168.5 25.5-272.2c-2.6-18.2-19.9-30.2-37.7-26.9C379.6 39.5 325.8 37.8 272.6 6z"/></svg>