<svg xmlns="http://www.w3.org/2000/svg" viewBox="0 0 320 512"><!--! Font Awesome Pro 6.6.0 by @fontawesome - https://fontawesome.com License - https://fontawesome.com/license (Commercial License) Copyright 2024 Fonticons, Inc. --><path d="M91.2 90.6c-24 10.1-37.9 26.2-41.8 48c-2.8 16.1-1 27.4 2.8 35.7c3.8 8.5 10.6 16.1 21.1 23.3c22.1 15.1 54.9 24.6 93.2 35.3c.8 .2 1.6 .4 2.4 .7c35.3 9.9 75.6 21.2 104.9 41.2c15.6 10.6 29.3 24.5 37.7 43.1c8.5 18.7 10.6 40 6.4 63.9c-7.2 40.8-34.4 68.8-70.5 83.9c-35.3 14.8-79.6 17.8-125.7 10.7l-.1 0c-24.5-3.9-64.3-17.2-90.9-26.2c-5.3-1.8-10-3.4-14-4.7C4 441.4-2.9 427.8 1.2 415.2s17.7-19.5 30.3-15.4c4.9 1.6 10.5 3.5 16.3 5.4c26.9 9 61.2 20.4 81.3 23.6c40.4 6.2 75.1 2.9 99.8-7.5c24-10.1 37.9-26.2 41.8-48c2.8-16.1 1-27.4-2.8-35.7c-3.8-8.5-10.6-16.1-21.1-23.3c-22.1-15.1-54.9-24.6-93.2-35.3l-2.4-.7c-35.3-9.9-75.6-21.2-104.9-41.2c-15.6-10.6-29.3-24.5-37.7-43.1c-8.5-18.7-10.6-40-6.4-63.9l23.6 4.2L2.1 130.3C9.3 89.5 36.5 61.5 72.6 46.4c35.3-14.8 79.6-17.8 125.7-10.7c13.7 2.1 55.1 9.9 69.7 13.8c12.8 3.3 20.5 16.5 17.2 29.3s-16.5 20.5-29.3 17.2c-12.4-3.2-52-10.8-64.9-12.8l3.6-23.7L191 83.1c-40.4-6.2-75.2-2.9-99.9 7.5z"/></svg>