<svg xmlns="http://www.w3.org/2000/svg" viewBox="0 0 512 512"><!--! Font Awesome Pro 6.6.0 by @fontawesome - https://fontawesome.com License - https://fontawesome.com/license (Commercial License) Copyright 2024 Fonticons, Inc. --><path d="M416 96c-70.7 0-128 57.3-128 128c0 11 1.4 21.8 4 32l-52 0 0-144c0-8.8-7.2-16-16-16s-16 7.2-16 16l0 137.4L107.3 148.7c-6.2-6.2-16.4-6.2-22.6 0s-6.2 16.4 0 22.6L169.4 256 96 256c-53 0-96-43-96-96s43-96 96-96c8.7 0 17.2 1.2 25.3 3.4C138.5 27.7 178 0 224 0s85.5 27.7 102.7 67.4c8-2.2 16.5-3.4 25.3-3.4c28.5 0 54.2 12.5 71.8 32.2c-2.6-.2-5.2-.2-7.8-.2zM117.9 422.3c12.9 5.7 22.7 16.7 26.8 30.3c2 6.6 8.2 11.4 15.3 11.4l192 0c7.2 0 13.4-4.8 15.3-11.4c4-13.5 13.8-24.6 26.8-30.3c35.2-15.4 61.2-47.6 68.1-86.3L49.8 336c6.9 38.7 32.9 70.9 68.1 86.3zM0 315.4C0 300.3 12.3 288 27.4 288l457.1 0c15.1 0 27.4 12.3 27.4 27.4c0 67.4-40.6 125.4-98.6 150.8C405.5 492.7 381 512 352 512l-192 0c-29 0-53.5-19.3-61.4-45.7C40.6 440.8 0 382.9 0 315.4zM464 224c0-26.5-21.5-48-48-48s-48 21.5-48 48c0 12.3 4.6 23.5 12.2 32l-54.8 0c-3.5-10-5.5-20.8-5.5-32c0-53 43-96 96-96s96 43 96 96c0 11.2-1.9 22-5.5 32l-54.8 0c7.6-8.5 12.2-19.7 12.2-32z"/></svg>