<svg xmlns="http://www.w3.org/2000/svg" viewBox="0 0 640 512"><!--! Font Awesome Pro 6.6.0 by @fontawesome - https://fontawesome.com License - https://fontawesome.com/license (Commercial License) Copyright 2024 Fonticons, Inc. --><path d="M514.5 32c-23.3 0-45.7 9.3-62.2 25.8L448 62.1l-7-7c-9.4-9.4-24.6-9.4-33.9 0s-9.4 24.6 0 33.9l7 7L400 110l-7-7c-9.4-9.4-24.6-9.4-33.9 0s-9.4 24.6 0 33.9l7 7L352 158l-7-7c-9.4-9.4-24.6-9.4-33.9 0s-9.4 24.6 0 33.9l7 7-90.6 90.6L265 176c12.8-.5 23-11.1 23-24c0-13.3-10.7-24-24-24l-16 0L56 128l-32 0c-13.3 0-24 10.7-24 24s10.7 24 24 24l2.1 0L4 275.3c-2.7 12-4 24.2-4 36.5C0 404.7 75.3 480 168.2 480l9.1 0c51.9 0 101.2-22.7 134.9-62.2l224.5-263c1.5-1.8 3.7-2.8 6.1-2.8l50.6 0c25.8 0 46.6-20.9 46.6-46.6c0-12.4-4.9-24.2-13.7-33L611.7 57.8C595.2 41.3 572.8 32 549.5 32l-35 0zM75.3 176l138.8 0L178.5 276.7c-1.7 4.7-2.5 9.7-2.5 14.8c0 24.5 19.9 44.4 44.4 44.4l2.3 0c12.4 0 24.2-4.9 33-13.6l112.1-112c.4-.4 .9-.8 1.3-1.2s.8-.8 1.2-1.3L416 161.9c.3-.3 .7-.6 1-1s.6-.7 1-1l46.4-46.3c.2-.2 .5-.4 .7-.7s.4-.4 .6-.7l20.6-20.6c7.5-7.5 17.7-11.7 28.3-11.7l35 0c10.6 0 20.8 4.2 28.3 11.7L590.1 104l-47.3 0c-16.4 0-32 7.2-42.6 19.6l-224.5 263c-24.6 28.8-60.5 45.4-98.3 45.4l-9.1 0C101.8 432 48 378.2 48 311.8c0-8.8 1-17.5 2.9-26.1L75.3 176zM136 304a24 24 0 1 0 -48 0 24 24 0 1 0 48 0zm-8-56a24 24 0 1 0 0-48 24 24 0 1 0 0 48z"/></svg>