<svg xmlns="http://www.w3.org/2000/svg" viewBox="0 0 640 512"><!--! Font Awesome Pro 6.6.0 by @fontawesome - https://fontawesome.com License - https://fontawesome.com/license (Commercial License) Copyright 2024 Fonticons, Inc. --><path d="M97.1 16.7c-4 12.6 2.9 26.1 15.5 30.2L240.4 87.7c3.1 32.4 25.5 59.2 55.6 68.6L296 464l-176 0c-13.3 0-24 10.7-24 24s10.7 24 24 24l200 0c13.3 0 24-10.7 24-24l0-331.7c14.2-4.5 26.8-12.8 36.4-23.8l132.3 42.3c12.6 4 26.1-2.9 30.2-15.5s-2.9-26.1-15.5-30.2L399.6 88.3c.3-2.7 .4-5.5 .4-8.3c0-44.2-35.8-80-80-80c-29.8 0-55.8 16.3-69.6 40.5L127.3 1.1c-12.6-4-26.1 2.9-30.2 15.5zM128 163.8L200.4 288 55.6 288 128 163.8zM254 305.1c2.6-11-1-22.3-6.7-32.1L152.1 109.8c-5-8.6-14.2-13.8-24.1-13.8s-19.1 5.3-24.1 13.8L8.7 273.1C3 282.8-.6 294.1 2 305.1C12.8 350 65.1 384 128 384s115.2-34 126-78.9zM583.3 416l-144.9 0 72.4-124.2L583.3 416zm-72.4 96c62.9 0 115.2-34 126-78.9c2.6-11-1-22.3-6.7-32.1L534.9 237.8c-5-8.6-14.2-13.8-24.1-13.8s-19.1 5.3-24.1 13.8L391.6 401.1c-5.7 9.8-9.3 21.1-6.7 32.1C395.7 478 448 512 510.8 512zM320 48a32 32 0 1 1 0 64 32 32 0 1 1 0-64z"/></svg>