<svg xmlns="http://www.w3.org/2000/svg" viewBox="0 0 640 512"><!--! Font Awesome Pro 6.6.0 by @fontawesome - https://fontawesome.com License - https://fontawesome.com/license (Commercial License) Copyright 2024 Fonticons, Inc. --><path d="M333.3 4c-8.1-5.4-18.6-5.4-26.6 0l-138 92L72 96C32.2 96 0 128.2 0 168L0 440c0 39.8 32.2 72 72 72l184 0 128 0 10.8 0C349.5 480.1 320 427.5 320 368c0-16.5 2.3-32.5 6.5-47.7c-2.1-.2-4.3-.3-6.5-.3c-35.3 0-64 28.7-64 64l0 80L72 464c-13.3 0-24-10.7-24-24l0-272c0-13.3 10.7-24 24-24l104 0c4.7 0 9.4-1.4 13.3-4L320 52.8 450.7 140c3.9 2.6 8.6 4 13.3 4l104 0c13.3 0 24 10.7 24 24l0 52.5c18.8 12.3 35.1 28 48 46.3l0-98.8c0-39.8-32.2-72-72-72l-96.7 0L333.3 4zm20.2 260.6c10.9-15 24.1-28.2 39.1-39.1c4.7-10.2 7.3-21.5 7.3-33.5c0-44.2-35.8-80-80-80s-80 35.8-80 80s35.8 80 80 80c12 0 23.3-2.6 33.5-7.3zM96 208l0 64c0 8.8 7.2 16 16 16l32 0c8.8 0 16-7.2 16-16l0-64c0-8.8-7.2-16-16-16l-32 0c-8.8 0-16 7.2-16 16zm16 112c-8.8 0-16 7.2-16 16l0 64c0 8.8 7.2 16 16 16l32 0c8.8 0 16-7.2 16-16l0-64c0-8.8-7.2-16-16-16l-32 0zM320 144c8.8 0 16 7.2 16 16l0 16 8 0c8.8 0 16 7.2 16 16s-7.2 16-16 16l-24 0c-8.8 0-16-7.2-16-16l0-32c0-8.8 7.2-16 16-16zM496 512a144 144 0 1 0 0-288 144 144 0 1 0 0 288zm0-96a24 24 0 1 1 0 48 24 24 0 1 1 0-48zm0-144c8.8 0 16 7.2 16 16l0 80c0 8.8-7.2 16-16 16s-16-7.2-16-16l0-80c0-8.8 7.2-16 16-16z"/></svg>