<svg xmlns="http://www.w3.org/2000/svg" viewBox="0 0 448 512"><!--! Font Awesome Pro 6.6.0 by @fontawesome - https://fontawesome.com License - https://fontawesome.com/license (Commercial License) Copyright 2024 Fonticons, Inc. --><path d="M448 128c0 53-43 96-96 96c-28.9 0-54.8-12.8-72.4-33l-89.7 44.9c1.4 6.5 2.1 13.2 2.1 20.1s-.7 13.6-2.1 20.1L279.6 321c17.6-20.2 43.5-33 72.4-33c53 0 96 43 96 96s-43 96-96 96s-96-43-96-96c0-6.9 .7-13.6 2.1-20.1L168.4 319c-17.6 20.2-43.5 33-72.4 33c-53 0-96-43-96-96s43-96 96-96c28.9 0 54.8 12.8 72.4 33l89.7-44.9c-1.4-6.5-2.1-13.2-2.1-20.1c0-53 43-96 96-96s96 43 96 96zM96 304a48 48 0 1 0 0-96 48 48 0 1 0 0 96zM400 128a48 48 0 1 0 -96 0 48 48 0 1 0 96 0zM352 432a48 48 0 1 0 0-96 48 48 0 1 0 0 96z"/></svg>