<svg xmlns="http://www.w3.org/2000/svg" viewBox="0 0 384 512"><!--! Font Awesome Pro 6.6.0 by @fontawesome - https://fontawesome.com License - https://fontawesome.com/license (Commercial License) Copyright 2024 Fonticons, Inc. --><path d="M320 48c8.8 0 16 7.2 16 16l0 288-80 0c-17.7 0-32 14.3-32 32l0 80L64 464c-8.8 0-16-7.2-16-16L48 64c0-8.8 7.2-16 16-16l256 0zM0 448c0 35.3 28.7 64 64 64l172.1 0c12.7 0 24.9-5.1 33.9-14.1l99.9-99.9c9-9 14.1-21.2 14.1-33.9L384 64c0-35.3-28.7-64-64-64L64 0C28.7 0 0 28.7 0 64L0 448zM203.3 84.7c-6.2-6.2-16.4-6.2-22.6 0l-96 96c-6.2 6.2-6.2 16.4 0 22.6s16.4 6.2 22.6 0l96-96c6.2-6.2 6.2-16.4 0-22.6zm96 54.6c6.2-6.2 6.2-16.4 0-22.6s-16.4-6.2-22.6 0l-160 160c-6.2 6.2-6.2 16.4 0 22.6s16.4 6.2 22.6 0l160-160z"/></svg>