<svg xmlns="http://www.w3.org/2000/svg" viewBox="0 0 640 512"><!--! Font Awesome Pro 6.6.0 by @fontawesome - https://fontawesome.com License - https://fontawesome.com/license (Commercial License) Copyright 2024 Fonticons, Inc. --><path d="M384 135.8l0 72.2c0 44.2 35.8 80 80 80l32 0c44.2 0 80-35.8 80-80l0-72.2 14.5 6.2c12.2 5.2 26.3-.4 31.5-12.6s-.4-26.3-12.6-31.5L561.6 77.4C544.7 50.2 514.5 32 480 32s-64.7 18.2-81.6 45.4L350.5 97.9c-12.2 5.2-17.8 19.3-12.6 31.5s19.3 17.8 31.5 12.6l14.5-6.2zm80-7.8a16 16 0 1 1 0 32 16 16 0 1 1 0-32zm48 16a16 16 0 1 1 32 0 16 16 0 1 1 -32 0zm-203.1-1l-.4-.9c-6.9-16.1-5.7-33.5 1.8-47.9c-7.4-11.8-18.5-21-31.7-26C271.6 65.5 264 64 256 64c-19.2 0-36.5 8.5-48.2 21.9C196.9 77.2 183 72 168 72c-30.1 0-55.3 20.8-62.2 48.8c-3.2-.5-6.5-.8-9.8-.8c-35.3 0-64 28.7-64 64c0 5.3 .7 10.5 1.9 15.5C13.7 210.3 0 231.5 0 256s13.7 45.7 33.9 56.5c-1.2 5-1.9 10.2-1.9 15.5c0 35.3 28.7 64 64 64c.5 0 1 0 1.5 0l17.6 93.9c2.8 15.1 16.1 26.1 31.5 26.1l29.4 0c17.7 0 32-14.3 32-32l0-53.7c11.7 13.3 28.9 21.7 48 21.7s36.3-8.4 48-21.7l0 53.7c0 17.7 14.3 32 32 32l29.4 0c15.4 0 28.6-11 31.4-26.1L414.5 392c.5 0 1 0 1.5 0c35.3 0 64-28.7 64-64c0-2.7-.2-5.4-.5-8L464 320c-11.8 0-23.2-1.8-33.8-5.2c.2 3.1 .6 6.2 1.4 9.3c.3 1.2 .5 2.5 .5 3.9c0 8.8-7.2 16-16 16c-.9 0-1.7-.1-2.5-.2c-24.6-3.8-48 11.9-53.9 36c-1.7 7-8.1 12.1-15.5 12.1c-3.8 0-7.2-1.3-9.9-3.4c-20.1-16-49.1-13.3-66 6c-3 3.4-7.3 5.5-12.1 5.5s-9.1-2.1-12.1-5.5c-16.9-19.3-45.9-21.9-66-6c-2.7 2.2-6.1 3.4-9.9 3.4c-7.5 0-13.8-5.1-15.5-12.1c-5.9-24.2-29.3-39.8-53.9-36c-.8 .1-1.6 .2-2.5 .2c-8.8 0-16-7.2-16-16c0-1.4 .2-2.7 .5-3.9c5.3-21.3-4.6-43.6-24-53.9C51.3 267.4 48 262 48 256s3.3-11.4 8.5-14.2c19.4-10.4 29.3-32.6 24-53.9c-.3-1.2-.5-2.5-.5-3.9c0-8.8 7.2-16 16-16c.9 0 1.7 .1 2.5 .2c24.6 3.8 48-11.9 53.9-36c1.7-7 8.1-12.1 15.5-12.1c3.8 0 7.2 1.3 9.9 3.5c20.1 16 49.1 13.3 66-6c3-3.4 7.3-5.5 12.1-5.5c5.8 0 10.9 3 13.7 7.8c8 13.3 22 21.9 37.4 23.1c.6 0 1.2 .1 1.7 .1z"/></svg>