<svg xmlns="http://www.w3.org/2000/svg" viewBox="0 0 640 512"><!--! Font Awesome Pro 6.6.0 by @fontawesome - https://fontawesome.com License - https://fontawesome.com/license (Commercial License) Copyright 2024 Fonticons, Inc. --><path d="M38.8 5.1C28.4-3.1 13.3-1.2 5.1 9.2S-1.2 34.7 9.2 42.9l592 464c10.4 8.2 25.5 6.3 33.7-4.1s6.3-25.5-4.1-33.7l-54.8-43L576 224l25.8 0c21.1 0 38.2-17.1 38.2-38.2c0-6.4-1.6-12.7-4.7-18.3L557.6 25C549.2 9.6 533.1 0 515.5 0l-391 0C106.9 0 90.8 9.6 82.4 25L76.9 35 38.8 5.1zM115.2 65l9.3-17 391 0 69.8 128-328.5 0L115.2 65zM318.1 224L528 224l0 164.5L318.1 224zM0 185.8C0 206.9 17.1 224 38.2 224L64 224l0 248c0 22.1 17.9 40 40 40l240 0c22.1 0 40-17.9 40-40l0-73.5L284.3 320 112 320l0-96 50.5 0-60.9-48-46.9 0 14.1-25.8L30.5 120 4.7 167.4C1.6 173.1 0 179.4 0 185.8zM112 464l0-96 224 0 0 96-224 0z"/></svg>