<svg xmlns="http://www.w3.org/2000/svg" viewBox="0 0 640 512"><!--! Font Awesome Pro 6.6.0 by @fontawesome - https://fontawesome.com License - https://fontawesome.com/license (Commercial License) Copyright 2024 Fonticons, Inc. --><path d="M64 24l0 8L48 32C21.5 32 0 53.5 0 80L0 368c0 26.5 21.5 48 48 48l16 0 0 72c0 13.3 10.7 24 24 24s24-10.7 24-24l0-72 272 0c-10.8-14.3-19.2-30.5-24.7-48L48 368 48 80l480 0 0 80.8c16.9 1.7 33.1 6 48 12.5L576 80c0-26.5-21.5-48-48-48l-16 0 0-8c0-13.3-10.7-24-24-24s-24 10.7-24 24l0 8L112 32l0-8c0-13.3-10.7-24-24-24S64 10.7 64 24zM640 320c0-47.4-25.7-88.8-64-110.9c-7.4-4.3-16 1.5-16 10l0 84.9c0 26.5-21.5 48-48 48s-48-21.5-48-48l0-84.9c0-8.5-8.6-14.3-16-10c-38.3 22.1-64 63.5-64 110.9c0 40.4 18.7 76.5 48 99.9l0 56.1c0 19.9 16.1 36 36 36l88 0c19.9 0 36-16.1 36-36l0-56.1c29.3-23.5 48-59.5 48-99.9zM512.3 192l-.3 0-.3 0 .7 0z"/></svg>