<svg xmlns="http://www.w3.org/2000/svg" viewBox="0 0 640 512"><!--! Font Awesome Pro 6.6.0 by @fontawesome - https://fontawesome.com License - https://fontawesome.com/license (Commercial License) Copyright 2024 Fonticons, Inc. --><path d="M38.8 5.1C28.4-3.1 13.3-1.2 5.1 9.2S-1.2 34.7 9.2 42.9l592 464c10.4 8.2 25.5 6.3 33.7-4.1s6.3-25.5-4.1-33.7l-91.7-71.9C562.6 355.5 576 307.3 576 256c0-69.7-24.8-133.6-66-183.4c-8.4-10.2-23.6-11.6-33.8-3.2s-11.6 23.6-3.2 33.8c34.3 41.5 55 94.7 55 152.8c0 40.1-9.8 77.9-27.2 111.2l-51.6-40.4c9.5-21.7 14.8-45.6 14.8-70.8c0-40.7-13.8-78.2-37-108c-8.1-10.5-23.2-12.3-33.7-4.2s-12.3 23.2-4.2 33.7C406 199.2 416 226.4 416 256c0 13.9-2.2 27.3-6.3 39.8L38.8 5.1zm84.7 188.2C116.1 212.8 112 233.9 112 256c0 40.7 13.8 78.2 37 108c8.1 10.5 23.2 12.3 33.7 4.2s12.3-23.2 4.2-33.7C170 312.8 160 285.6 160 256c0-10.7 1.3-21.1 3.8-31l-40.3-31.7zM33 122C11.9 162 0 207.6 0 256c0 69.7 24.8 133.6 66 183.4c8.4 10.2 23.6 11.6 33.8 3.2s11.6-23.6 3.2-33.8C68.6 367.3 48 314.1 48 256c0-37.1 8.4-72.3 23.5-103.7L33 122z"/></svg>