<svg xmlns="http://www.w3.org/2000/svg" viewBox="0 0 640 512"><!--! Font Awesome Pro 6.6.0 by @fontawesome - https://fontawesome.com License - https://fontawesome.com/license (Commercial License) Copyright 2024 Fonticons, Inc. --><path d="M400 416l-288 0 0 32c0 8.8 7.2 16 16 16l256 0c8.8 0 16-7.2 16-16l0-32zm48 32c0 5.5-.7 10.9-2 16l82 0c22.1 0 40-17.9 40-40l0-206.4c-14.3-8.3-24-23.8-24-41.6c0-26.5 21.5-48 48-48s48 21.5 48 48c0 17.8-9.7 33.3-24 41.6L616 424c0 48.6-39.4 88-88 88l-144 0-256 0c-35.3 0-64-28.7-64-64l0-32c-35.3 0-64-28.7-64-64L0 160c0-35.3 28.7-64 64-64l0-32C64 28.7 92.7 0 128 0L384 0c35.3 0 64 28.7 64 64l0 32c35.3 0 64 28.7 64 64l0 192c0 35.3-28.7 64-64 64l0 32zM400 96l0-32c0-8.8-7.2-16-16-16L128 48c-8.8 0-16 7.2-16 16l0 32 288 0zm48 48L64 144c-8.8 0-16 7.2-16 16l0 192c0 8.8 7.2 16 16 16l384 0c8.8 0 16-7.2 16-16l0-192c0-8.8-7.2-16-16-16zM112 176l56 0c7.8 0 15.1 3.8 19.6 10.2s5.6 14.5 3 21.9l-40 112c-4.5 12.5-18.2 19-30.7 14.5s-19-18.2-14.5-30.7L133.9 224 112 224c-13.3 0-24-10.7-24-24s10.7-24 24-24zm96 24c0-13.3 10.7-24 24-24l56 0c7.8 0 15.1 3.8 19.6 10.2s5.6 14.5 3 21.9l-40 112c-4.5 12.5-18.2 19-30.7 14.5s-19-18.2-14.5-30.7L253.9 224 232 224c-13.3 0-24-10.7-24-24zm144-24l56 0c7.8 0 15.1 3.8 19.6 10.2s5.6 14.5 3 21.9l-40 112c-4.5 12.5-18.2 19-30.7 14.5s-19-18.2-14.5-30.7L373.9 224 352 224c-13.3 0-24-10.7-24-24s10.7-24 24-24z"/></svg>