<svg xmlns="http://www.w3.org/2000/svg" viewBox="0 0 512 512"><!--! Font Awesome Pro 6.6.0 by @fontawesome - https://fontawesome.com License - https://fontawesome.com/license (Commercial License) Copyright 2024 Fonticons, Inc. --><path d="M158.4 32.6c4.8-12.4-1.4-26.3-13.8-31s-26.3 1.4-31 13.8L81.1 100c-7.9 20.7-3 44.1 12.7 59.7l57.4 57.4L70.8 190.3c-2.4-.8-4.3-2.7-5.1-5.1L46.8 128.4C42.6 115.8 29 109 16.4 113.2S-3 131 1.2 143.6l18.9 56.8c5.6 16.7 18.7 29.8 35.4 35.4L116.1 256 55.6 276.2c-16.7 5.6-29.8 18.7-35.4 35.4L1.2 368.4C-3 381 3.8 394.6 16.4 398.8s26.2-2.6 30.4-15.2l18.9-56.8c.8-2.4 2.7-4.3 5.1-5.1l68.8-22.9c-.8 3.2-1.5 6.4-2 9.7L93.7 352.3C78.1 368 73.1 391.4 81.1 412l32.5 84.6c4.8 12.4 18.6 18.5 31 13.8s18.5-18.6 13.8-31l-32.5-84.6c-1.1-3-.4-6.3 1.8-8.5l12.1-12.1C153.2 425.8 200.1 464 256 464s102.8-38.2 116.2-89.9l12.1 12.1c2.2 2.2 2.9 5.6 1.8 8.5l-32.5 84.6c-4.8 12.4 1.4 26.3 13.8 31s26.3-1.4 31-13.8L430.9 412c7.9-20.7 3-44.1-12.7-59.7l-43.8-43.8c-.5-3.3-1.2-6.5-2-9.7l68.8 22.9c2.4 .8 4.3 2.7 5.1 5.1l18.9 56.8c4.2 12.6 17.8 19.4 30.4 15.2s19.4-17.8 15.2-30.4l-18.9-56.8c-5.6-16.7-18.7-29.8-35.4-35.4L395.9 256l60.5-20.2c16.7-5.6 29.8-18.7 35.4-35.4l18.9-56.8c4.2-12.6-2.6-26.2-15.2-30.4s-26.2 2.6-30.4 15.2l-18.9 56.8c-.8 2.4-2.7 4.3-5.1 5.1l-80.4 26.8 57.4-57.4c15.6-15.6 20.6-39 12.7-59.7L398.4 15.4C393.6 3 379.8-3.2 367.4 1.6s-18.5 18.6-13.8 31l32.5 84.6c1.1 3 .4 6.3-1.8 8.5L352 158.1c-.6-32.8-17.8-61.6-43.3-78.4c-5.8-3.8-13.1-4.9-19.8-3s-12.3 6.7-15.2 13L256 128.1 238.3 89.7c-2.9-6.3-8.5-11.1-15.2-13s-13.9-.8-19.8 3c-25.6 16.8-42.7 45.5-43.3 78.4l-32.3-32.3c-2.2-2.2-2.9-5.6-1.8-8.5l32.5-84.6zM208 160c0-5.5 .9-10.8 2.6-15.7l15.6 33.8c3.9 8.5 12.4 13.9 21.8 13.9l16 0c9.4 0 17.9-5.4 21.8-13.9l15.6-33.8c1.7 4.9 2.6 10.2 2.6 15.7l0 88c0 3.4-.4 6.7-1 9.9c-1.6 7.6 .6 15.5 5.9 21.2C320.8 292 328 309.1 328 328l0 16c0 39.8-32.2 72-72 72s-72-32.2-72-72l0-16c0-18.9 7.2-36 19.1-48.9c5.3-5.7 7.5-13.6 5.9-21.2c-.7-3.2-1-6.5-1-9.9l0-88z"/></svg>