<svg xmlns="http://www.w3.org/2000/svg" viewBox="0 0 512 512"><!--! Font Awesome Pro 6.6.0 by @fontawesome - https://fontawesome.com License - https://fontawesome.com/license (Commercial License) Copyright 2024 Fonticons, Inc. --><path d="M187.7 400.2L84.9 409.5c-11.2 1-20.9-7.8-20.9-19.1c0-4.2 1.3-8.2 3.8-11.5l18.8-25c16.7-22.3 25.4-49.5 24.8-77.3c-.5-23.1-7.5-45.7-20.2-65L50.6 149.7c-1.7-2.6-2.6-5.7-2.6-8.8c0-10.1 9.1-17.7 19-15.9l42.8 7.8c52.6 9.6 106.3-9.9 140.6-51l22.3-26.8c3.7-4.4 9.1-6.9 14.8-6.9c8.3 0 15.7 5.3 18.3 13.2l15 45.1c15.7 47.2 51.9 84.7 98.5 102.2l32.3 12.1c7.4 2.8 12.4 9.9 12.4 17.8c0 6-2.8 11.6-7.6 15.2l-62 46.5c-37.9 28.4-57.9 74.7-52.7 121.8l2.5 22.7c1.1 10.3-6.9 19.3-17.3 19.3c-3.9 0-7.8-1.3-10.9-3.8L279 430.5c-24.7-19.8-55.4-30.5-87-30.5c-1.5 0-2.9 .1-4.3 .2zM51 237.8c7.8 11.9 12.1 25.7 12.4 39.8c.4 17-4.9 33.7-15.2 47.4l-18.8 25C20.7 361.7 16 375.9 16 390.4c0 39.5 33.9 70.5 73.3 66.9L192 448c20.7 0 40.8 7 57 20l37.1 29.7c11.6 9.3 26 14.3 40.8 14.3c39 0 69.3-33.9 65-72.6l-2.5-22.7c-3.4-30.2 9.5-59.9 33.8-78.1l62-46.5c16.9-12.7 26.8-32.5 26.8-53.6c0-28-17.3-53-43.5-62.8l-32.3-12.1c-33-12.4-58.7-39-69.8-72.4L351.3 46c-9.2-27.5-34.9-46-63.8-46c-20 0-38.9 8.9-51.7 24.2L213.5 51C190.3 78.8 154 92 118.4 85.5L75.6 77.7C36.2 70.6 0 100.8 0 140.9c0 12.5 3.6 24.7 10.5 35.1L51 237.8z"/></svg>