<svg xmlns="http://www.w3.org/2000/svg" viewBox="0 0 448 512"><!--! Font Awesome Pro 6.6.0 by @fontawesome - https://fontawesome.com License - https://fontawesome.com/license (Commercial License) Copyright 2024 Fonticons, Inc. --><path d="M64 80c-8.8 0-16 7.2-16 16l0 320c0 8.8 7.2 16 16 16l320 0c8.8 0 16-7.2 16-16l0-320c0-8.8-7.2-16-16-16L64 80zM0 96C0 60.7 28.7 32 64 32l320 0c35.3 0 64 28.7 64 64l0 320c0 35.3-28.7 64-64 64L64 480c-35.3 0-64-28.7-64-64L0 96zM128 313.4L128 176c0-8.8 7.2-16 16-16l137.4 0c12.5 0 22.6 10.1 22.6 22.6c0 6-2.4 11.8-6.6 16L264 232l66.3 66.3c3.6 3.6 5.7 8.5 5.7 13.7s-2 10-5.7 13.7l-36.7 36.7C290 366 285.1 368 280 368s-10-2-13.7-5.7L200 296l-33.4 33.4c-4.2 4.2-10 6.6-16 6.6c-12.5 0-22.6-10.1-22.6-22.6z"/></svg>