<svg xmlns="http://www.w3.org/2000/svg" viewBox="0 0 576 512"><!--! Font Awesome Pro 6.6.0 by @fontawesome - https://fontawesome.com License - https://fontawesome.com/license (Commercial License) Copyright 2024 Fonticons, Inc. --><path d="M512 80c8.8 0 16 7.2 16 16l0 320c0 8.8-7.2 16-16 16L64 432c-8.8 0-16-7.2-16-16L48 96c0-8.8 7.2-16 16-16l448 0zM64 32C28.7 32 0 60.7 0 96L0 416c0 35.3 28.7 64 64 64l448 0c35.3 0 64-28.7 64-64l0-320c0-35.3-28.7-64-64-64L64 32zM304 184l0 144c0 13.3 10.7 24 24 24l56 0c53 0 96-43 96-96s-43-96-96-96l-56 0c-13.3 0-24 10.7-24 24zm48 24l32 0c26.5 0 48 21.5 48 48s-21.5 48-48 48l-32 0 0-96zm-189.8 4.5c.7-.7 2.1-1.9 5.4-2.9c7.1-2.3 18.8-2.9 35.5-.6c5.1 .7 21 3.3 25.6 4.4c12.9 2.9 25.8-5.1 28.7-18.1s-5.1-25.8-18.1-28.7c-6.6-1.5-24.1-4.4-29.9-5.2c-19-2.5-39.3-3.1-56.7 2.5c-19.2 6.2-34.9 20.3-39.6 43.5c-.1 .4-.2 .9-.2 1.3c-1.7 11.7-.3 23 5.2 33.2c5.3 9.9 13.3 16.7 21.1 21.3c13.9 8.3 32 12.5 45.5 15.6l1.8 .4c16.1 3.8 26.9 6.5 33.6 10.5c1.4 .8 2.2 1.5 2.7 2c.5 .4 .6 .7 .6 .7c0 0 .1 .1 .1 .5c.1 .4 .1 1.4-.1 3.2c-.4 2.4-1 3.2-1.3 3.5c-.4 .5-1.8 1.6-5.1 2.7c-7.3 2.3-19.5 2.8-36.2 .6c-7.2-1-20-4.7-31.1-8c0 0 0 0 0 0s0 0 0 0c-2.6-.7-5-1.5-7.3-2.1c-12.7-3.6-26 3.7-29.7 16.5s3.7 26 16.5 29.7c1.4 .4 3.2 .9 5.3 1.5c10.8 3.2 28.6 8.4 39.7 9.9l.1 0c19 2.5 39.6 3.2 57.1-2.4c9.1-2.9 18.2-7.7 25.6-15.6c7.6-8.1 12.1-18.1 13.8-29.3c1.7-11.7 .3-23-5.2-33.2c-5.3-9.9-13.3-16.7-21.1-21.3c-13.9-8.3-32-12.5-45.5-15.6l-1.8-.4c-16.1-3.8-26.9-6.5-33.6-10.5c-1.4-.8-2.2-1.5-2.7-2c-.5-.4-.6-.7-.6-.7c0 0 0 0 0 0c0 0-.1-.1-.1-.5s-.1-1.2 0-2.5c.5-2.3 1.3-3.3 1.8-3.8z"/></svg>