<svg xmlns="http://www.w3.org/2000/svg" viewBox="0 0 576 512"><!--! Font Awesome Pro 6.6.0 by @fontawesome - https://fontawesome.com License - https://fontawesome.com/license (Commercial License) Copyright 2024 Fonticons, Inc. --><path d="M310.9 16.7C307.7 6.8 298.5 0 288 0s-19.7 6.8-22.9 16.7L214.5 176 56 176c-10.3 0-19.4 6.5-22.7 16.2s-.1 20.4 8 26.7L172.1 320.7 121.1 480.7c-3.2 10 .5 21 9.1 27s20.2 5.7 28.5-.7L288 406.4 417.3 506.9c8.3 6.5 19.8 6.8 28.5 .7s12.3-16.9 9.1-27L403.9 320.7 534.7 218.9c8.1-6.3 11.3-17 8-26.7s-12.4-16.2-22.7-16.2l-158.4 0L310.9 16.7zM288 103.2s0 0 0 0l33.1 104.1c3.2 10 12.4 16.7 22.9 16.7l106.1 0-88.8 69.1c-7.9 6.2-11.2 16.6-8.1 26.2l32.5 102.3-82.9-64.5c-4.3-3.4-9.5-5.1-14.7-5.1l0-248.8z"/></svg>