<svg xmlns="http://www.w3.org/2000/svg" viewBox="0 0 512 512"><!--! Font Awesome Pro 6.6.0 by @fontawesome - https://fontawesome.com License - https://fontawesome.com/license (Commercial License) Copyright 2024 Fonticons, Inc. --><path d="M494.1 33.5c5.2-12.2-.4-26.3-12.6-31.5s-26.3 .4-31.5 12.6C439.7 38.4 420.3 61.8 402 80c-.7 .7-1.4 1.4-2 2c0-.7 0-1.4 0-2.1c0-35.7-17.7-62.6-26.8-74C370 2 365.1 0 360 0s-10 2-13.3 6C337.6 17 320 42.3 320 72c0 40 15.3 55.3 40 80s40 40 80 40c29.7 0 55-17.6 66-26.7c4-3.3 6-8.2 6-13.3s-2-10-6-13.2c-10.8-8.6-35.4-24.9-68.2-26.6c19.4-19.7 42.9-47.5 56.3-78.7zM192.2 112c20.5 0 40.8 7.8 56.4 23.4l128 128c15.6 15.6 23.4 36 23.4 56.6c0 59.2-62.9 144-224 144c-60 0-87.8-11.7-102.1-25.9S48 396 48 336c0-161 84.9-224 144.2-224zm0-48C96.2 64 0 160 0 336C0 464 48 512 176 512c176 0 272-96 272-192c0-32.8-12.5-65.5-37.5-90.5l-128-128C257.6 76.6 224.9 64.1 192.2 64zm-2.8 90.5c-5.9-5.9-22.4-3.2-34.3 8.7s-14.6 28.3-8.7 34.3s22.4 3.2 34.3-8.7s14.6-28.3 8.7-34.3zm47.3 98.3c11.9-11.9 14.6-28.3 8.7-34.3s-22.4-3.2-34.3 8.7s-14.6 28.3-8.7 34.3s22.4 3.2 34.3-8.7zm-32 80c11.9-11.9 14.6-28.3 8.7-34.3s-22.4-3.2-34.3 8.7s-14.6 28.3-8.7 34.3s22.4 3.2 34.3-8.7zm-32 80c11.9-11.9 14.6-28.3 8.7-34.3s-22.4-3.2-34.3 8.7s-14.6 28.3-8.7 34.3s22.4 3.2 34.3-8.7zm96.7-66.3c-5.9-5.9-22.4-3.2-34.3 8.7s-14.6 28.3-8.7 34.3s22.4 3.2 34.3-8.7s14.6-28.3 8.7-34.3zm24-80c-5.9-5.9-22.4-3.2-34.3 8.7s-14.6 28.3-8.7 34.3s22.4 3.2 34.3-8.7s14.6-28.3 8.7-34.3zm55.3 90.3c11.9-11.9 14.6-28.3 8.7-34.3s-22.4-3.2-34.3 8.7s-14.6 28.3-8.7 34.3s22.4 3.2 34.3-8.7zm-192-80c11.9-11.9 14.6-28.3 8.7-34.3s-22.4-3.2-34.3 8.7s-14.6 28.3-8.7 34.3s22.4 3.2 34.3-8.7zm-23.3 53.7c-5.9-5.9-22.4-3.2-34.3 8.7s-14.6 28.3-8.7 34.3s22.4 3.2 34.3-8.7s14.6-28.3 8.7-34.3z"/></svg>