<svg xmlns="http://www.w3.org/2000/svg" viewBox="0 0 512 512"><!--! Font Awesome Pro 6.6.0 by @fontawesome - https://fontawesome.com License - https://fontawesome.com/license (Commercial License) Copyright 2024 Fonticons, Inc. --><path d="M347.3 199.4l33.9 33.9L491.1 123.5c7.9-7.9 12.8-18.4 13.9-29.6l7-76.5c.4-4.7-1.3-9.4-4.6-12.8s-8-5.1-12.8-4.6L418.1 7c-11.2 1-21.7 5.9-29.6 13.9L278.6 130.7l33.9 33.9L422.4 54.8l38.2-3.5-3.5 38.2L347.3 199.4zM233.4 381.3l-33.9-33.9-42.7 42.7-34.7-34.7 42.7-42.7-33.9-33.9L88 321.4 75.3 308.7c-6.2-6.2-16.4-6.2-22.6 0l-16 16c-4.7 4.7-6 11.8-3.3 17.8l27.5 62L4.7 460.7c-6.2 6.2-6.2 16.4 0 22.6l24 24c6.2 6.2 16.4 6.2 22.6 0l56.2-56.2 62 27.5c6 2.7 13.1 1.4 17.8-3.3l16-16c6.2-6.2 6.2-16.4 0-22.6L190.6 424l42.7-42.7zM54.8 89.6L51.3 51.3l38.2 3.5L367.4 332.7l33.9-33.9L123.5 20.9C115.6 12.9 105.1 8 93.9 7L17.4 .1C12.7-.4 8 1.3 4.7 4.7S-.4 12.7 .1 17.4L7 93.9c1 11.2 5.9 21.7 13.9 29.6L298.7 401.4l33.9-33.9L54.8 89.6zM459.3 308.7c-6.2-6.2-16.4-6.2-22.6 0l-128 128c-6.2 6.2-6.2 16.4 0 22.6l16 16c4.7 4.7 11.8 6 17.8 3.3l62-27.5 56.2 56.2c6.2 6.2 16.4 6.2 22.6 0l24-24c6.2-6.2 6.2-16.4 0-22.6l-56.2-56.2 27.5-62c2.7-6.1 1.4-13.1-3.3-17.8l-16-16z"/></svg>