<svg xmlns="http://www.w3.org/2000/svg" viewBox="0 0 512 512"><!--! Font Awesome Pro 6.6.0 by @fontawesome - https://fontawesome.com License - https://fontawesome.com/license (Commercial License) Copyright 2024 Fonticons, Inc. --><path d="M507.3 4.7C503.7 1 498.5-.6 493.4 .2L417.6 12.8c-16.4 2.7-31.6 10.6-43.4 22.3L166.6 242.7l33.9 33.9L408.1 69.1c4.7-4.7 10.8-7.8 17.4-8.9l31.6-5.3-5.3 31.6c-1.1 6.6-4.2 12.7-8.9 17.4L235.3 311.4l33.9 33.9L476.8 137.8c11.8-11.8 19.6-27 22.3-43.4l12.6-75.8c.8-5.1-.8-10.3-4.5-13.9zM84.7 228.7l-16 16c-5.4 5.4-6.2 13.8-2 20.2l53.1 79.6c2.1 3.2 1.7 7.4-1 10.1L79.2 394.2c-2.1 2.1-5.3 2.9-8.2 1.9L37.1 384.8c-5.7-1.9-12.1-.4-16.4 3.9l-16 16c-6.2 6.2-6.2 16.4 0 22.6l80 80c6.2 6.2 16.4 6.2 22.6 0l16-16c4.3-4.3 5.8-10.6 3.9-16.4L115.9 441c-1-2.9-.2-6 1.9-8.2l39.6-39.6c2.7-2.7 6.9-3.1 10.1-1l79.6 53.1c6.3 4.2 14.8 3.4 20.2-2l16-16c6.2-6.2 6.2-16.4 0-22.6l-176-176c-6.2-6.2-16.4-6.2-22.6 0z"/></svg>