<svg xmlns="http://www.w3.org/2000/svg" viewBox="0 0 576 512"><!--! Font Awesome Pro 6.6.0 by @fontawesome - https://fontawesome.com License - https://fontawesome.com/license (Commercial License) Copyright 2024 Fonticons, Inc. --><path d="M96 80c-26.5 0-48 21.5-48 48l0 45.4C63.9 150.8 90.2 136 120 136c15.2 0 29.5 3.9 42 10.7c16.1-21.1 41.4-34.7 70-34.7c21.3 0 40.8 7.5 56 20.1c15.2-12.6 34.7-20.1 56-20.1c28.5 0 53.9 13.6 70 34.7c12.5-6.8 26.8-10.7 42-10.7c29.8 0 56.1 14.8 72 37.4l0-45.4c0-26.5-21.5-48-48-48L96 80zM48 362.6L48 384c0 26.5 21.5 48 48 48l384 0c26.5 0 48-21.5 48-48l0-21.4c-15.9 22.6-42.2 37.4-72 37.4c-21.3 0-40.8-7.5-56-20.1c-15.2 12.6-34.7 20.1-56 20.1s-40.8-7.5-56-20.1c-15.2 12.6-34.7 20.1-56 20.1s-40.8-7.5-56-20.1c-15.2 12.6-34.7 20.1-56 20.1c-29.8 0-56.1-14.8-72-37.4zM0 128C0 75 43 32 96 32l384 0c53 0 96 43 96 96l0 256c0 53-43 96-96 96L96 480c-53 0-96-43-96-96L0 128zm192 72l0 24 0 16c0 .7 0 1.3 .1 2c.9 7.2 6.6 13 13.9 13.9c.7 .1 1.3 .1 2 .1l48 0c.7 0 1.3 0 2-.1c7.2-.9 13-6.6 13.9-13.9c.1-.7 .1-1.3 .1-2l0-40c0-10.9-4.4-20.8-11.4-28c-7.3-7.4-17.4-12-28.6-12c-15.2 0-28.4 8.5-35.2 21c-3.1 5.7-4.8 12.1-4.8 19zm64 88l-48 0c-.7 0-1.3 0-2 .1c-7.2 .9-13 6.6-13.9 13.9c-.1 .7-.1 1.3-.1 2l0 8c0 10.9 4.4 20.8 11.4 28c7.3 7.4 17.4 12 28.6 12s21.3-4.6 28.6-12c7.1-7.2 11.4-17.1 11.4-28l0-8c0-.7 0-1.3-.1-2c-.9-7.2-6.6-13-13.9-13.9c-.7-.1-1.3-.1-2-.1zm48 16l0 8c0 10.9 4.4 20.8 11.4 28c7.3 7.4 17.4 12 28.6 12s21.3-4.6 28.6-12c7.1-7.2 11.4-17.1 11.4-28l0-8c0-.7 0-1.3-.1-2c-.9-7.2-6.6-13-13.9-13.9c-.6-.1-1.3-.1-2-.1l-48 0c-.7 0-1.3 0-2 .1c-7.2 .9-13 6.6-13.9 13.9c-.1 .7-.1 1.3-.1 2zm16-48l48 0c.7 0 1.3 0 2-.1c7.3-.9 13-6.6 13.9-13.9c.1-.7 .1-1.3 .1-2l0-16 0-24c0-6.9-1.7-13.4-4.8-19c-6.8-12.5-20-21-35.2-21c-11.2 0-21.3 4.6-28.6 12c-7.1 7.2-11.4 17.1-11.4 28l0 40c0 .7 0 1.3 .1 2c.9 7.2 6.6 13 13.9 13.9c.7 .1 1.3 .1 2 .1zm110-.1c.6 .1 1.3 .1 2 .1l48 0c8.2 0 14.9-6.1 15.9-14c.1-.7 .1-1.3 .1-2l0-16c0-22.1-17.9-40-40-40c-9.2 0-17.6 3.1-24.3 8.3c-2.9 2.2-5.5 4.8-7.7 7.7c-5 6.7-8 15-8 24l0 16c0 .7 0 1.3 .1 2c.9 7.2 6.6 13 13.9 13.9zM416.1 302c-.1 .7-.1 1.3-.1 2l0 8c0 10.9 4.4 20.8 11.4 28c7.3 7.4 17.4 12 28.6 12c22.1 0 40-17.9 40-40l0-8c0-.7 0-1.3-.1-2c-1-7.9-7.7-14-15.9-14l-48 0c-.7 0-1.3 0-2 .1c-7.3 .9-13 6.6-13.9 13.9zM146 288.1c-.7-.1-1.3-.1-2-.1l-48 0c-8.2 0-14.9 6.1-15.9 14c-.1 .7-.1 1.3-.1 2l0 8c0 22.1 17.9 40 40 40c11.2 0 21.3-4.6 28.6-12c7.1-7.2 11.4-17.1 11.4-28l0-8c0-.7 0-1.3-.1-2c-.9-7.2-6.6-13-13.9-13.9zM159.9 242c.1-.7 .1-1.3 .1-2l0-16c0-9-3-17.3-8-24c-2.2-2.9-4.8-5.5-7.7-7.7c-6.7-5.2-15.2-8.3-24.3-8.3c-22.1 0-40 17.9-40 40l0 16c0 .7 0 1.3 .1 2c1 7.9 7.7 14 15.9 14l48 0c.7 0 1.3 0 2-.1c7.2-.9 13-6.6 13.9-13.9z"/></svg>