<svg xmlns="http://www.w3.org/2000/svg" viewBox="0 0 576 512"><!--! Font Awesome Pro 6.6.0 by @fontawesome - https://fontawesome.com License - https://fontawesome.com/license (Commercial License) Copyright 2024 Fonticons, Inc. --><path d="M209.8 111.9c-8.9-9.9-24-10.7-33.9-1.8l-39.9 36L136 24c0-13.3-10.7-24-24-24S88 10.7 88 24l0 122.1-39.9-36c-9.9-8.9-25-8.1-33.9 1.8s-8.1 25 1.8 33.9l80 72c9.1 8.2 23 8.2 32.1 0l80-72c9.9-8.9 10.7-24 1.8-33.9zm352 0c-8.9-9.9-24-10.7-33.9-1.8l-39.9 36L488 24c0-13.3-10.7-24-24-24s-24 10.7-24 24l0 122.1-39.9-36c-9.9-8.9-25-8.1-33.9 1.8s-8.1 25 1.8 33.9l80 72c9.1 8.2 23 8.2 32.1 0l80-72c9.9-8.9 10.7-24 1.8-33.9zM302.7 165c-8.6-6.7-20.7-6.7-29.3 0L107.6 293.1c-11.5 8.9-19.1 22-21.2 36.4L69.5 448.1C64.6 481.8 90.8 512 124.9 512l326.2 0c34.1 0 60.3-30.2 55.4-63.9L489.6 329.5c-2.1-14.4-9.7-27.5-21.2-36.4L302.7 165zM137 331l127-98.2L264 464l-139.1 0c-4.9 0-8.6-4.3-7.9-9.1l16.9-118.6c.3-2.1 1.4-3.9 3-5.2zm175 29l0-127.1L439 331c1.6 1.3 2.7 3.1 3 5.2L459 454.9c.7 4.8-3.1 9.1-7.9 9.1l-76.7 0L312 360z"/></svg>