<svg xmlns="http://www.w3.org/2000/svg" viewBox="0 0 512 512"><!--! Font Awesome Pro 6.6.0 by @fontawesome - https://fontawesome.com License - https://fontawesome.com/license (Commercial License) Copyright 2024 Fonticons, Inc. --><path d="M424 0c-13.3 0-24 10.7-24 24l0 30.5c0 30.1 4.9 60 14.4 88.5l2.5 7.4c6.1 18.4 14.4 35.6 22.2 51.5c15 30.5 26.3 66.3 22 105.3c-4 36.7-22.3 79.2-70.5 124.8l-269.3 0c-48.2-45.6-66.4-88.1-70.5-124.8c-4.3-39 7-74.8 22-105.3c7.8-15.8 16.1-33 22.2-51.5l2.5-7.4c9.5-28.6 14.4-58.4 14.4-88.5L112 24c0-13.3-10.7-24-24-24S64 10.7 64 24l0 30.5c0 24.9-4 49.7-11.9 73.4l-2.5 7.4c-5 15-11.9 29.6-19.7 45.4C12.7 215.5-2.5 260.9 3.2 312.4c5.5 49.7 30 102.1 84.8 154.1L88 496c0 8.8 7.2 16 16 16l16 0c8.8 0 16-7.2 16-16l0-16 48 0 0 16c0 8.8 7.2 16 16 16l16 0c8.8 0 16-7.2 16-16l0-16 48 0 0 16c0 8.8 7.2 16 16 16l16 0c8.8 0 16-7.2 16-16l0-16 48 0 0 16c0 8.8 7.2 16 16 16l16 0c8.8 0 16-7.2 16-16l0-29.5c54.8-51.9 79.3-104.3 84.8-154.1c5.7-51.5-9.5-96.9-26.7-131.8c-7.8-15.8-14.7-30.4-19.7-45.4l-2.5-7.4C452 104.2 448 79.4 448 54.5L448 24c0-13.3-10.7-24-24-24zM256 96c-13.3 0-24 10.7-24 24l0 112c0 13.3 10.7 24 24 24s24-10.7 24-24l0-112c0-13.3-10.7-24-24-24zm32 224a32 32 0 1 0 -64 0 32 32 0 1 0 64 0z"/></svg>