<svg xmlns="http://www.w3.org/2000/svg" viewBox="0 0 640 512"><!--! Font Awesome Pro 6.6.0 by @fontawesome - https://fontawesome.com License - https://fontawesome.com/license (Commercial License) Copyright 2024 Fonticons, Inc. --><path d="M331.4 105.8c-6.1-8.4-17-11.9-26.8-8.7s-16.6 12.4-16.6 22.8l0 272c0 13.3 10.7 24 24 24s24-10.7 24-24l0-198.5L444.6 342.2c4.5 6.2 11.7 9.8 19.4 9.8s14.9-3.7 19.4-9.8L592 193.5 592 392c0 13.3 10.7 24 24 24s24-10.7 24-24l0-272c0-10.4-6.7-19.6-16.6-22.8s-20.7 .3-26.8 8.7L464 287.3 331.4 105.8zM0 120c0 13.3 10.7 24 24 24l80 0 0 248c0 13.3 10.7 24 24 24s24-10.7 24-24l0-248 80 0c13.3 0 24-10.7 24-24s-10.7-24-24-24L24 96C10.7 96 0 106.7 0 120z"/></svg>