<svg xmlns="http://www.w3.org/2000/svg" viewBox="0 0 576 512"><!--! Font Awesome Pro 6.6.0 by @fontawesome - https://fontawesome.com License - https://fontawesome.com/license (Commercial License) Copyright 2024 Fonticons, Inc. --><path d="M170.5 51.6L151.5 80l145 0-19-28.4c-1.5-2.2-4-3.6-6.7-3.6l-93.7 0c-2.7 0-5.2 1.3-6.7 3.6zm147-26.6L354.2 80 368 80l48 0 8 0c13.3 0 24 10.7 24 24s-10.7 24-24 24l-8 0 0 64.7c-16.8 1.5-32.9 5.4-48 11.3l0-76L80 128l0 304c0 17.7 14.3 32 32 32l172.5 0c12.3 18.8 28 35.1 46.3 48L112 512c-44.2 0-80-35.8-80-80l0-304-8 0c-13.3 0-24-10.7-24-24S10.7 80 24 80l8 0 48 0 13.8 0 36.7-55.1C140.9 9.4 158.4 0 177.1 0l93.7 0c18.7 0 36.2 9.4 46.6 24.9zM320 192l0 40.2c-12.1 10-22.9 21.7-32 34.6l0-74.8c0-8.8 7.2-16 16-16s16 7.2 16 16zm-160 0l0 208c0 8.8-7.2 16-16 16s-16-7.2-16-16l0-208c0-8.8 7.2-16 16-16s16 7.2 16 16zm80 0l0 208c0 8.8-7.2 16-16 16s-16-7.2-16-16l0-208c0-8.8 7.2-16 16-16s16 7.2 16 16zm48 176a144 144 0 1 1 288 0 144 144 0 1 1 -288 0zm144-80c-8.8 0-16 7.2-16 16l0 64c0 8.8 7.2 16 16 16l48 0c8.8 0 16-7.2 16-16s-7.2-16-16-16l-32 0 0-48c0-8.8-7.2-16-16-16z"/></svg>