<svg xmlns="http://www.w3.org/2000/svg" viewBox="0 0 640 512"><!--! Font Awesome Pro 6.6.0 by @fontawesome - https://fontawesome.com License - https://fontawesome.com/license (Commercial License) Copyright 2024 Fonticons, Inc. --><path d="M177.4 15.1c16-19 45.2-19 61.2 0L354.4 152.5c6 7.1 7.3 17.1 3.4 25.6s-12.4 13.9-21.8 13.9l-14.1 0 64.8 81c5.8 7.2 6.9 17.1 2.9 25.4s-12.4 13.6-21.6 13.6l-25.7 0 62.1 88 3.6 0 0-184c0-13.3 10.7-24 24-24s24 10.7 24 24l0 184 113.7 0-69.3-98.2c-5.2-7.3-5.8-16.9-1.7-24.9s12.3-13 21.3-13l22.1 0-64.8-81c-5.8-7.2-6.9-17.1-2.9-25.4s12.4-13.6 21.6-13.6l12.4 0L432 53.3l-59.9 71.1L339.9 88.1l61.5-73c16-19 45.2-19 61.2 0L578.4 152.5c6 7.1 7.3 17.1 3.4 25.6s-12.4 13.9-21.8 13.9l-14.1 0 64.8 81c5.8 7.2 6.9 17.1 2.9 25.4s-12.4 13.6-21.6 13.6l-25.7 0 69.3 98.2c5.2 7.3 5.8 16.9 1.7 24.9s-12.3 13-21.3 13l-160 0 0 40c0 13.3-10.7 24-24 24s-24-10.7-24-24l0-40-16 0-24 0-112 0-24 0 0 40c0 13.3-10.7 24-24 24s-24-10.7-24-24l0-40-40 0L24 448c-9 0-17.2-5-21.3-13s-3.5-17.6 1.7-24.9L73.7 312 48 312c-9.2 0-17.6-5.3-21.6-13.6s-2.9-18.2 2.9-25.4l64.8-81L80 192c-9.3 0-17.8-5.4-21.8-13.9s-2.6-18.4 3.4-25.6L177.4 15.1zM256 400l89.7 0-69.3-98.2c-5.2-7.3-5.8-16.9-1.7-24.9s12.3-13 21.3-13l22.1 0-64.8-81c-5.8-7.2-6.9-17.1-2.9-25.4s12.4-13.6 21.6-13.6l12.4 0L208 53.3 131.6 144l12.4 0c9.2 0 17.6 5.3 21.6 13.6s2.9 18.2-2.9 25.4L97.9 264l22.1 0c9 0 17.2 5 21.3 13s3.5 17.6-1.7 24.9L70.3 400l73.7 0 40 0 0-184c0-13.3 10.7-24 24-24s24 10.7 24 24l0 184 24 0z"/></svg>