<svg xmlns="http://www.w3.org/2000/svg" viewBox="0 0 512 512"><!--! Font Awesome Pro 6.6.0 by @fontawesome - https://fontawesome.com License - https://fontawesome.com/license (Commercial License) Copyright 2024 Fonticons, Inc. --><path d="M185.9 103.6c-1.4 6.2-5.3 11.6-10.7 15s-12 4.4-18.2 3c-4.1-1-8.5-1.5-13-1.5c-30.9 0-56 25.1-56 56c0 6.4 1.1 12.5 3 18.2c3.8 11.1-1 23.4-11.3 28.9C60.8 233.2 48 253.2 48 276c0 33.1 26.9 60 60 60l124 0 0-16 0-64 0-104c0-13.3 10.7-24 24-24s24 10.7 24 24l0 104 0 64 0 16 124 0c33.1 0 60-26.9 60-60c0-22.8-12.8-42.8-31.7-52.9c-10.4-5.6-15.2-17.8-11.3-28.9c1.9-5.7 3-11.8 3-18.2c0-30.9-25.1-56-56-56c-4.5 0-8.8 .5-13 1.5c-6.2 1.5-12.7 .4-18.2-3s-9.3-8.7-10.7-15C318.7 71.7 290.1 48 256 48s-62.7 23.7-70.1 55.6zM232 384l-124 0C48.4 384 0 335.6 0 276c0-34.4 16.1-65 41.1-84.8c-.7-5-1.1-10.1-1.1-15.2C40 118.6 86.6 72 144 72c.7 0 1.3 0 2 0C164.5 29.6 206.8 0 256 0s91.5 29.6 110 72c.7 0 1.3 0 2 0c57.4 0 104 46.6 104 104c0 5.2-.4 10.2-1.1 15.2C495.9 211 512 241.6 512 276c0 59.6-48.4 108-108 108l-124 0 0 104c0 13.3-10.7 24-24 24s-24-10.7-24-24l0-104z"/></svg>