<svg xmlns="http://www.w3.org/2000/svg" viewBox="0 0 640 512"><!--! Font Awesome Pro 6.6.0 by @fontawesome - https://fontawesome.com License - https://fontawesome.com/license (Commercial License) Copyright 2024 Fonticons, Inc. --><path d="M183.3 18.7C192.9 8.8 206.6 0 224 0c17.4 0 31.2 8.6 41.1 18.7c9.7 9.9 17 22.6 22.4 34.9c7.8 17.9 13 38.3 15.3 56c-23.5 14.1-40.5 37.9-45.3 65.9c-.9-2.6-1.4-5.3-1.4-8.1l0-39.4c0-13.6-4.2-36.3-12.5-55.2c-4.1-9.4-8.5-16.3-12.7-20.6c-4-4.1-6.2-4.2-6.8-4.2c0 0 0 0 0 0c-.2 0-2.2 0-6.3 4.2c-4.2 4.3-8.7 11.3-12.9 20.7c-8.4 19-12.8 41.7-12.8 55.1l0 39.4c0 7.3-3.3 14.2-9 18.8L53.7 289.3c-.7 .5-1.3 1-2 1.5c-2.3 1.5-3.7 4-3.7 6.7l0 28.7 111-44.8c7.4-3 15.8-2.1 22.4 2.4s10.6 11.9 10.6 19.9l0 72.3c0 7.6-3.6 14.7-9.6 19.2L128 436l0 23.9c6.8-2.1 15.3-4.6 24.3-7.3c22.6-6.8 49.1-14.8 64.6-19.6c4.6-1.4 9.5-1.4 14.1 0c9.1 2.8 21.9 6.7 35.5 10.8c5.4 10.5 12.7 19.9 21.4 27.7l0 16.5c0 4.4 .5 8.7 1.5 12.9l-7.6-2.3c-19.5-5.9-42-12.6-57.9-17.5c-15.9 4.9-38.4 11.6-57.9 17.5c-11.3 3.4-21.7 6.5-29.2 8.8l-8.9 2.7-2.4 .7-.6 .2-.2 0c0 0 0 0 0 0c0 0 0 0 0 0s0 0 0 0l-6.9-23 6.9 23c-2.2 .7-4.5 1-6.9 1C97 512 80 495 80 474.1L80 432c0-12.6 5.9-24.4 16-32l48-36 0-24.8L53.9 375.6c-.5 .2-1.1 .4-1.7 .6C26.4 384.4 0 365.2 0 338.1l0-40.6c0-18.6 9.2-36 24.6-46.4L144 155.8l0-27.8c0-20.7 6.1-50 16.9-74.5c5.5-12.3 12.8-24.9 22.4-34.8zM288 192c0-16.2 6-31.1 16-42.3c11.7-13.3 28.9-21.7 48-21.7l224 0c35.3 0 64 28.7 64 64l0 184 0 24c0 23.7-12.9 44.4-32 55.4l0 32.6c0 13.3-10.7 24-24 24s-24-10.7-24-24l0-24-192 0 0 10.1 0 13.9c0 13.3-10.7 24-24 24c-2.1 0-4.2-.3-6.1-.8c-4.9-1.3-9.2-4.1-12.3-7.9c0 0 0 0 0 0c-3.4-4.2-5.5-9.5-5.5-15.3l0-28.1 0-4.5c-15.5-9-26.9-24.3-30.7-42.4c-.9-4.2-1.3-8.5-1.3-13l0-24 0-94.9 0-76.6 0-12.5zM400 304l11.2 0 6.4 0 16.8 0 13.6 0 45.6 0 23.2 0 27.2 0-11.9-37c-2.5-6.5-8.4-11-15.3-11l-87.2 0-18.4 0c-6.9 0-12.9 4.5-15.3 11l-1.6 5-4.4 13.8L384 304l16 0zm-50.3-50.3l.5-1.4 .4-1.2 .5-1.2c.2-.6 .5-1.2 .7-1.8c3.6-8.7 9.2-16.7 16.3-23.3c3.5-3.3 7.5-6.2 11.7-8.6c9.1-5.2 19.8-8.3 31.5-8.3l105.6 0c28.8 0 51.4 18.7 60.2 41.9l.5 1.2 .4 1.2 11.9 37 2.3 7.2L592 192c0-8.8-7.2-16-16-16l-224 0c-5.7 0-10.6 2.9-13.5 7.4c-1.6 2.5-2.5 5.4-2.5 8.6l0 20.5 0 30.3 0 53.7 2.3-7.2 11.4-35.6zM445.5 352L422 352l-38 0-8 0-16 0c-5.1 0-9.8 1.6-13.7 4.3c-6.2 4.3-10.3 11.5-10.3 19.7l0 12 0 12c0 8.3 6.3 15.1 14.4 15.9c.5 .1 1.1 .1 1.6 .1l12.7 0L576 416c8.8 0 16-7.2 16-16l0-24c0-13.3-10.7-24-24-24l-24 0-98.5 0zM368 406.6a24 24 0 1 1 16-45.3 24 24 0 1 1 -16 45.3zM552 360a24 24 0 1 1 0 48 24 24 0 1 1 0-48z"/></svg>