<svg xmlns="http://www.w3.org/2000/svg" viewBox="0 0 640 512"><!--! Font Awesome Pro 6.6.0 by @fontawesome - https://fontawesome.com License - https://fontawesome.com/license (Commercial License) Copyright 2024 Fonticons, Inc. --><path d="M352 88c0-48.6 39.4-88 88-88L616 0c13.3 0 24 10.7 24 24s-10.7 24-24 24L440 48c-22.1 0-40 17.9-40 40l0 272.7 25.7-7 .4-.1c17.6-38.7 56.7-65.6 102-65.6c61.9 0 112 50.1 112 112s-50.1 112-112 112c-59.8 0-108.7-46.9-111.8-106L30.3 511.2c-12.8 3.5-26-4.1-29.5-16.8s4.1-26 16.8-29.5L352 373.8 352 88zM592 400a64 64 0 1 0 -128 0 64 64 0 1 0 128 0zM294.5 209.2c8.7-2.3 17.4-2.1 25.5 .2l0 125.5-38.7 10.4L126.7 386.6 64.9 403.2c-17.1 4.6-34.6-5.6-39.2-22.6L13.3 334.2c-6.9-25.6 8.3-51.9 33.9-58.8s51.9 8.3 58.8 33.9l4.1 15.5 154.5-41.4-4.1-15.5c-6.9-25.6 8.3-51.9 33.9-58.8zM8 252.8c-9.1-34.1 11.1-69.2 45.3-78.4l185.5-49.7c34.1-9.1 69.2 11.1 78.4 45.3l1.7 6.4c-10.6-1.6-21.6-1.1-32.6 1.9c-37.4 10-61.5 44.9-59.2 82.1L131.2 286c-16.6-33.4-54.9-51.5-92.3-41.5c-11 2.9-20.8 8-29.2 14.7L8 252.8z"/></svg>