<svg xmlns="http://www.w3.org/2000/svg" viewBox="0 0 640 512"><!--! Font Awesome Pro 6.6.0 by @fontawesome - https://fontawesome.com License - https://fontawesome.com/license (Commercial License) Copyright 2024 Fonticons, Inc. --><path d="M80 80c-8.8 0-16 7.2-16 16l0 32 0 160 0 48 12.8 0c16.6-28.7 47.6-48 83.2-48s66.6 19.3 83.2 48L352 336l0-16 0-96 0-120 0-8c0-8.8-7.2-16-16-16L80 80zM16 336l0-52.3C6.4 278.2 0 267.8 0 256l0-96c0-11.8 6.4-22.2 16-27.7L16 96c0-35.3 28.7-64 64-64l256 0c29.8 0 54.9 20.4 62 48l37.7 0c21.7 0 41.4 12.5 50.7 32.2l52.3 111.2 .3 .7 5 0c35.3 0 64 28.7 64 64l0 48 8 0c13.3 0 24 10.7 24 24s-10.7 24-24 24l-8 0-32 0c0 53-43 96-96 96s-96-43-96-96l-32 0-96 0c0 53-43 96-96 96s-96-43-96-96l-40 0-8 0 0-1.4C6.7 379.3 0 370.5 0 360s6.7-19.3 16-22.6l0-1.4zm96 48a48 48 0 1 0 96 0 48 48 0 1 0 -96 0zM400 224l85.9 0-43-91.4c-1.3-2.8-4.1-4.6-7.2-4.6L400 128l0 96zm80 208a48 48 0 1 0 0-96 48 48 0 1 0 0 96zM253.3 135.1l34.7 52 0-43.2c0-8.8 7.2-16 16-16s16 7.2 16 16l0 96c0 7.1-4.6 13.3-11.4 15.3s-14-.6-17.9-6.4l-34.7-52 0 43.2c0 8.8-7.2 16-16 16s-16-7.2-16-16l0-96c0-7.1 4.6-13.3 11.4-15.3s14 .6 17.9 6.4zM128 144l0 64c0 8.8 7.2 16 16 16s16-7.2 16-16l0-64c0-8.8 7.2-16 16-16s16 7.2 16 16l0 64c0 26.5-21.5 48-48 48s-48-21.5-48-48l0-64c0-8.8 7.2-16 16-16s16 7.2 16 16z"/></svg>