<svg xmlns="http://www.w3.org/2000/svg" viewBox="0 0 640 512"><!--! Font Awesome Pro 6.6.0 by @fontawesome - https://fontawesome.com License - https://fontawesome.com/license (Commercial License) Copyright 2024 Fonticons, Inc. --><path d="M352 48L128 48c-8.8 0-16 7.2-16 16l0 32 128 0c8.8 0 16 7.2 16 16s-7.2 16-16 16L16 128c-8.8 0-16-7.2-16-16s7.2-16 16-16l48 0 0-32C64 28.7 92.7 0 128 0L352 0c35.3 0 64 28.7 64 64l0 32 42.7 0c14.9 0 29.1 5.9 39.6 16.4l93.3 93.3c10.5 10.5 16.4 24.7 16.4 39.6L608 368l8 0c13.3 0 24 10.7 24 24s-10.7 24-24 24l-40 0c0 53-43 96-96 96s-96-43-96-96l-8 0-24 0-32 0-64 0c0 53-43 96-96 96s-96-43-96-96l0-48 0-80 48 0 0 44.8c14.1-8.2 30.5-12.8 48-12.8c35.5 0 66.6 19.3 83.2 48l76.8 0 32 0c8.8 0 16-7.2 16-16l0-288c0-8.8-7.2-16-16-16zM557.7 239.6l-93.3-93.3c-1.5-1.5-3.5-2.3-5.7-2.3L416 144l0 96 142 0-.2-.2-.2-.2zM208 416a48 48 0 1 0 -96 0 48 48 0 1 0 96 0zm272 48a48 48 0 1 0 0-96 48 48 0 1 0 0 96zM48 160l224 0c8.8 0 16 7.2 16 16s-7.2 16-16 16L48 192c-8.8 0-16-7.2-16-16s7.2-16 16-16zM16 224l224 0c8.8 0 16 7.2 16 16s-7.2 16-16 16L16 256c-8.8 0-16-7.2-16-16s7.2-16 16-16z"/></svg>