<svg xmlns="http://www.w3.org/2000/svg" viewBox="0 0 384 512"><!--! Font Awesome Pro 6.6.0 by @fontawesome - https://fontawesome.com License - https://fontawesome.com/license (Commercial License) Copyright 2024 Fonticons, Inc. --><path d="M88 32c13.3 0 24 10.7 24 24l0 56.2L249.4 72.9c12.7-3.6 26 3.7 29.7 16.5s-3.7 26-16.5 29.7L112 162.1l0 46.1 137.4-39.3c12.7-3.6 26 3.7 29.7 16.5s-3.7 26-16.5 29.7L112 258.1 112 432l71.8 0c81.3 0 148.2-63.9 151.8-145.1l.4-8c.6-13.2 11.8-23.5 25.1-22.9s23.5 11.8 22.9 25.1l-.4 8C378.8 395.9 290.7 480 183.8 480L88 480c-13.3 0-24-10.7-24-24l0-184.2-25.4 7.3c-12.7 3.6-26-3.7-29.7-16.5s3.7-26 16.5-29.7l38.6-11 0-46.1-25.4 7.3c-12.7 3.6-26-3.7-29.7-16.5s3.7-26 16.5-29.7l38.6-11L64 56c0-13.3 10.7-24 24-24z"/></svg>