<svg xmlns="http://www.w3.org/2000/svg" viewBox="0 0 640 512"><!--! Font Awesome Pro 6.6.0 by @fontawesome - https://fontawesome.com License - https://fontawesome.com/license (Commercial License) Copyright 2024 Fonticons, Inc. --><path d="M472 56c0 22.1-1.2 49.3-19.3 62l-31.6 22.3C375.9 112.2 327.9 96 288 96C176 96 0 224 0 384C0 512 160 512 288 512s288 0 288-128c0-63-27.3-121.1-67.3-168.3c-.4 .2-.7 .4-1 .6l-28.3 20c-3.2 2.3-6.2 5-9 8.3C505.8 285.7 528 334.2 528 384c0 21-6.1 32.8-13.9 41c-8.9 9.4-23.9 18.1-47.3 24.8C418.6 463.6 354 464 288 464s-130.6-.4-178.8-14.2c-23.4-6.7-38.4-15.4-47.3-24.8C54.1 416.8 48 405 48 384c0-62 34.5-122 86-168.3C186.4 168.8 247.4 144 288 144c20.5 0 46.3 6.4 73.6 18.7c-15.2 .8-30.8-.5-45.8-2.1c-28.5-3-58.2 4.9-82.2 24.3c-48.1 38.9-55.5 109.4-16.6 157.5s109.4 55.5 157.5 16.6c18.6-15 31.1-34.8 37.2-56.2c.2-.7 .4-1.3 .6-2c9.6-33.7 20.1-70.5 48.7-90.6L486.7 192l2.5-1.8c18.3-12.9 43.3-10.4 67.4-8c9.4 .9 18.6 1.8 27.3 1.8c30.9 0 56-25.1 56-56s-25.1-56-56-56c-1.1 0-2-1.1-1.7-2.2c1.1-4.4 1.7-9 1.7-13.8c0-30.9-25.1-56-56-56s-56 25.1-56 56z"/></svg>