<svg xmlns="http://www.w3.org/2000/svg" viewBox="0 0 384 512"><!--! Font Awesome Pro 6.6.0 by @fontawesome - https://fontawesome.com License - https://fontawesome.com/license (Commercial License) Copyright 2024 Fonticons, Inc. --><path d="M208.4 505.5c-9.2 8.7-23.7 8.7-32.9 0L46.6 384.1c-9.3-8.8-14.6-21-14.6-33.7C32 324.7 52.7 304 78.3 304l41.7 0 0-144C120 71.6 191.6 0 280 0l48 0c30.9 0 56 25.1 56 56l0 32c0 30.9-25.1 56-56 56l-56 0c-4.4 0-8 3.6-8 8l0 152 41.7 0c25.6 0 46.3 20.7 46.3 46.3c0 12.8-5.3 25-14.6 33.7l-129 121.4zm93-153.5L240 352c-13.3 0-24-10.7-24-24l0-176c0-30.9 25.1-56 56-56l56 0c4.4 0 8-3.6 8-8l0-32c0-4.4-3.6-8-8-8l-48 0c-61.9 0-112 50.1-112 112l0 168c0 13.3-10.7 24-24 24l-61.5 0L192 455 301.5 352z"/></svg>