<svg xmlns="http://www.w3.org/2000/svg" viewBox="0 0 576 512"><!--! Font Awesome Pro 6.6.0 by @fontawesome - https://fontawesome.com License - https://fontawesome.com/license (Commercial License) Copyright 2024 Fonticons, Inc. --><path d="M288 0c13.3 0 24 10.7 24 24l0 24.9c123.7 9.6 226.1 93 255.5 204.4c.4 1.4 .7 2.9 1.1 4.3c1.4 5.8 2.7 11.7 3.7 17.6c.6 3.5 1.1 7.1 1.6 10.7c2 15.6-17.3 24.4-27.8 12.7c-2.5-2.8-5.5-5.5-8.8-8c-3.4-2.5-7.1-4.9-11.1-7l-.7-.4-.6-.3c-13.5-6.8-29.7-11-44.9-11c-30.1 0-56.3 16.6-70 41.2c-.5 .9-1 1.7-1.4 2.6c-2.1 4.1-3.8 8.3-5.1 12.8c-.7 2.4-1.4 4.9-1.9 7.5c-1.7 8.7-8.7 15.9-17.6 15.9s-15.8-7.2-17.6-15.9c-.5-2.5-1.1-5-1.9-7.5c-1.4-4.4-3.1-8.7-5.1-12.8c-.5-.9-.9-1.8-1.4-2.6c-13.7-24.6-39.9-41.2-70-41.2s-56.3 16.6-70 41.2c-.5 .9-.9 1.7-1.4 2.6c-2.1 4.1-3.8 8.3-5.1 12.8c-.7 2.4-1.4 4.9-1.9 7.5c-1.7 8.7-8.7 15.9-17.6 15.9s-15.8-7.2-17.6-15.9c-.5-2.5-1.1-5-1.9-7.5c-1.4-4.4-3.1-8.7-5.1-12.8c-.5-.9-.9-1.8-1.4-2.6C152.3 288.6 126.1 272 96 272c-15.2 0-31.4 4.2-44.9 11c-.4 .2-.9 .5-1.3 .7c-4 2.1-7.7 4.4-11.1 7c-3.3 2.5-6.3 5.2-8.8 8C19.4 310.4 .1 301.5 2.1 285.9c.5-3.6 1-7.2 1.6-10.7c1-5.9 2.3-11.8 3.7-17.6c.4-1.4 .7-2.9 1.1-4.3C37.9 141.9 140.3 58.6 264 48.9L264 24c0-13.3 10.7-24 24-24zm96 267.3c23.4-26.6 57.7-43.3 96-43.3c8.6 0 17.5 .9 26.4 2.6C468.9 150.2 386.1 96 288 96s-180.9 54.2-218.4 130.6c8.9-1.7 17.8-2.6 26.4-2.6c38.3 0 72.6 16.8 96 43.3c23.4-26.6 57.7-43.3 96-43.3s72.6 16.8 96 43.3zM288 304c8.7 0 16.9 2.3 24 6.4l0 128.1c0 40.6-32.9 73.4-73.4 73.4c-27.8 0-53.2-15.7-65.7-40.6l-2.3-4.7c-5.9-11.9-1.1-26.3 10.7-32.2s26.3-1.1 32.2 10.7l2.3 4.7c4.3 8.6 13.1 14.1 22.8 14.1c14.1 0 25.4-11.4 25.4-25.4l0-128.1c7.1-4.1 15.3-6.4 24-6.4z"/></svg>