<svg xmlns="http://www.w3.org/2000/svg" viewBox="0 0 512 512"><!--! Font Awesome Pro 6.6.0 by @fontawesome - https://fontawesome.com License - https://fontawesome.com/license (Commercial License) Copyright 2024 Fonticons, Inc. --><path d="M464 256A208 208 0 1 0 48 256a208 208 0 1 0 416 0zM0 256a256 256 0 1 1 512 0A256 256 0 1 1 0 256zm161.5-86.1l11.9 5.1c26.1 11.2 54.2 17 82.7 17s56.5-5.8 82.7-17l11.9-5.1c12.2-5.2 26.3 .4 31.5 12.6s-.4 26.3-12.6 31.5l-11.9 5.1c-17.3 7.4-35.2 12.9-53.6 16.3l0 50.1c0 4.3 .7 8.6 2.1 12.6l28.7 86.1c4.2 12.6-2.6 26.2-15.2 30.4s-26.2-2.6-30.4-15.2l-24.4-73.2c-1.3-3.8-4.8-6.4-8.8-6.4s-7.6 2.6-8.8 6.4l-24.4 73.2c-4.2 12.6-17.8 19.4-30.4 15.2s-19.4-17.8-15.2-30.4l28.7-86.1c1.4-4.1 2.1-8.3 2.1-12.6l0-50.1c-18.4-3.5-36.3-8.9-53.6-16.3l-11.9-5.1c-12.2-5.2-17.8-19.3-12.6-31.5s19.3-17.8 31.5-12.6zM256 80a40 40 0 1 1 0 80 40 40 0 1 1 0-80z"/></svg>