<svg xmlns="http://www.w3.org/2000/svg" viewBox="0 0 512 512"><!--! Font Awesome Pro 6.6.0 by @fontawesome - https://fontawesome.com License - https://fontawesome.com/license (Commercial License) Copyright 2024 Fonticons, Inc. --><path d="M256 55.8L289.5 96l-67 0L256 55.8zM229.8 12.3L168.2 86.2c-5.3 6.3-8.2 14.3-8.2 22.6c0 19.5 15.8 35.2 35.2 35.2l36.8 0 0 88-88 0 0-36.8c0-19.5-15.8-35.2-35.2-35.2c-8.2 0-16.2 2.9-22.6 8.2L12.3 229.8C4.5 236.2 0 245.9 0 256s4.5 19.8 12.3 26.2l73.9 61.6c6.3 5.3 14.3 8.2 22.6 8.2c19.5 0 35.2-15.8 35.2-35.2l0-36.8 88 0 0 88-36.8 0c-19.5 0-35.2 15.8-35.2 35.2c0 8.2 2.9 16.2 8.2 22.6l61.6 73.9c6.5 7.8 16.1 12.3 26.2 12.3s19.8-4.5 26.2-12.3l61.6-73.9c5.3-6.3 8.2-14.3 8.2-22.6c0-19.5-15.8-35.2-35.2-35.2L280 368l0-88 88 0 0 36.8c0 19.5 15.8 35.2 35.2 35.2c8.2 0 16.2-2.9 22.6-8.2l73.9-61.6c7.8-6.5 12.3-16.1 12.3-26.2s-4.5-19.8-12.3-26.2l-73.9-61.6c-6.3-5.3-14.3-8.2-22.6-8.2c-19.5 0-35.2 15.8-35.2 35.2l0 36.8-88 0 0-88 36.8 0c19.5 0 35.2-15.8 35.2-35.2c0-8.2-2.9-16.2-8.2-22.6L282.2 12.3C275.8 4.5 266.1 0 256 0s-19.8 4.5-26.2 12.3zM256 456.2L222.5 416l67 0L256 456.2zM456.2 256L416 289.5l0-67L456.2 256zM96 289.5L55.8 256 96 222.5l0 67z"/></svg>