<svg xmlns="http://www.w3.org/2000/svg" viewBox="0 0 448 512"><!--! Font Awesome Pro 6.6.0 by @fontawesome - https://fontawesome.com License - https://fontawesome.com/license (Commercial License) Copyright 2024 Fonticons, Inc. --><path d="M114.2 288L224 178 333.8 288 280 288c-13.3 0-24 10.7-24 24l0 120-64 0 0-120c0-13.3-10.7-24-24-24l-53.8 0zM224 128c-11.5 0-22.5 4.6-30.6 12.7L77.6 256.8C68.9 265.5 64 277.3 64 289.6c0 25.6 20.8 46.4 46.4 46.4l33.6 0 0 96c0 26.5 21.5 48 48 48l64 0c26.5 0 48-21.5 48-48l0-96 33.6 0c25.6 0 46.4-20.8 46.4-46.4c0-12.3-4.9-24.1-13.6-32.8L254.6 140.7c-8.1-8.1-19.1-12.7-30.6-12.7zM416 32a32 32 0 1 0 0 64 32 32 0 1 0 0-64zm-96 0a32 32 0 1 0 0 64 32 32 0 1 0 0-64zM192 64a32 32 0 1 0 64 0 32 32 0 1 0 -64 0zM128 32a32 32 0 1 0 0 64 32 32 0 1 0 0-64zM0 64a32 32 0 1 0 64 0A32 32 0 1 0 0 64z"/></svg>