<svg xmlns="http://www.w3.org/2000/svg" viewBox="0 0 448 512"><!--! Font Awesome Pro 6.6.0 by @fontawesome - https://fontawesome.com License - https://fontawesome.com/license (Commercial License) Copyright 2024 Fonticons, Inc. --><path d="M224 208c26.2 0 49.4-12.6 64-32l-128 0c14.6 19.4 37.8 32 64 32zm0 48c-54 0-100.2-33.5-119-80.8c-14.3-3.2-25-16-25-31.2l0-64c0-17.7 14.3-32 32-32l12.1 0C147.5 18.7 183.6 0 224 0s76.5 18.7 99.9 48L336 48c17.7 0 32 14.3 32 32l0 64c0 15.3-10.7 28-25 31.2C324.2 222.5 278 256 224 256zM128 112c0 8.8 7.2 16 16 16l160 0c8.8 0 16-7.2 16-16s-7.2-16-16-16L144 96c-8.8 0-16 7.2-16 16zM269.7 352l-91.4 0c-65.7 0-120.1 48.7-129 112l349.5 0c-8.9-63.3-63.3-112-129-112zM0 482.3C0 383.8 79.8 304 178.3 304l91.4 0C368.2 304 448 383.8 448 482.3c0 16.4-13.3 29.7-29.7 29.7L29.7 512C13.3 512 0 498.7 0 482.3zM313.5 429c-7.9 0-18.8 9.5-26.5 16.3c-2.1 1.9-4 3.5-5.5 4.7c-2.3 1.7-5.7 0-5.4-2.9c3.2-30.5 13.2-55.5 29.8-74.7c1.3-1.5 4.1-1.6 5.1 .1c15.8 20.6 24.2 45.9 25.1 75.3c0 3.2-4.1 4.7-6.1 2.1c-10.2-14.4-14.7-19.2-16.6-20.9z"/></svg>