<svg xmlns="http://www.w3.org/2000/svg" viewBox="0 0 640 512"><!--! Font Awesome Pro 6.6.0 by @fontawesome - https://fontawesome.com License - https://fontawesome.com/license (Commercial License) Copyright 2024 Fonticons, Inc. --><path d="M7 7C16.4-2.3 31.6-2.3 41 7l72 72c9.4 9.4 9.4 24.6 0 33.9s-24.6 9.4-33.9 0L7 41C-2.3 31.6-2.3 16.4 7 7zM633 7c9.4 9.4 9.4 24.6 0 33.9l-72 72c-9.4 9.4-24.6 9.4-33.9 0s-9.4-24.6 0-33.9L599 7c9.4-9.4 24.6-9.4 33.9 0zM41 505c-9.4 9.4-24.6 9.4-33.9 0s-9.4-24.6 0-33.9l72-72c9.4-9.4 24.6-9.4 33.9 0s9.4 24.6 0 33.9L41 505zm592 0c-9.4 9.4-24.6 9.4-33.9 0l-72-72c-9.4-9.4-9.4-24.6 0-33.9s24.6-9.4 33.9 0l72 72c9.4 9.4 9.4 24.6 0 33.9zM320 208a24 24 0 1 0 0-48 24 24 0 1 0 0 48zm-51.6 82c6.3-1.3 12.9-2 19.6-2l32 0 32 0c6.7 0 13.3 .7 19.6 2c1.1 .2 2.2 .5 3.3 .7c23.6 5.8 43.8 20.3 56.9 39.9c1.2 1.7 2.3 3.5 3.3 5.4c8.2 14.1 12.8 30.5 12.8 48c0 17.7-14.3 32-32 32l-192 0c-17.7 0-32-14.3-32-32c0-17.5 4.7-33.9 12.8-48c12.9-22.3 34.6-39 60.3-45.3c1.1-.3 2.2-.5 3.3-.7zm96.2-162.6A72 72 0 1 1 275.4 240.5a72 72 0 1 1 89.2-113.1zM397.3 368c-6.6-18.6-24.4-32-45.3-32l-64 0c-20.9 0-38.7 13.4-45.3 32l154.5 0zM127.8 176a48 48 0 1 1 96 0 48 48 0 1 1 -96 0zM96 309.3c0-29.5 23.9-53.3 53.3-53.3l69.3 0c9.8 0 18.9 2.6 26.8 7.2c-34.6 12.2-62.5 38.9-76.2 72.8l-46.6 0C107.9 336 96 324.1 96 309.3zM470.7 336c-13.7-33.9-41.5-60.6-76.2-72.8c7.9-4.6 17-7.2 26.8-7.2l69.3 0c29.5 0 53.3 23.9 53.3 53.3c0 14.7-11.9 26.7-26.7 26.7l-46.6 0zM416 176a48 48 0 1 1 96 0 48 48 0 1 1 -96 0z"/></svg>