<svg xmlns="http://www.w3.org/2000/svg" viewBox="0 0 448 512"><!--! Font Awesome Pro 6.6.0 by @fontawesome - https://fontawesome.com License - https://fontawesome.com/license (Commercial License) Copyright 2024 Fonticons, Inc. --><path d="M224 208c-44.2 0-80-35.8-80-80l32 0 128 0c0 44.2-35.8 80-80 80zM150.7 96C163 67.7 191.2 48 224 48c1.2 0 2.5 0 3.7 .1L170.2 96l-19.6 0zM264.6 59c14.5 8.5 26 21.5 32.8 37l-77.2 0 44.4-37zM224 256A128 128 0 1 0 224 0a128 128 0 1 0 0 256zM49.3 464c4.7-33.3 21.9-62.5 46.7-82.7L96 464l-46.7 0zm246.3 0l-34.3 0-32-48 46.7 0c15.5 0 28 12.5 28 28c0 7.8-3.2 14.9-8.4 20zm37 0c2.2-6.3 3.4-13 3.4-20c0-33.1-26.9-60-60-60l-68 0-21.3-32 83 0c65.7 0 120.1 48.7 129 112l-66.1 0zM178.3 304C79.8 304 0 383.8 0 482.3C0 498.7 13.3 512 29.7 512l388.6 0c16.4 0 29.7-13.3 29.7-29.7C448 383.8 368.2 304 269.7 304l-91.4 0z"/></svg>