<svg xmlns="http://www.w3.org/2000/svg" viewBox="0 0 640 512"><!--! Font Awesome Pro 6.6.0 by @fontawesome - https://fontawesome.com License - https://fontawesome.com/license (Commercial License) Copyright 2024 Fonticons, Inc. --><path d="M147.2 160a64 64 0 1 0 0-128 64 64 0 1 0 0 128zM96 192c-35.3 0-64 28.7-64 64c0 17.7 14.3 32 32 32l98.7 0c18.2-31.4 49.3-54.4 86-61.6C238.1 206 216.7 192 192 192l-96 0zm480 96c17.7 0 32-14.3 32-32c0-35.3-28.7-64-64-64l-96 0c-24.5 0-45.7 13.7-56.5 33.9c38 6.6 70.3 29.9 89 62.1l95.5 0zm-134.8 0c-14.6-16.3-34.6-27.5-57.1-30.9c-.6-.1-1.3-.2-1.9-.3c-4.1-.5-8.3-.8-12.5-.8l-48 0-48 0c-4.2 0-8.4 .3-12.5 .8c-1.7 .2-3.4 .5-5.1 .8c-21.3 3.9-40.1 14.9-53.9 30.4c-15.2 17-24.4 39.4-24.4 64c0 17.7 14.3 32 32 32l224 0c17.7 0 32-14.3 32-32c0-24.6-9.2-47-24.4-64zm58-128a64 64 0 1 0 0-128 64 64 0 1 0 0 128zM321.6 112a32 32 0 1 1 0 64 32 32 0 1 1 0-64zm-48 96s0 0 0 0c13.4 10 30 16 48 16s34.6-6 48-16c0 0 0 0 0 0c19.4-14.6 32-37.8 32-64c0-44.2-35.8-80-80-80s-80 35.8-80 80c0 26.2 12.6 49.4 32 64zM414.9 336l-186.5 0c6.6-18.6 24.4-32 45.3-32l96 0c20.9 0 38.7 13.4 45.3 32zM0 456c0 13.3 10.7 24 24 24l592 0c13.3 0 24-10.7 24-24s-10.7-24-24-24L24 432c-13.3 0-24 10.7-24 24z"/></svg>