<svg xmlns="http://www.w3.org/2000/svg" viewBox="0 0 640 512"><!--! Font Awesome Pro 6.6.0 by @fontawesome - https://fontawesome.com License - https://fontawesome.com/license (Commercial License) Copyright 2024 Fonticons, Inc. --><path d="M24 0L616 0c13.3 0 24 10.7 24 24s-10.7 24-24 24L24 48C10.7 48 0 37.3 0 24S10.7 0 24 0zm0 464l592 0c13.3 0 24 10.7 24 24s-10.7 24-24 24L24 512c-13.3 0-24-10.7-24-24s10.7-24 24-24zM321.6 208a32 32 0 1 0 0-64 32 32 0 1 0 0 64zm-60.5 80.8c4.1-.5 8.3-.8 12.5-.8l48 0 48 0c4.2 0 8.4 .3 12.5 .8c47.1 6.1 83.5 46.4 83.5 95.2c0 17.7-14.3 32-32 32l-224 0c-17.7 0-32-14.3-32-32c0-11.2 1.9-22 5.5-32c0 0 0 0 0 0c10.5-29.7 35.3-52.8 66.1-60.9c0 0 0 0 0 0c3.9-1 7.9-1.8 11.9-2.3zM273.6 240c-19.4-14.6-32-37.8-32-64c0-44.2 35.8-80 80-80s80 35.8 80 80c0 26.2-12.6 49.4-32 64c0 0 0 0 0 0c-13.4 10-30 16-48 16s-34.6-6-48-16c0 0 0 0 0 0zM392.7 341.9c-6.8-3.8-14.7-5.9-23.1-5.9l-96 0c-20.9 0-38.7 13.4-45.3 32l186.5 0c-2.6-7.3-6.9-13.8-12.4-19c-3.7-1.7-7-4.2-9.8-7.1zM147.2 96a64 64 0 1 1 0 128 64 64 0 1 1 0-128zM96 256l96 0c12.2 0 23.7 3.4 33.4 9.4c-37.2 15.1-65.6 47.2-75.8 86.6L64 352c-17.7 0-32-14.3-32-32c0-35.3 28.7-64 64-64zm480 96l-82.4 0c-10.3-40.1-39.6-72.6-77.7-87.4c9.4-5.5 20.4-8.6 32.1-8.6l96 0c35.3 0 64 28.7 64 64c0 17.7-14.3 32-32 32zM499.2 96a64 64 0 1 1 0 128 64 64 0 1 1 0-128z"/></svg>