<svg xmlns="http://www.w3.org/2000/svg" viewBox="0 0 448 512"><!--! Font Awesome Pro 6.6.0 by @fontawesome - https://fontawesome.com License - https://fontawesome.com/license (Commercial License) Copyright 2024 Fonticons, Inc. --><path d="M230.1 .8c-4-1.1-8.2-1.1-12.2 0l-152 40c-8.6 2.3-15.3 9.1-17.3 17.8s1 17.8 7.8 23.6L80 102.5l0 8.4c0 10.7 5.3 20.8 15.1 25.2c24.1 10.8 68.6 24 128.9 24s104.8-13.2 128.9-24c9.8-4.4 15.1-14.5 15.1-25.2l0-8.4 23.6-20.2c6.8-5.8 9.8-14.9 7.8-23.6s-8.7-15.6-17.3-17.8l-152-40zM227 48.6l32 12.8c3 1.2 5 4.2 5 7.4c0 17.2-7 46.1-36.9 58.6c-2 .8-4.2 .8-6.2 0C191 114.9 184 86 184 68.8c0-3.3 2-6.2 5-7.4l32-12.8c1.9-.8 4-.8 5.9 0zM96 192c0 70.7 57.3 128 128 128s128-57.3 128-128c0-7.9-.7-15.7-2.1-23.2c-14 5.4-28.5 9.9-43.3 13.4c.4 3.2 .6 6.5 .6 9.8c0 46-37.2 83.2-83.2 83.2s-83.2-37.2-83.2-83.2c0-3.3 .2-6.6 .6-9.8c-14.8-3.6-29.3-8.1-43.3-13.4C96.7 176.3 96 184.1 96 192zm20.6 209.8l65.2 57.1c2.1 1.9 4.3 3.6 6.6 5.1L50.9 464c8.4-31.2 33.8-55.5 65.7-62.2zM358.4 464l4.7-3.4c2.8-2 4-5.7 2.9-9s-4.2-5.5-7.6-5.5l-17.4 0-5.4-16.6c-1.1-3.3-4.1-5.5-7.6-5.5s-6.5 2.2-7.6 5.5L315 446.2l-17.4 0c-3.5 0-6.6 2.2-7.6 5.5s.1 6.9 2.9 9l4.7 3.4-38.1 0c2.3-1.5 4.5-3.2 6.6-5.1l65.2-57.1c31.9 6.7 57.3 30.9 65.7 62.2l-38.6 0zM137.2 356.1c-3-2.6-6.8-4.1-10.7-3.8C55.9 356.3 0 414.8 0 486.4C0 500.5 11.5 512 25.6 512l396.8 0c14.1 0 25.6-11.5 25.6-25.6c0-71.6-55.9-130.1-126.5-134.2c-3.9-.2-7.8 1.2-10.7 3.8l-76.3 66.7c-6 5.3-15 5.3-21.1 0l-76.3-66.7z"/></svg>