<svg xmlns="http://www.w3.org/2000/svg" viewBox="0 0 448 512"><!--! Font Awesome Pro 6.6.0 by @fontawesome - https://fontawesome.com License - https://fontawesome.com/license (Commercial License) Copyright 2024 Fonticons, Inc. --><path d="M228.7 .5c-3.1-.6-6.3-.6-9.4 0l-200 40C8.1 42.7 0 52.6 0 64C0 74.3 6.5 83.3 16 86.6l0 71.8L.3 236.9c-.9 4.7 .3 9.6 3.3 13.3s7.6 5.9 12.4 5.9l32 0c4.8 0 9.3-2.1 12.4-5.9s4.3-8.6 3.3-13.3L48 158.4l0-65.1 171.3 34.3c3.1 .6 6.3 .6 9.4 0l200-40C439.9 85.3 448 75.4 448 64s-8.1-21.3-19.3-23.5l-200-40zM49.3 464c5.8-37.6 30-69.2 63.3-85.1l63.6 71.5c5 5.6 10.7 10.1 16.9 13.6L49.3 464zm349.4 0l-143.8 0c6.2-3.4 11.9-7.9 16.9-13.6l63.6-71.5c33.3 15.8 57.5 47.4 63.3 85.1zM109.6 328.4C45.9 350 0 410.3 0 481.3c0 17 13.8 30.7 30.7 30.7l386.6 0c17 0 30.7-13.8 30.7-30.7c0-71-45.9-131.3-109.6-152.8c-10.9-3.7-22.7 .4-30.3 9L236 418.5c-6.4 7.2-17.6 7.2-23.9 0l-72.1-81.1c-7.6-8.6-19.4-12.7-30.3-9zM96 160c0 70.7 57.3 128 128 128s128-57.3 128-128l0-24.5-48 9.6 0 14.9c0 44.2-35.8 80-80 80s-80-35.8-80-80l0-14.9-48-9.6L96 160z"/></svg>