<svg xmlns="http://www.w3.org/2000/svg" viewBox="0 0 448 512"><!--! Font Awesome Pro 6.6.0 by @fontawesome - https://fontawesome.com License - https://fontawesome.com/license (Commercial License) Copyright 2024 Fonticons, Inc. --><path d="M360 72l48 0 0 48-48 0 0-48zm-8-40c-17.7 0-32 14.3-32 32l0 8L128 72l0-8c0-17.7-14.3-32-32-32L32 32C14.3 32 0 46.3 0 64l0 64c0 17.7 14.3 32 32 32l8 0 0 192-8 0c-17.7 0-32 14.3-32 32l0 64c0 17.7 14.3 32 32 32l64 0c17.7 0 32-14.3 32-32l0-8 192 0 0 8c0 17.7 14.3 32 32 32l64 0c17.7 0 32-14.3 32-32l0-64c0-17.7-14.3-32-32-32l-8 0 0-192 8 0c17.7 0 32-14.3 32-32l0-64c0-17.7-14.3-32-32-32l-64 0zM88 352l0-192 8 0c17.7 0 32-14.3 32-32l0-8 192 0 0 8c0 17.7 14.3 32 32 32l8 0 0 192-8 0c-17.7 0-32 14.3-32 32l0 8-192 0 0-8c0-17.7-14.3-32-32-32l-8 0zM40 440l0-48 48 0 0 48-48 0zm320 0l0-48 48 0 0 48-48 0zM40 120l0-48 48 0 0 48-48 0z"/></svg>