<svg xmlns="http://www.w3.org/2000/svg" viewBox="0 0 640 512"><!--! Font Awesome Pro 6.6.0 by @fontawesome - https://fontawesome.com License - https://fontawesome.com/license (Commercial License) Copyright 2024 Fonticons, Inc. --><path d="M496 24a24 24 0 1 1 48 0 24 24 0 1 1 -48 0zM345 41L41 345c-9.4 9.4-24.6 9.4-33.9 0s-9.4-24.6 0-33.9L311 7c9.4-9.4 24.6-9.4 33.9 0s9.4 24.6 0 33.9zM198.4 403.2c6.4-4.8 15.3-4.1 20.9 1.5l16 16c5.6 5.6 6.3 14.5 1.5 20.9l-5.3 7.1c16.6 9.7 35.9 15.3 56.5 15.3c25.2 0 48.3-8.2 67-22.2c-2-8.3-3-17-3-25.8c0-60 47.3-109.1 106.6-111.9c8.2-19.7 8.4-46.6-12.7-76.1L361 313c-9.4 9.4-24.6 9.4-33.9 0s-9.4-24.6 0-33.9L412 194.1c-29.5-21-56.4-20.8-76.1-12.7C333.1 240.8 284 288 224 288c-8.8 0-17.5-1-25.8-3c-14 18.7-22.2 41.8-22.2 67c0 20.6 5.6 39.9 15.3 56.5l7.1-5.3zm-45.7 34.3c-15.7-24.7-24.7-54-24.7-85.5c0-41.2 15.5-78.7 41.1-107c9.7-10.7 25.8-10.1 39.8-6.7c4.8 1.2 9.9 1.8 15.1 1.8c35.3 0 64-28.7 64-64c0-11.6 2.6-24 12.4-30.1c39.3-24.7 94.3-26.4 145.8 14L599 7c9.4-9.4 24.6-9.4 33.9 0s9.4 24.6 0 33.9L480.2 193.8c40.3 51.5 38.6 106.5 14 145.8C488 349.4 475.6 352 464 352c-35.3 0-64 28.7-64 64c0 5.2 .6 10.2 1.8 15.1c3.4 14.1 4 30.2-6.7 39.8C366.7 496.5 329.2 512 288 512c-31.4 0-60.7-9.1-85.5-24.7l-13.7 18.3c-2.8 3.7-7 6-11.7 6.4s-9.2-1.4-12.4-4.6l-32-32c-3.3-3.3-5-7.8-4.6-12.4s2.6-8.9 6.4-11.7l18.3-13.7zM448 72a24 24 0 1 1 48 0 24 24 0 1 1 -48 0zm120 72a24 24 0 1 1 0 48 24 24 0 1 1 0-48zm48-48a24 24 0 1 1 0 48 24 24 0 1 1 0-48z"/></svg>