<svg xmlns="http://www.w3.org/2000/svg" viewBox="0 0 512 512"><!--! Font Awesome Pro 6.6.0 by @fontawesome - https://fontawesome.com License - https://fontawesome.com/license (Commercial License) Copyright 2024 Fonticons, Inc. --><path d="M88 32C39.4 32 0 71.4 0 120L0 392c0 48.6 39.4 88 88 88l336 0c48.6 0 88-39.4 88-88l0-176c0-48.6-39.4-88-88-88l-304 0c-13.3 0-24 10.7-24 24s10.7 24 24 24l304 0c22.1 0 40 17.9 40 40l0 176c0 22.1-17.9 40-40 40L88 432c-22.1 0-40-17.9-40-40l0-272c0-22.1 17.9-40 40-40l368 0c13.3 0 24-10.7 24-24s-10.7-24-24-24L88 32zM384 336a32 32 0 1 0 0-64 32 32 0 1 0 0 64z"/></svg>