<svg xmlns="http://www.w3.org/2000/svg" viewBox="0 0 576 512"><!--! Font Awesome Pro 6.6.0 by @fontawesome - https://fontawesome.com License - https://fontawesome.com/license (Commercial License) Copyright 2024 Fonticons, Inc. --><path d="M312 24c0-13.3-10.7-24-24-24s-24 10.7-24 24l0 137.7-47.9-43.5c-9.8-8.9-25-8.2-33.9 1.6s-8.2 25 1.6 33.9l88 80c9.2 8.3 23.1 8.3 32.3 0l88-80c9.8-8.9 10.5-24.1 1.6-33.9s-24.1-10.5-33.9-1.6L312 161.7 312 24zM80 302.1C62.8 317 41 328.8 18.8 333.8C5.9 336.7-2.3 349.5 .6 362.5s15.7 21.1 28.7 18.2C58 374.2 81.6 360.2 96 350.2c28.1 19.5 61.4 33.8 96 33.8s67.9-14.3 96-33.8c28.1 19.5 61.4 33.8 96 33.8s67.9-14.3 96-33.8c14.4 10 38 24 66.7 30.4c12.9 2.9 25.8-5.2 28.7-18.2s-5.2-25.8-18.2-28.7c-22-4.9-44.3-16.7-61.3-31.8c-9.1-8.1-22.8-8.1-31.9 0c-21.5 18.6-51.2 33.9-80 33.9s-58.5-15.3-80-33.9c-9.1-8.1-22.8-8.1-31.9 0c-21.5 18.7-51.2 33.9-80 33.9s-58.5-15.3-80-33.9c-9.1-8.1-22.8-8.1-31.9 0zm0 128C62.8 445 41 456.8 18.8 461.8C5.9 464.7-2.3 477.5 .6 490.5s15.7 21.1 28.7 18.2C58 502.2 81.6 488.2 96 478.2c28.1 19.5 61.4 33.8 96 33.8s67.9-14.3 96-33.8c28.1 19.5 61.4 33.8 96 33.8s67.9-14.3 96-33.8c14.4 10 38 24 66.7 30.4c12.9 2.9 25.8-5.2 28.7-18.2s-5.2-25.8-18.2-28.7c-22-4.9-44.3-16.7-61.3-31.8c-9.1-8.1-22.8-8.1-31.9 0c-21.5 18.6-51.2 33.9-80 33.9s-58.5-15.3-80-33.9c-9.1-8.1-22.8-8.1-31.9 0c-21.5 18.6-51.2 33.9-80 33.9s-58.5-15.3-80-33.9c-9.1-8.1-22.8-8.1-31.9 0z"/></svg>