<svg xmlns="http://www.w3.org/2000/svg" viewBox="0 0 640 512"><!--! Font Awesome Pro 6.6.0 by @fontawesome - https://fontawesome.com License - https://fontawesome.com/license (Commercial License) Copyright 2024 Fonticons, Inc. --><path d="M47.3 237.8s0 0 0 0s0 0 0 0l.1-.2 .3-1.1c.3-1 .7-2.5 1.3-4.5c1.2-4 3-9.8 5.6-16.8c5.2-14.1 13.1-32.6 24-50.9C101.2 126.6 132.9 96 176 96c33.3 0 55.6 16.4 74.1 46.2c19.5 31.3 32.6 73.9 46.9 120.8l.6 1.9c13.6 44.6 28.3 93.1 51.5 130.3C373.6 434.4 409.3 464 464 464c68.9 0 113.2-49.4 138.6-91.7c13-21.7 22.1-43.1 28-59.1c2.9-8 5.1-14.7 6.5-19.5c.7-2.4 1.3-4.3 1.6-5.6c.2-.7 .3-1.2 .4-1.6l.1-.5 0-.1c0 0 0 0 0-.1c0 0 0 0 0 0L616 280l23.3 5.8c3.2-12.9-4.6-25.9-17.5-29.1s-25.9 4.6-29.1 17.4c0 0 0 0 0 0s0 0 0 0l-.1 .2-.3 1.1c-.3 1-.7 2.5-1.3 4.5c-1.2 4-3 9.8-5.6 16.8c-5.2 14.1-13 32.6-24 50.9C538.8 385.4 507.1 416 464 416c-33.3 0-55.6-16.4-74.1-46.2C370.4 338.5 357.2 295.9 343 249l-.6-1.9C328.8 202.5 314 154 290.9 116.8C266.4 77.6 230.7 48 176 48C107.1 48 62.8 97.4 37.4 139.7c-13 21.7-22.1 43.1-28 59.1c-2.9 8-5.1 14.7-6.5 19.5c-.7 2.4-1.3 4.3-1.6 5.6c-.2 .7-.3 1.2-.4 1.6l-.1 .5 0 .1c0 0 0 0 0 .1c0 0 0 0 0 0L24 232 .7 226.2c-3.2 12.9 4.6 25.9 17.5 29.1s25.9-4.6 29.1-17.4z"/></svg>