<svg xmlns="http://www.w3.org/2000/svg" viewBox="0 0 640 512"><!--! Font Awesome Pro 6.6.0 by @fontawesome - https://fontawesome.com License - https://fontawesome.com/license (Commercial License) Copyright 2024 Fonticons, Inc. --><path d="M38.8 5.1C28.4-3.1 13.3-1.2 5.1 9.2S-1.2 34.7 9.2 42.9l592 464c10.4 8.2 25.5 6.3 33.7-4.1s6.3-25.5-4.1-33.7l-174-136.4c3.6-2.8 7.1-5.9 10.5-9.3l16.9-16.9c8.5-8.5 9.3-21.7 2.4-31.1c21.9-3.8 42.9-14.2 59.8-31.1l16.9-16.9c9.4-9.4 9.4-24.6 0-33.9l-16.9-16.9c-11.6-11.6-24.8-20.4-38.9-26.7C546.8 140.9 576 105.9 576 64l0-40c0-13.3-10.7-24-24-24L512 0c-41.9 0-76.9 29.3-85.8 68.5C420 54.3 411 41 399.4 29.4L382.5 12.4c-9.4-9.4-24.6-9.4-33.9 0L331.6 29.4c-16.9 16.9-27.3 37.9-31.1 59.8c-9.4-6.9-22.6-6.1-31.1 2.4l-16.9 16.9c-12.5 12.5-21.5 27.3-26.8 43L38.8 5.1zM267.7 184.5c.8-15.3 7-30.3 18.6-42c19.9 20 27.1 47.8 21.6 73.5l-40.2-31.5zM372 266.3c22-1.3 44.5 6.4 61.3 23.3c-5 4.9-10.5 8.9-16.4 11.9L372 266.3zM173.3 346.1l11.3 11.3c0 0 0 0 0 0L71 471c-9.4 9.4-9.4 24.6 0 33.9s24.6 9.4 33.9 0L218.5 391.4l11.2 11.2c43.7 43.7 114.6 43.7 158.4 0l.5-.5-38.1-30c-25.1 21.5-63 20.4-86.8-3.4l-10.1-10.2c20.1-13.3 44.8-16.6 67.2-9.8l-90.2-71.1c.1 15.6-4.3 31.2-13.2 44.7l-10.1-10.1c-17.6-17.6-22.8-43-15.6-65.2l-39.1-30.8c-21.4 42.1-14.5 94.8 20.7 129.9zM512 48l16 0 0 16c0 22.1-17.9 40-40 40l-16 0 0-16c0-22.1 17.9-40 40-40zM365.5 153.8c-25-25-25-65.5 0-90.5c27.3 27.4 30.7 69.6 10.2 100.6l-10.1-10.1zm147 56.5c-25 25-65.5 25-90.5 0l-10.1-10.1c31-20.5 73.3-17.2 100.6 10.2z"/></svg>