<svg xmlns="http://www.w3.org/2000/svg" viewBox="0 0 512 512"><!--! Font Awesome Pro 6.6.0 by @fontawesome - https://fontawesome.com License - https://fontawesome.com/license (Commercial License) Copyright 2024 Fonticons, Inc. --><path d="M50.5 80l411 0L414.2 404.6c-2.3 15.7-15.8 27.4-31.7 27.4l-253 0c-15.9 0-29.4-11.7-31.7-27.4L50.5 80zM32 32c-9.3 0-18.1 4-24.2 11.1S-1 59.4 .3 68.6l50 342.9c5.7 39.3 39.4 68.5 79.2 68.5l253 0c39.7 0 73.4-29.1 79.2-68.5l50-342.9c1.3-9.2-1.4-18.5-7.5-25.5S489.3 32 480 32L32 32zM255.4 179.3l.6-.6c-5-1.8-10.4-2.7-16-2.7l-96 0c-26.5 0-48 21.5-48 48l0 96c0 26.5 21.5 48 48 48l73.8 0-19-19c-8.5-8.5-14.7-18.4-18.6-29L144 320l0-96 66.7 0 44.7-44.7zM312 235.9l56.6 56.6L312 349l-56.6-56.6L312 235.9zm-33.9-33.9l-56.6 56.6c-18.7 18.7-18.7 49.1 0 67.9L278.1 383c18.7 18.7 49.1 18.7 67.9 0l56.6-56.6c18.7-18.7 18.7-49.1 0-67.9l-56.6-56.6c-18.7-18.7-49.1-18.7-67.9 0z"/></svg>