<svg xmlns="http://www.w3.org/2000/svg" viewBox="0 0 640 512"><!--! Font Awesome Pro 6.6.0 by @fontawesome - https://fontawesome.com License - https://fontawesome.com/license (Commercial License) Copyright 2024 Fonticons, Inc. --><path d="M24 32l592 0c13.3 0 24 10.7 24 24s-10.7 24-24 24L24 80C10.7 80 0 69.3 0 56S10.7 32 24 32zm0 400l592 0c13.3 0 24 10.7 24 24s-10.7 24-24 24L24 480c-13.3 0-24-10.7-24-24s10.7-24 24-24zM41 167l55 55 55-55c9.4-9.4 24.6-9.4 33.9 0s9.4 24.6 0 33.9l-55 55 55 55c9.4 9.4 9.4 24.6 0 33.9s-24.6 9.4-33.9 0l-55-55L41 345c-9.4 9.4-24.6 9.4-33.9 0s-9.4-24.6 0-33.9l55-55L7 201c-9.4-9.4-9.4-24.6 0-33.9s24.6-9.4 33.9 0zm224 0l55 55 55-55c9.4-9.4 24.6-9.4 33.9 0s9.4 24.6 0 33.9l-55 55 55 55c9.4 9.4 9.4 24.6 0 33.9s-24.6 9.4-33.9 0l-55-55-55 55c-9.4 9.4-24.6 9.4-33.9 0s-9.4-24.6 0-33.9l55-55-55-55c-9.4-9.4-9.4-24.6 0-33.9s24.6-9.4 33.9 0zM455 167c9.4-9.4 24.6-9.4 33.9 0l55 55 55-55c9.4-9.4 24.6-9.4 33.9 0s9.4 24.6 0 33.9l-55 55 55 55c9.4 9.4 9.4 24.6 0 33.9s-24.6 9.4-33.9 0l-55-55-55 55c-9.4 9.4-24.6 9.4-33.9 0s-9.4-24.6 0-33.9l55-55-55-55c-9.4-9.4-9.4-24.6 0-33.9z"/></svg>