<svg xmlns="http://www.w3.org/2000/svg" viewBox="0 0 576 512"><!--! Font Awesome Pro 6.6.0 by @fontawesome - https://fontawesome.com License - https://fontawesome.com/license (Commercial License) Copyright 2024 Fonticons, Inc. --><path d="M576 32L0 32 0 480l576 0 0-448zM256 288l32 96L64 384l32-96 160 0zM112 192a64 64 0 1 1 128 0 64 64 0 1 1 -128 0zm256-32l128 0 16 0 0 32-16 0-128 0-16 0 0-32 16 0zm0 64l128 0 16 0 0 32-16 0-128 0-16 0 0-32 16 0zm0 64l128 0 16 0 0 32-16 0-128 0-16 0 0-32 16 0z"/></svg>