<svg xmlns="http://www.w3.org/2000/svg" viewBox="0 0 512 512"><!--! Font Awesome Pro 6.6.0 by @fontawesome - https://fontawesome.com License - https://fontawesome.com/license (Commercial License) Copyright 2024 Fonticons, Inc. --><path d="M256 448C150 448 64 362 64 256l0-32L0 224l0 32C0 397.4 114.6 512 256 512s256-114.6 256-256l0-32-64 0 0 32c0 106-86 192-192 192zM121.4 137.4L98.7 160 144 205.3l22.6-22.6L224 125.3 224 320l0 32 64 0 0-32 0-194.7 57.4 57.4L368 205.3 413.3 160l-22.6-22.6-112-112L256 2.7 233.4 25.4l-112 112z"/></svg>