<svg xmlns="http://www.w3.org/2000/svg" viewBox="0 0 512 512"><!--! Font Awesome Pro 6.6.0 by @fontawesome - https://fontawesome.com License - https://fontawesome.com/license (Commercial License) Copyright 2024 Fonticons, Inc. --><path d="M448 256c0-106-86-192-192-192l0-64C397.4 0 512 114.6 512 256s-114.6 256-256 256l0-64c106 0 192-86 192-192zM230.6 121.4l112 112L365.3 256l-22.6 22.6-112 112L208 413.3 162.7 368l22.6-22.6L242.7 288 32 288 0 288l0-64 32 0 210.7 0-57.4-57.4L162.7 144 208 98.7l22.6 22.6z"/></svg>