<svg xmlns="http://www.w3.org/2000/svg" viewBox="0 0 512 512"><!--! Font Awesome Pro 6.6.0 by @fontawesome - https://fontawesome.com License - https://fontawesome.com/license (Commercial License) Copyright 2024 Fonticons, Inc. --><path d="M256 128l0-32L64 96l0 128 416 0 32 0 0 32 0 192 0 32-32 0-64 0 0 32-128 0 0-128 128 0 0 32 32 0 0-128L32 288 0 288l0-32L0 64 0 32l32 0 224 0 0-32 24 0 72 64-72 64-24 0zM128 384l0 32 32 0 0-32 24 0 72 64-72 64-24 0 0-32-32 0 0 32L0 512 0 384l128 0zM512 0l0 128-128 0L384 0 512 0z"/></svg>