<svg xmlns="http://www.w3.org/2000/svg" viewBox="0 0 512 512"><!--! Font Awesome Pro 6.6.0 by @fontawesome - https://fontawesome.com License - https://fontawesome.com/license (Commercial License) Copyright 2024 Fonticons, Inc. --><path d="M278.6 25.4L256 2.7 233.4 25.4l-56 56L154.7 104 200 149.3l22.6-22.6 1.4-1.4 0 98.7-98.7 0 1.4-1.4L149.3 200 104 154.7 81.4 177.4l-56 56L2.7 256l22.6 22.6 56 56L104 357.3 149.3 312l-22.6-22.6-1.4-1.4 98.7 0 0 98.7-1.4-1.4L200 362.7 154.7 408l22.6 22.6 56 56L256 509.3l22.6-22.6 56-56L357.3 408 312 362.7l-22.6 22.6-1.4 1.4 0-98.7 98.7 0-1.4 1.4L362.7 312 408 357.3l22.6-22.6 56-56L509.3 256l-22.6-22.6-56-56L408 154.7 362.7 200l22.6 22.6 1.4 1.4L288 224l0-98.7 1.4 1.4L312 149.3 357.3 104 334.6 81.4l-56-56z"/></svg>