<svg xmlns="http://www.w3.org/2000/svg" viewBox="0 0 448 512"><!--! Font Awesome Pro 6.6.0 by @fontawesome - https://fontawesome.com License - https://fontawesome.com/license (Commercial License) Copyright 2024 Fonticons, Inc. --><path d="M256 32l0-32L192 0l0 32 0 32-64 0 0 32 96 96 96-96 0-32-64 0 0-32zM192 448l0 32 0 32 64 0 0-32 0-32 64 0 0-32-96-96-96 96 0 32 64 0zM64 224L0 224l0 64 64 0 0-64zm32 0l0 64 64 0 0-64-64 0zm160 0l-64 0 0 64 64 0 0-64zm32 0l0 64 64 0 0-64-64 0zm96 0l0 64 64 0 0-64-64 0z"/></svg>