<svg xmlns="http://www.w3.org/2000/svg" viewBox="0 0 512 512"><!--! Font Awesome Pro 6.6.0 by @fontawesome - https://fontawesome.com License - https://fontawesome.com/license (Commercial License) Copyright 2024 Fonticons, Inc. --><path d="M256 192L.1 192C3.1 108 52.3 35.8 123 0L256 192zM384 96l32 0 64 0 32 0 0 64-32 0-32 0 0 64c0 25.2-5.8 50.2-17 73.5s-27.8 44.5-48.6 62.3s-45.5 32-72.7 41.6S253.4 416 224 416s-58.5-5-85.7-14.6s-51.9-23.8-72.7-41.6s-37.3-39-48.6-62.3S0 249.2 0 224l224 0 160 0 0-96 0-32zM80 416a48 48 0 1 1 0 96 48 48 0 1 1 0-96zm240 48a48 48 0 1 1 96 0 48 48 0 1 1 -96 0z"/></svg>