<svg xmlns="http://www.w3.org/2000/svg" viewBox="0 0 448 512"><!--! Font Awesome Pro 6.6.0 by @fontawesome - https://fontawesome.com License - https://fontawesome.com/license (Commercial License) Copyright 2024 Fonticons, Inc. --><path d="M152 88a72 72 0 1 1 144 0A72 72 0 1 1 152 88zM63.2 112.1l32.3 23.5L173 192l102 0 77.5-56.3 32.3-23.5 47.1 64.7-32.3 23.5L320 258.2l0 29.8-35.8 0-.9 0-118.5 0-.9 0L128 288l0-29.8L48.5 200.3 16.1 176.8l47.1-64.7zm65.3 216.3l60.2 52.7L165 408.2l17.3 20.1 26.1 30.3-60.6 52.2-26.1-30.3-40-46.4L59 407.8l22.9-26.1 46.6-53.2zm130.8 52.7l60.2-52.7 46.6 53.2L389 407.8l-22.7 26.3-40 46.4-26.1 30.3-60.6-52.2 26.1-30.3L283 408.2l-23.7-27.1z"/></svg>