<svg xmlns="http://www.w3.org/2000/svg" viewBox="0 0 576 512"><!--! Font Awesome Pro 6.6.0 by @fontawesome - https://fontawesome.com License - https://fontawesome.com/license (Commercial License) Copyright 2024 Fonticons, Inc. --><path d="M256.4 29.8L245.3 51.1 171.8 192l232.5 0L330.7 51.1 319.6 29.8 362.2 7.6l11.1 21.3L458.4 192 576 192l0 64-32 0L480 512 96 512 32 256 0 256l0-64 117.6 0L202.7 28.9 213.8 7.6l42.6 22.2zM184 328l0 48 24 0 56 0 0 56 0 24 48 0 0-24 0-56 56 0 24 0 0-48-24 0-56 0 0-56 0-24-48 0 0 24 0 56-56 0-24 0z"/></svg>