<svg xmlns="http://www.w3.org/2000/svg" viewBox="0 0 640 512"><!--! Font Awesome Pro 6.6.0 by @fontawesome - https://fontawesome.com License - https://fontawesome.com/license (Commercial License) Copyright 2024 Fonticons, Inc. --><path d="M528 512l24 0s0 0 0 0l-24 0-112 0-32 0-256 0 0-112c40.1 30.1 90 48 144 48c47 0 90.9-13.5 127.9-36.9L416 423.8l0 40.2 51.1 0L528 512zm43.3-91.2l49.6 38.5 19 14.7-29.4 37.9-19-14.7L19 52.7 0 38 29.4 .1l19 14.7 69.3 53.8C155.7 26.5 210.8 0 272 0C386.9 0 480 93.1 480 208c0 42.5-12.8 82-34.6 115l51.8 40.2c8.3-7 19.1-11.2 30.8-11.2c26.5 0 48 21.5 48 48c0 7.4-1.7 14.5-4.7 20.8zM343.5 243.9c5.4-10.8 8.5-23 8.5-35.9c0-44.2-35.8-80-80-80c-20.1 0-38.5 7.4-52.5 19.6l26.1 20.3c7.6-5 16.6-7.9 26.4-7.9c26.5 0 48 21.5 48 48c0 5.5-.9 10.7-2.6 15.6l26.1 20.3zM64 208c0-19.3 2.6-37.9 7.5-55.6L373 389.9C343.1 406.5 308.7 416 272 416C157.1 416 64 322.9 64 208z"/></svg>