<svg xmlns="http://www.w3.org/2000/svg" viewBox="0 0 640 512"><!--! Font Awesome Pro 6.6.0 by @fontawesome - https://fontawesome.com License - https://fontawesome.com/license (Commercial License) Copyright 2024 Fonticons, Inc. --><path d="M544 399.6l0-31.6-64-72 0-88c0-77.4-55-142-128-156.8L352 0 288 0l0 51.2c-42.9 8.7-79.5 34.5-102.5 70.1L48.4 14.8 29.4 .1 0 38 19 52.7 591.5 497.2l19 14.7L639.9 474l-19-14.7L544 399.6zM406.2 416L160 222.1l0 73.9L96 368l0 48 310.2 0zM384 448l-64 0-64 0c0 17 6.7 33.3 18.7 45.3s28.3 18.7 45.3 18.7s33.3-6.7 45.3-18.7s18.7-28.3 18.7-45.3z"/></svg>