<svg xmlns="http://www.w3.org/2000/svg" viewBox="0 0 640 512"><!--! Font Awesome Pro 6.6.0 by @fontawesome - https://fontawesome.com License - https://fontawesome.com/license (Commercial License) Copyright 2024 Fonticons, Inc. --><path d="M448 32l0-32L384 0l0 32L256 32l0-32L192 0l0 32L96 32 32 32l0 64 0 256L0 352l0 64 32 0 64 0 192 0 0 64 0 32 64 0 0-32 0-64 192 0 64 0 32 0 0-64-32 0 0-256 0-64-64 0-96 0zM352 352l-64 0L96 352 96 96l96 0 0 32-32 0 0 64 32 0 32 0 32 0 32 0 0-64-32 0 0-32 128 0 0 32-32 0 0 64 32 0 32 0 32 0 32 0 0-64-32 0 0-32 96 0 0 256-192 0z"/></svg>