<svg xmlns="http://www.w3.org/2000/svg" viewBox="0 0 512 512"><!--! Font Awesome Pro 6.6.0 by @fontawesome - https://fontawesome.com License - https://fontawesome.com/license (Commercial License) Copyright 2024 Fonticons, Inc. --><path d="M192 0l0 64c141.4 0 256 114.6 256 256l64 0C512 143.3 368.7 0 192 0zm0 96l0 64c88.4 0 160 71.6 160 160l64 0C416 196.3 315.7 96 192 96zM96 144l0-48L0 96l0 48L0 368c0 79.5 64.5 144 144 144s144-64.5 144-144s-64.5-144-144-144l-16 0 0 96 16 0c26.5 0 48 21.5 48 48s-21.5 48-48 48s-48-21.5-48-48l0-224z"/></svg>