<svg xmlns="http://www.w3.org/2000/svg" viewBox="0 0 448 512"><!--! Font Awesome Pro 6.6.0 by @fontawesome - https://fontawesome.com License - https://fontawesome.com/license (Commercial License) Copyright 2024 Fonticons, Inc. --><path d="M0 96C0 43 43 0 96 0L384 0l32 0 32 0 0 384-32 0 0 64 32 0 0 64-32 0-32 0L96 512c-53 0-96-43-96-96L0 96zM64 416c0 17.7 14.3 32 32 32l256 0 0-64L96 384c-17.7 0-32 14.3-32 32zm69.1-255.6c-3 10.1-5.1 20.6-5.1 31.6c0 .2 0 .5 .1 .8s.1 .5 .1 .8L165.2 226l-10.5 12-23.6-20.6C142.8 267 186.9 304 240 304s97.3-37 108.9-86.6L325.3 238l-10.5-12 37.1-32.5c0-.3 0-.5 .1-.8s.1-.5 .1-.8c0-11-2.1-21.5-5.1-31.6l-21.2 21.2-11.3-11.2 26.4-26.5c-10-20.7-26.1-38-46.4-49.2c17 27.1 11 62.8-14 82.6c14.1 14.6 19.1 35.9 13.1 55.2c-5.9 19.4-22 34.1-41.9 38.3l-1.4-34.3 12.6 8.6 5.6-5.4L260 225.4l18-3.6 0-7.9-18-3.7 8.5-14.3-5.6-5.4-14.1 9.6L244 84.2l-8 0-4.6 114.5-12-8.1-5.8 5.4 8.6 14.3-18 3.7 0 7.9 18 3.8-7.9 14.2 5.8 5.4 9.6-7.1-1.4 32.8c-19.9-4.1-36-18.9-41.9-38.3c-6-19.4-1-40.5 13.1-55.2c-25-19.9-31-55.5-14-82.6c-20.1 11.2-36.4 28.5-46.4 49.2l26.4 26.5-11.2 11.2-21.2-21.2z"/></svg>