<svg xmlns="http://www.w3.org/2000/svg" viewBox="0 0 640 512"><!--! Font Awesome Pro 6.6.0 by @fontawesome - https://fontawesome.com License - https://fontawesome.com/license (Commercial License) Copyright 2024 Fonticons, Inc. --><path d="M96 0C43 0 0 43 0 96L0 416c0 53 43 96 96 96l288 0 10.8 0c-23.3-16.4-42.5-38.4-55.6-64L96 448c-17.7 0-32-14.3-32-32s14.3-32 32-32l224.7 0c-.5-5.3-.7-10.6-.7-16c0-80.6 54.1-148.5 128-169.4L448 0 416 0 384 0 96 0zM496 224a144 144 0 1 0 0 288 144 144 0 1 0 0-288zM417.4 360l11.3-11.3 56-56L496 281.4l11.3 11.3 56 56L574.6 360 552 382.6l-11.3-11.3L512 342.6l0 89.4 0 16-32 0 0-16 0-89.4-28.7 28.7L440 382.6 417.4 360z"/></svg>