<svg xmlns="http://www.w3.org/2000/svg" viewBox="0 0 448 512"><!--! Font Awesome Pro 6.6.0 by @fontawesome - https://fontawesome.com License - https://fontawesome.com/license (Commercial License) Copyright 2024 Fonticons, Inc. --><path d="M448 64l0-32-64 0 0 32 0 352L32 416 0 416l0 64 32 0 384 0 32 0 0-32 0-384zM288 96l64 0 0-64-64 0 0 64zM96 96l64 0 0-64L96 32l0 64zm96-64l0 64 64 0 0-64-64 0zM0 96l64 0 0-64L0 32 0 96zM64 224L0 224l0 64 64 0 0-64zm0-32l0-64L0 128l0 64 64 0zm0 128L0 320l0 64 64 0 0-64z"/></svg>