<svg xmlns="http://www.w3.org/2000/svg" viewBox="0 0 512 512"><!--! Font Awesome Pro 6.6.0 by @fontawesome - https://fontawesome.com License - https://fontawesome.com/license (Commercial License) Copyright 2024 Fonticons, Inc. --><path d="M176 24c0 26.5 10.5 38.7 25.9 56.1l.4 .4C218.8 99 240 122.9 240 168l0 24-48 0 0-24c0-26.5-10.5-38.7-25.9-56.1l-.4-.4C149.2 93 128 69.1 128 24l0-24 48 0 0 24zm128 0c0 26.5 10.5 38.7 25.9 56.1l.4 .4C346.8 99 368 122.9 368 168l0 24-48 0 0-24c0-26.5-10.5-38.7-25.9-56.1l-.4-.4C277.2 93 256 69.1 256 24l0-24 48 0 0 24zM3.6 285.2L0 224l512 0-3.6 61.2C503.5 368.1 454 438.2 384 472.9l0 39.1-256 0 0-39.1C58 438.2 8.5 368.1 3.6 285.2z"/></svg>