<svg xmlns="http://www.w3.org/2000/svg" viewBox="0 0 640 512"><!--! Font Awesome Pro 6.6.0 by @fontawesome - https://fontawesome.com License - https://fontawesome.com/license (Commercial License) Copyright 2024 Fonticons, Inc. --><path d="M76.7 160L69.2 64l245.6 0-7.5 96L76.7 160zM40 512l216 0 0-229.4c3-9.1 6.7-17.5 11.6-25.9c6.6-11.3 17-25.9 32.7-40.4c17.2-15.9 40.1-31 70.1-41.6L379 64l5-64L319.8 0 64.2 0 0 0 5 64 40 512zM640 287.8s-32-96-176-96s-176 96-176 96l0 32 352 0 0-32zm-256-48a16 16 0 1 1 0 32 16 16 0 1 1 0-32zm64 0a16 16 0 1 1 32 0 16 16 0 1 1 -32 0zm96 0a16 16 0 1 1 0 32 16 16 0 1 1 0-32zm-256 112l0 64 352 0 0-64-352 0zm0 96l0 64 352 0 0-64-352 0z"/></svg>