<svg xmlns="http://www.w3.org/2000/svg" viewBox="0 0 512 512"><!--! Font Awesome Pro 6.6.0 by @fontawesome - https://fontawesome.com License - https://fontawesome.com/license (Commercial License) Copyright 2024 Fonticons, Inc. --><path d="M32 192l0 32 448 0 0-32s0-160-224-160S32 192 32 192zm96-80a16 16 0 1 1 0 32 16 16 0 1 1 0-32zm240 16a16 16 0 1 1 32 0 16 16 0 1 1 -32 0zM256 80a16 16 0 1 1 0 32 16 16 0 1 1 0-32zM480 384L32 384l0 96 448 0 0-96zM224 256l-32 0s0 0 0 0L16 256l0 96 480 0 0-96-48 0s0 0 0 0l-32 0-96 64-96-64z"/></svg>