<svg xmlns="http://www.w3.org/2000/svg" viewBox="0 0 512 512"><!--! Font Awesome Pro 6.6.0 by @fontawesome - https://fontawesome.com License - https://fontawesome.com/license (Commercial License) Copyright 2024 Fonticons, Inc. --><path d="M256 0C371.9 0 464 48 464 48l0 48 0 16 48 0 0 128-48 0 0 16 16 0 0 192-32 0 0 64-96 0 0-64-192 0 0 64-96 0 0-64-32 0 0-192 16 0L48 96s0 0 0 0l0-48s92.1-48 208-48zM48 240L0 240 0 112l48 0 0 128zM272 128l0 128 128 0 0-128-128 0zm-32 0l-128 0 0 128 128 0 0-128zM112 384a32 32 0 1 0 0-64 32 32 0 1 0 0 64zm288 0a32 32 0 1 0 0-64 32 32 0 1 0 0 64zM352 96l0-32-16 0L176 64l-16 0 0 32 16 0 160 0 16 0z"/></svg>