<svg xmlns="http://www.w3.org/2000/svg" viewBox="0 0 384 512"><!--! Font Awesome Pro 6.6.0 by @fontawesome - https://fontawesome.com License - https://fontawesome.com/license (Commercial License) Copyright 2024 Fonticons, Inc. --><path d="M384 0L0 0 0 512l384 0L384 0zM320 64l0 96L64 160l0-96 256 0zM64 192l64 0 0 64-64 0 0-64zm64 96l0 64-64 0 0-64 64 0zM64 384l160 0 0 64L64 448l0-64zM224 192l0 64-64 0 0-64 64 0zm-64 96l64 0 0 64-64 0 0-64zm160-96l0 64-64 0 0-64 64 0zm-64 96l64 0 0 64-64 0 0-64zm64 96l0 64-64 0 0-64 64 0z"/></svg>