<svg xmlns="http://www.w3.org/2000/svg" viewBox="0 0 640 512"><!--! Font Awesome Pro 6.6.0 by @fontawesome - https://fontawesome.com License - https://fontawesome.com/license (Commercial License) Copyright 2024 Fonticons, Inc. --><path d="M224 32L202.7 96 64 96l0 384 512 0 0-384L437.3 96 416 32 224 32zM448 272l-88 0-16-16 27-27c-13.6-13.4-31.9-21-51-21c-19.2 0-37.7 7.6-51.3 21.3L249 249 215 215l19.7-19.7C257.4 172.7 288 160 320 160c31.8 0 62.4 12.6 85 35l27-27 16 16 0 88zM192 304l88 0 16 16-27 27c13.6 13.4 31.9 21 51 21c19.2 0 37.7-7.6 51.3-21.3L391 327 425 361l-19.7 19.7C382.6 403.3 352 416 320 416c-31.8 0-62.4-12.6-85-35l-27 27-16-16 0-88z"/></svg>