<svg xmlns="http://www.w3.org/2000/svg" viewBox="0 0 640 512"><!--! Font Awesome Pro 6.6.0 by @fontawesome - https://fontawesome.com License - https://fontawesome.com/license (Commercial License) Copyright 2024 Fonticons, Inc. --><path d="M0 0L352 0l0 128-32 0-23.1 0-23.1 0-7.3 21.9-7.3 21.9L252.5 192 192 192l0 64 0 32 0 160 0 32L0 480 0 0zM289.6 181.9l7.3-21.9 23.1 0 32 0 192 0 23.1 0 7.3 21.9L609.7 288l30.3 0 0 160 0 64-80 0 0-64-256 0 0 64-80 0 0-32 0-32s0 0 0 0l0-32 0-16 0-64 0-16 0-32 30.3 0 35.4-106.1zM352 224l-8.9 0-10.7 32-10.7 32 30.3 0 190.3 0-21.3-64L352 224zM64 96l0 64 64 0 0-64L64 96zm0 96l0 64 64 0 0-64-64 0zm64 96l-64 0 0 64 64 0 0-64zM192 96l0 64 64 0 0-64-64 0zM304 392a24 24 0 1 0 0-48 24 24 0 1 0 0 48zm280-24a24 24 0 1 0 -48 0 24 24 0 1 0 48 0z"/></svg>