<svg xmlns="http://www.w3.org/2000/svg" viewBox="0 0 640 512"><!--! Font Awesome Pro 6.6.0 by @fontawesome - https://fontawesome.com License - https://fontawesome.com/license (Commercial License) Copyright 2024 Fonticons, Inc. --><path d="M96 64L42.7 224 0 224 0 432l65.3 0c7.6 45.4 47.1 80 94.7 80s87.1-34.6 94.7-80l130.7 0c7.6 45.4 47.1 80 94.7 80s87.1-34.6 94.7-80l65.3 0 0-208-117.3 0L416 64 96 64zM480 368a48 48 0 1 1 0 96 48 48 0 1 1 0-96zM114.7 400a48 48 0 1 1 90.5 32 48 48 0 1 1 -90.5-32zM208 240L336 112l-24 96 88 0L272 336l24-96-88 0z"/></svg>