<svg xmlns="http://www.w3.org/2000/svg" viewBox="0 0 640 512"><!--! Font Awesome Pro 6.6.0 by @fontawesome - https://fontawesome.com License - https://fontawesome.com/license (Commercial License) Copyright 2024 Fonticons, Inc. --><path d="M64 0L88 0l72 0 19.9 0 3.7 19.5L186 32l454 0L560 288l-325.3 0 9.1 48L552 336l24 0 0 48-24 0-328 0-19.9 0-3.7-19.5L140.1 48 88 48 64 48 64 0zM192 464a48 48 0 1 1 96 0 48 48 0 1 1 -96 0zm336-48a48 48 0 1 1 0 96 48 48 0 1 1 0-96zM0 144L0 96l112 0 0 48L0 144zm0 80l0-48 128 0 0 48L0 224zm0 80l0-48 144 0 0 48L0 304z"/></svg>