<svg xmlns="http://www.w3.org/2000/svg" viewBox="0 0 640 512"><!--! Font Awesome Pro 6.6.0 by @fontawesome - https://fontawesome.com License - https://fontawesome.com/license (Commercial License) Copyright 2024 Fonticons, Inc. --><path d="M0 0L32 0 96 0l32 0 0 32 0 352 480 0 32 0 0 64-32 0-66.7 0c1.8 5 2.7 10.4 2.7 16c0 26.5-21.5 48-48 48s-48-21.5-48-48c0-5.6 1-11 2.7-16l-197.5 0c1.8 5 2.7 10.4 2.7 16c0 26.5-21.5 48-48 48s-48-21.5-48-48c0-5.6 1-11 2.7-16L96 448l-32 0 0-32L64 64 32 64 0 64 0 0zM432 96l0-48-96 0 0 48 96 0zM288 96l0-72 0-24 24 0L456 0l24 0 0 24 0 72 0 224-192 0 0-224zM512 320l0-224 64 0 0 224-64 0zM192 96l64 0 0 224-64 0 0-224z"/></svg>