<svg xmlns="http://www.w3.org/2000/svg" viewBox="0 0 512 512"><!--! Font Awesome Pro 6.6.0 by @fontawesome - https://fontawesome.com License - https://fontawesome.com/license (Commercial License) Copyright 2024 Fonticons, Inc. --><path d="M320 0L32 0l0 128 112 0 0 32L32 160 0 371.2 0 512l512 0 0-140.8L480 160l-272 0 0-32 112 0L320 0zM96 48l160 0 16 0 0 32-16 0L96 80 80 80l0-32 16 0zM64 416l16 0 352 0 16 0 0 32-16 0L80 448l-16 0 0-32zm72-200l0 48-48 0 0-48 48 0zm48 48l0-48 48 0 0 48-48 0zm0 32l0 48-48 0 0-48 48 0zm96-80l48 0 0 48-48 0 0-48zm-48 80l48 0 0 48-48 0 0-48zm144-80l48 0 0 48-48 0 0-48zm0 80l0 48-48 0 0-48 48 0z"/></svg>