<svg xmlns="http://www.w3.org/2000/svg" viewBox="0 0 512 512"><!--! Font Awesome Pro 6.6.0 by @fontawesome - https://fontawesome.com License - https://fontawesome.com/license (Commercial License) Copyright 2024 Fonticons, Inc. --><path d="M64 64l0-32L0 32 0 64 0 448l0 32 32 0 448 0 32 0 0-64-32 0L64 416 64 64zm416 0L352 64 336 80l41.4 41.4L288 210.7l-57.4-57.4L208 130.7l-22.6 22.6-88 88 45.3 45.3L208 221.3l57.4 57.4L288 301.3l22.6-22.6 112-112L464 208l16-16 0-128zm0 320l0-128-16-16-41.4 41.4-34.7-34.7-45.3 45.3 34.7 34.7L336 368l16 16 128 0z"/></svg>