<svg xmlns="http://www.w3.org/2000/svg" viewBox="0 0 640 512"><!--! Font Awesome Pro 6.6.0 by @fontawesome - https://fontawesome.com License - https://fontawesome.com/license (Commercial License) Copyright 2024 Fonticons, Inc. --><path d="M496 192c4.6 0 9.3 .2 13.8 .5C494.5 83.7 401 0 288 0c-5.4 0-10.7 .2-16 .6L272 240l103.2 0c31.5-29.8 74-48 120.8-48zM320 368c0-28.8 6.9-56 19.2-80L224 288l0-255.5C98.9 40.8 0 144.8 0 272C0 404.6 107.5 512 240 512c43.8 0 84.8-11.7 120.1-32.2C335 449.4 320 410.5 320 368zm320 0a144 144 0 1 0 -288 0 144 144 0 1 0 288 0zM521.4 393.4a35.9 35.9 0 1 0 -50.7-50.7 35.9 35.9 0 1 0 50.7 50.7zm10 32.6c-21.6 13.2-49.1 13.2-70.7 0l-25.3 25.3-22.6-22.6L438 403.3c-13.2-21.6-13.2-49.1 0-70.7l-25.3-25.3 22.6-22.6L460.7 310c21.6-13.2 49.1-13.2 70.7 0l25.3-25.3 22.6 22.6L554 332.7c13.2 21.6 13.2 49.1 0 70.7l25.3 25.3-22.6 22.6L531.3 426z"/></svg>