<svg xmlns="http://www.w3.org/2000/svg" viewBox="0 0 256 512"><!--! Font Awesome Pro 6.6.0 by @fontawesome - https://fontawesome.com License - https://fontawesome.com/license (Commercial License) Copyright 2024 Fonticons, Inc. --><path d="M80 32l96 0 0 48-20.7 0c6.7 6.4 14.3 14.5 21.7 24.4l-44.3 44.3L121.4 160 144 182.6l11.3-11.3 38.8-38.8c8.2 17.1 13.9 37 13.9 59.5c0 26.3-13.6 40.5-26.3 48l2.3 0 24 0 0 48-24 0-5.7 0L192 384 64 384l13.7-96L72 288l-24 0 0-48 24 0 2.3 0C61.6 232.5 48 218.3 48 192c0-52.8 31.4-91.7 52.7-112L80 80l0-48zM43.9 416l4.1 0 160 0 4.1 0 2.4 3.4 40 56 1.5 2.1 0 2.6 0 24 0 8-8 0L8 512l-8 0 0-8 0-24 0-2.6 1.5-2.1 40-56 2.4-3.4z"/></svg>