<svg xmlns="http://www.w3.org/2000/svg" viewBox="0 0 320 512"><!--! Font Awesome Pro 6.6.0 by @fontawesome - https://fontawesome.com License - https://fontawesome.com/license (Commercial License) Copyright 2024 Fonticons, Inc. --><path d="M128 0L96 0l0 64 27 0C78.1 107.2 8 190.2 8 288c0 47.4 30.8 72.3 56 84.7L64 400l192 0 0-27.3c25.2-12.5 56-37.4 56-84.7c0-37.3-10.2-72.4-25.3-104.1l-99.4 99.4L176 294.6 153.4 272l11.3-11.3L270.8 154.6c-23-37.9-51.5-69.2-73.8-90.6l27 0 0-64L192 0 128 0zM0 512l320 0 0-32-48-48L48 432 0 480l0 32z"/></svg>