<svg xmlns="http://www.w3.org/2000/svg" viewBox="0 0 512 512"><!--! Font Awesome Pro 6.6.0 by @fontawesome - https://fontawesome.com License - https://fontawesome.com/license (Commercial License) Copyright 2024 Fonticons, Inc. --><path d="M352 392.6c-28.7 15-61.4 23.4-96 23.4c-35.9 0-69.7-9.1-99.1-25.1c-19-10.3-36.1-23.5-50.9-38.9C70 314.6 48 263.9 48 208C48 93.1 141.1 0 256 0S464 93.1 464 208c0 55.9-22 106.6-57.9 144c-1 1-2 2.1-3 3.1c-14.9 14.9-32.2 27.6-51.1 37.5zM276.1 91.9l-40.2 0 0 20.1 0 6c-5.6 1.2-10.9 2.9-15.9 5.1c-15 6.8-27.9 19.4-31.1 37.7c-1.8 10.2-.8 20 3.4 29c4.2 8.8 10.7 15 17.3 19.5c11.6 7.9 26.9 12.5 38.6 16l2.2 .7c13.9 4.2 23.4 7.4 29.3 11.7c2.5 1.8 3.4 3.2 3.7 4c.3 .8 .9 2.6 .2 6.7c-.6 3.5-2.5 6.4-8 8.8c-6.1 2.6-16 3.9-28.8 1.9c-6-1-16.7-4.6-26.2-7.9c0 0 0 0 0 0s0 0 0 0c-2.2-.8-4.4-1.5-6.4-2.1l-19-6.3-12.6 38 19 6.3c1.2 .4 2.7 .9 4.4 1.5c0 0 0 0 0 0s0 0 0 0c7.9 2.7 20.3 6.9 29.8 9.1l0 6.4 0 20.1 40.2 0 0-20.1 0-5.5c5.3-1 10.5-2.5 15.4-4.6c15.7-6.7 28.4-19.7 31.6-38.7c1.8-10.4 1-20.3-3-29.4c-3.9-9-10.2-15.6-16.9-20.5c-12.2-8.8-28.3-13.7-40.4-17.4l-.8-.2c-14.2-4.3-23.8-7.3-29.9-11.4c-2.6-1.8-3.4-3-3.6-3.5c-.2-.3-.7-1.6-.1-5c.3-1.9 1.9-5.2 8.2-8.1c6.4-2.9 16.4-4.5 28.6-2.6c4.3 .7 17.9 3.3 21.7 4.3l19.3 5.1 10.3-38.7-19.3-5.1c-4.4-1.2-14.4-3.2-21-4.4l0-6.3 0-20.1zM32 352l32 0c19.5 25.9 44 47.7 72.2 64L64 416l0 32 192 0 192 0 0-32-72.2 0c28.2-16.3 52.8-38.1 72.2-64l32 0 32 0 0 32 0 96 0 32-32 0L32 512 0 512l0-32 0-96 0-32 32 0z"/></svg>