<svg xmlns="http://www.w3.org/2000/svg" viewBox="0 0 512 512"><!--! Font Awesome Pro 6.6.0 by @fontawesome - https://fontawesome.com License - https://fontawesome.com/license (Commercial License) Copyright 2024 Fonticons, Inc. --><path d="M256 512A256 256 0 1 0 256 0a256 256 0 1 0 0 512zm0-336c-44.2 0-80 35.8-80 80s35.8 80 80 80c13.9 0 26.9-3.5 38.3-9.7L238.1 256l61.5 0 28.3 35.3c5.3-10.7 8.2-22.6 8.2-35.3c0-44.2-35.8-80-80-80zm0 208c-70.7 0-128-57.3-128-128s57.3-128 128-128s128 57.3 128 128c0 28.1-9 54-24.4 75.1L401.9 384l-61.5 0-15.9-19.9C304.7 376.7 281.2 384 256 384z"/></svg>