<svg xmlns="http://www.w3.org/2000/svg" viewBox="0 0 512 512"><!--! Font Awesome Pro 6.6.0 by @fontawesome - https://fontawesome.com License - https://fontawesome.com/license (Commercial License) Copyright 2024 Fonticons, Inc. --><path d="M256 512A256 256 0 1 0 256 0a256 256 0 1 0 0 512zM193.7 146.5c15.8-12 35.2-18.4 55.1-18.1l3.4 .1c46.5 .7 83.8 38.6 83.8 85.1c0 23.5-9.7 46-26.9 62.1L244.7 336l83.3 0 24 0 0 48-24 0-144 0-24 0 0-34.4 7.6-7.1L276.3 240.6c7.5-7 11.7-16.8 11.7-27.1c0-20.3-16.3-36.8-36.6-37.1l-3.4-.1c-9.1-.1-18 2.8-25.3 8.3L206.5 197l-19.1 14.5-29.1-38.2 19.1-14.5 16.2-12.3z"/></svg>