<svg xmlns="http://www.w3.org/2000/svg" viewBox="0 0 640 512"><!--! Font Awesome Pro 6.6.0 by @fontawesome - https://fontawesome.com License - https://fontawesome.com/license (Commercial License) Copyright 2024 Fonticons, Inc. --><path d="M506.5 203L480 229.5l-18.7-18.7L416 165.5 325.5 256l45.3 45.3 64 64 33.7 33.7C422.4 467.1 344.5 512 256 512C114.6 512 0 397.4 0 256S114.6 0 256 0C379.2 0 482.1 87 506.5 203zM280 152l0-24-48 0 0 24 0 112 0 24 48 0 0-24 0-112zM232 320l0 48 48 0 0-48-48 0zM617 209L489 337l-17 17-17-17-64-64-17-17L408 222.1l17 17 47 47L583 175l17-17L633.9 192l-17 17z"/></svg>