<svg xmlns="http://www.w3.org/2000/svg" viewBox="0 0 384 512"><!--! Font Awesome Pro 6.6.0 by @fontawesome - https://fontawesome.com License - https://fontawesome.com/license (Commercial License) Copyright 2024 Fonticons, Inc. --><path d="M192 0c-41.8 0-77.4 26.7-90.5 64L0 64 0 512l384 0 0-448L282.5 64C269.4 26.7 233.8 0 192 0zm0 64a32 32 0 1 1 0 64 32 32 0 1 1 0-64zM104 196l72 0c33.1 0 60 26.9 60 60c0 25.5-15.9 47.2-38.3 55.9l43 40.3 33.8-31 14.7-13.5 27 29.5-14.7 13.5L270 379.7l31.7 29.7 14.6 13.7-27.4 29.2-14.6-13.7-33.9-31.8-34.9 32-14.7 13.5-27-29.5 14.7-13.5 32.6-29.9-64.8-60.8-2.8-2.6L124 316l0 44 0 20-40 0 0-20 0-64 0-80 0-20 20 0zm55.1 79.7l.3 .3 16.6 0c11 0 20-9 20-20s-9-20-20-20l-52 0 0 40 34.8 0 .3-.3z"/></svg>