<svg xmlns="http://www.w3.org/2000/svg" viewBox="0 0 512 512"><!--! Font Awesome Pro 6.6.0 by @fontawesome - https://fontawesome.com License - https://fontawesome.com/license (Commercial License) Copyright 2024 Fonticons, Inc. --><path d="M67.2 83.2L0 16 0 192l176 0-63.5-63.5C147.7 88.9 198.9 64 256 64c106 0 192 86 192 192s-86 192-192 192c-40.8 0-78.6-12.7-109.7-34.4l-36.6 52.5C151.2 495 201.7 512 256 512c141.4 0 256-114.6 256-256S397.4 0 256 0C181.2 0 113.9 32.1 67.2 83.2zM280 128l-48 0 0 24 0 104 0 9.9 7 7 64 64 17 17L353.9 320l-17-17-57-57 0-94.1 0-24z"/></svg>