<svg xmlns="http://www.w3.org/2000/svg" viewBox="0 0 576 512"><!--! Font Awesome Pro 6.6.0 by @fontawesome - https://fontawesome.com License - https://fontawesome.com/license (Commercial License) Copyright 2024 Fonticons, Inc. --><path d="M288 4.2l8.5 3.2L424.5 56 440 61.9l0 16.6 0 126.1 120.5 45.7 15.5 5.9 0 16.6 0 154.1 0 15.7-14.3 6.3L433.7 505l-9.7 4.2-9.7-4.2L288 449.5 161.7 505l-9.7 4.2-9.7-4.2-128-56.3L0 442.4l0-15.7L0 272.6l0-16.6 15.5-5.9L136 204.5l0-126.1 0-16.6L151.5 56l128-48.5L288 4.2zm21.6 237.6L392 210.6l0-89.6-82.4 31.6 0 89.2zM288 55.6L217.3 82.4 288 109.5l70.7-27.1L288 55.6zM173.6 447.3L256 411.1l0-87.9-82.4 31.6 0 92.5zM152 249.8L70.8 280.6 152 311.7l81.2-31.1L152 249.8zM528 411.1l0-87.9-82.4 31.6 0 92.5L528 411.1zM505.2 280.6L424 249.8l-81.2 30.8L424 311.7l81.2-31.1z"/></svg>