<svg xmlns="http://www.w3.org/2000/svg" viewBox="0 0 512 512"><!--! Font Awesome Pro 6.6.0 by @fontawesome - https://fontawesome.com License - https://fontawesome.com/license (Commercial License) Copyright 2024 Fonticons, Inc. --><path d="M37.5 474.5c47.8 47.8 123.9 49.9 174.2 6.4L232 501.3 277.3 456l-20.1-20.1L435.9 257.1 456 277.3 501.3 232l-20.4-20.4c43.5-50.3 41.4-126.4-6.4-174.2c-50-50-131-50-181 0L172.1 158.9 152 138.7 106.7 184l20.1 20.1L37.5 293.5c-50 50-50 131 0 181zM168 280l0 48-48 0 0-48 48 0zm112-32l48 0 0 48-48 0 0-48zM424 88l0 48-48 0 0-48 48 0z"/></svg>