<svg xmlns="http://www.w3.org/2000/svg" viewBox="0 0 576 512"><!--! Font Awesome Pro 6.6.0 by @fontawesome - https://fontawesome.com License - https://fontawesome.com/license (Commercial License) Copyright 2024 Fonticons, Inc. --><path d="M320 0l0 64-64 0 0-64 64 0zM128 64l0 64-64 0 0-64 64 0zm384 0l0 64-64 0 0-64 64 0zm0 192l64 0 0 64-64 0 0-64zm0 192l0 64-64 0 0-64 64 0zM64 448l64 0 0 64-64 0 0-64zM0 256l64 0 0 64L0 320l0-64zM400.9 401c-56.7 56.7-145.4 62-208 15.7L304.7 304.9l17-17-33.9-33.9-17 17L158.9 382.8c-46.2-62.6-41-151.3 15.7-208c62.5-62.5 163.8-62.5 226.3 0s62.5 163.8 0 226.3z"/></svg>