<svg xmlns="http://www.w3.org/2000/svg" viewBox="0 0 640 512"><!--! Font Awesome Pro 6.6.0 by @fontawesome - https://fontawesome.com License - https://fontawesome.com/license (Commercial License) Copyright 2024 Fonticons, Inc. --><path d="M0 224L224 0 448 224 224 448 0 224zm248 0a24 24 0 1 0 -48 0 24 24 0 1 0 48 0zM96 248a24 24 0 1 0 0-48 24 24 0 1 0 0 48zm128 80a24 24 0 1 0 0 48 24 24 0 1 0 0-48zm128-80a24 24 0 1 0 0-48 24 24 0 1 0 0 48zM224 72a24 24 0 1 0 0 48 24 24 0 1 0 0-48zm96 325.3L470.6 246.6 493.3 224l-22.6-22.6-9.4-9.4L640 192l0 320-320 0 0-114.7zM504 352a24 24 0 1 0 -48 0 24 24 0 1 0 48 0z"/></svg>