<svg xmlns="http://www.w3.org/2000/svg" viewBox="0 0 576 512"><!--! Font Awesome Pro 6.6.0 by @fontawesome - https://fontawesome.com License - https://fontawesome.com/license (Commercial License) Copyright 2024 Fonticons, Inc. --><path d="M309.6 158.5L336 0l32 0 24 32 72 0 32 32 80 0 0 48c0 44.2-35.8 80-80 80l-32 0-16 0-21.3 0-5.1 30.5-112-64zM416 256.1L416 512l-96 0 0-147.2c-24 12.3-51.2 19.2-80 19.2s-56-6.9-80-19.2L160 512l-96 0 0-264.9c-29.1-13.6-50.5-41.4-54.8-75.1l-1-7.9-4-31.8 63.5-7.9 4 31.8 1 7.9c2 16 15.6 28 31.8 28l39.5 0 16 0 16 0 127.8 0L416 256.1zM464 80a16 16 0 1 0 -32 0 16 16 0 1 0 32 0z"/></svg>