<svg xmlns="http://www.w3.org/2000/svg" viewBox="0 0 512 512"><!--! Font Awesome Pro 6.6.0 by @fontawesome - https://fontawesome.com License - https://fontawesome.com/license (Commercial License) Copyright 2024 Fonticons, Inc. --><path d="M210.3 138.7c-18-11-34.6-24.4-48.4-40.9c22.8-50.1 59.9-82 75-95c1.2-1.1 2.3-2 3.2-2.8c-3.6 55.7 17.7 103.1 48 140.7l0 29.6c-24-5.8-51.9-15.8-77.7-31.6zM320 174.5l0-30.5c0-44.2 35.8-80 80-80l112 0-32 56 0 168c0 88.4-71.6 160-160 160l-83.2 0L160 512 80 496 0 432l153.8-51.3C117.2 360.4 32 296.6 32 176C32 111.5 69.6 65.1 87.9 42.4c3.5-4.4 6.3-7.8 8.1-10.4c25.6 128 160 170.7 224 176l0-32.1s0 0 0 0l0-1.4s0 0 0 0zM400 160a16 16 0 1 0 0-32 16 16 0 1 0 0 32z"/></svg>