<svg xmlns="http://www.w3.org/2000/svg" viewBox="0 0 512 512"><!--! Font Awesome Pro 6.6.0 by @fontawesome - https://fontawesome.com License - https://fontawesome.com/license (Commercial License) Copyright 2024 Fonticons, Inc. --><path d="M160 176l0 102.5-58.4 58.3C90.9 326.4 76.2 320 60 320c-33.1 0-60 26.9-60 60s26.9 60 60 60l12 0 0 12c0 33.1 26.9 60 60 60s60-26.9 60-60c0-16.2-6.4-30.9-16.8-41.7L233.5 352 336 352c34.3 0 66.3-9.8 93.4-26.8C420.9 309.4 416 291.3 416 272c0-56.2 41.4-102.8 95.4-110.8C503.9 70.9 428.2 0 336 0C238.8 0 160 78.8 160 176z"/></svg>