<svg xmlns="http://www.w3.org/2000/svg" viewBox="0 0 640 512"><!--! Font Awesome Pro 6.6.0 by @fontawesome - https://fontawesome.com License - https://fontawesome.com/license (Commercial License) Copyright 2024 Fonticons, Inc. --><path d="M400 112l24 0 0-48-24 0L208 64l-24 0 0 48 24 0 72 0 0 16 0 16-72 0-48 0-64 0 0 88-48 0 0-72 0-24L0 136l0 24L0 352l0 24 48 0 0-24 0-72 48 0 0 104 76.8 0L224 448l288 0 0-240-80-64-104 0 0-16 0-16 72 0zM224 224l0 64-64 0 0-64 64 0zm96 0l0 64-64 0 0-64 64 0zm32 0l64 0 0 64-64 0 0-64zm288-32l-96 0 0 256 96 0 0-256z"/></svg>