<svg xmlns="http://www.w3.org/2000/svg" viewBox="0 0 640 512"><!--! Font Awesome Pro 6.6.0 by @fontawesome - https://fontawesome.com License - https://fontawesome.com/license (Commercial License) Copyright 2024 Fonticons, Inc. --><path d="M48.4 14.8L29.4 .1 0 38 19 52.7 591.5 497.2l19 14.7L639.9 474l-19-14.7L524 384.1c41.9-44 70.2-93.9 84-128.1C578 181.3 478.4 32 320 32c-66.9 0-123.2 26.6-168.3 63L48.4 14.8zM222.5 150c51.7-47.6 131.8-51.4 188-5.9c54.7 44.3 68.5 120.3 36.3 180.1l-38.7-30.1c5.1-11.7 7.9-24.6 7.9-38.1c0-53-43-96-96-96c-6.4 0-12.7 .6-18.8 1.8l11.6 58.2L222.5 150zM444.9 446.6L85.7 163.5c-10.9 14.3-20.4 28.6-28.5 42.2L393.1 469c18.3-5.7 35.6-13.3 51.8-22.4zM329.2 479.8L34.9 249.2c-1 2.3-2 4.6-2.9 6.8c30 74.7 129.6 224 288 224c3.1 0 6.1-.1 9.2-.2z"/></svg>