<svg xmlns="http://www.w3.org/2000/svg" viewBox="0 0 640 512"><!--! Font Awesome Pro 6.6.0 by @fontawesome - https://fontawesome.com License - https://fontawesome.com/license (Commercial License) Copyright 2024 Fonticons, Inc. --><path d="M571.4 304.8c-4.5 23.1 11.8 47.2 35.3 47.2c0 0 0 0 0 0l1.3 0 32 0 0 32 0 32-32 0c0 0 0 0 0 0l-48 0c-8.8 0-16 7.2-16 16s7.1 16 16 16c0 0 0 0 0 0l16 0 32 0 0 32 0 32-32 0-256 0L32 512 0 512l0-32 0-32 32 0 12.9 0c0 0 0 0 0 0c36.8 0 58.4-50.7 42.8-84.1C72.5 331.1 64 294.5 64 256C64 114.6 178.6 0 320 0S576 114.6 576 256c0 16.7-1.6 33-4.6 48.8zM247.2 219.9a32 32 0 1 0 16.6-61.8 32 32 0 1 0 -16.6 61.8zM441 238.7a32 32 0 1 0 -61.8-16.6A32 32 0 1 0 441 238.7zM213.2 299.4l-7-14.4-28.8 14 7 14.4c14.8 30.5 45.1 67.5 98.3 81.7s97.9-2.6 126-21.7l13.3-9L404 338l-13.3 9c-22.7 15.4-57.9 28.5-99.8 17.2s-65.8-40.2-77.8-64.8z"/></svg>