<svg xmlns="http://www.w3.org/2000/svg" viewBox="0 0 512 512"><!--! Font Awesome Pro 6.6.0 by @fontawesome - https://fontawesome.com License - https://fontawesome.com/license (Commercial License) Copyright 2024 Fonticons, Inc. --><path d="M256 0a256 256 0 1 0 0 512A256 256 0 1 0 256 0zM382.3 184.8l-28.6 14.3C344.9 181.7 312.4 144 256 144s-88.9 37.7-97.7 55.2l-28.6-14.3C142.3 159.7 184.4 112 256 112s113.7 47.7 126.3 72.8zM367.6 304a32 32 0 1 1 -64 0 32 32 0 1 1 64 0zm-192 32a32 32 0 1 1 0-64 32 32 0 1 1 0 64z"/></svg>