<svg xmlns="http://www.w3.org/2000/svg" viewBox="0 0 512 512"><!--! Font Awesome Pro 6.6.0 by @fontawesome - https://fontawesome.com License - https://fontawesome.com/license (Commercial License) Copyright 2024 Fonticons, Inc. --><path d="M512 256c0 113.1-73.3 209.1-175.1 242.9l52.3-52.3L411.9 424l-22.6-22.6-9.4-9.4 9.4-9.4L411.9 360l-22.6-22.6-9.4-9.4 16-16-22.6-22.6-22.6-22.6L328 244.1l-16 16-9.4-9.4L280 228.1l-22.6 22.6-51.7 51.7-21.7 0-40 0-32 0 0 32 0 82.4c0 21.9 5.5 42.5 15.3 60.5C51.2 433 0 350.5 0 256C0 114.6 114.6 0 256 0S512 114.6 512 256zM176 120c-28 0-56 40-56 80c0 0 28-32 56-32s56 32 56 32c0-40-28-80-56-80zm104 80s28-32 56-32s56 32 56 32c0-40-28-80-56-80s-56 40-56 80zm22.6 96l-11.3 11.3-56 56 9.4 9.4 72-72L328 289.4 350.6 312l-11.3 11.3-72 72 9.4 9.4 56-56L344 337.4 366.6 360l-11.3 11.3-56 56 9.4 9.4 24-24L344 401.4 366.6 424l-11.3 11.3-48.8 48.8C288.7 502 264.4 512 239.2 512c-52.6 0-95.2-42.6-95.2-95.2l0-12.8 0-20 0-29.6 0-20 40 0 0 20 0 15 84.7-84.7L280 273.4 302.6 296z"/></svg>