<svg xmlns="http://www.w3.org/2000/svg" viewBox="0 0 512 512"><!--! Font Awesome Pro 6.6.0 by @fontawesome - https://fontawesome.com License - https://fontawesome.com/license (Commercial License) Copyright 2024 Fonticons, Inc. --><path d="M0 256a256 256 0 1 1 512 0A256 256 0 1 1 0 256zM112 121.4L89.4 144l11.3 11.3L137.4 192l-36.7 36.7L89.4 240 112 262.6l11.3-11.3L160 214.6l36.7 36.7L208 262.6 230.6 240l-11.3-11.3L182.6 192l36.7-36.7L230.6 144 208 121.4l-11.3 11.3L160 169.4l-36.7-36.7L112 121.4zm192 0L281.4 144l11.3 11.3L329.4 192l-36.7 36.7L281.4 240 304 262.6l11.3-11.3L352 214.6l36.7 36.7L400 262.6 422.6 240l-11.3-11.3L374.6 192l36.7-36.7L422.6 144 400 121.4l-11.3 11.3L352 169.4l-36.7-36.7L304 121.4zM256 304c-44.2 0-80 35.8-80 80l0 16 160 0 0-16c0-44.2-35.8-80-80-80z"/></svg>