<svg xmlns="http://www.w3.org/2000/svg" viewBox="0 0 512 512"><!--! Font Awesome Pro 6.6.0 by @fontawesome - https://fontawesome.com License - https://fontawesome.com/license (Commercial License) Copyright 2024 Fonticons, Inc. --><path d="M256 512A256 256 0 1 0 256 0a256 256 0 1 0 0 512zM164.7 379.3l22.6-22.6c13 13 35.8 27.3 68.7 27.3s55.6-14.3 68.7-27.3l22.6 22.6C329.4 397.2 298.9 416 256 416s-73.4-18.8-91.3-36.7zM197.1 95.2l-6.3 2.1c-23.6 7.9-44 23.4-57.8 44.1l-7.6 11.5L98.7 135.1l7.6-11.5c17.8-26.6 43.9-46.6 74.3-56.7l6.3-2.1 10.1 30.4zm124.2 2.1l-6.3-2.1 10.1-30.4 6.3 2.1c30.4 10.1 56.5 30.1 74.3 56.7l7.6 11.5-26.6 17.8L379 141.4c-13.8-20.7-34.1-36.3-57.8-44.1zm73.9 137.1l25.6 19.2c-34.4 45.9-103.2 45.9-137.6 0l25.6-19.2c21.6 28.8 64.8 28.8 86.4 0zm-278.4 0c21.6 28.8 64.8 28.8 86.4 0l25.6 19.2c-34.4 45.9-103.2 45.9-137.6 0l25.6-19.2z"/></svg>