<svg xmlns="http://www.w3.org/2000/svg" viewBox="0 0 512 512"><!--! Font Awesome Pro 6.6.0 by @fontawesome - https://fontawesome.com License - https://fontawesome.com/license (Commercial License) Copyright 2024 Fonticons, Inc. --><path d="M0 256a256 256 0 1 0 512 0A256 256 0 1 0 0 256zm240 64l16 0c45 0 85.6 20.5 115.7 53.1l10.9 11.7-23.5 21.7-10.9-11.8c-25-27.1-57.4-42.9-92.3-42.9l-16 0 0-32zm-80-32l38.4 51.2c6.2 8.3 9.6 18.4 9.6 28.8c0 26.5-21.5 48-48 48s-48-21.5-48-48c0-10.4 3.4-20.5 9.6-28.8L160 288zm207.6-80a32 32 0 1 1 -64 0 32 32 0 1 1 64 0zm-192-32a32 32 0 1 1 0 64 32 32 0 1 1 0-64z"/></svg>