<svg xmlns="http://www.w3.org/2000/svg" viewBox="0 0 512 512"><!--! Font Awesome Pro 6.6.0 by @fontawesome - https://fontawesome.com License - https://fontawesome.com/license (Commercial License) Copyright 2024 Fonticons, Inc. --><path d="M336.9 498.9C438.7 465.1 512 369.1 512 256C512 114.6 397.4 0 256 0S0 114.6 0 256c0 94.5 51.2 177 127.3 221.4c-9.8-18-15.3-38.6-15.3-60.5l0-82.4 0-32 32 0 17.6 0C169.9 257.8 209 224 256 224c25.5 0 48.7 10 65.9 26.2l6.1-6.1 22.6 22.6 22.6 22.6L395.9 312l-16 16 9.4 9.4L411.9 360l-22.6 22.6-9.4 9.4 9.4 9.4L411.9 424l-22.6 22.6-52.3 52.3zM214.5 114.5l-12.5 10-80 64-12.5 10-20-25 12.5-10 80-64 12.5-10 20 25zm95.5 10l-12.5-10 20-25 12.5 10 80 64 12.5 10-20 25-12.5-10-80-64zM302.6 296L280 273.4l-11.3 11.3L184 369.4l0-15 0-20-40 0 0 20 0 29.6 0 20 0 12.8c0 52.6 42.6 95.2 95.2 95.2c25.2 0 49.5-10 67.3-27.9l48.8-48.8L366.6 424 344 401.4l-11.3 11.3-24 24-9.4-9.4 56-56L366.6 360 344 337.4l-11.3 11.3-56 56-9.4-9.4 72-72L350.6 312 328 289.4l-11.3 11.3-72 72-9.4-9.4 56-56L302.6 296z"/></svg>