<svg xmlns="http://www.w3.org/2000/svg" viewBox="0 0 512 512"><!--! Font Awesome Pro 6.6.0 by @fontawesome - https://fontawesome.com License - https://fontawesome.com/license (Commercial License) Copyright 2024 Fonticons, Inc. --><path d="M256 512A256 256 0 1 0 256 0a256 256 0 1 0 0 512zM411.3 347.3L372 386.6c-13.7 13.7-32.3 21.4-51.7 21.4c-13.7 0-27.1-3.8-38.7-11.1L267.4 388c-18.2-11.4-40.8-13.4-60.7-5.4c-30.4 12.2-64.8 8.6-92-9.6l-11.5-7.7-13.3-8.9 17.8-26.6 13.3 8.9 11.5 7.7c18.5 12.3 41.8 14.7 62.4 6.5c29.4-11.8 62.7-8.8 89.6 8l14.2 8.9c6.5 4.1 14.1 6.2 21.8 6.2c10.9 0 21.3-4.3 29-12l39.3-39.3L400 313.4 422.6 336l-11.3 11.3zM214.2 107.6l-8.9 13.3c-28 42-69.6 64.1-88.3 70.3l-15.2 5.1L91.8 165.9l15.2-5.1c13.4-4.5 48.5-22.9 71.7-57.7l8.9-13.3 26.6 17.8zm5.5 97l7.8 31-15.5 3.9-64 16-15.5 3.9-7.8-31 15.5-3.9 64-16 15.5-3.9zM336 272c-17.7 0-32-28.7-32-64s14.3-64 32-64s32 28.7 32 64s-14.3 64-32 64z"/></svg>