<svg xmlns="http://www.w3.org/2000/svg" viewBox="0 0 512 512"><!--! Font Awesome Pro 6.6.0 by @fontawesome - https://fontawesome.com License - https://fontawesome.com/license (Commercial License) Copyright 2024 Fonticons, Inc. --><path d="M256 512A256 256 0 1 0 256 0a256 256 0 1 0 0 512zm.3-180.2c59.1 0 114.1-10.6 160.2-29C400.3 376.7 334.7 432 256.3 432s-144-55.3-160.2-129.2c46.2 18.3 101.2 29 160.2 29zm-57-202.6c17.8 4.8 28.4 23.1 23.6 40.8l-21.6 80.5-80.6-21.6c-17.8-4.8-28.4-23.1-23.6-40.8s23.1-28.4 40.8-23.6l16.1 4.3 4.3-16.1c4.8-17.8 23.1-28.4 40.8-23.6zm154.3 23.6l4.3 16.1 16.1-4.3c17.8-4.8 36.1 5.8 40.8 23.6s-5.8 36.1-23.6 40.8l-80.6 21.6L289.1 170c-4.8-17.8 5.8-36.1 23.6-40.8s36.1 5.8 40.9 23.6z"/></svg>