<svg xmlns="http://www.w3.org/2000/svg" viewBox="0 0 512 512"><!--! Font Awesome Pro 6.6.0 by @fontawesome - https://fontawesome.com License - https://fontawesome.com/license (Commercial License) Copyright 2024 Fonticons, Inc. --><path d="M192 0l64 32L320 0l55.4 110.8c36.5-11.1 68.9-27.1 95.3-46.8L488 81.3C460.8 163.5 367.2 224 256 224S51.2 163.5 24 81.3L41.3 64c26.4 19.7 58.8 35.7 95.3 46.8L192 0zM48 304c0-37.9 10.1-73.4 27.8-104c48.8 35.3 112.5 56 180.2 56s131.4-20.6 180.2-56c17.7 30.6 27.8 66.1 27.8 104c0 114.9-93.1 208-208 208S48 418.9 48 304zm208.2 72.8c-44.3 0-85.6-8-120.2-21.7c12.2 55.4 61.4 96.9 120.2 96.9s108-41.5 120.2-96.9c-34.6 13.8-75.9 21.7-120.2 21.7zM216 304a24 24 0 1 0 -48 0 24 24 0 1 0 48 0zm104 24a24 24 0 1 0 0-48 24 24 0 1 0 0 48z"/></svg>