<svg xmlns="http://www.w3.org/2000/svg" viewBox="0 0 512 512"><!--! Font Awesome Pro 6.6.0 by @fontawesome - https://fontawesome.com License - https://fontawesome.com/license (Commercial License) Copyright 2024 Fonticons, Inc. --><path d="M256 512A256 256 0 1 0 256 0a256 256 0 1 0 0 512zM400 400l-56 0 0-40 56 0 0 40zm0-56l-56 0 0-40 56 0 0 40zm-72 0l-64 0 0-40 64 0 0 40zm0 56l-64 0 0-40 64 0 0 40zm-80-96l0 40-64 0 0-40 64 0zm0 56l0 40-64 0 0-40 64 0zm-80-16l-56 0 0-40 56 0 0 40zm0 56l-56 0 0-40 56 0 0 40zM144.4 208a32 32 0 1 1 64 0 32 32 0 1 1 -64 0zm192-32a32 32 0 1 1 0 64 32 32 0 1 1 0-64z"/></svg>