<svg xmlns="http://www.w3.org/2000/svg" viewBox="0 0 512 512"><!--! Font Awesome Pro 6.6.0 by @fontawesome - https://fontawesome.com License - https://fontawesome.com/license (Commercial License) Copyright 2024 Fonticons, Inc. --><path d="M0 256a256 256 0 1 1 512 0A256 256 0 1 1 0 256zm416.5 46.8c-46.2 18.3-101.2 29-160.2 29s-114.1-10.6-160.2-29C112.3 376.7 177.9 432 256.3 432s144-55.3 160.2-129.2zM160 109.4l-7.2 15.1-16.6 34.7-38.1 5-16.6 2.2L93.6 178l27.9 26.5-7 37.8-3.1 16.5 14.7-8L160 232.5l33.8 18.3 14.7 8-3.1-16.5-7-37.8L226.4 178l12.2-11.5-16.6-2.2-38.1-5-16.6-34.7L160 109.4zm192 0l-7.2 15.1-16.6 34.7-38.1 5-16.6 2.2L285.6 178l27.9 26.5-7 37.8-3.1 16.5 14.7-8L352 232.5l33.8 18.3 14.7 8-3.1-16.5-7-37.8L418.4 178l12.2-11.5-16.6-2.2-38.1-5-16.6-34.7L352 109.4z"/></svg>