<svg xmlns="http://www.w3.org/2000/svg" viewBox="0 0 512 512"><!--! Font Awesome Pro 6.6.0 by @fontawesome - https://fontawesome.com License - https://fontawesome.com/license (Commercial License) Copyright 2024 Fonticons, Inc. --><path d="M48 0L86.4 51.2c2 2.7 3.7 5.6 5.1 8.6C94.5 66.1 96 73 96 80c0 9.9-3 19.2-8.2 26.8C79.2 119.6 64.6 128 48 128c-4.4 0-8.7-.6-12.8-1.7c0 0 0 0 0 0C14.9 120.7 0 102.1 0 80C0 69.6 3.4 59.5 9.6 51.2L48 0zm80 80c0-13.9-3.6-27.4-10.4-39.4C157.5 14.9 205 0 256 0C397.4 0 512 114.6 512 256s-114.6 256-256 256S0 397.4 0 256c0-35.8 7.3-69.9 20.6-100.8c8.5 3.1 17.8 4.8 27.4 4.8c44.2 0 80-35.8 80-80zM316.1 410.7l10.7 11.9 23.8-21.4-10.7-11.9C323.8 371.4 295.7 352 256 352s-67.8 19.4-83.9 37.3l-10.7 11.9 23.8 21.4 10.7-11.9c11.7-13 31.6-26.7 60.1-26.7s48.4 13.7 60.1 26.7zM96 256l0 32 16 0 96 0 16 0 0-32-16 0-96 0-16 0zm208 0l-16 0 0 32 16 0 96 0 16 0 0-32-16 0-96 0z"/></svg>