<svg xmlns="http://www.w3.org/2000/svg" viewBox="0 0 512 512"><!--! Font Awesome Pro 6.6.0 by @fontawesome - https://fontawesome.com License - https://fontawesome.com/license (Commercial License) Copyright 2024 Fonticons, Inc. --><path d="M128 0l0 32 0 128 64 0 0-96 194.7 0L416 93.3l0 66.7 64 0 0-80 0-13.3-9.4-9.4-48-48L413.3 0 400 0 160 0 128 0zM0 128L0 512l96 0 0-384L0 128zm512 64l-384 0 0 320 384 0 0-320zM288 256l0 64-64 0 0-64 64 0zM224 384l64 0 0 64-64 0 0-64zM416 256l0 64-64 0 0-64 64 0zM352 384l64 0 0 64-64 0 0-64z"/></svg>