<svg xmlns="http://www.w3.org/2000/svg" viewBox="0 0 576 512"><!--! Font Awesome Pro 6.6.0 by @fontawesome - https://fontawesome.com License - https://fontawesome.com/license (Commercial License) Copyright 2024 Fonticons, Inc. --><path d="M0 0L224 0l0 160 160 0 0 38.6C310.1 219.5 256 287.4 256 368c0 59.5 29.6 112.1 74.8 144L0 512 0 0zM384 128l-128 0L256 0 384 128zm48 96a144 144 0 1 1 0 288 144 144 0 1 1 0-288zm-22.4 56c-23 0-41.6 18.6-41.6 41.6l0 6.4 32 0 0-6.4c0-5.3 4.3-9.6 9.6-9.6l40.5 0c7.7 0 13.9 6.2 13.9 13.9c0 5.2-2.9 9.9-7.4 12.3l-32 16.8-8.6 4.5 0 9.7 0 6.8 0 16 32 0 0-13.1 23.5-12.3c15.1-7.9 24.5-23.6 24.5-40.6c0-25.4-20.6-45.9-45.9-45.9l-40.5 0zM448 416l-32 0 0 32 32 0 0-32z"/></svg>