<svg xmlns="http://www.w3.org/2000/svg" viewBox="0 0 384 512"><!--! Font Awesome Pro 6.6.0 by @fontawesome - https://fontawesome.com License - https://fontawesome.com/license (Commercial License) Copyright 2024 Fonticons, Inc. --><path d="M224 0L0 0 0 512l384 0 0-352-160 0L224 0zm32 0l0 128 128 0L256 0zM72 224l240 0 16 0 0 16 0 32 0 80 0 80 0 16-16 0-80 0-80 0-80 0-16 0 0-16 0-80 0-80 0-32 0-16 16 0zM88 336l48 0 0-48-48 0 0 48zm80 0l48 0 0-48-48 0 0 48zm80 0l48 0 0-48-48 0 0 48zm0 32l0 48 48 0 0-48-48 0zm-32 0l-48 0 0 48 48 0 0-48zm-80 0l-48 0 0 48 48 0 0-48z"/></svg>