<svg xmlns="http://www.w3.org/2000/svg" viewBox="0 0 512 512"><!--! Font Awesome Pro 6.6.0 by @fontawesome - https://fontawesome.com License - https://fontawesome.com/license (Commercial License) Copyright 2024 Fonticons, Inc. --><path d="M0 0L224 0l0 160 160 0 0 144-272 0 0 208L0 512 0 0zM384 128l-128 0L256 0 384 128zm32 224l0 16 0 128 0 16-32 0 0-16 0-74.2-17.9 33.7-13.9 26.2-14.3-26L320 423l0 73 0 16-32 0 0-16 0-128 0-16 16 0 4 0 9.5 0 4.6 8.3 29.7 54 28.5-53.8 4.5-8.5 9.6 0 5.6 0 16 0zm-224 0l0 16c0 7.3 2.2 14.4 6.2 20.4l9.8 14.7 9.8-14.7c4-6.1 6.2-13.2 6.2-20.4l0-16 32 0 0 16c0 13.6-4 26.9-11.6 38.2L227.2 432l17.2 25.8C252 469.1 256 482.4 256 496l0 16-32 0 0-16c0-7.3-2.2-14.4-6.2-20.4L208 460.8l-9.8 14.7c-4 6.1-6.2 13.2-6.2 20.4l0 16-32 0 0-16c0-13.6 4-26.9 11.6-38.2L188.8 432l-17.2-25.8C164 394.9 160 381.6 160 368l0-16 32 0zM448 512l0-16 0-128 0-16 32 0 0 16 0 112 16 0 16 0 0 32-16 0-32 0-16 0z"/></svg>