<svg xmlns="http://www.w3.org/2000/svg" viewBox="0 0 512 512"><!--! Font Awesome Pro 6.6.0 by @fontawesome - https://fontawesome.com License - https://fontawesome.com/license (Commercial License) Copyright 2024 Fonticons, Inc. --><path d="M0 0L224 0l0 160 160 0 0 144-272 0 0 208L0 512 0 0zM384 128l-128 0L256 0 384 128zM288 352l16 0 32 0c30.9 0 56 25.1 56 56s-25.1 56-56 56l-16 0 0 32 0 16-32 0 0-16 0-48 0-80 0-16zm32 80l16 0c13.3 0 24-10.7 24-24s-10.7-24-24-24l-16 0 0 48zM160 352l16 0 32 0c30.9 0 56 25.1 56 56s-25.1 56-56 56l-16 0 0 32 0 16-32 0 0-16 0-48 0-80 0-16zm32 80l16 0c13.3 0 24-10.7 24-24s-10.7-24-24-24l-16 0 0 48zm224-80l16 0 32 0 32 0 16 0 0 32-16 0-16 0 0 112 0 16-32 0 0-16 0-112-16 0-16 0 0-32z"/></svg>