<svg xmlns="http://www.w3.org/2000/svg" viewBox="0 0 576 512"><!--! Font Awesome Pro 6.6.0 by @fontawesome - https://fontawesome.com License - https://fontawesome.com/license (Commercial License) Copyright 2024 Fonticons, Inc. --><path d="M0 0L224 0l0 160 160 0 0 38.6C310.1 219.5 256 287.4 256 368c0 59.5 29.6 112.1 74.8 144L0 512 0 0zM384 128l-128 0L256 0 384 128zm48 96a144 144 0 1 1 0 288 144 144 0 1 1 0-288zm15.3 64l-32 0 0 32 32 0 0-32zm1.2 64l-16 0L416 352l-16 0 0 32 16 0 .5 0 0 48-.5 0-16 0 0 32 16 0 32 0 .5 0 15.5 0 0-32-15.5 0 0-64 0-16z"/></svg>