<svg xmlns="http://www.w3.org/2000/svg" viewBox="0 0 640 512"><!--! Font Awesome Pro 6.6.0 by @fontawesome - https://fontawesome.com License - https://fontawesome.com/license (Commercial License) Copyright 2024 Fonticons, Inc. --><path d="M288 .2s-128 103.6-128 192c0 30.2 8.3 58.4 22.9 82.5c4.5 2.6 8.9 5.3 13.1 8.4c13.7-16.8 30.7-30.8 50.1-40.9c-3.9-9.4-6-20.2-6-32.1c0-24 15-45 45-82c4 5 62 79 62 79l36-42c3 4 5 8 7 12c11.3 20.7 12.3 44.9 4.2 65.2c19.3 10.1 36.2 24 49.9 40.8c4.2-3 8.6-5.8 13.1-8.4c14.5-24.1 22.9-52.3 22.9-82.5c0-73.6-96-160-96-160s-13.9 12.5-31 32c-32.3-37.5-65-64-65-64zM0 512l112 0 208 0 208 0 112 0 0-112c0-61.9-50.1-112-112-112c-37 0-69.9 18-90.3 45.7C418.2 288 372.8 256 320 256s-98.2 32-117.7 77.7C181.9 306 149 288 112 288C50.1 288 0 338.1 0 400L0 512z"/></svg>