<svg xmlns="http://www.w3.org/2000/svg" viewBox="0 0 640 512"><!--! Font Awesome Pro 6.6.0 by @fontawesome - https://fontawesome.com License - https://fontawesome.com/license (Commercial License) Copyright 2024 Fonticons, Inc. --><path d="M288 0l64 64 32-32c76.8 64 96 133.3 96 160c0 88.4-71.6 160-160 160s-160-71.6-160-160c0-89.6 85.3-165.3 128-192zm96 240.2c0-48-64-96-64-96s-64 48-64 96c0 35.3 28.7 64 64 64s64-28.7 64-64zM32 256l32 0 32 0 32 0 0 64-32 0 0 64 448 0 0-64-32 0 0-64 32 0 32 0 32 0 0 32 0 96 32 0 0 128L0 512 0 384l32 0 0-96 0-32zM320 480a32 32 0 1 0 0-64 32 32 0 1 0 0 64zm160-32a32 32 0 1 0 -64 0 32 32 0 1 0 64 0zM192 480a32 32 0 1 0 0-64 32 32 0 1 0 0 64z"/></svg>