<svg xmlns="http://www.w3.org/2000/svg" viewBox="0 0 448 512"><!--! Font Awesome Pro 6.6.0 by @fontawesome - https://fontawesome.com License - https://fontawesome.com/license (Commercial License) Copyright 2024 Fonticons, Inc. --><path d="M64 0l0 32 0 16 69-17.2c38.1-9.5 78.3-5.1 113.5 12.5c46.3 23.2 100.8 23.2 147.1 0L448 16l0 86.2-44.7 16.2c-42.8 15.6-90 13.9-131.6-4.6l-16.1-7.2c-20.3-9-41.8-14.7-63.6-16.9l0 32.2c17.4 2.1 34.4 6.7 50.6 13.9l16.1 7.2c49.2 21.9 105 23.8 155.6 5.4L448 136.3l0 62-44.7 16.2c-42.8 15.6-90 13.9-131.6-4.6l-16.1-7.2c-40.2-17.9-85-22.5-128.1-13.3L64 203.1l0 32.7 70.2-15.1c36.4-7.8 74.3-3.9 108.4 11.3l16.1 7.2c49.2 21.9 105 23.8 155.6 5.4L448 232.3l0 62-44.7 16.2c-42.8 15.6-90 13.9-131.6-4.6l-16.1-7.2c-40.2-17.9-85-22.5-128.1-13.3L64 299.1l0 32.7 70.2-15.1c36.4-7.8 74.3-3.9 108.4 11.3l16.1 7.2c49.2 21.9 105 23.8 155.6 5.4L448 328.3l0 55.7-55.5 20.8c-46.2 17.3-97.6 14.6-141.7-7.4c-37.9-19-81.3-23.7-122.5-13.4L64 400l0 80 0 32L0 512l0-32 0-64 0-70.5 0-32.7 0-63.3 0-32.7 0-63.3 0-32.7L0 64 0 32 0 0 64 0zm48 96A16 16 0 1 0 80 96a16 16 0 1 0 32 0zm32 0a16 16 0 1 0 0-32 16 16 0 1 0 0 32zm-32 48a16 16 0 1 0 -32 0 16 16 0 1 0 32 0zm32 0a16 16 0 1 0 0-32 16 16 0 1 0 0 32z"/></svg>