<svg xmlns="http://www.w3.org/2000/svg" viewBox="0 0 576 512"><!--! Font Awesome Pro 6.6.0 by @fontawesome - https://fontawesome.com License - https://fontawesome.com/license (Commercial License) Copyright 2024 Fonticons, Inc. --><path d="M0 32l32 0 288 0 13.3 0 9.4 9.4 96 96 9.4 9.4 0 13.3 0 76.4-181 181L258 480 32 480 0 480l0-32L0 64 0 32zM320 96L64 96l0 128 256 0 0-128zM288 352a64 64 0 1 0 -128 0 64 64 0 1 0 128 0zM505 224l71 71-41.3 41.3-71-71L505 224zm-63.9 63.9l71 71L370.9 500.1 288 512l11.9-82.9L441.1 287.9z"/></svg>