<svg xmlns="http://www.w3.org/2000/svg" viewBox="0 0 640 512"><!--! Font Awesome Pro 6.6.0 by @fontawesome - https://fontawesome.com License - https://fontawesome.com/license (Commercial License) Copyright 2024 Fonticons, Inc. --><path d="M0 128L0 512l96 0 0-320 448 0 0 320 96 0 0-384L320 0 0 128zM176.7 320l-15.1 39.4-1.6 4.2 0 4.5 0 24 0 24 0 64 0 32 64 0 0-32 0-16 192 0 0 16 0 32 64 0 0-32 0-64 0-24 0-25.8 0-4.5-1.7-4.2L463.7 320l-51.5 0 6.3 16L222 336l6.2-16-51.4 0zM240 376a24 24 0 1 1 0 48 24 24 0 1 1 0-48zm136 24a24 24 0 1 1 48 0 24 24 0 1 1 -48 0zM512 224l-384 0 0 64 384 0 0-64z"/></svg>