<svg xmlns="http://www.w3.org/2000/svg" viewBox="0 0 448 512"><!--! Font Awesome Pro 6.6.0 by @fontawesome - https://fontawesome.com License - https://fontawesome.com/license (Commercial License) Copyright 2024 Fonticons, Inc. --><path d="M32 32L0 32 0 64 0 256 0 448l0 32 32 0 96 0 96 0 96 0 96 0 32 0 0-32 0-192 0-192 0-32-32 0-96 0-96 0-96 0L32 32zM64 224L64 96l32 0 0 128-32 0zm0 64l32 0 0 128-32 0 0-128zm96 128l0-128 32 0 0 128-32 0zm96 0l0-128 32 0 0 128-32 0zm96 0l0-128 32 0 0 128-32 0zm32-192l-32 0 0-128 32 0 0 128zM288 96l0 128-32 0 0-128 32 0zm-96 0l0 128-32 0 0-128 32 0z"/></svg>