<svg xmlns="http://www.w3.org/2000/svg" viewBox="0 0 576 512"><!--! Font Awesome Pro 6.6.0 by @fontawesome - https://fontawesome.com License - https://fontawesome.com/license (Commercial License) Copyright 2024 Fonticons, Inc. --><path d="M0 32l32 0 96 0 96 0 96 0 96 0 32 0 0 32 0 93.9L343.7 318.1c-15.4 23.7-23.7 51.4-23.7 79.7l0 2.1c0 29.6 8.9 57.1 24.2 80L320 480l-96 0-96 0-96 0L0 480l0-32L0 256 0 64 0 32zM64 96l0 128 32 0L96 96 64 96zm0 320l32 0 0-128-32 0 0 128zm128 0l0-128-32 0 0 128 32 0zm96 0l0-128-32 0 0 128 32 0zM384 96l-32 0 0 128 32 0 0-128zM256 96l0 128 32 0 0-128-32 0zm-96 0l0 128 32 0 0-128-32 0zm304 96l93.5 143.6c12.1 18.5 18.5 40.2 18.5 62.3l0 2.1c0 61.9-50.1 112-112 112s-112-50.1-112-112l0-2.1c0-22.1 6.4-43.7 18.5-62.3L464 192z"/></svg>