<svg xmlns="http://www.w3.org/2000/svg" viewBox="0 0 448 512"><!--! Font Awesome Pro 6.6.0 by @fontawesome - https://fontawesome.com License - https://fontawesome.com/license (Commercial License) Copyright 2024 Fonticons, Inc. --><path d="M144 0L96 0l0 24 0 2.6C96 48 106.7 68 124.5 79.8l12.4 8.3c4.5 3 7.1 8 7.1 13.3l0 2.6 0 24 48 0 0-24 0-2.6C192 80 181.3 60 163.5 48.2l-12.4-8.3c-4.5-3-7.1-8-7.1-13.3l0-2.6 0-24zM256 0L208 0l0 24 0 2.6C208 48 218.7 68 236.5 79.8l12.4 8.3c4.5 3 7.1 8 7.1 13.3l0 2.6 0 24 48 0 0-24 0-2.6C304 80 293.3 60 275.5 48.2l-12.4-8.3c-4.5-3-7.1-8-7.1-13.3l0-2.6 0-24zm74.1 357.3C400.3 319.5 448 245.3 448 160L0 160c0 85.3 47.7 159.5 117.9 197.3l-11.8 27.5c-3.3-.5-6.7-.8-10.1-.8c-35.3 0-64 28.7-64 64s28.7 64 64 64c26.9 0 49.9-16.5 59.3-40L327 472l2.9 6.8 4 9.3 9.5 22.1 44.1-18.9-9.5-22.1-4-9.3-44-102.6zM306.5 424l-151.1 0c-2-5-4.7-9.7-7.8-14l14.8-34.6c19.6 5.6 40.3 8.6 61.6 8.6s42.1-3 61.6-8.6L306.5 424zM72 448a24 24 0 1 1 48 0 24 24 0 1 1 -48 0z"/></svg>