<svg xmlns="http://www.w3.org/2000/svg" viewBox="0 0 576 512"><!--! Font Awesome Pro 6.6.0 by @fontawesome - https://fontawesome.com License - https://fontawesome.com/license (Commercial License) Copyright 2024 Fonticons, Inc. --><path d="M0 32l448 0 0 64c0 24.1-3.8 47.4-10.9 69.1c-16.9-16.3-34.8-31.3-53.1-46.1c-31.6 25.6-61.5 52.3-88.2 83.1c-28.9 33.3-58 73.7-68.1 117.9c-1.2 0-2.5 0-3.7 0c-16.9 0-33.4-1.9-49.3-5.4L151.8 368l72.8 0c1.4 16.7 4.9 32.8 10.2 48L160 416c0 35.3-28.7 64-64 64s-64-28.7-64-64s28.7-64 64-64c3.4 0 6.8 .3 10.1 .8L129.2 299C52.9 263.3 0 185.8 0 96L0 32zM96 440a24 24 0 1 0 0-48 24 24 0 1 0 0 48zM449 224.1c17.2-19.5 31-32 31-32s96 86.4 96 160c0 88.4-71.6 160-160 160s-160-71.6-160-160s128-192 128-192s32.6 26.4 65 64zM466 433c30-21 38-63 20-96c-2-4-4-8-7-12l-36 42s-58-74-62-79c-30 37-45 58-45 82c0 49 36 78 81 78c18 0 34-5 49-15z"/></svg>