<svg xmlns="http://www.w3.org/2000/svg" viewBox="0 0 512 512"><!--! Font Awesome Pro 6.6.0 by @fontawesome - https://fontawesome.com License - https://fontawesome.com/license (Commercial License) Copyright 2024 Fonticons, Inc. --><path d="M352 64l0 50.7L244.9 221.9c-21.9-40.6 14.1-76.5 14.1-76.5l-23.8-23.8-40.7 40.7c-9.4 9.4-15.4 21.8-21.2 34c-1.6 3.4-3.2 6.7-4.9 10c-3.5 6.9-8.7 14.6-16.4 22.3c-24.9 24.9-65.2 40-90.3 47.6c-14.6 4.4-28.3 11.6-39 22.4c-30.3 30.3-30.3 79.3 0 109.6l80.5 81.3C118.8 505 139.5 512.5 160 512c19.2-.5 38.2-8.1 52.8-22.7c10.8-10.8 18-24.5 22.4-39c7.5-25.1 22.7-66.2 47.6-91.2c7.7-7.7 15.4-12.9 22.3-16.4c3.3-1.7 6.6-3.3 10-4.9c12.2-5.8 24.6-11.8 34-21.2l28.8-28.8L354 264.1s-26.5 26.5-64.2 3.4L444.6 112.6c16.1 4.8 34.1 .7 46.5-11.7c19.7-19.7 17.9-52.1-3.8-69.5L448 0 352 64zM195.3 268.7l48 48L254.6 328 232 350.6l-11.3-11.3-48-48L161.4 280 184 257.4l11.3 11.3zm-64 64l48 48L190.6 392 168 414.6l-11.3-11.3-48-48L97.4 344 120 321.4l11.3 11.3z"/></svg>