<svg xmlns="http://www.w3.org/2000/svg" viewBox="0 0 640 512"><!--! Font Awesome Pro 6.6.0 by @fontawesome - https://fontawesome.com License - https://fontawesome.com/license (Commercial License) Copyright 2024 Fonticons, Inc. --><path d="M199.2 135.1L224 159.9l96 96 96-96 24.8-24.8c14.9-14.9 23.2-35 23.2-56l0-3.6C464 33.8 430.1-.1 388.4-.1c-23 0-44.7 10.4-59.1 28.4L320 39.9l-9.3-11.6C296.4 10.4 274.6-.1 251.6-.1C209.9-.1 176 33.8 176 75.6l0 3.6c0 21 8.3 41.1 23.2 56zM80 64L0 64l0 40 0 24 0 32 0 64L0 352l0 13.3 9.4 9.4 128 128 9.4 9.4 13.3 0 96 0 32 0 0-32 0-32 0-32 0-64 0-13.3-9.4-9.4-64-64L192 242.7l-9.4-9.4L160 210.7 114.7 256l22.6 22.6 9.4 9.4 22.6 22.6L205.8 347l-41.7 27.8L80 290.7 80 224l0-80 0-32 0-8 0-40zm480 0l0 40 0 8 0 32 0 80 0 66.7-84.1 84.1L434.2 347l36.4-36.4L493.3 288l9.4-9.4L525.3 256 480 210.7l-22.6 22.6-9.4 9.4-22.6 22.6-64 64-9.4 9.4 0 13.3 0 64 0 32 0 32 0 32 32 0 96 0 13.3 0 9.4-9.4 128-128 9.4-9.4 0-13.3 0-128 0-64 0-32 0-24 0-40-80 0z"/></svg>