<svg xmlns="http://www.w3.org/2000/svg" viewBox="0 0 512 512"><!--! Font Awesome Pro 6.6.0 by @fontawesome - https://fontawesome.com License - https://fontawesome.com/license (Commercial License) Copyright 2024 Fonticons, Inc. --><path d="M192 0l0 32 0 96 0 224 96 0 32 0 96 0 0-96 0-160 0-32 64 0 0 32 0 240c0 97.2-78.8 176-176 176l-19.2 0c-59.6 0-116.9-22.9-160-64L28.3 356.1l-29-27.6 55.2-57.9 29 27.6 44.6 42.4c0-1.5-.1-3.1-.1-4.6l0-304 0-32 64 0zm32 160l64 0 0 160-64 0 0-160zm160 32l0 128-64 0 0-128 64 0z"/></svg>