<svg xmlns="http://www.w3.org/2000/svg" viewBox="0 0 448 512"><!--! Font Awesome Pro 6.6.0 by @fontawesome - https://fontawesome.com License - https://fontawesome.com/license (Commercial License) Copyright 2024 Fonticons, Inc. --><path d="M0 32l32 0 16 0 64 0 16 0 32 0 0 64-32 0-16 0 0 112 224 0 0-112-16 0-32 0 0-64 32 0 16 0 64 0 16 0 32 0 0 64-32 0-16 0 0 144 0 176 16 0 32 0 0 64-32 0-16 0-64 0-16 0-32 0 0-64 32 0 16 0 0-144-224 0 0 144 16 0 32 0 0 64-32 0-16 0-64 0-16 0L0 480l0-64 32 0 16 0 0-176L48 96 32 96 0 96 0 32z"/></svg>