<svg xmlns="http://www.w3.org/2000/svg" viewBox="0 0 576 512"><!--! Font Awesome Pro 6.6.0 by @fontawesome - https://fontawesome.com License - https://fontawesome.com/license (Commercial License) Copyright 2024 Fonticons, Inc. --><path d="M64 288L39.8 263.8C14.3 238.3 0 203.8 0 167.8C0 92.8 60.8 32 135.8 32c36 0 70.5 14.3 96 39.8L256 96l24.2-24.2c25.5-25.5 60-39.8 96-39.8C451.2 32 512 92.8 512 167.8c0 13.8-2.1 27.4-6.2 40.4C483.4 197.8 458.4 192 432 192c-97.2 0-176 78.8-176 176c0 32.2 8.6 62.3 23.7 88.3L256 480 64 288zm368-64a144 144 0 1 1 0 288 144 144 0 1 1 0-288zm59.3 107.3L502.6 320 480 297.4l-11.3 11.3L432 345.4l-36.7-36.7L384 297.4 361.4 320l11.3 11.3L409.4 368l-36.7 36.7L361.4 416 384 438.6l11.3-11.3L432 390.6l36.7 36.7L480 438.6 502.6 416l-11.3-11.3L454.6 368l36.7-36.7z"/></svg>