<svg xmlns="http://www.w3.org/2000/svg" viewBox="0 0 448 512"><!--! Font Awesome Pro 6.6.0 by @fontawesome - https://fontawesome.com License - https://fontawesome.com/license (Commercial License) Copyright 2024 Fonticons, Inc. --><path d="M0 128L0 384 224 512 448 384l0-256L224 0 0 128zm80 32l8 0 11.9 0 3.4 11.4L128 253.7l0-77.7 0-16 32 0 0 16 0 160 0 16-16 0-8 0-11.9 0-3.4-11.4L96 258.3 96 336l0 16-32 0 0-16 0-160 0-16 16 0zm128 0l48 0 16 0 0 32-16 0-32 0 0 48 32 0 16 0 0 32-16 0-32 0 0 64 0 16-32 0 0-16 0-80 0-80 0-16 16 0zm96 0l32 0 32 0 16 0 0 32-16 0-16 0 0 144 0 16-32 0 0-16 0-144-16 0-16 0 0-32 16 0z"/></svg>