<svg xmlns="http://www.w3.org/2000/svg" viewBox="0 0 512 512"><!--! Font Awesome Pro 6.6.0 by @fontawesome - https://fontawesome.com License - https://fontawesome.com/license (Commercial License) Copyright 2024 Fonticons, Inc. --><path d="M272 24c0 26.7 14.3 46.4 35 73.4l1.4 1.9C327.5 124 352 155.8 352 200l0 24-48 0 0-24c0-26.7-14.3-46.4-35-73.4l-1.4-1.9C248.5 100 224 68.2 224 24l0-24 48 0 0 24zm112 0c0 26.7 14.3 46.4 35 73.4l1.4 1.9C439.5 124 464 155.8 464 200l0 24-48 0 0-24c0-26.7-14.3-46.4-35-73.4l-1.4-1.9C360.5 100 336 68.2 336 24l0-24 48 0 0 24zM0 512L0 336l0-80 0-96 128 0 128 96 256 0 0 256L0 512zM128 320l-32 0 0 16 0 96 0 16 32 0 0-16 0-96 0-16zm96 0l-32 0 0 16 0 96 0 16 32 0 0-16 0-96 0-16zm96 0l-32 0 0 16 0 96 0 16 32 0 0-16 0-96 0-16zm96 0l-32 0 0 16 0 96 0 16 32 0 0-16 0-96 0-16zM0 64a64 64 0 1 1 128 0A64 64 0 1 1 0 64z"/></svg>