<svg xmlns="http://www.w3.org/2000/svg" viewBox="0 0 576 512"><!--! Font Awesome Pro 6.6.0 by @fontawesome - https://fontawesome.com License - https://fontawesome.com/license (Commercial License) Copyright 2024 Fonticons, Inc. --><path d="M576 287.6l-64.2 0 1 224.4L64.1 512l0-224.4L0 287.6 0 240 288.4 0 416 106.5 416 32l96 0 0 154.6L576 240l0 47.6zM235.2 208c-32.7 0-59.2 26.5-59.2 59.2c0 16.1 6.6 31.5 18.2 42.7l82.8 79.6L288 400.1l11.1-10.7 82.8-79.6c11.6-11.2 18.2-26.6 18.2-42.7c0-32.7-26.5-59.2-59.2-59.2l-2.4 0c-15.9 0-31.2 6.2-42.7 17.2l-7.7 7.4-7.7-7.4c-11.5-11-26.8-17.2-42.7-17.2l-2.4 0z"/></svg>