<svg xmlns="http://www.w3.org/2000/svg" viewBox="0 0 576 512"><!--! Font Awesome Pro 6.6.0 by @fontawesome - https://fontawesome.com License - https://fontawesome.com/license (Commercial License) Copyright 2024 Fonticons, Inc. --><path d="M576 32L96 32l0 352 480 0 0-352zM395.6 139.8l96 136L496 282l0 7.6 0 8 0 24-24 0-120 0-24 0-48 0-24 0-56 0-24 0 0-24 0-8 0-9.1 6.1-6.8 64-72L264 181.5l17.9 20.2L299.1 221l57.3-81.2L376 112l19.6 27.8zM192 128a32 32 0 1 1 64 0 32 32 0 1 1 -64 0zM48 120l0-24L0 96l0 24L0 456l0 24 24 0 432 0 24 0 0-48-24 0L48 432l0-312z"/></svg>