<svg xmlns="http://www.w3.org/2000/svg" viewBox="0 0 512 512"><!--! Font Awesome Pro 6.6.0 by @fontawesome - https://fontawesome.com License - https://fontawesome.com/license (Commercial License) Copyright 2024 Fonticons, Inc. --><path d="M112 96L62.2 96c0-36 38.4-96 128-96c58.4 0 95 25.5 113.5 53.2C323.6 40.6 350.2 32 384 32c89.6 0 128 60 128 96l-64 0L416 96l-32 32-82.5 0c28 79.9 21.2 170.2 9.9 226.1C370.9 365.1 416 417.3 416 480l0 32L32 512l0-32c0-70.7 57.3-128 128-128l64 0c29.7-79.3 29.4-150.9 22.8-194l-98.9 98.9c-25.5-25.5-40.7-95 22.6-158.4c1.3-1.3 2.7-2.7 4.1-3.9L144 64 112 96z"/></svg>