<svg xmlns="http://www.w3.org/2000/svg" viewBox="0 0 576 512"><!--! Font Awesome Pro 6.6.0 by @fontawesome - https://fontawesome.com License - https://fontawesome.com/license (Commercial License) Copyright 2024 Fonticons, Inc. --><path d="M576 64L0 64 0 448l576 0 0-384zM128 128l0 64-64 0 0-64 64 0zM64 224l64 0 0 64-64 0 0-64zm64 96l0 64-64 0 0-64 64 0zm32-192l64 0 0 64-64 0 0-64zm64 96l0 64-64 0 0-64 64 0zm-64 96l256 0 0 64-256 0 0-64zM320 128l0 64-64 0 0-64 64 0zm-64 96l64 0 0 64-64 0 0-64zm160-96l0 64-64 0 0-64 64 0zm-64 96l64 0 0 64-64 0 0-64zm160-96l0 64-64 0 0-64 64 0zm-64 96l64 0 0 64-64 0 0-64zm64 96l0 64-64 0 0-64 64 0z"/></svg>