<svg xmlns="http://www.w3.org/2000/svg" viewBox="0 0 640 512"><!--! Font Awesome Pro 6.6.0 by @fontawesome - https://fontawesome.com License - https://fontawesome.com/license (Commercial License) Copyright 2024 Fonticons, Inc. --><path d="M96 32L64 32l0 32 0 288 64 0 0-256 128 0 0-64L96 32zM512 96l0 256 64 0 0-288 0-32-32 0L384 32l0 64 128 0zM0 384l0 48 48 48 544 0 48-48 0-48L0 384zM344 56l0-24-48 0 0 24 0 182.1-39-39-17-17L206.1 216l17 17 80 80 17 17 17-17 80-80 17-17L400 182.1l-17 17-39 39L344 56z"/></svg>