<svg xmlns="http://www.w3.org/2000/svg" viewBox="0 0 640 512"><!--! Font Awesome Pro 6.6.0 by @fontawesome - https://fontawesome.com License - https://fontawesome.com/license (Commercial License) Copyright 2024 Fonticons, Inc. --><path d="M449.2 297.8c-19.8 27.1-39.7 54.4-49.2 86.2l-160 0c-9.6-31.9-29.5-59.1-49.2-86.2c0 0 0 0 0 0s0 0 0 0c-5.2-7.1-10.4-14.2-15.4-21.4C155.6 247.9 144 213.3 144 176C144 78.8 222.8 0 320 0s176 78.8 176 176c0 37.3-11.6 71.9-31.4 100.3c-5 7.2-10.2 14.3-15.4 21.4c0 0 0 0 0 0s0 0 0 0zM240 512l0-96 160 0 0 96-160 0zM344 88l0-24-48 0 0 24 0 112 0 24 48 0 0-24 0-112zM296 256l0 48 48 0 0-48-48 0zM87.3 16l6 4 24 16 20 13.3L110.7 89.3 90.7 76l-24-16-6-4-20-13.3L67.3 2.7 87.3 16zM579.3 56l-6 4-24 16-20 13.3L502.7 49.3l20-13.3 24-16 6-4 20-13.3 26.6 39.9L579.3 56zM24 160l48 0 24 0 0 48-24 0-48 0L0 208l0-48 24 0zm544 0l48 0 24 0 0 48-24 0-48 0-24 0 0-48 24 0zM117.3 332l-24 16-6 4-20 13.3L40.7 325.3l20-13.3 6-4 24-16 20-13.3 26.6 39.9-20 13.3zm432-39.9l24 16 6 4 20 13.3-26.6 39.9-20-13.3-6-4-24-16-20-13.3 26.6-39.9 20 13.3z"/></svg>