<svg xmlns="http://www.w3.org/2000/svg" viewBox="0 0 640 512"><!--! Font Awesome Pro 6.6.0 by @fontawesome - https://fontawesome.com License - https://fontawesome.com/license (Commercial License) Copyright 2024 Fonticons, Inc. --><path d="M580.2 267.3c56.2-56.2 56.2-147.4 0-203.6S432.8 7.4 376.6 63.7L365.3 75l45.3 45.3 11.3-11.3c31.2-31.2 81.9-31.2 113.1 0s31.2 81.9 0 113.1L421.8 335.2c-31.2 31.2-81.9 31.2-113.1 0c-25.6-25.6-30.3-64.3-13.8-94.6c1.8-3.4 3.9-6.7 6.3-9.8l-51.2-38.4c-4.3 5.7-8.1 11.6-11.4 17.8c-29.5 54.6-21.3 124.2 24.9 170.3c56.2 56.2 147.4 56.2 203.6 0L580.2 267.3zM59.8 244.7c-56.2 56.2-56.2 147.4 0 203.6s147.4 56.2 203.6 0L274.7 437l-45.3-45.3-11.3 11.3c-31.2 31.2-81.9 31.2-113.1 0s-31.2-81.9 0-113.1L218.2 176.8c31.2-31.2 81.9-31.2 113.1 0c25.6 25.6 30.3 64.3 13.8 94.6c-1.8 3.4-3.9 6.7-6.3 9.8l51.2 38.4c4.3-5.7 8.1-11.6 11.4-17.8c29.5-54.6 21.3-124.2-24.9-170.3c-56.2-56.2-147.4-56.2-203.6 0L59.8 244.7z"/></svg>