<svg xmlns="http://www.w3.org/2000/svg" viewBox="0 0 640 512"><!--! Font Awesome Pro 6.6.0 by @fontawesome - https://fontawesome.com License - https://fontawesome.com/license (Commercial License) Copyright 2024 Fonticons, Inc. --><path d="M48.4 14.8L29.4 .1 0 38 19 52.7 591.5 497.2l19 14.7L639.9 474l-19-14.7-45.4-35.2C614.4 398.3 640 354.1 640 304c0-79.5-64.5-144-144-144l-16 0 0 64 16 0c44.2 0 80 35.8 80 80c0 36-23.8 66.5-56.6 76.5l-104.3-81C435.7 274.7 448 242.8 448 208c0-79.5-64.5-144-144-144L144 64c-9.8 0-19.3 1-28.6 2.8l-67-52zM194.2 128L304 128c44.2 0 80 35.8 80 80c0 20-7.3 38.2-19.4 52.3L194.2 128zM446.8 448l-81.2-64L336 384c-44.2 0-80-35.8-80-80c0-2.1 .1-4.1 .2-6.1l-55.4-43.6c-5.7 15.5-8.8 32.3-8.8 49.8c0 79.5 64.5 144 144 144l110.8 0zM30.2 119.8C11.3 144.2 0 174.8 0 208c0 79.5 64.5 144 144 144l16 0 0-64-16 0c-44.2 0-80-35.8-80-80c0-18.3 6.1-35.1 16.5-48.6L30.2 119.8z"/></svg>