<svg xmlns="http://www.w3.org/2000/svg" viewBox="0 0 576 512"><!--! Font Awesome Pro 6.6.0 by @fontawesome - https://fontawesome.com License - https://fontawesome.com/license (Commercial License) Copyright 2024 Fonticons, Inc. --><path d="M0 208L0 448l288 0 0-240c0-79.5-64.5-144-144-144S0 128.5 0 208zm64-16l16 0 128 0 16 0 0 32-16 0L80 224l-16 0 0-32zM320 448l256 0 0-240c0-79.5-64.5-144-144-144L245.2 64C290.4 95.9 320 148.5 320 208l0 240zm64-256l16 0 64 0 32 0 16 0 0 16 0 64 0 16-16 0-32 0-16 0 0-16 0-48-48 0-16 0 0-32z"/></svg>