<svg xmlns="http://www.w3.org/2000/svg" viewBox="0 0 640 512"><!--! Font Awesome Pro 6.6.0 by @fontawesome - https://fontawesome.com License - https://fontawesome.com/license (Commercial License) Copyright 2024 Fonticons, Inc. --><path d="M27.7 286.7C64 426.6 240.9 448 240.9 448s6.1-3.2 15.9-9.1c-28.3-37.1-50.5-85.4-48.7-144.6c-27.7 5.7-51.7 20.3-69.4 40.5c-3.3-43.1 26.6-82.1 69.1-88.6c2.4-.4 4.8-.6 7.2-.8L236.3 99.8l1.1-7.4 4.2-6.1 26.4 18.2L240.1 294.1C234.8 438.6 398.4 512 398.4 512s195.3-34.9 213.8-161.3L640 161.1s-21.7-67.9-176.8-91.5s-195.3 34.9-195.3 34.9c-26.4-18.2-26.3-18.2-26.3-18.2s0 0 0-.1l.1-.1 .2-.2 .4-.5c.3-.4 .6-.8 1-1.3c.8-1 1.7-2.1 2.9-3.5c2.4-2.7 5.7-5.9 10.1-9.5c8.7-7.2 21.5-15.5 39.4-22.6c17.8-7.1 40.3-12.8 68.4-15.2c-16.8-14.9-67.9-46-187.8-27.6C21.7 29.2 0 97.1 0 97.1L27.7 286.7zM171.2 146.9c1.8 3.7 3.1 7.7 3.7 12.1c3.2 21.8-11.5 42.1-32.9 45.4s-41.2-11.8-44.4-33.6c-.6-4.3-.6-8.6 .1-12.6c11.4 6.2 24.8 8.8 38.5 6.7s25.8-8.6 34.9-18zM411.9 244c-9.2-9.3-21.2-15.9-35-18s-27.2 .5-38.6 6.7c-.7-4.1-.8-8.3-.1-12.6c3.2-21.8 23.1-36.9 44.6-33.6s36.2 23.6 33 45.4c-.6 4.3-1.9 8.4-3.7 12.1zm127.8 6.8c-.6 4.3-1.9 8.4-3.7 12.1c-9.2-9.3-21.2-15.9-35-18s-27.2 .5-38.6 6.7c-.7-4.1-.8-8.3-.1-12.6c3.2-21.8 23.1-36.9 44.6-33.6s36.2 23.6 33 45.4zM535.6 331c-12.4 56.8-66 94.9-123.3 86.2s-97.6-61.2-93.2-119.2c25.8 29.2 61.4 49.7 102.5 56s81-2.8 114-23z"/></svg>