<svg xmlns="http://www.w3.org/2000/svg" viewBox="0 0 640 512"><!--! Font Awesome Pro 6.6.0 by @fontawesome - https://fontawesome.com License - https://fontawesome.com/license (Commercial License) Copyright 2024 Fonticons, Inc. --><path d="M416 0L0 0 0 320l96 0 0 64 106.7-64L416 320 416 0zM256 352l0 96 181.3 0L544 512l0-64 96 0 0-320-192 0 0 224-192 0zM134.7 108c0-25.8 20.9-46.7 46.7-46.7l47.4 0c29.1 0 52.6 23.6 52.6 52.6c0 18.8-10.1 36.3-26.4 45.6L228 175l0 6.3 0 20-40 0 0-20 0-17.9 0-11.6 10-5.8L235 124.9c3.9-2.3 6.3-6.4 6.3-10.9c0-7-5.7-12.6-12.6-12.6l-47.4 0c-3.7 0-6.7 3-6.7 6.7l0 5.5-40 0 0-5.5zM188 234.7l40 0 0 40-40 0 0-40z"/></svg>