<svg xmlns="http://www.w3.org/2000/svg" viewBox="0 0 512 512"><!--! Font Awesome Pro 6.6.0 by @fontawesome - https://fontawesome.com License - https://fontawesome.com/license (Commercial License) Copyright 2024 Fonticons, Inc. --><path d="M479.2 191.2c43.7-43.7 43.7-114.7 0-158.4s-114.7-43.7-158.4 0l-4.7 4.7L474.5 195.9l4.7-4.7zm-27.3 27.3L293.5 60.1l-4.7 4.7c-24.4 24.4-35.2 57.2-32.4 89L358.2 255.6c31.8 2.8 64.6-8 89-32.4l4.7-4.7zM339.7 282.3L229.7 172.3 0 448l64 64L224 378.7 224 480l0 32 64 0 0-32 0-154.7 51.7-43z"/></svg>