<svg xmlns="http://www.w3.org/2000/svg" viewBox="0 0 640 512"><!--! Font Awesome Pro 6.6.0 by @fontawesome - https://fontawesome.com License - https://fontawesome.com/license (Commercial License) Copyright 2024 Fonticons, Inc. --><path d="M256 242.2l0 23.1-59.3 59.3-4.7 4.7 0 6.6 0 44.2-30.3 60.6-7.2 14.3 28.6 14.3 7.2-14.3 32-64 1.7-3.4 0-3.8 0-41.4 32-32 0 50 0 32 64 0 0-32 0-50 32 32 0-45.3-32-32 0-23.1 32 27.9 0-14.1 32 0 0-32 80 0 16 0 67 0c-11.7-9.9-26.3-16.5-42.4-18.5L344.7 181.6l49.6-41.3 8.4-7-3.5-10.4L385.4 81.6 414 30.2l7.8-14L393.8 .6l-7.8 14L354 72.2l-3.4 6.2 2.2 6.7 12.5 37.6L320 160.5l0-22.6 0-32-23.8 0 0-34.2 0-8.2-16.3 0 0 8.2 0 34.2-23.8 0 0 32 0 22.6-45.4-37.8 12.5-37.6 2.2-6.7L222 72.2 190 14.6l-7.8-14-28 15.5 7.8 14 28.6 51.4-13.8 41.3-3.5 10.4 8.4 7 49.6 41.3L71.4 205.5C30.6 210.6 0 245.2 0 286.3c0 72.6 87.8 109 139.2 57.6L256 242.2zM362.9 353.5c.4-.5 .9-1 1.3-1.5l-2.8 0 1.5 1.5zM528 256l-32 0 0 16 0 16-48 0 0-16 0-16-32 0 0 16 0 16-16 0-16 0 0 32 16 0 16 0 0 48-16 0-16 0 0 32 16 0 16 0 0 48-16 0-16 0 0 32 16 0 16 0 0 16 0 16 32 0 0-16 0-16 48 0 0 16 0 16 32 0 0-16 0-16 48 0 0 16 0 16 32 0 0-16 0-16 16 0 16 0 0-32-16 0-16 0 0-48 16 0 16 0 0-32-16 0-16 0 0-48 16 0 16 0 0-32-16 0-16 0 0-16 0-16-32 0 0 16 0 16-48 0 0-16 0-16zm0 64l48 0 0 48-48 0 0-48zm0 80l48 0 0 48-48 0 0-48zm-80-80l48 0 0 48-48 0 0-48zm0 80l48 0 0 48-48 0 0-48z"/></svg>