<svg xmlns="http://www.w3.org/2000/svg" viewBox="0 0 640 512"><!--! Font Awesome Pro 6.6.0 by @fontawesome - https://fontawesome.com License - https://fontawesome.com/license (Commercial License) Copyright 2024 Fonticons, Inc. --><path d="M320 512A256 256 0 1 0 320 0a256 256 0 1 0 0 512zm0-448c39.8 0 72 32.2 72 72l0 8-144 0 0-8c0-39.8 32.2-72 72-72zM244.3 200l-14.1 14.1-32 32L184 260.3 155.7 232l14.1-14.1 32-32L216 171.7 244.3 200zM296 224a24 24 0 1 1 48 0 24 24 0 1 1 -48 0zM416 360a24 24 0 1 1 0 48 24 24 0 1 1 0-48zM238.6 296l-8 8 16 16 33.4 0c30.9 0 56 25.1 56 56s-25.1 56-56 56s-56-25.1-56-56l0-33.4-16-16-8 8L177.4 312l11.3-11.3 8-8 8-8L216 273.4 238.6 296zM464 176l11 11c13.4 13.4 21 31.6 21 50.6l0 4.8c0 18.7-8.5 36.4-23.1 48.1c-10.9 8.7-24.5 13.5-38.5 13.5l-4.1 0c-19.4 0-38-7.7-51.8-21.4L368 272l96-96zM48 160L0 160l0 24L0 328l0 24 48 0 0-24 0-144 0-24zm592 24l0-24-48 0 0 24 0 144 0 24 48 0 0-24 0-144z"/></svg>