<svg xmlns="http://www.w3.org/2000/svg" viewBox="0 0 640 512"><!--! Font Awesome Pro 6.6.0 by @fontawesome - https://fontawesome.com License - https://fontawesome.com/license (Commercial License) Copyright 2024 Fonticons, Inc. --><path d="M48.4 14.8L29.4 .1 0 38 19 52.7 591.5 497.2l19 14.7L639.9 474l-19-14.7L409.5 295.1l75.2-75.2-16-16-96-96-16-16-91.3 91.3L48.4 14.8zM306.6 215.3l50-50L368 153.9l22.6 22.6-11.3 11.3-47.2 47.2-25.5-19.8zm33.4 149.2L263.2 304l-27.9 27.9L224 343.2l-22.6-22.6 11.3-11.3L237.9 284l-41-32.3L96 352.6l-21.8 109L64 512.6l51-10.2 109-21.8L340.1 364.5zM379.3 69.3l16 16 96 96 16 16 34.7-34.7L576 128.6 542.1 94.6 481.9 34.5 448 .6 414.1 34.5 379.3 69.3zM163.9 352.6l12.1 0 0 48 48 0 0 12.1-23.7 23.7-75.1 15 15-75.1 23.7-23.7z"/></svg>