<svg xmlns="http://www.w3.org/2000/svg" viewBox="0 0 640 512"><!--! Font Awesome Pro 6.6.0 by @fontawesome - https://fontawesome.com License - https://fontawesome.com/license (Commercial License) Copyright 2024 Fonticons, Inc. --><path d="M160 96a48 48 0 1 0 0-96 48 48 0 1 0 0 96zm-51.1 32l-17.5 0L82 142.8 .2 270.8l53.9 34.4 33.8-53L88 480l0 32 64 0 0-32 0-128 16 0 0 128 0 32 64 0 0-32 0-227.8 33.8 53 53.9-34.4L238 142.8 228.6 128l-17.5 0-102.2 0zM480 96a48 48 0 1 0 0-96 48 48 0 1 0 0 96zm-51.1 32l-17.5 0L402 142.8l-81.7 128 53.9 34.4 33.8-53L408 480l0 32 64 0 0-32 0-128 16 0 0 128 0 32 64 0 0-32 0-227.8 33.8 53 53.9-34.4L558 142.8 548.6 128l-17.5 0-102.2 0z"/></svg>