<svg xmlns="http://www.w3.org/2000/svg" viewBox="0 0 640 512"><!--! Font Awesome Pro 6.6.0 by @fontawesome - https://fontawesome.com License - https://fontawesome.com/license (Commercial License) Copyright 2024 Fonticons, Inc. --><path d="M335.6 12.1L320 3.3l-15.6 8.7-272 152L4.5 179.7l31.2 55.9 27.9-15.6L320 76.7 576.4 219.9l27.9 15.6 31.2-55.9-27.9-15.6-272-152zM320 240a40 40 0 1 0 0-80 40 40 0 1 0 0 80zM144 336a40 40 0 1 0 0-80 40 40 0 1 0 0 80zm392-40a40 40 0 1 0 -80 0 40 40 0 1 0 80 0zM96 352l-14.1 0L75 364.3 19 465.1l-11.7 21 42 23.3 11.7-21 27-48.6L88 512l112 0 0-72.2 27 48.6 11.7 21 42-23.3-11.7-21-35.2-63.4 3.4-6.3L264 345.5l0 86.5 112 0 0-86.5 26.9 49.9 3.4 6.3L371 465.1l-11.7 21 42 23.3 11.7-21 27-48.6 0 72.2 112 0 0-72.2 27 48.6 11.7 21 42-23.3-11.7-21L565 364.3 558.1 352 544 352l-96 0-14 0-44.9-83.4L382.3 256 368 256l-96 0-14.3 0-6.8 12.6L206 352l-14 0-96 0z"/></svg>