<svg xmlns="http://www.w3.org/2000/svg" viewBox="0 0 512 512"><!--! Font Awesome Pro 6.6.0 by @fontawesome - https://fontawesome.com License - https://fontawesome.com/license (Commercial License) Copyright 2024 Fonticons, Inc. --><path d="M368 96a48 48 0 1 0 0-96 48 48 0 1 0 0 96zM224 96l-13.3 0-9.4 9.4-48 48-8 8 45.3 45.3 8-8L237.3 160l27.7 0-31.3 94c-9.3 28 1.7 58.8 26.8 74.5l86.2 53.9-9.4 32.8-16 56L309.6 512l66.6 0 6.6-23.2 16-56 16-56 6.6-23.2L401 340.9 334 299l29-77.4 24.3 48.6 8.8 17.7 19.8 0 48 0 32 0 0-64-32 0-28.2 0-39.2-78.3-5.4-10.9-11.3-4.5-80-32L294.2 96 288 96l-64 0zM205.5 310.7L187.2 352 128 352l-32 0 0 64 32 0 80 0 20.8 0 8.4-19L253 361.6l-9.5-6c-17.5-10.9-30.5-26.8-37.9-44.9zM16 95.8l-16 0 0 32 16 0 112 0 16 0 0-32-16 0-112 0zm-16 64l0 32 16 0 64 0 16 0 0-32-16 0-64 0-16 0zm16 64l-16 0 0 32 16 0 128 0 16 0 0-32-16 0-128 0z"/></svg>