<svg xmlns="http://www.w3.org/2000/svg" viewBox="0 0 512 512"><!--! Font Awesome Pro 6.6.0 by @fontawesome - https://fontawesome.com License - https://fontawesome.com/license (Commercial License) Copyright 2024 Fonticons, Inc. --><path d="M176 96a48 48 0 1 0 0-96 48 48 0 1 0 0 96zm-48 32l-19.8 0-8.8 17.7-64 128L21.1 302.3l57.2 28.6 14.3-28.6L128 231.6l0 43.2c0 17 6.7 33.3 18.7 45.3L224 397.3l0 82.7 0 32 64 0 0-32 0-96 0-13.3-9.4-9.4L224 306.7l0-18.7 0-74.7 70.4 93.9 19.2 25.6 51.2-38.4-19.2-25.6-96-128L240 128l-16 0-96 0zm-7 248.2l-12 48-6 24-6 24-6 24L87 512l66 0 .1-.2 6-24 6-24 6-24 10-40.2-52.8-52.8L121 376.2zM446.5 498.8l9.1 13.2 26.3-18.2-9.1-13.2L360.2 317.9l-25.6 19.2 112 161.7z"/></svg>