<svg xmlns="http://www.w3.org/2000/svg" viewBox="0 0 576 512"><!--! Font Awesome Pro 6.6.0 by @fontawesome - https://fontawesome.com License - https://fontawesome.com/license (Commercial License) Copyright 2024 Fonticons, Inc. --><path d="M432 0a48 48 0 1 1 0 96 48 48 0 1 1 0-96zM356.3 126.6l10 2 80 16 15.3 3.1 7 14 35.2 70.5 38.5 19.2-28.6 57.2-48-24-9.5-4.8-4.8-9.5-13.7-27.4-18.4 62.4 52.3 57 5.2 5.7 2 7.5 24 88 8.4 30.9-61.7 16.8-8.4-30.9-22-80.5-70.9-77.4c-14.8-16.1-20.3-38.6-14.7-59.7l17-63.6-36.7 16.3-11.5 34.6-10.1 30.4-60.7-20.2 10.1-30.4 16-48 4.5-13.4 12.9-5.7 72-32 9.3-4.1zm-38.6 209c2.1 3 4.5 5.8 7 8.6l40.7 44.4-15.7 39.3-2.4 6.1-4.6 4.6-48 48L272 509.3 226.7 464l22.6-22.6L292.7 398l25-62.4zM142.9 511.9L32 447.9l96-166.3 84.4 48.7 29.8-50.5 27.6 16.3L171.5 462.4l-5.6 9.5-23.1 40z"/></svg>