<svg xmlns="http://www.w3.org/2000/svg" viewBox="0 0 576 512"><!--! Font Awesome Pro 6.6.0 by @fontawesome - https://fontawesome.com License - https://fontawesome.com/license (Commercial License) Copyright 2024 Fonticons, Inc. --><path d="M256 0L192 0l0 32 0 160 64 0 0-160 0-32zM192 480l0 32 64 0 0-32 0-160-64 0 0 160zM576 0L512 0l0 32 0 448 0 32 64 0 0-32 0-448 0-32zM320 0L283.1 0l5.2 36.5 31.2 218.6L288.6 409.7 281 448l39 0 32 0 64 0 32 0 32 0 0-32 0-384 0-32L448 0 320 0zM112 80A48 48 0 1 0 16 80a48 48 0 1 0 96 0zM0 160l0 32 0 96 0 10.7s0 0 0 0L0 480l0 32 64 0 0-32 0-96 32 42.7L96 480l0 32 64 0 0-32 0-64 0-10.7-6.4-8.5L112 341.3l0-72.1 9.4 9.4 9.4 9.4 13.3 0 80 0 32 0 0-64-32 0-66.7 0-54.6-54.6L93.3 160 80 160l-48 0L0 160z"/></svg>