<svg xmlns="http://www.w3.org/2000/svg" viewBox="0 0 512 512"><!--! Font Awesome Pro 6.6.0 by @fontawesome - https://fontawesome.com License - https://fontawesome.com/license (Commercial License) Copyright 2024 Fonticons, Inc. --><path d="M224 48a48 48 0 1 1 96 0 48 48 0 1 1 -96 0zM114.7 96L128 96l64 0 6.2 0 5.7 2.3 80 32 11.3 4.5 5.4 10.9L339.8 224l12.8 0C357.5 97.7 391.2 0 432 0c44.2 0 80 114.6 80 256s-35.8 256-80 256c-40.8 0-74.5-97.7-79.4-224L320 288l-19.8 0-8.8-17.7-24.3-48.6L238 299 305 340.9l20.4 12.8-6.6 23.2-16 56-16 56L280.1 512l-66.6 0 11.7-40.8 16-56 9.4-32.8-86.2-53.9c-25.1-15.7-36.1-46.5-26.8-74.5l31.3-94-27.7 0-38.6 38.6L80 221.3 34.7 176l22.6-22.6 48-48 9.4-9.4zM91.2 352l18.3-41.3c7.4 18.1 20.4 33.9 37.9 44.9l9.5 6L141.2 397l-8.4 19L112 416l-80 0L0 416l0-64 32 0 59.2 0z"/></svg>