<svg xmlns="http://www.w3.org/2000/svg" viewBox="0 0 512 512"><!--! Font Awesome Pro 6.6.0 by @fontawesome - https://fontawesome.com License - https://fontawesome.com/license (Commercial License) Copyright 2024 Fonticons, Inc. --><path d="M80 96A48 48 0 1 0 80 0a48 48 0 1 0 0 96zM0 480l0 32 64 0 0-32s0 0 0 0l0-69.5-64-64L0 480zM32 128L0 128l0 32L0 274.7c0 17 6.7 33.3 18.7 45.3l22.6 22.6 56.7 56.7 6.3 37.9 4 24 4 24s0 0 0 0l4 24 .5 2.7 64.9 0-2.2-13.3-4-24s0 0 0 0l-4-24-4-24-8-48-1.7-10.1-7.3-7.3L96 306.7l0-65.1 21.4 32.1 9.5 14.3 17.1 0 79.3 0 27.1 108.3c-16 11.6-26.3 30.5-26.3 51.7c0 35.3 28.7 64 64 64c32.3 0 59.1-24 63.4-55.1l134.4-33.6 23.3-5.8-11.6-46.6-23.3 5.8L339.7 410.3c-10-13.7-25.3-23.3-42.8-25.7L247.3 186.2l-5.8-23.3-46.6 11.6 5.8 23.3 6.5 26.2-46.1 0-54.5-81.7L97.1 128 80 128l-48 0zM272 448a16 16 0 1 1 32 0 16 16 0 1 1 -32 0z"/></svg>