<svg xmlns="http://www.w3.org/2000/svg" viewBox="0 0 640 512"><!--! Font Awesome Pro 6.6.0 by @fontawesome - https://fontawesome.com License - https://fontawesome.com/license (Commercial License) Copyright 2024 Fonticons, Inc. --><path d="M256 32l0-32L192 0l0 32 0 76.2L49.7 179.4 32 188.2 32 208l0 144 0 32 64 0 0-32 0-109.8L253.1 484.9l17.4 26.9L324.2 477l-17.4-26.9L222.6 320l1.4 0 96 0 38.4 51.2 19.2 25.6 51.2-38.4-19.2-25.6-48-64L352 256l-16 0-95.5 0L188 181.8l50.3-25.2 17.7-8.8 0-19.8 0-96zM96 80A48 48 0 1 0 0 80a48 48 0 1 0 96 0zM464 273.2l76.4 61.4-.4-98 95.6-21.4-76.9-60.8 42.9-88.1L506.2 88.5 464 0 421.8 88.5 326.4 66.3l42.9 88.1-76.9 60.8 39.5 8.8 4.1 0 32 0 7.3 9.7 12.8 2.9-.1 14.1 39.1 52.2L464 273.2z"/></svg>