<svg xmlns="http://www.w3.org/2000/svg" viewBox="0 0 512 512"><!--! Font Awesome Pro 6.6.0 by @fontawesome - https://fontawesome.com License - https://fontawesome.com/license (Commercial License) Copyright 2024 Fonticons, Inc. --><path d="M112 318.1l0-64.8 41.8 17.4 6.8 2.8 6.5-3.3L259.8 224l28.2 0 224 0 0 93.2-23.3 9.3-25.6-12.8-6.4-3.2-6.7 2.7-33.3 13.3-25.6-12.8-6.4-3.2-6.7 2.7-33.3 13.3-25.6-12.8-6.4-3.2-6.7 2.7-33.3 13.3-25.6-12.8-6.4-3.2-6.7 2.7-33.3 13.3-25.6-12.8-6.4-3.2-6.7 2.7-33.3 13.3L112 318.1zm0 35.8l8.8 4.4 6.4 3.2 6.7-2.7 33.3-13.3 25.6 12.8 6.4 3.2 6.7-2.7 33.3-13.3 25.6 12.8 6.4 3.2 6.7-2.7 33.3-13.3 25.6 12.8 6.4 3.2 6.7-2.7 33.3-13.3 25.6 12.8 6.4 3.2 6.7-2.7 33.3-13.3 25.6 12.8 6.4 3.2 6.7-2.7 18.1-7.2 0 50.5-24 12-24.8-12.4-7.2-3.6-7.2 3.6-23.7 11.8-16.3-10.8-4-2.7-4.8 0-176 0-4.8 0-4 2.7-16.3 10.8-23.7-11.8-7.2-3.6-7.2 3.6L136 414.1l-24-12 0-48.2zm47.4-115.5L0 172 0 64l176 0 0-64 64 0 0 198.1-80.6 40.3zM112 437.9l16.8 8.4 7.2 3.6 7.2-3.6L168 433.9l24.8 12.4 8.3 4.2 7.7-5.2L224 435.2l0 76.8-112 0 0-74.1zm288-2.7l15.1 10.1 7.7 5.2 8.3-4.2L456 433.9l24.8 12.4 7.2 3.6 7.2-3.6 16.8-8.4 0 74.1-112 0 0-76.8zM200 144a24 24 0 1 0 -48 0 24 24 0 1 0 48 0z"/></svg>