<svg xmlns="http://www.w3.org/2000/svg" viewBox="0 0 512 512"><!--! Font Awesome Pro 6.6.0 by @fontawesome - https://fontawesome.com License - https://fontawesome.com/license (Commercial License) Copyright 2024 Fonticons, Inc. --><path d="M512 96l-40 40 24 24-57.1 22.9L448 192l0 128L256 512l-128 0L0 384 0 256 192 64l128 0 9.1 9.1L352 16l24 24L416 0l10 30 70-14L482 86l30 10zM176 201.4L153.4 224l11.3 11.3 32 32L208 278.6l11.3-11.3 32-32L262.6 224 240 201.4l-11.3 11.3L208 233.4l-20.7-20.7L176 201.4zm-80 80L73.4 304l11.3 11.3 32 32L128 358.6l11.3-11.3 32-32L182.6 304 160 281.4l-11.3 11.3L128 313.4l-20.7-20.7L96 281.4zm160 0L233.4 304l11.3 11.3 32 32L288 358.6l11.3-11.3 32-32L342.6 304 320 281.4l-11.3 11.3L288 313.4l-20.7-20.7L256 281.4zm-80 80L153.4 384l11.3 11.3 32 32L208 438.6l11.3-11.3 32-32L262.6 384 240 361.4l-11.3 11.3L208 393.4l-20.7-20.7L176 361.4z"/></svg>