<svg xmlns="http://www.w3.org/2000/svg" viewBox="0 0 512 512"><!--! Font Awesome Pro 6.6.0 by @fontawesome - https://fontawesome.com License - https://fontawesome.com/license (Commercial License) Copyright 2024 Fonticons, Inc. --><path d="M288 64c0-17.7-14.3-32-32-32s-32 14.3-32 32l0 12.8L96 64l0 64 160-16 160 16 0-64L288 76.8 288 64zm0 84.2l-32-4-32 4 0 43.8L96 192l0 256 320 0 0-256-128 0 0-43.8zM64 160L0 160l0 32L0 448l0 32 64 0 0-32 0-256 0-32zm448 32l0-32-64 0 0 32 0 256 0 32 64 0 0-32 0-256z"/></svg>