<svg xmlns="http://www.w3.org/2000/svg" viewBox="0 0 640 512"><!--! Font Awesome Pro 6.6.0 by @fontawesome - https://fontawesome.com License - https://fontawesome.com/license (Commercial License) Copyright 2024 Fonticons, Inc. --><path d="M112 24l0-24L64 0l0 24c0 45.1 21.2 69 37.7 87.5l.4 .4C117.5 129.3 128 141.5 128 168l0 24 48 0 0-24c0-45.1-21.2-69-37.7-87.5l-.4-.4C122.5 62.7 112 50.5 112 24zm112 0l0-24L176 0l0 24c0 45.1 21.2 69 37.7 87.5l.4 .4C229.5 129.3 240 141.5 240 168l0 24 48 0 0-24c0-45.1-21.2-69-37.7-87.5l-.4-.4C234.5 62.7 224 50.5 224 24zm208 88c-50.7 0-93.6 33.7-107.4 80l214.7 0c-13.8-46.3-56.6-80-107.4-80zM576 224L64 224l1.9 32L48 256l-32 0 0 64 32 0 24.4 0C87.1 387.5 132.1 443.2 192 472.9l0 39.1 256 0 0-39.1c59.9-29.7 104.9-85.4 119.6-152.9l24.4 0 32 0 0-64-32 0-17.9 0 1.9-32z"/></svg>