<svg xmlns="http://www.w3.org/2000/svg" viewBox="0 0 512 512"><!--! Font Awesome Pro 6.6.0 by @fontawesome - https://fontawesome.com License - https://fontawesome.com/license (Commercial License) Copyright 2024 Fonticons, Inc. --><path d="M43.1 260.9L96 208l48-80 80-48 36.9-36.9C288.5 15.5 325.9 0 364.9 0C446.2 0 512 65.8 512 147.1c0 39-15.5 76.4-43.1 104L464 256 384 400 272 448l-20.9 20.9c-27.6 27.6-65 43.1-104 43.1C65.8 512 0 446.2 0 364.9c0-39 15.5-76.4 43.1-104zM408 168l-48 0 0 48 48 0 0-48zM216 200l-48 0 0 48 48 0 0-48zM136 392l0 48 48 0 0-48-48 0z"/></svg>