<svg xmlns="http://www.w3.org/2000/svg" viewBox="0 0 640 512"><!--! Font Awesome Pro 6.6.0 by @fontawesome - https://fontawesome.com License - https://fontawesome.com/license (Commercial License) Copyright 2024 Fonticons, Inc. --><path d="M320 368c0 59.5 29.5 112.1 74.8 144L0 512 0 160l512 0 0 32.7c-5.3-.5-10.6-.7-16-.7c-97.2 0-176 78.8-176 176zM464 80l0 48L48 128l0-48 416 0zM416 0l0 48L96 48 96 0 416 0zM352 368a144 144 0 1 1 288 0 144 144 0 1 1 -288 0zm224.7 77.7L552 416l-112 0-24.7 29.7c20.4 21.2 49 34.3 80.7 34.3s60.3-13.2 80.7-34.3zM544 336a48 48 0 1 0 -96 0 48 48 0 1 0 96 0z"/></svg>