<svg xmlns="http://www.w3.org/2000/svg" viewBox="0 0 512 512"><!--! Font Awesome Pro 6.6.0 by @fontawesome - https://fontawesome.com License - https://fontawesome.com/license (Commercial License) Copyright 2024 Fonticons, Inc. --><path d="M226.2 105.9l-2.3 1.2-1.8 1.8L108.9 222.1l-1.8 1.8-1.2 2.3L16 406.1 16 336C16 159.3 159.3 16 336 16l70.1 0L226.2 105.9zm16.6 27.5L447.2 31.2l33.6 33.6L378.6 269.2 269.2 378.6 64.8 480.8 31.2 447.2 133.4 242.8 242.9 133.4zM105.9 496l179.8-89.9 2.3-1.2 1.8-1.8L403.1 289.9l1.8-1.8 1.2-2.3L496 105.9l0 70.1c0 176.7-143.3 320-320 320l-70.1 0z"/></svg>