<svg xmlns="http://www.w3.org/2000/svg" viewBox="0 0 512 512"><!--! Font Awesome Pro 6.6.0 by @fontawesome - https://fontawesome.com License - https://fontawesome.com/license (Commercial License) Copyright 2024 Fonticons, Inc. --><path d="M384 416l33.9-33.9 60.1-60.1L512 288l-33.9-33.9L416 192l80-80L400 16 320 96 257.9 33.9 224 0 190.1 33.9 129.9 94.1 96 128l33.9 33.9L192 224l-17 17c-24.1-10.9-50.9-17-79-17c-34.5 0-66.9 9.1-94.9 25.1L120.7 368.7 96.3 393.1c-2.6-.7-5.4-1.1-8.3-1.1c-17.7 0-32 14.3-32 32s14.3 32 32 32s32-14.3 32-32c0-2.9-.4-5.6-1.1-8.3l24.4-24.4L262.9 510.9c16-28 25.1-60.4 25.1-94.9c0-28.2-6.1-54.9-17-79l17-17 62.1 62.1L384 416zM321.9 286.1l60.1-60.1L444.1 288 384 348.1l-62.1-62.1zm-96-96L163.9 128 224 67.9l62.1 62.1-60.1 60.1z"/></svg>