<svg xmlns="http://www.w3.org/2000/svg" viewBox="0 0 640 512"><!--! Font Awesome Pro 6.6.0 by @fontawesome - https://fontawesome.com License - https://fontawesome.com/license (Commercial License) Copyright 2024 Fonticons, Inc. --><path d="M640 512l-256 0 0-96c0-35.3-28.7-64-64-64s-64 28.7-64 64l0 96L0 512 0 96l160 0L320 0 480 96l160 0 0 416zM144 192l-64 0 0 96 64 0 0-96zm352 0l0 96 64 0 0-96-64 0zM144 320l-64 0 0 96 64 0 0-96zm352 0l0 96 64 0 0-96-64 0zM408 176a88 88 0 1 0 -176 0 88 88 0 1 0 176 0zm-72-48l0 16 0 16 16 0 16 0 0 32-16 0-32 0-16 0 0-16 0-32 0-16 32 0z"/></svg>