<svg xmlns="http://www.w3.org/2000/svg" viewBox="0 0 640 512"><!--! Font Awesome Pro 6.6.0 by @fontawesome - https://fontawesome.com License - https://fontawesome.com/license (Commercial License) Copyright 2024 Fonticons, Inc. --><path d="M640 512l-42.8 0s0 0 0 0l42.8 0s0 0 0 0zm-245.2 0s0 0 0 0L384 512s0 0 0 0l10.8 0zM576 211.2c25.6 13.1 47.6 32.2 64 55.6L640 96 480 96 320 0 160 96 0 96 0 512l256 0 0-96c0-35.3 28.7-64 64-64c0 0 0 0 0 0s0 0 0 0l.7 0c3.4-37.7 18.7-72.1 42.2-99.1C350.2 260 335.6 264 320 264c-48.6 0-88-39.4-88-88s39.4-88 88-88s88 39.4 88 88c0 18.3-5.6 35.3-15.1 49.4c16.5-11.9 35.1-21.1 55.1-26.8l0-38.6 128 0 0 51.2zM144 192l0 96-64 0 0-96 64 0zm0 128l0 96-64 0 0-96 64 0zM336 128l-32 0 0 16 0 32 0 16 16 0 32 0 16 0 0-32-16 0-16 0 0-16 0-16zM640 368a144 144 0 1 0 -288 0 144 144 0 1 0 288 0zm-65.4-32l-11.3 11.3-72 72L480 430.6l-11.3-11.3-40-40L417.4 368 440 345.4l11.3 11.3L480 385.4l60.7-60.7L552 313.4 574.6 336z"/></svg>