<svg xmlns="http://www.w3.org/2000/svg" viewBox="0 0 512 512"><!--! Font Awesome Pro 6.6.0 by @fontawesome - https://fontawesome.com License - https://fontawesome.com/license (Commercial License) Copyright 2024 Fonticons, Inc. --><path d="M400 0L366.1 33.9l-6.9 6.9c-14.9 14.9-23.2 35-23.2 56c0 13.1 3.2 25.5 8.8 36.4L255 223l-63-63L0 304 208 512 352 320l-63-63 89.8-89.8c10.9 5.7 23.3 8.8 36.4 8.8c21 0 41.1-8.3 56-23.2l6.9-6.9L512 112 478.1 78.1 433.9 33.9 400 0zm0 67.9L444.1 112l-6.9 6.9c-5.8 5.9-13.8 9.1-22.1 9.1C398 128 384 114 384 96.8c0-8.3 3.3-16.2 9.1-22.1l6.9-6.9zM203.3 267.3l-72 72L120 350.6 97.4 328l11.3-11.3 72-72L192 233.4 214.6 256l-11.3 11.3zm64 64l-72 72L184 414.6 161.4 392l11.3-11.3 72-72L256 297.4 278.6 320l-11.3 11.3z"/></svg>