<svg xmlns="http://www.w3.org/2000/svg" viewBox="0 0 512 512"><!--! Font Awesome Pro 6.6.0 by @fontawesome - https://fontawesome.com License - https://fontawesome.com/license (Commercial License) Copyright 2024 Fonticons, Inc. --><path d="M64 0L96 0 368 0l13.3 0 9.4 9.4 48 48 9.4 9.4L448 80l0 112 64 0 0 192L0 384 0 192l64 0L64 32 64 0zM384 93.3L354.7 64 128 64l0 128 256 0 0-98.7zM456 248l-48 0 0 48 48 0 0-48zM40 416l48 0 0 72 0 24-48 0 0-24 0-72zm96 0l48 0 0 72 0 24-48 0 0-24 0-72zm96 0l48 0 0 72 0 24-48 0 0-24 0-72zm96 0l48 0 0 72 0 24-48 0 0-24 0-72zm96 0l48 0 0 72 0 24-48 0 0-24 0-72z"/></svg>