<svg xmlns="http://www.w3.org/2000/svg" viewBox="0 0 512 512"><!--! Font Awesome Pro 6.6.0 by @fontawesome - https://fontawesome.com License - https://fontawesome.com/license (Commercial License) Copyright 2024 Fonticons, Inc. --><path d="M16 32L0 32 0 48l0 96 0 16 16 0 49 0c3.7 88.9 77 160 167 160l56 0 0-192-24 0L88.8 128 32 128l0-64 432 0 16 0 0-32-16 0L16 32zM320 320l18.3 0c9.9 0 19.1 3.2 26.6 8.5l133.5-92.4C471.8 172.6 409.1 128 336 128l-16 0 0 192zm62.8 35.1c.8 3.4 1.2 7 1.2 10.6c0 4.6-.7 9-1.9 13.1L472.6 415c24.6-30.3 39.4-68.9 39.4-111c0-12.3-1.3-24.3-3.7-35.9L382.8 355.1zm-21.2 50c-3 1.8-6.2 3.2-9.6 4.3l0 69.9c36.4-3.3 69.5-17.6 96.1-39.6l-86.5-34.6zM320 407.8l-64.1-22.4L224 374.2l0 33.8 0 48 0 24 24 0 72 0 0-72.2zM168 192a24 24 0 1 1 48 0 24 24 0 1 1 -48 0z"/></svg>