<svg xmlns="http://www.w3.org/2000/svg" viewBox="0 0 640 512"><!--! Font Awesome Pro 6.6.0 by @fontawesome - https://fontawesome.com License - https://fontawesome.com/license (Commercial License) Copyright 2024 Fonticons, Inc. --><path d="M256 32l0-32L192 0l0 32 0 30.1-8.6-8.6-17-17L132.4 70.4l17 17L192 129.9l0 70.6-61.2-35.3-15.6-58.2L109 83.9 62.7 96.3l6.2 23.2L72 131.3l-12.2-7-27.7-16L.1 163.7l27.7 16 12.2 7-11.8 3.2L5.1 196.1l12.4 46.4 23.2-6.2 58.2-15.6L160 256 98.8 291.3 40.7 275.7l-23.2-6.2L5.1 315.9l23.2 6.2L40 325.3l-12.2 7L.1 348.3l32 55.4 27.7-16 12.2-7-3.2 11.8-6.2 23.2L109 428.1l6.2-23.2 15.6-58.2L192 311.4l0 70.6-42.6 42.6-17 17 33.9 33.9 17-17 8.6-8.6 0 30.1 0 32 64 0 0-32 0-30.1 8.6 8.6 17 17 33.9-33.9-17-17L256 382.1l0-70.6 61.2 35.3 15.6 58.2 6.2 23.2 46.4-12.4-6.2-23.2-3.2-11.8 12.2 7 27.7 16 32-55.4-27.7-16-12.2-7 11.8-3.2 23.2-6.2-12.4-46.4-23.2 6.2-58.2 15.6L288 256l61.2-35.3 58.2 15.6 23.2 6.2 12.4-46.4-23.2-6.2-11.8-3.2 12.2-7 27.7-16-32-55.4-27.7 16-12.2 7 3.2-11.8 6.2-23.2L338.9 83.9l-6.2 23.2-15.6 58.2L256 200.6l0-70.6 42.6-42.6 17-17L281.6 36.5l-17 17L256 62.1 256 32zM510.1 64L482.2 91.8l33.9 33.9L544 97.9l27.8 27.8 33.9-33.9L577.9 64l27.8-27.8L571.8 2.2 544 30.1 516.2 2.2 482.2 36.2 510.1 64zm37.1 129.3l-33.9 33.9 17 17L542.1 256l-11.8 11.8-17 17 33.9 33.9 17-17L576 289.9l11.8 11.8 17 17 33.9-33.9-17-17L609.9 256l11.8-11.8 17-17-33.9-33.9-17 17L576 222.1l-11.8-11.8-17-17z"/></svg>