<svg xmlns="http://www.w3.org/2000/svg" viewBox="0 0 512 512"><!--! Font Awesome Pro 6.6.0 by @fontawesome - https://fontawesome.com License - https://fontawesome.com/license (Commercial License) Copyright 2024 Fonticons, Inc. --><path d="M0 118.7l0 21.2 1.2 3.7 24 72L29 227l11.4 3.8L116.1 256 40.4 281.2 29 285l-3.8 11.4-24 72L0 372.1l0 21.2 39.2 13.1 7.6-22.8L67 323l84.2-28.1L79 367 67.7 378.4l6.2 14.8 40 96 9.2 22.2 44.3-18.5-9.2-22.2-33.8-81.2L160 353.9c1 52.1 43.6 94.1 96 94.1s95-41.9 96-94.1l35.7 35.7-33.8 81.2-9.2 22.2 44.3 18.5 9.2-22.2 40-96 6.2-14.8L433 367l-72.1-72.1L445 323l20.2 60.6 7.6 22.8L512 393.3l0-21.2-1.2-3.7-24-72L483 285l-11.4-3.8L395.9 256l75.7-25.2L483 227l3.8-11.4 24-72 1.2-3.7 0-21.2-39.2-13.1-7.6 22.8L445 189l-84.2 28.1L433 145l11.4-11.4-6.2-14.8-40-96L388.9 .6 344.6 19.1l9.2 22.2 33.8 81.2L336 174.1l0-14.1c0-38.7-27.5-71-64-78.4l0 46.4-32 0 0-46.4c-36.5 7.4-64 39.7-64 78.4l0 14.1-51.7-51.7 33.8-81.2 9.2-22.2L123.1 .6l-9.2 22.2-40 96-6.2 14.8L79 145l72.1 72.1L67 189 46.8 128.4l-7.6-22.8L0 118.7zM216 288l80 0 0 16-24 32 24 32 0 16-80 0 0-16 24-32-24-32 0-16z"/></svg>