<svg xmlns="http://www.w3.org/2000/svg" viewBox="0 0 576 512"><!--! Font Awesome Pro 6.6.0 by @fontawesome - https://fontawesome.com License - https://fontawesome.com/license (Commercial License) Copyright 2024 Fonticons, Inc. --><path d="M142 .1l23.1 4.3L288 27.5l122.8-23L434 .1l8.3 22 46.3 123.6 77 92.4L580.4 256l-14.9 17.9-77 92.4L442.2 489.8l-8.3 22-23.1-4.3L288 484.5l-122.8 23L142 511.9l-8.3-22L87.4 366.3l-77-92.4L-4.4 256l14.9-17.9 77-92.4L133.8 22.2 142 .1zm25.1 92.7l-28.9 77-1.7 4.4-3 3.6L88.4 232l44.7 0 34.8-39.8 21.4-60.6L167.1 92.8zm42.1-23.1l21.5 37.5L288 123.9l57.4-16.6 21.5-37.5L293.2 83.5l-5.2 1-5.2-1L209.2 69.7zM408.9 92.8l-22.2 38.8 21.4 60.6L442.9 232l44.7 0-45.1-54.1-3-3.6-1.7-4.4-28.9-77zM487.6 280l-44.7 0-34.7 39.6-20.9 61.7 21.6 37.9 28.9-77 1.7-4.4 3-3.6L487.6 280zM366.8 442.3l-19.6-34.2-59.7-19.8-56.9 16.5-21.5 37.5 73.6-13.8 5.2-1 5.2 1 73.6 13.8zM167.1 419.2l22.2-38.8-21.4-60.6L133.1 280l-44.7 0 45.1 54.1 3 3.6 1.7 4.4 28.9 77zM196.9 280l10.2 11.6 3 3.5 1.5 4.4 9.1 25.9L246.6 280l-49.8 0zm68 64.9l16.5-4.8 7.2-2.1 7.1 2.3 16.1 5.3L288 304.4l-23.1 40.5zm90.6-19.2l8.8-26 1.5-4.5 3.1-3.6L379.1 280l-49.8 0 26.1 45.7zM379.1 232l-10.2-11.6-3-3.5-1.5-4.4-9.1-25.9L329.4 232l49.8 0zm-68-64.9l-16.5 4.8-6.7 1.9-6.7-1.9-16.5-4.8L288 207.6l23.1-40.5zm-90.4 19.5l-9.1 25.9-1.5 4.4-3 3.5L196.9 232l49.8 0-25.9-45.3z"/></svg>