<svg xmlns="http://www.w3.org/2000/svg" viewBox="0 0 448 512"><!--! Font Awesome Pro 6.6.0 by @fontawesome - https://fontawesome.com License - https://fontawesome.com/license (Commercial License) Copyright 2024 Fonticons, Inc. --><path d="M448 480l0-448L0 32 0 480l448 0zM384 304l0 64-32 0-32 0 0 16 0 32-64 0 0-32 0-16L96 368l-32 0 0-64 32 0 160 0 0-16 0-32 64 0 0 32 0 16 32 0 32 0zM352 144l32 0 0 64-32 0-160 0 0 16 0 32-64 0 0-32 0-16-32 0-32 0 0-64 32 0 32 0 0-16 0-32 64 0 0 32 0 16 160 0z"/></svg>