<svg xmlns="http://www.w3.org/2000/svg" viewBox="0 0 640 512"><!--! Font Awesome Pro 6.6.0 by @fontawesome - https://fontawesome.com License - https://fontawesome.com/license (Commercial License) Copyright 2024 Fonticons, Inc. --><path d="M29.4 .1l19 14.7L70.5 32 608 32l0 417.3 12.9 10 19 14.7-29.4 37.9-19-14.7L19 52.7 0 38 29.4 .1zM384 275.4L400.3 288l7.7 0 80 0 24 0 0-48-24 0-80 0-24 0 0 35.4zm128 99.4l0-38.7-24 0-25.9 0L512 374.7zM32 121.2L182.8 240 152 240l-24 0 0 48 24 0 91.7 0 60.9 48L288 336l0 48 24 0 53.5 0 121.8 96L32 480l0-358.8zM128 336l0 48 24 0 80 0 24 0 0-48-24 0-80 0-24 0z"/></svg>