<svg xmlns="http://www.w3.org/2000/svg" viewBox="0 0 640 512"><!--! Font Awesome Pro 6.6.0 by @fontawesome - https://fontawesome.com License - https://fontawesome.com/license (Commercial License) Copyright 2024 Fonticons, Inc. --><path d="M194.4 76.9L160 0 125.6 76.9 46.9 46.9l30.1 78.7L0 160l76.9 34.4L46.9 273.1l78.7-30.1L160 320l34.4-76.9 78.7 30.1-30.1-78.7L320 160l-76.9-34.4 30.1-78.7L194.4 76.9zM160 96a64 64 0 1 1 0 128 64 64 0 1 1 0-128zm32 64a32 32 0 1 0 -64 0 32 32 0 1 0 64 0zm312 16c0-17.7 14.3-32 32-32s32 14.3 32 32l0 53.4c-14.8 7.7-24 23.1-24 44.6c0 19.5 21.5 52.9 48 78c26.5-25 48-58.7 48-78c0-21.5-9.2-37-24-44.6l0-53.4c0-44.2-35.8-80-80-80s-80 35.8-80 80l0 22.7c-9.8-4.3-20.6-6.7-32-6.7c-44.2 0-80 35.8-80 80l0 21.4c-14.8 7.7-24 23.1-24 44.6c0 19.5 21.5 52.9 48 78c26.5-25 48-58.7 48-78c0-21.5-9.2-37-24-44.6l0-21.4c0-17.7 14.3-32 32-32s32 14.3 32 32l0 8 0 168L32 448 0 448l0 64 32 0 576 0 32 0 0-64-32 0-104 0 0-168 0-8 0-96z"/></svg>