<svg xmlns="http://www.w3.org/2000/svg" viewBox="0 0 512 512"><!--! Font Awesome Pro 6.6.0 by @fontawesome - https://fontawesome.com License - https://fontawesome.com/license (Commercial License) Copyright 2024 Fonticons, Inc. --><path d="M256 73.1L150 0 126.7 126.7 0 150 73.1 256 0 362l126.7 23.3s0 0 0 0l38.8-38.8C142.3 323.3 128 291.3 128 256c0-70.7 57.3-128 128-128c35.3 0 67.4 14.3 90.5 37.5l38.8-38.8s0 0 0 0L362 0 256 73.1zM188.1 323.9L323.9 188.1C306.5 170.7 282.5 160 256 160c-53 0-96 43-96 96c0 26.5 10.7 50.5 28.1 67.9zM512 160a32 32 0 1 0 -64 0 32 32 0 1 0 64 0zm-80 80a32 32 0 1 0 -64 0 32 32 0 1 0 64 0zm48 112a32 32 0 1 0 0-64 32 32 0 1 0 0 64zM240 432a32 32 0 1 0 0-64 32 32 0 1 0 0 64zm-80 80a32 32 0 1 0 0-64 32 32 0 1 0 0 64zm192-32a32 32 0 1 0 -64 0 32 32 0 1 0 64 0zm128 32a32 32 0 1 0 0-64 32 32 0 1 0 0 64zM432 400a32 32 0 1 0 -64 0 32 32 0 1 0 64 0zM320 352a32 32 0 1 0 0-64 32 32 0 1 0 0 64z"/></svg>