<svg xmlns="http://www.w3.org/2000/svg" viewBox="0 0 512 512"><!--! Font Awesome Pro 6.6.0 by @fontawesome - https://fontawesome.com License - https://fontawesome.com/license (Commercial License) Copyright 2024 Fonticons, Inc. --><path d="M416 288c-50.1 0-93.6 28.8-114.6 70.8L68.9 126.3l60.7-60.7c87.5-87.5 229.3-87.5 316.8 0c67.1 67.1 82.7 166.3 46.8 248.3C471.8 297.6 445 288 416 288zM46.3 148.9L290.1 392.7c-1.4 7.5-2.1 15.3-2.1 23.3c0 23.3 6.2 45.2 17.1 64L240 480l-75.4-75.4L64 512 0 448 107.4 347.4 32 272l0-108.8 14.3-14.3zM416 320a96 96 0 1 1 0 192 96 96 0 1 1 0-192z"/></svg>