<svg xmlns="http://www.w3.org/2000/svg" viewBox="0 0 512 512"><!--! Font Awesome Pro 6.6.0 by @fontawesome - https://fontawesome.com License - https://fontawesome.com/license (Commercial License) Copyright 2024 Fonticons, Inc. --><path d="M416 64a32 32 0 1 1 0 64 32 32 0 1 1 0-64zm0 128A96 96 0 1 0 416 0a96 96 0 1 0 0 192zM81.8 317.8L96 300.2l0-22.7L96 64l96 0 0 213.5 0 22.7 14.2 17.6C217.4 331.5 224 348.9 224 368c0 44.2-35.8 80-80 80s-80-35.8-80-80c0-19.1 6.6-36.5 17.8-50.3zM256 0L192 0 96 0 32 0l0 64 0 213.5C12 302.2 0 333.7 0 368c0 79.5 64.5 144 144 144s144-64.5 144-144c0-34.3-12-65.8-32-90.5L256 64l0-64zM144 416c26.5 0 48-21.5 48-48c0-20.9-13.4-38.7-32-45.3L160 112l0-16-32 0 0 16 0 210.8c-18.6 6.6-32 24.4-32 45.3c0 26.5 21.5 48 48 48z"/></svg>