<svg xmlns="http://www.w3.org/2000/svg" viewBox="0 0 576 512"><!--! Font Awesome Pro 6.6.0 by @fontawesome - https://fontawesome.com License - https://fontawesome.com/license (Commercial License) Copyright 2024 Fonticons, Inc. --><path d="M109.8 52.2L89.9 72l396.1 0L466.2 52.2l-17-17L483.2 1.3l17 17L561 79l17 17-17 17-60.8 60.8-17 17-33.9-33.9 17-17L486.1 120 89.9 120l19.8 19.8 17 17L92.8 190.7l-17-17L15 113l-17-17L15 79 75.8 18.2l17-17 33.9 33.9-17 17zM64 512L96 288 288 160 480 288l32 224-128 0L288 352l0 160L64 512z"/></svg>