<svg xmlns="http://www.w3.org/2000/svg" viewBox="0 0 512 512"><!--! Font Awesome Pro 6.6.0 by @fontawesome - https://fontawesome.com License - https://fontawesome.com/license (Commercial License) Copyright 2024 Fonticons, Inc. --><path d="M256 0c-53.7 0-99.7 33.1-118.7 80L128 80C57.3 80 0 137.3 0 208s57.3 128 128 128l44.8 0c16.6 28.7 47.6 48 83.2 48s66.6-19.3 83.2-48l44.8 0c70.7 0 128-57.3 128-128s-57.3-128-128-128l-9.3 0c-19-46.9-65-80-118.7-80zM0 448l0 64 64 0 0-64L0 448zm184-56l-80 0 0 80 80 0 0-80z"/></svg>