<svg xmlns="http://www.w3.org/2000/svg" viewBox="0 0 512 512"><!--! Font Awesome Pro 6.6.0 by @fontawesome - https://fontawesome.com License - https://fontawesome.com/license (Commercial License) Copyright 2024 Fonticons, Inc. --><path d="M152 32l-24 0 0 24 0 72-48 0L0 208 0 320l128 0 0-32 0-32 64 0 0 32 0 32 128 0 0-32 0-32 64 0 0 32 0 32 128 0 0-112-80-80-48 0 0-72 0-24-24 0L152 32zm184 96l-160 0 0-48 160 0 0 48zM0 480l512 0 0-128-128 0 0 32-64 0 0-32-128 0 0 32-64 0 0-32L0 352 0 480z"/></svg>