<svg xmlns="http://www.w3.org/2000/svg" viewBox="0 0 448 512"><!--! Font Awesome Pro 6.6.0 by @fontawesome - https://fontawesome.com License - https://fontawesome.com/license (Commercial License) Copyright 2024 Fonticons, Inc. --><path d="M72 0L63.3 0 56.6 5.6l-48 40L39.4 82.4 80.7 48 200 48l0 48L64 96l0 352 40 0L40 512l80 0 64-64 80 0 64 64 80 0-64-64 40 0 0-352L248 96l0-48 119.3 0 41.3 34.4 30.7-36.9-48-40L384.7 0 376 0 72 0zm56 160l192 0 0 96-192 0 0-96zm32 160a32 32 0 1 1 0 64 32 32 0 1 1 0-64zm96 32a32 32 0 1 1 64 0 32 32 0 1 1 -64 0z"/></svg>