<svg xmlns="http://www.w3.org/2000/svg" viewBox="0 0 640 512"><!--! Font Awesome Pro 6.6.0 by @fontawesome - https://fontawesome.com License - https://fontawesome.com/license (Commercial License) Copyright 2024 Fonticons, Inc. --><path d="M512 374.7l108.9 84.6 19 14.7-29.4 37.9-19-14.7L19 52.7 0 38 29.4 .1l19 14.7L96 51.8 96 32l128 0L240 0 400 0l16 32 128 0 0 64L153 96l41.2 32L512 128l0 246.7zM304 213.2l32 24.8 0-30.1 0-16-32 0 0 16 0 5.2zm96 74.5l32 24.8L432 208l0-16-32 0 0 16 0 79.8zM512 499.4l0 12.6-384 0 0-315.2 80 63L208 432l0 16 32 0 0-16 0-146.9 64 50.4 0 96.5 0 16 32 0 0-16 0-71.3 64 50.4 0 20.8 0 16 32 0 0-11.6 80 63z"/></svg>