<svg xmlns="http://www.w3.org/2000/svg" viewBox="0 0 640 512"><!--! Font Awesome Pro 6.6.0 by @fontawesome - https://fontawesome.com License - https://fontawesome.com/license (Commercial License) Copyright 2024 Fonticons, Inc. --><path d="M640 0l0 400c0 61.9-50.1 112-112 112c-61.6 0-111.6-49.8-112-111.3L48.6 502.8l-30.8 8.6L.6 449.7l30.8-8.6L352 352.1 352 0 640 0zM576 400a48 48 0 1 0 -96 0 48 48 0 1 0 96 0zM14.8 176.8l77.3-20.7 24.8 92.7 61.8-16.6-24.8-92.7 77.3-20.7 58 216.4-216.4 58-58-216.4z"/></svg>