<svg xmlns="http://www.w3.org/2000/svg" viewBox="0 0 640 512"><!--! Font Awesome Pro 6.6.0 by @fontawesome - https://fontawesome.com License - https://fontawesome.com/license (Commercial License) Copyright 2024 Fonticons, Inc. --><path d="M0 0L416 0l0 96 64 0 13.3 0 9.4 9.4 96 96 9.4 9.4 0 13.3 0 32 0 32 0 64 32 0 0 64-32 0-32 0c0 53-43 96-96 96s-96-43-96-96l-128 0c0 53-43 96-96 96s-96-43-96-96L0 416 0 0zM544 237.3L466.7 160l-2.7 0-48 0 0 96 128 0 0-16 0-2.7zM208 416a48 48 0 1 0 -96 0 48 48 0 1 0 96 0zm272 48a48 48 0 1 0 0-96 48 48 0 1 0 0 96z"/></svg>