<svg xmlns="http://www.w3.org/2000/svg" viewBox="0 0 640 512"><!--! Font Awesome Pro 6.6.0 by @fontawesome - https://fontawesome.com License - https://fontawesome.com/license (Commercial License) Copyright 2024 Fonticons, Inc. --><path d="M0 0L0 48l32 0 0 48L0 96 0 224l384 0 0-128 0-16 0-32 256 0 0-48L0 0zM0 256L0 416l64 0c0 53 43 96 96 96s96-43 96-96l128 0c0 53 43 96 96 96s96-43 96-96l64 0 0-160 0-128 0-32-32 0-48 0c0-17.7-14.3-32-32-32s-32 14.3-32 32l-48 0-32 0 0 144 0 16-16 0L0 256zM280 48l56 0 0 48-56 0 0-48zM232 96l-48 0 0-48 48 0 0 48zM80 48l56 0 0 48L80 96l0-48zM576 160l0 96-96 0 0-96 96 0zM160 368a48 48 0 1 1 0 96 48 48 0 1 1 0-96zm272 48a48 48 0 1 1 96 0 48 48 0 1 1 -96 0z"/></svg>