<svg xmlns="http://www.w3.org/2000/svg" viewBox="0 0 640 512"><!--! Font Awesome Pro 6.6.0 by @fontawesome - https://fontawesome.com License - https://fontawesome.com/license (Commercial License) Copyright 2024 Fonticons, Inc. --><path d="M128 32l32 0 128 0 18.1 0 9.3 15.5L402.1 192l77.9 0 0 96 32 0 0-112 0-8.9 4.6-7.6 48-80L581 52.1 635.9 85l-16.5 27.4L576 184.9 576 288l0 64 0 7.1 43.4 72.4L635.9 459 581 491.9l-16.5-27.4-48-80-4.6-7.6 0-8.9 0-16-37.5 0c3.5 10 5.5 20.8 5.5 32c0 53-43 96-96 96s-96-43-96-96c0-11.2 1.9-22 5.5-32L224 352c-1.9 0-3.8-.2-5.6-.5c3.7 10.2 5.6 21.1 5.6 32.5c0 53-43 96-96 96s-96-43-96-96c0-11.2 1.9-22 5.5-32L0 352 0 192l128 0 0-128 0-32zm64 160l135.5 0L269.9 96 192 96l0 96zM160 384a32 32 0 1 0 -64 0 32 32 0 1 0 64 0zm256 0a32 32 0 1 0 -64 0 32 32 0 1 0 64 0z"/></svg>