<svg xmlns="http://www.w3.org/2000/svg" viewBox="0 0 640 512"><!--! Font Awesome Pro 6.6.0 by @fontawesome - https://fontawesome.com License - https://fontawesome.com/license (Commercial License) Copyright 2024 Fonticons, Inc. --><path d="M584 56c0 5.6-.8 11-2.3 16c.8 0 1.6 0 2.3 0c30.9 0 56 25.1 56 56s-25.1 56-56 56c-20.3 0-38-10.8-47.9-26.9l-47.6 33.6c-30 21.2-46.5 55.8-63 90.3c0 0 0 0 0 0c-8.7 18.2-17.3 36.4-28 52.5c-6.2 9.4-13.9 18.1-23.2 25.6c-48.1 38.9-118.6 31.5-157.5-16.6c-1.2-1.5-2.4-3-3.5-4.6c-8.9-12.2-15-25.7-18.3-39.6c-.8-3.4-1.5-6.8-2-10.3l-32.3 0c2.9 26.4 13.2 52.4 31.2 74.6c50 61.8 140.7 71.4 202.5 21.4c11.8-9.6 21.8-20.7 29.8-32.9c11.8-18 21.3-37.8 29.7-55.4l.4-.9c17.3-36.3 30.6-62.5 52.5-77.9l1.7-1.2C548.7 262.9 576 321 576 384l0 128-288 0L0 512 0 384C0 224 176 96 288 96c39.9 0 87.9 16.2 133.1 44.3L486.8 94C477.6 84 472 70.7 472 56c0-30.9 25.1-56 56-56s56 25.1 56 56z"/></svg>