<svg xmlns="http://www.w3.org/2000/svg" viewBox="0 0 576 512"><!--! Font Awesome Pro 6.6.0 by @fontawesome - https://fontawesome.com License - https://fontawesome.com/license (Commercial License) Copyright 2024 Fonticons, Inc. --><path d="M384 288L32 288l0-80c0-97.2 78.8-176 176-176s176 78.8 176 176l0 80zm192 0l-96 0 0 64 0 32-32 0-96 0 0 96-128 0 0-96-32 0 0 96L64 480l0-96-32 0L0 384l0-64 32 0 32 0 128 0 32 0 128 0 64 0 0-96 0-32 0-80 64 0c53 0 96 43 96 96l0 80zm-80-64a16 16 0 1 0 0-32 16 16 0 1 0 0 32z"/></svg>