<svg xmlns="http://www.w3.org/2000/svg" viewBox="0 0 448 512"><!--! Font Awesome Pro 6.6.0 by @fontawesome - https://fontawesome.com License - https://fontawesome.com/license (Commercial License) Copyright 2024 Fonticons, Inc. --><path d="M80 99.2L80 128c16 10.7 67.2 32 144 32s128-21.3 144-32l0-28.8L400 80l0-32L224 0 48 48l0 32L80 99.2zm88.8-40.7l14.3 7.2L224 86.1l40.8-20.4 14.3-7.2 14.3 28.6-14.3 7.2-48 24-7.2 3.6-7.2-3.6-48-24-14.3-7.2 14.3-28.6zM98.1 168.8C96.7 176.3 96 184.1 96 192c0 70.7 57.3 128 128 128s128-57.3 128-128c0-7.9-.7-15.7-2.1-23.2C310.8 183.8 268.4 192 224 192s-86.8-8.2-125.9-23.2zM448 512L400 352l-80 0L252.2 464.9 240 416l32-64-96 0 32 64-12.2 48.9L128 352l-80 0L0 512l192 0 64 0 192 0zM320 416l16 0 32 0 16 0 0 32-16 0-32 0-16 0 0-32z"/></svg>