<svg xmlns="http://www.w3.org/2000/svg" viewBox="0 0 448 512"><!--! Font Awesome Pro 6.6.0 by @fontawesome - https://fontawesome.com License - https://fontawesome.com/license (Commercial License) Copyright 2024 Fonticons, Inc. --><path d="M304 144l0-16c0-11.4-2.4-22.2-6.7-32L256 96 240 80l-32 32-62.4 0c-1 5.2-1.6 10.5-1.6 16l0 16c0 44.2 35.8 80 80 80s80-35.8 80-80zM224 0c70.7 0 128 57.3 128 128l0 16c0 70.7-57.3 128-128 128s-128-57.3-128-128l0-16C96 57.3 153.3 0 224 0zM160 370.3l0-50.3 128 0 0 42c-27.6 7.1-48 32.2-48 62l0 40 0 16 16 0 16 0 16 0 0-32-16 0 0-24c0-17.7 14.3-32 32-32s32 14.3 32 32l0 24-16 0 0 32 16 0 16 0 16 0 0-16 0-40c0-29.8-20.4-54.9-48-62l0-42 80 0 48 192L0 512 48 320l80 0 0 50.3c-23.1 6.9-40 28.3-40 53.7c0 30.9 25.1 56 56 56s56-25.1 56-56c0-25.4-16.9-46.8-40-53.7zM120 424a24 24 0 1 1 48 0 24 24 0 1 1 -48 0z"/></svg>