<svg xmlns="http://www.w3.org/2000/svg" viewBox="0 0 448 512"><!--! Font Awesome Pro 6.6.0 by @fontawesome - https://fontawesome.com License - https://fontawesome.com/license (Commercial License) Copyright 2024 Fonticons, Inc. --><path d="M304 144c0 44.2-35.8 80-80 80s-80-35.8-80-80l0-16c0-5.5 .6-10.8 1.6-16l62.4 0 32-32 16 16 41.3 0c4.3 9.8 6.7 20.6 6.7 32l0 16zM224 0C153.3 0 96 57.3 96 128l0 16 0 48L48 240l0 32 176 0 176 0 0-32-48-48 0-48 0-16C352 57.3 294.7 0 224 0zM160 370.3c23.1 6.9 40 28.3 40 53.7c0 30.9-25.1 56-56 56s-56-25.1-56-56c0-25.4 16.9-46.8 40-53.7l0-50.3-80 0L0 512l448 0L400 320l-80 0 0 42c27.6 7.1 48 32.2 48 62l0 40 0 16-16 0-16 0-16 0 0-32 16 0 0-24c0-17.7-14.3-32-32-32s-32 14.3-32 32l0 24 16 0 0 32-16 0-16 0-16 0 0-16 0-40c0-29.8 20.4-54.9 48-62l0-42-128 0 0 50.3zm8 53.7a24 24 0 1 0 -48 0 24 24 0 1 0 48 0z"/></svg>