<svg xmlns="http://www.w3.org/2000/svg" viewBox="0 0 448 512"><!--! Font Awesome Pro 6.6.0 by @fontawesome - https://fontawesome.com License - https://fontawesome.com/license (Commercial License) Copyright 2024 Fonticons, Inc. --><path d="M400 80l0 32-32 0 0-32 32 0zM368 32l-48 0 0 32L128 64l0-32L80 32 48 32 0 32 0 80l0 32 0 48 32 0 0 192L0 352l0 48 0 32 0 48 48 0 32 0 48 0 0-32 192 0 0 32 48 0 32 0 48 0 0-48 0-32 0-48-32 0 0-192 32 0 0-48 0-32 0-48-48 0-32 0zM96 160l32 0 0-32 192 0 0 32 32 0 0 192-32 0 0 32-192 0 0-32-32 0 0-192zM80 400l0 32-32 0 0-32 32 0zm288 0l32 0 0 32-32 0 0-32zM48 80l32 0 0 32-32 0 0-32z"/></svg>