<svg xmlns="http://www.w3.org/2000/svg" viewBox="0 0 448 512"><!--! Font Awesome Pro 6.6.0 by @fontawesome - https://fontawesome.com License - https://fontawesome.com/license (Commercial License) Copyright 2024 Fonticons, Inc. --><path d="M207.1 237.4L151.2 69.7C168.7 79.8 192.7 88 224 88s55.3-8.2 72.8-18.3L224 288l0 224 224 0 0-256-64-96 0-32 0-104 0-24L360 0 320 0l-7 0L299.6 0l-6.9 11.1-.3 .4c-.4 .6-1.2 1.5-2.3 2.8c-2.3 2.6-6.1 6.3-11.5 10.1C268.1 31.8 250.6 40 224 40s-44.1-8.2-54.7-15.6c-5.4-3.8-9.2-7.5-11.5-10.1c-1.1-1.3-1.9-2.3-2.3-2.8l-.3-.4L148.4 0 135 0l-7 0L88 0 64 0l0 24 0 104 0 32L0 256 0 512l192 0 0-224 0-5.2 1.6-4.9 13.5-40.5zM336 345.4l11.3 11.3 48 48L406.6 416 384 438.6l-11.3-11.3-48-48L313.4 368 336 345.4zM100.7 356.7L112 345.4 134.6 368l-11.3 11.3-48 48L64 438.6 41.4 416l11.3-11.3 48-48z"/></svg>