<svg xmlns="http://www.w3.org/2000/svg" viewBox="0 0 640 512"><!--! Font Awesome Pro 6.6.0 by @fontawesome - https://fontawesome.com License - https://fontawesome.com/license (Commercial License) Copyright 2024 Fonticons, Inc. --><path d="M520 48a24 24 0 1 0 0-48 24 24 0 1 0 0 48zM333.8 52.2l17-17L316.8 1.3l-17 17L18.2 299.8l-17 17 33.9 33.9 17-17L333.8 52.2zM472 96a24 24 0 1 0 0-48 24 24 0 1 0 0 48zm120 72a24 24 0 1 0 -48 0 24 24 0 1 0 48 0zm48-48a24 24 0 1 0 -48 0 24 24 0 1 0 48 0zM614.6 70.6L637.3 48 592 2.7 569.4 25.4 417 177.7C398 166.5 375.7 160 352 160c-25.4 0-49.1 7.4-69 20.2c3.2 8.7 5 18.1 5 27.8c0 44.2-35.8 80-80 80c-16.7 0-32.3-5.1-45.1-13.9c-21.7 25.2-34.9 58-34.9 93.9c0 17 2.9 33.2 8.3 48.4L188 375l22.4-17.9 20.3 20.3 32 32 20.3 20.3L265 452l-41.4 51.7c15.1 5.4 31.4 8.3 48.4 8.3c35.9 0 68.7-13.1 93.9-34.9C357.1 464.3 352 448.7 352 432c0-44.2 35.8-80 80-80c9.8 0 19.2 1.8 27.8 5c12.8-19.9 20.2-43.6 20.2-69c0-23.7-6.5-46-17.7-65L614.6 70.6zM208 400s0 0 0 0l-80 64 48 48 18.2-22.8s0 0 0 0l1.9-2.4L240 432l-32-32s0 0 0 0z"/></svg>