<svg xmlns="http://www.w3.org/2000/svg" viewBox="0 0 512 512"><!--! Font Awesome Pro 6.6.0 by @fontawesome - https://fontawesome.com License - https://fontawesome.com/license (Commercial License) Copyright 2024 Fonticons, Inc. --><path d="M0 256a256 256 0 1 1 512 0A256 256 0 1 1 0 256zM176 80l-32 0 0 16 0 48-48 0-16 0 0 32 16 0 48 0 0 64-80 0-16 0 0 32 16 0 80 0 0 64-48 0-16 0 0 32 16 0 48 0 0 48 0 16 32 0 0-16 0-48 64 0 0 80 0 16 32 0 0-16 0-80 64 0 0 48 0 16 32 0 0-16 0-48 48 0 16 0 0-32-16 0-48 0 0-64 80 0 16 0 0-32-16 0-80 0 0-64 48 0 16 0 0-32-16 0-48 0 0-48 0-16-32 0 0 16 0 48-64 0 0-80 0-16-32 0 0 16 0 80-64 0 0-48 0-16zm0 256l0-64 64 0 0 64-64 0zm96 0l0-64 64 0 0 64-64 0zm64-160l0 64-64 0 0-64 64 0zm-96 0l0 64-64 0 0-64 64 0z"/></svg>