<svg xmlns="http://www.w3.org/2000/svg" viewBox="0 0 576 512"><!--! Font Awesome Pro 6.6.0 by @fontawesome - https://fontawesome.com License - https://fontawesome.com/license (Commercial License) Copyright 2024 Fonticons, Inc. --><path d="M0 336l0-32 32 0c35.3 0 64-28.7 64-64C96 125.1 189.1 32 304 32c84.7 0 157.6 50.7 190 123.2l-38.6 27.1C441 168.5 421.5 160 400 160c-44.2 0-80 35.8-80 80c0 35.3 28.7 64 64 64c0 0 0 0 0 0c19.3 0 38.6-6.1 54-13.1c14.9-6.8 26.9-15.4 40-24.7l2.1-1.5 2.1 1.5c13.1 9.3 25.1 18 40 24.7c15.4 7 34.7 13.1 54 13.1l0 32 0 32 0 10.6c-28.7 0-55.1-8.9-73.8-17.4c-5.5-2.5-10.3-5-14.5-7.2l-7.6-4.1-7.6 4.1c-4.2 2.3-9.1 4.8-14.5 7.2c-18.7 8.5-45.1 17.4-73.8 17.4s-55.1-8.9-73.8-17.4c-5.5-2.5-10.3-5-14.5-7.2l-7.6-4.1-7.6 4.1c-4.2 2.3-9.1 4.8-14.5 7.2c-18.7 8.5-45.1 17.4-73.8 17.4s-55.1-8.9-73.8-17.4c-5.5-2.5-10.3-5-14.5-7.2L96 349.8l-7.6 4.1c-4.2 2.3-9.1 4.8-14.5 7.2C55.1 369.7 28.7 378.6 0 378.6L0 368l0-32zm0 74.6c35 0 66.1-10.8 87.1-20.3c3.2-1.4 6.1-2.9 8.9-4.3c2.8 1.4 5.8 2.8 8.9 4.3c20.9 9.5 52 20.3 87.1 20.3s66.1-10.8 87.1-20.3c3.2-1.4 6.1-2.9 8.9-4.3c2.8 1.4 5.8 2.8 8.9 4.3c20.9 9.5 52 20.3 87.1 20.3s66.1-10.8 87.1-20.3c3.2-1.4 6.1-2.9 8.9-4.3c2.8 1.4 5.8 2.8 8.9 4.3c21 9.5 52 20.3 87.1 20.3l0 5.4 0 32 0 32c-31.9 0-60.6-9.9-80.4-18.9c-5.8-2.7-11.1-5.3-15.6-7.7c-4.5 2.4-9.7 5.1-15.6 7.7c-19.8 9-48.5 18.9-80.4 18.9s-60.6-9.9-80.4-18.9c-5.8-2.7-11.1-5.3-15.6-7.7c-4.5 2.4-9.7 5.1-15.6 7.7c-19.8 9-48.5 18.9-80.4 18.9s-60.6-9.9-80.4-18.9c-5.8-2.7-11.1-5.3-15.6-7.7c-4.5 2.4-9.7 5.1-15.6 7.7C60.6 470.1 31.9 480 0 480l0-32 0-32 0-5.4z"/></svg>