<svg xmlns="http://www.w3.org/2000/svg" viewBox="0 0 512 512"><!--! Font Awesome Pro 6.6.0 by @fontawesome - https://fontawesome.com License - https://fontawesome.com/license (Commercial License) Copyright 2024 Fonticons, Inc. --><path d="M288 0l0 64 32 0 32 0c17.7 0 32 14.3 32 32s-14.3 32-32 32L32 128 0 128l0 64 32 0 320 0c53 0 96-43 96-96s-43-96-96-96L320 0 288 0zm64 416l32 0 32 0c53 0 96-43 96-96s-43-96-96-96L32 224 0 224l0 64 32 0 384 0c17.7 0 32 14.3 32 32s-14.3 32-32 32l-32 0-32 0 0 64zM128 512l32 0c53 0 96-43 96-96s-43-96-96-96L32 320 0 320l0 64 32 0 128 0c17.7 0 32 14.3 32 32s-14.3 32-32 32l-32 0-32 0 0 64 32 0z"/></svg>