<svg xmlns="http://www.w3.org/2000/svg" viewBox="0 0 512 512"><!--! Font Awesome Pro 6.6.0 by @fontawesome - https://fontawesome.com License - https://fontawesome.com/license (Commercial License) Copyright 2024 Fonticons, Inc. --><path d="M56.6 224L3.2 32l66.4 0L123 224l57.8 0L220.9 56.5 226.8 32 252 32l8 0 25.2 0 5.9 24.5L331.2 224l57.8 0L442.3 32l66.4 0L455.4 224l24.6 0 32 0 0 64-32 0-42.3 0L390.8 456.6 384.3 480 360 480l-8 0-25.2 0-5.9-24.5L280.8 288l-49.5 0L191.1 455.5 185.2 480 160 480l-8 0-24.3 0-6.5-23.4L74.3 288 32 288 0 288l0-64 32 0 24.6 0zm84.2 64L154 335.7 165.4 288l-24.7 0zm105.8-64l18.9 0L256 184.7 246.6 224zm100 64L358 335.7 371.2 288l-24.7 0z"/></svg>