<svg xmlns="http://www.w3.org/2000/svg" viewBox="0 0 640 512"><!--! Font Awesome Pro 6.6.0 by @fontawesome - https://fontawesome.com License - https://fontawesome.com/license (Commercial License) Copyright 2024 Fonticons, Inc. --><path d="M144 112C144 50.1 194.1 0 256 0l32 0 0 32c0 60.2-47.5 109.3-107 111.9c-23.9 32.2-37 71.5-37 112.1c0 97.2 78.8 176 176 176l72 0 5.7 0 5.1 2.5 64 32-21.5 42.9L386.3 480 320 480s0 0 0 0l-66.3 0-58.9 29.5-21.5-42.9 33.9-17c-5.1-3-10.1-6.1-14.9-9.5c-59.6 28.2-131.9 6.3-165.4-51.8l-16-27.7 13.9-8c13.8-8 28.4-13.1 43.3-15.5C27.5 315.6 0 273 0 224l0-32 16 0c15.9 0 31.1 2.9 45.2 8.2c-24.3-38.8-26.8-89.5-2.3-131.9l16-27.7 13.9 8C115 63.7 133.8 86.8 144 113l0-1zm315 31.9C399.5 141.3 352 92.2 352 32l0-32 32 0c61.9 0 112 50.1 112 112l0 1c10.2-26.2 29-49.2 55.3-64.4l13.9-8 16 27.7c24.5 42.4 21.9 93.1-2.3 131.9c14.1-5.3 29.3-8.2 45.2-8.2l16 0 0 32c0 49-27.5 91.6-68 113.1c14.8 2.4 29.5 7.5 43.3 15.5l13.9 8-16 27.7c-22.4 38.8-62.1 61.4-103.7 63.8L481 437.9l-18.4-9.2-30.4-15.2-17.9-9C463.4 373.3 496 318.5 496 256c0-40.6-13.1-79.9-37-112.1z"/></svg>