<svg xmlns="http://www.w3.org/2000/svg" viewBox="0 0 448 512"><!--! Font Awesome Pro 6.6.0 by @fontawesome - https://fontawesome.com License - https://fontawesome.com/license (Commercial License) Copyright 2024 Fonticons, Inc. --><path d="M32 48l0-16L0 32 0 48 0 464l0 16 16 0 416 0 16 0 0-32-16 0L32 448 32 48zM80 96.4l0 32c40 2.2 77.8 12.5 111.8 29.4l16.8-27.4c-39-19.8-82.5-31.8-128.6-34.1zm139.6 77.2c34.8 22.4 64.4 52 86.7 86.7l27.3-16.8c-25-39-58.2-72.2-97.2-97.2l-16.8 27.3zM351.6 400l32 0c-2.3-46.1-14.3-89.7-34.1-128.6l-27.4 16.8c16.9 34 27.2 71.8 29.4 111.8z"/></svg>