<svg xmlns="http://www.w3.org/2000/svg" viewBox="0 0 512 512"><!--! Font Awesome Pro 6.6.0 by @fontawesome - https://fontawesome.com License - https://fontawesome.com/license (Commercial License) Copyright 2024 Fonticons, Inc. --><path d="M418.8 409.9l-3.3-5.8L348.4 288 316 344 237.9 479.3c6 .5 12 .7 18.1 .7c64.1 0 121.9-26.9 162.8-70.1zm21.6-26.6c25-36.1 39.7-80 39.7-127.3c0-22.2-3.2-43.7-9.3-64l-6.7 0-134.1 0 32.3 56 78.1 135.3zM458.4 160C429.7 99.5 374.6 53.9 307.9 38.1l-3.4 5.8L237.5 160l64.7 0 156.3 0zM274.1 32.7c-6-.5-12-.7-18.1-.7c-64.1 0-121.9 26.9-162.8 70.1l3.3 5.8 67 116.1L196 168 274.1 32.7zm-202.4 96C46.6 164.9 32 208.7 32 256c0 22.2 3.2 43.7 9.3 64l6.7 0 134.1 0-32.3-56L71.7 128.7zM53.6 352c28.8 60.5 83.9 106.1 150.5 121.9l3.4-5.8 67-116.1-64.7 0L53.6 352zM0 256a256 256 0 1 1 512 0A256 256 0 1 1 0 256zm219.1 64l73.9 0 37-64L293 192 219 192l-36.9 64 37 64z"/></svg>