<svg xmlns="http://www.w3.org/2000/svg" viewBox="0 0 512 512"><!--! Font Awesome Pro 6.6.0 by @fontawesome - https://fontawesome.com License - https://fontawesome.com/license (Commercial License) Copyright 2024 Fonticons, Inc. --><path d="M257.1 79.5c-11.3 0-22.4 1.1-33.1 3.1l0-32.5c10.8-1.7 21.9-2.6 33.1-2.6c53.2 0 101.7 20 138.5 52.8l13.7-13.7L432 64l22.6 22.6L464 96l0 64 0 32-32 0-64 0-9.4-9.4L336 160l22.6-22.6L373 123c-31-27.1-71.5-43.5-115.8-43.5zm-208 176c0-53 19.8-101.3 52.4-138L86.6 102.6 64 80 86.6 57.4 96 48l64 0 32 0 0 32 0 64-9.4 9.4L160 176l-22.6-22.6-13.2-13.2c-26.8 30.9-43.1 71.2-43.1 115.3c0 11.1 1 21.9 3 32.5l-32.5 0c-1.7-10.6-2.5-21.4-2.5-32.5zm384 0c0-10.8-1-21.3-2.8-31.5l32.4 0c1.6 10.3 2.4 20.8 2.4 31.5c0 53.8-20.4 102.8-53.9 139.7l14.1 14.1L448 432l-22.6 22.6L416 464l-64 0-32 0 0-32 0-64 9.4-9.4L352 336l22.6 22.6 14 13.9c27.7-31.1 44.6-72.1 44.6-117zM288 428.8l0 32.4c-10.1 1.5-20.4 2.3-30.9 2.3c-53.5 0-102.3-20.2-139.2-53.5l-15.3 15.3L80 448 57.4 425.4 48 416l0-64 0-32 32 0 64 0 9.4 9.4L176 352l-22.6 22.6-12.8 12.8c31 27.5 71.9 44.1 116.6 44.1c10.5 0 20.8-.9 30.9-2.7zM160 130.7L160 80l-50.7 0L160 130.7zm272-21.5L381.3 160l50.7 0 0-50.7zm-80 272l0 50.7 50.7 0L352 381.3zM80 402.7L130.7 352 80 352l0 50.7z"/></svg>