<svg xmlns="http://www.w3.org/2000/svg" viewBox="0 0 576 512"><!--! Font Awesome Pro 6.6.0 by @fontawesome - https://fontawesome.com License - https://fontawesome.com/license (Commercial License) Copyright 2024 Fonticons, Inc. --><path d="M427.3 467.3l96-96L534.6 360 512 337.4l-11.3 11.3L432 417.4 432 48l0-16-32 0 0 16 0 369.4-68.7-68.7L320 337.4 297.4 360l11.3 11.3 96 96L416 478.6l11.3-11.3zM171.3 44.7L160 33.4 148.7 44.7l-96 96L41.4 152 64 174.6l11.3-11.3L144 94.6 144 464l0 16 32 0 0-16 0-369.4 68.7 68.7L256 174.6 278.6 152l-11.3-11.3-96-96z"/></svg>