<svg xmlns="http://www.w3.org/2000/svg" viewBox="0 0 448 512"><!--! Font Awesome Pro 6.6.0 by @fontawesome - https://fontawesome.com License - https://fontawesome.com/license (Commercial License) Copyright 2024 Fonticons, Inc. --><path d="M235.3 499.3L224 510.6l-11.3-11.3-128-128L73.4 360 96 337.4l11.3 11.3L208 449.4 208 176l0-16 32 0 0 16 0 273.4L340.7 348.7 352 337.4 374.6 360l-11.3 11.3-128 128zM32 176l0 16L0 192l0-16L0 16 0 0 16 0 432 0l16 0 0 16 0 160 0 16-32 0 0-16 0-144L32 32l0 144z"/></svg>