<svg xmlns="http://www.w3.org/2000/svg" viewBox="0 0 640 512"><!--! Font Awesome Pro 6.6.0 by @fontawesome - https://fontawesome.com License - https://fontawesome.com/license (Commercial License) Copyright 2024 Fonticons, Inc. --><path d="M128 16l0 129.4L91.3 108.7 80 97.4 57.4 120l11.3 11.3 64 64L144 206.6l11.3-11.3 64-64L230.6 120 208 97.4l-11.3 11.3L160 145.4 160 16l0-16L128 0l0 16zM409.4 120l11.3 11.3 64 64L496 206.6l11.3-11.3 64-64L582.6 120 560 97.4l-11.3 11.3L512 145.4 512 16l0-16L480 0l0 16 0 129.4-36.7-36.7L432 97.4 409.4 120zM304 192a16 16 0 1 1 32 0 16 16 0 1 1 -32 0zm64 0a48 48 0 1 0 -96 0 48 48 0 1 0 96 0zm-96 64l-8.9 0-4.7 7.6-55.9 90.9-1.5-2.5-8.9 0-96 0-8.9 0-4.7 7.6-64 104L10 477.2 37.2 494l8.4-13.6L88 411.5 88 496l0 16 16 0 80 0 16 0 0-16 0-84.5 42.4 68.9 8.4 13.6L278 477.2l-8.4-13.6L221.3 385l.4-.6L264 315.5 264 416l0 16 16 0 80 0 16 0 0-16 0-100.5 42.4 68.9 .4 .6-48.4 78.6L362 477.2 389.2 494l8.4-13.6L440 411.5l0 84.5 0 16 16 0 80 0 16 0 0-16 0-84.5 42.4 68.9 8.4 13.6L630 477.2l-8.4-13.6-64-104-4.7-7.6-8.9 0-96 0-8.9 0-1.5 2.5-55.9-90.9-4.7-7.6-8.9 0-96 0zm24 144l0-112 48 0 0 112-48 0zM144 272a16 16 0 1 1 0 32 16 16 0 1 1 0-32zm0 64a48 48 0 1 0 0-96 48 48 0 1 0 0 96zm-24 48l48 0 0 96-48 0 0-96zm360-96a16 16 0 1 1 32 0 16 16 0 1 1 -32 0zm64 0a48 48 0 1 0 -96 0 48 48 0 1 0 96 0zM520 480l-48 0 0-96 48 0 0 96z"/></svg>