<svg xmlns="http://www.w3.org/2000/svg" viewBox="0 0 512 512"><!--! Font Awesome Pro 6.6.0 by @fontawesome - https://fontawesome.com License - https://fontawesome.com/license (Commercial License) Copyright 2024 Fonticons, Inc. --><path d="M267.3 12.7L256 1.4 244.7 12.7l-72 72L161.4 96 184 118.6l11.3-11.3L240 62.6 240 240 62.6 240l44.7-44.7L118.6 184 96 161.4 84.7 172.7l-72 72L1.4 256l11.3 11.3 72 72L96 350.6 118.6 328l-11.3-11.3L62.6 272 240 272l0 177.4-44.7-44.7L184 393.4 161.4 416l11.3 11.3 72 72L256 510.6l11.3-11.3 72-72L350.6 416 328 393.4l-11.3 11.3L272 449.4 272 272l177.4 0-44.7 44.7L393.4 328 416 350.6l11.3-11.3 72-72L510.6 256l-11.3-11.3-72-72L416 161.4 393.4 184l11.3 11.3L449.4 240 272 240l0-177.4 44.7 44.7L328 118.6 350.6 96 339.3 84.7l-72-72z"/></svg>