<svg xmlns="http://www.w3.org/2000/svg" viewBox="0 0 512 512"><!--! Font Awesome Pro 6.6.0 by @fontawesome - https://fontawesome.com License - https://fontawesome.com/license (Commercial License) Copyright 2024 Fonticons, Inc. --><path d="M0 256l0 16 32 0 0-16 0-144 358.3 0-49 44.1-11.9 10.7 21.4 23.8 11.9-10.7 80-72L455.9 96 442.7 84.1l-80-72L350.8 1.4 329.4 25.2l11.9 10.7 49 44.1L16 80 0 80 0 96 0 256zm512 0l0-16-32 0 0 16 0 144-358.3 0 49-44.1 11.9-10.7-21.4-23.8-11.9 10.7-80 72L56.1 416l13.2 11.9 80 72 11.9 10.7 21.4-23.8-11.9-10.7-49-44.1L496 432l16 0 0-16 0-160zM240 192l-16 0 0 32 16 0 16 0 0 80 0 16 32 0 0-16 0-96 0-16-16 0-32 0z"/></svg>