<svg xmlns="http://www.w3.org/2000/svg" viewBox="0 0 576 512"><!--! Font Awesome Pro 6.6.0 by @fontawesome - https://fontawesome.com License - https://fontawesome.com/license (Commercial License) Copyright 2024 Fonticons, Inc. --><path d="M336 32l16 0 128 0 16 0 0 16 0 8 0 6.1-4 4.5L380.5 192l99.5 0 16 0 0 32-16 0-128 0-16 0 0-16 0-8 0-6.1 4-4.5L451.5 64 352 64l-16 0 0-32zM160 33.4l11.3 11.3 88 88L270.6 144 248 166.6l-11.3-11.3L176 94.6 176 464l0 16-32 0 0-16 0-369.4L83.3 155.3 72 166.6 49.4 144l11.3-11.3 88-88L160 33.4zM401.4 297.5l4.2-9.5 20.8 0 4.2 9.5 80 180 1.1 2.5-35 0-14.2-32-93 0-14.2 32-35 0 1.1-2.5 80-180zM416 343.4L383.7 416l64.5 0L416 343.4z"/></svg>