<svg xmlns="http://www.w3.org/2000/svg" viewBox="0 0 448 512"><!--! Font Awesome Pro 6.6.0 by @fontawesome - https://fontawesome.com License - https://fontawesome.com/license (Commercial License) Copyright 2024 Fonticons, Inc. --><path d="M224 198.6l11.3-11.3 80-80L326.6 96 304 73.4 292.7 84.7 240 137.4 240 16l0-16L208 0l0 16 0 121.4L155.3 84.7 144 73.4 121.4 96l11.3 11.3 80 80L224 198.6zM8 232l0 48 48 0 0-48L8 232zm96 0l0 48 48 0 0-48-48 0zm96 0l0 48 48 0 0-48-48 0zm96 0l0 48 48 0 0-48-48 0zm144 0l-48 0 0 48 48 0 0-48zM235.3 324.7L224 313.4l-11.3 11.3-80 80L121.4 416 144 438.6l11.3-11.3L208 374.6 208 496l0 16 32 0 0-16 0-121.4 52.7 52.7L304 438.6 326.6 416l-11.3-11.3-80-80z"/></svg>