<svg xmlns="http://www.w3.org/2000/svg" viewBox="0 0 576 512"><!--! Font Awesome Pro 6.6.0 by @fontawesome - https://fontawesome.com License - https://fontawesome.com/license (Commercial License) Copyright 2024 Fonticons, Inc. --><path d="M171.3 467.3L160 478.6l-11.3-11.3-88-88L49.4 368 72 345.4l11.3 11.3L144 417.4 144 48l0-16 32 0 0 16 0 369.4 60.7-60.7L248 345.4 270.6 368l-11.3 11.3-88 88zM352 288l128 0 16 0 0 16 0 8 0 6.1-4 4.5L380.5 448l99.5 0 16 0 0 32-16 0-128 0-16 0 0-16 0-8 0-6.1 4-4.5L451.5 320 352 320l-16 0 0-32 16 0zm17.5-96l-14.2 32-35 0 1.1-2.5 80-180 4.2-9.5 20.8 0 4.2 9.5 80 180 1.1 2.5-35 0-14.2-32-93 0zm78.8-32L416 87.4 383.7 160l64.5 0z"/></svg>