<svg xmlns="http://www.w3.org/2000/svg" viewBox="0 0 576 512"><!--! Font Awesome Pro 6.6.0 by @fontawesome - https://fontawesome.com License - https://fontawesome.com/license (Commercial License) Copyright 2024 Fonticons, Inc. --><path d="M405.6 32l-4.2 9.5-80 180-1.1 2.5 35 0 14.2-32 93 0 14.2 32 35 0-1.1-2.5-80-180L426.4 32l-20.8 0zm42.7 128l-64.5 0L416 87.4 448.3 160zM171.3 44.7L160 33.4 148.7 44.7l-88 88L49.4 144 72 166.6l11.3-11.3L144 94.6 144 464l0 16 32 0 0-16 0-369.4 60.7 60.7L248 166.6 270.6 144l-11.3-11.3-88-88zM352 288l-16 0 0 32 16 0 99.5 0L340 445.4l-4 4.5 0 6.1 0 8 0 16 16 0 128 0 16 0 0-32-16 0-99.5 0L492 322.6l4-4.5 0-6.1 0-8 0-16-16 0-128 0z"/></svg>