<svg xmlns="http://www.w3.org/2000/svg" viewBox="0 0 512 512"><!--! Font Awesome Pro 6.6.0 by @fontawesome - https://fontawesome.com License - https://fontawesome.com/license (Commercial License) Copyright 2024 Fonticons, Inc. --><path d="M32 256C32 132.3 132.3 32 256 32l16 0 0-32L256 0C114.6 0 0 114.6 0 256S114.6 512 256 512l16 0 0-32-16 0C132.3 480 32 379.7 32 256zM354.6 116l-12-10.6-21.3 23.9 12 10.6L445.9 240 176 240l-16 0 0 32 16 0 269.9 0L333.4 372l-12 10.6 21.3 23.9 12-10.6 144-128 13.5-12-13.5-12-144-128z"/></svg>