<svg xmlns="http://www.w3.org/2000/svg" viewBox="0 0 576 512"><!--! Font Awesome Pro 6.6.0 by @fontawesome - https://fontawesome.com License - https://fontawesome.com/license (Commercial License) Copyright 2024 Fonticons, Inc. --><path d="M304 352l0-16 0-273.4 68.7 68.7L384 142.6 406.6 120l-11.3-11.3-96-96L288 1.4 276.7 12.7l-96 96L169.4 120 192 142.6l11.3-11.3L272 62.6 272 336l0 16 32 0zM32 192L0 192l0 32L0 415c10.2 0 21.3-2.7 32-6.7L32 224l160 0 0-32L32 192zM576 415l0-191 0-32-32 0-160 0 0 32 160 0 0 184.3c10.7 4 21.8 6.7 32 6.7zM192 480c-20.9 0-41.7-9.9-58.2-21.2c-14.6-10-26-21.5-37.8-34.2c-11.9 12.8-23.1 24.2-37.8 34.2C41.7 470.1 20.9 480 0 480l0 32c30.3 0 57.5-14.1 76.2-26.8c7.9-5.4 14.6-10.8 19.8-15.3c5.1 4.5 11.9 9.9 19.8 15.3C134.4 497.9 161.7 512 192 512s57.5-14.1 76.2-26.8c7.9-5.4 14.6-10.8 19.8-15.3c5.1 4.5 11.9 9.9 19.8 15.3C326.4 497.9 353.7 512 384 512s57.5-14.1 76.2-26.8c7.9-5.4 14.6-10.8 19.8-15.3c5.1 4.5 11.9 9.9 19.8 15.3C518.5 497.9 545.7 512 576 512l0-32c-20.9 0-41.7-9.9-58.2-21.2c-14.7-10-25.9-21.5-37.8-34.2c-11.9 12.8-23.1 24.2-37.8 34.2C425.6 470.1 404.9 480 384 480s-41.7-9.9-58.2-21.2c-14.7-10-25.9-21.5-37.8-34.2c-11.9 12.8-23.1 24.2-37.8 34.2C233.6 470.1 212.9 480 192 480z"/></svg>