<svg xmlns="http://www.w3.org/2000/svg" viewBox="0 0 640 512"><!--! Font Awesome Pro 6.6.0 by @fontawesome - https://fontawesome.com License - https://fontawesome.com/license (Commercial License) Copyright 2024 Fonticons, Inc. --><path d="M32 64l0 16 0 352 0 16L0 448l0-16L0 80 0 64l32 0zm198.6 96l-11.3 11.3L150.6 240l338.7 0-68.7-68.7L409.4 160 432 137.4l11.3 11.3 96 96L550.6 256l-11.3 11.3-96 96L432 374.6 409.4 352l11.3-11.3L489.4 272l-338.7 0 68.7 68.7L230.6 352 208 374.6l-11.3-11.3-96-96L89.4 256l11.3-11.3 96-96L208 137.4 230.6 160zM640 80l0 352 0 16-32 0 0-16 0-352 0-16 32 0 0 16z"/></svg>