<svg xmlns="http://www.w3.org/2000/svg" viewBox="0 0 576 512"><!--! Font Awesome Pro 6.6.0 by @fontawesome - https://fontawesome.com License - https://fontawesome.com/license (Commercial License) Copyright 2024 Fonticons, Inc. --><path d="M160 96c0-35.3 28.7-64 64-64s64 28.7 64 64l0 64-128 0 0-64zm-32 64l-96 0L0 160l0 32L0 448l0 32 32 0 128 0 0-32L32 448l0-256 384 0 0 32 32 0 0-32 0-32-32 0-96 0 0-64c0-53-43-96-96-96s-96 43-96 96l0 64zm96 128l320 0 0 192-320 0 0-192zm-32-32l0 32 0 192 0 32 32 0 320 0 32 0 0-32 0-192 0-32-32 0-320 0-32 0zm128 80l0-16-32 0 0 16 0 16c0 53 43 96 96 96s96-43 96-96l0-16 0-16-32 0 0 16 0 16c0 35.3-28.7 64-64 64s-64-28.7-64-64l0-16z"/></svg>