<svg xmlns="http://www.w3.org/2000/svg" viewBox="0 0 576 512"><!--! Font Awesome Pro 6.6.0 by @fontawesome - https://fontawesome.com License - https://fontawesome.com/license (Commercial License) Copyright 2024 Fonticons, Inc. --><path d="M321 117.4L304.6 59.1 288 0 271.4 59.1 255 117.4l-9.1 32.5L217.9 131 167.1 96.5 115.7 61.8 141.8 118l25.2 54.4 14.3 30.8-33.8 3.2-60.7 5.7L24 218.1l57 26.8 54.8 25.7L166.6 285l-24 24.1-42.5 42.5L55.8 395.9l60.7-15.5L176 365.3l32.8-8.4L206 390.7l-4.8 60L196.3 512l36.1-49.8 35.8-49.5L288 385.4l19.8 27.3 35.8 49.5L379.7 512l-4.9-61.4-4.8-60L367.3 357l32.8 8.4 59.5 15.2 60.6 15.5-44.2-44.3-42.5-42.5-24-24.1 30.8-14.5L495 244.9l57-26.8-62.7-5.9-60.8-5.7-33.8-3.2 14.3-30.8L434.2 118l26.1-56.3L408.9 96.5 358.1 131l-27.9 18.9L321 117.4zm61.8 35.4l-17.1 37-19 41 45 4.3 40.6 3.8-36.5 17.1-41.2 19.4 32.2 32.2 28.5 28.5L375.2 326l-43.4-11.1 3.6 44.6 3.3 41.3-24.8-34.2L288 330.8l-25.9 35.8-24.8 34.2 3.3-41.3 3.6-44.6L200.8 326l-40.1 10.2 28.5-28.5 32.2-32.2-41.2-19.4-36.5-17.1 40.6-3.8 45-4.3-19-41-17.1-37 34.8 23.5 36.7 24.9 12-42.7L288 118.1l11.4 40.4 12 42.7 36.7-24.9 34.8-23.5z"/></svg>