<svg xmlns="http://www.w3.org/2000/svg" viewBox="0 0 576 512"><!--! Font Awesome Pro 6.6.0 by @fontawesome - https://fontawesome.com License - https://fontawesome.com/license (Commercial License) Copyright 2024 Fonticons, Inc. --><path d="M253.8 17.9l-7.9 13.9L155.4 192l265.2 0L330.1 31.9l-7.9-13.9L350.1 2.2l7.9 13.9L457.3 192l53.7 0 33 0 32 0 0 32-40 0L464 512l-352 0L40 224 0 224l0-32 32 0 33 0 53.7 0L218.1 16.1l7.9-13.9 27.9 15.7zM73 224l64 256 302 0 64-256L73 224zm151 80l0 96 0 16-32 0 0-16 0-96 0-16 32 0 0 16zm80-16l0 16 0 96 0 16-32 0 0-16 0-96 0-16 32 0zm80 16l0 96 0 16-32 0 0-16 0-96 0-16 32 0 0 16z"/></svg>