<svg xmlns="http://www.w3.org/2000/svg" viewBox="0 0 512 512"><!--! Font Awesome Pro 6.6.0 by @fontawesome - https://fontawesome.com License - https://fontawesome.com/license (Commercial License) Copyright 2024 Fonticons, Inc. --><path d="M352 64L64 64l0 384 288 0 0-87.6c0-.2 0-.5 0-.7L352 64zm32 306.5l0 77.5 0 32-32 0L64 480l-32 0 0-32L32 64l0-32 32 0 288 0 32 0 0 32 0 32 112 0 16 0 0 16 0 192 0 10.5-9.6 4.2L384 370.5zM384 128l0 207.5 96-42L480 128l-96 0zm-224 0l0 16 0 224 0 16-32 0 0-16 0-224 0-16 32 0zm64 0l0 16 0 224 0 16-32 0 0-16 0-224 0-16 32 0zm64 0l0 16 0 224 0 16-32 0 0-16 0-224 0-16 32 0z"/></svg>