<svg xmlns="http://www.w3.org/2000/svg" viewBox="0 0 640 512"><!--! Font Awesome Pro 6.6.0 by @fontawesome - https://fontawesome.com License - https://fontawesome.com/license (Commercial License) Copyright 2024 Fonticons, Inc. --><path d="M541 512l-40.5-32L416 480l0-66.7-32-25.3 0 91.9-48 0-176 0 0-96.7C192.3 404 230.8 416 272 416c39.8 0 77-11.2 108.6-30.6L353.5 364c-24.4 12.8-52.1 20-81.5 20c-97.2 0-176-78.8-176-176c0-14.9 1.8-29.3 5.3-43.1L74.2 143.5C67.6 163.8 64 185.5 64 208c0 59 24.6 112.2 64 150.1L128 496l0 16 16 0 192 0 64 0 16 0 112 0 13 0zM480 208C480 93.1 386.9 0 272 0c-45.8 0-88.1 14.8-122.5 39.9l26.3 20.7C203.4 42.5 236.5 32 272 32c97.2 0 176 78.8 176 176c0 20.8-3.6 40.8-10.3 59.4L464 288.1c10.3-24.7 16-51.7 16-80.1zM272 128c-3.4 0-6.8 .2-10.1 .6l89.6 70.7C347.2 159.2 313.3 128 272 128zM40.4 18L27.8 8.1 8.1 33.4l12.6 9.8L599.8 494.3l12.6 9.8 19.7-25.2L619.5 469 40.4 18z"/></svg>