<svg xmlns="http://www.w3.org/2000/svg" viewBox="0 0 640 512"><!--! Font Awesome Pro 6.6.0 by @fontawesome - https://fontawesome.com License - https://fontawesome.com/license (Commercial License) Copyright 2024 Fonticons, Inc. --><path d="M384 0l16 0 96 0 16 0 0 32-16 0-96 0-16 0 0-32zM352 192l-32 0-.4 0c0 0 0 0 0-.1l0-28.4L248.4 128l-112.9 0L64 163.8 64 192l-32 0 0-48 96-48 128 0 63.6 31.8 32 16 .4 .2 0 45.5s0 0 0 0l0 2.5zm223.6 0l-.5 0-32 0c0-1.9 .2-3.8 .5-5.6l0-71.9L504.2 96 391 96l-32.8 15.3L321.8 93.1 383.9 64l127.5 0 64.3 30.1 0 65.9 0 31.9c0 0 0 0 0 .1zM608 256l-1.9 0L576 512 64 512 33.9 256 32 256 0 256l0-32 32 0 1.9 0L48 224l14.3 0 515.3 0 14.3 0 14.1 0 1.9 0 32 0 0 32-32 0zm-34.1 0L66.1 256 92.5 480l455.1 0 26.4-224zM295.4 288l8.6 0 32 0 8.6 0 4.7 7.2 26.3 40-27.1 17L327.4 320l-14.8 0-20.3 30.5-27.1-17 25.6-38.4 4.8-7.1zm70.7 90.9l27.1-17 19.3 29.3 2.6 4 0 4.8 0 32 0 16-16 0-61.5 0 0-32 45.5 0 0-11.2-17.1-25.9zM305.7 416l0 32L240 448l-16 0 0-16 0-32 0-4.8 2.7-4 20.6-31 27.1 17L256 404.8l0 11.2 49.7 0zM144 0l96 0 16 0 0 16 0 16 16 0 0 32-16 0-16 0-16 0 0-16 0-16-64 0 0 16 0 16-16 0-16 0-16 0 0-32 16 0 0-16 0-16 16 0z"/></svg>