<svg xmlns="http://www.w3.org/2000/svg" viewBox="0 0 320 512"><!--! Font Awesome Pro 6.6.0 by @fontawesome - https://fontawesome.com License - https://fontawesome.com/license (Commercial License) Copyright 2024 Fonticons, Inc. --><path d="M64 0L96 0l0 64 64 0 0-64 32 0 0 64.3c53.7 4.1 96 49 96 103.7c0 31.3-13.9 59.4-35.8 78.5C291.8 261.2 320 299.3 320 344c0 57.4-46.6 104-104 104l-24 0 0 64-32 0 0-64-64 0 0 64-32 0 0-64-32 0L0 448l0-32L0 272l0-32L0 96 0 64l32 0 32 0L64 0zm96 416l32 0 24 0c39.8 0 72-32.2 72-72s-32.2-72-72-72l-32 0L32 272l0 144 32 0 32 0 64 0zM184 96l-24 0L96 96 64 96 32 96l0 144 152 0c39.8 0 72-32.2 72-72s-32.2-72-72-72z"/></svg>