<svg xmlns="http://www.w3.org/2000/svg" viewBox="0 0 640 512"><!--! Font Awesome Pro 6.6.0 by @fontawesome - https://fontawesome.com License - https://fontawesome.com/license (Commercial License) Copyright 2024 Fonticons, Inc. --><path d="M168 64l0 64 72 0 32 0 72 0 0-64L168 64zm-32 64l0-64L64 64l0 64 72 0zM64 160l0 80 72 0 32 0 72 0 0-80L64 160zm0 192l72 0 0-80-72 0 0 80zm0 32l0 64 176 0 0-64-72 0-32 0-72 0zm104-32l120 0c0 10.9 .9 21.6 2.7 32L272 384l0 64 41.8 0c6.6 11.5 14.5 22.2 23.3 32L64 480l-32 0 0-32L32 64l0-32 32 0 384 0 32 0 0 32 0 82.6-27.4-27.4-4.6 2.9L448 64l-72 0 0 64 62.6 0-7.5 4.7c-10.7 6.7-23.5 15.9-37 27.3L272 160l0 80 51.2 0c-6.4 10.1-12.2 20.8-17.2 32l-138 0 0 80zM489.4 201.4L512 224l22.6-22.6L544 192c76.8 64 96 133.3 96 160c0 85.2-66.6 154.9-150.7 159.7c-3.1 .3-6.2 .4-9.3 .4s-6.3-.1-9.3-.4C386.6 506.9 320 437.2 320 352c0-89.6 85.3-165.3 128-192l41.4 41.4zM480 480c2.4 0 4.8-.1 7.2-.2c33.6-3.3 56.8-29.4 56.8-57.3c0-21.9-15.9-47.5-39-71.3c-8.8-9-17.6-16.9-25-23c-7.4 6.1-16.2 13.9-25 23c-23.1 23.8-39 49.5-39 71.3c0 27.8 23.2 54 56.8 57.3c2.4 .1 4.8 .2 7.2 .2zm96-57.4c0 5.4-.5 10.6-1.5 15.8C595.3 415.6 608 385.3 608 352c0-14.1-11-63.7-63-115.8l-10.4 10.4L512 269.3l-22.6-22.6-45-45c-16.2 12.7-34.9 30-51.4 50.7c-24.3 30.5-41 65-41 99.7c0 33.3 12.7 63.6 33.5 86.3c-1-5.1-1.5-10.4-1.5-15.8c0-70.4 96-134.4 96-134.4s96 64 96 134.4z"/></svg>