<svg xmlns="http://www.w3.org/2000/svg" viewBox="0 0 448 512"><!--! Font Awesome Pro 6.6.0 by @fontawesome - https://fontawesome.com License - https://fontawesome.com/license (Commercial License) Copyright 2024 Fonticons, Inc. --><path d="M303.5 184.4L338.9 49.8 352 0 310.8 30.9 32 240l0 48 88.3 5.9 32.5 2.2-8.3 31.5L109.1 462.2 96 512l41.2-30.9L416 272l0-48-88.3-5.9-32.5-2.2 8.3-31.5zM384 253.9l0 2.1L150.3 431.2l33.4-127 9.9-37.5L155 264.1l-91-6.1 0-2.1L297.7 80.8l-33.4 127-9.9 37.5 38.7 2.6 91 6.1z"/></svg>