<svg xmlns="http://www.w3.org/2000/svg" viewBox="0 0 576 512"><!--! Font Awesome Pro 6.6.0 by @fontawesome - https://fontawesome.com License - https://fontawesome.com/license (Commercial License) Copyright 2024 Fonticons, Inc. --><path d="M192 480l0-64-96 0 0 64 96 0zm32-304l-32 0 0-48-96 0-32 0 0-16 0-16 0-64L64 0 96 0l96 0 32 0 96 0 32 0 0 25.8L417.5 8.3 448.4 0l8.3 30.9L474 95.3l4.1 15.5 4.1 15.5 59 220.1 4.1 15.5 4.1 15.5 17.2 64.4 8.3 30.9-30.9 8.3-85.8 23L427.4 512l-8.3-30.9-17.2-64.4-4.1-15.5-4.1-15.5L352 230.6 352 384l0 16 0 16 0 64 0 32-32 0-96 0-32 0-96 0-32 0 0-32 0-64 0-16 0-16 32 0 96 0 0-48 32 0 0 48 96 0 0-256-96 0 0 48zM192 32L96 32l0 64 96 0 0-64zM352 59l0 37 0 11 5.2 19.5 85.8-23L425.8 39.2 352 59zM320 480l0-64-96 0 0 64 96 0zm0-384l0-64-96 0 0 64 96 0zM450 472.8l85.8-23-17.2-64.4-85.8 23L450 472.8zm-25.5-95.3l85.8-23-59-220.1-85.8 23 59 220.1zM64 160l64 0 16 0 0 16 0 32 32 0 16 0 0 16 0 64 0 16-16 0-32 0 0 32 0 16-16 0-64 0-16 0 0-16 0-32-32 0L0 304l0-16 0-64 0-16 16 0 32 0 0-32 0-16 16 0zm16 80l-16 0-32 0 0 32 32 0 16 0 0 16 0 32 32 0 0-32 0-16 16 0 32 0 0-32-32 0-16 0 0-16 0-32-32 0 0 32 0 16z"/></svg>