<svg xmlns="http://www.w3.org/2000/svg" viewBox="0 0 448 512"><!--! Font Awesome Pro 6.6.0 by @fontawesome - https://fontawesome.com License - https://fontawesome.com/license (Commercial License) Copyright 2024 Fonticons, Inc. --><path d="M0 64C0 28.7 28.7 0 64 0L432 0l16 0 0 16 0 384 0 16-16 0-16 0 0 64 16 0 16 0 0 32-16 0L64 512c-35.3 0-64-28.7-64-64c0 0 0 0 0 0L0 64zM64 416c-17.7 0-32 14.3-32 32s14.3 32 32 32l320 0 0-64L64 416zM32 392.6c9.4-5.4 20.3-8.6 32-8.6l352 0 0-352L64 32C46.3 32 32 46.3 32 64l0 328.6zm192.3-111l.9-23.4-2.2 2.2-5.7 5.7-11.3-11.3 5.7-5.7 9-9L208 240l-8 0 0-16 8 0 12.7 0-9-9-5.7-5.7 11.3-11.3 5.7 5.7 4.2 4.2L232 87.7c.2-4.3 3.7-7.7 8-7.7s7.8 3.4 8 7.7l4.8 120.2 4.2-4.2 5.7-5.7 11.3 11.3-5.7 5.7-9 9 12.7 0 8 0 0 16-8 0-12.7 0 9 9 5.7 5.7-11.3 11.3-5.7-5.7-2.2-2.2 .9 23.4c21-6.7 36.3-26.3 36.3-49.6c0-13.2-4.9-25.2-13-34.4l-7.9-8.9 8.9-7.9c12.3-11 20-27 20-44.7c0-13-4.1-25-11.1-34.8l15.3-17.6c45 23.2 75.9 70.3 75.9 124.5c0 77.3-62.7 140-140 140s-140-62.7-140-140c0-54.2 30.8-101.2 75.9-124.5l15.3 17.6C184.1 111 180 123 180 136c0 17.8 7.7 33.7 20 44.7l8.9 7.9-7.9 8.9c-8.1 9.2-13 21.2-13 34.4c0 23.2 15.2 42.9 36.3 49.6zm99.3-154c.3 2.8 .4 5.6 .4 8.4c0 20.9-7.6 40-20.2 54.7c7.7 11.9 12.2 26.1 12.2 41.3c0 42-34 76-76 76s-76-34-76-76c0-15.2 4.5-29.4 12.2-41.3C163.6 176 156 156.9 156 136c0-2.8 .1-5.7 .4-8.4c-11 11.4-19.7 25.1-25.3 40.3l18.5 18.5 5.7 5.7L144 203.3l-5.7-5.7-12.2-12.2c-1.4 7.3-2.2 14.8-2.2 22.5l0 .7 25.7 25.7 5.7 5.7L144 251.3l-5.7-5.7L127 234.3c11.9 51.4 58 89.7 113 89.7s101.1-38.3 113-89.7l-11.3 11.3-5.7 5.7L324.7 240l5.7-5.7L356 208.7l0-.7c0-7.7-.7-15.2-2.2-22.5l-12.2 12.2-5.7 5.7L324.7 192l5.7-5.7 18.5-18.5c-5.6-15.2-14.3-28.8-25.3-40.3z"/></svg>