<svg xmlns="http://www.w3.org/2000/svg" viewBox="0 0 448 512"><!--! Font Awesome Pro 6.6.0 by @fontawesome - https://fontawesome.com License - https://fontawesome.com/license (Commercial License) Copyright 2024 Fonticons, Inc. --><path d="M64 0C28.7 0 0 28.7 0 64L0 448s0 0 0 0c0 35.3 28.7 64 64 64l368 0 16 0 0-32-16 0-16 0 0-64 16 0 16 0 0-16 0-384 0-16L432 0 64 0zM384 416l0 64L64 480c-17.7 0-32-14.3-32-32s14.3-32 32-32l320 0zM64 384c-11.7 0-22.6 3.1-32 8.6L32 64c0-17.7 14.3-32 32-32l352 0 0 352L64 384zM288 144.1L274.2 168l-24.3 41.9L208 234.2 184.1 248 208 261.8l41.9 24.3L274.2 328 288 351.9 301.8 328l24.3-41.9L368 261.8 391.9 248 368 234.2l-41.9-24.3L301.8 168 288 144.1zm0 63.9l12.6 21.7 2.1 3.7 3.7 2.1L328.1 248l-21.7 12.6-3.7 2.1-2.1 3.7L288 288.1l-12.6-21.7-2.1-3.7-3.7-2.1L247.9 248l21.7-12.6 3.7-2.1 2.1-3.7L288 207.9zM173.6 79.6L160 57.4 146.4 79.6l-16.2 26.5-26.5 16.2L81.4 136l22.3 13.6 26.5 16.2 16.2 26.5L160 214.6l13.6-22.3 16.2-26.5 26.5-16.2L238.6 136l-22.3-13.6-26.5-16.2L173.6 79.6zm-18.2 46.5l4.6-7.5 4.6 7.5 2 3.3 3.3 2 7.5 4.6-7.5 4.6-3.3 2-2 3.3-4.6 7.5-4.6-7.5-2-3.3-3.3-2-7.5-4.6 7.5-4.6 3.3-2 2-3.3z"/></svg>