<svg xmlns="http://www.w3.org/2000/svg" viewBox="0 0 448 512"><!--! Font Awesome Pro 6.6.0 by @fontawesome - https://fontawesome.com License - https://fontawesome.com/license (Commercial License) Copyright 2024 Fonticons, Inc. --><path d="M384 0c35.3 0 64 28.7 64 64l0 384s0 0 0 0c0 35.3-28.7 64-64 64L16 512 0 512l0-32 16 0 16 0 0-64-16 0L0 416l0-16L0 16 0 0 16 0 384 0zM64 416l0 64 320 0c17.7 0 32-14.3 32-32s-14.3-32-32-32L64 416zm320-32c11.7 0 22.6 3.1 32 8.6L416 64c0-17.7-14.3-32-32-32L32 32l0 352 352 0zM216 64l13.9 24 27.7 48 55.4 0 27.7 0-13.9 24-27.7 48 27.7 48 13.9 24L313 280l-55.4 0-27.7 48L216 352l-13.9-24-27.7-48L119 280l-27.7 0 13.9-24 27.7-48-27.7-48L91.3 136l27.7 0 55.4 0 27.7-48L216 64zm27.7 96l-55.4 0-27.7 48 27.7 48 55.4 0 27.7-48-27.7-48zm-13.9-24L216 112l-13.9 24 27.7 0zm55.4 48l13.9-24-27.7 0 13.9 24zm0 48l-13.9 24 27.7 0-13.9-24zm-55.4 48l-27.7 0L216 304l13.9-24zm-69.3-24l-13.9-24-13.9 24 27.7 0zm-13.9-72l13.9-24-27.7 0 13.9 24z"/></svg>