<svg xmlns="http://www.w3.org/2000/svg" viewBox="0 0 448 512"><!--! Font Awesome Pro 6.6.0 by @fontawesome - https://fontawesome.com License - https://fontawesome.com/license (Commercial License) Copyright 2024 Fonticons, Inc. --><path d="M0 64C0 28.7 28.7 0 64 0L432 0l16 0 0 16 0 384 0 16-16 0-16 0 0 64 16 0 16 0 0 32-16 0L64 512c-35.3 0-64-28.7-64-64c0 0 0 0 0 0L0 64zM64 416c-17.7 0-32 14.3-32 32s14.3 32 32 32l320 0 0-64L64 416zM32 392.6c9.4-5.4 20.3-8.6 32-8.6l32 0L96 32 64 32C46.3 32 32 46.3 32 64l0 328.6zM128 32l0 352 288 0 0-352L128 32zm48 96l16 0 160 0 16 0 0 32-16 0-160 0-16 0 0-32zm0 96l16 0 160 0 16 0 0 32-16 0-160 0-16 0 0-32z"/></svg>