<svg xmlns="http://www.w3.org/2000/svg" viewBox="0 0 448 512"><!--! Font Awesome Pro 6.6.0 by @fontawesome - https://fontawesome.com License - https://fontawesome.com/license (Commercial License) Copyright 2024 Fonticons, Inc. --><path d="M208 48l0 416 0 16 32 0 0-16 0-416 0-16-32 0 0 16zM56 472l0-48L8 424l0 48 48 0zm384 0l0-48-48 0 0 48 48 0zM56 376l0-48L8 328l0 48 48 0zm384 0l0-48-48 0 0 48 48 0zM392 184l48 0 0-48-48 0 0 48zM56 184l0-48L8 136l0 48 48 0zm336 96l48 0 0-48-48 0 0 48zM56 280l0-48L8 232l0 48 48 0zM392 88l48 0 0-48-48 0 0 48zM8 88l48 0 0-48L8 40 8 88zM296 280l48 0 0-48-48 0 0 48zM344 88l0-48-48 0 0 48 48 0zM296 472l48 0 0-48-48 0 0 48zM152 88l0-48-48 0 0 48 48 0zM104 472l48 0 0-48-48 0 0 48zm48-192l0-48-48 0 0 48 48 0z"/></svg>