<svg xmlns="http://www.w3.org/2000/svg" viewBox="0 0 448 512"><!--! Font Awesome Pro 6.6.0 by @fontawesome - https://fontawesome.com License - https://fontawesome.com/license (Commercial License) Copyright 2024 Fonticons, Inc. --><path d="M416 224l-32 0c0-88.4-71.6-160-160-160S64 135.6 64 224l-32 0C32 118 118 32 224 32s192 86 192 192zM316.2 416l-1.3 0L272 416l28.4 32 28.4 32 7.1 8 0 24-32 0-160 0-32 0 0-24 7.1-8 28.4-32L176 416l-42.8 0-1.3 0C66.1 416 11 366.2 4.5 300.7L3.2 288 0 256l32.2 0 383.7 0 32.2 0-3.2 32-1.3 12.7C437 366.2 381.9 416 316.2 416zm-68.1 21.3L224 410.2l-24.1 27.1-38 42.7 124.1 0-38-42.7zm-.8-53.3l24.7 0 44.2 0c49.3 0 90.6-37.4 95.5-86.4l1-9.6L35.4 288l1 9.6c4.9 49.1 46.2 86.4 95.5 86.4l44.2 0 24.7 0 46.5 0z"/></svg>