<svg xmlns="http://www.w3.org/2000/svg" viewBox="0 0 576 512"><!--! Font Awesome Pro 6.6.0 by @fontawesome - https://fontawesome.com License - https://fontawesome.com/license (Commercial License) Copyright 2024 Fonticons, Inc. --><path d="M160 32l0 192 256 0 0-192L160 32zM128 0l32 0L416 0l32 0 0 32 0 192 0 32-32 0-256 0-32 0 0-32 0-192 0-32zM32 160l64 0 0 32-64 0 0 128 512 0 0-128-64 0 0-32 64 0 32 0 0 32 0 128 0 16 0 16 0 128 0 32-32 0L32 512 0 512l0-32L0 352l0-16 0-16L0 192l0-32 32 0zM544 352L32 352l0 128 512 0 0-128z"/></svg>