<svg xmlns="http://www.w3.org/2000/svg" viewBox="0 0 448 512"><!--! Font Awesome Pro 6.6.0 by @fontawesome - https://fontawesome.com License - https://fontawesome.com/license (Commercial License) Copyright 2024 Fonticons, Inc. --><path d="M16 0L0 0 0 16 0 312l0 6.6 4.7 4.7L32 350.6 32 496l0 16 16 0 288 0 16 0 0-16 0-113.4 27.3-27.3 64-64 4.7-4.7 0-6.6 0-136 0-16-16 0-48 0 0-112 0-16L368 0 16 0zM384 160l32 0 0 113.4-59.3 59.3-32 32-4.7 4.7 0 6.6 0 104L64 480l0-136 0-6.6-4.7-4.7L32 305.4 32 32l320 0 0 96-80 0-16 0 0 16 0 48-122.7 0-27.7-20.8-12.8-9.6L73.6 187.2l12.8 9.6 32 24 4.3 3.2 5.3 0 128 0 0 48 0 16 16 0 64 0 16 0 0-32-16 0-48 0 0-32 0-32 0-32 64 0 16 0 16 0zM152.9 338.7l-13.3-8.9-17.8 26.6 13.3 8.9 28 18.7-28 18.7-13.3 8.9 17.8 26.6 13.3-8.9L192 403.2l39.1 26.1 13.3 8.9 17.8-26.6-13.3-8.9-28-18.7 28-18.7 13.3-8.9-17.8-26.6-13.3 8.9L192 364.8l-39.1-26.1z"/></svg>