<svg xmlns="http://www.w3.org/2000/svg" viewBox="0 0 512 512"><!--! Font Awesome Pro 6.6.0 by @fontawesome - https://fontawesome.com License - https://fontawesome.com/license (Commercial License) Copyright 2024 Fonticons, Inc. --><path d="M192 32l48 0 0 48 0 48-27.3 0c-6.2-14.1-20.3-24-36.7-24c-22.1 0-40 17.9-40 40s17.9 40 40 40c16.4 0 30.5-9.9 36.7-24l27.3 0 0 112-80 0-16 0 0 16 0 27.3c-14.1 6.2-24 20.3-24 36.7c0 22.1 17.9 40 40 40s40-17.9 40-40c0-16.4-9.9-30.5-24-36.7l0-11.3 64 0 0 128 0 48-48 0c-20.4 0-37.9-12.8-44.8-30.8L142.5 437l-12.9 2.2c-3.1 .5-6.3 .8-9.5 .8c-30.9 0-56-25.1-56-56c0-7.8 1.6-15.2 4.4-21.8l5.3-12.6-11.6-7.2C44 331 32 310.9 32 288c0-19.1 8.4-36.3 21.7-48.1l7.9-7-3.3-10c-1.5-4.7-2.4-9.7-2.4-15c0-20.4 12.8-38 30.9-44.9l12.5-4.8-2.5-13.2c-.6-3-.9-6-.9-9.2c0-22.4 15.4-41.3 36.2-46.5l11-2.8 1.1-11.3C146.5 51.1 167 32 192 32zm80 128l64 0 0 27.3c-14.1 6.2-24 20.3-24 36.7c0 22.1 17.9 40 40 40s40-17.9 40-40c0-16.4-9.9-30.5-24-36.7l0-43.3 0-16-16 0-80 0 0-48 0-48 48 0c25 0 45.5 19.1 47.8 43.4l1.1 11.3 11 2.8C400.6 94.7 416 113.6 416 136c0 3.1-.3 6.2-.9 9.2l-2.5 13.2 12.5 4.8C443.2 170 456 187.6 456 208c0 5.2-.8 10.3-2.4 15l-3.3 10 7.9 7C471.6 251.7 480 268.9 480 288c0 22.9-12 43-30.2 54.3l-11.6 7.2 5.3 12.6c2.8 6.7 4.4 14.1 4.4 21.8c0 30.9-25.1 56-56 56c-3.3 0-6.5-.3-9.5-.8L369.5 437l-4.7 12.2c-6.9 18-24.4 30.8-44.8 30.8l-48 0 0-48 0-48 59.3 0c6.2 14.1 20.3 24 36.7 24c22.1 0 40-17.9 40-40s-17.9-40-40-40c-16.4 0-30.5 9.9-36.7 24L272 352l0-192zM192 512l48 0 16 0 16 0 48 0c29.6 0 55.5-16.1 69.3-40c.9 0 1.8 0 2.7 0c48.6 0 88-39.4 88-88c0-7.6-1-15-2.8-22c21.2-17.6 34.8-44.2 34.8-74c0-25.1-9.6-48-25.4-65c.9-4.9 1.4-9.9 1.4-15c0-29.6-16.1-55.5-40-69.3c0-.9 0-1.8 0-2.7c0-33.6-20.7-62.4-50.1-74.2C389.7 26.4 357.9 0 320 0L272 0 256 0 240 0 192 0c-37.9 0-69.7 26.4-77.9 61.8C84.7 73.6 64 102.4 64 136c0 .9 0 1.8 0 2.7C40.1 152.5 24 178.4 24 208c0 5.1 .5 10.1 1.4 15C9.6 240 0 262.9 0 288c0 29.8 13.6 56.4 34.8 74C33 369 32 376.4 32 384c0 48.6 39.4 88 88 88c.9 0 1.8 0 2.7 0c13.8 23.9 39.7 40 69.3 40zM176 128a16 16 0 1 1 0 32 16 16 0 1 1 0-32zM160 336a16 16 0 1 1 0 32 16 16 0 1 1 0-32zM336 224a16 16 0 1 1 32 0 16 16 0 1 1 -32 0zm32 128a16 16 0 1 1 0 32 16 16 0 1 1 0-32z"/></svg>