<svg xmlns="http://www.w3.org/2000/svg" viewBox="0 0 512 512"><!--! Font Awesome Pro 6.6.0 by @fontawesome - https://fontawesome.com License - https://fontawesome.com/license (Commercial License) Copyright 2024 Fonticons, Inc. --><path d="M416 16l0-16L384 0l0 16 0 48.1c-53.3 1.8-96 45.5-96 99.3c0 42.2 26.7 79.8 66.6 93.8l80.3 28c27 9.4 45.1 34.9 45.1 63.6c0 37.2-30.1 67.3-67.3 67.3l-17.3 0c-20.3 0-40.1-5.5-57.5-15.9l-25.6-15.3-16.4 27.5 25.6 15.3c19.1 11.4 40.5 18.2 62.6 20l0 48.5 0 16 32 0 0-16 0-48.1c53.3-1.8 96-45.5 96-99.3c0-42.2-26.7-79.8-66.6-93.8l-80.3-28c-27-9.4-45.1-34.9-45.1-63.6c0-37.2 30.1-67.3 67.3-67.3L403 96c17 0 33.8 3.4 49.5 9.9l13.3 5.6L478.2 82l-13.3-5.6c-15.6-6.5-32.1-10.5-48.9-11.9L416 16zM0 32L0 48 0 304 0 480l32 0 0-160 80 0c3.1 0 6.3-.1 9.3-.3L172.6 480l33.6 0L153.1 314C212.6 296.3 256 241.2 256 176c0-79.5-64.5-144-144-144L16 32 0 32zM224 176c0 51-34 94-80.6 107.5l-.1-.4-7.1 2.3c-7.8 1.7-15.9 2.6-24.2 2.6l-80 0L32 64l80 0c61.9 0 112 50.1 112 112z"/></svg>