<svg xmlns="http://www.w3.org/2000/svg" viewBox="0 0 640 512"><!--! Font Awesome Pro 6.6.0 by @fontawesome - https://fontawesome.com License - https://fontawesome.com/license (Commercial License) Copyright 2024 Fonticons, Inc. --><path d="M352 32l0 448-96 0 0-80 0-32-32 0-64 0-32 0 0 32 0 80-96 0L32 32l320 0zM224 480l-64 0 0-80 64 0 0 80zM32 512l96 0 32 0 64 0 32 0 96 0 32 0 0-32 0-448 0-32L352 0 32 0 0 0 0 32 0 480l0 32 32 0zM80 96L64 96l0 16 0 64 0 16 16 0 64 0 16 0 0-16 0-64 0-16-16 0L80 96zm16 64l0-32 32 0 0 32-32 0zM224 96l0 16 0 64 0 16 16 0 64 0 16 0 0-16 0-64 0-16-16 0-64 0-16 0zm32 32l32 0 0 32-32 0 0-32zM80 224l-16 0 0 16 0 64 0 16 16 0 64 0 16 0 0-16 0-64 0-16-16 0-64 0zm16 64l0-32 32 0 0 32-32 0zm128-64l0 16 0 64 0 16 16 0 64 0 16 0 0-16 0-64 0-16-16 0-64 0-16 0zm32 32l32 0 0 32-32 0 0-32zm384-64l-16 0-16 0c-33.4 0-62.8 17-80 42.9C510.8 209 481.4 192 448 192l-16 0-16 0 0 16 0 16c0 24.6 9.2 47 24.4 64l-8.4 0-16 0 0 16 0 16c0 24.6 9.2 47 24.4 64l-8.4 0-16 0 0 16 0 16c0 53 43 96 96 96l16 0 16 0c53 0 96-43 96-96l0-16 0-16-16 0-8.4 0c15.2-17 24.4-39.4 24.4-64l0-16 0-16-16 0-8.4 0c15.2-17 24.4-39.4 24.4-64l0-16 0-16zm-96 96c0-35.3 28.7-64 64-64c0 35.3-28.7 64-64 64c0 0 0 0 0 0zm-7.6 32c-3.1 3.4-5.9 7.1-8.4 10.9c-2.6-3.8-5.4-7.5-8.4-10.9l8.4 0 8.4 0zM512 288c-35.3 0-64-28.7-64-64c35.3 0 64 28.7 64 64zm32 96s0 0 0 0c0-35.3 28.7-64 64-64c0 35.3-28.7 64-64 64zm-16 32l8.4 0c-3.1 3.4-5.9 7.1-8.4 10.9c-2.6-3.8-5.4-7.5-8.4-10.9l8.4 0zm16 64c0-35.3 28.7-64 64-64c0 35.3-28.7 64-64 64c0 0 0 0 0 0zm-32 0c-35.3 0-64-28.7-64-64c35.3 0 64 28.7 64 64zm0-96c-35.3 0-64-28.7-64-64c35.3 0 64 28.7 64 64zM544 32l-32 0 0 16 0 112 0 16 32 0 0-16 0-112 0-16zm32 64l0 48 0 16 32 0 0-16 0-48 0-16-32 0 0 16zM448 144l0 16 32 0 0-16 0-48 0-16-32 0 0 16 0 48z"/></svg>