<svg xmlns="http://www.w3.org/2000/svg" viewBox="0 0 384 512"><!--! Font Awesome Pro 6.6.0 by @fontawesome - https://fontawesome.com License - https://fontawesome.com/license (Commercial License) Copyright 2024 Fonticons, Inc. --><path d="M32 32l0 448 96 0 0-80 0-32 32 0 64 0 32 0 0 32 0 80 96 0 0-448L32 32zM160 480l64 0 0-80-64 0 0 80zm-32 32l-96 0L0 512l0-32L0 32 0 0 32 0 352 0l32 0 0 32 0 448 0 32-32 0-96 0-32 0-64 0-32 0zm96-272l64 0 16 0 0 16 0 64 0 16-16 0-64 0-16 0 0-16 0-64 0-16 16 0zm16 64l32 0 0-32-32 0 0 32zM80 240l16 0 64 0 16 0 0 16 0 64 0 16-16 0-64 0-16 0 0-16 0-64 0-16zm32 32l0 32 32 0 0-32-32 0zm0-176l0 64c0 8.8 7.2 16 16 16s16-7.2 16-16l0-64 0-16 32 0 0 16 0 64c0 26.5-21.5 48-48 48s-48-21.5-48-48l0-64 0-16 32 0 0 16zM224 80l8 0 9.9 0 4.4 8.8L272 140.2 272 96l0-16 32 0 0 16 0 96 0 16-16 0-8 0-9.9 0-4.4-8.8L240 147.8l0 44.2 0 16-32 0 0-16 0-96 0-16 16 0z"/></svg>