<svg xmlns="http://www.w3.org/2000/svg" viewBox="0 0 512 512"><!--! Font Awesome Pro 6.6.0 by @fontawesome - https://fontawesome.com License - https://fontawesome.com/license (Commercial License) Copyright 2024 Fonticons, Inc. --><path d="M0 192l32 0 224 0 224 0 32 0 0-32 0-16L256 0 0 144l0 16 0 32zm306.6-32c3.5-7.3 5.4-15.4 5.4-24c0-30.9-25.1-56-56-56s-56 25.1-56 56c0 8.6 1.9 16.7 5.4 24L36.8 160 256 36.7 475.2 160l-168.6 0zM256 112a24 24 0 1 1 0 48 24 24 0 1 1 0-48zM64 352l-16 0 0 32 16 0 384 0 16 0 0-32-16 0 0-128-32 0 0 128-80 0 0-128-32 0 0 128-96 0 0-128-32 0 0 128-80 0 0-128-32 0 0 128zm424 96l0-32-16 0L40 416l-16 0 0 32 16 0 432 0 16 0zM16 480L0 480l0 32 16 0 480 0 16 0 0-32-16 0L16 480z"/></svg>