<svg xmlns="http://www.w3.org/2000/svg" viewBox="0 0 640 512"><!--! Font Awesome Pro 6.6.0 by @fontawesome - https://fontawesome.com License - https://fontawesome.com/license (Commercial License) Copyright 2024 Fonticons, Inc. --><path d="M32 32l16 0 144 0 9.9 0 4.4 8.8L281.9 192l54.1 0 0-64 0-16 32 0 0 16 0 64 64 0 16 0 0 16 0 96 80 0 0-64 0-5.8 3.7-4.5 80-96 24.6 20.5L560 245.8l0 148.4 76.3 91.5-24.6 20.5-80-96-3.7-4.5 0-5.8 0-64-68.1 0c12.7 18.1 20.1 40.2 20.1 64c0 61.9-50.1 112-112 112l-256 0C50.1 512 0 461.9 0 400c0-30.5 12.2-58.2 32-78.4L32 224l0-16 0-16L32 48l0-16zM272.3 224c-.2 0-.4 0-.7 0L64 224l0 74.8c14.5-6.9 30.8-10.8 48-10.8l256 0c17.2 0 33.5 3.9 48 10.8l0-74.8-143.7 0zM182.1 64L64 64l0 128 182.1 0-64-128zM112 320c-44.2 0-80 35.8-80 80s35.8 80 80 80l256 0c44.2 0 80-35.8 80-80s-35.8-80-80-80l-256 0zM96 400a24 24 0 1 1 48 0 24 24 0 1 1 -48 0zm264-24a24 24 0 1 1 0 48 24 24 0 1 1 0-48zM256 400a24 24 0 1 1 48 0 24 24 0 1 1 -48 0zm-56-24a24 24 0 1 1 0 48 24 24 0 1 1 0-48z"/></svg>