<svg xmlns="http://www.w3.org/2000/svg" viewBox="0 0 512 512"><!--! Font Awesome Pro 6.6.0 by @fontawesome - https://fontawesome.com License - https://fontawesome.com/license (Commercial License) Copyright 2024 Fonticons, Inc. --><path d="M272 0l0 16 0 224 224 0 16 0 0 32-16 0-224 0 0 224 0 16-32 0 0-16 0-224L16 272 0 272l0-32 16 0 224 0 0-224 0-16 32 0zM416 40l0 8 0 8 0 40 40 0 8 0 8 0 8 0 0 32-8 0-8 0-8 0-40 0 0 40 0 8 0 8 0 8-32 0 0-8 0-8 0-8 0-40-40 0-8 0-8 0-8 0 0-32 8 0 8 0 8 0 40 0 0-40 0-8 0-8 0-8 32 0 0 8zM64.4 329.8l11.3 11.3L112 377.4l36.3-36.3 11.3-11.3 22.6 22.6-11.3 11.3L134.6 400l36.3 36.3 11.3 11.3-22.6 22.6-11.3-11.3L112 422.6 75.7 458.9 64.4 470.2 41.8 447.6l11.3-11.3L89.4 400 53.1 363.7 41.8 352.4l22.6-22.6zM48 96l128 0 16 0 0 32-16 0L48 128l-16 0 0-32 16 0zM464 352l16 0 0 32-16 0-128 0-16 0 0-32 16 0 128 0zm0 64l16 0 0 32-16 0-128 0-16 0 0-32 16 0 128 0z"/></svg>