<svg xmlns="http://www.w3.org/2000/svg" viewBox="0 0 448 512"><!--! Font Awesome Pro 6.6.0 by @fontawesome - https://fontawesome.com License - https://fontawesome.com/license (Commercial License) Copyright 2024 Fonticons, Inc. --><path d="M416 32l0 352-87.1 0-209.8 0L32 384 32 32l384 0zM32 416l69.3 0L65.8 480 48 512l36.6 0 278.8 0 36.6 0-17.8-32-35.6-64 69.3 0 32 0 0-32 0-352 0-32L416 0 32 0 0 0 0 32 0 384l0 32 32 0zm70.4 64l35.6-64 172.1 0 35.6 64-243.2 0zM320 208a96 96 0 1 1 -192 0 96 96 0 1 1 192 0zM224 80a128 128 0 1 0 0 256 128 128 0 1 0 0-256z"/></svg>