<svg xmlns="http://www.w3.org/2000/svg" viewBox="0 0 512 512"><!--! Font Awesome Pro 6.6.0 by @fontawesome - https://fontawesome.com License - https://fontawesome.com/license (Commercial License) Copyright 2024 Fonticons, Inc. --><path d="M522.2 44.3l-192 160L319.7 213l-10.3-9L191.1 100.5 25.4 220.9 6.6 195.1l176-128 10.3-7.5 9.6 8.4L320.2 171 501.8 19.7l20.5 24.6zM80 352l-32 0 0 96 32 0 0-96zM48 320l32 0 32 0 0 32 0 96 0 32-32 0-32 0-32 0 0-32 0-96 0-32 32 0zm128-64l0 192 32 0 0-192-32 0zm-32-32l32 0 32 0 32 0 0 32 0 192 0 32-32 0-32 0-32 0 0-32 0-192 0-32zm192 96l-32 0 0 128 32 0 0-128zm-32-32l32 0 32 0 0 32 0 128 0 32-32 0-32 0-32 0 0-32 0-128 0-32 32 0zm128-32l0 192 32 0 0-192-32 0zm-32-32l32 0 32 0 32 0 0 32 0 192 0 32-32 0-32 0-32 0 0-32 0-192 0-32z"/></svg>