<svg xmlns="http://www.w3.org/2000/svg" viewBox="0 0 640 512"><!--! Font Awesome Pro 6.6.0 by @fontawesome - https://fontawesome.com License - https://fontawesome.com/license (Commercial License) Copyright 2024 Fonticons, Inc. --><path d="M288 32.5L288 224l106.8 0c-12.9 9.1-24.5 19.9-34.6 32L288 256l-32 0 0-32L256 .6c5.6-.4 11.3-.6 17.1-.6c116 0 212.7 82.7 234.4 192.4c-3.8-.2-7.6-.4-11.5-.4c-7.1 0-14.2 .4-21.1 1.2C455.2 105.6 379.9 39.1 288 32.5zM256 288l83.2 0c-5.2 10.1-9.4 20.8-12.6 32L224 320l-32 0 0-32 0-218.4C100.3 91.2 32 173.6 32 272c0 114.9 93.1 208 208 208c37.1 0 71.9-9.7 102-26.7c5.2 9.4 11.3 18.3 18.1 26.5C324.8 500.3 283.8 512 240 512C107.5 512 0 404.5 0 272C0 155.9 82.5 59 192 36.8c10.4-2.1 21.1-3.6 32-4.3l0 32.1L224 256l0 32 32 0zM496 480a112 112 0 1 0 0-224 112 112 0 1 0 0 224zm0-256a144 144 0 1 1 0 288 144 144 0 1 1 0-288zm25.4 169.4a35.9 35.9 0 1 0 -50.7-50.7 35.9 35.9 0 1 0 50.7 50.7zm10 32.6c-21.6 13.2-49.1 13.2-70.7 0l-17.3 17.3-22.6-22.6L438 403.3c-13.2-21.6-13.2-49.1 0-70.7l-17.3-17.3 22.6-22.6L460.7 310c21.6-13.2 49.1-13.2 70.7 0l17.3-17.3 22.6 22.6L554 332.7c13.2 21.6 13.2 49.1 0 70.7l17.3 17.3-22.6 22.6L531.3 426z"/></svg>