<svg xmlns="http://www.w3.org/2000/svg" viewBox="0 0 576 512"><!--! Font Awesome Pro 6.6.0 by @fontawesome - https://fontawesome.com License - https://fontawesome.com/license (Commercial License) Copyright 2024 Fonticons, Inc. --><path d="M543.4 208c.4 5.3 .6 10.6 .6 16s-.2 10.7-.6 16L336 240l-32 0 0-32L304 .6c5.3-.4 10.6-.6 16-.6s10.7 .2 16 .6C447 8.4 535.6 97 543.4 208zM336 208l175.3 0C503.6 114.7 429.3 40.4 336 32.7L336 208zM224 301.3l0-13.3 0-218.4C132.3 91.2 64 173.6 64 272c0 114.9 93.1 208 208 208c37.6 0 72.9-10 103.3-27.4L233.4 310.6l-9.4-9.4zm178.2 133L425 457c-8.3 6.9-17.1 13.2-26.3 19C361.9 498.8 318.5 512 272 512C139.5 512 32 404.6 32 272C32 155.9 114.5 59 224 36.8c10.4-2.1 21.1-3.6 32-4.3l0 32.1L256 288 402.2 434.2zM320 288l45.3 0 178.1 0 32.1 0c-.7 10.9-2.2 21.6-4.3 32c-11.1 54.7-40.8 102.7-82.2 137L352 320l-32-32zm77.3 32l92.3 92.3c23.5-25.7 40.6-57.3 48.9-92.3l-141.2 0z"/></svg>