<svg xmlns="http://www.w3.org/2000/svg" viewBox="0 0 640 512"><!--! Font Awesome Pro 6.6.0 by @fontawesome - https://fontawesome.com License - https://fontawesome.com/license (Commercial License) Copyright 2024 Fonticons, Inc. --><path d="M608 32L192 32l0 68c-10.2-2.6-21-4-32-4l0-64 0-32 32 0L608 0l32 0 0 32 0 352 0 32-32 0-283.4 0L315 384l293 0 0-352zM400 112l16 0 96 0 16 0 0 16 0 96 0 16-32 0 0-16 0-57.4L395.3 267.3 384 278.6l-11.3-11.3-80-80L281.4 176 304 153.4l11.3 11.3L384 233.4 473.4 144 416 144l-16 0 0-32zM160 288a64 64 0 1 0 0-128 64 64 0 1 0 0 128zm0-160a96 96 0 1 1 0 192 96 96 0 1 1 0-192zM71.8 384L43 480l234 0-28.8-96L71.8 384zM272 352l38.4 128 9.6 32-33.4 0L33.4 512 0 512l9.6-32L48 352l224 0z"/></svg>