<svg xmlns="http://www.w3.org/2000/svg" viewBox="0 0 512 512"><!--! Font Awesome Pro 6.6.0 by @fontawesome - https://fontawesome.com License - https://fontawesome.com/license (Commercial License) Copyright 2024 Fonticons, Inc. --><path d="M32 448l448 0 0-160-66.7 0c-6.6 18.6-24.4 32-45.3 32s-38.7-13.4-45.3-32L32 288l0 160zM413.3 256l66.7 0c0-102.5-80.3-186.2-181.4-191.7l-43.8 34c19.2 6.2 33.2 24.3 33.2 45.7c0 26.5-21.5 48-48 48c-25.5 0-46.3-19.8-47.9-44.9L52.1 256l270.6 0c6.6-18.6 24.4-32 45.3-32s38.7 13.4 45.3 32zM0 256L288 32c123.7 0 224 100.3 224 224l0 192 0 32-32 0L32 480 0 480l0-32L0 256zM192 368a16 16 0 1 0 -32 0 16 16 0 1 0 32 0zm-64 0a48 48 0 1 1 96 0 48 48 0 1 1 -96 0zM240 160a16 16 0 1 0 0-32 16 16 0 1 0 0 32zM384 272a16 16 0 1 0 -32 0 16 16 0 1 0 32 0z"/></svg>