<svg xmlns="http://www.w3.org/2000/svg" viewBox="0 0 448 512"><!--! Font Awesome Pro 6.6.0 by @fontawesome - https://fontawesome.com License - https://fontawesome.com/license (Commercial License) Copyright 2024 Fonticons, Inc. --><path d="M32 402.7L77.3 448l293.5 0L416 402.7l0-18.7L32 384l0 18.7zM416 352c0-83-44.5-143.1-95.7-190.5c-20.4-18.9-40.9-35-59.9-49.7c-5-3.9-9.8-7.7-14.5-11.4c-7.6-6-15.1-12.1-21.9-18.2c-6.7 6-14.2 12.1-21.9 18.2c-4.7 3.7-9.6 7.5-14.5 11.4c0 0 0 0 0 0s0 0 0 0c-18.9 14.8-39.4 30.8-59.8 49.7C76.5 208.9 32 269 32 352l384 0zM168.4 86.2C181.3 76 192.9 67 202.2 58.7c11.3-10 19.2-18.8 21.8-26.7c2.6 7.9 10.5 16.7 21.8 26.7c9.3 8.2 20.9 17.3 33.8 27.4C346.3 138.2 448 217.7 448 352l0 32 0 32-64 64L64 480 0 416l0-32 0-32C0 217.7 101.7 138.2 168.4 86.2z"/></svg>