<svg xmlns="http://www.w3.org/2000/svg" viewBox="0 0 448 512"><!--! Font Awesome Pro 6.6.0 by @fontawesome - https://fontawesome.com License - https://fontawesome.com/license (Commercial License) Copyright 2024 Fonticons, Inc. --><path d="M240 16l0-16L208 0l0 16 0 32-40 0-16 0 0 32 16 0 40 0 0 48L32 128 0 128l0 32 0 40L66.1 352l34.9 0L32 193.3 32 160l176 0 32 0 176 0 0 33.3L347 352l34.9 0L448 200l0-40 0-32-32 0-176 0 0-48 40 0 16 0 0-32-16 0-40 0 0-32zM64 470.5L97.8 416l252.4 0L384 470.5l0 9.5L64 480l0-9.5zM80 384L32 461.3 32 480l0 32 32 0 320 0 32 0 0-32 0-18.7L368 384 80 384z"/></svg>