<svg xmlns="http://www.w3.org/2000/svg" viewBox="0 0 256 512"><!--! Font Awesome Pro 6.6.0 by @fontawesome - https://fontawesome.com License - https://fontawesome.com/license (Commercial License) Copyright 2024 Fonticons, Inc. --><path d="M144 0l0 16 0 16 16 0 16 0 0 32-16 0-16 0 0 32 48 0 32 0 0 32 0 24-32.7 72 8.7 0 16 0 0 32-16 0-13.8 0 13.1 96L167 352l-13.1-96-51.8 0L89 352l-32.3 0 13.1-96L56 256l-16 0 0-32 16 0 8.7 0L32 152l0-24 0-32 32 0 48 0 0-32L96 64 80 64l0-32 16 0 16 0 0-16 0-16 32 0zM99.9 224l56.2 0L192 145.1l0-17.1-48 0-32 0-48 0 0 17.1L99.9 224zM32 480l192 0 0-16.7L191.2 416 64.8 416 32 463.3 32 480zM0 480l0-26.7L48 384l160 0 48 69.3 0 26.7 0 32-32 0L32 512 0 512l0-32z"/></svg>