<svg xmlns="http://www.w3.org/2000/svg" viewBox="0 0 576 512"><!--! Font Awesome Pro 6.6.0 by @fontawesome - https://fontawesome.com License - https://fontawesome.com/license (Commercial License) Copyright 2024 Fonticons, Inc. --><path d="M208 64a32 32 0 1 0 -64 0 32 32 0 1 0 64 0zm-96 0a64 64 0 1 1 128 0A64 64 0 1 1 112 64zM416 224l-32 0 0 144 32 0 0 32 0 80 57 0-14.7-73.7L457 400l-5.1-25.7-1.3-6.3-1.9-9.7-.6-3.1 0-3.2 0-23 0-3.7 0-23.1 0-14.3 0-128-32 0 0 32 0 32zm116.2 83.9L480 325.3l0 26.7 3.2 16 6.4 0 22.4 0 32 0 0 32-21.8 0L512 400l-22.4 0 6.4 32 9.6 48 6.4 32-32.6 0L416 512l-32 0 0-32 0-48 0-32-32 0 0-32 0-144 0-32 32 0 0-32 0-32 32 0 0-32 0-32 0-32-16 0 0-32 16 0 16 0 16 0 0 16 0 16 0 64 0 32 32 0 0 32 0 32 0 63 0 25 0 8 32-8 0-56 0-32 32 0 0 32 0 56 0 24-11.8 3.9zM117 160l9.5 0 99 0 9.5 0 4.6 8.3 70.5 128 7.7 14-28 15.4-7.7-14-42-76.2L240 496l0 16-32 0 0-16 0-112-64 0 0 112 0 16-32 0 0-16 0-260.5L70 311.7l-7.7 14-28-15.4 7.7-14 70.5-128L117 160zm27 192l64 0 0-152 0-8-64 0 0 8 0 152z"/></svg>