<svg xmlns="http://www.w3.org/2000/svg" viewBox="0 0 512 512"><!--! Font Awesome Pro 6.6.0 by @fontawesome - https://fontawesome.com License - https://fontawesome.com/license (Commercial License) Copyright 2024 Fonticons, Inc. --><path d="M480 256A224 224 0 1 0 32 256a224 224 0 1 0 448 0zM0 256a256 256 0 1 1 512 0A256 256 0 1 1 0 256zM268 128c37.6 0 68 30.4 68 68c0 20.2-8.8 38.4-22.9 50.9C331.9 260.7 344 282.9 344 308c0 42-34 76-76 76l-24 0c-42 0-76-34-76-76c0-25.1 12.1-47.3 30.9-61.1c-14-12.5-22.9-30.6-22.9-50.9c0-37.6 30.4-68 68-68l24 0zM244 232s0 0 0 0l24 0c19.9 0 36-16.1 36-36s-16.1-36-36-36l-24 0c-19.9 0-36 16.1-36 36s16.1 36 36 36zm24 32l-24 0c-24.3 0-44 19.7-44 44s19.7 44 44 44l24 0c24.3 0 44-19.7 44-44s-19.7-44-44-44z"/></svg>