<svg xmlns="http://www.w3.org/2000/svg" viewBox="0 0 512 512"><!--! Font Awesome Pro 6.6.0 by @fontawesome - https://fontawesome.com License - https://fontawesome.com/license (Commercial License) Copyright 2024 Fonticons, Inc. --><path d="M480 256A224 224 0 1 1 32 256a224 224 0 1 1 448 0zM0 256a256 256 0 1 0 512 0A256 256 0 1 0 0 256zm379.3 11.3L390.6 256l-11.3-11.3-96-96L272 137.4 249.4 160l11.3 11.3L329.4 240 144 240l-16 0 0 32 16 0 185.4 0-68.7 68.7L249.4 352 272 374.6l11.3-11.3 96-96z"/></svg>