<svg xmlns="http://www.w3.org/2000/svg" viewBox="0 0 512 512"><!--! Font Awesome Pro 6.6.0 by @fontawesome - https://fontawesome.com License - https://fontawesome.com/license (Commercial License) Copyright 2024 Fonticons, Inc. --><path d="M256 32a224 224 0 1 1 0 448 224 224 0 1 1 0-448zm0 480A256 256 0 1 0 256 0a256 256 0 1 0 0 512zM191.4 168.8l-22.6 22.6 11.3 11.3L233.4 256l-53.3 53.3-11.3 11.3 22.6 22.6 11.3-11.3L256 278.6l53.3 53.3 11.3 11.3 22.6-22.6-11.3-11.3L278.6 256l53.3-53.3 11.3-11.3-22.6-22.6-11.3 11.3L256 233.4l-53.3-53.3-11.3-11.3z"/></svg>