<svg xmlns="http://www.w3.org/2000/svg" viewBox="0 0 512 512"><!--! Font Awesome Pro 6.6.0 by @fontawesome - https://fontawesome.com License - https://fontawesome.com/license (Commercial License) Copyright 2024 Fonticons, Inc. --><path d="M256 32a224 224 0 1 1 0 448 224 224 0 1 1 0-448zm0 480A256 256 0 1 0 256 0a256 256 0 1 0 0 512zM152.5 183.2c10.8-3.7 25-7.2 39.5-7.2s28.7 3.5 39.5 7.2c3.2 1.1 6.1 2.2 8.5 3.2l0 137.5c-12.6-6-29.6-11.8-48-11.8c-18.1 0-35 2.1-47.3 4.2l-.7 .1 0-130c2.4-1 5.3-2.1 8.5-3.2zM132.1 351.5s0 0 0 0s0 0 0 0s0 0 0 0l.2 0 .9-.2c.8-.2 2-.5 3.6-.8c3.1-.7 7.7-1.6 13.3-2.6c11.2-1.9 26.3-3.8 42-3.8c13.3 0 26.7 4.8 37.4 10.3c5.2 2.7 9.5 5.3 12.5 7.3c1.5 1 2.6 1.8 3.3 2.3c.4 .3 .6 .5 .8 .6l.1 .1s0 0 0 0s0 0 0 0l9.9 7.9 9.9-7.9s0 0 0 0s0 0 0 0s0 0 0 0l.1-.1c.2-.1 .4-.3 .8-.6c.7-.5 1.8-1.3 3.3-2.3c2.9-2 7.2-4.6 12.5-7.3c10.7-5.4 24.1-10.3 37.4-10.3c15.7 0 30.8 1.9 42 3.8c5.6 1 10.1 1.9 13.3 2.6c1.6 .4 2.8 .6 3.6 .8l.9 .2 .2 0s0 0 0 0s0 0 0 0s0 0 0 0s0 0 0 0s0 0 0 0l20.1 5.3 0-20.8 0-160 0-9.6-8.5-4.5L384 176c7.5-14.1 7.5-14.1 7.5-14.1s0 0 0 0s0 0 0 0s0 0 0 0l-.1-.1-.4-.2c-.3-.2-.7-.4-1.2-.6c-1.1-.5-2.5-1.2-4.4-2.1c-3.7-1.7-9-3.9-15.5-6c-12.7-4.3-30.6-8.8-49.8-8.8s-37.1 4.5-49.8 8.8c-5.7 1.9-10.6 3.9-14.2 5.5c-3.6-1.6-8.5-3.5-14.2-5.5c-12.7-4.3-30.6-8.8-49.8-8.8s-37.1 4.5-49.8 8.8c-6.4 2.2-11.7 4.4-15.5 6c-1.9 .8-3.4 1.5-4.4 2.1c-.5 .3-.9 .5-1.2 .6l-.4 .2-.1 .1c0 0 0 0 0 0s0 0 0 0s0 0 0 0L128 176l-7.5-14.1-8.5 4.5 0 9.6 0 160 0 20.8 20.1-5.3s0 0 0 0s0 0 0 0zM320 312c-18.4 0-35.4 5.9-48 11.8l0-137.5c2.4-1 5.3-2.1 8.5-3.2c10.8-3.7 25-7.2 39.5-7.2s28.7 3.5 39.5 7.2c3.2 1.1 6.1 2.2 8.5 3.2l0 130-.7-.1C355 314.1 338.1 312 320 312z"/></svg>