<svg xmlns="http://www.w3.org/2000/svg" viewBox="0 0 512 512"><!--! Font Awesome Pro 6.6.0 by @fontawesome - https://fontawesome.com License - https://fontawesome.com/license (Commercial License) Copyright 2024 Fonticons, Inc. --><path d="M256 32a224 224 0 1 1 0 448 224 224 0 1 1 0-448zm0 480A256 256 0 1 0 256 0a256 256 0 1 0 0 512zM208 128l-12.5 0-3 12.1-24 96L164 254.1l18.4 1.9 98.8 10c22.1 2.2 38.8 20.8 38.8 42.9c0 23.8-19.3 43.2-43.2 43.2l-44 0c-16.8 0-32.4-8.3-41.8-22.3l-1.8-2.7-8.9-13.3-26.6 17.8 8.9 13.3 1.8 2.7c15.3 22.8 40.9 36.4 68.3 36.4l44 0c41.5 0 75.2-33.7 75.2-75.2c0-38.6-29.2-70.9-67.6-74.8L204 225.9 220.5 160l99.5 0 16 0 0-32-16 0-112 0z"/></svg>