<svg xmlns="http://www.w3.org/2000/svg" viewBox="0 0 640 512"><!--! Font Awesome Pro 6.6.0 by @fontawesome - https://fontawesome.com License - https://fontawesome.com/license (Commercial License) Copyright 2024 Fonticons, Inc. --><path d="M40.4 18L27.8 8.1 8.1 33.4l12.6 9.8L599.8 494.3l12.6 9.8 19.7-25.2L619.5 469 40.4 18zM608 401.8L608 64l0-32-32 0L139.6 32l40.5 32L576 64l0 312.6 32 25.3zM373.5 216.7c11.7-15 30-24.7 50.5-24.7c21.9 0 41.2 11 52.8 27.8l26.4-18.1C485.8 176.5 456.9 160 424 160c-30.7 0-58.1 14.4-75.6 36.9l25.1 19.8zM64 135.4L32 110.2 32 448l0 32 32 0 436.4 0-40.5-32L64 448l0-312.6zM275.8 302.7C264.4 313.4 248.9 320 232 320c-35.3 0-64-28.7-64-64c0-11.6 3.1-22.4 8.4-31.8l-25.3-20C141.6 219.2 136 236.9 136 256c0 53 43 96 96 96c27.2 0 51.7-11.3 69.1-29.4l-25.3-20z"/></svg>