<svg xmlns="http://www.w3.org/2000/svg" viewBox="0 0 448 512"><!--! Font Awesome Pro 6.6.0 by @fontawesome - https://fontawesome.com License - https://fontawesome.com/license (Commercial License) Copyright 2024 Fonticons, Inc. --><path d="M128 32l0 96-32 0-32 0-32 0 0-96 96 0zM32 160l32 0 0 192-32 0L0 352l0 32 0 96 0 32 32 0 96 0 32 0 0-32 0-96 0-32-32 0-32 0 0-117.5c26.4 32.6 66.8 53.5 112 53.5l80 0 0 32 0 32 32 0 96 0 32 0 0-32 0-96 0-32-32 0-96 0-32 0 0 32 0 32-80 0c-56.4 0-103.1-41.7-110.9-96l30.9 0 32 0 0-32 0-96 0-32L128 0 32 0 0 0 0 32l0 96 0 32 32 0zM320 288l0-32 0-32 96 0 0 96-96 0 0-32zM64 384l32 0 32 0 0 96-96 0 0-96 32 0z"/></svg>