<svg xmlns="http://www.w3.org/2000/svg" viewBox="0 0 512 512"><!--! Font Awesome Pro 6.6.0 by @fontawesome - https://fontawesome.com License - https://fontawesome.com/license (Commercial License) Copyright 2024 Fonticons, Inc. --><path d="M160 80c0 2.4 1.3 6.8 8.3 12.8c1.4 1.2 2.9 2.4 4.6 3.6c-15.4 .6-30.4 1.9-44.9 3.9L128 80c0-15.3 8.6-27.7 19.4-37c10.9-9.4 25.7-17.1 42.7-23.2C224.1 7.3 270 0 320 0s95.9 7.3 129.9 19.7c16.9 6.2 31.8 13.9 42.7 23.2C503.4 52.3 512 64.7 512 80l0 104c0 0 0 0 0 0l0 113.9c0 15.4-8.2 28.2-19.1 38s-25.7 17.9-42.7 24.4c-10.4 3.9-21.8 7.4-34.1 10.3l0-33c8.2-2.2 15.8-4.6 22.8-7.2c14.9-5.7 25.8-12 32.7-18.2s8.5-11.1 8.5-14.2l0-66.2c-8.7 5.6-18.8 10.5-29.9 14.7c-10.4 3.9-21.8 7.4-34.1 10.3l0-33c8.2-2.2 15.8-4.6 22.8-7.2c14.9-5.7 25.8-12 32.7-18.2s8.5-11.1 8.5-14.2l0-57.9c-8.8 5.4-19 10.1-30.1 14.1c-17.3 6.3-37.6 11.3-60 14.6c-1.9-1.9-3.8-3.8-5.7-5.5c-10.1-9.1-21.7-16.4-33.8-22.5c34.8-2.3 65.4-8.4 88.5-16.8c14.9-5.4 25.8-11.5 32.8-17.4c7-6 8.3-10.4 8.3-12.8s-1.3-6.8-8.3-12.8c-6.9-5.9-17.8-12-32.8-17.4C409.3 39 367.2 32 320 32s-89.3 7-119 17.8c-14.9 5.4-25.8 11.5-32.8 17.4c-7 6-8.3 10.4-8.3 12.8zM32 208c0 2.4 1.3 6.8 8.3 12.8c6.9 5.9 17.8 12 32.8 17.4C102.7 249 144.8 256 192 256s89.3-7 119-17.8c14.9-5.4 25.8-11.5 32.8-17.4c7-6 8.3-10.4 8.3-12.8s-1.3-6.8-8.3-12.8c-6.9-5.9-17.8-12-32.8-17.4C281.3 167 239.2 160 192 160s-89.3 7-119 17.8c-14.9 5.4-25.8 11.5-32.8 17.4c-7 6-8.3 10.4-8.3 12.8zM0 208c0-15.3 8.6-27.7 19.4-37c10.9-9.4 25.7-17.1 42.7-23.2C96.1 135.3 142 128 192 128s95.9 7.3 129.9 19.7c16.9 6.2 31.8 13.9 42.7 23.2c10.9 9.3 19.4 21.8 19.4 37l0 104c0 0 0 0 0 0l0 113.9c0 15.4-8.2 28.2-19.1 38s-25.7 17.9-42.7 24.4C288.1 501.3 242 509 192 509s-96.1-7.7-130.1-20.7c-17-6.5-31.8-14.6-42.7-24.4S0 441.3 0 425.9L0 312 0 208zm352 46.1c-8.8 5.4-19 10.1-30.1 14.1C287.9 280.7 242 288 192 288s-95.9-7.3-129.9-19.7c-11.1-4-21.3-8.7-30.1-14.1L32 312c0 3.1 1.6 8 8.5 14.2s17.8 12.6 32.7 18.2C102.9 355.7 144.8 363 192 363s89.1-7.3 118.8-18.6c14.9-5.7 25.8-12 32.7-18.2s8.5-11.1 8.5-14.2l0-57.9zM32 425.9c0 3.1 1.6 8 8.5 14.2s17.8 12.6 32.7 18.2C102.9 469.6 144.8 477 192 477s89.1-7.3 118.8-18.6c14.9-5.7 25.8-12 32.7-18.2s8.5-11.1 8.5-14.2l0-66.2c-8.7 5.6-18.8 10.5-29.9 14.7C288.1 387.4 242 395 192 395s-96.1-7.7-130.1-20.7c-11-4.2-21.1-9.1-29.9-14.7l0 66.2z"/></svg>