<svg xmlns="http://www.w3.org/2000/svg" viewBox="0 0 640 512"><!--! Font Awesome Pro 6.6.0 by @fontawesome - https://fontawesome.com License - https://fontawesome.com/license (Commercial License) Copyright 2024 Fonticons, Inc. --><path d="M78.2 274.7L70.9 293 52.4 339.1l99.9-23 6.7-1.6 6.8 1.4c13.5 2.7 27.6 4.2 42.2 4.2c102.4 0 176-69.3 176-144s-73.6-144-176-144S32 101.3 32 176c0 30.8 11.9 59.8 33.2 84l13 14.8zM38 375.2L0 384l14.5-36.2 26.7-66.7C15.3 251.8 0 215.4 0 176C0 78.8 93.1 0 208 0S416 78.8 416 176s-93.1 176-208 176c-16.7 0-32.9-1.7-48.5-4.8L38 375.2zm207.2 6.2c11.5-1.6 22.8-3.9 33.8-6.8C308.4 417.3 363.8 448 432 448c14.6 0 28.7-1.5 42.2-4.2l6.8-1.4 6.7 1.6 99.9 23L569.1 421l-7.3-18.3 13-14.8c21.3-24.1 33.2-53.2 33.2-84c0-70.9-66.3-137-160.6-143.5c-.9-11.1-2.8-21.9-5.6-32.3C552.1 132.5 640 209.6 640 304c0 39.4-15.3 75.8-41.2 105.1l26.7 66.7L640 512l-38-8.8-121.5-28c-15.6 3.1-31.8 4.8-48.5 4.8c-82 0-153-40.2-186.8-98.5zM185.3 80.7l39.7 0c27.7 0 50 22.7 50 50.2c0 18.7-10.5 36.1-27.3 44.7L224 187.6l0 15.7-32 0 0-16 0-9.5 0-9.8 8.7-4.5L233.2 147c6-3 9.8-9.3 9.8-16.1c0-10.1-8.2-18.2-18-18.2l-39.7 0c-6.8 0-12.3 5.5-12.3 12.3l0 5.7-32 0 0-5.7c0-24.5 19.8-44.3 44.3-44.3zM225 221.3l0 34-34 0 0-34 34 0zm319.6 62L454 374l-11.3 11.3L431.4 374l-48-48L406 303.4 442.7 340 522 260.7l22.6 22.6z"/></svg>