<svg xmlns="http://www.w3.org/2000/svg" viewBox="0 0 576 512"><!--! Font Awesome Pro 6.6.0 by @fontawesome - https://fontawesome.com License - https://fontawesome.com/license (Commercial License) Copyright 2024 Fonticons, Inc. --><path d="M32 0L240 0l0 32L32 32l0 224 512 0 0-224L336 32l0-32L544 0l32 0 0 32 0 224 0 32 0 96 0 32-32 0-181.1 0 10.7 64 58.4 0 16 0 0 32-16 0-72 0-144 0-72 0-16 0 0-32 16 0 58.4 0 10.7-64L32 416 0 416l0-32 0-96 0-32L0 32 0 0 32 0zm0 288l0 96 199.7 0c.2 0 .4 0 .6 0l111.5 0c.2 0 .4 0 .6 0L544 384l0-96L32 288zM234.9 480l106.2 0-10.7-64-84.9 0-10.7 64zM304 16l0 153.4 52.7-52.7L368 105.4 390.6 128l-11.3 11.3-80 80L288 230.6l-11.3-11.3-80-80L185.4 128 208 105.4l11.3 11.3L272 169.4 272 16l0-16 32 0 0 16z"/></svg>