<svg xmlns="http://www.w3.org/2000/svg" viewBox="0 0 576 512"><!--! Font Awesome Pro 6.6.0 by @fontawesome - https://fontawesome.com License - https://fontawesome.com/license (Commercial License) Copyright 2024 Fonticons, Inc. --><path d="M160 64l0 48 0 32 0 48L32 192 32 64l128 0zm32 128l0-48 192 0 0 48 0 32 32 0 128 0 32 0 0-32 0-128 0-32-32 0L416 32l-32 0 0 32 0 48-192 0 0-48 0-32-32 0L32 32 0 32 0 64 0 192l0 32 32 0 128 0 7.4 0L224 308.8l0 11.2 0 128 0 32 32 0 128 0 32 0 0-32 0-128 0-32-32 0-128 0-7.4 0L192 203.2l0-11.2zm224 0l0-48 0-32 0-48 128 0 0 128-128 0zM384 320l0 128-128 0 0-128 128 0z"/></svg>