<svg xmlns="http://www.w3.org/2000/svg" viewBox="0 0 576 512"><!--! Font Awesome Pro 6.6.0 by @fontawesome - https://fontawesome.com License - https://fontawesome.com/license (Commercial License) Copyright 2024 Fonticons, Inc. --><path d="M326.9 32l-4.7 7.8L230.9 192 16 192 0 192l0 32 16 0 224 0 9.1 0 4.7-7.8L345.1 64 560 64l16 0 0-32-16 0L336 32l-9.1 0zM181.9 288l-.3-.4-.7 .4L16 288 0 288l0 32 16 0 148 0 94.4 152.4 4.7 7.6 8.9 0 288 0 16 0 0-32-16 0-279.1 0L201.7 320 560 320l16 0 0-32-16 0-378.1 0z"/></svg>