<svg xmlns="http://www.w3.org/2000/svg" viewBox="0 0 576 512"><!--! Font Awesome Pro 6.6.0 by @fontawesome - https://fontawesome.com License - https://fontawesome.com/license (Commercial License) Copyright 2024 Fonticons, Inc. --><path d="M24 0L8 0 8 32l16 0 76.5 0L211.6 365.4C190.1 379.8 176 404.2 176 432c0 44.2 35.8 80 80 80c43 0 78-33.9 79.9-76.4L565.5 351l15-5.5-11.1-30-15 5.5L330.7 403.4C319.2 373.3 290.1 352 256 352c-5 0-9.9 .5-14.7 1.3L127.2 10.9C125 4.4 118.9 0 112 0L24 0zM256 384a48 48 0 1 1 0 96 48 48 0 1 1 0-96zm96.8-201.1l5.5 15L388.3 187l-5.5-15-19.2-52.6 60.1-21.9 54.7 150.4L328.2 302.5 273.5 152.2l60.1-21.9 19.2 52.6zM232.5 133.1l10.9 30.1 54.7 150.4 10.9 30.1 30.1-10.9 150.4-54.7 30.1-10.9-10.9-30.1L453.9 86.5 442.9 56.5 412.9 67.4 262.5 122.1l-30.1 10.9z"/></svg>