<svg xmlns="http://www.w3.org/2000/svg" viewBox="0 0 448 512"><!--! Font Awesome Pro 6.6.0 by @fontawesome - https://fontawesome.com License - https://fontawesome.com/license (Commercial License) Copyright 2024 Fonticons, Inc. --><path d="M272 176l0 32 32 0 48 0 0 17.7L224 340.9 96 225.7 96 208l48 0 32 0 0-32 0-112 96 0 0 112zm112 0l-32 0-16 0-32 0 0-32 0-80 0-32-32 0-96 0-32 0 0 32 0 80 0 32-32 0-16 0-32 0 0 32 0 32L224 384 384 240l0-32 0-32zM56 424L8 424l0 48 48 0 0-48zm96 0l-48 0 0 48 48 0 0-48zm48 48l48 0 0-48-48 0 0 48zm144-48l-48 0 0 48 48 0 0-48zm48 0l0 48 48 0 0-48-48 0z"/></svg>