<svg xmlns="http://www.w3.org/2000/svg" viewBox="0 0 512 512"><!--! Font Awesome Pro 6.6.0 by @fontawesome - https://fontawesome.com License - https://fontawesome.com/license (Commercial License) Copyright 2024 Fonticons, Inc. --><path d="M112 32c39.6 0 72.5 28.8 78.9 66.6l31.6-5.3C213.6 40.4 167.5 0 112 0C50.1 0 0 50.1 0 112c0 55.5 40.4 101.6 93.4 110.5l5.3-31.6C60.8 184.5 32 151.6 32 112c0-44.2 35.8-80 80-80zm286.7 0c44.2 0 80 35.8 80 80c0 39.6-28.8 72.5-66.6 78.9l5.3 31.6c53-8.9 93.4-54.9 93.4-110.5c0-61.9-50.1-112-112-112C343.2 0 297.1 40.4 288.2 93.4l31.6 5.3C326.1 60.8 359 32 398.7 32zM32 398.7c0-39.6 28.8-72.5 66.6-78.9l-5.3-31.6C40.4 297.1 0 343.2 0 398.7c0 61.9 50.1 112 112 112c55.5 0 101.6-40.4 110.5-93.4L190.9 412c-6.3 37.8-39.3 66.6-78.9 66.6c-44.2 0-80-35.8-80-80zm366.7 80c-39.6 0-72.5-28.8-78.9-66.6l-31.6 5.3c8.9 53 54.9 93.4 110.5 93.4c61.9 0 112-50.1 112-112c0-55.5-40.4-101.6-93.4-110.5L412 319.8c37.8 6.3 66.6 39.3 66.6 78.9c0 44.2-35.8 80-80 80zM120.3 142.9L160 182.6l0 146.7-39.7 39.7c-2.6-.7-5.4-1.1-8.3-1.1c-17.7 0-32 14.3-32 32s14.3 32 32 32s32-14.3 32-32c0-2.9-.4-5.6-1.1-8.3L182.6 352l146.7 0 39.7 39.7c-.7 2.6-1.1 5.4-1.1 8.3c0 17.7 14.3 32 32 32s32-14.3 32-32s-14.3-32-32-32c-2.9 0-5.6 .4-8.3 1.1L352 329.4l0-146.7 39.7-39.7c2.6 .7 5.4 1.1 8.3 1.1c17.7 0 32-14.3 32-32s-14.3-32-32-32s-32 14.3-32 32c0 2.9 .4 5.6 1.1 8.3L329.4 160l-146.7 0-39.7-39.7c.7-2.6 1.1-5.4 1.1-8.3c0-17.7-14.3-32-32-32s-32 14.3-32 32s14.3 32 32 32c2.9 0 5.6-.4 8.3-1.1zM192 320l0-128 128 0 0 128-128 0z"/></svg>