<svg xmlns="http://www.w3.org/2000/svg" viewBox="0 0 448 512"><!--! Font Awesome Pro 6.6.0 by @fontawesome - https://fontawesome.com License - https://fontawesome.com/license (Commercial License) Copyright 2024 Fonticons, Inc. --><path d="M32 32l0 448 384 0 0-448L32 32zM0 0L32 0 416 0l32 0 0 32 0 448 0 32-32 0L32 512 0 512l0-32L0 32 0 0zM104 72a24 24 0 1 1 0 48 24 24 0 1 1 0-48zm56 24a24 24 0 1 1 48 0 24 24 0 1 1 -48 0zM336 304a112 112 0 1 0 -224 0 112 112 0 1 0 224 0zM80 304a144 144 0 1 1 288 0A144 144 0 1 1 80 304zm107.3-83.3L200 233.4c10.2 10.2 16 24.1 16 38.6s-5.8 28.4-16 38.6l-9.4 9.4c-4.2 4.2-6.6 10-6.6 16s2.4 11.8 6.6 16l12.7 12.7-22.6 22.6L168 374.6c-10.2-10.2-16-24.1-16-38.6s5.8-28.4 16-38.6l9.4-9.4c4.2-4.2 6.6-10 6.6-16s-2.4-11.8-6.6-16l-12.7-12.7 22.6-22.6zM280 233.4c10.2 10.2 16 24.1 16 38.6s-5.8 28.4-16 38.6l-9.4 9.4c-4.2 4.2-6.6 10-6.6 16s2.4 11.8 6.6 16l12.7 12.7-22.6 22.6L248 374.6c-10.2-10.2-16-24.1-16-38.6s5.8-28.4 16-38.6l9.4-9.4c4.2-4.2 6.6-10 6.6-16s-2.4-11.8-6.6-16l-12.7-12.7 22.6-22.6L280 233.4z"/></svg>