<svg xmlns="http://www.w3.org/2000/svg" viewBox="0 0 192 512"><!--! Font Awesome Pro 6.6.0 by @fontawesome - https://fontawesome.com License - https://fontawesome.com/license (Commercial License) Copyright 2024 Fonticons, Inc. --><path d="M128 64l0 64-64 0 0-64 64 0zM64 32L32 32l0 32 0 64 0 32 32 0 64 0 32 0 0-32 0-64 0-32-32 0L64 32zm64 192l0 64-64 0 0-64 64 0zM64 192l-32 0 0 32 0 64 0 32 32 0 64 0 32 0 0-32 0-64 0-32-32 0-64 0zm0 192l64 0 0 64-64 0 0-64zM32 352l0 32 0 64 0 32 32 0 64 0 32 0 0-32 0-64 0-32-32 0-64 0-32 0z"/></svg>