<svg xmlns="http://www.w3.org/2000/svg" viewBox="0 0 640 512"><!--! Font Awesome Pro 6.6.0 by @fontawesome - https://fontawesome.com License - https://fontawesome.com/license (Commercial License) Copyright 2024 Fonticons, Inc. --><path d="M560 16l0 64 64 0 16 0 0 32-16 0-64 0 0 64 0 16-32 0 0-16 0-64-64 0-16 0 0-32 16 0 64 0 0-64 0-16 32 0 0 16zM416 288A192 192 0 1 0 32 288a192 192 0 1 0 384 0zM0 288a224 224 0 1 1 448 0A224 224 0 1 1 0 288zm144.4-72a24 24 0 1 1 0 48 24 24 0 1 1 0-48zm136 24a24 24 0 1 1 48 0 24 24 0 1 1 -48 0zM97.1 341.9l29.7-11.9c4.5 11.2 15.1 29.1 31.8 44C175.1 388.7 196.8 400 224 400s48.9-11.3 65.3-25.9c16.7-14.9 27.3-32.8 31.8-44l29.7 11.9c-6.2 15.4-19.5 37.5-40.2 56C289.8 416.6 260.8 432 224 432s-65.8-15.4-86.7-34.1c-20.7-18.5-34-40.6-40.2-56z"/></svg>