<svg xmlns="http://www.w3.org/2000/svg" viewBox="0 0 512 512"><!--! Font Awesome Pro 6.6.0 by @fontawesome - https://fontawesome.com License - https://fontawesome.com/license (Commercial License) Copyright 2024 Fonticons, Inc. --><path d="M480 256A224 224 0 1 0 32 256a224 224 0 1 0 448 0zM0 256a256 256 0 1 1 512 0A256 256 0 1 1 0 256zm176.4-24a24 24 0 1 1 0 48 24 24 0 1 1 0-48zm136 24a24 24 0 1 1 48 0 24 24 0 1 1 -48 0zM179 160.9c-21.2 2.8-40.6 12.4-56.1 26.8l-11.7 10.9L89.4 175.2l11.7-10.9c20.1-18.7 45.5-31.5 73.7-35.2c5.6-.7 11.4-1.1 17.2-1.1l16 0 0 32-16 0c-4.4 0-8.8 .3-13 .9zm141-.9l-16 0 0-32 16 0c5.8 0 11.6 .4 17.2 1.1c28.2 3.7 53.7 16.4 73.7 35.2l11.7 10.9-21.8 23.4-11.7-10.9c-15.5-14.5-34.8-24-56.1-26.8c-4.3-.6-8.6-.9-13-.9zM288 384a32 32 0 1 0 -64 0 32 32 0 1 0 64 0zm-96 0a64 64 0 1 1 128 0 64 64 0 1 1 -128 0z"/></svg>