<svg xmlns="http://www.w3.org/2000/svg" viewBox="0 0 512 512"><!--! Font Awesome Pro 6.6.0 by @fontawesome - https://fontawesome.com License - https://fontawesome.com/license (Commercial License) Copyright 2024 Fonticons, Inc. --><path d="M384 439.8L384 272l0-16-32 0 0 16 0 186.4c-29.1 13.8-61.6 21.6-96 21.6s-66.9-7.7-96-21.6L160 272l0-16-32 0 0 16 0 167.8C70 399.4 32 332.1 32 256C32 132.3 132.3 32 256 32s224 100.3 224 224c0 76.1-38 143.4-96 183.8zM256 512A256 256 0 1 0 256 0a256 256 0 1 0 0 512zM203.2 237.6l25.6-19.2c-34.4-45.9-103.2-45.9-137.6 0l25.6 19.2c21.6-28.8 64.8-28.8 86.4 0zm105.6 0c21.6-28.8 64.8-28.8 86.4 0l25.6-19.2c-34.4-45.9-103.2-45.9-137.6 0l25.6 19.2zM288 352c0 17.7-14.3 32-32 32s-32-14.3-32-32l0-24c0-17.7 14.3-32 32-32s32 14.3 32 32l0 24zm-32-88c-35.3 0-64 28.7-64 64l0 24c0 35.3 28.7 64 64 64s64-28.7 64-64l0-24c0-35.3-28.7-64-64-64z"/></svg>