<svg xmlns="http://www.w3.org/2000/svg" viewBox="0 0 512 512"><!--! Font Awesome Pro 6.6.0 by @fontawesome - https://fontawesome.com License - https://fontawesome.com/license (Commercial License) Copyright 2024 Fonticons, Inc. --><path d="M480 256A224 224 0 1 0 32 256a224 224 0 1 0 448 0zM0 256a256 256 0 1 1 512 0A256 256 0 1 1 0 256zm129.7 71.2l28.6-14.3c8.7 17.5 41.3 55.2 97.7 55.2s88.9-37.7 97.7-55.2l28.6 14.3C369.7 352.3 327.6 400 256 400s-113.7-47.7-126.3-72.8zm26.8-132.6c-6.2 7.2-10.8 16.8-12.9 25.4l-31-7.8c3.2-12.7 9.8-27.1 19.9-38.6C142.4 161.9 157.2 152 176 152s33.6 9.9 43.7 21.5c10 11.5 16.7 25.9 19.9 38.6l-31 7.8c-2.1-8.6-6.7-18.2-12.9-25.4c-6.2-7.1-12.8-10.5-19.5-10.5s-13.4 3.4-19.5 10.5zm147.1 25.4l-31-7.8c3.2-12.7 9.8-27.1 19.9-38.6C302.4 161.9 317.2 152 336 152s33.6 9.9 43.7 21.5c10 11.5 16.7 25.9 19.9 38.6l-31 7.8c-2.1-8.6-6.7-18.2-12.9-25.4c-6.2-7.1-12.8-10.5-19.5-10.5s-13.4 3.4-19.5 10.5c-6.2 7.2-10.8 16.8-12.9 25.4z"/></svg>