<svg xmlns="http://www.w3.org/2000/svg" viewBox="0 0 576 512"><!--! Font Awesome Pro 6.6.0 by @fontawesome - https://fontawesome.com License - https://fontawesome.com/license (Commercial License) Copyright 2024 Fonticons, Inc. --><path d="M32 256C32 132.3 132.3 32 256 32s224 100.3 224 224l0 1.4c4.8-.9 9.8-1.3 14.8-1.3c5.9 0 11.6 .6 17.1 1.8l0-1.8C512 114.6 397.4 0 256 0S0 114.6 0 256S114.6 512 256 512c50.1 0 96.9-14.4 136.4-39.3c-7.5-7.6-13.6-16.6-17.8-26.6C340.2 467.6 299.6 480 256 480C132.3 480 32 379.7 32 256zm84.9-21.5L91.3 253.7c34.4 45.9 103.2 45.9 137.6 0l-25.6-19.2c-21.6 28.8-64.8 28.8-86.4 0zm278.4 0c-21.6 28.8-64.8 28.8-86.4 0l-25.6 19.2c34.4 45.9 103.2 45.9 137.6 0l-25.6-19.2zM256.1 360.1a24 24 0 1 1 0 48 24 24 0 1 1 0-48zm0 80a56 56 0 1 0 0-112 56 56 0 1 0 0 112zM452.6 309.9l-.7 0c-24.4 0-44.7 16.9-50.4 39.5l-40.6 20.4-28.6 14.3 28.6 14.3L400.2 418c2.4 26.5 24.5 47.5 51.7 47.5c2.2 0 4.4-.1 6.6-.4c9.3 9.2 22.2 15 36.4 15c26.1 0 47.4-19.3 51.3-44.2c17.9-10.3 29.9-29.7 29.9-51.8s-12-41.6-29.9-51.9c-3.9-24.9-25.3-44.1-51.3-44.1c-17.5 0-32.8 8.7-42.2 21.8zm42.2 10.2c10.8 0 19.9 8.9 19.9 20.4c0 .4 0 .9 0 1.3l-.7 12.2 11.5 3.9c10.7 3.6 18.5 13.9 18.5 26.2s-7.8 22.6-18.5 26.2L514 414.2l.7 12.2c0 .4 0 .9 0 1.3c0 11.4-9.1 20.4-19.9 20.4c-7 0-13.2-3.7-16.8-9.4l-7-11.1-12.2 4.6c-2.1 .8-4.5 1.3-6.9 1.3c-10.8 0-20-8.9-20-20.4c0-1 .1-1.9 .2-2.8l1.5-11.3-10.2-5.1L403.8 384l19.4-9.7 8.3-4.1 .5-9.2c.6-10.8 9.5-19.1 19.9-19.1c1.8 0 3.6 .2 5.2 .7l13.9 3.8 5.2-13.5c3-7.7 10.2-12.9 18.6-12.9z"/></svg>