<svg xmlns="http://www.w3.org/2000/svg" viewBox="0 0 576 512"><!--! Font Awesome Pro 6.6.0 by @fontawesome - https://fontawesome.com License - https://fontawesome.com/license (Commercial License) Copyright 2024 Fonticons, Inc. --><path d="M288 32C164.3 32 64 132.3 64 256s100.3 224 224 224c92 0 171.1-55.5 205.6-134.9L540 301.1C518.8 421 414 512 288 512C146.6 512 32 397.4 32 256S146.6 0 288 0c97 0 181.4 54 224.8 133.5c-11.3-.2-22.6 1.9-33.2 6.4C440.3 75.2 369.2 32 288 32zM477 179.4c19.6-18.8 50.6-18.4 69.8 .7c19.8 19.8 19.4 52.1-.9 71.4L408.3 382.6c2.5 3.7 4.5 7.1 6 10.3l-28.6 14.3C376.9 389.7 344.4 352 288 352s-88.9 37.7-97.7 55.2l-28.6-14.3C174.3 367.7 216.4 320 288 320c13.5 0 26 1.7 37.4 4.6L477 179.4zM429.4 318.3l-5.8-5.8L415 304l17-17 8.5 8.5 6.3 6.3 15.4-14.7-6.6-6.6L447 272l17-17 8.5 8.5 7 7 15.4-14.7-7.4-7.4L479 240l17-17 8.5 8.5 7.8 7.8 11.5-11c7.3-6.9 7.4-18.5 .3-25.6c-6.9-6.9-18-7-25-.3l-140.9 135c11.3 6.1 21 13.4 29.1 20.8l9.3-8.8-5.1-5.1L383 336l17-17 8.5 8.5L414 333l15.4-14.7zM184.4 208a24 24 0 1 1 48 0 24 24 0 1 1 -48 0zm184-24a24 24 0 1 1 0 48 24 24 0 1 1 0-48z"/></svg>