<svg xmlns="http://www.w3.org/2000/svg" viewBox="0 0 512 512"><!--! Font Awesome Pro 6.6.0 by @fontawesome - https://fontawesome.com License - https://fontawesome.com/license (Commercial License) Copyright 2024 Fonticons, Inc. --><path d="M480 256A224 224 0 1 0 32 256a224 224 0 1 0 448 0zM0 256a256 256 0 1 1 512 0A256 256 0 1 1 0 256zm264 80l-16 0c-28.2 0-51.6 20.9-55.4 48l126.9 0c-3.9-27.1-27.2-48-55.4-48zm-16-32l16 0c48.6 0 88 39.4 88 88l0 8 0 16-16 0-160 0-16 0 0-16 0-8c0-48.6 39.4-88 88-88zM137.4 192l-36.7-36.7 22.6-22.6L160 169.4l36.7-36.7 22.6 22.6L182.6 192l36.7 36.7-22.6 22.6L160 214.6l-36.7 36.7-22.6-22.6L137.4 192zm192 0l-36.7-36.7 22.6-22.6L352 169.4l36.7-36.7 22.6 22.6L374.6 192l36.7 36.7-22.6 22.6L352 214.6l-36.7 36.7-22.6-22.6L329.4 192z"/></svg>