<svg xmlns="http://www.w3.org/2000/svg" viewBox="0 0 640 512"><!--! Font Awesome Pro 6.6.0 by @fontawesome - https://fontawesome.com License - https://fontawesome.com/license (Commercial License) Copyright 2024 Fonticons, Inc. --><path d="M543.4 272.3c.4-5.4 .6-10.8 .6-16.3C544 132.3 443.7 32 320 32S96 132.3 96 256c0 5.5 .2 10.9 .6 16.3L71.8 293.9l-4.4 3.9C65.2 284.2 64 270.2 64 256C64 114.6 178.6 0 320 0S576 114.6 576 256c0 14.2-1.2 28.2-3.4 41.8l-4.4-3.8-24.8-21.7zM411.3 460.6c-3.2 12.8-5.7 25.3-7.7 37.4c-26.2 9-54.3 14-83.6 14c-29.2 0-57.3-4.9-83.5-13.9c-2-12.1-4.5-24.7-7.7-37.4C256.7 473.1 287.5 480 320 480c32.5 0 63.4-6.9 91.3-19.4zM224.3 164.4c-13.1 5.8-26.4 17.1-36.1 33c-9.7 15.9-13.3 32.2-12.1 45.3c1.2 13 6.9 21.7 14.7 26c8.1 4.4 19.5 4.7 32.7-1.1c13.1-5.8 26.4-17.1 36.1-33c9.7-15.9 13.3-32.2 12.1-45.3c-1.2-13-6.9-21.7-14.7-26c-8.1-4.4-19.5-4.7-32.7 1.1zm-12.9-29.3c19.4-8.6 41.8-10.4 61 .1c19.4 10.6 29.3 30.3 31.2 51.2c1.9 20.8-3.8 43.9-16.6 64.9c-12.8 21-30.9 37-50.5 45.6c-19.4 8.6-41.8 10.4-61-.1c-19.4-10.6-29.3-30.3-31.2-51.2c-1.9-20.8 3.8-43.9 16.6-64.9c12.8-21 30.9-37 50.5-45.6zm204.2 29.3c-13.2-5.8-24.6-5.5-32.7-1.1c-7.9 4.3-13.5 13-14.7 26c-1.2 13.1 2.4 29.4 12.1 45.3c9.7 15.9 23 27.2 36.1 33c13.2 5.8 24.6 5.5 32.7 1.1c7.9-4.3 13.5-13 14.7-26c1.2-13.1-2.4-29.4-12.1-45.3c-9.7-15.9-23-27.2-36.1-33zm12.9-29.3c19.5 8.6 37.7 24.6 50.5 45.6c12.8 21 18.5 44.1 16.6 64.9c-1.9 20.9-11.8 40.6-31.2 51.2c-19.2 10.5-41.5 8.7-61 .1c-19.5-8.6-37.7-24.6-50.5-45.6c-12.8-21-18.5-44.1-16.6-64.9c1.9-20.9 11.8-40.6 31.2-51.2c19.2-10.5 41.5-8.7 61-.1zM352 352c0-17.7-14.3-32-32-32s-32 14.3-32 32l0 32c0 17.7 14.3 32 32 32s32-14.3 32-32l0-32zm-96 0c0-35.3 28.7-64 64-64s64 28.7 64 64l0 32c0 35.3-28.7 64-64 64s-64-28.7-64-64l0-32zM113.6 317.8c54.6 45.6 83.1 126.6 92.6 194.2l-32.3 0c-8.8-57.9-31.9-121.6-70.7-160.5L59.9 389.3c21.2 36 35.4 79 38 122.7l-32.1 0c-2.8-41.8-18-83.5-40-116.9l-7.7-11.7 10.5-9.2L92.9 318l10.3-9 10.5 8.7zm500.6 77.3c-22.1 33.4-37.2 75.1-40 116.9l-32.1 0c2.6-43.6 16.8-86.7 38-122.7l-43.3-37.8c-38.8 38.9-62 102.6-70.7 160.5l-32.3 0c9.4-67.6 37.9-148.6 92.6-194.2l10.5-8.7 10.3 9 64.3 56.2 10.5 9.2-7.7 11.7z"/></svg>