<svg xmlns="http://www.w3.org/2000/svg" viewBox="0 0 512 512"><!--! Font Awesome Pro 6.6.0 by @fontawesome - https://fontawesome.com License - https://fontawesome.com/license (Commercial License) Copyright 2024 Fonticons, Inc. --><path d="M32 256C32 132.3 132.3 32 256 32s224 100.3 224 224c0 77.2-39.1 145.3-98.6 185.6c-3.6 17.6-10.8 33.9-20.8 48.1C449.9 449.7 512 360.1 512 256C512 114.6 397.4 0 256 0S0 114.6 0 256C0 360.1 62.1 449.7 151.3 489.7c-10-14.2-17.2-30.5-20.8-48.1C71.1 401.3 32 333.2 32 256zM352 144c0 26.5-21.5 48-48 48s-48-21.5-48-48c0-3.9 .5-7.7 1.4-11.4C261 143.9 271.5 152 284 152c15.5 0 28-12.5 28-28c0-12.5-8.1-23-19.4-26.6c3.6-.9 7.5-1.4 11.4-1.4c26.5 0 48 21.5 48 48zm32 0a80 80 0 1 0 -160 0 80 80 0 1 0 160 0zM104 224a40 40 0 1 1 80 0 40 40 0 1 1 -80 0zm112 0A72 72 0 1 0 72 224a72 72 0 1 0 144 0zm-72 24a24 24 0 1 0 0-48 24 24 0 1 0 0 48zM336 352l-118.3 0 170.5-98.4c5.3 35.4-4.5 71.3-26.5 98.4l-9.7 0-16 0zM158.5 386.2c.5 .5 1 1 1.5 1.4l0 28.4c0 24.3 9.1 46.6 24 63.5l0 .5 .4 0c17.6 19.6 43.1 32 71.6 32s54-12.4 71.6-32l.4 0 0-.5c14.9-16.9 24-39.2 24-63.5l0-12.5c55.2-36.5 80-103.6 65.5-166.8c-2.4-10.5-5.9-20.8-10.5-30.9l-27.9 16.1L164.8 345.6l-27.9 16.1c6.4 9 13.7 17.2 21.5 24.5zM320 416c0 35.3-28.7 64-64 64s-64-28.7-64-64l0-32 48 0 0 24 32 0 0-24 48 0 0 32z"/></svg>