<svg xmlns="http://www.w3.org/2000/svg" viewBox="0 0 640 512"><!--! Font Awesome Pro 6.6.0 by @fontawesome - https://fontawesome.com License - https://fontawesome.com/license (Commercial License) Copyright 2024 Fonticons, Inc. --><path d="M136 0c20.3 0 38.6 8.4 51.6 21.8c8.7-3.7 18.3-5.8 28.4-5.8c39.8 0 72 32.2 72 72l0 56 0 16-16 0-56 0-8 0L80 160l-16 0-48 0L0 160l0-16L0 96C0 60.7 28.7 32 64 32l12.1 0C89 12.7 111 0 136 0zM99.8 54.9L95.5 64 85.4 64 64 64C46.3 64 32 78.3 32 96l0 32 32 0 16 0 128 0 8 0 40 0 0-40c0-22.1-17.9-40-40-40c-8.7 0-16.6 2.7-23.2 7.4L179 65.3l-9-14.4C162.9 39.5 150.3 32 136 32c-15.9 0-29.7 9.3-36.2 22.9zM288.3 1.9C298.7 .7 309.3 0 320 0C461.4 0 576 114.6 576 256c0 7.3-.3 14.5-.9 21.7c-9.4-6-20-10.2-31.3-12.2c.1-3.1 .2-6.3 .2-9.4C544 132.3 443.7 32 320 32c-3.6 0-7.1 .1-10.7 .2C304 21 296.9 10.8 288.3 1.9zM224 458.4l0 34.9c-93.8-38-160-130-160-237.4c0-22.1 2.8-43.5 8.1-64l33.2 0c-6 20.3-9.3 41.8-9.3 64c0 89.4 52.3 166.5 128 202.4zM216.4 208a24 24 0 1 1 48 0 24 24 0 1 1 -48 0zm184-24a24 24 0 1 1 0 48 24 24 0 1 1 0-48zM321.1 353.4c7-46.1 46.8-81.4 94.9-81.4c28.7 0 54.5 12.6 72 32.5c9.4-5.4 20.3-8.5 32-8.5c33.9 0 61.6 26.3 63.9 59.6C616.4 365.8 640 396.1 640 432l0 64 0 16-16 0-64 0-224 0-64 0-16 0 0-16 0-64c0-39.1 28-71.6 65.1-78.6zM416 304c-35.3 0-64 28.7-64 64l0 16-16 0c-26.5 0-48 21.5-48 48l0 48 48 0 224 0 48 0 0-48c0-24.7-18.6-45-42.5-47.7l-16.9-1.9 3-16.8c.3-1.8 .5-3.7 .5-5.6c0-17.7-14.3-32-32-32c-9.2 0-17.6 3.9-23.4 10.2L482 353.8l-10.9-18.4C459.9 316.6 439.4 304 416 304z"/></svg>