<svg xmlns="http://www.w3.org/2000/svg" viewBox="0 0 512 512"><!--! Font Awesome Pro 6.6.0 by @fontawesome - https://fontawesome.com License - https://fontawesome.com/license (Commercial License) Copyright 2024 Fonticons, Inc. --><path d="M480 256A224 224 0 1 0 32 256a224 224 0 1 0 448 0zM0 256a256 256 0 1 1 512 0A256 256 0 1 1 0 256zm187.3 92.7c13 13 35.8 27.3 68.7 27.3s55.6-14.3 68.7-27.3L336 337.4 358.6 360l-11.3 11.3C329.4 389.2 298.9 408 256 408s-73.4-18.8-91.3-36.7L153.4 360 176 337.4l11.3 11.3zM395.2 234.4l25.6 19.2c-34.4 45.9-103.2 45.9-137.6 0l25.6-19.2c21.6 28.8 64.8 28.8 86.4 0zm-278.4 0c21.6 28.8 64.8 28.8 86.4 0l25.6 19.2c-34.4 45.9-103.2 45.9-137.6 0l25.6-19.2zm95.4-112.3l-15.2 5.1-6.3 2.1c-23.6 7.9-44 23.4-57.8 44.1l-7.6 11.5-8.9 13.3L89.8 180.4l8.9-13.3 7.6-11.5c17.8-26.6 43.9-46.6 74.3-56.7l6.3-2.1 15.2-5.1 10.1 30.4zm102.7 5.1l-15.2-5.1 10.1-30.4 15.2 5.1 6.3 2.1c30.4 10.1 56.5 30.1 74.3 56.7l7.6 11.5 8.9 13.3-26.6 17.8-8.9-13.3L379 173.4c-13.8-20.7-34.1-36.3-57.8-44.1l-6.3-2.1z"/></svg>