<svg xmlns="http://www.w3.org/2000/svg" viewBox="0 0 512 512"><!--! Font Awesome Pro 6.6.0 by @fontawesome - https://fontawesome.com License - https://fontawesome.com/license (Commercial License) Copyright 2024 Fonticons, Inc. --><path d="M481.7 73.8l26.6 17.8-17.8 26.6-220 328.2c-27.3 40.7-73 65.2-122 65.3C66.4 512 0 445.3 .6 363.3l0-3.4c.2-28 8.2-55.4 23.1-79.2l25-39.8 17-27.1 27.1 17L147.1 265l27.1 17-17 27.1-25 39.8c-2.2 3.6-3.5 7.7-3.5 11.9l0 3.4c-.1 10.8 8.7 19.6 19.4 19.5c6.4 0 12.5-3.2 16-8.6l220-328.2 17.8-26.6 26.6 17.8 53.2 35.6zm-71-9.1l-38.9 58.1L423 161.3l40.8-60.9L410.7 64.8zm-56.8 84.7L190.7 393c-9.5 14.2-25.4 22.7-42.5 22.8c-28.6 .1-51.7-23.2-51.5-51.8l0-3.4c.1-10.2 3-20.1 8.4-28.7l25-39.8L75.9 258l-25 39.8c-11.8 18.7-18.1 40.3-18.2 62.3l0 3.4c-.5 64.2 51.5 116.4 115.7 116.2c38.4-.1 74.2-19.3 95.5-51.1L405.2 187.9l-51.3-38.5zM480 432a48 48 0 1 0 -96 0 48 48 0 1 0 96 0zm-128 0a80 80 0 1 1 160 0 80 80 0 1 1 -160 0z"/></svg>