<svg xmlns="http://www.w3.org/2000/svg" viewBox="0 0 384 512"><!--! Font Awesome Pro 6.6.0 by @fontawesome - https://fontawesome.com License - https://fontawesome.com/license (Commercial License) Copyright 2024 Fonticons, Inc. --><path d="M352 480L32 480 32 32l160 0 0 144 0 16 16 0 144 0 0 288zM224 37.3L346.7 160 224 160l0-122.7zM232 0L32 0 0 0 0 32 0 480l0 32 32 0 320 0 32 0 0-32 0-328L232 0zm46.7 240l-39.1 0L192 308.1 144.3 240l-39.1 0 3.6 5.2L172.5 336l-63.6 90.8-3.6 5.2 39.1 0L192 363.9 239.7 432l39.1 0-3.6-5.2L211.5 336l63.6-90.8 3.6-5.2z"/></svg>