<svg xmlns="http://www.w3.org/2000/svg" viewBox="0 0 512 512"><!--! Font Awesome Pro 6.6.0 by @fontawesome - https://fontawesome.com License - https://fontawesome.com/license (Commercial License) Copyright 2024 Fonticons, Inc. --><path d="M352 192l0 112 32 0 0-152L232 0 32 0 0 0 0 32 0 480l0 32 32 0 80 0 0-32-80 0L32 32l160 0 0 144 0 16 16 0 144 0zm-5.3-32L224 160l0-122.7L346.7 160zM208 512c26.5 0 48-21.5 48-48l0-96 0-16-32 0 0 16 0 96c0 8.8-7.2 16-16 16s-16-7.2-16-16l0-16 0-16-32 0 0 16 0 16c0 26.5 21.5 48 48 48zM456 352c-22.1 0-40 17.9-40 40l0 80c0 22.1 17.9 40 40 40l16 0c22.1 0 40-17.9 40-40l0-24 0-16-16 0-16 0-16 0 0 32 16 0 0 8c0 4.4-3.6 8-8 8l-16 0c-4.4 0-8-3.6-8-8l0-80c0-4.4 3.6-8 8-8l16 0c4.4 0 8 3.6 8 8l0 16 32 0 0-16c0-22.1-17.9-40-40-40l-16 0zm-168 0l0 16 0 80 0 48 0 16 32 0 0-16 0-32 16 0c30.9 0 56-25.1 56-56s-25.1-56-56-56l-32 0-16 0zm32 80l0-48 16 0c13.3 0 24 10.7 24 24s-10.7 24-24 24l-16 0z"/></svg>