<svg xmlns="http://www.w3.org/2000/svg" viewBox="0 0 512 512"><!--! Font Awesome Pro 6.6.0 by @fontawesome - https://fontawesome.com License - https://fontawesome.com/license (Commercial License) Copyright 2024 Fonticons, Inc. --><path d="M352 192l0 112 32 0 0-152L232 0 32 0 0 0 0 32 0 480l0 32 32 0 80 0 0-32-80 0L32 32l160 0 0 144 0 16 16 0 144 0zm-5.3-32L224 160l0-122.7L346.7 160zM416 352l-16 0-5.6 0-9.6 0-4.5 8.5-28.5 53.8-29.7-54-4.6-8.3-9.5 0-4 0-16 0 0 16 0 128 0 16 32 0 0-16 0-73 18 32.7 14.3 26 13.9-26.2L384 421.8l0 74.2 0 16 32 0 0-16 0-128 0-16zm-224 0l-32 0 0 16c0 13.6 4 26.9 11.6 38.2L188.8 432l-17.2 25.8C164 469.1 160 482.4 160 496l0 16 32 0 0-16c0-7.3 2.2-14.4 6.2-20.4l9.8-14.7 9.8 14.7c4 6.1 6.2 13.2 6.2 20.4l0 16 32 0 0-16c0-13.6-4-26.9-11.6-38.2L227.2 432l17.2-25.8C252 394.9 256 381.6 256 368l0-16-32 0 0 16c0 7.3-2.2 14.4-6.2 20.4L208 403.2l-9.8-14.7c-4-6.1-6.2-13.2-6.2-20.4l0-16zM448 512l16 0 32 0 16 0 0-32-16 0-16 0 0-112 0-16-32 0 0 16 0 128 0 16z"/></svg>