<svg xmlns="http://www.w3.org/2000/svg" viewBox="0 0 512 512"><!--! Font Awesome Pro 6.6.0 by @fontawesome - https://fontawesome.com License - https://fontawesome.com/license (Commercial License) Copyright 2024 Fonticons, Inc. --><path d="M352 192l0 112 32 0 0-152L232 0 32 0 0 0 0 32 0 480l0 32 32 0 48 0 0-32-48 0L32 32l160 0 0 144 0 16 16 0 144 0zm-5.3-32L224 160l0-122.7L346.7 160zM256 368l0-16-16 0-5.6 0-9.6 0-4.5 8.5-28.5 53.8-29.7-54-4.6-8.3-9.5 0-4 0-16 0 0 16 0 128 0 16 32 0 0-16 0-73 18 32.7 14.3 26 13.9-26.2L224 421.8l0 74.2 0 16 32 0 0-16 0-128zm48-16l-16 0 0 16 0 80 0 48 0 16 32 0 0-16 0-32 16 0c30.9 0 56-25.1 56-56s-25.1-56-56-56l-32 0zm32 80l-16 0 0-48 16 0c13.3 0 24 10.7 24 24s-10.7 24-24 24zm80 16l16 0 48 0 0 48 0 16 32 0 0-16 0-64 0-64 0-16-32 0 0 16 0 48-32 0 0-48 0-16-32 0 0 16 0 64 0 16z"/></svg>