<svg xmlns="http://www.w3.org/2000/svg" viewBox="0 0 512 512"><!--! Font Awesome Pro 6.6.0 by @fontawesome - https://fontawesome.com License - https://fontawesome.com/license (Commercial License) Copyright 2024 Fonticons, Inc. --><path d="M352 192l0 112 32 0 0-152L232 0 32 0 0 0 0 32 0 480l0 32 32 0 112 0 0-32L32 480 32 32l160 0 0 144 0 16 16 0 144 0zm-5.3-32L224 160l0-122.7L346.7 160zM224 368l0-16-32 0 0 16c0 13.6 4 26.9 11.6 38.2L220.8 432l-17.2 25.8C196 469.1 192 482.4 192 496l0 16 32 0 0-16c0-7.3 2.2-14.4 6.2-20.4l9.8-14.7 9.8 14.7c4 6.1 6.2 13.2 6.2 20.4l0 16 32 0 0-16c0-13.6-4-26.9-11.6-38.2L259.2 432l17.2-25.8C284 394.9 288 381.6 288 368l0-16-32 0 0 16c0 7.3-2.2 14.4-6.2 20.4L240 403.2l-9.8-14.7c-4-6.1-6.2-13.2-6.2-20.4zm96 144l16 0 40 0 16 0 0-32-16 0-24 0 0-112 0-16-32 0 0 16 0 128 0 16zm88-114.3c0 17.3 9.8 33.1 25.2 40.8l31.2 15.6c4.6 2.3 7.6 7 7.6 12.2c0 7.5-6.1 13.7-13.7 13.7L432 480l-16 0 0 32 16 0 26.3 0c25.2 0 45.7-20.4 45.7-45.7c0-17.3-9.8-33.1-25.2-40.8l-31.2-15.6c-4.6-2.3-7.6-7-7.6-12.2c0-7.5 6.1-13.7 13.7-13.7l26.3 0 16 0 0-32-16 0-26.3 0c-25.2 0-45.7 20.4-45.7 45.7z"/></svg>