<svg xmlns="http://www.w3.org/2000/svg" viewBox="0 0 512 512"><!--! Font Awesome Pro 6.6.0 by @fontawesome - https://fontawesome.com License - https://fontawesome.com/license (Commercial License) Copyright 2024 Fonticons, Inc. --><path d="M128 352l0 96 256 0 0-96 0-96 0-96 0-96L128 64l0 96 0 96 0 96zM96 368l-64 0 0 80 64 0 0-80zm0-32l0-64-64 0 0 64 64 0zm0-96l0-64-64 0 0 64 64 0zm0-96l0-80L32 64l0 80 64 0zM416 272l0 64 64 0 0-64-64 0zm0 96l0 80 64 0 0-80-64 0zm0-128l64 0 0-64-64 0 0 64zm0-96l64 0 0-80-64 0 0 80zM480 32l32 0 0 32 0 384 0 32-32 0L32 480 0 480l0-32L0 64 0 32l32 0 448 0z"/></svg>