<svg xmlns="http://www.w3.org/2000/svg" viewBox="0 0 448 512"><!--! Font Awesome Pro 6.6.0 by @fontawesome - https://fontawesome.com License - https://fontawesome.com/license (Commercial License) Copyright 2024 Fonticons, Inc. --><path d="M32 16L32 0 0 0 0 16 0 64 0 367l0 33 0 96 0 16 32 0 0-16 0-104 96.3-24.1c41.1-10.3 84.6-5.5 122.5 13.4c44.2 22.1 95.5 24.8 141.7 7.4L448 368l0-316.2L448 16 416 32 393.6 43.2c-46.3 23.2-100.8 23.2-147.1 0c-35.1-17.6-75.4-22-113.5-12.5L32 56l0-40zm0 73l96-24 0 68.6L32 154.4 32 89zm0 98.2l96-20.9 0 71.3L32 258.4l0-71.3zm128-27.8l3.5-.8c18.3-4 37.4-3.3 55.4 2l64.4 18.9c1.6 .5 3.2 .9 4.8 1.3l0 70.7-60.1-17.7c-22.1-6.5-45.3-7.6-67.9-3.3l0-71.3zm160 26.9c17.5 1.3 35.2-.1 52.5-4l43.5-10 0 71.2L365.3 255c-14.9 3.4-30.2 4.5-45.3 3.1l0-71.9zm-32 98.6l0 77c-7.8-2.4-15.5-5.4-22.9-9.1c-32.7-16.4-69-23.8-105.1-21.8l0-67.6 3.5-.8c18.3-4 37.4-3.3 55.4 2l64.4 18.9c1.6 .5 3.2 .9 4.8 1.3zm32 82.9l0-77.6c17.5 1.3 35.2-.1 52.5-4l43.5-10 0 69.7-34.7 13c-19.8 7.4-40.7 10.4-61.3 8.9zm0-213.7l0-61.5c30.1 0 60.2-6.9 87.9-20.7l8.1-4.1 0 71.5L365.3 151c-14.9 3.4-30.2 4.5-45.3 3.1zM288 90l0 57.6-60.1-17.7c-22.1-6.5-45.3-7.6-67.9-3.3l0-68.2c24.7-2.4 49.7 2.2 72.1 13.4c17.8 8.9 36.7 15 55.9 18.1zM32 291.2l96-20.9 0 64.9c-2.5 .5-5 1.1-7.5 1.7L32 359l0-67.9z"/></svg>