<svg xmlns="http://www.w3.org/2000/svg" viewBox="0 0 640 512"><!--! Font Awesome Pro 6.6.0 by @fontawesome - https://fontawesome.com License - https://fontawesome.com/license (Commercial License) Copyright 2024 Fonticons, Inc. --><path d="M288 214.9l0 9.1 4.7 7.7 28.1 45.6L339 245.8l-19-30.9L320 32l16 0 16 0 0-32L336 0 320 0 288 0 160 0 128 0 112 0 96 0l0 32 16 0 16 0 0 182.9L0 422.9 0 480l0 32 32 0 320 0 0-32L32 480l0-48 49.2-80 244.2 0 .5-.3-36.1-20.8 6.3-10.9-195.3 0 54.3-88.3L160 224l0-9.1L160 32l128 0 0 182.9zm240.2 23.5l0-32-32 0-32 0-32 0 0 32 0 3.2c-7.7 3.4-15 7.5-21.8 12.3l-4.3-2.5-27.5-16.3L362.8 263l-32.1 57 30.1 17.8c-.5 4.6-.8 9.2-.8 13.9s.3 9.4 .8 13.9l-30.1 17.8 32.1 57 15.7 27.9L406.1 452l4.3-2.5c6.8 4.8 14.1 9 21.8 12.3l0 3.2 0 32 32 0 32 0 32 0 0-32 0-3.3c7.6-3.3 14.8-7.4 21.5-12.2l4.3 2.5 27.5 16.3 15.7-27.9 32.1-57-30.1-17.8c.5-4.6 .8-9.2 .8-13.9s-.3-9.4-.8-13.9L629.3 320l-32.1-57-15.7-27.9-27.5 16.3-4.3 2.5c-6.7-4.8-13.9-8.9-21.5-12.2l0-3.3zm37.8 43.1l3.7-2.2L586 308.4l-3.1 1.8L565 320.8l2.4 20.6c.4 3.4 .6 6.8 .6 10.3s-.2 6.9-.6 10.3L565 382.6l17.9 10.6L586 395l-16.4 29.1-3.7-2.2L548 411.3l-17 12.1c-4.9 3.5-10.2 6.5-15.7 8.9l-19.1 8.4 0 20.9 0 3.3-32 0 0-3.2 0-21-19.2-8.4c-5.6-2.5-11-5.5-16-9l-17-12.1-17.9 10.6-3.7 2.2L374 395l3.1-1.8L395 382.6 392.6 362c-.4-3.4-.6-6.8-.6-10.3s.2-6.9 .6-10.3l2.4-20.6-17.9-10.6-3.1-1.8 16.4-29.1 3.7 2.2L412 292.1 429 280c5-3.5 10.3-6.6 16-9l19.2-8.4 0-21 0-3.2 32 0 0 3.3 0 20.9 19.1 8.4c5.6 2.4 10.8 5.4 15.7 8.9l17 12.1 17.9-10.6zM480.1 407.7a56 56 0 1 0 0-112 56 56 0 1 0 0 112zm0-80a24 24 0 1 1 0 48 24 24 0 1 1 0-48z"/></svg>