<svg xmlns="http://www.w3.org/2000/svg" viewBox="0 0 576 512"><!--! Font Awesome Pro 6.6.0 by @fontawesome - https://fontawesome.com License - https://fontawesome.com/license (Commercial License) Copyright 2024 Fonticons, Inc. --><path d="M422.5 44.2l-75.9 9L255.9 3.4 185.1 78.8 83.6 98.9 77.8 202.2 13 282.9 75 365.7l.5 25.5 31.3-31.3-.1-5.1-6.1-8.2-47.1-63 49.3-61.3 6.4-8 .6-10.2 4.4-78.5 77.1-15.3 10.1-2 7-7.5 53.8-57.3 68.9 37.9 9 4.9L350.4 85 386 80.8l36.6-36.6zm40.3 50.2c72 94.1 64.9 229.2-21.1 315.3s-221.2 93.1-315.3 21.1L462.8 94.4zM79.7 432.3c7.7 7.7 15.7 14.8 23.9 21.3c106.8 84.4 262.2 77.3 360.7-21.3s105.7-254 21.3-360.7c-6.6-8.3-13.7-16.3-21.3-23.9L441.7 70.3 102.3 409.7 79.7 432.3zM272 416a16 16 0 1 0 0-32 16 16 0 1 0 0 32zm80-16a16 16 0 1 0 -32 0 16 16 0 1 0 32 0zm-48-48a16 16 0 1 0 0-32 16 16 0 1 0 0 32zM240 160c-61.9 0-112 50.1-112 112c0 20.9 5.7 40.4 15.7 57.1l23.7-23.7C162.6 295.3 160 284 160 272c0-44.2 35.8-80 80-80c12 0 23.3 2.6 33.5 7.3l23.7-23.7C280.4 165.7 260.9 160 240 160z"/></svg>