<svg xmlns="http://www.w3.org/2000/svg" viewBox="0 0 576 512"><!--! Font Awesome Pro 6.6.0 by @fontawesome - https://fontawesome.com License - https://fontawesome.com/license (Commercial License) Copyright 2024 Fonticons, Inc. --><path d="M32 480L0 480l0-32L0 64 0 32l32 0 304 0L448 144l0 76.9-32 32 0-95.6L322.7 64 320 64l0 112 0 16-16 0L80 192l-16 0 0-16L64 64 32 64l0 384 231.7 0-5 32L32 480zM96 64l0 96 192 0 0-96L96 64zm80 256a48 48 0 1 0 96 0 48 48 0 1 0 -96 0zm48 80a80 80 0 1 1 0-160 80 80 0 1 1 0 160zM489.3 269.4l-22.8 22.8L508 333.6l22.8-22.8-41.5-41.5zM334 424.7l-7.7 49.1 49.1-7.7L485.4 356.2l-41.5-41.5L334 424.7zM553.4 288.2L576 310.8l-22.6 22.6L390.7 496.1 321.2 507 288 512.1l5.2-33.2L304 409.4 489.3 224.1l64.1 64.1z"/></svg>