<svg xmlns="http://www.w3.org/2000/svg" viewBox="0 0 512 512"><!--! Font Awesome Pro 6.6.0 by @fontawesome - https://fontawesome.com License - https://fontawesome.com/license (Commercial License) Copyright 2024 Fonticons, Inc. --><path d="M340.3 245.5l153.9-19.2-.1-.6c-1.3-10.5-3.3-20.8-6-30.9C461 91.9 367.4 16 256 16C123.5 16 16 123.5 16 256c0 61.5 23.1 117.5 61.1 160l34.9 0 99.5 42.6c8.3 3.5 17.2 5.4 26.1 5.4c36.7 0 66.4-29.7 66.4-66.4l0-1.3c0-8.1-1.5-16.2-4.3-23.8L292 352l35.7 0 11.1 58.9 13.5 72 2.4 13.1 13.3 0 128 0 16 0 0-16 0-72 0-72 0-16-16 0-141.7 0-14-74.5zm-31.8 4L321.7 320 280 320l-12.4-33.2L256 256l32.6-4.1 19.8-2.5zM92 384c-27.6-35.3-44-79.7-44-128C48 141.1 141.1 48 256 48c95 0 175.2 63.7 200 150.7L252 224.2l-40.2 5 14.2 38 43.7 116.5c1.5 4 2.3 8.3 2.3 12.5l0 1.3c0 19-15.4 34.4-34.4 34.4c-4.7 0-9.3-.9-13.5-2.8l-99.5-42.6-6-2.6-6.6 0-20 0zm108-48a24 24 0 1 0 -48 0 24 24 0 1 0 48 0zm280 56l-112.2 0-7.5-40L480 352l0 40zM373.8 424L480 424l0 40-98.7 0-7.5-40z"/></svg>