<svg xmlns="http://www.w3.org/2000/svg" viewBox="0 0 512 512"><!--! Font Awesome Pro 6.6.0 by @fontawesome - https://fontawesome.com License - https://fontawesome.com/license (Commercial License) Copyright 2024 Fonticons, Inc. --><path d="M299.7 475.7L327.7 382l-21.2-29.2-3.5 0-94 0-3.5 0L184.3 382l28.1 93.8c14.1 2.8 28.7 4.3 43.7 4.3s29.5-1.5 43.7-4.3zm36.6-10.5c37-14.2 69.3-38 93.9-68.3l-72.9-1.7-20.9 70zm115.3-99.8c14.1-25.1 23.5-53.2 27-83.1L398 226.7l-34.4 11.2-1.1 3.3-29.1 89.4-1.1 3.3 21.2 29.2 97.9 2.3zm28.2-121.1c-2.1-40.6-15-78.3-35.8-110.4l-24.2 68.9 60 41.5zM420.5 103.9c-19.8-21.4-43.8-39-70.6-51.4L272 111.9l0 36.2 2.8 2 76.1 55.3 2.8 2 34.4-11.2 32.4-92.3zM314.1 39.6c-18.5-5-38-7.6-58.1-7.6s-39.5 2.6-58.1 7.6L256 83.9l58.1-44.3zm-151.9 13c-26.8 12.4-50.8 30-70.6 51.4l32.4 92.3 34.4 11.2 2.8-2 76.1-55.3 2.8-2 0-36.2L162.2 52.5zm-94 81.4C47.3 166 34.4 203.7 32.3 244.3l60-41.5L68.1 133.9zM33.5 282.4c3.5 29.9 12.9 58 27 83.1l97.9-2.3 21.2-29.2-1.1-3.3-29.1-89.4-1.1-3.3L114 226.7 33.5 282.4zM81.9 396.9c24.6 30.3 56.8 54 93.9 68.3l-20.9-70-72.9 1.7zM0 256a256 256 0 1 1 512 0A256 256 0 1 1 0 256zm209 64.7l94 0s0 0 0 0l29.1-89.4L256 176l-76.1 55.3L209 320.7s0 0 0 0z"/></svg>