<svg xmlns="http://www.w3.org/2000/svg" viewBox="0 0 448 512"><!--! Font Awesome Pro 6.6.0 by @fontawesome - https://fontawesome.com License - https://fontawesome.com/license (Commercial License) Copyright 2024 Fonticons, Inc. --><path d="M32 64l0 384 384 0 0-384L32 64zM0 32l32 0 384 0 32 0 0 32 0 384 0 32-32 0L32 480 0 480l0-32L0 64 0 32zm144 80l0 32 64 0 0-32 0-16 32 0 0 16 0 32 64 0 0-32 0-16 32 0 0 16 0 32 32 0 16 0 0 32-16 0-32 0 0 64 32 0 16 0 0 32-16 0-32 0 0 64 32 0 16 0 0 32-16 0-32 0 0 32 0 16-32 0 0-16 0-32-64 0 0 32 0 16-32 0 0-16 0-32-64 0 0 32 0 16-32 0 0-16 0-32-32 0-16 0 0-32 16 0 32 0 0-64-32 0-16 0 0-32 16 0 32 0 0-64-32 0-16 0 0-32 16 0 32 0 0-32 0-16 32 0 0 16zm0 128l64 0 0-64-64 0 0 64zm96 0l64 0 0-64-64 0 0 64zm0 32l0 64 64 0 0-64-64 0zm-32 0l-64 0 0 64 64 0 0-64z"/></svg>