<svg xmlns="http://www.w3.org/2000/svg" viewBox="0 0 640 512"><!--! Font Awesome Pro 6.6.0 by @fontawesome - https://fontawesome.com License - https://fontawesome.com/license (Commercial License) Copyright 2024 Fonticons, Inc. --><path d="M32 96l0 320 576 0 0-320L32 96zM0 64l32 0 576 0 32 0 0 32 0 320 0 32-32 0L32 448 0 448l0-32L0 96 0 64zM208 192l0 48 48 0 16 0 0 32-16 0-48 0 0 48 0 16-32 0 0-16 0-48-48 0-16 0 0-32 16 0 48 0 0-48 0-16 32 0 0 16zM408 304a24 24 0 1 1 48 0 24 24 0 1 1 -48 0zm88-120a24 24 0 1 1 0 48 24 24 0 1 1 0-48z"/></svg>