<svg xmlns="http://www.w3.org/2000/svg" viewBox="0 0 640 512"><!--! Font Awesome Pro 6.6.0 by @fontawesome - https://fontawesome.com License - https://fontawesome.com/license (Commercial License) Copyright 2024 Fonticons, Inc. --><path d="M320 6.8l5.9 2.3 304 120 10.1 4 0 10.9 0 352 0 16-32 0 0-16 0-341.1L320 41.2 32 154.9 32 496l0 16L0 512l0-16L0 144l0-10.9 10.1-4 304-120L320 6.8zM96 192l16 0 416 0 16 0 0 16 0 288 0 16-32 0 0-16 0-144-384 0 0 144 0 16-32 0 0-16 0-288 0-16zm32 128l384 0 0-96-384 0 0 96zm144 96l96 0 16 0 0 32-16 0-96 0-16 0 0-32 16 0z"/></svg>