<svg xmlns="http://www.w3.org/2000/svg" viewBox="0 0 640 512"><!--! Font Awesome Pro 6.6.0 by @fontawesome - https://fontawesome.com License - https://fontawesome.com/license (Commercial License) Copyright 2024 Fonticons, Inc. --><path d="M325.9 9.1L320 6.8l-5.9 2.3-304 120L0 133.1 0 144 0 496l0 16 32 0 0-16 0-341.1L320 41.2 608 154.9 608 496l0 16 32 0 0-16 0-352 0-10.9-10.1-4-304-120zM112 192l-16 0 0 16 0 288 0 16 32 0 0-16 0-208 384 0 0 208 0 16 32 0 0-16 0-288 0-16-16 0-416 0zm400 64l-384 0 0-32 384 0 0 32zM212.5 320l-7.8 24L192 344l-16 0 0 16 0 136 0 16 32 0 0-16 0-16 224 0 0 16 0 16 32 0 0-16 0-136 0-16-16 0-12.7 0-7.8-24-33.6 0 7.8 24-163.3 0 7.8-24-33.6 0zM208 448l0-72 224 0 0 72-224 0zm40-16a16 16 0 1 0 0-32 16 16 0 1 0 0 32zm160-16a16 16 0 1 0 -32 0 16 16 0 1 0 32 0z"/></svg>