<svg xmlns="http://www.w3.org/2000/svg" viewBox="0 0 640 512"><!--! Font Awesome Pro 6.6.0 by @fontawesome - https://fontawesome.com License - https://fontawesome.com/license (Commercial License) Copyright 2024 Fonticons, Inc. --><path d="M205 56.1L195 8 125 8 115 56.1c-13.8 5.2-26.5 12.7-37.5 22L34.4 64 0 123.4l33.9 30.3C32.7 160.9 32 168.4 32 176s.7 15.1 1.9 22.3L0 228.6 34.4 288l43.1-14.2c11.1 9.3 23.7 16.8 37.5 22L125 344l70 0 10-48.1c13.8-5.2 26.5-12.7 37.5-22L285.6 288 320 228.6l-33.9-30.3c1.3-7.3 1.9-14.7 1.9-22.3s-.7-15.1-1.9-22.3L320 123.4 285.6 64 242.5 78.2c-11.1-9.3-23.7-16.8-37.5-22zM271 102.5l8.3 14.3-14.5 12.9-13.3 11.9 3.1 17.6c1 5.4 1.5 11 1.5 16.8s-.5 11.4-1.5 16.8l-3.1 17.6 13.3 11.9 14.5 12.9L271 249.5l-18.4-6.1-17-5.6-13.7 11.5c-8.3 7-17.8 12.6-28.1 16.5l-16.5 6.2-3.6 17.2L169 312l-18 0-4.7-22.7-3.6-17.2-16.5-6.2c-10.3-3.9-19.8-9.5-28.1-16.5L84.4 237.8l-17 5.6L49 249.5l-8.3-14.3 14.5-12.9 13.3-11.9-3.1-17.6c-1-5.4-1.5-11-1.5-16.8s.5-11.4 1.5-16.8l3.1-17.6L55.2 129.8 40.8 116.9 49 102.5l18.4 6.1 17 5.6 13.7-11.5c8.3-7 17.8-12.6 28.1-16.5l16.5-6.2 3.6-17.2L151 40l18 0 4.7 22.7 3.6 17.2 16.5 6.2c10.3 3.9 19.8 9.5 28.1 16.5l13.7 11.5 17-5.6 18.4-6.1zM160 200a24 24 0 1 1 0-48 24 24 0 1 1 0 48zm-56-24a56 56 0 1 0 112 0 56 56 0 1 0 -112 0zM344.1 307L296 317l0 70 48.1 10c5.2 13.8 12.7 26.5 22 37.5L352 477.6 411.4 512l30.3-33.9c7.3 1.3 14.7 1.9 22.3 1.9s15.1-.7 22.3-1.9L516.6 512 576 477.6l-14.2-43.1c9.3-11.1 16.8-23.7 22-37.5L632 387l0-70-48.1-10c-5.2-13.8-12.7-26.5-22-37.5L576 226.4 516.6 192l-30.3 33.9c-7.3-1.3-14.7-1.9-22.3-1.9s-15.1 .7-22.3 1.9L411.4 192 352 226.4l14.2 43.1c-9.3 11.1-16.8 23.7-22 37.5zM390.5 241l14.3-8.3 12.9 14.5 11.9 13.3 17.6-3.1c5.4-1 11-1.5 16.8-1.5s11.4 .5 16.8 1.5l17.6 3.1 11.9-13.3 12.9-14.5 14.3 8.3-6.1 18.4-5.6 17 11.5 13.7c7 8.3 12.6 17.8 16.5 28.1l6.2 16.5 17.2 3.6L600 343l0 18-22.7 4.7-17.2 3.6-6.2 16.5c-3.9 10.3-9.5 19.8-16.5 28.1l-11.5 13.7 5.6 17 6.1 18.4-14.3 8.3-12.9-14.5-11.9-13.3-17.6 3.1c-5.4 1-11 1.5-16.8 1.5s-11.4-.5-16.8-1.5l-17.6-3.1-11.9 13.3-12.9 14.5L390.5 463l6.1-18.4 5.6-17-11.5-13.7c-7-8.3-12.6-17.8-16.5-28.1l-6.2-16.5-17.2-3.6L328 361l0-18 22.7-4.7 17.2-3.6 6.2-16.5c3.9-10.3 9.5-19.8 16.5-28.1l11.5-13.7-5.6-17L390.5 241zM488 352a24 24 0 1 1 -48 0 24 24 0 1 1 48 0zm-24 56a56 56 0 1 0 0-112 56 56 0 1 0 0 112z"/></svg>