<svg xmlns="http://www.w3.org/2000/svg" viewBox="0 0 384 512"><!--! Font Awesome Pro 6.6.0 by @fontawesome - https://fontawesome.com License - https://fontawesome.com/license (Commercial License) Copyright 2024 Fonticons, Inc. --><path d="M45.9 176.8L64.1 186c30.4 15.2 66.9 11.3 93.4-9.9c20.1-16.1 48.8-16.1 68.9 0c26.5 21.2 63 25.1 93.4 9.9l18.2-9.1L314.4 480 69.6 480 45.9 176.8zM43 139.6L34.6 32l314.8 0L341 139.6l-35.4 17.7c-19.2 9.6-42.3 7.2-59.1-6.3c-31.8-25.5-77.1-25.5-108.9 0c-16.8 13.4-39.9 15.9-59.1 6.3L43 139.6zM40 512l304 0L381.5 32 384 0 351.9 0 32.1 0 0 0 2.5 32 40 512z"/></svg>