<svg xmlns="http://www.w3.org/2000/svg" viewBox="0 0 512 512"><!--! Font Awesome Pro 6.6.0 by @fontawesome - https://fontawesome.com License - https://fontawesome.com/license (Commercial License) Copyright 2024 Fonticons, Inc. --><path d="M480 144c0-61.9-50.1-112-112-112c-44.7 0-83.2 26.2-101.2 64l-34.6 0C252 40.1 305.3 0 368 0c79.5 0 144 64.5 144 144s-64.5 144-144 144l-.5 0 3.3-32C431.4 254.5 480 204.9 480 144zM68.8 480l214.3 0 20-192L48.8 288l20 192zM306.5 256l10-96-281 0 10 96 261 0zM312 512L40 512 3.3 160 0 128l32.2 0 287.7 0 32.2 0-3.3 32L312 512z"/></svg>