<svg xmlns="http://www.w3.org/2000/svg" viewBox="0 0 448 512"><!--! Font Awesome Pro 6.6.0 by @fontawesome - https://fontawesome.com License - https://fontawesome.com/license (Commercial License) Copyright 2024 Fonticons, Inc. --><path d="M32 160l0 64 64 0 0-64-64 0zM0 128l32 0 64 0 32 0 0 32 0 64 0 32-32 0-64 0L0 256l0-32 0-64 0-32zM32 320l0 64 64 0 0-64-64 0zM0 288l32 0 64 0 32 0 0 32 0 64 0 32-32 0-64 0L0 416l0-32 0-64 0-32zM256 160l-64 0 0 64 64 0 0-64zm-64-32l64 0 32 0 0 32 0 64 0 32-32 0-64 0-32 0 0-32 0-64 0-32 32 0zm0 192l0 64 64 0 0-64-64 0zm-32-32l32 0 64 0 32 0 0 32 0 64 0 32-32 0-64 0-32 0 0-32 0-64 0-32zM416 160l-64 0 0 64 64 0 0-64zm-64-32l64 0 32 0 0 32 0 64 0 32-32 0-64 0-32 0 0-32 0-64 0-32 32 0zm0 192l0 64 64 0 0-64-64 0zm-32-32l32 0 64 0 32 0 0 32 0 64 0 32-32 0-64 0-32 0 0-32 0-64 0-32z"/></svg>