<svg xmlns="http://www.w3.org/2000/svg" viewBox="0 0 384 512"><!--! Font Awesome Pro 6.6.0 by @fontawesome - https://fontawesome.com License - https://fontawesome.com/license (Commercial License) Copyright 2024 Fonticons, Inc. --><path d="M208 16l0-16L176 0l0 16 0 44.4L48 32 32 32 0 32 0 64 0 256l0 32 32 0 16 0 144-32 144 32 16 0 32 0 0-32 0-192 0-32-32 0-16 0L208 60.4 208 16zm0 276.3l-16-3.6-16 3.6L176 496l0 16 32 0 0-16 0-203.7zm-22.9-67.6L44.5 256 32 256 32 64l12.5 0L185.1 95.2c4.6 1 9.3 1 13.9 0L339.5 64 352 64l0 192-12.5 0L198.9 224.8c-4.6-1-9.3-1-13.9 0z"/></svg>