<svg xmlns="http://www.w3.org/2000/svg" viewBox="0 0 640 512"><!--! Font Awesome Pro 6.6.0 by @fontawesome - https://fontawesome.com License - https://fontawesome.com/license (Commercial License) Copyright 2024 Fonticons, Inc. --><path d="M284.9 359.8l7.4-33.8 13.4 6.7 28.6 14.3 6.8-13.5 33.3-15.6L397 307.1l15.8 19.4 37 45.4L463.4 315l5.8-24.3 25-.2 58.5-.6-36-46.1L501.3 224l15.4-19.7 36-46.1-58.5-.6-25-.2L463.4 133 449.8 76.1l-21.4 26.3-6-3L399 87.7l41.4-50.9L465.8 5.6l9.4 39.2 19.3 80.8 83 .8 40.3 .4L593 158.6 541.9 224 593 289.4l24.8 31.8-40.3 .4-83 .8-19.3 80.8-9.4 39.2-25.4-31.3L388 346.7 312.8 382l-36.5 17.1 8.6-39.4zM42.9 129.7L305.7 261.1l59.4-118.8L176.4 48 83.8 48 42.9 129.7zM28.6 158.3L0 144l14.3-28.6L64 16l120 0 195.4 97.7L408 128l-14.3 28.6L334.3 275.4 320 304s0 0 0 0l-28.6-14.3L28.6 158.3zm80.5 76l28.6 14.3L43 438.2l28.6 14.3L166.4 263 195 277.3 100.2 466.8 85.9 495.5 57.3 481.1 28.7 466.8 .1 452.5l14.3-28.6 94.8-189.6z"/></svg>