<svg xmlns="http://www.w3.org/2000/svg" viewBox="0 0 448 512"><!--! Font Awesome Pro 6.6.0 by @fontawesome - https://fontawesome.com License - https://fontawesome.com/license (Commercial License) Copyright 2024 Fonticons, Inc. --><path d="M96 512l-16 0 0-16 0-232 0-8.6c-3.2-2-6.4-4.2-9.5-6.5L22.4 212.8 16 208l0-8 0-51.5c0-53 29.1-101.7 75.7-126.8l8.3-4.5C121 5.9 144.4 0 168.3 0L304 0c61.9 0 112 50.1 112 112l0 96 0 48 0 16-16 0-48 0 0 16 0 16-16 0-56 0 0 16 0 16-16 0-72 0 0 160 0 16-16 0-80 0zM80 216l0-48 0-16 32 0 0 16 0 68.7 0 9.5 0 1.7 0 16 0 216 48 0 0-160 0-16 16 0 72 0 0-16 0-16 16 0 56 0 0-16 0-16 16 0 48 0 0-32 0-96c0-44.2-35.8-80-80-80L168.3 32c-18.5 0-36.8 4.6-53.1 13.4l-7.6-14.1 7.6 14.1-8.3 4.5C70.6 69.4 48 107.3 48 148.5L48 192l32 24z"/></svg>