<svg xmlns="http://www.w3.org/2000/svg" viewBox="0 0 640 512"><!--! Font Awesome Pro 6.6.0 by @fontawesome - https://fontawesome.com License - https://fontawesome.com/license (Commercial License) Copyright 2024 Fonticons, Inc. --><path d="M244.2 8.3l8.3 47.3 47.3-8.3L291.5 0 244.2 8.3zM160 110.1L126.1 144 112 144l-16 0 0 16 0 45.3C39.5 230 0 286.4 0 352c0 88.4 71.6 160 160 160s160-71.6 160-160c0-65.6-39.5-122-96-146.7l0-45.3 0-16-16 0-14.1 0L160 110.1zm32 85.1c-10.3-2.1-21-3.2-32-3.2s-21.7 1.1-32 3.2l0-19.2 64 0 0 19.2zM32 352a128 128 0 1 1 256 0A128 128 0 1 1 32 352zm64 0a64 64 0 1 1 128 0A64 64 0 1 1 96 352zm160 0A96 96 0 1 0 64 352a96 96 0 1 0 192 0zm224-64a64 64 0 1 1 0 128 64 64 0 1 1 0-128zm0 160a96 96 0 1 0 0-192 96 96 0 1 0 0 192zM416 144l0 16 0 45.3c-21.2 9.3-40 23-55.3 40l23.8 21.3C408 240.5 442.1 224 480 224c70.7 0 128 57.3 128 128s-57.3 128-128 128c-37.9 0-72-16.5-95.4-42.7l-23.8 21.3C390 491.4 432.6 512 480 512c88.4 0 160-71.6 160-160c0-65.6-39.5-122-96-146.7l0-45.3 0-16-16 0-14.1 0L480 110.1 446.1 144 432 144l-16 0zm32 51.2l0-19.2 64 0 0 19.2c-10.3-2.1-21-3.2-32-3.2s-21.7 1.1-32 3.2zM199.1 38.8L158.8 64.9l26.1 40.3 40.3-26.1L199.1 38.8zm241.9 0L414.8 79.1l40.3 26.1 26.1-40.3L440.9 38.8zM395.8 8.3L348.5 0l-8.3 47.3 47.3 8.3 8.3-47.3z"/></svg>