<svg xmlns="http://www.w3.org/2000/svg" viewBox="0 0 512 512"><!--! Font Awesome Pro 6.6.0 by @fontawesome - https://fontawesome.com License - https://fontawesome.com/license (Commercial License) Copyright 2024 Fonticons, Inc. --><path d="M512 128l0-16-16 0-232 0-8.6 0c-2-3.2-4.2-6.4-6.5-9.5L212.8 54.4 208 48l-8 0-51.5 0c-53 0-101.7 29.1-126.8 75.7L17.2 132C5.9 153 0 176.4 0 200.3L0 336c0 61.9 50.1 112 112 112l96 0 48 0 16 0 0-16 0-48 16 0 16 0 0-16 0-56 16 0 16 0 0-16 0-72 160 0 16 0 0-16 0-80zM216 112l-48 0-16 0 0 32 16 0 68.7 0 9.5 0 1.7 0 16 0 216 0 0 48-160 0-16 0 0 16 0 72-16 0-16 0 0 16 0 56-16 0-16 0 0 16 0 48-32 0-96 0c-44.2 0-80-35.8-80-80l0-135.7c0-18.5 4.6-36.8 13.4-53.1l-14.1-7.6 14.1 7.6 4.5-8.3C69.4 102.6 107.3 80 148.5 80L192 80l24 32z"/></svg>