<svg xmlns="http://www.w3.org/2000/svg" viewBox="0 0 576 512"><!--! Font Awesome Pro 6.6.0 by @fontawesome - https://fontawesome.com License - https://fontawesome.com/license (Commercial License) Copyright 2024 Fonticons, Inc. --><path d="M576 240.2l-.9-123.6-96 .7 .1 18.8L419.1 3.2 360.8 29.6 347.6 .5 260.1 40.1l13.2 29.1L215 95.6l2.7 6.1 9.5 4.2 34.5 15.3-4.4-9.7 29.1-13.2 19.2 42.4 19.9 8.8c8.8 3.9 17.3 8.4 25.4 13.5L302.5 56l29.2-13.2 66 145.7 29.1-13.2L374 58.8l29.1-13.2 81.4 179.8 27.3-2.8-.5-73.5 32-.2 .6 91.6c.4 56.1-32.3 107.3-83.4 130.4c-5.4 2.4-10.8 4.5-16.3 6.2c-2.4 12.3-5.8 24.1-10.2 35.5c13.4-2.5 26.7-6.7 39.7-12.6c62.7-28.4 102.7-91 102.2-159.8zM214.3 134.5L199.6 128l-6.5 14.6-26 58.5-6.5 14.6 14.6 6.5 2.6 1.1L48 223.4l-16 0 0 16 0 48-16 0-16 0 0 16 0 64 0 16 16 0 16 0 0 48 0 16 16 0 16 0 0 48 0 16 16 0 161.9 0c96.1 0 174.1-77.9 174.1-174.1c0-68.8-40.5-131.1-103.4-159.1l-98.4-43.7zM32 351.4l0-32 16 0 16 0s0 0 0 0l16 0 96 0 16 0 0-32-16 0-96 0-16 0 0-32 189.2 0 8.1 0 8.7-26-10.3-4.6-56.8-25.3 13-29.2 83.8 37.2c51.3 22.8 84.4 73.7 84.4 129.8c0 78.5-63.6 142.1-142.1 142.1L96 479.4l0-32 16 0 64 0 16 0 0-32-16 0-64 0-16 0s0 0 0 0l-16 0-16 0 0-32 16 0 96 0 16 0 0-32-16 0-96 0-16 0s0 0 0 0l-16 0-16 0z"/></svg>