<svg xmlns="http://www.w3.org/2000/svg" viewBox="0 0 512 512"><!--! Font Awesome Pro 6.6.0 by @fontawesome - https://fontawesome.com License - https://fontawesome.com/license (Commercial License) Copyright 2024 Fonticons, Inc. --><path d="M0 128l0-16 16 0 232 0 8.6 0c2-3.2 4.2-6.4 6.5-9.5l36.1-48.1L304 48l8 0 51.5 0c53 0 101.7 29.1 126.8 75.7l4.5 8.3c11.3 21 17.2 44.4 17.2 68.3L512 336c0 61.9-50.1 112-112 112l-96 0-48 0-16 0 0-16 0-48-16 0-16 0 0-16 0-56-16 0-16 0 0-16 0-72L16 224 0 224l0-16 0-80zm296-16l48 0 16 0 0 32-16 0-68.7 0-9.5 0-1.7 0-16 0L32 144l0 48 160 0 16 0 0 16 0 72 16 0 16 0 0 16 0 56 16 0 16 0 0 16 0 48 32 0 96 0c44.2 0 80-35.8 80-80l0-135.7c0-18.5-4.6-36.8-13.4-53.1l14.1-7.6-14.1 7.6-4.5-8.3C442.6 102.6 404.7 80 363.5 80L320 80l-24 32z"/></svg>