<svg xmlns="http://www.w3.org/2000/svg" viewBox="0 0 448 512"><!--! Font Awesome Pro 6.6.0 by @fontawesome - https://fontawesome.com License - https://fontawesome.com/license (Commercial License) Copyright 2024 Fonticons, Inc. --><path d="M80 0L64 0l0 16 0 48L51.2 64 17.9 64 38.7 90l24 30-24 30L17.9 176l33.3 0L64 176l0 64-16 0-16 0 0 16 0 96c0 88.4 71.6 160 160 160l64 0c88.4 0 160-71.6 160-160c0 0 0 0 0 0l0-16 0-64 0-16 0-48 0-16-16 0-64 0 0-16-16 0-64 0 0-16 0-16-16 0-64 0 0-48 0-32 0-48 0-16L160 0 80 0zm64 64L96 64l0-32 48 0 0 32zm0 32l0 48-59.5 0 11.2-14 8-10-8-10L84.5 96 144 96zm0 80l0 64-48 0 0-64 48 0zm32 0l48 0 0 16 0 48-48 0 0-64zm48 96s0 0 0 0l0 48-80 0-16 0 0 32 16 0 80 0 16 0 16 0 48 0 16 0 16 0 48 0c0 70.7-57.3 128-128 128l-64 0c-70.7 0-128-57.3-128-128l0-80 80 0s0 0 0 0l32 0s0 0 0 0l48 0zm32 0l0-16 0-16 0-32 48 0 0 112-48 0 0-48zm128 0l0 48-48 0 0-96 48 0 0 32 0 16z"/></svg>