<svg xmlns="http://www.w3.org/2000/svg" viewBox="0 0 640 512"><!--! Font Awesome Pro 6.6.0 by @fontawesome - https://fontawesome.com License - https://fontawesome.com/license (Commercial License) Copyright 2024 Fonticons, Inc. --><path d="M365.6 11.9L378.9 .5 389 14.7l120 168 3 4.2 0 5.1 0 100.2 116.8 36.5-9.5 30.5-128-40L480 315.8l0-11.8 0-106.9L373.1 47.5l-32 27.4 72.1 108.2 2.7 4 0 4.8 0 112 0 16-32 0 0-16 0-96-48 0 0 180.3 292.8 92.5-9.6 30.5L320 416.8 20.8 511.3l-9.6-30.5L304 388.3 304 208l-48 0 0 96s0 0 0 0l0 16-32 0 0-16 0-80s0 0 0 0l0-32 0-4.8 2.7-4L298.8 74.9l-32-27.4L160 197.1 160 304l0 11.8-11.2 3.5-128 40-9.5-30.5L128 292.2 128 192l0-5.1 3-4.2 120-168L261.1 .5l13.3 11.4L320 50.9l45.6-39.1zm-45.6 89L269.9 176l34.1 0 16 0s0 0 0 0l16 0 34.1 0L320 100.8z"/></svg>