<svg xmlns="http://www.w3.org/2000/svg" viewBox="0 0 448 512"><!--! Font Awesome Pro 6.6.0 by @fontawesome - https://fontawesome.com License - https://fontawesome.com/license (Commercial License) Copyright 2024 Fonticons, Inc. --><path d="M36.7 164.7L96 105.4 96 64l0-16 0-32L96 0l16 0 96 0 16 0 0 16 0 16 48 0 16 0 0 16 0 16 48 0 16 0 0 16 0 16 48 0 16 0 0 16 0 64 0 16 0 16 0 48c0 49.9-25.4 93.9-64 119.8L352 496l0 16-32 0 0-16 0-129.1 0-9.2 8-4.6c33.5-19.4 56-55.6 56-97l0-48 0-16 0-16 0-48-48 0-16 0 0-16 0-16-48 0-16 0 0-16 0-16-32 0-16 0-16 0 0-16 0-16-64 0 0 16 0 16 0 48 0 96 0 16-32 0 0-16 0-57.4-32 32L64 256l0 16c0 48.3 35.8 88.4 82.3 95l13.7 2 0 13.9L160 496l0 16-32 0 0-16 0-100c-55.2-14.2-96-64.3-96-124l0-16 0-80 0-6.6 4.7-4.7z"/></svg>