<svg xmlns="http://www.w3.org/2000/svg" viewBox="0 0 448 512"><!--! Font Awesome Pro 6.6.0 by @fontawesome - https://fontawesome.com License - https://fontawesome.com/license (Commercial License) Copyright 2024 Fonticons, Inc. --><path d="M208 0L192 0l0 16 0 176-64 0-16 0 0 16 0 36L38.4 299.2 32 304l0 8 0 51.5c0 53 29.1 101.7 75.7 126.8l8.3 4.5c21 11.3 44.4 17.2 68.3 17.2L320 512c61.9 0 112-50.1 112-112l0-96 0-48 0-16-16 0-48 0 0-16 0-16-16 0-48 0 0-192 0-16L288 0 208 0zm80 240l48 0 0 16 0 16 16 0 48 0 0 32 0 96c0 44.2-35.8 80-80 80l-135.7 0c-18.5 0-36.8-4.6-53.1-13.4l-7.6 14.1 7.6-14.1-8.3-4.5C86.6 442.6 64 404.7 64 363.5L64 320l48-36 0 60 0 16 32 0 0-16 0-80 0-4 0-8 0-4 0-24 64 0 16 0 0-16 0-176 48 0 0 192 0 16 16 0z"/></svg>