<svg xmlns="http://www.w3.org/2000/svg" viewBox="0 0 640 512"><!--! Font Awesome Pro 6.6.0 by @fontawesome - https://fontawesome.com License - https://fontawesome.com/license (Commercial License) Copyright 2024 Fonticons, Inc. --><path d="M245.4 45.6L216 32l-8.8 31.2L151.7 260.6c9.5 3.4 19.7 6.6 30.5 9.6L236.6 76.8l69.9 32.3 13.4 6.2 13.4-6.2 69.9-32.3 54.4 193.5c10.9-3 21-6.2 30.5-9.6L432.8 63.2 424 32 394.6 45.6 320 80 245.4 45.6zM640 256l-4.7-6.2L616 224s-8.2 8.3-24.9 20.1C551 272.2 462.1 320 320 320s-231-47.8-271.1-75.9C32.2 232.3 24 224 24 224L4.7 249.8 0 256s96 192 320 192s320-192 320-192zm-82.3 44.7c7.6-3.7 14.6-7.5 21.1-11.1c-9.9 12.1-22 25.5-36.5 38.9C494.6 372.5 422 416 320 416s-174.6-43.5-222.3-87.5c-14.5-13.4-26.6-26.8-36.5-38.9c6.5 3.7 13.5 7.4 21.1 11.1C135.2 326.7 214 352 320 352s184.8-25.3 237.7-51.3z"/></svg>