<svg xmlns="http://www.w3.org/2000/svg" viewBox="0 0 640 512"><!--! Font Awesome Pro 6.6.0 by @fontawesome - https://fontawesome.com License - https://fontawesome.com/license (Commercial License) Copyright 2024 Fonticons, Inc. --><path d="M224 32l24 0c88.4 0 160 71.6 160 160l0 7.2 5.4 4.8L480 263.2l0 37.6L512 326l0-6.1 0-64 0-7.2-5.4-4.8-66.8-59.3C436 82 351.6 0 248 0L224 0c-34.8 0-67.7 7.9-97.1 22.1l28.5 22.5C176.8 36.4 199.9 32 224 32zM31.3 109.7C11.4 143.1 0 182.2 0 224c0 61 24.4 116.4 64 156.8L64 496l0 16 32 0 0-16 0-121.9 0-6.8-4.9-4.7C54.6 327.6 32 278.4 32 224c0-34.3 9-66.5 24.7-94.3l-25.4-20zM528.5 339.1l33.7 26.6c8.1-3.8 13.8-12.1 13.8-21.7c0-13.3-10.7-24-24-24c-11.6 0-21.2 8.2-23.5 19.1zm63.6 50.2l32 25.3c9.2-3.3 15.8-12.2 15.8-22.6c0-13.3-10.7-24-24-24c-12.3 0-22.5 9.3-23.9 21.3zM432 426l-23.6-18.7-72.4-6 0-11.4 42.6-6.1-34.7-27.4-26.2 3.7-13.7 2 0 13.9 0 40 0 14.7 14.7 1.2 81.3 6.8 0 17.3-96 0-16 0 0 16 0 24 0 16 32 0 0-16 0-8 96 0 16 0 0-16 0-46zM640 296a24 24 0 1 0 -48 0 24 24 0 1 0 48 0zM32.5 10L19.9 .1 .1 25.3l12.6 9.9L607.8 502.2l12.6 9.9 19.8-25.2-12.6-9.9L32.5 10z"/></svg>