<svg xmlns="http://www.w3.org/2000/svg" viewBox="0 0 512 512"><!--! Font Awesome Pro 6.6.0 by @fontawesome - https://fontawesome.com License - https://fontawesome.com/license (Commercial License) Copyright 2024 Fonticons, Inc. --><path d="M32 224C32 118 118 32 224 32l24 0c88.4 0 160 71.6 160 160l0 7.2 5.4 4.8L480 263.2l0 40.8-48 0-16 0 0 16 0 96-112 0-16 0 0 16 0 64 0 16 32 0 0-16 0-48 112 0 16 0 0-16 0-96 48 0 16 0 0-16 0-64 0-7.2-5.4-4.8-66.8-59.3C436 82 351.6 0 248 0L224 0C100.3 0 0 100.3 0 224c0 61 24.4 116.4 64 156.8L64 496l0 16 32 0 0-16 0-121.9 0-6.8-4.9-4.7C54.6 327.6 32 278.4 32 224zm171.1-99.8c4.1-7.3 12-12.2 20.9-12.2s16.8 4.9 20.9 12.2l7.7 13.7 13.8-7.5c2.8-1.5 6-2.4 9.5-2.4c7 0 13.2 3.6 16.8 9.1l5.6 8.6 10.1-1.5c1.1-.2 2.3-.3 3.5-.3c13.3 0 24 10.7 24 24l0 24-64 0-16 0 0 16 0 16 0 16-16 0-16 0 0 32 16 0 32 0 16 0 0-16 0-32 64 0 16 0 0-16 0-40c0-30.4-24.2-55.2-54.5-56c-9.5-9.9-22.8-16-37.5-16c-4 0-7.8 .4-11.5 1.3C254.3 86.6 239.9 80 224 80s-30.3 6.6-40.5 17.3C179.8 96.4 176 96 172 96c-22.2 0-41.1 13.9-48.6 33.4C98.6 135.1 80 157.4 80 184c0 19.2 9.7 36.1 24.3 46.2c3.1 28 26.8 49.8 55.7 49.8l0 24 0 16 32 0 0-16 0-40 0-16-16 0-16 0c-13.3 0-24-10.7-24-24c0-.7 0-1.3 .1-2l.9-11.4L126.5 206c-8.6-3.7-14.5-12.2-14.5-22c0-13.3 10.7-24 24-24l.2 0 14.4 0 1.6-14.3c1.1-10 9.6-17.8 19.9-17.8c3.5 0 6.7 .9 9.5 2.4l13.8 7.5 7.7-13.7z"/></svg>