<svg xmlns="http://www.w3.org/2000/svg" viewBox="0 0 576 512"><!--! Font Awesome Pro 6.6.0 by @fontawesome - https://fontawesome.com License - https://fontawesome.com/license (Commercial License) Copyright 2024 Fonticons, Inc. --><path d="M256 141.3l-22.6-22.6L209.1 94.4C189.7 74.9 163.3 64 135.8 64C78.5 64 32 110.5 32 167.8c0 27.5 10.9 53.9 30.4 73.4l24.2 24.2L256 434.8l9.5-9.5c3.7 10.9 8.5 21.3 14.2 31.1l-1.1 1.1L256 480l-22.6-22.6L64 288 39.8 263.8C14.3 238.3 0 203.8 0 167.8C0 92.8 60.8 32 135.8 32c36 0 70.5 14.3 96 39.8l1.6 1.6L256 96l22.6-22.6 1.6-1.6c25.5-25.5 60-39.8 96-39.8C451.2 32 512 92.8 512 167.8c0 13.8-2.1 27.4-6.2 40.4c-9.6-4.5-19.7-8.1-30.2-10.7c2.9-9.5 4.3-19.5 4.3-29.7C480 110.5 433.5 64 376.2 64c-27.5 0-53.9 10.9-73.4 30.4l-24.2 24.2L256 141.3zM544 368a112 112 0 1 0 -224 0 112 112 0 1 0 224 0zm-256 0a144 144 0 1 1 288 0 144 144 0 1 1 -288 0zm168-80l-10.7 64 66.7 0L408 448l10.7-64L352 384l104-96z"/></svg>