<svg xmlns="http://www.w3.org/2000/svg" viewBox="0 0 576 512"><!--! Font Awesome Pro 6.6.0 by @fontawesome - https://fontawesome.com License - https://fontawesome.com/license (Commercial License) Copyright 2024 Fonticons, Inc. --><path d="M288 0S96 80 96 224c0 80-32 192-32 192l176 88 16 8 16 0 0-32 0-216-40-8-40-8 0-24 4.8 0 27.2 0 11.2 0 105.7 0 11.2 0 27.2 0 4.8 0 0 24-40 8-40 8 0 216 0 32 16 0 16-8 176-88s-32-112-32-192C480 80 288 0 288 0zM474.4 399L336 468.2l0-178 54.3-10.9 25.7-5.1 0-26.2 0-24 0-32-32 0-192 0-32 0 0 32 0 24 0 26.2 25.7 5.1L240 290.2l0 178L101.6 399c2.8-11.4 6.3-26 9.8-42.4C119.4 318 128 267.4 128 224c0-57.1 38.3-104.8 83.9-140.9C234 65.5 256.4 52 273.2 42.9c5.6-3.1 10.6-5.6 14.8-7.6c4.1 2 9.1 4.6 14.8 7.6C319.6 52 342 65.5 364.1 83.1C409.7 119.2 448 166.9 448 224c0 43.4 8.6 94 16.7 132.6c3.5 16.4 6.9 31 9.8 42.4zM44.3 224L95.6 11.8 64.4 4.2l-56 232L3.7 256 24 256l32 0 16 0 0-32-16 0-11.7 0zM480.4 11.8L531.7 224 520 224l-16 0 0 32 16 0 32 0 20.3 0-4.8-19.8-56-232-31.1 7.5z"/></svg>