<svg xmlns="http://www.w3.org/2000/svg" viewBox="0 0 640 512"><!--! Font Awesome Pro 6.6.0 by @fontawesome - https://fontawesome.com License - https://fontawesome.com/license (Commercial License) Copyright 2024 Fonticons, Inc. --><path d="M160 0l16 0L464 0l16 0 0 16 0 80 144 0 16 0 0 16 0 80 0 32 0 64 0 32 0 176 0 16-16 0-208 0s0 0 0 0l-32 0-16 0-96 0-16 0-32 0s0 0 0 0L16 512 0 512l0-16L0 320l0-32 0-64 0-32 0-80L0 96l16 0 144 0 0-80 0-16zM608 128l-128 0 0 208 0 144 128 0 0-160-80 0-16 0 0-32 16 0 80 0 0-64-80 0-16 0 0-32 16 0 80 0 0-64zM32 224l0 64 80 0 16 0 0 32-16 0-80 0 0 160 128 0 0-352L32 128l0 64 80 0 16 0 0 32-16 0-80 0zM448 480l0-144 0-304L192 32l0 448 64 0 0-112 0-16 16 0 96 0 16 0 0 16 0 112 64 0zm-96 0l0-96-64 0 0 96 64 0zM296 64l48 0 16 0 0 16 0 24 24 0 16 0 0 16 0 48 0 16-16 0-24 0 0 24 0 16-16 0-48 0-16 0 0-16 0-24-24 0-16 0 0-16 0-48 0-16 16 0 24 0 0-24 0-16 16 0zm16 56l0 16-16 0-24 0 0 16 24 0 16 0 0 16 0 24 16 0 0-24 0-16 16 0 24 0 0-16-24 0-16 0 0-16 0-24-16 0 0 24z"/></svg>