<svg xmlns="http://www.w3.org/2000/svg" viewBox="0 0 576 512"><!--! Font Awesome Pro 6.6.0 by @fontawesome - https://fontawesome.com License - https://fontawesome.com/license (Commercial License) Copyright 2024 Fonticons, Inc. --><path d="M0 0L16 0 304 0l16 0 0 16 0 343-32 73.1L288 32 32 32l0 256 112 0 16 0 0 32-16 0L32 320l0 64 112 0 16 0 0 32-16 0L32 416l0 64 235.1 0-14 32L16 512 0 512l0-16 0-80 0-32 0-64 0-32L0 16 0 0zM344 384l20.9 0 67.1 0 67.1 0 20.9 0 8.4 19.2 28 64L562 480l14 32-34.9 0-14 0-190.1 0-14 0L288 512l14-32 5.6-12.8 28-64L344 384zm183.1 96l-14-32-14-32-134.1 0-14 32-14 32 34.9 0 120.3 0 34.9 0zM352 272a80 80 0 1 1 160 0 80 80 0 1 1 -160 0zm128 0a48 48 0 1 0 -96 0 48 48 0 1 0 96 0zM136 80l48 0 16 0 0 16 0 24 24 0 16 0 0 16 0 48 0 16-16 0-24 0 0 24 0 16-16 0-48 0-16 0 0-16 0-24-24 0-16 0 0-16 0-48 0-16 16 0 24 0 0-24 0-16 16 0zm16 56l0 16-16 0-24 0 0 16 24 0 16 0 0 16 0 24 16 0 0-24 0-16 16 0 24 0 0-16-24 0-16 0 0-16 0-24-16 0 0 24z"/></svg>