<svg xmlns="http://www.w3.org/2000/svg" viewBox="0 0 384 512"><!--! Font Awesome Pro 6.6.0 by @fontawesome - https://fontawesome.com License - https://fontawesome.com/license (Commercial License) Copyright 2024 Fonticons, Inc. --><path d="M0 0L16 0 48 0 336 0l32 0 16 0 0 32-16 0-16 0 0 112 0 7.8-6.2 4.8L218.1 256l127.8 99.4 6.2 4.8 0 7.8 0 112 16 0 16 0 0 32-16 0-32 0L48 512l-32 0L0 512l0-32 16 0 16 0 0-112 0-7.8 6.2-4.8L165.9 256 38.2 156.6 32 151.8l0-7.8L32 32 16 32 0 32 0 0zM64 32l0 104.2 128 99.6 128-99.6L320 32 64 32zM94.6 352l.2 0 .5 0 .5 0 .5 0 .5 0 .5 0 .5 0 .5 0 .5 0 .5 0 .5 0 .5 0 .5 0 .5 0 .5 0 .5 0 .5 0 .5 0 .5 0 .5 0 .5 0 .5 0 .5 0 .5 0 .5 0 .5 0 .5 0 .5 0 .5 0 .5 0 .5 0 .5 0 .5 0 .5 0 .5 0 .6 0 .6 0 .6 0 .6 0 .6 0 .6 0 .6 0 .6 0 .6 0 .6 0 .6 0 .6 0 .6 0 .6 0 .6 0 .6 0 .6 0 .6 0 .6 0 .6 0 .6 0 .6 0 .6 0 .6 0 .6 0 .6 0 .6 0 .6 0 .6 0 .6 0 .6 0 .6 0 .6 0 .6 0 .6 0 .6 0 .6 0 .6 0 .6 0 .6 0 .6 0 .6 0 .6 0 .6 0 .6 0 .6 0 .6 0 .6 0 .6 0 .6 0 .6 0 .6 0 .6 0 .6 0 .6 0 .6 0 .6 0 .6 0 .6 0 .6 0 .6 0 .6 0 .6 0 .6 0 .6 0 .7 0 .7 0 .7 0 .7 0 .7 0 .7 0 .7 0 .7 0 .7 0 .7 0 .7 0 .7 0 .7 0 .7 0 .7 0 .7 0 .7 0 .7 0 .7 0 .7 0 .7 0 .7 0 .7 0 .7 0 .7 0 .7 0 .7 0 .7 0 .7 0 .7 0 .7 0 .7 0 .7 0 .7 0 .7 0 .7 0 .7 0 .7 0 .7 0 .7 0 .7 0 .7 0 .7 0 .7 0 .7 0 .7 0 .7 0 .7 0 .7 0 .7 0 .7 0 .7 0 .7 0 .7 0 .7 0 .7 0 .7 0 .7 0 .7 0 .7 0 .7 0 .7 0 .7 0 .7 0 .7 0 .7 0 .7 0 .7 0 .7 0 .7 0 .7 0 .7 0 .7 0 .7 0 .7 0 .7 0 .7 0 .7 0 .7 0 .7 0 .7 0 .7 0 .7 0 .7 0 .7 0 .7 0 .7 0 .7 0 .7 0 .7 0 .7 0 .7 0 .7 0 .7 0 .7 0 .7 0 .7 0 .7 0 .7 0 .7 0 .7 0 .7 0 .7 0 .7 0 .7 0 .7 0 .7 0 .7 0 .7 0 .7 0 .7 0 .7 0 .7 0 .7 0 .7 0 .7 0 .7 0 .7 0 .7 0 .7 0 .7 0 .7 0 .7 0 .7 0 .7 0 .7 0 .7 0 .7 0 .7 0 .7 0 .7 0 .7 0 .7 0 .7 0 .7 0 .7 0 .7 0 .7 0 .7 0 .7 0 .7 0 .7 0 .7 0 .7 0 .7 0 .7 0 .7 0 .7 0 .7 0 .7 0 .7 0 .7 0 .7 0 .7 0 .7 0 .7 0 .7 0 .7 0 .7 0 .7 0 .7 0 .7 0 .7 0 .7 0 .7 0 .7 0 .7 0 .7 0 .7 0 .7 0 .7 0 .7 0 .7 0 .7 0 .7 0 .7 0 .7 0 .7 0 .7 0 .7 0 .7 0 .7 0 .7 0 .7 0 .7 0 .7 0 .7 0 .7 0 .7 0 .7 0 .7 0 .7 0 .7 0 .7 0 .7 0 .7 0 .7 0 .7 0 .7 0 .6 0L192 276.3 94.6 352zM64 384l0 96 256 0 0-96-.4 0-.6 0-.6 0-.6 0-.6 0-.6 0-.6 0-.6 0-.6 0-.6 0-.6 0-.6 0-.6 0-.6 0-.6 0-.6 0-.6 0-.6 0-.6 0-.6 0-.6 0-.6 0-.6 0-.6 0-.6 0-.6 0-.6 0-.6 0-.6 0-.6 0-.6 0-.6 0-.6 0-.6 0-.6 0-.6 0-.6 0-.6 0-.6 0-.6 0-.6 0-.6 0-.6 0-.6 0-.6 0-.6 0-.6 0-.6 0-.6 0-.6 0-.6 0-.7 0-.7 0-.7 0-.7 0-.7 0-.7 0-.7 0-.7 0-.7 0-.7 0-.7 0-.7 0-.7 0-.7 0-.7 0-.7 0-.7 0-.7 0-.7 0-.7 0-.7 0-.7 0-.7 0-.7 0-.7 0-.7 0-.7 0-.7 0-.7 0-.7 0-.7 0-.7 0-.7 0-.7 0-.7 0-.7 0-.7 0-.7 0-.7 0-.7 0-.7 0-.7 0-.7 0-.7 0-.7 0-.7 0-.7 0-.7 0-.7 0-.7 0-.7 0-.7 0-.7 0-.7 0-.7 0-.7 0-.7 0-.7 0-.7 0-.7 0-.7 0-.7 0-.7 0-.7 0-.7 0-.7 0-.7 0-.7 0-.7 0-.7 0-.7 0-.7 0-.7 0-.7 0-.7 0-.7 0-.7 0-.7 0-.7 0-.7 0-.7 0-.7 0-.7 0-.7 0-.7 0-.7 0-.7 0-.7 0-.7 0-.7 0-.7 0-.7 0-.7 0-.7 0-.7 0-.7 0-.7 0-.7 0-.7 0-.7 0-.7 0-.7 0-.7 0-.7 0-.7 0-.7 0-.7 0-.7 0-.7 0-.7 0-.7 0-.7 0-.7 0-.7 0-.7 0-.7 0-.7 0-.7 0-.7 0-.7 0-.7 0-.7 0-.7 0-.7 0-.7 0-.7 0-.7 0-.7 0-.7 0-.7 0-.7 0-.7 0-.7 0-.7 0-.7 0-.7 0-.7 0-.7 0-.7 0-.7 0-.7 0-.7 0-.7 0-.7 0-.7 0-.7 0-.7 0-.7 0-.7 0-.7 0-.7 0-.7 0-.7 0-.7 0-.7 0-.7 0-.7 0-.7 0-.7 0-.7 0-.7 0-.7 0-.7 0-.7 0-.7 0-.7 0-.7 0-.7 0-.7 0-.7 0-.7 0-.7 0-.7 0-.7 0-.7 0-.7 0-.7 0-.7 0-.7 0-.7 0-.7 0-.7 0-.7 0-.7 0-.7 0-.7 0-.7 0-.7 0-.7 0-.7 0-.7 0-.7 0-.7 0-.7 0-.7 0-.7 0-.7 0-.7 0-.7 0-.6 0-.6 0-.6 0-.6 0-.6 0-.6 0-.6 0-.6 0-.6 0-.6 0-.6 0-.6 0-.6 0-.6 0-.6 0-.6 0-.6 0-.6 0-.6 0-.6 0-.6 0-.6 0-.6 0-.6 0-.6 0-.6 0-.6 0-.6 0-.6 0-.6 0-.6 0-.6 0-.6 0-.6 0-.6 0-.6 0-.6 0-.6 0-.6 0-.6 0-.6 0-.6 0-.6 0-.6 0-.6 0-.6 0-.6 0-.6 0-.6 0-.6 0-.6 0-.6 0-.6 0-.6 0-.6 0-.6 0-.6 0-.6 0-.6 0-.6 0-.6 0-.6 0-.6 0-.6 0-.6 0-.5 0-.5 0-.5 0-.5 0-.5 0-.5 0-.5 0-.5 0-.5 0-.5 0-.5 0-.5 0-.5 0-.5 0-.5 0-.5 0-.5 0-.5 0-.5 0-.5 0-.5 0-.5 0-.5 0-.5 0-.5 0-.5 0-.5 0-.5 0-.5 0-.5 0-.5 0-.5 0-.5 0-.5 0-.5 0-.5 0-.5 0-.5 0-.5 0-.5 0-.5 0-.5 0-.5 0-.5 0-.5 0-.5 0-.4 0-.4 0-.4 0-.4 0-.4 0-.4 0-.4 0-.4 0-.4 0-.4 0-.4 0-.4 0-.4 0-.4 0-.4 0-.4 0-.4 0-.4 0-.4 0-.4 0-.4 0-.4 0-.4 0-.4 0-.4 0-.4 0-.4 0-.4 0-.4 0-.4 0-.4 0-.4 0-.4 0-.4 0-.4 0-.4 0-.4 0-.3 0-.3 0-.3 0-.3 0-.3 0-.3 0-.3 0-.3 0-.3 0-.3 0-.3 0-.3 0-.3 0-.3 0-.3 0-.3 0-.3 0-.3 0-.3 0-.3 0-.3 0-.3 0-.3 0-.3 0-.3 0-.3 0-.3 0-.3 0-.3 0-.3 0-.3 0-.3 0-.2 0-.2 0-.2 0c0 0-.1 0-.1 0z"/></svg>