<svg xmlns="http://www.w3.org/2000/svg" viewBox="0 0 640 512"><!--! Font Awesome Pro 6.6.0 by @fontawesome - https://fontawesome.com License - https://fontawesome.com/license (Commercial License) Copyright 2024 Fonticons, Inc. --><path d="M298.6 12L288 2.7 277.4 12 5.4 252l21.2 24L64 243l0 253 0 16 16 0 293.6 0c-13.9-9.3-26.6-20.3-37.6-32.8l0 .8-96 0 0-160 51.7 0c2.5-10.9 6.1-21.6 10.7-32L224 288l-16 0 0 16 0 176L96 480l0-265.3L288 45.3 409.1 152.1c8-7.2 16.1-14.2 24.4-21.2L298.6 12zM512.7 272.8L537 245.3c2.4-2.8 4.8-5.4 7-7.8c7 7.5 14.9 16.6 22.8 26.7C590.4 294.5 608 327 608 352.2c0 70.7-57.3 128-128 128s-128-57.3-128-128c0-14.7 5.5-32.3 16.1-52c10.5-19.4 25-38.7 40.1-56.2c14.3-16.5 28.6-30.7 39.8-41.1c11.4 10.6 26.1 25.3 40.7 42.2l24 27.8zM448 160.2s-128 103.6-128 192s71.6 160 160 160s160-71.6 160-160c0-73.6-96-160-96-160s-3.4 3.1-9 8.6c-5.6 5.6-13.4 13.6-22.1 23.4c-7.4-8.5-14.7-16.5-21.7-23.7c-23.8-24.5-43.2-40.2-43.2-40.2zm.7 102.4l-12.5 15.4c-13.5 16.5-24.4 30.5-31.9 43.3c-7.7 13.1-12.3 26.1-12.3 40.6c0 26.2 9.8 48.2 26.5 63.5c16.6 15.1 38.9 22.7 62.6 22.7c19.5 0 37-5.5 53.1-16.2c0 0 0 0 0 0l.3-.2c34.4-24 42.6-70.9 23.1-106.9c0 0 0-.1 0-.1c-1.7-3.5-4.1-8.2-7.7-12.9L540.4 299l-12.8 9.4-27.8 20.4-13.1-17.3c-11.4-15-23.6-31.1-25.6-33.6l-12.4-15.4zM531.9 345c9.2 22.1 2.6 47.5-15.5 60.3c-11 7.2-22.3 10.7-35.2 10.7c-16.9 0-31.2-5.4-41-14.4c-9.7-8.8-16.1-21.9-16.1-39.8c0-7.1 2.1-14.4 8-24.4c4-6.8 9.3-14.3 16.4-23.4c3.9 5.2 8.4 11 12.9 16.9c5.8 7.6 11.4 15.1 15.6 20.6l5.1 6.7 1.4 1.9 .4 .5 .1 .1c0 0 0 0 0 0s0 0 0 0s0 0 0 0l12.8-9.7-12.8 9.7 9.5 12.6 12.7-9.4 25.8-19z"/></svg>