<svg xmlns="http://www.w3.org/2000/svg" viewBox="0 0 576 512"><!--! Font Awesome Pro 6.6.0 by @fontawesome - https://fontawesome.com License - https://fontawesome.com/license (Commercial License) Copyright 2024 Fonticons, Inc. --><path d="M288 2.7L298.6 12l272 240-21.2 24L512 243l0 253 0 16-16 0L80 512l-16 0 0-16 0-253L26.6 276 5.4 252l272-240L288 2.7zM96 214.7L96 480l384 0 0-265.3L288 45.3 96 214.7zM288 256a32 32 0 1 0 0-64 32 32 0 1 0 0 64zm0-96a64 64 0 1 1 0 128 64 64 0 1 1 0-128zM231.1 352l-21.3 64L176 416l32-96 160 0 32 96-33.7 0-21.3-64-113.9 0z"/></svg>