<svg xmlns="http://www.w3.org/2000/svg" viewBox="0 0 512 512"><!--! Font Awesome Pro 6.6.0 by @fontawesome - https://fontawesome.com License - https://fontawesome.com/license (Commercial License) Copyright 2024 Fonticons, Inc. --><path d="M256 0l64 48s-6.6 10.6-14.5 27.5C342.5 93.8 368 131.9 368 176s-25.5 82.2-62.5 100.5C313.4 293.4 320 304 320 304l-48 36 0 22.6 34.5-23.7 .1-.1C363.8 299.5 416 256 416 180.6c0-27.1-4.8-58-12.1-84.3C398.4 76.4 391.4 59.1 384 48c0 0 21.8 9.3 47.5 28.8C467.9 104.5 512 152.7 512 224c0 96-112 192-112 192l-83.4-45.3L284.2 393l46.1 31.7c1.8-.4 3.7-.7 5.7-.7c13.3 0 24 10.7 24 24s-10.7 24-24 24c-12.2 0-22.3-9.1-23.8-21L272 423.4l0 28.9c9.6 5.5 16 15.9 16 27.7c0 17.7-14.3 32-32 32s-32-14.3-32-32c0-11.8 6.4-22.2 16-27.7l0-28.9L199.8 451c-1.5 11.8-11.6 21-23.8 21c-13.3 0-24-10.7-24-24s10.7-24 24-24c2 0 3.9 .2 5.7 .7L227.8 393l-32.4-22.3L112 416s-112-96-112-192C0 152.7 44.1 104.5 80.5 76.8C106.1 57.3 128 48 128 48c-7.4 11.1-14.4 28.4-19.9 48.3C100.8 122.6 96 153.5 96 180.6c0 75.4 52.2 118.9 109.4 158.2l.1 .1L240 362.6l0-22.6-48-36s6.6-10.6 14.5-27.5C169.5 258.2 144 220.1 144 176s25.5-82.2 62.5-100.5C198.6 58.6 192 48 192 48L256 0zm24 176c0 24.8 6 49.7 13.4 70.7C318.7 233.3 336 206.7 336 176s-17.3-57.3-42.6-70.7C286 126.3 280 151.2 280 176zm-48 0c0-24.8-6-49.7-13.4-70.7C193.3 118.7 176 145.3 176 176s17.3 57.3 42.6 70.7C226 225.7 232 200.8 232 176zm38.5 100.3c-5-12.1-10.3-26.6-14.5-42.4c-4.2 15.9-9.4 30.3-14.5 42.4c-2.8 6.8-5.7 13.1-8.4 18.6L256 312l22.8-17.1c-2.7-5.5-5.5-11.7-8.4-18.6zm0-200.6c2.8-6.8 5.7-13.1 8.4-18.6L256 40 233.2 57.1c2.7 5.5 5.5 11.7 8.4 18.6c5 12.1 10.3 26.6 14.5 42.4c4.2-15.9 9.4-30.3 14.5-42.4zM32 224c0 36.8 22.2 77.6 49.3 112.4c13 16.7 26 30.6 35.8 40.5l49.1-26.6C115.1 312.7 64 262.6 64 180.6c0-15.7 1.4-32.2 3.9-48.5C47.6 155.7 32 186 32 224zm448 0c0-38-15.6-68.3-35.9-91.9c2.4 16.2 3.9 32.8 3.9 48.5c0 82-51.1 132.1-102.1 169.6l49 26.6c9.8-9.8 22.9-23.8 35.8-40.5c27-34.7 49.3-75.5 49.3-112.4z"/></svg>