<svg xmlns="http://www.w3.org/2000/svg" viewBox="0 0 576 512"><!--! Font Awesome Pro 6.6.0 by @fontawesome - https://fontawesome.com License - https://fontawesome.com/license (Commercial License) Copyright 2024 Fonticons, Inc. --><path d="M144 256a112 112 0 1 0 0-224 112 112 0 1 0 0 224zm143.1-96c-8 72-69 128-143.1 128C64.5 288 0 223.5 0 144S64.5 0 144 0c74.1 0 135.2 56 143.1 128l64.9 0 0-32 32 0 128 0 32 0 0 32 0 32 0 32-32 0-128 0-32 0 0-32-64.9 0zm.9 160l32 0 0-48 0-16 16 0 128 0 16 0 0 16 0 48 32 0 32 0 0 32-32 0 0 128 0 32-32 0-160 0-32 0 0-32 0-128-32 0 0-32 32 0zm64 0l96 0 0-32-96 0 0 32zm128 32l-160 0 0 128 160 0 0-128zm32-224l-128 0 0 32 128 0 0-32zM192 144a48 48 0 1 0 -96 0 48 48 0 1 0 96 0zM64 144a80 80 0 1 1 160 0A80 80 0 1 1 64 144zM0 480l224 0 0 32L0 512l0-32zM160 352l0 32 16 0c8.8 0 16-7.2 16-16s-7.2-16-16-16l-16 0zm16 64l-16 0 0 32-32 0-64 0-32 0 0-32 0-64 0-32 32 0 64 0 32 0 16 0c26.5 0 48 21.5 48 48s-21.5 48-48 48zM64 352l0 64 64 0 0-32 0-32-64 0z"/></svg>