<svg xmlns="http://www.w3.org/2000/svg" viewBox="0 0 640 512"><!--! Font Awesome Pro 6.6.0 by @fontawesome - https://fontawesome.com License - https://fontawesome.com/license (Commercial License) Copyright 2024 Fonticons, Inc. --><path d="M448 288c-11 0-21.7-1.1-32-3.2l0 67.2-80 0 0-109.7c-5.8-5.7-11.1-11.8-16-18.3l-16 0 0 128-96 0 0-128-32 0 0 128-80 0 0-128-32 0 0 128-16 0 0 32 16 0 384 0 16 0 0-32-16 0 0-64zM256 0L0 144l0 16 0 32 32 0 269.3 0c-4.4-10.2-7.9-20.9-10.1-32L36.8 160 256 36.7l46 25.8c4.4-9.8 9.8-19.1 16-27.7L256 0zM24 448l16 0 432 0 16 0 0-32-16 0L40 416l-16 0 0 32zM0 480l0 32 16 0 480 0 16 0 0-32-16 0L16 480 0 480zM448 32.1a96 96 0 1 1 0 192 96 96 0 1 1 0-192zm0 224c29.6 0 56.8-10 78.5-26.9L604.7 307l11.3 11.3 22.6-22.7-11.3-11.3-78.1-77.7C566 184.9 576 157.7 576 128.2c0-70.7-57.3-128-128-128s-128 57.3-128 128s57.3 128 128 128z"/></svg>