<svg xmlns="http://www.w3.org/2000/svg" viewBox="0 0 512 512"><!--! Font Awesome Pro 6.6.0 by @fontawesome - https://fontawesome.com License - https://fontawesome.com/license (Commercial License) Copyright 2024 Fonticons, Inc. --><path d="M0 192l32 0 448 0 32 0 0-32 0-16L256 0 0 144l0 16 0 32zM256 36.7L475.2 160 36.8 160 256 36.7zM64 352l-16 0 0 32 16 0 384 0 16 0 0-32-16 0 0-128-32 0 0 128-80 0 0-128-32 0 0 128-96 0 0-128-32 0 0 128-80 0 0-128-32 0 0 128zM24 448l16 0 432 0 16 0 0-32-16 0L40 416l-16 0 0 32zM0 480l0 32 16 0 480 0 16 0 0-32-16 0L16 480 0 480z"/></svg>