<svg xmlns="http://www.w3.org/2000/svg" viewBox="0 0 640 512"><!--! Font Awesome Pro 6.6.0 by @fontawesome - https://fontawesome.com License - https://fontawesome.com/license (Commercial License) Copyright 2024 Fonticons, Inc. --><path d="M32 96l0 320 272 0 0-320L32 96zM336 416l272 0 0-320L336 96l0 320zM608 64l32 0 0 32 0 320 0 32-32 0L32 448 0 448l0-32L0 96 0 64l32 0 576 0zM496 160l0 16 0 16 48 0 16 0 16 0 0 32-16 0-6.1 0-41.8 83.7c1.7 1.1 3.5 2.2 5.3 3.3l18.9 11.3 13.7 8.2L533.5 358l-13.7-8.2-18.9-11.3c-5.6-3.4-11-7-16.3-10.8l-45.4 22.7-14.3 7.2-14.3-28.6 14.3-7.2L458.3 305l-21.6-21.6L425.4 272 448 249.4l11.3 11.3 22.6 22.6c1.5 1.5 2.9 2.9 4.4 4.3L518.1 224 480 224l-80 0-16 0 0-32 16 0 64 0 0-16 0-16 32 0zm-346.7 0l21.5 0 4.1 9.9 72 176 2.5 6.1-34.6 0-13.1-32.1c-.5 .1-1.1 .1-1.6 .1l-80 0c-.5 0-1.1 0-1.6-.1L105.3 352l-34.6 0 2.5-6.1 72-176 4.1-9.9zM160 218.3L131.5 288l57.1 0L160 218.3z"/></svg>