<svg xmlns="http://www.w3.org/2000/svg" viewBox="0 0 640 512"><!--! Font Awesome Pro 6.6.0 by @fontawesome - https://fontawesome.com License - https://fontawesome.com/license (Commercial License) Copyright 2024 Fonticons, Inc. --><path d="M96 32l384 0 0 64 32 0 0-64 0-32L480 0 96 0 64 0l0 32 0 256-32 0L0 288l0 32 0 16 48 48 304 0 0-32L61.3 352 32 322.7l0-2.7 32 0 32 0 256 0 0-32L96 288 96 32zM384 512l32 0 192 0 32 0 0-32 0-320 0-32-32 0-192 0-32 0 0 32 0 320 0 32zm224-32l-192 0 0-320 192 0 0 320z"/></svg>