<svg xmlns="http://www.w3.org/2000/svg" viewBox="0 0 512 512"><!--! Font Awesome Pro 6.6.0 by @fontawesome - https://fontawesome.com License - https://fontawesome.com/license (Commercial License) Copyright 2024 Fonticons, Inc. --><path d="M469.6 68.2L448 144l35.4 22.1L512 184l-25.9 21.6L448.4 237 416 264l16.3 2.7 25.3 4.2L464 272l-7.8 31.1L448 336l31.4 26.9L504 384l-24.6 21.1L448 432l4.6 46 3.4 34-33-8.6L272 464l-24.5 24.5L224 512l-16.2-29.1L152.1 382.5 38.5 496.1 27.2 507.4 4.6 484.8l11.3-11.3L129.5 359.9 29.1 304.2 0 288l23.5-23.5L48 240 8.6 89 0 56l34 3.4L80 64l26.9-31.4L128 8l21.1 24.6L176 64l32.9-8.2L240 48l1.1 6.3 4.2 25.3L248 96l27-32.4 31.4-37.7L328 0l17.9 28.6L368 64l75.8-21.6L480 32 469.6 68.2zM153 336.4L293.6 195.8l11.3-11.3 22.6 22.6-11.3 11.3L175.6 359l55.8 100.4 18-18 13-13 17.7 4.6 139.5 36.4-3.4-34.2-1.7-16.6 12.7-10.9L454.8 384l-27.7-23.7-15-12.9 4.8-19.2 7.6-30.4-13.8-2.3-68.8-11.5 53.6-44.7 62-51.7L431 171.1l-20.4-12.8 6.6-23.2 16.2-56.6L376.8 94.8l-23.2 6.6L340.9 81 324.3 54.4l-51.7 62-44.7 53.6-11.5-68.8-2.3-13.8L183.8 95l-19.2 4.8-12.9-15L128 57.2 104.3 84.8 93.4 97.5 76.8 95.8 42.6 92.4 79 231.9l4.6 17.7-13 13-18 18L153 336.4z"/></svg>