<svg xmlns="http://www.w3.org/2000/svg" viewBox="0 0 576 512"><!--! Font Awesome Pro 6.6.0 by @fontawesome - https://fontawesome.com License - https://fontawesome.com/license (Commercial License) Copyright 2024 Fonticons, Inc. --><path d="M226.4 37.9c-7.8 12.9-13.4 27.3-16.2 42.7l-.1 .1c-1.8-11.7-7.1-22.9-16.2-31.9c-22.4-22.4-58.7-22.4-81.1 0c-9.9 9.9-15.4 22.5-16.6 35.5L94 109.1l-24.6 4c-8.9 1.4-17.4 5.6-24.3 12.5c-16.5 16.5-17.4 42.7-2.7 60.2l7.5 8.9 0 11.7 0 59.4 44.8 44.8 1.3 1.3 0 77.8L72.1 413.4l0-26.2 0-54.2L17.9 278.9l0-72.6c-25.3-30.1-23.8-75.1 4.5-103.4C34.3 91.1 49 83.9 64.3 81.4c1.8-20.2 10.4-39.8 25.8-55.3c34.9-34.9 91.5-34.9 126.4 0c3.7 3.7 7 7.6 9.9 11.7zm283 144.5l16-19.1C537 149.4 544 131.6 544 112c0-44.2-35.8-80-80-80c-19.6 0-37.4 7-51.3 18.6l-19.1 16L373.4 52.1C362.9 44.5 350 40 336 40c-33.5 0-60.9 25.7-63.8 58.4l-1 11.6-8.3 8.3-55 55 0 82.7 0 13.3-9.4 9.4L160 317.3l0 76.1 96-96 0-89.4 0-16 32 0 0 16 0 57.4 36.7-36.7 96-96L432 121.4 454.6 144l-11.3 11.3L374.6 224l57.4 0 16 0 0 32-16 0-89.4 0-59.3 59.3L182.6 416l76.1 0 38.6-38.6 9.4-9.4 13.3 0 82.7 0 55-55 8.3-8.3 11.6-1c32.7-2.8 58.4-30.3 58.4-63.8c0-14-4.5-26.9-12.1-37.4l-14.6-20.2zM416 400l-96 0-48 48-121.4 0-36.8 36.8-11.3 11.3L91.2 507.4 68.6 484.8l11.3-11.3 11.3-11.3L128 425.4 128 304l48-48 0-96 64.4-64.4C244.6 46.5 285.8 8 336 8c21 0 40.3 6.7 56.1 18.1C411.6 9.8 436.6 0 464 0c61.9 0 112 50.1 112 112c0 27.4-9.8 52.4-26.1 71.9C561.3 199.7 568 219 568 240c0 50.2-38.5 91.4-87.6 95.6L416 400z"/></svg>