<svg xmlns="http://www.w3.org/2000/svg" viewBox="0 0 512 512"><!--! Font Awesome Pro 6.6.0 by @fontawesome - https://fontawesome.com License - https://fontawesome.com/license (Commercial License) Copyright 2024 Fonticons, Inc. --><path d="M304 128l-32 0c-79.5 0-144 64.5-144 144c0 79.5 64.4 144 144 144c0 0 0 0 0 0l.8 0c109-.5 207.2-110.5 207.2-259.4c0-23-2.4-45.2-6.9-66.3C447.5 113.7 413.4 128 376 128l-72 0s0 0 0 0zM463.2 54.3c8.7-10.8 15.5-23.3 19.8-36.9c6.1 13.5 11.3 27.7 15.5 42.4c8.8 30.3 13.5 62.9 13.5 96.8C512 317.1 405.1 447.3 273 448l-1 0c-88.5 0-161.8-65.4-174.2-150.5C57.6 329.8 32 379.3 32 434.7L32 464l0 16L0 480l0-16 0-29.3C0 361 38.4 296.1 96.5 259.1C103 167.9 179.1 96 272 96l32 0 72 0c35.2 0 66.6-16.2 87.2-41.7zm-197 178.1l-5.2-4.8c-4.3-4-10-6.3-15.9-6.3l-3.5 0c-10.9 0-19.8 8.9-19.8 19.8c0 5.5 2.3 10.7 6.3 14.4l60 56.1 60-56.1c4-3.7 6.3-9 6.3-14.4c0-10.9-8.9-19.8-19.8-19.8l-3.5 0c-5.9 0-11.6 2.2-15.9 6.3l-5.2 4.8L288 252.9l-21.9-20.4zm-76.4 8.7c0-28.6 23.2-51.8 51.8-51.8l3.5 0c14 0 27.5 5.3 37.8 14.9l5.2 4.8 5.2-4.8c10.3-9.6 23.8-14.9 37.8-14.9l3.5 0c28.6 0 51.8 23.2 51.8 51.8c0 14.3-5.9 28-16.4 37.8l-70.9 66.4L288 355.5l-10.9-10.2-70.9-66.4c-10.5-9.8-16.4-23.5-16.4-37.8z"/></svg>