<svg xmlns="http://www.w3.org/2000/svg" viewBox="0 0 320 512"><!--! Font Awesome Pro 6.6.0 by @fontawesome - https://fontawesome.com License - https://fontawesome.com/license (Commercial License) Copyright 2024 Fonticons, Inc. --><path d="M160 28l0-20.5-19.9 5-128 32L0 47.5 0 60l0 67.5L0 140s0 0 0 0l0 20.5 0 47L0 220l0 20.5L0 300l0 20.5 19.9-5 111.9-28 .1 0 64-16 92.1-23 0 47-99.9 25-12.1 3 0 12.5 0 48-32 0 0-50.5-32 8 0 42.5-16 0-32 0 0 32 0 32 0 32 32 0 48 0 0 16 0 16 32 0 0-16 0-16 48 0 32 0 0-32 0-32 0-32-32 0-16 0 0-35.5 99.9-25 12.1-3 0-12.5 0-80 0-20.5s0 0 0 0l0-47 0-12.5 0-20.5L320 68l0-20.5-19.9 5L160 87.5 160 28zM288 215.5l-163.9 41L32 279.5l0-47 256-64 0 47zm-128-95l128-32 0 47-256 64 0-47 115.9-29 12.1-3zm-32-25l-96 24 0-47 96-24 0 47zM224 448l-48 0-32 0-48 0 0-32 128 0 0 32z"/></svg>