<svg xmlns="http://www.w3.org/2000/svg" viewBox="0 0 384 512"><!--! Font Awesome Pro 6.6.0 by @fontawesome - https://fontawesome.com License - https://fontawesome.com/license (Commercial License) Copyright 2024 Fonticons, Inc. --><path d="M352 192c0-88.4-71.6-160-160-160S32 103.6 32 192c0 20.2 9.1 48.6 26.5 82.7c16.9 33.2 39.9 68.2 63.4 100.5c23.4 32.2 46.9 61 64.5 81.9c1.9 2.3 3.8 4.5 5.6 6.6c1.8-2.1 3.6-4.3 5.6-6.6c17.7-20.8 41.1-49.7 64.5-81.9c23.5-32.3 46.4-67.3 63.4-100.5C342.9 240.6 352 212.2 352 192zm32 0c0 88.8-120.7 237.9-170.7 295.9C200.2 503.1 192 512 192 512s-8.2-8.9-21.3-24.1C120.7 429.9 0 280.8 0 192C0 86 86 0 192 0S384 86 384 192zM104 152c0-30.9 25.1-56 56-56l56 0c35.5 0 64 29 64 64.3c0 24-13.4 46.2-34.9 57.2L208 236.3l0 3.7 0 16-32 0 0-16 0-13.5 0-9.8 8.7-4.5 45.8-23.4c10.7-5.4 17.5-16.6 17.5-28.7c0-17.8-14.4-32.3-32-32.3l-56 0c-13.3 0-24 10.7-24 24l0 8-32 0 0-8zm64 136l48 0 0 48-48 0 0-48z"/></svg>