<svg xmlns="http://www.w3.org/2000/svg" viewBox="0 0 640 512"><!--! Font Awesome Pro 6.6.0 by @fontawesome - https://fontawesome.com License - https://fontawesome.com/license (Commercial License) Copyright 2024 Fonticons, Inc. --><path d="M395.5 397.1C373 409.2 347.3 416 320 416c-88.4 0-160-71.6-160-160c0-14 1.8-27.7 5.2-40.7l-27-21.3c-5 14.6-8.2 30-9.6 46L80 240l-16 0 0 32 16 0 48.7 0c7.7 93.3 82.1 167.6 175.3 175.3l0 48.7 0 16 32 0 0-16 0-48.7c31.6-2.6 61-12.9 86.4-28.9l-27-21.3zM304 64.7c-31.6 2.6-61 12.9-86.4 28.9l27 21.3C267 102.8 292.7 96 320 96c88.4 0 160 71.6 160 160c0 14-1.8 27.7-5.2 40.7l27 21.3c5-14.6 8.2-30 9.6-46l48.7 0 16 0 0-32-16 0-48.7 0C503.6 146.7 429.3 72.4 336 64.7L336 16l0-16L304 0l0 16 0 48.7zM320 352c5.6 0 11.2-.5 16.5-1.4l-55.7-44c-.3-.2-.6-.5-.9-.7l-55.7-44c3 50.3 44.8 90.1 95.8 90.1zM303.5 161.4l55.7 44c.3 .2 .6 .5 .9 .7l55.7 44C412.8 199.8 371 160 320 160c-5.6 0-11.2 .5-16.5 1.4zM32.5 10L19.9 .1 .1 25.3l12.6 9.9L607.8 502.2l12.6 9.9 19.8-25.2-12.6-9.9L32.5 10z"/></svg>