<svg xmlns="http://www.w3.org/2000/svg" viewBox="0 0 512 512"><!--! Font Awesome Pro 6.6.0 by @fontawesome - https://fontawesome.com License - https://fontawesome.com/license (Commercial License) Copyright 2024 Fonticons, Inc. --><path d="M208 32a176 176 0 1 1 0 352 176 176 0 1 1 0-352zm0 384c51.7 0 99-18.8 135.3-50L487.9 510.5l22.6-22.6L366 343.3c31.2-36.4 50-83.7 50-135.3C416 93.1 322.9 0 208 0S0 93.1 0 208S93.1 416 208 416zm27.3-299.3L224 105.4 201.4 128l11.3 11.3L265.4 192 112 192l-16 0 0 32 16 0 153.4 0-52.7 52.7L201.4 288 224 310.6l11.3-11.3 80-80L326.6 208l-11.3-11.3-80-80z"/></svg>