<svg xmlns="http://www.w3.org/2000/svg" viewBox="0 0 512 512"><!--! Font Awesome Pro 6.6.0 by @fontawesome - https://fontawesome.com License - https://fontawesome.com/license (Commercial License) Copyright 2024 Fonticons, Inc. --><path d="M6.8 478L0 512l34-6.8L160 480 485.5 154.5c17-17 26.5-40 26.5-64C512 40.5 471.5 0 421.5 0c-24 0-47 9.5-64 26.5L307.3 76.7l-48-48L248 17.4 236.7 28.7l-96 96L129.4 136 152 158.6l11.3-11.3L248 62.6l36.7 36.7L32 352 6.8 478zm34-6.8L61.5 367.8 187.3 241.9l82.7 82.7L144.2 450.5 40.8 471.2zM209.9 219.3L380.1 49.1c11-11 25.9-17.1 41.4-17.1C453.8 32 480 58.2 480 90.5c0 15.5-6.2 30.4-17.1 41.4L292.7 302.1l-82.7-82.7z"/></svg>