<svg xmlns="http://www.w3.org/2000/svg" viewBox="0 0 576 512"><!--! Font Awesome Pro 6.6.0 by @fontawesome - https://fontawesome.com License - https://fontawesome.com/license (Commercial License) Copyright 2024 Fonticons, Inc. --><path d="M544 144c0-61.9-50.1-112-112-112c-44.7 0-83.2 26.2-101.2 64l-34.6 0C316 40.1 369.3 0 432 0c79.5 0 144 64.5 144 144s-64.5 144-144 144c-28.2 0-54.5-8.1-76.7-22.1l23.4-23.4c15.8 8.6 34 13.5 53.3 13.5c61.9 0 112-50.1 112-112zM0 160l0-32 32 0 352 0 32 0 0 32L230.6 345.4 224 352l0 128 96 0 0 32-96 0-16 0L96 512l0-32 96 0 0-128-6.6-6.6L0 160zM208 322.7L370.7 160 45.3 160 208 322.7z"/></svg>