<svg xmlns="http://www.w3.org/2000/svg" viewBox="0 0 576 512"><!--! Font Awesome Pro 6.6.0 by @fontawesome - https://fontawesome.com License - https://fontawesome.com/license (Commercial License) Copyright 2024 Fonticons, Inc. --><path d="M352 32L32 32l0 448 264.2 0c10 12.1 21.7 22.9 34.6 32L32 512 0 512l0-32L0 32 0 0 32 0 352 0l32 0 0 32 0 166.6c-11.2 3.2-21.9 7.4-32 12.6L352 32zM64 128l16 0 224 0 16 0 0 32-16 0L80 160l-16 0 0-32zm16 96l192 0 16 0 0 32-16 0L80 256l-16 0 0-32 16 0zm0 96l128 0 16 0 0 32-16 0L80 352l-16 0 0-32 16 0zm464 48a112 112 0 1 0 -224 0 112 112 0 1 0 224 0zm-256 0a144 144 0 1 1 288 0 144 144 0 1 1 -288 0zm160-80l0 32-32 0 0-32 32 0zM400 448l0-32 16 0 0-48-16 0 0-32 16 0 16 0 16 0 0 16 0 64s0 0 0 0l16 0 0 32-16 0s0 0 0 0l-32 0s0 0 0 0l-16 0z"/></svg>