<svg xmlns="http://www.w3.org/2000/svg" viewBox="0 0 576 512"><!--! Font Awesome Pro 6.6.0 by @fontawesome - https://fontawesome.com License - https://fontawesome.com/license (Commercial License) Copyright 2024 Fonticons, Inc. --><path d="M544 96l0 64c-35.3 0-64-28.7-64-64l64 0zM128 96l320 0c0 53 43 96 96 96l0 128c-53 0-96 43-96 96l-320 0c0-53-43-96-96-96l0-128c53 0 96-43 96-96zM32 352c35.3 0 64 28.7 64 64l-64 0 0-64zm448 64c0-35.3 28.7-64 64-64l0 64-64 0zM96 96c0 35.3-28.7 64-64 64l0-64 64 0zM32 64L0 64 0 96 0 416l0 32 32 0 512 0 32 0 0-32 0-320 0-32-32 0L32 64zM256 192l0 32 16 0 0 64-8 0-16 0 0 32 16 0 8 0 32 0 8 0 16 0 0-32-16 0-8 0 0-80 0-16-16 0-16 0-16 0zm-64 64a96 96 0 1 1 192 0 96 96 0 1 1 -192 0zm224 0a128 128 0 1 0 -256 0 128 128 0 1 0 256 0z"/></svg>