<svg xmlns="http://www.w3.org/2000/svg" viewBox="0 0 640 512"><!--! Font Awesome Pro 6.6.0 by @fontawesome - https://fontawesome.com License - https://fontawesome.com/license (Commercial License) Copyright 2024 Fonticons, Inc. --><path d="M638.6 80L627.3 68.7l-64-64L540.7 27.3 577.4 64l-37.3 0s0 0 0 0l-85.6 0L384 64l-.2 0L64 64 32 64l0 32 0 252.1 14.1-14.1L64 316.1 64 192c53 0 96-43 96-96l293.9 0 123.5 0-36.7 36.7 22.6 22.6 64-64L638.6 80zM64 160l0-64 64 0c0 35.3-28.7 64-64 64zM62.6 448l37.3 0s0 0 0 0L576 448l32 0 0-32 0-252.1-14.1 14.1L576 195.9 576 320s0 0 0 0c-53 0-96 43-96 96l-223.6 0-.4 0L62.6 416l36.7-36.7L76.7 356.7l-64 64L1.4 432l11.3 11.3 64 64 22.6-22.6L62.6 448zM576 352s0 0 0 0l0 64-64 0c0-35.3 28.7-64 64-64zM256 256a64 64 0 1 1 128 0 64 64 0 1 1 -128 0zm160 0a96 96 0 1 0 -192 0 96 96 0 1 0 192 0z"/></svg>