<svg xmlns="http://www.w3.org/2000/svg" viewBox="0 0 640 512"><!--! Font Awesome Pro 6.6.0 by @fontawesome - https://fontawesome.com License - https://fontawesome.com/license (Commercial License) Copyright 2024 Fonticons, Inc. --><path d="M608 64l0 288-480 0 0-288 480 0zM128 32L96 32l0 32 0 288 0 32 32 0 480 0 32 0 0-32 0-288 0-32-32 0L128 32zM368 272a64 64 0 1 1 0-128 64 64 0 1 1 0 128zm-96-64a96 96 0 1 0 192 0 96 96 0 1 0 -192 0zM32 112l0-16L0 96l0 16L0 464l0 16 16 0 512 0 16 0 0-32-16 0L32 448l0-336z"/></svg>