<svg xmlns="http://www.w3.org/2000/svg" viewBox="0 0 576 512"><!--! Font Awesome Pro 6.6.0 by @fontawesome - https://fontawesome.com License - https://fontawesome.com/license (Commercial License) Copyright 2024 Fonticons, Inc. --><path d="M96 446.8l0-6.8c0-35.3-28.7-64-64-64l0 55.2c21.2 8.6 42.4 13.5 64 15.6zm32 1.1c48-1 97.9-13.4 152.1-27.2l4-1c51.3-13.1 106.6-27.2 163.9-28.1c.2-52.8 43.1-95.6 96-95.6l0-128c-53 0-96-43-96-96l0-7.9c-48 1-97.9 13.4-152.1 27.2l-4 1c-51.3 13.1-106.6 27.2-163.9 28.1c-.2 52.8-43.1 95.6-96 95.6l0 128c53 0 96 43 96 96l0 7.9zM480 392l0 .5c21.2 1.6 42.5 5.4 64 11.9l0-76.4c-35.3 0-64 28.7-64 64zM96 119.5c-21.2-1.6-42.5-5.4-64-11.9L32 184c35.3 0 64-28.7 64-64l0-.5zM480 72c0 35.3 28.7 64 64 64l0-55.2c-21.2-8.6-42.4-13.5-64-15.6l0 6.8zM0 60.3c10.7 5.4 21.3 10 32 13.7c85.3 29.8 170.7 8.1 256-13.7c96-24.5 192-48.9 288 0l0 356.1 0 35.4c-10.7-5.4-21.3-10-32-13.7c-85.3-29.8-170.7-8.1-256 13.7c-96 24.5-192 48.9-288 0L0 95.7 0 60.3zM224 256c0 47 31.3 80 64 80s64-33 64-80s-31.3-80-64-80s-64 33-64 80zm64-112c55.6 0 96 53 96 112s-40.4 112-96 112s-96-53-96-112s40.4-112 96-112z"/></svg>