<svg xmlns="http://www.w3.org/2000/svg" viewBox="0 0 640 512"><!--! Font Awesome Pro 6.6.0 by @fontawesome - https://fontawesome.com License - https://fontawesome.com/license (Commercial License) Copyright 2024 Fonticons, Inc. --><path d="M0 0L16 0 624 0l16 0 0 16 0 160 0 16-32 0 0-16 0-144L32 32l0 144 0 16L0 192l0-16L0 16 0 0zM512 96l0 16 0 384 0 16-16 0-352 0-16 0 0-16 0-384 0-16 32 0 0 16 0 368 320 0 0-368 0-16 32 0zM320 208c-47 0-80 31.3-80 64s33 64 80 64s80-31.3 80-64s-33-64-80-64zm112 64c0 55.6-53 96-112 96s-112-40.4-112-96s53-96 112-96s112 40.4 112 96z"/></svg>