<svg xmlns="http://www.w3.org/2000/svg" viewBox="0 0 640 512"><!--! Font Awesome Pro 6.6.0 by @fontawesome - https://fontawesome.com License - https://fontawesome.com/license (Commercial License) Copyright 2024 Fonticons, Inc. --><path d="M80 4.7L90.5 14l23 20.1c27.4 24 43.9 57.8 46.2 93.9l.3 0 0 8.5 0 23.5 0 80 0 16-32 0 0-16 0-80-96 0 0 16 0 304 80 0 16 0 0 32-16 0-96 0L0 512l0-16L0 176l0-39.5C0 97.2 16.9 59.9 46.4 34.1L69.5 14 80 4.7zM32.3 128l95.3 0c-2.2-26.8-14.7-51.9-35.2-69.8L80 47.3 67.5 58.2c-20.4 17.9-33 43-35.2 69.8zM400 5.3l12.8 17.1c31.2 41.7 69.1 65 117.4 94.7c0 0 0 0 0 0s0 0 0 0c10.8 6.6 22 13.6 33.9 21.1c28.1 17.9 43.9 49 43.9 81.6c0 26.3-10.2 50.3-26.8 68.2l42.8 0 16 0 0 16 0 192 0 16-16 0-80 0-32 0-48 0-32 0-64 0-32 0-48 0-32 0-80 0-16 0 0-16 0-192 0-16 16 0 42.8 0c-16.6-17.9-26.8-41.8-26.8-68.2c0-32.6 15.8-63.7 43.9-81.6c11.8-7.5 23.1-14.5 33.9-21.1C318.1 87.4 356 64.1 387.2 22.4L400 5.3zM432 480l0-56c0-10.1-4.7-19.6-12.8-25.6L400 384l-19.2 14.4c-8.1 6-12.8 15.5-12.8 25.6l0 56 64 0zm32 0l48 0 0-64 0-32 32 0 0 32 0 64 64 0 0-160-100.2 0L400 320l-107.8 0L192 320l0 160 64 0 0-64 0-32 32 0 0 32 0 64 48 0 0-56c0-20.1 9.5-39.1 25.6-51.2L400 344l38.4 28.8C454.5 384.9 464 403.9 464 424l0 56zM576 219.8c0-22.4-10.8-43-29.1-54.6c-10.8-6.9-21.4-13.4-31.8-19.8c-43-26.4-82.3-50.5-115.1-88c-32.8 37.5-72.1 61.6-115.1 88c0 0 0 0 0 0s0 0 0 0c-10.4 6.4-21 12.9-31.8 19.8c-18.3 11.6-29.1 32.2-29.1 54.6c0 37.7 30.5 68.2 68.2 68.2L400 288l107.8 0c37.7 0 68.2-30.5 68.2-68.2z"/></svg>