<svg xmlns="http://www.w3.org/2000/svg" viewBox="0 0 512 512"><!--! Font Awesome Pro 6.6.0 by @fontawesome - https://fontawesome.com License - https://fontawesome.com/license (Commercial License) Copyright 2024 Fonticons, Inc. --><path d="M32 338.7l0-165.5L173.3 32l165.5 0L480 173.3l0 165.5L338.7 480l-165.5 0L32 338.7zM160 0L0 160 0 352 160 512l192 0L512 352l0-192L352 0 160 0zm31.4 168.8l-22.6 22.6 11.3 11.3L233.4 256l-53.3 53.3-11.3 11.3 22.6 22.6 11.3-11.3L256 278.6l53.3 53.3 11.3 11.3 22.6-22.6-11.3-11.3L278.6 256l53.3-53.3 11.3-11.3-22.6-22.6-11.3 11.3L256 233.4l-53.3-53.3-11.3-11.3z"/></svg>