<svg xmlns="http://www.w3.org/2000/svg" viewBox="0 0 448 512"><!--! Font Awesome Pro 6.6.0 by @fontawesome - https://fontawesome.com License - https://fontawesome.com/license (Commercial License) Copyright 2024 Fonticons, Inc. --><path d="M160 448C89.3 448 32 390.7 32 320c0-84.8 39.8-148.3 91.7-191.4C176.5 84.7 239.5 64 280 64c18.4 0 39.8 9.7 59.3 22.6c9.2 6.1 16.9 12.3 22.3 16.9c2.7 2.3 4.8 4.2 6.1 5.4c.7 .6 1.2 1.1 1.5 1.4l.3 .3 .3 .3c.3 .3 .7 .8 1.4 1.5c1.3 1.3 3.1 3.4 5.4 6.1c4.6 5.4 10.8 13.1 16.9 22.3C406.3 160.2 416 181.6 416 200c0 40.5-20.7 103.5-64.6 156.3C308.3 408.2 244.8 448 160 448zM0 320c0 88.4 71.6 160 160 160c192 0 288-181.9 288-280c0-56-56-112-56-112s-56-56-112-56C181.9 32 0 128 0 320zM282.4 197.6c-11.2-11.2-16.1-28.6-17.7-45.4c-.5-5.3-.6-10.6-.4-15.9c5.4-.2 10.6-.1 15.9 .4c16.8 1.6 34.2 6.5 45.4 17.7s16.1 28.6 17.7 45.4c.6 5.9 .7 11.5 .6 16.1c-4.6 .1-10.1 0-16.1-.6c-16.8-1.6-34.2-6.5-45.4-17.7zm-49.6-42.5c1.8 19.5 7.9 46 27 65.1s45.6 25.1 65.1 27c10 .9 19 .8 25.4 .5c6.8-.4 13.4-1.3 20.2-2.3c0 0 0 0 0 0l2.6-.4 .4-2.6s0 0 0 0c1-6.7 2-13.3 2.3-20.2c.3-6.4 .4-15.4-.5-25.4c-1.8-19.5-7.9-46-27-65.1s-45.6-25.1-65.1-27c-16.6-1.6-32-.1-48.1 2.2c-2.4 16.2-3.8 31.5-2.2 48.1z"/></svg>