<svg xmlns="http://www.w3.org/2000/svg" viewBox="0 0 576 512"><!--! Font Awesome Pro 6.6.0 by @fontawesome - https://fontawesome.com License - https://fontawesome.com/license (Commercial License) Copyright 2024 Fonticons, Inc. --><path d="M575.3 91.2L552.7 68.6 507.4 23.3 484.8 .7 462.2 23.3 439.6 45.9 195.7 289.7c-6.4-1.1-13-1.7-19.7-1.7c-61.9 0-112 50.1-112 112l0 48 0 32-32 0s0 0 0 0l-16 0L0 480l0 32 16 0 16 0 32 0 32 0 80 0s0 0 0 0c61.9 0 112-50.1 112-112c0-6.8-.6-13.4-1.7-19.8L530 136.5l22.6-22.6 22.6-22.6zM274.5 346.7l-4.6 4.6L224.6 306l40.7-40.7s0 0 0 0L302 228.7l45.3 45.3-72.8 72.8s0 0 0 0zm-21 33.5c1.6 6.3 2.5 13 2.5 19.9c0 44.2-35.8 80-80 80c0 0 0 0 0 0l-80 0 0-80c0-44.2 35.8-80 80-80c6.9 0 13.5 .9 19.9 2.5l57.7 57.7zM507.4 113.8L369.9 251.3 324.7 206 462.2 68.6l22.6-22.6 45.2 45.3-22.6 22.6z"/></svg>