<svg xmlns="http://www.w3.org/2000/svg" viewBox="0 0 384 512"><!--! Font Awesome Pro 6.6.0 by @fontawesome - https://fontawesome.com License - https://fontawesome.com/license (Commercial License) Copyright 2024 Fonticons, Inc. --><path d="M320 32l16 0 16 0 0-32L336 0 224 0 208 0 176 0 144 0C82.1 0 32 50.1 32 112s50.1 112 112 112l48 0 0 80 0 16 32 0 0-16 0-80 0-16 0-176 64 0 0 272 0 16 32 0 0-16 0-272zM192 32l0 160-48 0c-44.2 0-80-35.8-80-80s35.8-80 80-80l32 0 16 0zM114.7 355.9l11.9-10.7-21.4-23.8L93.3 332.1l-80 72L.1 416l13.2 11.9 80 72 11.9 10.7 21.4-23.8-11.9-10.7L65.7 432 368 432l16 0 0-32-16 0L65.7 400l49-44.1z"/></svg>