<svg xmlns="http://www.w3.org/2000/svg" viewBox="0 0 448 512"><!--! Font Awesome Pro 6.6.0 by @fontawesome - https://fontawesome.com License - https://fontawesome.com/license (Commercial License) Copyright 2024 Fonticons, Inc. --><path d="M152 64a24 24 0 1 1 0 48 24 24 0 1 1 0-48zm0 80a56 56 0 1 0 0-112 56 56 0 1 0 0 112zM136.7 310.2l7.3-14.6L195.8 192l56.4 0 51.8 103.7 7.3 14.6 16 2.7c32.1 5.4 56.6 33.4 56.6 67.1c0 37.6-30.4 68-68 68c-16.9 0-32.3-6.1-44.2-16.3l-9-7.7L251 424l-54 0-11.8 0-9 7.7C164.3 441.9 148.9 448 132 448c-37.6 0-68-30.4-68-68c0-33.7 24.5-61.7 56.6-67.1l16-2.7zM176 160L115.3 281.4C68 289.3 32 330.5 32 380c0 55.2 44.8 100 100 100c24.8 0 47.5-9 65-24l54 0c17.5 15 40.2 24 65 24c55.2 0 100-44.8 100-100c0-49.5-36-90.7-83.3-98.6L272 160l-96 0zm96-72a24 24 0 1 1 48 0 24 24 0 1 1 -48 0zm80 0A56 56 0 1 0 240 88a56 56 0 1 0 112 0zm40 88a24 24 0 1 1 0 48 24 24 0 1 1 0-48zm0 80a56 56 0 1 0 0-112 56 56 0 1 0 0 112zM32 200a24 24 0 1 1 48 0 24 24 0 1 1 -48 0zm80 0A56 56 0 1 0 0 200a56 56 0 1 0 112 0z"/></svg>