<svg xmlns="http://www.w3.org/2000/svg" viewBox="0 0 640 512"><!--! Font Awesome Pro 6.6.0 by @fontawesome - https://fontawesome.com License - https://fontawesome.com/license (Commercial License) Copyright 2024 Fonticons, Inc. --><path d="M468.7 235.3s0 0 0 0l22.6-22.6s0 0 0 0l62.1-62.1L576 128l-22.6-22.6L470.6 22.6 448 0 425.4 22.6 363.3 84.7l-48-48L304 25.4 292.7 36.7l-64.9 64.9 25.3 20 51-51 36.7 36.7L294 154l25.3 20 44-44 82.7 82.7-34.3 34.3 25.3 20 31.6-31.6zm-148 102.8L208.2 450.5 104.8 471.2l20.7-103.4L228.2 265.1l-25.3-20L96 352 70.8 478 64 512l34-6.8L224 480 346 358l-25.3-20zm148-148l-82.7-82.7L448 45.3 530.7 128l-62.1 62.1zM40.4 18L27.8 8.1 8.1 33.4l12.6 9.8L599.8 494.3l12.6 9.8 19.7-25.2L619.5 469 40.4 18z"/></svg>