<svg xmlns="http://www.w3.org/2000/svg" viewBox="0 0 640 512"><!--! Font Awesome Pro 6.6.0 by @fontawesome - https://fontawesome.com License - https://fontawesome.com/license (Commercial License) Copyright 2024 Fonticons, Inc. --><path d="M553.4 150.6L576 128l-22.6-22.6L470.6 22.6 448 0 425.4 22.6 294 154l25.3 20 60-60 82.7 82.7-50.3 50.3 25.3 20L553.4 150.6zM320.7 338.1L240 418.7l0-18.7 0-16-16 0-32 0 0-32 0-16-16 0-18.7 0 70.9-70.9-25.3-20L96 352 70.8 478 64 512l34-6.8L224 480 346 358l-25.3-20zM208.2 450.5L104.8 471.2l20.7-103.4c.8 .1 1.7 .2 2.5 .2l32 0 0 32 0 16 16 0 32 0 0 32c0 .9 .1 1.7 .2 2.5zM530.7 128l-46.1 46.1L401.9 91.3 448 45.3 530.7 128zM40.4 18L27.8 8.1 8.1 33.4l12.6 9.8L599.8 494.3l12.6 9.8 19.7-25.2L619.5 469 40.4 18z"/></svg>