<svg xmlns="http://www.w3.org/2000/svg" viewBox="0 0 512 512"><!--! Font Awesome Pro 6.6.0 by @fontawesome - https://fontawesome.com License - https://fontawesome.com/license (Commercial License) Copyright 2024 Fonticons, Inc. --><path d="M476.7 42.6c6.1 25.8 4 52.6-5.7 76.8c-1.2 3.1-2.6 6.2-4.1 9.3l.3 .3C495 157.8 512 196.9 512 240c0 21.1-4.1 41.2-11.5 59.6c-4.8 11.9-10.9 23-18.2 33.3l-17.6-32.1L440 256l-104 0L320 152l-51.9-8.7-38.5-6.4c8.7-10.4 18.8-19.6 29.8-27.5C285.6 90.9 317.5 80 352 80c21.6 0 42.2 4.3 60.9 12c10.1 4.1 19.6 9.3 28.5 15.3c4.2-10.7 6.5-22.1 6.7-33.5c.1-3.5-.1-7.1-.4-10.7c-.8-8-2.5-16-5.4-23.8c0 0 0 0 0 0s0 0 0 0L433 13.5 463 2.5l9.4 25.8s0 0 0 0s0 0 0 0c.5 1.4 1 2.8 1.5 4.3c1.1 3.3 2 6.7 2.8 10zM443.9 150.9l-9.3-9.6-11.1-7.5C403.1 120 378.5 112 352 112c-13.9 0-27.2 2.2-39.7 6.3l13 2.2 22.8 3.8 3.5 22.9L363.5 224l76.5 0 18.9 0 9.1 16.6 10.5 19c1-6.4 1.5-12.9 1.5-19.6c0-34.6-13.7-66-36.1-89.1zM172.3 304.4l78.1-131.6 33.9 5.6L199.8 320.7c-22.5 38-59.8 64.9-102.9 74.5L32 409.7 32 480l71.2 0c134.3 0 255.8-66.6 329.2-171.6l17 31C369.4 445.5 242.7 512 103.2 512L32 512 0 512l0-32 0-96 90-20c34.5-7.7 64.3-29.2 82.3-59.6z"/></svg>