<svg xmlns="http://www.w3.org/2000/svg" viewBox="0 0 320 512"><!--! Font Awesome Pro 6.6.0 by @fontawesome - https://fontawesome.com License - https://fontawesome.com/license (Commercial License) Copyright 2024 Fonticons, Inc. --><path d="M160 80a24 24 0 1 0 0-48 24 24 0 1 0 0 48zm0-80a56 56 0 1 1 0 112A56 56 0 1 1 160 0zM133.5 248.8l-7.2 14.3L73.9 368 96 368l32 0 64 0 32 0 22.1 0L193.7 263.2l-7.2-14.3 28.6-14.3 7.2 14.3 64 128L297.9 400 272 400l-48 0 0 96 0 16-32 0 0-16 0-96-64 0 0 96 0 16-32 0 0-16 0-96-48 0-25.9 0 11.6-23.2 64-128 7.2-14.3 28.6 14.3zM108.9 128l102.2 0 9.6 0 4.5 8.5 76.9 144 7.5 14.1-28.2 15.1-7.5-14.1L201.5 160l-83 0L46.1 295.5l-7.5 14.1L10.3 294.6l7.5-14.1 76.9-144 4.5-8.5 9.6 0z"/></svg>