<svg xmlns="http://www.w3.org/2000/svg" viewBox="0 0 640 512"><!--! Font Awesome Pro 6.6.0 by @fontawesome - https://fontawesome.com License - https://fontawesome.com/license (Commercial License) Copyright 2024 Fonticons, Inc. --><path d="M256 0l0 16 0 88 0 9.2-7.9 4.6L179.2 158l68.9 105.1 70.3-7 11-1.1 4.9 9.9 48 96 7.2 14.3-28.6 14.3-7.2-14.3L310.6 289l-64.4 6.4-57.5 44.7 96.6 147.1-26.7 17.6-184-280-2.8-4.2L64 225.2 64 368l0 16-32 0 0-16 0-152 0-9.2 7.9-4.6L224 94.8 224 16l0-16 32 0zM171.1 313.3l47.4-36.9-67-102.3L99.6 204.4l1.8 2.8 69.7 106.1zM56 112a24 24 0 1 0 0-48 24 24 0 1 0 0 48zm0-80a56 56 0 1 1 0 112A56 56 0 1 1 56 32zM419.4 309.8l-19.3 15.1-12.8-25.6 0-5-.6-56.6-55.1-13.1-39.2-9.4 31.3-25.4L367.6 154l-24.1-51.2L326.4 66.3l39.4 8.6 55.3 12 25.1-50.8L464 0l17.8 36.1 25.1 50.8 55.3-12 39.4-8.6-17.1 36.5L560.4 154l43.9 35.7 31.3 25.4-39.2 9.4-55.1 13.1-.6 56.6-.4 40.3-31.8-24.8L464 274.9l-44.6 34.9zM545.1 111.3l-31.4 6.8-24.4 5.3-11.1-22.4L464 72.3l-14.2 28.8-11.1 22.4-24.4-5.3-31.4-6.8 13.6 29.1L407.2 163l-19.4 15.8-24.9 20.3 31.2 7.5 24.3 5.8 .2 25 .3 32.1 25.3-19.8L464 234.3l19.7 15.4L509 269.5l.3-32.1 .2-25 24.3-5.8 31.2-7.5-24.9-20.3L520.8 163l10.6-22.6 13.6-29.1z"/></svg>