<svg xmlns="http://www.w3.org/2000/svg" viewBox="0 0 512 512"><!--! Font Awesome Pro 6.6.0 by @fontawesome - https://fontawesome.com License - https://fontawesome.com/license (Commercial License) Copyright 2024 Fonticons, Inc. --><path d="M194.3 16.2l48 80 3.6 6.1 6.9 1.4 50 10-83.3 39.2c-16.8 7.9-27.6 24.8-27.6 43.4l0 83.1-88.9 59.2-13.3 8.9 .4 .7-24.6-9.6L28.3 293.8 18 281.5-6.5 302 3.7 314.2l40 48 2.6 3.2 3.8 1.5 368 144L421 512l3 0 56 0 16 0 0-32-16 0-53 0L325.8 440.4l.9-2 56-128 5-11.4-9.8-7.6-68.3-53.1 96.1-54.1 80 68 20.7-24.4-160-136-3.2-2.7-4.1-.8L266.1 73.7 221.7-.2 194.3 16.2zm87.9 200.7l-46.6-36.2 106.8-50.3 37.2 31.7-97.5 54.8zM224 212.3L348.4 309l-51 116.6-1.4 3.1L125.7 362.1l91.2-60.8 7.1-4.7 0-8.6 0-75.7zM424 32a24 24 0 1 1 0 48 24 24 0 1 1 0-48zm0 80A56 56 0 1 0 424 0a56 56 0 1 0 0 112z"/></svg>