<svg xmlns="http://www.w3.org/2000/svg" viewBox="0 0 512 512"><!--! Font Awesome Pro 6.6.0 by @fontawesome - https://fontawesome.com License - https://fontawesome.com/license (Commercial License) Copyright 2024 Fonticons, Inc. --><path d="M128 256c0 37.2-1.4 69-3.9 96l32.1 0c2.5-27.7 3.8-59.6 3.8-96c0-14.7-.2-28.7-.6-42l.6 .6 11.3-11.3L230.6 144l39.1 0 15.9 4.5L249.2 257.9c-7.3 21.8 2 45.7 22 57l93.3 52.5L313.4 512l33.9 0 51.8-146.7 4.5-12.7-11.7-6.6-49.2-27.7c.2-.4 .4-.9 .5-1.3l37.2-111.6 20.3 70.9 3.3 11.6 12.1 0 80 0 16 0 0-32-16 0-67.9 0L399.4 155.6l-2.4-8.5-8.5-2.4-112-32-2.2-.6-2.2 0-48 0-6.6 0-4.7 4.7-55.5 55.5C148 46.5 116.9 0 80 0C35.8 0 0 66.6 0 256S35.8 512 80 512c23.3 0 44.3-18.6 59-64L105 448c-12.3 32-23.5 32-25 32c0 0 0 0 0 0s0 0 0 0c-1.6 0-13.6 0-26.4-35.8C40.9 409.1 32 349.5 32 256s8.9-153.1 21.5-188.2C66.4 32 78.4 32 80 32c0 0 0 0 0 0s0 0 0 0c1.6 0 13.6 0 26.4 35.8C119.1 102.9 128 162.5 128 256zM352 56a24 24 0 1 1 48 0 24 24 0 1 1 -48 0zm80 0A56 56 0 1 0 320 56a56 56 0 1 0 112 0zM279.5 268l36.9-110.7 42.2 12.1-44.3 133L286.9 287c-6.7-3.8-9.8-11.7-7.3-19zM197.3 384L112 384l-16 0 0 32 16 0 96 0 10.7 0 4.1-9.9 27.4-66.6c-10-6.7-18.2-15.5-24.1-25.4L197.3 384z"/></svg>