<svg xmlns="http://www.w3.org/2000/svg" viewBox="0 0 576 512"><!--! Font Awesome Pro 6.6.0 by @fontawesome - https://fontawesome.com License - https://fontawesome.com/license (Commercial License) Copyright 2024 Fonticons, Inc. --><path d="M168 56a24 24 0 1 1 48 0 24 24 0 1 1 -48 0zm80 0A56 56 0 1 0 136 56a56 56 0 1 0 112 0zM92.9 128l-9.6 0-4.5 8.5L1.9 280.5l28.2 15.1L80 202.2 80 496l0 16 32 0 0-16 0-144 64 0 0 144 0 16 32 0 0-16 0-312.1 83.8 98.5 24.4-20.7-108.9-128-4.8-5.6-7.4 0L92.9 128zM112 320l0-160 64 0 0 160-64 0zM304 32l-16 0 0 32 16 0 56 0 16 0 0-32-16 0-56 0zM432 224a24 24 0 1 1 0 48 24 24 0 1 1 0-48zm0 80a56 56 0 1 0 0-112 56 56 0 1 0 0 112zm80-16l-6.6 0-4.7 4.7-32 32-4.7 4.7 0 6.6 0 103.6-51.4-65.4-26.5 1.9-64 112 27.8 15.9 52.2-91.4 53.5 68.2C471.2 500.5 494.9 512 520 512c30.9 0 56-25.1 56-56l0-152 0-16-16 0-48 0zm8 192c-13.3 0-24-10.7-24-24l0-113.4L518.6 320l25.4 0 0 136c0 13.3-10.7 24-24 24zM272.8 90.5l-14.3 28.6 14.3 7.2 48 24 14.3 7.2 14.3-28.6-14.3-7.2-48-24-14.3-7.2z"/></svg>