<svg xmlns="http://www.w3.org/2000/svg" viewBox="0 0 640 512"><!--! Font Awesome Pro 6.6.0 by @fontawesome - https://fontawesome.com License - https://fontawesome.com/license (Commercial License) Copyright 2024 Fonticons, Inc. --><path d="M32 32l0 384 96 0 0-144 0-8.3 6.8-4.8L320 127.7 320 32 32 32zM352 136l0 8.3-6.8 4.8L267 204.5 328.1 288l71.9 0 7.4 0 4.8 5.6 96 112 8.9 10.4 90.9 0 0-384L352 32l0 104zm15 280l107.9 0-82.3-96-51.3 0-54 40.5 93.5 126-25.7 19.1L312.5 448 32 448 0 448l0-32L0 32 0 0 32 0 608 0l32 0 0 32 0 384 0 32-32 0-217.5 0L367 416zm-98.7-81.2l35.1-26.3L240.9 223l-36.4 25.8 63.8 86zm-89.9-67.5l-18.4 13L160 416l128.7 0L178.4 267.3zM168 136a24 24 0 1 0 -48 0 24 24 0 1 0 48 0zm-80 0a56 56 0 1 1 112 0A56 56 0 1 1 88 136z"/></svg>