<svg xmlns="http://www.w3.org/2000/svg" viewBox="0 0 640 512"><!--! Font Awesome Pro 6.6.0 by @fontawesome - https://fontawesome.com License - https://fontawesome.com/license (Commercial License) Copyright 2024 Fonticons, Inc. --><path d="M256 56a24 24 0 1 0 -48 0 24 24 0 1 0 48 0zm-80 0a56 56 0 1 1 112 0A56 56 0 1 1 176 56zM349.5 66l8.2 13.7 43.8 73L576 240l0 96-90.4 60.3 63.1 82c.4 .6 .8 1.2 1.2 1.8l11.5 0 43.3-43.3L616 425.4 638.6 448l-11.3 11.3-48 48-4.7 4.7-6.6 0-136 0-16 0 0-32 16 0 77.7 0-61.5-80-134.8 0c4.3 9.8 6.7 20.6 6.7 32c0 44.2-35.8 80-80 80L80 512c-44.2 0-80-35.8-80-80c0-26.2 12.6-49.4 32-64l48-96 208 0 36-48-44 0-8 0-4.8-6.4L224 160l-37.6 0-27.8 62.5-6.5 14.6-29.2-13 6.5-14.6 32-72 4.2-9.5 10.4 0 56 0 8 0 4.8 6.4L288 192l60 0 22.1-29.4L330.3 96.2 322 82.5 349.5 66zm45.1 119l-2.6 1.6L313.6 291.2c-6 8.1-15.5 12.8-25.6 12.8L99.8 304 75.7 352.1c1.4-.1 2.8-.1 4.3-.1l160 0c18 0 34.6 6 48 16l167.8 0 .3 0 14.2 0L544 318.9l0-59.1L394.6 185.1zM80 384c-26.5 0-48 21.5-48 48s21.5 48 48 48l160 0c26.5 0 48-21.5 48-48s-21.5-48-48-48L80 384z"/></svg>