<svg xmlns="http://www.w3.org/2000/svg" viewBox="0 0 512 512"><!--! Font Awesome Pro 6.6.0 by @fontawesome - https://fontawesome.com License - https://fontawesome.com/license (Commercial License) Copyright 2024 Fonticons, Inc. --><path d="M280.4 355.3l21.3 12.3L319 350.2l40.7-40.7L475.8 356 453.3 480l-5.3 0C218.2 480 32 293.7 32 64l0-5.3L156 36.2l46.5 116.1-40.7 40.7-17.3 17.3 12.3 21.3c29.6 51.4 72.4 94.1 123.7 123.7zM512 336L352 272l-55.6 55.6c-46.5-26.8-85.2-65.5-112-112L240 160 176 0 0 32 0 64C0 311.4 200.6 512 448 512l32 0 32-176zM292.7 196.7L281.4 208 304 230.6l11.3-11.3L480 54.6l0 89.4 0 16 32 0 0-16 0-128 0-16L496 0 368 0 352 0l0 32 16 0 89.4 0L292.7 196.7z"/></svg>