<svg xmlns="http://www.w3.org/2000/svg" viewBox="0 0 512 512"><!--! Font Awesome Pro 6.6.0 by @fontawesome - https://fontawesome.com License - https://fontawesome.com/license (Commercial License) Copyright 2024 Fonticons, Inc. --><path d="M502.6 26.4c1.7-12 1.2-18.3 1.2-18.3s-6.3-.4-18.3 1.2c-3.9 .5-8.5 1.3-13.7 2.4c-21.6 4.6-53.8 14.7-94.9 36.9c10.3 6 20.3 12.9 29.8 20.6c9.1-4.5 17.6-8.3 25.5-11.5c12.9-5.3 24.1-9 33.5-11.5c-2.6 9.4-6.3 20.6-11.5 33.5c-6.6 16.2-15.7 35.1-28.3 56.4C388.3 82.8 326.2 48 256 48C141.1 48 48 141.1 48 256c0 70.2 34.8 132.3 88.1 170c-21.4 12.6-40.2 21.7-56.4 28.3c-12.9 5.3-24.1 9-33.5 11.5c2.6-9.4 6.3-20.6 11.5-33.5c3.2-7.9 7-16.4 11.5-25.5c-7.7-9.5-14.6-19.5-20.6-29.8c-22.2 41.2-32.3 73.3-36.9 94.9c-1.1 5.2-1.9 9.7-2.4 13.7c-1.7 12-1.2 18.3-1.2 18.3s6.3 .4 18.3-1.2c3.9-.6 8.5-1.3 13.7-2.4c27-5.7 70.5-20.1 127.5-55.9C194.4 456.9 224.4 464 256 464c114.9 0 208-93.1 208-208c0-31.6-7.1-61.6-19.7-88.5c35.9-57 50.2-100.4 55.9-127.5c1.1-5.2 1.9-9.7 2.4-13.7zM407.2 165.9c-25.4 37.8-60.8 81.8-110.2 131.2s-93.4 84.8-131.2 110.2C114.4 376.5 80 320.3 80 256c0-97.2 78.8-176 176-176c64.3 0 120.5 34.4 151.2 85.9zM199.6 422.8c35.8-25.5 76-59 120.1-103.1s77.6-84.2 103.1-120.1c6 17.7 9.2 36.7 9.2 56.4c0 97.2-78.8 176-176 176c-19.7 0-38.7-3.2-56.4-9.2z"/></svg>