<svg xmlns="http://www.w3.org/2000/svg" viewBox="0 0 512 512"><!--! Font Awesome Pro 6.6.0 by @fontawesome - https://fontawesome.com License - https://fontawesome.com/license (Commercial License) Copyright 2024 Fonticons, Inc. --><path d="M149.4 64C84.6 64 32 116.6 32 181.4c0 64.6 28 122.7 72.7 162.8l27.6-39.9C100.1 273.3 80 229.7 80 181.4c0-38.3 31.1-69.4 69.4-69.4l6.6 0c42 0 76 34 76 76l0 3.6c0 16.2-4.9 32-14.2 45.3l-18.2 26.3-33 47.6L156.9 325l-27.1 39.2-8.7 12.5-19.7 28.4 39.5 27.3 25.4-36.6 6.7-9.7 11.3 3.6c20.9 6.7 43.2 10.3 66.4 10.3l5.4 0 5.4 0c15.5 0 30.6-1.6 45.1-4.7l-30.4-44c-4.8 .4-9.7 .6-14.7 .6l-5.4 0-5.4 0c-8.4 0-16.6-.6-24.7-1.8l-25.6-3.7 14.7-21.2 27.8-40.1 13.2-19 13.2 19 13 18.8 14.7 21.3 14.7 21.2 27.4 39.6 6.7 9.7 25.4 36.6 39.5-27.3-19.7-28.4-8.7-12.5 12.1-9.3C446.5 315 480 252.1 480 181.4C480 116.6 427.4 64 362.6 64L356 64c-34.7 0-66 14.2-88.6 37.2L256 112.9l-11.4-11.7C222 78.2 190.7 64 156 64l-6.6 0zM326.1 423.6c-20.6 5.5-42.3 8.4-64.7 8.4l-5.4 0-5.4 0c-22.3 0-44-2.9-64.7-8.4L158 463.9 148.9 477l-13.2-9.1L70 422.4l-13.2-9.1L66 400.1s0 0 0 0l20.4-29.5C33.5 324.7 0 257 0 181.4C0 98.9 66.9 32 149.4 32l6.6 0c38 0 72.9 13.6 100 36.3C283.1 45.6 318 32 356 32l6.6 0C445.1 32 512 98.9 512 181.4c0 75.6-33.5 143.3-86.3 189.3L446 400.1l9.1 13.2L442 422.4l-65.8 45.5L363.1 477 354 463.9s0 0 0 0l-27.9-40.3zM173.3 245l18.2-26.3c5.5-8 8.5-17.4 8.5-27.1l0-3.6c0-24.3-19.7-44-44-44l-6.6 0c-20.7 0-37.4 16.7-37.4 37.4c0 37.3 14.8 71.2 38.8 96.2L173.3 245zM356 144c-24.3 0-44 19.7-44 44l0 3.6c0 9.7 3 19.1 8.5 27.1l40.7 58.8c24-24.9 38.8-58.8 38.8-96.2c0-20.7-16.7-37.4-37.4-37.4l-6.6 0zm-76 44c0-42 34-76 76-76l6.6 0c38.3 0 69.4 31.1 69.4 69.4c0 53.7-24.8 101.5-63.5 132.8L355.1 325l-9.8-14.2L294.2 237c-9.2-13.3-14.2-29.1-14.2-45.3l0-3.6z"/></svg>