<svg xmlns="http://www.w3.org/2000/svg" viewBox="0 0 448 512"><!--! Font Awesome Pro 6.6.0 by @fontawesome - https://fontawesome.com License - https://fontawesome.com/license (Commercial License) Copyright 2024 Fonticons, Inc. --><path d="M144 0l96 0 16 0 0 16 0 32 96 0 6.6 0 4.7 4.7 48 48L422.6 112 400 134.6l-11.3-11.3L345.4 80 256 80l0 48-32 0 0-96-64 0 0 96-32 0 0-112 0-16 16 0zM64.1 512L32 512l2.2-32L56 160l272 0 21.8 320 2.2 32-32.1 0L64.1 512zm2.2-32l251.5 0L298.1 192 85.9 192 66.3 480zM192 236.7l13 17.9 45.3 62.5c9 12.4 13.8 27.3 13.8 42.6c0 39.7-32.1 72.3-72 72.3s-72-32.6-72-72.3c0-15.2 4.8-30.2 13.8-42.6L179 254.6l13-17.9zm0 54.6l-32.3 44.6c-5 6.9-7.7 15.3-7.7 23.8c0 22.2 18 40.3 40 40.3s40-18.1 40-40.3c0-8.5-2.7-16.9-7.7-23.8L192 291.3z"/></svg>