<svg xmlns="http://www.w3.org/2000/svg" viewBox="0 0 512 512"><!--! Font Awesome Pro 6.6.0 by @fontawesome - https://fontawesome.com License - https://fontawesome.com/license (Commercial License) Copyright 2024 Fonticons, Inc. --><path d="M480 64l0 384L32 448 32 64l448 0zM32 32L0 32 0 64 0 448l0 32 32 0 448 0 32 0 0-32 0-384 0-32-32 0L32 32zM89.4 160l11.3 11.3L185.4 256l-84.7 84.7L89.4 352 112 374.6l11.3-11.3 96-96L230.6 256l-11.3-11.3-96-96L112 137.4 89.4 160zM224 352l-16 0 0 32 16 0 176 0 16 0 0-32-16 0-176 0z"/></svg>