<svg xmlns="http://www.w3.org/2000/svg" viewBox="0 0 384 512"><!--! Font Awesome Pro 6.6.0 by @fontawesome - https://fontawesome.com License - https://fontawesome.com/license (Commercial License) Copyright 2024 Fonticons, Inc. --><path d="M161.6 128L125.2 70.9 146.8 32l90.3 0 21.6 38.9L222.4 128 192 128l-30.4 0zm92.3 10.2L296 72 256 0 128 0 88 72l42.1 66.2C54.4 163.9 0 235.6 0 320C0 426 86 512 192 512s192-86 192-192c0-84.4-54.4-156.1-130.1-181.8zM192 480a160 160 0 1 1 0-320 160 160 0 1 1 0 320z"/></svg>