<svg xmlns="http://www.w3.org/2000/svg" viewBox="0 0 640 512"><!--! Font Awesome Pro 6.6.0 by @fontawesome - https://fontawesome.com License - https://fontawesome.com/license (Commercial License) Copyright 2024 Fonticons, Inc. --><path d="M336 0l0 16 0 80 176 0 32 0 0 32 0 352 0 32-32 0-384 0-32 0 0-32 0-352 0-32 32 0 176 0 0-80 0-16 32 0zM128 128l0 352 384 0 0-352-176 0-32 0-176 0zm80 256l32 0 16 0 0 32-16 0-32 0-16 0 0-32 16 0zm96 0l32 0 16 0 0 32-16 0-32 0-16 0 0-32 16 0zm96 0l32 0 16 0 0 32-16 0-32 0-16 0 0-32 16 0zM224 224a32 32 0 1 0 0 64 32 32 0 1 0 0-64zm64 32a64 64 0 1 1 -128 0 64 64 0 1 1 128 0zm96 0a32 32 0 1 0 64 0 32 32 0 1 0 -64 0zm32 64a64 64 0 1 1 0-128 64 64 0 1 1 0 128zM32 224l32 0 0 32-32 0 0 128 32 0 0 32-32 0L0 416l0-32L0 256l0-32 32 0zM608 384l0-128-32 0 0-32 32 0 32 0 0 32 0 128 0 32-32 0-32 0 0-32 32 0z"/></svg>