<svg xmlns="http://www.w3.org/2000/svg" viewBox="0 0 512 512"><!--! Font Awesome Pro 6.6.0 by @fontawesome - https://fontawesome.com License - https://fontawesome.com/license (Commercial License) Copyright 2024 Fonticons, Inc. --><path d="M265.6 11.2L256 4l-9.6 7.2C187.1 55.6 113.3 63.1 46.5 33.4L26.4 24.5 24.1 46.3c-12 112-13.5 203 17.7 277.8C73.6 400 137.7 456.4 249.9 502.8l6.5 2.7 6.4-2.9C372.4 451.9 436.3 395.6 468.6 321c31.8-73.7 31.4-162.5 19.3-274.7l-2.3-21.8-20.1 8.9C398.7 63.1 324.9 55.6 265.6 11.2zM53.8 70.6C121.9 93.9 195 84.9 256 43.6c60.9 41.3 134.1 50.2 202.2 26.9c3.1 32.3 5 62 5.2 89.4L256 160 48.2 160c.4-27.6 2.4-57.3 5.5-89.4zM48.5 192l414.4 0c-1.9 44.4-9.1 82.5-23.7 116.3c-27.3 63.2-81.7 114.1-183.5 162.2C152.3 426.6 98.1 375.8 71.4 311.7C56.8 277 50 237.6 48.5 192z"/></svg>