<svg xmlns="http://www.w3.org/2000/svg" viewBox="0 0 448 512"><!--! Font Awesome Pro 6.6.0 by @fontawesome - https://fontawesome.com License - https://fontawesome.com/license (Commercial License) Copyright 2024 Fonticons, Inc. --><path d="M0 32l16 0 96 0c79.5 0 144 64.5 144 144c0 65.2-43.4 120.3-102.9 138l53.1 166-33.6 0L121.3 319.7c-3.1 .2-6.2 .3-9.3 .3l-80 0 0 160L0 480 0 304 0 48 0 32zM224 176c0-61.9-50.1-112-112-112L32 64l0 224 80 0c8.3 0 16.4-.9 24.2-2.6l7.1-2.3 .1 .4C190 270 224 227 224 176zm72.8 84.4c-1.5 9.7-.4 16.5 1.8 21.6c2.2 5.1 5.9 9.7 11.5 14c12.1 9.2 29.9 15.2 51.4 22.6l.1 0c20 6.8 43.6 14.8 60.7 28.8c8.9 7.3 16.6 16.6 21.2 28.4c4.6 11.9 5.7 25.3 3.4 40.3c-3.9 25.5-19 44-40.2 54.2c-20.6 9.9-46.3 11.8-72.8 7.2l-.1 0c-9-1.6-20.6-5.5-31-9.3c-7-2.5-14.2-5.3-20.2-7.6c0 0 0 0 0 0c-3-1.2-5.8-2.2-8.1-3.1l-15-5.6 11.2-30 15 5.6c2.7 1 5.7 2.2 8.8 3.4c0 0 0 0 0 0c5.8 2.2 12.3 4.7 19.1 7.2c10.5 3.8 19.8 6.8 25.9 7.9c22 3.9 40.4 1.7 53.3-4.5c12.3-5.9 20.2-15.7 22.5-30.3c1.6-10.6 .6-18.2-1.6-23.9c-2.2-5.7-6-10.7-11.6-15.2c-11.8-9.7-29.5-16-50.8-23.3l-2.8-1c-19.2-6.5-41.4-14-57.7-26.5c-9-6.8-16.8-15.6-21.6-27c-4.8-11.5-6.1-24.4-3.9-38.9c3.7-23.9 19-42 39.7-52.6c20.5-10.4 46.3-13.6 73.3-8.8c7.7 1.4 31 6.4 39.4 8.9l15.3 4.6-9.2 30.7-15.3-4.6c-6.7-2-28.7-6.8-35.8-8.1c-21.4-3.8-40-.9-53.2 5.8c-13 6.6-20.7 16.8-22.6 28.9z"/></svg>