<svg xmlns="http://www.w3.org/2000/svg" viewBox="0 0 512 512"><!--! Font Awesome Pro 6.6.0 by @fontawesome - https://fontawesome.com License - https://fontawesome.com/license (Commercial License) Copyright 2024 Fonticons, Inc. --><path d="M390.6 409.4L368 432l-22.6-22.6-36.7-36.7c2.3 36.2-6.2 73-25.5 105.2c-5.5 9.1-11.8 17.9-19.1 26.2l-22.7-22.7-94-94-24 24c3 6.3 4.7 13.3 4.7 20.7c0 26.5-21.5 48-48 48s-48-21.5-48-48s21.5-48 48-48c7.4 0 14.4 1.7 20.7 4.7l24-24-94-94L8 248c8.3-7.2 17-13.6 26.2-19.1c32.2-19.4 69-27.8 105.2-25.5l-36.7-36.7L80 144l22.6-22.6 98.7-98.7L224 0l22.6 22.6L304 80l-22.6 22.6L224 45.3 125.3 144l57.4 57.4-7.8 7.8c29.8 8 57.9 23.6 81.2 46.8s38.9 51.4 46.8 81.2c0 0 0 0 0 0c-3-11.3-7.1-22.3-12.3-32.9L450.7 144 368 61.3 207.8 221.5c-10.6-5.2-21.7-9.3-32.9-12.3L345.4 38.6 368 16l22.6 22.6 82.7 82.7L496 144l-22.6 22.6L432 208l57.4 57.4L512 288l-22.6 22.6-98.7 98.7zm18.7-178.7l-98.7 98.7L368 386.7 466.7 288l-57.4-57.4zM57.6 252.4l202 202c30.1-56.8 21-128.5-26.2-175.7s-118.9-56.3-175.7-26.2zM80 448a16 16 0 1 0 0-32 16 16 0 1 0 0 32z"/></svg>