<svg xmlns="http://www.w3.org/2000/svg" viewBox="0 0 384 512"><!--! Font Awesome Pro 6.6.0 by @fontawesome - https://fontawesome.com License - https://fontawesome.com/license (Commercial License) Copyright 2024 Fonticons, Inc. --><path d="M352 32l0 448L32 480l0-338.7L141.3 32 352 32zM128 0L0 128 0 480l0 32 32 0 320 0 32 0 0-32 0-448 0-32L352 0 128 0zm64 80l0-16-32 0 0 16 0 64 0 16 32 0 0-16 0-64zm64 0l0-16-32 0 0 16 0 64 0 16 32 0 0-16 0-64zm64 0l0-16-32 0 0 16 0 64 0 16 32 0 0-16 0-64z"/></svg>