<svg xmlns="http://www.w3.org/2000/svg" viewBox="0 0 512 512"><!--! Font Awesome Pro 6.6.0 by @fontawesome - https://fontawesome.com License - https://fontawesome.com/license (Commercial License) Copyright 2024 Fonticons, Inc. --><path d="M278.6 22.6L331 75l74 0 32 0 0 32 0 74 52.4 52.4L512 256l-22.6 22.6L437 331l0 74 0 32-32 0-74 0-52.4 52.4L256 512l-22.6-22.6L181 437l-74 0-32 0 0-32 0-74L22.6 278.6 0 256l22.6-22.6L75 181l0-74 0-32 32 0 74 0 52.4-52.4L256 0l22.6 22.6zM331 107l-13.3 0-9.4-9.4L256 45.3 203.6 97.6l-9.4 9.4L181 107l-74 0 0 74 0 13.3-9.4 9.4L45.3 256l52.4 52.4 9.4 9.4 0 13.3 0 74 74 0 13.3 0 9.4 9.4L256 466.7l52.4-52.4 9.4-9.4 13.3 0 74 0 0-74 0-13.3 9.4-9.4L466.7 256l-52.4-52.4-9.4-9.4 0-13.3 0-74-74 0zm-59 21l0 16 0 128 0 16-32 0 0-16 0-128 0-16 32 0zM232 320l48 0 0 48-48 0 0-48z"/></svg>