<svg xmlns="http://www.w3.org/2000/svg" viewBox="0 0 512 512"><!--! Font Awesome Pro 6.6.0 by @fontawesome - https://fontawesome.com License - https://fontawesome.com/license (Commercial License) Copyright 2024 Fonticons, Inc. --><path d="M278.6 22.6L323 67l82 0 32 0 0 32 0 82 52.4 52.4L512 256l-22.6 22.6L437 331l0 82 0 32-32 0-82 0-44.4 44.4L256 512l-22.6-22.6L189 445l-82 0-32 0 0-32 0-82L22.6 278.6 0 256l22.6-22.6L75 181l0-82 0-32 32 0 82 0 44.4-44.4L256 0l22.6 22.6zM323 99l-13.3 0-9.4-9.4L256 45.3 211.6 89.6 202.3 99 189 99l-82 0 0 82 0 13.3-9.4 9.4L45.3 256l52.4 52.4 9.4 9.4 0 13.3 0 82 82 0 13.3 0 9.4 9.4L256 466.7l44.4-44.4 9.4-9.4 13.3 0 82 0 0-82 0-13.3 9.4-9.4L466.7 256l-52.4-52.4-9.4-9.4 0-13.3 0-82-82 0zM168 184c0-30.9 25.1-56 56-56l56 0c35.5 0 64 29 64 64.3l0 16-2 0c-4.5 17.5-16.3 32.7-32.9 41.2L272 268.3l0 3.7 0 16-32 0 0-16 0-13.5 0-9.8 8.7-4.5 45.8-23.4c10.7-5.4 17.5-16.6 17.5-28.7c0-17.8-14.4-32.3-32-32.3l-56 0c-13.3 0-24 10.7-24 24l0 8-32 0 0-8zm64 136l48 0 0 48-48 0 0-48z"/></svg>