<svg xmlns="http://www.w3.org/2000/svg" viewBox="0 0 448 512"><!--! Font Awesome Pro 6.6.0 by @fontawesome - https://fontawesome.com License - https://fontawesome.com/license (Commercial License) Copyright 2024 Fonticons, Inc. --><path d="M48 32L32 32l0 16 0 416 0 16 32 0 0-16L64 64l128 0c44.2 0 80 35.8 80 80l0 192 0 16 32 0 0-16 0-192c0-61.9-50.1-112-112-112L48 32zM304 480c61.9 0 112-50.1 112-112l0-320 0-16-32 0 0 16 0 320c0 44.2-35.8 80-80 80l-128 0 0-272 0-16-32 0 0 16 0 288 0 16 16 0 144 0z"/></svg>