<svg xmlns="http://www.w3.org/2000/svg" viewBox="0 0 384 512"><!--! Font Awesome Pro 6.6.0 by @fontawesome - https://fontawesome.com License - https://fontawesome.com/license (Commercial License) Copyright 2024 Fonticons, Inc. --><path d="M96 0L80 0 64 0l0 16 0 48 0 60.6L1.4 265.5 0 268.6 0 272 0 496l0 16 16 0 352 0 16 0 0-16 0-224 0-3.4-1.4-3.1L320 124.6 320 64l0-48 0-16L304 0 288 0l0 16 0 48c0 53-43 96-96 96s-96-43-96-96l0-48L96 0zM32 275.4L91 142.6c23.4 30 60 49.4 101 49.4l16 0 0-1c34.5-4.3 64.7-22.3 85-48.4l21.9 49.3-4.3 3.1L32 396.3l0-120.9zm0 160.3l9.4-6.8L328.2 221.8 352 275.4 352 480 32 480l0-44.3z"/></svg>