<svg xmlns="http://www.w3.org/2000/svg" viewBox="0 0 512 512"><!--! Font Awesome Pro 6.6.0 by @fontawesome - https://fontawesome.com License - https://fontawesome.com/license (Commercial License) Copyright 2024 Fonticons, Inc. --><path d="M416 32c-35.3 0-64 28.7-64 64c0 17.7 7.1 33.7 18.7 45.3l11.3 11.3-11.3 11.3-31.4 31.4 62.1 62.1L424 280l-22.6 22.6L320 384l-1.4 1.4-21.3 21.3L296 408l-81.4 81.4L192 512l-22.6-22.6-62.1-62.1-80 80L4.7 484.7l80-80L22.6 342.6 0 320l22.6-22.6L104 216l1.4-1.4 21.3-21.3L128 192l81.4-81.4L232 88l22.6 22.6 62.1 62.1 21.1-21.1C326.6 135.9 320 116.7 320 96c0-53 43-96 96-96s96 43 96 96c0 21.6-7.2 41.6-19.2 57.6l-25.6-19.2c8-10.7 12.8-24 12.8-38.4c0-35.3-28.7-64-64-64zM297.4 361.4L378.7 280 232 133.3l-81.4 81.4L297.4 361.4zM126.6 238.6L45.3 320 192 466.7l81.4-81.4L126.6 238.6z"/></svg>