<svg xmlns="http://www.w3.org/2000/svg" viewBox="0 0 640 512"><!--! Font Awesome Pro 6.6.0 by @fontawesome - https://fontawesome.com License - https://fontawesome.com/license (Commercial License) Copyright 2024 Fonticons, Inc. --><path d="M608 224l32 0 0-32 0-16L544 0 99 0l40.5 32L525 32l83 152.2 0 7.8-48 0-217.8 0 40.5 32L544 224l0 127.3 32 25.3L576 224l32 0zM0 176l0 16 0 32 32 0 32 0 0 272 0 16 16 0 288 0 16 0 0-16 0-107.9L338.3 352 96 352l0-128 80.2 0-40.5-32L96 192l-32 0-32 0 0-7.8 28.2-51.7L34.7 112.3 0 176zM96 480l0-96 256 0 0 96L96 480zM32.5 10L19.9 .1 .1 25.3l12.6 9.9L607.8 502.2l12.6 9.9 19.8-25.2-12.6-9.9L32.5 10z"/></svg>