<svg xmlns="http://www.w3.org/2000/svg" viewBox="0 0 512 512"><!--! Font Awesome Pro 6.6.0 by @fontawesome - https://fontawesome.com License - https://fontawesome.com/license (Commercial License) Copyright 2024 Fonticons, Inc. --><path d="M400 0L377.4 22.6 359.2 40.8c-14.9 14.9-23.2 35-23.2 56c0 16.1 4.8 31 13 43.5l-88.3 88.3L192 160 25.9 284.6 0 304l22.9 22.9L185.1 489.1 208 512l19.4-25.9L352 320l-68.7-68.7L371.7 163c12.5 8.2 27.5 13 43.5 13c21 0 41.1-8.3 56-23.2l18.2-18.2L512 112 489.4 89.4 422.6 22.6 400 0zm0 45.3L466.7 112l-18.2 18.2c-8.9 8.9-20.9 13.8-33.4 13.8c-26.1 0-47.2-21.1-47.2-47.2c0-12.5 5-24.5 13.8-33.4L400 45.3zm-195.5 418L48.7 307.5 189 202.3 309.7 323 204.5 463.3zm-73.2-124l72-72-22.6-22.6-72 72 22.6 22.6zm64 64l72-72-22.6-22.6-72 72 22.6 22.6z"/></svg>