<svg xmlns="http://www.w3.org/2000/svg" viewBox="0 0 512 512"><!--! Font Awesome Pro 6.6.0 by @fontawesome - https://fontawesome.com License - https://fontawesome.com/license (Commercial License) Copyright 2024 Fonticons, Inc. --><path d="M232 0l-9.9 0-4.4 8.8L92.2 259.8 73.4 278.6 33.1 318.9C11.9 340.1 0 368.9 0 398.9C0 461.3 50.7 512 113.1 512c30 0 58.8-11.9 80-33.1l40.2-40.2 18.9-18.9L503.2 294.3l8.8-4.4 0-9.9 0-72 0-16-16 0-72 0 0-88 0-16-16 0-88 0 0-72 0-16L304 0 232 0zm77.1 355.6l-75.7 37.8c0 0 0 0 0 0l-46.1-46.1 77.2-77.2 103-32.5-58.4 118zm81-163.6l-2.9 5.8L280.5 231.5l33.7-106.7 5.8-2.9 0-1.9 72 0 0 72-1.9 0zM356.5 331.8l53.3-107.6 .6-.2 69.5 0 0 46.1L356.5 331.8zM288 101.5l-.2 .6L180.2 155.5 241.9 32 288 32l0 69.5zm-13.6 43l-32.5 103-77.2 77.2-46.1-46.1c0 0 0 0 0 0l37.8-75.7 118-58.4zM61.9 335.3L96 301.3 210.7 416l-34.1 34.1L61.9 335.3zm89.7 135c-11.7 6.3-24.9 9.7-38.5 9.7C68.3 480 32 443.7 32 398.9c0-13.6 3.4-26.8 9.7-38.5L151.6 470.3z"/></svg>