<svg xmlns="http://www.w3.org/2000/svg" viewBox="0 0 640 512"><!--! Font Awesome Pro 6.6.0 by @fontawesome - https://fontawesome.com License - https://fontawesome.com/license (Commercial License) Copyright 2024 Fonticons, Inc. --><path d="M512 326l32 25.3L544 32l32 0 0 344.6 32 25.3L608 32l0-32L576 0 544 0 512 0l0 32 0 294zm-64-50.5L448 160l0-32-32 0-32 0-32 0 0 32 0 39.7L384 225l0-65 32 0 0 90.2 32 25.3zm-96 87.3L352 480l0 32 32 0 32 0 32 0 0-32 0-41.4-32-25.3 0 66.7-32 0 0-91.9-32-25.3zM216.7 256L192 256l0 32 0 192 0 32 32 0 32 0 32 0 0-32 0-167.7L216.7 256zm7.3 32l32 0 0 192-32 0 0-192zM96 416l0 64-32 0 0-64 32 0zM64 384l-32 0 0 32 0 64 0 32 32 0 32 0 32 0 0-32 0-64 0-32-32 0-32 0zM40.4 18L27.8 8.1 8.1 33.4l12.6 9.8L599.8 494.3l12.6 9.8 19.7-25.2L619.5 469 40.4 18z"/></svg>