<svg xmlns="http://www.w3.org/2000/svg" viewBox="0 0 512 512"><!--! Font Awesome Pro 6.6.0 by @fontawesome - https://fontawesome.com License - https://fontawesome.com/license (Commercial License) Copyright 2024 Fonticons, Inc. --><path d="M240 0l32 0 0 32 176 0 64 80-64 80-176 0 0 32 176 0 32 0 0 32 0 96 0 32-32 0-176 0 0 128-32 0 0-128L64 384 0 304l64-80 176 0 0-32L64 192l-32 0 0-32 0-96 0-32 32 0 176 0 0-32zM432.6 64L64 64l0 96 368.6 0L471 112 432.6 64zM79.4 256L41 304l38.4 48L448 352l0-96L79.4 256z"/></svg>