<svg xmlns="http://www.w3.org/2000/svg" viewBox="0 0 640 512"><!--! Font Awesome Pro 6.6.0 by @fontawesome - https://fontawesome.com License - https://fontawesome.com/license (Commercial License) Copyright 2024 Fonticons, Inc. --><path d="M40.4 18L27.8 8.1 8.1 33.4l12.6 9.8L599.8 494.3l12.6 9.8 19.7-25.2L619.5 469 40.4 18zM378.8 384L336 384l-16 0 0 32 16 0 83.4 0-40.5-32zm85-96l40.5 32 55.6 0 16 0 0-32-16 0-96.2 0zM626 416l14 0 0-32-16 0-38.6 0L626 416zM478.3 183.2l16-32-34.5 9.4-117 31.9L374 217.1l59.7-16.3L411 246.3l25.7 20.3 41.7-83.4zM320 131.4l0-3.4c0-53-43-96-96-96c-22.2 0-42.6 7.5-58.9 20.2l26.3 20.7c9.6-5.7 20.7-8.9 32.6-8.9c35.3 0 64 28.7 64 64l0 3.4c0 5.8-.1 11.7-.4 17.5L318.1 173c1.3-13.8 1.9-27.7 1.9-41.6zM107.8 256.6L96 259.8 96 272l0 192 0 16 16 0 80 0 9.4 0 4.6-8.2L247.5 398c15.6-27.7 28.7-56.8 39-86.9L259.8 290c-10.2 32-23.7 62.9-40.2 92.3l-37 65.7L128 448l0-163.8L220.5 259l-31.2-24.7-81.5 22.2zM128 186l0 6 7.6 0-7.6-6zM16 384L0 384l0 32 16 0 32 0 16 0 0-32-16 0-32 0z"/></svg>