<svg xmlns="http://www.w3.org/2000/svg" viewBox="0 0 448 512"><!--! Font Awesome Pro 6.6.0 by @fontawesome - https://fontawesome.com License - https://fontawesome.com/license (Commercial License) Copyright 2024 Fonticons, Inc. --><path d="M416 64l0 384L32 448 32 64l384 0zm32-32l-32 0L32 32 0 32 0 64 0 448l0 32 32 0 384 0 32 0 0-32 0-384 0-32zM249.2 122.1l-32 80-3.9 9.8 7.5 7.5L239.4 238c-9.1 13-20.4 24.3-33.4 33.4l-18.7-18.7-7.5-7.5-9.8 3.9-80 32L77.9 286l2.3 12.9 16 88L98.7 400l13.4 0 16 0c132.5 0 240-107.4 240-240l0-16 0-13.4-13.1-2.4-88-16L254 109.9l-4.9 12.1zM336 160c0 114.9-93.1 208-208 208l-2.6 0-11.3-62 58.1-23.2 20.3 20.3 8.7 8.7 10.6-6.1c25.7-14.8 47.1-36.2 61.9-61.9l6.1-10.6-8.7-8.7-20.3-20.3L274 146.1l62 11.3 0 2.6z"/></svg>