<svg xmlns="http://www.w3.org/2000/svg" viewBox="0 0 448 512"><!--! Font Awesome Pro 6.6.0 by @fontawesome - https://fontawesome.com License - https://fontawesome.com/license (Commercial License) Copyright 2024 Fonticons, Inc. --><path d="M32 64l0 384 384 0 0-384L32 64zM0 32l32 0 384 0 32 0 0 32 0 384 0 32-32 0L32 480 0 480l0-32L0 64 0 32zM144 160l0 128c0 44.2 35.8 80 80 80s80-35.8 80-80l0-128 0-16 32 0 0 16 0 128c0 56.4-41.7 103.1-96 110.9l0 1.1-16 0c-61.9 0-112-50.1-112-112l0-128 0-16 32 0 0 16z"/></svg>