<svg xmlns="http://www.w3.org/2000/svg" viewBox="0 0 448 512"><!--! Font Awesome Pro 6.6.0 by @fontawesome - https://fontawesome.com License - https://fontawesome.com/license (Commercial License) Copyright 2024 Fonticons, Inc. --><path d="M416 448l0-384L32 64l0 384 384 0zm32 32l-32 0L32 480 0 480l0-32L0 64 0 32l32 0 384 0 32 0 0 32 0 384 0 32zM256 256l0-96-64 0 0 96 0 32-32 0-18.7 0L224 370.7 306.7 288 288 288l-32 0 0-32zM224 416l-22.6-22.6L96 288l0-32 32 0 32 0 0-32 0-64 0-32 32 0 64 0 32 0 0 32 0 64 0 32 32 0 32 0 0 32L246.6 393.4 224 416z"/></svg>