<svg xmlns="http://www.w3.org/2000/svg" viewBox="0 0 512 512"><!--! Font Awesome Pro 6.6.0 by @fontawesome - https://fontawesome.com License - https://fontawesome.com/license (Commercial License) Copyright 2024 Fonticons, Inc. --><path d="M510.3 19L512 0 493 1.7c-36.7 3.1-69.8 8.2-99.6 14.8l0-.4L258.4 3.3 238.7 1.4 241 21.1l6.3 54.2c-13.6 9.2-25.6 18.9-36.2 29c-44.1 42.3-61.6 90.2-65.9 130.3l-40.1-40.1c-6.1-6.1-6.3-15.9-.4-22.2l60.4-65c18.5-20 16.8-51.4-3.9-69.1L130.4 11.9l-9.7-8.4-10.3 7.7-5 3.7c-38.6 29-42.9 85.2-9.4 119.7L81.3 150.5c-17.6 18.9-17 48.3 1.2 66.6l50.3 50.3-20.7 30.1L73.9 259.3c-18.7-18.7-49.1-18.7-67.9 0l-1.4 1.4 22.6 22.6 1.4-1.4c6.2-6.2 16.4-6.2 22.6 0l42.3 42.3-24.1 35c-3.8 5.5-9.9 8.7-16.6 8.7c-11.1 0-20.1-9-20.1-20.1l0-11.9 0-16-32 0 0 16 0 11.9C.9 376.7 24.2 400 53 400c17.2 0 33.2-8.4 42.9-22.6l20.7-30.1 48.1 48.1-29.5 20.3c-14.6 10-23.2 26.7-22.9 44.4c.5 28.8 24 52 52.8 52l11.7 0 16 0 0-32-16 0-11.7 0c-11.4 0-20.7-9.1-20.8-20.5c-.1-7 3.3-13.6 9-17.5l34.4-23.6 42.3 42.3c6.2 6.2 6.2 16.4 0 22.6l-1.4 1.4 22.6 22.6 1.4-1.4c18.7-18.7 18.7-49.1 0-67.9l-38.1-38.1 30.1-20.7 50.3 50.3c18.3 18.3 47.7 18.8 66.6 1.2L377.4 416c34.5 33.5 90.7 29.2 119.7-9.4l3.7-5 7.7-10.3-8.4-9.7-26.3-30.7c-17.7-20.7-49.1-22.5-69.1-3.9l-65 60.4c-6.3 5.9-16.1 5.7-22.2-.4l-40.1-40.1c40.1-4.4 88-21.9 130.3-65.9c10.1-10.5 19.8-22.5 29-36.1l54 7.1 19.9 2.6-1.9-20-12.8-136-.4 0c6.6-29.8 11.6-62.8 14.8-99.6zm-39 179.5l3.7 39-20.4-2.7c5.9-11.2 11.5-23.3 16.7-36.3zM191.5 376.9l-56.4-56.4 38.1-55.4L176 261l0-5c0-36.4 12.3-85.5 57.3-128.7c43-41.2 117.3-78.3 243.3-92c-13.6 126-50.7 200.3-92 243.3C341.5 323.7 292.4 336 256 336l-5 0-4.1 2.8-55.4 38.1zM277.5 57.3L275.1 37l38.5 3.6c-12.9 5.2-25 10.7-36.1 16.6zM117.8 111.1c-17.4-19.2-16.2-48.5 1.8-66.3l20.6 17.7c6.9 5.9 7.5 16.4 1.3 23l-23.8 25.6zm283 283l25.6-23.8c6.7-6.2 17.1-5.6 23 1.3l17.7 20.6c-17.8 18.1-47.2 19.2-66.3 1.8zM240.9 320a16 16 0 1 0 -32 0 16 16 0 1 0 32 0zm-48-16a16 16 0 1 0 0-32 16 16 0 1 0 0 32z"/></svg>