<svg xmlns="http://www.w3.org/2000/svg" viewBox="0 0 512 512"><!--! Font Awesome Pro 6.6.0 by @fontawesome - https://fontawesome.com License - https://fontawesome.com/license (Commercial License) Copyright 2024 Fonticons, Inc. --><path d="M476 352l20 32-37.7 0L336 384l-61.1 97.8L256 512l-18.9-30.2L176 384 53.7 384 16 384l20-32 60-96L36 160 16 128l37.7 0L176 128l61.1-97.8L256 0l18.9 30.2L336 128l122.3 0 37.7 0-20 32-60 96 60 96zM397.1 225.8L438.3 160 356 160l41.1 65.8zM318.3 160l-124.5 0-60 96 60 96 124.5 0 60-96-60-96zm-20-32L256 60.4 213.7 128l84.5 0zM156 160l-82.3 0 41.1 65.8L156 160zM114.9 286.2L73.7 352l82.3 0-41.1-65.8zM356 352l82.3 0-41.1-65.8L356 352zM213.7 384L256 451.6 298.3 384l-84.5 0z"/></svg>