<svg xmlns="http://www.w3.org/2000/svg" viewBox="0 0 576 512"><!--! Font Awesome Pro 6.6.0 by @fontawesome - https://fontawesome.com License - https://fontawesome.com/license (Commercial License) Copyright 2024 Fonticons, Inc. --><path d="M32 32l0 16 0 149.1 116.4-19.4C175.8 128.9 228.1 96 288 96s112.2 32.9 139.6 81.7L544 197.1 544 48l0-16 32 0 0 16 0 154.4 0 13.6 0 80 0 13.6L576 464l0 16-32 0 0-16 0-149.1L427.6 334.3C400.2 383.1 347.9 416 288 416s-112.2-32.9-139.6-81.7L32 314.9 32 464l0 16L0 480l0-16L0 309.6 0 296l0-80 0-13.6L0 48 0 32l32 0zM448 256c0 15.1-2.1 29.6-6 43.4l102-17 0-52.9-102-17c3.9 13.8 6 28.4 6 43.4zM32 282.4l102 17c-3.9-13.8-6-28.4-6-43.4s2.1-29.6 6-43.4l-102 17 0 52.9zM288 384a128 128 0 1 0 0-256 128 128 0 1 0 0 256zm62-144l34 0 16 0 0 32-16 0-34 0c-1.5 5.9-3.8 11.4-6.8 16.5l24.1 24.1 11.3 11.3-22.6 22.6-11.3-11.3-24.1-24.1c-5.1 3-10.6 5.3-16.5 6.8l0 34 0 16-32 0 0-16 0-34c-5.9-1.5-11.4-3.8-16.5-6.8l-24.1 24.1-11.3 11.3-22.6-22.6 11.3-11.3 24.1-24.1c-3-5.1-5.3-10.6-6.8-16.5l-34 0-16 0 0-32 16 0 34 0c1.5-5.9 3.8-11.4 6.8-16.5l-24.1-24.1-11.3-11.3 22.6-22.6 11.3 11.3 24.1 24.1c5.1-3 10.6-5.3 16.5-6.8l0-34 0-16 32 0 0 16 0 34c5.9 1.5 11.4 3.8 16.5 6.8l24.1-24.1 11.3-11.3 22.6 22.6-11.3 11.3-24.1 24.1c3 5.1 5.3 10.6 6.8 16.5zm-62 48a32 32 0 1 0 0-64 32 32 0 1 0 0 64z"/></svg>