<svg xmlns="http://www.w3.org/2000/svg" viewBox="0 0 576 512"><!--! Font Awesome Pro 6.6.0 by @fontawesome - https://fontawesome.com License - https://fontawesome.com/license (Commercial License) Copyright 2024 Fonticons, Inc. --><path d="M483.4 224c-19.7 0-37.7-6.5-52.2-17.2c-4.7-3.5-9.1-7.4-13-11.8c-3.9 4.3-8.2 8.2-12.9 11.7c-14.5 10.8-32.5 17.3-52.3 17.3c-19.6 0-37.5-6.4-52-17c-4.8-3.5-9.2-7.5-13.2-11.9c-4 4.4-8.4 8.4-13.2 12c-14.4 10.6-32.4 17-52 17c-19.6 0-37.5-6.4-52-17c-4.8-3.5-9.2-7.5-13.2-11.9c-4 4.4-8.4 8.4-13.2 11.9c-14.4 10.6-32.4 17-52 17c-4.1 0-8.2-.3-12.1-.8c-55.3-7.4-81.5-72.6-51.9-119.4L96 0 480 0l67.6 103.8c29.7 46.9 3.4 112-52.1 119.4c-4 .5-7.9 .8-12.1 .8zm-399-32.5c2.7 .3 5.4 .5 7.9 .5c16.6 0 31.3-7.2 41.5-18.4l23.7-26.3 23.7 26.3c10.2 11.2 24.9 18.4 41.4 18.4c16.6 0 31.3-7.2 41.4-18.4l23.7-26.3 23.7 26.3c10.2 11.2 24.9 18.4 41.4 18.4c16.6 0 31.3-7.2 41.4-18.4l23.7-26.2 23.7 26.1c10.3 11.3 25 18.5 41.5 18.5c2.7 0 5.3-.2 7.9-.5c29.5-3.9 47.9-40.9 29.3-70.4L462.7 32 113.3 32 55.3 121.1c-18.5 29.5-.1 66.4 29.2 70.4zM96 256l0 96 384 0 0-96 32 0 0 96 0 32 0 96 0 32-32 0L96 512l-32 0 0-32 0-96 0-32 0-96 32 0zm0 128l0 96 384 0 0-96L96 384z"/></svg>