<svg xmlns="http://www.w3.org/2000/svg" viewBox="0 0 512 512"><!--! Font Awesome Pro 6.6.0 by @fontawesome - https://fontawesome.com License - https://fontawesome.com/license (Commercial License) Copyright 2024 Fonticons, Inc. --><path d="M128 0l16 0L368 0l16 0 0 16 0 80 96 0 32 0 0 32 0 320 0 32-32 0L32 480 0 480l0-32L0 128 0 96l32 0 96 0 0-80 0-16zM352 32L160 32l0 64 192 0 0-64zm16 96l-224 0-16 0 0 320 256 0 0-320-16 0zM96 128l-64 0 0 320 64 0 0-320zM416 448l64 0 0-320-64 0 0 320zM224 176l64 0 16 0 0 16 0 48 48 0 16 0 0 16 0 64 0 16-16 0-48 0 0 48 0 16-16 0-64 0-16 0 0-16 0-48-48 0-16 0 0-16 0-64 0-16 16 0 48 0 0-48 0-16 16 0zm16 80l0 16-16 0-48 0 0 32 48 0 16 0 0 16 0 48 32 0 0-48 0-16 16 0 48 0 0-32-48 0-16 0 0-16 0-48-32 0 0 48z"/></svg>