<svg xmlns="http://www.w3.org/2000/svg" viewBox="0 0 640 512"><!--! Font Awesome Pro 6.6.0 by @fontawesome - https://fontawesome.com License - https://fontawesome.com/license (Commercial License) Copyright 2024 Fonticons, Inc. --><path d="M178.7 15.5L256 57.1l77.3-41.6L362 0l9.4 31.3 25.2 84.1 84.1 25.2L512 150l-15.5 28.8L488 194.6c-7.7-1.7-15.7-2.6-24-2.6c-3.8 0-7.6 .2-11.3 .6l12.5-23.2L387.4 146l-16.5-5-5-16.5L342.7 46.8 271.2 85.3 256 93.5l-15.2-8.2L169.3 46.8 146 124.6l-5 16.5-16.5 5L46.8 169.3l38.5 71.5L93.5 256l-8.2 15.2L46.8 342.7 124.6 366l16.5 5 5 16.5 23.3 77.8 71.5-38.5 15.2-8.2 15.2 8.2 71.5 38.5 5.2-17.2 33.4 0-9.8 32.7L362 512l-28.8-15.5L256 454.9l-77.3 41.6L150 512l-9.4-31.3-25.2-84.1L31.3 371.4 0 362l15.5-28.8L57.1 256 15.5 178.7 0 150l31.3-9.4 84.1-25.2 25.2-84.1L150 0l28.8 15.5zM256 128c61.3 0 112.6 43.1 125.1 100.7c-8 8.8-14.6 18.9-19.5 29.9c-3.3 .8-6.6 1.8-9.7 2.9c.1-1.8 .2-3.7 .2-5.5c0-53-43-96-96-96s-96 43-96 96s43 96 96 96c11.3 0 22.1-1.9 32.2-5.5c-.1 1.8-.2 3.7-.2 5.5l0 28c-10.2 2.6-21 4-32 4c-70.7 0-128-57.3-128-128s57.3-128 128-128zM416 304c0 .7 0 1.4 0 2.1l1 23.7-22.3-7.9c-3.3-1.2-6.9-1.8-10.7-1.8c-17.7 0-32 14.3-32 32l0 32 32 0 176 0 48 0 0-48c0-26.5-21.5-48-48-48c-9.9 0-19.1 3-26.7 8.1l-17.2 11.5-6.8-19.5C502.7 269.4 484.9 256 464 256c-26.5 0-48 21.5-48 48zm48-80c28.5 0 53.4 14.8 67.6 37.2c8.8-3.4 18.4-5.2 28.4-5.2c44.2 0 80 35.8 80 80l0 64 0 16-16 0-64 0-176 0-48 0-16 0 0-16 0-48c0-35.3 28.7-64 64-64c.5 0 1.1 0 1.6 0c7.4-36.5 39.7-64 78.4-64z"/></svg>