<svg xmlns="http://www.w3.org/2000/svg" viewBox="0 0 640 512"><!--! Font Awesome Pro 6.6.0 by @fontawesome - https://fontawesome.com License - https://fontawesome.com/license (Commercial License) Copyright 2024 Fonticons, Inc. --><path d="M202.2 58L179.8 27.2 160 0 140.2 27.2 117.8 58 80.1 52.1 46.9 46.9l5.2 33.2L58 117.8 27.2 140.2 0 160l27.2 19.8L58 202.2l-5.9 37.7-5.2 33.2 33.2-5.2 37.7-5.9 22.5 30.8L160 320l19.8-27.2L202.2 262l37.7 5.9 33.2 5.2-5.2-33.2L262 202.2l30.8-22.5L320 160l-27.2-19.8L262 117.8l5.9-37.7 5.2-33.2-33.2 5.2L202.2 58zm32.5 27.3l-4.3 27.5-3 19.3 15.8 11.5L265.6 160l-22.5 16.4-15.8 11.5 3 19.3 4.3 27.5-27.5-4.3-19.3-3-11.5 15.8L160 265.6l-16.4-22.5-11.5-15.8-19.3 3-27.5 4.3 4.3-27.5 3-19.3L76.8 176.4 54.4 160l22.5-16.4 15.8-11.5-3-19.3L85.3 85.3l27.5 4.3 19.3 3 11.5-15.8L160 54.4l16.4 22.5 11.5 15.8 19.3-3 27.5-4.3zm-41.6 75.6a32 32 0 1 0 -63.9 0 32 32 0 1 0 63.9 0zm303.7 .1c0-17.6 14.3-32 32-32s32 14.3 32 32l0 49.5c-11.4 2.5-21.7 7.9-29.9 16.2c-11.9 12.1-18 28.9-18 48c0 14.4 7.5 30.9 16.5 45.3c9.4 15.1 22.3 30.7 36.5 44.1l11 10.4 11-10.4c14.2-13.4 27.1-29.1 36.5-44.2c9-14.4 16.5-30.9 16.5-45.2c0-19.1-6.1-35.9-18-48c-8.2-8.3-18.5-13.7-29.9-16.2l0-49.5c0-35.3-28.6-64-64-64s-64 28.6-64 64l0 43.9c-11.4-7.6-25.2-12.1-39.9-12.1c-39.7 0-71.9 32.2-71.9 71.9l0 9.6c-11.4 2.5-21.7 7.9-29.9 16.2c-11.9 12.1-18 28.9-18 48c0 14.4 7.5 30.9 16.5 45.3c9.5 15.1 22.3 30.7 36.5 44.1l11 10.4 11-10.4c14.2-13.4 27.1-29.1 36.5-44.2c9-14.4 16.5-30.9 16.5-45.2c0-19.1-6.1-35.9-18-48c-8.2-8.3-18.5-13.7-29.9-16.2l0-9.6c0-22.1 17.9-39.9 39.9-39.9s39.9 17.9 39.9 39.9l0 15.9 0 199.5-447.5 0-16 0 0 32 16 0 463.5 0 143.9 0 16 0 0-32-16 0-127.9 0 0-199.5 0-15.9 0-103.8zM368.9 304.6c10.6 0 18.2 3.4 23.2 8.4c5 5 8.8 13.2 8.8 25.5c0 4.9-3.3 14.9-11.6 28.3c-5.5 8.8-12.5 18-20.3 26.7c-7.9-8.7-14.9-17.8-20.3-26.6c-8.3-13.3-11.6-23.3-11.6-28.3c0-12.3 3.8-20.5 8.8-25.5c5-5 12.6-8.4 23.2-8.4zM597 302.9c-5.5 8.8-12.5 18-20.3 26.7c-7.9-8.7-14.9-17.8-20.3-26.6c-8.3-13.3-11.6-23.3-11.6-28.3c0-12.3 3.8-20.5 8.8-25.5c5-5 12.6-8.4 23.2-8.4s18.2 3.4 23.2 8.4c5 5 8.8 13.2 8.8 25.5c0 4.9-3.3 14.9-11.6 28.3z"/></svg>