<svg xmlns="http://www.w3.org/2000/svg" viewBox="0 0 512 512"><!--! Font Awesome Pro 6.6.0 by @fontawesome - https://fontawesome.com License - https://fontawesome.com/license (Commercial License) Copyright 2024 Fonticons, Inc. --><path d="M178.7 15.5L256 57.1l77.3-41.6L362 0l9.4 31.3 25.2 84.1 84.1 25.2L512 150l-15.5 28.8L454.9 256l41.6 77.3L512 362l-31.3 9.4-84.1 25.2-25.2 84.1L362 512l-28.8-15.5L256 454.9l-77.3 41.6L150 512l-9.4-31.3-25.2-84.1L31.3 371.4 0 362l15.5-28.8L57.1 256 15.5 178.7 0 150l31.3-9.4 84.1-25.2 25.2-84.1L150 0l28.8 15.5zm92.5 69.8L256 93.5l-15.2-8.2L169.3 46.8 146 124.6l-5 16.5-16.5 5L46.8 169.3l38.5 71.5L93.5 256l-8.2 15.2L46.8 342.7 124.6 366l16.5 5 5 16.5 23.3 77.8 71.5-38.5 15.2-8.2 15.2 8.2 71.5 38.5L366 387.4l5-16.5 16.5-5 77.8-23.3-38.5-71.5L418.5 256l8.2-15.2 38.5-71.5L387.4 146l-16.5-5-5-16.5L342.7 46.8 271.2 85.3zM256 128a128 128 0 1 1 0 256 128 128 0 1 1 0-256zm96 128a96 96 0 1 0 -192 0 96 96 0 1 0 192 0z"/></svg>