<svg xmlns="http://www.w3.org/2000/svg" viewBox="0 0 576 512"><!--! Font Awesome Pro 6.6.0 by @fontawesome - https://fontawesome.com License - https://fontawesome.com/license (Commercial License) Copyright 2024 Fonticons, Inc. --><path d="M281.9 238.3l259.6 86.2L576 336l-6.3-35.8L556 222.6C539.8 130.9 460.1 64 366.9 64L209.1 64C115.9 64 36.2 130.9 20 222.6L6.4 299.9 0 336l34.6-12 247.3-85.7zM41 287.9l10.5-59.7c12.4-70.1 69.2-122.7 138.4-131L86.4 272.2 41 287.9zm230.4-79.9L133.2 256 227.7 96l110.9 0-66 111.7-1.2 .4zm35.3 4.8L375.6 96.2c33.9 1.8 65.3 14.3 90.6 34.3L399.4 243.6l-92.6-30.8zm123.7 41.1l59.3-100.4c17.4 20.9 29.7 46.3 34.7 74.7l10.7 60.5L430.5 253.9zM32.2 358.7c3.4 49.9 45 89.3 95.8 89.3c19.2 0 37-5.6 52-15.3c15 9.7 32.8 15.3 52 15.3c20.9 0 40.2-6.7 56-18c15.8 11.3 35.1 18 56 18c19.2 0 37-5.6 52-15.3c15 9.7 32.8 15.3 52 15.3c50.7 0 92.2-39.2 95.7-89L512 348.5l0 3.5c0 35.3-28.7 64-64 64c-12.8 0-24.7-3.7-34.6-10.2L396 394.6l-17.4 11.2c-10 6.4-21.8 10.2-34.6 10.2c-14 0-26.8-4.4-37.3-12L288 390.6 269.3 404c-10.5 7.6-23.3 12-37.3 12c-12.8 0-24.7-3.7-34.6-10.2L180 394.6l-17.4 11.2c-10 6.4-21.8 10.2-34.6 10.2c-35.3 0-64-28.7-64-64l0-4.3-31.8 11z"/></svg>