<svg xmlns="http://www.w3.org/2000/svg" viewBox="0 0 640 512"><!--! Font Awesome Pro 6.6.0 by @fontawesome - https://fontawesome.com License - https://fontawesome.com/license (Commercial License) Copyright 2024 Fonticons, Inc. --><path d="M432 32c-26.5 0-48 21.5-48 48l0 16 0 8-6.4 4.8-64 48-4.3 3.2-5.3 0-32 0c-61.9 0-112 50.1-112 112l0 16 0 16-16 0-48 0-12.1 0-3.3-11.6L55.6 205l-5 8.4C38.4 233.7 32 256.9 32 280.6C32 346.6 85.4 400 151.4 400l40.6 0 0-32 0-16 32 0 0 16 0 41.4L294.6 480l89.4 0 0-8c0-13.3-10.7-24-24-24l-8 0-11.5 0-3.6-10.9-16-48-2.3-6.8 3.6-6.2L352 323.8l0-11.8c0-30.9-25.1-56-56-56l-24 0 0-32 24 0c48.6 0 88 39.4 88 88l0 16 0 4.2-2.1 3.7-28.5 49.8 10.1 30.4C392.8 418 416 442.3 416 472l0 24 0 16-16 0-112 0-6.6 0-4.7-4.7L201.4 432l-50 0C67.8 432 0 364.2 0 280.6c0-29.5 8-58.4 23.2-83.7l17.5-29.2 4.7-7.8 9.1 0 9.6 0 12.1 0 3.3 11.6L108.1 272l19.9 0c0-79.5 64.5-144 144-144l26.7 0L352 88l0-8c0-44.2 35.8-80 80-80l2.9 0L528 0l10.4 0 4.2 9.5 10 22.5 7.4 0c44.2 0 80 35.8 80 80l0 64 0 16-16 0-16 0-9.4 0-27.3 27.3-4.7 4.7-6.6 0-89.4 0L429 265.6l42.9 24.5 8.1 4.6 0 9.3 0 32 0 16-32 0 0-16 0-22.7-33.3-19c-2.3-15.8-7.8-30.7-15.7-43.9l53.7-53.7 4.7-4.7 6.6 0 73.4 0-4.7-4.7L505.4 160 480 160l-16 0 0-32 16 0 32 0 6.6 0 4.7 4.7L550.6 160l34.7 0 6.6 0 16 0 0-48c0-26.5-21.5-48-48-48l-17.8 0-10.4 0-4.2-9.5L517.6 32l-82.7 0L432 32zm48 48a16 16 0 1 1 32 0 16 16 0 1 1 -32 0z"/></svg>