<svg xmlns="http://www.w3.org/2000/svg" viewBox="0 0 640 512"><!--! Font Awesome Pro 6.6.0 by @fontawesome - https://fontawesome.com License - https://fontawesome.com/license (Commercial License) Copyright 2024 Fonticons, Inc. --><path d="M352 64l0 96 128 0 0-96L352 64zm-32 0L192 64l0 96 128 0 0-96zM160 64L32 64l0 384 128 0 0-384zm32 384l128 0 0-96-128 0 0 96zm160 0l32 0 0 32L32 480 0 480l0-32L0 64 0 32l32 0 448 0 32 0 0 32 0 97.1c-24.1 3.5-45.8 14.6-62.4 30.9L352 192l0 128 32 0 0 32-32 0 0 96zM320 320l0-128-128 0 0 128 128 0zm160-48l0 48 48 0 48 0 32 0 32 0 0 32 0 128 0 32-32 0-160 0-32 0 0-32 0-128 0-32 32 0 0-48c0-44.2 35.8-80 80-80s80 35.8 80 80l-32 0c0-26.5-21.5-48-48-48s-48 21.5-48 48zM448 480l160 0 0-128-160 0 0 128z"/></svg>