<svg xmlns="http://www.w3.org/2000/svg" viewBox="0 0 512 512"><!--! Font Awesome Pro 6.6.0 by @fontawesome - https://fontawesome.com License - https://fontawesome.com/license (Commercial License) Copyright 2024 Fonticons, Inc. --><path d="M352 64l0 96 128 0 0-96L352 64zm-32 0L192 64l0 96 128 0 0-96zM160 64L32 64l0 96 128 0 0-96zM32 192l0 128 128 0 0-128L32 192zm0 160l0 96 128 0 0-96L32 352zm160 96l128 0 0-96-128 0 0 96zm160 0l128 0 0-96-128 0 0 96zM480 320l0-128-128 0 0 128 128 0zM0 32l32 0 448 0 32 0 0 32 0 384 0 32-32 0L32 480 0 480l0-32L0 64 0 32zM192 320l128 0 0-128-128 0 0 128z"/></svg>