<svg xmlns="http://www.w3.org/2000/svg" viewBox="0 0 640 512"><!--! Font Awesome Pro 6.6.0 by @fontawesome - https://fontawesome.com License - https://fontawesome.com/license (Commercial License) Copyright 2024 Fonticons, Inc. --><path d="M32 96l0 320 576 0 0-320L32 96zM0 64l32 0 576 0 32 0 0 32 0 320 0 32-32 0L32 448 0 448l0-32L0 96 0 64zm96 96l0 64 224 0 0-64L96 160zM64 128l32 0 224 0 32 0 0 32 0 64 0 32-32 0L96 256l-32 0 0-32 0-64 0-32zm0 224l16 0 256 0 16 0 0 32-16 0L80 384l-16 0 0-32zm320 0l16 0 160 0 16 0 0 32-16 0-160 0-16 0 0-32zM96 288l0 32-32 0 0-32 32 0zm32 0l32 0 0 32-32 0 0-32zm96 0l0 32-32 0 0-32 32 0zm32 0l32 0 0 32-32 0 0-32zm96 0l0 32-32 0 0-32 32 0z"/></svg>