<svg xmlns="http://www.w3.org/2000/svg" viewBox="0 0 576 512"><!--! Font Awesome Pro 6.6.0 by @fontawesome - https://fontawesome.com License - https://fontawesome.com/license (Commercial License) Copyright 2024 Fonticons, Inc. --><path d="M224 64a192 192 0 1 1 0 384 192 192 0 1 1 0-384zM339.4 448C404.5 408.8 448 337.5 448 256C448 132.3 347.7 32 224 32S0 132.3 0 256S100.3 480 224 480l336 0 16 0 0-32-16 0-220.6 0zM224 192a64 64 0 1 1 0 128 64 64 0 1 1 0-128zm0 160a96 96 0 1 0 0-192 96 96 0 1 0 0 192z"/></svg>