<svg xmlns="http://www.w3.org/2000/svg" viewBox="0 0 576 512"><!--! Font Awesome Pro 6.6.0 by @fontawesome - https://fontawesome.com License - https://fontawesome.com/license (Commercial License) Copyright 2024 Fonticons, Inc. --><path d="M101.2 4.2l21.5 23.7L65.4 80 464 80c61.9 0 112 50.1 112 112l0 48 0 16-32 0 0-16 0-48c0-44.2-35.8-80-80-80L65.4 112l57.4 52.2-21.5 23.7-88-80L.2 96l13-11.8 88-80zM96.3 512L64 512l4.6-32L96 288 288 160 480 288l27.4 192 4.6 32-32.3 0L96.3 512zm269-32L304 377.8 304 480l61.3 0zM272 320.3l0-.2c0-.1 0-.2 0-.3l0-110.6L125.7 306.7 100.9 480 272 480l0-159.7zm178.3-13.6L304 209.1l0 106.4 93.7 156.2 4.9 8.2 72.4 0L450.3 306.7z"/></svg>