<svg xmlns="http://www.w3.org/2000/svg" viewBox="0 0 576 512"><!--! Font Awesome Pro 6.6.0 by @fontawesome - https://fontawesome.com License - https://fontawesome.com/license (Commercial License) Copyright 2024 Fonticons, Inc. --><path d="M214.6 129.2l-21.4-23.8-11.9 10.7-53.3 48L128 16l0-16L96 0l0 16 0 148.1-53.3-48L30.8 105.4 9.4 129.2l11.9 10.7 80 72 10.7 9.6 10.7-9.6 80-72 11.9-10.7zM64 512l32.3 0 383.4 0 32.3 0-4.6-32L480 288 288 160 96 288 68.6 480 64 512zm240-32l0-102.2L365.3 480 304 480zm-32 0l-171.1 0 24.8-173.3L272 209.1l0 110.6c0 .2 0 .4 0 .6L272 480zm32-270.9l146.3 97.6L475.1 480l-72.4 0-4.9-8.2L304 315.6l0-106.4zm250.7-69.2l11.9-10.7-21.4-23.8-11.9 10.7-53.3 48L480 16l0-16L448 0l0 16 0 148.1-53.3-48-11.9-10.7-21.4 23.8 11.9 10.7 80 72 10.7 9.6 10.7-9.6 80-72z"/></svg>