<svg xmlns="http://www.w3.org/2000/svg" viewBox="0 0 640 512"><!--! Font Awesome Pro 6.6.0 by @fontawesome - https://fontawesome.com License - https://fontawesome.com/license (Commercial License) Copyright 2024 Fonticons, Inc. --><path d="M0 64L0 96 0 416l0 32 32 0 576 0 32 0 0-32 0-80 0-32-16 0c-26.5 0-48-21.5-48-48s21.5-48 48-48l16 0 0-32 0-80 0-32-32 0L32 64 0 64zM608 416L32 416 32 96l576 0 0 81.6c-36.5 7.4-64 39.7-64 78.4s27.5 71 64 78.4l0 81.6zM480 160a16 16 0 1 0 -32 0 16 16 0 1 0 32 0zm0 64a16 16 0 1 0 -32 0 16 16 0 1 0 32 0zm-16 80a16 16 0 1 0 0-32 16 16 0 1 0 0 32zm16 48a16 16 0 1 0 -32 0 16 16 0 1 0 32 0z"/></svg>