<svg xmlns="http://www.w3.org/2000/svg" viewBox="0 0 640 512"><!--! Font Awesome Pro 6.6.0 by @fontawesome - https://fontawesome.com License - https://fontawesome.com/license (Commercial License) Copyright 2024 Fonticons, Inc. --><path d="M0 96L0 64l32 0 576 0 32 0 0 32 0 80 0 32-16 0c-26.5 0-48 21.5-48 48s21.5 48 48 48l16 0 0 32 0 80 0 32-32 0L32 448 0 448l0-32L0 96zM32 416l576 0 0-81.6c-36.5-7.4-64-39.7-64-78.4s27.5-71 64-78.4L608 96 32 96l0 320zM464 144a16 16 0 1 1 0 32 16 16 0 1 1 0-32zm0 64a16 16 0 1 1 0 32 16 16 0 1 1 0-32zm-16 80a16 16 0 1 1 32 0 16 16 0 1 1 -32 0zm16 48a16 16 0 1 1 0 32 16 16 0 1 1 0-32zM176 128l56 0 9.2 0 4.6 7.9 42 72.1 31.1 0c20.3 0 39.8 8.1 54.1 22.4c14.1 14.1 14.1 37 0 51.2c-14.4 14.4-33.8 22.4-54.1 22.4l-31.1 0-42 72.1-4.6 7.9-9.2 0-56 0-22.2 0 7-21.1L180.5 304l-4.5 0-19.2 25.6L152 336l-8 0-40 0-20.5 0 5-19.9 15-60.1-15-60.1-5-19.9 20.5 0 40 0 8 0 4.8 6.4L176 208l4.5 0-19.6-58.9-7-21.1 22.2 0zm41.8 90.9l7 21.1-22.2 0L168 240l-8 0-4.8-6.4L136 208l-11.5 0 11 44.1 1 3.9-1 3.9-11 44.1 11.5 0 19.2-25.6L160 272l8 0 34.7 0 22.2 0-7 21.1L198.2 352l24.6 0 42-72.1 4.6-7.9 9.2 0 40.3 0c11.8 0 23.1-4.7 31.5-13c1.6-1.6 1.6-4.3 0-5.9c-8.4-8.4-19.7-13-31.5-13l-40.3 0-9.2 0-4.6-7.9-42-72.1-24.6 0 19.6 58.9z"/></svg>