<svg xmlns="http://www.w3.org/2000/svg" viewBox="0 0 512 512"><!--! Font Awesome Pro 6.6.0 by @fontawesome - https://fontawesome.com License - https://fontawesome.com/license (Commercial License) Copyright 2024 Fonticons, Inc. --><path d="M256 0L240 0l0 16 0 96 0 16 32 0 0-16 0-79.4C388.2 40.8 480 137.7 480 256c0 123.7-100.3 224-224 224S32 379.7 32 256c0-61.9 25.1-117.8 65.6-158.4L75 75C28.7 121.3 0 185.3 0 256C0 397.4 114.6 512 256 512s256-114.6 256-256S397.4 0 256 0zM171.3 148.7L160 137.4 137.4 160l11.3 11.3 96 96L256 278.6 278.6 256l-11.3-11.3-96-96z"/></svg>