<svg xmlns="http://www.w3.org/2000/svg" viewBox="0 0 512 512"><!--! Font Awesome Pro 6.6.0 by @fontawesome - https://fontawesome.com License - https://fontawesome.com/license (Commercial License) Copyright 2024 Fonticons, Inc. --><path d="M453.9 393.1l-9.6 18 12.2 16.3L480 458.7l0 21.3-100 0L132 480 32 480l0-21.3 23.5-31.3 12.2-16.3-9.6-18C41.5 361.8 32 326.1 32 288C32 164.3 132.3 64 256 64s224 100.3 224 224c0 38.1-9.5 73.8-26.1 105.1zM512 480l0-32-29.9-39.9C501.2 372.3 512 331.4 512 288C512 146.6 397.4 32 256 32S0 146.6 0 288c0 43.4 10.8 84.3 29.9 120.1L0 448l0 32 0 32 32 0 100 0L380 512l100 0 32 0 0-32zM384 288c0 8.3-.8 16.3-2.3 24.2L319.9 292c.1-1.3 .1-2.7 .1-4c0-15.4-5.5-29.6-14.5-40.6l38.2-52.6C368.5 218.1 384 251.2 384 288zm-74.1 34.4l61.9 20.1c-18.3 38.8-55.6 66.9-99.8 72.4l0-65c15.9-4.1 29.4-14.1 38-27.6zm-70 27.5l0 65c-44.2-5.5-81.5-33.6-99.8-72.4l61.9-20.1c8.6 13.4 22.1 23.4 37.9 27.5zM128 288c0-36.8 15.5-69.9 40.3-93.3l28.1 38.7 10.1 13.9c-9.1 11-14.5 25.2-14.5 40.6c0 1.4 0 2.7 .1 4l-61.8 20.1c-1.5-7.8-2.3-15.9-2.3-24.2zm128-64c-8.3 0-16.3 1.6-23.6 4.5l-10-13.8-28.1-38.8C212.5 165.8 233.6 160 256 160s43.5 5.8 61.8 15.9l-38.2 52.6c-7.3-2.9-15.3-4.5-23.6-4.5zm160 64A160 160 0 1 0 96 288a160 160 0 1 0 320 0zm-192 0a32 32 0 1 1 64 0 32 32 0 1 1 -64 0z"/></svg>