<svg xmlns="http://www.w3.org/2000/svg" viewBox="0 0 448 512"><!--! Font Awesome Pro 6.6.0 by @fontawesome - https://fontawesome.com License - https://fontawesome.com/license (Commercial License) Copyright 2024 Fonticons, Inc. --><path d="M48.3 0L56 0 392 0l7.7 0 4.8 6 32 40 10 12.5-25 20L411.5 66 384.3 32 240 32l0 64 112 0 32 0 0 32 0 288 0 32-32 0-9.4 0 52.7 52.7L406.6 512l-45.3 0-64-64-146.8 0-64 64-45.2 0s0 0 0 0l11.3-11.3L105.4 448 96 448l-32 0 0-32 0-288 0-32 32 0 112 0 0-64L63.7 32 36.5 66l-10 12.5-25-20L11.5 46l32-40 4.8-6zM208 128L96 128l0 128 256 0 0-128-112 0-32 0zM96 416l256 0 0-128L96 288l0 128zm72-96a24 24 0 1 1 0 48 24 24 0 1 1 0-48zm88 24a24 24 0 1 1 48 0 24 24 0 1 1 -48 0z"/></svg>