<svg xmlns="http://www.w3.org/2000/svg" viewBox="0 0 384 512"><!--! Font Awesome Pro 6.6.0 by @fontawesome - https://fontawesome.com License - https://fontawesome.com/license (Commercial License) Copyright 2024 Fonticons, Inc. --><path d="M128 0L96 0l0 16 0 16L64 32 48 32l0 32 16 0 96 0 16 0 0-32-16 0-32 0 0-16 0-16zM288 0L256 0l0 16 0 16-32 0-16 0 0 32 16 0 96 0 16 0 0-32-16 0-32 0 0-16 0-16zM64 96L48 96l0 32 16 0 96 0 16 0 0-32-16 0L64 96zm160 0l-16 0 0 32 16 0 96 0 16 0 0-32-16 0-96 0zM16 160L0 160l0 32 16 0 16 0 0 288-16 0L0 480l0 32 16 0 32 0 288 0 32 0 16 0 0-32-16 0-16 0 0-288 16 0 16 0 0-32-16 0-32 0L48 160l-32 0zM64 480l0-288 256 0 0 288L64 480zM216 224l-6.6 0-4.7 4.7-104 104L96 337.4l0 6.6 0 8 0 16 16 0 38.3 0-6.2 62.4L142.3 448l17.7 0 8 0 6.6 0 4.7-4.7 104-104 4.7-4.7 0-6.6 0-8 0-16-16 0-38.3 0 6.2-62.4 1.8-17.6L224 224l-8 0zM142.6 336l61.9-61.9-4.4 44.3L198.3 336l17.7 0 25.4 0-61.9 61.9 4.4-44.3 1.8-17.6L168 336l-25.4 0z"/></svg>