<svg xmlns="http://www.w3.org/2000/svg" viewBox="0 0 512 512"><!--! Font Awesome Pro 6.6.0 by @fontawesome - https://fontawesome.com License - https://fontawesome.com/license (Commercial License) Copyright 2024 Fonticons, Inc. --><path d="M480 16l0-16L448 0l0 16 0 16-16 0-16 0 0 32 16 0 16 0 0 16 0 16 32 0 0-16 0-16 16 0 16 0 0-32-16 0-16 0 0-16zM64 112l0-16L32 96l0 16 0 16-16 0L0 128l0 32 16 0 16 0 0 16 0 16 32 0 0-16 0-16 16 0 16 0 0-32-16 0-16 0 0-16zM256 32a24 24 0 1 1 0 48 24 24 0 1 1 0-48zm0 80A56 56 0 1 0 256 0a56 56 0 1 0 0 112zM416 448l-16 0-288 0-16 0 0 16 0 32 0 16 32 0 0-16 0-16 256 0 0 16 0 16 32 0 0-16 0-32 0-16zM160 128l0 32 16 0 160 0 16 0 0-32-16 0-160 0-16 0zm-32 64l0 32 16 0 224 0 16 0 0-32-16 0-224 0-16 0zM96 256l0 32 16 0 288 0 16 0 0-32-16 0-288 0-16 0zm64 64l0 32 16 0 160 0 16 0 0-32-16 0-160 0-16 0zm0 64l0 32 16 0 160 0 16 0 0-32-16 0-160 0-16 0z"/></svg>