<svg xmlns="http://www.w3.org/2000/svg" viewBox="0 0 448 512"><!--! Font Awesome Pro 6.6.0 by @fontawesome - https://fontawesome.com License - https://fontawesome.com/license (Commercial License) Copyright 2024 Fonticons, Inc. --><path d="M160 0l-8.9 0-4.7 7.5L111.1 64 64 64 32 64 0 64 0 96l32 0 0 384 0 32 32 0 320 0 32 0 0-32 0-384 32 0 0-32-32 0-32 0-47.1 0L301.6 7.5 296.9 0 288 0 160 0zM299.1 64L148.9 64l20-32 110.3 0 20 32zM64 480L64 96l320 0 0 384L64 480zM230.6 201.2l-21.4-23.8-11.9 10.7-80 72L104.1 272l13.2 11.9 80 72 11.9 10.7 21.4-23.8-11.9-10.7-49-44.1 70.3 0c26.5 0 48 21.5 48 48l0 40 0 16 32 0 0-16 0-40c0-44.2-35.8-80-80-80l-70.3 0 49-44.1 11.9-10.7z"/></svg>