<svg xmlns="http://www.w3.org/2000/svg" viewBox="0 0 448 512"><!--! Font Awesome Pro 6.6.0 by @fontawesome - https://fontawesome.com License - https://fontawesome.com/license (Commercial License) Copyright 2024 Fonticons, Inc. --><path d="M160 0l-8.9 0-4.7 7.5L111.1 64 64.1 64 32 64 0 64 0 96l34.3 0L64 512l320 0L413.7 96 448 96l0-32-32 0-32.1 0-47.1 0L301.6 7.5 296.9 0 288 0 160 0zM299.1 64L148.9 64l20-32 110.3 0 20 32zM93.8 480L66.4 96l315.3 0L354.2 480 93.8 480zm65.6-279.2l-22.6 22.6 11.3 11.3L201.4 288l-53.3 53.3-11.3 11.3 22.6 22.6 11.3-11.3L224 310.6l53.3 53.3 11.3 11.3 22.6-22.6-11.3-11.3L246.6 288l53.3-53.3 11.3-11.3-22.6-22.6-11.3 11.3L224 265.4l-53.3-53.3-11.3-11.3z"/></svg>