<svg xmlns="http://www.w3.org/2000/svg" viewBox="0 0 448 512"><!--! Font Awesome Pro 6.6.0 by @fontawesome - https://fontawesome.com License - https://fontawesome.com/license (Commercial License) Copyright 2024 Fonticons, Inc. --><path d="M160 0l-8.9 0-4.7 7.5L111.1 64 64 64 32 64 0 64 0 96l32 0 0 384 0 32 32 0 320 0 32 0 0-32 0-384 32 0 0-32-32 0-32 0-47.1 0L301.6 7.5 296.9 0 288 0 160 0zM299.1 64L148.9 64l20-32 110.3 0 20 32zM64 480L64 96l320 0 0 384L64 480zM331.3 235.3L342.6 224 320 201.4l-11.3 11.3L192 329.4l-52.7-52.7L128 265.4 105.4 288l11.3 11.3 64 64L192 374.6l11.3-11.3 128-128z"/></svg>