<svg xmlns="http://www.w3.org/2000/svg" viewBox="0 0 640 512"><!--! Font Awesome Pro 6.6.0 by @fontawesome - https://fontawesome.com License - https://fontawesome.com/license (Commercial License) Copyright 2024 Fonticons, Inc. --><path d="M352 0l16 0L624 0l16 0 0 32-16 0L384 32l0 346.6 36-9.3 .3-.1C433.6 322.4 476.8 288 528 288c61.9 0 112 50.1 112 112s-50.1 112-112 112c-60.7 0-110.2-48.3-111.9-108.6L28 503.5l-15.5 4-8-31 15.5-4 332-85.6 0-2.9 0-368 0-16zM608 400a80 80 0 1 0 -160 0 80 80 0 1 0 160 0zM225.7 128.2c36.4-9.8 73.6 4.8 94.3 33.7l0 75.5c-3.1-.4-6.3-.3-9.5 .6c-11.1 3-18.3 13.3-17.8 24.3l1.3 25.8-25 6.7L127.6 332.8l-25 6.7-11.8-23c-5-9.9-16.5-15.2-27.6-12.2c-12.8 3.4-20.4 16.6-17 29.4l15.5 58 32.5-8.7 30.9-8.3 .1 .2 153-41 30.9-8.3c0 0 0 .1 0 .1l10.9-2.9 0 33.1-2.6 .7-30.9 8.3c0 0 0-.1 0-.1l-30.9 8.3L133.5 405.8 102.6 414l-.1-.2-30.9 8.3-1.6 .4-30.9 8.3-8.3-30.9-15.5-58c-3.9-14.7-1.6-29.7 5.3-42l-6.4-24C1.7 229 29.5 180.8 76.5 168.2l149.2-40zm8.3 30.9l-149.2 40c-29.9 8-47.6 38.7-39.6 68.6l2.2 8.3c2.4-1 5-1.9 7.6-2.6c26-7 52.6 5.5 64.3 28.5L260.8 264c-1.3-25.8 15.5-49.9 41.4-56.9c.8-.2 1.6-.4 2.4-.6l-2.1-7.8c-8-29.9-38.7-47.6-68.6-39.6z"/></svg>