<svg xmlns="http://www.w3.org/2000/svg" viewBox="0 0 512 512"><!--! Font Awesome Pro 6.6.0 by @fontawesome - https://fontawesome.com License - https://fontawesome.com/license (Commercial License) Copyright 2024 Fonticons, Inc. --><path d="M320 237.2l0-72.4c-40.9-17.2-87.1-17.2-128 0l0 72.4L32 256 0 152.6C30.8 112.4 118.7 32 256 32s225.2 80.4 256 120.6L480 256 320 237.2zM160 164.8l0-21.3 19.6-8.2c48.9-20.5 103.9-20.5 152.7 0l19.6 8.2 0 21.3 0 44 105.3 12.4 19-61.3C442.3 122.3 367.1 64 256 64S69.7 122.3 35.7 159.8l19 61.3L160 208.7l0-44zM56 291.2l64 0 12.8 0 0 12.8 0 64 0 12.8-12.8 0-64 0-12.8 0 0-12.8 0-64 0-12.8 12.8 0zm12.8 64l38.4 0 0-38.4-38.4 0 0 38.4zM56 403.2l64 0 12.8 0 0 12.8 0 64 0 12.8-12.8 0-64 0-12.8 0 0-12.8 0-64 0-12.8 12.8 0zm12.8 64l38.4 0 0-38.4-38.4 0 0 38.4zm323.2-64l64 0 12.8 0 0 12.8 0 64 0 12.8-12.8 0-64 0-12.8 0 0-12.8 0-64 0-12.8 12.8 0zm12.8 64l38.4 0 0-38.4-38.4 0 0 38.4zm-249.6-64l12.8 0 176 0 12.8 0 0 12.8 0 64 0 12.8-12.8 0-176 0-12.8 0 0-12.8 0-64 0-12.8zm25.6 25.6l0 38.4 150.4 0 0-38.4-150.4 0zM155.2 291.2l12.8 0 64 0 12.8 0 0 12.8 0 64 0 12.8-12.8 0-64 0-12.8 0 0-12.8 0-64 0-12.8zm25.6 25.6l0 38.4 38.4 0 0-38.4-38.4 0zM280 291.2l64 0 12.8 0 0 12.8 0 64 0 12.8-12.8 0-64 0-12.8 0 0-12.8 0-64 0-12.8 12.8 0zm12.8 64l38.4 0 0-38.4-38.4 0 0 38.4zm86.4-64l12.8 0 64 0 12.8 0 0 12.8 0 64 0 12.8-12.8 0-64 0-12.8 0 0-12.8 0-64 0-12.8zm25.6 25.6l0 38.4 38.4 0 0-38.4-38.4 0z"/></svg>