<svg xmlns="http://www.w3.org/2000/svg" viewBox="0 0 512 512"><!--! Font Awesome Pro 6.6.0 by @fontawesome - https://fontawesome.com License - https://fontawesome.com/license (Commercial License) Copyright 2024 Fonticons, Inc. --><path d="M352 256l-32 0-192 0-32 0 0 32 0 160-64 0 0-256 288 0 32 0 0-32 0-50.7L466.7 224 352 338.7l0-50.7 0-32zm-32 96l0 32 32 0L489.4 246.6 512 224l-22.6-22.6L352 64l-32 0 0 32 0 32 0 32-32 0L32 160 0 160l0 32L0 448l0 32 32 0 64 0 32 0 0-32 0-128 0-32 32 0 128 0 32 0 0 32 0 32z"/></svg>