<svg xmlns="http://www.w3.org/2000/svg" viewBox="0 0 512 512"><!--! Font Awesome Pro 6.6.0 by @fontawesome - https://fontawesome.com License - https://fontawesome.com/license (Commercial License) Copyright 2024 Fonticons, Inc. --><path d="M160 256l32 0 192 0 32 0 0-32 0-160 64 0 0 256-288 0-32 0 0 32 0 50.7L45.3 288 160 173.3l0 50.7 0 32zm32-96l0-32-32 0L22.6 265.4 0 288l22.6 22.6L160 448l32 0 0-32 0-32 0-32 32 0 256 0 32 0 0-32 0-256 0-32-32 0-64 0-32 0 0 32 0 128 0 32-32 0-128 0-32 0 0-32 0-32z"/></svg>