<svg xmlns="http://www.w3.org/2000/svg" viewBox="0 0 576 512"><!--! Font Awesome Pro 6.6.0 by @fontawesome - https://fontawesome.com License - https://fontawesome.com/license (Commercial License) Copyright 2024 Fonticons, Inc. --><path d="M141.3 166.7l11.3-11.4c-11.3 11.4-11.3 11.4-11.3 11.4s0 0 0 0s0 0 0 0l.1 .1 .2 .2 .6 .5c.5 .4 1.1 1 1.9 1.6c1.6 1.3 3.8 3 6.7 5.1c5.9 4 14.5 9.1 26.3 14.1C200.7 198.4 236.7 208 288 208s87.3-9.6 110.9-19.6c11.8-5 20.4-10.1 26.3-14.1c2.9-2 5.1-3.7 6.7-5.1c.8-.7 1.4-1.2 1.9-1.6l.6-.5 .2-.2 .1-.1c0 0 0 0 0 0s0 0 0 0l-11.3-11.4 11.3 11.4c2.7-2.7 4.3-6.2 4.7-9.9c.7-8.1 .8-16 .2-23.7c30.2 8 55.1 18.1 73.1 29.4c23.1 14.4 31.2 28.3 31.2 39.1c0 7.9-4.2 17.4-16 27.9c-11.8 10.5-29.7 20.7-53.3 29.5c-47 17.7-113 29-186.7 29s-139.7-11.3-186.7-29c-23.6-8.9-41.5-19-53.3-29.5c-11.8-10.5-16-20-16-27.9c0-10.9 8.2-24.7 31.2-39.1c18-11.3 42.9-21.4 73.1-29.4c-.6 7.7-.5 15.6 .2 23.7c.3 3.7 2 7.3 4.7 9.9zm2.3-68.3c-38.9 8.9-72.5 21.4-97.3 36.9C20.1 151.7 0 173.9 0 201.6c0 20.3 11 37.8 26.7 51.8c15.7 14 37.6 25.9 63.3 35.6c51.4 19.4 121.4 31 198 31s146.5-11.7 198-31c25.7-9.7 47.5-21.6 63.3-35.6c15.7-14 26.7-31.5 26.7-51.8c0-27.7-20.1-49.9-46.3-66.3c-24.8-15.5-58.4-28-97.3-36.9C412.1 39.7 353.1 0 288 0S163.9 39.7 143.5 98.4zM288 32c66.9 0 122 50.8 119.9 115.3l-.8 .6c-4.2 2.9-10.9 6.9-20.7 11.1C366.9 167.2 335.2 176 288 176s-78.9-8.8-98.4-17.1c-9.8-4.2-16.5-8.2-20.7-11.1l-.8-.6C166 82.8 221.1 32 288 32zM117.6 345.3l-28.3-15-7.5 14.1-72 136L2.4 494.7l28.3 15 7.5-14.1 72-136 7.5-14.1zm369-15l-28.3 15 7.5 14.1 72 136 7.5 14.1 28.3-15-7.5-14.1-72-136-7.5-14.1zM288 216l-32 32 32 32 32-32-32-32zM64 200l32 32 32-32L96 168 64 200zm416-32l-32 32 32 32 32-32-32-32z"/></svg>