<svg xmlns="http://www.w3.org/2000/svg" viewBox="0 0 448 512"><!--! Font Awesome Pro 6.6.0 by @fontawesome - https://fontawesome.com License - https://fontawesome.com/license (Commercial License) Copyright 2024 Fonticons, Inc. --><path d="M320 144l0-16c0-5.5-.5-10.8-1.3-16L256 112l-8.6 0-4.8-7.1L224 76.8l-18.7 28-4.8 7.1-8.6 0-62.7 0c-.9 5.2-1.3 10.5-1.3 16l0 16c0 53 43 96 96 96s96-43 96-96zm40-32l-9 0c.7 5.2 1 10.6 1 16l0 16c0 15.6-2.8 30.6-7.9 44.5c.7 26.5 7.7 46.3 21.3 66.6l10.1 15.1-16.2 8.1-16 8-14.3 7.2-14.3-28.6 14.3-7.2 .6-.3c-4.6-8.7-8.3-17.6-11.1-26.9c-5.7 6.3-12.1 12-19 17l11.8 35.5 5.1 15.2-30.4 10.1-5.1-15.2-10-29.9c-14.5 5.7-30.3 8.8-46.9 8.8s-32.3-3.1-46.9-8.8l-10 29.9-5.1 15.2-30.4-10.1 5.1-15.2 11.8-35.5c-6.9-5-13.2-10.7-19-17c-2.8 9.3-6.5 18.2-11.1 26.9l.6 .3 14.3 7.2-14.3 28.6-14.3-7.2-16-8-16.2-8.1 10.1-15.1c13.5-20.3 20.6-40.2 21.3-66.6C98.8 174.6 96 159.6 96 144l0-16c0-5.4 .3-10.8 1-16l-9 0 0-32 16 0 1.3 0c19-46.9 65-80 118.7-80s99.7 33.1 118.7 80l1.3 0 16 0 0 32zM183.4 80l27.2-40.9 4.5-6.7c-31.8 2.9-59.1 21.3-74.3 47.6l42.6 0zm123.7 0c-15.2-26.3-42.5-44.7-74.3-47.6l4.5 6.7L264.6 80l42.6 0zM44.4 480l359.2 0L360.9 352 87.1 352 44.4 480zM64 320l320 0 53.3 160L448 512l-33.7 0L33.7 512 0 512l10.7-32L64 320z"/></svg>