<svg xmlns="http://www.w3.org/2000/svg" viewBox="0 0 448 512"><!--! Font Awesome Pro 6.6.0 by @fontawesome - https://fontawesome.com License - https://fontawesome.com/license (Commercial License) Copyright 2024 Fonticons, Inc. --><path d="M143 0l4 0 7.3 0 3.7 10.6c0 0 0 0 0 .1c.1 .1 .2 .5 .4 .9c.4 .9 1.1 2.3 2.1 4c2 3.5 5.3 8.3 10.2 13.1C180.2 37.9 196.5 48 224 48s43.8-10.1 53.3-19.4c4.9-4.8 8.2-9.6 10.2-13.1c1-1.7 1.7-3.1 2.1-4c.2-.4 .3-.7 .4-.9c0 0 0 0 0-.1L293.6 0 301 0l4 0 7 0 72 0 16 0 0 16 0 112 0 67.6 45.7 76.2 2.3 3.8 0 4.4 0 216 0 16-16 0-224 0-16 0 0-16 0-208 0-3 1.1-2.8L274.6 69.1C261.3 75.6 244.6 80 224 80s-37.3-4.4-50.6-10.9l33.4 87.4-17.1 44.8L125 32 80 32l0 96 0 72 0 4.4-2.3 3.8L32 284.4l0 140.9 68.7-68.7L112 345.4 134.6 368l-11.3 11.3-88 88L32 470.6l0 9.4 128 0 0 16 0 16L16 512 0 512l0-16L0 280l0-4.4 2.3-3.8L48 195.6 48 128 48 16 48 0 64 0l72 0 7 0zM323 32L224 291l0 189 192 0 0-9.4-3.3-3.3-88-88L313.4 368 336 345.4l11.3 11.3L416 425.4l0-140.9-45.7-76.2-2.3-3.8 0-4.4 0-72 0-96-45 0z"/></svg>