<svg xmlns="http://www.w3.org/2000/svg" viewBox="0 0 640 512"><!--! Font Awesome Pro 6.6.0 by @fontawesome - https://fontawesome.com License - https://fontawesome.com/license (Commercial License) Copyright 2024 Fonticons, Inc. --><path d="M32.4 10L19.9 .1 .1 25.3l12.6 9.9L607.8 502.2l12.6 9.9 19.8-25.2-12.6-9.9L32.4 10zM608 99.8L608 64 576 80 448 144l0 35.8 128-64 0 260.8 32 25.3 0-302.1zM416 413.3l-32-25.3 0 27.9L64 416l0-280.6L32 110.2 32 416l0 32 32 0 320 0 32 0 0-32 0-2.7zm0-163.1l0-90.2 0-64 0-32-32 0L180.1 64l40.5 32L384 96l0 129 32 25.3z"/></svg>