<svg xmlns="http://www.w3.org/2000/svg" viewBox="0 0 512 512"><!--! Font Awesome Pro 6.6.0 by @fontawesome - https://fontawesome.com License - https://fontawesome.com/license (Commercial License) Copyright 2024 Fonticons, Inc. --><path d="M390.3 160L376 160l-9.5 10.7L102.7 465.5 46.5 409.3 117.3 346l10.7-9.5 0-14.3 0-34.1 41.9 0 12.2 0 9.1-8.2L454.8 44 468 57.2l-43.8 49-8.2 9.1 0 12.2 0 32.5-25.7 0zM104 512l21.4-23.9L390.3 192l25.7 0 32 0 0-32 0-32.5L512 56 456 0 169.9 256 128 256l-32 0 0 32 0 34.1L23.9 386.6 0 408l22.7 22.7 58.7 58.7L104 512zM256 32l0-16-32 0 0 16 0 32-32 0-16 0 0 32 16 0 32 0 0 32 0 16 32 0 0-16 0-32 32 0 16 0 0-32-16 0-32 0 0-32zM96 80l0-16L64 64l0 16 0 48-48 0L0 128l0 32 16 0 48 0 0 48 0 16 32 0 0-16 0-48 48 0 16 0 0-32-16 0-48 0 0-48zM448 304l0-16-32 0 0 16 0 48-48 0-16 0 0 32 16 0 48 0 0 48 0 16 32 0 0-16 0-48 48 0 16 0 0-32-16 0-48 0 0-48z"/></svg>