<svg xmlns="http://www.w3.org/2000/svg" viewBox="0 0 448 512"><!--! Font Awesome Pro 6.6.0 by @fontawesome - https://fontawesome.com License - https://fontawesome.com/license (Commercial License) Copyright 2024 Fonticons, Inc. --><path d="M416 32l0 448L32 480 32 32l384 0zM32 0L0 0 0 32 0 480l0 32 32 0 384 0 32 0 0-32 0-448 0-32L416 0 32 0zm96 96A24 24 0 1 0 80 96a24 24 0 1 0 48 0zm56 24a24 24 0 1 0 0-48 24 24 0 1 0 0 48zM335.2 317.5c-9.8 1.5-20.3 2.5-31.2 2.5c-32 0-56-16-80-32s-48-32-80-32c-7.2 0-14.6 .6-22 1.7C139.6 219 178.7 192 224 192c61.9 0 112 50.1 112 112c0 4.6-.3 9.1-.8 13.5zM325.7 351c-17.8 38.4-56.6 65-101.7 65c-61.9 0-112-50.1-112-112c0-4 .2-8 .6-12c10.8-2.5 21.5-4 31.4-4c20.9 0 37.2 9.9 62.2 26.6l2.1 1.4c22.8 15.2 53.9 36 95.7 36c7.5 0 14.7-.4 21.7-1zM224 448a144 144 0 1 0 0-288 144 144 0 1 0 0 288z"/></svg>