<svg xmlns="http://www.w3.org/2000/svg" viewBox="0 0 384 512"><!--! Font Awesome Pro 6.6.0 by @fontawesome - https://fontawesome.com License - https://fontawesome.com/license (Commercial License) Copyright 2024 Fonticons, Inc. --><path d="M80 0L64 0l0 16 0 48L32 64 0 64 0 96 0 416l0 32 32 0 32 0 0 48 0 16 16 0 224 0 16 0 0-16 0-48 32 0 32 0 0-32 0-320 0-32-32 0-32 0 0-48 0-16L304 0 80 0zM96 480l0-32 192 0 0 32L96 480zM288 64L96 64l0-32 192 0 0 32zM32 96l320 0 0 320L32 416 32 96zm64 64l192 0 0 32L96 192l0-32zM64 128l0 32 0 32 0 32 32 0 192 0 32 0 0-32 0-32 0-32-32 0L96 128l-32 0zM80 256l0 48 48 0 0-48-48 0zm136 0l-48 0 0 48 48 0 0-48zm40 0l0 48 48 0 0-48-48 0zM128 336l-48 0 0 48 48 0 0-48zm40 0l0 48 48 0 0-48-48 0zm136 0l-48 0 0 48 48 0 0-48z"/></svg>