<svg xmlns="http://www.w3.org/2000/svg" viewBox="0 0 576 512"><!--! Font Awesome Pro 6.6.0 by @fontawesome - https://fontawesome.com License - https://fontawesome.com/license (Commercial License) Copyright 2024 Fonticons, Inc. --><path d="M192 128c0-53 43-96 96-96s96 43 96 96c0 4.7-.3 9.3-1 13.7l31.7 4.5c.9-6 1.3-12.1 1.3-18.3C416 57.3 358.7 0 288 0S160 57.3 160 128c0 40 18.4 75.8 47.1 99.2L147.3 323c-6.1-1.9-12.6-3-19.3-3c-35.3 0-64 28.7-64 64s28.7 64 64 64s64-28.7 64-64c0-17.1-6.7-32.6-17.6-44.1l67.8-108.5 8.5-13.6-13.5-8.5C210 192.4 192 162.3 192 128zM160 384a32 32 0 1 1 -64 0 32 32 0 1 1 64 0zM288 160a32 32 0 1 1 0-64 32 32 0 1 1 0 64zm-64-32c0 35.3 28.7 64 64 64c6.7 0 13.2-1 19.3-3l67.8 108.5 8.5 13.6 13.6-8.5c14.7-9.2 32.2-14.6 50.9-14.6c53 0 96 43 96 96s-43 96-96 96c-23.7 0-45.3-8.5-62-22.7l-20.7 24.4C387.6 500.6 416.5 512 448 512c70.7 0 128-57.3 128-128s-57.3-128-128-128c-19.2 0-37.4 4.2-53.8 11.8l-59.8-95.7c10.9-11.5 17.6-27 17.6-44.1c0-35.3-28.7-64-64-64s-64 28.7-64 64zM85 298.1L70.7 269.5C28.8 290.5 0 333.9 0 384c0 70.7 57.3 128 128 128c65.3 0 119.1-48.9 127-112l131 0c7.1 27.6 32.2 48 62 48c35.3 0 64-28.7 64-64s-28.7-64-64-64c-29.8 0-54.9 20.4-62 48l-146 0-16 0 0 16c0 53-43 96-96 96s-96-43-96-96c0-37.5 21.5-70.1 53-85.9zM448 416a32 32 0 1 1 0-64 32 32 0 1 1 0 64z"/></svg>