<svg xmlns="http://www.w3.org/2000/svg" viewBox="0 0 640 512"><!--! Font Awesome Pro 6.6.0 by @fontawesome - https://fontawesome.com License - https://fontawesome.com/license (Commercial License) Copyright 2024 Fonticons, Inc. --><path d="M523.5 278.5l22.6-22.6 22.6-22.6L546 210.7l-11.3-11.3c-18-18-40-29.5-63.2-34.6l16.9-.8c45.1-2.3 81.2-38.4 83.5-83.5l2.4-48.4L576 0 543.9 1.6 495.5 4C450.4 6.3 414.3 42.4 412 87.5l-.9 17.7c-4.9-23.5-16.5-46-34.8-64.2L365.1 29.7 342.5 7.1 319.8 29.7 297.2 52.3c-19.1 19.1-28.5 44.3-28.1 69.4l42.3 33.4c-16.2-24.8-13.4-58.4 8.4-80.2l22.6-22.6 11.3 11.3c35.4 35.4 37.4 91.7 5.8 129.4l26.2 20.7c37.6-29 91.9-26.3 126.4 8.2l11.3 11.3-22.6 22.6c-10.7 10.8-24.4 16.9-38.4 18.4l31.1 24.6c10.9-4.7 21-11.4 29.9-20.3zM286.9 311.4l-25.3-20-29 29c1.3-20.6-2.4-41.4-11-60.6l-73.7-58.2-9 9-22.6 22.6c-37.5 37.5-37.5 98.3 0 135.8L150.2 403 68.7 484.5l22.6 22.6 81.5-81.5s0 0 0 0l33.9 33.9c37.5 37.5 98.3 37.5 135.8 0l22.6-22.6 22.6-22.6-22.6-22.6-11.3-11.3c-27-27-63.2-39.4-98.6-37.2l31.7-31.7zM542.3 33.7L540 78.9c-1.4 28.7-24.4 51.7-53.1 53.1l-45.2 2.3L444 89.1c1.4-28.7 24.4-51.7 53.1-53.1l45.2-2.3zM172.8 380.3l-33.9-33.9c-25-25-25-65.5 0-90.5l22.6-22.6 11.3 11.3c37.2 37.2 37.5 97.4 .8 135l-.8 .8zm169.6 33.9l-22.6 22.6c-25 25-65.5 25-90.5 0L195.5 403c37.5-37.5 98.2-37.5 135.7 0l11.3 11.3zM40.4 18L27.8 8.1 8.1 33.4l12.6 9.8L599.8 494.3l12.6 9.8 19.7-25.2L619.5 469 40.4 18z"/></svg>