<svg fill="none" height="48" viewBox="0 0 48 48" width="48" xmlns="http://www.w3.org/2000/svg" xmlns:xlink="http://www.w3.org/1999/xlink"><linearGradient id="a" gradientUnits="userSpaceOnUse" x1="-24.24" x2="24.72" y1="24.48" y2="72.96"><stop offset="0" stop-color="#4899f7"/><stop offset="1" stop-color="#2457f5"/></linearGradient><rect fill="url(#a)" height="48" rx="16" width="48"/><g clip-rule="evenodd" fill="#fff" fill-rule="evenodd"><path d="m9.87868 21.3535c-1.17157 1.1715-1.17157 3.071 0 4.2426l.15902.159c1.1715 1.1716 3.071 1.1716 4.2426 0l10.0507-10.0507 4.1188 4.1188c1.1716 1.1715 3.0711 1.1715 4.2426 0l.159-.159c1.1716-1.1716 1.1716-3.0711 0-4.2427l-6.3212-6.32124c-.5502-.55014-1.2608-.84195-1.9812-.87543-.8599-.08171-1.7484.20668-2.4068.86515z"/><path d="m38.699 26.4081c1.1715-1.1715 1.1715-3.071 0-4.2426l-.159-.159c-1.1716-1.1716-3.0711-1.1716-4.2427 0l-10.0506 10.0506-4.1186-4.1186c-1.1716-1.1716-3.0711-1.1716-4.2427 0l-.159.159c-1.1715 1.1715-1.1715 3.071 0 4.2426l6.3213 6.3213c.5503.5503 1.2613.8421 1.982.8755.8595.0814 1.7475-.2071 2.4058-.8653z"/></g></svg>