<svg xmlns="http://www.w3.org/2000/svg" viewBox="0 0 576 512"><!--! Font Awesome Pro 6.6.0 by @fontawesome - https://fontawesome.com License - https://fontawesome.com/license (Commercial License) Copyright 2024 Fonticons, Inc. --><path d="M16 16l0 192 544 0 0-192L16 16zM0 0L16 0 560 0l16 0 0 16 0 192 0 16-16 0L16 224 0 224l0-16L0 16 0 0zM256 424c0 48.6-39.4 88-88 88s-88-39.4-88-88c0-28.9 13.9-54.5 35.4-70.5l9.6 12.8C107.4 379.4 96 400.4 96 424c0 39.8 32.2 72 72 72s72-32.2 72-72l0-168 16 0 0 168zm64-168l16 0 0 136c0 39.8 32.2 72 72 72s72-32.2 72-72c0-23.5-11.3-44.4-28.7-57.5l9.6-12.8c21.3 16 35.1 41.6 35.1 70.3c0 48.6-39.4 88-88 88s-88-39.4-88-88l0-136zM104 128l368 0 8 0 0 16-8 0-368 0-8 0 0-16 8 0z"/></svg>