<svg xmlns="http://www.w3.org/2000/svg" viewBox="0 0 576 512"><!--! Font Awesome Pro 6.6.0 by @fontawesome - https://fontawesome.com License - https://fontawesome.com/license (Commercial License) Copyright 2024 Fonticons, Inc. --><path d="M432 48L16 48l0 416 268.5 0c3.6 5.6 7.6 10.9 11.8 16L16 480 0 480l0-16L0 48 0 32l16 0 416 0 16 0 0 16 0 144.7c-5.3-.5-10.6-.7-16-.7l0-144zM224 96c69.3 0 128.3 44 150.5 105.6c-5.1 1.8-10 3.7-14.9 5.9C339.7 151.8 286.5 112 224 112c-79.5 0-144 64.5-144 144s64.5 144 144 144c11.8 0 23.2-1.4 34.2-4.1c.8 5.3 1.9 10.5 3.2 15.7c-12 2.9-24.5 4.4-37.4 4.4c-88.4 0-160-71.6-160-160s71.6-160 160-160zm16 160a16 16 0 1 0 -32 0 16 16 0 1 0 32 0zm-48 0a32 32 0 1 1 64 0 32 32 0 1 1 -64 0zM508.5 470.7L476.3 432l-88.5 0-32.2 38.7C376.9 486.6 403.3 496 432 496s55.1-9.4 76.5-25.3zm12.2-10.3C544.9 437 560 404.3 560 368c0-70.7-57.3-128-128-128s-128 57.3-128 128c0 36.3 15.1 69 39.3 92.3l34.5-41.4 2.4-2.9 3.7 0 96 0 3.7 0 2.4 2.9 34.5 41.4zM288 368a144 144 0 1 1 288 0 144 144 0 1 1 -288 0zm144 0a32 32 0 1 0 0-64 32 32 0 1 0 0 64zm0-80a48 48 0 1 1 0 96 48 48 0 1 1 0-96z"/></svg>