<svg xmlns="http://www.w3.org/2000/svg" viewBox="0 0 576 512"><!--! Font Awesome Pro 6.6.0 by @fontawesome - https://fontawesome.com License - https://fontawesome.com/license (Commercial License) Copyright 2024 Fonticons, Inc. --><path d="M80 16l0 240 192 0 0-240L80 16zm208 0l0 240 152 0 0-220.7-82.3 82.3-5.7 5.7L340.7 112l5.7-5.7 96-96L448 4.7l5.7 5.7 96 96 5.7 5.7L544 123.3l-5.7-5.7L456 35.3 456 256l104 0 16 0 0 16 0 143c-5.2 0-10.5-.7-16-1.9L560 272l-272 0-16 0L80 272l-16 0-48 0 0 141.1C10.5 414.3 5.2 415 0 415L0 272l0-16 16 0 48 0L64 16 64 0 80 0 272 0l16 0 0 16zM96.6 427c4.3 6.1 8.5 12.2 13.3 17.9c4.8 5.8 11.8 13.5 20.2 21.2C147.4 481.8 169.5 496 192 496s44.6-14.2 61.8-29.9c8.5-7.7 15.4-15.4 20.2-21.2c4.8-5.8 9-11.8 13.3-17.9l.6-.9c.2 .3 .4 .6 .6 .9c4.3 6.1 8.5 12.2 13.3 17.9c4.8 5.8 11.8 13.5 20.2 21.2C339.4 481.8 361.5 496 384 496s44.6-14.2 61.8-29.9c8.5-7.7 15.4-15.4 20.2-21.2c4.8-5.8 9-11.8 13.3-17.9l.6-.9 .6 .9c4.3 6.1 8.5 12.2 13.3 17.9c4.8 5.8 11.8 13.5 20.2 21.2C531.4 481.8 553.5 496 576 496l0 16c-28.7 0-54.6-17.8-72.6-34.1c-10.2-9.2-18.2-18.4-23.4-24.8c-5.2 6.4-13.3 15.6-23.4 24.8c-18 16.3-43.9 34.1-72.6 34.1s-54.6-17.8-72.6-34.1c-10.2-9.2-18.2-18.4-23.4-24.8c-5.2 6.4-13.3 15.6-23.4 24.8c-18 16.3-43.9 34.1-72.6 34.1s-54.6-17.8-72.6-34.1c-10.2-9.2-18.2-18.4-23.4-24.8c-5.2 6.4-13.2 15.6-23.4 24.8C54.6 494.2 28.7 512 0 512l0-16c22.5 0 44.6-14.2 61.8-29.9c8.5-7.7 15.4-15.4 20.2-21.2c4.8-5.8 9-11.8 13.3-17.9l.6-.9 .6 .9z"/></svg>