<svg xmlns="http://www.w3.org/2000/svg" viewBox="0 0 448 512"><!--! Font Awesome Pro 6.6.0 by @fontawesome - https://fontawesome.com License - https://fontawesome.com/license (Commercial License) Copyright 2024 Fonticons, Inc. --><path d="M229.7 189.7l-5.7 5.7-5.7-5.7-88-88L124.7 96 136 84.7l5.7 5.7L216 164.7 216 8l0-8 16 0 0 8 0 156.7 74.3-74.3 5.7-5.7L323.3 96l-5.7 5.7-88 88zM48 240l0 32-32 0 0-32 32 0zm64 0l32 0 0 32-32 0 0-32zm96 32l0-32 32 0 0 32-32 0zm96-32l32 0 0 32-32 0 0-32zm128 0l0 32-32 0 0-32 32 0zM224 316.7l5.7 5.7 88 88 5.7 5.7L312 427.3l-5.7-5.7L232 347.3 232 504l0 8-16 0 0-8 0-156.7-74.3 74.3-5.7 5.7L124.7 416l5.7-5.7 88-88 5.7-5.7z"/></svg>