<svg xmlns="http://www.w3.org/2000/svg" viewBox="0 0 576 512"><!--! Font Awesome Pro 6.6.0 by @fontawesome - https://fontawesome.com License - https://fontawesome.com/license (Commercial License) Copyright 2024 Fonticons, Inc. --><path d="M160 475.3l5.7-5.7 112-112 5.7-5.7L272 340.7l-5.7 5.7L168 444.7 168 40l0-8-16 0 0 8 0 404.7L53.7 346.3 48 340.7 36.7 352l5.7 5.7 112 112 5.7 5.7zM368 32l0 16 8 0 48 0 0 160-48 0-8 0 0 16 8 0 56 0 56 0 8 0 0-16-8 0-48 0 0-168 0-8-8 0-56 0-8 0zm60 240c36.9 0 67 29.4 68 66.1c-.2 9.2-1.8 18.3-4.7 26.9c-10 25.2-34.5 43-63.2 43c-37.6 0-68-30.4-68-68s30.4-68 68-68zm0 152c9.2 0 18-1.5 26.3-4.2L405.7 480l20.6 0 62-76.7c7.9-9.8 14-20.9 18-32.6c3.7-9.5 5.8-19.8 5.8-30.6c0-.6 0-1.3 0-1.9c0-.7 0-1.4 0-2.1l-.1 0c-2.1-44.5-38.9-80-83.9-80c-46.4 0-84 37.6-84 84s37.6 84 84 84z"/></svg>