<svg xmlns="http://www.w3.org/2000/svg" viewBox="0 0 512 512"><!--! Font Awesome Pro 6.6.0 by @fontawesome - https://fontawesome.com License - https://fontawesome.com/license (Commercial License) Copyright 2024 Fonticons, Inc. --><path d="M256 16c132.5 0 240 107.5 240 240l0 8 16 0 0-8C512 114.6 397.4 0 256 0S0 114.6 0 256l0 8 16 0 0-8C16 123.5 123.5 16 256 16zM390.1 314.8l-128-152-6.1-7.3-6.1 7.3-128 152-5.2 6.1L129 331.3l5.2-6.1L248 189.9 248 504l0 8 16 0 0-8 0-314.1L377.9 325.2l5.2 6.1L395.3 321l-5.2-6.1z"/></svg>