<svg xmlns="http://www.w3.org/2000/svg" viewBox="0 0 512 512"><!--! Font Awesome Pro 6.6.0 by @fontawesome - https://fontawesome.com License - https://fontawesome.com/license (Commercial License) Copyright 2024 Fonticons, Inc. --><path d="M0 264l0 8 16 0 0-8 0-160 403.3 0-72.7 66.1-5.9 5.4 10.8 11.8 5.9-5.4 88-80 6.5-5.9-6.5-5.9-88-80-5.9-5.4L340.7 16.5l5.9 5.4L419.3 88 8 88 0 88l0 8L0 264zm512-16l0-8-16 0 0 8 0 160L92.7 408l72.7-66.1 5.9-5.4-10.8-11.8-5.9 5.4-88 80L60.1 416l6.5 5.9 88 80 5.9 5.4 10.8-11.8-5.9-5.4L92.7 424 504 424l8 0 0-8 0-168z"/></svg>