<svg xmlns="http://www.w3.org/2000/svg" viewBox="0 0 576 512"><!--! Font Awesome Pro 6.6.0 by @fontawesome - https://fontawesome.com License - https://fontawesome.com/license (Commercial License) Copyright 2024 Fonticons, Inc. --><path d="M133.7 469.7l-5.7 5.7-5.7-5.7-104-104L12.7 360 24 348.7l5.7 5.7L120 444.7 120 40l0-8 16 0 0 8 0 404.7 90.3-90.3 5.7-5.7L243.3 360l-5.7 5.7-104 104zM296 48l80 0 8 0 0 16-8 0-80 0-8 0 0-16 8 0zm0 144l144 0 8 0 0 16-8 0-144 0-8 0 0-16 8 0zm0 128l208 0 8 0 0 16-8 0-208 0-8 0 0-16 8 0zm0 128l272 0 8 0 0 16-8 0-272 0-8 0 0-16 8 0z"/></svg>