<svg xmlns="http://www.w3.org/2000/svg" viewBox="0 0 512 512"><!--! Font Awesome Pro 6.6.0 by @fontawesome - https://fontawesome.com License - https://fontawesome.com/license (Commercial License) Copyright 2024 Fonticons, Inc. --><path d="M0 272l0-8L0 96l0-8 8 0 411.3 0L346.6 21.9l-5.9-5.4L351.5 4.7l5.9 5.4 88 80 6.5 5.9-6.5 5.9-88 80-5.9 5.4-10.8-11.8 5.9-5.4L419.3 104 16 104l0 160 0 8L0 272zm512-32l0 8 0 168 0 8-8 0L92.7 424l72.7 66.1 5.9 5.4-10.8 11.8-5.9-5.4-88-80L60.1 416l6.5-5.9 88-80 5.9-5.4 10.8 11.8-5.9 5.4L92.7 408 496 408l0-160 0-8 16 0zM240 192l32 0 8 0 0 8 0 112 0 8-16 0 0-8 0-104-24 0-8 0 0-16 8 0z"/></svg>