<svg xmlns="http://www.w3.org/2000/svg" viewBox="0 0 448 512"><!--! Font Awesome Pro 6.6.0 by @fontawesome - https://fontawesome.com License - https://fontawesome.com/license (Commercial License) Copyright 2024 Fonticons, Inc. --><path d="M16 48l0 32 32 0 0-32L16 48zm128 0l-32 0 0 32 32 0 0-32zm96 0l-32 0 0 32 32 0 0-32zm96 0l-32 0 0 32 32 0 0-32zm64 0l0 32 32 0 0-32-32 0zM229.7 162.3l-5.7-5.7-5.7 5.7-136 136L76.7 304 88 315.3l5.7-5.7L216 187.3 216 312l0 160 0 8 16 0 0-8 0-160 0-124.7L354.3 309.7l5.7 5.7L371.3 304l-5.7-5.7-136-136z"/></svg>