<svg xmlns="http://www.w3.org/2000/svg" viewBox="0 0 512 512"><!--! Font Awesome Pro 6.6.0 by @fontawesome - https://fontawesome.com License - https://fontawesome.com/license (Commercial License) Copyright 2024 Fonticons, Inc. --><path d="M261.7 10.3L256 4.7l-5.7 5.7-112 112-5.7 5.7L144 139.3l5.7-5.7L248 35.3 248 328l0 8 16 0 0-8 0-292.7 98.3 98.3 5.7 5.7L379.3 128l-5.7-5.7-112-112zM8 32L0 32l0 8L0 504l0 8 8 0 496 0 8 0 0-8 0-464 0-8-8 0-96 0-8 0 0 16 8 0 88 0 0 448L16 496 16 48l88 0 8 0 0-16-8 0L8 32z"/></svg>