<svg xmlns="http://www.w3.org/2000/svg" viewBox="0 0 640 512"><!--! Font Awesome Pro 6.6.0 by @fontawesome - https://fontawesome.com License - https://fontawesome.com/license (Commercial License) Copyright 2024 Fonticons, Inc. --><path d="M136 8l0-8 16 0 0 8 0 156.7 50.3-50.3 5.7-5.7L219.3 120l-5.7 5.7-64 64-5.7 5.7-5.7-5.7-64-64L68.7 120 80 108.7l5.7 5.7L136 164.7 136 8zM420.7 120L432 108.7l5.7 5.7L488 164.7 488 8l0-8 16 0 0 8 0 156.7 50.3-50.3 5.7-5.7L571.3 120l-5.7 5.7-64 64-5.7 5.7-5.7-5.7-64-64-5.7-5.7zM496 320a24 24 0 1 0 0-48 24 24 0 1 0 0 48zm0-64a40 40 0 1 1 0 80 40 40 0 1 1 0-80zm83 232.5l-11-19.8-16-28.8 0 32.9 0 23.2 0 16-16 0-80 0-16 0 0-16 0-23.2 0-32.9-16 28.8-11 19.8-3.9 7-7.8 14-14-7.8-14-7.8-14-7.8 7.8-14 3.9-7 56-100.8 6.9-12.3 14.1 0 96 0 14.1 0 6.9 12.3 56 100.8 3.9 7 7.8 14-14 7.8-14 7.8-14 7.8-7.8-14-3.9-7zm-43-48.6l0-39.8 12.2 0L566 432l27 48.6 3.9 7 14-7.8-3.9-7L551 372.1l-2.3-4.1-4.7 0-96 0-4.7 0-2.3 4.1L385 472.9l-3.9 7 14 7.8 3.9-7L426 432l17.8-32 12.2 0 0 39.8 0 56.2 80 0 0-56.2zM168 296a24 24 0 1 0 -48 0 24 24 0 1 0 48 0zm-64 0a40 40 0 1 1 80 0 40 40 0 1 1 -80 0zM216 468.6l-16-28.8 0 32.9 0 23.2 0 16-16 0-80 0-16 0 0-16 0-23.2 0-32.9L72 468.6 61 488.5l-3.9 7-7.8 14-14-7.8-14-7.8-14-7.8 7.8-14 3.9-7L75 364.3 81.9 352 96 352l96 0 14.1 0 6.9 12.3 56 100.8 3.9 7 7.8 14-14 7.8-14 7.8-14 7.8-7.8-14-3.9-7-11-19.8zM184 496l0-56.2 0-39.8 12.2 0L214 432l27 48.6 3.9 7 14-7.8-3.9-7L199 372.1l-2.3-4.1-4.7 0-96 0-4.7 0L89 372.1 33 472.9l-3.9 7 14 7.8 3.9-7L74 432l17.8-32 12.2 0 0 39.8 0 56.2 80 0zM320 208a24 24 0 1 0 0-48 24 24 0 1 0 0 48zm0-64a40 40 0 1 1 0 80 40 40 0 1 1 0-80zm69 108.3L426.6 320 415 320l-3.4 6.1-36.7-66-2.3-4.1-4.7 0-96 0-4.7 0-2.3 4.1-36.7 66L225 320l-11.5 0L251 252.3l6.9-12.3 14.1 0 96 0 14.1 0 6.9 12.3zm1 67.7l12.5 22.5-9.2 16.5-1.4-2.4-16-28.8 0 32.9 0 23.2 0 6.3s0 0 0 0l0 9.7-5.4 0L360 400s0 0 0 0l0-16s0 0 0 0l0-56.2 0-39.8 12.2 0L390 320zM280 384s0 0 0 0l0 16-10.6 0-5.4 0 0-16s0 0 0 0l0-23.2 0-32.9-16 28.8-1.4 2.4-9.2-16.5L250 320l17.8-32 12.2 0 0 39.8 0 56.2z"/></svg>