<svg xmlns="http://www.w3.org/2000/svg" viewBox="0 0 576 512"><!--! Font Awesome Pro 6.6.0 by @fontawesome - https://fontawesome.com License - https://fontawesome.com/license (Commercial License) Copyright 2024 Fonticons, Inc. --><path d="M421.7 42.3l112 112 5.7 5.7L528 171.3l-5.7-5.7L424 67.3 424 472l0 8-16 0 0-8 0-404.7-98.3 98.3-5.7 5.7L292.7 160l5.7-5.7 112-112 5.7-5.7 5.7 5.7zm-256 427.3l-5.7 5.7-5.7-5.7-112-112L36.7 352 48 340.7l5.7 5.7L152 444.7 152 40l0-8 16 0 0 8 0 404.7 98.3-98.3 5.7-5.7L283.3 352l-5.7 5.7-112 112z"/></svg>