<svg xmlns="http://www.w3.org/2000/svg" viewBox="0 0 512 512"><!--! Font Awesome Pro 6.6.0 by @fontawesome - https://fontawesome.com License - https://fontawesome.com/license (Commercial License) Copyright 2024 Fonticons, Inc. --><path d="M256 496C123.5 496 16 388.5 16 256l0-8L0 248l0 8C0 397.4 114.6 512 256 512s256-114.6 256-256l0-8-16 0 0 8c0 132.5-107.5 240-240 240zM121.9 162.8l-5.2 6.1L129 179.3l5.2-6.1L248 37.9 248 344l0 8 16 0 0-8 0-306.1L377.9 173.2l5.2 6.1L395.3 169l-5.2-6.1-128-152L256 3.6l-6.1 7.3-128 152z"/></svg>