<svg xmlns="http://www.w3.org/2000/svg" viewBox="0 0 576 512"><!--! Font Awesome Pro 6.6.0 by @fontawesome - https://fontawesome.com License - https://fontawesome.com/license (Commercial License) Copyright 2024 Fonticons, Inc. --><path d="M410.9 32l-2.1 4.6L321.9 224l17.6 0 22.3-48 108.5 0 22.3 48 17.6 0L423.3 36.6 421.1 32l-10.2 0zm51.9 128l-93.6 0L416 59l46.8 101zM165.7 42.3L160 36.7l-5.7 5.7-112 112L36.7 160 48 171.3l5.7-5.7L152 67.3 152 472l0 8 16 0 0-8 0-404.7 98.3 98.3 5.7 5.7L283.3 160l-5.7-5.7-112-112zM344 288l-8 0 0 16 8 0 133.2 0L338.1 458.6l-2.1 2.3 0 3.1 0 8 0 8 8 0 144 0 8 0 0-16-8 0-133.2 0L493.9 309.4l2.1-2.3 0-3.1 0-8 0-8-8 0-144 0z"/></svg>