<svg xmlns="http://www.w3.org/2000/svg" viewBox="0 0 512 512"><!--! Font Awesome Pro 6.6.0 by @fontawesome - https://fontawesome.com License - https://fontawesome.com/license (Commercial License) Copyright 2024 Fonticons, Inc. --><path d="M338 424.7c-25.7-4.7-53.5-13.5-82-25.9c-28.6 12.5-56.3 21.3-82 25.9c.8 1.8 1.6 3.6 2.5 5.4C197.3 474 225 496 256 496s58.7-22 79.5-65.8c.8-1.8 1.7-3.6 2.5-5.4zM256 512c-42.8 0-76.4-32.7-98.4-84.8c-52.7 6.1-95-6.8-115.2-43.2C21.7 346.9 33 301.2 66 256c-33-45.2-44.3-90.9-23.6-128c20.2-36.3 62.5-49.3 115.2-43.2C179.6 32.7 213.2 0 256 0s76.4 32.7 98.4 84.8c52.7-6.1 95 6.8 115.2 43.2c20.7 37.1 9.4 82.8-23.6 128c33 45.2 44.3 90.9 23.6 128c-20.2 36.3-62.5 49.3-115.2 43.2c-22 52.1-55.6 84.8-98.4 84.8zM236.3 389.7c-13.9-6.8-27.9-14.4-42-22.8c-15.7-9.4-30.6-19.3-44.5-29.5c4 26.6 10.1 51 18 72.3c21.3-3.6 44.4-10.3 68.5-19.9zm107.9 19.9c7.8-21.2 13.9-45.6 18-72.3c-13.9 10.3-28.8 20.2-44.5 29.5c-14 8.4-28.1 16-42 22.8c24.1 9.6 47.2 16.3 68.5 19.9zm-34.7-56.4c20.1-12 38.7-24.8 55.6-38.1c2-18.8 3-38.6 3-59s-1-40.2-3-59c-16.9-13.3-35.5-26.1-55.6-38.1c-18-10.8-35.9-20.2-53.4-28.2c-17.5 8-35.4 17.4-53.4 28.2c-20.1 12-38.7 24.8-55.6 38.1c-2 18.8-3 38.6-3 59s1 40.2 3 59c16.9 13.3 35.5 26.1 55.6 38.1c18 10.8 35.9 20.2 53.4 28.2c17.5-8 35.4-17.4 53.4-28.2zm51 58.6c.9 .1 1.8 .2 2.7 .2c46.3 3.9 77.6-9 92.5-35.8c15.1-27.1 9.9-62.3-16.6-102.3c-1.1-1.6-2.1-3.2-3.3-4.8c-15.3 18.5-34 36.8-55.6 54.2c-3.8 32.5-10.5 62.4-19.7 88.3zm21.9-111.1C399.2 286 413.8 271 425.8 256c-12-15-26.7-30-43.5-44.7c1.1 14.5 1.7 29.4 1.7 44.7s-.6 30.2-1.7 44.7zM439 238c26.6-40 31.7-75.2 16.6-102.3C440.7 109 409.3 96.2 363.1 100c-.9 .1-1.8 .2-2.7 .2c9.2 26 15.9 55.9 19.7 88.3c21.6 17.5 40.3 35.7 55.6 54.2c1.1-1.6 2.2-3.2 3.3-4.8zM335.5 81.8C314.7 38 287 16 256 16s-58.7 22-79.5 65.8c-.8 1.8-1.7 3.6-2.5 5.4c25.7 4.7 53.5 13.5 82 25.9c28.6-12.5 56.3-21.3 82-25.9c-.8-1.8-1.6-3.6-2.5-5.4zm8.6 20.6c-21.3 3.6-44.4 10.3-68.5 19.9c13.9 6.8 27.9 14.4 42 22.8c15.7 9.4 30.6 19.3 44.5 29.5c-4-26.6-10.1-51-18-72.3zm-176.4 0c-7.8 21.2-13.9 45.6-18 72.3c13.9-10.3 28.8-20.1 44.5-29.5c14-8.4 28.1-16 42-22.8c-24.1-9.6-47.2-16.3-68.5-19.9zm-16.2-2.2c-.9-.1-1.8-.2-2.7-.2c-46.3-3.9-77.6 9-92.5 35.7C41.3 162.8 46.5 198.1 73 238c1.1 1.6 2.1 3.2 3.3 4.8c15.3-18.5 34-36.8 55.6-54.2c3.8-32.5 10.5-62.4 19.7-88.3zM131.8 323.4c-21.6-17.5-40.3-35.7-55.6-54.2c-1.1 1.6-2.2 3.2-3.3 4.8c-26.6 40-31.7 75.2-16.6 102.3c14.9 26.8 46.3 39.6 92.5 35.8c.9-.1 1.8-.2 2.7-.2c-9.2-26-15.9-55.9-19.7-88.3zm-2.2-112.1C112.8 226 98.2 241 86.2 256c12 15 26.7 30 43.5 44.7c-1.1-14.5-1.7-29.4-1.7-44.7s.6-30.2 1.7-44.7zm83 33.4l32-32L256 201.4l11.3 11.3 32 32L310.6 256l-11.3 11.3-32 32L256 310.6l-11.3-11.3-32-32L201.4 256l11.3-11.3zM256 288l11.3-11.3 9.4-9.4L288 256l-11.3-11.3-9.4-9.4L256 224l-11.3 11.3-9.4 9.4L224 256l11.3 11.3 9.4 9.4L256 288z"/></svg>