<svg xmlns="http://www.w3.org/2000/svg" viewBox="0 0 512 512"><!--! Font Awesome Pro 6.6.0 by @fontawesome - https://fontawesome.com License - https://fontawesome.com/license (Commercial License) Copyright 2024 Fonticons, Inc. --><path d="M404.6 288.4l53.9-53.9c50-50 50-131 0-181s-131-50-181 0l-53.9 53.9-4.8 4.8L212 112c-50.5-1-101.2 17.7-139.7 56.2c-75 75-75 196.5 0 271.5s196.5 75 271.5 0C382.3 401.3 401 350.5 400 300l-.1-6.8 4.8-4.8zm65.2-42.6L416 299.7c1.1 54.7-19.2 109.7-60.9 151.4c-81.2 81.2-212.9 81.2-294.2 0s-81.2-212.9 0-294.2c41.7-41.7 96.7-62 151.4-60.9l53.9-53.9c56.2-56.2 147.4-56.2 203.6 0s56.2 147.4 0 203.6zM170.5 234.5c-40 40-44.8 95.1-16.4 123.4s83.5 23.6 123.4-16.4s44.8-95.1 16.4-123.4s-83.5-23.6-123.4 16.4zm134.8-27.7c37 37 27.1 102.6-16.4 146.1s-109.1 53.4-146.1 16.4s-27.1-102.6 16.4-146.1s109.1-53.4 146.1-16.4z"/></svg>