<svg xmlns="http://www.w3.org/2000/svg" viewBox="0 0 512 512"><!--! Font Awesome Pro 6.6.0 by @fontawesome - https://fontawesome.com License - https://fontawesome.com/license (Commercial License) Copyright 2024 Fonticons, Inc. --><path d="M118.3 20.7L232.6 176l19.9 0L122.9 0C56.7 33.5 9.3 98.9 1.1 176l16.1 0C24.8 109.8 63.5 53.1 118.3 20.7zM440 112l-8 0 0 8 0 88-208 0L16 208 0 208c0 5.3 .2 10.7 .7 16c4.2 49 27.4 96.2 64.9 131.1C107.2 393.7 165.2 416 224 416s116.8-22.3 158.4-60.9c37.5-34.8 60.7-82.1 64.9-131.1c.5-5.3 .7-10.7 .7-16l0-80 56 0 8 0 0-16-8 0-64 0zM80 432a32 32 0 1 1 0 64 32 32 0 1 1 0-64zm0 80a48 48 0 1 0 0-96 48 48 0 1 0 0 96zm288-80a32 32 0 1 1 0 64 32 32 0 1 1 0-64zm0 80a48 48 0 1 0 0-96 48 48 0 1 0 0 96zm63.3-288c-4.1 44.4-25.4 87.4-59.7 119.4C333 379.1 279 400 224 400s-109-20.9-147.5-56.6C42.1 311.4 20.9 268.4 16.7 224L224 224l207.3 0z"/></svg>