<svg xmlns="http://www.w3.org/2000/svg" viewBox="0 0 448 512"><!--! Font Awesome Pro 6.6.0 by @fontawesome - https://fontawesome.com License - https://fontawesome.com/license (Commercial License) Copyright 2024 Fonticons, Inc. --><path d="M144 96l0 32 160 0 0-32c0-44.2-35.8-80-80-80s-80 35.8-80 80zm-16 32l0-32c0-53 43-96 96-96l8 0 0 .3c49.3 4.1 88 45.3 88 95.7l0 32 112 0 16 0 0 16 0 352 0 16-16 0L16 512 0 512l0-16L0 144l0-16 16 0 112 0zm0 16L16 144l0 352 416 0 0-352-112 0-16 0-160 0-16 0zm8 168l8 0 72 0 0-72 0-8 16 0 0 8 0 72 72 0 8 0 0 16-8 0-72 0 0 72 0 8-16 0 0-8 0-72-72 0-8 0 0-16z"/></svg>