<svg xmlns="http://www.w3.org/2000/svg" viewBox="0 0 512 512"><!--! Font Awesome Pro 6.6.0 by @fontawesome - https://fontawesome.com License - https://fontawesome.com/license (Commercial License) Copyright 2024 Fonticons, Inc. --><path d="M76.5 80l359 0 15.6 62.4c8.6 34.3 12.9 69.5 12.9 104.8l0 17.7c0 35.3-4.3 70.5-12.9 104.8L435.5 432l-359 0L60.9 369.6C52.3 335.4 48 300.2 48 264.8l0-17.7c0-35.3 4.3-70.5 12.9-104.8L76.5 80zM437.2 64L74.8 64 55.6 16l400.7 0L437.2 64zM74.8 448l362.3 0 19.2 48L55.6 496l19.2-48zM32 0l6.4 16L61.5 73.8 45.4 138.5C36.5 174 32 210.5 32 247.2l0 17.7c0 36.6 4.5 73.1 13.4 108.7l16.2 64.6L38.4 496 32 512l17.2 0 413.5 0 17.2 0-6.4-16-23.1-57.8 16.2-64.6c8.9-35.5 13.4-72 13.4-108.7l0-17.7c0-36.6-4.5-73.1-13.4-108.7L450.5 73.8 473.6 16 480 0 462.8 0 49.2 0 32 0zm96 160l0 8 0 8c0 68 53 123.6 120 127.8l0 64.2 0 8 16 0 0-8 0-64.2C331 299.6 384 244 384 176l0-8 0-8-8 0-31.3 0c-38.8 0-71.2 21-88.7 50.9C238.5 181 206.1 160 167.3 160L136 160l-8 0zM264 287.7l0-56.9c12.5-31.5 43-54.9 80.7-54.9l23.3 0c0 59.2-45.9 107.6-104 111.7zm-16-56.9l0 56.9c-58.1-4.1-104-52.6-104-111.7l23.3 0c37.7 0 68.2 23.4 80.7 54.9z"/></svg>