<svg xmlns="http://www.w3.org/2000/svg" viewBox="0 0 512 512"><!--! Font Awesome Pro 6.6.0 by @fontawesome - https://fontawesome.com License - https://fontawesome.com/license (Commercial License) Copyright 2024 Fonticons, Inc. --><path d="M420 431.3L80.7 92C40.6 134.9 16 192.6 16 256c0 132.5 107.5 240 240 240c63.4 0 121.1-24.6 164-64.7zM431.3 420C471.4 377.1 496 319.4 496 256C496 123.5 388.5 16 256 16C192.6 16 134.9 40.6 92 80.7l84 84 0-28.7 0-8 8 0 104 0c48.6 0 88 39.4 88 88c0 40.3-27.1 74.2-64 84.7L431.3 420zM192 180.7L298.5 287.2c34.8-5.1 61.5-35.1 61.5-71.2c0-39.8-32.2-72-72-72l-96 0 0 36.7zM0 256a256 256 0 1 1 512 0A256 256 0 1 1 0 256zm176 40l0-46.1 16 16 0 22.1 22.1 0 16 16L192 304l0 72 0 8-16 0 0-8 0-80z"/></svg>