<svg xmlns="http://www.w3.org/2000/svg" viewBox="0 0 384 512"><!--! Font Awesome Pro 6.6.0 by @fontawesome - https://fontawesome.com License - https://fontawesome.com/license (Commercial License) Copyright 2024 Fonticons, Inc. --><path d="M32 48l8 0c30.9 0 56 25.1 56 56l0 88-64 0 0 16 64 0 0 200c0 39.8 32.2 72 72 72l16 0c110.5 0 200-89.5 200-200l0-16c0-39.8-32.2-72-72-72l-48 0-8 0 0 16 8 0 48 0c30.9 0 56 25.1 56 56l0 16c0 101.6-82.4 184-184 184l-16 0c-30.9 0-56-25.1-56-56l0-200 80 0 0-16-80 0 0-88c0-39.8-32.2-72-72-72l-8 0 0 16z"/></svg>