<svg xmlns="http://www.w3.org/2000/svg" viewBox="0 0 512 512"><!--! Font Awesome Pro 6.6.0 by @fontawesome - https://fontawesome.com License - https://fontawesome.com/license (Commercial License) Copyright 2024 Fonticons, Inc. --><path d="M0 32l16 0 0 448L0 480 0 32zm256 0l16 0 0 448-16 0 0-448zm144 0l0 448-16 0 0-448 16 0zm-96 0l16 0 0 448-16 0 0-448zM64 32l0 448-16 0L48 32l16 0zm384 0l16 0 0 448-16 0 0-448zm64 0l0 448-16 0 0-448 16 0zM112 32l16 0 0 448-16 0 0-448zm88 0l0 448-16 0 0-448 16 0z"/></svg>