<svg xmlns="http://www.w3.org/2000/svg" viewBox="0 0 640 512"><!--! Font Awesome Pro 6.6.0 by @fontawesome - https://fontawesome.com License - https://fontawesome.com/license (Commercial License) Copyright 2024 Fonticons, Inc. --><path d="M528.1 512l-20.3-16L416 496l0-72.5-16-12.6 0 85.1-64 0-192 0 0-124c35.3 27.6 79.7 44 128 44c36.7 0 71.3-9.5 101.2-26.2l-13.7-10.8c-26.2 13.5-56 21.1-87.5 21.1C166 400 80 314 80 208c0-15.7 1.9-30.9 5.4-45.5L71.7 151.7c-5 17.9-7.7 36.8-7.7 56.3c0 59 24.6 112.2 64 150.1L128 504l0 8 8 0 200 0 72 0 8 0 112 0c0 0 0 0 .1 0zM480 208C480 93.1 386.9 0 272 0c-42.8 0-82.6 12.9-115.6 35.1l13.3 10.5C199.3 26.8 234.4 16 272 16c106 0 192 86 192 192c0 21.7-3.6 42.5-10.2 61.9l13.3 10.5c8.4-22.5 12.9-46.9 12.9-72.4zM349.3 187.4c-8.9-33.6-39.1-58.5-75.2-59.4l75.2 59.4zM219.8 268.7c1.7 1.5 3.5 2.9 5.3 4.2l-5.3-4.2zM16.2 5L9.9 0 0 12.5l6.3 5L623.8 507l6.3 5 9.9-12.5-6.3-5L16.2 5z"/></svg>