<svg xmlns="http://www.w3.org/2000/svg" viewBox="0 0 640 512"><!--! Font Awesome Pro 6.6.0 by @fontawesome - https://fontawesome.com License - https://fontawesome.com/license (Commercial License) Copyright 2024 Fonticons, Inc. --><path d="M384 0l8 0L504 0l8 0 0 8 0 24 0 8-16 0 0-8 0-16-96 0 0 16 0 8-16 0 0-8 0-24 0-8zM575.1 192l-16 0c0-1.3 .2-2.7 .5-3.9l0-83.8L507.8 80 387.4 80 340 102.2l-18.2-9.1L383.9 64l127.5 0 64.3 30.1 0 81.9 0 15.9c0 0 0 0 0 .1l-.5 0zM352 192l-16 0 0-38.1L252.2 112l-120.4 0L48 153.9 48 192l-16 0 0-48 96-48 128 0 63.6 31.8s0 0 0 0l16 8s0 0 0 0L352 144l0 48zm256 32l32 0 0 16-33.8 0L576 512 64 512 33.8 240 0 240l0-16 32 0 16 0 .1 0 543.8 0 .1 0 16 0zM49.9 240L78.3 496l483.4 0 28.4-256L49.9 240zM136 0L248 0l8 0 0 8 0 40 8 0 8 0 0 16-8 0-16 0-8 0 0-8 0-40-96 0 0 40 0 8-8 0-16 0-8 0 0-16 8 0 8 0 0-40 0-8 8 0z"/></svg>