<svg xmlns="http://www.w3.org/2000/svg" viewBox="0 0 576 512"><!--! Font Awesome Pro 6.6.0 by @fontawesome - https://fontawesome.com License - https://fontawesome.com/license (Commercial License) Copyright 2024 Fonticons, Inc. --><path d="M560 48l0 64-16 0-16.1 0L48.1 112 32 112l-16 0 0-64 544 0zM16 128l17.4 0L64 480l448 0 30.6-352 17.4 0 16 0 0-16 0-64 0-16-16 0L16 32 0 32 0 48l0 64 0 16 16 0zm33.5 0l477.1 0L497.3 464 78.7 464 49.5 128zM288 192c7.5 0 14.6 3.6 19.1 9.6l40.2 54.5 13.6-8.5-40.9-55.5C312.5 182 300.6 176 288 176s-24.5 6-31.9 16.1l-40.9 55.5 13.6 8.5 40.2-54.5c4.5-6.1 11.5-9.6 19.1-9.6zm-91.9 81.5l-36.7 49.8c-4.8 6.5-7.4 14.5-7.4 22.6c0 21 17.1 38.1 38.1 38.1l81.9 0 0-16-81.9 0c-12.2 0-22.1-9.9-22.1-22.1c0-4.7 1.5-9.3 4.3-13.1L209.8 282l-13.6-8.5zM304 384l81.9 0c21 0 38.1-17.1 38.1-38.1c0-8.1-2.6-16.1-7.4-22.6l-36.7-49.8L366.2 282l37.4 50.8c2.8 3.8 4.3 8.4 4.3 13.1c0 12.2-9.9 22.1-22.1 22.1L304 368l0 16z"/></svg>