<svg xmlns="http://www.w3.org/2000/svg" viewBox="0 0 640 512"><!--! Font Awesome Pro 6.6.0 by @fontawesome - https://fontawesome.com License - https://fontawesome.com/license (Commercial License) Copyright 2024 Fonticons, Inc. --><path d="M384 0l0 8 0 24 0 8 16 0 0-8 0-16 96 0 0 16 0 8 16 0 0-8 0-24 0-8-8 0L392 0l-8 0zM575.1 192l.5 0c0 0 0 0 0-.1l0-15.9 0-81.9L511.3 64 383.9 64 321.8 93.1l18.2 9.1L387.4 80l120.3 0 51.8 24.3 0 83.8c-.3 1.3-.5 2.6-.5 3.9l16 0zM352 192l0-48-16.4-8.2s0 0 0 0l-16-8s0 0 0 0L256 96 128 96 32 144l0 48 16 0 0-38.1L131.8 112l120.4 0L336 153.9l0 38.1 16 0zm288 32l-32 0-16 0-.1 0L48.1 224l-.1 0-16 0L0 224l0 16 33.8 0L64 512l512 0 30.2-272 33.8 0 0-16zM78.3 496L49.9 240l540.2 0L561.7 496 78.3 496zM299.6 288l-2.4 3.7-28.4 44.2 13.6 8.5L308.4 304l23.2 0 26.7 42 13.6-8.5-29.2-45.8-2.4-3.7-4.4 0-32 0-4.4 0zm75.9 85l23.7 37.3 0 21.7-61.5 0 0 16 69.5 0 8 0 0-8 0-32 0-2.3-1.3-2-24.9-39.2L375.5 373zM240 432l0-21.7 25.1-39.1-13.6-8.5-26.3 40.9-1.3 2 0 2.3 0 32 0 8 8 0 73.7 0 0-16L240 432zM136 0l-8 0 0 8 0 40-8 0-8 0 0 16 8 0 16 0 8 0 0-8 0-40 96 0 0 40 0 8 8 0 16 0 8 0 0-16-8 0-8 0 0-40 0-8-8 0L136 0z"/></svg>