<svg xmlns="http://www.w3.org/2000/svg" viewBox="0 0 384 512"><!--! Font Awesome Pro 6.6.0 by @fontawesome - https://fontawesome.com License - https://fontawesome.com/license (Commercial License) Copyright 2024 Fonticons, Inc. --><path d="M0 32l8 0 32 0 32 0 152 0c61.9 0 112 50.1 112 112c0 43.1-24.4 80.5-60.1 99.3C328.7 255.8 368 303.3 368 360c0 66.3-53.7 120-120 120L72 480l-32 0L8 480l-8 0 0-16 8 0 24 0 0-216L32 48 8 48 0 48 0 32zM48 464l24 0 176 0c57.4 0 104-46.6 104-104s-46.6-104-104-104l-24 0L48 256l0 208zm0-224l176 0c53 0 96-43 96-96s-43-96-96-96L72 48 48 48l0 192z"/></svg>