<svg xmlns="http://www.w3.org/2000/svg" viewBox="0 0 576 512"><!--! Font Awesome Pro 6.6.0 by @fontawesome - https://fontawesome.com License - https://fontawesome.com/license (Commercial License) Copyright 2024 Fonticons, Inc. --><path d="M291.4 203.7l52.9-178L352 0 330.5 16.1 32 240l0 48 112.7 3.9 16.5 .6-4.7 15.8-52.9 178L96 512l21.5-16.1L416 272l0-48-112.7-3.9-16.5-.6 4.7-15.8zM400 239.5l0 24.5L125.1 470.2 176.6 297l5.9-19.8-20.7-.7L48 272.5 48 248 322.9 41.9 271.4 215l-5.9 19.8 20.7 .7L400 239.5zM384.4 448l-.4 0 0 .8L354.6 512l17.7 0 22.4-48 138.9 0 22.4 48 17.7 0L544 448.8l0-.8-.4 0L471.3 292.6l-2.2-4.6-10.2 0-2.2 4.6L384.4 448zM526 448l-124 0 62-133.1L526 448z"/></svg>