<svg xmlns="http://www.w3.org/2000/svg" viewBox="0 0 448 512"><!--! Font Awesome Pro 6.6.0 by @fontawesome - https://fontawesome.com License - https://fontawesome.com/license (Commercial License) Copyright 2024 Fonticons, Inc. --><path d="M0 56C0 25.1 25.1 0 56 0L440 0l8 0 0 8 0 400 0 8-8 0-24 0 0 80 24 0 8 0 0 16-8 0L56 512c-30.9 0-56-25.1-56-56L0 56zM56 416c-22.1 0-40 17.9-40 40s17.9 40 40 40l344 0 0-80L56 416zm-40 .8C26.2 406.4 40.3 400 56 400l376 0 0-384L56 16C33.9 16 16 33.9 16 56l0 360.8zM318.9 222c-3.3 16-14.9 28.1-32.5 35.3c22.4 9.6 38.1 24.4 32.5 52.1c-6.5 32-45.1 48.1-98.3 41c-16.3-2.1-32-7-47.7-11.9c-2.4-.7-4.8-1.5-7.2-2.2l4.6-15.3c2.6 .8 5.2 1.6 7.8 2.4c14.6 4.6 29.3 9.2 44.5 11.1c43.4 5.8 75.9-5.5 80.5-28.3c5.5-27.4-20.9-35.9-65.1-46.7c-1-.2-1.9-.5-2.9-.7c-33.4-8.2-83-20.4-74-64.7c3.3-16.1 15-28.1 32.5-35.4c-20.8-9.1-38.2-24-32.5-52c6.5-32 45.1-48.2 98.3-41c10 1.3 21.7 4 36.8 8.5l-4.5 15.3c-14.3-4.2-25.3-6.7-34.4-8c-43.7-5.8-75.9 5.6-80.5 28.3c-4.9 24.4 14.8 34.1 55.6 44.3c2.9 .7 6 1.4 9.2 2.2c35.6 8.4 86.5 20.3 77.3 65.6zM176.8 197.2c-6.1 30.5 31.8 39.1 56.9 44.8c2.9 .7 5.7 1.3 8.1 1.9c5.7 1.4 11.5 2.9 17.3 4.4c18.8-3.5 40-9.5 44.1-29.5c6.6-32.5-36.8-41.4-66.9-47.7c-5.8-1.2-11.1-2.3-15.4-3.4c-19.2 3.6-40 9.6-44.1 29.5z"/></svg>