<svg xmlns="http://www.w3.org/2000/svg" viewBox="0 0 448 512"><!--! Font Awesome Pro 6.6.0 by @fontawesome - https://fontawesome.com License - https://fontawesome.com/license (Commercial License) Copyright 2024 Fonticons, Inc. --><path d="M216 472l0 8 16 0 0-8 0-432 0-8-16 0 0 8 0 432zM48 464l0-32-32 0 0 32 32 0zm384 0l0-32-32 0 0 32 32 0zM48 368l0-32-32 0 0 32 32 0zm384 0l0-32-32 0 0 32 32 0zM400 176l32 0 0-32-32 0 0 32zM48 176l0-32-32 0 0 32 32 0zm352 96l32 0 0-32-32 0 0 32zM48 272l0-32-32 0 0 32 32 0zM400 80l32 0 0-32-32 0 0 32zM16 80l32 0 0-32L16 48l0 32zM304 272l32 0 0-32-32 0 0 32zM336 80l0-32-32 0 0 32 32 0zM304 464l32 0 0-32-32 0 0 32zM144 80l0-32-32 0 0 32 32 0zM112 464l32 0 0-32-32 0 0 32zm32-192l0-32-32 0 0 32 32 0z"/></svg>