<svg xmlns="http://www.w3.org/2000/svg" viewBox="0 0 320 512"><!--! Font Awesome Pro 6.6.0 by @fontawesome - https://fontawesome.com License - https://fontawesome.com/license (Commercial License) Copyright 2024 Fonticons, Inc. --><path d="M104 0L96 0l0 8 0 84c-4 1.2-8 2.8-11.8 4.6l-13.2 6.2C47.2 113.9 32 137.8 32 164.2c0 18.1 7.1 34.5 18.6 46.7C39.1 222.4 32 238.4 32 256c0 19.1 8.4 36.3 21.7 48C40.4 315.7 32 332.9 32 352s8.4 36.3 21.7 48C40.4 411.7 32 428.9 32 448l0 56 0 8 8 0 240 0 8 0 0-8 0-56c0-19.1-8.4-36.3-21.7-48c13.3-11.7 21.7-28.9 21.7-48s-8.4-36.3-21.7-48c13.3-11.7 21.7-28.9 21.7-48c0-17.6-7.1-33.6-18.6-45.1c11.5-12.2 18.6-28.6 18.6-46.7c0-26.3-15.2-50.3-39.1-61.4l-13.2-6.2C232 94.8 228 93.3 224 92l0-84 0-8-8 0L104 0zm93.3 104c11 0 21.8 2.4 31.7 7.1l13.2 6.2c18.2 8.5 29.8 26.8 29.8 46.9c0 16.4-7.6 31.1-19.6 40.6l-8.1 6.5 8.4 6.2c11.8 8.8 19.4 22.8 19.4 38.6c0 17.5-9.3 32.7-23.3 41.1L237.4 304l11.4 6.9c14 8.4 23.3 23.7 23.3 41.1s-9.3 32.7-23.3 41.1L237.4 400l11.4 6.9c14 8.4 23.3 23.7 23.3 41.1l0 48L48 496l0-48c0-17.4 9.3-32.7 23.3-41.1L82.6 400l-11.4-6.9C57.3 384.7 48 369.4 48 352s9.3-32.7 23.3-41.1L82.6 304l-11.4-6.9C57.3 288.7 48 273.5 48 256c0-15.8 7.6-29.8 19.4-38.6l8.4-6.2-8.1-6.5c-12-9.5-19.6-24.2-19.6-40.6c0-20.1 11.6-38.4 29.8-46.9L91 111.1c9.9-4.6 20.7-7.1 31.7-7.1l74.6 0zm0-16l-74.6 0L112 88l0-72 96 0 0 72-10.7 0zM96 208l0 16 128 0 0-16L96 208zM224 368L96 368l0 16 128 0 0-16z"/></svg>