<svg xmlns="http://www.w3.org/2000/svg" viewBox="0 0 512 512"><!--! Font Awesome Pro 6.6.0 by @fontawesome - https://fontawesome.com License - https://fontawesome.com/license (Commercial License) Copyright 2024 Fonticons, Inc. --><path d="M264 0L249.1 0l8.3 12.4 10.8 16.3c2.5 3.7 3.8 8.1 3.8 12.6C272 53.8 261.8 64 249.3 64L176 64c-35.3 0-64 28.7-64 64c0 8.5 1.7 16.6 4.7 24l-7.9 0C66.4 152 32 186.4 32 228.8L32 296l0 8 8 0 432 0 8 0 0-8 0-67.2c0-42.4-34.4-76.8-76.8-76.8L392 152l-.3 0c5.3-10.2 8.3-21.7 8.3-34C400 52.8 347.2 0 282 0L264 0zM373 152l-77 0-8 0 0 16 8 0 63.9 0 17 0 7.1 0 8 0 11.2 0c33.6 0 60.8 27.2 60.8 60.8l0 59.2L48 288l0-59.2c0-33.6 27.2-60.8 60.8-60.8l11.2 0 8 0 2 0 15.3 0 22.6 0 8 0 0-16-8 0-33.6 0c-4.1-7.1-6.4-15.2-6.4-24c0-26.5 21.5-48 48-48l73.3 0C270.7 80 288 62.7 288 41.3c0-7.6-2.3-15.1-6.5-21.5L278.9 16l3.1 0c56.3 0 102 45.7 102 102c0 12.7-4.1 24.4-11 34zM64 336l0-8-16 0 0 8 0 16c0 53 43 96 96 96l43.1 0-26.2 52.4L155.1 512l12.9 0 176 0 12.9 0-5.8-11.6L324.9 448l43.1 0c53 0 96-43 96-96l0-16 0-8-16 0 0 8 0 16c0 44.2-35.8 80-80 80l-56 0-12.9 0 5.8 11.6L331.1 496l-150.1 0 26.2-52.4 5.8-11.6L200 432l-56 0c-44.2 0-80-35.8-80-80l0-16z"/></svg>