<svg xmlns="http://www.w3.org/2000/svg" viewBox="0 0 448 512"><!--! Font Awesome Pro 6.6.0 by @fontawesome - https://fontawesome.com License - https://fontawesome.com/license (Commercial License) Copyright 2024 Fonticons, Inc. --><path d="M416 224c0-106-86-192-192-192S32 118 32 224l16 0c0-97.2 78.8-176 176-176s176 78.8 176 176l16 0zM9.6 256L.8 256l.9 8.8 1.4 14.3C10.8 356.8 76.2 416 154.3 416l3.7 0-60 66.6L96 484.9l0 3.1 0 16 0 8 8 0 240 0 8 0 0-8 0-16 0-3.1-2.1-2.3L290 416l3.7 0c78.1 0 143.5-59.2 151.2-136.9l1.4-14.3 .9-8.8-8.8 0L9.6 256zM19 277.5l-.6-5.5 411.1 0-.6 5.5c-7 69.5-65.5 122.5-135.3 122.5L272 400l-18 0 12 13.4L336 491.1l0 4.9-224 0 0-4.9 69.9-77.7L194 400l-18 0-21.7 0C84.4 400 25.9 347.1 19 277.5z"/></svg>