<svg xmlns="http://www.w3.org/2000/svg" viewBox="0 0 640 512"><!--! Font Awesome Pro 6.6.0 by @fontawesome - https://fontawesome.com License - https://fontawesome.com/license (Commercial License) Copyright 2024 Fonticons, Inc. --><path d="M40 32l560 0 8 0 0 16-8 0-80 0 0 96 80 0 8 0 0 16-8 0L40 160l-8 0 0-16 8 0 80 0 0-96L40 48l-8 0 0-16 8 0zM504 48L392 48l0 96 112 0 0-96zM376 48L264 48l0 96 112 0 0-96zM248 48L136 48l0 96 112 0 0-96zM40 256l24 0c48.6 0 88 39.4 88 88l0 120 80 0 0-120c0-48.6 39.4-88 88-88c12.3 0 24 2.5 34.7 7.1c-3.2 4.4-6.3 8.9-9.1 13.6c-7.9-3-16.5-4.7-25.5-4.7c-39.8 0-72 32.2-72 72l0 128 0 8-8 0-96 0-8 0 0-8 0-128c0-39.8-32.2-72-72-72l-24 0-8 0 0-16 8 0zM624 368a128 128 0 1 0 -256 0 128 128 0 1 0 256 0zm-272 0a144 144 0 1 1 288 0 144 144 0 1 1 -288 0zm156 76l-24 0 0-24 24 0 0 24zm-4-164l0 8 0 96 0 8-16 0 0-8 0-96 0-8 16 0z"/></svg>