<svg xmlns="http://www.w3.org/2000/svg" viewBox="0 0 640 512"><!--! Font Awesome Pro 6.6.0 by @fontawesome - https://fontawesome.com License - https://fontawesome.com/license (Commercial License) Copyright 2024 Fonticons, Inc. --><path d="M568 296l8 0 0-16-8 0-88 0 0-104 0-4.7 61.7-61.7 5.7-5.7L536 92.7l-5.7 5.7L468.7 160l-4.7 0-149.4 0 20.3 16L464 176l0 102 22.9 18 81.1 0zM328 463.8L328 354l-16-12.6 0 122.4c-75.8-4.2-136-66.9-136-143.8l0-24 0-16 0-46-16-12.6 0 58.6-88 0-8 0 0 16 8 0 88 0 0 24c0 33.1 10.1 63.9 27.3 89.4l-.9 .9-80 80-5.7 5.7L112 507.3l5.7-5.7L197 422.3c27.8 33.3 68.8 55.2 115 57.5l0 .2 8 0 8 0 0-.2c39.9-2 76-18.5 102.9-44.5l-12.7-10c-23.9 22.3-55.4 36.6-90.2 38.5zM400 128l16 0 0-16 0-16c0-53-43-96-96-96c-50.6 0-92 39.1-95.7 88.7L240 101.1l0-5.1c0-44.2 35.8-80 80-80s80 35.8 80 80l0 16-146.2 0 20.3 16L400 128zM16.2 5L9.9 0 0 12.5l6.3 5L623.8 507l6.3 5 9.9-12.5-6.3-5L16.2 5z"/></svg>