<svg xmlns="http://www.w3.org/2000/svg" viewBox="0 0 512 512"><!--! Font Awesome Pro 6.6.0 by @fontawesome - https://fontawesome.com License - https://fontawesome.com/license (Commercial License) Copyright 2024 Fonticons, Inc. --><path d="M208 16l0 480 288 0 0-480L208 16zM192 0l16 0L496 0l16 0 0 16 0 480 0 16-16 0-288 0-16 0 0-16 0-480 0-16zM160 144L16 144l0 352 144 0 0 16L8 512l-8 0 0-8L0 136l0-8 8 0 152 0 0 16zM64 320l8 0 64 0 8 0 0 8 0 64 0 8-8 0-64 0-8 0 0-8 0-64 0-8zm16 16l0 48 48 0 0-48-48 0zM72 192l64 0 8 0 0 8 0 64 0 8-8 0-64 0-8 0 0-8 0-64 0-8 8 0zm8 64l48 0 0-48-48 0 0 48zM368 400l0-8 0-64 0-8 8 0 64 0 8 0 0 8 0 64 0 8-8 0-64 0-8 0zm16-16l48 0 0-48-48 0 0 48zm-8-112l-8 0 0-8 0-64 0-8 8 0 64 0 8 0 0 8 0 64 0 8-8 0-64 0zm8-64l0 48 48 0 0-48-48 0zM256 400l0-8 0-64 0-8 8 0 64 0 8 0 0 8 0 64 0 8-8 0-64 0-8 0zm16-16l48 0 0-48-48 0 0 48zM264 72l64 0 8 0 0 8 0 64 0 8-8 0-64 0-8 0 0-8 0-64 0-8 8 0zm8 64l48 0 0-48-48 0 0 48zM256 272l0-8 0-64 0-8 8 0 64 0 8 0 0 8 0 64 0 8-8 0-64 0-8 0zm16-16l48 0 0-48-48 0 0 48zM376 72l64 0 8 0 0 8 0 64 0 8-8 0-64 0-8 0 0-8 0-64 0-8 8 0zm8 64l48 0 0-48-48 0 0 48z"/></svg>