<svg xmlns="http://www.w3.org/2000/svg" viewBox="0 0 512 512"><!--! Font Awesome Pro 6.6.0 by @fontawesome - https://fontawesome.com License - https://fontawesome.com/license (Commercial License) Copyright 2024 Fonticons, Inc. --><path d="M16 122.5L16 144l208 0c-5-6.7-8-15-8-24c0-22.1 17.9-40 40-40s40 17.9 40 40c0 9-3 17.3-8 24l208 0 0-21.5L256 17.5 16 122.5zM256 144a24 24 0 1 0 0-48 24 24 0 1 0 0 48zm0 16L16 160 0 160l0-16 0-32L256 0 512 112l0 32 0 16-16 0-240 0zM80 192l0 8 0 168 104 0 0-168 0-8 16 0 0 8 0 168 112 0 0-168 0-8 16 0 0 8 0 168 104 0 0-168 0-8 16 0 0 8 0 176 0 8-8 0-112 0-16 0-112 0-16 0L72 384l-8 0 0-8 0-176 0-8 16 0zM32 432l8 0 432 0 8 0 0 16-8 0L40 448l-8 0 0-16zM0 496l8 0 496 0 8 0 0 16-8 0L8 512l-8 0 0-16z"/></svg>