<svg xmlns="http://www.w3.org/2000/svg" viewBox="0 0 640 512"><!--! Font Awesome Pro 6.6.0 by @fontawesome - https://fontawesome.com License - https://fontawesome.com/license (Commercial License) Copyright 2024 Fonticons, Inc. --><path d="M40 32l-8 0 0 8 0 152 0 8 0 24 0 96 1.6 0C12.9 340.3 0 368.7 0 400c0 61.9 50.1 112 112 112l256 0c61.9 0 112-50.1 112-112c0-31.3-12.9-59.7-33.6-80l1.6 0 88 0 0 80 0 2.9 1.9 2.2 88 104 12.2-10.3L552 397.1l0-154.1 86.1-101.8-12.2-10.3-88 104-1.9 2.2 0 2.9 0 64-88 0 0-104 0-8-8 0-80 0 0-64 0-8-16 0 0 8 0 64-59.3 0L199 36.1 196.7 32 192 32 40 32zM432 304l0 4.1c-18.1-12.7-40.2-20.1-64-20.1l-256 0c-23.8 0-45.9 7.4-64 20.1L48 224l0-16 231.9 0 .3 0 63.8 0 16 0 72 0 0 96zM266.5 192L48 192 48 48l139.3 0 79.2 144zM112 304l256 0c53 0 96 43 96 96s-43 96-96 96l-256 0c-53 0-96-43-96-96s43-96 96-96zM96 416a16 16 0 1 0 0-32 16 16 0 1 0 0 32zm304-16a16 16 0 1 0 -32 0 16 16 0 1 0 32 0zM288 416a16 16 0 1 0 0-32 16 16 0 1 0 0 32zm-80-16a16 16 0 1 0 -32 0 16 16 0 1 0 32 0z"/></svg>