<svg xmlns="http://www.w3.org/2000/svg" viewBox="0 0 576 512"><!--! Font Awesome Pro 6.6.0 by @fontawesome - https://fontawesome.com License - https://fontawesome.com/license (Commercial License) Copyright 2024 Fonticons, Inc. --><path d="M384 0L192 0l0 16 22.1 0L153.5 304 80 304l-16 0 0 16 0 70.9c3.8-2.6 7.8-5.5 12.3-8.7l1.1-.8 2.6-1.9L80 320l416 0 0 59.5 3.7 2.7s0 0 0 0c4.4 3.2 8.5 6.1 12.3 8.7l0-70.9 0-16-16 0-73.5 0L361.9 16 384 16l0-16zM345.5 16l13.2 62.6-70.7 82-70.7-82L230.5 16l115 0zM213.2 98.3l64.3 74.5L171.6 295.5 213.2 98.3zM288 185.1L390.5 304l-205.1 0L288 185.1zM404.4 295.5L298.6 172.8l64.3-74.5 41.5 197.3zM96.6 427L96 426l-.6 .9c-4.3 6.1-8.5 12.2-13.3 17.9c-4.8 5.8-11.8 13.5-20.2 21.2C44.6 481.8 22.5 496 0 496l0 16c28.7 0 54.6-17.8 72.6-34.1c10.2-9.2 18.2-18.4 23.4-24.8c5.2 6.4 13.3 15.6 23.4 24.8c18 16.3 43.9 34.1 72.6 34.1s54.6-17.8 72.6-34.1c10.2-9.2 18.2-18.4 23.4-24.8c5.2 6.4 13.3 15.6 23.4 24.8c18 16.3 43.9 34.1 72.6 34.1s54.6-17.8 72.6-34.1c10.2-9.2 18.2-18.4 23.4-24.8c5.2 6.4 13.3 15.6 23.4 24.8c18 16.3 43.9 34.1 72.6 34.1l0-16c-22.5 0-44.6-14.2-61.8-29.9c-8.5-7.7-15.4-15.4-20.2-21.2c-4.8-5.8-9-11.8-13.3-17.9l-.6-.9-.6 .9c-4.3 6.1-8.5 12.2-13.3 17.9c-4.8 5.8-11.8 13.5-20.2 21.2C428.5 481.8 406.5 496 384 496s-44.6-14.2-61.8-29.9c-8.5-7.7-15.4-15.4-20.2-21.2c-4.8-5.8-9-11.8-13.3-17.9c-.2-.3-.4-.6-.6-.9l-.6 .9c-4.3 6.1-8.5 12.1-13.3 17.9c-4.8 5.8-11.8 13.5-20.2 21.2C236.5 481.8 214.5 496 192 496s-44.6-14.2-61.8-29.9c-8.5-7.7-15.4-15.4-20.2-21.2c-4.8-5.8-9-11.8-13.3-17.9z"/></svg>