<svg xmlns="http://www.w3.org/2000/svg" viewBox="0 0 512 512"><!--! Font Awesome Pro 6.6.0 by @fontawesome - https://fontawesome.com License - https://fontawesome.com/license (Commercial License) Copyright 2024 Fonticons, Inc. --><path d="M256 80a32 32 0 1 0 0-64 32 32 0 1 0 0 64zm-8 15.3c-22.7-3.8-40-23.6-40-47.3c0-26.5 21.5-48 48-48s48 21.5 48 48c0 23.8-17.3 43.5-40 47.3l0 43.7L380.4 80.8l5.2-2.6 4.1 4.1 120 120 2.3 2.3 0 3.3 0 8 0 8-8 0-138.1 0c-31.5 0-62.3-8.8-89-25.5l-12.8-8 0 172.8 58.8-32.1c18-9.8 29.2-28.7 29.2-49.2l0-18 0-8 16 0 0 8 0 18c0 26.3-14.4 50.6-37.5 63.2l-57.8 31.5 25.8 14.1C321.6 403.4 336 427.6 336 454l0 18 0 8-16 0 0-8 0-18c0-20.5-11.2-39.4-29.2-49.2L264 390.2l0 57.8 0 64-16 0 0-64 0-57.8-26.8 14.6c-18 9.8-29.2 28.7-29.2 49.2l0 18 0 8-16 0 0-8 0-18c0-26.3 14.4-50.6 37.5-63.2l25.8-14.1-57.8-31.5C158.4 332.6 144 308.4 144 282l0-18 0-8 16 0 0 8 0 18c0 20.5 11.2 39.3 29.2 49.2L248 363.3l0-172.8-12.8 8c-26.7 16.7-57.6 25.5-89 25.5L8 224l-8 0 0-8 0-8 0-3.3 2.3-2.3 120-120 4.1-4.1 5.2 2.6L248 139.1l0-43.7zm0 61.6L129.6 97.7 19.3 208l126.8 0c28.5 0 56.4-8 80.6-23.1L248 171.6l0-14.6zm16 14.6l21.3 13.3C309.5 200 337.4 208 365.9 208l126.8 0L382.4 97.7 264 156.9l0 14.6z"/></svg>