<svg xmlns="http://www.w3.org/2000/svg" viewBox="0 0 512 512"><!--! Font Awesome Pro 6.6.0 by @fontawesome - https://fontawesome.com License - https://fontawesome.com/license (Commercial License) Copyright 2024 Fonticons, Inc. --><path d="M286.1 51.4L26.5 256 496 256c0-69.1-30.4-121.4-70.5-156.1C385.8 65.6 336.1 48 296 48l-5.5 0-4.4 3.4zM16 272l0 80 480 0 0-.4 0-.5 0-.5 0-.5 0-.5 0-.5 0-.5 0-.5 0-.5 0-.5 0-.5 0-.5 0-.5 0-.5 0-.5 0-.5 0-.5 0-.5 0-.5 0-.5 0-.5 0-.5 0-.5 0-.5 0-.5 0-.5 0-.5 0-.5 0-.5 0-.5 0-.6 0-.6 0-.6 0-.6 0-.6 0-.6 0-.6 0-.6 0-.6 0-.6 0-.6 0-.6 0-.6 0-.6 0-.6 0-.6 0-.6 0-.6 0-.6 0-.6 0-.6 0-.6 0-.6 0-.6 0-.6 0-.6 0-.6 0-.6 0-.6 0-.6 0-.6 0-.6 0-.6 0-.6 0-.6 0-.6 0-.6 0-.6 0-.6 0-.6 0-.6 0-.6 0-.6 0-.6 0-.6 0-.6 0-.6 0-.6 0-.6 0-.6 0-.6 0-.6 0-.6 0-.6 0-.6 0-.6 0-.6 0-.6 0-.6 0-.6 0-.6 0-.6 0-.6 0-.6 0-.7 0-.7 0-.7 0-.7 0-.7 0-.7 0-.7 0-.7 0-.7 0-.7 0-.7 0-.7 0-.7 0-.7 0-.7 0-.7 0-.7 0-.7 0-.7 0-.7 0-.7 0-.7 0-.7 0-.7 0-.7 0-.7 0-.7 0-.7 0-.7 0-.7 0-.7 0-.7 0-.7 0-.7 0-.7 0-.7 0-.7 0-.7c0 0 0-.1 0-.1L16 272zm480 96L16 368l0 80 0 16 16 0 448 0 16 0 0-16c0 0 0 0 0-.1s0 0 0-.1s0 0 0-.1s0 0 0-.1s0 0 0-.1s0 0 0-.1s0 0 0-.1s0 0 0-.1s0 0 0-.1s0 0 0-.1s0 0 0-.1s0 0 0-.1s0-.1 0-.1s0-.1 0-.1s0-.1 0-.1s0-.1 0-.1s0-.1 0-.1s0-.1 0-.1s0-.1 0-.1s0-.1 0-.1s0-.1 0-.1s0-.1 0-.1s0-.1 0-.1s0-.1 0-.1s0-.1 0-.1s0-.1 0-.1s0-.1 0-.1s0-.1 0-.1s0-.1 0-.1s0-.1 0-.1s0-.1 0-.1s0-.1 0-.1s0-.1 0-.1l0-.1 0-.1c0 0 0-.1 0-.1l0-.1 0-.1 0-.1 0-.1 0-.1 0-.1 0-.1 0-.1 0-.1 0-.1 0-.1 0-.1 0-.1 0-.1 0-.1 0-.1 0-.1 0-.1 0-.1 0-.1 0-.1 0-.1 0-.1 0-.1 0-.1 0-.1 0-.1 0-.1 0-.1 0-.1 0-.1 0-.1 0-.1 0-.1 0-.1 0-.1 0-.1 0-.1 0-.1 0-.1 0-.1 0-.1 0-.1 0-.1 0-.1 0-.1 0-.1 0-.1 0-.2 0-.2 0-.2 0-.2 0-.2 0-.2 0-.2 0-.2 0-.2 0-.2 0-.2 0-.2 0-.2 0-.2 0-.2 0-.2 0-.2 0-.2 0-.2 0-.2 0-.2 0-.2 0-.2 0-.2 0-.2 0-.2 0-.2 0-.2 0-.2 0-.2 0-.2 0-.2 0-.2 0-.2 0-.2 0-.2 0-.2 0-.2 0-.2 0-.2 0-.2 0-.2 0-.2 0-.2 0-.2 0-.2 0-.2 0-.2 0-.2 0-.2 0-.2 0-.2 0-.2 0-.2 0-.2 0-.2 0-.2 0-.2 0-.2 0-.2 0-.2 0-.2 0-.2 0-.2 0-.2 0-.2 0-.2 0-.2 0-.2 0-.2 0-.2 0-.2 0-.2 0-.2 0-.2 0-.2 0-.2 0-.2 0-.2 0-.2 0-.2 0-.2 0-.2 0-.2 0-.2 0-.2 0-.2 0-.3 0-.2 0-.3 0-.3 0-.3 0-.3 0-.3 0-.3 0-.3 0-.3 0-.3 0-.3 0-.3 0-.3 0-.3 0-.3 0-.3 0-.3 0-.3 0-.3 0-.3 0-.3 0-.3 0-.3 0-.3 0-.3 0-.3 0-.3 0-.3 0-.3 0-.3 0-.3 0-.3 0-.3 0-.3 0-.3 0-.3 0-.3 0-.3 0-.3 0-.3 0-.3 0-.3 0-.3 0-.3 0-.3 0-.3 0-.3 0-.3 0-.3 0-.3 0-.3 0-.3 0-.3 0-.3 0-.3 0-.3 0-.3 0-.3 0-.3 0-.3 0-.3 0-.3 0-.3 0-.3 0-.3 0-.3 0-.3 0-.3 0-.3 0-.3 0-.3 0-.3 0-.3 0-.3 0-.3 0-.3 0-.3 0-.4 0-.4 0-.4 0-.4 0-.4 0-.4 0-.4 0-.4 0-.4 0-.4 0-.4 0-.4 0-.4 0-.4 0-.4 0-.4 0-.4 0-.4 0-.4 0-.4 0-.4 0-.4 0-.4 0-.4 0-.4 0-.4 0-.4 0-.4 0-.4 0-.4 0-.4 0-.4 0-.4 0-.4 0-.4 0-.4 0-.4 0-.4 0-.4 0-.4 0-.4 0-.4 0-.4 0-.4 0-.4 0-.4 0-.4 0-.4 0-.4 0-.4 0-.4 0-.4 0-.4 0-.4 0-.4 0-.4 0-.4 0-.4 0-.4 0-.4 0-.4 0-.4 0-.4 0-.4 0-.4 0-.4 0-.4 0-.4 0-.4 0-.4 0-.4 0-.5 0-.4 0-.5 0-.5 0-.4zm16 80l0 16 0 16-16 0-16 0L32 480l-16 0L0 480l0-16 0-16L0 272l0-15.5 12.2-9.6 264-208 8.7-6.9L296 32c44.3 0 97.6 19.2 139.9 55.8C479.2 125.2 512 181.7 512 256l0 .7 0 .7 0 .7 0 .7 0 .7 0 .7 0 .7 0 .7 0 .7 0 .7 0 .7 0 .7 0 .7 0 .7 0 .7 0 .7 0 .7 0 .7 0 .7 0 .7 0 .7 0 .7 0 .7 0 .7 0 .7 0 .7 0 .7 0 .7 0 .7 0 .7 0 .7 0 .7 0 .7 0 .7 0 .7 0 .7 0 .7 0 .7 0 .7 0 .7 0 .7 0 .7 0 .7 0 .7 0 .7 0 .7 0 .7 0 .7 0 .7 0 .7 0 .7 0 .7 0 .7 0 .7 0 .7 0 .7 0 .7 0 .7 0 .7 0 .7 0 .6 0 .6 0 .6 0 .6 0 .6 0 .6 0 .6 0 .6 0 .6 0 .6 0 .6 0 .6 0 .6 0 .6 0 .6 0 .6 0 .6 0 .6 0 .6 0 .6 0 .6 0 .6 0 .6 0 .6 0 .6 0 .6 0 .6 0 .6 0 .6 0 .6 0 .6 0 .6 0 .6 0 .6 0 .6 0 .6 0 .6 0 .6 0 .6 0 .6 0 .6 0 .6 0 .6 0 .6 0 .6 0 .6 0 .6 0 .6 0 .6 0 .6 0 .6 0 .6 0 .6 0 .6 0 .6 0 .6 0 .6 0 .6 0 .6 0 .6 0 .6 0 .6 0 .6 0 .6 0 .5 0 .5 0 .5 0 .5 0 .5 0 .5 0 .5 0 .5 0 .5 0 .5 0 .5 0 .5 0 .5 0 .5 0 .5 0 .5 0 .5 0 .5 0 .5 0 .5 0 .5 0 .5 0 .5 0 .5 0 .5 0 .5 0 .5 0 .5 0 .5 0 .5 0 .5 0 .5 0 .5 0 .5 0 .5 0 .5 0 .5 0 .5 0 .5 0 .5 0 .5 0 .5 0 .5 0 .5 0 .5 0 .5 0 .5 0 .5 0 .5 0 .5 0 .5 0 .5 0 .5 0 .5 0 .5 0 .5 0 .5 0 .5 0 .5 0 .5 0 .5 0 .5 0 .5 0 .5 0 .5 0 .5 0 .4 0 .5 0 .4 0 .4 0 .4 0 .4 0 .4 0 .4 0 .4 0 .4 0 .4 0 .4 0 .4 0 .4 0 .4 0 .4 0 .4 0 .4 0 .4 0 .4 0 .4 0 .4 0 .4 0 .4 0 .4 0 .4 0 .4 0 .4 0 .4 0 .4 0 .4 0 .4 0 .4 0 .4 0 .4 0 .4 0 .4 0 .4 0 .4 0 .4 0 .4 0 .4 0 .4 0 .4 0 .4 0 .4 0 .4 0 .4 0 .4 0 .4 0 .4 0 .4 0 .4 0 .4 0 .4 0 .4 0 .4 0 .4 0 .4 0 .4 0 .4 0 .4 0 .4 0 .4 0 .4 0 .4 0 .4 0 .4 0 .4 0 .4 0 .4 0 .4 0 .4 0 .3 0 .3 0 .3 0 .3 0 .3 0 .3 0 .3 0 .3 0 .3 0 .3 0 .3 0 .3 0 .3 0 .3 0 .3 0 .3 0 .3 0 .3 0 .3 0 .3 0 .3 0 .3 0 .3 0 .3 0 .3 0 .3 0 .3 0 .3 0 .3 0 .3 0 .3 0 .3 0 .3 0 .3 0 .3 0 .3 0 .3 0 .3 0 .3 0 .3 0 .3 0 .3 0 .3 0 .3 0 .3 0 .3 0 .3 0 .3 0 .3 0 .3 0 .3 0 .3 0 .3 0 .3 0 .3 0 .3 0 .3 0 .3 0 .3 0 .3 0 .3 0 .3 0 .3 0 .3 0 .3 0 .3 0 .3 0 .3 0 .3 0 .3 0 .3 0 .3 0 .3 0 .3 0 .3 0 .3 0 .2 0 .3 0 .2 0 .2 0 .2 0 .2 0 .2 0 .2 0 .2 0 .2 0 .2 0 .2 0 .2 0 .2 0 .2 0 .2 0 .2 0 .2 0 .2 0 .2 0 .2 0 .2 0 .2 0 .2 0 .2 0 .2 0 .2 0 .2 0 .2 0 .2 0 .2 0 .2 0 .2 0 .2 0 .2 0 .2 0 .2 0 .2 0 .2 0 .2 0 .2 0 .2 0 .2 0 .2 0 .2 0 .2 0 .2 0 .2 0 .2 0 .2 0 .2 0 .2 0 .2 0 .2 0 .2 0 .2 0 .2 0 .2 0 .2 0 .2 0 .2 0 .2 0 .2 0 .2 0 .2 0 .2 0 .2 0 .2 0 .2 0 .2 0 .2 0 .2 0 .2 0 .2 0 .2 0 .2 0 .2 0 .2 0 .2 0 .2 0 .2 0 .2 0 .2 0 .2 0 .2 0 .2 0 .2 0 .2 0 .2 0 .1 0 .1 0 .1 0 .1 0 .1 0 .1 0 .1 0 .1 0 .1 0 .1 0 .1 0 .1 0 .1 0 .1 0 .1 0 .1 0 .1 0 .1 0 .1 0 .1 0 .1 0 .1 0 .1 0 .1 0 .1 0 .1 0 .1 0 .1 0 .1 0 .1 0 .1 0 .1 0 .1 0 .1 0 .1 0 .1 0 .1 0 .1 0 .1 0 .1 0 .1 0 .1 0 .1 0 .1 0 .1 0 .1 0 .1 0 .1c0 0 0 .1 0 .1l0 .1 0 .1c0 0 0 .1 0 .1s0 .1 0 .1s0 .1 0 .1s0 .1 0 .1s0 .1 0 .1s0 .1 0 .1s0 .1 0 .1s0 .1 0 .1s0 .1 0 .1s0 .1 0 .1s0 .1 0 .1s0 .1 0 .1s0 .1 0 .1s0 .1 0 .1s0 .1 0 .1s0 .1 0 .1s0 .1 0 .1s0 .1 0 .1s0 .1 0 .1s0 .1 0 .1s0 .1 0 .1s0 0 0 .1s0 0 0 .1s0 0 0 .1s0 0 0 .1s0 0 0 .1s0 0 0 .1s0 0 0 .1s0 0 0 .1s0 0 0 .1s0 0 0 .1s0 0 0 .1s0 0 0 .1z"/></svg>