<svg xmlns="http://www.w3.org/2000/svg" viewBox="0 0 512 512"><!--! Font Awesome Pro 6.6.0 by @fontawesome - https://fontawesome.com License - https://fontawesome.com/license (Commercial License) Copyright 2024 Fonticons, Inc. --><path d="M264 0l0 8 0 240 240 0 8 0 0 16-8 0-240 0 0 240 0 8-16 0 0-8 0-240L8 264l-8 0 0-16 8 0 240 0L248 8l0-8 16 0zM408 48l0 8 0 48 48 0 8 0 8 0 8 0 0 16-8 0-8 0-8 0-48 0 0 48 0 8 0 8 0 8-16 0 0-8 0-8 0-8 0-48-48 0-8 0-8 0-8 0 0-16 8 0 8 0 8 0 48 0 0-48 0-8 0-8 0-8 16 0 0 8 0 8zM56.4 333.1l5.7 5.7L112 388.7l49.9-49.9 5.7-5.7 11.3 11.3-5.7 5.7L123.3 400l49.9 49.9 5.7 5.7-11.3 11.3-5.7-5.7L112 411.3 62.1 461.3l-5.7 5.7L45.1 455.6l5.7-5.7L100.7 400 50.7 350.1l-5.7-5.7 11.3-11.3zM40 104l144 0 8 0 0 16-8 0L40 120l-8 0 0-16 8 0zM328 360l144 0 8 0 0 16-8 0-144 0-8 0 0-16 8 0zm0 64l144 0 8 0 0 16-8 0-144 0-8 0 0-16 8 0z"/></svg>