<svg xmlns="http://www.w3.org/2000/svg" viewBox="0 0 576 512"><!--! Font Awesome Pro 6.6.0 by @fontawesome - https://fontawesome.com License - https://fontawesome.com/license (Commercial License) Copyright 2024 Fonticons, Inc. --><path d="M128 8l0-8L112 0l0 8 0 56L16 64 0 64 0 80l0 96 0 16L0 496l0 16 16 0 314.8 0c-6.9-4.9-13.5-10.2-19.6-16L16 496l0-304 336 0 80 0 16 0 0-16 0-96 0-16-16 0-96 0 0-56 0-8L320 0l0 8 0 56L128 64l0-56zM112 80l0 40 0 8 16 0 0-8 0-40 192 0 0 40 0 8 16 0 0-8 0-40 96 0 0 96L16 176l0-96 96 0zM304 368a128 128 0 1 1 256 0 128 128 0 1 1 -256 0zm272 0a144 144 0 1 0 -288 0 144 144 0 1 0 288 0zM444 444l0-24-24 0 0 24 24 0zm-4-164l-16 0 0 8 0 96 0 8 16 0 0-8 0-96 0-8z"/></svg>