<svg xmlns="http://www.w3.org/2000/svg" viewBox="0 0 576 512"><!--! Font Awesome Pro 6.6.0 by @fontawesome - https://fontawesome.com License - https://fontawesome.com/license (Commercial License) Copyright 2024 Fonticons, Inc. --><path d="M128 8l0-8L112 0l0 8 0 56L16 64 0 64 0 80l0 96 0 16L0 496l0 16 16 0 237.4 0 2.3-16L16 496l0-304 368 0 48 0 16 0 0-16 0-96 0-16-16 0-96 0 0-56 0-8L320 0l0 8 0 56L128 64l0-56zM112 80l0 40 0 8 16 0 0-8 0-40 192 0 0 40 0 8 16 0 0-8 0-40 96 0 0 96L16 176l0-96 96 0zm-8 304l-8 0 0 16 8 0 144 0 8 0 0-16-8 0-144 0zm-8-96l0 16 8 0 240 0 8 0 0-16-8 0-240 0-8 0zm402.9-64.1L302.2 420.6l-11.6 74.7L288 511.9l16.6-2.6 74.7-11.6L564.7 312.3 576 300.9l-11.3-11.3-54.5-54.5-11.3-11.3zM317.2 428.2L455 290.4l54.5 54.5L371.7 482.6l-64.5 10 10-64.5zM553.4 300.9l-32.5 32.5L466.4 279l32.5-32.5 54.5 54.5z"/></svg>