<svg xmlns="http://www.w3.org/2000/svg" viewBox="0 0 640 512"><!--! Font Awesome Pro 6.6.0 by @fontawesome - https://fontawesome.com License - https://fontawesome.com/license (Commercial License) Copyright 2024 Fonticons, Inc. --><path d="M544 224C544 100.3 443.7 0 320 0C265.7 0 215.9 19.3 177.1 51.5L190 61.6C225.6 33.1 270.8 16 320 16c114.9 0 208 93.1 208 208c0 31.8-7.1 61.9-19.9 88.8L521 323c14.7-29.8 23-63.4 23-99zM527.9 511.9L507.8 496l-12.5 0s0 0 0 0l-350.6 0 61.5-79c33.4 19.7 72.3 31 113.8 31c35.3 0 68.6-8.1 98.3-22.7l-14.1-11.1C378.5 425.7 350 432 320 432c-114.9 0-208-93.1-208-208c0-12.9 1.2-25.5 3.4-37.8l-14.1-11.1C97.8 190.9 96 207.2 96 224c0 76.4 38.3 143.9 96.7 184.3L124.4 496 112 512l20.3 0 375.5 0 20.3 0-.1-.1zM320 368c7.9 0 15.7-.6 23.3-1.9l-18-14.2c-1.8 .1-3.5 .1-5.3 .1c-62.3 0-114.2-44.5-125.7-103.5l-18-14.2C181.7 309 243.9 368 320 368zM448 224c0 12.9-1.9 25.3-5.4 37l13.4 10.6c5.2-14.9 8.1-30.9 8.1-47.6c0-79.5-64.5-144-144-144c-28.7 0-55.4 8.4-77.8 22.8l13.4 10.6C274.5 102.3 296.5 96 320 96c70.7 0 128 57.3 128 128zM16.2 5L9.9 0 0 12.5l6.3 5L623.8 507l6.3 5 9.9-12.5-6.3-5L16.2 5z"/></svg>