<svg xmlns="http://www.w3.org/2000/svg" viewBox="0 0 384 512"><!--! Font Awesome Pro 6.6.0 by @fontawesome - https://fontawesome.com License - https://fontawesome.com/license (Commercial License) Copyright 2024 Fonticons, Inc. --><path d="M343 456.5c-7 6.7-17.9 13.5-32.7 19.6C280.9 488.2 239 496 192 496s-88.9-7.8-118.4-19.9c-14.8-6-25.7-12.8-32.7-19.6c-6.9-6.7-9-12.3-9-16.5l0-160.1c15.1 9.6 34.6 17.6 56.9 23.6c7.4 2 15.1 3.7 23.1 5.3l0 59.2 0 16 16 0 128 0 16 0 0-16 0-59.2c8-1.5 15.7-3.3 23.1-5.3c22.3-6 41.9-13.9 56.9-23.6L352 440c0 4.3-2 9.8-9 16.5zM112 292.5c-6.6-1.3-12.9-2.8-18.9-4.4c-26.6-7.1-47.6-16.8-61.1-27.8l0-152.9c9.5 8.8 22.6 16.5 38.2 22.7c31.6 12.6 74.6 20.3 121.8 20.3s90.2-7.6 121.8-20.3c15.6-6.2 28.8-13.9 38.2-22.7l0 152.9c-13.5 10.9-34.5 20.6-61.1 27.8c-6.1 1.6-12.4 3.1-18.9 4.4l0-52.5 0-16-16 0-128 0-16 0 0 16 0 52.5zM341.3 95.5c-7.5 7.1-18.8 13.9-33.5 19.7C278.6 127 237.6 134.4 192 134.4s-86.6-7.4-115.8-19.1c-14.6-5.9-26-12.6-33.5-19.7C35.2 88.4 32 81.6 32 75.2s3.2-13.2 10.7-20.3C50.2 47.7 61.5 41 76.2 35.1C105.4 23.4 146.4 16 192 16s86.6 7.4 115.8 19.1c14.6 5.9 26 12.6 33.5 19.7c7.5 7.1 10.7 14 10.7 20.3s-3.2 13.2-10.7 20.3zM368 440l0-364.8 0-3.2c0-39.8-78.8-72-176-72S16 32.2 16 72l0 3.2L16 440c0 39.8 78.8 72 176 72s176-32.2 176-72zM128 368l0-128 128 0 0 128-128 0z"/></svg>