<svg xmlns="http://www.w3.org/2000/svg" viewBox="0 0 640 512"><!--! Font Awesome Pro 6.6.0 by @fontawesome - https://fontawesome.com License - https://fontawesome.com/license (Commercial License) Copyright 2024 Fonticons, Inc. --><path d="M78.8 74.3L73 75.9l-.1 6L70.2 242.2l-35 9.4-15.5 4.1 4.1 15.5L65.3 425.8l4.1 15.5 12.4 46.4L86 503l15.5-4.1 61.8-16.6 15.5-4.1-4.1-15.5-12.4-46.4 278.2-74.5 12.4 46.4 4.1 15.5 15.5-4.1 61.8-16.6 15.5-4.1-4.1-15.5L533.1 317 529 301.5 487.5 147l-4.1-15.5-15.5 4.1-35 9.4L350.5 7.5l-3.1-5.2-5.8 1.6L78.8 74.3zm63.8 330.8L80.8 421.6 39.4 267.1l432.7-116 41.4 154.5-61.8 16.6-15.5 4.1L158 400.9l-15.5 4.1zm-57.7 32l61.8-16.6 12.4 46.4L97.3 483.4 84.9 437.1zm332-287.7L86.3 237.9 88.8 88.2 339.8 20.9l77 128.4zM468.2 384l-12.4-46.4 61.8-16.6 12.4 46.4L468.2 384zM121.9 327.8a16 16 0 1 1 30.9-8.3 16 16 0 1 1 -30.9 8.3zm46.4-12.4a32 32 0 1 0 -61.8 16.6 32 32 0 1 0 61.8-16.6zm243.1-81.7a16 16 0 1 1 8.3 30.9 16 16 0 1 1 -8.3-30.9zM423.8 280a32 32 0 1 0 -16.6-61.8A32 32 0 1 0 423.8 280zm77.8 152c47.3 0 86.5 34.7 93.5 80l16.1 0c0-.4 0-.8-.1-1.1c-7.7-53.6-53.8-94.9-109.5-94.9s-101.9 41.2-109.5 94.9c-.1 .4-.1 .8-.1 1.1l16.1 0c7-45.3 46.2-80 93.5-80z"/></svg>