<svg xmlns="http://www.w3.org/2000/svg" viewBox="0 0 512 512"><!--! Font Awesome Pro 6.6.0 by @fontawesome - https://fontawesome.com License - https://fontawesome.com/license (Commercial License) Copyright 2024 Fonticons, Inc. --><path d="M112 32l-6 0-1.7 5.7L58 192l-42 0L0 192l0 16L0 384l0 16 0 64 0 16 16 0 64 0 16 0 0-16 0-64 320 0 0 64 0 16 16 0 64 0 16 0 0-16 0-64 0-16 0-176 0-16-16 0-42 0L407.7 37.7 406 32l-6 0L112 32zM437.2 192L416 192l0 16 80 0 0 176-64 0-16 0L96 384l-16 0-64 0 0-176 80 0 0-16-21.2 0L118 48 394 48l43.2 144zM432 464l0-64 64 0 0 64-64 0zM80 400l0 64-64 0 0-64 64 0zm0-112a16 16 0 1 1 32 0 16 16 0 1 1 -32 0zm48 0a32 32 0 1 0 -64 0 32 32 0 1 0 64 0zm288-16a16 16 0 1 1 0 32 16 16 0 1 1 0-32zm0 48a32 32 0 1 0 0-64 32 32 0 1 0 0 64zM297.7 98.3l7.9-26.5L284.8 90l-138 120-16.1 14 21.4 0 76.8 0-18.5 61.7-7.9 26.5L223.2 294l138-120 16.1-14L356 160l-76.8 0 18.5-61.7zM239.6 208l-66.2 0 101-87.8-13.7 45.5L257.6 176l10.8 0 66.2 0-101 87.8 13.7-45.5 3.1-10.3-10.8 0z"/></svg>