<svg xmlns="http://www.w3.org/2000/svg" viewBox="0 0 512 512"><!--! Font Awesome Pro 6.6.0 by @fontawesome - https://fontawesome.com License - https://fontawesome.com/license (Commercial License) Copyright 2024 Fonticons, Inc. --><path d="M264 8l0 112 0 8-16 0 0-8L248 8l0-8 16 0 0 8zM146 176l6 0 208 0 6 0 1.7 5.8L398 288l34 0 16 0 0 16 0 128 0 16 0 48 0 16-16 0-48 0-16 0 0-16 0-48-224 0 0 48 0 16-16 0-48 0-16 0 0-16 0-48 0-16 0-128 0-16 16 0 34 0 30.3-106.2L146 176zM80 304l0 128 48 0 16 0 224 0 16 0 48 0 0-128L80 304zM384 496l48 0 0-48-48 0 0 48zM128 448l-48 0 0 48 48 0 0-48zM354 192L158 192l-27.4 96 250.8 0L354 192zM128 368a16 16 0 1 0 32 0 16 16 0 1 0 -32 0zm16 32a32 32 0 1 1 0-64 32 32 0 1 1 0 64zm224-48a16 16 0 1 0 0 32 16 16 0 1 0 0-32zm32 16a32 32 0 1 1 -64 0 32 32 0 1 1 64 0zM40 28.7l5.7 5.7 80 80 5.7 5.7L120 131.3l-5.7-5.7-80-80L28.7 40 40 28.7zm426.3 5.7l5.7-5.7L483.3 40l-5.7 5.7-80 80-5.7 5.7L380.7 120l5.7-5.7 80-80z"/></svg>