<svg xmlns="http://www.w3.org/2000/svg" viewBox="0 0 640 512"><!--! Font Awesome Pro 6.6.0 by @fontawesome - https://fontawesome.com License - https://fontawesome.com/license (Commercial License) Copyright 2024 Fonticons, Inc. --><path d="M128 32l-5.4 0-2 5-62 155L16 192 0 192l0 16L0 384l0 16 16 0 49.3 0c7.6 45.4 47.1 80 94.7 80s87.1-34.6 94.7-80l130.7 0c7.6 45.4 47.1 80 94.7 80s87.1-34.6 94.7-80l49.3 0 16 0 0-16 0-176 0-16-16 0-108.2 0L390.2 35l-2.4-3L384 32 128 32zM576 384c0-53-43-96-96-96s-96 43-96 96l-128 0c0-53-43-96-96-96s-96 43-96 96l-48 0 0-176 112 0 0-16-52.2 0L133.4 48l246.7 0L495.4 192 448 192l0 16 176 0 0 176-48 0zM160 304a80 80 0 1 1 0 160 80 80 0 1 1 0-160zm240 80a80 80 0 1 1 160 0 80 80 0 1 1 -160 0zM334.2 97.9l6.1-24.3L321.2 89.9 186.8 205.1l-16.4 14.1 21.6 0 66.6 0-16.7 66.9-6.1 24.3 19.1-16.3L389.2 178.9l16.4-14.1-21.6 0-66.6 0 16.7-66.9zM268.8 203.2l-55.2 0 98.9-84.8-13.1 52.5-2.5 9.9 10.2 0 55.2 0-98.9 84.8 13.1-52.5 2.5-9.9-10.2 0z"/></svg>