<svg xmlns="http://www.w3.org/2000/svg" viewBox="0 0 640 512"><!--! Font Awesome Pro 6.6.0 by @fontawesome - https://fontawesome.com License - https://fontawesome.com/license (Commercial License) Copyright 2024 Fonticons, Inc. --><path d="M216.8 490.1L443.1 359.5 248.2 21.9 21.9 152.5 216.8 490.1zM0 146.7L240.2 8 254 0l8 13.9L456.9 351.5l8 13.9-13.9 8L224.8 504l-13.9 8-8-13.9L0 146.7zM320 486l16-9.2 0 19.3 288 0 0-416L337.1 80l-9.2-16L624 64l16 0 0 16 0 416 0 16-16 0-288 0-16 0 0-16 0-10zM502 151.1c-8.4-8.5-21.7-9.5-29.9-2.4c0 0 0 0 0 0c0 0 0 0 0 0c-10.2 8.8-10.7 24.4-1.6 33.8c0 0 0 0 0 0L512 225.8l41.5-43.2s0 0 0 0c9.1-9.4 8.6-25.1-1.4-33.8c-8.6-7.2-21.7-6.1-30.1 2.3l-4 4.5-5.8 6.4-5.9-6.2-4.3-4.5zm10-12.6c13.6-12.6 35.2-14.8 50.5-2l.1 .1s0 0 0 0c17 14.8 17.8 41.1 2.5 57c0 0 0 0 0 0l-47.3 49.2-5.8 6-5.8-6-47.3-49.2s0 0 0 0c-15.4-15.9-14.6-42.2 2.7-57.1c14.9-12.9 36.8-10.6 50.3 1.9zM245 284.8l1.8-8.4 8.3 2.4 19.5 5.7c21 5.8 42.8-4.9 49.1-23.4c0 0 0 0 0-.1c8.1-23.1-5.3-48.2-28.1-54.7c0 0 0 0 0 0L189.3 176.2 162.7 283s0 0 0 0c-5.7 23 9.3 47.2 32.9 51.9c20 3.5 39.7-10.1 45.2-30.8l4.2-19.4zm11.3 23.4c-7.4 28-34.3 47.6-63.5 42.5l-.2 0s0 0 0 0c-32.8-6.5-53.4-39.7-45.5-71.5l28.6-114.9 2-8 8 2.3L299.9 191s0 0 0 0c31.6 9.1 50 43.5 38.8 75.4c-9.5 27.5-40.5 41.3-68.6 33.5l-.1 0s0 0 0 0l-.1 0L288.1 329l16.4-9.4 6.9-4 8 13.9-6.9 4-48.2 27.8-6.9 4-8-13.9 6.9-4 18-10.4-17.9-28.8z"/></svg>