<svg xmlns="http://www.w3.org/2000/svg" viewBox="0 0 640 512"><!--! Font Awesome Pro 6.6.0 by @fontawesome - https://fontawesome.com License - https://fontawesome.com/license (Commercial License) Copyright 2024 Fonticons, Inc. --><path d="M88 0L82 0 80.3 5.8 50 112l-34 0L0 112l0 16L0 256l0 16 0 48 0 16 16 0 48 0 16 0 0-16 0-48 191.2 0 4.6-16L80 256l-16 0-48 0 0-128 352 0 0 16 16 0 0-16 0-16-16 0-34 0L303.7 5.8 302 0l-6 0L88 0zM64 272l0 48-48 0 0-48 48 0zM317.4 112L66.6 112 94 16 290 16l27.4 96zM80 208a16 16 0 1 1 0-32 16 16 0 1 1 0 32zM48 192a32 32 0 1 0 64 0 32 32 0 1 0 -64 0zm296-16l-6 0-1.7 5.8L306 288l-34 0-16 0 0 16 0 128 0 16 0 48 0 16 16 0 48 0 16 0 0-16 0-48 224 0 0 48 0 16 16 0 48 0 16 0 0-16 0-48 0-16 0-128 0-16-16 0-34 0L559.7 181.8 558 176l-6 0-208 0zM624 432l-48 0-16 0-224 0-16 0-48 0 0-128 352 0 0 128zm-48 16l48 0 0 48-48 0 0-48zm-304 0l48 0 0 48-48 0 0-48zM573.4 288l-250.8 0L350 192 546 192l27.4 96zM336 384a16 16 0 1 1 0-32 16 16 0 1 1 0 32zm-32-16a32 32 0 1 0 64 0 32 32 0 1 0 -64 0zm272 0a16 16 0 1 1 -32 0 16 16 0 1 1 32 0zm-16-32a32 32 0 1 0 0 64 32 32 0 1 0 0-64z"/></svg>