<svg xmlns="http://www.w3.org/2000/svg" viewBox="0 0 640 512"><!--! Font Awesome Pro 6.6.0 by @fontawesome - https://fontawesome.com License - https://fontawesome.com/license (Commercial License) Copyright 2024 Fonticons, Inc. --><path d="M448 304a144 144 0 1 0 0-288 144 144 0 1 0 0 288zm0 16c-77.6 0-142.3-55.2-156.9-128.5C186.4 219.1 112 314.1 112 424l0 72 216 0 8 0s0 0 0 0l32 0 0-13.3c0-19.1-15.5-34.7-34.7-34.7L288 448l-8 0 0-8 0-40c0-26.5-21.5-48-48-48l-32 0-8 0 0-16 8 0 32 0c35.3 0 64 28.7 64 64l0 30.3 125.5-85 12.5-8.5 0 15.1 0 144 46 0 0-179.2c-10.3 2.1-21 3.2-32 3.2zM608 160c0 71.6-47.1 132.3-112 152.7L496 504l0 8-8 0-62 0-8 0 0-8 0-136.9L322.1 432l11.2 0c28 0 50.7 22.7 50.7 50.7l0 21.3 0 8-8 0-192 0s0 0 0 0l-80 0-8 0 0-8 0-80 0-256c0-30.9-25.1-56-56-56l-8 0 0-16 8 0c39.8 0 72 32.2 72 72l0 166.7c28.8-77.4 94-138 176.8-159.2c-.5-5.1-.8-10.3-.8-15.6C288 71.6 359.6 0 448 0s160 71.6 160 160zM373 65.8L410.8 96l74.4 0L523 65.8l13-10.4L536 72l0 96c0 48.6-39.4 88-88 88s-88-39.4-88-88l0-96 0-16.6 13 10.4zM376 168c0 39.8 32.2 72 72 72s72-32.2 72-72l0-79.4-27 21.6-2.2 1.8-2.8 0-80 0-2.8 0-2.2-1.8L376 88.6l0 79.4zm24-8a16 16 0 1 1 32 0 16 16 0 1 1 -32 0zm80-16a16 16 0 1 1 0 32 16 16 0 1 1 0-32zM232 16l0 40 40 0 8 0 0 16-8 0-40 0 0 40 0 8-16 0 0-8 0-40-40 0-8 0 0-16 8 0 40 0 0-40 0-8 16 0 0 8z"/></svg>