<svg xmlns="http://www.w3.org/2000/svg" viewBox="0 0 384 512"><!--! Font Awesome Pro 6.6.0 by @fontawesome - https://fontawesome.com License - https://fontawesome.com/license (Commercial License) Copyright 2024 Fonticons, Inc. --><path d="M232 0l0 8 0 56c43.7 .4 84.1 14.6 116.7 38.3l-9.4 12.9C308.9 93.1 271 80 230 80C129.2 80 48 159 48 256s81.2 176 182 176c41.1 0 78.9-13.1 109.3-35.3l9.4 12.9c-32.6 23.7-73 37.9-116.7 38.3l0 56 0 8-16 0 0-8 0-56.5C113.4 440.6 32 357.7 32 256S113.4 71.4 216 64.5L216 8l0-8 16 0z"/></svg>