<svg xmlns="http://www.w3.org/2000/svg" viewBox="0 0 576 512"><!--! Font Awesome Pro 6.6.0 by @fontawesome - https://fontawesome.com License - https://fontawesome.com/license (Commercial License) Copyright 2024 Fonticons, Inc. --><path d="M424 0l-8 0 0 16 8 0 91.9 0L320.3 189 197.7 66.3l-5-5-5.6 4.4-184 144 9.9 12.6L191.4 82.7l123 123 5.3 5.3 5.6-5L528 26.7l0 93.3 0 8 16 0 0-8L544 8l0-8-8 0L424 0zM208 240l0 224-32 0 0-224 32 0zm-32-16l-16 0 0 16 0 224 0 16 16 0 32 0 16 0 0-16 0-224 0-16-16 0-32 0zM80 336l0 128-32 0 0-128 32 0zM48 320l-16 0 0 16 0 128 0 16 16 0 32 0 16 0 0-16 0-128 0-16-16 0-32 0zm256 48a128 128 0 1 1 256 0 128 128 0 1 1 -256 0zm272 0a144 144 0 1 0 -288 0 144 144 0 1 0 288 0zm-200 0a56 56 0 1 1 112 0 56 56 0 1 1 -112 0zm128 0c0-17-5.9-32.6-15.7-44.9l21.4-21.4-11.3-11.3-21.4 21.4C464.6 301.9 449 296 432 296s-32.6 5.9-44.9 15.7l-21.4-21.4-11.3 11.3 21.4 21.4C365.9 335.4 360 351 360 368s5.9 32.6 15.7 44.9l-21.4 21.4 11.3 11.3 21.4-21.4C399.4 434.1 415 440 432 440s32.6-5.9 44.9-15.7l21.4 21.4 11.3-11.3-21.4-21.4C498.1 400.6 504 385 504 368z"/></svg>