<svg xmlns="http://www.w3.org/2000/svg" viewBox="0 0 448 512"><!--! Font Awesome Pro 6.6.0 by @fontawesome - https://fontawesome.com License - https://fontawesome.com/license (Commercial License) Copyright 2024 Fonticons, Inc. --><path d="M272 48l0 416-96 0 0-416 96 0zM176 32l-16 0 0 16 0 416 0 16 16 0 96 0 16 0 0-16 0-416 0-16-16 0-96 0zM112 240l0 224-96 0 0-224 96 0zM16 224L0 224l0 16L0 464l0 16 16 0 96 0 16 0 0-16 0-224 0-16-16 0-96 0zM336 112l96 0 0 352-96 0 0-352zM320 96l0 16 0 352 0 16 16 0 96 0 16 0 0-16 0-352 0-16-16 0-96 0-16 0z"/></svg>