<svg xmlns="http://www.w3.org/2000/svg" viewBox="0 0 512 512"><!--! Font Awesome Pro 6.6.0 by @fontawesome - https://fontawesome.com License - https://fontawesome.com/license (Commercial License) Copyright 2024 Fonticons, Inc. --><path d="M16 40l0-8L0 32l0 8L0 472l0 8 8 0 496 0 8 0 0-16-8 0L16 464 16 40zM352 352l120 0 8 0 0-8 0-120 0-8-16 0 0 8 0 100.7L293.7 154.3l-5.7-5.7-5.7 5.7L192 244.7l-90.3-90.3L96 148.7 84.7 160l5.7 5.7 96 96 5.7 5.7 5.7-5.7L288 171.3 452.7 336 352 336l-8 0 0 16 8 0z"/></svg>