<svg xmlns="http://www.w3.org/2000/svg" viewBox="0 0 448 512"><!--! Font Awesome Pro 6.6.0 by @fontawesome - https://fontawesome.com License - https://fontawesome.com/license (Commercial License) Copyright 2024 Fonticons, Inc. --><path d="M232 0l0 8 0 48 56 0 8 0 0 16-8 0-56 0 0 88 208 0 8 0 0 8 0 56 0 1.6-.6 1.5L381 384l-17.4 0L432 222.4l0-46.4-200 0-16 0L16 176l0 46.4L84.4 384 67 384 .6 227.1 0 225.6 0 224l0-56 0-8 8 0 208 0 0-88-56 0-8 0 0-16 8 0 56 0 0-48 0-8 16 0zM48 496l352 0 0-20.5L360.9 432 87.1 432 48 475.5 48 496zm-16 0l0-26.7L80 416l288 0 48 53.3 0 26.7 0 16-16 0L48 512l-16 0 0-16z"/></svg>