<svg xmlns="http://www.w3.org/2000/svg" viewBox="0 0 320 512"><!--! Font Awesome Pro 6.6.0 by @fontawesome - https://fontawesome.com License - https://fontawesome.com/license (Commercial License) Copyright 2024 Fonticons, Inc. --><path d="M160 112a48 48 0 1 0 0-96 48 48 0 1 0 0 96zM160 0a64 64 0 1 1 0 128A64 64 0 1 1 160 0zm59.8 245.4l3.4 7.2 64 136 5.4 11.4L280 400l-40 0 0 104 0 8-8 0-48 0-8 0 0-8 0-104-32 0 0 104 0 8-8 0-48 0-8 0 0-8 0-104-40 0-12.6 0 5.4-11.4 64-136 3.4-7.2 14.5 6.8-3.4 7.2L52.6 384 88 384l48 0 48 0 48 0 35.4 0L208.8 259.4l-3.4-7.2 14.5-6.8zM128 400l-32 0 0 96 32 0 0-96zm64 0l0 96 32 0 0-96-32 0zM108.9 160l102.2 0 4.6 0 2.3 3.9 84.9 144 4.1 6.9L293.2 323l-4.1-6.9L206.5 176l-93 0L30.9 316.1 26.8 323 13 314.8l4.1-6.9 84.9-144 2.3-3.9 4.6 0z"/></svg>