<svg xmlns="http://www.w3.org/2000/svg" viewBox="0 0 512 512"><!--! Font Awesome Pro 6.6.0 by @fontawesome - https://fontawesome.com License - https://fontawesome.com/license (Commercial License) Copyright 2024 Fonticons, Inc. --><path d="M256 16a240 240 0 1 1 0 480 240 240 0 1 1 0-480zm0 496A256 256 0 1 0 256 0a256 256 0 1 0 0 512zM200 128l-6.4 0-1.4 6.2-24 104-2.1 8.9 9.1 .8 110.7 10.1c28.4 2.6 50.1 26.4 50.1 54.9c0 30.4-24.7 55.1-55.1 55.1l-53.1 0c-21.3 0-41.3-10.7-53.2-28.5l-13.3 8.9c14.8 22.1 39.8 35.5 66.5 35.5l53.1 0c39.3 0 71.1-31.8 71.1-71.1c0-36.8-28-67.4-64.6-70.8l-101.5-9.3L206.4 144 328 144l8 0 0-16-8 0-128 0z"/></svg>