<svg xmlns="http://www.w3.org/2000/svg" viewBox="0 0 512 512"><!--! Font Awesome Pro 6.6.0 by @fontawesome - https://fontawesome.com License - https://fontawesome.com/license (Commercial License) Copyright 2024 Fonticons, Inc. --><path d="M256 16a240 240 0 1 1 0 480 240 240 0 1 1 0-480zm0 496A256 256 0 1 0 256 0a256 256 0 1 0 0 512zM160 128l0 8 0 112 0 8 0 8 0 112 0 8 8 0 124 0c37.6 0 68-30.4 68-68c0-31.6-21.6-58.2-50.9-65.8C325.4 237.8 336 218.1 336 196c0-37.6-30.4-68-68-68l-100 0-8 0zm160 68c0 28.7-23.3 52-52 52l-92 0 0-104 92 0c28.7 0 52 23.3 52 52zM176 368l0-104 92 0 24 0c28.7 0 52 23.3 52 52s-23.3 52-52 52l-116 0z"/></svg>