<svg xmlns="http://www.w3.org/2000/svg" viewBox="0 0 640 512"><!--! Font Awesome Pro 6.6.0 by @fontawesome - https://fontawesome.com License - https://fontawesome.com/license (Commercial License) Copyright 2024 Fonticons, Inc. --><path d="M224 128l8 0 32 0 104 0 104 0 32 0 8 0 0 16-8 0-24 0 0 48 86.1 0 62.3-31.2 11.6-5.8 0 12.9 0 208 0 12.9-11.6-5.8L566.1 352 96 352l-1.4 0-1.3-.5-88-32L0 317.6 0 312l0-80 0-5.6 5.3-1.9 88-32 1.3-.5 1.4 0 160 0 0-48-24 0-8 0 0-16zm240 16l-88 0 0 48 88 0 0-48zm-104 0l-88 0 0 48 88 0 0-48zM97.4 208L16 237.6l0 68.8L97.4 336 568 336l1.9 0 1.7 .8L624 363.1l0-182.1-52.4 26.2-1.7 .8-1.9 0-88 0-16 0-88 0-16 0-88 0-16 0L97.4 208zM272 256a16 16 0 1 1 0 32 16 16 0 1 1 0-32zm80 16a16 16 0 1 1 32 0 16 16 0 1 1 -32 0zm112-16a16 16 0 1 1 0 32 16 16 0 1 1 0-32z"/></svg>