<svg xmlns="http://www.w3.org/2000/svg" viewBox="0 0 576 512"><!--! Font Awesome Pro 6.6.0 by @fontawesome - https://fontawesome.com License - https://fontawesome.com/license (Commercial License) Copyright 2024 Fonticons, Inc. --><path d="M168 147.3L34.3 13.7 45.7 2.3l136 136 2.3 2.3 0 3.3 0 56 56 0 3.3 0 2.3 2.3 128 128 2.3 2.3 0 3.3 0 56 56 0 3.3 0 2.3 2.3 104 104-11.3 11.3L428.7 408 368 408l-8 0 0-8 0-60.7L236.7 216 176 216l-8 0 0-8 0-60.7zm-32 192L34.3 237.7l11.3-11.3 104 104 2.3 2.3 0 3.3 0 56 56 0 3.3 0 2.3 2.3 104 104-11.3 11.3L204.7 408 144 408l-8 0 0-8 0-60.7zM258.3 13.7L269.7 2.3l40 40 2.3 2.3 0 3.3 0 56 56 0 3.3 0 2.3 2.3 64 64 2.3 2.3 0 3.3 0 56 56 0 3.3 0 2.3 2.3 40 40-11.3 11.3L492.7 248 432 248l-8 0 0-8 0-60.7L364.7 120 304 120l-8 0 0-8 0-60.7L258.3 13.7z"/></svg>