<svg xmlns="http://www.w3.org/2000/svg" viewBox="0 0 384 512"><!--! Font Awesome Pro 6.6.0 by @fontawesome - https://fontawesome.com License - https://fontawesome.com/license (Commercial License) Copyright 2024 Fonticons, Inc. --><path d="M254.7 67.2C248.8 38 222.9 16 192 16s-56.8 22-62.7 51.2L126.7 80l-13.1 0L80 80l0 64 112 0 112 0 0-64-33.6 0-13.1 0-2.6-12.8zM80 64l33.6 0C121 27.5 153.3 0 192 0s71 27.5 78.4 64L304 64l16 0 0 16 0 16 56 0 8 0 0 8 0 400 0 8-8 0L8 512l-8 0 0-8L0 104l0-8 8 0 56 0 0-16 0-16 16 0zM64 112l-48 0 0 384 352 0 0-384-48 0 0 32 0 16-16 0-112 0L80 160l-16 0 0-16 0-32zM176 80a16 16 0 1 1 32 0 16 16 0 1 1 -32 0zM104 208l72 0c26.5 0 48 21.5 48 48c0 23-16.2 42.2-37.8 46.9L240 356.7l42.3-42.3 5.7-5.7L299.3 320l-5.7 5.7L251.3 368l42.3 42.3 5.7 5.7L288 427.3l-5.7-5.7L240 379.3l-42.3 42.3-5.7 5.7L180.7 416l5.7-5.7L228.7 368l-64-64L112 304l0 72 0 8-16 0 0-8 0-80 0-80 0-8 8 0zm72 80c17.7 0 32-14.3 32-32s-14.3-32-32-32l-64 0 0 64 64 0z"/></svg>