<svg xmlns="http://www.w3.org/2000/svg" viewBox="0 0 640 512"><!--! Font Awesome Pro 6.6.0 by @fontawesome - https://fontawesome.com License - https://fontawesome.com/license (Commercial License) Copyright 2024 Fonticons, Inc. --><path d="M106.6 119.8l11.3-1.9 1.9-11.3 13.2-79 65.9 46.1 9.2 6.4 9.2-6.4 65.9-46.1 13.2 79 1.9 11.3 11.3 1.9 6.7 1.1c6.1-5 12.8-9.3 19.8-12.9L312 104 297.6 17.5 294.7 0 280.1 10.2 208 60.7 135.9 10.2 121.3 0l-2.9 17.5L104 104 17.5 118.4 0 121.3l10.2 14.5L60.7 208 10.2 280.1 0 294.7l17.5 2.9L104 312l14.4 86.5 2.9 17.5 14.5-10.2 27.5-19.3c2.1-9.1 5.2-17.7 9.1-25.9l-39.6 27.7-13.2-79-1.9-11.3-11.3-1.9-79-13.2 46.1-65.9 6.4-9.2-6.4-9.2L27.7 132.9l79-13.2zm181.8 35.8C271.3 129.4 241.7 112 208 112c-53 0-96 43-96 96s43 96 96 96c8.1 0 15.9-1 23.4-2.9c3.5-1.7 7.1-3.3 10.7-4.7c1.2-6.4 2.8-12.6 4.9-18.6C235.5 284.3 222.2 288 208 288c-44.2 0-80-35.8-80-80s35.8-80 80-80c33 0 61.4 20 73.6 48.5c1.4-7.3 3.7-14.3 6.9-20.9zm118.3-11.5l10.5 0 4.2-9.6c9.9-22.6 32.5-38.4 58.7-38.4c30.9 0 56.8 22 62.7 51.2l2.6 12.8 13.1 0 9.6 0c30.9 0 56 25.1 56 56l0 56-36.1 0c3.5 5 6.6 10.4 9.3 16l26.8 0 16 0 0-16 0-56c0-39.8-32.2-72-72-72l-9.6 0c-7.4-36.5-39.7-64-78.4-64c-32.8 0-61 19.7-73.3 48l-22.6 0c-35.3 0-64 28.6-64 64c0 3 .2 6 .6 8.9c5-2 10.2-3.7 15.5-5c-.1-1.3-.2-2.6-.2-3.9c0-26.5 21.5-48 48-48l22.6 0zM368 224c-53 0-96 43-96 96l0 1.3c-45.4 7.6-80 47.1-80 94.6l0 80 0 16 16 0 80 0 271.9 0 64 0 16 0 0-16 0-64c0-37.1-25.3-68.4-59.7-77.4c-2-.5-4.1-1-6.2-1.4c.5-2.1 .8-4.1 1.1-6.2c.5-3.6 .8-7.3 .8-11c0-44.2-35.8-80-80-80c-13.2 0-25.7 3.2-36.7 8.9c-3.2 1.6-6.2 3.5-9.1 5.5c-2.2-3.6-4.6-7.1-7.3-10.4C425.2 238 398.2 224 368 224zM623.9 431.9l0 64-64 0-271.9 0-80 0 0-80c0-39.6 28.8-72.5 66.6-78.9l13.4-2.3-.1-13.6 0-1.3c0-44.1 35.8-79.9 80-79.9c29 0 54.5 15.5 68.5 38.7l8.8 14.6 14-9.8c10.4-7.3 23-11.5 36.6-11.5c35.3 0 64 28.6 64 64c0 4.8-.5 9.4-1.5 13.8L554.8 366l16.4 2.9c29.9 5.3 52.7 31.5 52.7 63z"/></svg>