<svg xmlns="http://www.w3.org/2000/svg" viewBox="0 0 576 512"><!--! Font Awesome Pro 6.6.0 by @fontawesome - https://fontawesome.com License - https://fontawesome.com/license (Commercial License) Copyright 2024 Fonticons, Inc. --><path d="M516.2 11.5c-10.1 .9-19.7 3.4-28.6 7.2c-34.3 14.6-58.4 48.7-58.4 88.4c0 53 42.8 96 95.6 96c8.3 0 16.4-1.1 24-3.1c9.7-2.5 18.9-6.6 27.1-11.8c-5 9.4-11.1 18.1-18.2 25.9c-20.1 22.2-47.9 37.3-79.2 41c-.8-5.4-2-10.6-3.5-15.7c19.8-2.1 38-9.3 53.4-20.4c-1.2 0-2.4 .1-3.7 .1c-61.7 0-111.6-50.2-111.6-112c0-37.5 18.3-70.7 46.5-91c-43 1.4-80 27.4-97.3 64.4c-4.5-2.8-9.3-5.3-14.2-7.4C368.7 29.9 412.6 0 463.5 0c7.7 0 15.3 .7 22.6 2c10.6 1.9 20.7 5.1 30.2 9.4zM176 64c30.3 0 57.3 14 74.9 35.9c2.7 3.3 5.1 6.8 7.3 10.4c2.9-2 5.9-3.9 9.1-5.5c11-5.7 23.5-8.9 36.7-8.9c44.2 0 80 35.8 80 80c0 3.7-.3 7.4-.8 11c-.3 2.1-.7 4.2-1.1 6.2c2.1 .4 4.2 .8 6.2 1.4c34.3 9 59.7 40.2 59.7 77.4l0 64 0 16-16 0-64 0-15.9 0 0-16 15.9 0 64 0 0-64c0-31.5-22.7-57.6-52.6-63L362.8 206l3.6-16.3c1-4.4 1.5-9 1.5-13.8c0-35.3-28.6-64-64-64c-13.6 0-26.2 4.3-36.6 11.5l-14 9.8-8.8-14.6C230.4 95.5 205 80 176 80c-44.2 0-79.9 35.8-80 79.9l0 1.3 .1 13.6-13.4 2.3C44.8 183.4 16 216.3 16 255.9l0 80 48 0 0 16-48 0-16 0 0-16 0-80c0-47.6 34.6-87 80-94.6l0-1.3c0-53 43-96 96-96zm-4 336l4-16-16.5 0L112 384l-16 0 0-16 0-8L251.6 239.8 272 224l-6.3 25.1L244 336l-4 16 16.5 0 47.5 0 16 0 0 16 0 8L164.4 496.2 144 512l6.3-25.1L172 400zm-60-32l64 0 20.5 0-5 19.9-20.8 83.3L304 368.1l0-.1-64 0-20.5 0 5-19.9 20.8-83.3L112 367.9l0 .1z"/></svg>