<svg xmlns="http://www.w3.org/2000/svg" viewBox="0 0 448 512"><!--! Font Awesome Pro 6.6.0 by @fontawesome - https://fontawesome.com License - https://fontawesome.com/license (Commercial License) Copyright 2024 Fonticons, Inc. --><path d="M112 16l0 96-96 0 0-96 96 0zM16 0L0 0 0 16l0 96 0 16 16 0 40 0 0 64c0 39.8 32.2 72 72 72l88 0 0 120-40 0-16 0 0 16 0 96 0 16 16 0 96 0 16 0 0-16 0-96 0-16-16 0-40 0 0-120 88 0c39.8 0 72-32.2 72-72l0-64 40 0 16 0 0-16 0-96 0-16L432 0 336 0 320 0l0 16 0 96 0 16 16 0 40 0 0 64c0 30.9-25.1 56-56 56l-192 0c-30.9 0-56-25.1-56-56l0-64 40 0 16 0 0-16 0-96 0-16L112 0 16 0zM272 400l0 96-96 0 0-96 96 0zM336 16l96 0 0 96-96 0 0-96z"/></svg>