<svg xmlns="http://www.w3.org/2000/svg" viewBox="0 0 512 512"><!--! Font Awesome Pro 6.6.0 by @fontawesome - https://fontawesome.com License - https://fontawesome.com/license (Commercial License) Copyright 2024 Fonticons, Inc. --><path d="M144 72l0-8 16 0 0 8 0 144 0 8-8 0L8 224l-8 0 0-16 8 0 136 0 0-136zm8 216l8 0 0 8 0 144 0 8-16 0 0-8 0-136L8 304l-8 0 0-16 8 0 144 0zM368 72l0 136 136 0 8 0 0 16-8 0-144 0-8 0 0-8 0-144 0-8 16 0 0 8zm-8 216l144 0 8 0 0 16-8 0-136 0 0 136 0 8-16 0 0-8 0-144 0-8 8 0z"/></svg>