<svg xmlns="http://www.w3.org/2000/svg" viewBox="0 0 640 512"><!--! Font Awesome Pro 6.6.0 by @fontawesome - https://fontawesome.com License - https://fontawesome.com/license (Commercial License) Copyright 2024 Fonticons, Inc. --><path d="M8 32L0 32 0 48l8 0 24 0 0 416L8 464l-8 0 0 16 8 0 24 0 16 0 544 0 16 0 24 0 8 0 0-16-8 0-24 0 0-416 24 0 8 0 0-16-8 0-24 0-16 0L48 32 32 32 8 32zM48 464L48 48l544 0 0 416L48 464zm88-360l0-8-16 0 0 8 0 304 0 8 16 0 0-8 0-304zm96 0l0-8-16 0 0 8 0 304 0 8 16 0 0-8 0-304zm96 0l0-8-16 0 0 8 0 304 0 8 16 0 0-8 0-304zm96 0l0-8-16 0 0 8 0 304 0 8 16 0 0-8 0-304zm96 0l0-8-16 0 0 8 0 304 0 8 16 0 0-8 0-304z"/></svg>