<svg xmlns="http://www.w3.org/2000/svg" viewBox="0 0 640 512"><!--! Font Awesome Pro 6.6.0 by @fontawesome - https://fontawesome.com License - https://fontawesome.com/license (Commercial License) Copyright 2024 Fonticons, Inc. --><path d="M496 16l0 256-352 0 0-256 112 0 0 108 0 20 16-12 48-36 48 36 16 12 0-20 0-108 112 0zM272 16l96 0 0 96L329.6 83.2 320 76l-9.6 7.2L272 112l0-96zM496 0L384 0 368 0 272 0 256 0 144 0 128 0l0 16 0 256 0 16 16 0 352 0 16 0 0-16 0-256 0-16L496 0zM624 416c0 44.2-35.8 80-80 80L96 496c-44.2 0-80-35.8-80-80s35.8-80 80-80l448 0c44.2 0 80 35.8 80 80zM96 320c-53 0-96 43-96 96s43 96 96 96l448 0c53 0 96-43 96-96s-43-96-96-96L96 320zm16 64a32 32 0 1 1 0 64 32 32 0 1 1 0-64zm0 80a48 48 0 1 0 0-96 48 48 0 1 0 0 96zm176-48a32 32 0 1 1 64 0 32 32 0 1 1 -64 0zm80 0a48 48 0 1 0 -96 0 48 48 0 1 0 96 0zm160-32a32 32 0 1 1 0 64 32 32 0 1 1 0-64zm0 80a48 48 0 1 0 0-96 48 48 0 1 0 0 96z"/></svg>