<svg xmlns="http://www.w3.org/2000/svg" viewBox="0 0 512 512"><!--! Font Awesome Pro 6.6.0 by @fontawesome - https://fontawesome.com License - https://fontawesome.com/license (Commercial License) Copyright 2024 Fonticons, Inc. --><path d="M192 0l-8 0L104 0C46.6 0 0 46.6 0 104l0 64 0 4.6 4 2.3 107.2 61.3C98.5 250.9 89 268.6 84 288l-34.1 0L19.6 272.8l-7.2-3.6L5.3 283.6l7.2 3.6 32 16c1.1 .6 2.3 .8 3.6 .8l33 0c-.7 5.2-1 10.6-1 16l0 13.3L52.9 344.6c-1.2 .5-2.3 1.3-3.2 2.4l-32 40-5 6.2 12.5 10 5-6.2L61 358.6l28.3-11.8 44 51.4L85.2 416.5c-1.1 .4-2 1-2.8 1.8l-32 32L44.7 456 56 467.3l5.7-5.7 30.8-30.8 51.9-19.8 22.4 26.1L131 465.8c-1.9 1.5-3 3.8-3 6.2l0 32 0 8 16 0 0-8 0-28.2L178.8 448l154.4 0L368 475.8l0 28.2 0 8 16 0 0-8 0-32c0-2.4-1.1-4.7-3-6.2l-35.7-28.6 22.4-26.1 51.9 19.8 30.8 30.8 5.7 5.7L467.3 456l-5.7-5.7-32-32c-.8-.8-1.8-1.4-2.8-1.8l-48.1-18.3 44-51.4L451 358.6 481.8 397l5 6.2 12.5-10-5-6.2-32-40c-.8-1-1.9-1.9-3.2-2.4L432 333.3l0-13.3c0-5.4-.3-10.8-1-16l33 0c1.2 0 2.5-.3 3.6-.8l32-16 7.2-3.6-7.2-14.3-7.2 3.6L462.1 288 428 288c-5-19.4-14.5-37.1-27.2-51.8L508 174.9l4-2.3 0-4.6 0-40s0 0 0 0l0-16s0 0 0 0l0-8C512 46.6 465.4 0 408 0L328 0l-8 0 0 12.5 3.9 2.3 80 48 6.9 4.1L419 53.3l-6.9-4.1L356.9 16 408 16c48.6 0 88 39.4 88 88l0 8-116.7 0L365.7 98.3 360 92.7 348.7 104l5.7 5.7 16 16 2.3 2.3 3.3 0 120 0 0 35.4L389.1 224.4C366.5 204.3 336.7 192 304 192l0-56 0-8-16 0 0 8 0 56-64 0 0-56 0-8-16 0 0 8 0 56c-32.7 0-62.5 12.3-85.1 32.4L16 163.4 16 128l120 0 3.3 0 2.3-2.3 16-16 5.7-5.7L152 92.7l-5.7 5.7L132.7 112 16 112l0-8c0-48.6 39.4-88 88-88l51.1 0L99.9 49.1 93 53.3 101.3 67l6.9-4.1 80-48 3.9-2.3L192 0zM304 208c61.9 0 112 50.1 112 112l0 10.1L328.6 432l-145.3 0L96 330.1 96 320c0-61.9 50.1-112 112-112l16 0 64 0 16 0z"/></svg>