<svg xmlns="http://www.w3.org/2000/svg" viewBox="0 0 512 512"><!--! Font Awesome Pro 6.6.0 by @fontawesome - https://fontawesome.com License - https://fontawesome.com/license (Commercial License) Copyright 2024 Fonticons, Inc. --><path d="M496 376L16 376l0 120 480 0 0-120zm0-16l0-120L16 240l0 120 480 0zm16 0l0 8 0 8 0 120 0 16-16 0L16 512 0 512l0-16L0 376l0-8 0-8L0 240l0-16 16 0 480 0 16 0 0 16 0 120zM64 304a16 16 0 1 1 32 0 16 16 0 1 1 -32 0zm368-16a16 16 0 1 1 0 32 16 16 0 1 1 0-32zM64 432a16 16 0 1 1 32 0 16 16 0 1 1 -32 0zm368-16a16 16 0 1 1 0 32 16 16 0 1 1 0-32z"/></svg>