<svg xmlns="http://www.w3.org/2000/svg" viewBox="0 0 512 512"><!--! Font Awesome Pro 6.6.0 by @fontawesome - https://fontawesome.com License - https://fontawesome.com/license (Commercial License) Copyright 2024 Fonticons, Inc. --><path d="M264 8l0-8L248 0l0 8 0 40.2C139.5 52.3 52.3 139.5 48.2 248L8 248l-8 0 0 16 8 0 40.2 0C52.3 372.5 139.5 459.7 248 463.8l0 40.2 0 8 16 0 0-8 0-40.2c108.5-4.1 195.7-91.3 199.8-199.8l40.2 0 8 0 0-16-8 0-40.2 0C459.7 139.5 372.5 52.3 264 48.2L264 8zM120 264l8 0 0-16-8 0-55.8 0C68.2 148.3 148.3 68.2 248 64.2l0 55.8 0 8 16 0 0-8 0-55.8c99.7 4.1 179.8 84.2 183.8 183.8L392 248l-8 0 0 16 8 0 55.8 0c-4.1 99.7-84.2 179.8-183.8 183.8l0-55.8 0-8-16 0 0 8 0 55.8C148.3 443.8 68.2 363.7 64.2 264l55.8 0zm112-8a24 24 0 1 1 48 0 24 24 0 1 1 -48 0zm64 0a40 40 0 1 0 -80 0 40 40 0 1 0 80 0z"/></svg>