<svg xmlns="http://www.w3.org/2000/svg" viewBox="0 0 512 512"><!--! Font Awesome Pro 6.6.0 by @fontawesome - https://fontawesome.com License - https://fontawesome.com/license (Commercial License) Copyright 2024 Fonticons, Inc. --><path d="M256 7.5l2.7 .9 248 88 5.3 1.9 0 5.6 0 288 0 5.3-4.9 2.1-248 104-3.1 1.3-3.1-1.3-248-104L0 397.3 0 392 0 104l0-5.6 5.3-1.9 248-88 2.7-.9zM16 386.7L248 484l0-270.7L16 116l0 270.7zM264 484l232-97.3L496 116 264 213.3 264 484zM256 24.5L30.2 104.6 256 199.3l225.8-94.7L256 24.5z"/></svg>