<svg xmlns="http://www.w3.org/2000/svg" viewBox="0 0 576 512"><!--! Font Awesome Pro 6.6.0 by @fontawesome - https://fontawesome.com License - https://fontawesome.com/license (Commercial License) Copyright 2024 Fonticons, Inc. --><path d="M290.7 6.5l-2.7-1-2.7 1L149.3 55 144 56.9l0 5.6 0 155.9L5.4 265.2 0 267l0 5.7L0 434.9l0 5.2 4.7 2.1 136 61.2 3 1.3 3.1-1.1L288 451.4l141.2 52.2 3.1 1.1 3-1.3 136-61.2 4.7-2.1 0-5.2 0-162.1 0-5.7-5.4-1.8L432 218.5l0-155.9 0-5.6L426.7 55 290.7 6.5zM280 437.3L152 484.6l0-143 128-49.8 0 145.5zM136 483.7l-120-54 0-145 120 56.5 0 142.5zm15.7-251l114.1 47.4L144.3 327.4 30.2 273.7l121.5-40.9zm144.3 59l128 49.8 0 143L296 437.3l0-145.5zm-16-23L160 218.9l0-148.1 120 46 0 152zm16 0l0-152 120-46 0 148.1L296 268.8zM396.4 61.2L288 102.7 179.6 61.2 288 22.5 396.4 61.2zm-86.1 219l114.1-47.4 121.9 41.1L431.7 327.4 310.2 280.2zM560 429.7l-120 54 0-142.5L560 285l0 144.7z"/></svg>