<svg xmlns="http://www.w3.org/2000/svg" viewBox="0 0 576 512"><!--! Font Awesome Pro 6.6.0 by @fontawesome - https://fontawesome.com License - https://fontawesome.com/license (Commercial License) Copyright 2024 Fonticons, Inc. --><path d="M16 0L248 0l0 16L16 16l0 384 215.8 0 .3 0 111.7 0 .3 0L560 400l0-384L328 16l0-16L560 0l16 0 0 16 0 384 0 16-16 0-206.6 0 13.3 80 73.2 0 8 0 0 16-8 0-80 0-144 0-80 0-8 0 0-16 8 0 73.2 0 13.3-80L16 416 0 416l0-16L0 16 0 0 16 0zM80 64l168 0 0 16L80 80l0 192 416 0 0-192L328 80l0-16 168 0 16 0 0 16 0 192 0 16-16 0L80 288l-16 0 0-16L64 80l0-16 16 0zM225.4 496l125.1 0-13.3-80-98.4 0-13.3 80zM296 8l0 204.7 74.3-74.3 5.7-5.7L387.3 144l-5.7 5.7-88 88-5.7 5.7-5.7-5.7-88-88-5.7-5.7L200 132.7l5.7 5.7L280 212.7 280 8l0-8 16 0 0 8z"/></svg>