<svg xmlns="http://www.w3.org/2000/svg" viewBox="0 0 576 512"><!--! Font Awesome Pro 6.6.0 by @fontawesome - https://fontawesome.com License - https://fontawesome.com/license (Commercial License) Copyright 2024 Fonticons, Inc. --><path d="M176 48l0 160L16 208 16 48l160 0zM16 32L0 32 0 48 0 208l0 16 16 0 160 0 3.5 0L224 298.2l0 5.8 0 160 0 16 16 0 160 0 16 0 0-16 0-160 0-16-16 0-160 0-3.5 0L192 213.8l0-5.8 0-72 192 0 0 72 0 16 16 0 160 0 16 0 0-16 0-160 0-16-16 0L400 32l-16 0 0 16 0 72-192 0 0-72 0-16-16 0L16 32zM400 304l0 160-160 0 0-160 160 0zm0-256l160 0 0 160-160 0 0-160z"/></svg>