<svg xmlns="http://www.w3.org/2000/svg" viewBox="0 0 576 512"><!--! Font Awesome Pro 6.6.0 by @fontawesome - https://fontawesome.com License - https://fontawesome.com/license (Commercial License) Copyright 2024 Fonticons, Inc. --><path d="M272 16l32 0 0 32-32 0 0-32zM256 0l0 16 0 32 0 16 16 0 32 0 16 0 0-16 0-32 0-16L304 0 272 0 256 0zM80 80l32 0 0 32-32 0 0-32zM64 64l0 16 0 32 0 16 16 0 32 0 16 0 0-16 0-32 0-16-16 0L80 64 64 64zM464 80l32 0 0 32-32 0 0-32zM448 64l0 16 0 32 0 16 16 0 32 0 16 0 0-16 0-32 0-16-16 0-32 0-16 0zM560 272l0 32-32 0 0-32 32 0zm-32-16l-16 0 0 16 0 32 0 16 16 0 32 0 16 0 0-16 0-32 0-16-16 0-32 0zM464 464l32 0 0 32-32 0 0-32zm-16-16l0 16 0 32 0 16 16 0 32 0 16 0 0-16 0-32 0-16-16 0-32 0-16 0zM112 464l0 32-32 0 0-32 32 0zM80 448l-16 0 0 16 0 32 0 16 16 0 32 0 16 0 0-16 0-32 0-16-16 0-32 0zM48 272l0 32-32 0 0-32 32 0zM16 256L0 256l0 16 0 32 0 16 16 0 32 0 16 0 0-16 0-32 0-16-16 0-32 0zm277.7 37.7L395.3 192c50.7 56.5 48.8 143.5-5.5 197.8c-56.2 56.2-147.4 56.2-203.6 0s-56.2-147.4 0-203.6c54.3-54.3 141.3-56.2 197.8-5.5L282.3 282.3l-5.7 5.7L288 299.3l5.7-5.7zM401.1 174.9A160 160 0 1 0 174.9 401.1 160 160 0 1 0 401.1 174.9z"/></svg>