<svg xmlns="http://www.w3.org/2000/svg" viewBox="0 0 576 512"><!--! Font Awesome Pro 6.6.0 by @fontawesome - https://fontawesome.com License - https://fontawesome.com/license (Commercial License) Copyright 2024 Fonticons, Inc. --><path d="M272 16l32 0 0 32-32 0 0-32zM256 0l0 16 0 32 0 16 16 0 32 0 16 0 0-16 0-32 0-16L304 0 272 0 256 0zM80 80l32 0 0 32-32 0 0-32zM64 64l0 16 0 32 0 16 16 0 32 0 16 0 0-16 0-32 0-16-16 0L80 64 64 64zM464 80l32 0 0 32-32 0 0-32zM448 64l0 16 0 32 0 16 16 0 32 0 16 0 0-16 0-32 0-16-16 0-32 0-16 0zM560 272l0 32-32 0 0-32 32 0zm-32-16l-16 0 0 16 0 32 0 16 16 0 32 0 16 0 0-16 0-32 0-16-16 0-32 0zM464 464l32 0 0 32-32 0 0-32zm-16-16l0 16 0 32 0 16 16 0 32 0 16 0 0-16 0-32 0-16-16 0-32 0-16 0zM112 464l0 32-32 0 0-32 32 0zM80 448l-16 0 0 16 0 32 0 16 16 0 32 0 16 0 0-16 0-32 0-16-16 0-32 0zM48 272l0 32-32 0 0-32 32 0zM16 256L0 256l0 16 0 32 0 16 16 0 32 0 16 0 0-16 0-32 0-16-16 0-32 0zm280 32l0-143.8c75.8 4.2 136 66.9 136 143.8c0 79.5-64.5 144-144 144s-144-64.5-144-144c0-76.8 60.2-139.6 136-143.8L280 288l0 8 16 0 0-8zm-8-160a160 160 0 1 0 0 320 160 160 0 1 0 0-320z"/></svg>