<svg xmlns="http://www.w3.org/2000/svg" viewBox="0 0 512 512"><!--! Font Awesome Pro 6.6.0 by @fontawesome - https://fontawesome.com License - https://fontawesome.com/license (Commercial License) Copyright 2024 Fonticons, Inc. --><path d="M196.6 42.8c9.6 52.1 41.6 95.2 77.7 128.2c1.9 1.7 3.8 3.4 5.7 5.1l0-21.6c-36.3-34.5-65.6-78.5-69.8-130.8c-.6-7.6-.7-15.4-.2-23.3c-4.1 3.6-9.7 9.7-16.2 18.3c-12.6 16.8-28.3 43.2-41.4 78.9c3.7 5 7.7 9.8 11.9 14.4c9.9-29.3 21.7-52.4 32.2-69.1zM416 144a16 16 0 1 0 -32 0 16 16 0 1 0 32 0zM87.8 38.4L84.1 19.5 73.3 35.6 73 36s0 0 0 0c0 0 0 .1-.1 .1l-.2 .3-1.1 1.7s0 0 0 0C59.5 56.4 32 100.6 32 176c0 111.4 81.5 170.2 126.7 195.7L11.3 432.6 .1 437.2l8.7 8.5 65.6 64 2.3 2.3 3.3 0 72 0 2.7 0 2.2-1.7 81-62.3 90.1 0c83.9 0 152-68.1 152-152l0-158.4 26.6-62.5L511.3 64l-12.1 0L392 64c-39.8 0-72 32.2-72 72l0 72-7.7 0c-31-2.6-81.3-14.4-126.7-40.9c-45.5-26.6-85.6-67.6-97.8-128.7zM48 176c0-56.7 16.4-94.3 28.8-115.9c17.2 56.7 57.3 95.4 100.8 120.8c48 28 100.8 40.3 133.8 43.1l.3 0 .3 0 16 0 8 0 0-8 0-80c0-30.9 25.1-56 56-56l95.1 0-22.5 52.9-.6 1.5 0 1.6 0 160c0 75.1-60.9 136-136 136l-92.8 0-2.7 0-2.2 1.7-81 62.3-66 0L28.7 442.8l151.7-62.7 16-6.6L181 365.5C142.6 345.9 48 291.2 48 176z"/></svg>