<svg xmlns="http://www.w3.org/2000/svg" viewBox="0 0 448 512"><!--! Font Awesome Pro 6.6.0 by @fontawesome - https://fontawesome.com License - https://fontawesome.com/license (Commercial License) Copyright 2024 Fonticons, Inc. --><path d="M16 48l0 32 32 0 0-32L16 48zm128 0l-32 0 0 32 32 0 0-32zm96 0l-32 0 0 32 32 0 0-32zm96 0l-32 0 0 32 32 0 0-32zm64 0l0 32 32 0 0-32-32 0zM160 288l-16 0-64 0-16 0 0 16 0 16L212.7 468.7 224 480l11.3-11.3L384 320l0-16 0-16-16 0-64 0-16 0 0-16 0-128 0-16-16 0-96 0-16 0 0 16 0 128 0 16zm0 16l16 0 0-16 0-144 96 0 0 144 0 16 16 0 80 0 0 9.4-144 144L80 313.4l0-9.4 80 0z"/></svg>