<svg xmlns="http://www.w3.org/2000/svg" viewBox="0 0 512 512"><!--! Font Awesome Pro 6.6.0 by @fontawesome - https://fontawesome.com License - https://fontawesome.com/license (Commercial License) Copyright 2024 Fonticons, Inc. --><path d="M383.8 459.2L356.7 432 296 432l-8 0 0-8 0-64 0-3.3 2.3-2.3 64-64 2.3-2.3 3.3 0 64 0 8 0 0 8 0 24 55.4 0c5.6-20.4 8.6-41.8 8.6-64c0-116.1-82.5-213-192-235.2l0 83.2 0 3.3-2.3 2.3L272 139.3l0 76.7 0 8-8 0-40 0 0 88 0 8-8 0-64 0-3.3 0-2.3-2.3L116.7 288l-98.6 0C33.8 405.4 134.3 496 256 496c47 0 90.8-13.5 127.8-36.8zM120 272l3.3 0 2.3 2.3L155.3 304l52.7 0 0-88 0-8 8 0 40 0 0-72 0-3.3 2.3-2.3L288 100.7l0-82.6c-10.5-1.4-21.2-2.1-32-2.1C123.5 16 16 123.5 16 256c0 5.4 .2 10.7 .5 16L120 272zM397.3 450c38.8-28.3 68.7-67.9 85-114L424 336l-8 0 0-8 0-24-52.7 0L304 363.3l0 52.7 56 0 3.3 0 2.3 2.3L397.3 450zM0 256a256 256 0 1 1 512 0A256 256 0 1 1 0 256zM336 152l0 32 0 8-16 0 0-8 0-32 0-8 16 0 0 8zM288 264l0 32 0 8-16 0 0-8 0-32 0-8 16 0 0 8zM152 352l32 0 8 0 0 16-8 0-32 0-8 0 0-16 8 0z"/></svg>