<svg xmlns="http://www.w3.org/2000/svg" viewBox="0 0 640 512"><!--! Font Awesome Pro 6.6.0 by @fontawesome - https://fontawesome.com License - https://fontawesome.com/license (Commercial License) Copyright 2024 Fonticons, Inc. --><path d="M260.5 103.2c-15.6 3.9-30.3 9.3-44 15.9l-4.7 2.3-5.2-1-88.1-16.2 28.4 57.1 4.2 8.5-5.5 7.8c-6 8.5-11 17.4-15 26.7l-2.3 5.4-5.2 2.6L35.8 256l87.4 43.7 5.2 2.6 2.3 5.4c4 9.3 9 18.2 15 26.7l5.5 7.8-4.2 8.6-28.4 57.1 88.1-16.2 5.2-1 4.7 2.3c13.6 6.6 28.4 12 44 15.9l5.7 1.4 3.4 4.7L320 484.7l50.4-69.7 3.4-4.7 5.7-1.4c15.6-3.9 30.3-9.3 44-15.9l4.7-2.3 5.2 1 88.1 16.2-28.4-57.1-4.2-8.6 5.5-7.8c6-8.5 11-17.4 15-26.7l2.3-5.4 5.2-2.6L604.2 256l-87.4-43.7-5.2-2.6-2.3-5.4c-4-9.3-9-18.2-15-26.7l-5.5-7.8 4.2-8.5 28.4-57.1-88.1 16.2-5.2 1-4.7-2.3c-13.6-6.6-28.4-12-44-15.9l-5.7-1.4-3.4-4.7L320 27.3 269.6 97.1l-3.4 4.7-5.7 1.4zm-3.9-15.5l53.5-74L320 0l9.9 13.7 53.5 74c16.6 4.2 32.4 9.9 47.1 17l99.9-18.4L550 82.7l-8.9 17.9-33.7 67.8c6.6 9.4 12.2 19.3 16.6 29.6l98.1 49.1L640 256l-17.9 8.9L524 314c-4.4 10.3-10 20.2-16.6 29.6l33.7 67.8 8.9 17.9-19.7-3.6-99.9-18.4c-14.7 7.1-30.5 12.9-47.1 17l-53.5 74L320 512l-9.9-13.7-53.5-74c-16.6-4.2-32.4-9.9-47.1-17l-99.9 18.4L90 429.3l8.9-17.9 33.7-67.8c-6.6-9.4-12.2-19.3-16.6-29.6L17.9 264.9 0 256l17.9-8.9L116 198c4.4-10.3 10-20.2 16.6-29.6L98.9 100.6 90 82.7l19.7 3.6 99.9 18.4c14.7-7.1 30.4-12.9 47.1-17zM232 248c0 48.6 39.4 88 88 88s88-39.4 88-88c0-12.3-2.5-24.1-7.1-34.7c-13 6.4-26.9 11.3-41.4 14.4c-1.9 23.8-9.2 41.4-16.7 53.6c-4.3 7-8.7 12.2-12.1 15.6c-1.7 1.7-3.1 3-4.1 3.9c-.5 .4-.9 .8-1.3 1l-.4 .3-.1 .1c0 0 0 0 0 0c0 0 0 0 0 0s0 0 0 0L320 296l4.7 6.4-4.7 3.5-4.8-3.5L320 296c-4.8 6.4-4.8 6.4-4.8 6.4s0 0 0 0s0 0 0 0c0 0 0 0 0 0l-.1-.1-.4-.3c-.3-.3-.7-.6-1.3-1c-1-.9-2.5-2.2-4.1-3.9c-3.4-3.5-7.7-8.6-12.1-15.6c-7.5-12.2-14.9-29.8-16.7-53.6c-14.5-3.2-28.4-8.1-41.4-14.4c-4.6 10.6-7.1 22.4-7.1 34.7zm78.8 24.9c3.3 5.4 6.6 9.4 9.2 12.1c2.6-2.7 5.9-6.8 9.2-12.1c5.9-9.5 11.9-23.4 14-42.4c-6.5 .8-13 1.3-19.7 1.4c-.7 0-1.4 0-2.1 0c-.5 0-1 0-1.5 0c-.3 0-.6 0-.8 0c-.7 0-1.4 0-2.1 0c-6.9-.1-13.6-.6-20.3-1.4c2.1 19 8.1 32.9 14 42.4zm104-67.7l.2 .4c5.8 12.9 9 27.3 9 42.4c0 57.4-46.6 104-104 104s-104-46.6-104-104c0-15.1 3.2-29.4 9-42.4l.2-.4c-4.8-3-9.5-6.1-14-9.5l-6.4-4.8 9.6-12.8 6.4 4.8c27 20.3 60.5 32.5 96.8 33c.8 0 1.6 0 2.4 0s1.6 0 2.4 0c36.3-.5 69.7-12.7 96.8-33l6.4-4.8 9.6 12.8-6.4 4.8c-4.5 3.4-9.2 6.6-14 9.5z"/></svg>