<svg xmlns="http://www.w3.org/2000/svg" viewBox="0 0 512 512"><!--! Font Awesome Pro 6.6.0 by @fontawesome - https://fontawesome.com License - https://fontawesome.com/license (Commercial License) Copyright 2024 Fonticons, Inc. --><path d="M483.6 28.4C467.2 12 441.4 12 425.9 27.6c-1.6 1.6-4.5 6.3-7.7 15.2c-3 8.3-5.8 18.6-8.3 29.6c-2.8 12.6-5.1 25.5-6.9 36.8c11.2-1.7 24.2-4 36.8-6.7c11-2.4 21.2-5.1 29.6-8.1c8.9-3.2 13.5-6 15.1-7.6c0 0 0 0 0 0C500 71 500 44.9 483.6 28.4zm12.2 69.4c-14 14.1-63.9 23.1-95.3 27.8c-6.4 1-12.1 1.7-16.5 2.4c.6-4.4 1.4-10.1 2.4-16.5c4.8-31.3 14.1-81.1 28.1-95.2c22-22.1 58-21.6 80.4 .9s22.8 58.6 .9 80.7zM496 256c0-40.2-9.9-78-27.3-111.3c5.3-1.5 10.6-3.1 15.5-4.8C502 174.7 512 214.2 512 256c0 141.4-114.6 256-256 256c-42 0-81.6-10.1-116.5-28c1.8-5 3.4-10.2 4.9-15.5C177.7 486.1 215.7 496 256 496c132.5 0 240-107.5 240-240zM256 0c42 0 81.6 10.1 116.5 28c-1.8 5-3.4 10.2-4.9 15.5C334.3 25.9 296.3 16 256 16C123.5 16 16 123.5 16 256c0 40.2 9.9 78 27.3 111.3c-5.3 1.5-10.6 3.1-15.5 4.8C10 337.3 0 297.8 0 256C0 114.6 114.6 0 256 0zm65.1 320.7c-34.1 34.1-71.4 61.6-109 81.8c53 20 114.9 8.8 157.3-33.6s53.6-104.3 33.6-157.3c-20.2 37.7-47.7 74.9-81.8 109zm-11.3-11.3c36.4-36.4 64.9-76.3 84.7-116.2c2.9-5.9 5.6-11.8 8.2-17.6c3.6 5.6 6.8 11.5 9.7 17.4c29.4 61.2 18.9 136.7-31.7 187.3s-126 61.1-187.3 31.7c-5.9-2.9-11.8-6.1-17.4-9.7c5.9-2.5 11.7-5.2 17.6-8.2c39.9-19.7 79.8-48.3 116.2-84.7zm-211-35.8l7.6-2.5 84.9-28.3 15.2-5.1-5.1 15.2-28.3 84.9-2.5 7.6-15.2-5.1 2.5-7.6L181.1 263l-69.7 23.2-7.6 2.5-5.1-15.2zM271 106.4l2.5-7.6 15.2 5.1-2.5 7.6L263 181.1l69.7-23.2 7.6-2.5 5.1 15.2-7.6 2.5-84.9 28.3-15.2 5.1 5.1-15.2L271 106.4zM27.6 425.4C12 441 12 467.1 28.4 483.6c16.4 16.5 42.2 16.4 57.7 .9c1.6-1.6 4.5-6.3 7.7-15.2c3-8.3 5.8-18.6 8.3-29.6c2.8-12.6 5.1-25.5 6.9-36.7c-11.2 1.7-24.2 4-36.8 6.7c-11 2.4-21.2 5.1-29.6 8.1c-8.9 3.2-13.5 6-15.1 7.6c0 0 0 0 0 0zm83.9-39.1c6.4-1 12.1-1.7 16.5-2.4c-.6 4.4-1.4 10.1-2.4 16.5c-4.8 31.3-14.1 81.1-28.1 95.2c-22 22.1-58 21.6-80.4-.9s-22.8-58.6-.9-80.7c14-14.1 63.9-23.1 95.3-27.8z"/></svg>