<svg xmlns="http://www.w3.org/2000/svg" viewBox="0 0 640 512"><!--! Font Awesome Pro 6.6.0 by @fontawesome - https://fontawesome.com License - https://fontawesome.com/license (Commercial License) Copyright 2024 Fonticons, Inc. --><path d="M320 16C187.5 16 80 123.5 80 256l-16 0C64 114.6 178.6 0 320 0S576 114.6 576 256l-16 0C560 123.5 452.5 16 320 16zM258.1 487.9c19.8 5.3 40.5 8.1 61.9 8.1s42.2-2.8 61.9-8.1l4.1 15.5C365 509 342.8 512 320 512s-45-3-66.1-8.6l4.1-15.5zM221.1 157.1c-14.7 6.5-29.2 19-39.7 36.1s-14.6 35.2-13.2 50.2c1.4 15 8.1 26.5 18.9 32.3c10.9 5.9 25 5.7 39.8-.8c14.7-6.5 29.2-19 39.7-36.1s14.6-35.2 13.2-50.2c-1.4-15-8.1-26.5-18.9-32.3c-10.9-5.9-25-5.7-39.8 .8zm-6.5-14.6c17.9-7.9 37.5-9.1 53.9-.2c16.5 9 25.4 26 27.1 44.9c1.7 18.9-3.5 40.3-15.5 60s-28.9 34.5-46.9 42.4c-17.9 7.9-37.5 9.1-53.9 .2c-16.5-9-25.4-26-27.1-44.9c-1.7-18.9 3.5-40.3 15.5-60s28.9-34.5 46.9-42.4zm243.9 50.8c-10.5-17.2-25-29.7-39.7-36.1c-14.7-6.5-28.9-6.7-39.8-.8c-10.8 5.9-17.5 17.3-18.9 32.3c-1.4 15 2.7 33 13.2 50.2s25 29.7 39.7 36.1c14.7 6.5 28.9 6.7 39.8 .8c10.8-5.9 17.5-17.3 18.9-32.3c1.4-15-2.7-33-13.2-50.2zm-87.1-51c16.4-9 36-7.7 53.9 .2c17.9 7.9 34.8 22.7 46.9 42.4s17.2 41.1 15.5 60c-1.7 18.9-10.6 35.9-27.1 44.9c-16.4 9-36 7.7-53.9-.2c-17.9-7.9-34.8-22.7-46.9-42.4s-17.2-41.1-15.5-60c1.7-18.9 10.6-35.9 27.1-44.9zM368 400l0-32c0-26.5-21.5-48-48-48s-48 21.5-48 48l0 32c0 26.5 21.5 48 48 48s48-21.5 48-48zm-48-96c35.3 0 64 28.7 64 64l0 32c0 35.3-28.7 64-64 64s-64-28.7-64-64l0-32c0-35.3 28.7-64 64-64zM108.5 316c54.3 45.3 82.4 128 90.7 196l-16.1 0c-8.1-63.5-33.7-137.3-79.7-179.3l-53.8 47C73.3 417.8 89 464.9 90.2 512l64.2 0-80.2 0c-1.3-46.2-17.5-92.6-41.8-129.3l-3.9-5.8 5.3-4.6 64.3-56.2 5.1-4.5 5.2 4.4zm499.1 66.7c-24.3 36.7-40.4 83.2-41.8 129.3l-80.2 0 64.2 0c1.3-47.1 16.9-94.2 40.6-132.3l-53.8-47c-46 42-71.6 115.8-79.7 179.3l-16.1 0c8.3-68 36.4-150.8 90.7-196l5.2-4.4 5.1 4.5 64.3 56.2 5.3 4.6-3.9 5.8z"/></svg>