<svg xmlns="http://www.w3.org/2000/svg" viewBox="0 0 512 512"><!--! Font Awesome Pro 6.6.0 by @fontawesome - https://fontawesome.com License - https://fontawesome.com/license (Commercial License) Copyright 2024 Fonticons, Inc. --><path d="M256 496a240 240 0 1 0 0-480 240 240 0 1 0 0 480zM256 0a256 256 0 1 1 0 512A256 256 0 1 1 256 0zm95.6 208a16 16 0 1 1 -32 0 16 16 0 1 1 32 0zm-176-16a16 16 0 1 1 0 32 16 16 0 1 1 0-32zM248 320l8 0c46.3 0 87.7 26 118.4 67.2l4.8 6.4-12.8 9.6-4.8-6.4C332.9 358.4 295.8 336 256 336l-8 0 0-16zm-97.1 34.5c-4 6-5.6 13.3-4.6 20.4c2.1 14.4 14.4 25.1 29 25.1l1.5 0c14.6 0 26.9-10.7 29-25.1c1-7.1-.6-14.4-4.6-20.4L176 316.8l-25.1 37.6zm-13.3-8.9l28.8-43.2L176 288l9.6 14.4 28.8 43.2c6.2 9.3 8.7 20.5 7.1 31.5c-3.2 22.3-22.3 38.9-44.8 38.9l-1.5 0c-22.5 0-41.6-16.6-44.8-38.9c-1.6-11 1-22.2 7.1-31.5z"/></svg>