<svg xmlns="http://www.w3.org/2000/svg" viewBox="0 0 640 512"><!--! Font Awesome Pro 6.6.0 by @fontawesome - https://fontawesome.com License - https://fontawesome.com/license (Commercial License) Copyright 2024 Fonticons, Inc. --><path d="M555.7 301.7c-5.6 28.9 12.7 61.7 44.3 65.8l0 .4 6.7 0c0 0 0 0 .1 0l1.3 0 16 0 0 15.9 0 .2 0 15.9-16 0c0 0 0 0 0 0l-8 0-40 0-16 0c-17.7 0-32 14.3-32 32s14.3 32 32 32l16 0 0 16 0 16-16 0-8 0-216 0L40 496l-8 0-16 0 0-16 0-16 16 0 8 0 4.9 0c26.6 0 45.8-18.3 55.5-38.6c9.7-20.3 12-46.4 1.9-68.2C88 326.4 80 292.2 80 256C80 123.5 187.5 16 320 16s240 107.5 240 240c0 15.6-1.5 30.9-4.3 45.7zm51 50.3c-23.6 0-39.8-24.1-35.3-47.2c3-15.8 4.6-32.1 4.6-48.8C576 114.6 461.4 0 320 0S64 114.6 64 256c0 38.5 8.5 75.1 23.8 107.9c15.5 33.4-6 84.1-42.9 84.1L40 448l-8 0L8 448l-8 0 0 8 0 24 0 24 0 8 8 0 24 0 8 0 280 0 216 0 8 0 24 0 8 0 0-8 0-24 0-24 0-8-8 0-24 0c-8.8 0-16-7.2-16-16s7.2-16 16-16l56 0 8 0c0 0 0 0 0 0l24 0 8 0 0-8 0-23.9 0-.1 0-.1 0-23.9 0-8-8 0-24 0-1.3 0c0 0 0 0 0 0zM271 193.2a16 16 0 1 0 -30.9-8.3 16 16 0 1 0 30.9 8.3zm135 52.7a16 16 0 1 0 8.3-30.9 16 16 0 1 0 -8.3 30.9zM284.8 371.4c50.4 13.5 92.7-2.4 119.4-20.6l-9-13.3c-24.1 16.3-61.6 30.3-106.3 18.3s-70.2-42.9-82.9-69.1l-14.4 7c14.1 29.1 42.8 64 93.2 77.5z"/></svg>