<svg xmlns="http://www.w3.org/2000/svg" viewBox="0 0 512 512"><!--! Font Awesome Pro 6.6.0 by @fontawesome - https://fontawesome.com License - https://fontawesome.com/license (Commercial License) Copyright 2024 Fonticons, Inc. --><path d="M256 16C123.5 16 16 123.5 16 256c0 36.9 8.3 71.9 23.2 103.1L24.8 366C8.9 332.7 0 295.4 0 256C0 114.6 114.6 0 256 0S512 114.6 512 256s-114.6 256-256 256l0-16c132.5 0 240-107.5 240-240S388.5 16 256 16zM139 130.9l-7.1 4-6.9 4L117.1 125l6.9-4 7.1-4c32.3-18.5 72.7-14.6 100.9 9.6l13.2 11.3 6.1 5.2-10.4 12.1-6.1-5.2-13.2-11.3c-23.1-19.8-56.2-22.9-82.6-7.8zM176.4 176a16 16 0 1 1 0 32 16 16 0 1 1 0-32zm17.8 88.3l112.4 31.5 4 1.1 1.4 3.9 2.7 7.5 21.9 60.1 2.7 7.5-7.5 2.7-30.1 10.9-42.8 15.6-29.3 80.5-7.7 21.1L220 512l-5.6 0L192 512l-88 0-32 0-8 0 0-8 0-32 0-144 0-32 0-8 8 0 64 0 8 0 0 8 0 32 0 33.8 130.3-47.4 17.2-6.2L189.8 279.7l-7.7-2.2 4.3-15.4 7.7 2.2zM318.8 366.4l-16.4-45.1-22.6 8.2L138.7 380.7 128 384.6l0-11.4 0-45.2 0-24-48 0 0 24 0 144 0 24 24 0 88 0 16.8 0 5.7-15.8 30.6-84 1.3-3.5 3.5-1.3 46.3-16.8 22.6-8.2zM320.4 208a16 16 0 1 1 32 0 16 16 0 1 1 -32 0z"/></svg>