<svg xmlns="http://www.w3.org/2000/svg" viewBox="0 0 512 512"><!--! Font Awesome Pro 6.6.0 by @fontawesome - https://fontawesome.com License - https://fontawesome.com/license (Commercial License) Copyright 2024 Fonticons, Inc. --><path d="M496 256A240 240 0 1 0 16 256a240 240 0 1 0 480 0zM0 256a256 256 0 1 1 512 0A256 256 0 1 1 0 256zM181.7 370.3c14.3 14.3 39 29.7 74.3 29.7s60.1-15.4 74.3-29.7l5.7-5.7L347.3 376l-5.7 5.7C325 398.3 296.4 416 256 416s-69-17.7-85.7-34.3l-5.7-5.7L176 364.7l5.7 5.7zm170-98.3c14.6 0 30.2-8.6 41-27.9l3.9-7 13.9 7.8-3.9 7c-13.1 23.4-33.6 36.1-55 36.1s-41.8-12.7-55-36.1l-3.9-7 13.9-7.8 3.9 7c10.9 19.3 26.4 27.9 41 27.9zm-233-27.9c10.9 19.3 26.4 27.9 41 27.9s30.2-8.6 41-27.9l3.9-7 13.9 7.8-3.9 7c-13.1 23.4-33.6 36.1-55 36.1s-41.8-12.7-55-36.1l-3.9-7 13.9-7.8 3.9 7zm83.5-143l-7.6 2.5-6.3 2.1c-25.3 8.4-47.1 25.1-61.9 47.3l-7.6 11.5-4.4 6.7-13.3-8.9 4.4-6.7 7.6-11.5c16.8-25.2 41.5-44 70.2-53.6l6.3-2.1 7.6-2.5 5.1 15.2zm115.4 2.5l-7.6-2.5 5.1-15.2 7.6 2.5 6.3 2.1c28.7 9.6 53.4 28.4 70.2 53.6l7.6 11.5 4.4 6.7-13.3 8.9-4.4-6.7L385.7 153c-14.8-22.2-36.6-38.8-61.9-47.3l-6.3-2.1z"/></svg>