<svg xmlns="http://www.w3.org/2000/svg" viewBox="0 0 512 512"><!--! Font Awesome Pro 6.6.0 by @fontawesome - https://fontawesome.com License - https://fontawesome.com/license (Commercial License) Copyright 2024 Fonticons, Inc. --><path d="M176 64A48 48 0 1 0 80 64a48 48 0 1 0 96 0zM64 64a64 64 0 1 1 128 0A64 64 0 1 1 64 64zM40.7 336L64 336l48 0 32 0 16 0 0 16-8 0 0 144 24 0 0 16-32 0-8 0 0-8 0-152-16 0 0 152 0 8-8 0-48 0-8 0 0-8 0-152-16 0-16 0 .7-16L32 160l139.3 0c-1.5 5.2-2.5 10.5-3 16l-121 0L40.7 336zM376 512l-8 0-32 0 0-16 24 0 0-112-8 0 0-16 16 0 32 0 48 0 42.8 0L435.9 176l-92.3 0c-.5-5.5-1.5-10.8-3-16L448 160l59.4 208 4.6 16-16.6 0L456 384l0 120 0 8-8 0-48 0-8 0 0-8 0-120-16 0 0 120 0 8zM72 352l0 144 32 0 0-144-32 0zM432 64a48 48 0 1 0 -96 0 48 48 0 1 0 96 0zM320 64a64 64 0 1 1 128 0A64 64 0 1 1 320 64zM440 384l-32 0 0 112 32 0 0-112zM256 224a40 40 0 1 0 0-80 40 40 0 1 0 0 80zm0-96a56 56 0 1 1 0 112 56 56 0 1 1 0-112zM208 416l-16 0-16 0 0-16 0-128 0-16 16 0 128 0 16 0 0 16 0 128 0 16-16 0-16 0 0 88 0 8-16 0 0-8 0-88-64 0 0 88 0 8-16 0 0-8 0-88zM320 272l-128 0 0 128 16 0 16 0 64 0 16 0 16 0 0-128z"/></svg>