<svg xmlns="http://www.w3.org/2000/svg" viewBox="0 0 448 512"><!--! Font Awesome Pro 6.6.0 by @fontawesome - https://fontawesome.com License - https://fontawesome.com/license (Commercial License) Copyright 2024 Fonticons, Inc. --><path d="M432 496L80 496l0-160-16 0 0 160 0 16 16 0 352 0 16 0 0-16 0-336L288 0 80 0 64 0l0 16 0 240 16 0L80 16l192 0 0 152 0 8 8 0 152 0 0 320zm-6.6-336L288 160l0-137.4L425.4 160zM263.2 228.4l-7.6-15.2-6.9 15.5L190.9 358.7l-40.1-66.8-2.3-3.9-4.5 0L8 288l-8 0 0 16 8 0 131.5 0 45.7 76.1 7.9 13.2 6.3-14.1 57.1-128.5 24.4 48.8 2.2 4.4 4.9 0 64 0 8 0 0-16-8 0-59.1 0-29.8-59.6z"/></svg>