<svg xmlns="http://www.w3.org/2000/svg" viewBox="0 0 576 512"><!--! Font Awesome Pro 6.6.0 by @fontawesome - https://fontawesome.com License - https://fontawesome.com/license (Commercial License) Copyright 2024 Fonticons, Inc. --><path d="M368 352l0 144L16 496 16 16l192 0 0 152 0 8 8 0 152 0 0 80 16 0 0-96L224 0 16 0 0 0 0 16 0 496l0 16 16 0 352 0 16 0 0-16 0-144-16 0zm-6.6-192L224 160l0-137.4L361.4 160zm92.3 26.3l-5.7-5.7L436.7 192l5.7 5.7L540.7 296 200 296l-8 0 0 16 8 0 340.7 0-98.3 98.3-5.7 5.7L448 427.3l5.7-5.7 112-112 5.7-5.7-5.7-5.7-112-112z"/></svg>