<svg xmlns="http://www.w3.org/2000/svg" viewBox="0 0 384 512"><!--! Font Awesome Pro 6.6.0 by @fontawesome - https://fontawesome.com License - https://fontawesome.com/license (Commercial License) Copyright 2024 Fonticons, Inc. --><path d="M16 496l352 0 0-320-152 0-8 0 0-8 0-152L16 16l0 480zM361.4 160L224 22.6 224 160l137.4 0zM16 0L224 0 384 160l0 336 0 16-16 0L16 512 0 512l0-16L0 16 0 0 16 0zM192 416l-16 0-96 0-16 0 0-16 0-56L96 224l64 0 32 120 0 56 0 16zM108.3 240L80 346.1 80 400l96 0 0-53.9L147.7 240l-39.4 0zM112 344l32 0 8 0 0 16-8 0-32 0-8 0 0-16 8 0zM104 32l48 0 8 0 0 16-8 0-48 0-8 0 0-16 8 0zm0 32l48 0 8 0 0 16-8 0-48 0-8 0 0-16 8 0zm0 32l48 0 8 0 0 16-8 0-48 0-8 0 0-16 8 0zm0 32l48 0 8 0 0 16-8 0-48 0-8 0 0-16 8 0zm0 32l48 0 8 0 0 16-8 0-48 0-8 0 0-16 8 0zm0 32l48 0 8 0 0 16-8 0-48 0-8 0 0-16 8 0z"/></svg>