<svg xmlns="http://www.w3.org/2000/svg" viewBox="0 0 512 512"><!--! Font Awesome Pro 6.6.0 by @fontawesome - https://fontawesome.com License - https://fontawesome.com/license (Commercial License) Copyright 2024 Fonticons, Inc. --><path d="M16 496l96 0 0 16-96 0L0 512l0-16L0 16 0 0 16 0 224 0 384 160l0 144-16 0 0-128-152 0-8 0 0-8 0-152L16 16l0 480zM361.4 160L224 22.6 224 160l137.4 0zM408 368l0 8 0 128 0 8-16 0 0-8 0-106.4-32.9 62.1-6.9 13.1-7.1-13-33-60L312 504l0 8-16 0 0-8 0-128 0-8 8 0 4 0 4.7 0 2.3 4.1 36.9 67 35.5-66.9 2.3-4.3 4.8 0 5.6 0 8 0zm-224 0l0 8c0 8.9 2.6 17.5 7.5 24.9L208 425.6l16.5-24.7c4.9-7.4 7.5-16 7.5-24.9l0-8 16 0 0 8c0 12-3.6 23.8-10.2 33.8L217.6 440l20.2 30.2c6.7 10 10.2 21.7 10.2 33.8l0 8-16 0 0-8c0-8.9-2.6-17.5-7.5-24.9L208 454.4l-16.5 24.7c-4.9 7.4-7.5 16-7.5 24.9l0 8-16 0 0-8c0-12 3.6-23.8 10.2-33.8L198.4 440l-20.2-30.2C171.6 399.8 168 388 168 376l0-8 16 0zM456 512l0-8 0-128 0-8 16 0 0 8 0 120 24 0 8 0 0 16-8 0-32 0-8 0z"/></svg>