<svg xmlns="http://www.w3.org/2000/svg" viewBox="0 0 384 512"><!--! Font Awesome Pro 6.6.0 by @fontawesome - https://fontawesome.com License - https://fontawesome.com/license (Commercial License) Copyright 2024 Fonticons, Inc. --><path d="M16 496L16 16l192 0 0 152 0 8 8 0 152 0 0 320L16 496zM224 22.6L361.4 160 224 160l0-137.4zM224 0L16 0 0 0 0 16 0 496l0 16 16 0 352 0 16 0 0-16 0-336L224 0zM120 224l-8 0 0 8 0 128 0 80 0 8 16 0 0-8 0-72 72 0c39.8 0 72-32.2 72-72s-32.2-72-72-72l-80 0zm80 128l-72 0 0-112 72 0c30.9 0 56 25.1 56 56s-25.1 56-56 56z"/></svg>