<svg xmlns="http://www.w3.org/2000/svg" viewBox="0 0 512 512"><!--! Font Awesome Pro 6.6.0 by @fontawesome - https://fontawesome.com License - https://fontawesome.com/license (Commercial License) Copyright 2024 Fonticons, Inc. --><path d="M496 496l-272 0 0 16s0 0 0 0l272 0 16 0 0-16 0-336L352 0 144 0 128 0l0 16 0 118.7 16-6.5L144 16l192 0 0 152 0 8 8 0 152 0 0 320zm-6.6-336L352 160l0-137.4L489.4 160zM94.9 164.4L73 192.7l-35.5 4.8L32.7 233 4.4 254.9 17.9 288 4.4 321.1 32.7 343l4.8 35.5L64 382.1l0 112L64 512l16-8 48-24 48 24 16 8 0-17.9 0-112 26.5-3.6 4.8-35.5 28.3-21.9L238.1 288l13.6-33.1L223.3 233l-4.8-35.5L183 192.7l-21.9-28.3L128 177.9 94.9 164.4zM80 368.1l0-.1-1 0-3.9-.5-23.4-3.2-3.2-23.4-.9-6.5-5.2-4L23.8 315.9l8.9-21.9 2.5-6.1-2.5-6.1-8.9-21.9 18.7-14.5 5.2-4 .9-6.5 3.2-23.4 23.4-3.2 6.5-.9 4-5.2 14.5-18.7 21.9 8.9 6.1 2.5 6.1-2.5 21.9-8.9 14.5 18.7 4 5.2 6.5 .9 23.4 3.2 3.2 23.4 .9 6.5 5.2 4 18.7 14.5-8.9 21.9-2.5 6.1 2.5 6.1 8.9 21.9-18.7 14.5-5.2 4-.9 6.5-3.2 23.4-23.4 3.2L177 368l-1 0 0 .1-1.6 .2-4 5.2-14.5 18.7-21.9-8.9-6.1-2.5-6.1 2.5-21.9 8.9L85.6 373.5l-4-5.2-1.6-.2zm0 24.3l14.9 19.2L128 398.1l33.1 13.6L176 392.4l0 93.7-40.8-20.4-7.2-3.6-7.2 3.6L80 486.1l0-93.7zM80 288a48 48 0 1 1 96 0 48 48 0 1 1 -96 0zm112 0A64 64 0 1 0 64 288a64 64 0 1 0 128 0z"/></svg>