<svg xmlns="http://www.w3.org/2000/svg" viewBox="0 0 512 512"><!--! Font Awesome Pro 6.6.0 by @fontawesome - https://fontawesome.com License - https://fontawesome.com/license (Commercial License) Copyright 2024 Fonticons, Inc. --><path d="M16 496l128 0 0 16L16 512 0 512l0-16L0 16 0 0 16 0 224 0 384 160l0 144-16 0 0-128-152 0-8 0 0-8 0-152L16 16l0 480zM361.4 160L224 22.6 224 160l137.4 0zM216 376c0 8.9 2.6 17.5 7.5 24.9L240 425.6l16.5-24.7c4.9-7.4 7.5-16 7.5-24.9l0-8 16 0 0 8c0 12-3.6 23.8-10.2 33.8L249.6 440l20.2 30.2c6.7 10 10.2 21.7 10.2 33.8l0 8-16 0 0-8c0-8.9-2.6-17.5-7.5-24.9L240 454.4l-16.5 24.7c-4.9 7.4-7.5 16-7.5 24.9l0 8-16 0 0-8c0-12 3.6-23.8 10.2-33.8L230.4 440l-20.2-30.2C203.6 399.8 200 388 200 376l0-8 16 0 0 8zM328 512l0-8 0-128 0-8 16 0 0 8 0 120 32 0 8 0 0 16-8 0-40 0-8 0zm88-106.3c0-20.8 16.9-37.7 37.7-37.7l26.3 0 8 0 0 16-8 0-26.3 0c-12 0-21.7 9.7-21.7 21.7c0 8.2 4.6 15.7 12 19.4l31.2 15.6c12.8 6.4 20.8 19.4 20.8 33.7c0 20.8-16.9 37.7-37.7 37.7L432 512l-8 0 0-16 8 0 26.3 0c12 0 21.7-9.7 21.7-21.7c0-8.2-4.6-15.7-12-19.4l-31.2-15.6C424.1 433 416 419.9 416 405.7z"/></svg>