<svg xmlns="http://www.w3.org/2000/svg" viewBox="0 0 640 512"><!--! Font Awesome Pro 6.6.0 by @fontawesome - https://fontawesome.com License - https://fontawesome.com/license (Commercial License) Copyright 2024 Fonticons, Inc. --><path d="M16.2 5L9.9 0 0 12.5l6.3 5L623.8 507l6.3 5 9.9-12.5-6.3-5L16.2 5zM576 312l0-8 0-8 0-80 0-8 0-8 0-80 0-8 0-8 0-56 0-16-16 0-96 0-8 0-8 0L192 32l-8 0-8 0-23.5 0 20.3 16 3.3 0 0 2.6 16 12.6L192 48l256 0 0 64 0 96 0 57.3L464 278l0-62 96 0 0 80-73.1 0 20.3 16 52.9 0 0 41.7 16 12.6 0-54.4zm-384-8l0-57.3L176 234l0 62-96 0 0-80 73.1 0-20.3-16L80 200l0-41.7L64 145.6 64 200l0 8 0 8 0 80 0 8 0 8 0 80 0 8 0 8 0 56 0 16 16 0 96 0 8 0 8 0 256 0 8 0 8 0 23.5 0-20.3-16-3.3 0 0-2.6-16-12.6 0 15.2-256 0 0-64 0-96zM464 48l96 0 0 56-96 0 0-56zm96 72l0 80-96 0 0-80 96 0zM176 464l-96 0 0-56 96 0 0 56zM80 392l0-80 96 0 0 80-96 0z"/></svg>