<svg xmlns="http://www.w3.org/2000/svg" viewBox="0 0 512 512"><!--! Font Awesome Pro 6.6.0 by @fontawesome - https://fontawesome.com License - https://fontawesome.com/license (Commercial License) Copyright 2024 Fonticons, Inc. --><path d="M112 120l0 80-96 0 0-80 96 0zm0-16l-96 0 0-56 96 0 0 56zm0-72L16 32 0 32 0 48l0 56 0 8 0 8 0 80 0 8 0 8 0 80 0 8 0 8 0 80 0 8 0 8 0 56 0 16 16 0 96 0 8 0 8 0 256 0 8 0 8 0 96 0 16 0 0-16 0-56 0-8 0-8 0-80 0-8 0-8 0-80 0-8 0-8 0-80 0-8 0-8 0-56 0-16-16 0-96 0-8 0-8 0L128 32l-8 0-8 0zm16 16l256 0 0 64 0 96 0 96 0 96 0 64-256 0 0-64 0-96 0-96 0-96 0-64zm272 0l96 0 0 56-96 0 0-56zm96 72l0 80-96 0 0-80 96 0zm0 96l0 80-96 0 0-80 96 0zm0 96l0 80-96 0 0-80 96 0zm0 96l0 56-96 0 0-56 96 0zM112 464l-96 0 0-56 96 0 0 56zM16 392l0-80 96 0 0 80-96 0zm0-96l0-80 96 0 0 80-96 0z"/></svg>