<svg xmlns="http://www.w3.org/2000/svg" viewBox="0 0 576 512"><!--! Font Awesome Pro 6.6.0 by @fontawesome - https://fontawesome.com License - https://fontawesome.com/license (Commercial License) Copyright 2024 Fonticons, Inc. --><path d="M96 0L88 0l0 8 0 40L40 48 8 48 0 48 0 64l8 0 24 0 0 432L8 496l-8 0 0 16 8 0 32 0 272 0 32 0 8 0 0-16-8 0-24 0 0-432 24 0 8 0 0-16-8 0-32 0-48 0 0-40 0-8-8 0L96 0zM248 48L104 48l0-32 144 0 0 32zM88 64l16 0 144 0 16 0 40 0 0 432L48 496 48 64l40 0zM384 176l-16 0 0 16 0 32 0 16 16 0 32 0 16 0 0-16 0-32 0-16-16 0-32 0zm0 16l16 0 16 0 0 16 0 16-16 0-16 0 0-16 0-16zM368 336l0 16 0 32 0 16 16 0 32 0 16 0 0-16 0-32 0-16-16 0-32 0-16 0zm32 16l16 0 0 16 0 16-16 0-16 0 0-16 0-16 16 0zm80-176l-16 0 0 16 0 32 0 16 16 0 32 0 16 0 0-16 0-32 0-16-16 0-32 0zm0 16l16 0 16 0 0 16 0 16-16 0-16 0 0-16 0-16zm80-48l0 184-56 0-8 0 0 8 0 96-144 0 0 16 152 0 8 0 0-8 0-96 56 0 8 0 0-8 0-200 0-8-8 0-216 0 0 16 208 0z"/></svg>