<svg xmlns="http://www.w3.org/2000/svg" viewBox="0 0 576 512"><!--! Font Awesome Pro 6.6.0 by @fontawesome - https://fontawesome.com License - https://fontawesome.com/license (Commercial License) Copyright 2024 Fonticons, Inc. --><path d="M264 32l77.8 64.1C497.9 99.9 576 256 576 256s-78.1 156.1-234.2 159.9L264 480l-40-24 7.6-64.7c-30.8-15.3-56.4-35.9-76.8-56.5L32 384 0 352l48-96L0 160l32-32 118.7 53.4c21-21.9 47.9-44.3 80.9-60.7L224 56l40-24zM548 240.4c-9.3-14.1-23.3-32.8-42-51.7c-37.4-37.8-92.2-74.9-164.7-76.6l-5.5-.1-4.3-3.5L262.5 51.5 241.1 64.4l6.4 54.4 1.3 11.2-10.1 5c-30.9 15.4-56.4 36.5-76.5 57.5l-7.8 8.2L144.1 196 35.5 147.1l-16 16 42.8 85.7 3.6 7.2-3.6 7.2L19.5 348.8l16.4 16.4L148.9 320l9.8-3.9 7.5 7.5c19.4 19.6 43.6 39 72.5 53.4l10.1 5-1.3 11.2-6.4 54.4 21.4 12.9 69.1-56.9 4.3-3.5 5.5-.1c72.5-1.8 127.3-38.8 164.7-76.6c18.6-18.9 32.6-37.6 42-51.7c4.2-6.3 7.4-11.7 9.7-15.6c-2.3-3.9-5.5-9.3-9.7-15.6zm13.7 22.8s0 0 0 0s0 0 0 0zM416 224a32 32 0 1 1 0 64 32 32 0 1 1 0-64zm16 32a16 16 0 1 0 -32 0 16 16 0 1 0 32 0z"/></svg>