<svg xmlns="http://www.w3.org/2000/svg" viewBox="0 0 640 512"><!--! Font Awesome Pro 6.6.0 by @fontawesome - https://fontawesome.com License - https://fontawesome.com/license (Commercial License) Copyright 2024 Fonticons, Inc. --><path d="M128 336l0-160 496 0 0 160-496 0zm-16 0l-96 0 0-160 96 0 0 160zm8-176l-8 0-96 0L0 160l0 16L0 336l0 16 16 0 96 0 8 0 8 0 496 0 16 0 0-16 0-160 0-16-16 0-496 0-8 0zm184 96a16 16 0 1 1 32 0 16 16 0 1 1 -32 0zm48 0a32 32 0 1 0 -64 0 32 32 0 1 0 64 0zm64-16a16 16 0 1 1 0 32 16 16 0 1 1 0-32zm0 48a32 32 0 1 0 0-64 32 32 0 1 0 0 64zm80-32a16 16 0 1 1 32 0 16 16 0 1 1 -32 0zm48 0a32 32 0 1 0 -64 0 32 32 0 1 0 64 0z"/></svg>