<svg xmlns="http://www.w3.org/2000/svg" viewBox="0 0 512 512"><!--! Font Awesome Pro 6.6.0 by @fontawesome - https://fontawesome.com License - https://fontawesome.com/license (Commercial License) Copyright 2024 Fonticons, Inc. --><path d="M224 32l48 64 224 0 16 0 0 16 0 352 0 16-16 0L16 480 0 480l0-16L0 48 0 32l16 0 208 0zm48 80l-8 0-4.8-6.4L216 48 16 48l0 416 480 0 0-352-224 0zm-86.2 94.5l5.7 5.7L256 276.7l64.6-64.6 5.7-5.7 11.3 11.3-5.7 5.7L267.3 288l64.6 64.6 5.7 5.7-11.3 11.3-5.7-5.7L256 299.3l-64.6 64.6-5.7 5.7-11.3-11.3 5.7-5.7L244.7 288l-64.6-64.6-5.7-5.7 11.3-11.3z"/></svg>