<svg xmlns="http://www.w3.org/2000/svg" viewBox="0 0 640 512"><!--! Font Awesome Pro 6.6.0 by @fontawesome - https://fontawesome.com License - https://fontawesome.com/license (Commercial License) Copyright 2024 Fonticons, Inc. --><path d="M176 72l-16 0-16 0-16 0 0-16 0-40L96 16l0 40 0 16L80 72 64 72 48 72l0-16 0-40L16 16l0 40 0 72 0 48 192 0 0-48 0-72 0-40-32 0 0 40 0 16zM48 0L64 0l0 16 0 24 0 16 16 0 0-16 0-24L80 0 96 0l32 0 16 0 0 16 0 24 0 16 16 0 0-16 0-24 0-16 16 0 32 0 16 0 0 16 0 40 0 72 0 48 0 16-16 0-16 0 0 16 256 0 0-16-16 0-16 0 0-16 0-48 0-72 0-40 0-16 16 0 32 0 16 0 0 16 0 24 0 16 16 0 0-16 0-24 0-16 16 0 32 0 16 0 0 16 0 24 0 16 16 0 0-16 0-24 0-16 16 0 32 0 16 0 0 16 0 40 0 72 0 48 0 16-16 0-16 0 0 312 0 8-8 0-200 0-16 0-128 0-16 0L40 512l-8 0 0-8 0-312-16 0L0 192l0-16 0-48L0 56 0 16 0 0 16 0 48 0zM448 224l-256 0 0 272 48 0 0-104c0-44.2 35.8-80 80-80s80 35.8 80 80l0 104 48 0 0-272zM176 192L48 192l0 304 128 0 0-304zm96 304l96 0 16 0 0-16 0-88c0-35.3-28.7-64-64-64s-64 28.7-64 64l0 88 0 16 16 0zm320 0l0-304-128 0 0 304 128 0zM464 72l0-16 0-40-32 0 0 40 0 72 0 48 192 0 0-48 0-72 0-40-32 0 0 40 0 16-16 0-16 0-16 0 0-16 0-40-32 0 0 40 0 16-16 0-16 0-16 0z"/></svg>