<svg xmlns="http://www.w3.org/2000/svg" viewBox="0 0 512 512"><!--! Font Awesome Pro 6.6.0 by @fontawesome - https://fontawesome.com License - https://fontawesome.com/license (Commercial License) Copyright 2024 Fonticons, Inc. --><path d="M496 64l0 8 0 172.7L256 75.3 240 64l0 19.6 0 149.8L16 75.3 0 64 0 83.6 0 428.4 0 448l16-11.3L240 278.6l0 149.8 0 19.6 16-11.3L496 267.3 496 440l0 8 16 0 0-8 0-184 0-184 0-8-16 0zM256 267.3l0-22.6 0-149.8L484.3 256 256 417.1l0-149.8zM240 259L16 417.1 16 94.9 240 253l0 6z"/></svg>