<svg xmlns="http://www.w3.org/2000/svg" viewBox="0 0 384 512"><!--! Font Awesome Pro 6.6.0 by @fontawesome - https://fontawesome.com License - https://fontawesome.com/license (Commercial License) Copyright 2024 Fonticons, Inc. --><path d="M16 16l0 480 352 0 0-480L16 16zM0 0L16 0 368 0l16 0 0 16 0 480 0 16-16 0L16 512 0 512l0-16L0 16 0 0zM80 80l0 160 224 0 0-160L80 80zM64 64l16 0 224 0 16 0 0 16 0 160 0 16-16 0L80 256l-16 0 0-16L64 80l0-16zM232 344a16 16 0 1 0 0 32 16 16 0 1 0 0-32zm32 16a32 32 0 1 1 -64 0 32 32 0 1 1 64 0zm16-48a16 16 0 1 0 32 0 16 16 0 1 0 -32 0zm16 32a32 32 0 1 1 0-64 32 32 0 1 1 0 64zM104 288l16 0 0 40 40 0 0 16-40 0 0 40-16 0 0-40-40 0 0-16 40 0 0-40z"/></svg>