<svg xmlns="http://www.w3.org/2000/svg" viewBox="0 0 576 512"><!--! Font Awesome Pro 6.6.0 by @fontawesome - https://fontawesome.com License - https://fontawesome.com/license (Commercial License) Copyright 2024 Fonticons, Inc. --><path d="M432 48l0 224 0 16 0 176L16 464 16 48l416 0zm16 416l0-176 40 0 8 0 0-8 0-72 71.9 0 8 0 0-8 0-64 0-8-8 0L488 128l-8 0 0 8 0 64 0 72-32 0 0-224 0-16-16 0L16 32 0 32 0 48 0 464l0 16 16 0 416 0 16 0 0-16zM368 112l0 144L80 256l0-144 288 0zM80 96L64 96l0 16 0 144 0 16 16 0 288 0 16 0 0-16 0-144 0-16-16 0L80 96zm32 224l-8 0 0 8 0 32-32 0-8 0 0 8 0 8 8 0 32 0 0 32 0 8 8 0 8 0 0-8 0-32 32 0 8 0 0-8 0-8-8 0-32 0 0-32 0-8-8 0zm128 48a16 16 0 1 1 0-32 16 16 0 1 1 0 32zm-32-16a32 32 0 1 0 64 0 32 32 0 1 0 -64 0zm128 0a16 16 0 1 1 -32 0 16 16 0 1 1 32 0zm-16-32a32 32 0 1 0 0 64 32 32 0 1 0 0-64zM496 192l0-48 63.9 0 0 48L496 192z"/></svg>