<svg xmlns="http://www.w3.org/2000/svg" viewBox="0 0 448 512"><!--! Font Awesome Pro 6.6.0 by @fontawesome - https://fontawesome.com License - https://fontawesome.com/license (Commercial License) Copyright 2024 Fonticons, Inc. --><path d="M16 48l0 416 416 0 0-416L16 48zM0 32l16 0 416 0 16 0 0 16 0 416 0 16-16 0L16 480 0 480l0-16L0 48 0 32zM64 88l160 0 8 0 0 8 0 152 152 0 8 0 0 8 0 160 0 8-8 0-160 0-8 0 0-8 0-152L64 264l-8 0 0-8L56 96l0-8 8 0zm152 16L72 104l0 144 144 0 0-144zm16 304l144 0 0-144-144 0 0 144z"/></svg>