<svg xmlns="http://www.w3.org/2000/svg" viewBox="0 0 512 512"><!--! Font Awesome Pro 6.6.0 by @fontawesome - https://fontawesome.com License - https://fontawesome.com/license (Commercial License) Copyright 2024 Fonticons, Inc. --><path d="M234.5 495C145.4 487.1 70.3 430.5 36 352l106.2 0c22.4 72.6 66.1 119.8 92.3 143zm-29.7-55.7c-17.1-22.6-34.1-51.6-45.8-87.4l194.1 0c-11.7 35.7-28.7 64.8-45.8 87.4c-15.2 20.1-30.4 35.1-41.7 44.9c-3.6 3.1-6.8 5.8-9.5 7.9c-2.7-2.1-5.9-4.7-9.5-7.9c-11.3-9.9-26.5-24.8-41.7-44.9zM144 256c0-29.4 3.9-56.1 10.2-80l203.6 0c6.3 23.9 10.2 50.6 10.2 80s-3.9 56.1-10.2 80l-203.6 0c-6.4-23.9-10.2-50.6-10.2-80zm-6.3-80c-6.1 24.1-9.7 50.8-9.7 80s3.6 55.9 9.7 80l-108 0C20.8 311 16 284.1 16 256s4.8-55 13.7-80l108 0zm21.3-16c11.7-35.7 28.7-64.8 45.8-87.4c15.2-20.1 30.4-35.1 41.7-44.9c3.6-3.1 6.8-5.8 9.5-7.9c2.7 2.1 5.9 4.7 9.5 7.9c11.3 9.9 26.5 24.8 41.7 44.9c17.1 22.6 34.1 51.6 45.8 87.4l-194.1 0zm215.4 16l108 0c8.8 25 13.7 51.9 13.7 80s-4.8 55-13.7 80l-108 0c6.1-24.1 9.7-50.8 9.7-80s-3.6-55.9-9.7-80zM476 160l-106.2 0C347.5 87.4 303.8 40.2 277.5 17C366.6 24.9 441.7 81.5 476 160zm-333.9 0L36 160C70.3 81.5 145.4 24.9 234.5 17c-26.3 23.2-69.9 70.5-92.3 143zM277.5 495c26.3-23.2 69.9-70.5 92.3-143L476 352c-34.3 78.5-109.4 135.1-198.5 143zM256 512A256 256 0 1 0 256 0a256 256 0 1 0 0 512z"/></svg>