<svg xmlns="http://www.w3.org/2000/svg" viewBox="0 0 384 512"><!--! Font Awesome Pro 6.6.0 by @fontawesome - https://fontawesome.com License - https://fontawesome.com/license (Commercial License) Copyright 2024 Fonticons, Inc. --><path d="M312.8 320c34-32.1 55.2-77.6 55.2-128c0-97.2-78.8-176-176-176S16 94.8 16 192c0 50.4 21.2 95.9 55.2 128l-22.3 0C18.5 286 0 241.2 0 192C0 86 86 0 192 0S384 86 384 192c0 49.2-18.5 94-48.9 128l-22.3 0zM56 352l8 0 256 0 8 0 0 8 0 24 0 5.1-4.6 2.1L224 437.1l0 66.9 0 8-16 0 0-8 0-72 0-5.1 4.6-2.1L312 378.9l0-10.9L72 368l0 10.9 99.4 45.9 4.6 2.1 0 5.1 0 72 0 8-16 0 0-8 0-66.9L60.6 391.3 56 389.1l0-5.1 0-24 0-8zM224 176c0 22.1-17.9 40-40 40l-8 0 0-16 8 0c13.3 0 24-10.7 24-24l0-8 16 0 0 8zm80 8l0 8c0 22.1-17.9 40-40 40l-8 0 0-16 8 0c13.3 0 24-10.7 24-24l0-8 16 0zm-64 72c0 22.1-17.9 40-40 40l-8 0 0-16 8 0c13.3 0 24-10.7 24-24l0-8 16 0 0 8z"/></svg>