<svg xmlns="http://www.w3.org/2000/svg" viewBox="0 0 640 512"><!--! Font Awesome Pro 6.6.0 by @fontawesome - https://fontawesome.com License - https://fontawesome.com/license (Commercial License) Copyright 2024 Fonticons, Inc. --><path d="M320 271L130.1 204.6l192.7-72.3 7.5-2.8-5.6-15-7.5 2.8-210.7 79L16 164.6l0-9.3L320 49 624 155.4l0 9.3L320 271zM108.3 213.9L320 288 640 176l0-32L320 32 0 144l0 32 92.1 32.2L58 247.6l-2 2.3 0 3 0 66.4L48 359c-5 25-15.1 48.6-29.7 69.4l-10.5 15-6.5 9.2 10.8 3.1 73.6 20.8L96 479.4l0-10.6 0-38.4c0-31.7-5.7-63.1-16.8-92.7L72 318.5l0-62.8 36.3-41.9zm50.5 54.3l-15.5-5.6L128 408c0 35.3 86 72 192 72s192-36.7 192-72L496.7 262.6l-15.5 5.6L496 408.6c-.2 2.4-2 7-9.5 13.5c-7.9 6.8-20.1 13.9-36.5 20.3C417.3 455.1 371.4 464 320 464s-97.3-8.9-129.9-21.6c-16.4-6.4-28.6-13.5-36.5-20.3c-7.5-6.5-9.3-11.2-9.5-13.5l14.8-140.3zm-92.5 81C75.4 375.3 80 402.8 80 430.4l0 27.8L27.4 443.4l4.1-5.8c15.9-22.7 26.8-48.4 32.3-75.5l2.6-12.9z"/></svg>