<svg xmlns="http://www.w3.org/2000/svg" viewBox="0 0 512 512"><!--! Font Awesome Pro 6.6.0 by @fontawesome - https://fontawesome.com License - https://fontawesome.com/license (Commercial License) Copyright 2024 Fonticons, Inc. --><path d="M365.3 11.2L370 4.7l-4.6-3.4-4.7 3.3 4.6 6.6zM500.8 148c6.5 4.7 6.5 4.7 6.5 4.7s0 0 0 0s0 0 0 0s0 0 0 0l-.1 .1-.3 .4c-.2 .3-.6 .7-1 1.3c-.9 1.1-2.1 2.6-3.8 4.4c-3.2 3.6-8 8.4-13.9 13.3C476.4 181.8 458.9 192 438 192c-19.5 0-33.6-3.8-45.9-10.9c-11.8-6.9-21.6-16.7-32.6-27.6c0 0 0 0 0 0l-.5-.5-.5-.5c-11-10.9-20.8-20.8-27.6-32.6C323.8 107.6 320 93.5 320 74c0-21 10.7-38.5 20.5-50.3c5-6 10-10.7 13.7-13.9c1.9-1.6 3.4-2.9 4.6-3.7c.6-.4 1-.8 1.3-1l.4-.3 .1-.1c0 0 0 0 0 0c0 0 0 0 0 0s0 0 0 0l4.6 6.6C370 4.7 370 4.7 370 4.7s0 0 0 0s0 0 0 0s0 0 0 0l.1 .1 .4 .3c.3 .2 .8 .6 1.3 1c1.1 .9 2.6 2.2 4.5 3.9c3.6 3.4 8.5 8.4 13.3 14.9c9.7 12.9 19.6 32.1 19.6 56.4c0 9.7-.8 17.3-1.9 23.2c5.9-1.1 13.5-1.9 23.2-1.9c24.3 0 43.6 10.3 56.5 20.3c6.5 5 11.5 10 14.9 13.8c1.7 1.9 3 3.5 3.9 4.6c.5 .6 .8 1 1 1.4l.3 .4 .1 .1c0 0 0 0 0 0c0 0 0 0 0 0s0 0 0 0l-6.6 4.6zm0 0l6.5 4.7 3.4-4.6-3.3-4.7-6.6 4.6zM388.3 112.4s0 0 0 0s0 0 0 0s0 0 0 0l-.1 .1-.1 .1-.1 .1s.1-.1 .3-.4c.4-.6 1-1.9 1.8-4.1c1.5-4.5 3.3-12.8 3.3-26.8c0-19.7-8.1-35.6-16.4-46.8c-4.2-5.6-8.3-9.8-11.4-12.7l-.3-.3-.5 .4c-3.3 2.8-7.6 6.9-11.9 12.1C344 44.5 336 58.4 336 74c0 17.2 3.3 28.4 8.8 37.9c5.7 9.8 14.1 18.3 25.6 29.8s19.9 19.8 29.8 25.6c9.5 5.5 20.7 8.8 37.9 8.8c15.7 0 29.7-7.8 40.1-16.2c5.2-4.2 9.3-8.4 12.1-11.5l.3-.3-.4-.5c-2.9-3.2-7.2-7.5-12.7-11.9c-11.2-8.7-27-17-46.7-17c-14 0-22.3 1.8-26.8 3.3c-2.2 .7-3.5 1.4-4.1 1.8c-.3 .2-.4 .3-.4 .3l.1-.1 .1-.1 .1-.1c0 0 0 0 0 0s0 0 0 0s0 0 0 0L394 118c-5.7-5.7-5.7-5.7-5.7-5.6zM288 152a40 40 0 1 0 -80 0 40 40 0 1 0 80 0zM152 176a40 40 0 1 0 -80 0 40 40 0 1 0 80 0zM128 312a40 40 0 1 0 -80 0 40 40 0 1 0 80 0zM96 456a40 40 0 1 0 -80 0 40 40 0 1 0 80 0zm144-32a40 40 0 1 0 -80 0 40 40 0 1 0 80 0zm56-24a40 40 0 1 0 80 0 40 40 0 1 0 -80 0zM264 288a40 40 0 1 0 -80 0 40 40 0 1 0 80 0zm136-24a40 40 0 1 0 -80 0 40 40 0 1 0 80 0zM248 96a56 56 0 1 1 0 112 56 56 0 1 1 0-112zM56 176a56 56 0 1 1 112 0A56 56 0 1 1 56 176zm32 80a56 56 0 1 1 0 112 56 56 0 1 1 0-112zM56 400a56 56 0 1 1 0 112 56 56 0 1 1 0-112zm144-32a56 56 0 1 1 0 112 56 56 0 1 1 0-112zm80 32a56 56 0 1 1 112 0 56 56 0 1 1 -112 0zM224 232a56 56 0 1 1 0 112 56 56 0 1 1 0-112zm80 32a56 56 0 1 1 112 0 56 56 0 1 1 -112 0z"/></svg>