<svg xmlns="http://www.w3.org/2000/svg" viewBox="0 0 512 512"><!--! Font Awesome Pro 6.6.0 by @fontawesome - https://fontawesome.com License - https://fontawesome.com/license (Commercial License) Copyright 2024 Fonticons, Inc. --><path d="M208 48L48 48l0 160 160 0 0-160zM48 32l160 0 16 0 0 16 0 160 0 16-16 0L48 224l-16 0 0-16L32 48l0-16 16 0zM208 304L48 304l0 160 160 0 0-160zM48 288l160 0 16 0 0 16 0 160 0 16-16 0L48 480l-16 0 0-16 0-160 0-16 16 0zM304 48l0 160 160 0 0-160L304 48zM288 32l16 0 160 0 16 0 0 16 0 160 0 16-16 0-160 0-16 0 0-16 0-160 0-16zM392 272l0 8 0 96 96 0 8 0 0 16-8 0-96 0 0 96 0 8-16 0 0-8 0-96-96 0-8 0 0-16 8 0 96 0 0-96 0-8 16 0z"/></svg>