<svg xmlns="http://www.w3.org/2000/svg" viewBox="0 0 640 512"><!--! Font Awesome Pro 6.6.0 by @fontawesome - https://fontawesome.com License - https://fontawesome.com/license (Commercial License) Copyright 2024 Fonticons, Inc. --><path d="M16 72l0-8L0 64l0 8L0 248 0 440l0 8 16 0 0-8 0-184 288 0 0 184 0 8 16 0 0-8 0-192 0-176 0-8-16 0 0 8 0 168L16 240 16 72zm584-8L392 64l-8 0 0 16 8 0 188.7 0L418.3 242.3l-2.3 2.3 0 11.3 8 0 96 0c48.6 0 88 39.4 88 88s-39.4 88-88 88l-72.6 0c-23.5 0-43.5-17-47.3-40.1l-.2-1.2-1.3-7.9-15.8 2.6 1.3 7.9 .2 1.2c5.1 30.9 31.8 53.5 63.1 53.5l72.6 0c54.7 0 99.6-42.3 103.7-96l.3 0 0-8c0-57.4-46.6-104-104-104l-76.7 0L605.7 77.7l2.3-2.3L608 64l-8 0z"/></svg>