<svg xmlns="http://www.w3.org/2000/svg" viewBox="0 0 448 512"><!--! Font Awesome Pro 6.6.0 by @fontawesome - https://fontawesome.com License - https://fontawesome.com/license (Commercial License) Copyright 2024 Fonticons, Inc. --><path d="M112 0l-8 0 0 8 0 56L32 64 15.4 64 25.8 77l28 35-28 35L15.4 160 32 160l72 0 0 72 0 8 0 7.4L34.8 305.9 32 308.3l0 3.7 0 53.7c0 48.8 26.2 93.9 68.5 118.1l18 10.3C139.1 505.8 162.3 512 186 512l142 0c57.4 0 104-46.6 104-104l0-16 0-88 0-48 0-8-8 0-56 0 0-24 0-8-8 0-64 0 0-24 0-8-8 0-80 0 0-24 0-16 0-64 0-16 0-56 0-8-8 0L112 0zm80 64l-72 0 0-48 72 0 0 48zm0 16l0 64L48.6 144l21.6-27 4-5-4-5L48.6 80 192 80zm0 80l0 32 0 8 8 0 80 0 0 24 0 8 8 0 64 0 0 24 0 8 8 0 56 0 0 40 0 88 0 16c0 48.6-39.4 88-88 88l-142 0c-20.9 0-41.4-5.4-59.5-15.8l-18-10.3C71.1 448.5 48 408.8 48 365.7l0-50 56-47.4 0 75.7 0 8 16 0 0-8 0-89.2 0-3.7 0-11.1 0-8 0-72 72 0z"/></svg>