<svg xmlns="http://www.w3.org/2000/svg" viewBox="0 0 576 512"><!--! Font Awesome Pro 6.6.0 by @fontawesome - https://fontawesome.com License - https://fontawesome.com/license (Commercial License) Copyright 2024 Fonticons, Inc. --><path d="M296 32l0-8-16 0 0 8 0 16.4c-8.4 .7-16.2 2.6-23 5.7c-12.4 5.6-21.9 15.4-24.2 28.8c-1.4 8.2-.6 15.4 2.4 21.8c3 6.3 7.8 11 13.2 14.7c10 6.8 23.7 10.9 35.9 14.6l1.7 .5c13.4 4 25 7.8 32.9 13.5c3.7 2.7 6.3 5.7 7.7 9c1.4 3.3 2.1 7.6 1.1 13.5c-1.4 8.2-6.5 14.1-15.1 17.8c-5.7 2.5-13 3.8-21.3 3.8l-.5 0c-4.3 0-8.8-.4-13.6-1.1c-7.1-1.2-19.2-5.3-28.8-8.5c0 0 0 0 0 0c-2.1-.7-4-1.4-5.7-1.9l-7.6-2.5-5.1 15.2 7.6 2.5c1.4 .5 3.1 1 5 1.7c0 0 0 0 0 0s0 0 0 0s0 0 0 0c9.4 3.2 23.4 8 32 9.4c0 0 0 0 0 0c1.8 .3 3.7 .5 5.5 .7l0 16.6 0 8 16 0 0-8 0-16.1c8.3-.5 16-2.1 22.7-5c12.6-5.4 22.1-15.4 24.5-29.7c1.5-8.5 .7-16-2.1-22.6c-2.9-6.6-7.5-11.6-13-15.5c-10.5-7.6-24.9-12-37.6-15.8l-.3-.1s0 0 0 0c-13.4-4-25-7.5-32.9-12.9c-3.8-2.6-6.3-5.3-7.7-8.3c-1.4-2.9-2.1-6.8-1.1-12.2c1.2-6.8 6.2-12.9 15.1-17c9-4.1 21.4-5.7 35.4-3.5c4.5 .7 18.5 3.4 22.9 4.6l4.1-15.5c-5.2-1.4-19.8-4.2-24.6-4.9c-1.8-.3-3.7-.5-5.5-.7L296 32zM151.6 320l-2.8 0-2.2 1.8L68.8 384 8 384l-8 0 0 16 8 0 63.6 0 2.8 0 2.2-1.8L154.4 336 368 336l0 40-120 0-8 0 0 8 0 40 0 8 8 0 149.3 0 2.5 0 2-1.4 116.3-80 27.2 39.6L391.5 496 8 496l-8 0 0 16 8 0 385.9 0 2.5 0 2-1.4L561 398.8l6.6-4.5-4.5-6.6L526.8 335l-4.5-6.6-6.6 4.5L394.8 416 256 416l0-24 120 0 8 0 0-8 0-56 0-8-8 0-224.4 0z"/></svg>