<svg xmlns="http://www.w3.org/2000/svg" viewBox="0 0 640 512"><!--! Font Awesome Pro 6.6.0 by @fontawesome - https://fontawesome.com License - https://fontawesome.com/license (Commercial License) Copyright 2024 Fonticons, Inc. --><path d="M262.4-3.9l6.9 5.9 50.4 43.2L370 1.9l6.9-5.9 5 7.5 128 192 1.3 2 0 2.4 0 106.5 122.8 46.1-5.6 15-128-48-5.2-1.9 0-5.5 0-109.6L373.6 19.9l-44.3 38 68.9 130.2 .2 .3 .9 1.6 0 2 0 112 0 8-16 0 0-8 0-104L328 200l0 194.5L633.8 496.4l-5.1 15.2-309.1-103L10.5 511.6 5.5 496.4 311.3 394.5l0-194.5L256 200l0 104 0 8-16 0 0-8 0-112 0-2 .9-1.6 .1-.3L309.9 57.9l-44.3-38L144 202.4 144 312l0 5.5-5.2 1.9-128 48-5.6-15L128 306.5 128 200l0-2.4 1.3-2 128-192 5-7.5zM311.3 184l8 0 .7 0 8 0 50 0L319.6 73.8 261.3 184l50 0z"/></svg>