<svg xmlns="http://www.w3.org/2000/svg" viewBox="0 0 512 512"><!--! Font Awesome Pro 6.6.0 by @fontawesome - https://fontawesome.com License - https://fontawesome.com/license (Commercial License) Copyright 2024 Fonticons, Inc. --><path d="M7.8 168.7L.1 166.6l2.1-7.7L25.5 74l2.1-7.7 7.7 2.1L77.8 80.1l187.5 51.6 48.3-64.4L316 64l4 0 32 0c38 0 74.2 15.9 99.9 43.8l24 26C499.1 158.9 512 191.9 512 226l0 102c0 75.1-60.9 136-136 136l-32 0-32 0-64 0-8 0 0-8 0-64-32 0-8 0 0-8 0-62.4L59.8 331.9l-43.9 3.2-8 .6-.6-8L.9 239.9l-.6-8 8-.6 43.9-3.2 135.7-9.9L50.2 180.3 7.8 168.7zm45.6 75.4l-35.9 2.6 5.3 71.8 35.9-2.6L207.4 305l8.6-.6 0 8.6 0 63 32 0 8 0 0 8 0 64 56 0 32 0 32 0c66.3 0 120-53.7 120-120l0-102c0-30.2-11.4-59.2-31.8-81.4l-24-26C417.4 94 385.4 80 352 80l-28 0-42.9 57.1 81.1 23.2 7.7 2.2-4.4 15.4-7.7-2.2L168.1 121.5l-94.5-26L38.8 85.9 19.7 155.4l34.7 9.5 182.5 50.2-1.5 15.7-182 13.3z"/></svg>