<svg xmlns="http://www.w3.org/2000/svg" viewBox="0 0 640 512"><!--! Font Awesome Pro 6.6.0 by @fontawesome - https://fontawesome.com License - https://fontawesome.com/license (Commercial License) Copyright 2024 Fonticons, Inc. --><path d="M447.9 41.8l-1.4-7.9-7.9 1.4-288 52.8-6.1 1.1-.4 6.2-7.7 114.8C59 223.3 0 290.6 0 371.7L0 440l0 8 8 0 464 0 40 0 56 0c39.8 0 72-32.2 72-72c0-26.3-11-50-26.7-70.4c-15.7-20.4-36.4-37.9-56.8-52.2c-20.4-14.3-40.8-25.5-56-33.1c-7.6-3.8-14-6.7-18.5-8.7c-1.5-.6-2.7-1.2-3.7-1.6L447.9 41.8zm34 187.3c3.4 1.6 7.3 3.4 11.6 5.6c14.8 7.4 34.4 18.2 54 31.9c19.6 13.7 38.9 30.2 53.2 48.8C615 334 624 354.3 624 376c0 30.9-25.1 56-56 56l-53.3 0L324.4 288l151.9 0 11.9 65.4 1.4 7.9 15.7-2.9-1.4-7.9-22-121.5zM473.4 272l-170.1 0-40.7-30.8c-28.4-21.5-63.1-33.2-98.8-33.2c-3.8 0-7.5 .1-11.2 .4l7-105.6 274-50.2L473.4 272zm-322-47.5c0 0 .1 0 .1 0c0 0 0 0 0 0c4-.3 8.1-.5 12.3-.5c32.2 0 63.5 10.5 89.1 29.9L488.2 432 472 432 16 432l0-60.3c0-77.4 59.6-140.9 135.4-147.2z"/></svg>