<svg xmlns="http://www.w3.org/2000/svg" viewBox="0 0 512 512"><!--! Font Awesome Pro 6.6.0 by @fontawesome - https://fontawesome.com License - https://fontawesome.com/license (Commercial License) Copyright 2024 Fonticons, Inc. --><path d="M168 23.6l0 79.7c12.4-4.8 25.9-7.4 40-7.4s27.6 2.6 40 7.4L248 16l-24 0c-19.4 0-38.2 2.7-56 7.6zm-16 5.2C72.6 58.1 16 134.4 16 224c0 55.7 22.7 108.1 61.7 147.9l2.3 2.3 0 3.3L80 504l0 8-16 0 0-8 0-123.3C23.7 338.4 0 283.1 0 224C0 100.3 100.3 0 224 0l24 0C351.6 0 434.3 83.3 439.8 184.7l69.5 61.8 2.7 2.4 0 3.6 0 75.6 0 8-8 0-56 0 0 104 0 8-8 0-120 0 0 56 0 8-16 0 0-8 0-64 0-8 8 0 120 0 0-104 0-8 8 0 56 0 0-64-69.3-61.6-2.6-2.3-.1-3.4c-3.3-89.4-71.9-163.9-160-172l0 94.3c33.5 19.4 56 55.6 56 97c0 61.9-50.1 112-112 112s-112-50.1-112-112c0-41.5 22.5-77.7 56-97l0-82.2zM304 208a96 96 0 1 0 -192 0 96 96 0 1 0 192 0zm-96 32a32 32 0 1 0 0-64 32 32 0 1 0 0 64zm0-80a48 48 0 1 1 0 96 48 48 0 1 1 0-96z"/></svg>