<svg xmlns="http://www.w3.org/2000/svg" viewBox="0 0 576 512"><!--! Font Awesome Pro 6.6.0 by @fontawesome - https://fontawesome.com License - https://fontawesome.com/license (Commercial License) Copyright 2024 Fonticons, Inc. --><path d="M48 224c0-21.5 3.3-42.2 9.3-61.7L256 287.4l0 .6 0 208 0 16 16 0 208 0 59.6-208.6c1.4-5.1 2.5-10.2 3.3-15.4c.7-5.3 1.1-10.6 1.1-16l0-19.6 0-3.6-2.7-2.4-69.5-61.8C466.3 83.3 383.6 0 280 0L256 0C132.3 0 32 100.3 32 224c0 59.1 23.7 114.5 64 156.7L96 504l0 8 16 0 0-8 0-126.5 0-3.3-2.3-2.3C70.7 332.1 48 279.7 48 224zm213.6 48L62.8 146.8C93.4 70.2 168.4 16 256 16l24 0c95.7 0 172.5 77.9 176 172.7l.1 3.4 2.6 2.3L528 256l0 16-256 0-10.4 0zM272 496l0-208 254.7 0c-.6 3.7-1.4 7.4-2.5 11l-15.1 53L368 352l-8 0 0 16 8 0 136.5 0-13.7 48L368 416l-8 0 0 16 8 0 118.2 0-18.3 64L272 496zm96-272a16 16 0 1 0 0-32 16 16 0 1 0 0 32z"/></svg>