<svg xmlns="http://www.w3.org/2000/svg" viewBox="0 0 512 512"><!--! Font Awesome Pro 6.6.0 by @fontawesome - https://fontawesome.com License - https://fontawesome.com/license (Commercial License) Copyright 2024 Fonticons, Inc. --><path d="M77.7 371.9C38.7 332.1 16 279.7 16 224L0 224c0 59.1 23.7 114.4 64 156.7L64 504l0 8 16 0 0-8 0-126.5 0-3.3-2.3-2.3zM40.1 96L8 96 0 96l0 8 0 80 0 8 8 0 214.2 0c15.7 24.1 42.9 40 73.8 40l112 0 96 0 8 0 0-8 0-160 0-8-8 0-96 0-25.6 0C347.9 21.5 300.6 0 248 0L224 0C147.9 0 80.6 38 40.1 96zM60 96c38.1-48.7 97.4-80 164-80l24 0c42.1 0 80.5 15.1 110.6 40L296 56c-30.9 0-58.1 15.9-73.8 40L60 96zM496 320l-56 0-8 0 0 8 0 104-120 0-8 0 0 8 0 64 0 8 16 0 0-8 0-56 120 0 8 0 0-8 0-104 56 0 8 0 0-8 0-72-16 0 0 64zM296 72l104 0 0 144-104 0c-39.8 0-72-32.2-72-72s32.2-72 72-72zM416 216l0-144 80 0 0 144-80 0zM208 144c0 11.3 2.1 22.1 6 32L16 176l0-64 198 0c-3.9 9.9-6 20.7-6 32z"/></svg>