<svg xmlns="http://www.w3.org/2000/svg" viewBox="0 0 512 512"><!--! Font Awesome Pro 6.6.0 by @fontawesome - https://fontawesome.com License - https://fontawesome.com/license (Commercial License) Copyright 2024 Fonticons, Inc. --><path d="M16 288C16 155.5 123.5 48 256 48s240 107.5 240 240l0 88 0 8 16 0 0-8 0-88C512 146.6 397.4 32 256 32S0 146.6 0 288l0 88 0 8 16 0 0-8 0-88zm144-16l0 192-96 0 0-192 96 0zM64 256l-16 0 0 16 0 192 0 16 16 0 96 0 16 0 0-16 0-192 0-16-16 0-96 0zm288 16l96 0 0 192-96 0 0-192zm96-16l-96 0-16 0 0 16 0 192 0 16 16 0 96 0 16 0 0-16 0-192 0-16-16 0z"/></svg>