<svg xmlns="http://www.w3.org/2000/svg" viewBox="0 0 640 512"><!--! Font Awesome Pro 6.6.0 by @fontawesome - https://fontawesome.com License - https://fontawesome.com/license (Commercial License) Copyright 2024 Fonticons, Inc. --><path d="M293.2 9.9L288 5.5l-5.2 4.5-280 240 10.4 12.1L64 218.5 64 504l0 8 8 0 322.8 0c-6.9-4.9-13.5-10.2-19.6-16l-7.2 0s0 0 0 0l-16 0s0 0 0 0l-128 0 0-176 32 0 70.6 0c1.5-5.4 3.3-10.8 5.4-16l-116 0-8 0 0 8 0 184L80 496l0-291.2L288 26.5l193.7 166c4.7-.4 9.5-.6 14.3-.6c3.3 0 6.7 .1 10 .3L293.2 9.9zM496 240a128 128 0 1 1 0 256 128 128 0 1 1 0-256zm0 272a144 144 0 1 0 0-288 144 144 0 1 0 0 288zm75.3-184L560 316.7l-5.7 5.7L480 396.7l-42.3-42.3-5.7-5.7L420.7 360l5.7 5.7 48 48 5.7 5.7 5.7-5.7 80-80 5.7-5.7z"/></svg>