<svg xmlns="http://www.w3.org/2000/svg" viewBox="0 0 640 512"><!--! Font Awesome Pro 6.6.0 by @fontawesome - https://fontawesome.com License - https://fontawesome.com/license (Commercial License) Copyright 2024 Fonticons, Inc. --><path d="M528 16a36 36 0 1 1 0 72 36 36 0 1 1 0-72zm0 88A52 52 0 1 0 528 0a52 52 0 1 0 0 104zm19.4 166.3l4.8 9.5 9.5 4.8 33.7 16.8 14.3 7.2 7.2-14.3 14.3-28.6 7.2-14.3L624 244.2l-24.1-12.1-35.2-70.5-7-14-15.3-3.1-80-16-10-2-9.3 4.1-72 32-12.9 5.7-4.5 13.4-16 48-5.1 15.2-5.1 15.2 15.2 5.1 30.4 10.1 15.2 5.1 5.1-15.2 5.1-15.2 11.5-34.6 17.9-7.9 18.8-8.3-5.3 19.9-11.7 43.7c-5.6 21.1-.1 43.6 14.7 59.7l70.9 77.4 22 80.5 4.2 15.4 4.2 15.4 15.4-4.2 30.9-8.4 15.4-4.2L603.1 479l-4.2-15.4-24-88-2-7.5-5.2-5.7-52.3-57 11.7-39.9 6.6-22.5 10.5 21 3.2 6.4zm8.4 102.9l2.6 2.9 1 3.7 24 88 4.2 15.4-30.9 8.4-4.2-15.4-22-80.5-1-3.7-2.6-2.9-70.9-77.4c-11.1-12.1-15.2-29-11-44.8l17-63.6 8.6-32.3-30.6 13.6-36.7 16.3-6.5 2.9-2.2 6.7-11.5 34.6-5.1 15.2-30.4-10.1 5.1-15.2 16-48 2.2-6.7 6.5-2.9 72-32 4.6-2.1 5 1 80 16 7.7 1.5 3.5 7 35.2 70.5 2.4 4.8 4.8 2.4 24.1 12.1-14.3 28.6-33.7-16.8-4.8-2.4-2.4-4.8L548 235.8l-18.2-36.4-11.5 39L500 300.8l-2.5 8.7 6.1 6.7 52.3 57zM388.7 398l-43.4 43.4-11.3 11.3L322.7 464l11.3 11.3 22.6 22.6L368 509.3l11.3-11.3 11.3-11.3 48-48 4.6-4.6 2.4-6.1 15.7-39.3-12-13.1-18.6 46.4-1.2 3-2.3 2.3-48 48L368 486.6 345.4 464l11.3-11.3L400 409.3l2.3-2.3 1.2-3 21.8-54.6-4.8-5.2c-2.5-2.7-4.8-5.6-7-8.6l-25 62.4zM245.2 9.9L240 5.5l-5.2 4.5-224 192-6.1 5.2 10.4 12.1 6.1-5.2L64 177.4 64 408l0 8 8 0 250.7 0 16-16L80 400l0-236.3L240 26.5 361.5 130.7l16.2-7.2L245.2 9.9zM232 184l0 80-80 0 0-80 80 0zm-80-16l-16 0 0 16 0 80 0 16 16 0 80 0 16 0 0-16 0-80 0-16-16 0-80 0z"/></svg>