<svg xmlns="http://www.w3.org/2000/svg" viewBox="0 0 640 512"><!--! Font Awesome Pro 6.6.0 by @fontawesome - https://fontawesome.com License - https://fontawesome.com/license (Commercial License) Copyright 2024 Fonticons, Inc. --><path d="M432 16a36 36 0 1 1 0 72 36 36 0 1 1 0-72zm0 88A52 52 0 1 0 432 0a52 52 0 1 0 0 104zM412.6 270.3l3.2-6.4 10.5-21 6.6 22.5 11.7 39.9-52.3 57-5.2 5.7-2 7.5-24 88L356.9 479l-4.2 15.4 15.4 4.2 30.9 8.4 15.4 4.2 4.2-15.4 4.2-15.4 22-80.5 70.9-77.4c14.8-16.1 20.3-38.6 14.7-59.7l-11.7-43.7-5.3-19.9 18.8 8.3 17.9 7.9 11.5 34.6 5.1 15.2 5.1 15.2 15.2-5.1 30.4-10.1 15.2-5.1-5.1-15.2-5.1-15.2-16-48-4.5-13.4L589 162.8l-72-32-9.3-4.1-10 2-80 16-15.3 3.1-7 14-35.2 70.5L336 244.2l-14.3 7.2 7.2 14.3 14.3 28.6 7.2 14.3 14.3-7.2 33.7-16.8 9.5-4.8 4.8-9.5zm-8.4 102.9l52.3-57 6.1-6.7-2.5-8.7-18.4-62.4-11.5-39L412 235.8l-13.7 27.4-2.4 4.8-4.8 2.4-33.7 16.8-14.3-28.6 24.1-12.1 4.8-2.4 2.4-4.8 35.2-70.5 3.5-7 7.7-1.5 80-16 5-1 4.6 2.1 72 32 6.5 2.9 2.2 6.7 16 48 5.1 15.2-30.4 10.1-5.1-15.2-11.5-34.6-2.2-6.7-6.5-2.9-36.7-16.3L489.4 171l8.6 32.3 17 63.6c4.2 15.8 .1 32.7-11 44.8L433 389.1l-2.6 2.9-1 3.7-22 80.5-4.2 15.4-30.9-8.4 4.2-15.4 24-88 1-3.7 2.6-2.9zM571.3 398l-25-62.4c-2.1 3-4.5 5.8-7 8.6l-4.8 5.2L556.4 404l1.2 3 2.3 2.3 43.4 43.4L614.6 464 592 486.6l-11.3-11.3-48-48-2.3-2.3-1.2-3-18.6-46.4-12 13.1 15.7 39.3 2.4 6.1 4.6 4.6 48 48 11.3 11.3L592 509.3l11.3-11.3 22.6-22.6L637.3 464l-11.3-11.3-11.3-11.3L571.3 398zM245.2 9.9L240 5.5l-5.2 4.5-224 192-6.1 5.2 10.4 12.1 6.1-5.2L64 177.4 64 408l0 8 8 0 271.7 0 4.4-16L80 400l0-236.3L240 26.5l132.9 114 7.4-14.8L245.2 9.9zM232 184l0 80-80 0 0-80 80 0zm-80-16l-16 0 0 16 0 80 0 16 16 0 80 0 16 0 0-16 0-80 0-16-16 0-80 0z"/></svg>