<svg xmlns="http://www.w3.org/2000/svg" viewBox="0 0 576 512"><!--! Font Awesome Pro 6.6.0 by @fontawesome - https://fontawesome.com License - https://fontawesome.com/license (Commercial License) Copyright 2024 Fonticons, Inc. --><path d="M288 5.5l5.2 4.5 280 240-10.4 12.1L512 218.5 512 504l0 8-8 0L72 512l-8 0 0-8 0-285.5L13.2 262.1 2.8 249.9l280-240L288 5.5zm0 21.1L80 204.8 80 496l416 0 0-291.2L288 26.5zM256 176l64 0 8 0 0 8 0 64 64 0 8 0 0 8 0 64 0 8-8 0-64 0 0 64 0 8-8 0-64 0-8 0 0-8 0-64-64 0-8 0 0-8 0-64 0-8 8 0 64 0 0-64 0-8 8 0zm8 80l0 8-8 0-64 0 0 48 64 0 8 0 0 8 0 64 48 0 0-64 0-8 8 0 64 0 0-48-64 0-8 0 0-8 0-64-48 0 0 64z"/></svg>