<svg xmlns="http://www.w3.org/2000/svg" viewBox="0 0 640 512"><!--! Font Awesome Pro 6.6.0 by @fontawesome - https://fontawesome.com License - https://fontawesome.com/license (Commercial License) Copyright 2024 Fonticons, Inc. --><path d="M144 272a128 128 0 1 0 0-256 128 128 0 1 0 0 256zM144 0a144 144 0 1 1 0 288A144 144 0 1 1 144 0zm8 68.7l5.7 5.7 64 64 5.7 5.7-5.7 5.7-64 64-5.7 5.7L140.7 208l5.7-5.7L196.7 152 72 152l-8 0 0-16 8 0 124.7 0L146.3 85.7 140.7 80 152 68.7zm154.8 8.4c-2.1-5-4.3-9.9-6.8-14.7L379.6 9.3l4.4-3 4.4 3 216 144-8.9 13.3L560 142.9 560 289c-5.3-2.9-10.4-6.2-16-10.1l0-146.7L384 25.6 306.8 77.1zM128.6 315c4.3 6.1 8.5 12.2 13.3 17.9c4.8 5.8 11.8 13.5 20.2 21.2C179.4 369.8 201.5 384 224 384s44.6-14.2 61.8-29.9c8.5-7.7 15.4-15.4 20.2-21.2c4.8-5.8 9-11.8 13.3-17.9c0 0 0 0 0 0s0 0 0 0l.6-.9 .6 .9c4.3 6.1 8.5 12.1 13.3 17.9c4.8 5.8 11.8 13.5 20.2 21.2C371.4 369.8 393.5 384 416 384s44.6-14.2 61.8-29.9c8.5-7.7 15.4-15.4 20.2-21.2c4.8-5.8 9-11.8 13.3-17.9l.6-.9 .6 .9s0 0 0 0s0 0 0 0c4.3 6.1 8.5 12.1 13.3 17.9c4.8 5.8 11.8 13.5 20.2 21.2C563.4 369.8 585.5 384 608 384l0 16c-28.7 0-54.6-17.8-72.6-34.1c-10.2-9.2-18.2-18.4-23.4-24.8c-5.2 6.4-13.3 15.6-23.4 24.8c-18 16.3-43.9 34.1-72.6 34.1s-54.6-17.8-72.6-34.1c-10.2-9.2-18.2-18.4-23.4-24.8c-5.2 6.4-13.3 15.6-23.4 24.8c-18 16.3-43.9 34.1-72.6 34.1s-54.6-17.8-72.6-34.1c-10.2-9.2-18.2-18.4-23.4-24.8c-5.2 6.4-13.2 15.6-23.4 24.8C86.6 382.2 60.7 400 32 400l0-16c22.5 0 44.6-14.2 61.8-29.9c8.5-7.7 15.4-15.4 20.2-21.2c4.8-5.8 9-11.8 13.3-17.9l.6-.9 .6 .9zM128 426l.6 .9c4.3 6.1 8.5 12.2 13.3 17.9c4.8 5.8 11.8 13.5 20.2 21.2C179.4 481.8 201.5 496 224 496s44.6-14.2 61.8-29.9c8.5-7.7 15.4-15.4 20.2-21.2c4.8-5.8 9-11.8 13.3-17.9c0 0 0 0 0 0l.6-.9 .6 .9c4.3 6.1 8.5 12.2 13.3 17.9c4.8 5.8 11.8 13.5 20.2 21.2C371.4 481.8 393.5 496 416 496s44.6-14.2 61.8-29.9c8.5-7.7 15.4-15.4 20.2-21.2c4.8-5.8 9-11.8 13.3-17.9l.6-.9 .6 .9s0 0 0 0c4.3 6.1 8.5 12.2 13.3 17.9c4.8 5.8 11.8 13.5 20.2 21.2C563.4 481.8 585.5 496 608 496l0 16c-28.7 0-54.6-17.8-72.6-34.1c-10.2-9.2-18.2-18.4-23.4-24.8c-5.2 6.4-13.3 15.6-23.4 24.8c-18 16.3-43.9 34.1-72.6 34.1s-54.6-17.8-72.6-34.1c-10.2-9.2-18.2-18.4-23.4-24.8c-5.2 6.4-13.3 15.6-23.4 24.8c-18 16.3-43.9 34.1-72.6 34.1s-54.6-17.8-72.6-34.1c-10.2-9.2-18.2-18.4-23.4-24.8c-5.2 6.4-13.2 15.6-23.4 24.8C86.6 494.2 60.7 512 32 512l0-16c22.5 0 44.6-14.2 61.8-29.9c8.5-7.7 15.4-15.4 20.2-21.2c4.8-5.8 9-11.8 13.3-17.9l.6-.9z"/></svg>