<svg xmlns="http://www.w3.org/2000/svg" viewBox="0 0 512 512"><!--! Font Awesome Pro 6.6.0 by @fontawesome - https://fontawesome.com License - https://fontawesome.com/license (Commercial License) Copyright 2024 Fonticons, Inc. --><path d="M179.5 86c3-30.6 28.7-54 59.5-54c35.3 0 62.9 30.4 59.5 65.5L284.5 242c-3 30.6-28.7 54-59.5 54c-35.3 0-62.9-30.4-59.5-65.5L179.5 86zM239 48c-22.5 0-41.4 17.1-43.6 39.5L181.5 232c-2.5 25.7 17.7 48 43.6 48c22.5 0 41.4-17.1 43.6-39.5L282.5 96C285 70.3 264.8 48 239 48zM110.4 53L51.1 79.3l-7.4 3.3L37.5 68l7.4-3.3 72-32 11.1 8.1-32 272-.9 8-15.9-1.6 .9-8L110.4 53zM404 32c37.1 0 66.3 31.4 63.7 68.4l-8 112.3C457.3 246.1 429.5 272 396 272c-37.1 0-66.3-31.4-63.7-68.4l8-112.3C342.7 57.9 370.5 32 404 32zM356.3 92.4l-8 112.3c-2 27.7 20 51.3 47.7 51.3c25.1 0 45.9-19.4 47.7-44.4l8-112.3c2-27.7-20-51.3-47.7-51.3c-25.1 0-45.9 19.4-47.7 44.4zm149 243.4l-496 80L6.7 400.1l496-80 2.5 15.8zm-312.1 128l-2.3-15.8 272-40 2.3 15.8-272 40z"/></svg>