<svg xmlns="http://www.w3.org/2000/svg" viewBox="0 0 640 512"><!--! Font Awesome Pro 6.6.0 by @fontawesome - https://fontawesome.com License - https://fontawesome.com/license (Commercial License) Copyright 2024 Fonticons, Inc. --><path d="M157.4 0L160 0l24 0c39.8 0 72 32.2 72 72l0 56 0 8 0 22.4c0 53.9 43.7 97.6 97.6 97.6l10.4 0c40.3 0 78.2 19 102.4 51.2l21.3 28.5c7.7 10.3 19.8 16.3 32.7 16.3c34.5 0 53.5-40.2 31.5-66.9l-46.2-56.1-4.6-5.6 5.1-5.1 32-32 4.9-4.9 5.6 4.2 49.1 36.8c31.6 23.7 50.1 60.8 50.1 100.3C648 391.9 591.9 448 522.7 448L480 448l0 56 0 8-8 0-80 0-6.2 0-1.5-6.1L369.8 448l-67.5 0-14.5 57.9-1.5 6.1-6.2 0-80 0-8 0 0-8 0-56.1c-53.4-2.5-96-46.6-96-100.7L96 280c0-13.3-10.7-24-24-24L8 256l-8 0 0-8 0-40 0-4.1 3.4-2.4 56-40 2.1-1.5 2.6 0 16 0c20.6 0 39.7 6.5 55.3 17.5l-1.5 15.9c-.1 1-.2 2.1-.3 3.1C119.3 183.8 100.6 176 80 176l-13.4 0L16 212.1 16 240l56 0c22.1 0 40 17.9 40 40l0 67.2c0 46.8 38 84.8 84.8 84.8l3.2 0 8 0 0 8 0 56 65.8 0 14.5-57.9 1.5-6.1 6.2 0 80 0 6.2 0 1.5 6.1L398.2 496l65.8 0 0-56 0-8 8 0 50.7 0C583 432 632 383 632 322.7c0-34.4-16.2-66.8-43.7-87.5l-43.5-32.6-22 22L564.3 275c30.6 37.1 4.2 93-43.9 93c-17.9 0-34.8-8.4-45.5-22.7l-21.3-28.5C432.4 288.6 399.3 272 364 272l-10.4 0C290.9 272 240 221.1 240 158.4l0-22.4 0-8 0-56c0-30.9-25.1-56-56-56l-21.4 0L112 52.1 112 80l72 0 8.8 0-.8 8.8L176.1 254.9l23.4 62.3 2.8 7.5-15 5.6-2.8-7.5-24-64-.6-1.7 .2-1.8L175.2 96 104 96l-8 0 0-8 0-40 0-4.1 3.4-2.4 56-40L157.4 0zM352 160l0 64c-5.5-.1-10.9-.9-16-2.4l0-69.6 0-8 8 0 88 0 0-27.9L381.4 80 360 80c-31.7 0-59 18.4-72 45.1l0-28.6C305.6 76.6 331.3 64 360 64l24 0 2.6 0 2.1 1.5 56 40 3.4 2.4 0 4.1 0 40 0 8-8 0-88 0z"/></svg>