<svg xmlns="http://www.w3.org/2000/svg" viewBox="0 0 576 512"><!--! Font Awesome Pro 6.6.0 by @fontawesome - https://fontawesome.com License - https://fontawesome.com/license (Commercial License) Copyright 2024 Fonticons, Inc. --><path d="M320 8l0-8L304 0l0 8 0 15.7-2.1 .6-264 72L32 97.9l0 6.1 0 272 0 8 8 0 464 0 8 0 0-8 0-128 0-6.2-6.1-1.5L320 193.8l0-57.8L320 8zM48 110.1L304 40.3l0 87.7-56 0-8 0 0 16 8 0 56 0 0 48-56 0-8 0 0 16 8 0 63 0 185 46.2L496 368 48 368l0-257.9zM128 424l0-8-16 0 0 8 0 72L8 496l-8 0 0 16 8 0 112 0 288 0 160 0 8 0 0-8 0-64 0-8-16 0 0 8 0 56-144 0 0-72 0-8-16 0 0 8 0 72-272 0 0-72z"/></svg>