<svg xmlns="http://www.w3.org/2000/svg" viewBox="0 0 576 512"><!--! Font Awesome Pro 6.6.0 by @fontawesome - https://fontawesome.com License - https://fontawesome.com/license (Commercial License) Copyright 2024 Fonticons, Inc. --><path d="M240 16l96 0 0 96-96 0 0-96zM224 0l0 16 0 96 0 16 16 0 96 0 16 0 0-16 0-96 0-16L336 0 240 0 224 0zM192 64L16 64 0 64 0 80 0 496l0 16 16 0 544 0 16 0 0-16 0-416 0-16-16 0L384 64l0 16 176 0 0 416L16 496 16 80l176 0 0-16zm48 192a48 48 0 1 1 96 0 48 48 0 1 1 -96 0zm112 0a64 64 0 1 0 -128 0 64 64 0 1 0 128 0zM214.2 368l152.9 0 21.3 64 16.9 0-26.7-80-176 0L176 432l16.9 0 21.3-64z"/></svg>