<svg xmlns="http://www.w3.org/2000/svg" viewBox="0 0 640 512"><!--! Font Awesome Pro 6.6.0 by @fontawesome - https://fontawesome.com License - https://fontawesome.com/license (Commercial License) Copyright 2024 Fonticons, Inc. --><path d="M16.2 5L9.9 0 0 12.5l6.3 5L623.8 507l6.3 5 9.9-12.5-6.3-5L16.2 5zM467.3 464l-280 0L310.8 340.5l-12.6-10L288 340.7l-86.5-86.5-10.6-8.4-4.5 4.5L80 356.7l0-198.4L64 145.6 64 464l0 16 16 0 407.5 0-20.3-16zM560 32L152.5 32l20.3 16L560 48l0 244.7L453.7 186.3l-5.7-5.7-5.7 5.7L400.7 228l12.6 10L448 203.3l112 112 0 38.4 16 12.6L576 48l0-16-16 0zM80 379.3l112-112L276.7 352l-112 112L80 464l0-84.7z"/></svg>