<svg xmlns="http://www.w3.org/2000/svg" viewBox="0 0 576 512"><!--! Font Awesome Pro 6.6.0 by @fontawesome - https://fontawesome.com License - https://fontawesome.com/license (Commercial License) Copyright 2024 Fonticons, Inc. --><path d="M32 32l8 0 144 0 8 0 0 8 0 160.7 164-95.6 12-7 0 13.9 0 84.9L532.1 105 544 98.4l0 13.6 0 144 0 64 0 152 0 8-8 0L40 480l-8 0 0-8 0-88 0-128L32 40l0-8zM48 48l0 208 0 128 0 80 480 0 0-144 0-64 0-130.4L363.9 217.5 352 224.2l0-13.6 0-84.6L188 221.6l-12 7 0-13.9L176 48 48 48z"/></svg>