<svg xmlns="http://www.w3.org/2000/svg" viewBox="0 0 320 512"><!--! Font Awesome Pro 6.6.0 by @fontawesome - https://fontawesome.com License - https://fontawesome.com/license (Commercial License) Copyright 2024 Fonticons, Inc. --><path d="M64 16l0 48 192 0 0-48L64 16zM48 64l0-48L48 0 64 0 256 0l16 0 0 16 0 48 32 0 16 0 0 16 0 416 0 16-16 0L16 512 0 512l0-16L0 80 0 64l16 0 32 0zM272 80l-16 0L64 80 48 80 16 80l0 112 288 0 0-112-32 0zM16 368l288 0 0-160L16 208l0 160zm0 16l0 112 288 0 0-112L16 384z"/></svg>