<svg xmlns="http://www.w3.org/2000/svg" viewBox="0 0 576 512"><!--! Font Awesome Pro 6.6.0 by @fontawesome - https://fontawesome.com License - https://fontawesome.com/license (Commercial License) Copyright 2024 Fonticons, Inc. --><path d="M112 464l0-416 352 0 0 416-352 0zm-16 0l-80 0L16 48l80 0 0 416zm8-432l-8 0L16 32 0 32 0 48 0 464l0 16 16 0 80 0 8 0 8 0 352 0 8 0 8 0 80 0 16 0 0-16 0-416 0-16-16 0-80 0-8 0-8 0L112 32l-8 0zM560 464l-80 0 0-416 80 0 0 416zM256 144l-8 0 0 8 0 64-64 0-8 0 0 8 0 64 0 8 8 0 64 0 0 64 0 8 8 0 64 0 8 0 0-8 0-64 64 0 8 0 0-8 0-64 0-8-8 0-64 0 0-64 0-8-8 0-64 0zm8 80l0-64 48 0 0 64 0 8 8 0 64 0 0 48-64 0-8 0 0 8 0 64-48 0 0-64 0-8-8 0-64 0 0-48 64 0 8 0 0-8z"/></svg>