<svg xmlns="http://www.w3.org/2000/svg" viewBox="0 0 512 512"><!--! Font Awesome Pro 6.6.0 by @fontawesome - https://fontawesome.com License - https://fontawesome.com/license (Commercial License) Copyright 2024 Fonticons, Inc. --><path d="M352 16l0 64-96 0 0-40 0-24 96 0zM256 96l96 0 16 0 0-16 0-64 0-16L352 0 256 0 240 0l0 16 0 40 0 24 0 16 0 48L40 144l-8 0 0 16 8 0 432 0 8 0 0-16-8 0-216 0 0-48zM80 200l0-8-16 0 0 8 0 176 0 8 8 0 112 0 16 0 112 0 16 0 112 0 8 0 0-8 0-176 0-8-16 0 0 8 0 168-104 0 0-168 0-8-16 0 0 8 0 168-112 0 0-168 0-8-16 0 0 8 0 168L80 368l0-168zM40 432l-8 0 0 16 8 0 432 0 8 0 0-16-8 0L40 432zM8 496l-8 0 0 16 8 0 496 0 8 0 0-16-8 0L8 496z"/></svg>