<svg xmlns="http://www.w3.org/2000/svg" viewBox="0 0 512 512"><!--! Font Awesome Pro 6.6.0 by @fontawesome - https://fontawesome.com License - https://fontawesome.com/license (Commercial License) Copyright 2024 Fonticons, Inc. --><path d="M264 0l0 8 0 8.2c97 4 175.4 79.9 183.3 175.8l16.7 0 8 0 0 16-8 0-16 0-16 0L80 208l-16 0-16 0-8 0 0-16 8 0 16.7 0C72.6 96.1 151 20.1 248 16.2L248 8l0-8 16 0zM80.7 192l350.6 0C423.2 102.3 347.8 32 256 32S88.8 102.3 80.7 192zM80 248l0 120 104 0 0-120 0-8 16 0 0 8 0 120 112 0 0-120 0-8 16 0 0 8 0 120 104 0 0-120 0-8 16 0 0 8 0 128 0 8-8 0-112 0-16 0-112 0-16 0L72 384l-8 0 0-8 0-128 0-8 16 0 0 8zM40 432l432 0 8 0 0 16-8 0L40 448l-8 0 0-16 8 0zM8 496l496 0 8 0 0 16-8 0L8 512l-8 0 0-16 8 0z"/></svg>