<svg xmlns="http://www.w3.org/2000/svg" viewBox="0 0 640 512"><!--! Font Awesome Pro 6.6.0 by @fontawesome - https://fontawesome.com License - https://fontawesome.com/license (Commercial License) Copyright 2024 Fonticons, Inc. --><path d="M80 48l480 0 0 304 16 0 0-304 0-16-16 0L80 32 64 32l0 16 0 304 16 0L80 48zM16 425.4L16 400l608 0 0 25.4L585.4 464 54.6 464 16 425.4zM624 384L16 384 0 384l0 16 0 32 48 48 544 0 48-48 0-32 0-16-16 0zM288 104l-8 0 0 8 0 64-64 0-8 0 0 8 0 64 0 8 8 0 64 0 0 64 0 8 8 0 64 0 8 0 0-8 0-64 64 0 8 0 0-8 0-64 0-8-8 0-64 0 0-64 0-8-8 0-64 0zm8 80l0-64 48 0 0 64 0 8 8 0 64 0 0 48-64 0-8 0 0 8 0 64-48 0 0-64 0-8-8 0-64 0 0-48 64 0 8 0 0-8z"/></svg>