<svg xmlns="http://www.w3.org/2000/svg" viewBox="0 0 640 512"><!--! Font Awesome Pro 6.6.0 by @fontawesome - https://fontawesome.com License - https://fontawesome.com/license (Commercial License) Copyright 2024 Fonticons, Inc. --><path d="M44.1 33.1L37.3 29 29 42.7l6.9 4.1 80 48 6.9 4.1L131 85.3l-6.9-4.1-80-48zm560 13.7l6.9-4.1L602.7 29l-6.9 4.1-80 48L509 85.3 517.3 99l6.9-4.1 80-48zM8 192l-8 0 0 16 8 0 80 0 8 0 0-16-8 0L8 192zm544 0l-8 0 0 16 8 0 80 0 8 0 0-16-8 0-80 0zm-88 0l0 128 16 0 0-128c0-88.4-71.6-160-160-160s-160 71.6-160 160l0 128 16 0 0-128c0-79.5 64.5-144 144-144s144 64.5 144 144zM112 464l0-96 416 0 0 96-416 0zM96 352l0 16 0 96 0 16 16 0 416 0 16 0 0-16 0-96 0-16-16 0-416 0-16 0zM320 112l0-16c-53 0-96 43-96 96l16 0c0-44.2 35.8-80 80-80z"/></svg>