<svg xmlns="http://www.w3.org/2000/svg" viewBox="0 0 576 512"><!--! Font Awesome Pro 6.6.0 by @fontawesome - https://fontawesome.com License - https://fontawesome.com/license (Commercial License) Copyright 2024 Fonticons, Inc. --><path d="M101.4 42.1L96 37.2l-5.4 4.8-80 72-5.9 5.4 10.7 11.9 5.9-5.4L88 66 88 446l-66.6-60-5.9-5.4L4.7 392.6l5.9 5.4 80 72 5.4 4.8 5.4-4.8 80-72 5.9-5.4-10.7-11.9-5.9 5.4L104 446 104 66l66.6 60 5.9 5.4 10.7-11.9-5.9-5.4-80-72zM264 88l-8 0 0 16 8 0 304 0 8 0 0-16-8 0L264 88zm-8 160l-8 0 0 16 8 0 312 0 8 0 0-16-8 0-312 0zm0 160l0 16 8 0 304 0 8 0 0-16-8 0-304 0-8 0z"/></svg>