<svg xmlns="http://www.w3.org/2000/svg" viewBox="0 0 512 512"><!--! Font Awesome Pro 6.6.0 by @fontawesome - https://fontawesome.com License - https://fontawesome.com/license (Commercial License) Copyright 2024 Fonticons, Inc. --><path d="M32 64l0 64 64 0 0-64L32 64zM16 48l16 0 64 0 16 0 0 16 0 64 0 16-16 0-64 0-16 0 0-16 0-64 0-16zM176 88l320 0 8 0 0 16-8 0-320 0-8 0 0-16 8 0zm0 160l320 0 8 0 0 16-8 0-320 0-8 0 0-16 8 0zm0 160l320 0 8 0 0 16-8 0-320 0-8 0 0-16 8 0zM96 224l-64 0 0 64 64 0 0-64zM32 208l64 0 16 0 0 16 0 64 0 16-16 0-64 0-16 0 0-16 0-64 0-16 16 0zm0 176l0 64 64 0 0-64-64 0zM16 368l16 0 64 0 16 0 0 16 0 64 0 16-16 0-64 0-16 0 0-16 0-64 0-16z"/></svg>