<svg xmlns="http://www.w3.org/2000/svg" viewBox="0 0 512 512"><!--! Font Awesome Pro 6.6.0 by @fontawesome - https://fontawesome.com License - https://fontawesome.com/license (Commercial License) Copyright 2024 Fonticons, Inc. --><path d="M72 16C41.1 16 16 41.1 16 72l0 56c0 26.5 21.5 48 48 48s48-21.5 48-48l0-48 0-8 16 0 0 8 0 48c0 18.6-7.9 35.4-20.6 47.1L146.9 208l37.1 0c0-27.8 11.6-52.8 25.5-71.9c2.1-2.9 4.3-5.6 6.5-8.3l0-7.8 0-81.2-41.3-6.9-7.9-1.3 2.6-15.8 7.9 1.3 48 8 6.7 1.1 0 6.8 0 79.3c7.4-6.5 14.5-11.5 20.4-14.4l3.6-1.8 3.6 1.8c5.9 3 13.1 7.9 20.4 14.4L280 32l0-6.8 6.7-1.1 48-8 7.9-1.3 2.6 15.8-7.9 1.3L296 38.8l0 81.2 0 7.8c2.2 2.6 4.4 5.4 6.5 8.3c14 19.1 25.5 44.1 25.5 71.9l37.1 0 39.5-32.9C391.9 163.4 384 146.6 384 128l0-48 0-8 16 0 0 8 0 48c0 26.5 21.5 48 48 48s48-21.5 48-48l0-56c0-30.9-25.1-56-56-56l-5.9 0 21.7 94.2 1.8 7.8L442 121.6l-1.8-7.8-24-104L413.9 0 424 0l16 0c39.8 0 72 32.2 72 72l0 56c0 35.3-28.7 64-64 64c-10.8 0-20.9-2.7-29.9-7.4l-45 37.5-2.2 1.9-2.9 0-40 0 0 32 54.1 0 46.3-23.2 7.2-3.6 7.2 14.3-7.2 3.6-48 24-1.7 .8-1.9 0-56 0 0 32 70.5 0L437 288.6l7.4-3 5.9 14.9-7.4 3-40 16-1.4 .6-1.5 0-72 0 0 32 24 0 2.4 0 2 1.3 24 16 6.7 4.4-8.9 13.3-6.7-4.4-22-14.7-23.4 0-19.9 74.6C332.7 450.5 352 475 352 504l0 8-8 0-176 0-8 0 0-8c0-29 19.3-53.5 45.8-61.4L185.9 368l-23.4 0-22 14.7-6.7 4.4-8.9-13.3 6.7-4.4 24-16 2-1.3 2.4 0 24 0 0-32-72 0-1.5 0-1.4-.6-40-16-7.4-3 5.9-14.9 7.4 3L113.5 304l70.5 0 0-32-56 0-1.9 0-1.7-.8-48-24-7.2-3.6 7.2-14.3 7.2 3.6L129.9 256l54.1 0 0-32-40 0-2.9 0-2.2-1.9-45-37.5C84.9 189.3 74.8 192 64 192c-35.3 0-64-28.7-64-64L0 72C0 32.2 32.2 0 72 0L88 0 98.1 0 95.8 9.8l-24 104L70 121.6 54.4 118l1.8-7.8L77.9 16 72 16zM200 256l0 16 0 25.8 56 14 56-14 0-25.8 0-16 0-48c0-23.4-9.8-45.1-22.5-62.5c-11.2-15.4-24.3-26.7-33.5-32.4c-9.3 5.7-22.3 17-33.5 32.4C209.8 162.9 200 184.6 200 208l0 48zm0 58.2l0 5.8 0 25.8 56 14 56-14 0-25.8 0-5.8-54.1 13.5-1.9 .5-1.9-.5L200 314.2zm9.4 80.1L256 407.7l46.6-13.3 8.5-31.9-53.1 13.3-1.9 .5-1.9-.5-53.1-13.3 8.5 31.9zm4.8 18l9.1 34.2 2.3 8.6-8.9 1.3c-20.5 3.1-36.7 19.1-40.2 39.5l158.7 0c-3.4-20.4-19.7-36.4-40.2-39.5l-8.9-1.3 2.3-8.6 9.1-34.2-39.6 11.3-2.2 .6-2.2-.6-39.6-11.3z"/></svg>