<svg xmlns="http://www.w3.org/2000/svg" viewBox="0 0 512 512"><!--! Font Awesome Pro 6.6.0 by @fontawesome - https://fontawesome.com License - https://fontawesome.com/license (Commercial License) Copyright 2024 Fonticons, Inc. --><path d="M160 416l-16 0L16 416 0 416l0-16L0 16 0 0 16 0 496 0l16 0 0 16 0 384 0 16-16 0-192 0L176 501.3 160 512l0-19.2 0-60.8 0-16zm0-16l16 0 0 16 0 66.1 119.1-79.4 4-2.7 4.8 0 192 0 0-384L16 16l0 384 144 0zm64-272l-80 0 0 80 80 0 0-32 0-8 0-40zm-80 96l-16 0 0-16 0-80 0-16 16 0 80 0 16 0 0 16 0 40 0 8 0 32 0 16 0 48 0 5.5-5.2 1.9-64 24-7.5 2.8-5.6-15 7.5-2.8L224 266.5l0-42.5-80 0zm224-96l-80 0 0 80 80 0 0-32 0-8 0-40zm-80 96l-16 0 0-16 0-80 0-16 16 0 80 0 16 0 0 16 0 40 0 8 0 32 0 16 0 48 0 5.5-5.2 1.9-64 24-7.5 2.8-5.6-15 7.5-2.8L368 266.5l0-42.5-80 0z"/></svg>