<svg xmlns="http://www.w3.org/2000/svg" viewBox="0 0 512 512"><!--! Font Awesome Pro 6.6.0 by @fontawesome - https://fontawesome.com License - https://fontawesome.com/license (Commercial License) Copyright 2024 Fonticons, Inc. --><path d="M468.9 212.9l5.7-5.7 2.3-2.3c46.9-46.9 46.9-122.8 0-169.7S354-11.7 307.1 35.1l-2.3 2.3-5.7 5.7-5.7 5.7L283.1 59.1c-21.7 21.7-33.4 49.7-35 78.1l-2.5 3L0 432l80 80L248 370.5 248 504l0 8 16 0 0-8 0-144c0-.9-.2-1.8-.4-2.6l108.1-91.1 3-2.5c28.4-1.6 56.4-13.2 78.1-35l10.3-10.3 5.7-5.7zM267.4 139.4l-3.1-3.1c1.8-24 11.8-47.5 30.2-65.8l10.3-10.3L451.9 207.2l-10.3 10.3c-18.3 18.3-41.8 28.4-65.8 30.2l-3.1-3.1L267.4 139.4zm51.1-92.9c40.6-40.6 106.5-40.6 147.1 0s40.6 106.5 0 147.1l-2.3 2.3L316.1 48.8l2.3-2.3zM360.4 255L80.9 490.3 21.7 431.1 257 151.6 360.4 255z"/></svg>