<svg xmlns="http://www.w3.org/2000/svg" viewBox="0 0 640 512"><!--! Font Awesome Pro 6.6.0 by @fontawesome - https://fontawesome.com License - https://fontawesome.com/license (Commercial License) Copyright 2024 Fonticons, Inc. --><path d="M0 0L8 0 632 0l8 0 0 8 0 144 0 8-16 0 0-8 0-136L16 16l0 136 0 8L0 160l0-8L0 8 0 0zM512 80l0 8 0 416 0 8-8 0-368 0-8 0 0-8 0-416 0-8 16 0 0 8 0 408 352 0 0-408 0-8 16 0zM320 200c-50 0-88 33.5-88 72s38 72 88 72s88-33.5 88-72s-38-72-88-72zm104 72c0 49.9-48 88-104 88s-104-38.1-104-88s48-88 104-88s104 38.1 104 88zm48 120c0 4.4-3.6 8-8 8l-8 0c-30.9 0-56 25.1-56 56l0 8c0 4.4-3.6 8-8 8s-8-3.6-8-8l0-8c0-39.8 32.2-72 72-72l8 0c4.4 0 8 3.6 8 8zm-296-8l8 0c39.8 0 72 32.2 72 72l0 8c0 4.4-3.6 8-8 8s-8-3.6-8-8l0-8c0-30.9-25.1-56-56-56l-8 0c-4.4 0-8-3.6-8-8s3.6-8 8-8z"/></svg>