<svg xmlns="http://www.w3.org/2000/svg" viewBox="0 0 640 512"><!--! Font Awesome Pro 6.6.0 by @fontawesome - https://fontawesome.com License - https://fontawesome.com/license (Commercial License) Copyright 2024 Fonticons, Inc. --><path d="M624 48l0 320-512 0 0-320 512 0zM112 32L96 32l0 16 0 320 0 16 16 0 512 0 16 0 0-16 0-320 0-16-16 0L112 32zM64 128l-48 0L0 128l0 16L0 464l0 16 16 0 512 0 16 0 0-16 0-48-16 0 0 48L16 464l0-320 48 0 0-16zm224 80a80 80 0 1 1 160 0 80 80 0 1 1 -160 0zm176 0a96 96 0 1 0 -192 0 96 96 0 1 0 192 0z"/></svg>