<svg xmlns="http://www.w3.org/2000/svg" viewBox="0 0 576 512"><!--! Font Awesome Pro 6.6.0 by @fontawesome - https://fontawesome.com License - https://fontawesome.com/license (Commercial License) Copyright 2024 Fonticons, Inc. --><path d="M16 80l0 352 544 0 0-352L16 80zM0 64l16 0 544 0 16 0 0 16 0 352 0 16-16 0L16 448 0 448l0-16L0 80 0 64zM256 240l0 16L96 256l0-16 160 0zM96 336l384 0 0 16L96 352l0-16zM336 176l0 80 128 0 0-80-128 0zm-16-16l16 0 128 0 16 0 0 16 0 80 0 16-16 0-128 0-16 0 0-16 0-80 0-16z"/></svg>