<svg xmlns="http://www.w3.org/2000/svg" viewBox="0 0 640 512"><!--! Font Awesome Pro 6.6.0 by @fontawesome - https://fontawesome.com License - https://fontawesome.com/license (Commercial License) Copyright 2024 Fonticons, Inc. --><path d="M288 0l8 0L504 0l8 0 0 8 0 184 48 0 0-88 0-8 16 0 0 8 0 88 56 0 8 0 0 8 0 296 0 8-16 0 0-8 0-288-48 0-16 0-56 0-8 0 0-8 0-184L304 16l0 154-16-25.6L288 8l0-8zm72 72l8 0 64 0 8 0 0 8 0 64 0 8-8 0-64 0-8 0 0-8 0-64 0-8zm16 16l0 48 48 0 0-48-48 0zm8 112l48 0 8 0 0 8 0 48 0 8-16 0 0-8 0-40-40 0-8 0 0-16 8 0zm104 64l8 0 64 0 8 0 0 8 0 64 0 8-8 0-64 0-8 0 0-8 0-64 0-8zm16 64l48 0 0-48-48 0 0 48zm-8 64l64 0 8 0 0 8 0 64 0 8-8 0-64 0-8 0 0-8 0-64 0-8 8 0zm8 64l48 0 0-48-48 0 0 48zm-34 40l10 16-18.9 0L18.9 512 0 512l10-16L230.6 143.1 240 128l9.4 15.1L470 496zM341.1 320l-98.4 0-44.6 53.1-6 7.2-6.1-7-46.9-53.6L28.9 496l422.3 0-110-176zm-10-16L240 158.2 147.9 305.5l43.9 50.2 41-48.8 2.4-2.9 3.7 0 92.1 0z"/></svg>