<svg xmlns="http://www.w3.org/2000/svg" viewBox="0 0 640 512"><!--! Font Awesome Pro 6.6.0 by @fontawesome - https://fontawesome.com License - https://fontawesome.com/license (Commercial License) Copyright 2024 Fonticons, Inc. --><path d="M512 160l0-143.4L512 0 496 4.4 336 48l0 80 0 48.9L365.3 200 512 160zM336 360.4l0 30.4c-19.6-23.2-55.3-38.8-96-38.8c-61.9 0-112 35.8-112 80s50.1 80 112 80s112-35.8 112-80l0-59-16-12.6zM352 128l0-67.8L496 20.9l0 126.8L352 187.1l0-59.1zM309.9 388.5c17.3 12.3 26.1 28 26.1 43.5s-8.8 31.2-26.1 43.5C292.6 487.9 268 496 240 496s-52.6-8.1-69.9-20.5c-17.3-12.3-26.1-28-26.1-43.5s8.8-31.2 26.1-43.5C187.4 376.1 212 368 240 368s52.6 8.1 69.9 20.5zM16.2 5L9.9 0 0 12.5l6.3 5L623.8 507l6.3 5 9.9-12.5-6.3-5L16.2 5z"/></svg>