<svg xmlns="http://www.w3.org/2000/svg" viewBox="0 0 512 512"><!--! Font Awesome Pro 6.6.0 by @fontawesome - https://fontawesome.com License - https://fontawesome.com/license (Commercial License) Copyright 2024 Fonticons, Inc. --><path d="M264 64l0-64L248 0l0 64L48 64 32 64l0 16 0 128 0 16 16 0 200 0 0 64-136 0-16 0 0 16 0 128 0 16 16 0 136 0 0 64 16 0 0-64 136 0 16 0 0-16 0-128 0-16-16 0-136 0 0-64 200 0 16 0 0-16 0-128 0-16-16 0L264 64zm0 240l136 0 0 128-136 0-16 0-136 0 0-128 136 0 16 0zm200-96l-200 0-16 0L48 208 48 80l416 0 0 128z"/></svg>