<svg xmlns="http://www.w3.org/2000/svg" viewBox="0 0 448 512"><!--! Font Awesome Pro 6.6.0 by @fontawesome - https://fontawesome.com License - https://fontawesome.com/license (Commercial License) Copyright 2024 Fonticons, Inc. --><path d="M228.2 66.2c-2.2 15.8-5.2 38.1-8.2 64.4c-6 52.7-11.9 121-11.9 183.9c0 40.9 9.7 75.3 19.4 99.4c4.9 12 9.7 21.5 13.3 27.9c1.1 2 2.2 3.8 3 5.2c21-1.8 41.8-5.8 61.3-11.9c.7-.7 1.4-1.6 2.2-2.4c5.3-6.1 12.5-15 19.7-26.3c14.3-22.7 28.4-54.5 28.4-91.8c0-48.6-18.3-106.1-37.1-151.9c-9.3-22.8-18.7-42.5-25.7-56.5c-2.6-5.2-4.9-9.7-6.7-13.2c-18.5-20.2-32.8-44.2-36.8-75.3L238.3 39.2l-8.8 17.5c-.4 2.8-.9 6-1.4 9.5zm104.9 90.4c18.9 46.3 38.3 106.1 38.3 158c0 41.4-15.6 76.2-30.9 100.4c-2 3.1-4 6.1-5.9 8.8c12.1-5.6 23.5-12.1 33.9-19.4C407.1 377 432 337.9 432 288c0-71.9-40.3-107.7-85.9-143.4c-2.8-2.2-5.7-4.4-8.6-6.7c0 0 0 0 0 0c0 0 0 0 0 0s0 0 0 0c-6.3-4.9-12.7-9.9-19.1-15c4.7 10.1 9.7 21.4 14.7 33.7zM212.6 419.9C202.3 394.4 192 358 192 314.6c0-63.9 6-132.8 12.1-185.7c3-26.5 6-49 8.3-64.9c.9-6 1.6-11.1 2.2-15.1l-4.8-9.7L198.9 17.6c-4 31.1-18.3 55-36.7 75.2c-1.7 3.3-3.9 7.5-6.3 12.5c-6.7 13.5-15.6 32.5-24.5 54.5C113.5 204 96 259.3 96 306.2c0 43.3 15.3 77.1 30.7 100.2c7.7 11.5 15.4 20.4 21.1 26.3c2.1 2.2 4 4 5.5 5.4c22.7 6.2 46.7 9.5 70.8 9.9l1.8 0c-3.8-6.8-8.5-16.3-13.2-28.1zm-99.2-4.6C96.7 390.3 80 353.5 80 306.2c0-50.1 18.5-107.9 36.6-152.5c4.6-11.3 9.1-21.8 13.4-31.2c-6.5 5.3-13.1 10.4-19.6 15.4c-2.9 2.2-5.8 4.5-8.6 6.7C56.3 180.3 16 216.1 16 288c0 49.9 24.9 89 63.5 116.3c12.9 9.1 27.2 16.9 42.6 23.2c-2.9-3.7-5.8-7.8-8.8-12.2zm35.4 38.1C67 431.2 0 374.4 0 288c0-84.5 51.3-124.3 99.7-162C143 92.3 184 60.4 184 0l16 0 8 0 7.1 14.1L224 32l8.9-17.9L240 0l8 0 16 0c0 60.4 41 92.3 84.3 126c48.4 37.7 99.7 77.5 99.7 162c0 86.4-67 143.2-148.7 165.5l20 44 3.3 7.3L308 511.4l-3.3-7.3-21.3-46.8c-16.8 3.6-34.1 5.8-51.4 6.5l0 40.2 0 8-16 0 0-8 0-40.2c-17.3-.7-34.6-2.9-51.4-6.5l-21.3 46.8-3.3 7.3-14.6-6.6 3.3-7.3 20-44z"/></svg>