<svg xmlns="http://www.w3.org/2000/svg" viewBox="0 0 640 512"><!--! Font Awesome Pro 6.6.0 by @fontawesome - https://fontawesome.com License - https://fontawesome.com/license (Commercial License) Copyright 2024 Fonticons, Inc. --><path d="M8 352l-8 0 0 16 8 0 72 0 0 128L8 496l-8 0 0 16 8 0 72 0 8 0 8 0 216 0 8 0 8 0 216 0 8 0 8 0 72 0 8 0 0-16-8 0-72 0 0-128 72 0 8 0 0-16-8 0-72 0-8 0-8 0-216 0-8 0-8 0L96 352l-8 0-8 0L8 352zm88 16l216 0 0 128L96 496l0-128zm232 0l216 0 0 128-216 0 0-128z"/></svg>