<svg xmlns="http://www.w3.org/2000/svg" viewBox="0 0 640 512"><!--! Font Awesome Pro 6.6.0 by @fontawesome - https://fontawesome.com License - https://fontawesome.com/license (Commercial License) Copyright 2024 Fonticons, Inc. --><path d="M432 48L16 48l0 416 308.1 0c4 5.6 8.3 10.9 12.9 16L16 480 0 480l0-16L0 48 0 32l16 0 416 0 16 0 0 16 0 74.1-16 10L432 48zm-48 64l0 56.8c-5.3 4.8-10.7 9.9-16 15.3l0-72.1L80 112l0 80 280.5 0c-4.8 5.1-9.4 10.5-14 16L80 208l-16 0 0-16 0-80 0-16 16 0 288 0 16 0 0 16zM120 256l0 24-24 0 0-24 24 0zm40 0l24 0 0 24-24 0 0-24zm88 0l0 24-24 0 0-24 24 0zm252.7-43.2L512 224.2l11.3-11.3L544 192.2c76.8 64 96 133.3 96 160c0 88.4-71.6 160-160 160s-160-71.6-160-160c0-89.6 85.3-165.3 128-192l52.7 52.7zM576 422.6c0 18.2-5.8 35.1-15.7 49.2C598.7 445.9 624 402 624 352.2c0-20.2-14.9-79.7-79.2-138.1l-21.4 21.4L512 246.8l-11.3-11.3L446 180.7c-19.3 13.6-44.2 35.1-65.4 61.8C355 274.5 336 312.4 336 352.2c0 49.8 25.3 93.7 63.7 119.6c-9.9-14.1-15.7-31-15.7-49.2c0-70.4 96-134.4 96-134.4s96 64 96 134.4zm-96 73.6c45.2 0 80-34 80-73.6c0-28.5-20-58.2-43.5-82.5c-11.4-11.8-22.8-21.5-31.4-28.3c-1.8-1.5-3.5-2.8-5.1-3.9c-1.5 1.2-3.2 2.5-5.1 3.9c-8.6 6.8-20 16.5-31.4 28.3C420 364.4 400 394 400 422.6c0 39.6 34.8 73.6 80 73.6z"/></svg>