<svg xmlns="http://www.w3.org/2000/svg" viewBox="0 0 512 512"><!--! Font Awesome Pro 6.6.0 by @fontawesome - https://fontawesome.com License - https://fontawesome.com/license (Commercial License) Copyright 2024 Fonticons, Inc. --><path d="M416 16C195.1 16 16 195.1 16 416l0 80 80 0c220.9 0 400-179.1 400-400l0-80-80 0zm0-16l80 0 16 0 0 16 0 80c0 229.8-186.2 416-416 416l-80 0L0 512l0-16 0-80C0 186.2 186.2 0 416 0zM304 144a64 64 0 1 1 128 0 64 64 0 1 1 -128 0zm64 48a48 48 0 1 0 0-96 48 48 0 1 0 0 96zm-112 0a64 64 0 1 1 0 128 64 64 0 1 1 0-128zm48 64a48 48 0 1 0 -96 0 48 48 0 1 0 96 0zM144 304a64 64 0 1 1 0 128 64 64 0 1 1 0-128zm48 64a48 48 0 1 0 -96 0 48 48 0 1 0 96 0z"/></svg>