<svg xmlns="http://www.w3.org/2000/svg" viewBox="0 0 576 512"><!--! Font Awesome Pro 6.6.0 by @fontawesome - https://fontawesome.com License - https://fontawesome.com/license (Commercial License) Copyright 2024 Fonticons, Inc. --><path d="M448 16c-66.3 0-120 53.7-120 120l0 8-8 0-8 0-2 0-1.8-1L144.3 53.6c3.3 81 36.4 127.1 68.7 153.1c17.2 13.9 34.4 22.2 47.3 27.1c6.4 2.4 11.8 4 15.5 5c1.8 .5 3.3 .8 4.2 1c.5 .1 .8 .2 1 .2l.2 0s0 0 0 0s0 0 0 0s0 0 0 0s0 0 0 0l7.9 1.3-2.6 15.8-7.9-1.3L280 248c-1.3 7.9-1.3 7.9-1.3 7.9s0 0 0 0s0 0 0 0l-.1 0-.4-.1c-.3-.1-.8-.2-1.4-.3c-1.2-.2-2.8-.6-4.9-1.2c-4.2-1.1-10.1-2.8-17.2-5.5c-14.1-5.4-32.9-14.5-51.7-29.6c-21-16.9-41.7-41-56-75.2c-2.1-5.1-4.1-10.4-6-16c-8.1-24.5-13-53.6-13-88l0-13.5L139.8 33 312.3 127C316.9 56.1 375.9 0 448 0l8 0 16 0 48 0 4.3 0L552 0l8 0 0 16-8 0-17.1 0 29 43.6 1.1 1.7 .2 2 10.7 112 .5 5.5-4.9 2.5-80 40-7.2 3.6-3.6-7.2L451.1 160l-3.1 0 0 79.5 0 .5 0 9.1-.5-.1c-2.4 25.2-14.2 47.2-31.5 63L416 504l0 8-8 0-88 0-8 0 0-8 0-171.9L208 309.3l0 34.7 0 9.9 0 1.6-.6 1.5-3.9 9.1L187.2 404l27.2 97.9 2.8 10.1-10.5 0-99.6 0-6.1 0-1.6-5.9L74 415l-4.5-16.3-.8-2.7 1.1-2.6 6.6-15.5L96 332.5l0-16.4L63.4 244.4c-4.9-10.7-7.4-22.3-7.4-34.1c0-12.2 2.7-23.9 7.5-34.3C37.2 176.3 16 197.7 16 224l0 88 0 8L0 320l0-8 0-88c0-35.3 28.7-64 64-64l8 0 1.2 0c9.2-11.9 21.6-21.2 36-26.7c1.6 5.2 3.3 10.3 5.2 15.1C89.6 158.1 72 182.1 72 210.3c0 9.5 2 18.8 5.9 27.4l33.3 73.3 .7 1.6 0 1.7 0 19.8 0 1.6-.6 1.5L91.2 384.2l-5.5 12.9 3.8 13.5L113.2 496l83 0-25.1-90.5-.8-2.7 1.1-2.6 17.4-40.5 3.2-7.5 0-8.2 0-40 0-4.7 0-9.9 9.7 2.1 120 26.3 6.3 1.4 0 6.4L328 496l72 0 0-187.5 0-3.7 2.8-2.4c17.6-14.9 29-37.1 29.2-62.5l0-.3 0-.2 0-87.5 0-8 8 0 16 0 4.9 0 2.2 4.4 28.4 56.8 67.9-34-10-104.5L515.7 16 472 16l-16 0-8 0zm48 48a16 16 0 1 1 0 32 16 16 0 1 1 0-32z"/></svg>