<svg xmlns="http://www.w3.org/2000/svg" viewBox="0 0 512 512"><!--! Font Awesome Pro 6.6.0 by @fontawesome - https://fontawesome.com License - https://fontawesome.com/license (Commercial License) Copyright 2024 Fonticons, Inc. --><path d="M139.3 11.3L128 0 116.7 11.3 11.3 116.7 0 128l11.3 11.3 98.1 98.1 11.3-11.3L22.6 128 128 22.6l47 47-44.7 44.7-5.7 5.7L136 131.3l5.7-5.7L186.3 81l39.7 39.7 11.3-11.3L139.3 11.3zM372.7 500.7L384 512l11.3-11.3L500.7 395.3 512 384l-11.3-11.3-98.1-98.1-11.3 11.3L431 325.7l-44.7 44.7-5.7 5.7L392 387.3l5.7-5.7L442.3 337l47 47L384 489.4l-98.1-98.1-11.3 11.3 98.1 98.1zM4.4 494.4L0 512l17.6-4.4L160 472 500.7 131.3 512 120l-11.3-11.3L403.3 11.3 392 0 380.7 11.3 40 352 4.4 494.4zM22 490L54.4 360.2 313.7 101 411 198.3 151.8 457.6 22 490zM489.4 120l-67 67L325 89.7l67-67L489.4 120z"/></svg>