<svg xmlns="http://www.w3.org/2000/svg" viewBox="0 0 512 512"><!--! Font Awesome Pro 6.6.0 by @fontawesome - https://fontawesome.com License - https://fontawesome.com/license (Commercial License) Copyright 2024 Fonticons, Inc. --><path d="M128 16a48 48 0 1 1 0 96 48 48 0 1 1 0-96zm0 112A64 64 0 1 0 128 0a64 64 0 1 0 0 128zM47.3 176l161.3 0 6.7 160L192 336l-48 0-32 0-48 0-23.3 0 6.7-160zM120 352l16 0 0 152 0 8 8 0 48 0 8 0 0-8 0-152 16 0 16 0-.7-16L224 160 32 160 24.7 336 24 352l16 0 16 0 0 152 0 8 8 0 48 0 8 0 0-8 0-152zm64 144l-32 0 0-144 32 0 0 144zM104 352l0 144-32 0 0-144 32 0zM384 16a48 48 0 1 1 0 96 48 48 0 1 1 0-96zm0 112A64 64 0 1 0 384 0a64 64 0 1 0 0 128zm-80.7 48l161.3 0 6.7 160L448 336l-48 0-32 0-48 0-23.3 0 6.7-160zM376 352l16 0 0 152 0 8 8 0 48 0 8 0 0-8 0-152 16 0 16 0-.7-16L480 160l-192 0-7.3 176-.7 16 16 0 16 0 0 152 0 8 8 0 48 0 8 0 0-8 0-152zm64 144l-32 0 0-144 32 0 0 144zM360 352l0 144-32 0 0-144 32 0z"/></svg>