<svg xmlns="http://www.w3.org/2000/svg" viewBox="0 0 512 512"><!--! Font Awesome Pro 6.6.0 by @fontawesome - https://fontawesome.com License - https://fontawesome.com/license (Commercial License) Copyright 2024 Fonticons, Inc. --><path d="M214.1 6.3L208.9 .2 196.7 10.7l5.2 6.1s0 0 0 0s0 0 0 0s0 0 0 0l.1 .1 .4 .4c.3 .4 .8 1 1.4 1.8c1.2 1.6 3 3.9 5.2 6.9c4.3 6 10.2 14.8 16 25.4c9.6 17.5 18.9 39.9 22 63.9c-21.3-17-50.1-23.9-78.3-16.1c-10.6 2.9-20.2 7.7-28.6 13.8C120 98.4 94 92.2 68 98.3C20.7 109.3-8.7 156.7 2.3 204l56 240c11 47.3 58.4 76.7 105.7 65.7c13.7-3.2 25.9-9.4 36-17.8c9.5 7.8 20.7 13.8 33.3 17.1c28.5 7.6 57.5 .3 78.7-17.1c10.1 8.4 22.3 14.6 36 17.8c47.3 11 94.6-18.4 105.7-65.7l56-240c11-47.3-18.4-94.7-65.7-105.7c-26-6.1-52 .1-72 14.7c-8.6-6.3-18.5-11.1-29.3-14c-28.9-7.7-58.2-.1-79.5 17.8c-2.9-28.2-13.7-53.8-24.2-73.1c-6.2-11.3-12.4-20.6-17-27.1c-2.3-3.2-4.3-5.8-5.7-7.5c-.7-.9-1.2-1.5-1.6-2l-.4-.5-.1-.1c0 0 0 0 0 0c0 0 0 0 0 0s0 0 0 0L208 11.5l6.1-5.2zm49.3 133.2l.6 0 0-.8c17.3-21.4 46.2-31.8 74.5-24.3c10.8 2.9 20.3 8 28.3 14.8l5.2 4.4 5.2-4.4c16.8-14.4 40-20.8 63.2-15.4c38.7 9 62.8 47.8 53.8 86.5l-56 240c-9 38.7-47.8 62.8-86.5 53.8c-13.3-3.1-24.9-9.7-34-18.7l-5.6-5.5-5.6 5.5c-17.6 17.2-43.5 24.9-69 18.1c-12.5-3.3-23.3-9.7-31.8-18.1l-5.6-5.5-5.6 5.5c-9.1 8.9-20.7 15.6-34 18.7c-38.7 9-77.4-15-86.5-53.8l-56-240c-9-38.7 15-77.4 53.8-86.5c20.1-4.7 40.1-.5 56 10C108 145 99.1 175.3 106.6 205.3l37.6 150.4 1.9 7.8 15.5-3.9-1.9-7.8L122.2 201.5c-7.5-29.9 4.9-60.1 28.9-76.7c0 0 0 0 0 0c6.5-4.5 13.8-7.9 21.8-10.2c28.5-7.9 57.7 2.5 75.1 24.1l0 .8 .6 0c.3 .4 .6 .8 1 1.2l6.4 8.5 6.4-8.5c.3-.4 .6-.8 1-1.2z"/></svg>