<svg xmlns="http://www.w3.org/2000/svg" viewBox="0 0 512 512"><!--! Font Awesome Pro 6.6.0 by @fontawesome - https://fontawesome.com License - https://fontawesome.com/license (Commercial License) Copyright 2024 Fonticons, Inc. --><path d="M80 80a32 32 0 1 0 0-64 32 32 0 1 0 0 64zM80 0a48 48 0 1 1 0 96A48 48 0 1 1 80 0zm37.4 273.7l-5.4-8.1-16-24 0 28.8 0 36.2 54.6 54.6 7.3 7.3 1.7 10.1 8 48 4 24 4 24s0 0 0 0l3.5 21.3 .5 2.7 2.2 13.3-16.2 0-48.7 0-.5-2.7-4-24s0 0 0 0l-4-24-4-24-6.3-37.9L41.4 342.6 18.7 320C6.7 308 0 291.7 0 274.7L0 160l0-16 0-16 16 0 16 0 48 0 17.1 0 9.5 14.3L161.1 224l53.6 0-14.5-62.2-1.8-7.8 15.6-3.6 1.8 7.8 53.3 228.6c6-1.8 12.3-2.8 18.9-2.8c31.3 0 57.4 22.5 62.9 52.2l151.2-36 3.7 15.6-154 36.7c-2.3 33.3-30 59.5-63.8 59.5c-35.3 0-64-28.7-64-64c0-23 12.1-43.1 30.3-54.4L229.7 288l-5.7 0-80 0-17.1 0-9.5-14.3zM161.1 240l-8.6 0-4.8-7.1L93.3 151.1 88.6 144 80 144l-48 0-16 0 0 16 0 114.7c0 12.7 5.1 24.9 14.1 33.9l22.6 22.6 56.8 56.7 3.6 3.6 .8 5.1 6.3 37.9 4 24 4 24s0 0 0 0s0 0 0 0s0 0 0 0l2.2 13.4 32.4 0-3.1-18.6s0 0 0 0s0 0 0 0s0 0 0 0l-4-24-4-24-8-48-.8-5.1-3.6-3.6L84.7 318.1 80 313.4l0-6.6 0-65.1 0-52.8 29.3 44 21.4 32.1 4.7 7.1 8.6 0 80 0 1.9 0-7.5-32-57.3 0zM0 480L0 346.5l16 16L16 480l0 16 32 0 0-16 0-85.5 16 16 0 37.4L64 480l0 16 0 16-16 0-32 0L0 512l0-16 0-16zm336-32a48 48 0 1 0 -96 0 48 48 0 1 0 96 0zM480 345.6l-15.5 3.9L341.9 380.1 326.4 384l-3.9-15.5L291.9 245.9 288 230.4l15.5-3.9 122.6-30.6 15.5-3.9 3.9 15.5 30.6 122.6 3.9 15.5zm-142 19L460.6 334 430 211.4 307.4 242 338 364.6z"/></svg>