<svg xmlns="http://www.w3.org/2000/svg" viewBox="0 0 512 512"><!--! Font Awesome Pro 6.6.0 by @fontawesome - https://fontawesome.com License - https://fontawesome.com/license (Commercial License) Copyright 2024 Fonticons, Inc. --><path d="M294.4 307.2L240 234.7l-16-21.3 0 26.7 0 48 0 18.7 54.6 54.6 9.4 9.4 0 13.3 0 96 0 16 0 16-16 0-32 0-16 0 0-16 0-16 0-82.7L146.7 320c-12-12-18.7-28.3-18.7-45.3l0-7.4 0-35.8-16 32L92.6 302.3l-7.2 14.3-7.2 14.3L64 323.8 35.4 309.5l-14.3-7.2L28.2 288l7.2-14.3 64-128 8.8-17.7 19.8 0s0 0 0 0l32 0 64 0 16 0 9.6 12.8 96 128 9.6 12.8 9.6 12.8L352 304l-25.6 19.2-12.8 9.6L304 320l-9.6-12.8zm-27.1 65.5l-54.6-54.6-4.7-4.7 0-6.6 0-18.7 0-74.7 0-37.3 8 0 20.8 27.7 70.4 93.9 9.6 12.8 25.6-19.2-9.6-12.8-96-128L232 144l-8 0-64 0-32 0s0 0 0 0l-9.9 0-4.4 8.8-64 128-7.2 14.3 17 8.5 11.6 5.8 7.2-14.3 35.4-70.8L137.9 176l6.1 0 0 55.6 0 43.2c0 12.7 5.1 24.9 14.1 33.9l77.3 77.3 4.7 4.7 0 6.6 0 82.7 0 16 32 0 0-16 0-96 0-6.6-4.7-4.7zM208 48a32 32 0 1 0 -64 0 32 32 0 1 0 64 0zM176 0a48 48 0 1 1 0 96 48 48 0 1 1 0-96zM121 376.2l7.4-29.4L141.5 360l-5 20.1-12 48-6 24-6 24-5 19.9 33 0 3-12.1 6-24 6-24 12-48 .4-1.5 13.2 13.2-10 40.2-6 24-6 24-6 24-.1 .2-66 0L91 496.2l.1-.2L97 472.2l6-24 6-24 12-48zM462.1 503.9L350.4 345.2l12.8-9.6 112 159.1 4.6 6.5-13.1 9.2-4.6-6.5z"/></svg>