<svg xmlns="http://www.w3.org/2000/svg" viewBox="0 0 576 512"><!--! Font Awesome Pro 6.6.0 by @fontawesome - https://fontawesome.com License - https://fontawesome.com/license (Commercial License) Copyright 2024 Fonticons, Inc. --><path d="M232 56a40 40 0 1 0 -80 0 40 40 0 1 0 80 0zm-96 0a56 56 0 1 1 112 0A56 56 0 1 1 136 56zM104 248l0 248 32 0 0-152 0-8 8 0 32 0 8 0 0 8 0 152 32 0 0-248 0-8 16 0 0 8 0 256 0 8-8 0-48 0-8 0 0-8 0-152-16 0 0 152 0 8-8 0-48 0-8 0 0-8 0-256 0-8 16 0 0 8zM95.9 128l5 0 118.2 0 4.3 0 2.4 3.6 100.9 152 4.4 6.7-13.3 8.9-4.4-6.7L214.8 144l-108.8 0L23.2 315.5l-3.5 7.2-14.4-7 3.5-7.2 84.9-176 2.2-4.5zM463.4 492.7l-42.7-42.7L408.8 438l-7.5 15.1-14 27.9-7.2 14.3-7.2 14.3-14.3-7.2L330 488.2 315.7 481l7.2-14.3 7.2-14.3 41.4-82.7 51.2-8.3L448 386.7l16 16 0-22.6 0-44.1 0-13.3 9.4-9.4 16-16 9.4-9.4 13.3 0 32 0 16 0 16 0 0 16 0 16 0 126.1c0 36.4-29.5 65.9-65.9 65.9c-17.5 0-34.3-6.9-46.6-19.3zm-90.5-18.8l21.5-43 9.9-19.9 15.7 15.7 54.7 54.7c9.4 9.4 22.1 14.6 35.3 14.6c27.6 0 49.9-22.4 49.9-49.9L560 320l0-16-16 0-32 0-6.6 0-4.7 4.7-16 16-4.7 4.7 0 6.6 0 66.7 0 38.6-27.3-27.3-35.6-35.6L382 384.2l-37.7 75.4-7.2 14.3 28.6 14.3 7.2-14.3zM464 240a32 32 0 1 0 -64 0 32 32 0 1 0 64 0zm-32-48a48 48 0 1 1 0 96 48 48 0 1 1 0-96zM296 40l8 0 56 0 8 0 0 16-8 0-56 0-8 0 0-16zm-12.4 64.8l48 24 7.2 3.6-7.2 14.3-7.2-3.6-48-24-7.2-3.6 7.2-14.3 7.2 3.6z"/></svg>