<svg xmlns="http://www.w3.org/2000/svg" viewBox="0 0 576 512"><!--! Font Awesome Pro 6.6.0 by @fontawesome - https://fontawesome.com License - https://fontawesome.com/license (Commercial License) Copyright 2024 Fonticons, Inc. --><path d="M224 0l8 0 46.1 0L288 0 568 0l8 0 0 8 0 432 0 8 0 56c0 4.4-3.6 8-8 8s-8-3.6-8-8l0-56-248 0-8 0 0-8 0-72 0-1.2 .4-1.1 31.4-102L281.6 16 240 16l0 176-16 0L224 8l0-8zm73.9 16l53.9 246.3 .5 2.1-.6 2L320 369.2l0 62.8 240 0 0-416L297.9 16zM240 320l0 184c0 4.4-3.6 8-8 8s-8-3.6-8-8l0-184 16 0zm-82.7-96l66.7 0 16 0 16 0 0 16 0 32 0 16-16 0-16 0-80 0-13.3 0-2.7-2.7-6.6-6.6-9.4-9.4 0 18.7 0 3.9 0 49.4 41.6 55.5 6.4 8.5 0 10.7 0 64 0 16 0 16-16 0-32 0-16 0 0-16 0-16 0-53.3L80 405.3 64 384l0 26.7L64 480l0 16 0 16-16 0-32 0L0 512l0-16 0-16L0 298.7s0 0 0 0L0 288l0-96 0-16 0-16 16 0 16 0 48 0 13.3 0 9.4 9.4L157.3 224zM240 240l-16 0-66.7 0-6.6 0-4.7-4.7L91.3 180.7 86.6 176 80 176l-48 0-16 0 0 16 0 96 0 5.3s0 0 0 0l0 5.3L16 480l0 16 32 0 0-16 0-96 0-48 28.8 38.4 32 42.7 3.2 4.3 0 5.3 0 53.3 0 16 32 0 0-16 0-64 0-5.3-3.2-4.3L99.2 350.9 96 346.7l0-5.3 0-72.1 0-38.6 27.3 27.3 9.4 9.4 4.7 4.7 6.6 0 80 0 16 0 0-32zM64 112a32 32 0 1 0 0-64 32 32 0 1 0 0 64zM16 80a48 48 0 1 1 96 0A48 48 0 1 1 16 80z"/></svg>