<svg xmlns="http://www.w3.org/2000/svg" viewBox="0 0 640 512"><!--! Font Awesome Pro 6.6.0 by @fontawesome - https://fontawesome.com License - https://fontawesome.com/license (Commercial License) Copyright 2024 Fonticons, Inc. --><path d="M320 112a48 48 0 1 0 0-96 48 48 0 1 0 0 96zM320 0a64 64 0 1 1 0 128A64 64 0 1 1 320 0zM239.3 176l-6.7 160 23.3 0 48 0 32 0 48 0 23.3 0-6.7-160-161.3 0zM312 352l0 152 0 8-8 0-48 0-8 0 0-8 0-152-16 0-16 0 .7-16L224 160l192 0 7.3 176 .7 16-16 0-16 0 0 152 0 8-8 0-48 0-8 0 0-8 0-152-16 0zm64 144l0-144-32 0 0 144 32 0zM296 352l-32 0 0 144 32 0 0-144zM112 464c38.3 0 74-11.2 104-30.6l0 18.7C185.4 469.9 149.9 480 112 480l-40 0-8 0 0-8 0-24c0-45.7 14.7-88 39.7-122.3C40.6 275.9 0 198.7 0 112L0 40l0-8 8 0 26.9 0c84.9 0 161.1 37.1 213.4 96l-21.9 0C177.6 78.6 109.8 48 34.9 48L16 48l0 64c0 81.6 38.1 154.2 97.6 201.2l6 4.8 6 4.8-4.5 6.2-4.5 6.2C93.6 366.8 80 405.8 80 448l0 16 32 0zm312-11.8l0-18.7c30 19.4 65.7 30.6 104 30.6l32 0 0-16c0-42.2-13.6-81.2-36.7-112.9l-4.5-6.2-4.5-6.2 6-4.8 6-4.8C585.9 266.2 624 193.6 624 112l0-64-18.9 0c-74.9 0-142.7 30.6-191.5 80l-21.9 0C444 69.1 520.2 32 605.1 32L632 32l8 0 0 8 0 72c0 86.7-40.6 163.9-103.7 213.7C561.3 360 576 402.3 576 448l0 24 0 8-8 0-40 0c-37.9 0-73.4-10.1-104-27.8z"/></svg>