<svg xmlns="http://www.w3.org/2000/svg" viewBox="0 0 640 512"><!--! Font Awesome Pro 6.6.0 by @fontawesome - https://fontawesome.com License - https://fontawesome.com/license (Commercial License) Copyright 2024 Fonticons, Inc. --><path d="M48 112l0 288-32 0 0-288 32 0zM16 96L0 96l0 16L0 400l0 16 16 0 32 0 16 0 0-16 0-16 256.7 0c-.5-5.3-.7-10.6-.7-16L64 368l0-224 384 0 0 54.6c5.2-1.5 10.6-2.7 16-3.7l0-82.9 32 0 0 80c5.4 0 10.7 .2 16 .7l0-80.7 0-16-16 0-32 0-16 0 0 16 0 16L64 128l0-16 0-16L48 96 16 96zM496 240a128 128 0 1 1 0 256 128 128 0 1 1 0-256zm0 272a144 144 0 1 0 0-288 144 144 0 1 0 0 288zm75.3-184L560 316.7l-5.7 5.7L480 396.7l-42.3-42.3-5.7-5.7L420.7 360l5.7 5.7 48 48 5.7 5.7 5.7-5.7 80-80 5.7-5.7z"/></svg>