<svg xmlns="http://www.w3.org/2000/svg" viewBox="0 0 640 512"><!--! Font Awesome Pro 6.6.0 by @fontawesome - https://fontawesome.com License - https://fontawesome.com/license (Commercial License) Copyright 2024 Fonticons, Inc. --><path d="M498.7 0l-4 0-2.4 3.1L256 312.4l0-80.4 0-8-8 0L8 224l-8 0 0 8L0 360c0 83.9 68.1 152 152 152l9.8 0c51.5 0 99.5-26.1 127.5-69.3L535 64l97 0 8 0 0-8 0-48 0-8-8 0L498.7 0zM367.1 193.3L502.6 16 624 16l0 32-93.3 0-4.3 0L524 51.6 410.8 226.1l-43.7-32.8zM357.4 206l44.7 33.5L275.9 434c-25.1 38.7-68 62-114.1 62l-9.8 0C76.9 496 16 435.1 16 360l0-120 224 0 0 96 0 23.6 14.4-18.8L357.4 206z"/></svg>