<svg xmlns="http://www.w3.org/2000/svg" viewBox="0 0 512 512"><!--! Font Awesome Pro 6.6.0 by @fontawesome - https://fontawesome.com License - https://fontawesome.com/license (Commercial License) Copyright 2024 Fonticons, Inc. --><path d="M90.5 0l47.2 47.2C172.6 27.3 213 16 256 16c42.4 0 82.3 11 116.9 30.3L418.3 0 496 0l16 0 0 16 0 74.5-47.2 47.2C484.7 172.6 496 213 496 256s-11.3 83.4-31.2 118.3L512 421.5l.6 75.2 .1 16-16-.1-75.2-.6-47.2-47.2C339.4 484.7 299 496 256 496s-83.4-11.3-118.3-31.2L90.5 512 16 512 0 512l0-16 0-74.5 47.2-47.2C27.3 339.4 16 299 16 256s11.3-83.4 31.2-118.3L-.7 89.8 0 0 90.5 0zM384.3 57.5l-8.6 8.7-10.7-6C332.8 42.3 295.6 32 256 32c-40.2 0-77.9 10.6-110.4 29.1l-10.6 6-8.6-8.6L83.9 16l-68 0-.5 67.2 43.1 43.1 8.6 8.6-6 10.6C42.6 178.1 32 215.8 32 256s10.6 77.9 29.1 110.4l6 10.6-8.6 8.6L16 428.1 16 496l67.9 0 42.5-42.5 8.6-8.6 10.6 6C178.1 469.4 215.8 480 256 480s77.9-10.6 110.4-29.1l10.6-6 8.6 8.6 42.5 42.5 68.4 .5-.5-68.4-42.5-42.5-8.6-8.6 6-10.6C469.4 333.9 480 296.2 480 256s-10.6-77.9-29.1-110.4l-6-10.6 8.6-8.6L496 83.9 496 16l-71 0L384.3 57.5zM64 48a16 16 0 1 1 0 32 16 16 0 1 1 0-32zM48 448a16 16 0 1 1 32 0 16 16 0 1 1 -32 0zM448 48a16 16 0 1 1 0 32 16 16 0 1 1 0-32zM432 448a16 16 0 1 1 32 0 16 16 0 1 1 -32 0zM400 256a144 144 0 1 0 -288 0 144 144 0 1 0 288 0zM96 256a160 160 0 1 1 320 0A160 160 0 1 1 96 256z"/></svg>