<svg xmlns="http://www.w3.org/2000/svg" viewBox="0 0 640 512"><!--! Font Awesome Pro 6.6.0 by @fontawesome - https://fontawesome.com License - https://fontawesome.com/license (Commercial License) Copyright 2024 Fonticons, Inc. --><path d="M16.2 5L9.9 0 0 12.5l6.3 5L623.8 507l6.3 5 9.9-12.5-6.3-5L16.2 5zM434.8 438.4l0 50L324.9 459.1l-2.1-.5-2.1 .5L210.8 488.4l0-41.6 60.8-45.6 3.2-2.4 0-4 0-69 0-10.5-10.1 2.8L82.8 368.3l0-72.8L183.5 240l-13.6-10.8L70.9 283.8l-4.1 2.3 0 4.7 0 88 0 10.5 10.1-2.8 181.9-50.2 0 54.5L198 436.4l-3.2 2.4 0 4 0 56 0 10.4 10.1-2.7 117.9-31.4 117.9 31.4 10.1 2.7 0-10.4 0-47.8-16-12.6zM258.8 92l0 24 16 12.6 0-36.6c0-13 5.7-31.9 15.3-47.5c9.9-16.1 21.8-25.7 32.7-25.7c11.3 0 23.2 9.6 33 25.6c9.5 15.6 15 34.5 15 47.5l0 92.9 0 4.7 4.1 2.3L562.8 295.5l0 60.4 16 12.6 0-77.8 0-4.7-4.1-2.3L386.8 180.1l0-88.2c0-16.6-6.7-38.3-17.3-55.8C359 19 343 2.8 322.8 2.8C303 2.8 287 19 276.5 36.1C265.7 53.6 258.8 75.4 258.8 92z"/></svg>