<svg xmlns="http://www.w3.org/2000/svg" viewBox="0 0 640 512"><!--! Font Awesome Pro 6.6.0 by @fontawesome - https://fontawesome.com License - https://fontawesome.com/license (Commercial License) Copyright 2024 Fonticons, Inc. --><path d="M112 8l0-8L96 0l0 8c0 27.4 5.1 46.4 13.3 61.1c8 14.4 18.6 23.9 28.3 32.6l.3 .3c9.9 8.9 18.7 16.9 25.3 28.7c6.5 11.7 11.2 27.9 11.2 53.3l0 8 16 0 0-8c0-27.4-5.1-46.4-13.3-61.1c-8-14.4-18.6-23.9-28.3-32.6l-.3-.3c-9.9-8.9-18.7-16.9-25.3-28.7C116.7 49.6 112 33.4 112 8zm97.6 0l0-8-16 0 0 8c0 27.4 5.1 46.4 13.3 61.1c8 14.4 18.6 23.9 28.3 32.6l.3 .3c9.9 8.9 18.7 16.9 25.3 28.7c6.5 11.7 11.2 27.9 11.2 53.3l0 8 16 0 0-8c0-27.4-5.1-46.4-13.3-61.1c-8-14.4-18.6-23.9-28.3-32.6l-.3-.3c-9.9-8.9-18.7-16.9-25.3-28.7C214.3 49.6 209.6 33.4 209.6 8zM32 256l-8 0 0 16 8 0 34.8 0 .8 13.2C72.5 368.1 122 438.2 192 472.9l0 23.1 0 16 16 0 224 0 16 0 0-16 0-23.1c70-34.6 119.5-104.8 124.4-187.7l.8-13.2 34.8 0 8 0 0-16-8 0-33.9 0 .9-16 .9-16-16 0L80 224l-16 0 .9 16 .9 16L32 256zm490.5-64l16.8 0c-13.8-46.3-56.6-80-107.4-80s-93.6 33.7-107.4 80l16.8 0c13.2-37.3 48.7-64 90.5-64s77.4 26.7 90.5 64zM208 472.9l0-9.9-8.9-4.4c-65-32.2-111-97.3-115.5-174.3L81 240 559 240l-2.6 44.2c-4.5 77-50.5 142.2-115.5 174.3l-8.9 4.4 0 9.9 0 23.1-224 0 0-23.1z"/></svg>