<svg xmlns="http://www.w3.org/2000/svg" viewBox="0 0 576 512"><!--! Font Awesome Pro 6.6.0 by @fontawesome - https://fontawesome.com License - https://fontawesome.com/license (Commercial License) Copyright 2024 Fonticons, Inc. --><path d="M296 20.1l40 15 0 75.9c5.5 1.6 10.8 3.5 16 5.7L352 24 288 0 232.8 113.3c6.7-2.3 13.6-4.2 20.6-5.7L296 20.1zM188.3 136.8c5-3.7 10.1-7.1 15.5-10.2C186.6 117.2 167.8 112 148 112c-41.8 0-79 23.3-105.5 59.5S0 257.5 0 312s16.1 104.2 42.5 140.5S106.2 512 148 512c25.5 0 49.3-8.7 70-23.6c20.7 15 44.5 23.6 70 23.6s49.3-8.7 70-23.6c20.7 15 44.5 23.6 70 23.6c41.8 0 79-23.3 105.5-59.5S576 366.5 576 312s-16.1-104.2-42.5-140.5S469.8 112 428 112c-19.8 0-38.6 5.2-55.8 14.6c5.4 3.1 10.5 6.5 15.5 10.2c12.8-5.7 26.3-8.8 40.3-8.8c35.5 0 68.3 19.7 92.5 52.9S560 260.5 560 312s-15.2 97.8-39.5 131c-24.2 33.2-57.1 53-92.5 53c-23.5 0-45.7-8.6-65-24l-5-3.9-5 3.9c-19.4 15.4-41.6 24-65 24s-45.7-8.6-65-24l-5-3.9-5 3.9c-19.4 15.4-41.6 24-65 24c-35.5 0-68.3-19.7-92.5-53C31.2 409.8 16 363.5 16 312s15.2-97.8 39.5-131.1S112.5 128 148 128c14 0 27.5 3.1 40.3 8.8zM288 152c41.2 0 77.6 20.8 99.2 52.5l4.5 6.6 13.2-9-4.5-6.6C376 159.6 334.7 136 288 136s-88 23.6-112.4 59.5l-4.5 6.6 13.2 9 4.5-6.6c21.6-31.7 58-52.5 99.2-52.5z"/></svg>