<svg xmlns="http://www.w3.org/2000/svg" viewBox="0 0 448 512"><!--! Font Awesome Pro 6.6.0 by @fontawesome - https://fontawesome.com License - https://fontawesome.com/license (Commercial License) Copyright 2024 Fonticons, Inc. --><path d="M0 216C0 149.7 53.7 96 120 96l16 0 8 0 0 16-8 0-16 0C62.6 112 16 158.6 16 216l0 8 160 0 16 0 0 16 0 160 0 16-16 0L16 416 0 416l0-16 0-88 0-72 0-16 0-8zm16 96l0 88 160 0 0-160L16 240l0 72zm240-96c0-66.3 53.7-120 120-120l16 0 8 0 0 16-8 0-16 0c-57.4 0-104 46.6-104 104l0 8 160 0 16 0 0 16 0 160 0 16-16 0-160 0-16 0 0-16 0-88 0-72 0-16 0-8zm16 96l0 88 160 0 0-160-160 0 0 72z"/></svg>