<svg xmlns="http://www.w3.org/2000/svg" viewBox="0 0 512 512"><!--! Font Awesome Pro 6.6.0 by @fontawesome - https://fontawesome.com License - https://fontawesome.com/license (Commercial License) Copyright 2024 Fonticons, Inc. --><path d="M0 248l8 0 496 0 8 0 0 16-8 0L8 264l-8 0 0-16zm244.7 83.3L256 320l11.3 11.3L416 480l0 16 0 16-16 0-288 0-16 0 0-16 0-16L244.7 331.3zM112 486.6l0 9.4 288 0 0-9.4-144-144-144 144zM256 192l-11.3-11.3L96 32l0-16L96 0l16 0L400 0l16 0 0 16 0 16L267.3 180.7 256 192zM112 16l0 9.4 144 144 144-144 0-9.4L112 16z"/></svg>