<svg xmlns="http://www.w3.org/2000/svg" viewBox="0 0 448 512"><!--! Font Awesome Pro 6.6.0 by @fontawesome - https://fontawesome.com License - https://fontawesome.com/license (Commercial License) Copyright 2024 Fonticons, Inc. --><path d="M432 72l0-8 16 0 0 8 0 368 0 8-16 0 0-8 0-368zM160 192l0-16 0-64 0-16 16 0 16 0L340.7 244.7 352 256l-11.3 11.3L192 416l-16 0-16 0 0-16 0-64 0-16-16 0L16 320 0 320l0-16 0-96 0-16 16 0 128 0 16 0zm16 0l0 16-16 0L16 208l0 96 144 0 16 0 0 16 0 80 9.4 0 144-144-144-144-9.4 0 0 80z"/></svg>