<svg xmlns="http://www.w3.org/2000/svg" viewBox="0 0 512 512"><!--! Font Awesome Pro 6.6.0 by @fontawesome - https://fontawesome.com License - https://fontawesome.com/license (Commercial License) Copyright 2024 Fonticons, Inc. --><path d="M320 192l0-16 0-64 0-16 16 0 16 0L500.7 244.7 512 256l-11.3 11.3L352 416l-16 0-16 0 0-16 0-64 0-16-16 0-128 0-16 0 0-16 0-96 0-16 16 0 128 0 16 0zm16 0l0 16-16 0-144 0 0 96 144 0 16 0 0 16 0 80 9.4 0 144-144-144-144-9.4 0 0 80zM184 48L16 48l0 416 168 0 8 0 0 16-8 0L8 480l-8 0 0-8L0 40l0-8 8 0 176 0 8 0 0 16-8 0z"/></svg>