<svg xmlns="http://www.w3.org/2000/svg" viewBox="0 0 512 512"><!--! Font Awesome Pro 6.6.0 by @fontawesome - https://fontawesome.com License - https://fontawesome.com/license (Commercial License) Copyright 2024 Fonticons, Inc. --><path d="M482.7 140.8c-8.4 16.8-19.8 34-31.5 49.6c-11.6 15.5-23.3 29.1-32.1 38.9c-1.1 1.2-2.1 2.3-3.1 3.4c-1-1.1-2-2.2-3.1-3.4c-8.8-9.8-20.5-23.4-32.1-38.9c-11.7-15.6-23.1-32.7-31.5-49.6C340.8 123.8 336 108.4 336 96c0-44.2 35.8-80 80-80s80 35.8 80 80c0 12.4-4.8 27.8-13.3 44.8zM427 244.4c25.2-27.5 85-97.9 85-148.4c0-53-43-96-96-96s-96 43-96 96c0 48 54 114 81 144l-137 0-8 0 0 8 0 128 0 8 8 0 232 0 0 112-336 0c-4.4 0-8 3.6-8 8s3.6 8 8 8l344 0 8 0 0-8 0-128 0-8-8 0-232 0 0-112 144 0s4.3-4.3 11-11.6zM162.7 396.8c-8.4 16.8-19.8 34-31.5 49.6c-11.6 15.5-23.3 29.1-32.1 38.9c-1.1 1.2-2.1 2.3-3.1 3.4c-1-1.1-2-2.2-3.1-3.4c-8.8-9.8-20.5-23.4-32.1-38.9c-11.7-15.6-23.1-32.7-31.5-49.6C20.8 379.8 16 364.4 16 352c0-44.2 35.8-80 80-80s80 35.8 80 80c0 12.4-4.8 27.8-13.3 44.8zM107 500.4c25.2-27.5 85-97.9 85-148.4c0-53-43-96-96-96s-96 43-96 96c0 50.5 59.8 120.9 85 148.4c6.7 7.3 11 11.6 11 11.6s4.3-4.3 11-11.6zM416 80a16 16 0 1 1 0 32 16 16 0 1 1 0-32zm0 48a32 32 0 1 0 0-64 32 32 0 1 0 0 64zM80 352a16 16 0 1 1 32 0 16 16 0 1 1 -32 0zm48 0a32 32 0 1 0 -64 0 32 32 0 1 0 64 0z"/></svg>