<svg xmlns="http://www.w3.org/2000/svg" viewBox="0 0 512 512"><!--! Font Awesome Pro 6.6.0 by @fontawesome - https://fontawesome.com License - https://fontawesome.com/license (Commercial License) Copyright 2024 Fonticons, Inc. --><path d="M342.1 107.2L405 16 416 0 396.6 0 115.4 0 96 0l11 16 62.9 91.2 9.1 13.2c-4.1 2.6-8.6 5.6-13.3 8.8C105.1 170.8 0 262.9 0 416l0 80 0 16 16 0 480 0 16 0 0-16 0-80c0-153.1-105.1-245.2-165.7-286.8c-4.7-3.3-9.2-6.2-13.3-8.8l9.1-13.2zM496 496L16 496l0-80c0-156.4 115.8-246.4 171.6-282.1l9.2-5.9 118.3 0 9.2 5.9C380.2 169.6 496 259.6 496 416l0 80zM319.8 111.3l-.5 .7-126.7 0-.5-.7L126.5 16l259.1 0-65.7 95.3zM264 224l0-8-16 0 0 8 0 16.4c-8.4 .7-16.2 2.6-23 5.7c-12.4 5.6-21.9 15.4-24.2 28.8c-1.4 8.2-.6 15.4 2.4 21.8c3 6.3 7.8 11 13.2 14.7c10 6.8 23.7 10.9 35.9 14.6l1.7 .5c13.4 4 25 7.8 32.9 13.5c3.7 2.7 6.3 5.7 7.7 9c1.4 3.3 2.1 7.6 1.1 13.5c-1.4 8.2-6.5 14.1-15.1 17.8c-5.7 2.5-13 3.8-21.3 3.8l-.5 0c-4.3 0-8.8-.4-13.6-1.1c-7.1-1.2-19.2-5.3-28.8-8.5c0 0 0 0 0 0c-2.1-.7-4-1.4-5.7-1.9l-7.6-2.5-5.1 15.2 7.6 2.5c1.4 .5 3.1 1 5 1.7c0 0 0 0 0 0s0 0 0 0s0 0 0 0c9.4 3.2 23.4 8 32 9.4c0 0 0 0 0 0c1.8 .3 3.7 .5 5.5 .7l0 16.6 0 8 16 0 0-8 0-16.1c8.3-.5 16-2.1 22.7-5c12.6-5.4 22.1-15.4 24.5-29.7c1.5-8.5 .7-16-2.1-22.6c-2.9-6.6-7.5-11.6-13-15.5c-10.5-7.6-24.9-12-37.6-15.8l-.3-.1s0 0 0 0c-13.4-4-25-7.5-32.9-12.9c-3.8-2.6-6.3-5.3-7.7-8.3c-1.4-2.9-2.1-6.8-1.1-12.2c1.2-6.8 6.2-12.9 15.1-17c9-4.1 21.4-5.7 35.4-3.5c4.5 .7 18.5 3.4 22.9 4.6l4.1-15.5c-5.2-1.4-19.8-4.2-24.6-4.9c-1.8-.3-3.7-.5-5.5-.7l0-16.6z"/></svg>