<svg xmlns="http://www.w3.org/2000/svg" viewBox="0 0 640 512"><!--! Font Awesome Pro 6.6.0 by @fontawesome - https://fontawesome.com License - https://fontawesome.com/license (Commercial License) Copyright 2024 Fonticons, Inc. --><path d="M328.7 127.5c31.6-3.9 56-30.9 56-63.5L536 64c4.4 0 8-3.6 8-8s-3.6-8-8-8L382.6 48c-7.1-27.6-32.2-48-62-48s-54.9 20.4-62 48L104 48c-4.4 0-8 3.6-8 8s3.6 8 8 8l152.7 0c0 32.6 24.4 59.6 56 63.5l0 368.5L104 496c-4.4 0-8 3.6-8 8s3.6 8 8 8l216.7 0 216 0c4.4 0 8-3.6 8-8s-3.6-8-8-8l-208 0 0-368.5zm40-63.5a48 48 0 1 1 -96 0 48 48 0 1 1 96 0zM119.3 112.9L.1 302.6l-.2 40L73.4 416l109.1 0 73.4-73.4 0-40L138.1 112.9l-9.4-15.1-9.5 15.1zM237.9 304L18.1 304 128.7 128 237.9 304zm2 16l0 16-64 64L80 400 16 336l.1-16 223.8 0zM503.3 112.9L384.1 302.6l-.2 40L457.4 416l109.1 0 73.4-73.4 0-40L522.1 112.9l-9.4-15.1-9.5 15.1zM621.9 304l-219.7 0L512.7 128 621.9 304zm2 16l0 16-64 64L464 400l-64-64 .1-16 223.8 0z"/></svg>