<svg xmlns="http://www.w3.org/2000/svg" viewBox="0 0 640 512"><!--! Font Awesome Pro 6.6.0 by @fontawesome - https://fontawesome.com License - https://fontawesome.com/license (Commercial License) Copyright 2024 Fonticons, Inc. --><path d="M496 240a128 128 0 1 1 0 256 128 128 0 1 1 0-256zm0 272a144 144 0 1 0 0-288 144 144 0 1 0 0 288zm12-92l-24 0 0 24 24 0 0-24zm-4-132l0-8-16 0 0 8 0 96 0 8 16 0 0-8 0-96zM16 112l144 0L320 0 480 112l144 0 16 0 0 16 0 138.8c-4.9-6.9-10.2-13.5-16-19.6L624 128l-144 0-5 0-4.1-2.9L320 19.5 169.2 125.1 165 128l-5 0L16 128l0 368 240 0 0-112c0-35.3 28.7-64 64-64c2.2 0 4.4 .1 6.5 .3c-1.4 5.2-2.7 10.4-3.6 15.8c-1-.1-1.9-.1-2.9-.1c-26.5 0-48 21.5-48 48l0 112 32 0 64 0 7.2 0c6.1 5.8 12.7 11.1 19.6 16L384 512l-16 0-96 0-16 0L16 512 0 512l0-16L0 128l0-16 16 0zm48 80l8 0 64 0 8 0 0 8 0 80 0 8-8 0-64 0-8 0 0-8 0-80 0-8zm16 16l0 64 48 0 0-64-48 0zm304-32a64 64 0 1 0 -128 0 64 64 0 1 0 128 0zm-144 0a80 80 0 1 1 160 0 80 80 0 1 1 -160 0zm88-40l0 8 0 24 16 0 8 0 0 16-8 0-24 0-8 0 0-8 0-32 0-8 16 0zM72 320l64 0 8 0 0 8 0 80 0 8-8 0-64 0-8 0 0-8 0-80 0-8 8 0zm8 80l48 0 0-64-48 0 0 64z"/></svg>