<svg xmlns="http://www.w3.org/2000/svg" viewBox="0 0 640 512"><!--! Font Awesome Pro 6.6.0 by @fontawesome - https://fontawesome.com License - https://fontawesome.com/license (Commercial License) Copyright 2024 Fonticons, Inc. --><path d="M592 16L48 16l0 220.8c-5.7 3.3-11.1 7.2-16 11.6L32 16 32 0 48 0 592 0l16 0 0 16 0 232.4c-4.9-4.4-10.3-8.3-16-11.6L592 16zM96 368a48 48 0 1 0 0-96 48 48 0 1 0 0 96zm0-112a64 64 0 1 1 0 128 64 64 0 1 1 0-128zM320 368a48 48 0 1 0 0-96 48 48 0 1 0 0 96zm0-112a64 64 0 1 1 0 128 64 64 0 1 1 0-128zm272 64a48 48 0 1 0 -96 0 48 48 0 1 0 96 0zm-112 0a64 64 0 1 1 128 0 64 64 0 1 1 -128 0zM43.5 432L16.9 512 0 512l32-96 128 0 32 96-16.9 0-26.7-80L43.5 432zm197.3 80L224 512l32-96 128 0 32 96-16.9 0-26.7-80-104.9 0-26.7 80zm250.7-80l-26.7 80L448 512l32-96 128 0 32 96-16.9 0-26.7-80-104.9 0z"/></svg>