<svg xmlns="http://www.w3.org/2000/svg" viewBox="0 0 512 512"><!--! Font Awesome Pro 6.6.0 by @fontawesome - https://fontawesome.com License - https://fontawesome.com/license (Commercial License) Copyright 2024 Fonticons, Inc. --><path d="M16 48l0 160 480 0 0-160L16 48zM0 32l16 0 480 0 16 0 0 16 0 160 0 16-16 0L16 224 0 224l0-16L0 48 0 32zM16 304l0 160 480 0 0-160L16 304zM0 288l16 0 480 0 16 0 0 16 0 160 0 16-16 0L16 480 0 480l0-16L0 304l0-16zm336 96a16 16 0 1 1 32 0 16 16 0 1 1 -32 0zm16-272a16 16 0 1 1 0 32 16 16 0 1 1 0-32zm48 272a16 16 0 1 1 32 0 16 16 0 1 1 -32 0zm16-272a16 16 0 1 1 0 32 16 16 0 1 1 0-32z"/></svg>