<svg xmlns="http://www.w3.org/2000/svg" viewBox="0 0 384 512"><!--! Font Awesome Pro 6.6.0 by @fontawesome - https://fontawesome.com License - https://fontawesome.com/license (Commercial License) Copyright 2024 Fonticons, Inc. --><path d="M16 16l0 480 192 0 0-152 0-8 8 0 152 0 0-320L16 16zM224 489.4L361.4 352 224 352l0 137.4zm0 22.6L16 512 0 512l0-16L0 16 0 0 16 0 368 0l16 0 0 16 0 336L224 512zM173.7 77.7l-96 96L72 179.3 60.7 168l5.7-5.7 96-96 5.7-5.7L179.3 72l-5.7 5.7zm96 32l-160 160-5.7 5.7L92.7 264l5.7-5.7 160-160 5.7-5.7L275.3 104l-5.7 5.7z"/></svg>