<svg xmlns="http://www.w3.org/2000/svg" viewBox="0 0 384 512"><!--! Font Awesome Pro 6.6.0 by @fontawesome - https://fontawesome.com License - https://fontawesome.com/license (Commercial License) Copyright 2024 Fonticons, Inc. --><path d="M48 0l8 0 48 0 8 0 0 8 0 72c0 44.2 35.8 80 80 80s80-35.8 80-80l0-72 0-8 8 0 48 0 8 0 0 8 0 126.5L383.4 253l.6 1.4 0 1.5 0 248 0 8-8 0L8 512l-8 0 0-8L0 256l0-1.5L.6 253 48 134.5 48 8l0-8zM192 176c-53 0-96-43-96-96l0-64L64 16l0 120 0 1.5-.6 1.4L16 257.5 16 496l352 0 0-238.5L320.6 139l-.6-1.4 0-1.5 0-120-32 0 0 64c0 53-43 96-96 96z"/></svg>