<svg xmlns="http://www.w3.org/2000/svg" viewBox="0 0 640 512"><!--! Font Awesome Pro 6.6.0 by @fontawesome - https://fontawesome.com License - https://fontawesome.com/license (Commercial License) Copyright 2024 Fonticons, Inc. --><path d="M624 224l16 0 0-16 0-32L544 0 111.9 0l20.3 16 402.3 0L624 180.1l0 27.9-248.6 0 20.3 16L560 224l0 129.7 16 12.6L576 224l48 0zM0 176l0 32 0 16 16 0 48 0 0 280 0 8 8 0 304 0 8 0 0-8 0-105.7-16-12.6L368 496 80 496l0-272 83.3 0L143 208 16 208l0-27.9 27.6-50.6L30.8 119.5 0 176zM304 368l-160 0 0-112-16 0 0 120 0 8 8 0 176 0 8 0 0-8 0-28.3-16-12.6 0 32.9zM16.2 5L9.9 0 0 12.5l6.3 5L623.8 507l6.3 5 9.9-12.5-6.3-5L16.2 5z"/></svg>