<svg xmlns="http://www.w3.org/2000/svg" viewBox="0 0 640 512"><!--! Font Awesome Pro 6.6.0 by @fontawesome - https://fontawesome.com License - https://fontawesome.com/license (Commercial License) Copyright 2024 Fonticons, Inc. --><path d="M512 315.8l16 12.6L528 16l64 0 0 363 16 12.6L608 16l0-16L592 0 528 0 512 0l0 16 0 299.8zm-64-50.5L448 144l0-16-16 0-64 0-16 0 0 16 0 45.5 16 12.6 0-58.2 64 0 0 108.7 16 12.6zM352 373l0 123 0 16 16 0 64 0 16 0 0-16 0-47.2-16-12.6 0 59.8-64 0 0-110.4L352 373zM203.8 256L192 256l0 16 0 224 0 16 16 0 64 0 16 0 0-16 0-173.5-16-12.6L272 496l-64 0 0-224 16.1 0-20.3-16zM48 400l64 0 0 96-64 0 0-96zm80-16l-16 0-64 0-16 0 0 16 0 96 0 16 16 0 64 0 16 0 0-16 0-96 0-16zM16.2 5L9.9 0 0 12.5l6.3 5L623.8 507l6.3 5 9.9-12.5-6.3-5L16.2 5z"/></svg>