<svg xmlns="http://www.w3.org/2000/svg" viewBox="0 0 512 512"><!--! Font Awesome Pro 6.6.0 by @fontawesome - https://fontawesome.com License - https://fontawesome.com/license (Commercial License) Copyright 2024 Fonticons, Inc. --><path d="M248 0l16 0 0 48 184 0 64 72-64 72-184 0 0 48 200 0 16 0 0 16 0 112 0 16-16 0-200 0 0 128-16 0 0-128L64 384 0 312l64-72 184 0 0-48L48 192l-16 0 0-16L32 64l0-16 16 0 200 0 0-48zM440.8 64L48 64l0 112 392.8 0 49.8-56L440.8 64zM71.2 256L21.4 312l49.8 56L464 368l0-112L71.2 256z"/></svg>