<svg xmlns="http://www.w3.org/2000/svg" viewBox="0 0 640 512"><!--! Font Awesome Pro 6.6.0 by @fontawesome - https://fontawesome.com License - https://fontawesome.com/license (Commercial License) Copyright 2024 Fonticons, Inc. --><path d="M385.3 0l-5.7 32L160 32l-6.6 0-1.3 6.5-72 368L78.3 416l9.7 0 384 0 8 0 0-8 0-120 0-5.1-4.6-2.2L361 227.4 401.6 0 385.3 0zM259.2 48l117.6 0-20 112L296 160l-8 0 0 16 8 0 57.9 0-8.6 48L280 224l-8 0 0 16 8 0 70.2 0L464 293.1 464 400 97.7 400 129 240l7 0 76.7 0 6.5 0 1.3-6.4L258.7 50.1l.4-2.1zm-16.3 0L206.2 224 136 224l-3.8 0L166.6 48l76.2 0zM640 424l0-8-16 0 0 8 0 72L8 496l-8 0 0 16 8 0 624 0 8 0 0-8 0-80z"/></svg>