<svg xmlns="http://www.w3.org/2000/svg" viewBox="0 0 512 512"><!--! Font Awesome Pro 6.6.0 by @fontawesome - https://fontawesome.com License - https://fontawesome.com/license (Commercial License) Copyright 2024 Fonticons, Inc. --><path d="M104 0l0 8 0 88 40 0 16 0 0 16 0 96 0 16-16 0-40 0 0 280 0 8-16 0 0-8 0-280-40 0-16 0 0-16 0-96 0-16 16 0 40 0L88 8l0-8 16 0zM88 208l16 0 40 0 0-96-40 0-16 0-40 0 0 96 40 0zM264 0l0 8 0 280 40 0 16 0 0 16 0 96 0 16-16 0-40 0 0 88 0 8-16 0 0-8 0-88-40 0-16 0 0-16 0-96 0-16 16 0 40 0L248 8l0-8 16 0zm0 400l40 0 0-96-40 0-16 0-40 0 0 96 40 0 16 0zM424 8l0 120 40 0 16 0 0 16 0 96 0 16-16 0-40 0 0 248 0 8-16 0 0-8 0-248-40 0-16 0 0-16 0-96 0-16 16 0 40 0L408 8l0-8 16 0 0 8zM408 240l16 0 40 0 0-96-40 0-16 0-40 0 0 96 40 0z"/></svg>