<svg xmlns="http://www.w3.org/2000/svg" viewBox="0 0 640 512"><!--! Font Awesome Pro 6.6.0 by @fontawesome - https://fontawesome.com License - https://fontawesome.com/license (Commercial License) Copyright 2024 Fonticons, Inc. --><path d="M232 8l0-8L216 0l0 8 0 100.7L165.6 58.3 160 52.7 148.7 64l5.7 5.7L216 131.3l0 110.8-96-55.4L97.4 102.5l-2.1-7.7L79.9 98.9l2.1 7.7 18.4 68.8L20.1 129.1l-6.9-4-8 13.9 6.9 4 80.3 46.3L23.6 207.7l-7.7 2.1 4.1 15.5 7.7-2.1L112 200.6 208 256l-96 55.4L27.8 288.8l-7.7-2.1-4.1 15.5 7.7 2.1 68.8 18.4L12.1 369.1l-6.9 4 8 13.9 6.9-4 80.3-46.3L82 405.4l-2.1 7.7 15.5 4.1 2.1-7.7L120 325.3l96-55.4 0 110.8-61.7 61.7-5.7 5.7L160 459.3l5.7-5.7L216 403.3 216 504l0 8 16 0 0-8 0-100.7 50.3 50.3 5.7 5.7L299.3 448l-5.7-5.7L232 380.7l0-110.8 96 55.4 22.6 84.2 2.1 7.7 15.5-4.1-2.1-7.7-18.4-68.8 80.3 46.3 6.9 4 8-13.9-6.9-4-80.3-46.3 68.8-18.4 7.7-2.1-4.1-15.5-7.7 2.1L336 311.4 240 256l96-55.4 84.2 22.6 7.7 2.1 4.1-15.5-7.7-2.1-68.8-18.4 80.3-46.3 6.9-4-8-13.9-6.9 4-80.3 46.3L366 106.6l2.1-7.7-15.5-4.1-2.1 7.7L328 186.7l-96 55.4 0-110.8 61.7-61.7 5.7-5.7L288 52.7l-5.7 5.7L232 108.7 232 8zM496 4.7L484.7 16l5.7 5.7L532.7 64l-42.3 42.3-5.7 5.7L496 123.3l5.7-5.7L544 75.3l42.3 42.3 5.7 5.7L603.3 112l-5.7-5.7L555.3 64l42.3-42.3 5.7-5.7L592 4.7l-5.7 5.7L544 52.7 501.7 10.3 496 4.7zm32 192L516.7 208l5.7 5.7L564.7 256l-42.3 42.3-5.7 5.7L528 315.3l5.7-5.7L576 267.3l42.3 42.3 5.7 5.7L635.3 304l-5.7-5.7L587.3 256l42.3-42.3 5.7-5.7L624 196.7l-5.7 5.7L576 244.7l-42.3-42.3-5.7-5.7z"/></svg>