<svg xmlns="http://www.w3.org/2000/svg" viewBox="0 0 448 512"><!--! Font Awesome Pro 6.6.0 by @fontawesome - https://fontawesome.com License - https://fontawesome.com/license (Commercial License) Copyright 2024 Fonticons, Inc. --><path d="M16 48l0 416 416 0 0-416L16 48zM0 32l16 0 416 0 16 0 0 16 0 416 0 16-16 0L16 480 0 480l0-16L0 48 0 32zM112 368l32 0 0-16 0-96 0-16-32 0 0 16 0 96 0 16zm48-144l0 16 0 16 0 96 0 16 0 16-16 0-32 0-16 0 0-16 0-16 0-96 0-16 0-16 16 0 32 0 16 0zm48 144l32 0 0-16 0-192 0-16-32 0 0 16 0 192 0 16zm96 0l32 0 0-16 0-32 0-16-32 0 0 16 0 32 0 16zM192 352l0-192 0-16 0-16 16 0 32 0 16 0 0 16 0 16 0 192 0 16 0 16-16 0-32 0-16 0 0-16 0-16zm96 0l0-32 0-16 0-16 16 0 32 0 16 0 0 16 0 16 0 32 0 16 0 16-16 0-32 0-16 0 0-16 0-16z"/></svg>