<svg xmlns="http://www.w3.org/2000/svg" viewBox="0 0 448 512"><!--! Font Awesome Pro 6.6.0 by @fontawesome - https://fontawesome.com License - https://fontawesome.com/license (Commercial License) Copyright 2024 Fonticons, Inc. --><path d="M16 48l0 416 416 0 0-416L16 48zM0 32l16 0 416 0 16 0 0 16 0 416 0 16-16 0L16 480 0 480l0-16L0 48 0 32zM85.6 144l16.6 0 58.3 218.5 55.9-188.7 4.1-13.7 7.2 0 4.1 13.7 55.9 188.7L345.9 144l16.6 0L295.7 394.1l-1.6 5.9L282 400l-1.7-5.7L224 204.2 167.7 394.3 166 400l-12.1 0-1.6-5.9L85.6 144z"/></svg>