<svg xmlns="http://www.w3.org/2000/svg" viewBox="0 0 448 512"><!--! Font Awesome Pro 6.6.0 by @fontawesome - https://fontawesome.com License - https://fontawesome.com/license (Commercial License) Copyright 2024 Fonticons, Inc. --><path d="M16 48l0 416 416 0 0-416L16 48zM0 32l16 0 416 0 16 0 0 16 0 416 0 16-16 0L16 480 0 480l0-16L0 48 0 32zM328 192a40 40 0 1 0 0-80 40 40 0 1 0 0 80zm0 16c-19.1 0-35.9-9.5-46-24.1L173.2 238.4c1.8 5.5 2.8 11.5 2.8 17.6s-1 12.1-2.8 17.6L282 328.1c10.1-14.5 26.9-24.1 46-24.1c30.9 0 56 25.1 56 56s-25.1 56-56 56s-56-25.1-56-56c0-6.2 1-12.1 2.8-17.6L166 287.9c-10.1 14.5-26.9 24.1-46 24.1c-30.9 0-56-25.1-56-56s25.1-56 56-56c19.1 0 35.9 9.5 46 24.1l108.8-54.4c-1.8-5.5-2.8-11.5-2.8-17.6c0-30.9 25.1-56 56-56s56 25.1 56 56s-25.1 56-56 56zm0 192a40 40 0 1 0 0-80 40 40 0 1 0 0 80zM160 256a40 40 0 1 0 -80 0 40 40 0 1 0 80 0z"/></svg>