<svg xmlns="http://www.w3.org/2000/svg" viewBox="0 0 384 512"><!--! Font Awesome Pro 6.6.0 by @fontawesome - https://fontawesome.com License - https://fontawesome.com/license (Commercial License) Copyright 2024 Fonticons, Inc. --><path d="M104 0L96 0l0 8 0 120-80 0L0 128l0 16L0 464l0 16 16 0 48 0 0 24 0 8 8 0 48 0 8 0 0-8 0-24 128 0 0 24 0 8 8 0 48 0 8 0 0-8 0-24 48 0 16 0 0-16 0-320 0-16-16 0-80 0L288 8l0-8-8 0L104 0zM304 464l-32 0-16 0-128 0-16 0-32 0-16 0-48 0 0-320 80 0 16 0 160 0 16 0 80 0 0 320-48 0-16 0zm-32 16l32 0 0 16-32 0 0-16zm-160 0l0 16-32 0 0-16 32 0zM272 128l-160 0 0-112 160 0 0 112zM80 240l0 16 8 0 208 0 8 0 0-16-8 0L88 240l-8 0zm0 112l0 16 8 0 208 0 8 0 0-16-8 0L88 352l-8 0z"/></svg>