<svg xmlns="http://www.w3.org/2000/svg" viewBox="0 0 512 512"><!--! Font Awesome Pro 6.6.0 by @fontawesome - https://fontawesome.com License - https://fontawesome.com/license (Commercial License) Copyright 2024 Fonticons, Inc. --><path d="M287.5 294.9L512 40 472 0 217.1 224.5l11.3 11.3L471.3 21.9l18.8 18.8L276.1 283.6l11.3 11.3zM181.7 234.3l-5.7-5.7L164.7 240l5.7 5.7L180.7 256 112 324.7l-2.3-2.3-5.7-5.7-5.7 5.7-96 96L0 420.7 0 424l0 32 0 3.3 2.3 2.3 48 48 2.3 2.3 3.3 0 32 0 3.3 0 2.3-2.3 96-96 5.7-5.7-5.7-5.7-2.3-2.3L256 331.3l10.3 10.3 5.7 5.7L283.3 336l-5.7-5.7-16-16-64-64-16-16zm10.3 33L244.7 320 216 348.7 163.3 296 192 267.3zM123.3 336L152 307.3 204.7 360 176 388.7 123.3 336zM16 427.3l88-88 2.3 2.3 64 64 2.3 2.3-88 88-25.4 0L16 452.7l0-25.4z"/></svg>