<svg xmlns="http://www.w3.org/2000/svg" viewBox="0 0 640 512"><!--! Font Awesome Pro 6.6.0 by @fontawesome - https://fontawesome.com License - https://fontawesome.com/license (Commercial License) Copyright 2024 Fonticons, Inc. --><path d="M352 80c0-44.2 35.8-80 80-80l72 0 3.3 0 2.3 2.3L547.3 40 568 40c39.8 0 72 32.2 72 72l0 72 0 8-8 0-24 0-4.7 0-29.7 29.7-2.3 2.3-3.3 0-92.9 0-51.5 47.7L468 297.1l4 2.3 0 4.6 0 32 0 8-16 0 0-8 0-27.4-44.7-25.5-.8 .8c-1.7-5.5-3.9-10.8-6.3-15.9l62.4-57.8 2.3-2.1 3.1 0 92.7 0 16-16L544 192l-3.3 0-2.3-2.3L508.7 160 480 160l-8 0 0-16 8 0 32 0 3.3 0 2.3 2.3L547.3 176l49.4 0 3.3 0 8 0 16 0 0-64c0-30.9-25.1-56-56-56l-24 0-3.3 0-2.3-2.3L500.7 16 432 16c-35.3 0-64 28.7-64 64l0 8 0 3.7-2.8 2.4-56 48L307 144l-3 0-40 0c-66.3 0-120 53.7-120 120l0 24 0 8-8 0-48 0-4.9 0-2.2-4.4L36 201.9l-4.8 9.6c-10 20-15.2 42-15.2 64.3C16 348.8 75.2 408 148.2 408l59.8 0 0-48 0-8 16 0 0 8 0 52.9L299.5 496 400 496l0-16c0-17.7-14.3-32-32-32l-8 0-6 0-1.7-5.8-16-56-.9-3 1.4-2.8L368 318.2c-1-38.9-32.8-70.2-72-70.2l-8 0 0-16 8 0c48.6 0 88 39.4 88 88l0 1.9-.8 1.7-30.6 61.2L366 432l2 0c26.5 0 48 21.5 48 48l0 24 0 8-8 0-112 0-3.5 0-2.4-2.6L212.5 424l-64.3 0C66.3 424 0 357.7 0 275.8c0-24.8 5.8-49.3 16.9-71.5l8-15.9 2.2-4.4 4.9 0 8 0 4.9 0 2.2 4.4L92.9 280l35.1 0 0-16c0-75.1 60.9-136 136-136l37 0 51-43.7 0-4.3zM496 64a16 16 0 1 1 0 32 16 16 0 1 1 0-32z"/></svg>