<svg xmlns="http://www.w3.org/2000/svg" viewBox="0 0 512 512"><!--! Font Awesome Pro 6.6.0 by @fontawesome - https://fontawesome.com License - https://fontawesome.com/license (Commercial License) Copyright 2024 Fonticons, Inc. --><path d="M64 64l8 0 368 0 8 0 0 16-8 0L328.7 80 403 256l101 0 8 0 0 16-8 0-94.2 0-17.4 0-272.8 0s0 0 0 0l-17.4 0s0 0 0 0L8 272l-8 0 0-16 8 0 101 0L183.3 80 72 80l-8 0 0-16zM200.7 80l-1.3 3.1L126.4 256l259.3 0-73-172.9L311.3 80 200.7 80zM423.3 304l60.8 144-17.4 0L405.9 304l17.4 0zm-317.2 0L45.3 448l-17.4 0L88.7 304l17.4 0z"/></svg>