<svg xmlns="http://www.w3.org/2000/svg" viewBox="0 0 448 512"><!--! Font Awesome Pro 6.6.0 by @fontawesome - https://fontawesome.com License - https://fontawesome.com/license (Commercial License) Copyright 2024 Fonticons, Inc. --><path d="M40 0L32 0l0 8 0 35.1L4.4 56.8 0 59.1 0 64l0 96 0 4.9 4.4 2.2L32 180.9l0 6.1L4.4 200.8 0 203.1 0 208l0 96 0 4.9 4.4 2.2L32 324.9l0 6.1L4.4 344.8 0 347.1 0 352l0 96 0 4.9 4.4 2.2L32 468.9 32 504l0 8 8 0 368 0 8 0 0-8 0-35.1 27.6-13.8 4.4-2.2 0-4.9 0-96 0-4.9-4.4-2.2L416 331.1l0-6.1 27.6-13.8 4.4-2.2 0-4.9 0-96 0-4.9-4.4-2.2L416 187.1l0-6.1 27.6-13.8 4.4-2.2 0-4.9 0-96 0-4.9-4.4-2.2L416 43.1 416 8l0-8-8 0L40 0zm8 48l0-32 352 0 0 32 0 4.9 4.4 2.2L432 68.9l0 86.1-27.6 13.8-4.4 2.2 0 4.9 0 16 0 4.9 4.4 2.2L432 212.9l0 86.1-27.6 13.8-4.4 2.2 0 4.9 0 16 0 4.9 4.4 2.2L432 356.9l0 86.1-27.6 13.8-4.4 2.2 0 4.9 0 32L48 496l0-32 0-4.9-4.4-2.2L16 443.1l0-86.1 27.6-13.8 4.4-2.2 0-4.9 0-16 0-4.9-4.4-2.2L16 299.1l0-86.1 27.6-13.8 4.4-2.2 0-4.9 0-16 0-4.9-4.4-2.2L16 155.1l0-86.1L43.6 55.2 48 52.9 48 48zm64 32l224 0 0 352-224 0 0-352zM96 64l0 16 0 352 0 16 16 0 224 0 16 0 0-16 0-352 0-16-16 0L112 64 96 64z"/></svg>