<svg xmlns="http://www.w3.org/2000/svg" viewBox="0 0 512 512"><!--! Font Awesome Pro 6.6.0 by @fontawesome - https://fontawesome.com License - https://fontawesome.com/license (Commercial License) Copyright 2024 Fonticons, Inc. --><path d="M240 480l-56-56-11.3-11.3-10.9 11.7L90.9 500.3 80 512 68.7 500.7 11.3 443.3 0 432l11.7-10.9 75.9-70.8 11.7-10.9L88 328 32 272l0-108.8 97.6-97.6c87.5-87.5 229.3-87.5 316.8 0c67.1 67.1 82.7 166.3 46.8 248.3c-4.3-3.3-8.8-6.3-13.6-9c31.9-75.7 17.1-166.4-44.6-228c-81.2-81.2-212.9-81.2-294.2 0L82.6 135.3 303 355.7c-2.7 5-5 10.2-7 15.6L71.3 146.6 48 169.8l0 95.5L110.6 328l11.7 11.7L110.2 351 23 432.4 79.6 489 161 401.8l11.3-12.1L184 401.4 246.6 464l50.7 0c2.2 5.5 4.9 10.9 7.8 16L240 480zm256-64a80 80 0 1 0 -160 0 80 80 0 1 0 160 0zm-176 0a96 96 0 1 1 192 0 96 96 0 1 1 -192 0z"/></svg>