<svg xmlns="http://www.w3.org/2000/svg" viewBox="0 0 640 512"><!--! Font Awesome Pro 6.6.0 by @fontawesome - https://fontawesome.com License - https://fontawesome.com/license (Commercial License) Copyright 2024 Fonticons, Inc. --><path d="M136 32l0 8 0 268.9 112-37.3L248 40l0-8 16 0 0 8 0 226.2 112-37.3L376 40l0-8 16 0 0 8 0 183.6 112-37.3L504 40l0-8 16 0 0 8 0 140.9 85.5-28.5 7.6-2.5 5.1 15.2-7.6 2.5L520 197.8 520 472l0 8-16 0 0-8 0-268.9L392 240.4 392 472l0 8-16 0 0-8 0-226.2L264 283.1 264 472l0 8-16 0 0-8 0-183.6L136 325.8 136 472l0 8-16 0 0-8 0-140.9L34.5 359.6l-7.6 2.5-5.1-15.2 7.6-2.5L120 314.2 120 40l0-8 16 0z"/></svg>