<svg xmlns="http://www.w3.org/2000/svg" viewBox="0 0 512 512"><!--! Font Awesome Pro 6.6.0 by @fontawesome - https://fontawesome.com License - https://fontawesome.com/license (Commercial License) Copyright 2024 Fonticons, Inc. --><path d="M416 0l0 8 0 27.6c0 41 9.5 81.4 27.9 118.1l5 9.9c.1 .2 .2 .3 .2 .5c18.3 31.4 37.6 75.1 36.9 124.7c-.6 48.6-20.4 103.7-81.1 159.3l-297.8 0C46.4 392.4 26.6 337.2 26 288.7c-.6-49.5 18.6-93.2 36.9-124.7c.1-.1 .2-.3 .2-.5l5-9.9C86.5 117 96 76.6 96 35.6L96 8l0-8L80 0l0 8 0 27.6c0 38.5-9 76.5-26.2 110.9L49 156.2C30 188.8 9.3 235.3 10 288.9c.7 53.3 22.6 112.5 86 170.6L96 512l16 0 0-48 88 0 0 48 16 0 0-48 80 0 0 48 16 0 0-48 88 0 0 48 16 0 0-52.5c63.4-58.2 85.3-117.3 86-170.6c.7-53.6-20-100.2-39-132.7l-4.9-9.7C441 112 432 74.1 432 35.6L432 8l0-8L416 0zM264 96l-16 0 0 8 0 160 0 8 16 0 0-8 0-160 0-8zM240 304l0 32 32 0 0-32-32 0z"/></svg>