<svg xmlns="http://www.w3.org/2000/svg" viewBox="0 0 640 512"><!--! Font Awesome Pro 6.6.0 by @fontawesome - https://fontawesome.com License - https://fontawesome.com/license (Commercial License) Copyright 2024 Fonticons, Inc. --><path d="M14.7 496l11.8-28.2C60.1 382.6 64 281.9 64 192C64 86 107 0 160 0L492.2 0l0 .1c1.3-.1 2.5-.1 3.8-.1c35.1 0 63.4 25.9 81.9 59.9C596.8 94.5 608 141.2 608 192s-11.2 97.5-30.1 132.1c-18.6 34-46.8 59.9-81.9 59.9c-28.5 0-52.6-17.1-70.5-41.8c.9-8.7 1.7-17.4 2.4-26.1C445.3 348.1 469.4 368 496 368c53 0 96-78.8 96-176s-43-176-96-176c-5.4 0-10.7 .8-15.9 2.4C434.7 32.3 400 104.7 400 192c0 97.5-4.4 208.3-42.4 300.3L349.3 512l-324 0L8 512l6.7-16zM160 16c-17.2 0-37 14.3-53.6 47.4C90.4 95.5 80 140.9 80 192c0 89.8-3.8 193.4-38.7 281.7l-.1 .3s0 0 0 0L32 496l306.7 0 4.1-9.9s0 0 0 0C379.4 397.5 384 289.9 384 192.5l0-.5c0-50.8 11.2-97.5 30.1-132.1c9.6-17.6 21.9-33.1 36.3-43.9L160 16zM516.6 255c-4.9 4.8-11.9 9-20.6 9s-15.7-4.2-20.6-9c-4.8-4.8-8.4-10.8-11.1-17.1c-5.4-12.6-8.3-28.8-8.3-45.9s2.9-33.3 8.3-45.9c2.7-6.3 6.3-12.3 11.1-17.1c4.9-4.8 11.9-9 20.6-9s15.7 4.2 20.6 9c4.8 4.8 8.4 10.8 11.1 17.1c5.4 12.6 8.3 28.8 8.3 45.9s-2.9 33.3-8.3 45.9c-2.7 6.3-6.3 12.3-11.1 17.1zM496 248c13.3 0 24-25.1 24-56s-10.7-56-24-56s-24 25.1-24 56s10.7 56 24 56zM112 208a16 16 0 1 1 32 0 16 16 0 1 1 -32 0zm64 0a16 16 0 1 1 32 0 16 16 0 1 1 -32 0zm80-16a16 16 0 1 1 0 32 16 16 0 1 1 0-32zm48 16a16 16 0 1 1 32 0 16 16 0 1 1 -32 0z"/></svg>