<svg xmlns="http://www.w3.org/2000/svg" viewBox="0 0 512 512"><!--! Font Awesome Pro 6.6.0 by @fontawesome - https://fontawesome.com License - https://fontawesome.com/license (Commercial License) Copyright 2024 Fonticons, Inc. --><path d="M16 192c0 49.7 11.4 94.3 29.4 126.2C63.6 350.3 87.4 368 112 368l242.8 0c-13.6-10.2-25.5-24.7-35.3-42C299.9 291.3 288 243.9 288 192s11.9-99.3 31.5-134c9.8-17.3 21.7-31.8 35.3-42L112 16C87.4 16 63.6 33.7 45.4 65.8C27.4 97.7 16 142.3 16 192zM333.4 65.8C315.4 97.7 304 142.3 304 192s11.4 94.3 29.4 126.2c18.2 32.1 42 49.8 66.6 49.8s48.4-17.7 66.6-49.8c18-31.9 29.4-76.5 29.4-126.2s-11.4-94.3-29.4-126.2C448.4 33.7 424.6 16 400 16s-48.4 17.7-66.6 49.8zM496 496l0-204.5c-4.4 12.5-9.6 24.1-15.5 34.6c-19.5 34.5-47.6 58-80.5 58l-288 0c-32.9 0-61-23.5-80.5-58C11.9 291.3 0 243.9 0 192S11.9 92.7 31.5 58C51 23.5 79.1 0 112 0L400 0c32.9 0 61 23.5 80.5 58C500.1 92.7 512 140.1 512 192l0 312 0 8-8 0-336 0-8 0 0-8 0-88 16 0 0 80 320 0zM400 264c-8.7 0-15.7-4.2-20.6-9c-4.8-4.8-8.4-10.8-11.1-17.1c-5.4-12.6-8.3-28.8-8.3-45.9s2.9-33.3 8.3-45.9c2.7-6.3 6.3-12.3 11.1-17.1c4.9-4.8 11.9-9 20.6-9s15.7 4.2 20.6 9c4.8 4.8 8.4 10.8 11.1 17.1c5.4 12.6 8.3 28.8 8.3 45.9s-2.9 33.3-8.3 45.9c-2.7 6.3-6.3 12.3-11.1 17.1c-4.9 4.8-11.9 9-20.6 9zm24-72c0-30.9-10.7-56-24-56s-24 25.1-24 56s10.7 56 24 56s24-25.1 24-56zM64 192a16 16 0 1 1 0 32 16 16 0 1 1 0-32zm80 0a16 16 0 1 1 0 32 16 16 0 1 1 0-32zm64 16a16 16 0 1 1 32 0 16 16 0 1 1 -32 0z"/></svg>