<svg xmlns="http://www.w3.org/2000/svg" viewBox="0 0 576 512"><!--! Font Awesome Pro 6.6.0 by @fontawesome - https://fontawesome.com License - https://fontawesome.com/license (Commercial License) Copyright 2024 Fonticons, Inc. --><path d="M560 128c0-43.3-10.1-84.2-28.1-120.5L546.3 .5C565.3 38.9 576 82.2 576 128s-10.7 89.1-29.7 127.5l-14.3-7.1c18-36.3 28.1-77.2 28.1-120.5zM16 128c0 43.3 10.1 84.2 28.1 120.5l-14.3 7.1C10.7 217.1 0 173.8 0 128S10.7 38.9 29.7 .5L44.1 7.5C26.1 43.8 16 84.7 16 128zm80 0c0-30.5 7.1-59.4 19.8-85l14.3 7.1C118.5 73.5 112 100 112 128s6.5 54.5 18.2 77.9L115.8 213C103.1 187.4 96 158.5 96 128zm384 0c0 30.5-7.1 59.4-19.8 85l-14.3-7.1C457.5 182.5 464 156 464 128s-6.5-54.5-18.2-77.9L460.2 43C472.9 68.6 480 97.5 480 128zM288 176a48 48 0 1 0 0-96 48 48 0 1 0 0 96zm64-48c0 32.6-24.4 59.6-56 63.5L296 504l0 8-16 0 0-8 0-312.5c-31.6-3.9-56-30.9-56-63.5c0-35.3 28.7-64 64-64s64 28.7 64 64z"/></svg>