<svg xmlns="http://www.w3.org/2000/svg" viewBox="0 0 448 512"><!--! Font Awesome Pro 6.6.0 by @fontawesome - https://fontawesome.com License - https://fontawesome.com/license (Commercial License) Copyright 2024 Fonticons, Inc. --><path d="M16 16l0 416 416 0 0-416L16 16zM0 0L16 0 432 0l16 0 0 16 0 416 0 16-16 0-68.7 0 58.3 58.3 5.7 5.7-22.6 0-64-64-233.4 0-64 64-22.6 0 5.7-5.7L84.7 448 16 448 0 448l0-16L0 16 0 0zM112 304a32 32 0 1 1 0 64 32 32 0 1 1 0-64zm16 32a16 16 0 1 0 -32 0 16 16 0 1 0 32 0zm176 0a32 32 0 1 1 64 0 32 32 0 1 1 -64 0zm32 16a16 16 0 1 0 0-32 16 16 0 1 0 0 32zM368 80L232 80l0 160 136 0 0-160zM80 80l0 160 136 0 0-160L80 80zm0-16l288 0 16 0 0 16 0 160 0 16-16 0L80 256l-16 0 0-16L64 80l0-16 16 0z"/></svg>