<svg xmlns="http://www.w3.org/2000/svg" viewBox="0 0 448 512"><!--! Font Awesome Pro 6.6.0 by @fontawesome - https://fontawesome.com License - https://fontawesome.com/license (Commercial License) Copyright 2024 Fonticons, Inc. --><path d="M349 208l19 0 16 0 0-16 0-24L235 11.6 224 0 213 11.6 64 168l0 24 0 16 16 0 19 0 21 0-13.5 16L32 312l0 24 0 16 16 0 27.5 0L96 352 83.2 368 0 472l0 24 0 16 16 0 416 0 16 0 0-16 0-24L364.8 368 352 352l20.5 0 27.5 0 16 0 0-16 0-24-74.5-88L328 208l21 0zm51 109.9l0 18.1-48 0-33.3 0 20.8 26L432 477.6l0 18.4L16 496l0-18.4L108.5 362l20.8-26L96 336l-48 0 0-18.1 84.2-99.5L154.5 192 120 192l-40 0 0-17.6L224 23.2 368 174.4l0 17.6-40 0-34.5 0 22.3 26.3L400 317.9z"/></svg>