<svg xmlns="http://www.w3.org/2000/svg" viewBox="0 0 640 512"><!--! Font Awesome Pro 6.6.0 by @fontawesome - https://fontawesome.com License - https://fontawesome.com/license (Commercial License) Copyright 2024 Fonticons, Inc. --><path d="M400 16l0 384-163.3 0c-10.4-36.9-44.4-64-84.7-64s-74.2 27.1-84.7 64L16 400 16 16l384 0zM16 416l48.4 0c-.2 2.6-.4 5.3-.4 8c0 48.6 39.4 88 88 88s88-39.4 88-88c0-2.7-.1-5.4-.4-8L400 416l.4 0c-.2 2.6-.4 5.3-.4 8c0 48.6 39.4 88 88 88s88-39.4 88-88c0-2.7-.1-5.4-.4-8l56.4 0 8 0 0-16-8 0-24 0 0-184 0-3.3-2.3-2.3-112-112L491.3 96 488 96l-72 0 0-80 0-16L400 0 16 0 0 0 0 16 0 400l0 16 16 0zM416 112l68.7 0 104 104L416 216l0-104zm0 261.4L416 232l176 0 0 168-19.3 0c-10.4-36.9-44.4-64-84.7-64c-29.8 0-56.1 14.8-72 37.4zM152 352a72 72 0 1 1 0 144 72 72 0 1 1 0-144zm264 72a72 72 0 1 1 144 0 72 72 0 1 1 -144 0zM237.7 82.3L232 76.7 220.7 88l5.7 5.7L292.7 160 104 160l-8 0 0 16 8 0 188.7 0-66.3 66.3-5.7 5.7L232 259.3l5.7-5.7 80-80 5.7-5.7-5.7-5.7-80-80z"/></svg>