<svg xmlns="http://www.w3.org/2000/svg" viewBox="0 0 640 512"><!--! Font Awesome Pro 6.6.0 by @fontawesome - https://fontawesome.com License - https://fontawesome.com/license (Commercial License) Copyright 2024 Fonticons, Inc. --><path d="M352 0l8 0L632 0l8 0 0 16-8 0L368 16l0 375.8 50.1-13.7C428.3 326.7 473.6 288 528 288c61.9 0 112 50.1 112 112s-50.1 112-112 112s-112-50.1-112-112c0-1.6 0-3.2 .1-4.7L18.1 503.7l-7.7 2.1L6.2 490.4l7.7-2.1L352 396.2 352 8l0-8zM624 400a96 96 0 1 0 -192 0 96 96 0 1 0 192 0zM318.4 194.5l1.6 6 0 19.4c-2.6 .1-5.3 .4-8 1.2c-18.2 4.9-29 23.6-24.2 41.8l2.3 8.5 4.1 15.5-15.5 4.1L112.9 335.4l-15.5 4.1L93.3 324l-2.8-10.6c-4.6-17.1-22.1-27.2-39.2-22.6S24.2 313 28.7 330l21.8 81.2 47.9-12.8 15.5-4.1 .1 .2 179.7-48.1 15.5-4.1c0 0 0 0 0 .1l10.9-2.9 0 16.6-6.8 1.8-15.5 4.1c0 0 0 0 0-.1l-15.5 4.1-164.2 44L102.6 414l-.1-.2L87.1 418l-32.5 8.7-15.5 4.1L35 415.4 13.3 334.2c-5.4-20 2.8-40.5 18.8-51.8l-2.8-10.5C16.7 225 44.6 176.7 91.5 164.1l119.1-31.9c46.9-12.6 95.2 15.3 107.8 62.2zM214.8 147.7L95.7 179.6c-38.4 10.3-61.2 49.8-50.9 88.2l2.1 7.7 .4-.1c25.6-6.9 51.9 8.3 58.8 33.9l2.8 10.6 15.5-4.1 134.9-36.2 15.5-4.1-2.3-8.5c-6.9-25.8 7.6-52.3 32.7-60.6l-2.1-7.8c-10.3-38.4-49.8-61.2-88.2-50.9z"/></svg>