<svg xmlns="http://www.w3.org/2000/svg" viewBox="0 0 640 512"><!--! Font Awesome Pro 6.6.0 by @fontawesome - https://fontawesome.com License - https://fontawesome.com/license (Commercial License) Copyright 2024 Fonticons, Inc. --><path d="M400 16l0 384-163.3 0c-10.4-36.9-44.4-64-84.7-64s-74.2 27.1-84.7 64L16 400 16 16l384 0zM16 416l48.4 0c-.2 2.6-.4 5.3-.4 8c0 48.6 39.4 88 88 88s88-39.4 88-88c0-2.7-.1-5.4-.4-8L400 416l.4 0c-.2 2.6-.4 5.3-.4 8c0 48.6 39.4 88 88 88s88-39.4 88-88c0-2.7-.1-5.4-.4-8l56.4 0 8 0 0-16-8 0-24 0 0-184 0-3.3-2.3-2.3-112-112L491.3 96 488 96l-72 0 0-80 0-16L400 0 16 0 0 0 0 16 0 400l0 16 16 0zM416 112l68.7 0 104 104L416 216l0-104zm0 261.4L416 232l176 0 0 168-19.3 0c-10.4-36.9-44.4-64-84.7-64c-29.8 0-56.1 14.8-72 37.4zM152 352a72 72 0 1 1 0 144 72 72 0 1 1 0-144zm264 72a72 72 0 1 1 144 0 72 72 0 1 1 -144 0zM272 211c0 33.1-28.1 61-64 61s-64-27.9-64-61c0-6.8 3.5-18.5 10.9-34c7.1-14.9 16.7-31.4 26.5-46.8c9.6-15 19.2-28.9 26.5-39.1c7.3 10.2 16.9 24.1 26.5 39.1c9.8 15.4 19.4 31.9 26.5 46.8c7.4 15.6 10.9 27.3 10.9 34zm-144 0c0 42.5 35.8 77 80 77s80-34.5 80-77c0-33.2-48.6-104-70.1-133.6C211.9 69.1 208 64 208 64s-3.9 5.1-9.9 13.4C176.6 107 128 177.8 128 211z"/></svg>