<svg xmlns="http://www.w3.org/2000/svg" viewBox="0 0 640 512"><!--! Font Awesome Pro 6.6.0 by @fontawesome - https://fontawesome.com License - https://fontawesome.com/license (Commercial License) Copyright 2024 Fonticons, Inc. --><path d="M16 16l0 384 51.3 0c10.4-36.9 44.4-64 84.7-64s74.2 27.1 84.7 64L400 400l0-384L16 16zM64.4 416L16 416 0 416l0-16L0 16 0 0 16 0 400 0l16 0 0 16 0 80 72 0 3.3 0 2.3 2.3 112 112 2.3 2.3 0 3.3 0 184 24 0 8 0 0 16-8 0-56.4 0c.2 2.6 .4 5.3 .4 8c0 48.6-39.4 88-88 88s-88-39.4-88-88c0-2.7 .1-5.4 .4-8l-.4 0-160.4 0c.2 2.6 .4 5.3 .4 8c0 48.6-39.4 88-88 88s-88-39.4-88-88c0-2.7 .1-5.4 .4-8zM416 216l172.7 0-104-104L416 112l0 104zm0 16l0 141.4c15.9-22.6 42.2-37.4 72-37.4c40.3 0 74.2 27.1 84.7 64l19.3 0 0-168-176 0zM224 424A72 72 0 1 0 80 424a72 72 0 1 0 144 0zm264 72a72 72 0 1 0 0-144 72 72 0 1 0 0 144zM320 128l0 8 0 104 0 16 0 56 0 8-16 0 0-8 0-56-48 0-16 0 0-16 0-96c0-38.7 27.5-71 64-78.4c5.2-1 10.5-1.6 16-1.6l0 16 0 48zM304 240l0-104 0-8 0-46c-27.6 7.1-48 32.2-48 62l0 96 48 0zM152 200s0 0 0 0l0 96 0 8-16 0 0-8 0-96 0-.5c-31-4.1-54.3-31.8-52-63.9l4-56.1 .6-8 16 1.1-.6 8-4 56.1c-1.8 25.6 18.4 47.3 44 47.3s45.9-21.7 44-47.3l-4-56.1-.6-8 16-1.1 .6 8 4 56.1c2.3 32.1-21 59.8-52 63.9l0 .5zm0-120l0 64 0 8-16 0 0-8 0-64 0-8 16 0 0 8z"/></svg>