<svg xmlns="http://www.w3.org/2000/svg" viewBox="0 0 640 512"><!--! Font Awesome Pro 6.6.0 by @fontawesome - https://fontawesome.com License - https://fontawesome.com/license (Commercial License) Copyright 2024 Fonticons, Inc. --><path d="M368 48l0 56 0 104 0 16 0 144-123.3 0c-10.4-36.9-44.4-64-84.7-64s-74.2 27.1-84.7 64L48 368l0-80 0-16 0-128 0-16 0-80 320 0zM32 288l0 80L8 368c-4.4 0-8 3.6-8 8s3.6 8 8 8l24 0 16 0 24.4 0c-.2 2.6-.4 5.3-.4 8c0 48.6 39.4 88 88 88s88-39.4 88-88c0-2.7-.1-5.4-.4-8L368 384l16 0 8.4 0c-.2 2.6-.4 5.3-.4 8c0 48.6 39.4 88 88 88s88-39.4 88-88c0-2.7-.1-5.4-.4-8l24.4 0 16 0 24 0c4.4 0 8-3.6 8-8s-3.6-8-8-8l-24 0 0-144 0-16-16 0-75.1 0L463.2 100.4C461.8 97.7 459 96 456 96l-72 0 0-48 0-16-16 0L48 32 32 32l0 16 0 80-16 0L0 128l0 16L0 272l0 16 16 0 16 0zm0-16l-16 0 0-128 16 0 0 128zm352-64l0-96 67.1 0 48 96L384 208zm0 160l0-144 127.8 0 .3 0 79.8 0 0 144-27.3 0c-10.4-36.9-44.4-64-84.7-64s-74.2 27.1-84.7 64L384 368zM88 392a72 72 0 1 1 144 0A72 72 0 1 1 88 392zm392-72a72 72 0 1 1 0 144 72 72 0 1 1 0-144z"/></svg>