<svg xmlns="http://www.w3.org/2000/svg" viewBox="0 0 640 512"><!--! Font Awesome Pro 6.6.0 by @fontawesome - https://fontawesome.com License - https://fontawesome.com/license (Commercial License) Copyright 2024 Fonticons, Inc. --><path d="M352 32l0 16-24 0 0 112 24 0 0 16-120 0-16 0-80 0-16 0-80 0-16 0L0 176l0-16 24 0L24 48 0 48 0 32l352 0zM312 48l-80 0 0 112 80 0 0-112zm-96 0l-80 0 0 112 80 0 0-112zm-96 0L40 48l0 112 80 0 0-112zM384 96l8 0 112 0 3.3 0 2.3 2.3 128 128 2.3 2.3 0 3.3 0 176 0 8-8 0-56.4 0c.2 2.6 .4 5.3 .4 8c0 48.6-39.4 88-88 88s-88-39.4-88-88c0-2.7 .1-5.4 .4-8l-160.7 0c.2 2.6 .4 5.3 .4 8c0 48.6-39.4 88-88 88s-88-39.4-88-88c0-2.7 .1-5.4 .4-8L8 416l-8 0 0-8L0 232l0-8 8 0 376 0 0-120 0-8zm0 144L16 240l0 160 51.3 0c10.4-36.9 44.4-64 84.7-64s74.2 27.1 84.7 64l166.6 0c10.4-36.9 44.4-64 84.7-64s74.2 27.1 84.7 64l51.3 0 0-160-224 0-16 0zm228.7-16l-112-112L400 112l0 112 212.7 0zM224 424A72 72 0 1 0 80 424a72 72 0 1 0 144 0zm264 72a72 72 0 1 0 0-144 72 72 0 1 0 0 144z"/></svg>