<svg xmlns="http://www.w3.org/2000/svg" viewBox="0 0 384 512"><!--! Font Awesome Pro 6.6.0 by @fontawesome - https://fontawesome.com License - https://fontawesome.com/license (Commercial License) Copyright 2024 Fonticons, Inc. --><path d="M224 176l0 16 0 224 0 16 16 0 128 0 0 64-208 0 0-304 0-16-16 0-96 0 0-9.4 144-144 144 144 0 9.4-96 0-16 0zm128-16L203.3 11.3 192 0 180.7 11.3 32 160l0 16 0 16 16 0 80 0 16 0 0 16 0 288 0 16 16 0 208 0 16 0 0-16 0-64 0-16-16 0-112 0-16 0 0-16 0-192 0-16 16 0 80 0 16 0 0-16 0-16z"/></svg>