<svg xmlns="http://www.w3.org/2000/svg" viewBox="0 0 448 512"><!--! Font Awesome Pro 6.6.0 by @fontawesome - https://fontawesome.com License - https://fontawesome.com/license (Commercial License) Copyright 2024 Fonticons, Inc. --><path d="M160 192l-16 0-64 0-16 0 0-16 0-16L212.7 11.3 224 0l11.3 11.3L384 160l0 16 0 16-16 0-64 0-16 0 0 16 0 128 0 16-16 0-96 0-16 0 0-16 0-128 0-16zm0-16l16 0 0 16 0 144 96 0 0-144 0-16 16 0 80 0 0-9.4L224 22.6 80 166.6l0 9.4 80 0zM16 328l0 168 416 0 0-168 0-8 16 0 0 8 0 176 0 8-8 0L8 512l-8 0 0-8L0 328l0-8 16 0 0 8z"/></svg>