<svg xmlns="http://www.w3.org/2000/svg" viewBox="0 0 576 512"><!--! Font Awesome Pro 6.6.0 by @fontawesome - https://fontawesome.com License - https://fontawesome.com/license (Commercial License) Copyright 2024 Fonticons, Inc. --><path d="M336 127.8l-1 16c-1.6 25-11.3 47.7-26.5 65.4l-30.8-30.8-2.3-2.3-3.3 0-96 0-3.3 0-2.3 2.3-30.8 30.8c-15.2-17.8-25-40.4-26.5-65.4l-1-16 0-12.9 0-2.8 80 0 3.3 0 2.3-2.3L224 83.3l26.3 26.3 2.3 2.3 3.3 0 80 0 0 2.8 0 12.9zm-38.8 92.8C277.6 237.7 251.9 248 224 248s-53.6-10.3-73.2-27.5L179.3 192l89.4 0 28.5 28.5zM352 112l0-8C352 46.6 305.4 0 248 0L200 0C142.6 0 96 46.6 96 104l0 8L64 200l0 40 32 32 0 32 48 48 32 0 32 32 32 0 32-32 32 0 48-48 0-32 32-32 0-40-32-88zM224 264c64.2 0 117.8-47.7 126.1-110.4L368 202.8l0 30.6-27.3 27.3-4.7 4.7 0 6.6 0 25.4L297.4 336 272 336l-6.6 0-4.7 4.7L233.4 368l-18.7 0-27.3-27.3-4.7-4.7-6.6 0-25.4 0L112 297.4l0-25.4 0-6.6-4.7-4.7L80 233.4l0-30.6 17.9-49.2C106.2 216.3 159.8 264 224 264zM335.6 96l-76.3 0L232 68.7 232 56l0-8-16 0 0 8 0 12.7L188.7 96l-76.3 0c4-44.9 41.7-80 87.6-80l48 0c45.9 0 83.6 35.1 87.6 80zM428 400l-21.7 86.9L400 512l20.4-15.8L576 376l0-8 0-16-16 0-47.5 0L496 352l4-16 21.7-86.9L528 224l-20.4 15.8L352 360l0 8 0 16 16 0 47.5 0 16.5 0-4 16zm-60-32l0-.1 133.3-103-20.8 83.3-5 19.9 20.5 0 64 0 0 .1-133.3 103 20.8-83.3 5-19.9L432 368l-64 0zm3 128L22.2 496 75.5 336l1.8-5.4-4-4L66.7 320 64 320 5.3 496 0 512l16.9 0L367 512l4-16z"/></svg>