<svg xmlns="http://www.w3.org/2000/svg" viewBox="0 0 640 512"><!--! Font Awesome Pro 6.6.0 by @fontawesome - https://fontawesome.com License - https://fontawesome.com/license (Commercial License) Copyright 2024 Fonticons, Inc. --><path d="M321.6 208a64 64 0 1 0 0-128 64 64 0 1 0 0 128zm0-144a80 80 0 1 1 0 160 80 80 0 1 1 0-160zM440.9 368l-36-96-169.8 0-36 96 241.8 0zM224 256l192 0 42 112 6 16-17.1 0-253.8 0L176 384l6-16 42-112zM8 448l624 0 8 0 0 16-8 0L8 464l-8 0 0-16 8 0zM195.2 128a48 48 0 1 0 -96 0 48 48 0 1 0 96 0zm-112 0a64 64 0 1 1 128 0 64 64 0 1 1 -128 0zM496 176a48 48 0 1 0 0-96 48 48 0 1 0 0 96zm0-112a64 64 0 1 1 0 128 64 64 0 1 1 0-128zM75.5 240L54.2 304l117.6 0-6 16-117 0L32 320l5.3-16L64 224l137.8 0-6 16L75.5 240zm392.6 64l117.6 0-21.3-64-120.3 0-6-16L576 224l26.7 80 5.3 16-16.9 0-117 0-6-16z"/></svg>