<svg xmlns="http://www.w3.org/2000/svg" viewBox="0 0 448 512"><!--! Font Awesome Pro 6.6.0 by @fontawesome - https://fontawesome.com License - https://fontawesome.com/license (Commercial License) Copyright 2024 Fonticons, Inc. --><path d="M30.2 72L224 16.6 417.8 72 224 127.4 30.2 72zM224 144L448 80l0-16L224 0 0 64 0 80l32 9.1 0 77.7L3.5 261.7 .4 272l10.8 0 57.6 0 10.8 0-3.1-10.3L48 166.8l0-73.1L224 144zm8 352l0-57.2 3.7-3.9 93.1-99 43.7 0 53.3 160L232 496zM22.2 496L75.5 336l43.7 0 93.1 99 3.7 3.9 0 57.2L22.2 496zM321.9 320L235 412.3 224 424l-11-11.7L126.1 320 64 320 5.3 496 0 512l16.9 0 414.3 0 16.9 0-5.3-16L384 320l-62.1 0zM96 176c0 70.7 57.3 128 128 128s128-57.3 128-128l0-35.3-16 4.6 0 30.7c0 61.9-50.1 112-112 112s-112-50.1-112-112l0-30.7-16-4.6L96 176zM22 256l18-60.2L58 256 22 256z"/></svg>