<svg xmlns="http://www.w3.org/2000/svg" viewBox="0 0 640 512"><!--! Font Awesome Pro 6.6.0 by @fontawesome - https://fontawesome.com License - https://fontawesome.com/license (Commercial License) Copyright 2024 Fonticons, Inc. --><path d="M224 16a112 112 0 1 1 0 224 112 112 0 1 1 0-224zm0 240A128 128 0 1 0 224 0a128 128 0 1 0 0 256zM75.8 320l296.4 0 54.2 176L21.7 496 75.8 320zM384 304L64 304 4.9 496 0 512l16.7 0 414.5 0 16.7 0-4.9-16L384 304zM629.7 149.7l5.7-5.7L624 132.7l-5.7 5.7L496 260.7l-58.3-58.3-5.7-5.7L420.7 208l5.7 5.7 64 64 5.7 5.7 5.7-5.7 128-128z"/></svg>