<svg xmlns="http://www.w3.org/2000/svg" viewBox="0 0 448 512"><!--! Font Awesome Pro 6.6.0 by @fontawesome - https://fontawesome.com License - https://fontawesome.com/license (Commercial License) Copyright 2024 Fonticons, Inc. --><path d="M368 99.2l0 44.8c-16 10.7-67.2 32-144 32s-128-21.3-144-32l0-44.8L48 80l0-32L224 0 400 48l0 32L368 99.2zm-16 35.6l0-35.6 0-9.1 7.8-4.7L384 70.9l0-10.7L224 16.6 64 60.2l0 10.7L88.2 85.5 96 90.1l0 9.1 0 35.6c19.2 9.7 63.8 25.2 128 25.2s108.8-15.5 128-25.2zM214 466.7L224 480l10-13.3 6.2-8.2L224 431.6l-16.2 26.9 6.2 8.2zM128 352l69.5 92.6 17-28.3-37-51.7-9-12.6 15.5 0 80 0 15.5 0-9 12.6-37 51.7 17 28.3L320 352l80 0 43.2 144 4.8 16-16.7 0L16.7 512 0 512l4.8-16L48 352l80 0zm96.6 49.4L248.5 368l-48.9 0 23.9 33.4 .6-1 .6 1zM328 368L236.8 489.6 232 496l194.5 0L388.1 368 328 368zM216 496l-4.8-6.4L120 368l-60.1 0L21.5 496 216 496zM96.3 183.3c4.8 2.3 10.1 4.5 15.7 6.7c0 .7 0 1.3 0 2c0 61.9 50.1 112 112 112s112-50.1 112-112c0-.7 0-1.3 0-2c5.7-2.2 10.9-4.4 15.7-6.7c.2 2.9 .3 5.8 .3 8.7c0 70.7-57.3 128-128 128s-128-57.3-128-128c0-2.9 .1-5.8 .3-8.7zM320 432l8 0 48 0 8 0 0 16-8 0-48 0-8 0 0-16zM163.6 64.8L224 95.1l60.4-30.2 7.2-3.6 7.2 14.3-7.2 3.6-64 32-3.6 1.8-3.6-1.8-64-32-7.2-3.6 7.2-14.3 7.2 3.6z"/></svg>