<svg xmlns="http://www.w3.org/2000/svg" viewBox="0 0 448 512"><!--! Font Awesome Pro 6.6.0 by @fontawesome - https://fontawesome.com License - https://fontawesome.com/license (Commercial License) Copyright 2024 Fonticons, Inc. --><path d="M279 30.4L212.2 112l-99.1 0c7.8-54.3 54.4-96 110.9-96c20 0 38.7 5.2 55 14.4zm13.4 8.9c18.4 14.2 32.2 33.9 39 56.7L284 96 265.8 71.8l26.6-32.5zm-70.2 85.8l33.2-40.6 18.2 24.3L276 112l4 0 54.9 0c.7 5.2 1.1 10.6 1.1 16l0 8 0 8c0 61.9-50.1 112-112 112s-112-50.1-112-112l0-8 0-8 104 0 3.8 0 2.4-2.9zM224 0C153.3 0 96 57.3 96 128l0 8 0 8 0 36L35.2 225.6 32 228l0 4 0 32 0 8 8 0 80 0 8 0 0-16-8 0-72 0 0-20 57.6-43.2c19.2 46.5 65 79.2 118.4 79.2s99.2-32.7 118.4-79.2L400 236l0 20-72 0-8 0 0 16 8 0 80 0 8 0 0-8 0-32 0-4-3.2-2.4L352 180l0-36 0-8 0-8C352 57.3 294.7 0 224 0zM21.7 496L75.8 320l60.2 0 0 48.7c-22.7 3.8-40 23.6-40 47.3c0 26.5 21.5 48 48 48s48-21.5 48-48c0-23.8-17.3-43.5-40-47.3l0-48.7 144 0 0 48.7c-22.7 3.8-40 23.6-40 47.3l0 40 0 8 8 0 16 0 8 0 0-16-8 0-8 0 0-32c0-17.7 14.3-32 32-32s32 14.3 32 32l0 32-8 0-8 0 0 16 8 0 16 0 8 0 0-8 0-40c0-23.8-17.3-43.5-40-47.3l0-48.7 60.2 0 54.2 176L21.7 496zM176 416a32 32 0 1 1 -64 0 32 32 0 1 1 64 0zM64 304L4.9 496 0 512l16.7 0 414.5 0 16.7 0-4.9-16L384 304 64 304z"/></svg>