<svg xmlns="http://www.w3.org/2000/svg" viewBox="0 0 448 512"><!--! Font Awesome Pro 6.6.0 by @fontawesome - https://fontawesome.com License - https://fontawesome.com/license (Commercial License) Copyright 2024 Fonticons, Inc. --><path d="M124 0C90.9 0 64 26.9 64 60c0 23 13 43 32 53.1L96 152l0 8 0 16c0 70.7 57.3 128 128 128s128-57.3 128-128l0-16 0-8 0-38.9C371 103 384 83 384 60c0-33.1-26.9-60-60-60c-21.4 0-40.2 11.2-50.8 28.1C262.6 11.2 243.8 0 222.4 0C202 0 184 10.1 173.2 25.7C162.4 10.1 144.4 0 124 0zM112 176l0-16 224 0 0 16c0 61.9-50.1 112-112 112s-112-50.1-112-112zM80 60c0-24.3 19.7-44 44-44c19.3 0 35.7 12.4 41.6 29.7l15.1 0C186.7 28.4 203.1 16 222.4 16c21 0 38.7 14.8 43 34.6l15.6 0C285.3 30.8 303 16 324 16c24.3 0 44 19.7 44 44c0 18.3-11.2 34-27.1 40.6l-4.9 2.1 0 5.3 0 36-224 0 0-36 0-5.3-4.9-2.1C91.2 94 80 78.3 80 60zM352 368l16 0 20.1 0 38.4 128L144 496l0-85.8 174.4-69.8L352 327.4l0 24.6 0 16zm-39.5-42.4L224 360 96 310.2 80 304l0 17.2L80 336l0 16-16 0-16 0L4.8 496 0 512l16.7 0 414.6 0 16.7 0-4.8-16L400 352l-16 0-16 0 0-16 0-14.8 0-17.2-16 6.2-26.9 10.5 0-.1-12.5 5zm-109 43.6L133 397.4l-5 2 0 5.4 0 91.2L21.5 496 59.9 368 80 368l16 0 0-16 0-24.6 107.5 41.8zM240 444a12 12 0 1 0 0-24 12 12 0 1 0 0 24zm76-12a12 12 0 1 0 -24 0 12 12 0 1 0 24 0z"/></svg>