<svg xmlns="http://www.w3.org/2000/svg" viewBox="0 0 448 512"><!--! Font Awesome Pro 6.6.0 by @fontawesome - https://fontawesome.com License - https://fontawesome.com/license (Commercial License) Copyright 2024 Fonticons, Inc. --><path d="M336 128c0-5.4-.4-10.8-1.1-16L280 112l-4 0-2.4-3.2L255.4 84.5l-33.2 40.6-2.4 2.9-3.8 0-104 0 0 16c0 61.9 50.1 112 112 112s112-50.1 112-112l0-16zM284 96l47.4 0c-6.8-22.8-20.6-42.5-39-56.7L265.8 71.8 284 96zm-5-65.6C262.7 21.2 244 16 224 16c-56.4 0-103.1 41.7-110.9 96l99.1 0L279 30.4zM96 128C96 57.3 153.3 0 224 0s128 57.3 128 128l0 16c0 70.7-57.3 128-128 128s-128-57.3-128-128l0-16zm72.5 176l15.5 0 80 0 15.5 0-9 12.6-37.2 52.1 23.2 46.3L304 320l80 0 58.7 176 5.3 16-16.9 0-205.2 0-3.8 0L16.9 512 0 512l5.3-16L64 320l80 0 47.5 95.1 23.2-46.3-37.2-52.1-9-12.6zm80 16l-48.9 0 23.2 32.5 1.2-2.4 1.2 2.4L248.5 320zM209.7 487.2L134.1 336l-58.6 0L22.2 496l191.9 0-4.4-8.8zm-9.2-54.2l14.6 29.2L224 480l8.9-17.9 14.6-29.2L224 385.9l-23.5 47.1zM233.9 496l191.9 0L372.5 336l-58.6 0L238.3 487.2l-4.4 8.8z"/></svg>