<svg xmlns="http://www.w3.org/2000/svg" viewBox="0 0 640 512"><!--! Font Awesome Pro 6.6.0 by @fontawesome - https://fontawesome.com License - https://fontawesome.com/license (Commercial License) Copyright 2024 Fonticons, Inc. --><path d="M286.8 0L270.6 0l1.6 9.3 22.5 134.9L312 158l0-.7c0-4-.3-7.9-1-11.8L287.9 6.7s0 0 0 0L286.8 0zM160.5 221.8c-14.2-4.1-26.1-13.7-33.3-26.3l-22.6-17.8c4.7 35.2 34.9 62.3 71.3 62.3l7.5 0-23-18.2zM173.9 49l15.4 12.2 .6-12.7 1-20 1-20 .4-8.4-16 0L176 7.6l-1 20-1 20-.1 1.4zm54.2 42.8l16.7 13.2L240 7.6 239.6 0l-16 0 .4 8.4 4.2 83.4zm-101-79.7l14.3 11.3 2.3-14.1s0 0 0 0L145.4 0 129.2 0l-1.1 6.7s0 0 0 0l-.9 5.4zM200 504l0 8 16 0 0-8 0-238.4L200 253l0 251zM528 16l0-16L512 0l-8 0C488 0 384 32 384 176l0 38.8 16 12.6 0-51.4c0-67.7 24.2-107.4 48.9-130.3c12.5-11.6 25.5-19.2 36-23.8c5.3-2.3 9.9-3.8 13.4-4.8c3.7-1 5.6-1.1 5.7-1.1c0 0 0 0 0 0l8 0 0 299.8 16 12.6L528 16zM16.2 5L9.9 0 0 12.5l6.3 5L623.8 507l6.3 5 9.9-12.5-6.3-5L16.2 5z"/></svg>