<svg xmlns="http://www.w3.org/2000/svg" viewBox="0 0 640 512"><!--! Font Awesome Pro 6.6.0 by @fontawesome - https://fontawesome.com License - https://fontawesome.com/license (Commercial License) Copyright 2024 Fonticons, Inc. --><path d="M144 368a128 128 0 1 0 0-256 128 128 0 1 0 0 256zM288 240c0 55.7-31.7 104.1-78 128L430 368c-46.3-23.9-78-72.3-78-128c0-79.5 64.5-144 144-144s144 64.5 144 144s-64.5 144-144 144l-352 0C64.5 384 0 319.5 0 240S64.5 96 144 96s144 64.5 144 144zM496 368a128 128 0 1 0 0-256 128 128 0 1 0 0 256zM144 304a64 64 0 1 0 0-128 64 64 0 1 0 0 128zm0-144a80 80 0 1 1 0 160 80 80 0 1 1 0-160zm416 80a64 64 0 1 0 -128 0 64 64 0 1 0 128 0zm-144 0a80 80 0 1 1 160 0 80 80 0 1 1 -160 0z"/></svg>