<svg xmlns="http://www.w3.org/2000/svg" viewBox="0 0 512 512"><!--! Font Awesome Pro 6.6.0 by @fontawesome - https://fontawesome.com License - https://fontawesome.com/license (Commercial License) Copyright 2024 Fonticons, Inc. --><path d="M464.7 374.6l-85.4 32.3-1.9 .7-2-.3L177.3 381.7l-9.5 97.6C195.1 490.1 224.9 496 256 496c89.4 0 167.4-48.9 208.7-121.4zm10.7-21.1C488.6 323.7 496 290.7 496 256c0-6.2-.2-12.4-.7-18.5l-92 41.8-2 .9-2.2-.2L259.7 264.5 184.6 366.5l190.8 24.7 99.9-37.8zm18-132.7C476.4 104.9 376.6 16 256 16c-.5 0-1.1 0-1.6 0l70.6 57.8 1.5 1.3 .8 1.8 76.8 184.4 89.2-40.5zM230.7 17.3C190.1 21.6 152.4 36 120.3 58l82.2 58.8 1.8 1.3 .9 2 56.3 128.5 125.9 14-74-177.6L230.7 17.3zM106.8 68C51.5 112 16 179.8 16 256c0 44.3 12 85.8 32.9 121.4l14.7-90.1 .3-2 1.2-1.6L186.5 125 106.8 68zM61.9 397.2c23.3 32 54.4 58 90.4 75.3l9.8-100.6 .2-2.2 1.3-1.8 83.1-113L196 138.9 79.1 291.8 61.9 397.2zM0 256a256 256 0 1 1 512 0A256 256 0 1 1 0 256z"/></svg>