<svg xmlns="http://www.w3.org/2000/svg" viewBox="0 0 512 512"><!--! Font Awesome Pro 6.6.0 by @fontawesome - https://fontawesome.com License - https://fontawesome.com/license (Commercial License) Copyright 2024 Fonticons, Inc. --><path d="M496 256A240 240 0 1 0 16 256a240 240 0 1 0 480 0zM0 256a256 256 0 1 1 512 0A256 256 0 1 1 0 256zM264 72l0 80 80 0 0-48 0-8 16 0 0 8 0 48 48 0 8 0 0 16-8 0-48 0 0 80 80 0 8 0 0 16-8 0-80 0 0 80 48 0 8 0 0 16-8 0-48 0 0 48 0 8-16 0 0-8 0-48-80 0 0 80 0 8-16 0 0-8 0-80-80 0 0 48 0 8-16 0 0-8 0-48-48 0-8 0 0-16 8 0 48 0 0-80-80 0-8 0 0-16 8 0 80 0 0-80-48 0-8 0 0-16 8 0 48 0 0-48 0-8 16 0 0 8 0 48 80 0 0-80 0-8 16 0 0 8zm-96 96l0 80 80 0 0-80-80 0zm0 96l0 80 80 0 0-80-80 0zm96 0l0 80 80 0 0-80-80 0zm0-16l80 0 0-80-80 0 0 80z"/></svg>