<svg xmlns="http://www.w3.org/2000/svg" viewBox="0 0 640 512"><!--! Font Awesome Pro 6.6.0 by @fontawesome - https://fontawesome.com License - https://fontawesome.com/license (Commercial License) Copyright 2024 Fonticons, Inc. --><path d="M365.7 61.7l48-48L402.3 2.3l-48 48L348.7 56 360 67.3l5.7-5.7zm96 96l48-48L498.3 98.3l-48 48-5.7 5.7L456 163.3l5.7-5.7zm40-136l5.7-5.7L496 4.7l-5.7 5.7L336.9 163.8c5.7-38.7-6.4-79.4-36.1-109.1L289.5 43.3 278.2 32 266.8 43.3 255.5 54.6c-37.5 37.5-37.5 98.3 0 135.8l27.4 27.4-47.8 47.8c5.7-38.7-6.4-79.4-36.1-109.1l-11.3-11.3-11.3-11.3L165 145.1l-11.3 11.3c-37.5 37.5-37.5 98.3 0 135.8l27.4 27.4-47.8 47.8c5.7-38.7-6.4-79.4-36.1-109.1L85.8 247 74.5 235.6 63.2 247 51.9 258.3c-37.5 37.5-37.5 98.3 0 135.8l27.4 27.4L5.5 495.1l-5.7 5.7 11.3 11.3 5.7-5.7 73.7-73.7 29.2 29.2c37.5 37.5 98.3 37.5 135.8 0l11.3-11.3 11.3-11.3L266.8 428l-11.3-11.3C224.7 385.8 182 374 142.1 381.2l50.3-50.3 29.2 29.2c26.8 26.8 65.5 34.4 99 22.9c-.4-5-.6-10-.6-15l0-1.8c-29 12-63.6 6.2-87.1-17.4l-29.2-29.2 15.8-15.8c35-16.3 76.8-13.5 109.5 8.4c1.7-5.2 3.7-10.3 5.9-15.2c-27.5-17.3-60.1-23.1-91-17.5l50.3-50.3 29.2 29.2c7 7 14.7 12.6 23 17c2.8-4.6 5.9-9 9.1-13.3c-7.5-3.8-14.5-8.8-20.8-15l-29.2-29.2L321.3 202c33.1-15.4 72.1-13.8 103.9 4.8c6-2.7 12.2-5 18.6-6.9c-28.8-21-64.4-28.4-98.1-22.3L501.7 21.7zM289.5 65.9c32.5 32.5 40.9 80 25 120.2l-20.3 20.3-27.4-27.4c-31.2-31.2-31.2-81.9 0-113.1l11.3-11.3 11.3 11.3zM187.6 167.8c32.5 32.5 40.9 80 25 120.2l-20.3 20.3L165 280.9c-31.2-31.2-31.2-81.9 0-113.1l11.3-11.3 11.3 11.3zM85.8 269.6c32.5 32.5 40.9 80 25 120.2L90.6 410.1 63.2 382.7C32 351.5 32 300.8 63.2 269.6l11.3-11.3 11.3 11.3zm16.1 151.8l15.8-15.8c41.5-19.3 92.3-11.9 126.5 22.3l11.3 11.3-11.3 11.3c-31.2 31.2-81.9 31.2-113.1 0l-29.2-29.2zM368 368a128 128 0 1 1 256 0 128 128 0 1 1 -256 0zm272 0a144 144 0 1 0 -288 0 144 144 0 1 0 288 0zM508 444l0-24-24 0 0 24 24 0zm-4-164l-16 0 0 8 0 96 0 8 16 0 0-8 0-96 0-8z"/></svg>