<svg xmlns="http://www.w3.org/2000/svg" viewBox="0 0 512 512"><!--! Font Awesome Pro 6.6.0 by @fontawesome - https://fontawesome.com License - https://fontawesome.com/license (Commercial License) Copyright 2024 Fonticons, Inc. --><path d="M192 80a32 32 0 1 0 0-64 32 32 0 1 0 0 64zm0-80a48 48 0 1 1 0 96 48 48 0 1 1 0-96zM137.3 209.8C68.5 220.7 16 280.2 16 352c0 79.5 64.5 144 144 144c66.4 0 122.4-45 139-106.2l15.4 4.2C296 462 233.8 512 160 512C71.6 512 0 440.4 0 352c0-79.8 58.4-145.9 134.8-158l2.5 15.8zM336 240l-47 0-16.3 0 3.2 16 6.4 32L384 288l22.2 0 7.8 20.8 37.1 99 10.7-3.6 15.2-5.1 15.2-5.1 5.1 15.2 10.2 30.3 5.1 15.2-15.2 5.1-15.2 5.1-40 13.5-29.3 9.9-10.9-29L361.8 352l-105.2 0c-.4 0-.8 0-1.3 0L224 352l-26.2 0-5.1-25.7-32-160L156.2 144 153 128l16.3 0 22.7 0 32 0 26.2 0 5.1 25.7 4.5 22.3 76.2 0 16 0 16 0 0 16 0 32 0 16-16 0-16 0zm48 64l-101.8 0-13.1 0-2.6-12.9-9.6-48L253.1 224l19.5 0 63.4 0 16 0 0-32-16 0-76.2 0-13.1 0-2.6-12.9-4.5-22.3L237.1 144 224 144l-32 0-19.5 0 3.8 19.1 32 160 2.6 12.9 13.1 0 31.3 0 .3 0s0 0 0 0c.1 0 .1 0 .2 0c.1 0 .3 0 .4 0l.3 0s0 0 0 0l105.2 0 11.1 0 3.9 10.4L417 453.6l5.4 14.5 14.7-5 40-13.5 15.2-5.1L482 414.2l-15.2 5.1-10.7 3.6-14.7 5-5.4-14.5-37.1-99L395.1 304 384 304z"/></svg>