<svg xmlns="http://www.w3.org/2000/svg" viewBox="0 0 640 512"><!--! Font Awesome Pro 6.6.0 by @fontawesome - https://fontawesome.com License - https://fontawesome.com/license (Commercial License) Copyright 2024 Fonticons, Inc. --><path d="M8 32L0 32 0 48l8 0 624 0 8 0 0-16-8 0L8 32zM8 80L0 80 0 96l8 0 624 0 8 0 0-16-8 0L8 80zM8 416l-8 0 0 16 8 0 624 0 8 0 0-16-8 0L8 416zm0 48l-8 0 0 16 8 0 624 0 8 0 0-16-8 0L8 464zM21.7 170.3L16 164.7 4.7 176l5.7 5.7L84.7 256 10.3 330.3 4.7 336 16 347.3l5.7-5.7L96 267.3l74.3 74.3 5.7 5.7L187.3 336l-5.7-5.7L107.3 256l74.3-74.3 5.7-5.7L176 164.7l-5.7 5.7L96 244.7 21.7 170.3zm224 0l-5.7-5.7L228.7 176l5.7 5.7L308.7 256l-74.3 74.3-5.7 5.7L240 347.3l5.7-5.7L320 267.3l74.3 74.3 5.7 5.7L411.3 336l-5.7-5.7L331.3 256l74.3-74.3 5.7-5.7L400 164.7l-5.7 5.7L320 244.7l-74.3-74.3zm224 0l-5.7-5.7L452.7 176l5.7 5.7L532.7 256l-74.3 74.3-5.7 5.7L464 347.3l5.7-5.7L544 267.3l74.3 74.3 5.7 5.7L635.3 336l-5.7-5.7L555.3 256l74.3-74.3 5.7-5.7L624 164.7l-5.7 5.7L544 244.7l-74.3-74.3z"/></svg>