<?xml version="1.0" standalone="no"?>
<!DOCTYPE svg PUBLIC "-//W3C//DTD SVG 1.1//EN" "http://www.w3.org/Graphics/SVG/1.1/DTD/svg11.dtd">
<svg xmlns="http://www.w3.org/2000/svg">
<defs >
<font id="ABeeZee" horiz-adv-x="539" ><font-face
    font-family="ABeeZee"
    units-per-em="1000"
    panose-1="0 0 0 0 0 0 0 0 0 0"
    ascent="920"
    descent="-262"
    alphabetic="0" />
<glyph unicode=" " glyph-name="space" horiz-adv-x="300" />
<glyph unicode="!" glyph-name="exclam" horiz-adv-x="314" d="M119 207L106 480V729H206V480L193 207H119ZM157 -12Q130 -12 110 8T90 55Q90 86 108 104T157 122Q183 122 203 102T224 55Q224 25 205 7T157 -12Z" />
<glyph unicode="&quot;" glyph-name="quotedbl" horiz-adv-x="300" d="M195 477L187 700H274L266 477H195ZM34 477L26 700H113L105 477H34Z" />
<glyph unicode="#" glyph-name="numbersign" horiz-adv-x="750" d="M140 0L162 124H71L83 197H175L218 447H127L139 520H231L253 644H333L311 520H507L529 644H609L587 520H679L667 447H574L531 197H622L610 124H518L496 0H416L438 124H242L220 0H140ZM255 197H451L494
447H298L255 197Z" />
<glyph unicode="$" glyph-name="dollar" horiz-adv-x="600" d="M251 -95L259 17Q200 21 150 38T66 82L110 156Q143 128 184 111T281 93Q347 93 385 121T424 195Q424 222 413 242T371 283T277 326Q211 352 172 378T115 437T98 517Q98 580 145 626T281 681L273 795H361L352
681Q396 678 434 667T508 639L476 564Q445 582 403 595T315 608Q254 608 219 584T184 522Q184 498 194 480T234 444T324 404Q396 378 437 349T496 285T514 206Q514 126 462 79T330 20L339 -95H251Z" />
<glyph unicode="%" glyph-name="percent" horiz-adv-x="900" d="M259 -40L199 -2L636 740L696 702L259 -40ZM208 270Q125 270 82 328T38 490Q38 594 82 650T209 707Q292 707 336 651T380 490Q380 387 336 329T208 270ZM209 337Q251 337 274 371T297 490Q297 564
274 602T208 641Q168 641 145 608T121 490Q121 415 144 376T209 337ZM690 -6Q607 -6 564 52T520 214Q520 318 564 374T691 431Q774 431 818 375T862 214Q862 111 818 53T690 -6ZM691 61Q733 61 756 95T779 214Q779 288 756 326T690 365Q650 365 627 332T603 214Q603
139 626 100T691 61Z" />
<glyph unicode="&amp;" glyph-name="ampersand" horiz-adv-x="737" d="M310 -12Q250 -12 200 11T120 77T90 178Q90 241 122 292T228 384Q191 425 173 461T154 544Q154 592 175 630T237 690T331 712Q385 712 422 692T480 637T500 562Q500 498 463 453T346 369L511
212Q524 235 530 261T541 314T558 362T591 397T651 410L673 339Q642 339 628 321T608 275T594 217T569 160L687 52L631 -8L525 92Q485 46 435 17T310 -12ZM302 416Q364 448 390 480T417 553Q417 589 393 614T329 640Q289 640 263 613T237 545Q237 480 302 416ZM324
70Q367 70 404 90T470 147L273 336Q229 305 207 272T185 191Q185 139 224 105T324 70Z" />
<glyph unicode="&apos;" glyph-name="quotesingle" horiz-adv-x="150" d="M40 478L32 700H119L111 478H40Z" />
<glyph unicode="(" glyph-name="parenleft" horiz-adv-x="300" d="M189 -123Q127 -13 92 95T57 320Q57 445 92 551T189 763L242 733Q205 649 179 546T152 320Q152 199 178 96T242 -93L189 -123Z" />
<glyph unicode=")" glyph-name="parenright" horiz-adv-x="300" d="M111 -123L58 -93Q96 -7 122 96T148 320Q148 442 122 545T58 733L111 763Q173 658 208 552T243 320Q243 204 208 96T111 -123Z" />
<glyph unicode="*" glyph-name="asterisk" horiz-adv-x="450" d="M161 418L98 465L174 557L57 587L81 663L195 617L186 740H266L257 619L371 663L394 588L278 559L355 465L291 419L227 522L161 418Z" />
<glyph unicode="+" glyph-name="plus" horiz-adv-x="600" d="M258 141V304H105V382H258V545H343V382H495V304H343V141H258Z" />
<glyph unicode="," glyph-name="comma" horiz-adv-x="300" d="M79 -160L30 -132Q70 -81 94 -29T132 90L220 65Q210 -11 173 -68T79 -160Z" />
<glyph unicode="-" glyph-name="hyphen" horiz-adv-x="600" d="M130 302V384H470V302H130Z" />
<glyph unicode="." glyph-name="period" horiz-adv-x="300" d="M150 -12Q123 -12 103 8T83 55Q83 86 101 104T150 122Q176 122 196 102T217 55Q217 25 198 7T150 -12Z" />
<glyph unicode="/" glyph-name="slash" horiz-adv-x="450" d="M121 -71L47 -46L329 773L403 748L121 -71Z" />
<glyph unicode="0" glyph-name="zero" horiz-adv-x="600" d="M299 -12Q182 -12 121 83T60 351Q60 524 122 618T301 712Q418 712 479 617T540 349Q540 176 478 82T299 -12ZM300 70Q345 70 377 96T427 184T445 348Q445 486 407 558T300 630Q255 630 223 604T173
517T155 352Q155 214 193 142T300 70Z" />
<glyph unicode="1" glyph-name="one" horiz-adv-x="600" d="M144 0V80H287V585L153 484L104 551L311 700H377V80H496V0H144Z" />
<glyph unicode="2" glyph-name="two" horiz-adv-x="600" d="M88 0Q85 18 85 37Q85 102 107 153T166 247T242 326T318 396T377 464T400 535Q400 577 369 604T289 632Q247 632 213 616T148 571L98 632Q138 668 186 690T299 712Q358 712 402 690T470 628T495 541Q495
493 474 452T420 375T349 306T276 237T217 164T186 82H494V0H88Z" />
<glyph unicode="3" glyph-name="three" horiz-adv-x="600" d="M259 -12Q194 -12 146 5T64 48L105 123Q133 102 170 86T260 70Q326 70 364 105T403 192Q403 229 383 259T322 309T214 328H158V401H210Q269 401 307 419T365 466T384 527Q384 574 349 603T261 632Q214
632 178 617T118 582L81 653Q111 673 158 692T268 712Q334 712 380 688T450 625T475 539Q475 480 446 440T362 374Q425 350 460 304T496 195Q496 143 471 96T393 18T259 -12Z" />
<glyph unicode="4" glyph-name="four" horiz-adv-x="600" d="M363 0V149H64V221L273 707L351 674L162 231H363V430H453V231H536V149H453V0H363Z" />
<glyph unicode="5" glyph-name="five" horiz-adv-x="600" d="M270 -12Q209 -12 165 1T85 40L132 117Q160 97 194 84T271 70Q338 70 379 108T420 207Q420 269 378 308T256 348H132V700H478V619H217V429H267Q345 429 400 402T485 327T515 217Q515 150 485 99T399
18T270 -12Z" />
<glyph unicode="6" glyph-name="six" horiz-adv-x="600" d="M304 -12Q241 -12 188 19T102 117T70 284Q70 369 92 444T160 578T273 669T429 702Q438 702 448 702T467 700V618Q459 619 449 619T430 620Q321 620 251 554T164 371Q192 398 236 420T336 443Q392 443
436 417T505 345T531 234Q531 161 502 106T421 19T304 -12ZM308 70Q368 70 404 114T441 223Q441 288 406 328T313 368Q270 368 231 347T162 291V269Q164 175 205 123T308 70Z" />
<glyph unicode="7" glyph-name="seven" horiz-adv-x="600" d="M195 0Q195 115 210 204T255 366T329 499T430 618H93V700H537V628Q468 561 422 498T348 364T308 205T296 0H195Z" />
<glyph unicode="8" glyph-name="eight" horiz-adv-x="600" d="M305 -12Q229 -12 173 14T87 84T56 183Q56 248 91 296T203 377Q150 406 122 444T93 540Q93 591 120 629T193 690T297 712Q359 712 406 690T479 628T506 541Q506 480 475 442T392 378Q466 347 505 301T544
189Q544 129 513 84T428 13T305 -12ZM310 411Q354 426 386 457T419 532Q419 578 384 608T297 638Q246 638 213 612T180 542Q180 499 215 464T310 411ZM306 68Q370 68 411 101T452 187Q452 235 410 273T292 338Q254 329 221 310T168 263T148 199Q148 162 168 132T225
85T306 68Z" />
<glyph unicode="9" glyph-name="nine" horiz-adv-x="600" d="M264 -12Q206 -12 160 8T76 66L135 133Q195 70 269 70Q310 70 345 97T401 184T423 336Q392 308 354 289T272 270Q219 270 172 294T95 366T65 484Q65 547 93 599T173 681T291 712Q343 712 380 696T442
654Q466 629 482 596T507 508T515 366Q515 233 482 150T393 27T264 -12ZM287 344Q325 344 360 363T423 409V439Q423 534 387 583T288 632Q231 632 192 593T152 488Q152 443 171 411T220 361T287 344Z" />
<glyph unicode=":" glyph-name="colon" horiz-adv-x="300" d="M150 398Q123 398 103 418T83 465Q83 496 101 514T150 532Q176 532 196 512T217 465Q217 435 198 417T150 398ZM150 -12Q123 -12 103 8T83 55Q83 86 101 104T150 122Q176 122 196 102T217 55Q217 25
198 7T150 -12Z" />
<glyph unicode=";" glyph-name="semicolon" horiz-adv-x="300" d="M320 -160L271 -132Q311 -81 335 -29T373 90L461 65Q451 -11 414 -68T320 -160ZM153 398Q126 398 106 418T86 465Q86 496 104 514T153 532Q179 532 199 512T220 465Q220 435 201 417T153 398Z" />
<glyph unicode="&lt;" glyph-name="less" horiz-adv-x="600" d="M432 114L113 314V371L433 572L477 502L218 343L477 185L432 114Z" />
<glyph unicode="=" glyph-name="equal" horiz-adv-x="600" d="M103 395V474H497V395H103ZM103 213V292H497V213H103Z" />
<glyph unicode="&gt;" glyph-name="greater" horiz-adv-x="600" d="M168 114L123 185L382 343L123 502L167 572L487 371V314L168 114Z" />
<glyph unicode="?" glyph-name="question" horiz-adv-x="491" d="M166 207Q161 224 159 244T156 281Q156 332 175 366T222 426T278 474T325 521T344 582Q344 617 317 643T244 670Q203 670 170 650T110 595L45 647Q85 696 134 724T252 752Q308 752 350 730T417
671T441 589Q441 538 421 504T372 445T314 395T264 340T244 263V207H166ZM210 -12Q183 -12 163 8T143 55Q143 86 161 104T210 122Q236 122 256 102T277 55Q277 25 258 7T210 -12Z" />
<glyph unicode="@" glyph-name="at" horiz-adv-x="1050" d="M514 -232Q386 -232 286 -181T129 -31T72 212Q72 312 106 402T204 562T357 672T558 712Q652 712 729 682T861 598T947 472T977 316Q977 220 947 146T865 30T746 -12Q696 -12 665 14T628 83Q600 49 561
25T471 0Q421 0 378 25T308 99T282 214Q282 290 313 350T396 446T512 482Q564 482 600 461T658 408L667 475H746L705 148Q702 126 702 113Q702 85 714 69T754 52Q789 52 819 85T867 176T885 311Q885 404 843 476T725 590T552 632Q459 632 387 596T265 500T190 366T164
215Q164 99 210 17T338 -108T520 -152Q596 -152 656 -134T769 -90L798 -166Q746 -194 672 -213T514 -232ZM498 74Q537 74 570 95T623 142L647 340Q628 372 596 392T522 412Q482 412 447 389T390 324T368 227Q368 151 406 113T498 74Z" />
<glyph unicode="A" glyph-name="A" horiz-adv-x="668" d="M571 -10L493 190H169L91 -8L10 25L284 700H388L658 25L571 -10ZM199 270H462L331 606L199 270Z" />
<glyph unicode="B" glyph-name="B" horiz-adv-x="630" d="M292 -8Q231 -8 177 -5T90 2V698Q125 702 177 705T296 708Q424 708 493 660T562 528Q562 473 533 435T447 371Q515 347 550 305T585 200Q585 105 510 49T292 -8ZM185 398H295Q374 398 420 431T467 516Q467
572 421 601T295 631Q262 631 235 630T185 626V398ZM299 71Q388 71 438 103T488 196Q488 256 439 290T299 324H185V77Q238 71 299 71Z" />
<glyph unicode="C" glyph-name="C" horiz-adv-x="594" d="M359 -12Q268 -12 198 31T89 155T50 347Q50 454 89 536T201 665T371 712Q421 712 462 703T539 676L510 596Q479 611 447 620T370 629Q306 629 256 596T176 501T147 351Q147 267 175 204T254 106T370 71Q419
71 455 83T525 114L554 35Q517 15 470 2T359 -12Z" />
<glyph unicode="D" glyph-name="D" horiz-adv-x="682" d="M274 -8Q217 -8 175 -5T90 2V698Q137 703 182 705T285 708Q375 708 440 680T548 603T611 490T632 351Q632 278 611 213T547 99T436 21T274 -8ZM277 75Q367 75 424 110T508 207T535 351Q535 423 508 486T425
587T282 626Q253 626 229 625T185 621V80Q206 77 229 76T277 75Z" />
<glyph unicode="E" glyph-name="E" horiz-adv-x="555" d="M90 0V700H510V618H185V405H465V325H185V82H510V0H90Z" />
<glyph unicode="F" glyph-name="F" horiz-adv-x="535" d="M90 0V700H505V618H185V404H452V326H185V0H90Z" />
<glyph unicode="G" glyph-name="G" horiz-adv-x="674" d="M329 -12Q248 -12 185 30T86 149T50 332Q50 444 88 529T197 663T370 712Q435 712 486 696T582 655L547 576Q505 599 462 614T365 629Q302 629 253 596T176 497T147 338Q147 254 173 195T245 103T351 71Q407
71 450 94T519 143V296H374V371H609V0H525V70Q490 39 440 14T329 -12Z" />
<glyph unicode="H" glyph-name="H" horiz-adv-x="715" d="M90 0V700H185V401H530V700H625V0H530V319H185V0H90Z" />
<glyph unicode="I" glyph-name="I" horiz-adv-x="275" d="M90 0V700H185V0H90Z" />
<glyph unicode="J" glyph-name="J" horiz-adv-x="430" d="M154 -12Q108 -12 68 4T0 46L46 119Q66 98 94 84T151 70Q199 70 227 104T255 221V700H350V231Q350 104 296 46T154 -12Z" />
<glyph unicode="K" glyph-name="K" horiz-adv-x="601" d="M525 -12L185 322V0H90V700H185V381L483 703L547 644L274 360L591 56L525 -12Z" />
<glyph unicode="L" glyph-name="L" horiz-adv-x="511" d="M90 0V700H185V85H506V0H90Z" />
<glyph unicode="M" glyph-name="M" horiz-adv-x="834" d="M90 0V700H223L417 257L608 700H744V0H649V579L462 158H368L180 579V0H90Z" />
<glyph unicode="N" glyph-name="N" horiz-adv-x="705" d="M90 0V700H216L525 118V700H615V0H491L180 578V0H90Z" />
<glyph unicode="O" glyph-name="O" horiz-adv-x="761" d="M380 -12Q302 -12 241 16T138 94T73 210T50 351Q50 454 89 535T203 664T380 712Q457 712 518 684T623 606T688 491T711 351Q711 276 689 210T623 95T519 17T380 -12ZM380 70Q457 70 509 107T587 207T614
351Q614 405 598 455T552 544T479 607T380 630Q307 630 255 593T175 493T147 351Q147 297 162 247T208 156T281 93T380 70Z" />
<glyph unicode="P" glyph-name="P" horiz-adv-x="581" d="M90 0V698Q131 703 180 705T283 708Q370 708 431 681T524 605T556 495Q556 420 519 368T416 289T263 261Q221 261 185 264V0H90ZM275 340Q364 340 413 380T462 487Q462 552 415 590T281 628Q254 628 230
627T185 624V345Q201 343 224 342T275 340Z" />
<glyph unicode="Q" glyph-name="Q" horiz-adv-x="761" d="M375 -12Q299 -12 239 16T136 94T72 210T50 351Q50 454 89 535T200 664T375 712Q451 712 511 684T614 606T678 491T701 351Q701 273 679 216T627 116L716 67L673 -12L576 60Q539 29 489 9T375 -12ZM373
70Q414 70 447 80T505 105L429 153L469 226L559 161Q583 200 593 246T604 351Q604 405 589 455T544 544T472 607T375 630Q303 630 252 594T174 494T147 351Q147 297 162 247T206 156T277 93T373 70Z" />
<glyph unicode="R" glyph-name="R" horiz-adv-x="617" d="M498 -12L411 178Q378 249 328 279T200 309H185V0H90V698Q143 703 191 705T295 708Q423 708 487 656T552 522Q552 449 509 405T383 338Q410 326 431 310T471 266T511 194L587 30L498 -12ZM185 389H295Q367
389 412 421T457 513Q457 563 415 595T295 628Q261 628 234 627T185 624V389Z" />
<glyph unicode="S" glyph-name="S" horiz-adv-x="568" d="M264 -12Q191 -12 131 7T30 59L78 139Q114 109 159 90T264 71Q336 71 378 101T420 182Q420 211 408 233T362 277T260 324Q188 352 145 380T84 445T65 532Q65 582 92 622T173 687T303 712Q365 712 414 700T511
664L476 583Q442 603 397 616T301 630Q235 630 197 604T159 537Q159 511 170 491T213 452T311 409Q389 380 434 348T499 279T518 193Q518 128 486 82T396 12T264 -12Z" />
<glyph unicode="T" glyph-name="T" horiz-adv-x="545" d="M225 0V616H10V700H535V616H320V0H225Z" />
<glyph unicode="U" glyph-name="U" horiz-adv-x="670" d="M334 -12Q213 -12 144 60T75 266V700H170V281Q170 181 211 126T334 71Q419 71 461 124T503 281V700H595V270Q595 182 563 119T472 22T334 -12Z" />
<glyph unicode="V" glyph-name="V" horiz-adv-x="640" d="M267 0L10 675L103 711L323 104L544 708L630 675L374 0H267Z" />
<glyph unicode="W" glyph-name="W" horiz-adv-x="943" d="M205 0L15 677L109 707L267 101L416 627H535L683 101L840 704L928 677L739 0H621L473 526L323 0H205Z" />
<glyph unicode="X" glyph-name="X" horiz-adv-x="607" d="M520 -10L299 290L85 -8L10 49L245 356L20 650L99 709L302 425L503 706L577 650L359 361L597 49L520 -10Z" />
<glyph unicode="Y" glyph-name="Y" horiz-adv-x="599" d="M253 0V266L10 661L90 709L304 354L514 705L589 661L348 266V0H253Z" />
<glyph unicode="Z" glyph-name="Z" horiz-adv-x="575" d="M40 0V74L412 618H57V700H521V628L149 84H535V0H40Z" />
<glyph unicode="[" glyph-name="bracketleft" horiz-adv-x="300" d="M80 -100V740H255V665H160V-25H255V-100H80Z" />
<glyph unicode="\" glyph-name="backslash" horiz-adv-x="450" d="M329 -71L47 748L121 773L403 -46L329 -71Z" />
<glyph unicode="]" glyph-name="bracketright" horiz-adv-x="300" d="M45 -100V-25H140V665H45V740H220V-100H45Z" />
<glyph unicode="^" glyph-name="asciicircum" horiz-adv-x="600" d="M150 510L94 572L280 740H322L506 572L449 510L301 657L150 510Z" />
<glyph unicode="_" glyph-name="underscore" horiz-adv-x="600" d="M0 -115V-55H600V-115H0Z" />
<glyph unicode="`" glyph-name="grave" horiz-adv-x="311" d="M240 575L40 677L82 761L271 636L240 575Z" />
<glyph unicode="a" glyph-name="a" horiz-adv-x="617" d="M279 -12Q214 -12 161 21T77 114T45 257Q45 335 76 397T163 495T291 532Q336 532 372 517T436 478V520H518V126Q518 88 536 77T577 65L558 -5Q462 -5 442 73Q419 41 380 15T279 -12ZM299 68Q337 68 371
86T428 133V412Q401 431 369 442T300 454Q252 454 216 430T158 362T137 260Q137 204 158 161T216 93T299 68Z" />
<glyph unicode="b" glyph-name="b" horiz-adv-x="594" d="M314 -12Q269 -12 230 4T164 43V0H80V740H170V466Q190 489 228 510T320 532Q380 532 432 501T517 410T549 265Q549 203 529 152T476 65T400 8T314 -12ZM290 68Q339 68 376 92T435 160T457 262Q457 322
436 365T379 431T300 454Q257 454 223 433T170 386V108Q193 90 224 79T290 68Z" />
<glyph unicode="c" glyph-name="c" horiz-adv-x="472" d="M290 -12Q216 -12 161 22T75 118T45 260Q45 335 75 397T163 495T297 532Q341 532 374 524T439 501L412 425Q384 439 359 445T302 452Q232 452 185 402T137 262Q137 208 157 164T212 94T296 68Q334 68 361
76T419 101L447 25Q416 8 378 -2T290 -12Z" />
<glyph unicode="d" glyph-name="d" horiz-adv-x="613" d="M277 -12Q213 -12 160 21T76 114T45 257Q45 336 76 398T160 496T276 532Q328 532 365 511T424 468V740H514V126Q514 88 532 77T573 65L554 -5Q459 -5 438 71Q416 40 377 14T277 -12ZM297 68Q334 68 367
85T424 131V389Q405 413 371 433T296 454Q248 454 212 428T157 359T137 260Q137 205 158 162T215 93T297 68Z" />
<glyph unicode="e" glyph-name="e" horiz-adv-x="544" d="M288 -12Q176 -12 111 59T45 260Q45 338 74 399T157 496T280 532Q355 532 404 500T479 412T504 291Q504 256 501 223H137Q146 150 188 109T299 68Q344 68 380 77T449 102L470 25Q434 9 389 -1T288 -12ZM136
296H421Q421 372 383 413T278 454Q220 454 182 414T136 296Z" />
<glyph unicode="f" glyph-name="f" horiz-adv-x="348" d="M90 0V423H10V501H90V562Q90 650 139 701T267 752Q308 752 339 743T398 719L371 643Q350 654 326 663T273 672Q231 672 206 646T180 568V501H334V423H180V0H90Z" />
<glyph unicode="g" glyph-name="g" horiz-adv-x="585" d="M271 -232Q225 -232 182 -221T104 -188L137 -110Q161 -129 193 -141T271 -154Q342 -154 382 -117T423 3V67Q403 43 366 22T276 0Q217 0 164 30T78 120T45 262Q45 340 77 401T165 497T286 532Q330 532 366
517T428 480V520H510V12Q510 -74 480 -128T397 -207T271 -232ZM296 80Q336 80 368 98T420 140V412Q398 428 367 441T295 454Q254 454 218 432T160 369T137 267Q137 210 159 168T218 103T296 80Z" />
<glyph unicode="h" glyph-name="h" horiz-adv-x="592" d="M80 0V740H170V437Q198 478 241 505T342 532Q430 532 473 479T517 339V0H427V329Q427 385 401 419T328 453Q282 453 241 421T170 344V0H80Z" />
<glyph unicode="i" glyph-name="i" horiz-adv-x="250" d="M80 0V520H170V0H80ZM125 609Q99 609 81 628T62 672Q62 701 79 718T125 735Q151 735 169 717T188 672Q188 644 171 627T125 609Z" />
<glyph unicode="j" glyph-name="j" horiz-adv-x="261" d="M17 -232Q-44 -232 -85 -209L-63 -134Q-50 -142 -32 -148T6 -154Q91 -154 91 -48V520H181V-57Q181 -118 159 -156T100 -213T17 -232ZM134 609Q108 609 90 628T71 672Q71 701 88 718T134 735Q160 735 178
717T197 672Q197 644 180 627T134 609Z" />
<glyph unicode="k" glyph-name="k" horiz-adv-x="511" d="M439 -10L170 267V0H80V740H170V317L405 530L457 473L256 295L501 50L439 -10Z" />
<glyph unicode="l" glyph-name="l" horiz-adv-x="346" d="M238 -12Q192 -12 155 5T97 62T75 163V740H165V172Q165 118 187 92T250 66Q269 66 287 70T319 81L341 8Q323 0 297 -6T238 -12Z" />
<glyph unicode="m" glyph-name="m" horiz-adv-x="915" d="M80 0V520H167V433Q195 475 238 503T336 532Q398 532 437 502T493 422Q524 468 566 500T672 532Q757 532 798 479T840 339V0H750V332Q750 386 725 419T656 453Q611 453 573 420T505 341V0H415V332Q415
386 390 419T321 453Q277 453 238 421T170 344V0H80Z" />
<glyph unicode="n" glyph-name="n" horiz-adv-x="592" d="M80 0V520H167V433Q195 475 238 503T342 532Q430 532 473 479T517 339V0H427V329Q427 385 401 419T327 453Q281 453 240 421T170 344V0H80Z" />
<glyph unicode="o" glyph-name="o" horiz-adv-x="598" d="M299 -12Q225 -12 166 22T74 118T40 260Q40 344 74 405T167 499T299 532Q372 532 430 499T523 406T558 262Q558 179 524 118T432 22T299 -12ZM299 68Q378 68 422 121T466 260Q466 312 444 355T385 425T299
452Q220 452 176 400T132 262Q132 210 154 166T213 95T299 68Z" />
<glyph unicode="p" glyph-name="p" horiz-adv-x="613" d="M99 -220V387Q99 421 83 435T40 450L59 520Q151 520 174 447Q184 462 206 482T262 517T339 532Q399 532 451 501T536 410T568 265Q568 182 536 120T453 23T341 -12Q295 -12 255 6T189 49V-220H99ZM323
68Q391 68 433 121T476 262Q476 322 455 365T398 431T319 454Q276 454 242 433T189 386V130Q215 103 249 86T323 68Z" />
<glyph unicode="q" glyph-name="q" horiz-adv-x="594" d="M424 -220V53Q403 31 366 10T278 -12Q218 -12 165 19T78 110T45 258Q45 340 78 401T166 497T287 532Q332 532 368 517T432 478V520H514V-220H424ZM298 68Q338 68 371 87T424 131V412Q397 431 365 442T296
454Q253 454 217 431T159 365T137 261Q137 201 159 158T219 91T298 68Z" />
<glyph unicode="r" glyph-name="r" horiz-adv-x="399" d="M80 0V520H167V407Q180 440 202 468T257 514T334 532Q349 532 364 531T389 526L362 433Q343 441 317 441Q280 441 247 420T192 355T170 243V0H80Z" />
<glyph unicode="s" glyph-name="s" horiz-adv-x="468" d="M220 -12Q161 -12 114 3T35 42L73 117Q99 95 138 81T223 66Q279 66 307 84T336 132Q336 153 326 169T287 200T206 234Q133 259 97 293T60 389Q60 449 112 490T258 532Q308 532 347 522T417 495L392 421Q365
437 331 447T254 457Q202 457 175 436T148 390Q148 366 169 349T251 312Q350 279 389 239T428 139Q428 69 372 29T220 -12Z" />
<glyph unicode="t" glyph-name="t" horiz-adv-x="397" d="M262 -12Q187 -12 144 37T100 179V423H10V501H102L121 665H190V501H334V423H190V172Q190 114 214 91T273 68Q298 68 320 76T362 95L387 23Q367 11 333 0T262 -12Z" />
<glyph unicode="u" glyph-name="u" horiz-adv-x="604" d="M250 -12Q205 -12 165 7T100 68T75 182V520H165V194Q165 133 191 101T267 68Q308 68 346 84T415 129V520H505V135Q505 92 523 79T564 65L545 -5Q452 -5 430 69Q395 33 349 11T250 -12Z" />
<glyph unicode="v" glyph-name="v" horiz-adv-x="533" d="M219 0L10 496L92 530L269 102L446 530L523 496L313 0H219Z" />
<glyph unicode="w" glyph-name="w" horiz-adv-x="818" d="M189 0L25 496L108 525L242 102L364 483H461L580 102L713 525L793 496L628 0H529L409 387L288 0H189Z" />
<glyph unicode="x" glyph-name="x" horiz-adv-x="500" d="M422 -9L247 208L74 -7L10 49L195 264L17 470L87 531L248 323L406 527L473 470L300 268L490 49L422 -9Z" />
<glyph unicode="y" glyph-name="y" horiz-adv-x="523" d="M93 -232Q63 -232 41 -226T5 -212L25 -137Q37 -144 55 -149T95 -154Q137 -154 170 -127T233 -21L256 39H208L5 496L85 532L279 99L430 528L513 496L322 -26Q293 -106 259 -151T184 -214T93 -232Z" />
<glyph unicode="z" glyph-name="z" horiz-adv-x="472" d="M35 0V71L322 442H41V520H432V451L146 80H437V0H35Z" />
<glyph unicode="{" glyph-name="braceleft" horiz-adv-x="300" d="M293 -118Q229 -112 187 -88T124 -14T103 118Q103 180 95 215T66 266T7 288V352Q45 357 66 373T95 425T103 522Q103 605 123 654T186 728T293 758V701Q256 692 233 675T200 622T190 526Q190 452
179 411T143 350T76 320Q118 310 143 291T179 230T190 114Q190 53 200 18T233 -34T293 -61V-118Z" />
<glyph unicode="|" glyph-name="bar" horiz-adv-x="300" d="M111 -100V770H189V-100H111Z" />
<glyph unicode="}" glyph-name="braceright" horiz-adv-x="300" d="M7 -118V-61Q45 -52 67 -35T100 18T110 114Q110 189 121 230T157 290T224 320Q182 330 157 349T121 410T110 526Q110 587 100 622T68 674T7 701V758Q72 752 114 728T176 655T197 522Q197 461
205 426T234 374T293 352V288Q255 283 234 267T205 215T197 118Q197 36 177 -14T114 -88T7 -118Z" />
<glyph unicode="~" glyph-name="asciitilde" horiz-adv-x="600" d="M385 253Q351 253 322 267T265 296T208 311Q178 311 153 295T111 264L76 327Q97 348 132 369T206 391Q243 391 271 377T326 348T381 333Q416 333 442 350T488 388L524 322Q495 294 460 274T385 253Z" />
<glyph unicode="&#xa0;" glyph-name="uni00A0" horiz-adv-x="300" />
<glyph unicode="&#xa1;" glyph-name="exclamdown" horiz-adv-x="314" d="M157 398Q130 398 110 418T90 465Q90 496 108 514T157 532Q183 532 203 512T224 465Q224 435 205 417T157 398ZM105 -220V41L118 314H192L205 41V-220H105Z" />
<glyph unicode="&#xa2;" glyph-name="cent" horiz-adv-x="450" d="M239 -95L247 18Q182 26 134 61T60 155T34 288Q34 357 60 414T133 510T247 557L239 666H327L319 559Q351 556 377 549T428 529L401 453Q373 467 348 473T291 480Q221 480 174 430T126 290Q126
236 146 192T202 122T285 96Q323 96 350 104T408 129L436 53Q411 40 382 31T318 17L327 -95H239Z" />
<glyph unicode="&#xa3;" glyph-name="sterling" horiz-adv-x="600" d="M87 0V73Q114 111 130 144T153 219T161 321H86V397H162V519Q162 610 211 661T344 712Q398 712 435 699T499 669L469 598Q445 613 416 624T353 636Q309 636 279 608T248 508V397H416V321H247Q245
231 229 178T182 83H514V0H87Z" />
<glyph unicode="&#xa4;" glyph-name="currency" horiz-adv-x="600" d="M155 90L92 143L150 209Q129 235 117 267T105 338Q105 377 117 409T150 467L92 533L155 586L210 512Q252 532 300 532Q325 532 347 527T390 513L445 586L508 533L450 467Q471 442 483 409T495
338Q495 299 483 267T450 209L508 143L445 90L390 164Q348 144 300 144Q275 144 253 149T210 163L155 90ZM300 216Q353 216 382 249T412 337Q412 371 398 398T358 443T300 460Q247 460 218 427T188 339Q188 306 202 278T242 233T300 216Z" />
<glyph unicode="&#xa5;" glyph-name="yen" horiz-adv-x="600" d="M254 0V126H96V199H254V266H96V339H213L16 661L96 709L305 351L510 705L585 661L389 339H506V266H349V199H506V126H349V0H254Z" />
<glyph unicode="&#xa6;" glyph-name="brokenbar" horiz-adv-x="300" d="M111 422V770H189V422H111ZM111 -100V257H189V-100H111Z" />
<glyph unicode="&#xa7;" glyph-name="section" horiz-adv-x="600" d="M280 -72Q179 -72 108 -25L144 43Q204 0 282 0Q332 0 361 15T390 59Q390 84 366 108T269 163Q185 199 150 234T114 323Q114 373 148 411T241 470Q186 495 159 524T132 597Q132 656 183 694T321
733Q364 733 406 721T480 689L442 627Q420 641 387 653T319 666Q266 666 240 646T214 604Q214 586 224 571T263 540T350 498Q425 466 458 430T491 344Q491 292 458 256T365 195Q422 170 448 139T475 66Q475 3 421 -34T280 -72ZM303 227Q349 241 378 268T408 335Q408
368 385 394T307 440Q259 426 228 399T197 332Q197 299 222 273T303 227Z" />
<glyph unicode="&#xa8;" glyph-name="dieresis" horiz-adv-x="402" d="M292 607Q267 607 250 625T232 667Q232 694 248 710T292 727Q317 727 334 709T352 667Q352 640 336 624T292 607ZM110 607Q85 607 68 625T50 667Q50 694 66 710T110 727Q135 727 152 709T170
667Q170 640 154 624T110 607Z" />
<glyph unicode="&#xa9;" glyph-name="copyright" horiz-adv-x="900" d="M449 -12Q337 -12 259 35T141 164T101 350Q101 451 142 533T261 663T450 712Q563 712 640 665T758 536T799 350Q799 250 758 168T639 37T449 -12ZM450 51Q540 51 601 89T694 195T726 350Q726
438 694 505T601 610T450 649Q361 649 299 611T206 505T174 350Q174 263 206 196T299 90T450 51ZM463 126Q406 126 362 153T293 230T268 350Q268 417 293 468T364 549T471 578Q503 578 531 571T587 551L559 477Q538 488 517 494T470 501Q419 501 386 463T353 353Q353
285 386 244T470 203Q497 203 520 211T568 234L594 161Q567 145 535 136T463 126Z" />
<glyph unicode="&#xaa;" glyph-name="ordfeminine" horiz-adv-x="600" d="M275 323Q231 323 192 345T127 409T102 513Q102 572 126 615T192 683T283 707Q312 707 336 699T379 678V700H453V434Q453 407 467 399T498 390L480 327Q412 327 389 375Q373 358 345 341T275
323ZM288 393Q314 393 336 405T374 437V613Q358 624 337 631T291 638Q245 638 213 606T181 515Q181 458 214 426T288 393ZM130 132V214H470V132H130Z" />
<glyph unicode="&#xab;" glyph-name="guillemotleft" horiz-adv-x="566" d="M218 129L60 323V365L218 559L276 510L134 344L276 178L218 129ZM418 129L260 323V365L418 559L476 510L334 344L476 178L418 129Z" />
<glyph unicode="&#xac;" glyph-name="logicalnot" horiz-adv-x="600" d="M445 120V301H65V383H535V120H445Z" />
<glyph unicode="&#xad;" glyph-name="uni00AD" horiz-adv-x="600" d="M130 302V384H470V302H130Z" />
<glyph unicode="&#xae;" glyph-name="registered" horiz-adv-x="900" d="M449 -12Q337 -12 259 35T141 164T101 350Q101 451 142 533T261 663T450 712Q563 712 640 665T758 536T799 350Q799 250 758 168T639 37T449 -12ZM450 51Q540 51 601 89T694 195T726 350Q726
438 694 505T601 610T450 649Q361 649 299 611T206 505T174 350Q174 263 206 196T299 90T450 51ZM556 133L502 253Q471 319 396 320V143H317V566Q344 569 371 571T437 573Q516 573 560 543T605 454Q605 413 582 388T514 348Q537 338 553 320T582 272L630 167L556
133ZM396 391H446Q482 391 504 406T527 449Q527 472 506 487T446 502Q433 502 420 502T396 500V391Z" />
<glyph unicode="&#xaf;" glyph-name="overscore" horiz-adv-x="410" d="M60 627V700H350V627H60Z" />
<glyph unicode="&#xb0;" glyph-name="degree" horiz-adv-x="450" d="M195 458Q156 458 123 476T70 527T50 599Q50 640 70 671T123 721T195 740Q235 740 267 722T320 672T340 599Q340 559 320 527T268 477T195 458ZM195 529Q225 529 243 547T261 599Q261 629 243
649T195 669Q165 669 147 652T129 599Q129 569 147 549T195 529Z" />
<glyph unicode="&#xb1;" glyph-name="plusminus" horiz-adv-x="600" d="M258 259V394H130V472H258V608H343V472H470V394H343V259H258ZM130 72V154H470V72H130Z" />
<glyph unicode="&#xb2;" glyph-name="uni00B2" horiz-adv-x="450" d="M80 276Q79 284 79 292T78 312Q78 357 99 391T152 452T215 503T267 547T289 592Q289 613 271 627T226 642Q199 642 176 632T130 602L83 652Q115 678 152 692T234 707Q296 707 333 676T371 597Q371
563 352 536T305 486T248 441T196 396T168 343H372V276H80Z" />
<glyph unicode="&#xb3;" glyph-name="uni00B3" horiz-adv-x="450" d="M205 270Q167 270 133 281T71 309L109 368Q130 355 154 346T205 336Q250 336 274 354T298 398Q298 426 270 446T181 467H135V528H178Q236 528 260 548T285 591Q285 613 263 628T208 643Q183
643 160 634T119 611L83 670Q107 684 140 695T211 707Q285 707 325 673T366 597Q366 533 306 503Q379 470 379 400Q379 368 361 338T304 289T205 270Z" />
<glyph unicode="&#xb4;" glyph-name="acute" horiz-adv-x="311" d="M71 575L40 636L229 761L271 677L71 575Z" />
<glyph unicode="&#xb5;" glyph-name="uni00B5" horiz-adv-x="600" d="M90 -220V520H176V189Q176 125 209 97T285 68Q319 68 355 82T424 127V520H510V0H427V59Q393 25 353 7T271 -12Q234 -12 210 -1T171 29V-220H90Z" />
<glyph unicode="&#xb6;" glyph-name="paragraph" horiz-adv-x="750" d="M425 -64V402Q410 400 392 399T351 397Q237 397 172 446T106 581Q106 638 134 682T216 753T347 779Q393 779 430 777T503 770V-64H425ZM565 -64V770H643V-64H565ZM346 474Q372 474 391 475T425
479V698Q406 700 386 701T342 702Q266 702 231 668T196 586Q196 537 237 506T346 474Z" />
<glyph unicode="&#xb7;" glyph-name="middot" horiz-adv-x="300" d="M150 288Q123 288 103 308T83 355Q83 386 101 404T150 422Q176 422 196 402T217 355Q217 325 198 307T150 288Z" />
<glyph unicode="&#xb8;" glyph-name="cedilla" horiz-adv-x="297" d="M130 -244Q103 -244 78 -239T30 -224L54 -161Q87 -178 126 -178Q152 -178 169 -169T186 -141Q186 -123 163 -109T73 -95L108 0H176L155 -59Q205 -59 236 -81T267 -148Q267 -185 233 -214T130 -244Z" />
<glyph unicode="&#xb9;" glyph-name="uni00B9" horiz-adv-x="450" d="M113 276V341H209V605L127 552L81 607L232 700H289V341H369V276H113Z" />
<glyph unicode="&#xba;" glyph-name="ordmasculine" horiz-adv-x="600" d="M301 323Q246 323 203 347T134 415T109 515Q109 575 134 618T203 684T301 707Q354 707 397 684T465 618T491 516Q491 458 466 415T399 347T301 323ZM301 393Q353 393 382 426T411 515Q411
565 380 601T301 637Q248 637 219 604T189 516Q189 483 203 455T243 410T301 393ZM130 132V214H470V132H130Z" />
<glyph unicode="&#xbb;" glyph-name="guillemotright" horiz-adv-x="566" d="M148 129L90 178L232 344L90 510L148 559L306 365V323L148 129ZM348 129L290 178L432 344L290 510L348 559L506 365V323L348 129Z" />
<glyph unicode="&#xbc;" glyph-name="onequarter" horiz-adv-x="900" d="M289 -40L229 -2L666 740L726 702L289 -40ZM69 276V341H165V605L83 552L37 607L188 700H245V341H325V276H69ZM729 0V87H529V139L673 430L744 404L621 153H729V267H806V153H863V87H806V0H729Z" />
<glyph unicode="&#xbd;" glyph-name="onehalf" horiz-adv-x="900" d="M274 -40L214 -2L651 740L711 702L274 -40ZM64 276V341H160V605L78 552L32 607L183 700H240V341H320V276H64ZM576 0Q575 8 575 16T574 36Q574 81 595 115T648 176T711 227T763 271T785 316Q785
337 767 351T722 366Q695 366 672 356T626 326L579 376Q611 402 648 416T730 431Q792 431 829 400T867 321Q867 287 848 260T801 210T744 165T692 120T664 67H868V0H576Z" />
<glyph unicode="&#xbe;" glyph-name="threequarters" horiz-adv-x="900" d="M279 -40L219 -2L656 740L716 702L279 -40ZM182 270Q144 270 110 281T48 309L86 368Q107 355 131 346T182 336Q227 336 251 354T275 398Q275 426 247 446T158 467H112V528H155Q213 528
237 548T262 591Q262 613 240 628T185 643Q160 643 137 634T96 611L60 670Q84 684 117 695T188 707Q262 707 302 673T343 597Q343 533 283 503Q356 470 356 400Q356 368 338 338T281 289T182 270ZM718 0V87H518V139L662 430L733 404L610 153H718V267H795V153H852V87H795V0H718Z"
/>
<glyph unicode="&#xbf;" glyph-name="questiondown" horiz-adv-x="491" d="M281 398Q254 398 234 418T214 465Q214 496 232 514T281 532Q307 532 327 512T348 465Q348 435 329 417T281 398ZM239 -232Q184 -232 141 -210T74 -151T50 -69Q50 -18 70 16T119 75T178
125T227 180T247 257V313H325Q330 297 332 277T335 239Q335 188 316 154T269 94T213 46T166 -1T147 -62Q147 -97 174 -123T247 -150Q288 -150 321 -130T381 -75L446 -127Q406 -176 357 -204T239 -232Z" />
<glyph unicode="&#xc0;" glyph-name="Agrave" horiz-adv-x="668" d="M571 -10L493 190H169L91 -8L10 25L284 700H388L658 25L571 -10ZM199 270H462L331 606L199 270ZM420 734L220 836L262 920L451 795L420 734Z" />
<glyph unicode="&#xc1;" glyph-name="Aacute" horiz-adv-x="668" d="M571 -10L493 190H169L91 -8L10 25L284 700H388L658 25L571 -10ZM199 270H462L331 606L199 270ZM256 734L225 795L414 920L456 836L256 734Z" />
<glyph unicode="&#xc2;" glyph-name="Acircumflex" horiz-adv-x="668" d="M571 -10L493 190H169L91 -8L10 25L284 700H388L658 25L571 -10ZM199 270H462L331 606L199 270ZM198 742L155 820L302 900H366L512 820L469 742L334 837L198 742Z" />
<glyph unicode="&#xc3;" glyph-name="Atilde" horiz-adv-x="668" d="M571 -10L493 190H169L91 -8L10 25L284 700H388L658 25L571 -10ZM199 270H462L331 606L199 270ZM208 758L173 820Q191 840 219 856T277 872Q302 872 320 864T354 847T392 838Q414 838 431 847T461
869L496 806Q478 789 455 775T400 760Q374 760 356 768T321 785T281 794Q259 794 241 783T208 758Z" />
<glyph unicode="&#xc4;" glyph-name="Adieresis" horiz-adv-x="668" d="M571 -10L493 190H169L91 -8L10 25L284 700H388L658 25L571 -10ZM199 270H462L331 606L199 270ZM427 760Q402 760 385 778T367 820Q367 847 383 863T427 880Q452 880 469 862T487 820Q487
793 471 777T427 760ZM245 760Q220 760 203 778T185 820Q185 847 201 863T245 880Q270 880 287 862T305 820Q305 793 289 777T245 760Z" />
<glyph unicode="&#xc5;" glyph-name="Aring" horiz-adv-x="668" d="M571 -10L493 190H169L91 -8L10 25L284 700H388L658 25L571 -10ZM199 270H462L331 606L199 270ZM334 638Q282 638 246 672T209 758Q209 811 245 844T334 878Q368 878 396 863T442 820T459 758Q459
723 442 696T397 654T334 638ZM334 700Q355 700 368 715T382 758Q382 781 370 798T334 816Q312 816 299 802T286 758Q286 734 299 717T334 700Z" />
<glyph unicode="&#xc6;" glyph-name="AE" horiz-adv-x="918" d="M82 -9L5 39L420 700H873V618H555V405H828V325H555V82H873V0H463V190H204L82 -9ZM253 270H463V611L253 270Z" />
<glyph unicode="&#xc7;" glyph-name="Ccedilla" horiz-adv-x="594" d="M359 -12Q268 -12 198 31T89 155T50 347Q50 454 89 536T201 665T371 712Q421 712 462 703T539 676L510 596Q479 611 447 620T370 629Q306 629 256 596T176 501T147 351Q147 267 175 204T254
106T370 71Q419 71 455 83T525 114L554 35Q517 15 470 2T359 -12ZM328 -244Q301 -244 276 -239T228 -224L252 -161Q285 -178 324 -178Q350 -178 367 -169T384 -141Q384 -123 361 -109T271 -95L306 0H374L353 -59Q403 -59 434 -81T465 -148Q465 -185 431 -214T328
-244Z" />
<glyph unicode="&#xc8;" glyph-name="Egrave" horiz-adv-x="555" d="M90 0V700H510V618H185V405H465V325H185V82H510V0H90ZM394 734L194 836L236 920L425 795L394 734Z" />
<glyph unicode="&#xc9;" glyph-name="Eacute" horiz-adv-x="555" d="M90 0V700H510V618H185V405H465V325H185V82H510V0H90ZM230 734L199 795L388 920L430 836L230 734Z" />
<glyph unicode="&#xca;" glyph-name="Ecircumflex" horiz-adv-x="555" d="M90 0V700H510V618H185V405H465V325H185V82H510V0H90ZM172 742L129 820L276 900H340L486 820L443 742L308 837L172 742Z" />
<glyph unicode="&#xcb;" glyph-name="Edieresis" horiz-adv-x="555" d="M90 0V700H510V618H185V405H465V325H185V82H510V0H90ZM401 760Q376 760 359 778T341 820Q341 847 357 863T401 880Q426 880 443 862T461 820Q461 793 445 777T401 760ZM219 760Q194 760 177
778T159 820Q159 847 175 863T219 880Q244 880 261 862T279 820Q279 793 263 777T219 760Z" />
<glyph unicode="&#xcc;" glyph-name="Igrave" horiz-adv-x="275" d="M90 0V700H185V0H90ZM480 734L280 836L322 920L511 795L480 734Z" />
<glyph unicode="&#xcd;" glyph-name="Iacute" horiz-adv-x="275" d="M90 0V700H185V0H90ZM316 734L285 795L474 920L516 836L316 734Z" />
<glyph unicode="&#xce;" glyph-name="Icircumflex" horiz-adv-x="275" d="M90 0V700H185V0H90ZM258 742L215 820L362 900H426L572 820L529 742L394 837L258 742Z" />
<glyph unicode="&#xcf;" glyph-name="Idieresis" horiz-adv-x="275" d="M90 0V700H185V0H90ZM487 760Q462 760 445 778T427 820Q427 847 443 863T487 880Q512 880 529 862T547 820Q547 793 531 777T487 760ZM305 760Q280 760 263 778T245 820Q245 847 261 863T305
880Q330 880 347 862T365 820Q365 793 349 777T305 760Z" />
<glyph unicode="&#xd0;" glyph-name="Eth" horiz-adv-x="702" d="M294 -8Q237 -8 195 -5T110 2V304H10V384H110V698Q157 703 202 705T305 708Q395 708 460 680T568 603T631 490T652 351Q652 278 631 213T567 99T456 21T294 -8ZM297 75Q387 75 444 110T528 207T555
351Q555 423 528 486T445 587T302 626Q273 626 249 625T205 621V384H353V304H205V80Q226 77 249 76T297 75Z" />
<glyph unicode="&#xd1;" glyph-name="Ntilde" horiz-adv-x="705" d="M90 0V700H216L525 118V700H615V0H491L180 578V0H90ZM227 758L192 820Q210 840 238 856T296 872Q321 872 339 864T373 847T411 838Q433 838 450 847T480 869L515 806Q497 789 474 775T419 760Q393
760 375 768T340 785T300 794Q278 794 260 783T227 758Z" />
<glyph unicode="&#xd2;" glyph-name="Ograve" horiz-adv-x="761" d="M380 -12Q302 -12 241 16T138 94T73 210T50 351Q50 454 89 535T203 664T380 712Q457 712 518 684T623 606T688 491T711 351Q711 276 689 210T623 95T519 17T380 -12ZM380 70Q457 70 509 107T587
207T614 351Q614 405 598 455T552 544T479 607T380 630Q307 630 255 593T175 493T147 351Q147 297 162 247T208 156T281 93T380 70ZM467 734L267 836L309 920L498 795L467 734Z" />
<glyph unicode="&#xd3;" glyph-name="Oacute" horiz-adv-x="761" d="M380 -12Q302 -12 241 16T138 94T73 210T50 351Q50 454 89 535T203 664T380 712Q457 712 518 684T623 606T688 491T711 351Q711 276 689 210T623 95T519 17T380 -12ZM380 70Q457 70 509 107T587
207T614 351Q614 405 598 455T552 544T479 607T380 630Q307 630 255 593T175 493T147 351Q147 297 162 247T208 156T281 93T380 70ZM303 734L272 795L461 920L503 836L303 734Z" />
<glyph unicode="&#xd4;" glyph-name="Ocircumflex" horiz-adv-x="761" d="M380 -12Q302 -12 241 16T138 94T73 210T50 351Q50 454 89 535T203 664T380 712Q457 712 518 684T623 606T688 491T711 351Q711 276 689 210T623 95T519 17T380 -12ZM380 70Q457 70 509
107T587 207T614 351Q614 405 598 455T552 544T479 607T380 630Q307 630 255 593T175 493T147 351Q147 297 162 247T208 156T281 93T380 70ZM245 742L202 820L349 900H413L559 820L516 742L381 837L245 742Z" />
<glyph unicode="&#xd5;" glyph-name="Otilde" horiz-adv-x="761" d="M380 -12Q302 -12 241 16T138 94T73 210T50 351Q50 454 89 535T203 664T380 712Q457 712 518 684T623 606T688 491T711 351Q711 276 689 210T623 95T519 17T380 -12ZM380 70Q457 70 509 107T587
207T614 351Q614 405 598 455T552 544T479 607T380 630Q307 630 255 593T175 493T147 351Q147 297 162 247T208 156T281 93T380 70ZM255 758L220 820Q238 840 266 856T324 872Q349 872 367 864T401 847T439 838Q461 838 478 847T508 869L543 806Q525 789 502 775T447
760Q421 760 403 768T368 785T328 794Q306 794 288 783T255 758Z" />
<glyph unicode="&#xd6;" glyph-name="Odieresis" horiz-adv-x="761" d="M380 -12Q302 -12 241 16T138 94T73 210T50 351Q50 454 89 535T203 664T380 712Q457 712 518 684T623 606T688 491T711 351Q711 276 689 210T623 95T519 17T380 -12ZM380 70Q457 70 509 107T587
207T614 351Q614 405 598 455T552 544T479 607T380 630Q307 630 255 593T175 493T147 351Q147 297 162 247T208 156T281 93T380 70ZM474 760Q449 760 432 778T414 820Q414 847 430 863T474 880Q499 880 516 862T534 820Q534 793 518 777T474 760ZM292 760Q267 760
250 778T232 820Q232 847 248 863T292 880Q317 880 334 862T352 820Q352 793 336 777T292 760Z" />
<glyph unicode="&#xd7;" glyph-name="multiply" horiz-adv-x="600" d="M166 156L111 210L246 344L111 479L166 534L300 398L434 534L489 479L354 344L489 210L434 156L300 290L166 156Z" />
<glyph unicode="&#xd8;" glyph-name="Oslash" horiz-adv-x="761" d="M214 -118L132 -80L196 41Q126 89 88 171T50 351Q50 454 89 535T203 664T380 712Q415 712 446 706T505 688L557 809L639 771L574 650Q640 601 675 523T711 351Q711 276 689 210T623 95T519 17T380
-12Q349 -12 321 -7T267 6L214 -118ZM237 124L469 611Q429 630 380 630Q307 630 255 593T175 493T147 351Q147 284 170 224T237 124ZM380 70Q457 70 509 107T587 207T614 351Q614 413 593 470T532 566L302 84Q338 70 380 70Z" />
<glyph unicode="&#xd9;" glyph-name="Ugrave" horiz-adv-x="670" d="M334 -12Q213 -12 144 60T75 266V700H170V281Q170 181 211 126T334 71Q419 71 461 124T503 281V700H595V270Q595 182 563 119T472 22T334 -12ZM421 734L221 836L263 920L452 795L421 734Z" />
<glyph unicode="&#xda;" glyph-name="Uacute" horiz-adv-x="670" d="M334 -12Q213 -12 144 60T75 266V700H170V281Q170 181 211 126T334 71Q419 71 461 124T503 281V700H595V270Q595 182 563 119T472 22T334 -12ZM257 734L226 795L415 920L457 836L257 734Z" />
<glyph unicode="&#xdb;" glyph-name="Ucircumflex" horiz-adv-x="670" d="M334 -12Q213 -12 144 60T75 266V700H170V281Q170 181 211 126T334 71Q419 71 461 124T503 281V700H595V270Q595 182 563 119T472 22T334 -12ZM199 742L156 820L303 900H367L513 820L470
742L335 837L199 742Z" />
<glyph unicode="&#xdc;" glyph-name="Udieresis" horiz-adv-x="670" d="M334 -12Q213 -12 144 60T75 266V700H170V281Q170 181 211 126T334 71Q419 71 461 124T503 281V700H595V270Q595 182 563 119T472 22T334 -12ZM428 760Q403 760 386 778T368 820Q368 847
384 863T428 880Q453 880 470 862T488 820Q488 793 472 777T428 760ZM246 760Q221 760 204 778T186 820Q186 847 202 863T246 880Q271 880 288 862T306 820Q306 793 290 777T246 760Z" />
<glyph unicode="&#xdd;" glyph-name="Yacute" horiz-adv-x="599" d="M253 0V266L10 661L90 709L304 354L514 705L589 661L348 266V0H253ZM222 734L191 795L380 920L422 836L222 734Z" />
<glyph unicode="&#xde;" glyph-name="Thorn" horiz-adv-x="582" d="M90 0V700H185V579Q232 582 283 582Q371 582 432 555T525 479T557 369Q557 294 520 242T417 162T263 134Q236 134 218 134T185 136V0H90ZM275 214Q364 214 413 254T462 361Q462 426 415 464T281
502Q254 502 230 501T185 498V218Q196 217 215 216T275 214Z" />
<glyph unicode="&#xdf;" glyph-name="germandbls" horiz-adv-x="630" d="M120 -220V349Q120 399 96 419T30 439L53 520Q86 520 106 509T138 477Q138 619 201 685T368 752Q426 752 471 728T541 663T567 574Q567 510 537 467T443 397Q590 347 590 204Q590 143 563
94T487 17T370 -12Q310 -12 269 7L289 85Q323 68 367 68Q424 68 461 103T498 202Q498 243 477 277T416 331T319 352V425Q376 425 411 445T462 496T479 560Q479 610 445 641T360 672Q317 672 283 649T230 571T210 415V-220H120Z" />
<glyph unicode="&#xe0;" glyph-name="agrave" horiz-adv-x="617" d="M279 -12Q214 -12 161 21T77 114T45 257Q45 335 76 397T163 495T291 532Q336 532 372 517T436 478V520H518V126Q518 88 536 77T577 65L558 -5Q462 -5 442 73Q419 41 380 15T279 -12ZM299 68Q337
68 371 86T428 133V412Q401 431 369 442T300 454Q252 454 216 430T158 362T137 260Q137 204 158 161T216 93T299 68ZM393 575L193 677L235 761L424 636L393 575Z" />
<glyph unicode="&#xe1;" glyph-name="aacute" horiz-adv-x="617" d="M279 -12Q214 -12 161 21T77 114T45 257Q45 335 76 397T163 495T291 532Q336 532 372 517T436 478V520H518V126Q518 88 536 77T577 65L558 -5Q462 -5 442 73Q419 41 380 15T279 -12ZM299 68Q337
68 371 86T428 133V412Q401 431 369 442T300 454Q252 454 216 430T158 362T137 260Q137 204 158 161T216 93T299 68ZM224 575L193 636L382 761L424 677L224 575Z" />
<glyph unicode="&#xe2;" glyph-name="acircumflex" horiz-adv-x="617" d="M279 -12Q214 -12 161 21T77 114T45 257Q45 335 76 397T163 495T291 532Q336 532 372 517T436 478V520H518V126Q518 88 536 77T577 65L558 -5Q462 -5 442 73Q419 41 380 15T279 -12ZM299
68Q337 68 371 86T428 133V412Q401 431 369 442T300 454Q252 454 216 430T158 362T137 260Q137 204 158 161T216 93T299 68ZM178 572L131 646L277 740H341L487 646L440 572L309 677L178 572Z" />
<glyph unicode="&#xe3;" glyph-name="atilde" horiz-adv-x="617" d="M279 -12Q214 -12 161 21T77 114T45 257Q45 335 76 397T163 495T291 532Q336 532 372 517T436 478V520H518V126Q518 88 536 77T577 65L558 -5Q462 -5 442 73Q419 41 380 15T279 -12ZM299 68Q337
68 371 86T428 133V412Q401 431 369 442T300 454Q252 454 216 430T158 362T137 260Q137 204 158 161T216 93T299 68ZM182 608L147 670Q165 690 193 706T251 722Q276 722 294 714T328 697T366 688Q388 688 405 697T435 719L470 656Q452 639 429 625T374 610Q348
610 330 618T295 635T255 644Q233 644 215 633T182 608Z" />
<glyph unicode="&#xe4;" glyph-name="adieresis" horiz-adv-x="617" d="M279 -12Q214 -12 161 21T77 114T45 257Q45 335 76 397T163 495T291 532Q336 532 372 517T436 478V520H518V126Q518 88 536 77T577 65L558 -5Q462 -5 442 73Q419 41 380 15T279 -12ZM299
68Q337 68 371 86T428 133V412Q401 431 369 442T300 454Q252 454 216 430T158 362T137 260Q137 204 158 161T216 93T299 68ZM400 607Q375 607 358 625T340 667Q340 694 356 710T400 727Q425 727 442 709T460 667Q460 640 444 624T400 607ZM218 607Q193 607 176
625T158 667Q158 694 174 710T218 727Q243 727 260 709T278 667Q278 640 262 624T218 607Z" />
<glyph unicode="&#xe5;" glyph-name="aring" horiz-adv-x="617" d="M279 -12Q214 -12 161 21T77 114T45 257Q45 335 76 397T163 495T291 532Q336 532 372 517T436 478V520H518V126Q518 88 536 77T577 65L558 -5Q462 -5 442 73Q419 41 380 15T279 -12ZM299 68Q337
68 371 86T428 133V412Q401 431 369 442T300 454Q252 454 216 430T158 362T137 260Q137 204 158 161T216 93T299 68ZM309 582Q257 582 221 616T184 702Q184 755 220 788T309 822Q343 822 371 807T417 764T434 702Q434 667 417 640T372 598T309 582ZM309 644Q330
644 343 659T357 702Q357 725 345 742T309 760Q287 760 274 746T261 702Q261 678 274 661T309 644Z" />
<glyph unicode="&#xe6;" glyph-name="ae" horiz-adv-x="904" d="M230 -12Q173 -12 131 9T64 67T40 148Q40 202 68 240T146 300T262 321Q305 321 338 316T404 303Q394 374 353 414T243 454Q207 454 178 446T120 425L101 501Q136 515 172 523T252 532Q324 532 374
504T452 417Q483 472 530 502T640 532Q715 532 764 500T839 412T864 291Q864 256 861 223H497Q506 150 548 109T659 68Q704 68 740 77T809 102L830 25Q794 9 749 -1T648 -12Q574 -12 524 20T443 109Q410 57 360 23T230 -12ZM496 296H781Q781 372 743 413T638 454Q580
454 542 414T496 296ZM241 68Q281 68 316 86T375 140T405 230Q370 240 337 244T265 248Q204 248 168 222T132 155Q132 116 163 92T241 68Z" />
<glyph unicode="&#xe7;" glyph-name="ccedilla" horiz-adv-x="472" d="M290 -12Q216 -12 161 22T75 118T45 260Q45 335 75 397T163 495T297 532Q341 532 374 524T439 501L412 425Q384 439 359 445T302 452Q232 452 185 402T137 262Q137 208 157 164T212 94T296
68Q334 68 361 76T419 101L447 25Q416 8 378 -2T290 -12ZM261 -244Q234 -244 209 -239T161 -224L185 -161Q218 -178 257 -178Q283 -178 300 -169T317 -141Q317 -123 294 -109T204 -95L239 0H307L286 -59Q336 -59 367 -81T398 -148Q398 -185 364 -214T261 -244Z"
/>
<glyph unicode="&#xe8;" glyph-name="egrave" horiz-adv-x="544" d="M288 -12Q176 -12 111 59T45 260Q45 338 74 399T157 496T280 532Q355 532 404 500T479 412T504 291Q504 256 501 223H137Q146 150 188 109T299 68Q344 68 380 77T449 102L470 25Q434 9 389 -1T288
-12ZM136 296H421Q421 372 383 413T278 454Q220 454 182 414T136 296ZM366 575L166 677L208 761L397 636L366 575Z" />
<glyph unicode="&#xe9;" glyph-name="eacute" horiz-adv-x="544" d="M288 -12Q176 -12 111 59T45 260Q45 338 74 399T157 496T280 532Q355 532 404 500T479 412T504 291Q504 256 501 223H137Q146 150 188 109T299 68Q344 68 380 77T449 102L470 25Q434 9 389 -1T288
-12ZM136 296H421Q421 372 383 413T278 454Q220 454 182 414T136 296ZM197 575L166 636L355 761L397 677L197 575Z" />
<glyph unicode="&#xea;" glyph-name="ecircumflex" horiz-adv-x="544" d="M288 -12Q176 -12 111 59T45 260Q45 338 74 399T157 496T280 532Q355 532 404 500T479 412T504 291Q504 256 501 223H137Q146 150 188 109T299 68Q344 68 380 77T449 102L470 25Q434 9
389 -1T288 -12ZM136 296H421Q421 372 383 413T278 454Q220 454 182 414T136 296ZM151 572L104 646L250 740H314L460 646L413 572L282 677L151 572Z" />
<glyph unicode="&#xeb;" glyph-name="edieresis" horiz-adv-x="544" d="M288 -12Q176 -12 111 59T45 260Q45 338 74 399T157 496T280 532Q355 532 404 500T479 412T504 291Q504 256 501 223H137Q146 150 188 109T299 68Q344 68 380 77T449 102L470 25Q434 9 389
-1T288 -12ZM136 296H421Q421 372 383 413T278 454Q220 454 182 414T136 296ZM373 607Q348 607 331 625T313 667Q313 694 329 710T373 727Q398 727 415 709T433 667Q433 640 417 624T373 607ZM191 607Q166 607 149 625T131 667Q131 694 147 710T191 727Q216 727
233 709T251 667Q251 640 235 624T191 607Z" />
<glyph unicode="&#xec;" glyph-name="igrave" horiz-adv-x="250" d="M80 0V520H170V0H80ZM465 575L265 677L307 761L496 636L465 575Z" />
<glyph unicode="&#xed;" glyph-name="iacute" horiz-adv-x="250" d="M80 0V520H170V0H80ZM296 575L265 636L454 761L496 677L296 575Z" />
<glyph unicode="&#xee;" glyph-name="icircumflex" horiz-adv-x="250" d="M80 0V520H170V0H80ZM250 572L203 646L349 740H413L559 646L512 572L381 677L250 572Z" />
<glyph unicode="&#xef;" glyph-name="idieresis" horiz-adv-x="250" d="M80 0V520H170V0H80ZM472 607Q447 607 430 625T412 667Q412 694 428 710T472 727Q497 727 514 709T532 667Q532 640 516 624T472 607ZM290 607Q265 607 248 625T230 667Q230 694 246 710T290
727Q315 727 332 709T350 667Q350 640 334 624T290 607Z" />
<glyph unicode="&#xf0;" glyph-name="eth" horiz-adv-x="532" d="M241 -12Q185 -12 136 14T56 89T25 207Q25 277 55 327T134 405T237 433Q291 433 331 413T400 366Q397 434 371 488T299 577L240 498L182 545L241 612Q189 634 131 634Q124 634 114 634T95 632V713Q103
714 113 714T132 715Q220 715 296 678L357 758L414 711L354 642Q418 594 455 517T492 342Q492 237 463 157T378 33T241 -12ZM248 68Q313 68 352 122T400 289Q371 318 334 337T253 357Q217 357 186 341T135 292T115 214Q115 144 154 106T248 68Z" />
<glyph unicode="&#xf1;" glyph-name="ntilde" horiz-adv-x="592" d="M80 0V520H167V433Q195 475 238 503T342 532Q430 532 473 479T517 339V0H427V329Q427 385 401 419T327 453Q281 453 240 421T170 344V0H80ZM180 608L145 670Q163 690 191 706T249 722Q274 722
292 714T326 697T364 688Q386 688 403 697T433 719L468 656Q450 639 427 625T372 610Q346 610 328 618T293 635T253 644Q231 644 213 633T180 608Z" />
<glyph unicode="&#xf2;" glyph-name="ograve" horiz-adv-x="598" d="M299 -12Q225 -12 166 22T74 118T40 260Q40 344 74 405T167 499T299 532Q372 532 430 499T523 406T558 262Q558 179 524 118T432 22T299 -12ZM299 68Q378 68 422 121T466 260Q466 312 444 355T385
425T299 452Q220 452 176 400T132 262Q132 210 154 166T213 95T299 68ZM383 575L183 677L225 761L414 636L383 575Z" />
<glyph unicode="&#xf3;" glyph-name="oacute" horiz-adv-x="598" d="M299 -12Q225 -12 166 22T74 118T40 260Q40 344 74 405T167 499T299 532Q372 532 430 499T523 406T558 262Q558 179 524 118T432 22T299 -12ZM299 68Q378 68 422 121T466 260Q466 312 444 355T385
425T299 452Q220 452 176 400T132 262Q132 210 154 166T213 95T299 68ZM214 575L183 636L372 761L414 677L214 575Z" />
<glyph unicode="&#xf4;" glyph-name="ocircumflex" horiz-adv-x="598" d="M299 -12Q225 -12 166 22T74 118T40 260Q40 344 74 405T167 499T299 532Q372 532 430 499T523 406T558 262Q558 179 524 118T432 22T299 -12ZM299 68Q378 68 422 121T466 260Q466 312 444
355T385 425T299 452Q220 452 176 400T132 262Q132 210 154 166T213 95T299 68ZM168 572L121 646L267 740H331L477 646L430 572L299 677L168 572Z" />
<glyph unicode="&#xf5;" glyph-name="otilde" horiz-adv-x="598" d="M299 -12Q225 -12 166 22T74 118T40 260Q40 344 74 405T167 499T299 532Q372 532 430 499T523 406T558 262Q558 179 524 118T432 22T299 -12ZM299 68Q378 68 422 121T466 260Q466 312 444 355T385
425T299 452Q220 452 176 400T132 262Q132 210 154 166T213 95T299 68ZM172 608L137 670Q155 690 183 706T241 722Q266 722 284 714T318 697T356 688Q378 688 395 697T425 719L460 656Q442 639 419 625T364 610Q338 610 320 618T285 635T245 644Q223 644 205 633T172
608Z" />
<glyph unicode="&#xf6;" glyph-name="odieresis" horiz-adv-x="598" d="M299 -12Q225 -12 166 22T74 118T40 260Q40 344 74 405T167 499T299 532Q372 532 430 499T523 406T558 262Q558 179 524 118T432 22T299 -12ZM299 68Q378 68 422 121T466 260Q466 312 444
355T385 425T299 452Q220 452 176 400T132 262Q132 210 154 166T213 95T299 68ZM390 607Q365 607 348 625T330 667Q330 694 346 710T390 727Q415 727 432 709T450 667Q450 640 434 624T390 607ZM208 607Q183 607 166 625T148 667Q148 694 164 710T208 727Q233 727
250 709T268 667Q268 640 252 624T208 607Z" />
<glyph unicode="&#xf7;" glyph-name="divide" horiz-adv-x="600" d="M301 481Q274 481 254 501T234 548Q234 579 252 597T301 615Q327 615 347 595T368 548Q368 518 349 500T301 481ZM130 302V384H470V302H130ZM301 71Q274 71 254 91T234 138Q234 169 252 187T301
205Q327 205 347 185T368 138Q368 108 349 90T301 71Z" />
<glyph unicode="&#xf8;" glyph-name="oslash" horiz-adv-x="598" d="M154 -119L83 -82L148 34Q98 69 69 127T40 260Q40 344 74 405T167 499T299 532Q342 532 379 520L434 637L505 600L444 490Q496 456 527 398T558 262Q558 179 524 118T432 22T299 -12Q250 -12
210 2L154 -119ZM189 115L344 445Q323 452 299 452Q220 452 176 400T132 262Q132 219 147 181T189 115ZM299 68Q378 68 422 121T466 260Q466 305 449 344T403 411L246 77Q257 73 271 71T299 68Z" />
<glyph unicode="&#xf9;" glyph-name="ugrave" horiz-adv-x="604" d="M250 -12Q205 -12 165 7T100 68T75 182V520H165V194Q165 133 191 101T267 68Q308 68 346 84T415 129V520H505V135Q505 92 523 79T564 65L545 -5Q452 -5 430 69Q395 33 349 11T250 -12ZM379 575L179
677L221 761L410 636L379 575Z" />
<glyph unicode="&#xfa;" glyph-name="uacute" horiz-adv-x="604" d="M250 -12Q205 -12 165 7T100 68T75 182V520H165V194Q165 133 191 101T267 68Q308 68 346 84T415 129V520H505V135Q505 92 523 79T564 65L545 -5Q452 -5 430 69Q395 33 349 11T250 -12ZM210 575L179
636L368 761L410 677L210 575Z" />
<glyph unicode="&#xfb;" glyph-name="ucircumflex" horiz-adv-x="604" d="M250 -12Q205 -12 165 7T100 68T75 182V520H165V194Q165 133 191 101T267 68Q308 68 346 84T415 129V520H505V135Q505 92 523 79T564 65L545 -5Q452 -5 430 69Q395 33 349 11T250 -12ZM164
572L117 646L263 740H327L473 646L426 572L295 677L164 572Z" />
<glyph unicode="&#xfc;" glyph-name="udieresis" horiz-adv-x="604" d="M250 -12Q205 -12 165 7T100 68T75 182V520H165V194Q165 133 191 101T267 68Q308 68 346 84T415 129V520H505V135Q505 92 523 79T564 65L545 -5Q452 -5 430 69Q395 33 349 11T250 -12ZM386
607Q361 607 344 625T326 667Q326 694 342 710T386 727Q411 727 428 709T446 667Q446 640 430 624T386 607ZM204 607Q179 607 162 625T144 667Q144 694 160 710T204 727Q229 727 246 709T264 667Q264 640 248 624T204 607Z" />
<glyph unicode="&#xfd;" glyph-name="yacute" horiz-adv-x="523" d="M93 -232Q63 -232 41 -226T5 -212L25 -137Q37 -144 55 -149T95 -154Q137 -154 170 -127T233 -21L256 39H208L5 496L85 532L279 99L430 528L513 496L322 -26Q293 -106 259 -151T184 -214T93 -232ZM183
575L152 636L341 761L383 677L183 575Z" />
<glyph unicode="&#xfe;" glyph-name="thorn" horiz-adv-x="594" d="M80 -220V700H170V466Q190 489 228 510T320 532Q380 532 432 501T517 410T549 265Q549 182 517 120T434 23T322 -12Q276 -12 236 6T170 49V-220H80ZM304 68Q372 68 414 121T457 262Q457 322 436
365T379 431T300 454Q257 454 223 433T170 386V130Q196 103 230 86T304 68Z" />
<glyph unicode="&#xff;" glyph-name="ydieresis" horiz-adv-x="523" d="M93 -232Q63 -232 41 -226T5 -212L25 -137Q37 -144 55 -149T95 -154Q137 -154 170 -127T233 -21L256 39H208L5 496L85 532L279 99L430 528L513 496L322 -26Q293 -106 259 -151T184 -214T93
-232ZM359 607Q334 607 317 625T299 667Q299 694 315 710T359 727Q384 727 401 709T419 667Q419 640 403 624T359 607ZM177 607Q152 607 135 625T117 667Q117 694 133 710T177 727Q202 727 219 709T237 667Q237 640 221 624T177 607Z" />
<glyph unicode="&#x2013;" glyph-name="endash" horiz-adv-x="600" d="M70 302V384H530V302H70Z" />
<glyph unicode="&#x2014;" glyph-name="emdash" horiz-adv-x="750" d="M75 302V384H675V302H75Z" />
<glyph unicode="&#x2018;" glyph-name="quoteleft" horiz-adv-x="227" d="M120 532Q85 532 63 555T40 621Q40 667 66 712T141 782L164 747Q112 711 102 656Q111 660 123 660Q151 660 169 642T187 596Q187 568 168 550T120 532Z" />
<glyph unicode="&#x2019;" glyph-name="quoteright" horiz-adv-x="227" d="M86 502L63 537Q115 573 125 628Q116 624 104 624Q76 624 58 642T40 688Q40 717 59 734T107 752Q142 752 164 729T187 663Q187 617 161 573T86 502Z" />
<glyph unicode="&#x201a;" glyph-name="quotesinglbase" horiz-adv-x="227" d="M86 -128L63 -93Q115 -57 125 -2Q116 -6 104 -6Q76 -6 58 12T40 58Q40 87 59 104T107 122Q142 122 164 99T187 33Q187 -13 161 -57T86 -128Z" />
<glyph unicode="&#x201c;" glyph-name="quotedblleft" horiz-adv-x="411" d="M304 532Q269 532 247 555T224 621Q224 667 250 712T325 782L348 747Q296 711 286 656Q295 660 307 660Q335 660 353 642T371 596Q371 568 352 550T304 532ZM120 532Q85 532 63 555T40
621Q40 667 66 712T141 782L164 747Q112 711 102 656Q111 660 123 660Q151 660 169 642T187 596Q187 568 168 550T120 532Z" />
<glyph unicode="&#x201d;" glyph-name="quotedblright" horiz-adv-x="411" d="M270 502L247 537Q299 573 309 628Q300 624 288 624Q260 624 242 642T224 688Q224 717 243 734T291 752Q326 752 348 729T371 663Q371 617 345 573T270 502ZM86 502L63 537Q115 573
125 628Q116 624 104 624Q76 624 58 642T40 688Q40 717 59 734T107 752Q142 752 164 729T187 663Q187 617 161 573T86 502Z" />
<glyph unicode="&#x201e;" glyph-name="quotedblbase" horiz-adv-x="411" d="M270 -128L247 -93Q299 -57 309 -2Q300 -6 288 -6Q260 -6 242 12T224 58Q224 87 243 104T291 122Q326 122 348 99T371 33Q371 -13 345 -57T270 -128ZM86 -128L63 -93Q115 -57 125 -2Q116
-6 104 -6Q76 -6 58 12T40 58Q40 87 59 104T107 122Q142 122 164 99T187 33Q187 -13 161 -57T86 -128Z" />
<glyph unicode="&#x2022;" glyph-name="bullet" horiz-adv-x="450" d="M225 221Q188 221 158 239T109 287T91 355Q91 417 126 453T225 489Q262 489 292 471T341 423T359 355Q359 294 324 258T225 221Z" />
<glyph unicode="&#x2039;" glyph-name="guilsinglleft" horiz-adv-x="366" d="M218 129L60 323V365L218 559L276 510L134 344L276 178L218 129Z" />
<glyph unicode="&#x203a;" glyph-name="guilsinglright" horiz-adv-x="366" d="M148 129L90 178L232 344L90 510L148 559L306 365V323L148 129Z" />
</font>
</defs>
</svg>
