<svg xmlns="http://www.w3.org/2000/svg" viewBox="0 0 576 512"><!--! Font Awesome Pro 6.6.0 by @fontawesome - https://fontawesome.com License - https://fontawesome.com/license (Commercial License) Copyright 2024 Fonticons, Inc. --><defs><style>.fa-secondary{opacity:.4}</style></defs><path class="fa-secondary" d="M0 96L0 416c0 35.3 28.7 64 64 64l232.2 0c-16.2-19.7-28.3-42.9-34.8-68.4c-12 2.9-24.5 4.4-37.4 4.4c-88.4 0-160-71.6-160-160s71.6-160 160-160c69.3 0 128.3 44 150.5 105.6c18-6.2 37.4-9.6 57.5-9.6c5.4 0 10.7 .2 16 .7L448 96c0-35.3-28.7-64-64-64L64 32C28.7 32 0 60.7 0 96zM192 256a32 32 0 1 0 64 0 32 32 0 1 0 -64 0z"/><path class="fa-primary" d="M288 368a144 144 0 1 1 288 0 144 144 0 1 1 -288 0zm144-80c-8.8 0-16 7.2-16 16l0 48-48 0c-8.8 0-16 7.2-16 16s7.2 16 16 16l48 0 0 48c0 8.8 7.2 16 16 16s16-7.2 16-16l0-48 48 0c8.8 0 16-7.2 16-16s-7.2-16-16-16l-48 0 0-48c0-8.8-7.2-16-16-16z"/></svg>