<svg xmlns="http://www.w3.org/2000/svg" viewBox="0 0 512 512"><!--! Font Awesome Pro 6.6.0 by @fontawesome - https://fontawesome.com License - https://fontawesome.com/license (Commercial License) Copyright 2024 Fonticons, Inc. --><defs><style>.fa-secondary{opacity:.4}</style></defs><path class="fa-secondary" d="M0 480c0 8.2 3.1 16.4 9.4 22.6s14.4 9.4 22.6 9.4s16.4-3.1 22.6-9.4L176 381.3l0 50.7c0 17.7 14.3 32 32 32s32-14.3 32-32l0-128c0-17.7-14.3-32-32-32L80 272c-17.7 0-32 14.3-32 32s14.3 32 32 32l50.7 0L9.4 457.4C3.1 463.6 0 471.8 0 480z"/><path class="fa-primary" d="M502.6 9.4c12.5 12.5 12.5 32.8 0 45.3L381.3 176l50.7 0c17.7 0 32 14.3 32 32s-14.3 32-32 32l-128 0c-17.7 0-32-14.3-32-32l0-128c0-17.7 14.3-32 32-32s32 14.3 32 32l0 50.7L457.4 9.4c12.5-12.5 32.8-12.5 45.3 0z"/></svg>