<svg xmlns="http://www.w3.org/2000/svg" viewBox="0 0 512 512"><!--! Font Awesome Pro 6.6.0 by @fontawesome - https://fontawesome.com License - https://fontawesome.com/license (Commercial License) Copyright 2024 Fonticons, Inc. --><defs><style>.fa-secondary{opacity:.4}</style></defs><path class="fa-secondary" d="M77.3 288l32 32L416 320c53 0 96-43 96-96l0-160c0-17.7-14.3-32-32-32s-32 14.3-32 32l0 160c0 17.7-14.3 32-32 32l-306.7 0-32 32z"/><path class="fa-primary" d="M182.6 137.4c-12.5-12.5-32.8-12.5-45.3 0l-128 128c-12.5 12.5-12.5 32.8 0 45.3l128 128c12.5 12.5 32.8 12.5 45.3 0s12.5-32.8 0-45.3L77.3 288 182.6 182.6c12.5-12.5 12.5-32.8 0-45.3z"/></svg>