<svg xmlns="http://www.w3.org/2000/svg" viewBox="0 0 384 512"><!--! Font Awesome Pro 6.6.0 by @fontawesome - https://fontawesome.com License - https://fontawesome.com/license (Commercial License) Copyright 2024 Fonticons, Inc. --><defs><style>.fa-secondary{opacity:.4}</style></defs><path class="fa-secondary" d="M0 64C0 46.3 14.3 32 32 32l320 0c17.7 0 32 14.3 32 32s-14.3 32-32 32L32 96C14.3 96 0 81.7 0 64z"/><path class="fa-primary" d="M169.4 470.6c12.5 12.5 32.8 12.5 45.3 0l128-128c12.5-12.5 12.5-32.8 0-45.3s-32.8-12.5-45.3 0L224 370.7l0-66.7 0-112c0-17.7-14.3-32-32-32s-32 14.3-32 32l0 112 0 66.7L86.6 297.4c-12.5-12.5-32.8-12.5-45.3 0s-12.5 32.8 0 45.3l128 128z"/></svg>