<svg xmlns="http://www.w3.org/2000/svg" viewBox="0 0 512 512"><!--! Font Awesome Pro 6.6.0 by @fontawesome - https://fontawesome.com License - https://fontawesome.com/license (Commercial License) Copyright 2024 Fonticons, Inc. --><defs><style>.fa-secondary{opacity:.4}</style></defs><path class="fa-secondary" d="M0 96L0 416c0 17.7 14.3 32 32 32s32-14.3 32-32l0-118.3 0-83.3L64 96c0-17.7-14.3-32-32-32S0 78.3 0 96z"/><path class="fa-primary" d="M459.5 440.6c9.5 7.9 22.8 9.7 34.1 4.4s18.4-16.6 18.4-29l0-320c0-12.4-7.2-23.7-18.4-29s-24.5-3.6-34.1 4.4L288 214.3 288 96c0-12.4-7.2-23.7-18.4-29s-24.5-3.6-34.1 4.4L64 214.3l0 83.3L235.5 440.6c9.5 7.9 22.8 9.7 34.1 4.4s18.4-16.6 18.4-29l0-118.3L459.5 440.6z"/></svg>