<svg xmlns="http://www.w3.org/2000/svg" viewBox="0 0 448 512"><!--! Font Awesome Pro 6.6.0 by @fontawesome - https://fontawesome.com License - https://fontawesome.com/license (Commercial License) Copyright 2024 Fonticons, Inc. --><defs><style>.fa-secondary{opacity:.4}</style></defs><path class="fa-secondary" d="M0 208L0 416c0 53 43 96 96 96l256 0c53 0 96-43 96-96l0-208c0-26.5-21.5-48-48-48l-64 0 0 72c0 13.3-10.7 24-24 24s-24-10.7-24-24l0-72-128 0 0 72c0 13.3-10.7 24-24 24s-24-10.7-24-24l0-72-64 0c-26.5 0-48 21.5-48 48z"/><path class="fa-primary" d="M224 48c-35.3 0-64 28.7-64 64l0 120c0 13.3-10.7 24-24 24s-24-10.7-24-24l0-120C112 50.1 162.1 0 224 0s112 50.1 112 112l0 120c0 13.3-10.7 24-24 24s-24-10.7-24-24l0-120c0-35.3-28.7-64-64-64z"/></svg>