<svg xmlns="http://www.w3.org/2000/svg" viewBox="0 0 576 512"><!--! Font Awesome Pro 6.6.0 by @fontawesome - https://fontawesome.com License - https://fontawesome.com/license (Commercial License) Copyright 2024 Fonticons, Inc. --><defs><style>.fa-secondary{opacity:.4}</style></defs><path class="fa-secondary" d="M0 208C0 146.1 57.3 96 128 96c30.5 0 58.5 9.3 80.5 24.9c1.1 9.8 3.9 19 8.2 27.4c2.1 4.2 4.7 8.2 7.5 11.9c1.4 1.9 2.9 3.7 4.5 5.4c.8 .9 1.6 1.7 2.4 2.5s1.7 1.6 2.5 2.4c-37.9 15.5-67.7 46.6-81.4 85.4c-3.6 10.2-6.1 20.9-7.3 32c-.6 5.3-.9 10.6-.9 16c0 5 .4 10 1.1 15c-5.6 .6-11.3 1-17.1 1C57.3 320 0 269.9 0 208zm342.4-37.4c13.7-12.7 22.9-30.2 25.1-49.7c22-15.6 50-24.9 80.5-24.9c70.7 0 128 50.1 128 112s-57.3 112-128 112c-5.8 0-11.5-.3-17.1-1c.3-2.5 .6-5 .8-7.6c.1-1.2 .2-2.5 .2-3.7s.1-2.5 .1-3.7c0-5.4-.3-10.7-.9-16c-1.2-11.1-3.7-21.8-7.3-32c-13.7-38.8-43.5-69.9-81.4-85.4z"/><path class="fa-primary" d="M196.7 4.7c6.2-6.2 16.4-6.2 22.6 0l34.8 34.8C264.4 34.7 275.9 32 288 32s23.6 2.7 33.9 7.5L356.7 4.7c6.2-6.2 16.4-6.2 22.6 0s6.2 16.4 0 22.6L347.8 58.8C360.4 73 368 91.6 368 112c0 23.2-9.8 44-25.6 58.6c37.9 15.5 67.7 46.6 81.4 85.4l-271.6 0c13.7-38.8 43.5-69.9 81.4-85.4C217.8 156 208 135.2 208 112c0-20.4 7.6-39 20.2-53.2L196.7 27.3c-6.2-6.2-6.2-16.4 0-22.6zM144 304c0-5.4 .3-10.7 .9-16l286.2 0c.6 5.3 .9 10.6 .9 16c0 10.5-1.6 21.3-4.6 32l-278.9 0c-2.9-10.7-4.6-21.5-4.6-32zm45.9 112c-11.1-15.2-21.3-31.4-29.2-48l254.6 0c-8 16.6-18.1 32.8-29.2 48l-196.2 0zm84 90.8c-10.8-9.4-34.3-30.9-58.5-58.8l145.1 0c-24.2 27.9-47.8 49.4-58.5 58.8c-3.9 3.4-8.9 5.2-14.1 5.2s-10.2-1.8-14.1-5.2z"/></svg>