<svg xmlns="http://www.w3.org/2000/svg" viewBox="0 0 512 512"><!--! Font Awesome Pro 6.6.0 by @fontawesome - https://fontawesome.com License - https://fontawesome.com/license (Commercial License) Copyright 2024 Fonticons, Inc. --><defs><style>.fa-secondary{opacity:.4}</style></defs><path class="fa-secondary" d="M0 424c0 13.3 10.7 24 24 24l464 0c13.3 0 24-10.7 24-24s-10.7-24-24-24l-8 0L32 400l-8 0c-13.3 0-24 10.7-24 24zM192 88c0 13.3 10.7 24 24 24l16 0 0 33.3c7.9-.8 15.9-1.3 24-1.3c2 0 4 0 6.1 .1s4 .1 6 .2c4 .2 8 .5 11.9 1l0-33.3 16 0c13.3 0 24-10.7 24-24s-10.7-24-24-24l-40 0-40 0c-13.3 0-24 10.7-24 24z"/><path class="fa-primary" d="M480 368c0-123.7-100.3-224-224-224S32 244.3 32 368v32H480V368z"/></svg>