<svg xmlns="http://www.w3.org/2000/svg" viewBox="0 0 640 512"><!--! Font Awesome Pro 6.6.0 by @fontawesome - https://fontawesome.com License - https://fontawesome.com/license (Commercial License) Copyright 2024 Fonticons, Inc. --><defs><style>.fa-secondary{opacity:.4}</style></defs><path class="fa-secondary" d="M32 192l320 0c0-26.5-10.7-50.5-28.1-67.9c-1.1-1.1-2.1-2.1-3.2-3.1c-17.1-15.5-39.7-25-64.6-25L128 96c-53 0-96 43-96 96zM112 48c0 8.8 7.2 16 16 16l128 0c8.8 0 16-7.2 16-16s-7.2-16-16-16l0-8c0-13.3-10.7-24-24-24L152 0c-13.3 0-24 10.7-24 24l0 8c-8.8 0-16 7.2-16 16zM335.4 91.6C365 115.1 384 151.3 384 192l191.1 0c-1.2-9.7-4.6-18.7-9.6-26.5c6.4-9.5 10.1-21 10.1-33.3c0-23.2-13.4-44.3-34.4-54.2L528 71.8c-5.3-2.5-10.8-4.4-16.4-5.7l0-42.1c0-13.3-10.7-24-24-24l-80 0c-13.3 0-24 10.7-24 24l0 42.1c-5.6 1.3-11.1 3.2-16.4 5.7L354.1 78c-7.2 3.4-13.5 8-18.6 13.6z"/><path class="fa-primary" d="M0 256c0-17.7 14.3-32 32-32l576 0c17.7 0 32 14.3 32 32s-14.3 32-32 32L583.8 457c-4.5 31.5-31.5 55-63.4 55l-401 0c-31.8 0-58.9-23.4-63.4-55L32 288c-17.7 0-32-14.3-32-32zm319.9 64c4.6 0 9 2.3 11.5 6.2l8.5 12.9c4.8 7.3 14.5 9.4 21.8 4.8c7.6-4.8 9.8-14.9 4.9-22.4l-8.5-12.9c-8.5-12.9-22.8-20.6-38.2-20.6c-15.3 0-29.6 7.7-38.1 20.4l-7.6 11.4c-5 7.5-2.8 17.7 4.8 22.4c7.3 4.6 17 2.5 21.8-4.7l7.6-11.4c2.6-3.8 6.9-6.1 11.5-6.1zm-59.4 48.4c-7.3-4.6-17-2.5-21.8 4.7l-7.9 11.9c-4.4 6.7-6.8 14.5-6.8 22.5c0 22.4 18.2 40.6 40.6 40.6l25.2 0c8.8 0 16-7.2 16-16s-7.2-16-16-16l-25.2 0c-4.7 0-8.6-3.8-8.6-8.6c0-1.7 .5-3.3 1.4-4.7l7.9-11.9c5-7.5 2.8-17.7-4.8-22.4zM337.7 432c0 8.8 7.2 16 16 16l20.9 0c22.4 0 40.6-18.2 40.6-40.6c0-7.9-2.3-15.7-6.7-22.4l-6.6-10.1c-4.8-7.3-14.5-9.4-21.8-4.8c-7.6 4.8-9.8 14.9-4.9 22.4l6.6 10.1c.9 1.4 1.4 3.1 1.4 4.7c0 4.8-3.9 8.6-8.6 8.6l-20.9 0c-8.8 0-16 7.2-16 16z"/></svg>