<svg xmlns="http://www.w3.org/2000/svg" viewBox="0 0 448 512"><!--! Font Awesome Pro 6.6.0 by @fontawesome - https://fontawesome.com License - https://fontawesome.com/license (Commercial License) Copyright 2024 Fonticons, Inc. --><defs><style>.fa-secondary{opacity:.4}</style></defs><path class="fa-secondary" d="M64 416c0-17.7 14.3-32 32-32l160 0 96 0 64 0 0 64-64 0-96 0L96 448c-17.7 0-32-14.3-32-32z"/><path class="fa-primary" d="M0 96C0 43 43 0 96 0L384 0l32 0c17.7 0 32 14.3 32 32l0 320c0 17.7-14.3 32-32 32l-64 0-96 0L96 384c-17.7 0-32 14.3-32 32s14.3 32 32 32l160 0 96 0 64 0c17.7 0 32 14.3 32 32s-14.3 32-32 32l-32 0L96 512c-53 0-96-43-96-96L0 96zm144 32c-8.8 0-16 7.2-16 16s7.2 16 16 16l192 0c8.8 0 16-7.2 16-16s-7.2-16-16-16l-192 0zm-16 80c0 8.8 7.2 16 16 16l192 0c8.8 0 16-7.2 16-16s-7.2-16-16-16l-192 0c-8.8 0-16 7.2-16 16z"/></svg>