<svg xmlns="http://www.w3.org/2000/svg" viewBox="0 0 640 512"><!--! Font Awesome Pro 6.6.0 by @fontawesome - https://fontawesome.com License - https://fontawesome.com/license (Commercial License) Copyright 2024 Fonticons, Inc. --><defs><style>.fa-secondary{opacity:.4}</style></defs><path class="fa-secondary" d="M128 48l0 27C256 175.4 384 275.7 512 376l0-328c0-26.5-21.5-48-48-48L176 0c-26.5 0-48 21.5-48 48zm0 148.8l0 290.8c0 13.4 10.9 24.3 24.3 24.3c5 0 9.9-1.5 14-4.4L320 400 473.7 507.6c4.1 2.9 9 4.4 14 4.4c9.9 0 18.4-5.9 22.2-14.3L128 196.8z"/><path class="fa-primary" d="M5.1 9.2C13.3-1.2 28.4-3.1 38.8 5.1l592 464c10.4 8.2 12.3 23.3 4.1 33.7s-23.3 12.3-33.7 4.1L9.2 42.9C-1.2 34.7-3.1 19.6 5.1 9.2z"/></svg>