<svg xmlns="http://www.w3.org/2000/svg" viewBox="0 0 640 512"><!--! Font Awesome Pro 6.6.0 by @fontawesome - https://fontawesome.com License - https://fontawesome.com/license (Commercial License) Copyright 2024 Fonticons, Inc. --><defs><style>.fa-secondary{opacity:.4}</style></defs><path class="fa-secondary" d="M0 96C0 43 43 0 96 0L384 0l32 0c17.7 0 32 14.3 32 32l0 166.6C374.1 219.5 320 287.4 320 368c0 5.4 .2 10.7 .7 16L96 384c-17.7 0-32 14.3-32 32s14.3 32 32 32l243.2 0c13.1 25.6 32.2 47.6 55.6 64L384 512 96 512c-53 0-96-43-96-96L0 96z"/><path class="fa-primary" d="M640 368a144 144 0 1 0 -288 0 144 144 0 1 0 288 0zM428.7 348.7l56-56c6.2-6.2 16.4-6.2 22.6 0l56 56c6.2 6.2 6.2 16.4 0 22.6s-16.4 6.2-22.6 0L512 342.6l0 89.4c0 8.8-7.2 16-16 16s-16-7.2-16-16l0-89.4-28.7 28.7c-6.2 6.2-16.4 6.2-22.6 0s-6.2-16.4 0-22.6z"/></svg>