<svg xmlns="http://www.w3.org/2000/svg" viewBox="0 0 512 512"><!--! Font Awesome Pro 6.6.0 by @fontawesome - https://fontawesome.com License - https://fontawesome.com/license (Commercial License) Copyright 2024 Fonticons, Inc. --><defs><style>.fa-secondary{opacity:.4}</style></defs><path class="fa-secondary" d="M0 64C0 28.7 28.7 0 64 0l96 0 0 64L64 64l0 416c0 17.7-14.3 32-32 32s-32-14.3-32-32L0 64zM448 0c35.3 0 64 28.7 64 64l0 416c0 17.7-14.3 32-32 32s-32-14.3-32-32l0-80 0-336 0-64z"/><path class="fa-primary" d="M160 0l96 0 96 0 96 0 0 400c0 26.5-21.5 48-48 48s-48-21.5-48-48c0 26.5-21.5 48-48 48s-48-21.5-48-48c0 26.5-21.5 48-48 48s-48-21.5-48-48L160 0z"/></svg>