<svg xmlns="http://www.w3.org/2000/svg" viewBox="0 0 448 512"><!--! Font Awesome Pro 6.6.0 by @fontawesome - https://fontawesome.com License - https://fontawesome.com/license (Commercial License) Copyright 2024 Fonticons, Inc. --><defs><style>.fa-secondary{opacity:.4}</style></defs><path class="fa-secondary" d="M160 256a32 32 0 1 1 -64 0 32 32 0 1 1 64 0zm96-96a32 32 0 1 1 -64 0 32 32 0 1 1 64 0zm0 96a32 32 0 1 1 -64 0 32 32 0 1 1 64 0zm0 96a32 32 0 1 1 -64 0 32 32 0 1 1 64 0zm96-96a32 32 0 1 1 -64 0 32 32 0 1 1 64 0z"/><path class="fa-primary" d="M384 96l0 320L64 416 64 96l320 0zM64 32C28.7 32 0 60.7 0 96L0 416c0 35.3 28.7 64 64 64l320 0c35.3 0 64-28.7 64-64l0-320c0-35.3-28.7-64-64-64L64 32z"/></svg>