<svg xmlns="http://www.w3.org/2000/svg" viewBox="0 0 448 512"><!--! Font Awesome Pro 6.6.0 by @fontawesome - https://fontawesome.com License - https://fontawesome.com/license (Commercial License) Copyright 2024 Fonticons, Inc. --><defs><style>.fa-secondary{opacity:.4}</style></defs><path class="fa-secondary" d="M0 64a32 32 0 1 0 64 0A32 32 0 1 0 0 64zm0 96a32 32 0 1 0 64 0A32 32 0 1 0 0 160zM0 352a32 32 0 1 0 64 0A32 32 0 1 0 0 352zm0 96a32 32 0 1 0 64 0A32 32 0 1 0 0 448zM96 64a32 32 0 1 0 64 0A32 32 0 1 0 96 64zm0 384a32 32 0 1 0 64 0 32 32 0 1 0 -64 0zM288 64a32 32 0 1 0 64 0 32 32 0 1 0 -64 0zm0 384a32 32 0 1 0 64 0 32 32 0 1 0 -64 0zM384 64a32 32 0 1 0 64 0 32 32 0 1 0 -64 0zm0 96a32 32 0 1 0 64 0 32 32 0 1 0 -64 0zm0 192a32 32 0 1 0 64 0 32 32 0 1 0 -64 0zm0 96a32 32 0 1 0 64 0 32 32 0 1 0 -64 0z"/><path class="fa-primary" d="M192 448c0 17.7 14.3 32 32 32s32-14.3 32-32l0-160 160 0c17.7 0 32-14.3 32-32s-14.3-32-32-32l-160 0 0-160c0-17.7-14.3-32-32-32s-32 14.3-32 32l0 160L32 224c-17.7 0-32 14.3-32 32s14.3 32 32 32l160 0 0 160z"/></svg>