<svg xmlns="http://www.w3.org/2000/svg" viewBox="0 0 448 512"><!--! Font Awesome Pro 6.6.0 by @fontawesome - https://fontawesome.com License - https://fontawesome.com/license (Commercial License) Copyright 2024 Fonticons, Inc. --><defs><style>.fa-secondary{opacity:.4}</style></defs><path class="fa-secondary" d="M0 160a32 32 0 1 0 64 0A32 32 0 1 0 0 160zm0 96a32 32 0 1 0 64 0A32 32 0 1 0 0 256zm0 96a32 32 0 1 0 64 0A32 32 0 1 0 0 352zm0 96a32 32 0 1 0 64 0A32 32 0 1 0 0 448zM96 256a32 32 0 1 0 64 0 32 32 0 1 0 -64 0zm0 192a32 32 0 1 0 64 0 32 32 0 1 0 -64 0zm96-288a32 32 0 1 0 64 0 32 32 0 1 0 -64 0zm0 96a32 32 0 1 0 64 0 32 32 0 1 0 -64 0zm0 96a32 32 0 1 0 64 0 32 32 0 1 0 -64 0zm0 96a32 32 0 1 0 64 0 32 32 0 1 0 -64 0zm96-192a32 32 0 1 0 64 0 32 32 0 1 0 -64 0zm0 192a32 32 0 1 0 64 0 32 32 0 1 0 -64 0zm96-288a32 32 0 1 0 64 0 32 32 0 1 0 -64 0zm0 96a32 32 0 1 0 64 0 32 32 0 1 0 -64 0zm0 96a32 32 0 1 0 64 0 32 32 0 1 0 -64 0zm0 96a32 32 0 1 0 64 0 32 32 0 1 0 -64 0z"/><path class="fa-primary" d="M0 64C0 46.3 14.3 32 32 32H416c17.7 0 32 14.3 32 32s-14.3 32-32 32H32C14.3 96 0 81.7 0 64z"/></svg>