<svg xmlns="http://www.w3.org/2000/svg" viewBox="0 0 512 512"><!--! Font Awesome Pro 6.6.0 by @fontawesome - https://fontawesome.com License - https://fontawesome.com/license (Commercial License) Copyright 2024 Fonticons, Inc. --><defs><style>.fa-secondary{opacity:.4}</style></defs><path class="fa-secondary" d="M192 128l0 32 0 32 0 96 0 32 0 32 8.7 0c67.9 0 133 27 181 75l43.6 43.6c9.2 9.2 22.9 11.9 34.9 6.9s19.8-16.6 19.8-29.6l0-147.6 0-120.7L480 32c0-12.9-7.8-24.6-19.8-29.6C456.3 .8 452.1 0 448 0c-8.3 0-16.5 3.3-22.6 9.4L381.7 53c-48 48-113.1 75-181 75c-2.9 0-5.8 0-8.7 0z"/><path class="fa-primary" d="M0 192c0-35.3 28.7-64 64-64l128 0 0 192 0 32 0 128c0 17.7-14.3 32-32 32l-64 0c-17.7 0-32-14.3-32-32l0-128c-35.3 0-64-28.7-64-64l0-96zm512 48c0 27.9-13.4 51.6-32 60.4l0-120.7c18.6 8.8 32 32.5 32 60.4z"/></svg>