<svg xmlns="http://www.w3.org/2000/svg" viewBox="0 0 640 512"><!--! Font Awesome Pro 6.6.0 by @fontawesome - https://fontawesome.com License - https://fontawesome.com/license (Commercial License) Copyright 2024 Fonticons, Inc. --><defs><style>.fa-secondary{opacity:.4}</style></defs><path class="fa-secondary" d="M0 321.7c0 10.4 4 20.7 11.6 28.3c10.1 10.1 27 22 46.3 33.9c15-25 44.8-68.5 95.1-118.8s93.8-80.1 118.8-95.1c-12-19.3-23.8-36.2-33.9-46.3c-12.2-12.2-30.8-15.2-46.2-7.5c-39.6 20.1-75.4 49.9-106.6 81C54 228.4 24.5 264 4.3 303.4c-2.9 5.8-4.3 12-4.3 18.2zM212 464.6c26.3 11.8 51.9 22.2 73.6 29.5c28.6 9.6 68.7 22.2 93.6-2.7s12.2-65 2.7-93.6c-7.3-21.8-17.7-47.3-29.5-73.6c-21.6 16.2-47.3 37.7-75 65.4s-49.2 53.3-65.4 75zM320 56c0 14.3 3.6 34.7 8.7 56.8C357 105.7 408.8 96 480 96s123 9.7 151.3 16.8C636.4 90.7 640 70.3 640 56c0-17.2-11-32.5-27.4-37.9C570.4 4.2 524.1 0 480 0c-44 0-90 4.4-132.2 17.9C331.4 23.4 320 38.8 320 56zm60.7 222.8c10.3 27 21 52.4 31.2 72.9c13.4 27 32.9 64.3 68.1 64.3s54.6-37.3 68.1-64.3c10.2-20.6 20.9-46 31.2-72.9c-26.7-3.8-60.1-6.8-99.3-6.8s-72.5 2.9-99.3 6.8z"/><path class="fa-primary" d="M336.4 142.9C365.9 136.1 414.8 128 480 128s114.1 8.1 143.6 14.9c-9 33.1-21 71.2-33.9 107.5c-3.4 9.5-6.9 19-10.4 28.3c-26.7-3.8-60.1-6.8-99.3-6.8s-72.5 2.9-99.3 6.8c-3.5-9.3-7-18.8-10.4-28.3c-12.9-36.3-24.9-74.4-33.9-107.5zM84.6 399.9c16.1-25.7 44.9-66 91-112.1s86.4-74.9 112.1-91c17.1 29.8 35.5 65.2 52 100c4.3 9.2 8.6 18.3 12.7 27.4c-21.6 16.2-47.2 37.7-75 65.4s-49.2 53.3-65.4 75c-9.1-4.1-18.3-8.3-27.4-12.7c-34.8-16.5-70.2-35-100-52z"/></svg>