<svg xmlns="http://www.w3.org/2000/svg" viewBox="0 0 576 512"><!--! Font Awesome Pro 6.6.0 by @fontawesome - https://fontawesome.com License - https://fontawesome.com/license (Commercial License) Copyright 2024 Fonticons, Inc. --><defs><style>.fa-secondary{opacity:.4}</style></defs><path class="fa-secondary" d="M120.1 32c2 4.2 3.5 8.8 4.4 13.5c15.4 80.8 30.8 161.7 46.2 242.5l288.5 0c32.6 0 61.1-21.8 69.5-53.3l41-152.3C576.6 57 557.4 32 531.1 32L360 32l0 110.1 23-23c9.4-9.4 24.6-9.4 33.9 0s9.4 24.6 0 33.9l-64 64c-1.1 1.1-2.4 2.1-3.7 3c-1.3 .9-2.7 1.6-4.1 2.2c-1.4 .6-2.9 1-4.5 1.4s-3.1 .5-4.7 .5c-1.6 0-3.2-.2-4.7-.5c-1.5-.3-3-.8-4.5-1.4c-1.4-.6-2.8-1.3-4.1-2.2s-2.5-1.9-3.7-3l-64-64c-9.4-9.4-9.4-24.6 0-33.9s24.6-9.4 33.9 0l23 23L312 32 120.1 32z"/><path class="fa-primary" d="M24 0C10.7 0 0 10.7 0 24S10.7 48 24 48l45.5 0c3.8 0 7.1 2.7 7.9 6.5l51.6 271c6.5 34 36.2 58.5 70.7 58.5L488 384c13.3 0 24-10.7 24-24s-10.7-24-24-24l-288.3 0c-11.5 0-21.4-8.2-23.6-19.5l-51.6-271C119.5 19.1 96.4 0 69.5 0L24 0zM176 512a48 48 0 1 0 0-96 48 48 0 1 0 0 96zm336-48a48 48 0 1 0 -96 0 48 48 0 1 0 96 0zM360 142.1L360 32l-48 0 0 110.1-23-23c-9.4-9.4-24.6-9.4-33.9 0s-9.4 24.6 0 33.9l64 64c4.5 4.5 10.6 7 17 7s12.5-2.5 17-7l64-64c9.4-9.4 9.4-24.6 0-33.9s-24.6-9.4-33.9 0l-23 23z"/></svg>