<svg xmlns="http://www.w3.org/2000/svg" viewBox="0 0 512 512"><!--! Font Awesome Pro 6.6.0 by @fontawesome - https://fontawesome.com License - https://fontawesome.com/license (Commercial License) Copyright 2024 Fonticons, Inc. --><defs><style>.fa-secondary{opacity:.4}</style></defs><path class="fa-secondary" d="M0 64L0 400c0 44.2 35.8 80 80 80l400 0c17.7 0 32-14.3 32-32s-14.3-32-32-32L80 416c-8.8 0-16-7.2-16-16L64 64c0-17.7-14.3-32-32-32S0 46.3 0 64z"/><path class="fa-primary" d="M448 352H160c-17.7 0-32-14.3-32-32V236c0-7.8 2.8-15.2 7.9-21.1l79.4-90.8c13-14.8 36.1-14.5 48.7 .6l39.2 47c9 10.8 25.4 11.6 35.4 1.6l21-21c13.2-13.2 34.8-12.4 46.9 1.8L472.3 231c5 5.8 7.7 13.2 7.7 20.8V320c0 17.7-14.3 32-32 32z"/></svg>