<svg xmlns="http://www.w3.org/2000/svg" viewBox="0 0 448 512"><!--! Font Awesome Pro 6.6.0 by @fontawesome - https://fontawesome.com License - https://fontawesome.com/license (Commercial License) Copyright 2024 Fonticons, Inc. --><defs><style>.fa-secondary{opacity:.4}</style></defs><path class="fa-secondary" d="M48 144c0 8.2 3.1 16.4 9.4 22.6l80 80c6.2 6.2 14.4 9.4 22.6 9.4s16.4-3.1 22.6-9.4l160-160c12.5-12.5 12.5-32.8 0-45.3C336.4 35.1 328.2 32 320 32s-16.4 3.1-22.6 9.4L160 178.7l-57.4-57.4c-12.5-12.5-32.8-12.5-45.3 0C51.1 127.6 48 135.8 48 144z"/><path class="fa-primary" d="M438.6 169.4c12.5 12.5 12.5 32.8 0 45.3l-256 256c-12.5 12.5-32.8 12.5-45.3 0l-128-128c-12.5-12.5-12.5-32.8 0-45.3s32.8-12.5 45.3 0L160 402.7 393.4 169.4c12.5-12.5 32.8-12.5 45.3 0z"/></svg>