<svg xmlns="http://www.w3.org/2000/svg" viewBox="0 0 448 512"><!--! Font Awesome Pro 6.6.0 by @fontawesome - https://fontawesome.com License - https://fontawesome.com/license (Commercial License) Copyright 2024 Fonticons, Inc. --><defs><style>.fa-secondary{opacity:.4}</style></defs><path class="fa-secondary" d="M32 489.4C32 501.9 42.1 512 54.6 512l338.7 0c12.5 0 22.6-10.1 22.6-22.6c0-6-2.4-11.8-6.6-16L368 432 80 432 38.6 473.4c-4.2 4.2-6.6 10-6.6 16z"/><path class="fa-primary" d="M256 32c0-17.7-14.3-32-32-32s-32 14.3-32 32l0 16-16 0c-17.7 0-32 14.3-32 32s14.3 32 32 32l16 0 0 48L40.9 160C18.3 160 0 178.3 0 200.9c0 4.7 .8 9.3 2.4 13.8L80 432l288 0 77.6-217.3c1.6-4.4 2.4-9.1 2.4-13.8c0-22.6-18.3-40.9-40.9-40.9L256 160l0-48 16 0c17.7 0 32-14.3 32-32s-14.3-32-32-32l-16 0 0-16z"/></svg>