<svg xmlns="http://www.w3.org/2000/svg" viewBox="0 0 320 512"><!--! Font Awesome Pro 6.6.0 by @fontawesome - https://fontawesome.com License - https://fontawesome.com/license (Commercial License) Copyright 2024 Fonticons, Inc. --><defs><style>.fa-secondary{opacity:.4}</style></defs><path class="fa-secondary" d="M0 489.4C0 501.9 10.1 512 22.6 512l274.7 0c12.5 0 22.6-10.1 22.6-22.6c0-6-2.4-11.8-6.6-16l-32-32c-6-6-14.1-9.4-22.6-9.4l-2.7 0L64 432l-2.7 0c-8.5 0-16.6 3.4-22.6 9.4l-32 32c-4.2 4.2-6.6 10-6.6 16z"/><path class="fa-primary" d="M96 32c0-17.7 14.3-32 32-32l64 0c17.7 0 32 14.3 32 32c0 16.1-11.9 29.4-27.4 31.7c22.4 21.4 51 52.8 74.2 90.9L164.7 260.7c-6.2 6.2-6.2 16.4 0 22.6s16.4 6.2 22.6 0l99.4-99.4C301.8 215.6 312 250.7 312 288c0 47.4-30.8 72.3-56 84.7l0 59.3L64 432l0-59.3C38.8 360.3 8 335.4 8 288C8 190 78.4 106.8 123.4 63.7C107.9 61.4 96 48.1 96 32z"/></svg>