<svg xmlns="http://www.w3.org/2000/svg" viewBox="0 0 256 512"><!--! Font Awesome Pro 6.6.0 by @fontawesome - https://fontawesome.com License - https://fontawesome.com/license (Commercial License) Copyright 2024 Fonticons, Inc. --><defs><style>.fa-secondary{opacity:.4}</style></defs><path class="fa-secondary" d="M0 488c0 13.3 10.7 24 24 24l208 0c13.3 0 24-10.7 24-24c0-5.2-1.7-10.2-4.8-14.4L208 416 48 416 4.8 473.6C1.7 477.8 0 482.8 0 488z"/><path class="fa-primary" d="M104 32C90.7 32 80 42.7 80 56c0 12.2 9.1 22.3 20.9 23.8C79.6 100.1 48 139 48 192c0 26.3 13.6 40.5 26.3 48L72 240c-13.3 0-24 10.7-24 24s10.7 24 24 24l4.4 0L48 416l160 0L179.6 288l4.4 0c13.3 0 24-10.7 24-24s-10.7-24-24-24l-2.3 0c12.7-7.5 26.3-21.7 26.3-48c0-25.9-7.5-48.4-17.7-67l-48.6 48.6c-3.1 3.1-8.2 3.1-11.3 0s-3.1-8.2 0-11.3L181.7 111c-8.8-12.9-18.5-23.4-26.6-31.2C166.9 78.3 176 68.2 176 56c0-13.3-10.7-24-24-24l-48 0z"/></svg>