<svg xmlns="http://www.w3.org/2000/svg" viewBox="0 0 512 512"><!--! Font Awesome Pro 6.6.0 by @fontawesome - https://fontawesome.com License - https://fontawesome.com/license (Commercial License) Copyright 2024 Fonticons, Inc. --><defs><style>.fa-secondary{opacity:.4}</style></defs><path class="fa-secondary" d="M0 256a256 256 0 1 0 512 0A256 256 0 1 0 0 256zm145.2-41.9c-2.5-6-1.1-12.9 3.5-17.4l96-96c3.1-3.1 7.2-4.7 11.3-4.7s8.2 1.6 11.3 4.7l96 96c4.6 4.6 5.9 11.5 3.5 17.4s-8.3 9.9-14.8 9.9l-192 0c-6.5 0-12.3-3.9-14.8-9.9zm0 83.8c2.5-6 8.3-9.9 14.8-9.9l192 0c6.5 0 12.3 3.9 14.8 9.9s1.1 12.9-3.5 17.4l-96 96c-6.2 6.2-16.4 6.2-22.6 0l-96-96c-4.6-4.6-5.9-11.5-3.5-17.4z"/><path class="fa-primary" d="M267.3 100.7c-6.2-6.2-16.4-6.2-22.6 0l-96 96c-4.6 4.6-5.9 11.5-3.5 17.4s8.3 9.9 14.8 9.9l192 0c6.5 0 12.3-3.9 14.8-9.9s1.1-12.9-3.5-17.4l-96-96z"/></svg>