<svg xmlns="http://www.w3.org/2000/svg" viewBox="0 0 512 512"><!--! Font Awesome Pro 6.6.0 by @fontawesome - https://fontawesome.com License - https://fontawesome.com/license (Commercial License) Copyright 2024 Fonticons, Inc. --><defs><style>.fa-secondary{opacity:.4}</style></defs><path class="fa-secondary" d="M0 256a256 256 0 1 0 512 0A256 256 0 1 0 0 256zm128-32c0-6.1 2.3-12.3 7-17s10.8-7 17-7s12.3 2.3 17 7l87 87 87-87c4.7-4.7 10.8-7 17-7s12.3 2.3 17 7s7 10.8 7 17s-2.3 12.3-7 17L273 345c-4.7 4.7-10.8 7-17 7s-12.3-2.3-17-7L135 241c-4.7-4.7-7-10.8-7-17z"/><path class="fa-primary" d="M239 345c9.4 9.4 24.6 9.4 33.9 0L377 241c9.4-9.4 9.4-24.6 0-33.9s-24.6-9.4-33.9 0l-87 87-87-87c-9.4-9.4-24.6-9.4-33.9 0s-9.4 24.6 0 33.9L239 345z"/></svg>