<svg xmlns="http://www.w3.org/2000/svg" viewBox="0 0 512 512"><!--! Font Awesome Pro 6.6.0 by @fontawesome - https://fontawesome.com License - https://fontawesome.com/license (Commercial License) Copyright 2024 Fonticons, Inc. --><defs><style>.fa-secondary{opacity:.4}</style></defs><path class="fa-secondary" d="M0 256a256 256 0 1 0 512 0A256 256 0 1 0 0 256zM160 152c0-10.5 6.8-19.8 16.8-22.9s20.9 .6 26.9 9.2c33.4 48.3 66.8 96.6 100.3 144.8L304 152c0-13.3 10.7-24 24-24s24 10.7 24 24l0 208c0 10.5-6.8 19.8-16.8 22.9c-2.4 .7-4.8 1.1-7.2 1.1c-7.7 0-15.2-3.7-19.7-10.3c-33.4-48.3-66.8-96.6-100.3-144.8L208 360c0 13.3-10.7 24-24 24s-24-10.7-24-24l0-208z"/><path class="fa-primary" d="M176.8 129.1c10-3.1 20.9 .6 26.9 9.2L304 283.2 304 152c0-13.3 10.7-24 24-24s24 10.7 24 24l0 208c0 10.5-6.8 19.8-16.8 22.9s-20.9-.6-26.9-9.2L208 228.8 208 360c0 13.3-10.7 24-24 24s-24-10.7-24-24l0-208c0-10.5 6.8-19.8 16.8-22.9z"/></svg>