<svg xmlns="http://www.w3.org/2000/svg" viewBox="0 0 512 512"><!--! Font Awesome Pro 6.6.0 by @fontawesome - https://fontawesome.com License - https://fontawesome.com/license (Commercial License) Copyright 2024 Fonticons, Inc. --><defs><style>.fa-secondary{opacity:.4}</style></defs><path class="fa-secondary" d="M0 256a256 256 0 1 0 512 0A256 256 0 1 0 0 256zm160-80c0-26.5 21.5-48 48-48l96 0c26.5 0 48 21.5 48 48l0 192c0 6.2-3.5 11.8-9.1 14.4s-12.1 1.9-16.9-1.9l-70-56-70 56c-4.8 3.8-11.4 4.6-16.9 1.9s-9.1-8.3-9.1-14.4l0-192z"/><path class="fa-primary" d="M208 128c-26.5 0-48 21.5-48 48l0 192c0 6.2 3.5 11.8 9.1 14.4s12.1 1.9 16.9-1.9l70-56 70 56c4.8 3.8 11.4 4.6 16.9 1.9s9.1-8.3 9.1-14.4l0-192c0-26.5-21.5-48-48-48l-96 0z"/></svg>