<svg xmlns="http://www.w3.org/2000/svg" viewBox="0 0 512 512"><!--! Font Awesome Pro 6.6.0 by @fontawesome - https://fontawesome.com License - https://fontawesome.com/license (Commercial License) Copyright 2024 Fonticons, Inc. --><defs><style>.fa-secondary{opacity:.4}</style></defs><path class="fa-secondary" d="M0 256a256 256 0 1 0 512 0A256 256 0 1 0 0 256zm128-80c0-8.8 7.2-16 16-16s16 7.2 16 16l0 160c0 8.8-7.2 16-16 16s-16-7.2-16-16l0-160zm64 40c0-8.8 7.2-16 16-16s16 7.2 16 16l0 80c0 8.8-7.2 16-16 16s-16-7.2-16-16l0-80zm64-72c0-8.8 7.2-16 16-16s16 7.2 16 16l0 224c0 8.8-7.2 16-16 16s-16-7.2-16-16l0-224zm64 56c0-8.8 7.2-16 16-16s16 7.2 16 16l0 112c0 8.8-7.2 16-16 16s-16-7.2-16-16l0-112zm64 40c0-8.8 7.2-16 16-16s16 7.2 16 16l0 32c0 8.8-7.2 16-16 16s-16-7.2-16-16l0-32z"/><path class="fa-primary" d="M272 128c8.8 0 16 7.2 16 16l0 224c0 8.8-7.2 16-16 16s-16-7.2-16-16l0-224c0-8.8 7.2-16 16-16zM144 160c8.8 0 16 7.2 16 16l0 160c0 8.8-7.2 16-16 16s-16-7.2-16-16l0-160c0-8.8 7.2-16 16-16zm192 24c8.8 0 16 7.2 16 16l0 112c0 8.8-7.2 16-16 16s-16-7.2-16-16l0-112c0-8.8 7.2-16 16-16zM208 200c8.8 0 16 7.2 16 16l0 80c0 8.8-7.2 16-16 16s-16-7.2-16-16l0-80c0-8.8 7.2-16 16-16zm192 24c8.8 0 16 7.2 16 16l0 32c0 8.8-7.2 16-16 16s-16-7.2-16-16l0-32c0-8.8 7.2-16 16-16z"/></svg>