<svg xmlns="http://www.w3.org/2000/svg" viewBox="0 0 512 512"><!--! Font Awesome Pro 6.6.0 by @fontawesome - https://fontawesome.com License - https://fontawesome.com/license (Commercial License) Copyright 2024 Fonticons, Inc. --><defs><style>.fa-secondary{opacity:.4}</style></defs><path class="fa-secondary" d="M0 256a256 256 0 1 0 512 0A256 256 0 1 0 0 256zm160-64c0-17.7 14.3-32 32-32s32 14.3 32 32l0 128c0 17.7-14.3 32-32 32s-32-14.3-32-32l0-128zm128 0c0-17.7 14.3-32 32-32s32 14.3 32 32l0 128c0 17.7-14.3 32-32 32s-32-14.3-32-32l0-128z"/><path class="fa-primary" d="M192 160c17.7 0 32 14.3 32 32l0 128c0 17.7-14.3 32-32 32s-32-14.3-32-32l0-128c0-17.7 14.3-32 32-32zm128 0c17.7 0 32 14.3 32 32l0 128c0 17.7-14.3 32-32 32s-32-14.3-32-32l0-128c0-17.7 14.3-32 32-32z"/></svg>