<svg xmlns="http://www.w3.org/2000/svg" viewBox="0 0 512 512"><!--! Font Awesome Pro 6.6.0 by @fontawesome - https://fontawesome.com License - https://fontawesome.com/license (Commercial License) Copyright 2024 Fonticons, Inc. --><defs><style>.fa-secondary{opacity:.4}</style></defs><path class="fa-secondary" d="M16 272c0 132.5 107.5 240 240 240s240-107.5 240-240c0-61-22.8-116.7-60.3-159.1C420.8 122.5 403 128 384 128l-80 0c-8.8 0-16-7.2-16-16l0-16c0-1.4 0-2.7 .1-4.1s.1-2.7 .3-4.1c.2-2.7 .6-5.3 1-8c.9-5.2 2.2-10.3 3.9-15.3c3.4-9.8 8.3-18.9 14.6-27c-16.7-3.7-34-5.6-51.8-5.6C123.5 32 16 139.5 16 272z"/><path class="fa-primary" d="M384 128H304c-8.8 0-16-7.2-16-16V96c0-53 43-96 96-96h80c8.8 0 16 7.2 16 16V32c0 53-43 96-96 96z"/></svg>