<svg xmlns="http://www.w3.org/2000/svg" viewBox="0 0 512 512"><!--! Font Awesome Pro 6.6.0 by @fontawesome - https://fontawesome.com License - https://fontawesome.com/license (Commercial License) Copyright 2024 Fonticons, Inc. --><defs><style>.fa-secondary{opacity:.4}</style></defs><path class="fa-secondary" d="M0 160l6.1 0 67.9 0 92.1 0 67.9 0 92.1 0 67.9 0L512 160l0 256c0 35.3-28.7 64-64 64L64 480c-35.3 0-64-28.7-64-64L0 160z"/><path class="fa-primary" d="M453.8 32.3L327 159l-1 1-92.1 0L361 33l1-1L448 32c2 0 3.9 .1 5.8 .3zM393.9 160L498 56c8.8 11 14 24.9 14 40l0 64-118.1 0zM201.9 32l92.1 0L167 159l-1 1-92.1 0L201 33l1-1zm-67.9 0L7 159l-1 1L0 160 0 96C0 60.7 28.7 32 64 32l70.1 0z"/></svg>