<svg xmlns="http://www.w3.org/2000/svg" viewBox="0 0 384 512"><!--! Font Awesome Pro 6.6.0 by @fontawesome - https://fontawesome.com License - https://fontawesome.com/license (Commercial License) Copyright 2024 Fonticons, Inc. --><defs><style>.fa-secondary{opacity:.4}</style></defs><path class="fa-secondary" d="M0 128L0 448c0 35.3 28.7 64 64 64l256 0c35.3 0 64-28.7 64-64l0-320c0-35.3-28.7-64-64-64l-49.6 0c.2 .8 .3 1.6 .4 2.3C290.1 72.6 304 90.7 304 112l0 24c0 13.3-10.7 24-24 24l-88 0-88 0c-13.3 0-24-10.7-24-24l0-24c0-21.3 13.9-39.4 33.2-45.7c.1-.8 .3-1.6 .4-2.3L64 64C28.7 64 0 92.7 0 128zM80 432c0-44.2 35.8-80 80-80l64 0c44.2 0 80 35.8 80 80c0 8.8-7.2 16-16 16L96 448c-8.8 0-16-7.2-16-16zM256 256a64 64 0 1 1 -128 0 64 64 0 1 1 128 0z"/><path class="fa-primary" d="M113.2 66.3C119.6 28.7 152.5 0 192 0s72.4 28.7 78.8 66.3C290.1 72.6 304 90.7 304 112l0 24c0 13.3-10.7 24-24 24l-88 0-88 0c-13.3 0-24-10.7-24-24l0-24c0-21.3 13.9-39.4 33.2-45.7zM216 80a24 24 0 1 0 -48 0 24 24 0 1 0 48 0zM128 256a64 64 0 1 1 128 0 64 64 0 1 1 -128 0zM80 432c0-44.2 35.8-80 80-80l64 0c44.2 0 80 35.8 80 80c0 8.8-7.2 16-16 16L96 448c-8.8 0-16-7.2-16-16z"/></svg>