<svg xmlns="http://www.w3.org/2000/svg" viewBox="0 0 512 512"><!--! Font Awesome Pro 6.6.0 by @fontawesome - https://fontawesome.com License - https://fontawesome.com/license (Commercial License) Copyright 2024 Fonticons, Inc. --><defs><style>.fa-secondary{opacity:.4}</style></defs><path class="fa-secondary" d="M0 256a256 256 0 1 0 512 0A256 256 0 1 0 0 256zM232 120c0-13.3 10.7-24 24-24s24 10.7 24 24l0 128.7 60 90c2.7 4.1 4 8.7 4 13.3c0 7.8-3.8 15.4-10.7 20c-4.1 2.7-8.7 4-13.3 4c-7.8 0-15.4-3.8-20-10.7l-64-96c-2.6-3.9-4-8.6-4-13.3l0-136z"/><path class="fa-primary" d="M256 96c13.3 0 24 10.7 24 24l0 128.7 60 90c7.4 11 4.4 25.9-6.7 33.3s-25.9 4.4-33.3-6.7l-64-96c-2.6-3.9-4-8.6-4-13.3l0-136c0-13.3 10.7-24 24-24z"/></svg>