<svg xmlns="http://www.w3.org/2000/svg" viewBox="0 0 512 512"><!--! Font Awesome Pro 6.6.0 by @fontawesome - https://fontawesome.com License - https://fontawesome.com/license (Commercial License) Copyright 2024 Fonticons, Inc. --><defs><style>.fa-secondary{opacity:.4}</style></defs><path class="fa-secondary" d="M0 256a256 256 0 1 0 512 0A256 256 0 1 0 0 256zM232 120c0-13.3 10.7-24 24-24s24 10.7 24 24l0 56.7 20-30c7.4-11 22.3-14 33.3-6.7c6.9 4.6 10.7 12.2 10.7 20c0 4.6-1.3 9.2-4 13.3l-64 96c-5.9 8.8-16.8 12.7-26.9 9.7s-17-12.4-17-23l0-136z"/><path class="fa-primary" d="M256 96c13.3 0 24 10.7 24 24l0 56.7 20-30c7.4-11 22.3-14 33.3-6.7s14 22.3 6.7 33.3l-64 96c-5.9 8.8-16.8 12.7-26.9 9.7s-17-12.4-17-23l0-136c0-13.3 10.7-24 24-24z"/></svg>