<svg xmlns="http://www.w3.org/2000/svg" viewBox="0 0 512 512"><!--! Font Awesome Pro 6.6.0 by @fontawesome - https://fontawesome.com License - https://fontawesome.com/license (Commercial License) Copyright 2024 Fonticons, Inc. --><defs><style>.fa-secondary{opacity:.4}</style></defs><path class="fa-secondary" d="M0 256a256 256 0 1 0 512 0A256 256 0 1 0 0 256zm232 0c0-8.9 4.9-17 12.7-21.2s17.3-3.7 24.6 1.2l96 64c6.9 4.6 10.7 12.2 10.7 20c0 4.6-1.3 9.2-4 13.3c-7.4 11-22.3 14-33.3 6.7L280 300.8l0 91.2c0 13.3-10.7 24-24 24s-24-10.7-24-24l0-136z"/><path class="fa-primary" d="M256 416c13.3 0 24-10.7 24-24l0-91.2L338.7 340c11 7.4 25.9 4.4 33.3-6.7s4.4-25.9-6.7-33.3l-96-64c-7.4-4.9-16.8-5.4-24.6-1.2S232 247.1 232 256l0 136c0 13.3 10.7 24 24 24z"/></svg>