<svg xmlns="http://www.w3.org/2000/svg" viewBox="0 0 512 512"><!--! Font Awesome Pro 6.6.0 by @fontawesome - https://fontawesome.com License - https://fontawesome.com/license (Commercial License) Copyright 2024 Fonticons, Inc. --><defs><style>.fa-secondary{opacity:.4}</style></defs><path class="fa-secondary" d="M0 224L0 448c0 35.3 28.7 64 64 64l224 0c35.3 0 64-28.7 64-64l0-96-64 0 0 96L64 448l0-224 96 0 0-64-96 0c-35.3 0-64 28.7-64 64z"/><path class="fa-primary" d="M160 288c0 35.3 28.7 64 64 64H448c35.3 0 64-28.7 64-64V64c0-35.3-28.7-64-64-64H224c-35.3 0-64 28.7-64 64V288z"/></svg>