<svg xmlns="http://www.w3.org/2000/svg" viewBox="0 0 640 512"><!--! Font Awesome Pro 6.6.0 by @fontawesome - https://fontawesome.com License - https://fontawesome.com/license (Commercial License) Copyright 2024 Fonticons, Inc. --><defs><style>.fa-secondary{opacity:.4}</style></defs><path class="fa-secondary" d="M0 256c0 17.7 14.3 32 32 32l131.2 0c-2.1-10.3-3.2-21-3.2-32c0-1.4 0-2.7 .1-4.1s.1-2.7 .2-4.1c.1-2.7 .3-5.4 .6-8.1c.5-5.3 1.3-10.6 2.4-15.8L32 224c-17.7 0-32 14.3-32 32zm476.8-32c2.1 10.3 3.2 21 3.2 32c0 1.4 0 2.7-.1 4.1s-.1 2.7-.2 4.1c-.1 2.7-.3 5.4-.6 8.1c-.5 5.3-1.3 10.6-2.4 15.8L608 288c17.7 0 32-14.3 32-32s-14.3-32-32-32l-131.2 0z"/><path class="fa-primary" d="M320 176a80 80 0 1 1 0 160 80 80 0 1 1 0-160zm0 240a160 160 0 1 0 0-320 160 160 0 1 0 0 320z"/></svg>