<svg xmlns="http://www.w3.org/2000/svg" viewBox="0 0 512 512"><!--! Font Awesome Pro 6.6.0 by @fontawesome - https://fontawesome.com License - https://fontawesome.com/license (Commercial License) Copyright 2024 Fonticons, Inc. --><defs><style>.fa-secondary{opacity:.4}</style></defs><path class="fa-secondary" d="M0 208C0 128.5 114.6 64 256 64s256 64.5 256 144s-114.6 144-256 144S0 287.5 0 208zm64-8c0 20.5 10.5 36.7 22.6 48.2c12 11.4 27.7 20.1 44.4 26.8c33.6 13.4 77.8 21 125 21s91.4-7.6 125-21c16.7-6.7 32.4-15.4 44.4-26.8C437.5 236.7 448 220.5 448 200s-10.5-36.7-22.6-48.2c-12-11.4-27.7-20.1-44.4-26.8c-33.6-13.4-77.8-21-125-21s-91.4 7.6-125 21c-16.7 6.7-32.4 15.4-44.4 26.8C74.5 163.3 64 179.5 64 200zm32 0c0-35.3 71.6-64 160-64s160 28.7 160 64s-71.6 64-160 64s-160-28.7-160-64z"/><path class="fa-primary" d="M464 394.6c30.2-21 48-46.8 48-74.6l0-29.9c-13.2 15.6-29.7 29.3-48 40.9l0 63.7zM336 377.3l0 64.3c36.2-6 68.9-15.9 96-28.7l0-64.7c-28.4 13.2-60.9 23-96 29zM208 445.8c15.5 1.5 31.6 2.2 48 2.2s32.5-.8 48-2.2l0-64.1c-15.7 1.6-31.7 2.4-48 2.4s-32.3-.8-48-2.4l0 64.1zM80 348.3L80 413c27.1 12.8 59.8 22.7 96 28.7l0-64.3c-35.1-6-67.6-15.9-96-29zM48 331c-18.3-11.5-34.8-25.2-48-40.9L0 320c0 27.9 17.8 53.6 48 74.6L48 331zM64 200c0 20.5 10.5 36.7 22.6 48.2c12 11.4 27.7 20.1 44.4 26.8c33.6 13.4 77.8 21 125 21s91.4-7.6 125-21c16.7-6.7 32.4-15.4 44.4-26.8C437.5 236.7 448 220.5 448 200s-10.5-36.7-22.6-48.2c-12-11.4-27.7-20.1-44.4-26.8c-33.6-13.4-77.8-21-125-21s-91.4 7.6-125 21c-16.7 6.7-32.4 15.4-44.4 26.8C74.5 163.3 64 179.5 64 200zm192 64c-88.4 0-160-28.7-160-64s71.6-64 160-64s160 28.7 160 64s-71.6 64-160 64z"/></svg>