<svg xmlns="http://www.w3.org/2000/svg" viewBox="0 0 512 512"><!--! Font Awesome Pro 6.6.0 by @fontawesome - https://fontawesome.com License - https://fontawesome.com/license (Commercial License) Copyright 2024 Fonticons, Inc. --><defs><style>.fa-secondary{opacity:.4}</style></defs><path class="fa-secondary" d="M0 240c0 45.1 17.7 86.8 47.7 120.9c-1.9 24.5-11.4 46.3-21.4 62.9c-5.5 9.2-11.1 16.6-15.2 21.6c-2.1 2.5-3.7 4.4-4.9 5.7c-.6 .6-1 1.1-1.3 1.4l-.3 .3C1.6 455.8 0 459.9 0 464c0 2.1 .4 4.1 1.2 6.1c2.5 6 8.3 9.9 14.8 9.9c28.7 0 57.6-8.9 81.6-19.3c22.9-10 42.4-21.9 54.3-30.6c31.8 11.5 67 17.9 104.1 17.9c141.4 0 256-93.1 256-208S397.4 32 256 32S0 125.1 0 240zm188.1-37.5c-.1-21.1 11.8-35.7 25.8-43.9c6.9-4.1 14.5-6.8 22.2-8.5l0-14c0-11 9-20 20-20c5.5 0 10.5 2.2 14.1 5.9c1.8 1.8 3.3 4 4.3 6.4c.5 1.2 .9 2.4 1.2 3.7c.1 .7 .2 1.3 .3 2s.1 1.3 .1 2.1c0 4.6 0 9.2 0 13.9c7.5 1.2 14.6 2.9 21.1 4.7c10.7 2.8 17 13.8 14.2 24.5s-13.8 17-24.5 14.2c-11-2.9-21.6-5-31.2-5.2c-7.9-.1-16 1.8-21.5 5c-4.8 2.8-6.2 5.6-6.2 9.3c0 1.8 .1 3.5 5.3 6.7c6.3 3.8 15.5 6.7 28.3 10.5l.7 .2c11.2 3.4 25.6 7.7 37.1 15c12.9 8.1 24.3 21.3 24.6 41.6c0 .3 0 .5 0 .8c0 1.3 0 2.5-.1 3.8c-.1 1.2-.2 2.4-.4 3.6c-.3 2.4-.8 4.7-1.4 6.9c-1.2 4.4-3 8.5-5.2 12.2c-4.4 7.4-10.6 13.3-17.7 17.7c-7.2 4.5-15.2 7.3-23.2 9c0 4.6 0 9.2 0 14c0 .5 0 1.2-.1 1.8s-.2 1.3-.3 2c-.3 1.3-.7 2.5-1.2 3.7c-1 2.4-2.5 4.5-4.3 6.4c-3.6 3.6-8.6 5.9-14.1 5.9c-11 0-20-9-20-20c0-4.9 0-9.7 0-14.6c-10.3-2.2-20-5.5-28.3-8.4c-2.1-.7-4.1-1.4-6.1-2.1c-10.5-3.5-16.1-14.8-12.6-25.3s14.8-16.1 25.3-12.6c2.5 .8 4.9 1.7 7.2 2.4c13.6 4.6 24 8.1 35.1 8.5c8.6 .3 16.5-1.6 21.4-4.7c2-1.3 3.5-2.6 4.5-4.3c.5-.8 .8-1.8 1.1-2.8c.1-.5 .2-1.1 .3-1.6c.1-.6 .1-1.1 .1-1.8c0-.3 0-.7-.1-1s-.1-.7-.2-1c-.2-.6-.4-1.3-.8-1.9c-.8-1.3-2.3-2.6-4.8-4.2c-6.3-4-15.4-6.9-28-10.7c-.6-.2-1.2-.4-1.7-.5c-10.9-3.3-24.6-7.4-35.6-14c-12.7-7.7-24.6-20.5-24.7-40.7zm98.4-9.4l.4 .1-.4-.1z"/><path class="fa-primary" d="M256 116c11 0 20 9 20 20l0 13.9c7.5 1.2 14.6 2.9 21.1 4.7c10.7 2.8 17 13.8 14.2 24.5s-13.8 17-24.5 14.2c-11-2.9-21.6-5-31.2-5.2c-7.9-.1-16 1.8-21.5 5c-4.8 2.8-6.2 5.6-6.2 9.3c0 1.8 .1 3.5 5.3 6.7c6.3 3.8 15.5 6.7 28.3 10.5l.7 .2c11.2 3.4 25.6 7.7 37.1 15c12.9 8.1 24.3 21.3 24.6 41.6c.3 20.9-10.5 36.1-24.8 45c-7.2 4.5-15.2 7.3-23.2 9l0 13.8c0 11-9 20-20 20s-20-9-20-20l0-14.6c-10.3-2.2-20-5.5-28.2-8.4c0 0 0 0 0 0s0 0 0 0c-2.1-.7-4.1-1.4-6.1-2.1c-10.5-3.5-16.1-14.8-12.6-25.3s14.8-16.1 25.3-12.6c2.5 .8 4.9 1.7 7.2 2.4c13.6 4.6 24 8.1 35.1 8.5c8.6 .3 16.5-1.6 21.4-4.7c4.1-2.5 6-5.5 5.9-10.5c0-2.9-.8-5-5.9-8.2c-6.3-4-15.4-6.9-28-10.7l-1.7-.5c-10.9-3.3-24.6-7.4-35.6-14c-12.7-7.7-24.6-20.5-24.7-40.7c-.1-21.1 11.8-35.7 25.8-43.9c6.9-4.1 14.5-6.8 22.2-8.5l0-14c0-11 9-20 20-20z"/></svg>