<svg xmlns="http://www.w3.org/2000/svg" viewBox="0 0 512 512"><!--! Font Awesome Pro 6.6.0 by @fontawesome - https://fontawesome.com License - https://fontawesome.com/license (Commercial License) Copyright 2024 Fonticons, Inc. --><defs><style>.fa-secondary{opacity:.4}</style></defs><path class="fa-secondary" d="M0 240c0 45.1 17.7 86.8 47.7 120.9c-1.9 24.5-11.4 46.3-21.4 62.9c-5.5 9.2-11.1 16.6-15.2 21.6c-2.1 2.5-3.7 4.4-4.9 5.7c-.6 .6-1 1.1-1.3 1.4l-.3 .3c-4.6 4.6-6 11.5-3.5 17.5c2.5 6 8.3 9.9 14.8 9.9c28.7 0 57.6-8.9 81.6-19.3c22.9-10 42.4-21.9 54.3-30.6c31.8 11.5 67 17.9 104.1 17.9c141.4 0 256-93.1 256-208S397.4 32 256 32S0 125.1 0 240zm112 0c0-6.1 2.3-12.3 7-17l64-64c4.7-4.7 10.8-7 17-7s12.3 2.3 17 7c9.4 9.4 9.4 24.6 0 33.9l-47 47 47 47c9.4 9.4 9.4 24.6 0 33.9c-4.7 4.7-10.8 7-17 7s-12.3-2.3-17-7l-64-64c-4.7-4.7-7-10.8-7-17zm183-81c4.7-4.7 10.8-7 17-7s12.3 2.3 17 7l64 64c4.7 4.7 7 10.8 7 17s-2.3 12.3-7 17l-64 64c-4.7 4.7-10.8 7-17 7s-12.3-2.3-17-7c-9.4-9.4-9.4-24.6 0-33.9l47-47-47-47c-9.4-9.4-9.4-24.6 0-33.9z"/><path class="fa-primary" d="M217 159c9.4 9.4 9.4 24.6 0 33.9l-47 47 47 47c9.4 9.4 9.4 24.6 0 33.9s-24.6 9.4-33.9 0l-64-64c-9.4-9.4-9.4-24.6 0-33.9l64-64c9.4-9.4 24.6-9.4 33.9 0zm78.1 0c9.4-9.4 24.6-9.4 33.9 0l64 64c9.4 9.4 9.4 24.6 0 33.9l-64 64c-9.4 9.4-24.6 9.4-33.9 0s-9.4-24.6 0-33.9l47-47-47-47c-9.4-9.4-9.4-24.6 0-33.9z"/></svg>