<svg xmlns="http://www.w3.org/2000/svg" viewBox="0 0 512 512"><!--! Font Awesome Pro 6.6.0 by @fontawesome - https://fontawesome.com License - https://fontawesome.com/license (Commercial License) Copyright 2024 Fonticons, Inc. --><defs><style>.fa-secondary{opacity:.4}</style></defs><path class="fa-secondary" d="M64 32l0 32 0 64 0 256c0 35.3 28.7 64 64 64l256 0 0-64-256 0 0-256 0-64 0-32c0-17.7-14.3-32-32-32S64 14.3 64 32zM448 384l0 64 32 0c17.7 0 32-14.3 32-32s-14.3-32-32-32l-32 0z"/><path class="fa-primary" d="M32 64C14.3 64 0 78.3 0 96s14.3 32 32 32l32 0 0-64L32 64zM384 480c0 17.7 14.3 32 32 32s32-14.3 32-32l0-352c0-35.3-28.7-64-64-64L128 64l0 64 256 0 0 352z"/></svg>