<svg xmlns="http://www.w3.org/2000/svg" viewBox="0 0 512 512"><!--! Font Awesome Pro 6.6.0 by @fontawesome - https://fontawesome.com License - https://fontawesome.com/license (Commercial License) Copyright 2024 Fonticons, Inc. --><defs><style>.fa-secondary{opacity:.4}</style></defs><path class="fa-secondary" d="M0 352l0 64c0 35.3 28.7 64 64 64l384 0c35.3 0 64-28.7 64-64l0-64c0-35.3-28.7-64-64-64L64 288c-35.3 0-64 28.7-64 64z"/><path class="fa-primary" d="M448 224c35.3 0 64-28.7 64-64V96c0-35.3-28.7-64-64-64L64 32C28.7 32 0 60.7 0 96l0 64c0 35.3 28.7 64 64 64l384 0z"/></svg>