<svg xmlns="http://www.w3.org/2000/svg" viewBox="0 0 512 512"><!--! Font Awesome Pro 6.6.0 by @fontawesome - https://fontawesome.com License - https://fontawesome.com/license (Commercial License) Copyright 2024 Fonticons, Inc. --><defs><style>.fa-secondary{opacity:.4}</style></defs><path class="fa-secondary" d="M0 96l0 64c0 35.3 28.7 64 64 64l160 0c35.3 0 64-28.7 64-64l0-64 80 0c8.8 0 16 7.2 16 16l0 16-38.1 0c-21.4 0-32.1 25.9-17 41L399 239c4.7 4.7 10.8 7 17 7s12.3-2.3 17-7L503 169c4.9-4.9 7.1-10.9 7.1-16.8c0-12.3-9.6-24.2-24-24.2L448 128l0-16c0-44.2-35.8-80-80-80L224 32l-16 0L64 32C28.7 32 0 60.7 0 96z"/><path class="fa-primary" d="M448 480c35.3 0 64-28.7 64-64l0-64c0-35.3-28.7-64-64-64L64 288c-35.3 0-64 28.7-64 64l0 64c0 35.3 28.7 64 64 64l384 0z"/></svg>