<svg xmlns="http://www.w3.org/2000/svg" viewBox="0 0 512 512"><!--! Font Awesome Pro 6.6.0 by @fontawesome - https://fontawesome.com License - https://fontawesome.com/license (Commercial License) Copyright 2024 Fonticons, Inc. --><defs><style>.fa-secondary{opacity:.4}</style></defs><path class="fa-secondary" d="M2.9 302.8c-4.7 6.7-3.6 15.8 2.5 21.2l208 184c4.7 4.2 11.4 5.2 17.2 2.6s9.4-8.3 9.4-14.6l0-480c0-7-4.5-13.2-11.2-15.3c-1.6-.5-3.2-.7-4.8-.7c-5.1 0-10 2.5-13.1 6.8l-208 296z"/><path class="fa-primary" d="M272 16c0-7 4.5-13.2 11.2-15.3s13.9 .3 17.9 6.1l208 296c4.7 6.7 3.6 15.8-2.5 21.2l-208 184c-4.7 4.2-11.4 5.2-17.2 2.6s-9.4-8.3-9.4-14.6l0-480z"/></svg>