<svg xmlns="http://www.w3.org/2000/svg" viewBox="0 0 576 512"><!--! Font Awesome Pro 6.6.0 by @fontawesome - https://fontawesome.com License - https://fontawesome.com/license (Commercial License) Copyright 2024 Fonticons, Inc. --><defs><style>.fa-secondary{opacity:.4}</style></defs><path class="fa-secondary" d="M0 64L0 352c0 35.3 28.7 64 64 64l176 0 96 0 176 0c35.3 0 64-28.7 64-64l0-288c0-35.3-28.7-64-64-64L64 0C28.7 0 0 28.7 0 64zm64 0l448 0 0 288L64 352 64 64z"/><path class="fa-primary" d="M64 64l448 0 0 288L64 352 64 64zM346.7 448l69.3 0c17.7 0 32 14.3 32 32s-14.3 32-32 32l-256 0c-17.7 0-32-14.3-32-32s14.3-32 32-32l69.3 0L240 416l96 0 10.7 32zM256 128l0 48-48 0c-8.8 0-16 7.2-16 16l0 32c0 8.8 7.2 16 16 16l48 0 0 48c0 8.8 7.2 16 16 16l32 0c8.8 0 16-7.2 16-16l0-48 48 0c8.8 0 16-7.2 16-16l0-32c0-8.8-7.2-16-16-16l-48 0 0-48c0-8.8-7.2-16-16-16l-32 0c-8.8 0-16 7.2-16 16z"/></svg>