<svg xmlns="http://www.w3.org/2000/svg" viewBox="0 0 576 512"><!--! Font Awesome Pro 6.6.0 by @fontawesome - https://fontawesome.com License - https://fontawesome.com/license (Commercial License) Copyright 2024 Fonticons, Inc. --><defs><style>.fa-secondary{opacity:.4}</style></defs><path class="fa-secondary" d="M0 64L0 352c0 35.3 28.7 64 64 64l176 0 96 0 176 0c35.3 0 64-28.7 64-64l0-288c0-35.3-28.7-64-64-64L312 0l0 64 200 0 0 288L64 352 64 64l200 0 0-64L64 0C28.7 0 0 28.7 0 64z"/><path class="fa-primary" d="M264 64L64 64l0 288 448 0 0-288L312 64l0 142.1 39-39c9.4-9.4 24.6-9.4 33.9 0s9.4 24.6 0 33.9l-80 80c-9.4 9.4-24.6 9.4-33.9 0l-80-80c-9.4-9.4-9.4-24.6 0-33.9s24.6-9.4 33.9 0l39 39L264 64zm82.7 384L336 416l-96 0-10.7 32L160 448c-17.7 0-32 14.3-32 32s14.3 32 32 32l256 0c17.7 0 32-14.3 32-32s-14.3-32-32-32l-69.3 0z"/></svg>