<svg xmlns="http://www.w3.org/2000/svg" viewBox="0 0 512 512"><!--! Font Awesome Pro 6.6.0 by @fontawesome - https://fontawesome.com License - https://fontawesome.com/license (Commercial License) Copyright 2024 Fonticons, Inc. --><defs><style>.fa-secondary{opacity:.4}</style></defs><path class="fa-secondary" d="M96 208c0-26.5 21.5-48 48-48l224 0c26.5 0 48 21.5 48 48l0 96c0 26.5-21.5 48-48 48l-224 0c-26.5 0-48-21.5-48-48l0-96z"/><path class="fa-primary" d="M24 32C10.7 32 0 42.7 0 56S10.7 80 24 80l464 0c13.3 0 24-10.7 24-24s-10.7-24-24-24L24 32zm0 400c-13.3 0-24 10.7-24 24s10.7 24 24 24l464 0c13.3 0 24-10.7 24-24s-10.7-24-24-24L24 432z"/></svg>