<svg xmlns="http://www.w3.org/2000/svg" viewBox="0 0 384 512"><!--! Font Awesome Pro 6.6.0 by @fontawesome - https://fontawesome.com License - https://fontawesome.com/license (Commercial License) Copyright 2024 Fonticons, Inc. --><defs><style>.fa-secondary{opacity:.4}</style></defs><path class="fa-secondary" d="M0 320C0 426 86 512 192 512s192-86 192-192c0-91.2-130.2-262.3-166.6-308.3C211.4 4.2 202.5 0 192.9 0l-1.8 0c-9.6 0-18.5 4.2-24.5 11.7C130.2 57.7 0 228.8 0 320zm64 16c0-8.8 7.2-16 16-16s16 7.2 16 16c0 44.2 35.8 80 80 80c8.8 0 16 7.2 16 16s-7.2 16-16 16c-61.9 0-112-50.1-112-112z"/><path class="fa-primary" d="M80 320c8.8 0 16 7.2 16 16c0 44.2 35.8 80 80 80c8.8 0 16 7.2 16 16s-7.2 16-16 16c-61.9 0-112-50.1-112-112c0-8.8 7.2-16 16-16z"/></svg>