<svg xmlns="http://www.w3.org/2000/svg" viewBox="0 0 512 512"><!--! Font Awesome Pro 6.6.0 by @fontawesome - https://fontawesome.com License - https://fontawesome.com/license (Commercial License) Copyright 2024 Fonticons, Inc. --><defs><style>.fa-secondary{opacity:.4}</style></defs><path class="fa-secondary" d="M176 224l0 240c0 8.8 7.2 16 16 16s16-7.2 16-16l0-240c0-8.8-7.2-16-16-16s-16 7.2-16 16zm64-32l0 272c0 8.8 7.2 16 16 16s16-7.2 16-16l0-272c0-8.8-7.2-16-16-16s-16 7.2-16 16zm64 32l0 240c0 8.8 7.2 16 16 16s16-7.2 16-16l0-240c0-8.8-7.2-16-16-16s-16 7.2-16 16z"/><path class="fa-primary" d="M327.1 125.3l30.5-76.2c5.2-12.9 20.3-18.8 32.1-11.6c21.2 13 40.3 29 56.9 47.4c9.1 10.2 6.3 25.8-5.1 33.4l-67.6 45.1c-10.3 6.9-24.1 4.6-33.4-3.6c-1.3-1.1-2.6-2.3-3.9-3.3c-9.3-7.5-13.9-20.1-9.5-31.2zM313 6.4c13.4 3.1 20.1 17.6 15 30.5l-30.3 75.8c-4.5 11.3-16.8 17.2-29 16c-4.2-.4-8.4-.6-12.7-.6s-8.6 .2-12.7 .6c-12.1 1.2-24.4-4.7-29-16L184 36.8C178.8 24 185.5 9.4 199 6.4C217.3 2.2 236.4 0 256 0s38.7 2.2 57 6.4zM70.5 118.5C59.1 110.9 56.3 95.2 65.5 85C82 66.6 101.1 50.6 122.3 37.6c11.9-7.3 26.9-1.4 32.1 11.6l30.5 76.2c4.4 11.1-.2 23.6-9.5 31.2c-1.3 1.1-2.7 2.2-4 3.3c-9.3 8.2-23 10.5-33.4 3.6L70.5 118.5zm319 73.1l68.6-45.7c11.7-7.8 27.6-4 33.1 8.9c10.4 24.1 17.2 50.1 19.7 77.3c1.2 13.2-9.6 24-22.9 24l-80 0c-13.3 0-23.8-10.8-26.2-23.9c-.6-3.4-1.4-6.7-2.3-10c-3.1-11.4 .2-24 10-30.5zM20.8 154.7c5.5-12.9 21.4-16.6 33.1-8.9l68.6 45.7c9.8 6.5 13.2 19.2 10 30.5c-.9 3.3-1.7 6.6-2.3 10c-2.5 13-13 23.9-26.2 23.9l-80 0C10.7 256-.1 245.2 1.1 232c2.5-27.2 9.3-53.2 19.7-77.3zM128 312l0 48c0 13.3-10.7 24-24 24l-80 0c-13.3 0-24-10.7-24-24l0-48c0-13.3 10.7-24 24-24l80 0c13.3 0 24 10.7 24 24zm256 0c0-13.3 10.7-24 24-24l80 0c13.3 0 24 10.7 24 24l0 48c0 13.3-10.7 24-24 24l-80 0c-13.3 0-24-10.7-24-24l0-48zM0 440c0-13.3 10.7-24 24-24l80 0c13.3 0 24 10.7 24 24l0 48c0 13.3-10.7 24-24 24l-80 0c-13.3 0-24-10.7-24-24l0-48zm384 0c0-13.3 10.7-24 24-24l80 0c13.3 0 24 10.7 24 24l0 48c0 13.3-10.7 24-24 24l-80 0c-13.3 0-24-10.7-24-24l0-48z"/></svg>