<svg xmlns="http://www.w3.org/2000/svg" viewBox="0 0 512 512"><!--! Font Awesome Pro 6.6.0 by @fontawesome - https://fontawesome.com License - https://fontawesome.com/license (Commercial License) Copyright 2024 Fonticons, Inc. --><defs><style>.fa-secondary{opacity:.4}</style></defs><path class="fa-secondary" d="M1.1 280.3C13.4 410.3 122.8 512 256 512c66.3 0 126.7-25.2 172.1-66.5l-45.1-28.9c-8.5-5.4-19-6.6-28.4-3.1l-3.7 1.4c-19.8 7.4-41.8-1.9-50.4-21.1L295 381.4c-8.5-18.9-1.1-41.2 17-51.3L348.2 310c2.3-1.3 4.3-3.1 5.7-5.3l6.1-9.5c6-9.4 16.4-15.1 27.6-15.1s21.6 5.7 27.6 15.1l2 3.1c3.7 5.8 10.8 8.6 17.5 6.7l13.5-3.8c7-2 14.6-.6 20.5 3.6l31.9 23c.4 .3 .7 .6 1.1 .8c6.8-23 10.4-47.4 10.4-72.6c0-109.5-68.8-203-165.5-239.6l-37.7 84.9c-3 6.8-8.9 11.7-16.1 13.5l-17.6 4.4c-16.7 4.2-23.7 24-13.4 37.7l16.1 21.5c6.1 8.1 6.4 19.2 .8 27.7l-10.7 16.1C260.5 233.3 248 240 234.6 240l-2.3 0c-16.1 0-27.6 15.5-23 30.9l6 19.9c4.4 14.6-6.5 29.2-21.7 29.2c-10.7 0-20.6-6.1-25.4-15.7l-9.3-18.5c-7.3-14.7-26.9-17.8-38.4-6.2l-14.8 14.8c-6 6-14.6 8.4-22.8 6.3L1.1 280.3zm143.3 67.8c2.1-8.6 10.8-13.8 19.4-11.6l32 8c8.6 2.1 13.8 10.8 11.6 19.4s-10.8 13.8-19.4 11.6l-32-8c-8.6-2.1-13.8-10.8-11.6-19.4zm92-20l8-32c2.1-8.6 10.8-13.8 19.4-11.6s13.8 10.8 11.6 19.4l-8 32c-2.1 8.6-10.8 13.8-19.4 11.6s-13.8-10.8-11.6-19.4zm69.2-175.3l16-32c4-7.9 13.6-11.1 21.5-7.2s11.1 13.6 7.2 21.5l-16 32c-4 7.9-13.6 11.1-21.5 7.2s-11.1-13.6-7.2-21.5z"/><path class="fa-primary" d="M1.1 280.3l81.7 20.4c8.2 2 16.8-.4 22.8-6.3l14.8-14.8c11.6-11.6 31.1-8.4 38.4 6.2l9.3 18.5c4.8 9.6 14.6 15.7 25.4 15.7c15.2 0 26.1-14.6 21.7-29.2l-6-19.9c-4.6-15.4 6.9-30.9 23-30.9l2.3 0c13.4 0 25.9-6.7 33.3-17.8l10.7-16.1c5.6-8.5 5.3-19.6-.8-27.7l-16.1-21.5c-10.3-13.7-3.3-33.5 13.4-37.7l17.6-4.4c7.2-1.8 13.1-6.8 16.1-13.5l37.7-84.9C318.3 5.8 287.8 0 256 0C114.6 0 0 114.6 0 256c0 8.2 .4 16.3 1.1 24.3zm500.4 48.3c-.3-.3-.7-.6-1.1-.8l-31.9-23c-5.9-4.3-13.4-5.6-20.5-3.6l-13.5 3.8c-6.7 1.9-13.8-.9-17.5-6.7l-2-3.1c-6-9.4-16.4-15.1-27.6-15.1s-21.6 5.7-27.6 15.1l-6.1 9.5c-1.4 2.2-3.4 4.1-5.7 5.3L312 330.1c-18.1 10.1-25.5 32.4-17 51.3l5.5 12.4c8.6 19.2 30.7 28.5 50.4 21.1l3.7-1.4c9.4-3.5 20-2.4 28.4 3.1l45.1 28.9c34.2-31.1 60-71.4 73.5-116.9zM144.5 348.1c-2.1 8.6 3.1 17.3 11.6 19.4l32 8c8.6 2.1 17.3-3.1 19.4-11.6s-3.1-17.3-11.6-19.4l-32-8c-8.6-2.1-17.3 3.1-19.4 11.6zm92-20c-2.1 8.6 3.1 17.3 11.6 19.4s17.3-3.1 19.4-11.6l8-32c2.1-8.6-3.1-17.3-11.6-19.4s-17.3 3.1-19.4 11.6l-8 32zM343.2 113.7c-7.9-4-17.5-.7-21.5 7.2l-16 32c-4 7.9-.7 17.5 7.2 21.5s17.5 .7 21.5-7.2l16-32c4-7.9 .7-17.5-7.2-21.5z"/></svg>