<svg xmlns="http://www.w3.org/2000/svg" viewBox="0 0 512 512"><!--! Font Awesome Pro 6.6.0 by @fontawesome - https://fontawesome.com License - https://fontawesome.com/license (Commercial License) Copyright 2024 Fonticons, Inc. --><defs><style>.fa-secondary{opacity:.4}</style></defs><path class="fa-secondary" d="M0 256C0 397.4 114.6 512 256 512s256-114.6 256-256c0-22.1-2.8-43.5-8.1-64c-25.5 0-50.9 0-76.4 0c-7.1 0-13.5 4-16.7 10.3c-6.2 12.4-20.7 18.4-33.9 14c-4.2-1.4-8.3-2.8-12.5-4.2c-7.7-2.6-16.1-.6-21.8 5.1c-3.7 3.7-3.7 9.7 0 13.4c11.2 11.2 22.3 22.3 33.5 33.5c.6 .6 1.2 1.3 1.8 2s1.1 1.4 1.6 2.1c1 1.5 1.8 3 2.5 4.6c.7 1.6 1.2 3.3 1.5 5c.2 .9 .3 1.7 .4 2.6c.1 .9 .1 1.7 .1 2.2l0 .4c0 .2 0 .3 0 .4c0 .4 0 1.1-.1 1.8c-.1 .8-.2 1.5-.3 2.2c-.3 1.5-.6 2.9-1.1 4.3c-1 2.8-2.4 5.3-4.2 7.6c-3.6 4.6-8.7 8-14.6 9.5c-1.8 .4-3.5 .9-5.3 1.3c-3.8 .9-6.4 4.3-6.4 8.2c0 4 0 8 0 12.1c0 .1 0 .2 0 .3c0 .7 0 1.4 0 2.2l0 .4c0 .6-.1 1.3-.1 2.1c-.2 1.9-.4 3.6-.6 5.3c-.6 3.4-1.4 6.7-2.5 10c-2.2 6.5-5.4 12.6-9.5 18.2c-8.5 11.4-17.1 22.8-25.6 34.1c-6 8.1-15.5 12.8-25.6 12.8c-17.7 0-32-14.3-32-32c0-16 0-32 0-48c0-.1 0-.3 0-.4c0-.3 0-.7-.1-1.2c-.1-.6-.1-1.1-.2-1.6c-.2-1-.5-2-.9-3c-.8-1.9-2-3.6-3.4-5.1c-2.9-2.9-6.9-4.7-11.3-4.7l-32 0c-26.5 0-48-21.5-48-48c0-9.3 0-18.7 0-28c0-12.6 5.9-24.4 16-32l39.4-29.5c5.6-4.2 12.4-6.5 19.4-6.5c3.5 0 6.9 .6 10.2 1.7l32 10.7c7.2 2.4 15 2.7 22.4 .9c11.8-2.9 23.6-5.9 35.4-8.8c.7-.2 1.3-.4 1.8-.5c.7-.2 1.3-.5 1.8-.7c1.2-.5 2.3-1.1 3.3-1.8c2.1-1.4 4-3.1 5.5-5s2.7-4.2 3.6-6.5c.4-1.2 .7-2.4 .9-3.7c.1-.7 .2-1.3 .2-1.9c0-.6 .1-1.2 .1-1.5l0-.4c0-.1 0-.3 0-.4c0-.2 0-.7-.1-1.2c0-.5-.1-1.1-.2-1.6c-.2-1.1-.4-2.1-.7-3.1c-.6-2-1.4-3.9-2.5-5.7c-2.2-3.5-5.4-6.5-9.2-8.4l-29.2-14.6c-3.7-1.8-8.1-1.1-11 1.8c-1.3 1.3-2.6 2.6-3.9 3.9c-4.6 4.6-10.9 7.2-17.4 7.2c-3.8 0-7.6-.9-11-2.6c-5.1-2.5-10.2-5.1-15.2-7.6c-6.8-3.4-14.9-1.6-19.7 4.3c-4.5 5.7-9.1 11.3-13.6 17c-5.5 6.9-15.8 7.4-22 1.2c-2.8-2.8-4.3-6.5-4.3-10.4c0-13.2 0-26.3 0-39.5c0-.9 0-1.7-.1-2.5c-.1-.8-.2-1.7-.3-2.5c-.3-1.7-.7-3.3-1.2-4.9c-1-3.2-2.6-6.2-4.6-8.9C172.6 61.3 159.3 43 146 24.8C59.7 65.9 0 154 0 256z"/><path class="fa-primary" d="M146 24.8l39.9 54.8c4 5.5 6.1 12.1 6.1 18.8l0 39.5c0 3.9 1.6 7.7 4.3 10.4c6.2 6.2 16.5 5.7 22-1.2l13.6-17c4.7-5.9 12.9-7.7 19.6-4.3l15.2 7.6c3.4 1.7 7.2 2.6 11 2.6c6.5 0 12.8-2.6 17.4-7.2l3.9-3.9c2.9-2.9 7.3-3.6 11-1.8l29.2 14.6c7.8 3.9 12.6 11.8 12.6 20.5c0 10.5-7.1 19.6-17.3 22.2l-35.4 8.8c-7.4 1.8-15.1 1.5-22.4-.9l-32-10.7c-3.3-1.1-6.7-1.7-10.2-1.7c-7 0-13.8 2.3-19.4 6.5L176 212c-10.1 7.6-16 19.4-16 32l0 28c0 26.5 21.5 48 48 48l32 0c8.8 0 16 7.2 16 16l0 48c0 17.7 14.3 32 32 32c10.1 0 19.6-4.7 25.6-12.8l25.6-34.1c8.3-11.1 12.8-24.6 12.8-38.4l0-12.1c0-3.9 2.6-7.3 6.4-8.2l5.3-1.3c11.9-3 20.3-13.7 20.3-26c0-7.1-2.8-13.9-7.8-18.9l-33.5-33.5c-3.7-3.7-3.7-9.7 0-13.4c5.7-5.7 14.1-7.7 21.8-5.1l12.5 4.2c13.2 4.4 27.6-1.6 33.9-14c3.2-6.3 9.6-10.3 16.7-10.3l76.4 0C475.5 81.6 375.3 0 256 0c-39.4 0-76.7 8.9-110 24.8z"/></svg>