<svg xmlns="http://www.w3.org/2000/svg" viewBox="0 0 640 512"><!--! Font Awesome Pro 6.6.0 by @fontawesome - https://fontawesome.com License - https://fontawesome.com/license (Commercial License) Copyright 2024 Fonticons, Inc. --><defs><style>.fa-secondary{opacity:.4}</style></defs><path class="fa-secondary" d="M0 360c0 7.3 3.3 14.5 9.6 19.2c10.6 8 25.6 5.8 33.6-4.8l12.1-16.2c3.2-4.3 6.1-8.8 8.7-13.5L64 480c0 17.7 14.3 32 32 32l64 0c17.7 0 32-14.3 32-32l0-70c15.3 3.9 31.4 6 48 6s32.7-2.1 48-6l0 70c0 17.7 14.3 32 32 32l64 0c17.7 0 32-14.3 32-32l0-139.3c-5.1-5.8-9.7-12-13.7-18.7c-1.6-2.6-2.3-5.4-2.3-8.2c0-5.4 2.8-10.7 7.7-13.7c7.6-4.6 17.4-2.1 22 5.4C446.5 333.4 477.1 352 512 352c1.4 0 2.8 0 4.2-.1s2.8-.1 4.1-.3c2.7-.2 5.5-.6 8.1-1c5.3-.9 10.5-2.3 15.5-4.1L544 192c0-88.4-71.6-160-160-160l-1.6 0C362.2 12.2 334.5 0 304 0C242.1 0 192 50.1 192 112s50.1 112 112 112c8.8 0 16 7.2 16 16s-7.2 16-16 16c-79.5 0-144-64.5-144-144c0-25.3 6.5-49.1 18-69.8c-20.5 7-39.4 17.3-56.1 30.4C67.4 111.9 32 175.8 32 248l0 19c0 12.4-1.2 24.7-3.7 36.9c-1.9 9.3-5.8 18-11.4 25.6L4.8 345.6C1.6 349.9 0 355 0 360zM480 208a16 16 0 1 1 -32 0 16 16 0 1 1 32 0zm0 172l0 18.6c0 45 36.5 81.4 81.4 81.4c30.8 0 59-17.4 72.8-45l2.3-4.7c7.9-15.8 1.5-35-14.3-42.9s-35-1.5-42.9 14.3l-2.3 4.7c-3 5.9-9 9.6-15.6 9.6c-9.6 0-17.4-7.8-17.4-17.4l0-18.6c-10.2 2.6-21 4-32 4c-1.4 0-2.8 0-4.1-.1s-2.7-.1-4.1-.2c-2.7-.2-5.4-.4-8.1-.8c-5.3-.7-10.6-1.7-15.7-3z"/><path class="fa-primary" d="M464 224a16 16 0 1 0 0-32 16 16 0 1 0 0 32zm-34.3 81.5c-4.6-7.6-14.4-10-22-5.4s-10 14.4-5.4 22c22.4 37.1 63.1 62 109.7 62c35.8 0 68.2-14.7 91.4-38.4c6.2-6.3 6.1-16.4-.2-22.6s-16.4-6.1-22.6 .2C563.1 341 538.9 352 512 352c-34.9 0-65.5-18.6-82.3-46.5z"/></svg>