<svg xmlns="http://www.w3.org/2000/svg" viewBox="0 0 512 512"><!--! Font Awesome Pro 6.6.0 by @fontawesome - https://fontawesome.com License - https://fontawesome.com/license (Commercial License) Copyright 2024 Fonticons, Inc. --><defs><style>.fa-secondary{opacity:.4}</style></defs><path class="fa-secondary" d="M64 64l0 64.5 0 79.6 0 41.6c57.6 42.6 115.1 85.3 172.7 127.9c5.6 4.1 12.4 6.4 19.3 6.4s13.7-2.2 19.3-6.4C332.9 335 390.5 292.3 448 249.7l0-41.6 0-79.6L448 64c0-17.7-14.3-32-32-32l-98.2 0L194.2 32 96 32C78.3 32 64 46.3 64 64zM188.2 166.6c.1-1.3 .2-2.5 .4-3.7c.3-2.4 .9-4.8 1.5-7c1.3-4.5 3.2-8.5 5.6-12.2c4.7-7.3 11.2-13 18.2-17.1c6.9-4.1 14.5-6.8 22.2-8.5l0-14c0-11 9-20 20-20s20 9 20 20l0 13.9c7.5 1.2 14.6 2.9 21.1 4.7c10.7 2.8 17 13.8 14.2 24.5s-13.8 17-24.5 14.2c-11-2.9-21.6-5-31.2-5.2c-7.9-.1-16 1.8-21.5 5c-4.8 2.8-6.2 5.6-6.2 9.3c0 1.8 .1 3.5 5.3 6.7c6.3 3.8 15.5 6.7 28.3 10.5l.7 .2c11.2 3.4 25.6 7.7 37.1 15c12.9 8.1 24.3 21.3 24.6 41.6c0 .7 0 1.3 0 1.9s0 1.3-.1 1.9c-.1 1.3-.2 2.5-.3 3.7c-.3 2.4-.7 4.8-1.3 7c-1.2 4.5-3 8.6-5.2 12.4c-4.4 7.5-10.7 13.5-17.9 18c-7.2 4.5-15.2 7.3-23.2 9l0 13.8c0 11-9 20-20 20s-20-9-20-20l0-14.6c-10.3-2.2-20-5.5-28.3-8.4c-2.1-.7-4.1-1.4-6.1-2.1c-10.5-3.5-16.1-14.8-12.6-25.3s14.8-16.1 25.3-12.6c2.5 .8 4.9 1.7 7.2 2.4c13.6 4.6 24 8.1 35.1 8.5c8.6 .3 16.5-1.6 21.4-4.7c4.1-2.5 6-5.5 5.9-10.5c0-2.9-.8-5-5.9-8.2c-6.3-4-15.4-6.9-28-10.7l-1.7-.5c-10.9-3.3-24.6-7.4-35.6-14c-12.7-7.7-24.6-20.5-24.7-40.7c0-.7 0-1.3 0-2s.1-1.3 .1-1.9z"/><path class="fa-primary" d="M511.8 202.5c-1.6-18.1-10.9-34.9-25.7-45.8L448 128.5l0 79.6 0 41.6 63.8-47.2zM512 448l0-205.9L294.4 403.3C283.3 411.6 269.8 416 256 416s-27.3-4.4-38.4-12.7L0 242.1 0 448s0 0 0 0c0 35.3 28.7 64 64 64l384 0c35.3 0 64-28.7 64-64c0 0 0 0 0 0zM64 249.7l0-41.6 0-79.6L25.9 156.7C11.1 167.6 1.8 184.4 .2 202.5L64 249.7zM289.5 11.1C279.8 3.9 268.1 0 256 0s-23.8 3.9-33.5 11L194.2 32l123.5 0L289.5 11.1zM276 104c0-11-9-20-20-20s-20 9-20 20l0 14c-7.6 1.7-15.2 4.4-22.2 8.5c-13.9 8.3-25.9 22.8-25.8 43.9c.1 20.3 12 33.1 24.7 40.7c11 6.6 24.7 10.8 35.6 14l1.7 .5c12.6 3.8 21.8 6.8 28 10.7c5.1 3.2 5.8 5.4 5.9 8.2c.1 5-1.8 8-5.9 10.5c-5 3.1-12.9 5-21.4 4.7c-11.1-.4-21.5-3.9-35.1-8.5c-2.3-.8-4.7-1.6-7.2-2.4c-10.5-3.5-21.8 2.2-25.3 12.6s2.2 21.8 12.6 25.3c1.9 .6 4 1.3 6.1 2.1c0 0 0 0 0 0s0 0 0 0c8.3 2.9 17.9 6.2 28.2 8.4l0 14.6c0 11 9 20 20 20s20-9 20-20l0-13.8c8-1.7 16-4.5 23.2-9c14.3-8.9 25.1-24.1 24.8-45c-.3-20.3-11.7-33.4-24.6-41.6c-11.5-7.2-25.9-11.6-37.1-15l-.7-.2c-12.8-3.9-21.9-6.7-28.3-10.5c-5.2-3.1-5.3-4.9-5.3-6.7c0-3.7 1.4-6.5 6.2-9.3c5.4-3.2 13.6-5.1 21.5-5c9.6 .1 20.2 2.2 31.2 5.2c10.7 2.8 21.6-3.5 24.5-14.2s-3.5-21.6-14.2-24.5c-6.5-1.7-13.7-3.4-21.1-4.7l0-13.9z"/></svg>