<svg xmlns="http://www.w3.org/2000/svg" viewBox="0 0 640 512"><!--! Font Awesome Pro 6.6.0 by @fontawesome - https://fontawesome.com License - https://fontawesome.com/license (Commercial License) Copyright 2024 Fonticons, Inc. --><defs><style>.fa-secondary{opacity:.4}</style></defs><path class="fa-secondary" d="M288 256c0 31.5 16.5 52.7 23.8 60.6c2.1 2.3 5.1 3.4 8.2 3.4s6.1-1.1 8.2-3.4c7.3-7.9 23.8-29.2 23.8-60.6c0-13.2-2.9-24.6-6.8-34c-8.2 1.3-16.6 2-25.2 2s-17-.7-25.2-2c-3.9 9.4-6.8 20.8-6.8 34z"/><path class="fa-primary" d="M224 122.6c9.8-4.1 20.1-7.6 30.9-10.4l42.7-97.6C301.5 5.8 310.3 0 320 0s18.5 5.8 22.4 14.7l42.7 97.6c10.7 2.8 21.1 6.3 30.9 10.4L525.6 76.1c8.7-3.7 18.7-1 24.4 6.5s5.5 17.9-.4 25.2l-57.3 70.8c7 9 12.8 18.6 17.3 28.6l114.9 28.7c9.1 2.3 15.5 10.5 15.5 19.9s-6.4 17.6-15.5 19.9L509.6 304.6c-4.5 10.1-10.3 19.7-17.3 28.6l57.3 70.8c5.9 7.3 6.1 17.7 .4 25.2s-15.7 10.2-24.4 6.5L416 389.4c-9.8 4.1-20.1 7.6-30.9 10.4l-42.7 97.6c-3.9 8.9-12.7 14.7-22.4 14.7s-18.5-5.8-22.4-14.7l-42.7-97.6c-10.7-2.8-21.1-6.3-30.9-10.4L114.4 435.9c-8.7 3.7-18.7 1-24.4-6.5s-5.5-17.9 .4-25.2l57.3-70.8c-7-9-12.8-18.6-17.3-28.6L15.5 275.9C6.4 273.6 0 265.4 0 256s6.4-17.6 15.5-19.9l114.9-28.7c4.5-10.1 10.3-19.6 17.3-28.6L90.4 107.9c-5.9-7.3-6.1-17.7-.4-25.2s15.7-10.2 24.4-6.5L224 122.6zM416 256c0-19.7-6-38.1-16.2-53.3C376.3 216.2 349.1 224 320 224s-56.3-7.8-79.8-21.3C230 217.9 224 236.3 224 256c0 53 43 96 96 96s96-43 96-96z"/></svg>