<svg xmlns="http://www.w3.org/2000/svg" viewBox="0 0 512 512"><!--! Font Awesome Pro 6.6.0 by @fontawesome - https://fontawesome.com License - https://fontawesome.com/license (Commercial License) Copyright 2024 Fonticons, Inc. --><defs><style>.fa-secondary{opacity:.4}</style></defs><path class="fa-secondary" d="M0 256C0 397.4 114.6 512 256 512s256-114.6 256-256c0-22.8-3-44.8-8.5-65.8c-2.2 1.2-4.8 1.8-7.5 1.8l-34.7 0-6.6 39.9C450.8 255 430.8 272 407.3 272l-78.7 0c-23.5 0-43.5-17-47.3-40.1l-8-48c-.4-2.7-.7-5.3-.7-7.9l-33.3 0c0 2.6-.2 5.2-.7 7.9l-8 48C226.8 255 206.8 272 183.3 272l-78.7 0c-23.5 0-43.5-17-47.3-40.1L50.7 192 16 192c-.7 0-1.3 0-2-.1s-1.3-.2-1.9-.4c-1.2-.3-2.4-.8-3.6-1.4C3 211.2 0 233.2 0 256zm18.6-96l32.8 0c6.5-18.4 24.1-32 45.3-32l94.7 0c14.4 0 27.1 6.2 35.8 16l57.8 0c8.7-9.8 21.4-16 35.8-16l94.7 0c21.2 0 38.7 13.6 45.3 32l32.8 0C455.4 66.2 363.4 0 256 0S56.6 66.2 18.6 160zM139.9 362.5c-5.8-6.7-5.1-16.8 1.6-22.6s16.8-5.1 22.6 1.6C182 362.2 212.6 384 256 384s74-21.8 91.9-42.5c5.8-6.7 15.9-7.4 22.6-1.6s7.4 15.9 1.6 22.6C349.8 388.1 311.1 416 256 416s-93.8-27.9-116.1-53.5z"/><path class="fa-primary" d="M183.3 272l-78.7 0c-23.5 0-43.5-17-47.3-40.1L50.7 192 16 192c-8.8 0-16-7.2-16-16s7.2-16 16-16l35.4 0c6.5-18.4 24.1-32 45.3-32l94.7 0c14.4 0 27.1 6.2 35.8 16l57.8 0c8.7-9.8 21.4-16 35.8-16l94.7 0c21.2 0 38.7 13.6 45.3 32l35.4 0c8.8 0 16 7.2 16 16s-7.2 16-16 16l-34.7 0-6.6 39.9C450.8 255 430.8 272 407.3 272l-78.7 0c-23.5 0-43.5-17-47.3-40.1l-8-48c-.4-2.7-.7-5.3-.7-7.9l-33.3 0c0 2.6-.2 5.2-.7 7.9l-8 48C226.8 255 206.8 272 183.3 272z"/></svg>