<svg xmlns="http://www.w3.org/2000/svg" viewBox="0 0 512 512"><!--! Font Awesome Pro 6.6.0 by @fontawesome - https://fontawesome.com License - https://fontawesome.com/license (Commercial License) Copyright 2024 Fonticons, Inc. --><defs><style>.fa-secondary{opacity:.4}</style></defs><path class="fa-secondary" d="M0 256a256 256 0 1 0 512 0A256 256 0 1 0 0 256zm144.4-48c0-17.7 14.3-32 32-32c8.8 0 16.8 3.6 22.6 9.4c2.9 2.9 5.2 6.3 6.9 10.2c.8 1.9 1.4 3.9 1.9 6c.2 1 .4 2.1 .5 3.2c.1 .5 .1 1.1 .1 1.6s0 1 0 1.8c0 .5 0 1 0 1.5s-.1 1.1-.1 1.6c-.1 1.1-.3 2.1-.5 3.2c-.4 2.1-1.1 4.1-1.9 6c-1.6 3.8-4 7.3-6.9 10.2c-5.8 5.8-13.8 9.4-22.6 9.4c-17.7 0-32-14.3-32-32zm87.9 86c.9-3.5 4.1-6 7.7-6c17.4 0 34.7 4.9 47.9 12.3c6.6 3.7 12.5 8.2 16.7 13.4c4.3 5.1 7.3 11.4 7.3 18.3s-3.1 13.2-7.3 18.3c-4.3 5.2-10.1 9.7-16.7 13.4c-2.7 1.5-5.7 3-8.7 4.3c3.1 1.3 6 2.7 8.7 4.3c6.6 3.7 12.5 8.2 16.7 13.4c4.3 5.1 7.3 11.4 7.3 18.3s-3.1 13.2-7.3 18.3c-4.3 5.2-10.1 9.7-16.7 13.4C274.7 443.1 257.4 448 240 448c-3.6 0-6.8-2.5-7.7-6s.6-7.2 4.1-9.1c.2-.1 .5-.3 .9-.5c.8-.5 2-1.2 3.4-2.1c2.8-1.9 6.5-4.5 10.2-7.6c3.7-3.1 7.2-6.6 9.6-10.1c2.5-3.5 3.5-6.4 3.5-8.6s-1-5-3.5-8.6c-2.5-3.5-5.9-6.9-9.6-10.1c-3.7-3.1-7.4-5.7-10.2-7.6c-1.4-.9-2.6-1.6-3.4-2.1c-.4-.2-.7-.4-1.2-.7c-2.5-1.4-4.1-4.1-4.1-7s1.6-5.6 4.1-7c.1 0 .1-.1 .5-.3l.6-.4c.8-.5 2-1.2 3.4-2.1c2.8-1.9 6.5-4.5 10.2-7.6c3.7-3.1 7.2-6.6 9.6-10.1c2.5-3.5 3.5-6.4 3.5-8.6s-1-5-3.5-8.6c-2.5-3.5-5.9-6.9-9.6-10.1c-3.7-3.1-7.4-5.7-10.2-7.6c-1.4-.9-2.6-1.6-3.4-2.1l-.4-.3c-.2-.1-.3-.2-.7-.4c-3.2-1.8-4.7-5.5-3.8-9zm136.1-86a32 32 0 1 1 -64 0 32 32 0 1 1 64 0z"/><path class="fa-primary" d="M176.4 240a32 32 0 1 0 0-64 32 32 0 1 0 0 64zm160 0a32 32 0 1 0 0-64 32 32 0 1 0 0 64z"/></svg>