<svg xmlns="http://www.w3.org/2000/svg" viewBox="0 0 512 512"><!--! Font Awesome Pro 6.6.0 by @fontawesome - https://fontawesome.com License - https://fontawesome.com/license (Commercial License) Copyright 2024 Fonticons, Inc. --><defs><style>.fa-secondary{opacity:.4}</style></defs><path class="fa-secondary" d="M0 256a256 256 0 1 0 512 0A256 256 0 1 0 0 256zm91.5-86.2c1-2.9 3.5-5.1 6.6-5.5l38.1-5 16.6-34.7c1.3-2.8 4.1-4.6 7.2-4.6s5.9 1.8 7.2 4.6l16.6 34.7 38.1 5c3.1 .4 5.6 2.5 6.6 5.5s.1 6.2-2.1 8.3l-27.9 26.5 7 37.8c.6 3-.7 6.1-3.2 7.9s-5.8 2-8.5 .6L160 232.5l-33.8 18.3c-2.7 1.5-6 1.3-8.5-.6s-3.7-4.9-3.2-7.9l7-37.8L93.6 178c-2.2-2.1-3.1-5.3-2.1-8.3zm13.6 161.7c-5-11.8 7-22.5 19.3-18.7c39.7 12.2 84.5 19 131.8 19s92.1-6.8 131.8-19c12.3-3.8 24.3 6.9 19.3 18.7C382.4 390.6 324.2 432 256.3 432s-126.2-41.4-151.1-100.5zM283.5 169.8c1-2.9 3.5-5.1 6.6-5.5l38.1-5 16.6-34.7c1.3-2.8 4.1-4.6 7.2-4.6s5.9 1.8 7.2 4.6l16.6 34.7 38.1 5c3.1 .4 5.6 2.5 6.6 5.5c.3 .8 .4 1.6 .4 2.5c0 2.2-.9 4.3-2.5 5.8l-27.9 26.5 7 37.8c.6 3-.7 6.1-3.2 7.9s-5.8 2-8.5 .6L352 232.5l-33.8 18.3c-2.7 1.5-6 1.3-8.5-.6s-3.7-4.9-3.2-7.9l7-37.8L285.6 178c-2.2-2.1-3.1-5.3-2.1-8.3z"/><path class="fa-primary" d="M167.2 124.6c-1.3-2.8-4.1-4.6-7.2-4.6s-5.9 1.8-7.2 4.6l-16.6 34.7-38.1 5c-3.1 .4-5.6 2.5-6.6 5.5s-.1 6.2 2.1 8.3l27.9 26.5-7 37.8c-.6 3 .7 6.1 3.2 7.9s5.8 2 8.5 .6L160 232.5l33.8 18.3c2.7 1.5 6 1.3 8.5-.6s3.7-4.9 3.2-7.9l-7-37.8L226.4 178c2.2-2.1 3.1-5.3 2.1-8.3s-3.5-5.1-6.6-5.5l-38.1-5-16.6-34.7zm192 0c-1.3-2.8-4.1-4.6-7.2-4.6s-5.9 1.8-7.2 4.6l-16.6 34.7-38.1 5c-3.1 .4-5.6 2.5-6.6 5.5s-.1 6.2 2.1 8.3l27.9 26.5-7 37.8c-.6 3 .7 6.1 3.2 7.9s5.8 2 8.5 .6L352 232.5l33.8 18.3c2.7 1.5 6 1.3 8.5-.6s3.7-4.9 3.2-7.9l-7-37.8L418.4 178c2.2-2.1 3.1-5.3 2.1-8.3s-3.5-5.1-6.6-5.5l-38.1-5-16.6-34.7z"/></svg>