<svg xmlns="http://www.w3.org/2000/svg" viewBox="0 0 576 512"><!--! Font Awesome Pro 6.6.0 by @fontawesome - https://fontawesome.com License - https://fontawesome.com/license (Commercial License) Copyright 2024 Fonticons, Inc. --><defs><style>.fa-secondary{opacity:.4}</style></defs><path class="fa-secondary" d="M32 256c0 28.6 4.7 56.1 13.3 81.8c4.9-1.5 9.9-2.4 15-2.7c1.2-1.4 2.4-2.7 3.7-4c23.3-23.3 60.1-24.9 85.3-4.7l56.5-33.9c12.6-7.6 28.7-5.6 39.1 4.8s12.4 26.5 4.8 39.1L215.8 393c20.2 25.1 18.6 62-4.7 85.3c-1.3 1.3-2.6 2.5-4 3.7c-.3 5.4-1.3 10.8-3 16C230.4 507 258.6 512 288 512c28.7 0 56.3-4.7 82-13.4c-1.6-5.1-2.6-10.5-2.9-15.8c-1.4-1.2-2.7-2.4-4-3.7c-23.3-23.3-24.9-60.1-4.7-85.3l-33.9-56.5c-7.6-12.6-5.6-28.7 4.8-39.1s26.5-12.4 39.1-4.8L425 327.3c25.1-20.2 62-18.6 85.3 4.7c1.3 1.3 2.5 2.6 3.7 4c5.5 .3 11 1.3 16.3 3.1c8.9-26.1 13.8-54 13.8-83.1C544 114.6 429.4 0 288 0S32 114.6 32 256zm96-16c0-8.8 7.2-16 16-16l96 0c8.8 0 16 7.2 16 16s-7.2 16-16 16l-96 0c-8.8 0-16-7.2-16-16zm16.8-117.1c2.8-8.4 11.9-12.9 20.2-10.1c41.3 13.8 74.2 39.9 86.3 51.9c6.2 6.2 6.2 16.4 0 22.6s-16.4 6.2-22.6 0c-9.3-9.3-38.2-32.3-73.7-44.1c-8.4-2.8-12.9-11.9-10.1-20.2zM320 240c0-8.8 7.2-16 16-16l96 0c8.8 0 16 7.2 16 16s-7.2 16-16 16l-96 0c-8.8 0-16-7.2-16-16zm4.7-75.3c12-12 45-38.1 86.3-51.9c8.4-2.8 17.4 1.7 20.2 10.1s-1.7 17.4-10.1 20.2c-35.5 11.8-64.4 34.8-73.7 44.1c-6.2 6.2-16.4 6.2-22.6 0s-6.2-16.4 0-22.6z"/><path class="fa-primary" d="M41.4 421.7c2.1 2.1 4.3 3.8 6.7 5.2c-14.4 18.8-13.1 45.9 4.2 63.1s44.3 18.6 63.1 4.2c1.4 2.4 3.1 4.7 5.2 6.7c12.5 12.5 32.8 12.5 45.3 0c9.9-9.9 11.9-24.6 6.2-36.5c6-1.2 11.7-4.1 16.4-8.8c12.5-12.5 12.5-32.8 0-45.3c-3.6-3.6-7.9-6.2-12.5-7.7l44.9-69.8c1.8-2.8 1.4-6.5-.9-8.8c-2.3-2.3-5.9-2.7-8.7-1L140 367.5c-1.5-5-4.2-9.7-8.1-13.7c-12.5-12.5-32.8-12.5-45.3 0c-4.7 4.7-7.6 10.4-8.8 16.4c-11.9-5.7-26.6-3.6-36.5 6.2c-12.5 12.5-12.5 32.8 0 45.3zm491.5 .9c12.5-12.5 12.5-32.8 0-45.3c-9.9-9.9-24.6-11.9-36.5-6.2c-1.2-6-4.1-11.7-8.8-16.4c-12.5-12.5-32.8-12.5-45.3 0c-3.7 3.7-6.3 8.1-7.8 12.8L364.8 323c-2.8-1.8-6.5-1.4-8.8 1c-2.3 2.3-2.7 6-1 8.8l44.2 70.4c-4.9 1.5-9.6 4.1-13.4 8c-12.5 12.5-12.5 32.8 0 45.3c4.7 4.7 10.4 7.6 16.4 8.8c-5.7 11.9-3.6 26.6 6.2 36.5c12.5 12.5 32.8 12.5 45.3 0c2.1-2.1 3.8-4.3 5.2-6.7c18.8 14.5 45.9 13.1 63.1-4.2s18.6-44.3 4.2-63.1c2.4-1.4 4.7-3.1 6.7-5.2z"/></svg>