<svg xmlns="http://www.w3.org/2000/svg" viewBox="0 0 512 512"><!--! Font Awesome Pro 6.6.0 by @fontawesome - https://fontawesome.com License - https://fontawesome.com/license (Commercial License) Copyright 2024 Fonticons, Inc. --><defs><style>.fa-secondary{opacity:.4}</style></defs><path class="fa-secondary" d="M0 256a256 256 0 1 0 512 0A256 256 0 1 0 0 256zm115.2-41.6c30.4-40.5 91.2-40.5 121.6 0c5.3 7.1 3.9 17.1-3.2 22.4s-17.1 3.9-22.4-3.2c-17.6-23.5-52.8-23.5-70.4 0c-5.3 7.1-15.3 8.5-22.4 3.2s-8.5-15.3-3.2-22.4zM232.3 294c.9-3.5 4.1-6 7.7-6c17.4 0 34.7 4.9 47.9 12.3c6.6 3.7 12.5 8.2 16.7 13.4c4.3 5.1 7.3 11.4 7.3 18.3s-3.1 13.2-7.3 18.3c-4.3 5.2-10.1 9.7-16.7 13.4c-2.7 1.5-5.7 3-8.7 4.3c3.1 1.3 6 2.7 8.7 4.3c6.6 3.7 12.5 8.2 16.7 13.4c4.3 5.1 7.3 11.4 7.3 18.3s-3.1 13.2-7.3 18.3c-4.3 5.2-10.1 9.7-16.7 13.4C274.7 443.1 257.4 448 240 448c-3.6 0-6.8-2.5-7.7-6s.6-7.2 4.1-9.1c.2-.1 .5-.3 .9-.5c.8-.5 2-1.2 3.4-2.1c2.8-1.9 6.5-4.5 10.2-7.6c3.7-3.1 7.2-6.6 9.6-10.1c2.5-3.5 3.5-6.4 3.5-8.6s-1-5-3.5-8.6c-2.5-3.5-5.9-6.9-9.6-10.1c-3.7-3.1-7.4-5.7-10.2-7.6c-1.4-.9-2.6-1.6-3.4-2.1c-.4-.2-.7-.4-1.2-.7c-2.5-1.4-4.1-4.1-4.1-7s1.6-5.6 4.1-7c.1 0 .1-.1 .5-.3l.6-.4c.8-.5 2-1.2 3.4-2.1c2.8-1.9 6.5-4.5 10.2-7.6c3.7-3.1 7.2-6.6 9.6-10.1c2.5-3.5 3.5-6.4 3.5-8.6s-1-5-3.5-8.6c-2.5-3.5-5.9-6.9-9.6-10.1c-3.7-3.1-7.4-5.7-10.2-7.6c-1.4-.9-2.6-1.6-3.4-2.1l-.4-.3c-.2-.1-.3-.2-.7-.4c-3.2-1.8-4.7-5.5-3.8-9zm42.9-79.6c30.4-40.5 91.2-40.5 121.6 0c5.3 7.1 3.9 17.1-3.2 22.4s-17.1 3.9-22.4-3.2c-17.6-23.5-52.8-23.5-70.4 0c-5.3 7.1-15.3 8.5-22.4 3.2s-8.5-15.3-3.2-22.4z"/><path class="fa-primary" d="M140.8 233.6c17.6-23.5 52.8-23.5 70.4 0c5.3 7.1 15.3 8.5 22.4 3.2s8.5-15.3 3.2-22.4c-30.4-40.5-91.2-40.5-121.6 0c-5.3 7.1-3.9 17.1 3.2 22.4s17.1 3.9 22.4-3.2zm160 0c17.6-23.5 52.8-23.5 70.4 0c5.3 7.1 15.3 8.5 22.4 3.2s8.5-15.3 3.2-22.4c-30.4-40.5-91.2-40.5-121.6 0c-5.3 7.1-3.9 17.1 3.2 22.4s17.1 3.9 22.4-3.2z"/></svg>