<svg xmlns="http://www.w3.org/2000/svg" viewBox="0 0 512 512"><!--! Font Awesome Pro 6.6.0 by @fontawesome - https://fontawesome.com License - https://fontawesome.com/license (Commercial License) Copyright 2024 Fonticons, Inc. --><defs><style>.fa-secondary{opacity:.4}</style></defs><path class="fa-secondary" d="M0 256C0 397.4 114.6 512 256 512s256-114.6 256-256c0-22.8-3-44.8-8.5-65.8c-2.2 1.2-4.8 1.8-7.5 1.8l-32 0 0 56c0 30.9-25.1 56-56 56l-80 0c-30.9 0-56-25.1-56-56l0-56-32 0 0 56c0 30.9-25.1 56-56 56l-80 0c-30.9 0-56-25.1-56-56l0-56-32 0c-.7 0-1.3 0-2-.1s-1.3-.2-1.9-.4c-1.2-.3-2.4-.8-3.6-1.4C3 211.2 0 233.2 0 256zm18.6-96l34.8 0c9-18.9 28.3-32 50.6-32l80 0c22.3 0 41.6 13.1 50.6 32l42.8 0c9-18.9 28.3-32 50.6-32l80 0c22.3 0 41.6 13.1 50.6 32l34.8 0C455.4 66.2 363.4 0 256 0S56.6 66.2 18.6 160zM139.9 362.5c-5.8-6.7-5.1-16.8 1.6-22.6s16.8-5.1 22.6 1.6C182 362.2 212.6 384 256 384s74-21.8 91.9-42.5c5.8-6.7 15.9-7.4 22.6-1.6s7.4 15.9 1.6 22.6C349.8 388.1 311.1 416 256 416s-93.8-27.9-116.1-53.5z"/><path class="fa-primary" d="M16 192l32 0 0 56c0 30.9 25.1 56 56 56l80 0c30.9 0 56-25.1 56-56l0-56 32 0 0 56c0 30.9 25.1 56 56 56l80 0c30.9 0 56-25.1 56-56l0-56 32 0c8.8 0 16-7.2 16-16s-7.2-16-16-16l-37.4 0c-9-18.9-28.3-32-50.6-32l-80 0c-22.3 0-41.6 13.1-50.6 32l-42.8 0c-9-18.9-28.3-32-50.6-32l-80 0c-22.3 0-41.6 13.1-50.6 32L16 160c-8.8 0-16 7.2-16 16s7.2 16 16 16zm64 56l0-56 0-8c0-13.3 10.7-24 24-24l80 0c13.3 0 24 10.7 24 24l0 64c0 13.3-10.7 24-24 24l-80 0c-13.3 0-24-10.7-24-24zm352-56l0 56c0 13.3-10.7 24-24 24l-80 0c-13.3 0-24-10.7-24-24l0-64c0-13.3 10.7-24 24-24l80 0c13.3 0 24 10.7 24 24l0 8zM184.4 224a24 24 0 1 0 -48 0 24 24 0 1 0 48 0zm168 24a24 24 0 1 0 0-48 24 24 0 1 0 0 48z"/></svg>