<svg xmlns="http://www.w3.org/2000/svg" viewBox="0 0 512 512"><!--! Font Awesome Pro 6.6.0 by @fontawesome - https://fontawesome.com License - https://fontawesome.com/license (Commercial License) Copyright 2024 Fonticons, Inc. --><defs><style>.fa-secondary{opacity:.4}</style></defs><path class="fa-secondary" d="M0 256a256 256 0 1 0 512 0A256 256 0 1 0 0 256zm144.4-48c0-17.7 14.3-32 32-32c8.8 0 16.8 3.6 22.6 9.4c2.9 2.9 5.2 6.3 6.9 10.2c.8 1.9 1.4 3.9 1.9 6c.2 1 .4 2.1 .5 3.2c.1 .5 .1 1.1 .1 1.6s0 1 0 1.8c0 .5 0 1 0 1.5s-.1 1.1-.1 1.6c-.1 1.1-.3 2.1-.5 3.2c-.4 2.1-1.1 4.1-1.9 6c-1.6 3.8-4 7.3-6.9 10.2c-5.8 5.8-13.8 9.4-22.6 9.4c-17.7 0-32-14.3-32-32zm14.1 161.1c16.7-38.2 55.8-65.1 101.5-65.1c45.7 0 84.9 26.9 101.5 65.1c5.3 12.2-8.6 21.5-20.8 16.4c-24.4-10.3-51.8-16.1-80.7-16.1c-28.9 0-56.2 5.8-80.6 16.1c-12.3 5.2-26.1-4.2-20.8-16.4zM368.4 208a32 32 0 1 1 -64 0 32 32 0 1 1 64 0z"/><path class="fa-primary" d="M176.4 240a32 32 0 1 0 0-64 32 32 0 1 0 0 64zm160 0a32 32 0 1 0 0-64 32 32 0 1 0 0 64z"/></svg>