<svg xmlns="http://www.w3.org/2000/svg" viewBox="0 0 512 512"><!--! Font Awesome Pro 6.6.0 by @fontawesome - https://fontawesome.com License - https://fontawesome.com/license (Commercial License) Copyright 2024 Fonticons, Inc. --><defs><style>.fa-secondary{opacity:.4}</style></defs><path class="fa-secondary" d="M0 256a256 256 0 1 0 512 0A256 256 0 1 0 0 256zm80.3-83c.2-.9 .4-1.9 .8-2.8c.7-1.8 1.7-3.4 2.9-4.8c2.5-2.8 6-4.8 10-5.3c3.8-.5 7.7-1 11.5-1.4c25.5-3.2 46.6-21.3 53.6-45.9c.5-1.7 1-3.4 1.5-5.2c2.4-8.5 11.3-13.4 19.8-11s13.4 11.3 11 19.8l-1.5 5.2c-4.2 14.8-11.8 28-21.9 38.8c40.4 4 72 38.1 72 79.6l0 32 0 16 0 16c0 8.8-7.2 16-16 16s-16-7.2-16-16c-13.4 10-30 16-48 16c-11.4 0-22.2-2.4-32-6.7l0 6.7c0 8.8-7.2 16-16 16s-16-7.2-16-16l0-32c-10-13.4-16-30-16-48s6-34.6 16-48c-8 0-14.9-5.9-15.9-14c-.1-.7-.1-1.4-.1-2c0-1 0-1.2 .1-1.5c0-.5 .1-.9 .2-1.4zm85.6 217.4c-5.8-6.7-5.1-16.8 1.6-22.6s16.8-5.1 22.6 1.6C203 384.4 224.9 400 256 400s53-15.6 65.9-30.5c5.8-6.7 15.9-7.4 22.6-1.6s7.4 15.9 1.6 22.6C328.9 410.3 298.8 432 256 432s-72.9-21.7-90.1-41.5zM272 240c0-41.4 31.4-75.4 72-79.6c-10-10.8-17.6-24.1-21.9-38.8c-.5-1.7-1-3.4-1.5-5.2c-2.4-8.5 2.5-17.4 11-19.8c1.5-.4 2.9-.6 4.4-.6c7 0 13.4 4.6 15.4 11.6l1.5 5.2c7 24.7 28.1 42.7 53.6 45.9c3.8 .5 7.7 1 11.5 1.4c8.1 1 14 7.9 14 15.9c0 .7 0 1.3-.1 2c-1 8.1-7.9 14-15.9 14c10 13.4 16 30 16 48s-6 34.6-16 48l0 32c0 8.8-7.2 16-16 16s-16-7.2-16-16l0-6.7c-9.8 4.3-20.6 6.7-32 6.7c-44.2 0-80-35.8-80-80z"/><path class="fa-primary" d="M191.4 116.4c2.4-8.5-2.5-17.4-11-19.8s-17.4 2.5-19.8 11l-1.5 5.2c-7 24.7-28.1 42.7-53.6 45.9L94 160.1c-8.8 1.1-15 9.1-13.9 17.9s9.1 15 17.9 13.9l11.5-1.4c38.2-4.8 69.8-31.9 80.4-68.9l1.5-5.2zm129.2 0l1.5 5.2c10.6 37 42.2 64.1 80.4 68.9l11.5 1.4c8.8 1.1 16.8-5.1 17.9-13.9s-5.1-16.8-13.9-17.9l-11.5-1.4c-25.5-3.2-46.6-21.3-53.6-45.9l-1.5-5.2c-2.4-8.5-11.3-13.4-19.8-11s-13.4 11.3-11 19.8zM128 232c-8.3 0-15.9-3.2-21.6-8.4c-1.6 5.2-2.4 10.7-2.4 16.4c0 30.9 25.1 56 56 56s56-25.1 56-56s-25.1-56-56-56c-1.4 0-2.8 .1-4.2 .2c2.7 4.7 4.2 10.1 4.2 15.8c0 17.7-14.3 32-32 32zm224-32c0 17.7-14.3 32-32 32c-8.3 0-15.9-3.2-21.6-8.4c-1.6 5.2-2.4 10.7-2.4 16.4c0 30.9 25.1 56 56 56s56-25.1 56-56s-25.1-56-56-56c-1.4 0-2.8 .1-4.2 .2c2.7 4.7 4.2 10.1 4.2 15.8z"/></svg>