<svg xmlns="http://www.w3.org/2000/svg" viewBox="0 0 512 512"><!--! Font Awesome Pro 6.6.0 by @fontawesome - https://fontawesome.com License - https://fontawesome.com/license (Commercial License) Copyright 2024 Fonticons, Inc. --><defs><style>.fa-secondary{opacity:.4}</style></defs><path class="fa-secondary" d="M0 256C0 397.4 114.6 512 256 512s256-114.6 256-256c0-17.9-1.8-35.3-5.3-52.1c-2.8 2.5-6.6 4.1-10.7 4.1l-56 0c0 50.1-38.4 91.2-87.3 95.6c9.6 7.9 15.3 19.7 15.3 32.4c0 15.9-9 30.4-23.1 37.5L364.5 398c5.5 6.9 4.4 17-2.5 22.5s-17 4.4-22.5-2.5l-23.9-29.9-7.3 3.6 10.5 26.3c3.3 8.2-.7 17.5-8.9 20.8s-17.5-.7-20.8-8.9l-10-24.9c-2.4 .7-4.8 1.3-7.2 1.8l0 25.2c0 8.8-7.2 16-16 16s-16-7.2-16-16l0-25.2c-2.4-.5-4.8-1.1-7.2-1.8l-10 24.9c-3.3 8.2-12.6 12.2-20.8 8.9s-12.2-12.6-8.9-20.8l10.5-26.3-7.3-3.6L172.5 418c-5.5 6.9-15.6 8-22.5 2.5s-8-15.6-2.5-22.5l19.6-24.5C153 366.4 144 351.9 144 336c0-12.7 5.7-24.5 15.3-32.4C110.4 299.2 72 258.1 72 208l-56 0c-.5 0-1 0-1.5-.1s-1-.1-1.5-.2c-1-.2-1.9-.5-2.8-.8c-1.8-.7-3.5-1.7-4.9-3C1.8 220.7 0 238.2 0 256zm12.6-79.6c1.1-.2 2.2-.4 3.4-.4l61.5 0c5.3-14.9 14.1-28 25.4-38.5l-5.2-10.3c-4-7.9-.7-17.5 7.2-21.5s17.5-.7 21.5 7.2l3.5 7c4.6-2 9.3-3.6 14.2-4.9l0-19c0-8.8 7.2-16 16-16s16 7.2 16 16l0 16.3c4.4 .4 8.7 1 13 2l4.7-9.5c4-7.9 13.6-11.1 21.5-7.2s11.1 13.6 7.2 21.5l-3.6 7.3c16.4 10.2 29.5 25.3 37.3 43.1c7.8-17.9 20.9-32.9 37.3-43.1l-3.6-7.3c-4-7.9-.7-17.5 7.2-21.5s17.5-.7 21.5 7.2l4.7 9.5c4.2-.9 8.6-1.6 13-2L336 96c0-8.8 7.2-16 16-16s16 7.2 16 16l0 19c4.9 1.3 9.6 2.9 14.2 4.9l3.5-7c4-7.9 13.6-11.1 21.5-7.2s11.1 13.6 7.2 21.5l-5.2 10.3c11.3 10.5 20.1 23.7 25.4 38.5l61.5 0c.6 0 1.1 0 1.7 .1s1.1 .1 1.7 .3C465.9 74 369.6 0 256 0S46.1 74 12.6 176.4z"/><path class="fa-primary" d="M160 80c8.8 0 16 7.2 16 16l0 16.3c4.4 .4 8.7 1 13 2l4.7-9.5c4-7.9 13.6-11.1 21.5-7.2s11.1 13.6 7.2 21.5l-3.6 7.3c16.4 10.2 29.5 25.3 37.3 43.1c7.8-17.9 20.9-32.9 37.3-43.1l-3.6-7.3c-4-7.9-.7-17.5 7.2-21.5s17.5-.7 21.5 7.2l4.7 9.5c4.2-.9 8.6-1.6 13-2L336 96c0-8.8 7.2-16 16-16s16 7.2 16 16l0 19c4.9 1.3 9.6 2.9 14.2 4.9l3.5-7c4-7.9 13.6-11.1 21.5-7.2s11.1 13.6 7.2 21.5l-5.2 10.3c11.3 10.5 20.1 23.7 25.4 38.5l61.5 0c8.8 0 16 7.2 16 16s-7.2 16-16 16l-56 0c0 50.1-38.4 91.2-87.3 95.6c9.6 7.9 15.3 19.7 15.3 32.4c0 15.9-9 30.4-23.1 37.5L364.5 398c5.5 6.9 4.4 17-2.5 22.5s-17 4.4-22.5-2.5l-23.9-29.9-7.3 3.6 10.5 26.3c3.3 8.2-.7 17.5-8.9 20.8s-17.5-.7-20.8-8.9l-10-24.9c-2.4 .7-4.8 1.3-7.2 1.8l0 25.2c0 8.8-7.2 16-16 16s-16-7.2-16-16l0-25.2c-2.4-.5-4.8-1.1-7.2-1.8l-10 24.9c-3.3 8.2-12.6 12.2-20.8 8.9s-12.2-12.6-8.9-20.8l10.5-26.3-7.3-3.6L172.5 418c-5.5 6.9-15.6 8-22.5 2.5s-8-15.6-2.5-22.5l19.6-24.5C153 366.4 144 351.9 144 336c0-12.7 5.7-24.5 15.3-32.4C110.4 299.2 72 258.1 72 208l-56 0c-8.8 0-16-7.2-16-16s7.2-16 16-16l61.5 0c5.3-14.9 14.1-28 25.4-38.5l-5.2-10.3c-4-7.9-.7-17.5 7.2-21.5s17.5-.7 21.5 7.2l3.5 7c4.6-2 9.3-3.6 14.2-4.9l0-19c0-8.8 7.2-16 16-16zM317.9 266.5c7.9 3.5 16.8 5.5 26.1 5.5c35.3 0 64-28.7 64-64s-28.7-64-64-64s-64 28.7-64 64c0 2.5 .1 4.9 .4 7.3c5.4 3.6 10.1 8.4 13.5 14.1l21.4 35.7c1.1 .6 1.9 1 2.6 1.3zM232 208c0-35.3-28.7-64-64-64s-64 28.7-64 64s28.7 64 64 64c9.3 0 18.1-2 26.1-5.5c.6-.3 1.5-.7 2.6-1.3L218 229.5c3.5-5.8 8.1-10.6 13.5-14.1c.3-2.4 .4-4.9 .4-7.3zm24 32c-4.3 0-8.3 2.3-10.5 6l-39.8 66.3-2.4 4-4.2 2.1-17.7 8.8c-3.4 1.7-5.5 5.1-5.5 8.8s2.1 7.2 5.5 8.8l53.1 26.5c13.5 6.8 29.4 6.8 42.9 0l53.1-26.5c3.4-1.7 5.5-5.1 5.5-8.8s-2.1-7.2-5.5-8.8l-17.7-8.8-4.2-2.1-2.4-4L266.5 246c-2.2-3.7-6.2-6-10.5-6zM144 216a24 24 0 1 1 48 0 24 24 0 1 1 -48 0zm200-24a24 24 0 1 1 0 48 24 24 0 1 1 0-48z"/></svg>