<svg xmlns="http://www.w3.org/2000/svg" viewBox="0 0 512 512"><!--! Font Awesome Pro 6.6.0 by @fontawesome - https://fontawesome.com License - https://fontawesome.com/license (Commercial License) Copyright 2024 Fonticons, Inc. --><defs><style>.fa-secondary{opacity:.4}</style></defs><path class="fa-secondary" d="M0 256a256 256 0 1 0 512 0A256 256 0 1 0 0 256zM96 144c0-4.1 1.6-8.2 4.7-11.3s7.2-4.7 11.3-4.7s8.2 1.6 11.3 4.7L160 169.4l36.7-36.7c3.1-3.1 7.2-4.7 11.3-4.7s8.2 1.6 11.3 4.7c6.2 6.2 6.2 16.4 0 22.6L182.6 192l36.7 36.7c6.2 6.2 6.2 16.4 0 22.6c-3.1 3.1-7.2 4.7-11.3 4.7s-8.2-1.6-11.3-4.7L160 214.6l-36.7 36.7c-3.1 3.1-7.2 4.7-11.3 4.7s-8.2-1.6-11.3-4.7s-4.7-7.2-4.7-11.3s1.6-8.2 4.7-11.3L137.4 192l-36.7-36.7c-3.1-3.1-4.7-7.2-4.7-11.3zm80 240c0-44.2 35.8-80 80-80s80 35.8 80 80c0 8.8-7.2 16-16 16l-128 0c-8.8 0-16-7.2-16-16zM292.7 132.7c3.1-3.1 7.2-4.7 11.3-4.7s8.2 1.6 11.3 4.7L352 169.4l36.7-36.7c3.1-3.1 7.2-4.7 11.3-4.7s8.2 1.6 11.3 4.7s4.7 7.2 4.7 11.3s-1.6 8.2-4.7 11.3L374.6 192l36.7 36.7c3.1 3.1 4.7 7.2 4.7 11.3s-1.6 8.2-4.7 11.3s-7.2 4.7-11.3 4.7s-8.2-1.6-11.3-4.7L352 214.6l-36.7 36.7c-3.1 3.1-7.2 4.7-11.3 4.7s-8.2-1.6-11.3-4.7c-6.2-6.2-6.2-16.4 0-22.6L329.4 192l-36.7-36.7c-6.2-6.2-6.2-16.4 0-22.6z"/><path class="fa-primary" d="M196.7 132.7c6.2-6.2 16.4-6.2 22.6 0s6.2 16.4 0 22.6L182.6 192l36.7 36.7c6.2 6.2 6.2 16.4 0 22.6s-16.4 6.2-22.6 0L160 214.6l-36.7 36.7c-6.2 6.2-16.4 6.2-22.6 0s-6.2-16.4 0-22.6L137.4 192l-36.7-36.7c-6.2-6.2-6.2-16.4 0-22.6s16.4-6.2 22.6 0L160 169.4l36.7-36.7zm96 0c6.2-6.2 16.4-6.2 22.6 0L352 169.4l36.7-36.7c6.2-6.2 16.4-6.2 22.6 0s6.2 16.4 0 22.6L374.6 192l36.7 36.7c6.2 6.2 6.2 16.4 0 22.6s-16.4 6.2-22.6 0L352 214.6l-36.7 36.7c-6.2 6.2-16.4 6.2-22.6 0s-6.2-16.4 0-22.6L329.4 192l-36.7-36.7c-6.2-6.2-6.2-16.4 0-22.6z"/></svg>