<svg xmlns="http://www.w3.org/2000/svg" viewBox="0 0 512 512"><!--! Font Awesome Pro 6.6.0 by @fontawesome - https://fontawesome.com License - https://fontawesome.com/license (Commercial License) Copyright 2024 Fonticons, Inc. --><defs><style>.fa-secondary{opacity:.4}</style></defs><path class="fa-secondary" d="M0 256a256 256 0 1 0 512 0A256 256 0 1 0 0 256zm139.9-90.5c22.2-25.7 61-53.5 116.1-53.5s93.8 27.9 116.1 53.5c5.8 6.7 5.1 16.8-1.6 22.6s-16.8 5.1-22.6-1.6C330 165.8 299.4 144 256 144s-74 21.8-91.9 42.5c-5.8 6.7-15.9 7.4-22.6 1.6s-7.4-15.9-1.6-22.6zm3.9 135.2c.1-1.1 .3-2.1 .5-3.2c.4-2.1 1.1-4.1 1.9-6c1.6-3.8 4-7.3 6.9-10.2c5.8-5.8 13.8-9.4 22.6-9.4c17.7 0 32 14.3 32 32s-14.3 32-32 32c-8.8 0-16.8-3.6-22.6-9.4c-2.9-2.9-5.2-6.3-6.9-10.2c-.8-1.9-1.4-3.9-1.9-6c-.2-1-.4-2.1-.5-3.2c-.1-.5-.1-1.1-.1-1.6s0-1 0-1.8c0-.4 0-.9 0-1.5s.1-1.1 .1-1.6zm160 0c.1-1.1 .3-2.1 .5-3.2c.4-2.1 1.1-4.1 1.9-6c1.6-3.8 4-7.3 6.9-10.2c5.8-5.8 13.8-9.4 22.6-9.4c17.7 0 32 14.3 32 32s-14.3 32-32 32c-8.8 0-16.8-3.6-22.6-9.4c-2.9-2.9-5.2-6.3-6.9-10.2c-.8-1.9-1.4-3.9-1.9-6c-.2-1-.4-2.1-.5-3.2c-.1-.5-.1-1.1-.1-1.6s0-1 0-1.8c0-.4 0-.9 0-1.5s.1-1.1 .1-1.6z"/><path class="fa-primary" d="M175.6 272a32 32 0 1 0 0 64 32 32 0 1 0 0-64zm160 0a32 32 0 1 0 0 64 32 32 0 1 0 0-64z"/></svg>