<svg xmlns="http://www.w3.org/2000/svg" viewBox="0 0 576 512"><!--! Font Awesome Pro 6.6.0 by @fontawesome - https://fontawesome.com License - https://fontawesome.com/license (Commercial License) Copyright 2024 Fonticons, Inc. --><defs><style>.fa-secondary{opacity:.4}</style></defs><path class="fa-secondary" d="M416 263.3c0-5.8 .8-11.2 2.6-16c.9-2.4 2-4.7 3.3-6.8c.7-1.1 1.4-2.1 2.2-3.1c.4-.5 .8-1 1.2-1.4s.8-.9 1.3-1.4c1.6-1.6 3.3-2.9 5.1-4.2c6.5-4.3 14.6-6.4 23.7-6.4c.5 0 1 0 1.5 0c1.9 0 3.8 .2 5.8 .4c22.7 2.5 49.8 16.6 73.1 39.9c31 31 45.6 68.8 38.6 93.7c-1.7 6-4.6 11.2-8.8 15.4c-21.9 21.9-70.8 8.6-109.1-29.8c-25.8-25.8-40.3-56.4-40.3-80.4z"/><path class="fa-primary" d="M166.6 125.5c-8.8 10.7-8.8 26.3 0 37c5.9 7.1 8 16.7 5.7 25.7c-.3 1.3-.6 2.6-.7 3.9c17.2 .6 33.9 8.6 45.1 22.8c28.3 .2 52.1 20.3 58.1 47.4c4.8 2.4 9.2 5.4 13.1 8.8c3.9-3.4 8.3-6.4 13.1-8.8c6-27.1 29.8-47.1 58.1-47.4c17.3-21.9 47.4-29.2 72.8-17c1.5-.7 3-1.4 4.5-1.9c.1-2.6-.2-5.2-.9-7.8c-2.3-9-.1-18.6 5.7-25.7c8.8-10.7 8.8-26.3 0-37c-5.9-7.1-8-16.7-5.7-25.7c3.4-13.5-3.2-27.6-15.7-33.3c-8.3-3.8-14.3-11.5-16.1-20.6c-2.7-13.7-14.6-23.5-28.3-23.1c-9.1 .3-17.8-4-23.2-11.4C344 .3 329.1-3.2 316.9 3.2c-8.1 4.3-17.7 4.3-25.8 0C278.9-3.2 264 .3 255.8 11.4c-5.5 7.4-14.1 11.7-23.2 11.4c-13.7-.4-25.7 9.4-28.3 23.1c-1.8 9.1-7.8 16.8-16.1 20.6c-12.5 5.7-19.2 19.8-15.7 33.3c2.3 9 .1 18.6-5.7 25.7zm76.4 141.4c-3.7-12.1-14.9-20.4-27.6-20.1c-3.6 .1-7.2-.5-10.5-1.8c-5-1.9-9.4-5.2-12.7-9.6c-8.2-11.2-23.2-14.6-35.3-8.2c-8.1 4.3-17.7 4.3-25.8 0c-12.2-6.4-27.1-2.9-35.3 8.2c-5.5 7.4-14.1 11.7-23.2 11.4c-13.7-.4-25.7 9.4-28.3 23.1c-1.8 9.1-7.8 16.8-16.1 20.6c-12.5 5.7-19.2 19.8-15.7 33.3c2.3 9 .1 18.6-5.7 25.7c-8.8 10.7-8.8 26.3 0 37c5.9 7.1 8 16.7 5.7 25.7c-3.4 13.5 3.2 27.6 15.7 33.3c8.3 3.8 14.3 11.5 16.1 20.6c2.7 13.7 14.6 23.5 28.3 23.1c9.1-.3 17.8 4 23.2 11.4c8.2 11.2 23.2 14.6 35.3 8.2c8.1-4.3 17.7-4.3 25.8 0c12.2 6.4 27.1 2.9 35.3-8.2c5.5-7.4 14.1-11.7 23.2-11.4c13.7 .4 25.7-9.4 28.3-23.1c1.8-9.1 7.8-16.8 16.1-20.6c4.1-1.9 7.6-4.7 10.3-8.1c-3.1-10.1-3.7-21-1.2-31.7c-17.3-22.1-17.3-53.3 0-75.4c-2.4-10.7-1.9-21.7 1.2-31.7c-2.7-3.4-6.2-6.2-10.3-8.1c-8.3-3.8-14.3-11.5-16.1-20.6c-.2-1-.5-2-.8-3zM240 128a16 16 0 1 1 0 32 16 16 0 1 1 0-32zM64 368a16 16 0 1 1 32 0 16 16 0 1 1 -32 0zm80-16a16 16 0 1 1 0 32 16 16 0 1 1 0-32zM96 432a16 16 0 1 1 32 0 16 16 0 1 1 -32 0zm469.4-58.6c-21.9 21.9-70.8 8.6-109.1-29.8s-51.7-87.2-29.8-109.1c1.6-1.6 3.3-2.9 5.1-4.2c-4.3-.1-8.6-1.1-12.5-3.2c-12.2-6.4-27.1-2.9-35.3 8.2c-5.5 7.4-14.1 11.7-23.2 11.4c-13.7-.4-25.7 9.4-28.3 23.1c-1.8 9.1-7.8 16.8-16.1 20.6c-12.5 5.7-19.2 19.8-15.7 33.3c2.3 9 .1 18.6-5.7 25.7c-8.8 10.7-8.8 26.3 0 37c5.9 7.1 8 16.7 5.7 25.7c-3.4 13.5 3.2 27.6 15.7 33.3c8.3 3.8 14.3 11.5 16.1 20.6c2.7 13.7 14.6 23.5 28.3 23.1c9.1-.3 17.8 4 23.2 11.4c8.2 11.2 23.2 14.6 35.3 8.2c8.1-4.3 17.7-4.3 25.8 0c12.2 6.4 27.1 2.9 35.3-8.2c5.5-7.4 14.1-11.7 23.2-11.4c13.7 .4 25.7-9.4 28.3-23.1c1.8-9.1 7.8-16.8 16.1-20.6c12.5-5.7 19.2-19.8 15.7-33.3c-2.3-9-.1-18.6 5.7-25.7c6.7-8.1 8.3-19 4.9-28.4c-1.7 5.9-4.6 11.2-8.8 15.4zM456.8 224c1.9 0 3.8 .2 5.8 .4c-1.9-.3-3.8-.5-5.8-.4zM368 352a16 16 0 1 1 0 32 16 16 0 1 1 0-32zm16 80a16 16 0 1 1 32 0 16 16 0 1 1 -32 0z"/></svg>