<svg xmlns="http://www.w3.org/2000/svg" viewBox="0 0 384 512"><!--! Font Awesome Pro 6.6.0 by @fontawesome - https://fontawesome.com License - https://fontawesome.com/license (Commercial License) Copyright 2024 Fonticons, Inc. --><defs><style>.fa-secondary{opacity:.4}</style></defs><path class="fa-secondary" d="M0 64C0 28.7 28.7 0 64 0L224 0c0 42.7 0 85.3 0 128c0 .6 0 1.1 0 1.6c0 .5 .1 1.1 .1 1.6c.1 1.1 .3 2.1 .5 3.2c.2 1 .5 2.1 .8 3.1c.2 .5 .3 1 .5 1.5s.4 1 .6 1.5c1.6 3.8 4 7.3 6.9 10.2s6.3 5.2 10.2 6.9c1.9 .8 3.9 1.4 6 1.9c1 .2 2.1 .4 3.2 .5c.5 .1 1.1 .1 1.6 .1s1.1 0 1.6 0l128 0 0 288c0 35.3-28.7 64-64 64L64 512c-35.3 0-64-28.7-64-64L0 64zM64 80c0 8.8 7.2 16 16 16l64 0c8.8 0 16-7.2 16-16s-7.2-16-16-16L80 64c-8.8 0-16 7.2-16 16zm0 64c0 8.8 7.2 16 16 16l64 0c8.8 0 16-7.2 16-16s-7.2-16-16-16l-64 0c-8.8 0-16 7.2-16 16zm64.2 150.9c-.1 1.2-.1 2.3-.1 3.6c0 1.2 .1 2.3 .1 3.4s.2 2.2 .4 3.2c.3 2.1 .8 4.1 1.4 6c1.2 3.8 2.9 7.2 5 10.3c4.2 6.1 9.8 10.9 15.8 14.5c10.5 6.3 23.8 10.4 34.8 13.7c.5 .2 1.1 .3 1.6 .5c12.5 3.8 22.2 6.9 29 11.2c5.9 3.7 7.7 7 7.7 11.6c.1 6.6-2.7 10.8-7.8 14c-5.8 3.6-14.5 5.6-23.7 5.3c-11.8-.4-22.7-4.1-36.3-8.7c-2.3-.8-4.7-1.6-7.1-2.4c-8.4-2.8-17.4 1.7-20.2 10.1c-.3 .8-.5 1.7-.6 2.5c-.1 .4-.1 .8-.2 1.3c0 .2 0 .4-.1 1.3l.1 1.3c0 0 0 .6 .1 1.2c.1 .8 .3 1.6 .6 2.4c.5 1.6 1.2 3 2.2 4.4c1.9 2.7 4.6 4.8 8 5.9c2 .7 4.1 1.4 6.2 2.1c9.2 3.2 19.7 6.8 30.9 8.9c0 5.9 0 11.9 0 17.8c0 .6 0 1.1 .1 1.6s.1 1.1 .2 1.6c.2 1 .5 2 .9 3c.8 1.9 2 3.6 3.4 5.1c2.9 2.9 6.9 4.7 11.3 4.7c8.8 0 16-7.2 16-16l0-17.1c8.7-1.4 17.4-4.3 25.1-9.1c6.6-4.1 12.4-9.7 16.5-16.6c2-3.5 3.7-7.3 4.8-11.4c.5-2.1 1-4.2 1.2-6.5c.1-1.1 .2-2.3 .3-3.4c.1-1.1 .1-2.3 .1-3.5c-.2-18.6-10.6-30.7-22.7-38.3c-11-6.9-25-11.2-36.3-14.6l-.5-.1c-12.6-3.8-22.3-6.8-29.2-10.9c-3-1.8-4.8-3.4-5.9-5c-.5-.8-.9-1.6-1.1-2.4c-.1-.4-.2-.8-.2-1.3c0-.4-.1-.8-.1-1.2c0-.8 0-1.4 .1-2.1s.2-1.3 .4-1.8c.3-1.2 .8-2.3 1.5-3.3c1.3-2.1 3.4-3.9 6.2-5.6c6.2-3.7 15.1-5.7 23.6-5.5c10.1 .2 21 2.3 32.1 5.3c8.5 2.3 17.3-2.8 19.6-11.3s-2.8-17.3-11.3-19.6c-7.5-2-15.6-3.9-24.1-5.1c0-5.8 0-11.5 0-17.3c0-8.8-7.2-16-16-16c-4.4 0-8.4 1.8-11.3 4.7c-1.4 1.4-2.6 3.2-3.4 5.1c-.4 1-.7 2-.9 3c-.1 .5-.2 1.1-.2 1.6s-.1 1.1-.1 1.5c0 5.9 0 11.7 0 17.5c-8.3 1.5-16.7 4.3-24.1 8.7c-6.5 3.9-12.5 9.1-16.8 15.9c-2.2 3.4-3.9 7.1-5.1 11.2c-.6 2.1-1.1 4.2-1.4 6.4c-.2 1.1-.3 2.3-.4 3.4z"/><path class="fa-primary" d="M384 160L224 0l0 128c0 17.7 14.3 32 32 32l128 0zM208 232c0-8.8-7.2-16-16-16s-16 7.2-16 16l0 17.3c-8.3 1.5-16.7 4.3-24.1 8.7c-13 7.7-23.9 21.1-23.8 40.5c.1 18.4 10.8 30.1 22.7 37.3c10.5 6.3 23.8 10.4 34.8 13.7c0 0 0 0 0 0l1.6 .5c12.5 3.8 22.2 6.9 29 11.2c5.9 3.7 7.7 7 7.7 11.6c.1 6.6-2.7 10.8-7.8 14c-5.8 3.6-14.5 5.6-23.7 5.3c-11.8-.4-22.7-4.1-36.3-8.7c0 0 0 0 0 0s0 0 0 0s0 0 0 0c-2.3-.8-4.7-1.6-7.1-2.4c-8.4-2.8-17.4 1.7-20.2 10.1s1.7 17.4 10.1 20.2c2 .7 4.1 1.4 6.2 2.1c0 0 0 0 0 0c9.2 3.2 19.7 6.8 30.9 8.9l0 17.8c0 8.8 7.2 16 16 16s16-7.2 16-16l0-17.1c8.7-1.4 17.4-4.3 25.1-9.1c13.3-8.3 23.2-22.2 22.9-41.6c-.2-18.5-10.6-30.6-22.7-38.2c-11-6.9-25-11.2-36.3-14.6c0 0 0 0 0 0s0 0 0 0l-.5-.1c-12.6-3.8-22.3-6.8-29.2-10.9c-6-3.6-7.2-6.4-7.3-10.1c0-5.4 2.4-9.4 8.1-12.8c6.2-3.7 15.1-5.7 23.6-5.5c10.1 .2 21 2.3 32.1 5.3c8.5 2.3 17.3-2.8 19.6-11.3s-2.8-17.3-11.3-19.6c-7.5-2-15.6-3.9-24.1-5.1l0-17.3z"/></svg>