<svg xmlns="http://www.w3.org/2000/svg" viewBox="0 0 576 512"><!--! Font Awesome Pro 6.6.0 by @fontawesome - https://fontawesome.com License - https://fontawesome.com/license (Commercial License) Copyright 2024 Fonticons, Inc. --><defs><style>.fa-secondary{opacity:.4}</style></defs><path class="fa-secondary" d="M0 120L0 344c0 75.1 60.9 136 136 136l320 0c13.3 0 24-10.7 24-24s-10.7-24-24-24l-320 0c-48.6 0-88-39.4-88-88l0-224c0-13.3-10.7-24-24-24S0 106.7 0 120z"/><path class="fa-primary" d="M160 384H512c35.3 0 64-28.7 64-64V160c0-35.3-28.7-64-64-64H394.5c-17 0-33.3-6.7-45.3-18.7L322.7 50.7c-12-12-28.3-18.7-45.3-18.7H160c-35.3 0-64 28.7-64 64V320c0 35.3 28.7 64 64 64z"/></svg>