<svg xmlns="http://www.w3.org/2000/svg" viewBox="0 0 640 512"><!--! Font Awesome Pro 6.6.0 by @fontawesome - https://fontawesome.com License - https://fontawesome.com/license (Commercial License) Copyright 2024 Fonticons, Inc. --><defs><style>.fa-secondary{opacity:.4}</style></defs><path class="fa-secondary" d="M224 320c0-65.6 19.6-126.7 53.3-177.7c9.8-14.7 29.6-18.8 44.3-9s18.8 29.6 9 44.3C303.7 218.4 288 267.3 288 320s15.7 101.6 42.7 142.3c9.8 14.7 5.7 34.6-9 44.3c-5.4 3.6-11.6 5.3-17.6 5.3c-10.4 0-20.6-5-26.7-14.3C243.6 446.7 224 385.6 224 320zM533.3 177.7c-9.8-14.7-5.7-34.6 9-44.3s34.6-5.7 44.3 9C620.4 193.3 640 254.4 640 320s-19.6 126.7-53.3 177.7C580.5 507 570.3 512 560 512c-6.1 0-12.2-1.7-17.6-5.3c-14.7-9.8-18.8-29.6-9-44.3c27-40.7 42.7-89.6 42.7-142.3s-15.7-101.6-42.7-142.3z"/><path class="fa-primary" d="M160 0C107 0 64 43 64 96l0 96-32 0c-17.7 0-32 14.3-32 32s14.3 32 32 32l32 0 0 127.5c0 16.1-12 29.8-28 31.8l-7.9 1C10.5 418.4-1.9 434.4 .3 452s18.2 30 35.7 27.8l7.9-1c48-6 84.1-46.8 84.1-95.3L128 256l32 0c17.7 0 32-14.3 32-32s-14.3-32-32-32l-32 0 0-96c0-17.7 14.3-32 32-32l32 0c17.7 0 32-14.3 32-32s-14.3-32-32-32L160 0zM398.6 241.4c-12.5-12.5-32.8-12.5-45.3 0s-12.5 32.8 0 45.3L386.7 320l-33.4 33.4c-12.5 12.5-12.5 32.8 0 45.3s32.8 12.5 45.3 0L432 365.3l33.4 33.4c12.5 12.5 32.8 12.5 45.3 0s12.5-32.8 0-45.3L477.3 320l33.4-33.4c12.5-12.5 12.5-32.8 0-45.3s-32.8-12.5-45.3 0L432 274.7l-33.4-33.4z"/></svg>