<svg xmlns="http://www.w3.org/2000/svg" viewBox="0 0 512 512"><!--! Font Awesome Pro 6.6.0 by @fontawesome - https://fontawesome.com License - https://fontawesome.com/license (Commercial License) Copyright 2024 Fonticons, Inc. --><defs><style>.fa-secondary{opacity:.4}</style></defs><path class="fa-secondary" d="M0 432c0 8.2 3.1 16.4 9.4 22.6l48 48c6.2 6.2 14.4 9.4 22.6 9.4s16.4-3.1 22.6-9.4l112-112c12.5-12.5 12.5-32.8 0-45.3l-1.4-1.4 81.4-81.4c-15.1-15.1-30.2-30.2-45.3-45.3L168 298.7l-1.4-1.4c-12.5-12.5-32.8-12.5-45.3 0l-112 112C3.1 415.6 0 423.8 0 432z"/><path class="fa-primary" d="M273.4 9.4c12.5-12.5 32.8-12.5 45.3 0l16 16c12.5 12.5 12.5 32.8 0 45.3l-4 4L437.4 181.4l4-4c12.5-12.5 32.8-12.5 45.3 0l16 16c12.5 12.5 12.5 32.8 0 45.3l-120 120c-12.5 12.5-32.8 12.5-45.3 0l-16-16c-12.5-12.5-12.5-32.8 0-45.3l4-4L218.6 186.6l-4 4c-12.5 12.5-32.8 12.5-45.3 0l-16-16c-12.5-12.5-12.5-32.8 0-45.3l120-120z"/></svg>