<svg xmlns="http://www.w3.org/2000/svg" viewBox="0 0 512 512"><!--! Font Awesome Pro 6.6.0 by @fontawesome - https://fontawesome.com License - https://fontawesome.com/license (Commercial License) Copyright 2024 Fonticons, Inc. --><defs><style>.fa-secondary{opacity:.4}</style></defs><path class="fa-secondary" d="M14.7 174.1c0 6.4 2.8 12.6 7.7 17.1l30.9 28.1c7.7 7.1 11.4 17.5 10.9 27.9c-.1 2.9-.2 5.8-.2 8.8s.1 5.9 .2 8.8c.5 10.5-3.1 20.9-10.9 27.9L22.4 320.8c-6.9 6.2-9.6 15.9-6.4 24.6c4.4 11.9 9.7 23.3 15.8 34.3l4.7 8.1c6.6 11 14 21.4 22.1 31.2c5.9 7.2 15.7 9.6 24.5 6.8l39.7-12.6c10-3.2 20.8-1.1 29.7 4.6c4.9 3.1 9.9 6.1 15.1 8.7c9.3 4.8 16.5 13.2 18.8 23.4l8.9 40.7c2 9.1 9 16.3 18.2 17.8c13.8 2.3 28 3.5 42.5 3.5s28.7-1.2 42.5-3.5c9.2-1.5 16.2-8.7 18.2-17.8l8.9-40.7c2.2-10.2 9.4-18.6 18.8-23.4c5.2-2.7 10.2-5.6 15.1-8.7c8.8-5.7 19.7-7.7 29.7-4.6l39.7 12.6c8.8 2.8 18.6 .3 24.5-6.8c8.1-9.8 15.5-20.2 22.1-31.2l4.7-8.1c6.1-11 11.4-22.4 15.8-34.3c3.2-8.7 .5-18.4-6.4-24.6l-30.9-28.1c-7.7-7.1-11.4-17.5-10.9-27.9c.1-2.9 .2-5.8 .2-8.8s-.1-5.9-.2-8.8c-.5-10.5 3.1-20.9 10.9-27.9l30.9-28.1c6.9-6.2 9.6-15.9 6.4-24.6c-4.4-11.9-9.7-23.3-15.8-34.3l-4.7-8.1c-6.6-11-14-21.4-22.1-31.2c-5.9-7.2-15.7-9.6-24.5-6.8L389.1 98.8c-10 3.2-20.8 1.1-29.7-4.6c-4.9-3.1-9.9-6.1-15.1-8.7c-9.3-4.8-16.5-13.2-18.8-23.4l-8.9-40.7c-2-9.1-9-16.3-18.2-17.8C284.7 1.2 270.5 0 256 0s-28.7 1.2-42.5 3.5c-9.2 1.5-16.2 8.7-18.2 17.8l-8.9 40.7c-2.2 10.2-9.5 18.6-18.8 23.4c-5.2 2.7-10.2 5.6-15.1 8.7c-8.8 5.7-19.7 7.7-29.7 4.6L83.1 86.1c-8.8-2.8-18.6-.3-24.5 6.8c-8.1 9.8-15.5 20.2-22.1 31.2l-4.7 8.1c-6.1 11-11.4 22.4-15.8 34.3c-.9 2.5-1.4 5-1.4 7.5zm110 70.6c13.3-13.3 26.7-26.7 40-40c6.2-6.2 16.4-6.2 22.6 0s6.2 16.4 0 22.6c-9.6 9.6-19.1 19.1-28.7 28.7c9.6 9.6 19.1 19.1 28.7 28.7c6.2 6.2 6.2 16.4 0 22.6s-16.4 6.2-22.6 0c-13.3-13.3-26.7-26.7-40-40c-6.2-6.2-6.2-16.4 0-22.6zm99.5 104.7c10.7-64 21.3-128 32-192c1.3-7.8 8.1-13.4 15.8-13.4c.9 0 1.8 .1 2.7 .2c8.7 1.5 14.6 9.7 13.2 18.4c-10.7 64-21.3 128-32 192c-1.5 8.7-9.7 14.6-18.4 13.2s-14.6-9.7-13.2-18.4zM324.7 204.7c6.2-6.2 16.4-6.2 22.6 0c13.3 13.3 26.7 26.7 40 40c1.6 1.6 2.7 3.4 3.5 5.3c.4 1 .7 2 .9 3c.1 .7 .2 1.5 .2 1.5c.1 .8 .1 .8 .1 1.7c0 1-.1 1.3-.1 1.5c0 .5-.1 1-.2 1.5c-.2 1-.5 2-.9 3c-.8 1.9-2 3.7-3.5 5.3c-13.3 13.3-26.7 26.7-40 40c-6.2 6.2-16.4 6.2-22.6 0s-6.2-16.4 0-22.6c9.6-9.6 19.1-19.1 28.7-28.7c-9.6-9.6-19.1-19.1-28.7-28.7c-6.2-6.2-6.2-16.4 0-22.6z"/><path class="fa-primary" d="M274.6 144.2c8.7 1.5 14.6 9.7 13.2 18.4l-32 192c-1.5 8.7-9.7 14.6-18.4 13.2s-14.6-9.7-13.2-18.4l32-192c1.5-8.7 9.7-14.6 18.4-13.2zm-87.3 60.5c6.2 6.2 6.2 16.4 0 22.6L158.6 256l28.7 28.7c6.2 6.2 6.2 16.4 0 22.6s-16.4 6.2-22.6 0l-40-40c-6.2-6.2-6.2-16.4 0-22.6l40-40c6.2-6.2 16.4-6.2 22.6 0zm137.4 0c6.2-6.2 16.4-6.2 22.6 0l40 40c6.2 6.2 6.2 16.4 0 22.6l-40 40c-6.2 6.2-16.4 6.2-22.6 0s-6.2-16.4 0-22.6L353.4 256l-28.7-28.7c-6.2-6.2-6.2-16.4 0-22.6z"/></svg>