<svg xmlns="http://www.w3.org/2000/svg" viewBox="0 0 384 512"><!--! Font Awesome Pro 6.6.0 by @fontawesome - https://fontawesome.com License - https://fontawesome.com/license (Commercial License) Copyright 2024 Fonticons, Inc. --><defs><style>.fa-secondary{opacity:.4}</style></defs><path class="fa-secondary" d="M0 32c0 .8 0 1.5 .1 2.3L28.9 437.7c3 41.9 37.8 74.3 79.8 74.3l166.6 0c42 0 76.8-32.4 79.8-74.3L383.9 34.3c.1-.8 .1-1.5 .1-2.3c0-8.1-3-15.9-8.6-21.8C369.4 3.7 360.9 0 352 0L32 0C23.1 0 14.6 3.7 8.6 10.2C3 16.1 0 23.9 0 32zM66.4 64l251.3 0c-3.8 53.3-7.6 106.7-11.4 160L291.3 433.1c-.6 8.4-7.6 14.9-16 14.9l-166.6 0c-8.4 0-15.4-6.5-16-14.9L77.8 224C74 170.7 70.2 117.3 66.4 64z"/><path class="fa-primary" d="M306.2 224L77.8 224 92.7 433.1c.6 8.4 7.6 14.9 16 14.9l166.6 0c8.4 0 15.4-6.5 16-14.9L306.2 224z"/></svg>