<svg xmlns="http://www.w3.org/2000/svg" viewBox="0 0 640 512"><!--! Font Awesome Pro 6.6.0 by @fontawesome - https://fontawesome.com License - https://fontawesome.com/license (Commercial License) Copyright 2024 Fonticons, Inc. --><defs><style>.fa-secondary{opacity:.4}</style></defs><path class="fa-secondary" d="M305.1 392.4c4.7 17.1 22.2 27.1 39.3 22.5l100.7-27.5-81.6 68c-13.6 11.3-15.4 31.5-4.1 45.1s31.5 15.4 45.1 4.1l101.9-84.9-23 46c-7.9 15.8-1.5 35 14.3 42.9s35 1.5 42.9-14.3l85.9-171.7c8.9-17.8 13.5-37.4 13.5-57.2l0-9.3c0-70.7-57.3-128-128-128l-72 0-8 0c-35.2 3-65.4 23.1-82.1 52c-8.9 15.3-3.6 34.9 11.7 43.7s34.9 3.6 43.7-11.7c7-12 19.9-20 34.7-20c22.1 0 40 17.9 40 40s-17.9 40-40 40c-14.8 0-27.7-8-34.7-20c-8.9-15.3-28.4-20.5-43.7-11.7s-20.5 28.4-11.7 43.7c12.8 22.1 33.6 39.1 58.4 47.1l-80.8 22c-17.1 4.6-27.1 22.2-22.5 39.3z"/><path class="fa-primary" d="M142.3 3.4c15.8 7.9 22.2 27.1 14.3 42.9l-23 46L235.5 7.4c13.6-11.3 33.8-9.5 45.1 4.1s9.5 33.8-4.1 45.1l-81.6 68L295.6 97.1c17.1-4.7 34.6 5.4 39.3 22.5s-5.4 34.6-22.5 39.3l-80.8 22c24.9 7.9 45.6 24.9 58.4 47.1c8.8 15.3 3.6 34.9-11.7 43.7s-34.9 3.6-43.7-11.7c-7-12-19.9-20-34.7-20c-22.1 0-40 17.9-40 40s17.9 40 40 40c14.8 0 27.7-8 34.7-20c8.8-15.3 28.4-20.5 43.7-11.7s20.5 28.4 11.7 43.7c-16.7 28.8-46.9 49-82.1 51.7l0 .3-8 0-72 0C57.3 384 0 326.7 0 256l0-9.3c0-19.9 4.6-39.5 13.5-57.2L99.4 17.7c7.9-15.8 27.1-22.2 42.9-14.3z"/></svg>