<svg xmlns="http://www.w3.org/2000/svg" viewBox="0 0 640 512"><!--! Font Awesome Pro 6.6.0 by @fontawesome - https://fontawesome.com License - https://fontawesome.com/license (Commercial License) Copyright 2024 Fonticons, Inc. --><defs><style>.fa-secondary{opacity:.4}</style></defs><path class="fa-secondary" d="M8 104c0 13.3 10.7 24 24 24s24-10.7 24-24c0-19.4-13.1-43.9-18.2-52.7C36.6 49.2 34.4 48 32 48s-4.6 1.2-5.8 3.3C21.1 60.1 8 84.6 8 104zm80 0c0 13.3 10.7 24 24 24s24-10.7 24-24c0-19.4-13.1-43.9-18.2-52.7c-1.2-2.1-3.4-3.3-5.8-3.3s-4.6 1.2-5.8 3.3C101.1 60.1 88 84.6 88 104zm64 0c0 13.3 10.7 24 24 24s24-10.7 24-24c0-19.4-13.1-43.9-18.2-52.7c-1.2-2.1-3.4-3.3-5.8-3.3s-4.6 1.2-5.8 3.3C165.1 60.1 152 84.6 152 104zm64 0c0 13.3 10.7 24 24 24s24-10.7 24-24c0-19.4-13.1-43.9-18.2-52.7c-1.2-2.1-3.4-3.3-5.8-3.3s-4.6 1.2-5.8 3.3C229.1 60.1 216 84.6 216 104zm80-48c0 13.3 10.7 24 24 24s24-10.7 24-24c0-19.4-13.1-43.9-18.2-52.7C324.6 1.2 322.4 0 320 0s-4.6 1.2-5.8 3.3C309.1 12.1 296 36.6 296 56zm80 48c0 13.3 10.7 24 24 24s24-10.7 24-24c0-19.4-13.1-43.9-18.2-52.7c-1.2-2.1-3.4-3.3-5.8-3.3s-4.6 1.2-5.8 3.3C389.1 60.1 376 84.6 376 104zm64 0c0 13.3 10.7 24 24 24s24-10.7 24-24c0-19.4-13.1-43.9-18.2-52.7c-1.2-2.1-3.4-3.3-5.8-3.3s-4.6 1.2-5.8 3.3C453.1 60.1 440 84.6 440 104zm64 0c0 13.3 10.7 24 24 24s24-10.7 24-24c0-19.4-13.1-43.9-18.2-52.7c-1.2-2.1-3.4-3.3-5.8-3.3s-4.6 1.2-5.8 3.3C517.1 60.1 504 84.6 504 104zm80 0c0 13.3 10.7 24 24 24s24-10.7 24-24c0-19.4-13.1-43.9-18.2-52.7c-1.2-2.1-3.4-3.3-5.8-3.3s-4.6 1.2-5.8 3.3C597.1 60.1 584 84.6 584 104z"/><path class="fa-primary" d="M352 144c0-17.7-14.3-32-32-32s-32 14.3-32 32l0 176L96 320c-17.7 0-32-14.3-32-32l0-96c0-17.7-14.3-32-32-32s-32 14.3-32 32l0 96c0 53 43 96 96 96l192 0 0 64-128 0c-17.7 0-32 14.3-32 32s14.3 32 32 32l160 0 160 0c17.7 0 32-14.3 32-32s-14.3-32-32-32l-128 0 0-64 192 0c53 0 96-43 96-96l0-96c0-17.7-14.3-32-32-32s-32 14.3-32 32l0 96c0 17.7-14.3 32-32 32l-192 0 0-176zM128 176c0-8.8-7.2-16-16-16s-16 7.2-16 16l0 96 0 16 32 0 0-16 0-96zm64 0c0-8.8-7.2-16-16-16s-16 7.2-16 16l0 96 0 16 32 0 0-16 0-96zm64 0c0-8.8-7.2-16-16-16s-16 7.2-16 16l0 96 0 16 32 0 0-16 0-96zm160 0c0-8.8-7.2-16-16-16s-16 7.2-16 16l0 96 0 16 32 0 0-16 0-96zm64 0c0-8.8-7.2-16-16-16s-16 7.2-16 16l0 96 0 16 32 0 0-16 0-96zm64 0c0-8.8-7.2-16-16-16s-16 7.2-16 16l0 96 0 16 32 0 0-16 0-96z"/></svg>