<svg xmlns="http://www.w3.org/2000/svg" viewBox="0 0 512 512"><!--! Font Awesome Pro 6.6.0 by @fontawesome - https://fontawesome.com License - https://fontawesome.com/license (Commercial License) Copyright 2024 Fonticons, Inc. --><defs><style>.fa-secondary{opacity:.4}</style></defs><path class="fa-secondary" d="M7.4 256c0 12.4 3.2 24.9 9.6 36l88.3 152.9c12.9 22.3 36.6 36 62.4 36l176.6 0c25.7 0 49.5-13.7 62.4-36L494.9 292c6.4-11.1 9.6-23.6 9.6-36s-3.2-24.9-9.6-36L406.6 67.1c-12.9-22.3-36.6-36-62.4-36l-176.6 0c-25.7 0-49.5 13.7-62.4 36L17.1 220c-6.4 11.1-9.6 23.6-9.6 36zM160 256c0-13.3 10.7-24 24-24l144 0c13.3 0 24 10.7 24 24s-10.7 24-24 24l-144 0c-13.3 0-24-10.7-24-24z"/><path class="fa-primary" d="M160 256c0-13.3 10.7-24 24-24l144 0c13.3 0 24 10.7 24 24s-10.7 24-24 24l-144 0c-13.3 0-24-10.7-24-24z"/></svg>