<svg xmlns="http://www.w3.org/2000/svg" viewBox="0 0 576 512"><!--! Font Awesome Pro 6.6.0 by @fontawesome - https://fontawesome.com License - https://fontawesome.com/license (Commercial License) Copyright 2024 Fonticons, Inc. --><defs><style>.fa-secondary{opacity:.4}</style></defs><path class="fa-secondary" d="M64 270.5l224-196c74.7 65.4 149.4 130.7 224.1 196.1l.4 177.3c.1 35.4-28.6 64.1-64 64.1l-320.4 0c-35.3 0-64-28.6-64-64L64 270.5zM176.4 423.8c-.1 1.3-.2 2.7-.3 4.1c-.1 1.4-.1 2.7-.1 4.1c0 .6 0 1.1 .1 1.6s.1 1.1 .2 1.6c.2 1 .5 2 .9 3c.8 1.9 2 3.6 3.4 5.1c2.9 2.9 6.9 4.7 11.3 4.7l192 0c8.8 0 16-7.2 16-16c0-44.2-35.8-80-80-80l-64 0c-22.1 0-42.1 9-56.6 23.4c-7.2 7.2-13.1 15.9-17.1 25.4c-2 4.8-3.6 9.8-4.7 15c-.5 2.6-.9 5.3-1.2 7.9zm47.9-174.4c-.1 1.1-.2 2.2-.2 3.2c-.1 1.1-.1 2.2-.1 3.3s0 2.2 .1 3.3c.1 1.1 .1 2.2 .2 3.2c.2 2.1 .5 4.3 1 6.4c.9 4.2 2.1 8.2 3.7 12c3.2 7.7 7.9 14.6 13.7 20.3C254.3 312.8 270.3 320 288 320c35.3 0 64-28.7 64-64s-28.7-64-64-64c-17.7 0-33.7 7.2-45.3 18.7c-5.8 5.8-10.5 12.7-13.7 20.3c-1.6 3.8-2.9 7.8-3.7 12c-.4 2.1-.8 4.2-1 6.4z"/><path class="fa-primary" d="M266.9 7.9C279-2.6 297-2.6 309.1 7.9l256 224c13.3 11.6 14.6 31.9 3 45.2s-31.9 14.6-45.2 3L288 74.5 53.1 280.1c-13.3 11.6-33.5 10.3-45.2-3s-10.3-33.5 3-45.2l256-224zM224 256a64 64 0 1 1 128 0 64 64 0 1 1 -128 0zm32 96l64 0c44.2 0 80 35.8 80 80c0 8.8-7.2 16-16 16l-192 0c-8.8 0-16-7.2-16-16c0-44.2 35.8-80 80-80z"/></svg>