<svg xmlns="http://www.w3.org/2000/svg" viewBox="0 0 640 512"><!--! Font Awesome Pro 6.6.0 by @fontawesome - https://fontawesome.com License - https://fontawesome.com/license (Commercial License) Copyright 2024 Fonticons, Inc. --><defs><style>.fa-secondary{opacity:.4}</style></defs><path class="fa-secondary" d="M282.9 119.9l107.2 98.3c16.5 15.2 25.9 36.5 25.9 59L416 464c0 18-6 34.6-16 48l208 0c12.3 0 23.5-7 28.8-18.1s3.8-24.2-3.9-33.9L546.6 352l29.4 0c12.3 0 23.5-7 28.8-18.1s3.8-24.2-3.9-33.9L514.6 192l29.4 0c12.9 0 24.6-7.8 29.6-19.8s2.2-25.7-6.9-34.9l-128-128C432.4 3.1 424.2 0 416 0s-16.4 3.1-22.6 9.4L282.9 119.9z"/><path class="fa-primary" d="M0 464L0 277.1c0-13.5 5.6-26.3 15.6-35.4l144-132c18.4-16.8 46.5-16.8 64.9 0l144 132c9.9 9.1 15.6 21.9 15.6 35.4L384 464c0 26.5-21.5 48-48 48L48 512c-26.5 0-48-21.5-48-48zM168 272c-13.3 0-24 10.7-24 24l0 48c0 13.3 10.7 24 24 24l48 0c13.3 0 24-10.7 24-24l0-48c0-13.3-10.7-24-24-24l-48 0z"/></svg>