<svg xmlns="http://www.w3.org/2000/svg" viewBox="0 0 576 512"><!--! Font Awesome Pro 6.6.0 by @fontawesome - https://fontawesome.com License - https://fontawesome.com/license (Commercial License) Copyright 2024 Fonticons, Inc. --><defs><style>.fa-secondary{opacity:.4}</style></defs><path class="fa-secondary" d="M64 270.5c74.7-65.3 149.3-130.7 224-196L512.1 270.6l.4 201.3c0 22.1-17.9 40.1-40 40.1L392 512c-22.1 0-40-17.9-40-40l0-88.3c0-17.7-14.3-32-32-32l-64 0c-17.7 0-32 14.3-32 32l0 88.3c0 22.1-17.9 40-40 40l-79.9 0c-22.1 0-40-17.9-40-40L64 270.5z"/><path class="fa-primary" d="M309.1 7.9C297-2.6 279-2.6 266.9 7.9l-256 224c-13.3 11.6-14.6 31.9-3 45.2s31.9 14.6 45.2 3L288 74.5 522.9 280.1c13.3 11.6 33.5 10.3 45.2-3s10.3-33.5-3-45.2L512 185.5 512 64c0-17.7-14.3-32-32-32l-32 0c-17.7 0-32 14.3-32 32l0 37.5L309.1 7.9z"/></svg>