<svg xmlns="http://www.w3.org/2000/svg" viewBox="0 0 576 512"><!--! Font Awesome Pro 6.6.0 by @fontawesome - https://fontawesome.com License - https://fontawesome.com/license (Commercial License) Copyright 2024 Fonticons, Inc. --><defs><style>.fa-secondary{opacity:.4}</style></defs><path class="fa-secondary" d="M0 488c0 13.3 10.7 24 24 24l96 0 288 0 96 0c39.8 0 72-32.2 72-72l0-8c0-13.3-10.7-24-24-24s-24 10.7-24 24l0 8c0 13.3-10.7 24-24 24l-72 0 0-80-48 0 0 80-240 0 0-80-48 0 0 80-72 0c-13.3 0-24 10.7-24 24z"/><path class="fa-primary" d="M32 336c0 26.5 21.5 48 48 48l384 0c26.5 0 48-21.5 48-48l0-21c0-44.1-30-82.4-72.7-93.1L320 192l-48 0c-8.8 0-16-7.2-16-16s7.2-16 16-16l48 0 0-32-48 0c-8.8 0-16-7.2-16-16s7.2-16 16-16l48 0 0-64c0-17.7-14.3-32-32-32s-32 14.3-32 32L66.8 86.1C46.2 91.9 32 110.8 32 132.2L32 336z"/></svg>