<svg xmlns="http://www.w3.org/2000/svg" viewBox="0 0 640 512"><!--! Font Awesome Pro 6.6.0 by @fontawesome - https://fontawesome.com License - https://fontawesome.com/license (Commercial License) Copyright 2024 Fonticons, Inc. --><defs><style>.fa-secondary{opacity:.4}</style></defs><path class="fa-secondary" d="M0 128L0 384c0 35.3 28.7 64 64 64l512 0c35.3 0 64-28.7 64-64l0-256c0-35.3-28.7-64-64-64L64 64C28.7 64 0 92.7 0 128zm64 0l512 0 0 256L64 384l0-256z"/><path class="fa-primary" d="M104 184c0-13.3 10.7-24 24-24s24 10.7 24 24V328c0 13.3-10.7 24-24 24s-24-10.7-24-24V184z"/></svg>