<svg xmlns="http://www.w3.org/2000/svg" viewBox="0 0 320 512"><!--! Font Awesome Pro 6.6.0 by @fontawesome - https://fontawesome.com License - https://fontawesome.com/license (Commercial License) Copyright 2024 Fonticons, Inc. --><defs><style>.fa-secondary{opacity:.4}</style></defs><path class="fa-secondary" d="M216 64c-13.3 0-24 10.7-24 24l0 336c0 48.6-39.4 88-88 88s-88-39.4-88-88l0-8c0-17.7 14.3-32 32-32s32 14.3 32 32l0 8c0 13.3 10.7 24 24 24s24-10.7 24-24l0-336c0-48.6 39.4-88 88-88s88 39.4 88 88l0 8c0 17.7-14.3 32-32 32s-32-14.3-32-32l0-8c0-13.3-10.7-24-24-24z"/><path class="fa-primary" d=""/></svg>