<svg xmlns="http://www.w3.org/2000/svg" viewBox="0 0 512 512"><!--! Font Awesome Pro 6.6.0 by @fontawesome - https://fontawesome.com License - https://fontawesome.com/license (Commercial License) Copyright 2024 Fonticons, Inc. --><defs><style>.fa-secondary{opacity:.4}</style></defs><path class="fa-secondary" d="M0 440l0 16c0 13.3 10.7 24 24 24s24-10.7 24-24l0-16c0-48.6 20.7-92.5 53.8-123.2C121.6 392.3 190.3 448 272 448l1 0c132.1-.7 239-130.9 239-291.4c0-42.6-7.5-83.1-21.1-119.6c-2.6-6.9-12.7-6.6-16.2-.1C455.9 72.1 418.7 96 376 96c-34.7 0-69.3 0-104 0c-93.2 0-169.5 72.5-175.6 164.1C38.3 298.8 0 364.9 0 440zM190 237.3c.2-1.8 .5-3.6 .8-5.3c.7-3.5 1.8-6.8 3.1-10c2.7-6.4 6.6-12.2 11.5-17c9.7-9.7 23.1-15.7 37.8-15.7c.5 0 1 0 1.5 0c14.3 0 28.1 5.6 38.4 15.6c1.6 1.6 3.3 3.2 4.9 4.8c1.6-1.6 3.3-3.2 4.9-4.8c10.3-10 24-15.6 38.4-15.6c.5 0 1 0 1.5 0c29.5 0 53.5 23.9 53.5 53.5c0 14.4-5.8 28.3-16.2 38.4c-23.6 23-47.3 46-70.9 69c-3.1 3-7.1 4.5-11.2 4.5s-8-1.5-11.2-4.5c-23.6-23-47.3-46-70.9-69c-5.2-5-9.2-11-12-17.5c-1.4-3.3-2.4-6.7-3.1-10.1c-.4-1.7-.6-3.5-.8-5.3c-.1-.9-.2-1.8-.2-2.7s-.1-1.8-.1-2.7c0-1.9 0-2.3 .1-2.8c0-.9 .1-1.8 .2-2.7z"/><path class="fa-primary" d="M243.2 189.3c-29.5 0-53.5 23.9-53.5 53.5c0 14.4 5.8 28.3 16.2 38.4l70.9 69c6.2 6 16.1 6 22.3 0l70.9-69c10.4-10.1 16.2-23.9 16.2-38.4c0-29.5-23.9-53.5-53.5-53.5l-1.5 0c-14.3 0-28.1 5.6-38.4 15.6l-4.9 4.8-4.9-4.8c-10.3-10-24-15.6-38.4-15.6l-1.5 0z"/></svg>