<svg xmlns="http://www.w3.org/2000/svg" viewBox="0 0 576 512"><!--! Font Awesome Pro 6.6.0 by @fontawesome - https://fontawesome.com License - https://fontawesome.com/license (Commercial License) Copyright 2024 Fonticons, Inc. --><defs><style>.fa-secondary{opacity:.4}</style></defs><path class="fa-secondary" d="M0 170.7c0 12.5 2.8 25.1 8.5 36.6c5.7 11.7 11 24.1 11 37.1l0 35.7c0 14.7 5.8 28.8 16.3 39.2l26.3 26.3c10.4 10.4 16.3 24.5 16.3 39.2l0 12.9c0 14.5 5.7 28.5 15.8 38.8c5-5 10.1-10.1 15.1-15.1c12-12 18.7-28.3 18.7-45.3l0-45.7c0-17 6.7-33.3 18.7-45.3l10.5-10.5c12-12 18.7-28.3 18.7-45.3l0-43c0-17 6.7-33.3 18.7-45.3l29.1-29.1c10.7-10.7 16.4-25 21.3-39.3c.3-.8 .6-1.7 .9-2.5s.6-1.6 1-2.5c.7-1.6 1.4-3.2 2.1-4.8c1.5-3.2 3.1-6.2 5-9.2c-1.3-2-2.6-4.1-3.9-6.2c-4.1-6.9-9.1-13.4-15-19.3C216.3 9.5 191.4 0 166.6 0s-49.7 9.5-68.7 28.4C92 34.4 87 40.8 83 47.7C70 69.6 50.6 89.9 30.9 105.9c-2.3 1.8-4.4 3.8-6.5 5.9C8.1 128.1 0 149.4 0 170.7zm228.7 154c-6.2 6.2-6.2 16.4 0 22.6s16.4 6.2 22.6 0l48-48L358.6 240l89.4 0c8.8 0 16-7.2 16-16s-7.2-16-16-16l-57.4 0 84.7-84.7c6.2-6.2 6.2-16.4 0-22.6s-16.4-6.2-22.6 0l-112 112L304 249.4l0-57.4c0-8.8-7.2-16-16-16s-16 7.2-16 16l0 89.4-43.3 43.3z"/><path class="fa-primary" d="M572.5 140c-7.3 28.4-8.1 60.8-5 89.9c.3 3.3 .5 6.7 .5 10.1c0 42.1-27.1 77.9-64.9 90.8c-14.3 4.9-28.6 10.6-39.3 21.3l-29.1 29.1c-12 12-28.3 18.7-45.3 18.7l-43 0c-17 0-33.3 6.7-45.3 18.7l-10.5 10.5c-12 12-28.3 18.7-45.3 18.7l-45.7 0c-17 0-33.3 6.7-45.3 18.7l-35.9 35.9c-12.5 12.5-32.8 12.5-45.3 0s-12.5-32.8 0-45.3l35.9-35.9c12-12 18.7-28.3 18.7-45.3l0-45.7c0-17 6.7-33.3 18.7-45.3l10.5-10.5c12-12 18.7-28.3 18.7-45.3l0-43c0-17 6.7-33.3 18.7-45.3l29.1-29.1c10.7-10.7 16.4-25 21.3-39.3C258.1 35.1 293.9 8 336 8c3.4 0 6.8 .2 10.1 .5c29.1 3.1 61.5 2.3 89.9-5C445 1.2 454.3 0 464 0c61.9 0 112 50.1 112 112c0 9.7-1.2 19-3.5 28zm-97.2-16.6c6.2-6.2 6.2-16.4 0-22.6s-16.4-6.2-22.6 0l-112 112L304 249.4l0-57.4c0-8.8-7.2-16-16-16s-16 7.2-16 16l0 89.4-43.3 43.3c-6.2 6.2-6.2 16.4 0 22.6s16.4 6.2 22.6 0l48-48L358.6 240l89.4 0c8.8 0 16-7.2 16-16s-7.2-16-16-16l-57.4 0 84.7-84.7z"/></svg>