<svg xmlns="http://www.w3.org/2000/svg" viewBox="0 0 448 512"><!--! Font Awesome Pro 6.6.0 by @fontawesome - https://fontawesome.com License - https://fontawesome.com/license (Commercial License) Copyright 2024 Fonticons, Inc. --><defs><style>.fa-secondary{opacity:.4}</style></defs><path class="fa-secondary" d="M0 96L0 416c0 17.7 14.3 32 32 32s32-14.3 32-32L64 96c0-17.7-14.3-32-32-32S0 78.3 0 96z"/><path class="fa-primary" d="M107.3 283.3L230.1 406.1c6.4 6.4 15 9.9 24 9.9c18.7 0 33.9-15.2 33.9-33.9l0-62.1 128 0c17.7 0 32-14.3 32-32l0-64c0-17.7-14.3-32-32-32l-128 0 0-62.1c0-18.7-15.2-33.9-33.9-33.9c-9 0-17.6 3.6-24 9.9L107.3 228.7C100.1 235.9 96 245.8 96 256s4.1 20.1 11.3 27.3z"/></svg>