<svg xmlns="http://www.w3.org/2000/svg" viewBox="0 0 384 512"><!--! Font Awesome Pro 6.6.0 by @fontawesome - https://fontawesome.com License - https://fontawesome.com/license (Commercial License) Copyright 2024 Fonticons, Inc. --><defs><style>.fa-secondary{opacity:.4}</style></defs><path class="fa-secondary" d="M96 256l0 96c0 35.3 28.7 64 64 64l64 0c35.3 0 64-28.7 64-64l0-96L96 256z"/><path class="fa-primary" d="M0 448c0 35.3 28.7 64 64 64l256 0c35.3 0 64-28.7 64-64l0-384c0-35.3-28.7-64-64-64L64 0C28.7 0 0 28.7 0 64L0 448zm96-96l0-192c0-35.3 28.7-64 64-64l64 0c35.3 0 64 28.7 64 64l0 192c0 35.3-28.7 64-64 64l-64 0c-35.3 0-64-28.7-64-64zm80 112a16 16 0 1 1 32 0 16 16 0 1 1 -32 0zm0-416a16 16 0 1 1 32 0 16 16 0 1 1 -32 0z"/></svg>