<svg xmlns="http://www.w3.org/2000/svg" viewBox="0 0 640 512"><!--! Font Awesome Pro 6.6.0 by @fontawesome - https://fontawesome.com License - https://fontawesome.com/license (Commercial License) Copyright 2024 Fonticons, Inc. --><defs><style>.fa-secondary{opacity:.4}</style></defs><path class="fa-secondary" d="M144 176c0 37.3 11.6 71.9 31.4 100.3c5 7.2 10.2 14.3 15.4 21.4c19.8 27.1 39.7 54.4 49.2 86.2l160 0c9.6-31.9 29.5-59.1 49.2-86.2c5.2-7.1 10.4-14.2 15.4-21.4c19.8-28.5 31.4-63 31.4-100.3C496 78.8 417.2 0 320 0S144 78.8 144 176zm64 0c0-61.9 50.1-112 112-112c8.8 0 16 7.2 16 16s-7.2 16-16 16c-44.2 0-80 35.8-80 80c0 8.8-7.2 16-16 16s-16-7.2-16-16z"/><path class="fa-primary" d="M69.3 4l48 32c11 7.4 14 22.3 6.7 33.3s-22.3 14-33.3 6.7l-48-32c-11-7.4-14-22.3-6.7-33.3S58.3-3.3 69.3 4zM597.3 44l-48 32c-11 7.4-25.9 4.4-33.3-6.7s-4.4-25.9 6.7-33.3l48-32c11-7.4 25.9-4.4 33.3 6.7s4.4 25.9-6.7 33.3zM24 160l64 0c13.3 0 24 10.7 24 24s-10.7 24-24 24l-64 0c-13.3 0-24-10.7-24-24s10.7-24 24-24zm528 0l64 0c13.3 0 24 10.7 24 24s-10.7 24-24 24l-64 0c-13.3 0-24-10.7-24-24s10.7-24 24-24zM117.3 332l-48 32c-11 7.4-25.9 4.4-33.3-6.7s-4.4-25.9 6.7-33.3l48-32c11-7.4 25.9-4.4 33.3 6.7s4.4 25.9-6.7 33.3zm432-39.9l48 32c11 7.4 14 22.3 6.7 33.3s-22.3 14-33.3 6.7l-48-32c-11-7.4-14-22.3-6.7-33.3s22.3-14 33.3-6.7zM400 432c0 44.2-35.8 80-80 80s-80-35.8-80-80l0-48 160 0 0 48z"/></svg>