<svg xmlns="http://www.w3.org/2000/svg" viewBox="0 0 512 512"><!--! Font Awesome Pro 6.6.0 by @fontawesome - https://fontawesome.com License - https://fontawesome.com/license (Commercial License) Copyright 2024 Fonticons, Inc. --><defs><style>.fa-secondary{opacity:.4}</style></defs><path class="fa-secondary" d="M288 64c0 17.7 14.3 32 32 32l160 0c17.7 0 32-14.3 32-32s-14.3-32-32-32L320 32c-17.7 0-32 14.3-32 32zm0 128c0 17.7 14.3 32 32 32l160 0c17.7 0 32-14.3 32-32s-14.3-32-32-32l-160 0c-17.7 0-32 14.3-32 32zm0 128c0 17.7 14.3 32 32 32l160 0c17.7 0 32-14.3 32-32s-14.3-32-32-32l-160 0c-17.7 0-32 14.3-32 32zm0 128c0 17.7 14.3 32 32 32l160 0c17.7 0 32-14.3 32-32s-14.3-32-32-32l-160 0c-17.7 0-32 14.3-32 32z"/><path class="fa-primary" d="M224 64c0-17.7-14.3-32-32-32L32 32C14.3 32 0 46.3 0 64S14.3 96 32 96l160 0c17.7 0 32-14.3 32-32zm0 128c0-17.7-14.3-32-32-32L32 160c-17.7 0-32 14.3-32 32s14.3 32 32 32l160 0c17.7 0 32-14.3 32-32zM0 320c0 17.7 14.3 32 32 32l160 0c17.7 0 32-14.3 32-32s-14.3-32-32-32L32 288c-17.7 0-32 14.3-32 32zM224 448c0-17.7-14.3-32-32-32L32 416c-17.7 0-32 14.3-32 32s14.3 32 32 32l160 0c17.7 0 32-14.3 32-32z"/></svg>