<svg xmlns="http://www.w3.org/2000/svg" viewBox="0 0 384 512"><!--! Font Awesome Pro 6.6.0 by @fontawesome - https://fontawesome.com License - https://fontawesome.com/license (Commercial License) Copyright 2024 Fonticons, Inc. --><defs><style>.fa-secondary{opacity:.4}</style></defs><path class="fa-secondary" d="M0 192c0 87.4 117 243 168.3 307.2c6.1 7.7 14.9 11.5 23.7 11.5s17.6-3.8 23.7-11.5C267 435 384 279.4 384 192C384 86 298 0 192 0S0 86 0 192zm92 64c0-6.5 3.1-12.8 8.9-16.7c9.2-6.1 21.6-3.6 27.7 5.5c6.2 9.4 29.1 31.1 63.4 31.1s57.1-21.7 63.4-31.1c6.1-9.2 18.5-11.7 27.7-5.5c2.9 1.9 5.1 4.5 6.6 7.3c.8 1.4 1.3 3 1.7 4.5c.2 .8 .3 1.6 .4 2.4c.1 .6 .1 1.2 .1 1.1c0 .4 0 .9 0 1.4c0 .9 0 1.2-.1 1.4c0 .4-.1 .9-.2 1.4c-.1 .9-.3 1.9-.6 2.8c-.6 1.9-1.4 3.7-2.5 5.4C277.1 284.4 243.1 316 192 316s-85.1-31.6-96.6-48.9c-2.3-3.4-3.4-7.3-3.4-11.1zm4-96c0-17.7 14.3-32 32-32c8.8 0 16.8 3.6 22.6 9.4c2.9 2.9 5.2 6.3 6.9 10.2c.8 1.9 1.4 3.9 1.9 6c.2 1 .4 2.1 .5 3.2c.1 .5 .1 1.1 .1 1.6s0 1 0 1.2l0 .4 0 .4c0 .3 0 .8 0 1.3c0 .5-.1 1.1-.1 1.6c-.1 1.1-.3 2.1-.5 3.2c-.4 2.1-1.1 4.1-1.9 6c-1.6 3.8-4 7.3-6.9 10.2c-5.8 5.8-13.8 9.4-22.6 9.4c-17.7 0-32-14.3-32-32zm128 0c0-17.7 14.3-32 32-32c8.8 0 16.8 3.6 22.6 9.4c2.9 2.9 5.2 6.3 6.9 10.2c.8 1.9 1.4 3.9 1.9 6c.2 1 .4 2.1 .5 3.2c.1 .5 .1 1.1 .1 1.6s0 1 0 1.2l0 .4 0 .4c0 .3 0 .8 0 1.3c0 .5-.1 1.1-.1 1.6c-.1 1.1-.3 2.1-.5 3.2c-.4 2.1-1.1 4.1-1.9 6c-1.6 3.8-4 7.3-6.9 10.2c-5.8 5.8-13.8 9.4-22.6 9.4c-17.7 0-32-14.3-32-32z"/><path class="fa-primary" d="M160 160a32 32 0 1 0 -64 0 32 32 0 1 0 64 0zm128 0a32 32 0 1 0 -64 0 32 32 0 1 0 64 0zM128.6 244.9c-6.1-9.2-18.5-11.7-27.7-5.5s-11.7 18.5-5.5 27.7C106.9 284.4 140.9 316 192 316s85.1-31.6 96.6-48.9c6.1-9.2 3.6-21.6-5.5-27.7s-21.6-3.6-27.7 5.5c-6.2 9.4-29.1 31.1-63.4 31.1s-57.1-21.7-63.4-31.1z"/></svg>