<svg xmlns="http://www.w3.org/2000/svg" viewBox="0 0 384 512"><!--! Font Awesome Pro 6.6.0 by @fontawesome - https://fontawesome.com License - https://fontawesome.com/license (Commercial License) Copyright 2024 Fonticons, Inc. --><defs><style>.fa-secondary{opacity:.4}</style></defs><path class="fa-secondary" d="M0 192c0 87.4 117 243 168.3 307.2c6.1 7.7 14.9 11.5 23.7 11.5s17.6-3.8 23.7-11.5C267 435 384 279.4 384 192C384 86 298 0 192 0S0 86 0 192zM224 320a32 32 0 1 1 -64 0 32 32 0 1 1 64 0zM168 120c0-13.3 10.7-24 24-24s24 10.7 24 24l0 112c0 13.3-10.7 24-24 24s-24-10.7-24-24l0-112z"/><path class="fa-primary" d="M216 120c0-13.3-10.7-24-24-24s-24 10.7-24 24l0 112c0 13.3 10.7 24 24 24s24-10.7 24-24l0-112zM192 352a32 32 0 1 0 0-64 32 32 0 1 0 0 64z"/></svg>