<svg xmlns="http://www.w3.org/2000/svg" viewBox="0 0 448 512"><!--! Font Awesome Pro 6.6.0 by @fontawesome - https://fontawesome.com License - https://fontawesome.com/license (Commercial License) Copyright 2024 Fonticons, Inc. --><defs><style>.fa-secondary{opacity:.4}</style></defs><path class="fa-secondary" d="M0 64l0 96 128 0 0-96c0-17.7-14.3-32-32-32L32 32C14.3 32 0 46.3 0 64zm320 0l0 96 128 0 0-96c0-17.7-14.3-32-32-32l-64 0c-17.7 0-32 14.3-32 32z"/><path class="fa-primary" d="M0 160l0 96C0 379.7 100.3 480 224 480s224-100.3 224-224l0-96-128 0 0 96c0 53-43 96-96 96s-96-43-96-96l0-96L0 160z"/></svg>