<svg xmlns="http://www.w3.org/2000/svg" viewBox="0 0 512 512"><!--! Font Awesome Pro 6.6.0 by @fontawesome - https://fontawesome.com License - https://fontawesome.com/license (Commercial License) Copyright 2024 Fonticons, Inc. --><defs><style>.fa-secondary{opacity:.4}</style></defs><path class="fa-secondary" d="M0 64C0 28.7 28.7 0 64 0L448 0c35.3 0 64 28.7 64 64l0 288c0 35.3-28.7 64-64 64l-138.7 0L185.6 508.8c-4.8 3.6-11.3 4.2-16.8 1.5s-8.8-8.2-8.8-14.3l0-80-96 0c-35.3 0-64-28.7-64-64L0 64zM188.2 166.6c0 .6-.1 1.3-.1 1.9s0 1.3 0 1.9c0 .8 0 1.3 0 1.9c0 .6 .1 1.2 .1 1.8c.1 1.2 .2 2.4 .4 3.5c.4 2.3 .9 4.5 1.5 6.6c1.3 4.2 3.2 7.9 5.5 11.2c4.6 6.7 10.7 11.8 17.1 15.6c11 6.6 24.7 10.8 35.6 14l1.7 .5c12.6 3.8 21.8 6.8 28 10.7c5.1 3.2 5.8 5.4 5.9 8.2c0 .6 0 1.2-.1 1.8c-.1 .6-.1 1.1-.3 1.6c-.2 1-.6 1.9-1.1 2.8c-1 1.7-2.5 3-4.5 4.3c-5 3.1-12.9 5-21.4 4.7c-11.1-.4-21.5-3.9-35.1-8.5c-2.3-.8-4.7-1.6-7.2-2.4c-10.5-3.5-21.8 2.2-25.3 12.6s2.2 21.8 12.6 25.3c1.9 .6 4 1.3 6.1 2.1c8.3 2.9 17.9 6.2 28.3 8.4c0 4.9 0 9.7 0 14.6c0 .7 0 1.4 .1 2s.2 1.3 .3 2c.3 1.3 .7 2.6 1.2 3.7c1 2.4 2.5 4.5 4.3 6.4c3.6 3.6 8.6 5.9 14.1 5.9c11 0 20-9 20-20c0-4.6 0-9.2 0-13.8c8-1.7 16-4.5 23.2-9c7.2-4.4 13.4-10.5 17.9-18c2.2-3.8 4-7.9 5.2-12.4c.6-2.3 1.1-4.6 1.3-7c.1-1.2 .3-2.4 .3-3.7c0-.6 .1-1.3 .1-1.9c0-.6 0-1.3 0-1.9c-.3-20.3-11.7-33.4-24.6-41.6c-11.5-7.2-25.9-11.6-37.1-15l-.7-.2c-12.8-3.9-21.9-6.7-28.3-10.5c-2.6-1.6-3.9-2.8-4.6-3.8c-.3-.5-.5-1-.6-1.5c0-.2-.1-.5-.1-.7c0-.2 0-.4 0-.6c0-.7 0-1.1 .1-1.4c0-.4 .1-.9 .2-1.3c.2-.8 .5-1.6 1-2.4c.9-1.5 2.5-2.9 4.9-4.3c5.4-3.2 13.6-5.1 21.5-5c9.6 .1 20.2 2.2 31.2 5.2c10.7 2.8 21.6-3.5 24.5-14.2s-3.5-21.6-14.2-24.5c-6.5-1.7-13.7-3.4-21.1-4.7c0-4.6 0-9.2 0-13.9c0-11-9-20-20-20c-5.5 0-10.5 2.2-14.1 5.9c-1.8 1.8-3.3 4-4.3 6.4c-.5 1.2-.9 2.5-1.2 3.8c-.1 .7-.2 1.3-.3 2s-.1 1.3-.1 1.9c0 4.8 0 9.5 0 14.2c-7.6 1.7-15.2 4.4-22.2 8.5c-7 4.1-13.4 9.8-18.2 17.1c-2.4 3.7-4.3 7.7-5.6 12.2c-.7 2.2-1.2 4.6-1.5 7c-.2 1.2-.3 2.5-.4 3.7z"/><path class="fa-primary" d="M256 84c11 0 20 9 20 20l0 13.9c7.5 1.2 14.6 2.9 21.1 4.7c10.7 2.8 17 13.8 14.2 24.5s-13.8 17-24.5 14.2c-11-2.9-21.6-5-31.2-5.2c-7.9-.1-16 1.8-21.5 5c-4.8 2.8-6.2 5.6-6.2 9.3c0 1.8 .1 3.5 5.3 6.7c6.3 3.8 15.5 6.7 28.3 10.5l.7 .2c11.2 3.4 25.6 7.7 37.1 15c12.9 8.1 24.3 21.3 24.6 41.6c.3 20.9-10.5 36.1-24.8 45c-7.2 4.5-15.2 7.3-23.2 9l0 13.8c0 11-9 20-20 20s-20-9-20-20l0-14.6c-10.3-2.2-20-5.5-28.2-8.4c0 0 0 0 0 0s0 0 0 0c-2.1-.7-4.1-1.4-6.1-2.1c-10.5-3.5-16.1-14.8-12.6-25.3s14.8-16.1 25.3-12.6c2.5 .8 4.9 1.7 7.2 2.4c13.6 4.6 24 8.1 35.1 8.5c8.6 .3 16.5-1.6 21.4-4.7c4.1-2.5 6-5.5 5.9-10.5c0-2.9-.8-5-5.9-8.2c-6.3-4-15.4-6.9-28-10.7l-1.7-.5c-10.9-3.3-24.6-7.4-35.6-14c-12.7-7.7-24.6-20.5-24.7-40.7c-.1-21.1 11.8-35.7 25.8-43.9c6.9-4.1 14.5-6.8 22.2-8.5l0-14c0-11 9-20 20-20z"/></svg>