<svg xmlns="http://www.w3.org/2000/svg" viewBox="0 0 640 512"><!--! Font Awesome Pro 6.6.0 by @fontawesome - https://fontawesome.com License - https://fontawesome.com/license (Commercial License) Copyright 2024 Fonticons, Inc. --><defs><style>.fa-secondary{opacity:.4}</style></defs><path class="fa-secondary" d="M96 64c0-35.3 28.7-64 64-64L480 0c35.3 0 64 28.7 64 64l0 112 0 32 0 144c0 35.3-28.7 64-64 64l-106.7 0L249.6 508.8c-4.8 3.6-11.3 4.2-16.8 1.5s-8.8-8.2-8.8-14.3l0-80-64 0c-35.3 0-64-28.7-64-64l0-144 0-32L96 64zm64 64l0 128c0 17.7 14.3 32 32 32l256 0c17.7 0 32-14.3 32-32l0-128c0-17.7-14.3-32-32-32L192 96c-17.7 0-32 14.3-32 32z"/><path class="fa-primary" d="M59.7 208c-5.5 9.6-15.9 16-27.7 16c-17.7 0-32-14.3-32-32s14.3-32 32-32c11.8 0 22.2 6.4 27.7 16L96 176l0 32-36.3 0zM192 192a32 32 0 1 1 64 0 32 32 0 1 1 -64 0zm224-32a32 32 0 1 1 0 64 32 32 0 1 1 0-64zm224 32c0 17.7-14.3 32-32 32c-11.8 0-22.2-6.4-27.7-16L544 208l0-32 36.3 0c5.5-9.6 15.9-16 27.7-16c17.7 0 32 14.3 32 32z"/></svg>