<svg xmlns="http://www.w3.org/2000/svg" viewBox="0 0 512 512"><!--! Font Awesome Pro 6.6.0 by @fontawesome - https://fontawesome.com License - https://fontawesome.com/license (Commercial License) Copyright 2024 Fonticons, Inc. --><defs><style>.fa-secondary{opacity:.4}</style></defs><path class="fa-secondary" d="M0 152c0 13.3 10.7 24 24 24l40 0 0-48-40 0c-13.3 0-24 10.7-24 24zM0 256c0 13.3 10.7 24 24 24l40 0 0-48-40 0c-13.3 0-24 10.7-24 24zM0 360c0 13.3 10.7 24 24 24l40 0 0-48-40 0c-13.3 0-24 10.7-24 24zM128 24l0 40 48 0 0-40c0-13.3-10.7-24-24-24s-24 10.7-24 24zm0 424l0 40c0 13.3 10.7 24 24 24s24-10.7 24-24l0-40-48 0zm32-288l0 192 192 0 0-192-192 0zM232 24l0 40 48 0 0-40c0-13.3-10.7-24-24-24s-24 10.7-24 24zm0 424l0 40c0 13.3 10.7 24 24 24s24-10.7 24-24l0-40-48 0zM336 24l0 40 48 0 0-40c0-13.3-10.7-24-24-24s-24 10.7-24 24zm0 424l0 40c0 13.3 10.7 24 24 24s24-10.7 24-24l0-40-48 0zM448 128l0 48 40 0c13.3 0 24-10.7 24-24s-10.7-24-24-24l-40 0zm0 104l0 48 40 0c13.3 0 24-10.7 24-24s-10.7-24-24-24l-40 0zm0 104l0 48 40 0c13.3 0 24-10.7 24-24s-10.7-24-24-24l-40 0z"/><path class="fa-primary" d="M128 64c-35.3 0-64 28.7-64 64l0 256c0 35.3 28.7 64 64 64l256 0c35.3 0 64-28.7 64-64l0-256c0-35.3-28.7-64-64-64L128 64zm32 64l192 0c17.7 0 32 14.3 32 32l0 192c0 17.7-14.3 32-32 32l-192 0c-17.7 0-32-14.3-32-32l0-192c0-17.7 14.3-32 32-32z"/></svg>