<svg xmlns="http://www.w3.org/2000/svg" viewBox="0 0 640 512"><!--! Font Awesome Pro 6.6.0 by @fontawesome - https://fontawesome.com License - https://fontawesome.com/license (Commercial License) Copyright 2024 Fonticons, Inc. --><defs><style>.fa-secondary{opacity:.4}</style></defs><path class="fa-secondary" d="M128 96l0 352c0 35.3 28.7 64 64 64l256 0c35.3 0 64-28.7 64-64l0-352L128 96zm64 288c35.3 0 64 28.7 64 64l-64 0 0-64zm32-112c0-44.2 43-80 96-80s96 35.8 96 80s-43 80-96 80s-96-35.8-96-80zM384 448c0-35.3 28.7-64 64-64l0 64-64 0z"/><path class="fa-primary" d="M96 64C78.3 64 64 78.3 64 96l0 64c0 17.7-14.3 32-32 32s-32-14.3-32-32L0 96C0 43 43 0 96 0L544 0c53 0 96 43 96 96l0 64c0 17.7-14.3 32-32 32s-32-14.3-32-32l0-64c0-17.7-14.3-32-32-32L96 64z"/></svg>