<svg xmlns="http://www.w3.org/2000/svg" viewBox="0 0 576 512"><!--! Font Awesome Pro 6.6.0 by @fontawesome - https://fontawesome.com License - https://fontawesome.com/license (Commercial License) Copyright 2024 Fonticons, Inc. --><defs><style>.fa-secondary{opacity:.4}</style></defs><path class="fa-secondary" d="M64 192l0 128c35.3 0 64 28.7 64 64l320 0c0-35.3 28.7-64 64-64l0-128c-35.3 0-64-28.7-64-64l-320 0c0 35.3-28.7 64-64 64zm320 64a96 96 0 1 1 -192 0 96 96 0 1 1 192 0z"/><path class="fa-primary" d="M64 64C28.7 64 0 92.7 0 128L0 384c0 35.3 28.7 64 64 64l448 0c35.3 0 64-28.7 64-64l0-256c0-35.3-28.7-64-64-64L64 64zm384 64c0 35.3 28.7 64 64 64l0 128c-35.3 0-64 28.7-64 64l-320 0c0-35.3-28.7-64-64-64l0-128c35.3 0 64-28.7 64-64l320 0z"/></svg>