<svg xmlns="http://www.w3.org/2000/svg" viewBox="0 0 640 512"><!--! Font Awesome Pro 6.6.0 by @fontawesome - https://fontawesome.com License - https://fontawesome.com/license (Commercial License) Copyright 2024 Fonticons, Inc. --><defs><style>.fa-secondary{opacity:.4}</style></defs><path class="fa-secondary" d="M480 80a80 80 0 1 0 160 0A80 80 0 1 0 480 80z"/><path class="fa-primary" d="M381.1 512L55.9 512C25 512 0 487 0 456.1c0-10.5 3-20.8 8.6-29.7L225.2 81c6.6-10.6 18.3-17 30.8-17s24.1 6.4 30.8 17l126 200.7 48.2-79C465 196.1 472.2 192 480 192s15 4.1 19.1 10.7l132 216.3c5.8 9.6 8.9 20.6 8.9 31.8c0 33.8-27.4 61.1-61.1 61.1l-122.8 0-75 0z"/></svg>