<svg xmlns="http://www.w3.org/2000/svg" viewBox="0 0 512 512"><!--! Font Awesome Pro 6.6.0 by @fontawesome - https://fontawesome.com License - https://fontawesome.com/license (Commercial License) Copyright 2024 Fonticons, Inc. --><defs><style>.fa-secondary{opacity:.4}</style></defs><path class="fa-secondary" d="M64 80l0 152 0 48 0 152c0 26.5 21.5 48 48 48l64 0c26.5 0 48-21.5 48-48l0-152 0-48 0-152c0-26.5-21.5-48-48-48l-64 0C85.5 32 64 53.5 64 80zm224 64l0 88 0 48 0 88c0 26.5 21.5 48 48 48l64 0c26.5 0 48-21.5 48-48l0-88 0-48 0-88c0-26.5-21.5-48-48-48l-64 0c-26.5 0-48 21.5-48 48z"/><path class="fa-primary" d="M24 280c-13.3 0-24-10.7-24-24s10.7-24 24-24l40 0 0 48-40 0zm264 0l-64 0 0-48 64 0 0 48zm160 0l0-48 40 0c13.3 0 24 10.7 24 24s-10.7 24-24 24l-40 0z"/></svg>