<svg xmlns="http://www.w3.org/2000/svg" viewBox="0 0 512 512"><!--! Font Awesome Pro 6.6.0 by @fontawesome - https://fontawesome.com License - https://fontawesome.com/license (Commercial License) Copyright 2024 Fonticons, Inc. --><defs><style>.fa-secondary{opacity:.4}</style></defs><path class="fa-secondary" d="M64 48l0 288c0 26.5 21.5 48 48 48l64 0c26.5 0 48-21.5 48-48l0-288c0-26.5-21.5-48-48-48L112 0C85.5 0 64 21.5 64 48zM288 176l0 160c0 26.5 21.5 48 48 48l64 0c26.5 0 48-21.5 48-48l0-160c0-26.5-21.5-48-48-48l-64 0c-26.5 0-48 21.5-48 48z"/><path class="fa-primary" d="M0 488c0 13.3 10.7 24 24 24l464 0c13.3 0 24-10.7 24-24s-10.7-24-24-24L24 464c-13.3 0-24 10.7-24 24z"/></svg>