<svg xmlns="http://www.w3.org/2000/svg" viewBox="0 0 512 512"><!--! Font Awesome Pro 6.6.0 by @fontawesome - https://fontawesome.com License - https://fontawesome.com/license (Commercial License) Copyright 2024 Fonticons, Inc. --><defs><style>.fa-secondary{opacity:.4}</style></defs><path class="fa-secondary" d="M128 112c0-26.5 21.5-48 48-48l288 0c26.5 0 48 21.5 48 48l0 64c0 26.5-21.5 48-48 48l-288 0c-26.5 0-48-21.5-48-48l0-64zm0 224c0-26.5 21.5-48 48-48l160 0c26.5 0 48 21.5 48 48l0 64c0 26.5-21.5 48-48 48l-160 0c-26.5 0-48-21.5-48-48l0-64z"/><path class="fa-primary" d="M24 0C10.7 0 0 10.7 0 24L0 488c0 13.3 10.7 24 24 24s24-10.7 24-24L48 24C48 10.7 37.3 0 24 0z"/></svg>