<svg xmlns="http://www.w3.org/2000/svg" viewBox="0 0 512 512"><!--! Font Awesome Pro 6.6.0 by @fontawesome - https://fontawesome.com License - https://fontawesome.com/license (Commercial License) Copyright 2024 Fonticons, Inc. --><defs><style>.fa-secondary{opacity:.4}</style></defs><path class="fa-secondary" d="M.1 191.5l0 129c0 19.1 7.6 37.4 21.1 50.9L140.6 490.8c13.5 13.5 31.8 21.1 50.9 21.1l129 0c19.1 0 37.4-7.6 50.9-21.1L490.8 371.4c13.5-13.5 21.1-31.8 21.1-50.9l0-129c0-19.1-7.6-37.4-21.1-50.9L371.4 21.2C357.9 7.7 339.6 .1 320.5 .1l-129 0c-19.1 0-37.4 7.6-50.9 21.1L21.2 140.6C7.7 154.1 .1 172.4 .1 191.5zm168 126.2c.1-.7 .2-1.5 .3-2.3c.3-1.5 .7-3 1.3-4.4c1.2-2.9 2.9-5.6 5.3-7.9c15.7-15.7 31.3-31.3 47-47c-15.7-15.7-31.3-31.3-47-47c-9.4-9.4-9.4-24.6 0-33.9c4.7-4.7 10.8-7 17-7s12.3 2.3 17 7c15.7 15.7 31.3 31.3 47 47c15.7-15.7 31.3-31.3 47-47c4.7-4.7 10.8-7 17-7s12.3 2.3 17 7c9.4 9.4 9.4 24.6 0 33.9c-15.7 15.7-31.3 31.3-47 47c15.7 15.7 31.3 31.4 47 47c4.7 4.7 7 10.8 7 17s-2.3 12.3-7 17s-10.8 7-17 7s-12.3-2.3-17-7l-47-47c-15.7 15.7-31.3 31.3-47 47c-4.7 4.7-10.8 7-17 7s-12.3-2.3-17-7c-2.3-2.3-4.1-5.1-5.3-7.9c-.6-1.4-1-2.9-1.3-4.4c-.2-1.1-.4-2.3-.3-2.2c-.1-1.2-.1-1.2-.1-2.4c0-1.5 .1-1.9 .1-2.3z"/><path class="fa-primary" d="M209 175c-9.4-9.4-24.6-9.4-33.9 0s-9.4 24.6 0 33.9l47 47-47 47c-9.4 9.4-9.4 24.6 0 33.9s24.6 9.4 33.9 0l47-47 47 47c9.4 9.4 24.6 9.4 33.9 0s9.4-24.6 0-33.9l-47-47 47-47c9.4-9.4 9.4-24.6 0-33.9s-24.6-9.4-33.9 0l-47 47-47-47z"/></svg>