<svg xmlns="http://www.w3.org/2000/svg" viewBox="0 0 448 512"><!--! Font Awesome Pro 6.6.0 by @fontawesome - https://fontawesome.com License - https://fontawesome.com/license (Commercial License) Copyright 2024 Fonticons, Inc. --><defs><style>.fa-secondary{opacity:.4}</style></defs><path class="fa-secondary" d="M256 129.8c0 19.2 11.1 43.1 31.1 63.1c30.3 30.3 69.6 40.1 87.8 21.9s8.4-57.5-21.9-87.8c-20-20-43.9-31.1-63.1-31.1c-9.9 0-18.5 2.9-24.7 9.1s-9.1 14.8-9.1 24.7z"/><path class="fa-primary" d="M160 480C71.6 480 0 408.4 0 320C0 128 181.9 32 280 32c56 0 112 56 112 56s56 56 56 112c0 98.1-96 280-288 280zM287.1 192.9c30.3 30.3 69.6 40.1 87.8 21.9s8.4-57.5-21.9-87.8s-69.6-40.1-87.8-21.9s-8.4 57.5 21.9 87.8z"/></svg>