<svg xmlns="http://www.w3.org/2000/svg" viewBox="0 0 576 512"><!--! Font Awesome Pro 6.6.0 by @fontawesome - https://fontawesome.com License - https://fontawesome.com/license (Commercial License) Copyright 2024 Fonticons, Inc. --><defs><style>.fa-secondary{opacity:.4}</style></defs><path class="fa-secondary" d="M0 288c0 10.9 5.5 21.5 15.5 27.5c15.1 9.1 34.8 4.2 43.9-10.9L88 256.9 88 480c0 17.7 14.3 32 32 32s32-14.3 32-32l0-128 16 0 0 128c0 17.7 14.3 32 32 32s32-14.3 32-32l0-223.1 28.6 47.5c1.4 2.3 3.1 4.5 4.9 6.3c7.9-23 20.5-43.9 36.6-61.5l-44.9-74.7c-17.4-28.9-48.6-46.6-82.3-46.6l-29.7 0c-33.7 0-64.9 17.7-82.3 46.6l-58.3 97C1.5 276.7 0 282.4 0 288zM112 48a48 48 0 1 0 96 0 48 48 0 1 0 -96 0z"/><path class="fa-primary" d="M432 512a144 144 0 1 0 0-288 144 144 0 1 0 0 288zm67.3-164.7l-72 72c-6.2 6.2-16.4 6.2-22.6 0l-40-40c-6.2-6.2-6.2-16.4 0-22.6s16.4-6.2 22.6 0L416 385.4l60.7-60.7c6.2-6.2 16.4-6.2 22.6 0s6.2 16.4 0 22.6z"/></svg>