<svg xmlns="http://www.w3.org/2000/svg" viewBox="0 0 384 512"><!--! Font Awesome Pro 6.6.0 by @fontawesome - https://fontawesome.com License - https://fontawesome.com/license (Commercial License) Copyright 2024 Fonticons, Inc. --><defs><style>.fa-secondary{opacity:.4}</style></defs><path class="fa-secondary" d="M0 192c0 17.7 14.3 32 32 32l0-64c-17.7 0-32 14.3-32 32zm96-32l0 64 186.5 0c3.5-10 5.5-20.8 5.5-32s-1.9-22-5.5-32L96 160zm252.8 0c2.1 10.3 3.2 21 3.2 32c0 1.4 0 2.7-.1 4.1s-.1 2.7-.2 4.1c-.1 2.7-.3 5.4-.6 8.1c-.5 5.3-1.3 10.6-2.4 15.8l3.2 0c17.7 0 32-14.3 32-32s-14.3-32-32-32l-3.2 0z"/><path class="fa-primary" d="M32 64c0-17.7 14.3-32 32-32l128 0c88.4 0 160 71.6 160 160s-71.6 160-160 160l-96 0 0 96c0 17.7-14.3 32-32 32s-32-14.3-32-32l0-128L32 64zM96 288l96 0c53 0 96-43 96-96s-43-96-96-96L96 96l0 192z"/></svg>