<svg xmlns="http://www.w3.org/2000/svg" viewBox="0 0 512 512"><!--! Font Awesome Pro 6.6.0 by @fontawesome - https://fontawesome.com License - https://fontawesome.com/license (Commercial License) Copyright 2024 Fonticons, Inc. --><defs><style>.fa-secondary{opacity:.4}</style></defs><path class="fa-secondary" d="M0 64C0 311.4 200.6 512 448 512c18 0 33.8-12.1 38.6-29.5l24-88c1-3.5 1.4-7 1.4-10.5c0-15.8-9.4-30.6-24.6-36.9l-96-40c-16.3-6.8-35.2-2.1-46.3 11.6L304.7 368C234.3 334.7 177.3 277.7 144 207.3L193.3 167c13.7-11.2 18.4-30 11.6-46.3l-40-96C158.6 9.4 143.8 0 128 0c-3.5 0-7 .5-10.5 1.4l-88 24C12.1 30.2 0 46 0 64z"/><path class="fa-primary" d="M391 7c9.4-9.4 24.6-9.4 33.9 0l80 80c9.4 9.4 9.4 24.6 0 33.9l-80 80c-9.4 9.4-24.6 9.4-33.9 0s-9.4-24.6 0-33.9l39-39L312 128c-13.3 0-24-10.7-24-24s10.7-24 24-24l118.1 0L391 41c-9.4-9.4-9.4-24.6 0-33.9z"/></svg>