<svg xmlns="http://www.w3.org/2000/svg" viewBox="0 0 320 512"><!--! Font Awesome Pro 6.6.0 by @fontawesome - https://fontawesome.com License - https://fontawesome.com/license (Commercial License) Copyright 2024 Fonticons, Inc. --><defs><style>.fa-secondary{opacity:.4}</style></defs><path class="fa-secondary" d="M0 160L0 336c0 26.5 21.5 48 48 48l80 0 0-192c0-17.7 14.3-32 32-32s32 14.3 32 32l0 192 80 0c26.5 0 48-21.5 48-48l0-176C320 71.6 248.4 0 160 0S0 71.6 0 160z"/><path class="fa-primary" d="M128 192c0-17.7 14.3-32 32-32s32 14.3 32 32V480c0 17.7-14.3 32-32 32s-32-14.3-32-32V192z"/></svg>