<svg xmlns="http://www.w3.org/2000/svg" viewBox="0 0 576 512"><!--! Font Awesome Pro 6.6.0 by @fontawesome - https://fontawesome.com License - https://fontawesome.com/license (Commercial License) Copyright 2024 Fonticons, Inc. --><defs><style>.fa-secondary{opacity:.4}</style></defs><path class="fa-secondary" d="M86.6 254.9c4.9 17.2 14.5 33.1 28.4 45.9L257.2 431.2C269 442 284.4 448 300.4 448L416 448c17.7 0 32-14.3 32-32s-14.3-32-32-32l-64 0-16.8 0L320 384l0-43.5c0-42.9-28.4-80.5-69.6-92.3l-30.8-8.8c-8.5-2.4-13.4-11.3-11-19.8s11.3-13.4 19.8-11l30.8 8.8c55 15.7 92.8 65.9 92.8 123.1l0 15.7 56-32.4 6.4-3.7 101.3 0c33.3 0 60.3-27 60.3-60.3c0-18.1-8.2-35.3-22.2-46.7l-34.6-28.2c-4.6-3.7-9.4-7.1-14.5-10c8.4-49.3-7.8-100-43.9-135.5l-2.2-2.1c-3.5-3.5-8.2-5.3-13-5.3c-1.6 0-3.2 .2-4.8 .6c-6.4 1.7-11.4 6.6-13.1 13l-.8 2.9c-3.3 11.8-5.1 23.7-5.5 35.6c24.3 20.6 42.9 47.8 53.3 78.8c-8.2-1.9-16.5-2.9-25-2.9c-.6 0-1.1 0-1.7 0c-18.4-44-56.5-77.4-103.6-89.3l-3.4-.9c-6.2-1.6-12.9-.6-18.5 2.6c-10.8 6.2-15.6 19.5-11.2 31.1c14.9 39.5 44.3 71.4 81.4 89.7c-3.7 6.6-6.4 14-7.6 21.8L279.7 154.9C248.8 137.3 213.8 128 178.2 128c-32.3 0-62.2 16.8-78.9 44.4l-.3 .4c-.7 1.1-1.4 2.3-2.1 3.4c-14.6 24.3-17.7 52.8-10.3 78.6zm46.8 210.8C139.5 475 149.7 480 160 480c6.1 0 12.3-1.7 17.7-5.4l46-30.7-48.6-44.5-32.9 22c-14.7 9.8-18.7 29.7-8.9 44.4zM512 240a16 16 0 1 1 -32 0 16 16 0 1 1 32 0z"/><path class="fa-primary" d="M99 172.9l.3-.4C89 159.9 73.4 152 56 152c-30.9 0-56 25.1-56 56s25.1 56 56 56c11.3 0 21.8-3.3 30.6-9.1c-7.4-25.8-4.3-54.3 10.3-78.6l2.1-3.4zM496 256a16 16 0 1 0 0-32 16 16 0 1 0 0 32z"/></svg>