<svg xmlns="http://www.w3.org/2000/svg" viewBox="0 0 640 512"><!--! Font Awesome Pro 6.6.0 by @fontawesome - https://fontawesome.com License - https://fontawesome.com/license (Commercial License) Copyright 2024 Fonticons, Inc. --><defs><style>.fa-secondary{opacity:.4}</style></defs><path class="fa-secondary" d="M0 224L0 448c0 35.3 28.7 64 64 64l330.8 0C349.5 480.1 320 427.5 320 368c0-97.2 78.8-176 176-176c2.5 0 5 .1 7.5 .2c-11-19.2-31.8-32.2-55.5-32.2L64 160c-35.3 0-64 28.7-64 64zM48 104c0 13.3 10.7 24 24 24l368 0c13.3 0 24-10.7 24-24s-10.7-24-24-24L72 80c-13.3 0-24 10.7-24 24zM96 24c0 13.3 10.7 24 24 24l272 0c13.3 0 24-10.7 24-24s-10.7-24-24-24L120 0C106.7 0 96 10.7 96 24z"/><path class="fa-primary" d="M352 368a144 144 0 1 1 288 0 144 144 0 1 1 -288 0zm144-80c-8.8 0-16 7.2-16 16l0 48-48 0c-8.8 0-16 7.2-16 16s7.2 16 16 16l48 0 0 48c0 8.8 7.2 16 16 16s16-7.2 16-16l0-48 48 0c8.8 0 16-7.2 16-16s-7.2-16-16-16l-48 0 0-48c0-8.8-7.2-16-16-16z"/></svg>