<svg xmlns="http://www.w3.org/2000/svg" viewBox="0 0 640 512"><!--! Font Awesome Pro 6.6.0 by @fontawesome - https://fontawesome.com License - https://fontawesome.com/license (Commercial License) Copyright 2024 Fonticons, Inc. --><defs><style>.fa-secondary{opacity:.4}</style></defs><path class="fa-secondary" d="M0 240c0 9.1 3.9 17.7 10.6 23.8l160 144c9.4 8.5 22.9 10.6 34.4 5.4s19-16.6 19-29.2l0-64 96 0c53 0 96 43 96 96c0 30.4-12.8 47.9-22.2 56.7c-5.5 5.1-9.8 12-9.8 19.5c0 10.9 8.8 19.7 19.7 19.7c2.8 0 5.6-.6 8.1-1.9C430.5 499.9 512 449.3 512 336c0-5.6-.3-11.2-.8-16.6c-5 .4-10.1 .6-15.2 .6c-91.8 0-167.2-70.3-175.3-160L224 160l0-64c0-12.6-7.4-24.1-19-29.2s-25-3-34.4 5.4l-160 144C3.9 222.3 0 230.9 0 240z"/><path class="fa-primary" d="M496 288A144 144 0 1 0 496 0a144 144 0 1 0 0 288zM512 80l0 48 32 0c8.8 0 16 7.2 16 16s-7.2 16-16 16l-48 0c-8.8 0-16-7.2-16-16l0-64c0-8.8 7.2-16 16-16s16 7.2 16 16z"/></svg>