<svg xmlns="http://www.w3.org/2000/svg" viewBox="0 0 512 512"><!--! Font Awesome Pro 6.6.0 by @fontawesome - https://fontawesome.com License - https://fontawesome.com/license (Commercial License) Copyright 2024 Fonticons, Inc. --><defs><style>.fa-secondary{opacity:.4}</style></defs><path class="fa-secondary" d="M16 139.7c.5 99.5 41.3 281 213.6 363.5c16.7 8 36.1 8 52.8 0C454.7 420.7 495.5 239.2 496 140c0-26.4-16.4-47.9-38.3-57.2L269.4 2.9C265.2 1 260.7 0 256 0s-9.2 1-13.4 2.9L54.3 82.8C32.4 92.1 16 113.6 16 139.7zM128 176c0-8.8 7.2-16 16-16l56 0 8 0 24 0 52.2 0c12.1 0 23.2 6.8 28.6 17.7L320 192l64 0c4.4 0 8.4 1.8 11.3 4.7c1.4 1.5 2.6 3.2 3.4 5.1c.4 1 .7 2 .9 3c.1 .5 .2 1.1 .2 1.6s.1 1 .1 1.3l0 .4c0 10.7 0 21.3 0 32.3c0 1.4 0 2.7-.1 4.1c-.1 1.2-.2 2.5-.3 3.9c-.3 2.7-.7 5.3-1.2 7.9c-1.1 5.2-2.6 10.2-4.7 15c-4 9.6-9.9 18.2-17.1 25.4C362.1 311 342.1 320 320 320l-48 0c0 16.9 0 33.8 0 51c0 .3 0 .7-.1 1.1c0 .4-.1 .9-.2 1.3c-.2 .9-.4 1.7-.8 2.5c-.7 1.6-1.6 3-2.8 4.2c-2.4 2.4-5.7 3.9-9.4 3.9c-1.8 0-3.6-.4-5.2-1.1c-32.9-14.1-65.8-28.2-98.7-42.3c-6.6-2.8-10.8-9.3-10.8-16.4c0-2.8 .6-5.5 1.9-8c7.4-14.7 14.7-29.5 22.1-44.2l-8 0c-17.7 0-32-14.3-32-32l0-64z"/><path class="fa-primary" d="M168 272l-22.1 44.2c-1.2 2.5-1.9 5.2-1.9 8c0 7.1 4.3 13.6 10.8 16.4l98.7 42.3c1.7 .7 3.4 1.1 5.2 1.1c7.3 0 13.3-5.9 13.3-13.3l0-50.7 48 0c44.2 0 80-35.8 80-80l0-32c0-8.8-7.2-16-16-16l-64 0-7.2-14.3c-5.4-10.8-16.5-17.7-28.6-17.7L232 160l-24 0 0 72c0 22.1-17.9 40-40 40zm88-64a16 16 0 1 1 32 0 16 16 0 1 1 -32 0z"/></svg>