<svg xmlns="http://www.w3.org/2000/svg" viewBox="0 0 512 512"><!--! Font Awesome Pro 6.6.0 by @fontawesome - https://fontawesome.com License - https://fontawesome.com/license (Commercial License) Copyright 2024 Fonticons, Inc. --><defs><style>.fa-secondary{opacity:.4}</style></defs><path class="fa-secondary" d="M0 384c0 17.7 14.3 32 32 32l64 0c30.2 0 58.7-14.2 76.8-38.4L224 309.3c-13.3-17.8-26.7-35.6-40-53.3l-62.4 83.2c-6 8.1-15.5 12.8-25.6 12.8l-64 0c-17.7 0-32 14.3-32 32zM224 202.7c13.3 17.8 26.7 35.6 40 53.3l62.4-83.2c6-8.1 15.5-12.8 25.6-12.8l32 0 0 32c0 12.9 7.8 24.6 19.8 29.6s25.7 2.2 34.9-6.9l64-64c6-6 9.4-14.1 9.4-22.6s-3.4-16.6-9.4-22.6l-64-64c-9.2-9.2-22.9-11.9-34.9-6.9s-19.8 16.6-19.8 29.6l0 32-32 0c-30.2 0-58.7 14.2-76.8 38.4L224 202.7z"/><path class="fa-primary" d="M352 416c-30.2 0-58.7-14.2-76.8-38.4L121.6 172.8c-6-8.1-15.5-12.8-25.6-12.8l-64 0c-17.7 0-32-14.3-32-32s14.3-32 32-32l64 0c30.2 0 58.7 14.2 76.8 38.4L326.4 339.2c6 8.1 15.5 12.8 25.6 12.8l32 0 0-32c0-12.9 7.8-24.6 19.8-29.6s25.7-2.2 34.9 6.9l64 64c6 6 9.4 14.1 9.4 22.6s-3.4 16.6-9.4 22.6l-64 64c-9.2 9.2-22.9 11.9-34.9 6.9s-19.8-16.6-19.8-29.6l0-32-32 0z"/></svg>