<svg xmlns="http://www.w3.org/2000/svg" viewBox="0 0 512 512"><!--! Font Awesome Pro 6.6.0 by @fontawesome - https://fontawesome.com License - https://fontawesome.com/license (Commercial License) Copyright 2024 Fonticons, Inc. --><defs><style>.fa-secondary{opacity:.4}</style></defs><path class="fa-secondary" d="M224 32l0 448 224 0c35.3 0 64-28.7 64-64l0-320c0-35.3-28.7-64-64-64L224 32z"/><path class="fa-primary" d="M64 32C28.7 32 0 60.7 0 96L0 416c0 35.3 28.7 64 64 64l160 0 0-448L64 32zM88 96l48 0c13.3 0 24 10.7 24 24s-10.7 24-24 24l-48 0c-13.3 0-24-10.7-24-24s10.7-24 24-24zM64 216c0-13.3 10.7-24 24-24l48 0c13.3 0 24 10.7 24 24s-10.7 24-24 24l-48 0c-13.3 0-24-10.7-24-24zm24 72l48 0c13.3 0 24 10.7 24 24s-10.7 24-24 24l-48 0c-13.3 0-24-10.7-24-24s10.7-24 24-24z"/></svg>