<svg xmlns="http://www.w3.org/2000/svg" viewBox="0 0 448 512"><!--! Font Awesome Pro 6.6.0 by @fontawesome - https://fontawesome.com License - https://fontawesome.com/license (Commercial License) Copyright 2024 Fonticons, Inc. --><defs><style>.fa-secondary{opacity:.4}</style></defs><path class="fa-secondary" d="M48 352L73 152.1C77 120 104.2 96 136.5 96l175 0c32.3 0 59.5 24 63.5 56.1L400 352l-261.9 0 21.8-174c1.1-8.8-5.1-16.8-13.9-17.9s-16.8 5.1-17.9 13.9L105.9 352 48 352z"/><path class="fa-primary" d="M32 352c-17.7 0-32 14.3-32 32l0 64c0 17.7 14.3 32 32 32l384 0c17.7 0 32-14.3 32-32l0-64c0-17.7-14.3-32-32-32L32 352z"/></svg>