<svg xmlns="http://www.w3.org/2000/svg" viewBox="0 0 640 512"><!--! Font Awesome Pro 6.6.0 by @fontawesome - https://fontawesome.com License - https://fontawesome.com/license (Commercial License) Copyright 2024 Fonticons, Inc. --><defs><style>.fa-secondary{opacity:.4}</style></defs><path class="fa-secondary" d="M0 160L0 352c0 35.3 28.7 64 64 64l384 0c35.3 0 64-28.7 64-64l0-192c0-35.3-28.7-64-64-64L64 96C28.7 96 0 124.7 0 160zm56 40c0-13.3 10.7-24 24-24l59.9 0c23 0 38.5 23.5 29.4 44.6L126.1 321.5c-5.2 12.2-19.3 17.8-31.5 12.6s-17.8-19.3-12.6-31.5L115.6 224 80 224c-13.3 0-24-10.7-24-24zm144 0c0-13.3 10.7-24 24-24l59.9 0c23 0 38.5 23.5 29.4 44.6L270.1 321.5c-5.2 12.2-19.3 17.8-31.5 12.6s-17.8-19.3-12.6-31.5L259.6 224 224 224c-13.3 0-24-10.7-24-24zm144 0c0-13.3 10.7-24 24-24l59.9 0c23 0 38.5 23.5 29.4 44.6L414.1 321.5c-5.2 12.2-19.3 17.8-31.5 12.6s-17.8-19.3-12.6-31.5L403.6 224 368 224c-13.3 0-24-10.7-24-24z"/><path class="fa-primary" d="M128 0L384 0c35.3 0 64 28.7 64 64L64 64C64 28.7 92.7 0 128 0zM640 176c0 14.2-6.2 27-16 35.8L624 416c0 53-43 96-96 96l-80 0-32 0-288 0c-35.3 0-64-28.7-64-64l0-32 384 0 0 32 80 0c17.7 0 32-14.3 32-32l0-204.2c-9.8-8.8-16-21.6-16-35.8c0-26.5 21.5-48 48-48s48 21.5 48 48z"/></svg>