<svg xmlns="http://www.w3.org/2000/svg" viewBox="0 0 448 512"><!--! Font Awesome Pro 6.6.0 by @fontawesome - https://fontawesome.com License - https://fontawesome.com/license (Commercial License) Copyright 2024 Fonticons, Inc. --><defs><style>.fa-secondary{opacity:.4}</style></defs><path class="fa-secondary" d="M160 32c0-17.7 14.3-32 32-32l96 0c12.1 0 23.2 6.8 28.6 17.7s4.3 23.8-3 33.5L256 128l32 0c17.7 0 32 14.3 32 32s-14.3 32-32 32l-96 0c-12.1 0-23.2-6.8-28.6-17.7s-4.3-23.8 3-33.5L224 64l-32 0c-17.7 0-32-14.3-32-32zM288 256c0-17.7 14.3-32 32-32l96 0c12.1 0 23.2 6.8 28.6 17.7c2.3 4.5 3.4 9.4 3.4 14.3c0 6.8-2.2 13.6-6.4 19.2L384 352l32 0c17.7 0 32 14.3 32 32s-14.3 32-32 32l-96 0c-12.1 0-23.2-6.8-28.6-17.7s-4.3-23.8 3-33.5L352 288l-32 0c-17.7 0-32-14.3-32-32z"/><path class="fa-primary" d="M0 288c0-17.7 14.3-32 32-32l160 0c12.4 0 23.7 7.2 29 18.4s3.6 24.5-4.4 34.1L100.3 448l91.7 0c17.7 0 32 14.3 32 32s-14.3 32-32 32L32 512c-12.4 0-23.7-7.2-29-18.4s-3.6-24.5 4.4-34.1L123.7 320 32 320c-17.7 0-32-14.3-32-32z"/></svg>