<svg xmlns="http://www.w3.org/2000/svg" viewBox="0 0 512 512"><!--! Font Awesome Pro 6.6.0 by @fontawesome - https://fontawesome.com License - https://fontawesome.com/license (Commercial License) Copyright 2024 Fonticons, Inc. --><defs><style>.fa-secondary{opacity:.4}</style></defs><path class="fa-secondary" d="M96 384c0 44.7 18.3 85 47.8 114.1c9.9 9.7 23.7 13.9 37.5 13.9l149.3 0c13.9 0 27.7-4.2 37.5-13.9C397.7 469 416 428.7 416 384c0-45.8-19.3-87.1-50.1-116.3c-2.9-2.8-4-6.9-2.8-10.8c2.7-8.7 4.3-17.9 4.8-27.3c.1-1.9 .1-3.7 .1-5.6c0-15.2-3-29.8-8.6-43c-4.3-10.3-10.1-19.9-17.2-28.4c-2.8-3.4-3.3-8.1-1.2-12C348 127.2 352 112.1 352 96c0-53-43-96-96-96s-96 43-96 96c0 16.1 4 31.2 10.9 44.6c2 3.9 1.6 8.6-1.2 12c-7 8.5-12.9 18.1-17.2 28.4c-5.5 13.2-8.6 27.8-8.6 43c0 1.9 0 3.7 .1 5.6c.5 9.5 2.1 18.6 4.8 27.3c1.2 3.8 .1 8-2.8 10.8C115.3 296.9 96 338.2 96 384zM208 80c0-8.8 7.2-16 16-16c4.4 0 8.4 1.8 11.3 4.7c1.4 1.4 2.6 3.2 3.4 5.1c.4 1 .7 2 .9 3c.1 .5 .2 1.1 .2 1.6s.1 1 .1 1.8c0 .5 0 1-.1 1.5c-.1 .5-.1 1.1-.2 1.6c-.2 1-.5 2-.9 3c-.8 1.9-2 3.6-3.4 5.1c-2.9 2.9-6.9 4.7-11.3 4.7c-8.8 0-16-7.2-16-16zm32 40c0-8.8 7.2-16 16-16s16 7.2 16 16l0 3.2c0 3.2-.8 6.3-2.3 9l-9 16.9c-.9 1.7-2.7 2.8-4.7 2.8s-3.8-1.1-4.7-2.8l-9-16.9c-1.5-2.8-2.3-5.9-2.3-9l0-3.2zm0 104c0-8.8 7.2-16 16-16c4.4 0 8.4 1.8 11.3 4.7c1.4 1.4 2.6 3.2 3.4 5.1c.4 1 .7 2 .9 3c.1 .5 .2 1.1 .2 1.6c0 .5 .1 .9 .1 1.8c0 .6 0 1.1-.1 1.5c-.1 .5-.1 1.1-.2 1.6c-.2 1-.5 2-.9 3c-.8 1.9-2 3.6-3.4 5.1c-2.9 2.9-6.9 4.7-11.3 4.7c-8.8 0-16-7.2-16-16zm0 64c0-8.8 7.2-16 16-16c4.4 0 8.4 1.8 11.3 4.7c1.4 1.4 2.6 3.2 3.4 5.1c.4 1 .7 2 .9 3c.1 .5 .2 1.1 .2 1.6s.1 1 .1 1.8c0 .5 0 1-.1 1.5c-.1 .5-.1 1.1-.2 1.6c-.2 1-.5 2-.9 3c-.8 1.9-2 3.6-3.4 5.1c-2.9 2.9-6.9 4.7-11.3 4.7c-8.8 0-16-7.2-16-16zm0 64c0-8.8 7.2-16 16-16c4.4 0 8.4 1.8 11.3 4.7c1.4 1.4 2.6 3.2 3.4 5.1c.4 1 .7 2 .9 3c.1 .5 .2 1.1 .2 1.6s.1 1 .1 1.8c0 .5 0 1-.1 1.5c-.1 .5-.1 1.1-.2 1.6c-.2 1-.5 2-.9 3c-.8 1.9-2 3.6-3.4 5.1c-2.9 2.9-6.9 4.7-11.3 4.7c-8.8 0-16-7.2-16-16zM272 80c0-8.8 7.2-16 16-16c4.4 0 8.4 1.8 11.3 4.7c1.4 1.4 2.6 3.2 3.4 5.1c.4 1 .7 2 .9 3c.1 .5 .2 1.1 .2 1.6s.1 1 .1 1.8c0 .5 0 1-.1 1.5c-.1 .5-.1 1.1-.2 1.6c-.2 1-.5 2-.9 3c-.8 1.9-2 3.6-3.4 5.1c-2.9 2.9-6.9 4.7-11.3 4.7c-8.8 0-16-7.2-16-16z"/><path class="fa-primary" d="M224 96a16 16 0 1 0 0-32 16 16 0 1 0 0 32zm32 144a16 16 0 1 0 0-32 16 16 0 1 0 0 32zm16 48a16 16 0 1 0 -32 0 16 16 0 1 0 32 0zm-16 80a16 16 0 1 0 0-32 16 16 0 1 0 0 32zM304 80a16 16 0 1 0 -32 0 16 16 0 1 0 32 0zM80 96c-13.3 0-24 10.7-24 24l0 19.6-22.5-9.7c-12.2-5.2-26.3 .4-31.5 12.6s.4 26.3 12.6 31.5l56 24 73.6 31.5c-.1-1.9-.1-3.7-.1-5.6c0-15.2 3-29.8 8.6-43L104 160.2l0-40.2c0-13.3-10.7-24-24-24zM368 224c0 1.9 0 3.7-.1 5.6l73.6-31.5 56-24c12.2-5.2 17.8-19.3 12.6-31.5s-19.3-17.8-31.5-12.6L456 139.6l0-19.6c0-13.3-10.7-24-24-24s-24 10.7-24 24l0 40.2L359.4 181c5.5 13.2 8.6 27.8 8.6 43z"/></svg>