<svg xmlns="http://www.w3.org/2000/svg" viewBox="0 0 640 512"><!--! Font Awesome Pro 6.6.0 by @fontawesome - https://fontawesome.com License - https://fontawesome.com/license (Commercial License) Copyright 2024 Fonticons, Inc. --><defs><style>.fa-secondary{opacity:.4}</style></defs><path class="fa-secondary" d="M0 64L0 448c0 35.3 28.7 64 64 64l216.4 0c-15.2-17-24.4-39.4-24.4-64l0-33.6c-20.3 20.7-48.7 33.6-80 33.6c-61.9 0-112-50.1-112-112s50.1-112 112-112c31.3 0 59.7 12.9 80 33.6L256 64c0-24.6 9.2-47 24.4-64L64 0C28.7 0 0 28.7 0 64zm224 48a48 48 0 1 1 -96 0 48 48 0 1 1 96 0zm64-48l0 384c0 35.3 28.7 64 64 64l224 0c35.3 0 64-28.7 64-64l0-384c0-35.3-28.7-64-64-64L352 0c-35.3 0-64 28.7-64 64zM576 336a112 112 0 1 1 -224 0 112 112 0 1 1 224 0zM512 112a48 48 0 1 1 -96 0 48 48 0 1 1 96 0z"/><path class="fa-primary" d="M176 224c31.3 0 59.7 12.9 80 33.6l0 156.8c-20.3 20.7-48.7 33.6-80 33.6c-61.9 0-112-50.1-112-112s50.1-112 112-112zm0-160a48 48 0 1 1 0 96 48 48 0 1 1 0-96zm64 272a64 64 0 1 0 -128 0 64 64 0 1 0 128 0zM416 112a48 48 0 1 1 96 0 48 48 0 1 1 -96 0zM352 336a112 112 0 1 1 224 0 112 112 0 1 1 -224 0zm112 64a64 64 0 1 0 0-128 64 64 0 1 0 0 128z"/></svg>