<svg xmlns="http://www.w3.org/2000/svg" viewBox="0 0 512 512"><!--! Font Awesome Pro 6.6.0 by @fontawesome - https://fontawesome.com License - https://fontawesome.com/license (Commercial License) Copyright 2024 Fonticons, Inc. --><defs><style>.fa-secondary{opacity:.4}</style></defs><path class="fa-secondary" d="M60.9 403.1a48 48 0 1 0 96 0 48 48 0 1 0 -96 0zM208 464a48 48 0 1 0 96 0 48 48 0 1 0 -96 0zM369.1 75A48 48 0 1 0 437 142.9 48 48 0 1 0 369.1 75zm0 294.2A48 48 0 1 0 437 437a48 48 0 1 0 -67.9-67.9zM416 256a48 48 0 1 0 96 0 48 48 0 1 0 -96 0z"/><path class="fa-primary" d="M304 48a48 48 0 1 0 -96 0 48 48 0 1 0 96 0zM96 256A48 48 0 1 0 0 256a48 48 0 1 0 96 0zM75 142.9A48 48 0 1 0 142.9 75 48 48 0 1 0 75 142.9z"/></svg>