<svg xmlns="http://www.w3.org/2000/svg" viewBox="0 0 512 512"><!--! Font Awesome Pro 6.6.0 by @fontawesome - https://fontawesome.com License - https://fontawesome.com/license (Commercial License) Copyright 2024 Fonticons, Inc. --><defs><style>.fa-secondary{opacity:.4}</style></defs><path class="fa-secondary" d="M224 160.2C224 80 320 0 416 0c53 0 96 43 96 96c0 96-80 192-160.2 192c-21.6 0-43.2-7.3-60.8-21.8c-2.4-2-4.7-4.1-6.9-6.3l-32-32c-2.2-2.2-4.3-4.6-6.3-6.9c-14.5-17.6-21.8-39.2-21.8-60.8z"/><path class="fa-primary" d="M245.8 220.9c2 2.4 4.1 4.7 6.3 6.9l32 32c2.2 2.2 4.6 4.3 6.9 6.3L54.6 502.6c-12.5 12.5-32.8 12.5-45.3 0s-12.5-32.8 0-45.3L245.8 220.9z"/></svg>