<svg xmlns="http://www.w3.org/2000/svg" viewBox="0 0 448 512"><!--! Font Awesome Pro 6.6.0 by @fontawesome - https://fontawesome.com License - https://fontawesome.com/license (Commercial License) Copyright 2024 Fonticons, Inc. --><defs><style>.fa-secondary{opacity:.4}</style></defs><path class="fa-secondary" d="M0 96L0 416c0 35.3 28.7 64 64 64l320 0c35.3 0 64-28.7 64-64l0-320c0-35.3-28.7-64-64-64L64 32C28.7 32 0 60.7 0 96zM132.1 341.4c-7.4-11-4.5-25.9 6.5-33.3s25.9-4.5 33.3 6.5l4.1 6.1c6.4 9.6 17.2 15.3 28.8 15.3l36 0c8.6 0 16.5-3.5 22.1-9.2c2.8-2.8 5.1-6.2 6.7-9.9c.8-1.9 1.4-3.8 1.8-5.9c.2-1 .4-2.1 .5-3.1c.1-.5 .1-1.1 .1-1.6s0-1 0-1.8c0-.6 0-1 0-1.4c0-.5-.1-1-.1-1.5c-.1-1-.2-1.9-.4-2.9c-.4-1.9-.9-3.7-1.6-5.5c-1.4-3.5-3.4-6.7-5.8-9.5c-5-5.6-11.9-9.3-19.8-10.2c-29-3.3-57.9-6.5-86.9-9.8c-6.6-.7-12.6-4.2-16.6-9.5s-5.5-12.1-4.4-18.6c5.3-29.3 10.7-58.7 16-88c2.1-11.4 12-19.7 23.6-19.7l104 0c6.6 0 12.6 2.7 17 7c2.2 2.2 3.9 4.8 5.1 7.6c.6 1.4 1.1 2.9 1.4 4.5c.2 .8 .3 1.6 .4 2.4s.1 1.6 .1 2.6c0 .7 0 1.5-.1 2.3s-.2 1.6-.4 2.4c-.3 1.6-.8 3.1-1.4 4.5c-1.2 2.9-3 5.5-5.1 7.6c-4.3 4.3-10.3 7-17 7l-84 0c-2.6 14.3-5.2 28.7-7.8 43c20.5 2.3 40.9 4.6 61.4 6.9c20 2.3 37.6 11.9 50.2 26c6.3 7 11.3 15.2 14.8 24.1c1.7 4.5 3.1 9.1 4 13.9c.5 2.4 .8 4.8 1 7.3c.1 1.2 .2 2.5 .3 3.7c.1 1.2 .1 2.4 .1 3.8c0 1.4 0 2.8-.1 4.1c-.1 1.3-.2 2.7-.3 4c-.3 2.7-.7 5.3-1.2 7.9c-1.1 5.2-2.6 10.1-4.6 14.9c-4 9.5-9.8 18-17 25.2c-14.3 14.3-34.2 23.2-56.1 23.2l-36 0c-27.5 0-53.3-13.7-68.6-36.6c-1.4-2-2.7-4-4.1-6.1z"/><path class="fa-primary" d="M152.4 147.7c2.1-11.4 12-19.7 23.6-19.7l104 0c13.3 0 24 10.7 24 24s-10.7 24-24 24l-84 0-7.8 43 61.4 6.9c40.1 4.5 70.4 38.4 70.4 78.8c0 43.8-35.5 79.3-79.3 79.3l-36 0c-27.5 0-53.3-13.7-68.6-36.6l-4.1-6.1c-7.4-11-4.5-25.9 6.5-33.3s25.9-4.5 33.3 6.5l4.1 6.1c6.4 9.6 17.2 15.3 28.8 15.3l36 0c17.3 0 31.3-14 31.3-31.3c0-15.9-12-29.3-27.8-31.1l-86.9-9.8c-6.6-.7-12.6-4.2-16.6-9.5s-5.5-12.1-4.4-18.6l16-88z"/></svg>