<svg xmlns="http://www.w3.org/2000/svg" viewBox="0 0 448 512"><!--! Font Awesome Pro 6.6.0 by @fontawesome - https://fontawesome.com License - https://fontawesome.com/license (Commercial License) Copyright 2024 Fonticons, Inc. --><defs><style>.fa-secondary{opacity:.4}</style></defs><path class="fa-secondary" d="M0 96C0 60.7 28.7 32 64 32l320 0c35.3 0 64 28.7 64 64l0 320c0 35.3-28.7 64-64 64L64 480c-35.3 0-64-28.7-64-64L0 96zm64 80l0 160c0 8.8 7.2 16 16 16s16-7.2 16-16l0-102.2c22.1 36.8 44.2 73.6 66.3 110.5c2.9 4.9 8.2 7.8 13.7 7.8c1.4 0 2.9-.2 4.3-.6c6.9-1.9 11.7-8.2 11.7-15.4l0-160c0-8.8-7.2-16-16-16s-16 7.2-16 16l0 102.2c-22.1-36.8-44.2-73.6-66.3-110.5c-3.7-6.2-11.1-9.1-18-7.2S64 168.8 64 176zm160 0l0 64 0 96c0 8.8 7.2 16 16 16s16-7.2 16-16l0-80c16 0 32 0 48 0c8.8 0 16-7.2 16-16s-7.2-16-16-16c-16 0-32 0-48 0l0-32c16 0 32 0 48 0c8.8 0 16-7.2 16-16s-7.2-16-16-16c-21.3 0-42.7 0-64 0c-8.8 0-16 7.2-16 16zm128 0l0 160c0 8.8 7.2 16 16 16s16-7.2 16-16l0-160c0-8.8-7.2-16-16-16s-16 7.2-16 16z"/><path class="fa-primary" d="M93.7 167.8c-3.7-6.2-11.1-9.1-18-7.2S64 168.8 64 176l0 160c0 8.8 7.2 16 16 16s16-7.2 16-16l0-102.2 66.3 110.5c3.7 6.2 11.1 9.1 18 7.2s11.7-8.2 11.7-15.4l0-160c0-8.8-7.2-16-16-16s-16 7.2-16 16l0 102.2L93.7 167.8zM240 160c-8.8 0-16 7.2-16 16l0 64 0 96c0 8.8 7.2 16 16 16s16-7.2 16-16l0-80 48 0c8.8 0 16-7.2 16-16s-7.2-16-16-16l-48 0 0-32 48 0c8.8 0 16-7.2 16-16s-7.2-16-16-16l-64 0zm144 16c0-8.8-7.2-16-16-16s-16 7.2-16 16l0 160c0 8.8 7.2 16 16 16s16-7.2 16-16l0-160z"/></svg>