<svg xmlns="http://www.w3.org/2000/svg" viewBox="0 0 576 512"><!--! Font Awesome Pro 6.6.0 by @fontawesome - https://fontawesome.com License - https://fontawesome.com/license (Commercial License) Copyright 2024 Fonticons, Inc. --><defs><style>.fa-secondary{opacity:.4}</style></defs><path class="fa-secondary" d="M128 352l0 64 64 0 0-64-64 0zM256 224l0 64 64 0 0-64-64 0zM384 96l0 64 64 0 0-64-64 0z"/><path class="fa-primary" d="M416 32c-17.7 0-32 14.3-32 32l0 32 64 0 96 0c17.7 0 32-14.3 32-32s-14.3-32-32-32L416 32zM384 160l-96 0c-17.7 0-32 14.3-32 32l0 32 64 0 96 0c17.7 0 32-14.3 32-32l0-32-64 0zM160 288c-17.7 0-32 14.3-32 32l0 32 64 0 96 0c17.7 0 32-14.3 32-32l0-32-64 0-96 0zm32 128l-64 0-96 0c-17.7 0-32 14.3-32 32s14.3 32 32 32l128 0c17.7 0 32-14.3 32-32l0-32z"/></svg>