<svg xmlns="http://www.w3.org/2000/svg" viewBox="0 0 640 512"><!--! Font Awesome Pro 6.6.0 by @fontawesome - https://fontawesome.com License - https://fontawesome.com/license (Commercial License) Copyright 2024 Fonticons, Inc. --><defs><style>.fa-secondary{opacity:.4}</style></defs><path class="fa-secondary" d="M151.6 93.5c18.4 14.4 36.8 28.8 55.1 43.2c.1-.3 .2-.7 .3-1L217 96l116.7 0L301.3 210.8c18.1 14.2 36.3 28.4 54.4 42.7L400.2 96 503 96 497 120.2c-4.3 17.1 6.1 34.5 23.3 38.8s34.5-6.1 38.8-23.3l11-44.1C577.6 61.3 554.7 32 523.5 32L376.1 32 204.5 32c-22 0-41.2 15-46.6 36.4l-6.3 25.2zM160 448c0 17.7 14.3 32 32 32l160 0c17.7 0 32-14.3 32-32s-14.3-32-32-32l-42.2 0 17.6-62.1L272.9 311 243.3 416 192 416c-17.7 0-32 14.3-32 32z"/><path class="fa-primary" d="M5.1 9.2C13.3-1.2 28.4-3.1 38.8 5.1l592 464c10.4 8.2 12.3 23.3 4.1 33.7s-23.3 12.3-33.7 4.1L9.2 42.9C-1.2 34.7-3.1 19.6 5.1 9.2z"/></svg>