<svg xmlns="http://www.w3.org/2000/svg" viewBox="0 0 448 512"><!--! Font Awesome Pro 6.6.0 by @fontawesome - https://fontawesome.com License - https://fontawesome.com/license (Commercial License) Copyright 2024 Fonticons, Inc. --><defs><style>.fa-secondary{opacity:.4}</style></defs><path class="fa-secondary" d="M32 96l384 0L394.6 466.8c-1.5 25.4-22.5 45.2-47.9 45.2l-245.4 0c-25.4 0-46.5-19.8-47.9-45.2L32 96zM143 207c-9.4 9.4-9.4 24.6 0 33.9l47 47-47 47c-9.4 9.4-9.4 24.6 0 33.9c4.7 4.7 10.8 7 17 7s12.3-2.3 17-7l47-47 47 47c4.7 4.7 10.8 7 17 7s12.3-2.3 17-7c9.4-9.4 9.4-24.6 0-33.9l-47-47 47-47c9.4-9.4 9.4-24.6 0-33.9s-24.6-9.4-33.9 0l-47 47-47-47c-9.4-9.4-24.6-9.4-33.9 0z"/><path class="fa-primary" d="M135.2 17.7C140.6 6.8 151.7 0 163.8 0L284.2 0c12.1 0 23.2 6.8 28.6 17.7L320 32l96 0c17.7 0 32 14.3 32 32s-14.3 32-32 32L32 96C14.3 96 0 81.7 0 64S14.3 32 32 32l96 0 7.2-14.3zM143 207c9.4-9.4 24.6-9.4 33.9 0l47 47 47-47c9.4-9.4 24.6-9.4 33.9 0s9.4 24.6 0 33.9l-47 47 47 47c9.4 9.4 9.4 24.6 0 33.9s-24.6 9.4-33.9 0l-47-47-47 47c-9.4 9.4-24.6 9.4-33.9 0s-9.4-24.6 0-33.9l47-47-47-47c-9.4-9.4-9.4-24.6 0-33.9z"/></svg>