<svg xmlns="http://www.w3.org/2000/svg" viewBox="0 0 576 512"><!--! Font Awesome Pro 6.6.0 by @fontawesome - https://fontawesome.com License - https://fontawesome.com/license (Commercial License) Copyright 2024 Fonticons, Inc. --><defs><style>.fa-secondary{opacity:.4}</style></defs><path class="fa-secondary" d="M32 96L53.4 466.8c1.5 25.4 22.5 45.2 47.9 45.2l229.5 0C285.6 480.1 256 427.5 256 368c0-89.9 67.4-164 154.4-174.7L416 96 32 96z"/><path class="fa-primary" d="M135.2 17.7C140.6 6.8 151.7 0 163.8 0L284.2 0c12.1 0 23.2 6.8 28.6 17.7L320 32l96 0c17.7 0 32 14.3 32 32s-14.3 32-32 32L32 96C14.3 96 0 81.7 0 64S14.3 32 32 32l96 0 7.2-14.3zM288 368a144 144 0 1 1 288 0 144 144 0 1 1 -288 0zm144-80c-8.8 0-16 7.2-16 16l0 64c0 8.8 7.2 16 16 16l48 0c8.8 0 16-7.2 16-16s-7.2-16-16-16l-32 0 0-48c0-8.8-7.2-16-16-16z"/></svg>