<svg xmlns="http://www.w3.org/2000/svg" viewBox="0 0 640 512"><!--! Font Awesome Pro 6.6.0 by @fontawesome - https://fontawesome.com License - https://fontawesome.com/license (Commercial License) Copyright 2024 Fonticons, Inc. --><defs><style>.fa-secondary{opacity:.4}</style></defs><path class="fa-secondary" d="M32 416a64 64 0 1 0 128 0A64 64 0 1 0 32 416zm160 0a64 64 0 1 0 128 0 64 64 0 1 0 -128 0zm288 0a64 64 0 1 0 128 0 64 64 0 1 0 -128 0z"/><path class="fa-primary" d="M64 32C28.7 32 0 60.7 0 96L0 384l5.5 0c13.2-37.3 48.7-64 90.5-64c33.4 0 62.8 17 80 42.9C193.2 337 222.6 320 256 320c41.8 0 77.4 26.7 90.5 64l69.5 0 37.5 0c13.2-37.3 48.7-64 90.5-64c38.2 0 71.2 22.3 86.6 54.6c5.8-5.8 9.4-13.8 9.4-22.6l0-64 0-16 0-10.3c0-9.2-3.2-18.2-9-25.3l-58.8-71.8c-10.6-13-26.5-20.5-43.3-20.5L480 144l0-48c0-35.3-28.7-64-64-64L64 32zM585 256l-105 0 0-64 48.8 0c2.4 0 4.7 1.1 6.2 2.9L585 256z"/></svg>