<svg xmlns="http://www.w3.org/2000/svg" viewBox="0 0 512 512"><!--! Font Awesome Pro 6.6.0 by @fontawesome - https://fontawesome.com License - https://fontawesome.com/license (Commercial License) Copyright 2024 Fonticons, Inc. --><defs><style>.fa-secondary{opacity:.4}</style></defs><path class="fa-secondary" d="M131.4 462.3l2.3 4.7c13.8 27.6 42 45 72.8 45c45 0 81.4-36.5 81.4-81.4L288 288l-64 0 0 142.6c0 9.6-7.8 17.4-17.4 17.4c-6.6 0-12.6-3.7-15.6-9.6l-2.3-4.7c-7.9-15.8-27.1-22.2-42.9-14.3s-22.2 27.1-14.3 42.9z"/><path class="fa-primary" d="M288 32c0-17.7-14.3-32-32-32s-32 14.3-32 32l0 2C108.2 48.4 16.4 140.2 2 256.1C-.2 273.6 14.3 288 32 288l448 0c17.7 0 32.2-14.4 30-31.9C495.6 140.2 403.8 48.4 288 34l0-2z"/></svg>