<svg xmlns="http://www.w3.org/2000/svg" viewBox="0 0 256 512"><!--! Font Awesome Pro 6.6.0 by @fontawesome - https://fontawesome.com License - https://fontawesome.com/license (Commercial License) Copyright 2024 Fonticons, Inc. --><defs><style>.fa-secondary{opacity:.4}</style></defs><path class="fa-secondary" d="M2 366.4c-3.8 8.7-2.1 18.9 4.4 25.9l104 112c4.5 4.9 10.9 7.7 17.6 7.7s13-2.8 17.6-7.7l104-112c6.5-7 8.2-17.2 4.4-25.9s-12.5-14.4-22-14.4l-56 0 0-96-96 0 0 96-56 0c-9.5 0-18.2 5.7-22 14.4z"/><path class="fa-primary" d="M128 0c6.7 0 13 2.8 17.6 7.7l104 112c6.5 7 8.2 17.2 4.4 25.9s-12.5 14.4-22 14.4l-56 0 0 96-96 0 0-96-56 0c-9.5 0-18.2-5.7-22-14.4s-2.1-18.9 4.4-25.9l104-112C115 2.8 121.3 0 128 0z"/></svg>