<svg xmlns="http://www.w3.org/2000/svg" viewBox="0 0 448 512"><!--! Font Awesome Pro 6.6.0 by @fontawesome - https://fontawesome.com License - https://fontawesome.com/license (Commercial License) Copyright 2024 Fonticons, Inc. --><defs><style>.fa-secondary{opacity:.4}</style></defs><path class="fa-secondary" d="M0 352l0 64c0 53 43 96 96 96l256 0c53 0 96-43 96-96l0-64c0-17.7-14.3-32-32-32s-32 14.3-32 32l0 64c0 17.7-14.3 32-32 32L96 448c-17.7 0-32-14.3-32-32l0-64c0-17.7-14.3-32-32-32s-32 14.3-32 32z"/><path class="fa-primary" d="M196.7 11.3L73.9 134.1c-6.4 6.4-9.9 15-9.9 24C64 176.8 79.2 192 97.9 192l62.1 0 0 128c0 17.7 14.3 32 32 32l64 0c17.7 0 32-14.3 32-32l0-128 62.1 0c18.7 0 33.9-15.2 33.9-33.9c0-9-3.6-17.6-9.9-24L251.3 11.3C244.1 4.1 234.2 0 224 0s-20.1 4.1-27.3 11.3z"/></svg>