<svg xmlns="http://www.w3.org/2000/svg" viewBox="0 0 448 512"><!--! Font Awesome Pro 6.6.0 by @fontawesome - https://fontawesome.com License - https://fontawesome.com/license (Commercial License) Copyright 2024 Fonticons, Inc. --><defs><style>.fa-secondary{opacity:.4}</style></defs><path class="fa-secondary" d="M0 448a32 32 0 1 0 64 0A32 32 0 1 0 0 448zm96 0a32 32 0 1 0 64 0 32 32 0 1 0 -64 0zm96 0a32 32 0 1 0 64 0 32 32 0 1 0 -64 0zm96 0a32 32 0 1 0 64 0 32 32 0 1 0 -64 0zm96 0a32 32 0 1 0 64 0 32 32 0 1 0 -64 0z"/><path class="fa-primary" d="M196.7 43.3L73.9 166.1c-6.4 6.4-9.9 15-9.9 24C64 208.8 79.2 224 97.9 224l62.1 0 0 128c0 17.7 14.3 32 32 32l64 0c17.7 0 32-14.3 32-32l0-128 62.1 0c18.7 0 33.9-15.2 33.9-33.9c0-9-3.6-17.6-9.9-24L251.3 43.3C244.1 36.1 234.2 32 224 32s-20.1 4.1-27.3 11.3z"/></svg>