<svg xmlns="http://www.w3.org/2000/svg" viewBox="0 0 576 512"><!--! Font Awesome Pro 6.6.0 by @fontawesome - https://fontawesome.com License - https://fontawesome.com/license (Commercial License) Copyright 2024 Fonticons, Inc. --><defs><style>.fa-secondary{opacity:.4}</style></defs><path class="fa-secondary" d="M0 481.3c0 17 13.8 30.7 30.7 30.7l324 0c-4.2-12-3.7-25.5 2.3-37.5L386.3 416 368 416c-20.4 0-38.5-12.9-45.3-32.1c-.7-1.9-1.2-3.8-1.6-5.7c-10.3 3.8-21.5 5.9-33.1 5.9c-2.2 0-4.5-.1-6.7-.2C266.8 398.7 246.5 408 224 408s-42.8-9.3-57.3-24.2c-2.2 .2-4.4 .2-6.7 .2c-33.1 0-62.3-16.8-79.6-42.3C32.3 369.6 0 421.7 0 481.3zM64 210.8c0 24.6 14.6 46 35.7 55.7c-2.4 6.7-3.7 14-3.7 21.5c0 15.2 5.3 29.3 14.2 40.2l.4 .5C122.4 342.9 140.1 352 160 352c7.2 0 14.2-1.2 20.6-3.4c7.7 16.2 24.2 27.4 43.4 27.4s35.7-11.2 43.4-27.4c.8 .3 1.6 .5 2.4 .8c5.8 1.7 11.9 2.6 18.2 2.6c20.1 0 38-9.3 49.8-23.8c8.9-11 14.2-25 14.2-40.2c0-7.5-1.3-14.8-3.7-21.5c21.1-9.7 35.7-31 35.7-55.7c0-7.1-1.2-14.3-3.7-21l-25.2-69.3c-2-5.6-3.1-11.6-3.1-17.6C352 46.1 305.9 0 249.1 0L224 0 198.9 0C142.1 0 96 46.1 96 102.9c0 6-1 12-3.1 17.6L67.7 189.9c-2.4 6.7-3.7 13.8-3.7 21zM144 128c0-11.4 2.4-22.2 6.7-32L168 96c24.1 0 45.1-13.3 56-33c10.9 19.7 31.9 33 56 33l17.3 0c4.3 9.8 6.7 20.6 6.7 32l0 16c0 12.5-2.9 24.4-8 35c-.9-.5-1.8-1.1-2.6-1.8l-.6-.6c-18.2-18.2-43-28.5-68.8-28.5s-50.5 10.2-68.8 28.5l-.6 .6c-.8 .8-1.6 1.4-2.6 1.8c-5.1-10.6-8-22.4-8-35l0-16zm34.2 81.6c1.6-1.3 3.2-2.7 4.7-4.2l.6-.6C194.3 194 208.8 188 224 188s29.7 6 40.5 16.8l.6 .6c1.5 1.5 3.1 2.9 4.7 4.2c-2.6 1.8-5.2 3.4-8 4.9c-11.3 6.1-24.2 9.5-37.9 9.5s-26.6-3.4-37.9-9.5c-2.8-1.5-5.4-3.1-8-4.9z"/><path class="fa-primary" d="M542.3 247.2c3.4-6.7 1.6-14.9-4.2-19.6s-14.2-4.7-20.1-.1l-160 128c-5.3 4.2-7.4 11.4-5.1 17.8s8.3 10.7 15.1 10.7l70.1 0L385.7 488.8c-3.4 6.7-1.6 14.9 4.3 19.6s14.2 4.7 20.1 .1l160-128c5.3-4.2 7.4-11.4 5.1-17.8s-8.3-10.7-15.1-10.7l-70.1 0 52.4-104.8z"/></svg>