<svg xmlns="http://www.w3.org/2000/svg" viewBox="0 0 448 512"><!--! Font Awesome Pro 6.6.0 by @fontawesome - https://fontawesome.com License - https://fontawesome.com/license (Commercial License) Copyright 2024 Fonticons, Inc. --><defs><style>.fa-secondary{opacity:.4}</style></defs><path class="fa-secondary" d="M32 160l64 0 0 192-64 0 0-192zm96-96l192 0 0 64-192 0 0-64zm0 320l192 0 0 64-192 0 0-64zM352 160l64 0 0 192-64 0 0-192z"/><path class="fa-primary" d="M368 80l32 0 0 32-32 0 0-32zM352 32c-17.7 0-32 14.3-32 32l0 64c0 17.7 14.3 32 32 32l64 0c17.7 0 32-14.3 32-32l0-64c0-17.7-14.3-32-32-32l-64 0zM48 432l0-32 32 0 0 32-32 0zM0 384l0 64c0 17.7 14.3 32 32 32l64 0c17.7 0 32-14.3 32-32l0-64c0-17.7-14.3-32-32-32l-64 0c-17.7 0-32 14.3-32 32zm368 48l0-32 32 0 0 32-32 0zm-48-48l0 64c0 17.7 14.3 32 32 32l64 0c17.7 0 32-14.3 32-32l0-64c0-17.7-14.3-32-32-32l-64 0c-17.7 0-32 14.3-32 32zM48 112l0-32 32 0 0 32-32 0zM0 64l0 64c0 17.7 14.3 32 32 32l64 0c17.7 0 32-14.3 32-32l0-64c0-17.7-14.3-32-32-32L32 32C14.3 32 0 46.3 0 64z"/></svg>