<svg xmlns="http://www.w3.org/2000/svg" viewBox="0 0 512 512"><!--! Font Awesome Pro 6.6.0 by @fontawesome - https://fontawesome.com License - https://fontawesome.com/license (Commercial License) Copyright 2024 Fonticons, Inc. --><defs><style>.fa-secondary{opacity:.4}</style></defs><path class="fa-secondary" d="M0 256C0 157.2 56 71.5 138 28.8c20.6 18.3 38.7 39.4 53.7 62.6C95.9 136.1 30.6 220.8 7.3 316.9C2.5 297.4 0 277 0 256zM30.4 377.2c6.7-108.7 71.9-209.9 177.1-257.9c9.7 19.3 17.5 39.8 22.9 61.1c2.7 10.7 4.9 21.6 6.5 32.7c.8 5.6 1.4 11.2 1.9 16.8c.2 2.8 .4 5.6 .6 8.5c.2 2.7 .3 5.5 .4 8.1c0 .1 0 .3 0 .4C162.5 294.6 110.9 368.9 90.2 451C66 430.4 45.6 405.4 30.4 377.2zm87.8 94.6c5.6-27 14.8-53.1 27.4-77.7C232.2 454.6 338.1 468.8 433 441c-46 44-108.3 71-177 71c-50.7 0-98-14.7-137.8-40.2zm43.5-105.5c23.7-36.2 55.4-67.8 94.5-91.8c79.9 43.2 170.1 50.8 251.6 27.6c-5.8 32-17.6 62-34.2 88.7c-97.5 48.5-217.7 42.6-311.9-24.5zm8.2-351.5C196.8 5.2 225.8 0 256 0c2.7 0 5.3 0 7.9 .1c90.8 60.2 145.7 167.2 134.7 282.3c-43.1-2.4-86.4-14.1-126.8-35.9c0-.1 0-.2 0-.4c-.1-2.6-.2-5.3-.3-8c-.1-2.8-.3-5.6-.6-8.6c-.2-2.7-.5-5.5-.7-8.3c-.3-2.7-.6-5.5-1-8.3c-1.4-11-3.4-21.9-5.8-32.6s-5.4-21.2-8.9-31.5c-1.7-5.1-3.6-10.2-5.6-15.3c-1-2.5-2-4.9-3.1-7.5c-1-2.3-2-4.7-3.2-7.3c-8.8-19.6-19.4-38.2-31.6-55.6c-6.1-8.7-12.6-17.1-19.5-25.2c-3.4-4-6.9-7.9-10.6-11.8c-1.8-1.9-3.6-3.8-5.6-5.8c-1.8-1.8-3.5-3.6-5.3-5.3c-.1-.1-.2-.2-.2-.2zm157.6-4.7C434.1 41.1 512 139.5 512 256c0 3.8-.1 7.6-.3 11.4c-26.1 8.7-53.4 13.8-81 15.1c9.2-105.3-31.6-204.2-103.2-272.4z"/><path class="fa-primary" d="M138 28.8c20.6 18.3 38.7 39.4 53.7 62.6C95.9 136.1 30.6 220.8 7.3 316.9c5.2 21.2 13 41.5 23.1 60.3c6.7-108.7 71.9-209.9 177.1-257.9c19.5 38.6 31 81.9 32.3 127.7C162.5 294.6 110.9 368.9 90.2 451c8.9 7.5 18.2 14.5 28.1 20.8c5.6-27 14.8-53.1 27.4-77.7C232.2 454.6 338.1 468.8 433 441c15.6-14.9 29.3-31.8 40.7-50.2c-97.5 48.5-217.7 42.6-311.9-24.5c23.7-36.2 55.4-67.8 94.5-91.8c79.9 43.2 170.1 50.8 251.6 27.6c2.1-11.3 3.4-22.9 3.9-34.7c-26.1 8.7-53.4 13.8-81 15.1c9.2-105.3-31.5-204.2-103.2-272.4C307.3 4.2 286 .8 263.9 .1c90.8 60.2 145.7 167.2 134.7 282.3c-43.2-2.4-86.4-14.1-126.8-35.9c-2.5-90.9-41.1-172.7-101.9-231.7c-11 3.9-21.7 8.6-32 14z"/></svg>