<svg xmlns="http://www.w3.org/2000/svg" viewBox="0 0 640 512"><!--! Font Awesome Pro 6.6.0 by @fontawesome - https://fontawesome.com License - https://fontawesome.com/license (Commercial License) Copyright 2024 Fonticons, Inc. --><defs><style>.fa-secondary{opacity:.4}</style></defs><path class="fa-secondary" d="M0 128L0 384c0 35.3 28.7 64 64 64l120.4 0c24.2 0 46.4-13.7 57.2-35.4l32-64c8.8-17.5 26.7-28.6 46.3-28.6s37.5 11.1 46.3 28.6l32 64c10.8 21.7 33 35.4 57.2 35.4L576 448c35.3 0 64-28.7 64-64l0-256c0-35.3-28.7-64-64-64L64 64C28.7 64 0 92.7 0 128zM224 240A64 64 0 1 1 96 240a64 64 0 1 1 128 0zm320 0a64 64 0 1 1 -128 0 64 64 0 1 1 128 0z"/><path class="fa-primary" d="M160 304a64 64 0 1 0 0-128 64 64 0 1 0 0 128zm320 0a64 64 0 1 0 0-128 64 64 0 1 0 0 128z"/></svg>