<svg xmlns="http://www.w3.org/2000/svg" viewBox="0 0 512 512"><!--! Font Awesome Pro 6.6.0 by @fontawesome - https://fontawesome.com License - https://fontawesome.com/license (Commercial License) Copyright 2024 Fonticons, Inc. --><defs><style>.fa-secondary{opacity:.4}</style></defs><path class="fa-secondary" d="M0 144c0 3.6 2.4 6.7 5.8 7.7l51.7 14.8 14.8 51.7c1 3.4 4.1 5.8 7.7 5.8s6.7-2.4 7.7-5.8l14.8-51.7 51.7-14.8c3.4-1 5.8-4.1 5.8-7.7s-2.4-6.7-5.8-7.7l-51.7-14.8L87.7 69.8c-1-3.4-4.1-5.8-7.7-5.8s-6.7 2.4-7.7 5.8L57.5 121.5 5.8 136.3c-3.4 1-5.8 4.1-5.8 7.7zM160 48c0 3.7 2.5 6.9 6.1 7.8l27.3 6.8 6.8 27.3c.9 3.6 4.1 6.1 7.8 6.1s6.9-2.5 7.8-6.1l6.8-27.3 27.3-6.8c3.6-.9 6.1-4.1 6.1-7.8s-2.5-6.9-6.1-7.8l-27.3-6.8L215.8 6.1C214.9 2.5 211.7 0 208 0s-6.9 2.5-7.8 6.1l-6.8 27.3-27.3 6.8c-3.6 .9-6.1 4.1-6.1 7.8zM352 368c0 3.6 2.4 6.7 5.8 7.7l51.7 14.8 14.8 51.7c1 3.4 4.1 5.8 7.7 5.8s6.7-2.4 7.7-5.8l14.8-51.7 51.7-14.8c3.4-1 5.8-4.1 5.8-7.7s-2.4-6.7-5.8-7.7l-51.7-14.8-14.8-51.7c-1-3.4-4.1-5.8-7.7-5.8s-6.7 2.4-7.7 5.8l-14.8 51.7-51.7 14.8c-3.4 1-5.8 4.1-5.8 7.7z"/><path class="fa-primary" d="M497 7c-9-9-23.5-9.4-33-.9L189.3 251.9c-2.9 2.6-6.7 4.1-10.7 4.1L144 256c-8.8 0-16 7.2-16 16l0 27.6c0 4.6-1.9 8.9-5.3 11.9L11.1 411.3C4 417.7 0 426.7 0 436.2c0 8.8 3.5 17.3 9.7 23.5l42.6 42.6c6.2 6.2 14.7 9.8 23.5 9.8c9.5 0 18.5-4 24.8-11.1L372.3 197.3c3-3.4 7.4-5.3 11.9-5.3l15.8 0c8.8 0 16-7.2 16-16l0-21.4c0-3.9 1.5-7.7 4.1-10.7L505.9 48c8.5-9.5 8.1-24-.9-33l-8-8z"/></svg>