<svg xmlns="http://www.w3.org/2000/svg" viewBox="0 0 576 512"><!--! Font Awesome Pro 6.6.0 by @fontawesome - https://fontawesome.com License - https://fontawesome.com/license (Commercial License) Copyright 2024 Fonticons, Inc. --><defs><style>.fa-secondary{opacity:.4}</style></defs><path class="fa-secondary" d="M.8 455.3c4 17.2 21.2 27.9 38.4 23.9c24.5-5.7 44.9-16.5 58.2-25C126.5 469.7 159 480 192 480c31.9 0 60.6-9.9 80.4-18.9c5.8-2.7 11.1-5.3 15.6-7.7c4.5 2.4 9.7 5.1 15.6 7.7c19.8 9 48.5 18.9 80.4 18.9c33 0 65.5-10.3 94.5-25.8c13.4 8.4 33.7 19.3 58.2 25c17.2 4 34.4-6.7 38.4-23.9c.6-2.4 .8-4.9 .8-7.3c0-14.5-10-27.7-24.7-31.1c-18.1-4.2-36.2-13.3-50.6-25.2c-5.9-5-13.3-7.6-20.7-7.6c-6.5 0-12.9 2-18.5 5.9C439.4 405.2 410.9 416 384 416c-27.5 0-55-10.6-77.5-26.1c-11.1-7.9-25.9-7.9-37 0C247 405.4 219.5 416 192 416c-26.9 0-55.3-10.8-77.4-26.1C109 386 102.5 384 96 384c-7.4 0-14.8 2.6-20.7 7.6c-14.4 11.9-32.5 21-50.6 25.2c-17.2 4-27.9 21.2-23.9 38.4z"/><path class="fa-primary" d="M223.7 32C170.9 32 128 74.9 128 127.7L128 361c1.7 1 3.3 2 4.9 3.1c18 12.4 40.1 20.3 59.1 20.3l0-96.5 192 0 0 96.5s0 0 0 0c19 0 41.2-7.9 59.2-20.3c1.6-1.1 3.2-2.1 4.8-3.1l0-233.3c0-17.5 14.2-31.7 31.7-31.7c16 0 29.5 11.9 31.5 27.8l1 8.2c2.2 17.5 18.2 30 35.7 27.8s30-18.2 27.8-35.7l-1-8.2C568.7 68 528 32 479.7 32C426.9 32 384 74.9 384 127.7l0 96.3-192 0 0-96.3c0-17.5 14.2-31.7 31.7-31.7c16 0 29.5 11.9 31.5 27.8l1 8.2c2.2 17.5 18.2 30 35.7 27.8s30-18.2 27.8-35.7l-1-8.2C312.7 68 272 32 223.7 32z"/></svg>