<svg xmlns="http://www.w3.org/2000/svg" viewBox="0 0 576 512"><!--! Font Awesome Pro 6.6.0 by @fontawesome - https://fontawesome.com License - https://fontawesome.com/license (Commercial License) Copyright 2024 Fonticons, Inc. --><defs><style>.fa-secondary{opacity:.4}</style></defs><path class="fa-secondary" d="M.8 359.3c4 17.2 21.2 27.9 38.4 23.9c24.5-5.7 44.9-16.5 58.2-25C126.5 373.7 159 384 192 384c31.9 0 60.6-9.9 80.4-18.9c5.8-2.7 11.1-5.3 15.6-7.7c4.5 2.4 9.7 5.1 15.6 7.7c19.8 9 48.5 18.9 80.4 18.9c33 0 65.5-10.3 94.5-25.8c13.4 8.4 33.7 19.3 58.2 25c17.2 4 34.4-6.7 38.4-23.9c.6-2.4 .8-4.9 .8-7.3c0-14.5-10-27.7-24.7-31.1c-18.1-4.2-36.2-13.3-50.6-25.2c-5.9-5-13.3-7.6-20.7-7.6c-6.5 0-12.9 2-18.5 5.9C439.4 309.2 410.9 320 384 320c-27.5 0-55-10.6-77.5-26.1c-11.1-7.9-25.9-7.9-37 0C247 309.4 219.5 320 192 320c-26.9 0-55.3-10.8-77.4-26.1c-12-8.5-28.1-7.8-39.2 1.7c-14.4 11.9-32.5 21-50.6 25.2c-17.2 4-27.9 21.2-23.9 38.4zm0 128c4 17.2 21.2 27.9 38.4 23.9c24.5-5.7 44.9-16.5 58.2-25C126.5 501.7 159 512 192 512c31.9 0 60.6-9.9 80.4-18.9c5.8-2.7 11.1-5.3 15.6-7.7c4.5 2.4 9.7 5.1 15.6 7.7c19.8 9 48.5 18.9 80.4 18.9c33 0 65.5-10.3 94.5-25.8c13.4 8.4 33.7 19.3 58.2 25c17.2 4 34.4-6.7 38.4-23.9c.6-2.4 .8-4.9 .8-7.3c0-14.5-10-27.7-24.7-31.1c-18.1-4.2-36.2-13.3-50.6-25.2c-11.1-9.4-27.3-10.1-39.2-1.7C439.4 437.2 410.9 448 384 448c-27.5 0-55-10.6-77.5-26.1c-11.1-7.9-25.9-7.9-37 0C247 437.4 219.5 448 192 448c-26.9 0-55.3-10.8-77.4-26.1c-12-8.5-28.1-7.8-39.2 1.7c-14.4 11.9-32.5 21-50.6 25.2c-17.2 4-27.9 21.2-23.9 38.4z"/><path class="fa-primary" d="M320 104.3l34.5 31.3c13.1 11.9 33.3 10.9 45.2-2.2s10.9-33.3-2.2-45.2l-88-80c-12.2-11.1-30.8-11.1-43.1 0l-88 80c-13.1 11.9-14 32.1-2.2 45.2s32.1 14 45.2 2.2L256 104.3 256 208c0 17.7 14.3 32 32 32s32-14.3 32-32l0-103.7z"/></svg>