<svg xmlns="http://www.w3.org/2000/svg" viewBox="0 0 512 512"><!--! Font Awesome Pro 6.6.0 by @fontawesome - https://fontawesome.com License - https://fontawesome.com/license (Commercial License) Copyright 2024 Fonticons, Inc. --><defs><style>.fa-secondary{opacity:.4}</style></defs><path class="fa-secondary" d="M160 96c0 11.2 1.9 22 5.5 32l81 0c-12.7-4.4-22-17-22.4-31c0-.3 0-.7 0-1c0-17.7 14.3-32 32-32s32 14.3 32 32c0 .3 0 .6 0 .8c-.4 14-9.7 26.8-22.4 31.2l81 0c3.5-10 5.5-20.8 5.5-32c0-53-43-96-96-96s-96 43-96 96z"/><path class="fa-primary" d="M120 128c-22 0-41.2 15-46.6 36.4l-72 288c-3.6 14.3-.4 29.5 8.7 41.2S33.2 512 48 512l416 0c14.8 0 28.7-6.8 37.8-18.5s12.3-26.8 8.7-41.2l-72-288C433.2 143 414 128 392 128l-272 0z"/></svg>