<svg xmlns="http://www.w3.org/2000/svg" viewBox="0 0 512 512"><!--! Font Awesome Pro 6.6.0 by @fontawesome - https://fontawesome.com License - https://fontawesome.com/license (Commercial License) Copyright 2024 Fonticons, Inc. --><defs><style>.fa-secondary{opacity:.4}</style></defs><path class="fa-secondary" d="M0 480c0 8.2 3.1 16.4 9.4 22.6s14.4 9.4 22.6 9.4s16.4-3.1 22.6-9.4l68.9-68.9c-3.5-3.5-6.9-6.9-10.4-10.4c-4.8-4.8-9.6-9.6-14.4-14.4c-6.8-6.8-13.6-13.6-20.4-20.4L9.4 457.4C3.1 463.6 0 471.8 0 480zM145.7 368.1c1-.3 2-.6 2.9-.8c1-.3 2-.5 3-.7c2-.5 3.9-.9 5.9-1.2c4-.7 7.9-1.3 11.9-1.6c8-.7 16.1-.7 24.1 .1c10.6-10.6 21.3-21.3 31.9-31.9c-3.5-3.5-6.9-6.9-10.4-10.4c-11.6-11.6-23.2-23.2-34.8-34.8l-30.5 30.5c2.1 17 .8 34.4-4 51zM247.5 266.3c2-.6 4-1.1 5.9-1.5s3.9-.9 5.9-1.2c4-.7 8-1.3 12-1.7c8-.7 16.1-.7 24.1 .1c10.6-10.6 21.3-21.3 31.9-31.9l-10.4-10.4L294.2 197l-12.2-12.2-30.5 30.5c2.1 17 .8 34.4-4 51zM329.1 52.9c10.5 14.1 17.7 29.9 21.6 46.3L409 41c9.4-9.4 9.4-24.6 0-33.9c-4.7-4.7-10.8-7-17-7s-12.3 2.3-17 7L329.1 52.9zM383 95c-9.4 9.4-9.4 24.6 0 33.9s24.6 9.4 33.9 0l88-88c9.4-9.4 9.4-24.6 0-33.9c-4.7-4.7-10.8-7-17-7s-12.3 2.3-17 7L383 95zm28.6 67.4c16.6 3.6 32.7 10.5 47.1 20.8L505 137c9.4-9.4 9.4-24.6 0-33.9s-24.6-9.4-33.9 0l-59.4 59.4z"/><path class="fa-primary" d="M282.8 27.3c6.2-6.2 16.4-6.2 22.6 0l11.3 11.3c34.1 34.1 44.9 82.6 32.5 125.9c43.3-12.4 91.8-1.5 125.9 32.5l11.3 11.3c6.2 6.2 6.2 16.4 0 22.6l-11.3 11.3c-37.5 37.5-98.3 37.5-135.8 0l-22.6-22.6s0 0 0 0l-45.3-45.3c-37.5-37.5-37.5-98.3 0-135.8l11.3-11.3zM203.6 129.1L215 140.5c34.1 34.1 44.9 82.6 32.5 125.9c43.3-12.4 91.8-1.5 125.9 32.5l11.3 11.3c6.2 6.2 6.2 16.4 0 22.6l-11.3 11.3c-37.5 37.5-98.3 37.5-135.8 0L215 321.5s0 0 0 0l-45.3-45.3c-37.5-37.5-37.5-98.3 0-135.8L181 129.1c6.2-6.2 16.4-6.2 22.6 0zM79.2 231c6.2-6.2 16.4-6.2 22.6 0l11.3 11.3c34.1 34.1 44.9 82.6 32.5 125.9c43.3-12.4 91.8-1.5 125.9 32.5L282.8 412c6.2 6.2 6.2 16.4 0 22.6l-11.3 11.3c-37.5 37.5-98.3 37.5-135.8 0l-22.6-22.6s0 0 0 0L67.9 378c-37.5-37.5-37.5-98.3 0-135.8L79.2 231z"/></svg>