<svg xmlns="http://www.w3.org/2000/svg" viewBox="0 0 640 512"><!--! Font Awesome Pro 6.6.0 by @fontawesome - https://fontawesome.com License - https://fontawesome.com/license (Commercial License) Copyright 2024 Fonticons, Inc. --><defs><style>.fa-secondary{opacity:.4}</style></defs><path class="fa-secondary" d="M160 488c0 3.6 .8 7.3 2.5 10.7c4.2 8.4 12.7 13.3 21.5 13.3c3.6 0 7.3-.8 10.7-2.5l9.9-5c32.2-16.1 67.7-24.5 103.8-24.5l11.6 0c-2.5 0-5.1 0-7.6-.1s-5-.2-7.5-.4c-5-.3-9.9-.8-14.8-1.5c-9.8-1.3-19.4-3.2-28.7-5.8c-2.3-.6-4.7-1.3-7-2c-2.3-.7-4.6-1.4-6.8-2.2c-4.5-1.6-9-3.2-13.4-5.1c-8.8-3.7-17.3-7.9-25.5-12.6c-8.6 3.3-17.1 7-25.4 11.2l-9.9 5c-8.4 4.2-13.3 12.7-13.3 21.5zm160-56l11.6 0c2.1 0 4.3 0 6.4 .1s4.3 .1 6.4 .2c4.3 .2 8.5 .5 12.8 .9c8.5 .8 16.9 1.9 25.3 3.5c16.7 3.1 33.1 7.7 49 13.7c5.6-3.2 11-6.7 16.3-10.3c59.6 28.2 131.9 6.3 165.4-51.8l8-13.9c4.4-7.7 1.8-17.4-5.9-21.9c-13.8-8-28.4-13.1-43.3-15.5c40.4-21.5 68-64.1 68-113.1l0-16c0-8.8-7.2-16-16-16c-15.9 0-31.1 2.9-45.2 8.2c24.3-38.8 26.8-89.5 2.3-131.9l-8-13.9c-4.4-7.7-14.2-10.3-21.9-5.9C525 63.7 506.2 86.8 496 113l0-1C496 50.1 445.9 0 384 0L368 0c-8.8 0-16 7.2-16 16l0 16c0 60.2 47.5 109.3 107 111.9c23.9 32.2 37 71.5 37 112.1c0 97.2-78.8 176-176 176z"/><path class="fa-primary" d="M144 112C144 50.1 194.1 0 256 0l16 0c8.8 0 16 7.2 16 16l0 16c0 60.2-47.5 109.3-107 111.9c-23.9 32.2-37 71.5-37 112.1c0 97.2 78.8 176 176 176l11.6 0c43.5 0 86.3 10.1 125.2 29.6l9.9 5c11.9 5.9 16.7 20.3 10.7 32.2s-20.3 16.7-32.2 10.7l-9.9-5C403.1 488.4 367.6 480 331.6 480L320 480c-47.5 0-91.5-14.8-127.7-39.9c-59.6 28.2-131.9 6.3-165.4-51.8l-8-13.9c-4.4-7.7-1.8-17.4 5.9-21.9c13.8-8 28.4-13.1 43.3-15.5C27.5 315.6 0 273 0 224l0-16c0-8.8 7.2-16 16-16c15.9 0 31.1 2.9 45.2 8.2c-24.3-38.8-26.8-89.5-2.3-131.9l8-13.9c4.4-7.7 14.2-10.3 21.9-5.9C115 63.7 133.8 86.8 144 113l0-1z"/></svg>